<?xml version="1.0" encoding="us-ascii" standalone="no"?><svg xmlns="http://www.w3.org/2000/svg" xmlns:xlink="http://www.w3.org/1999/xlink" contentStyleType="text/css" height="264px" preserveAspectRatio="none" style="width:968px;height:264px;background:#FFFFFF;" version="1.1" viewBox="0 0 968 264" width="968px" zoomAndPan="magnify"><defs/><g><!--cluster candidate--><g id="cluster_candidate"><rect fill="#AABBCC" height="251" rx="2.5" ry="2.5" style="stroke:#181818;stroke-width:1.0;" width="313" x="649" y="7"/><text fill="#000000" font-family="sans-serif" font-size="14" font-weight="bold" lengthAdjust="spacing" textLength="69" x="771" y="24.1074">candidate</text></g><!--cluster PlugIn--><g id="cluster_PlugIn"><rect fill="#BABABA" height="243" rx="2.5" ry="2.5" style="stroke:#181818;stroke-width:1.0;" width="618" x="7" y="7"/><text fill="#000000" font-family="sans-serif" font-size="14" font-weight="bold" lengthAdjust="spacing" textLength="44" x="294" y="24.1074">PlugIn</text></g><!--class Candidate--><g id="elem_Candidate"><rect codeLine="10" fill="#F1F1F1" height="68.543" id="Candidate" rx="2.5" ry="2.5" style="stroke:#181818;stroke-width:0.5;" width="128" x="740" y="44"/><ellipse cx="755" cy="74.2715" fill="#ADD1B2" rx="11" ry="11" style="stroke:#181818;stroke-width:1.0;"/><path d="M757.7656,70.1465 Q757.9219,69.9277 758.1094,69.8184 Q758.2969,69.709 758.5156,69.709 Q758.8906,69.709 759.125,69.9746 Q759.3594,70.2246 759.3594,70.834 L759.3594,72.2871 Q759.3594,72.8965 759.125,73.1621 Q758.8906,73.4277 758.5156,73.4277 Q758.1719,73.4277 757.9688,73.2246 Q757.7656,73.0371 757.6563,72.5215 Q757.6094,72.1621 757.4219,71.9746 Q757.0938,71.5996 756.4844,71.3809 Q755.875,71.1621 755.25,71.1621 Q754.4844,71.1621 753.8438,71.4902 Q753.2188,71.8184 752.7188,72.5684 Q752.2344,73.3184 752.2344,74.3496 L752.2344,75.4434 Q752.2344,76.6777 753.125,77.5059 Q754.0156,78.3184 755.6094,78.3184 Q756.5469,78.3184 757.2031,78.0684 Q757.5938,77.9121 758.0156,77.4746 Q758.2813,77.209 758.4219,77.1309 Q758.5781,77.0527 758.7813,77.0527 Q759.1094,77.0527 759.3594,77.3184 Q759.625,77.5684 759.625,77.9121 Q759.625,78.2559 759.2813,78.6621 Q758.7813,79.2402 757.9844,79.5684 Q756.9063,80.0215 755.6094,80.0215 Q754.0938,80.0215 752.8906,79.3965 Q751.9063,78.8965 751.2188,77.834 Q750.5313,76.7559 750.5313,75.4746 L750.5313,74.3184 Q750.5313,72.9902 751.1406,71.8496 Q751.7656,70.6934 752.8594,70.084 Q753.9531,69.459 755.1875,69.459 Q755.9219,69.459 756.5625,69.6309 Q757.2188,69.7871 757.7656,70.1465 Z " fill="#000000"/><text fill="#000000" font-family="sans-serif" font-size="12" font-style="italic" lengthAdjust="spacing" textLength="100" x="767" y="61.9492">&#171;Aggregate Root&#187;</text><text fill="#000000" font-family="sans-serif" font-size="12" font-style="italic" lengthAdjust="spacing" textLength="44" x="795" y="77.9102">&#171;Entity&#187;</text><text fill="#000000" font-family="sans-serif" font-size="14" lengthAdjust="spacing" textLength="65" x="784.5" y="96.0293">Candidate</text><line style="stroke:#181818;stroke-width:0.5;" x1="741" x2="867" y1="104.543" y2="104.543"/></g><!--class CandidateId--><g id="elem_CandidateId"><rect codeLine="11" fill="#F1F1F1" height="68.543" id="CandidateId" rx="2.5" ry="2.5" style="stroke:#181818;stroke-width:0.5;" width="113" x="665.5" y="173"/><ellipse cx="680.5" cy="203.2715" fill="#ADD1B2" rx="11" ry="11" style="stroke:#181818;stroke-width:1.0;"/><path d="M683.2656,199.1465 Q683.4219,198.9277 683.6094,198.8184 Q683.7969,198.709 684.0156,198.709 Q684.3906,198.709 684.625,198.9746 Q684.8594,199.2246 684.8594,199.834 L684.8594,201.2871 Q684.8594,201.8965 684.625,202.1621 Q684.3906,202.4277 684.0156,202.4277 Q683.6719,202.4277 683.4688,202.2246 Q683.2656,202.0371 683.1563,201.5215 Q683.1094,201.1621 682.9219,200.9746 Q682.5938,200.5996 681.9844,200.3809 Q681.375,200.1621 680.75,200.1621 Q679.9844,200.1621 679.3438,200.4902 Q678.7188,200.8184 678.2188,201.5684 Q677.7344,202.3184 677.7344,203.3496 L677.7344,204.4434 Q677.7344,205.6777 678.625,206.5059 Q679.5156,207.3184 681.1094,207.3184 Q682.0469,207.3184 682.7031,207.0684 Q683.0938,206.9121 683.5156,206.4746 Q683.7813,206.209 683.9219,206.1309 Q684.0781,206.0527 684.2813,206.0527 Q684.6094,206.0527 684.8594,206.3184 Q685.125,206.5684 685.125,206.9121 Q685.125,207.2559 684.7813,207.6621 Q684.2813,208.2402 683.4844,208.5684 Q682.4063,209.0215 681.1094,209.0215 Q679.5938,209.0215 678.3906,208.3965 Q677.4063,207.8965 676.7188,206.834 Q676.0313,205.7559 676.0313,204.4746 L676.0313,203.3184 Q676.0313,201.9902 676.6406,200.8496 Q677.2656,199.6934 678.3594,199.084 Q679.4531,198.459 680.6875,198.459 Q681.4219,198.459 682.0625,198.6309 Q682.7188,198.7871 683.2656,199.1465 Z " fill="#000000"/><text fill="#000000" font-family="sans-serif" font-size="12" font-style="italic" lengthAdjust="spacing" textLength="54" x="708" y="190.9492">&#171;Identity&#187;</text><text fill="#000000" font-family="sans-serif" font-size="12" font-style="italic" lengthAdjust="spacing" textLength="85" x="692.5" y="206.9102">&#171;Value Object&#187;</text><text fill="#000000" font-family="sans-serif" font-size="14" lengthAdjust="spacing" textLength="76" x="697" y="225.0293">CandidateId</text><line style="stroke:#181818;stroke-width:0.5;" x1="666.5" x2="777.5" y1="233.543" y2="233.543"/></g><!--class CurriculumVitae--><g id="elem_CurriculumVitae"><rect codeLine="12" fill="#F1F1F1" height="52.582" id="CurriculumVitae" rx="2.5" ry="2.5" style="stroke:#181818;stroke-width:0.5;" width="132" x="814" y="181"/><ellipse cx="829" cy="203.291" fill="#ADD1B2" rx="11" ry="11" style="stroke:#181818;stroke-width:1.0;"/><path d="M831.7656,199.166 Q831.9219,198.9473 832.1094,198.8379 Q832.2969,198.7285 832.5156,198.7285 Q832.8906,198.7285 833.125,198.9941 Q833.3594,199.2441 833.3594,199.8535 L833.3594,201.3066 Q833.3594,201.916 833.125,202.1816 Q832.8906,202.4473 832.5156,202.4473 Q832.1719,202.4473 831.9688,202.2441 Q831.7656,202.0566 831.6563,201.541 Q831.6094,201.1816 831.4219,200.9941 Q831.0938,200.6191 830.4844,200.4004 Q829.875,200.1816 829.25,200.1816 Q828.4844,200.1816 827.8438,200.5098 Q827.2188,200.8379 826.7188,201.5879 Q826.2344,202.3379 826.2344,203.3691 L826.2344,204.4629 Q826.2344,205.6973 827.125,206.5254 Q828.0156,207.3379 829.6094,207.3379 Q830.5469,207.3379 831.2031,207.0879 Q831.5938,206.9316 832.0156,206.4941 Q832.2813,206.2285 832.4219,206.1504 Q832.5781,206.0723 832.7813,206.0723 Q833.1094,206.0723 833.3594,206.3379 Q833.625,206.5879 833.625,206.9316 Q833.625,207.2754 833.2813,207.6816 Q832.7813,208.2598 831.9844,208.5879 Q830.9063,209.041 829.6094,209.041 Q828.0938,209.041 826.8906,208.416 Q825.9063,207.916 825.2188,206.8535 Q824.5313,205.7754 824.5313,204.4941 L824.5313,203.3379 Q824.5313,202.0098 825.1406,200.8691 Q825.7656,199.7129 826.8594,199.1035 Q827.9531,198.4785 829.1875,198.4785 Q829.9219,198.4785 830.5625,198.6504 Q831.2188,198.8066 831.7656,199.166 Z " fill="#000000"/><text fill="#000000" font-family="sans-serif" font-size="12" font-style="italic" lengthAdjust="spacing" textLength="85" x="850.5" y="198.9492">&#171;Value Object&#187;</text><text fill="#000000" font-family="sans-serif" font-size="14" lengthAdjust="spacing" textLength="100" x="843" y="217.0684">CurriculumVitae</text><line style="stroke:#181818;stroke-width:0.5;" x1="815" x2="945" y1="225.582" y2="225.582"/></g><!--class Plugin--><g id="elem_Plugin"><rect codeLine="19" fill="#F1F1F1" height="68.543" id="Plugin" rx="2.5" ry="2.5" style="stroke:#181818;stroke-width:0.5;" width="128" x="332" y="44"/><ellipse cx="347" cy="74.2715" fill="#ADD1B2" rx="11" ry="11" style="stroke:#181818;stroke-width:1.0;"/><path d="M349.7656,70.1465 Q349.9219,69.9277 350.1094,69.8184 Q350.2969,69.709 350.5156,69.709 Q350.8906,69.709 351.125,69.9746 Q351.3594,70.2246 351.3594,70.834 L351.3594,72.2871 Q351.3594,72.8965 351.125,73.1621 Q350.8906,73.4277 350.5156,73.4277 Q350.1719,73.4277 349.9688,73.2246 Q349.7656,73.0371 349.6563,72.5215 Q349.6094,72.1621 349.4219,71.9746 Q349.0938,71.5996 348.4844,71.3809 Q347.875,71.1621 347.25,71.1621 Q346.4844,71.1621 345.8438,71.4902 Q345.2188,71.8184 344.7188,72.5684 Q344.2344,73.3184 344.2344,74.3496 L344.2344,75.4434 Q344.2344,76.6777 345.125,77.5059 Q346.0156,78.3184 347.6094,78.3184 Q348.5469,78.3184 349.2031,78.0684 Q349.5938,77.9121 350.0156,77.4746 Q350.2813,77.209 350.4219,77.1309 Q350.5781,77.0527 350.7813,77.0527 Q351.1094,77.0527 351.3594,77.3184 Q351.625,77.5684 351.625,77.9121 Q351.625,78.2559 351.2813,78.6621 Q350.7813,79.2402 349.9844,79.5684 Q348.9063,80.0215 347.6094,80.0215 Q346.0938,80.0215 344.8906,79.3965 Q343.9063,78.8965 343.2188,77.834 Q342.5313,76.7559 342.5313,75.4746 L342.5313,74.3184 Q342.5313,72.9902 343.1406,71.8496 Q343.7656,70.6934 344.8594,70.084 Q345.9531,69.459 347.1875,69.459 Q347.9219,69.459 348.5625,69.6309 Q349.2188,69.7871 349.7656,70.1465 Z " fill="#000000"/><text fill="#000000" font-family="sans-serif" font-size="12" font-style="italic" lengthAdjust="spacing" textLength="100" x="359" y="61.9492">&#171;Aggregate Root&#187;</text><text fill="#000000" font-family="sans-serif" font-size="12" font-style="italic" lengthAdjust="spacing" textLength="44" x="387" y="77.9102">&#171;Entity&#187;</text><text fill="#000000" font-family="sans-serif" font-size="14" lengthAdjust="spacing" textLength="39" x="389.5" y="96.0293">Plugin</text><line style="stroke:#181818;stroke-width:0.5;" x1="333" x2="459" y1="104.543" y2="104.543"/></g><!--class PluginType--><g id="elem_PluginType"><rect codeLine="20" fill="#F1F1F1" height="52.582" id="PluginType" rx="2.5" ry="2.5" style="stroke:#181818;stroke-width:0.5;" width="113" x="169.5" y="181"/><ellipse cx="184.5" cy="203.291" fill="#ADD1B2" rx="11" ry="11" style="stroke:#181818;stroke-width:1.0;"/><path d="M187.2656,199.166 Q187.4219,198.9473 187.6094,198.8379 Q187.7969,198.7285 188.0156,198.7285 Q188.3906,198.7285 188.625,198.9941 Q188.8594,199.2441 188.8594,199.8535 L188.8594,201.3066 Q188.8594,201.916 188.625,202.1816 Q188.3906,202.4473 188.0156,202.4473 Q187.6719,202.4473 187.4688,202.2441 Q187.2656,202.0566 187.1563,201.541 Q187.1094,201.1816 186.9219,200.9941 Q186.5938,200.6191 185.9844,200.4004 Q185.375,200.1816 184.75,200.1816 Q183.9844,200.1816 183.3438,200.5098 Q182.7188,200.8379 182.2188,201.5879 Q181.7344,202.3379 181.7344,203.3691 L181.7344,204.4629 Q181.7344,205.6973 182.625,206.5254 Q183.5156,207.3379 185.1094,207.3379 Q186.0469,207.3379 186.7031,207.0879 Q187.0938,206.9316 187.5156,206.4941 Q187.7813,206.2285 187.9219,206.1504 Q188.0781,206.0723 188.2813,206.0723 Q188.6094,206.0723 188.8594,206.3379 Q189.125,206.5879 189.125,206.9316 Q189.125,207.2754 188.7813,207.6816 Q188.2813,208.2598 187.4844,208.5879 Q186.4063,209.041 185.1094,209.041 Q183.5938,209.041 182.3906,208.416 Q181.4063,207.916 180.7188,206.8535 Q180.0313,205.7754 180.0313,204.4941 L180.0313,203.3379 Q180.0313,202.0098 180.6406,200.8691 Q181.2656,199.7129 182.3594,199.1035 Q183.4531,198.4785 184.6875,198.4785 Q185.4219,198.4785 186.0625,198.6504 Q186.7188,198.8066 187.2656,199.166 Z " fill="#000000"/><text fill="#000000" font-family="sans-serif" font-size="12" font-style="italic" lengthAdjust="spacing" textLength="85" x="196.5" y="198.9492">&#171;Value Object&#187;</text><text fill="#000000" font-family="sans-serif" font-size="14" lengthAdjust="spacing" textLength="71" x="203.5" y="217.0684">PluginType</text><line style="stroke:#181818;stroke-width:0.5;" x1="170.5" x2="281.5" y1="225.582" y2="225.582"/></g><!--class PluginId--><g id="elem_PluginId"><rect codeLine="21" fill="#F1F1F1" height="68.543" id="PluginId" rx="2.5" ry="2.5" style="stroke:#181818;stroke-width:0.5;" width="113" x="495.5" y="44"/><ellipse cx="510.5" cy="74.2715" fill="#ADD1B2" rx="11" ry="11" style="stroke:#181818;stroke-width:1.0;"/><path d="M513.2656,70.1465 Q513.4219,69.9277 513.6094,69.8184 Q513.7969,69.709 514.0156,69.709 Q514.3906,69.709 514.625,69.9746 Q514.8594,70.2246 514.8594,70.834 L514.8594,72.2871 Q514.8594,72.8965 514.625,73.1621 Q514.3906,73.4277 514.0156,73.4277 Q513.6719,73.4277 513.4688,73.2246 Q513.2656,73.0371 513.1563,72.5215 Q513.1094,72.1621 512.9219,71.9746 Q512.5938,71.5996 511.9844,71.3809 Q511.375,71.1621 510.75,71.1621 Q509.9844,71.1621 509.3438,71.4902 Q508.7188,71.8184 508.2188,72.5684 Q507.7344,73.3184 507.7344,74.3496 L507.7344,75.4434 Q507.7344,76.6777 508.625,77.5059 Q509.5156,78.3184 511.1094,78.3184 Q512.0469,78.3184 512.7031,78.0684 Q513.0938,77.9121 513.5156,77.4746 Q513.7813,77.209 513.9219,77.1309 Q514.0781,77.0527 514.2813,77.0527 Q514.6094,77.0527 514.8594,77.3184 Q515.125,77.5684 515.125,77.9121 Q515.125,78.2559 514.7813,78.6621 Q514.2813,79.2402 513.4844,79.5684 Q512.4063,80.0215 511.1094,80.0215 Q509.5938,80.0215 508.3906,79.3965 Q507.4063,78.8965 506.7188,77.834 Q506.0313,76.7559 506.0313,75.4746 L506.0313,74.3184 Q506.0313,72.9902 506.6406,71.8496 Q507.2656,70.6934 508.3594,70.084 Q509.4531,69.459 510.6875,69.459 Q511.4219,69.459 512.0625,69.6309 Q512.7188,69.7871 513.2656,70.1465 Z " fill="#000000"/><text fill="#000000" font-family="sans-serif" font-size="12" font-style="italic" lengthAdjust="spacing" textLength="54" x="538" y="61.9492">&#171;Identity&#187;</text><text fill="#000000" font-family="sans-serif" font-size="12" font-style="italic" lengthAdjust="spacing" textLength="85" x="522.5" y="77.9102">&#171;Value Object&#187;</text><text fill="#000000" font-family="sans-serif" font-size="14" lengthAdjust="spacing" textLength="50" x="540" y="96.0293">PluginId</text><line style="stroke:#181818;stroke-width:0.5;" x1="496.5" x2="607.5" y1="104.543" y2="104.543"/></g><!--class PluginDescription--><g id="elem_PluginDescription"><rect codeLine="22" fill="#F1F1F1" height="52.582" id="PluginDescription" rx="2.5" ry="2.5" style="stroke:#181818;stroke-width:0.5;" width="142" x="318" y="181"/><ellipse cx="333" cy="203.291" fill="#ADD1B2" rx="11" ry="11" style="stroke:#181818;stroke-width:1.0;"/><path d="M335.7656,199.166 Q335.9219,198.9473 336.1094,198.8379 Q336.2969,198.7285 336.5156,198.7285 Q336.8906,198.7285 337.125,198.9941 Q337.3594,199.2441 337.3594,199.8535 L337.3594,201.3066 Q337.3594,201.916 337.125,202.1816 Q336.8906,202.4473 336.5156,202.4473 Q336.1719,202.4473 335.9688,202.2441 Q335.7656,202.0566 335.6563,201.541 Q335.6094,201.1816 335.4219,200.9941 Q335.0938,200.6191 334.4844,200.4004 Q333.875,200.1816 333.25,200.1816 Q332.4844,200.1816 331.8438,200.5098 Q331.2188,200.8379 330.7188,201.5879 Q330.2344,202.3379 330.2344,203.3691 L330.2344,204.4629 Q330.2344,205.6973 331.125,206.5254 Q332.0156,207.3379 333.6094,207.3379 Q334.5469,207.3379 335.2031,207.0879 Q335.5938,206.9316 336.0156,206.4941 Q336.2813,206.2285 336.4219,206.1504 Q336.5781,206.0723 336.7813,206.0723 Q337.1094,206.0723 337.3594,206.3379 Q337.625,206.5879 337.625,206.9316 Q337.625,207.2754 337.2813,207.6816 Q336.7813,208.2598 335.9844,208.5879 Q334.9063,209.041 333.6094,209.041 Q332.0938,209.041 330.8906,208.416 Q329.9063,207.916 329.2188,206.8535 Q328.5313,205.7754 328.5313,204.4941 L328.5313,203.3379 Q328.5313,202.0098 329.1406,200.8691 Q329.7656,199.7129 330.8594,199.1035 Q331.9531,198.4785 333.1875,198.4785 Q333.9219,198.4785 334.5625,198.6504 Q335.2188,198.8066 335.7656,199.166 Z " fill="#000000"/><text fill="#000000" font-family="sans-serif" font-size="12" font-style="italic" lengthAdjust="spacing" textLength="85" x="359.5" y="198.9492">&#171;Value Object&#187;</text><text fill="#000000" font-family="sans-serif" font-size="14" lengthAdjust="spacing" textLength="110" x="347" y="217.0684">PluginDescription</text><line style="stroke:#181818;stroke-width:0.5;" x1="319" x2="459" y1="225.582" y2="225.582"/></g><!--class JarFile--><g id="elem_JarFile"><rect codeLine="23" fill="#F1F1F1" height="52.582" id="JarFile" rx="2.5" ry="2.5" style="stroke:#181818;stroke-width:0.5;" width="113" x="495.5" y="181"/><ellipse cx="510.5" cy="203.291" fill="#ADD1B2" rx="11" ry="11" style="stroke:#181818;stroke-width:1.0;"/><path d="M513.2656,199.166 Q513.4219,198.9473 513.6094,198.8379 Q513.7969,198.7285 514.0156,198.7285 Q514.3906,198.7285 514.625,198.9941 Q514.8594,199.2441 514.8594,199.8535 L514.8594,201.3066 Q514.8594,201.916 514.625,202.1816 Q514.3906,202.4473 514.0156,202.4473 Q513.6719,202.4473 513.4688,202.2441 Q513.2656,202.0566 513.1563,201.541 Q513.1094,201.1816 512.9219,200.9941 Q512.5938,200.6191 511.9844,200.4004 Q511.375,200.1816 510.75,200.1816 Q509.9844,200.1816 509.3438,200.5098 Q508.7188,200.8379 508.2188,201.5879 Q507.7344,202.3379 507.7344,203.3691 L507.7344,204.4629 Q507.7344,205.6973 508.625,206.5254 Q509.5156,207.3379 511.1094,207.3379 Q512.0469,207.3379 512.7031,207.0879 Q513.0938,206.9316 513.5156,206.4941 Q513.7813,206.2285 513.9219,206.1504 Q514.0781,206.0723 514.2813,206.0723 Q514.6094,206.0723 514.8594,206.3379 Q515.125,206.5879 515.125,206.9316 Q515.125,207.2754 514.7813,207.6816 Q514.2813,208.2598 513.4844,208.5879 Q512.4063,209.041 511.1094,209.041 Q509.5938,209.041 508.3906,208.416 Q507.4063,207.916 506.7188,206.8535 Q506.0313,205.7754 506.0313,204.4941 L506.0313,203.3379 Q506.0313,202.0098 506.6406,200.8691 Q507.2656,199.7129 508.3594,199.1035 Q509.4531,198.4785 510.6875,198.4785 Q511.4219,198.4785 512.0625,198.6504 Q512.7188,198.8066 513.2656,199.166 Z " fill="#000000"/><text fill="#000000" font-family="sans-serif" font-size="12" font-style="italic" lengthAdjust="spacing" textLength="85" x="522.5" y="198.9492">&#171;Value Object&#187;</text><text fill="#000000" font-family="sans-serif" font-size="14" lengthAdjust="spacing" textLength="42" x="544" y="217.0684">JarFile</text><line style="stroke:#181818;stroke-width:0.5;" x1="496.5" x2="607.5" y1="225.582" y2="225.582"/></g><!--class Requirement--><g id="elem_Requirement"><rect codeLine="24" fill="#F1F1F1" height="52.582" id="Requirement" rx="2.5" ry="2.5" style="stroke:#181818;stroke-width:0.5;" width="113" x="183.5" y="52"/><ellipse cx="198.5" cy="74.291" fill="#ADD1B2" rx="11" ry="11" style="stroke:#181818;stroke-width:1.0;"/><path d="M201.2656,70.166 Q201.4219,69.9473 201.6094,69.8379 Q201.7969,69.7285 202.0156,69.7285 Q202.3906,69.7285 202.625,69.9941 Q202.8594,70.2441 202.8594,70.8535 L202.8594,72.3066 Q202.8594,72.916 202.625,73.1816 Q202.3906,73.4473 202.0156,73.4473 Q201.6719,73.4473 201.4688,73.2441 Q201.2656,73.0566 201.1563,72.541 Q201.1094,72.1816 200.9219,71.9941 Q200.5938,71.6191 199.9844,71.4004 Q199.375,71.1816 198.75,71.1816 Q197.9844,71.1816 197.3438,71.5098 Q196.7188,71.8379 196.2188,72.5879 Q195.7344,73.3379 195.7344,74.3691 L195.7344,75.4629 Q195.7344,76.6973 196.625,77.5254 Q197.5156,78.3379 199.1094,78.3379 Q200.0469,78.3379 200.7031,78.0879 Q201.0938,77.9316 201.5156,77.4941 Q201.7813,77.2285 201.9219,77.1504 Q202.0781,77.0723 202.2813,77.0723 Q202.6094,77.0723 202.8594,77.3379 Q203.125,77.5879 203.125,77.9316 Q203.125,78.2754 202.7813,78.6816 Q202.2813,79.2598 201.4844,79.5879 Q200.4063,80.041 199.1094,80.041 Q197.5938,80.041 196.3906,79.416 Q195.4063,78.916 194.7188,77.8535 Q194.0313,76.7754 194.0313,75.4941 L194.0313,74.3379 Q194.0313,73.0098 194.6406,71.8691 Q195.2656,70.7129 196.3594,70.1035 Q197.4531,69.4785 198.6875,69.4785 Q199.4219,69.4785 200.0625,69.6504 Q200.7188,69.8066 201.2656,70.166 Z " fill="#000000"/><text fill="#000000" font-family="sans-serif" font-size="12" font-style="italic" lengthAdjust="spacing" textLength="67" x="219.5" y="69.9492">&#171;Resource&#187;</text><text fill="#000000" font-family="sans-serif" font-size="14" lengthAdjust="spacing" textLength="81" x="212.5" y="88.0684">Requirement</text><line style="stroke:#181818;stroke-width:0.5;" x1="184.5" x2="295.5" y1="96.582" y2="96.582"/></g><!--class InterviewModel--><g id="elem_InterviewModel"><rect codeLine="25" fill="#F1F1F1" height="52.582" id="InterviewModel" rx="2.5" ry="2.5" style="stroke:#181818;stroke-width:0.5;" width="125" x="23.5" y="52"/><ellipse cx="38.5" cy="74.291" fill="#ADD1B2" rx="11" ry="11" style="stroke:#181818;stroke-width:1.0;"/><path d="M41.2656,70.166 Q41.4219,69.9473 41.6094,69.8379 Q41.7969,69.7285 42.0156,69.7285 Q42.3906,69.7285 42.625,69.9941 Q42.8594,70.2441 42.8594,70.8535 L42.8594,72.3066 Q42.8594,72.916 42.625,73.1816 Q42.3906,73.4473 42.0156,73.4473 Q41.6719,73.4473 41.4688,73.2441 Q41.2656,73.0566 41.1563,72.541 Q41.1094,72.1816 40.9219,71.9941 Q40.5938,71.6191 39.9844,71.4004 Q39.375,71.1816 38.75,71.1816 Q37.9844,71.1816 37.3438,71.5098 Q36.7188,71.8379 36.2188,72.5879 Q35.7344,73.3379 35.7344,74.3691 L35.7344,75.4629 Q35.7344,76.6973 36.625,77.5254 Q37.5156,78.3379 39.1094,78.3379 Q40.0469,78.3379 40.7031,78.0879 Q41.0938,77.9316 41.5156,77.4941 Q41.7813,77.2285 41.9219,77.1504 Q42.0781,77.0723 42.2813,77.0723 Q42.6094,77.0723 42.8594,77.3379 Q43.125,77.5879 43.125,77.9316 Q43.125,78.2754 42.7813,78.6816 Q42.2813,79.2598 41.4844,79.5879 Q40.4063,80.041 39.1094,80.041 Q37.5938,80.041 36.3906,79.416 Q35.4063,78.916 34.7188,77.8535 Q34.0313,76.7754 34.0313,75.4941 L34.0313,74.3379 Q34.0313,73.0098 34.6406,71.8691 Q35.2656,70.7129 36.3594,70.1035 Q37.4531,69.4785 38.6875,69.4785 Q39.4219,69.4785 40.0625,69.6504 Q40.7188,69.8066 41.2656,70.166 Z " fill="#000000"/><text fill="#000000" font-family="sans-serif" font-size="12" font-style="italic" lengthAdjust="spacing" textLength="67" x="65.5" y="69.9492">&#171;Resource&#187;</text><text fill="#000000" font-family="sans-serif" font-size="14" lengthAdjust="spacing" textLength="93" x="52.5" y="88.0684">InterviewModel</text><line style="stroke:#181818;stroke-width:0.5;" x1="24.5" x2="147.5" y1="96.582" y2="96.582"/></g><!--link Plugin to PluginType--><g id="link_Plugin_PluginType"><path codeLine="28" d="M350.89,113.2 C322.46,134.44 291.1471,157.8394 265.0671,177.3194 " fill="none" id="Plugin-to-PluginType" style="stroke:#181818;stroke-width:1.0;"/><polygon fill="#181818" points="260.26,180.91,269.8643,178.7289,264.2659,177.9179,265.0769,172.3195,260.26,180.91" style="stroke:#181818;stroke-width:1.0;"/><text fill="#000000" font-family="sans-serif" font-size="13" lengthAdjust="spacing" textLength="7" x="335.839" y="134.4453">1</text><text fill="#000000" font-family="sans-serif" font-size="13" lengthAdjust="spacing" textLength="7" x="260.3733" y="169.9057">1</text></g><!--link Plugin to PluginId--><g id="link_Plugin_PluginId"><path codeLine="29" d="M460.29,78.5 C471.99,78.5 477.69,78.5 489.4,78.5 " fill="none" id="Plugin-to-PluginId" style="stroke:#181818;stroke-width:1.0;"/><polygon fill="#181818" points="495.4,78.5,486.4,74.5,490.4,78.5,486.4,82.5,495.4,78.5" style="stroke:#181818;stroke-width:1.0;"/><text fill="#000000" font-family="sans-serif" font-size="13" lengthAdjust="spacing" textLength="7" x="468.1282" y="74.5888">1</text><text fill="#000000" font-family="sans-serif" font-size="13" lengthAdjust="spacing" textLength="7" x="480.3241" y="74.4364">1</text></g><!--link Plugin to PluginDescription--><g id="link_Plugin_PluginDescription"><path codeLine="30" d="M394.14,113.2 C392.98,134.36 391.8194,155.249 390.7494,174.709 " fill="none" id="Plugin-to-PluginDescription" style="stroke:#181818;stroke-width:1.0;"/><polygon fill="#181818" points="390.42,180.7,394.9081,171.9332,390.6945,175.7075,386.9201,171.494,390.42,180.7" style="stroke:#181818;stroke-width:1.0;"/><text fill="#000000" font-family="sans-serif" font-size="13" lengthAdjust="spacing" textLength="7" x="386.2523" y="134.4453">1</text><text fill="#000000" font-family="sans-serif" font-size="13" lengthAdjust="spacing" textLength="7" x="382.939" y="169.6472">1</text></g><!--link Plugin to JarFile--><g id="link_Plugin_JarFile"><path codeLine="31" d="M437.4,113.2 C463.39,134.36 491.7465,157.4526 515.6565,176.9126 " fill="none" id="Plugin-to-JarFile" style="stroke:#181818;stroke-width:1.0;"/><polygon fill="#181818" points="520.31,180.7,515.8547,171.9165,516.4321,177.5438,510.8048,178.1212,520.31,180.7" style="stroke:#181818;stroke-width:1.0;"/><text fill="#000000" font-family="sans-serif" font-size="13" lengthAdjust="spacing" textLength="7" x="436.6772" y="134.4453">1</text><text fill="#000000" font-family="sans-serif" font-size="13" lengthAdjust="spacing" textLength="7" x="505.1723" y="169.6472">1</text></g><!--link Candidate to CandidateId--><g id="link_Candidate_CandidateId"><path codeLine="39" d="M782.24,113.2 C770.38,131.57 758.9958,149.2102 747.1158,167.6002 " fill="none" id="Candidate-to-CandidateId" style="stroke:#181818;stroke-width:1.0;"/><polygon fill="#181818" points="743.86,172.64,752.1035,167.2507,746.5731,168.4401,745.3837,162.9097,743.86,172.64" style="stroke:#181818;stroke-width:1.0;"/><text fill="#000000" font-family="sans-serif" font-size="13" lengthAdjust="spacing" textLength="7" x="771.0563" y="134.4453">1</text><text fill="#000000" font-family="sans-serif" font-size="13" lengthAdjust="spacing" textLength="7" x="740.2451" y="161.7428">1</text></g><!--link Candidate to CurriculumVitae--><g id="link_Candidate_CurriculumVitae"><path codeLine="40" d="M824.17,113.2 C836.83,134.36 849.8281,156.092 861.4781,175.552 " fill="none" id="Candidate-to-CurriculumVitae" style="stroke:#181818;stroke-width:1.0;"/><polygon fill="#181818" points="864.56,180.7,863.3691,170.9234,861.9917,176.41,856.5051,175.0326,864.56,180.7" style="stroke:#181818;stroke-width:1.0;"/><text fill="#000000" font-family="sans-serif" font-size="13" lengthAdjust="spacing" textLength="7" x="819.931" y="134.4453">1</text><text fill="#000000" font-family="sans-serif" font-size="13" lengthAdjust="spacing" textLength="7" x="853.1801" y="169.6472">1</text></g><!--SRC=[bP9DQyCm38Rl-HKcFUpKXLs72OnzG0PZeupU5Liu6ewTEV96AVtlIvfqQqDREldWm_j8UYLqLJ4txMsMDHOSnzfUArzdoaBRpZM12L0dIKKQHOrSUTqcsmYe69onA1GuJHeOnGoWB9LQ9wABRGLnlnEbl3CceEcvXVUSvr8-EYPUvVbwSooZq58M6aT6oYNOYEAr_EWwJtDY2AIYZVMI6F08kvcOJjziD8LBnQo4_ebzqxr6JbniUU3VLmsUTJbW_nXhI7Z0LWLgcBmxIpz3U29xti82FoC5hBlsKYwmzJ4ed325OmnVXDylNgETODqUn-saDwcOp_Fj_xU00pMGgVW0AVJfzBqvZq7ZUCaOlsVIYpjcxtPE08U7CfJw0G00]--></g></svg>