<?xml version="1.0" encoding="us-ascii" standalone="no"?><svg xmlns="http://www.w3.org/2000/svg" xmlns:xlink="http://www.w3.org/1999/xlink" contentStyleType="text/css" height="700px" preserveAspectRatio="none" style="width:718px;height:700px;background:#FFFFFF;" version="1.1" viewBox="0 0 718 700" width="718px" zoomAndPan="magnify"><defs/><g><rect fill="#FFFFFF" height="524.6563" style="stroke:#181818;stroke-width:1.0;" width="10" x="56" y="48.6211"/><rect fill="#FFFFFF" height="31.291" style="stroke:#181818;stroke-width:1.0;" width="10" x="207" y="71.9121"/><rect fill="#FFFFFF" height="438.7832" style="stroke:#181818;stroke-width:1.0;" width="10" x="292" y="134.4941"/><rect fill="#FFFFFF" height="31.291" style="stroke:#181818;stroke-width:1.0;" width="10" x="555" y="259.6582"/><rect fill="#FFFFFF" height="72.582" style="stroke:#181818;stroke-width:1.0;" width="10" x="555" y="477.4043"/><rect fill="#FFFFFF" height="31.291" style="stroke:#181818;stroke-width:1.0;" width="10" x="659.5" y="197.0762"/><rect fill="#FFFFFF" height="31.291" style="stroke:#181818;stroke-width:1.0;" width="10" x="659.5" y="353.5313"/><rect fill="#FFFFFF" height="30" style="stroke:#181818;stroke-width:1.0;" width="10" x="659.5" y="416.1133"/><rect fill="none" height="50.582" style="stroke:#000000;stroke-width:1.5;" width="377" x="240" y="492.4043"/><line style="stroke:#181818;stroke-width:0.5;stroke-dasharray:5.0,5.0;" x1="61" x2="61" y1="38.6211" y2="663.1504"/><line style="stroke:#181818;stroke-width:0.5;stroke-dasharray:5.0,5.0;" x1="212" x2="212" y1="38.6211" y2="663.1504"/><line style="stroke:#181818;stroke-width:0.5;stroke-dasharray:5.0,5.0;" x1="297" x2="297" y1="38.6211" y2="663.1504"/><line style="stroke:#181818;stroke-width:0.5;stroke-dasharray:5.0,5.0;" x1="560" x2="560" y1="38.6211" y2="663.1504"/><line style="stroke:#181818;stroke-width:0.5;stroke-dasharray:5.0,5.0;" x1="664" x2="664" y1="38.6211" y2="663.1504"/><rect fill="#E3E3E3" height="32.6211" rx="2.5" ry="2.5" style="stroke:#181818;stroke-width:0.5;" width="112" x="5" y="5"/><text fill="#000000" font-family="sans-serif" font-size="14" lengthAdjust="spacing" textLength="98" x="12" y="27.1074">FollowupServer</text><rect fill="#E3E3E3" height="32.6211" rx="2.5" ry="2.5" style="stroke:#181818;stroke-width:0.5;" width="112" x="5" y="662.1504"/><text fill="#000000" font-family="sans-serif" font-size="14" lengthAdjust="spacing" textLength="98" x="12" y="684.2578">FollowupServer</text><rect fill="#E3E3E3" height="32.6211" rx="2.5" ry="2.5" style="stroke:#181818;stroke-width:0.5;" width="56" x="184" y="5"/><text fill="#000000" font-family="sans-serif" font-size="14" lengthAdjust="spacing" textLength="42" x="191" y="27.1074">Server</text><rect fill="#E3E3E3" height="32.6211" rx="2.5" ry="2.5" style="stroke:#181818;stroke-width:0.5;" width="56" x="184" y="662.1504"/><text fill="#000000" font-family="sans-serif" font-size="14" lengthAdjust="spacing" textLength="42" x="191" y="684.2578">Server</text><rect fill="#E3E3E3" height="32.6211" rx="2.5" ry="2.5" style="stroke:#181818;stroke-width:0.5;" width="94" x="250" y="5"/><text fill="#000000" font-family="sans-serif" font-size="14" lengthAdjust="spacing" textLength="80" x="257" y="27.1074">EmailThread</text><rect fill="#E3E3E3" height="32.6211" rx="2.5" ry="2.5" style="stroke:#181818;stroke-width:0.5;" width="94" x="250" y="662.1504"/><text fill="#000000" font-family="sans-serif" font-size="14" lengthAdjust="spacing" textLength="80" x="257" y="684.2578">EmailThread</text><rect fill="#E3E3E3" height="32.6211" rx="2.5" ry="2.5" style="stroke:#181818;stroke-width:0.5;" width="94" x="513" y="5"/><text fill="#000000" font-family="sans-serif" font-size="14" lengthAdjust="spacing" textLength="80" x="520" y="27.1074">EmailSender</text><rect fill="#E3E3E3" height="32.6211" rx="2.5" ry="2.5" style="stroke:#181818;stroke-width:0.5;" width="94" x="513" y="662.1504"/><text fill="#000000" font-family="sans-serif" font-size="14" lengthAdjust="spacing" textLength="80" x="520" y="684.2578">EmailSender</text><rect fill="#E3E3E3" height="32.6211" rx="2.5" ry="2.5" style="stroke:#181818;stroke-width:0.5;" width="95" x="617" y="5"/><text fill="#000000" font-family="sans-serif" font-size="14" lengthAdjust="spacing" textLength="81" x="624" y="27.1074">EmailService</text><rect fill="#E3E3E3" height="32.6211" rx="2.5" ry="2.5" style="stroke:#181818;stroke-width:0.5;" width="95" x="617" y="662.1504"/><text fill="#000000" font-family="sans-serif" font-size="14" lengthAdjust="spacing" textLength="81" x="624" y="684.2578">EmailService</text><rect fill="#FFFFFF" height="524.6563" style="stroke:#181818;stroke-width:1.0;" width="10" x="56" y="48.6211"/><rect fill="#FFFFFF" height="31.291" style="stroke:#181818;stroke-width:1.0;" width="10" x="207" y="71.9121"/><rect fill="#FFFFFF" height="438.7832" style="stroke:#181818;stroke-width:1.0;" width="10" x="292" y="134.4941"/><rect fill="#FFFFFF" height="31.291" style="stroke:#181818;stroke-width:1.0;" width="10" x="555" y="259.6582"/><rect fill="#FFFFFF" height="72.582" style="stroke:#181818;stroke-width:1.0;" width="10" x="555" y="477.4043"/><rect fill="#FFFFFF" height="31.291" style="stroke:#181818;stroke-width:1.0;" width="10" x="659.5" y="197.0762"/><rect fill="#FFFFFF" height="31.291" style="stroke:#181818;stroke-width:1.0;" width="10" x="659.5" y="353.5313"/><rect fill="#FFFFFF" height="30" style="stroke:#181818;stroke-width:1.0;" width="10" x="659.5" y="416.1133"/><polygon fill="#181818" points="195,67.9121,205,71.9121,195,75.9121,199,71.9121" style="stroke:#181818;stroke-width:1.0;"/><line style="stroke:#181818;stroke-width:1.0;" x1="66" x2="201" y1="71.9121" y2="71.9121"/><text fill="#000000" font-family="sans-serif" font-size="13" font-weight="bold" lengthAdjust="spacing" textLength="7" x="73" y="66.6494">1</text><text fill="#000000" font-family="sans-serif" font-size="13" lengthAdjust="spacing" textLength="111" x="84" y="66.6494">Server(portNumber)</text><polygon fill="#181818" points="77,99.2031,67,103.2031,77,107.2031,73,103.2031" style="stroke:#181818;stroke-width:1.0;"/><line style="stroke:#181818;stroke-width:1.0;stroke-dasharray:2.0,2.0;" x1="71" x2="211" y1="103.2031" y2="103.2031"/><text fill="#000000" font-family="sans-serif" font-size="13" font-weight="bold" lengthAdjust="spacing" textLength="7" x="83" y="97.9404">2</text><text fill="#000000" font-family="sans-serif" font-size="13" lengthAdjust="spacing" textLength="36" x="94" y="97.9404">Server</text><polygon fill="#181818" points="280,130.4941,290,134.4941,280,138.4941,284,134.4941" style="stroke:#181818;stroke-width:1.0;"/><line style="stroke:#181818;stroke-width:1.0;" x1="66" x2="286" y1="134.4941" y2="134.4941"/><text fill="#000000" font-family="sans-serif" font-size="13" font-weight="bold" lengthAdjust="spacing" textLength="7" x="73" y="129.2314">3</text><text fill="#000000" font-family="sans-serif" font-size="13" lengthAdjust="spacing" textLength="80" x="84" y="129.2314">EmailThread()</text><polygon fill="#181818" points="77,161.7852,67,165.7852,77,169.7852,73,165.7852" style="stroke:#181818;stroke-width:1.0;"/><line style="stroke:#181818;stroke-width:1.0;stroke-dasharray:2.0,2.0;" x1="71" x2="291" y1="165.7852" y2="165.7852"/><text fill="#000000" font-family="sans-serif" font-size="13" font-weight="bold" lengthAdjust="spacing" textLength="7" x="83" y="160.5225">4</text><text fill="#000000" font-family="sans-serif" font-size="13" lengthAdjust="spacing" textLength="72" x="94" y="160.5225">EmailThread</text><polygon fill="#181818" points="647.5,193.0762,657.5,197.0762,647.5,201.0762,651.5,197.0762" style="stroke:#181818;stroke-width:1.0;"/><line style="stroke:#181818;stroke-width:1.0;" x1="302" x2="653.5" y1="197.0762" y2="197.0762"/><text fill="#000000" font-family="sans-serif" font-size="13" font-weight="bold" lengthAdjust="spacing" textLength="7" x="309" y="191.8135">5</text><text fill="#000000" font-family="sans-serif" font-size="13" lengthAdjust="spacing" textLength="83" x="320" y="191.8135">EmailService()</text><polygon fill="#181818" points="313,224.3672,303,228.3672,313,232.3672,309,228.3672" style="stroke:#181818;stroke-width:1.0;"/><line style="stroke:#181818;stroke-width:1.0;stroke-dasharray:2.0,2.0;" x1="307" x2="663.5" y1="228.3672" y2="228.3672"/><text fill="#000000" font-family="sans-serif" font-size="13" font-weight="bold" lengthAdjust="spacing" textLength="7" x="319" y="223.1045">6</text><text fill="#000000" font-family="sans-serif" font-size="13" lengthAdjust="spacing" textLength="75" x="330" y="223.1045">EmailService</text><polygon fill="#181818" points="543,255.6582,553,259.6582,543,263.6582,547,259.6582" style="stroke:#181818;stroke-width:1.0;"/><line style="stroke:#181818;stroke-width:1.0;" x1="302" x2="549" y1="259.6582" y2="259.6582"/><text fill="#000000" font-family="sans-serif" font-size="13" font-weight="bold" lengthAdjust="spacing" textLength="7" x="309" y="254.3955">7</text><text fill="#000000" font-family="sans-serif" font-size="13" lengthAdjust="spacing" textLength="82" x="320" y="254.3955">EmailSender()</text><polygon fill="#181818" points="313,286.9492,303,290.9492,313,294.9492,309,290.9492" style="stroke:#181818;stroke-width:1.0;"/><line style="stroke:#181818;stroke-width:1.0;stroke-dasharray:2.0,2.0;" x1="307" x2="559" y1="290.9492" y2="290.9492"/><text fill="#000000" font-family="sans-serif" font-size="13" font-weight="bold" lengthAdjust="spacing" textLength="7" x="319" y="285.6865">8</text><text fill="#000000" font-family="sans-serif" font-size="13" lengthAdjust="spacing" textLength="74" x="330" y="285.6865">EmailSender</text><polygon fill="#181818" points="280,318.2402,290,322.2402,280,326.2402,284,322.2402" style="stroke:#181818;stroke-width:1.0;"/><line style="stroke:#181818;stroke-width:1.0;" x1="66" x2="286" y1="322.2402" y2="322.2402"/><text fill="#000000" font-family="sans-serif" font-size="13" font-weight="bold" lengthAdjust="spacing" textLength="7" x="73" y="316.9775">9</text><text fill="#000000" font-family="sans-serif" font-size="13" lengthAdjust="spacing" textLength="34" x="84" y="316.9775">start()</text><polygon fill="#181818" points="647.5,349.5313,657.5,353.5313,647.5,357.5313,651.5,353.5313" style="stroke:#181818;stroke-width:1.0;"/><line style="stroke:#181818;stroke-width:1.0;" x1="302" x2="653.5" y1="353.5313" y2="353.5313"/><text fill="#000000" font-family="sans-serif" font-size="13" font-weight="bold" lengthAdjust="spacing" textLength="14" x="309" y="348.2686">10</text><text fill="#000000" font-family="sans-serif" font-size="13" lengthAdjust="spacing" textLength="101" x="327" y="348.2686">findBySend(false)</text><polygon fill="#181818" points="313,380.8223,303,384.8223,313,388.8223,309,384.8223" style="stroke:#181818;stroke-width:1.0;"/><line style="stroke:#181818;stroke-width:1.0;stroke-dasharray:2.0,2.0;" x1="307" x2="663.5" y1="384.8223" y2="384.8223"/><text fill="#000000" font-family="sans-serif" font-size="13" font-weight="bold" lengthAdjust="spacing" textLength="14" x="319" y="379.5596">11</text><text fill="#000000" font-family="sans-serif" font-size="13" lengthAdjust="spacing" textLength="70" x="337" y="379.5596">listOfEmails</text><polygon fill="#181818" points="647.5,412.1133,657.5,416.1133,647.5,420.1133,651.5,416.1133" style="stroke:#181818;stroke-width:1.0;"/><line style="stroke:#181818;stroke-width:1.0;" x1="302" x2="653.5" y1="416.1133" y2="416.1133"/><text fill="#000000" font-family="sans-serif" font-size="13" font-weight="bold" lengthAdjust="spacing" textLength="14" x="309" y="410.8506">12</text><text fill="#000000" font-family="sans-serif" font-size="13" lengthAdjust="spacing" textLength="112" x="327" y="410.8506">setSendTrue(email)</text><polygon fill="#181818" points="543,473.4043,553,477.4043,543,481.4043,547,477.4043" style="stroke:#181818;stroke-width:1.0;"/><line style="stroke:#181818;stroke-width:1.0;" x1="302" x2="549" y1="477.4043" y2="477.4043"/><text fill="#000000" font-family="sans-serif" font-size="13" font-weight="bold" lengthAdjust="spacing" textLength="14" x="309" y="472.1416">13</text><text fill="#000000" font-family="sans-serif" font-size="13" lengthAdjust="spacing" textLength="216" x="327" y="472.1416">sendEmail(email.email(), email.text())</text><path d="M240,492.4043 L313,492.4043 L313,501.6953 L303,511.6953 L240,511.6953 L240,492.4043 " fill="#EEEEEE" style="stroke:#000000;stroke-width:1.5;"/><rect fill="none" height="50.582" style="stroke:#000000;stroke-width:1.5;" width="377" x="240" y="492.4043"/><text fill="#000000" font-family="sans-serif" font-size="13" font-weight="bold" lengthAdjust="spacing" textLength="28" x="255" y="507.4326">loop</text><text fill="#000000" font-family="sans-serif" font-size="11" font-weight="bold" lengthAdjust="spacing" textLength="247" x="328" y="506.2744">[for each email to be sent in the listOfEmails]</text><polygon fill="#181818" points="313,530.9863,303,534.9863,313,538.9863,309,534.9863" style="stroke:#181818;stroke-width:1.0;"/><line style="stroke:#181818;stroke-width:1.0;stroke-dasharray:2.0,2.0;" x1="307" x2="554" y1="534.9863" y2="534.9863"/><text fill="#000000" font-family="sans-serif" font-size="13" font-weight="bold" lengthAdjust="spacing" textLength="14" x="319" y="529.7236">14</text><text fill="#000000" font-family="sans-serif" font-size="13" lengthAdjust="spacing" textLength="106" x="337" y="529.7236">success message</text><polygon fill="#181818" points="72,569.2773,62,573.2773,72,577.2773,68,573.2773" style="stroke:#181818;stroke-width:1.0;"/><line style="stroke:#181818;stroke-width:1.0;stroke-dasharray:2.0,2.0;" x1="66" x2="296" y1="573.2773" y2="573.2773"/><text fill="#000000" font-family="sans-serif" font-size="13" font-weight="bold" lengthAdjust="spacing" textLength="14" x="78" y="568.0146">15</text><text fill="#000000" font-family="sans-serif" font-size="13" lengthAdjust="spacing" textLength="106" x="96" y="568.0146">success message</text><path d="M66,586.2773 L66,647.2773 L538,647.2773 L538,596.2773 L528,586.2773 L66,586.2773 " fill="#FAFAFA" style="stroke:#181818;stroke-width:0.5;"/><path d="M528,586.2773 L528,596.2773 L538,596.2773 L528,586.2773 " fill="#FAFAFA" style="stroke:#181818;stroke-width:0.5;"/><text fill="#000000" font-family="sans-serif" font-size="13" lengthAdjust="spacing" textLength="356" x="72" y="605.3057">This sequence diagram only represents the system's behavior</text><text fill="#000000" font-family="sans-serif" font-size="13" lengthAdjust="spacing" textLength="346" x="76" y="622.5967">when the follow-up server is started and the emails are sent,</text><text fill="#000000" font-family="sans-serif" font-size="13" lengthAdjust="spacing" textLength="443" x="80" y="639.8877">the way of obtaining the data is shown on user story 1015 sequence diagram</text><!--SRC=[VPInSjim38PtFWKkIvoxE6w6BXuovCuUsq5w0PY2B5ueKYKXkthxWfJEfToa2qyYVdpy0H5wx9Y7kD_j1ekEnzw-QD_lnaXRZR8q1iy1UnK_Z1jGdg3tpkik-9w0mqX5P43zWMUgUB84WJIZEzjI43ji_DMuCxHe8oaSsRknFr5GIXHij1d413mSlRN-EWuLXGk51y08nsejAK9taKEFnjPT86no-51_4g_8DKlweVeq7Yv6qoAuQAKKQZONP4fMZXLitw3QmsnZC_Z0Ft8bJtzrbHALo8utdMgeYCwGGxs7mlAc08ZpGtr35AAy_PQDBVkBtrLsifsMJBWTioXBAxDoGTvagK5hdj3kMKcqHXLbHPQ-2g9qsnhNl4yfSPClmNyDMnFvPvkFYbyQJjH8d92rNCWD9Vazzkjge-Jb4-R4bxnkdfvXVcNwBIMiss2z7w3r0GJQpJfW3oTAC0RZW3jQcoyw5qUjAKRePP5nKNB-NGUBZtulBeLr-IQNKZal3y6SEmRVfXs0kZDHNFqQoMc2PPh1Epl9X0w1ak6OxSOfClMFKShey69ya6ouTZGNq-Q9t8w3mD9DXeHDdvSQGDTaJMv410np7vuJ80UkE2L3_iHeN1h_jDaWOwPq_kh44SW_9mZJXmbUlxr-_yTrQXIa4fNw0m00]--></g></svg>