<?xml version="1.0" encoding="us-ascii" standalone="no"?><svg xmlns="http://www.w3.org/2000/svg" xmlns:xlink="http://www.w3.org/1999/xlink" contentStyleType="text/css" height="313px" preserveAspectRatio="none" style="width:613px;height:313px;background:#FFFFFF;" version="1.1" viewBox="0 0 613 313" width="613px" zoomAndPan="magnify"><defs/><g><!--cluster application--><g id="cluster_application"><rect fill="none" height="300" rx="2.5" ry="2.5" style="stroke:#181818;stroke-width:1.0;" width="373" x="7" y="7"/><text fill="#000000" font-family="sans-serif" font-size="14" font-weight="bold" lengthAdjust="spacing" textLength="77" x="155" y="24.1074">application</text></g><!--cluster interview--><g id="cluster_interview"><rect fill="none" height="130" rx="2.5" ry="2.5" style="stroke:#181818;stroke-width:1.0;" width="160" x="32" y="153"/><text fill="#000000" font-family="sans-serif" font-size="14" font-weight="bold" lengthAdjust="spacing" textLength="66" x="79" y="170.1074">interview</text></g><!--cluster Server--><g id="cluster_Server"><rect fill="none" height="146" rx="2.5" ry="2.5" style="stroke:#181818;stroke-width:1.0;" width="195" x="412" y="145"/><text fill="#000000" font-family="sans-serif" font-size="14" font-weight="bold" lengthAdjust="spacing" textLength="48" x="485.5" y="162.1074">Server</text></g><!--class JobOpeningApplication--><g id="elem_JobOpeningApplication"><rect codeLine="3" fill="#F1F1F1" height="76.543" id="JobOpeningApplication" rx="2.5" ry="2.5" style="stroke:#181818;stroke-width:0.5;" width="177" x="23.5" y="44"/><ellipse cx="38.5" cy="74.2715" fill="#ADD1B2" rx="11" ry="11" style="stroke:#181818;stroke-width:1.0;"/><path d="M41.2656,70.1465 Q41.4219,69.9277 41.6094,69.8184 Q41.7969,69.709 42.0156,69.709 Q42.3906,69.709 42.625,69.9746 Q42.8594,70.2246 42.8594,70.834 L42.8594,72.2871 Q42.8594,72.8965 42.625,73.1621 Q42.3906,73.4277 42.0156,73.4277 Q41.6719,73.4277 41.4688,73.2246 Q41.2656,73.0371 41.1563,72.5215 Q41.1094,72.1621 40.9219,71.9746 Q40.5938,71.5996 39.9844,71.3809 Q39.375,71.1621 38.75,71.1621 Q37.9844,71.1621 37.3438,71.4902 Q36.7188,71.8184 36.2188,72.5684 Q35.7344,73.3184 35.7344,74.3496 L35.7344,75.4434 Q35.7344,76.6777 36.625,77.5059 Q37.5156,78.3184 39.1094,78.3184 Q40.0469,78.3184 40.7031,78.0684 Q41.0938,77.9121 41.5156,77.4746 Q41.7813,77.209 41.9219,77.1309 Q42.0781,77.0527 42.2813,77.0527 Q42.6094,77.0527 42.8594,77.3184 Q43.125,77.5684 43.125,77.9121 Q43.125,78.2559 42.7813,78.6621 Q42.2813,79.2402 41.4844,79.5684 Q40.4063,80.0215 39.1094,80.0215 Q37.5938,80.0215 36.3906,79.3965 Q35.4063,78.8965 34.7188,77.834 Q34.0313,76.7559 34.0313,75.4746 L34.0313,74.3184 Q34.0313,72.9902 34.6406,71.8496 Q35.2656,70.6934 36.3594,70.084 Q37.4531,69.459 38.6875,69.459 Q39.4219,69.459 40.0625,69.6309 Q40.7188,69.7871 41.2656,70.1465 Z " fill="#000000"/><text fill="#000000" font-family="sans-serif" font-size="12" font-style="italic" lengthAdjust="spacing" textLength="100" x="75" y="61.9492">&#171;Aggregate Root&#187;</text><text fill="#000000" font-family="sans-serif" font-size="12" font-style="italic" lengthAdjust="spacing" textLength="44" x="103" y="77.9102">&#171;Entity&#187;</text><text fill="#000000" font-family="sans-serif" font-size="14" lengthAdjust="spacing" textLength="145" x="52.5" y="96.0293">JobOpeningApplication</text><line style="stroke:#181818;stroke-width:0.5;" x1="24.5" x2="199.5" y1="104.543" y2="104.543"/><line style="stroke:#181818;stroke-width:0.5;" x1="24.5" x2="199.5" y1="112.543" y2="112.543"/></g><!--class Candidate--><g id="elem_Candidate"><rect codeLine="11" fill="#F1F1F1" height="76.543" id="Candidate" rx="2.5" ry="2.5" style="stroke:#181818;stroke-width:0.5;" width="128" x="236" y="44"/><ellipse cx="251" cy="74.2715" fill="#ADD1B2" rx="11" ry="11" style="stroke:#181818;stroke-width:1.0;"/><path d="M253.7656,70.1465 Q253.9219,69.9277 254.1094,69.8184 Q254.2969,69.709 254.5156,69.709 Q254.8906,69.709 255.125,69.9746 Q255.3594,70.2246 255.3594,70.834 L255.3594,72.2871 Q255.3594,72.8965 255.125,73.1621 Q254.8906,73.4277 254.5156,73.4277 Q254.1719,73.4277 253.9688,73.2246 Q253.7656,73.0371 253.6563,72.5215 Q253.6094,72.1621 253.4219,71.9746 Q253.0938,71.5996 252.4844,71.3809 Q251.875,71.1621 251.25,71.1621 Q250.4844,71.1621 249.8438,71.4902 Q249.2188,71.8184 248.7188,72.5684 Q248.2344,73.3184 248.2344,74.3496 L248.2344,75.4434 Q248.2344,76.6777 249.125,77.5059 Q250.0156,78.3184 251.6094,78.3184 Q252.5469,78.3184 253.2031,78.0684 Q253.5938,77.9121 254.0156,77.4746 Q254.2813,77.209 254.4219,77.1309 Q254.5781,77.0527 254.7813,77.0527 Q255.1094,77.0527 255.3594,77.3184 Q255.625,77.5684 255.625,77.9121 Q255.625,78.2559 255.2813,78.6621 Q254.7813,79.2402 253.9844,79.5684 Q252.9063,80.0215 251.6094,80.0215 Q250.0938,80.0215 248.8906,79.3965 Q247.9063,78.8965 247.2188,77.834 Q246.5313,76.7559 246.5313,75.4746 L246.5313,74.3184 Q246.5313,72.9902 247.1406,71.8496 Q247.7656,70.6934 248.8594,70.084 Q249.9531,69.459 251.1875,69.459 Q251.9219,69.459 252.5625,69.6309 Q253.2188,69.7871 253.7656,70.1465 Z " fill="#000000"/><text fill="#000000" font-family="sans-serif" font-size="12" font-style="italic" lengthAdjust="spacing" textLength="100" x="263" y="61.9492">&#171;Aggregate Root&#187;</text><text fill="#000000" font-family="sans-serif" font-size="12" font-style="italic" lengthAdjust="spacing" textLength="44" x="291" y="77.9102">&#171;Entity&#187;</text><text fill="#000000" font-family="sans-serif" font-size="14" lengthAdjust="spacing" textLength="65" x="280.5" y="96.0293">Candidate</text><line style="stroke:#181818;stroke-width:0.5;" x1="237" x2="363" y1="104.543" y2="104.543"/><line style="stroke:#181818;stroke-width:0.5;" x1="237" x2="363" y1="112.543" y2="112.543"/></g><!--class Interview--><g id="elem_Interview"><rect codeLine="7" fill="#F1F1F1" height="76.543" id="Interview" rx="2.5" ry="2.5" style="stroke:#181818;stroke-width:0.5;" width="128" x="48" y="190"/><ellipse cx="63" cy="220.2715" fill="#ADD1B2" rx="11" ry="11" style="stroke:#181818;stroke-width:1.0;"/><path d="M65.7656,216.1465 Q65.9219,215.9277 66.1094,215.8184 Q66.2969,215.709 66.5156,215.709 Q66.8906,215.709 67.125,215.9746 Q67.3594,216.2246 67.3594,216.834 L67.3594,218.2871 Q67.3594,218.8965 67.125,219.1621 Q66.8906,219.4277 66.5156,219.4277 Q66.1719,219.4277 65.9688,219.2246 Q65.7656,219.0371 65.6563,218.5215 Q65.6094,218.1621 65.4219,217.9746 Q65.0938,217.5996 64.4844,217.3809 Q63.875,217.1621 63.25,217.1621 Q62.4844,217.1621 61.8438,217.4902 Q61.2188,217.8184 60.7188,218.5684 Q60.2344,219.3184 60.2344,220.3496 L60.2344,221.4434 Q60.2344,222.6777 61.125,223.5059 Q62.0156,224.3184 63.6094,224.3184 Q64.5469,224.3184 65.2031,224.0684 Q65.5938,223.9121 66.0156,223.4746 Q66.2813,223.209 66.4219,223.1309 Q66.5781,223.0527 66.7813,223.0527 Q67.1094,223.0527 67.3594,223.3184 Q67.625,223.5684 67.625,223.9121 Q67.625,224.2559 67.2813,224.6621 Q66.7813,225.2402 65.9844,225.5684 Q64.9063,226.0215 63.6094,226.0215 Q62.0938,226.0215 60.8906,225.3965 Q59.9063,224.8965 59.2188,223.834 Q58.5313,222.7559 58.5313,221.4746 L58.5313,220.3184 Q58.5313,218.9902 59.1406,217.8496 Q59.7656,216.6934 60.8594,216.084 Q61.9531,215.459 63.1875,215.459 Q63.9219,215.459 64.5625,215.6309 Q65.2188,215.7871 65.7656,216.1465 Z " fill="#000000"/><text fill="#000000" font-family="sans-serif" font-size="12" font-style="italic" lengthAdjust="spacing" textLength="100" x="75" y="207.9492">&#171;Aggregate Root&#187;</text><text fill="#000000" font-family="sans-serif" font-size="12" font-style="italic" lengthAdjust="spacing" textLength="44" x="103" y="223.9102">&#171;Entity&#187;</text><text fill="#000000" font-family="sans-serif" font-size="14" lengthAdjust="spacing" textLength="55" x="97.5" y="242.0293">Interview</text><line style="stroke:#181818;stroke-width:0.5;" x1="49" x2="175" y1="250.543" y2="250.543"/><line style="stroke:#181818;stroke-width:0.5;" x1="49" x2="175" y1="258.543" y2="258.543"/></g><!--class Server--><g id="elem_Server"><rect codeLine="16" fill="#F1F1F1" height="76.543" id="Server" rx="2.5" ry="2.5" style="stroke:#181818;stroke-width:0.5;" width="128" x="455" y="190"/><ellipse cx="470" cy="220.2715" fill="#ADD1B2" rx="11" ry="11" style="stroke:#181818;stroke-width:1.0;"/><path d="M472.7656,216.1465 Q472.9219,215.9277 473.1094,215.8184 Q473.2969,215.709 473.5156,215.709 Q473.8906,215.709 474.125,215.9746 Q474.3594,216.2246 474.3594,216.834 L474.3594,218.2871 Q474.3594,218.8965 474.125,219.1621 Q473.8906,219.4277 473.5156,219.4277 Q473.1719,219.4277 472.9688,219.2246 Q472.7656,219.0371 472.6563,218.5215 Q472.6094,218.1621 472.4219,217.9746 Q472.0938,217.5996 471.4844,217.3809 Q470.875,217.1621 470.25,217.1621 Q469.4844,217.1621 468.8438,217.4902 Q468.2188,217.8184 467.7188,218.5684 Q467.2344,219.3184 467.2344,220.3496 L467.2344,221.4434 Q467.2344,222.6777 468.125,223.5059 Q469.0156,224.3184 470.6094,224.3184 Q471.5469,224.3184 472.2031,224.0684 Q472.5938,223.9121 473.0156,223.4746 Q473.2813,223.209 473.4219,223.1309 Q473.5781,223.0527 473.7813,223.0527 Q474.1094,223.0527 474.3594,223.3184 Q474.625,223.5684 474.625,223.9121 Q474.625,224.2559 474.2813,224.6621 Q473.7813,225.2402 472.9844,225.5684 Q471.9063,226.0215 470.6094,226.0215 Q469.0938,226.0215 467.8906,225.3965 Q466.9063,224.8965 466.2188,223.834 Q465.5313,222.7559 465.5313,221.4746 L465.5313,220.3184 Q465.5313,218.9902 466.1406,217.8496 Q466.7656,216.6934 467.8594,216.084 Q468.9531,215.459 470.1875,215.459 Q470.9219,215.459 471.5625,215.6309 Q472.2188,215.7871 472.7656,216.1465 Z " fill="#000000"/><text fill="#000000" font-family="sans-serif" font-size="12" font-style="italic" lengthAdjust="spacing" textLength="100" x="482" y="207.9492">&#171;Aggregate Root&#187;</text><text fill="#000000" font-family="sans-serif" font-size="12" font-style="italic" lengthAdjust="spacing" textLength="44" x="510" y="223.9102">&#171;Entity&#187;</text><text fill="#000000" font-family="sans-serif" font-size="14" lengthAdjust="spacing" textLength="42" x="511" y="242.0293">Server</text><line style="stroke:#181818;stroke-width:0.5;" x1="456" x2="582" y1="250.543" y2="250.543"/><line style="stroke:#181818;stroke-width:0.5;" x1="456" x2="582" y1="258.543" y2="258.543"/></g><!--reverse link Candidate to Server--><g id="link_Candidate_Server"><path codeLine="20" d="M335.3711,125.9393 C352.8711,146.9393 370.735,168.3775 388.2663,189.4163 C397.0319,199.9356 404.7541,209.2028 410.3855,215.9608 C410.7374,216.3832 411.0812,216.7957 411.4166,217.1982 C411.5843,217.3994 411.7499,217.5981 411.9133,217.7943 " fill="none" id="Candidate-backto-Server" style="stroke:#181818;stroke-width:1.0;"/><polygon fill="#181818" points="331.53,121.33,334.2188,130.8047,334.7309,125.1711,340.3645,125.6833,331.53,121.33" style="stroke:#181818;stroke-width:1.0;"/><text fill="#000000" font-family="sans-serif" font-size="13" lengthAdjust="spacing" textLength="7" x="328.8221" y="142.663">1</text><text fill="#000000" font-family="sans-serif" font-size="13" lengthAdjust="spacing" textLength="15" x="404.96" y="224.4783">1..</text></g><!--link JobOpeningApplication to Interview--><g id="link_JobOpeningApplication_Interview"><path codeLine="21" d="M112,133.33 C112,154.5 112,162.79 112,183.92 " fill="none" id="JobOpeningApplication-Interview" style="stroke:#181818;stroke-width:1.0;"/><polygon fill="none" points="112,121.33,108,127.33,112,133.33,116,127.33,112,121.33" style="stroke:#181818;stroke-width:1.0;"/><polygon fill="#181818" points="112,189.92,116,180.92,112,184.92,108,180.92,112,189.92" style="stroke:#181818;stroke-width:1.0;"/><text fill="#000000" font-family="sans-serif" font-size="13" lengthAdjust="spacing" textLength="7" x="104.4641" y="142.663">1</text><text fill="#000000" font-family="sans-serif" font-size="13" lengthAdjust="spacing" textLength="7" x="104.3766" y="178.6288">1</text></g><!--SRC=[ZL3D2i8m3BxtAShk7NWlXI4Uz2Be4yGjb419HnSSCdntEuRh3e8BWS37zvCaOIl0Fg26lW_KWb3aIUbSRO1Xq9VukFR8nBuf16iRxnDw4DIt6CKvQqyi92_dfhTIAgssn8BfIJXkJSzVy9zHxg8w0dVKPUeELLdWdfCmRTCNP8V96gYhGwMjCNdMTRNerS_FpCHeZ9iLwvLghWy0]--></g></svg>