<?xml version="1.0" encoding="us-ascii" standalone="no"?><svg xmlns="http://www.w3.org/2000/svg" xmlns:xlink="http://www.w3.org/1999/xlink" contentStyleType="text/css" height="954px" preserveAspectRatio="none" style="width:793px;height:954px;background:#FFFFFF;" version="1.1" viewBox="0 0 793 954" width="793px" zoomAndPan="magnify"><defs/><g><!--cluster Job Opening--><g id="cluster_Job Opening"><rect fill="#BBCCAA" height="437" rx="2.5" ry="2.5" style="stroke:#181818;stroke-width:1.0;" width="647" x="7" y="7"/><text fill="#000000" font-family="sans-serif" font-size="14" font-weight="bold" lengthAdjust="spacing" textLength="90" x="285.5" y="24.1074">Job Opening</text></g><!--cluster Job Opening Process--><g id="cluster_Job Opening Process"><rect fill="#CCBBCC" height="329" rx="2.5" ry="2.5" style="stroke:#181818;stroke-width:1.0;" width="546" x="241" y="619"/><text fill="#000000" font-family="sans-serif" font-size="14" font-weight="bold" lengthAdjust="spacing" textLength="151" x="438.5" y="636.1074">Job Opening Process</text></g><!--class JobOpening--><g id="elem_JobOpening"><rect codeLine="7" fill="#F1F1F1" height="68.543" id="JobOpening" rx="2.5" ry="2.5" style="stroke:#181818;stroke-width:0.5;" width="128" x="352" y="229"/><ellipse cx="367" cy="259.2715" fill="#ADD1B2" rx="11" ry="11" style="stroke:#181818;stroke-width:1.0;"/><path d="M369.7656,255.1465 Q369.9219,254.9277 370.1094,254.8184 Q370.2969,254.709 370.5156,254.709 Q370.8906,254.709 371.125,254.9746 Q371.3594,255.2246 371.3594,255.834 L371.3594,257.2871 Q371.3594,257.8965 371.125,258.1621 Q370.8906,258.4277 370.5156,258.4277 Q370.1719,258.4277 369.9688,258.2246 Q369.7656,258.0371 369.6563,257.5215 Q369.6094,257.1621 369.4219,256.9746 Q369.0938,256.5996 368.4844,256.3809 Q367.875,256.1621 367.25,256.1621 Q366.4844,256.1621 365.8438,256.4902 Q365.2188,256.8184 364.7188,257.5684 Q364.2344,258.3184 364.2344,259.3496 L364.2344,260.4434 Q364.2344,261.6777 365.125,262.5059 Q366.0156,263.3184 367.6094,263.3184 Q368.5469,263.3184 369.2031,263.0684 Q369.5938,262.9121 370.0156,262.4746 Q370.2813,262.209 370.4219,262.1309 Q370.5781,262.0527 370.7813,262.0527 Q371.1094,262.0527 371.3594,262.3184 Q371.625,262.5684 371.625,262.9121 Q371.625,263.2559 371.2813,263.6621 Q370.7813,264.2402 369.9844,264.5684 Q368.9063,265.0215 367.6094,265.0215 Q366.0938,265.0215 364.8906,264.3965 Q363.9063,263.8965 363.2188,262.834 Q362.5313,261.7559 362.5313,260.4746 L362.5313,259.3184 Q362.5313,257.9902 363.1406,256.8496 Q363.7656,255.6934 364.8594,255.084 Q365.9531,254.459 367.1875,254.459 Q367.9219,254.459 368.5625,254.6309 Q369.2188,254.7871 369.7656,255.1465 Z " fill="#000000"/><text fill="#000000" font-family="sans-serif" font-size="12" font-style="italic" lengthAdjust="spacing" textLength="100" x="379" y="246.9492">&#171;Aggregate Root&#187;</text><text fill="#000000" font-family="sans-serif" font-size="12" font-style="italic" lengthAdjust="spacing" textLength="44" x="407" y="262.9102">&#171;Entity&#187;</text><text fill="#000000" font-family="sans-serif" font-size="14" lengthAdjust="spacing" textLength="76" x="391" y="281.0293">JobOpening</text><line style="stroke:#181818;stroke-width:0.5;" x1="353" x2="479" y1="289.543" y2="289.543"/></g><!--class JobReference--><g id="elem_JobReference"><rect codeLine="9" fill="#F1F1F1" height="68.543" id="JobReference" rx="2.5" ry="2.5" style="stroke:#181818;stroke-width:0.5;" width="120" x="23" y="359"/><ellipse cx="38" cy="389.2715" fill="#ADD1B2" rx="11" ry="11" style="stroke:#181818;stroke-width:1.0;"/><path d="M40.7656,385.1465 Q40.9219,384.9277 41.1094,384.8184 Q41.2969,384.709 41.5156,384.709 Q41.8906,384.709 42.125,384.9746 Q42.3594,385.2246 42.3594,385.834 L42.3594,387.2871 Q42.3594,387.8965 42.125,388.1621 Q41.8906,388.4277 41.5156,388.4277 Q41.1719,388.4277 40.9688,388.2246 Q40.7656,388.0371 40.6563,387.5215 Q40.6094,387.1621 40.4219,386.9746 Q40.0938,386.5996 39.4844,386.3809 Q38.875,386.1621 38.25,386.1621 Q37.4844,386.1621 36.8438,386.4902 Q36.2188,386.8184 35.7188,387.5684 Q35.2344,388.3184 35.2344,389.3496 L35.2344,390.4434 Q35.2344,391.6777 36.125,392.5059 Q37.0156,393.3184 38.6094,393.3184 Q39.5469,393.3184 40.2031,393.0684 Q40.5938,392.9121 41.0156,392.4746 Q41.2813,392.209 41.4219,392.1309 Q41.5781,392.0527 41.7813,392.0527 Q42.1094,392.0527 42.3594,392.3184 Q42.625,392.5684 42.625,392.9121 Q42.625,393.2559 42.2813,393.6621 Q41.7813,394.2402 40.9844,394.5684 Q39.9063,395.0215 38.6094,395.0215 Q37.0938,395.0215 35.8906,394.3965 Q34.9063,393.8965 34.2188,392.834 Q33.5313,391.7559 33.5313,390.4746 L33.5313,389.3184 Q33.5313,387.9902 34.1406,386.8496 Q34.7656,385.6934 35.8594,385.084 Q36.9531,384.459 38.1875,384.459 Q38.9219,384.459 39.5625,384.6309 Q40.2188,384.7871 40.7656,385.1465 Z " fill="#000000"/><text fill="#000000" font-family="sans-serif" font-size="12" font-style="italic" lengthAdjust="spacing" textLength="54" x="69" y="376.9492">&#171;Identity&#187;</text><text fill="#000000" font-family="sans-serif" font-size="12" font-style="italic" lengthAdjust="spacing" textLength="85" x="53.5" y="392.9102">&#171;Value Object&#187;</text><text fill="#000000" font-family="sans-serif" font-size="14" lengthAdjust="spacing" textLength="88" x="52" y="411.0293">JobReference</text><line style="stroke:#181818;stroke-width:0.5;" x1="24" x2="142" y1="419.543" y2="419.543"/></g><!--class TitleOrFunction--><g id="elem_TitleOrFunction"><rect codeLine="11" fill="#F1F1F1" height="52.582" id="TitleOrFunction" rx="2.5" ry="2.5" style="stroke:#181818;stroke-width:0.5;" width="130" x="178" y="367"/><ellipse cx="193" cy="389.291" fill="#ADD1B2" rx="11" ry="11" style="stroke:#181818;stroke-width:1.0;"/><path d="M195.7656,385.166 Q195.9219,384.9473 196.1094,384.8379 Q196.2969,384.7285 196.5156,384.7285 Q196.8906,384.7285 197.125,384.9941 Q197.3594,385.2441 197.3594,385.8535 L197.3594,387.3066 Q197.3594,387.916 197.125,388.1816 Q196.8906,388.4473 196.5156,388.4473 Q196.1719,388.4473 195.9688,388.2441 Q195.7656,388.0566 195.6563,387.541 Q195.6094,387.1816 195.4219,386.9941 Q195.0938,386.6191 194.4844,386.4004 Q193.875,386.1816 193.25,386.1816 Q192.4844,386.1816 191.8438,386.5098 Q191.2188,386.8379 190.7188,387.5879 Q190.2344,388.3379 190.2344,389.3691 L190.2344,390.4629 Q190.2344,391.6973 191.125,392.5254 Q192.0156,393.3379 193.6094,393.3379 Q194.5469,393.3379 195.2031,393.0879 Q195.5938,392.9316 196.0156,392.4941 Q196.2813,392.2285 196.4219,392.1504 Q196.5781,392.0723 196.7813,392.0723 Q197.1094,392.0723 197.3594,392.3379 Q197.625,392.5879 197.625,392.9316 Q197.625,393.2754 197.2813,393.6816 Q196.7813,394.2598 195.9844,394.5879 Q194.9063,395.041 193.6094,395.041 Q192.0938,395.041 190.8906,394.416 Q189.9063,393.916 189.2188,392.8535 Q188.5313,391.7754 188.5313,390.4941 L188.5313,389.3379 Q188.5313,388.0098 189.1406,386.8691 Q189.7656,385.7129 190.8594,385.1035 Q191.9531,384.4785 193.1875,384.4785 Q193.9219,384.4785 194.5625,384.6504 Q195.2188,384.8066 195.7656,385.166 Z " fill="#000000"/><text fill="#000000" font-family="sans-serif" font-size="12" font-style="italic" lengthAdjust="spacing" textLength="85" x="213.5" y="384.9492">&#171;Value Object&#187;</text><text fill="#000000" font-family="sans-serif" font-size="14" lengthAdjust="spacing" textLength="98" x="207" y="403.0684">TitleOrFunction</text><line style="stroke:#181818;stroke-width:0.5;" x1="179" x2="307" y1="411.582" y2="411.582"/></g><!--class ContractType--><g id="elem_ContractType"><rect codeLine="13" fill="#F1F1F1" height="105.7852" id="ContractType" rx="2.5" ry="2.5" style="stroke:#181818;stroke-width:0.5;" width="118" x="432" y="53"/><ellipse cx="447" cy="83.2715" fill="#EB937F" rx="11" ry="11" style="stroke:#181818;stroke-width:1.0;"/><path d="M445.8594,84.0684 L445.8594,86.5684 L450.1875,86.5684 L450.1875,85.6465 Q450.1875,85.0371 450.4219,84.7715 Q450.6719,84.5059 451.0469,84.5059 Q451.4219,84.5059 451.6563,84.7715 Q451.8906,85.0371 451.8906,85.6465 L451.8906,88.2715 L443.8906,88.2715 Q443.2656,88.2715 443,88.0371 Q442.75,87.8027 442.75,87.4121 Q442.75,87.0371 443.0156,86.8027 Q443.2813,86.5684 443.8906,86.5684 L444.1563,86.5684 L444.1563,79.9121 L443.8906,79.9121 Q443.2656,79.9121 443,79.6777 Q442.75,79.4434 442.75,79.0527 Q442.75,78.6777 443,78.4434 Q443.2656,78.209 443.8906,78.209 L451.5156,78.209 L451.5156,80.8027 Q451.5156,81.4121 451.2813,81.6777 Q451.0625,81.9277 450.6719,81.9277 Q450.2969,81.9277 450.0625,81.6777 Q449.8281,81.4121 449.8281,80.8027 L449.8281,79.9121 L445.8594,79.9121 L445.8594,82.3652 L447.3438,82.3652 Q447.3438,81.709 447.4688,81.5215 Q447.7344,81.1152 448.2031,81.1152 Q448.5781,81.1152 448.8125,81.3809 Q449.0469,81.6309 449.0469,82.2402 L449.0469,84.209 Q449.0469,84.7559 448.9219,84.9434 Q448.6563,85.334 448.2031,85.334 Q447.7344,85.334 447.4688,84.9277 Q447.3438,84.7402 447.3438,84.0684 L445.8594,84.0684 Z " fill="#000000"/><text fill="#000000" font-family="sans-serif" font-size="12" font-style="italic" lengthAdjust="spacing" textLength="82" x="463" y="70.9492">&#171;Enumerated&#187;</text><text fill="#000000" font-family="sans-serif" font-size="12" font-style="italic" lengthAdjust="spacing" textLength="85" x="461.5" y="86.9102">&#171;Value Object&#187;</text><text fill="#000000" font-family="sans-serif" font-size="14" lengthAdjust="spacing" textLength="86" x="461" y="105.0293">ContractType</text><line style="stroke:#181818;stroke-width:0.5;" x1="433" x2="549" y1="113.543" y2="113.543"/><text fill="#000000" font-family="sans-serif" font-size="14" lengthAdjust="spacing" textLength="74" x="438" y="132.6504">FULL_TIME</text><text fill="#000000" font-family="sans-serif" font-size="14" lengthAdjust="spacing" textLength="77" x="438" y="151.2715">PART_TIME</text></g><!--class Mode--><g id="elem_Mode"><rect codeLine="18" fill="#F1F1F1" height="124.4063" id="Mode" rx="2.5" ry="2.5" style="stroke:#181818;stroke-width:0.5;" width="113" x="283.5" y="44"/><ellipse cx="298.5" cy="74.2715" fill="#EB937F" rx="11" ry="11" style="stroke:#181818;stroke-width:1.0;"/><path d="M297.3594,75.0684 L297.3594,77.5684 L301.6875,77.5684 L301.6875,76.6465 Q301.6875,76.0371 301.9219,75.7715 Q302.1719,75.5059 302.5469,75.5059 Q302.9219,75.5059 303.1563,75.7715 Q303.3906,76.0371 303.3906,76.6465 L303.3906,79.2715 L295.3906,79.2715 Q294.7656,79.2715 294.5,79.0371 Q294.25,78.8027 294.25,78.4121 Q294.25,78.0371 294.5156,77.8027 Q294.7813,77.5684 295.3906,77.5684 L295.6563,77.5684 L295.6563,70.9121 L295.3906,70.9121 Q294.7656,70.9121 294.5,70.6777 Q294.25,70.4434 294.25,70.0527 Q294.25,69.6777 294.5,69.4434 Q294.7656,69.209 295.3906,69.209 L303.0156,69.209 L303.0156,71.8027 Q303.0156,72.4121 302.7813,72.6777 Q302.5625,72.9277 302.1719,72.9277 Q301.7969,72.9277 301.5625,72.6777 Q301.3281,72.4121 301.3281,71.8027 L301.3281,70.9121 L297.3594,70.9121 L297.3594,73.3652 L298.8438,73.3652 Q298.8438,72.709 298.9688,72.5215 Q299.2344,72.1152 299.7031,72.1152 Q300.0781,72.1152 300.3125,72.3809 Q300.5469,72.6309 300.5469,73.2402 L300.5469,75.209 Q300.5469,75.7559 300.4219,75.9434 Q300.1563,76.334 299.7031,76.334 Q299.2344,76.334 298.9688,75.9277 Q298.8438,75.7402 298.8438,75.0684 L297.3594,75.0684 Z " fill="#000000"/><text fill="#000000" font-family="sans-serif" font-size="12" font-style="italic" lengthAdjust="spacing" textLength="82" x="312" y="61.9492">&#171;Enumerated&#187;</text><text fill="#000000" font-family="sans-serif" font-size="12" font-style="italic" lengthAdjust="spacing" textLength="85" x="310.5" y="77.9102">&#171;Value Object&#187;</text><text fill="#000000" font-family="sans-serif" font-size="14" lengthAdjust="spacing" textLength="35" x="335.5" y="96.0293">Mode</text><line style="stroke:#181818;stroke-width:0.5;" x1="284.5" x2="395.5" y1="104.543" y2="104.543"/><text fill="#000000" font-family="sans-serif" font-size="14" lengthAdjust="spacing" textLength="59" x="289.5" y="123.6504">REMOTE</text><text fill="#000000" font-family="sans-serif" font-size="14" lengthAdjust="spacing" textLength="55" x="289.5" y="142.2715">ON-SITE</text><text fill="#000000" font-family="sans-serif" font-size="14" lengthAdjust="spacing" textLength="50" x="289.5" y="160.8926">HYBRID</text></g><!--class VacanciesNumber--><g id="elem_VacanciesNumber"><rect codeLine="25" fill="#F1F1F1" height="52.582" id="VacanciesNumber" rx="2.5" ry="2.5" style="stroke:#181818;stroke-width:0.5;" width="146" x="343" y="367"/><ellipse cx="358" cy="389.291" fill="#ADD1B2" rx="11" ry="11" style="stroke:#181818;stroke-width:1.0;"/><path d="M360.7656,385.166 Q360.9219,384.9473 361.1094,384.8379 Q361.2969,384.7285 361.5156,384.7285 Q361.8906,384.7285 362.125,384.9941 Q362.3594,385.2441 362.3594,385.8535 L362.3594,387.3066 Q362.3594,387.916 362.125,388.1816 Q361.8906,388.4473 361.5156,388.4473 Q361.1719,388.4473 360.9688,388.2441 Q360.7656,388.0566 360.6563,387.541 Q360.6094,387.1816 360.4219,386.9941 Q360.0938,386.6191 359.4844,386.4004 Q358.875,386.1816 358.25,386.1816 Q357.4844,386.1816 356.8438,386.5098 Q356.2188,386.8379 355.7188,387.5879 Q355.2344,388.3379 355.2344,389.3691 L355.2344,390.4629 Q355.2344,391.6973 356.125,392.5254 Q357.0156,393.3379 358.6094,393.3379 Q359.5469,393.3379 360.2031,393.0879 Q360.5938,392.9316 361.0156,392.4941 Q361.2813,392.2285 361.4219,392.1504 Q361.5781,392.0723 361.7813,392.0723 Q362.1094,392.0723 362.3594,392.3379 Q362.625,392.5879 362.625,392.9316 Q362.625,393.2754 362.2813,393.6816 Q361.7813,394.2598 360.9844,394.5879 Q359.9063,395.041 358.6094,395.041 Q357.0938,395.041 355.8906,394.416 Q354.9063,393.916 354.2188,392.8535 Q353.5313,391.7754 353.5313,390.4941 L353.5313,389.3379 Q353.5313,388.0098 354.1406,386.8691 Q354.7656,385.7129 355.8594,385.1035 Q356.9531,384.4785 358.1875,384.4785 Q358.9219,384.4785 359.5625,384.6504 Q360.2188,384.8066 360.7656,385.166 Z " fill="#000000"/><text fill="#000000" font-family="sans-serif" font-size="12" font-style="italic" lengthAdjust="spacing" textLength="85" x="386.5" y="384.9492">&#171;Value Object&#187;</text><text fill="#000000" font-family="sans-serif" font-size="14" lengthAdjust="spacing" textLength="114" x="372" y="403.0684">VacanciesNumber</text><line style="stroke:#181818;stroke-width:0.5;" x1="344" x2="488" y1="411.582" y2="411.582"/></g><!--class Description--><g id="elem_Description"><rect codeLine="27" fill="#F1F1F1" height="52.582" id="Description" rx="2.5" ry="2.5" style="stroke:#181818;stroke-width:0.5;" width="113" x="524.5" y="367"/><ellipse cx="539.5" cy="389.291" fill="#ADD1B2" rx="11" ry="11" style="stroke:#181818;stroke-width:1.0;"/><path d="M542.2656,385.166 Q542.4219,384.9473 542.6094,384.8379 Q542.7969,384.7285 543.0156,384.7285 Q543.3906,384.7285 543.625,384.9941 Q543.8594,385.2441 543.8594,385.8535 L543.8594,387.3066 Q543.8594,387.916 543.625,388.1816 Q543.3906,388.4473 543.0156,388.4473 Q542.6719,388.4473 542.4688,388.2441 Q542.2656,388.0566 542.1563,387.541 Q542.1094,387.1816 541.9219,386.9941 Q541.5938,386.6191 540.9844,386.4004 Q540.375,386.1816 539.75,386.1816 Q538.9844,386.1816 538.3438,386.5098 Q537.7188,386.8379 537.2188,387.5879 Q536.7344,388.3379 536.7344,389.3691 L536.7344,390.4629 Q536.7344,391.6973 537.625,392.5254 Q538.5156,393.3379 540.1094,393.3379 Q541.0469,393.3379 541.7031,393.0879 Q542.0938,392.9316 542.5156,392.4941 Q542.7813,392.2285 542.9219,392.1504 Q543.0781,392.0723 543.2813,392.0723 Q543.6094,392.0723 543.8594,392.3379 Q544.125,392.5879 544.125,392.9316 Q544.125,393.2754 543.7813,393.6816 Q543.2813,394.2598 542.4844,394.5879 Q541.4063,395.041 540.1094,395.041 Q538.5938,395.041 537.3906,394.416 Q536.4063,393.916 535.7188,392.8535 Q535.0313,391.7754 535.0313,390.4941 L535.0313,389.3379 Q535.0313,388.0098 535.6406,386.8691 Q536.2656,385.7129 537.3594,385.1035 Q538.4531,384.4785 539.6875,384.4785 Q540.4219,384.4785 541.0625,384.6504 Q541.7188,384.8066 542.2656,385.166 Z " fill="#000000"/><text fill="#000000" font-family="sans-serif" font-size="12" font-style="italic" lengthAdjust="spacing" textLength="85" x="551.5" y="384.9492">&#171;Value Object&#187;</text><text fill="#000000" font-family="sans-serif" font-size="14" lengthAdjust="spacing" textLength="71" x="558.5" y="403.0684">Description</text><line style="stroke:#181818;stroke-width:0.5;" x1="525.5" x2="636.5" y1="411.582" y2="411.582"/></g><!--class JobOpeningProcess--><g id="elem_JobOpeningProcess"><rect codeLine="44" fill="#F1F1F1" height="68.543" id="JobOpeningProcess" rx="2.5" ry="2.5" style="stroke:#181818;stroke-width:0.5;" width="159" x="611.5" y="702.5"/><ellipse cx="626.5" cy="732.7715" fill="#ADD1B2" rx="11" ry="11" style="stroke:#181818;stroke-width:1.0;"/><path d="M629.2656,728.6465 Q629.4219,728.4277 629.6094,728.3184 Q629.7969,728.209 630.0156,728.209 Q630.3906,728.209 630.625,728.4746 Q630.8594,728.7246 630.8594,729.334 L630.8594,730.7871 Q630.8594,731.3965 630.625,731.6621 Q630.3906,731.9277 630.0156,731.9277 Q629.6719,731.9277 629.4688,731.7246 Q629.2656,731.5371 629.1563,731.0215 Q629.1094,730.6621 628.9219,730.4746 Q628.5938,730.0996 627.9844,729.8809 Q627.375,729.6621 626.75,729.6621 Q625.9844,729.6621 625.3438,729.9902 Q624.7188,730.3184 624.2188,731.0684 Q623.7344,731.8184 623.7344,732.8496 L623.7344,733.9434 Q623.7344,735.1777 624.625,736.0059 Q625.5156,736.8184 627.1094,736.8184 Q628.0469,736.8184 628.7031,736.5684 Q629.0938,736.4121 629.5156,735.9746 Q629.7813,735.709 629.9219,735.6309 Q630.0781,735.5527 630.2813,735.5527 Q630.6094,735.5527 630.8594,735.8184 Q631.125,736.0684 631.125,736.4121 Q631.125,736.7559 630.7813,737.1621 Q630.2813,737.7402 629.4844,738.0684 Q628.4063,738.5215 627.1094,738.5215 Q625.5938,738.5215 624.3906,737.8965 Q623.4063,737.3965 622.7188,736.334 Q622.0313,735.2559 622.0313,733.9746 L622.0313,732.8184 Q622.0313,731.4902 622.6406,730.3496 Q623.2656,729.1934 624.3594,728.584 Q625.4531,727.959 626.6875,727.959 Q627.4219,727.959 628.0625,728.1309 Q628.7188,728.2871 629.2656,728.6465 Z " fill="#000000"/><text fill="#000000" font-family="sans-serif" font-size="12" font-style="italic" lengthAdjust="spacing" textLength="100" x="654" y="720.4492">&#171;Aggregate Root&#187;</text><text fill="#000000" font-family="sans-serif" font-size="12" font-style="italic" lengthAdjust="spacing" textLength="44" x="682" y="736.4102">&#171;Entity&#187;</text><text fill="#000000" font-family="sans-serif" font-size="14" lengthAdjust="spacing" textLength="127" x="640.5" y="754.5293">JobOpeningProcess</text><line style="stroke:#181818;stroke-width:0.5;" x1="612.5" x2="769.5" y1="763.043" y2="763.043"/></g><!--class JobOpeningProcessId--><g id="elem_JobOpeningProcessId"><rect codeLine="45" fill="#F1F1F1" height="68.543" id="JobOpeningProcessId" rx="2.5" ry="2.5" style="stroke:#181818;stroke-width:0.5;" width="170" x="406" y="702.5"/><ellipse cx="421" cy="732.7715" fill="#ADD1B2" rx="11" ry="11" style="stroke:#181818;stroke-width:1.0;"/><path d="M423.7656,728.6465 Q423.9219,728.4277 424.1094,728.3184 Q424.2969,728.209 424.5156,728.209 Q424.8906,728.209 425.125,728.4746 Q425.3594,728.7246 425.3594,729.334 L425.3594,730.7871 Q425.3594,731.3965 425.125,731.6621 Q424.8906,731.9277 424.5156,731.9277 Q424.1719,731.9277 423.9688,731.7246 Q423.7656,731.5371 423.6563,731.0215 Q423.6094,730.6621 423.4219,730.4746 Q423.0938,730.0996 422.4844,729.8809 Q421.875,729.6621 421.25,729.6621 Q420.4844,729.6621 419.8438,729.9902 Q419.2188,730.3184 418.7188,731.0684 Q418.2344,731.8184 418.2344,732.8496 L418.2344,733.9434 Q418.2344,735.1777 419.125,736.0059 Q420.0156,736.8184 421.6094,736.8184 Q422.5469,736.8184 423.2031,736.5684 Q423.5938,736.4121 424.0156,735.9746 Q424.2813,735.709 424.4219,735.6309 Q424.5781,735.5527 424.7813,735.5527 Q425.1094,735.5527 425.3594,735.8184 Q425.625,736.0684 425.625,736.4121 Q425.625,736.7559 425.2813,737.1621 Q424.7813,737.7402 423.9844,738.0684 Q422.9063,738.5215 421.6094,738.5215 Q420.0938,738.5215 418.8906,737.8965 Q417.9063,737.3965 417.2188,736.334 Q416.5313,735.2559 416.5313,733.9746 L416.5313,732.8184 Q416.5313,731.4902 417.1406,730.3496 Q417.7656,729.1934 418.8594,728.584 Q419.9531,727.959 421.1875,727.959 Q421.9219,727.959 422.5625,728.1309 Q423.2188,728.2871 423.7656,728.6465 Z " fill="#000000"/><text fill="#000000" font-family="sans-serif" font-size="12" font-style="italic" lengthAdjust="spacing" textLength="54" x="477" y="720.4492">&#171;Identity&#187;</text><text fill="#000000" font-family="sans-serif" font-size="12" font-style="italic" lengthAdjust="spacing" textLength="85" x="461.5" y="736.4102">&#171;Value Object&#187;</text><text fill="#000000" font-family="sans-serif" font-size="14" lengthAdjust="spacing" textLength="138" x="435" y="754.5293">JobOpeningProcessId</text><line style="stroke:#181818;stroke-width:0.5;" x1="407" x2="575" y1="763.043" y2="763.043"/></g><!--class Phase--><g id="elem_Phase"><rect codeLine="46" fill="#F1F1F1" height="52.582" id="Phase" rx="2.5" ry="2.5" style="stroke:#181818;stroke-width:0.5;" width="72" x="655" y="879"/><ellipse cx="670" cy="901.291" fill="#ADD1B2" rx="11" ry="11" style="stroke:#181818;stroke-width:1.0;"/><path d="M672.7656,897.166 Q672.9219,896.9473 673.1094,896.8379 Q673.2969,896.7285 673.5156,896.7285 Q673.8906,896.7285 674.125,896.9941 Q674.3594,897.2441 674.3594,897.8535 L674.3594,899.3066 Q674.3594,899.916 674.125,900.1816 Q673.8906,900.4473 673.5156,900.4473 Q673.1719,900.4473 672.9688,900.2441 Q672.7656,900.0566 672.6563,899.541 Q672.6094,899.1816 672.4219,898.9941 Q672.0938,898.6191 671.4844,898.4004 Q670.875,898.1816 670.25,898.1816 Q669.4844,898.1816 668.8438,898.5098 Q668.2188,898.8379 667.7188,899.5879 Q667.2344,900.3379 667.2344,901.3691 L667.2344,902.4629 Q667.2344,903.6973 668.125,904.5254 Q669.0156,905.3379 670.6094,905.3379 Q671.5469,905.3379 672.2031,905.0879 Q672.5938,904.9316 673.0156,904.4941 Q673.2813,904.2285 673.4219,904.1504 Q673.5781,904.0723 673.7813,904.0723 Q674.1094,904.0723 674.3594,904.3379 Q674.625,904.5879 674.625,904.9316 Q674.625,905.2754 674.2813,905.6816 Q673.7813,906.2598 672.9844,906.5879 Q671.9063,907.041 670.6094,907.041 Q669.0938,907.041 667.8906,906.416 Q666.9063,905.916 666.2188,904.8535 Q665.5313,903.7754 665.5313,902.4941 L665.5313,901.3379 Q665.5313,900.0098 666.1406,898.8691 Q666.7656,897.7129 667.8594,897.1035 Q668.9531,896.4785 670.1875,896.4785 Q670.9219,896.4785 671.5625,896.6504 Q672.2188,896.8066 672.7656,897.166 Z " fill="#000000"/><text fill="#000000" font-family="sans-serif" font-size="12" font-style="italic" lengthAdjust="spacing" textLength="44" x="682" y="896.9492">&#171;Entity&#187;</text><text fill="#000000" font-family="sans-serif" font-size="14" lengthAdjust="spacing" textLength="40" x="684" y="915.0684">Phase</text><line style="stroke:#181818;stroke-width:0.5;" x1="656" x2="726" y1="923.582" y2="923.582"/></g><!--class PhaseType--><g id="elem_PhaseType"><rect codeLine="48" fill="#F1F1F1" height="161.6484" id="PhaseType" rx="2.5" ry="2.5" style="stroke:#181818;stroke-width:0.5;" width="113" x="257.5" y="656"/><ellipse cx="272.5" cy="686.2715" fill="#EB937F" rx="11" ry="11" style="stroke:#181818;stroke-width:1.0;"/><path d="M271.3594,687.0684 L271.3594,689.5684 L275.6875,689.5684 L275.6875,688.6465 Q275.6875,688.0371 275.9219,687.7715 Q276.1719,687.5059 276.5469,687.5059 Q276.9219,687.5059 277.1563,687.7715 Q277.3906,688.0371 277.3906,688.6465 L277.3906,691.2715 L269.3906,691.2715 Q268.7656,691.2715 268.5,691.0371 Q268.25,690.8027 268.25,690.4121 Q268.25,690.0371 268.5156,689.8027 Q268.7813,689.5684 269.3906,689.5684 L269.6563,689.5684 L269.6563,682.9121 L269.3906,682.9121 Q268.7656,682.9121 268.5,682.6777 Q268.25,682.4434 268.25,682.0527 Q268.25,681.6777 268.5,681.4434 Q268.7656,681.209 269.3906,681.209 L277.0156,681.209 L277.0156,683.8027 Q277.0156,684.4121 276.7813,684.6777 Q276.5625,684.9277 276.1719,684.9277 Q275.7969,684.9277 275.5625,684.6777 Q275.3281,684.4121 275.3281,683.8027 L275.3281,682.9121 L271.3594,682.9121 L271.3594,685.3652 L272.8438,685.3652 Q272.8438,684.709 272.9688,684.5215 Q273.2344,684.1152 273.7031,684.1152 Q274.0781,684.1152 274.3125,684.3809 Q274.5469,684.6309 274.5469,685.2402 L274.5469,687.209 Q274.5469,687.7559 274.4219,687.9434 Q274.1563,688.334 273.7031,688.334 Q273.2344,688.334 272.9688,687.9277 Q272.8438,687.7402 272.8438,687.0684 L271.3594,687.0684 Z " fill="#000000"/><text fill="#000000" font-family="sans-serif" font-size="12" font-style="italic" lengthAdjust="spacing" textLength="82" x="286" y="673.9492">&#171;Enumerated&#187;</text><text fill="#000000" font-family="sans-serif" font-size="12" font-style="italic" lengthAdjust="spacing" textLength="85" x="284.5" y="689.9102">&#171;Value Object&#187;</text><text fill="#000000" font-family="sans-serif" font-size="14" lengthAdjust="spacing" textLength="72" x="291" y="708.0293">PhaseType</text><line style="stroke:#181818;stroke-width:0.5;" x1="258.5" x2="369.5" y1="716.543" y2="716.543"/><text fill="#000000" font-family="sans-serif" font-size="14" lengthAdjust="spacing" textLength="89" x="263.5" y="735.6504">APPLICATION</text><text fill="#000000" font-family="sans-serif" font-size="14" lengthAdjust="spacing" textLength="79" x="263.5" y="754.2715">SCREENING</text><text fill="#000000" font-family="sans-serif" font-size="14" lengthAdjust="spacing" textLength="83" x="263.5" y="772.8926">INTERVIEWS</text><text fill="#000000" font-family="sans-serif" font-size="14" lengthAdjust="spacing" textLength="65" x="263.5" y="791.5137">ANALYSIS</text><text fill="#000000" font-family="sans-serif" font-size="14" lengthAdjust="spacing" textLength="54" x="263.5" y="810.1348">RESULT</text></g><!--link JobOpeningProcess to Phase--><g id="link_JobOpeningProcess_Phase"><path codeLine="58" d="M691,771.69 C691,803.34 691,844 691,872.76 " fill="none" id="JobOpeningProcess-to-Phase" style="stroke:#181818;stroke-width:1.0;"/><polygon fill="#181818" points="691,878.76,695,869.76,691,873.76,687,869.76,691,878.76" style="stroke:#181818;stroke-width:1.0;"/><text fill="#000000" font-family="sans-serif" font-size="13" lengthAdjust="spacing" textLength="7" x="683.3984" y="793.2059">1</text><text fill="#000000" font-family="sans-serif" font-size="13" lengthAdjust="spacing" textLength="7" x="683.1906" y="867.721">1</text></g><!--link JobOpening to JobReference--><g id="link_JobOpening_JobReference"><path codeLine="60" d="M351.97,287 C299.95,305.55 224.84,332.95 160,359 C154.59,361.17 154.5226,361.1683 148.9226,363.5183 " fill="none" id="JobOpening-to-JobReference" style="stroke:#181818;stroke-width:1.0;"/><polygon fill="#181818" points="143.39,365.84,153.2367,366.0458,148.0005,363.9052,150.1411,358.669,143.39,365.84" style="stroke:#181818;stroke-width:1.0;"/><text fill="#000000" font-family="sans-serif" font-size="13" lengthAdjust="spacing" textLength="7" x="337.1618" y="285.8059">1</text><text fill="#000000" font-family="sans-serif" font-size="13" lengthAdjust="spacing" textLength="7" x="151.1766" y="358.5069">1</text></g><!--link JobOpening to TitleOrFunction--><g id="link_JobOpening_TitleOrFunction"><path codeLine="61" d="M370.55,298.13 C341.41,319.69 309.0235,343.6516 282.3135,363.4116 " fill="none" id="JobOpening-to-TitleOrFunction" style="stroke:#181818;stroke-width:1.0;"/><polygon fill="#181818" points="277.49,366.98,287.1042,364.843,281.5096,364.0063,282.3463,358.4117,277.49,366.98" style="stroke:#181818;stroke-width:1.0;"/><text fill="#000000" font-family="sans-serif" font-size="13" lengthAdjust="spacing" textLength="7" x="355.1367" y="319.6356">1</text><text fill="#000000" font-family="sans-serif" font-size="13" lengthAdjust="spacing" textLength="7" x="278.0438" y="355.5586">1</text></g><!--reverse link ContractType to JobOpening--><g id="link_ContractType_JobOpening"><path codeLine="62" d="M463.2124,164.6137 C452.1424,187.5537 442.08,208.43 432.28,228.74 " fill="none" id="ContractType-backto-JobOpening" style="stroke:#181818;stroke-width:1.0;"/><polygon fill="#181818" points="465.82,159.21,458.3061,165.5772,463.647,163.7131,465.511,169.054,465.82,159.21" style="stroke:#181818;stroke-width:1.0;"/><text fill="#000000" font-family="sans-serif" font-size="13" lengthAdjust="spacing" textLength="7" x="455.3246" y="180.7901">1</text><text fill="#000000" font-family="sans-serif" font-size="13" lengthAdjust="spacing" textLength="7" x="427.6363" y="217.8612">1</text></g><!--reverse link Mode to JobOpening--><g id="link_Mode_JobOpening"><path codeLine="63" d="M372.4539,173.4009 C382.5139,193.9909 390.75,210.84 399.41,228.56 " fill="none" id="Mode-backto-JobOpening" style="stroke:#181818;stroke-width:1.0;"/><polygon fill="#181818" points="369.82,168.01,370.177,177.8524,372.015,172.5025,377.3649,174.3405,369.82,168.01" style="stroke:#181818;stroke-width:1.0;"/><text fill="#000000" font-family="sans-serif" font-size="13" lengthAdjust="spacing" textLength="7" x="366.0277" y="190.6247">1</text><text fill="#000000" font-family="sans-serif" font-size="13" lengthAdjust="spacing" textLength="7" x="388.7059" y="217.648">1</text></g><!--link JobOpening to Description--><g id="link_JobOpening_Description"><path codeLine="64" d="M459.35,298.13 C487.14,319.69 517.8894,343.5422 543.3594,363.3022 " fill="none" id="JobOpening-to-Description" style="stroke:#181818;stroke-width:1.0;"/><polygon fill="#181818" points="548.1,366.98,543.441,358.3028,544.1495,363.9151,538.5372,364.6236,548.1,366.98" style="stroke:#181818;stroke-width:1.0;"/><text fill="#000000" font-family="sans-serif" font-size="13" lengthAdjust="spacing" textLength="7" x="459.1992" y="319.6356">1</text><text fill="#000000" font-family="sans-serif" font-size="13" lengthAdjust="spacing" textLength="7" x="532.2275" y="355.5586">1</text></g><!--link JobOpening to VacanciesNumber--><g id="link_JobOpening_VacanciesNumber"><path codeLine="65" d="M416,298.13 C416,319.61 416,341.03 416,360.78 " fill="none" id="JobOpening-to-VacanciesNumber" style="stroke:#181818;stroke-width:1.0;"/><polygon fill="#181818" points="416,366.78,420,357.78,416,361.78,412,357.78,416,366.78" style="stroke:#181818;stroke-width:1.0;"/><text fill="#000000" font-family="sans-serif" font-size="13" lengthAdjust="spacing" textLength="7" x="408.3984" y="319.6356">1</text><text fill="#000000" font-family="sans-serif" font-size="13" lengthAdjust="spacing" textLength="7" x="408.1906" y="355.7457">1</text></g><!--reverse link JobOpeningProcessId to JobOpeningProcess--><g id="link_JobOpeningProcessId_JobOpeningProcess"><path codeLine="69" d="M582.16,737 C593.82,737 599.48,737 611.15,737 " fill="none" id="JobOpeningProcessId-backto-JobOpeningProcess" style="stroke:#181818;stroke-width:1.0;"/><polygon fill="#181818" points="576.16,737,585.16,741,581.16,737,585.16,733,576.16,737" style="stroke:#181818;stroke-width:1.0;"/><text fill="#000000" font-family="sans-serif" font-size="13" lengthAdjust="spacing" textLength="7" x="584.0563" y="733.3046">1</text><text fill="#000000" font-family="sans-serif" font-size="13" lengthAdjust="spacing" textLength="7" x="596.4662" y="733.2792">1</text></g><!--link JobOpening to JobOpeningProcess--><g id="link_JobOpening_JobOpeningProcess"><path codeLine="70" d="M480.13,267.06 C561.39,274.15 691,299.95 691,392.5 C691,392.5 691,392.5 691,572 C691,617.13 691,663.24 691,696.39 " fill="none" id="JobOpening-to-JobOpeningProcess" style="stroke:#181818;stroke-width:1.0;"/><polygon fill="#181818" points="691,702.39,695,693.39,691,697.39,687,693.39,691,702.39" style="stroke:#181818;stroke-width:1.0;"/><text fill="#000000" font-family="sans-serif" font-size="13" lengthAdjust="spacing" textLength="21" x="692" y="506.0283">has</text><text fill="#000000" font-family="sans-serif" font-size="13" lengthAdjust="spacing" textLength="7" x="487.9497" y="263.5604">1</text><text fill="#000000" font-family="sans-serif" font-size="13" lengthAdjust="spacing" textLength="5" x="685.5234" y="691.2718">*</text></g><!--SRC=[bLHDRvmm4BtxLrZqW5I9tVOQ8IIwIrfNB20WM-LK6JDXgS0WsnoYLVzxWTA5y96aFi7upNZcFJ_h5wLgURVVrmNbgYcB7QlAFIkeb4QQqqpG4g5BdW8kGLsgL28aW2dAimAmzhrAi5y3ptccuGz9mXYb-8eGRbTV0xU80M2QTfO9oAW275QLiYpJTBZArRDbNN_FSa9u0W6SWMcI50QKQPvfqG3sarzj2_EiE5S5-EA-uKpb5Ty20szAVAYu4fIf-Bc6hekc1D7sbQwSqITrw_x1TN_6vEJS8e4TncDaMlzKfU-k6pedFnwB-fuHaSd_jySl8JdUVjjJ9ZEVAQESvI2zfan0l4xG4IGJURr1Zexq4HfSg8HZsxbyeP5-6x07l8Sz7S-M7GGkETWnyRtbPdG87SSZtjVb5l5Y9pmJvqUqKjEptSU8hEo4JlJWnY_ZmnoJgucrpnes30jhdtQxzdCSVu2EWH7w3zUnW3fPDeo10r4naB8r26ETHQwhzXXGRxZabKoIlk6LcRoJkfFRzVyAhmcxr7D5neLwCz7-DjGnkvXrgK8FkhqQVTmqcjhelyPyD7ibje7J9s90BJ2TpRVs9cxRFcJctstWDWa5FAc1Y9KhWHQNtEXf-xY2ndUuPHBz0G00]--></g></svg>