<?xml version="1.0" encoding="us-ascii" standalone="no"?><svg xmlns="http://www.w3.org/2000/svg" xmlns:xlink="http://www.w3.org/1999/xlink" contentStyleType="text/css" height="434px" preserveAspectRatio="none" style="width:336px;height:434px;background:#FFFFFF;" version="1.1" viewBox="0 0 336 434" width="336px" zoomAndPan="magnify"><defs/><g><!--cluster application--><g id="cluster_application"><rect fill="none" height="267" rx="2.5" ry="2.5" style="stroke:#181818;stroke-width:1.0;" width="323" x="7" y="7"/><text fill="#000000" font-family="sans-serif" font-size="14" font-weight="bold" lengthAdjust="spacing" textLength="77" x="130" y="24.1074">application</text></g><!--cluster server--><g id="cluster_server"><rect fill="none" height="130" rx="2.5" ry="2.5" style="stroke:#181818;stroke-width:1.0;" width="160" x="98" y="298"/><text fill="#000000" font-family="sans-serif" font-size="14" font-weight="bold" lengthAdjust="spacing" textLength="47" x="154.5" y="315.1074">server</text></g><!--class JobOpening--><g id="elem_JobOpening"><rect codeLine="3" fill="#F1F1F1" height="76.543" id="JobOpening" rx="2.5" ry="2.5" style="stroke:#181818;stroke-width:0.5;" width="128" x="23" y="44"/><ellipse cx="38" cy="74.2715" fill="#ADD1B2" rx="11" ry="11" style="stroke:#181818;stroke-width:1.0;"/><path d="M40.7656,70.1465 Q40.9219,69.9277 41.1094,69.8184 Q41.2969,69.709 41.5156,69.709 Q41.8906,69.709 42.125,69.9746 Q42.3594,70.2246 42.3594,70.834 L42.3594,72.2871 Q42.3594,72.8965 42.125,73.1621 Q41.8906,73.4277 41.5156,73.4277 Q41.1719,73.4277 40.9688,73.2246 Q40.7656,73.0371 40.6563,72.5215 Q40.6094,72.1621 40.4219,71.9746 Q40.0938,71.5996 39.4844,71.3809 Q38.875,71.1621 38.25,71.1621 Q37.4844,71.1621 36.8438,71.4902 Q36.2188,71.8184 35.7188,72.5684 Q35.2344,73.3184 35.2344,74.3496 L35.2344,75.4434 Q35.2344,76.6777 36.125,77.5059 Q37.0156,78.3184 38.6094,78.3184 Q39.5469,78.3184 40.2031,78.0684 Q40.5938,77.9121 41.0156,77.4746 Q41.2813,77.209 41.4219,77.1309 Q41.5781,77.0527 41.7813,77.0527 Q42.1094,77.0527 42.3594,77.3184 Q42.625,77.5684 42.625,77.9121 Q42.625,78.2559 42.2813,78.6621 Q41.7813,79.2402 40.9844,79.5684 Q39.9063,80.0215 38.6094,80.0215 Q37.0938,80.0215 35.8906,79.3965 Q34.9063,78.8965 34.2188,77.834 Q33.5313,76.7559 33.5313,75.4746 L33.5313,74.3184 Q33.5313,72.9902 34.1406,71.8496 Q34.7656,70.6934 35.8594,70.084 Q36.9531,69.459 38.1875,69.459 Q38.9219,69.459 39.5625,69.6309 Q40.2188,69.7871 40.7656,70.1465 Z " fill="#000000"/><text fill="#000000" font-family="sans-serif" font-size="12" font-style="italic" lengthAdjust="spacing" textLength="100" x="50" y="61.9492">&#171;Aggregate Root&#187;</text><text fill="#000000" font-family="sans-serif" font-size="12" font-style="italic" lengthAdjust="spacing" textLength="44" x="78" y="77.9102">&#171;Entity&#187;</text><text fill="#000000" font-family="sans-serif" font-size="14" lengthAdjust="spacing" textLength="76" x="62" y="96.0293">JobOpening</text><line style="stroke:#181818;stroke-width:0.5;" x1="24" x2="150" y1="104.543" y2="104.543"/><line style="stroke:#181818;stroke-width:0.5;" x1="24" x2="150" y1="112.543" y2="112.543"/></g><!--class JobOpeningProcess--><g id="elem_JobOpeningProcess"><rect codeLine="5" fill="#F1F1F1" height="76.543" id="JobOpeningProcess" rx="2.5" ry="2.5" style="stroke:#181818;stroke-width:0.5;" width="159" x="30.5" y="181"/><ellipse cx="45.5" cy="211.2715" fill="#ADD1B2" rx="11" ry="11" style="stroke:#181818;stroke-width:1.0;"/><path d="M48.2656,207.1465 Q48.4219,206.9277 48.6094,206.8184 Q48.7969,206.709 49.0156,206.709 Q49.3906,206.709 49.625,206.9746 Q49.8594,207.2246 49.8594,207.834 L49.8594,209.2871 Q49.8594,209.8965 49.625,210.1621 Q49.3906,210.4277 49.0156,210.4277 Q48.6719,210.4277 48.4688,210.2246 Q48.2656,210.0371 48.1563,209.5215 Q48.1094,209.1621 47.9219,208.9746 Q47.5938,208.5996 46.9844,208.3809 Q46.375,208.1621 45.75,208.1621 Q44.9844,208.1621 44.3438,208.4902 Q43.7188,208.8184 43.2188,209.5684 Q42.7344,210.3184 42.7344,211.3496 L42.7344,212.4434 Q42.7344,213.6777 43.625,214.5059 Q44.5156,215.3184 46.1094,215.3184 Q47.0469,215.3184 47.7031,215.0684 Q48.0938,214.9121 48.5156,214.4746 Q48.7813,214.209 48.9219,214.1309 Q49.0781,214.0527 49.2813,214.0527 Q49.6094,214.0527 49.8594,214.3184 Q50.125,214.5684 50.125,214.9121 Q50.125,215.2559 49.7813,215.6621 Q49.2813,216.2402 48.4844,216.5684 Q47.4063,217.0215 46.1094,217.0215 Q44.5938,217.0215 43.3906,216.3965 Q42.4063,215.8965 41.7188,214.834 Q41.0313,213.7559 41.0313,212.4746 L41.0313,211.3184 Q41.0313,209.9902 41.6406,208.8496 Q42.2656,207.6934 43.3594,207.084 Q44.4531,206.459 45.6875,206.459 Q46.4219,206.459 47.0625,206.6309 Q47.7188,206.7871 48.2656,207.1465 Z " fill="#000000"/><text fill="#000000" font-family="sans-serif" font-size="12" font-style="italic" lengthAdjust="spacing" textLength="100" x="73" y="198.9492">&#171;Aggregate Root&#187;</text><text fill="#000000" font-family="sans-serif" font-size="12" font-style="italic" lengthAdjust="spacing" textLength="44" x="101" y="214.9102">&#171;Entity&#187;</text><text fill="#000000" font-family="sans-serif" font-size="14" lengthAdjust="spacing" textLength="127" x="59.5" y="233.0293">JobOpeningProcess</text><line style="stroke:#181818;stroke-width:0.5;" x1="31.5" x2="188.5" y1="241.543" y2="241.543"/><line style="stroke:#181818;stroke-width:0.5;" x1="31.5" x2="188.5" y1="249.543" y2="249.543"/></g><!--class Candidate--><g id="elem_Candidate"><rect codeLine="8" fill="#F1F1F1" height="76.543" id="Candidate" rx="2.5" ry="2.5" style="stroke:#181818;stroke-width:0.5;" width="128" x="186" y="44"/><ellipse cx="201" cy="74.2715" fill="#ADD1B2" rx="11" ry="11" style="stroke:#181818;stroke-width:1.0;"/><path d="M203.7656,70.1465 Q203.9219,69.9277 204.1094,69.8184 Q204.2969,69.709 204.5156,69.709 Q204.8906,69.709 205.125,69.9746 Q205.3594,70.2246 205.3594,70.834 L205.3594,72.2871 Q205.3594,72.8965 205.125,73.1621 Q204.8906,73.4277 204.5156,73.4277 Q204.1719,73.4277 203.9688,73.2246 Q203.7656,73.0371 203.6563,72.5215 Q203.6094,72.1621 203.4219,71.9746 Q203.0938,71.5996 202.4844,71.3809 Q201.875,71.1621 201.25,71.1621 Q200.4844,71.1621 199.8438,71.4902 Q199.2188,71.8184 198.7188,72.5684 Q198.2344,73.3184 198.2344,74.3496 L198.2344,75.4434 Q198.2344,76.6777 199.125,77.5059 Q200.0156,78.3184 201.6094,78.3184 Q202.5469,78.3184 203.2031,78.0684 Q203.5938,77.9121 204.0156,77.4746 Q204.2813,77.209 204.4219,77.1309 Q204.5781,77.0527 204.7813,77.0527 Q205.1094,77.0527 205.3594,77.3184 Q205.625,77.5684 205.625,77.9121 Q205.625,78.2559 205.2813,78.6621 Q204.7813,79.2402 203.9844,79.5684 Q202.9063,80.0215 201.6094,80.0215 Q200.0938,80.0215 198.8906,79.3965 Q197.9063,78.8965 197.2188,77.834 Q196.5313,76.7559 196.5313,75.4746 L196.5313,74.3184 Q196.5313,72.9902 197.1406,71.8496 Q197.7656,70.6934 198.8594,70.084 Q199.9531,69.459 201.1875,69.459 Q201.9219,69.459 202.5625,69.6309 Q203.2188,69.7871 203.7656,70.1465 Z " fill="#000000"/><text fill="#000000" font-family="sans-serif" font-size="12" font-style="italic" lengthAdjust="spacing" textLength="100" x="213" y="61.9492">&#171;Aggregate Root&#187;</text><text fill="#000000" font-family="sans-serif" font-size="12" font-style="italic" lengthAdjust="spacing" textLength="44" x="241" y="77.9102">&#171;Entity&#187;</text><text fill="#000000" font-family="sans-serif" font-size="14" lengthAdjust="spacing" textLength="65" x="230.5" y="96.0293">Candidate</text><line style="stroke:#181818;stroke-width:0.5;" x1="187" x2="313" y1="104.543" y2="104.543"/><line style="stroke:#181818;stroke-width:0.5;" x1="187" x2="313" y1="112.543" y2="112.543"/></g><!--class Server--><g id="elem_Server"><rect codeLine="13" fill="#F1F1F1" height="76.543" id="Server" rx="2.5" ry="2.5" style="stroke:#181818;stroke-width:0.5;" width="128" x="114" y="335"/><ellipse cx="129" cy="365.2715" fill="#ADD1B2" rx="11" ry="11" style="stroke:#181818;stroke-width:1.0;"/><path d="M131.7656,361.1465 Q131.9219,360.9277 132.1094,360.8184 Q132.2969,360.709 132.5156,360.709 Q132.8906,360.709 133.125,360.9746 Q133.3594,361.2246 133.3594,361.834 L133.3594,363.2871 Q133.3594,363.8965 133.125,364.1621 Q132.8906,364.4277 132.5156,364.4277 Q132.1719,364.4277 131.9688,364.2246 Q131.7656,364.0371 131.6563,363.5215 Q131.6094,363.1621 131.4219,362.9746 Q131.0938,362.5996 130.4844,362.3809 Q129.875,362.1621 129.25,362.1621 Q128.4844,362.1621 127.8438,362.4902 Q127.2188,362.8184 126.7188,363.5684 Q126.2344,364.3184 126.2344,365.3496 L126.2344,366.4434 Q126.2344,367.6777 127.125,368.5059 Q128.0156,369.3184 129.6094,369.3184 Q130.5469,369.3184 131.2031,369.0684 Q131.5938,368.9121 132.0156,368.4746 Q132.2813,368.209 132.4219,368.1309 Q132.5781,368.0527 132.7813,368.0527 Q133.1094,368.0527 133.3594,368.3184 Q133.625,368.5684 133.625,368.9121 Q133.625,369.2559 133.2813,369.6621 Q132.7813,370.2402 131.9844,370.5684 Q130.9063,371.0215 129.6094,371.0215 Q128.0938,371.0215 126.8906,370.3965 Q125.9063,369.8965 125.2188,368.834 Q124.5313,367.7559 124.5313,366.4746 L124.5313,365.3184 Q124.5313,363.9902 125.1406,362.8496 Q125.7656,361.6934 126.8594,361.084 Q127.9531,360.459 129.1875,360.459 Q129.9219,360.459 130.5625,360.6309 Q131.2188,360.7871 131.7656,361.1465 Z " fill="#000000"/><text fill="#000000" font-family="sans-serif" font-size="12" font-style="italic" lengthAdjust="spacing" textLength="100" x="141" y="352.9492">&#171;Aggregate Root&#187;</text><text fill="#000000" font-family="sans-serif" font-size="12" font-style="italic" lengthAdjust="spacing" textLength="44" x="169" y="368.9102">&#171;Entity&#187;</text><text fill="#000000" font-family="sans-serif" font-size="14" lengthAdjust="spacing" textLength="42" x="170" y="387.0293">Server</text><line style="stroke:#181818;stroke-width:0.5;" x1="115" x2="241" y1="395.543" y2="395.543"/><line style="stroke:#181818;stroke-width:0.5;" x1="115" x2="241" y1="403.543" y2="403.543"/></g><!--reverse link Candidate to Server--><g id="link_Candidate_Server"><path codeLine="17" d="M241.8517,126.971 C234.1017,167.081 221.87,226.48 207,282 C202.3,299.53 196.29,318.71 190.96,334.87 " fill="none" id="Candidate-backto-Server" style="stroke:#181818;stroke-width:1.0;"/><polygon fill="#181818" points="242.99,121.08,237.3553,129.1577,242.0415,125.9892,245.21,130.6754,242.99,121.08" style="stroke:#181818;stroke-width:1.0;"/><text fill="#000000" font-family="sans-serif" font-size="13" lengthAdjust="spacing" textLength="7" x="234.315" y="142.6713">1</text><text fill="#000000" font-family="sans-serif" font-size="13" lengthAdjust="spacing" textLength="7" x="185.5859" y="323.8621">1</text></g><!--link JobOpeningProcess to Server--><g id="link_JobOpeningProcess_Server"><path codeLine="18" d="M126.81,258.07 C137.27,281.46 148.2295,305.9532 158.6995,329.3532 " fill="none" id="JobOpeningProcess-to-Server" style="stroke:#181818;stroke-width:1.0;"/><polygon fill="#181818" points="161.15,334.83,161.1254,324.9812,159.1079,330.266,153.8231,328.2485,161.15,334.83" style="stroke:#181818;stroke-width:1.0;"/><text fill="#000000" font-family="sans-serif" font-size="13" lengthAdjust="spacing" textLength="7" x="121.9313" y="279.6597">1</text><text fill="#000000" font-family="sans-serif" font-size="13" lengthAdjust="spacing" textLength="7" x="150.6523" y="323.8153">1</text></g><!--link JobOpening to JobOpeningProcess--><g id="link_JobOpening_JobOpeningProcess"><path codeLine="19" d="M93.41,121.11 C96.57,139.67 99.3725,156.1052 102.5425,174.7152 " fill="none" id="JobOpening-to-JobOpeningProcess" style="stroke:#181818;stroke-width:1.0;"/><polygon fill="#181818" points="103.55,180.63,105.9819,171.0861,102.7104,175.701,98.0955,172.4295,103.55,180.63" style="stroke:#181818;stroke-width:1.0;"/><text fill="#000000" font-family="sans-serif" font-size="13" lengthAdjust="spacing" textLength="7" x="86.8738" y="142.7061">1</text><text fill="#000000" font-family="sans-serif" font-size="13" lengthAdjust="spacing" textLength="7" x="94.902" y="169.8746">1</text></g><!--SRC=[ZK_12i8m3BttAyhkFNWl1H4lNXJzWjY5KYXfIOCWmt-tcp264-OZ44ZUotjXz08K4cee9KKF4ZCDIZVu1BNgKxwV2rAaOEq-1CO0WlgQipXdxP4aojEvuQNKD__2sMEjMxA5rm6eZtqZRcbQyHoy8Z-Gbvblq-IF8xEXxdQTjiQC_QDMgqScZZ7k9sUvN2dLY3S0]--></g></svg>