<?xml version="1.0" encoding="us-ascii" standalone="no"?><svg xmlns="http://www.w3.org/2000/svg" xmlns:xlink="http://www.w3.org/1999/xlink" contentStyleType="text/css" height="618.3px" preserveAspectRatio="none" style="width:1132px;height:618px;background:#FFFFFF;" version="1.1" viewBox="0 0 1132 618" width="1132.2px" zoomAndPan="magnify"><defs/><g><rect fill="#FFFFFF" height="443.3906" style="stroke:#181818;stroke-width:0.9;" width="9" x="57.15" y="84.259"/><rect fill="#FFFFFF" height="28.1619" style="stroke:#181818;stroke-width:0.9;" width="9" x="288.45" y="105.2209"/><rect fill="#FFFFFF" height="28.1619" style="stroke:#181818;stroke-width:0.9;" width="9" x="288.45" y="274.1924"/><rect fill="#FFFFFF" height="28.1619" style="stroke:#181818;stroke-width:0.9;" width="9" x="288.45" y="330.5162"/><rect fill="#FFFFFF" height="28.1619" style="stroke:#181818;stroke-width:0.9;" width="9" x="288.45" y="499.4877"/><rect fill="#FFFFFF" height="28.1619" style="stroke:#181818;stroke-width:0.9;" width="9" x="549.45" y="133.3828"/><rect fill="#FFFFFF" height="28.1619" style="stroke:#181818;stroke-width:0.9;" width="9" x="549.45" y="246.0305"/><rect fill="#FFFFFF" height="28.1619" style="stroke:#181818;stroke-width:0.9;" width="9" x="549.45" y="358.6781"/><rect fill="#FFFFFF" height="28.1619" style="stroke:#181818;stroke-width:0.9;" width="9" x="549.45" y="471.3258"/><rect fill="#FFFFFF" height="28.1619" style="stroke:#181818;stroke-width:0.9;" width="9" x="810.45" y="161.5447"/><rect fill="#FFFFFF" height="28.1619" style="stroke:#181818;stroke-width:0.9;" width="9" x="810.45" y="217.8686"/><rect fill="#FFFFFF" height="28.1619" style="stroke:#181818;stroke-width:0.9;" width="9" x="810.45" y="386.84"/><rect fill="#FFFFFF" height="28.1619" style="stroke:#181818;stroke-width:0.9;" width="9" x="810.45" y="443.1639"/><rect fill="#FFFFFF" height="28.1619" style="stroke:#181818;stroke-width:0.9;" width="9" x="964.8" y="189.7066"/><rect fill="#FFFFFF" height="28.1619" style="stroke:#181818;stroke-width:0.9;" width="9" x="1082.25" y="415.002"/><line style="stroke:#181818;stroke-width:0.45;stroke-dasharray:5.0,5.0;" x1="61.2" x2="61.2" y1="75.259" y2="543.8496"/><line style="stroke:#181818;stroke-width:0.45;stroke-dasharray:5.0,5.0;" x1="292.5" x2="292.5" y1="75.259" y2="543.8496"/><line style="stroke:#181818;stroke-width:0.45;stroke-dasharray:5.0,5.0;" x1="553.5" x2="553.5" y1="75.259" y2="543.8496"/><line style="stroke:#181818;stroke-width:0.45;stroke-dasharray:5.0,5.0;" x1="814.95" x2="814.95" y1="75.259" y2="543.8496"/><line style="stroke:#181818;stroke-width:0.45;stroke-dasharray:5.0,5.0;" x1="968.85" x2="968.85" y1="75.259" y2="543.8496"/><line style="stroke:#181818;stroke-width:0.45;stroke-dasharray:5.0,5.0;" x1="1086.75" x2="1086.75" y1="75.259" y2="543.8496"/><text fill="#000000" font-family="sans-serif" font-size="12.6" lengthAdjust="spacing" textLength="108.9" x="4.5" y="72.0967">Customer Manager</text><ellipse cx="61.65" cy="12.15" fill="#E2E2F0" rx="7.2" ry="7.2" style="stroke:#181818;stroke-width:0.45;"/><path d="M61.65,19.35 L61.65,43.65 M49.95,26.55 L73.35,26.55 M61.65,43.65 L49.95,57.15 M61.65,43.65 L73.35,57.15 " fill="none" style="stroke:#181818;stroke-width:0.45;"/><text fill="#000000" font-family="sans-serif" font-size="12.6" lengthAdjust="spacing" textLength="108.9" x="4.5" y="556.5463">Customer Manager</text><ellipse cx="61.65" cy="567.3586" fill="#E2E2F0" rx="7.2" ry="7.2" style="stroke:#181818;stroke-width:0.45;"/><path d="M61.65,574.5586 L61.65,598.8586 M49.95,581.7586 L73.35,581.7586 M61.65,598.8586 L49.95,612.3586 M61.65,598.8586 L73.35,612.3586 " fill="none" style="stroke:#181818;stroke-width:0.45;"/><rect fill="#E2E2F0" height="46.118" rx="2.25" ry="2.25" style="stroke:#181818;stroke-width:0.45;" width="123.3" x="231.3" y="28.241"/><text fill="#000000" font-family="sans-serif" font-size="12.6" font-style="italic" lengthAdjust="spacing" textLength="27" x="279.45" y="48.1377">&#171;UI&#187;</text><text fill="#000000" font-family="sans-serif" font-size="12.6" lengthAdjust="spacing" textLength="110.7" x="237.6" y="64.8967">:NotifyCandidatesUI</text><rect fill="#E2E2F0" height="46.118" rx="2.25" ry="2.25" style="stroke:#181818;stroke-width:0.45;" width="123.3" x="231.3" y="542.9496"/><text fill="#000000" font-family="sans-serif" font-size="12.6" font-style="italic" lengthAdjust="spacing" textLength="27" x="279.45" y="562.8463">&#171;UI&#187;</text><text fill="#000000" font-family="sans-serif" font-size="12.6" lengthAdjust="spacing" textLength="110.7" x="237.6" y="579.6053">:NotifyCandidatesUI</text><rect fill="#E2E2F0" height="46.118" rx="2.25" ry="2.25" style="stroke:#181818;stroke-width:0.45;" width="168.3" x="469.8" y="28.241"/><text fill="#000000" font-family="sans-serif" font-size="12.6" font-style="italic" lengthAdjust="spacing" textLength="76.5" x="515.7" y="48.1377">&#171;Application&#187;</text><text fill="#000000" font-family="sans-serif" font-size="12.6" lengthAdjust="spacing" textLength="155.7" x="476.1" y="64.8967">:NotifyCandidatesController</text><rect fill="#E2E2F0" height="46.118" rx="2.25" ry="2.25" style="stroke:#181818;stroke-width:0.45;" width="168.3" x="469.8" y="542.9496"/><text fill="#000000" font-family="sans-serif" font-size="12.6" font-style="italic" lengthAdjust="spacing" textLength="76.5" x="515.7" y="562.8463">&#171;Application&#187;</text><text fill="#000000" font-family="sans-serif" font-size="12.6" lengthAdjust="spacing" textLength="155.7" x="476.1" y="579.6053">:NotifyCandidatesController</text><rect fill="#E2E2F0" height="46.118" rx="2.25" ry="2.25" style="stroke:#181818;stroke-width:0.45;" width="154.8" x="737.55" y="28.241"/><text fill="#000000" font-family="sans-serif" font-size="12.6" font-style="italic" lengthAdjust="spacing" textLength="55.8" x="787.05" y="48.1377">&#171;Service&#187;</text><text fill="#000000" font-family="sans-serif" font-size="12.6" lengthAdjust="spacing" textLength="142.2" x="743.85" y="64.8967">:NotifyCandidatesService</text><rect fill="#E2E2F0" height="46.118" rx="2.25" ry="2.25" style="stroke:#181818;stroke-width:0.45;" width="154.8" x="737.55" y="542.9496"/><text fill="#000000" font-family="sans-serif" font-size="12.6" font-style="italic" lengthAdjust="spacing" textLength="55.8" x="787.05" y="562.8463">&#171;Service&#187;</text><text fill="#000000" font-family="sans-serif" font-size="12.6" lengthAdjust="spacing" textLength="142.2" x="743.85" y="579.6053">:NotifyCandidatesService</text><rect fill="#E2E2F0" height="46.118" rx="2.25" ry="2.25" style="stroke:#181818;stroke-width:0.45;" width="135.9" x="901.35" y="28.241"/><text fill="#000000" font-family="sans-serif" font-size="12.6" font-style="italic" lengthAdjust="spacing" textLength="81" x="928.8" y="48.1377">&#171;Persistence&#187;</text><text fill="#000000" font-family="sans-serif" font-size="12.6" lengthAdjust="spacing" textLength="123.3" x="907.65" y="64.8967">:CandidateRepository</text><rect fill="#E2E2F0" height="46.118" rx="2.25" ry="2.25" style="stroke:#181818;stroke-width:0.45;" width="135.9" x="901.35" y="542.9496"/><text fill="#000000" font-family="sans-serif" font-size="12.6" font-style="italic" lengthAdjust="spacing" textLength="81" x="928.8" y="562.8463">&#171;Persistence&#187;</text><text fill="#000000" font-family="sans-serif" font-size="12.6" lengthAdjust="spacing" textLength="123.3" x="907.65" y="579.6053">:CandidateRepository</text><rect fill="#E2E2F0" height="46.118" rx="2.25" ry="2.25" style="stroke:#181818;stroke-width:0.45;" width="81" x="1046.25" y="28.241"/><text fill="#000000" font-family="sans-serif" font-size="12.6" font-style="italic" lengthAdjust="spacing" textLength="51.3" x="1061.1" y="48.1377">&#171;Server&#187;</text><text fill="#000000" font-family="sans-serif" font-size="12.6" lengthAdjust="spacing" textLength="68.4" x="1052.55" y="64.8967">EmailServer</text><rect fill="#E2E2F0" height="46.118" rx="2.25" ry="2.25" style="stroke:#181818;stroke-width:0.45;" width="81" x="1046.25" y="542.9496"/><text fill="#000000" font-family="sans-serif" font-size="12.6" font-style="italic" lengthAdjust="spacing" textLength="51.3" x="1061.1" y="562.8463">&#171;Server&#187;</text><text fill="#000000" font-family="sans-serif" font-size="12.6" lengthAdjust="spacing" textLength="68.4" x="1052.55" y="579.6053">EmailServer</text><rect fill="#FFFFFF" height="443.3906" style="stroke:#181818;stroke-width:0.9;" width="9" x="57.15" y="84.259"/><rect fill="#FFFFFF" height="28.1619" style="stroke:#181818;stroke-width:0.9;" width="9" x="288.45" y="105.2209"/><rect fill="#FFFFFF" height="28.1619" style="stroke:#181818;stroke-width:0.9;" width="9" x="288.45" y="274.1924"/><rect fill="#FFFFFF" height="28.1619" style="stroke:#181818;stroke-width:0.9;" width="9" x="288.45" y="330.5162"/><rect fill="#FFFFFF" height="28.1619" style="stroke:#181818;stroke-width:0.9;" width="9" x="288.45" y="499.4877"/><rect fill="#FFFFFF" height="28.1619" style="stroke:#181818;stroke-width:0.9;" width="9" x="549.45" y="133.3828"/><rect fill="#FFFFFF" height="28.1619" style="stroke:#181818;stroke-width:0.9;" width="9" x="549.45" y="246.0305"/><rect fill="#FFFFFF" height="28.1619" style="stroke:#181818;stroke-width:0.9;" width="9" x="549.45" y="358.6781"/><rect fill="#FFFFFF" height="28.1619" style="stroke:#181818;stroke-width:0.9;" width="9" x="549.45" y="471.3258"/><rect fill="#FFFFFF" height="28.1619" style="stroke:#181818;stroke-width:0.9;" width="9" x="810.45" y="161.5447"/><rect fill="#FFFFFF" height="28.1619" style="stroke:#181818;stroke-width:0.9;" width="9" x="810.45" y="217.8686"/><rect fill="#FFFFFF" height="28.1619" style="stroke:#181818;stroke-width:0.9;" width="9" x="810.45" y="386.84"/><rect fill="#FFFFFF" height="28.1619" style="stroke:#181818;stroke-width:0.9;" width="9" x="810.45" y="443.1639"/><rect fill="#FFFFFF" height="28.1619" style="stroke:#181818;stroke-width:0.9;" width="9" x="964.8" y="189.7066"/><rect fill="#FFFFFF" height="28.1619" style="stroke:#181818;stroke-width:0.9;" width="9" x="1082.25" y="415.002"/><polygon fill="#181818" points="277.65,101.6209,286.65,105.2209,277.65,108.8209,281.25,105.2209" style="stroke:#181818;stroke-width:0.9;"/><line style="stroke:#181818;stroke-width:0.9;" x1="66.15" x2="283.05" y1="105.2209" y2="105.2209"/><text fill="#000000" font-family="sans-serif" font-size="11.7" font-weight="bold" lengthAdjust="spacing" textLength="6.3" x="72.45" y="100.4845">1</text><text fill="#000000" font-family="sans-serif" font-size="11.7" lengthAdjust="spacing" textLength="135.9" x="82.35" y="100.4845">notify candidates by email</text><polygon fill="#181818" points="538.65,129.7828,547.65,133.3828,538.65,136.9828,542.25,133.3828" style="stroke:#181818;stroke-width:0.9;"/><line style="stroke:#181818;stroke-width:0.9;" x1="292.95" x2="544.05" y1="133.3828" y2="133.3828"/><text fill="#000000" font-family="sans-serif" font-size="11.7" font-weight="bold" lengthAdjust="spacing" textLength="6.3" x="299.25" y="128.6464">2</text><text fill="#000000" font-family="sans-serif" font-size="11.7" lengthAdjust="spacing" textLength="83.7" x="309.15" y="128.6464">findCandidates()</text><polygon fill="#181818" points="799.65,157.9447,808.65,161.5447,799.65,165.1447,803.25,161.5447" style="stroke:#181818;stroke-width:0.9;"/><line style="stroke:#181818;stroke-width:0.9;" x1="553.95" x2="805.05" y1="161.5447" y2="161.5447"/><text fill="#000000" font-family="sans-serif" font-size="11.7" font-weight="bold" lengthAdjust="spacing" textLength="6.3" x="560.25" y="156.8083">3</text><text fill="#000000" font-family="sans-serif" font-size="11.7" lengthAdjust="spacing" textLength="83.7" x="570.15" y="156.8083">findCandidates()</text><polygon fill="#181818" points="954,186.1066,963,189.7066,954,193.3066,957.6,189.7066" style="stroke:#181818;stroke-width:0.9;"/><line style="stroke:#181818;stroke-width:0.9;" x1="814.95" x2="959.4" y1="189.7066" y2="189.7066"/><text fill="#000000" font-family="sans-serif" font-size="11.7" font-weight="bold" lengthAdjust="spacing" textLength="6.3" x="821.25" y="184.9702">4</text><text fill="#000000" font-family="sans-serif" font-size="11.7" lengthAdjust="spacing" textLength="97.2" x="831.15" y="184.9702">findAllCandidates()</text><polygon fill="#181818" points="829.35,214.2686,820.35,217.8686,829.35,221.4686,825.75,217.8686" style="stroke:#181818;stroke-width:0.9;"/><line style="stroke:#181818;stroke-width:0.9;stroke-dasharray:2.0,2.0;" x1="823.95" x2="968.4" y1="217.8686" y2="217.8686"/><text fill="#000000" font-family="sans-serif" font-size="11.7" font-weight="bold" lengthAdjust="spacing" textLength="6.3" x="834.75" y="213.1321">5</text><text fill="#000000" font-family="sans-serif" font-size="11.7" lengthAdjust="spacing" textLength="56.7" x="844.65" y="213.1321">candidates</text><polygon fill="#181818" points="568.35,242.4305,559.35,246.0305,568.35,249.6305,564.75,246.0305" style="stroke:#181818;stroke-width:0.9;"/><line style="stroke:#181818;stroke-width:0.9;stroke-dasharray:2.0,2.0;" x1="562.95" x2="814.05" y1="246.0305" y2="246.0305"/><text fill="#000000" font-family="sans-serif" font-size="11.7" font-weight="bold" lengthAdjust="spacing" textLength="6.3" x="573.75" y="241.294">6</text><text fill="#000000" font-family="sans-serif" font-size="11.7" lengthAdjust="spacing" textLength="56.7" x="583.65" y="241.294">candidates</text><polygon fill="#181818" points="307.35,270.5924,298.35,274.1924,307.35,277.7924,303.75,274.1924" style="stroke:#181818;stroke-width:0.9;"/><line style="stroke:#181818;stroke-width:0.9;stroke-dasharray:2.0,2.0;" x1="301.95" x2="553.05" y1="274.1924" y2="274.1924"/><text fill="#000000" font-family="sans-serif" font-size="11.7" font-weight="bold" lengthAdjust="spacing" textLength="6.3" x="312.75" y="269.456">7</text><text fill="#000000" font-family="sans-serif" font-size="11.7" lengthAdjust="spacing" textLength="56.7" x="322.65" y="269.456">candidates</text><polygon fill="#181818" points="76.05,298.7543,67.05,302.3543,76.05,305.9543,72.45,302.3543" style="stroke:#181818;stroke-width:0.9;"/><line style="stroke:#181818;stroke-width:0.9;stroke-dasharray:2.0,2.0;" x1="70.65" x2="292.05" y1="302.3543" y2="302.3543"/><text fill="#000000" font-family="sans-serif" font-size="11.7" font-weight="bold" lengthAdjust="spacing" textLength="6.3" x="81.45" y="297.6179">8</text><text fill="#000000" font-family="sans-serif" font-size="11.7" lengthAdjust="spacing" textLength="190.8" x="91.35" y="297.6179">Show list of candidates to be notified</text><polygon fill="#181818" points="277.65,326.9162,286.65,330.5162,277.65,334.1162,281.25,330.5162" style="stroke:#181818;stroke-width:0.9;"/><line style="stroke:#181818;stroke-width:0.9;" x1="66.15" x2="283.05" y1="330.5162" y2="330.5162"/><text fill="#000000" font-family="sans-serif" font-size="11.7" font-weight="bold" lengthAdjust="spacing" textLength="6.3" x="72.45" y="325.7798">9</text><text fill="#000000" font-family="sans-serif" font-size="11.7" lengthAdjust="spacing" textLength="97.2" x="82.35" y="325.7798">Select a candidate</text><polygon fill="#181818" points="538.65,355.0781,547.65,358.6781,538.65,362.2781,542.25,358.6781" style="stroke:#181818;stroke-width:0.9;"/><line style="stroke:#181818;stroke-width:0.9;" x1="292.95" x2="544.05" y1="358.6781" y2="358.6781"/><text fill="#000000" font-family="sans-serif" font-size="11.7" font-weight="bold" lengthAdjust="spacing" textLength="12.6" x="299.25" y="353.9417">10</text><text fill="#000000" font-family="sans-serif" font-size="11.7" lengthAdjust="spacing" textLength="218.7" x="315.45" y="353.9417">sendEmail(destination, subject, message)</text><polygon fill="#181818" points="799.65,383.24,808.65,386.84,799.65,390.44,803.25,386.84" style="stroke:#181818;stroke-width:0.9;"/><line style="stroke:#181818;stroke-width:0.9;" x1="553.95" x2="805.05" y1="386.84" y2="386.84"/><text fill="#000000" font-family="sans-serif" font-size="11.7" font-weight="bold" lengthAdjust="spacing" textLength="12.6" x="560.25" y="382.1036">11</text><text fill="#000000" font-family="sans-serif" font-size="11.7" lengthAdjust="spacing" textLength="218.7" x="576.45" y="382.1036">sendEmail(destination, subject, message)</text><polygon fill="#181818" points="1071.45,411.402,1080.45,415.002,1071.45,418.602,1075.05,415.002" style="stroke:#181818;stroke-width:0.9;"/><line style="stroke:#181818;stroke-width:0.9;" x1="814.95" x2="1076.85" y1="415.002" y2="415.002"/><text fill="#000000" font-family="sans-serif" font-size="11.7" font-weight="bold" lengthAdjust="spacing" textLength="12.6" x="821.25" y="410.2655">12</text><text fill="#000000" font-family="sans-serif" font-size="11.7" lengthAdjust="spacing" textLength="218.7" x="837.45" y="410.2655">sendEmail(destination, subject, message)</text><polygon fill="#181818" points="829.35,439.5639,820.35,443.1639,829.35,446.7639,825.75,443.1639" style="stroke:#181818;stroke-width:0.9;"/><line style="stroke:#181818;stroke-width:0.9;stroke-dasharray:2.0,2.0;" x1="823.95" x2="1085.85" y1="443.1639" y2="443.1639"/><text fill="#000000" font-family="sans-serif" font-size="11.7" font-weight="bold" lengthAdjust="spacing" textLength="12.6" x="834.75" y="438.4274">13</text><text fill="#000000" font-family="sans-serif" font-size="11.7" lengthAdjust="spacing" textLength="27.9" x="850.95" y="438.4274">email</text><polygon fill="#181818" points="568.35,467.7258,559.35,471.3258,568.35,474.9258,564.75,471.3258" style="stroke:#181818;stroke-width:0.9;"/><line style="stroke:#181818;stroke-width:0.9;stroke-dasharray:2.0,2.0;" x1="562.95" x2="814.05" y1="471.3258" y2="471.3258"/><text fill="#000000" font-family="sans-serif" font-size="11.7" font-weight="bold" lengthAdjust="spacing" textLength="12.6" x="573.75" y="466.5894">14</text><text fill="#000000" font-family="sans-serif" font-size="11.7" lengthAdjust="spacing" textLength="27.9" x="589.95" y="466.5894">email</text><polygon fill="#181818" points="307.35,495.8877,298.35,499.4877,307.35,503.0877,303.75,499.4877" style="stroke:#181818;stroke-width:0.9;"/><line style="stroke:#181818;stroke-width:0.9;stroke-dasharray:2.0,2.0;" x1="301.95" x2="553.05" y1="499.4877" y2="499.4877"/><text fill="#000000" font-family="sans-serif" font-size="11.7" font-weight="bold" lengthAdjust="spacing" textLength="12.6" x="312.75" y="494.7513">15</text><text fill="#000000" font-family="sans-serif" font-size="11.7" lengthAdjust="spacing" textLength="27.9" x="328.95" y="494.7513">email</text><polygon fill="#181818" points="71.55,524.0496,62.55,527.6496,71.55,531.2496,67.95,527.6496" style="stroke:#181818;stroke-width:0.9;"/><line style="stroke:#181818;stroke-width:0.9;stroke-dasharray:2.0,2.0;" x1="66.15" x2="292.05" y1="527.6496" y2="527.6496"/><text fill="#000000" font-family="sans-serif" font-size="11.7" font-weight="bold" lengthAdjust="spacing" textLength="12.6" x="76.95" y="522.9132">16</text><text fill="#000000" font-family="sans-serif" font-size="11.7" lengthAdjust="spacing" textLength="55.8" x="93.15" y="522.9132">Email sent</text><!--SRC=[dLJBRjim4BppAnQ-D0MI7p020uRRGmhqWHhv04fQkrlGf41IAVptNJuaKG_NHNonjDWPxiuC9MjlB6mEdVFcWXQ-IYtFQ3SW7UpFgBrefVLKKokrXytsc_5qkXwaRgYH7jthIspj29wVNrzskplj1wEzDKhb4sfl5GFtRQkebfwClijmHFj6DKQuRDlmoWovokWPV03-nDOuucMlwMIkXn9ZVw1rv3pgYFymnHUZpHZuyFyX-6AgxorgqkU2gYTWy2TpaRHO-pCNLLWg2-NYOruKRTXJTjxexbAXvUVQqnilcIqJyG-UTkpB5dHKC6wS98Jg2XWE674T2S4UCY9OieKJwMRK_E6ZQB3i7Pv3jn3HHiPcFrRW9JvXXjSCuafsCmoHtKbCUwLkpJA21_OCvQbwYv_AqKOP9ZFrg0NpMbCnww3OEc_FCbj-fIDfc2sxCMJ0JYnRg2gIZKoJ8h25uo_p1nJ74yofp80tK67A1c4pytUIdoCgh3t84NqxDmvr4xFxqA3pf6FQ7y5rrM_cU8GBEiVVbtcUxWRgFRnJkTPYbcxL-zYNoKjiGkIxEabTkcu5l6_-nto3g0lmIkeBsR9j2rHEoCAx8YnHX2275tE7ug-evI-D-0i0]--></g></svg>