<?xml version="1.0" encoding="us-ascii" standalone="no"?><svg xmlns="http://www.w3.org/2000/svg" xmlns:xlink="http://www.w3.org/1999/xlink" contentStyleType="text/css" height="1655px" preserveAspectRatio="none" style="width:1986px;height:1655px;background:#FFFFFF;" version="1.1" viewBox="0 0 1986 1655" width="1986px" zoomAndPan="magnify"><defs/><g><rect fill="#FFFFFF" height="1461.1348" style="stroke:#181818;stroke-width:1.0;" width="10" x="63.5" y="93.6211"/><rect fill="#FFFFFF" height="564.9863" style="stroke:#181818;stroke-width:1.0;" width="10" x="521.5" y="116.9121"/><rect fill="#FFFFFF" height="340.9102" style="stroke:#181818;stroke-width:1.0;" width="10" x="521.5" y="713.1895"/><rect fill="#FFFFFF" height="31.291" style="stroke:#181818;stroke-width:1.0;" width="10" x="521.5" y="1085.3906"/><rect fill="#FFFFFF" height="31.291" style="stroke:#181818;stroke-width:1.0;" width="10" x="521.5" y="1147.9727"/><rect fill="#FFFFFF" height="344.2012" style="stroke:#181818;stroke-width:1.0;" width="10" x="521.5" y="1210.5547"/><rect fill="#FFFFFF" height="458.7832" style="stroke:#181818;stroke-width:1.0;" width="10" x="817.5" y="191.8242"/><rect fill="#FFFFFF" height="167.4551" style="stroke:#181818;stroke-width:1.0;" width="10" x="822.5" y="231.1152"/><rect fill="#FFFFFF" height="167.4551" style="stroke:#181818;stroke-width:1.0;" width="10" x="822.5" y="444.8613"/><rect fill="#FFFFFF" height="278.3281" style="stroke:#181818;stroke-width:1.0;" width="10" x="817.5" y="744.4805"/><rect fill="#FFFFFF" height="200.7461" style="stroke:#181818;stroke-width:1.0;" width="10" x="822.5" y="783.7715"/><rect fill="#FFFFFF" height="281.6191" style="stroke:#181818;stroke-width:1.0;" width="10" x="817.5" y="1241.8457"/><rect fill="#FFFFFF" height="93.873" style="stroke:#181818;stroke-width:1.0;" width="10" x="989" y="267.4063"/><rect fill="#FFFFFF" height="93.873" style="stroke:#181818;stroke-width:1.0;" width="10" x="1133.5" y="481.1523"/><rect fill="#FFFFFF" height="120.1641" style="stroke:#181818;stroke-width:1.0;" width="10" x="1283.5" y="820.0625"/><rect fill="#FFFFFF" height="219.0371" style="stroke:#181818;stroke-width:1.0;" width="10" x="1283.5" y="1273.1367"/><rect fill="#FFFFFF" height="31.291" style="stroke:#181818;stroke-width:1.0;" width="10" x="1478.5" y="877.6445"/><rect fill="#FFFFFF" height="31.291" style="stroke:#181818;stroke-width:1.0;" width="10" x="1478.5" y="1304.4277"/><rect fill="#FFFFFF" height="31.291" style="stroke:#181818;stroke-width:1.0;" width="10" x="1478.5" y="1429.5918"/><rect fill="#FFFFFF" height="31.291" style="stroke:#181818;stroke-width:1.0;" width="10" x="1631" y="298.6973"/><rect fill="#FFFFFF" height="31.291" style="stroke:#181818;stroke-width:1.0;" width="10" x="1793.5" y="1367.0098"/><rect fill="#FFFFFF" height="31.291" style="stroke:#181818;stroke-width:1.0;" width="10" x="1929" y="512.4434"/><rect fill="none" height="113.1641" style="stroke:#000000;stroke-width:1.5;" width="848.5" x="714" y="835.0625"/><line style="stroke:#181818;stroke-width:0.5;stroke-dasharray:5.0,5.0;" x1="68" x2="68" y1="83.6211" y2="1572.7559"/><line style="stroke:#181818;stroke-width:0.5;stroke-dasharray:5.0,5.0;" x1="526" x2="526" y1="83.6211" y2="1572.7559"/><line style="stroke:#181818;stroke-width:0.5;stroke-dasharray:5.0,5.0;" x1="822" x2="822" y1="156.7227" y2="1572.7559"/><line style="stroke:#181818;stroke-width:0.5;stroke-dasharray:5.0,5.0;" x1="994" x2="994" y1="83.6211" y2="1572.7559"/><line style="stroke:#181818;stroke-width:0.5;stroke-dasharray:5.0,5.0;" x1="1138" x2="1138" y1="83.6211" y2="1572.7559"/><line style="stroke:#181818;stroke-width:0.5;stroke-dasharray:5.0,5.0;" x1="1288" x2="1288" y1="83.6211" y2="1572.7559"/><line style="stroke:#181818;stroke-width:0.5;stroke-dasharray:5.0,5.0;" x1="1483.5" x2="1483.5" y1="83.6211" y2="1572.7559"/><line style="stroke:#181818;stroke-width:0.5;stroke-dasharray:5.0,5.0;" x1="1635.5" x2="1635.5" y1="83.6211" y2="1572.7559"/><line style="stroke:#181818;stroke-width:0.5;stroke-dasharray:5.0,5.0;" x1="1798.5" x2="1798.5" y1="83.6211" y2="1572.7559"/><line style="stroke:#181818;stroke-width:0.5;stroke-dasharray:5.0,5.0;" x1="1933.5" x2="1933.5" y1="83.6211" y2="1572.7559"/><text fill="#000000" font-family="sans-serif" font-size="14" lengthAdjust="spacing" textLength="121" x="5" y="80.1074">Customer Manager</text><ellipse cx="68.5" cy="13.5" fill="#E2E2F0" rx="8" ry="8" style="stroke:#181818;stroke-width:0.5;"/><path d="M68.5,21.5 L68.5,48.5 M55.5,29.5 L81.5,29.5 M68.5,48.5 L55.5,63.5 M68.5,48.5 L81.5,63.5 " fill="none" style="stroke:#181818;stroke-width:0.5;"/><text fill="#000000" font-family="sans-serif" font-size="14" lengthAdjust="spacing" textLength="121" x="5" y="1586.8633">Customer Manager</text><ellipse cx="68.5" cy="1598.877" fill="#E2E2F0" rx="8" ry="8" style="stroke:#181818;stroke-width:0.5;"/><path d="M68.5,1606.877 L68.5,1633.877 M55.5,1614.877 L81.5,1614.877 M68.5,1633.877 L55.5,1648.877 M68.5,1633.877 L81.5,1648.877 " fill="none" style="stroke:#181818;stroke-width:0.5;"/><rect fill="#E2E2F0" height="32.6211" rx="2.5" ry="2.5" style="stroke:#181818;stroke-width:0.5;" width="147" x="453" y="50"/><text fill="#000000" font-family="sans-serif" font-size="14" lengthAdjust="spacing" textLength="133" x="460" y="72.1074">UpdateJobOpeningUI</text><rect fill="#E2E2F0" height="32.6211" rx="2.5" ry="2.5" style="stroke:#181818;stroke-width:0.5;" width="147" x="453" y="1571.7559"/><text fill="#000000" font-family="sans-serif" font-size="14" lengthAdjust="spacing" textLength="133" x="460" y="1593.8633">UpdateJobOpeningUI</text><rect fill="#E2E2F0" height="32.6211" rx="2.5" ry="2.5" style="stroke:#181818;stroke-width:0.5;" width="197" x="724" y="1571.7559"/><text fill="#000000" font-family="sans-serif" font-size="14" lengthAdjust="spacing" textLength="183" x="731" y="1593.8633">UpdateJobOpeningController</text><rect fill="#E2E2F0" height="32.6211" rx="2.5" ry="2.5" style="stroke:#181818;stroke-width:0.5;" width="126" x="931" y="50"/><text fill="#000000" font-family="sans-serif" font-size="14" lengthAdjust="spacing" textLength="112" x="938" y="72.1074">ClientUserService</text><rect fill="#E2E2F0" height="32.6211" rx="2.5" ry="2.5" style="stroke:#181818;stroke-width:0.5;" width="126" x="931" y="1571.7559"/><text fill="#000000" font-family="sans-serif" font-size="14" lengthAdjust="spacing" textLength="112" x="938" y="1593.8633">ClientUserService</text><rect fill="#E2E2F0" height="32.6211" rx="2.5" ry="2.5" style="stroke:#181818;stroke-width:0.5;" width="143" x="1067" y="50"/><text fill="#000000" font-family="sans-serif" font-size="14" lengthAdjust="spacing" textLength="129" x="1074" y="72.1074">AuthorizationService</text><rect fill="#E2E2F0" height="32.6211" rx="2.5" ry="2.5" style="stroke:#181818;stroke-width:0.5;" width="143" x="1067" y="1571.7559"/><text fill="#000000" font-family="sans-serif" font-size="14" lengthAdjust="spacing" textLength="129" x="1074" y="1593.8633">AuthorizationService</text><rect fill="#E2E2F0" height="32.6211" rx="2.5" ry="2.5" style="stroke:#181818;stroke-width:0.5;" width="137" x="1220" y="50"/><text fill="#000000" font-family="sans-serif" font-size="14" lengthAdjust="spacing" textLength="123" x="1227" y="72.1074">JobOpeningService</text><rect fill="#E2E2F0" height="32.6211" rx="2.5" ry="2.5" style="stroke:#181818;stroke-width:0.5;" width="137" x="1220" y="1571.7559"/><text fill="#000000" font-family="sans-serif" font-size="14" lengthAdjust="spacing" textLength="123" x="1227" y="1593.8633">JobOpeningService</text><rect fill="#E2E2F0" height="32.6211" rx="2.5" ry="2.5" style="stroke:#181818;stroke-width:0.5;" width="138" x="1414.5" y="50"/><text fill="#000000" font-family="sans-serif" font-size="14" lengthAdjust="spacing" textLength="124" x="1421.5" y="72.1074">JobOpeningMapper</text><rect fill="#E2E2F0" height="32.6211" rx="2.5" ry="2.5" style="stroke:#181818;stroke-width:0.5;" width="138" x="1414.5" y="1571.7559"/><text fill="#000000" font-family="sans-serif" font-size="14" lengthAdjust="spacing" textLength="124" x="1421.5" y="1593.8633">JobOpeningMapper</text><rect fill="#E2E2F0" height="32.6211" rx="2.5" ry="2.5" style="stroke:#181818;stroke-width:0.5;" width="147" x="1562.5" y="50"/><text fill="#000000" font-family="sans-serif" font-size="14" lengthAdjust="spacing" textLength="133" x="1569.5" y="72.1074">ClientUserRepository</text><rect fill="#E2E2F0" height="32.6211" rx="2.5" ry="2.5" style="stroke:#181818;stroke-width:0.5;" width="147" x="1562.5" y="1571.7559"/><text fill="#000000" font-family="sans-serif" font-size="14" lengthAdjust="spacing" textLength="133" x="1569.5" y="1593.8633">ClientUserRepository</text><rect fill="#E2E2F0" height="32.6211" rx="2.5" ry="2.5" style="stroke:#181818;stroke-width:0.5;" width="158" x="1719.5" y="50"/><text fill="#000000" font-family="sans-serif" font-size="14" lengthAdjust="spacing" textLength="144" x="1726.5" y="72.1074">JobOpeningRepository</text><rect fill="#E2E2F0" height="32.6211" rx="2.5" ry="2.5" style="stroke:#181818;stroke-width:0.5;" width="158" x="1719.5" y="1571.7559"/><text fill="#000000" font-family="sans-serif" font-size="14" lengthAdjust="spacing" textLength="144" x="1726.5" y="1593.8633">JobOpeningRepository</text><rect fill="#E2E2F0" height="32.6211" rx="2.5" ry="2.5" style="stroke:#181818;stroke-width:0.5;" width="93" x="1887.5" y="50"/><text fill="#000000" font-family="sans-serif" font-size="14" lengthAdjust="spacing" textLength="79" x="1894.5" y="72.1074">UserSession</text><rect fill="#E2E2F0" height="32.6211" rx="2.5" ry="2.5" style="stroke:#181818;stroke-width:0.5;" width="93" x="1887.5" y="1571.7559"/><text fill="#000000" font-family="sans-serif" font-size="14" lengthAdjust="spacing" textLength="79" x="1894.5" y="1593.8633">UserSession</text><rect fill="#FFFFFF" height="1461.1348" style="stroke:#181818;stroke-width:1.0;" width="10" x="63.5" y="93.6211"/><rect fill="#FFFFFF" height="564.9863" style="stroke:#181818;stroke-width:1.0;" width="10" x="521.5" y="116.9121"/><rect fill="#FFFFFF" height="340.9102" style="stroke:#181818;stroke-width:1.0;" width="10" x="521.5" y="713.1895"/><rect fill="#FFFFFF" height="31.291" style="stroke:#181818;stroke-width:1.0;" width="10" x="521.5" y="1085.3906"/><rect fill="#FFFFFF" height="31.291" style="stroke:#181818;stroke-width:1.0;" width="10" x="521.5" y="1147.9727"/><rect fill="#FFFFFF" height="344.2012" style="stroke:#181818;stroke-width:1.0;" width="10" x="521.5" y="1210.5547"/><rect fill="#FFFFFF" height="458.7832" style="stroke:#181818;stroke-width:1.0;" width="10" x="817.5" y="191.8242"/><rect fill="#FFFFFF" height="167.4551" style="stroke:#181818;stroke-width:1.0;" width="10" x="822.5" y="231.1152"/><rect fill="#FFFFFF" height="167.4551" style="stroke:#181818;stroke-width:1.0;" width="10" x="822.5" y="444.8613"/><rect fill="#FFFFFF" height="278.3281" style="stroke:#181818;stroke-width:1.0;" width="10" x="817.5" y="744.4805"/><rect fill="#FFFFFF" height="200.7461" style="stroke:#181818;stroke-width:1.0;" width="10" x="822.5" y="783.7715"/><rect fill="#FFFFFF" height="281.6191" style="stroke:#181818;stroke-width:1.0;" width="10" x="817.5" y="1241.8457"/><rect fill="#FFFFFF" height="93.873" style="stroke:#181818;stroke-width:1.0;" width="10" x="989" y="267.4063"/><rect fill="#FFFFFF" height="93.873" style="stroke:#181818;stroke-width:1.0;" width="10" x="1133.5" y="481.1523"/><rect fill="#FFFFFF" height="120.1641" style="stroke:#181818;stroke-width:1.0;" width="10" x="1283.5" y="820.0625"/><rect fill="#FFFFFF" height="219.0371" style="stroke:#181818;stroke-width:1.0;" width="10" x="1283.5" y="1273.1367"/><rect fill="#FFFFFF" height="31.291" style="stroke:#181818;stroke-width:1.0;" width="10" x="1478.5" y="877.6445"/><rect fill="#FFFFFF" height="31.291" style="stroke:#181818;stroke-width:1.0;" width="10" x="1478.5" y="1304.4277"/><rect fill="#FFFFFF" height="31.291" style="stroke:#181818;stroke-width:1.0;" width="10" x="1478.5" y="1429.5918"/><rect fill="#FFFFFF" height="31.291" style="stroke:#181818;stroke-width:1.0;" width="10" x="1631" y="298.6973"/><rect fill="#FFFFFF" height="31.291" style="stroke:#181818;stroke-width:1.0;" width="10" x="1793.5" y="1367.0098"/><rect fill="#FFFFFF" height="31.291" style="stroke:#181818;stroke-width:1.0;" width="10" x="1929" y="512.4434"/><polygon fill="#181818" points="509.5,112.9121,519.5,116.9121,509.5,120.9121,513.5,116.9121" style="stroke:#181818;stroke-width:1.0;"/><line style="stroke:#181818;stroke-width:1.0;" x1="73.5" x2="515.5" y1="116.9121" y2="116.9121"/><text fill="#000000" font-family="sans-serif" font-size="13" font-weight="bold" lengthAdjust="spacing" textLength="7" x="80.5" y="111.6494">1</text><text fill="#000000" font-family="sans-serif" font-size="13" lengthAdjust="spacing" textLength="169" x="91.5" y="111.6494">Asks to update a job opening</text><polygon fill="#181818" points="712,144.2031,722,148.2031,712,152.2031,716,148.2031" style="stroke:#181818;stroke-width:1.0;"/><line style="stroke:#181818;stroke-width:1.0;" x1="531.5" x2="718" y1="148.2031" y2="148.2031"/><text fill="#000000" font-family="sans-serif" font-size="13" font-weight="bold" lengthAdjust="spacing" textLength="7" x="538.5" y="142.9404">2</text><text fill="#000000" font-family="sans-serif" font-size="13" lengthAdjust="spacing" textLength="36" x="549.5" y="142.9404">create</text><rect fill="#E2E2F0" height="32.6211" rx="2.5" ry="2.5" style="stroke:#181818;stroke-width:0.5;" width="197" x="724" y="124.9121"/><text fill="#000000" font-family="sans-serif" font-size="14" lengthAdjust="spacing" textLength="183" x="731" y="147.0195">UpdateJobOpeningController</text><polygon fill="#181818" points="805.5,187.8242,815.5,191.8242,805.5,195.8242,809.5,191.8242" style="stroke:#181818;stroke-width:1.0;"/><line style="stroke:#181818;stroke-width:1.0;" x1="531.5" x2="811.5" y1="191.8242" y2="191.8242"/><text fill="#000000" font-family="sans-serif" font-size="13" font-weight="bold" lengthAdjust="spacing" textLength="7" x="538.5" y="186.5615">3</text><text fill="#000000" font-family="sans-serif" font-size="13" lengthAdjust="spacing" textLength="78" x="549.5" y="186.5615">showClients()</text><line style="stroke:#181818;stroke-width:1.0;" x1="827.5" x2="874.5" y1="218.1152" y2="218.1152"/><line style="stroke:#181818;stroke-width:1.0;" x1="874.5" x2="874.5" y1="218.1152" y2="231.1152"/><line style="stroke:#181818;stroke-width:1.0;" x1="833.5" x2="874.5" y1="231.1152" y2="231.1152"/><polygon fill="#181818" points="843.5,227.1152,833.5,231.1152,843.5,235.1152,839.5,231.1152" style="stroke:#181818;stroke-width:1.0;"/><text fill="#000000" font-family="sans-serif" font-size="13" font-weight="bold" lengthAdjust="spacing" textLength="7" x="839.5" y="212.8525">4</text><text fill="#000000" font-family="sans-serif" font-size="13" lengthAdjust="spacing" textLength="61" x="850.5" y="212.8525">allClients()</text><polygon fill="#181818" points="977,263.4063,987,267.4063,977,271.4063,981,267.4063" style="stroke:#181818;stroke-width:1.0;"/><line style="stroke:#181818;stroke-width:1.0;" x1="832.5" x2="983" y1="267.4063" y2="267.4063"/><text fill="#000000" font-family="sans-serif" font-size="13" font-weight="bold" lengthAdjust="spacing" textLength="7" x="839.5" y="262.1436">5</text><text fill="#000000" font-family="sans-serif" font-size="13" lengthAdjust="spacing" textLength="55" x="850.5" y="262.1436">allUsers()</text><polygon fill="#181818" points="1619,294.6973,1629,298.6973,1619,302.6973,1623,298.6973" style="stroke:#181818;stroke-width:1.0;"/><line style="stroke:#181818;stroke-width:1.0;" x1="999" x2="1625" y1="298.6973" y2="298.6973"/><text fill="#000000" font-family="sans-serif" font-size="13" font-weight="bold" lengthAdjust="spacing" textLength="7" x="1006" y="293.4346">6</text><text fill="#000000" font-family="sans-serif" font-size="13" lengthAdjust="spacing" textLength="78" x="1017" y="293.4346">findAllActive()</text><polygon fill="#181818" points="1010,325.9883,1000,329.9883,1010,333.9883,1006,329.9883" style="stroke:#181818;stroke-width:1.0;"/><line style="stroke:#181818;stroke-width:1.0;stroke-dasharray:2.0,2.0;" x1="1004" x2="1635" y1="329.9883" y2="329.9883"/><text fill="#000000" font-family="sans-serif" font-size="13" font-weight="bold" lengthAdjust="spacing" textLength="7" x="1016" y="324.7256">7</text><text fill="#000000" font-family="sans-serif" font-size="13" lengthAdjust="spacing" textLength="55" x="1027" y="324.7256">all clients</text><polygon fill="#181818" points="843.5,357.2793,833.5,361.2793,843.5,365.2793,839.5,361.2793" style="stroke:#181818;stroke-width:1.0;"/><line style="stroke:#181818;stroke-width:1.0;stroke-dasharray:2.0,2.0;" x1="837.5" x2="993" y1="361.2793" y2="361.2793"/><text fill="#000000" font-family="sans-serif" font-size="13" font-weight="bold" lengthAdjust="spacing" textLength="7" x="849.5" y="356.0166">8</text><text fill="#000000" font-family="sans-serif" font-size="13" lengthAdjust="spacing" textLength="55" x="860.5" y="356.0166">all clients</text><line style="stroke:#181818;stroke-width:1.0;stroke-dasharray:2.0,2.0;" x1="832.5" x2="874.5" y1="397.5703" y2="397.5703"/><line style="stroke:#181818;stroke-width:1.0;stroke-dasharray:2.0,2.0;" x1="874.5" x2="874.5" y1="397.5703" y2="410.5703"/><line style="stroke:#181818;stroke-width:1.0;stroke-dasharray:2.0,2.0;" x1="827.5" x2="874.5" y1="410.5703" y2="410.5703"/><polygon fill="#181818" points="837.5,406.5703,827.5,410.5703,837.5,414.5703,833.5,410.5703" style="stroke:#181818;stroke-width:1.0;"/><text fill="#000000" font-family="sans-serif" font-size="13" font-weight="bold" lengthAdjust="spacing" textLength="7" x="839.5" y="392.3076">9</text><text fill="#000000" font-family="sans-serif" font-size="13" lengthAdjust="spacing" textLength="55" x="850.5" y="392.3076">all clients</text><line style="stroke:#181818;stroke-width:1.0;" x1="827.5" x2="874.5" y1="431.8613" y2="431.8613"/><line style="stroke:#181818;stroke-width:1.0;" x1="874.5" x2="874.5" y1="431.8613" y2="444.8613"/><line style="stroke:#181818;stroke-width:1.0;" x1="833.5" x2="874.5" y1="444.8613" y2="444.8613"/><polygon fill="#181818" points="843.5,440.8613,833.5,444.8613,843.5,448.8613,839.5,444.8613" style="stroke:#181818;stroke-width:1.0;"/><text fill="#000000" font-family="sans-serif" font-size="13" font-weight="bold" lengthAdjust="spacing" textLength="14" x="839.5" y="426.5986">10</text><text fill="#000000" font-family="sans-serif" font-size="13" lengthAdjust="spacing" textLength="105" x="857.5" y="426.5986">getLoggedInUser()</text><polygon fill="#181818" points="1121.5,477.1523,1131.5,481.1523,1121.5,485.1523,1125.5,481.1523" style="stroke:#181818;stroke-width:1.0;"/><line style="stroke:#181818;stroke-width:1.0;" x1="832.5" x2="1127.5" y1="481.1523" y2="481.1523"/><text fill="#000000" font-family="sans-serif" font-size="13" font-weight="bold" lengthAdjust="spacing" textLength="14" x="839.5" y="475.8896">11</text><text fill="#000000" font-family="sans-serif" font-size="13" lengthAdjust="spacing" textLength="53" x="857.5" y="475.8896">session()</text><polygon fill="#181818" points="1917,508.4434,1927,512.4434,1917,516.4434,1921,512.4434" style="stroke:#181818;stroke-width:1.0;"/><line style="stroke:#181818;stroke-width:1.0;" x1="1143.5" x2="1923" y1="512.4434" y2="512.4434"/><text fill="#000000" font-family="sans-serif" font-size="13" font-weight="bold" lengthAdjust="spacing" textLength="14" x="1150.5" y="507.1807">12</text><text fill="#000000" font-family="sans-serif" font-size="13" lengthAdjust="spacing" textLength="113" x="1168.5" y="507.1807">authenticatedUser()</text><polygon fill="#181818" points="1154.5,539.7344,1144.5,543.7344,1154.5,547.7344,1150.5,543.7344" style="stroke:#181818;stroke-width:1.0;"/><line style="stroke:#181818;stroke-width:1.0;stroke-dasharray:2.0,2.0;" x1="1148.5" x2="1933" y1="543.7344" y2="543.7344"/><text fill="#000000" font-family="sans-serif" font-size="13" font-weight="bold" lengthAdjust="spacing" textLength="14" x="1160.5" y="538.4717">13</text><text fill="#000000" font-family="sans-serif" font-size="13" lengthAdjust="spacing" textLength="125" x="1178.5" y="538.4717">returns logged in user</text><polygon fill="#181818" points="843.5,571.0254,833.5,575.0254,843.5,579.0254,839.5,575.0254" style="stroke:#181818;stroke-width:1.0;"/><line style="stroke:#181818;stroke-width:1.0;stroke-dasharray:2.0,2.0;" x1="837.5" x2="1137.5" y1="575.0254" y2="575.0254"/><text fill="#000000" font-family="sans-serif" font-size="13" font-weight="bold" lengthAdjust="spacing" textLength="14" x="849.5" y="569.7627">14</text><text fill="#000000" font-family="sans-serif" font-size="13" lengthAdjust="spacing" textLength="125" x="867.5" y="569.7627">returns logged in user</text><line style="stroke:#181818;stroke-width:1.0;stroke-dasharray:2.0,2.0;" x1="832.5" x2="874.5" y1="611.3164" y2="611.3164"/><line style="stroke:#181818;stroke-width:1.0;stroke-dasharray:2.0,2.0;" x1="874.5" x2="874.5" y1="611.3164" y2="624.3164"/><line style="stroke:#181818;stroke-width:1.0;stroke-dasharray:2.0,2.0;" x1="827.5" x2="874.5" y1="624.3164" y2="624.3164"/><polygon fill="#181818" points="837.5,620.3164,827.5,624.3164,837.5,628.3164,833.5,624.3164" style="stroke:#181818;stroke-width:1.0;"/><text fill="#000000" font-family="sans-serif" font-size="13" font-weight="bold" lengthAdjust="spacing" textLength="14" x="839.5" y="606.0537">15</text><text fill="#000000" font-family="sans-serif" font-size="13" lengthAdjust="spacing" textLength="81" x="857.5" y="606.0537">logged in user</text><polygon fill="#181818" points="542.5,646.6074,532.5,650.6074,542.5,654.6074,538.5,650.6074" style="stroke:#181818;stroke-width:1.0;"/><line style="stroke:#181818;stroke-width:1.0;stroke-dasharray:2.0,2.0;" x1="536.5" x2="821.5" y1="650.6074" y2="650.6074"/><text fill="#000000" font-family="sans-serif" font-size="13" font-weight="bold" lengthAdjust="spacing" textLength="14" x="548.5" y="645.3447">16</text><text fill="#000000" font-family="sans-serif" font-size="13" lengthAdjust="spacing" textLength="244" x="566.5" y="645.3447">customers assigned to customer manager</text><polygon fill="#181818" points="84.5,677.8984,74.5,681.8984,84.5,685.8984,80.5,681.8984" style="stroke:#181818;stroke-width:1.0;"/><line style="stroke:#181818;stroke-width:1.0;stroke-dasharray:2.0,2.0;" x1="78.5" x2="525.5" y1="681.8984" y2="681.8984"/><text fill="#000000" font-family="sans-serif" font-size="13" font-weight="bold" lengthAdjust="spacing" textLength="14" x="90.5" y="676.6357">17</text><text fill="#000000" font-family="sans-serif" font-size="13" lengthAdjust="spacing" textLength="406" x="108.5" y="676.6357">Requests to select customer assigned to logged in customer manager</text><polygon fill="#181818" points="509.5,709.1895,519.5,713.1895,509.5,717.1895,513.5,713.1895" style="stroke:#181818;stroke-width:1.0;"/><line style="stroke:#181818;stroke-width:1.0;" x1="73.5" x2="515.5" y1="713.1895" y2="713.1895"/><text fill="#000000" font-family="sans-serif" font-size="13" font-weight="bold" lengthAdjust="spacing" textLength="14" x="80.5" y="707.9268">18</text><text fill="#000000" font-family="sans-serif" font-size="13" lengthAdjust="spacing" textLength="153" x="98.5" y="707.9268">chooses desired customer</text><polygon fill="#181818" points="805.5,740.4805,815.5,744.4805,805.5,748.4805,809.5,744.4805" style="stroke:#181818;stroke-width:1.0;"/><line style="stroke:#181818;stroke-width:1.0;" x1="531.5" x2="811.5" y1="744.4805" y2="744.4805"/><text fill="#000000" font-family="sans-serif" font-size="13" font-weight="bold" lengthAdjust="spacing" textLength="14" x="538.5" y="739.2178">19</text><text fill="#000000" font-family="sans-serif" font-size="13" lengthAdjust="spacing" textLength="171" x="556.5" y="739.2178">showJobOpenings(clientUser)</text><line style="stroke:#181818;stroke-width:1.0;" x1="827.5" x2="874.5" y1="770.7715" y2="770.7715"/><line style="stroke:#181818;stroke-width:1.0;" x1="874.5" x2="874.5" y1="770.7715" y2="783.7715"/><line style="stroke:#181818;stroke-width:1.0;" x1="833.5" x2="874.5" y1="783.7715" y2="783.7715"/><polygon fill="#181818" points="843.5,779.7715,833.5,783.7715,843.5,787.7715,839.5,783.7715" style="stroke:#181818;stroke-width:1.0;"/><text fill="#000000" font-family="sans-serif" font-size="13" font-weight="bold" lengthAdjust="spacing" textLength="14" x="839.5" y="765.5088">20</text><text fill="#000000" font-family="sans-serif" font-size="13" lengthAdjust="spacing" textLength="48" x="857.5" y="765.5088">allJobs()</text><polygon fill="#181818" points="1271.5,816.0625,1281.5,820.0625,1271.5,824.0625,1275.5,820.0625" style="stroke:#181818;stroke-width:1.0;"/><line style="stroke:#181818;stroke-width:1.0;" x1="832.5" x2="1277.5" y1="820.0625" y2="820.0625"/><text fill="#000000" font-family="sans-serif" font-size="13" font-weight="bold" lengthAdjust="spacing" textLength="14" x="839.5" y="814.7998">21</text><text fill="#000000" font-family="sans-serif" font-size="13" lengthAdjust="spacing" textLength="48" x="857.5" y="814.7998">allJobs()</text><path d="M714,835.0625 L787,835.0625 L787,844.3535 L777,854.3535 L714,854.3535 L714,835.0625 " fill="#EEEEEE" style="stroke:#000000;stroke-width:1.5;"/><rect fill="none" height="113.1641" style="stroke:#000000;stroke-width:1.5;" width="848.5" x="714" y="835.0625"/><text fill="#000000" font-family="sans-serif" font-size="13" font-weight="bold" lengthAdjust="spacing" textLength="28" x="729" y="850.0908">loop</text><text fill="#000000" font-family="sans-serif" font-size="11" font-weight="bold" lengthAdjust="spacing" textLength="94" x="802" y="848.9326">[through all jobs]</text><polygon fill="#181818" points="1466.5,873.6445,1476.5,877.6445,1466.5,881.6445,1470.5,877.6445" style="stroke:#181818;stroke-width:1.0;"/><line style="stroke:#181818;stroke-width:1.0;" x1="1293.5" x2="1472.5" y1="877.6445" y2="877.6445"/><text fill="#000000" font-family="sans-serif" font-size="13" font-weight="bold" lengthAdjust="spacing" textLength="14" x="1300.5" y="872.3818">22</text><text fill="#000000" font-family="sans-serif" font-size="13" lengthAdjust="spacing" textLength="56" x="1318.5" y="872.3818">toDto(job)</text><polygon fill="#181818" points="1304.5,904.9355,1294.5,908.9355,1304.5,912.9355,1300.5,908.9355" style="stroke:#181818;stroke-width:1.0;"/><line style="stroke:#181818;stroke-width:1.0;stroke-dasharray:2.0,2.0;" x1="1298.5" x2="1482.5" y1="908.9355" y2="908.9355"/><text fill="#000000" font-family="sans-serif" font-size="13" font-weight="bold" lengthAdjust="spacing" textLength="14" x="1310.5" y="903.6729">23</text><text fill="#000000" font-family="sans-serif" font-size="13" lengthAdjust="spacing" textLength="39" x="1328.5" y="903.6729">job dto</text><polygon fill="#181818" points="843.5,936.2266,833.5,940.2266,843.5,944.2266,839.5,940.2266" style="stroke:#181818;stroke-width:1.0;"/><line style="stroke:#181818;stroke-width:1.0;stroke-dasharray:2.0,2.0;" x1="837.5" x2="1287.5" y1="940.2266" y2="940.2266"/><text fill="#000000" font-family="sans-serif" font-size="13" font-weight="bold" lengthAdjust="spacing" textLength="14" x="849.5" y="934.9639">24</text><text fill="#000000" font-family="sans-serif" font-size="13" lengthAdjust="spacing" textLength="41" x="867.5" y="934.9639">all jobs</text><line style="stroke:#181818;stroke-width:1.0;stroke-dasharray:2.0,2.0;" x1="832.5" x2="874.5" y1="983.5176" y2="983.5176"/><line style="stroke:#181818;stroke-width:1.0;stroke-dasharray:2.0,2.0;" x1="874.5" x2="874.5" y1="983.5176" y2="996.5176"/><line style="stroke:#181818;stroke-width:1.0;stroke-dasharray:2.0,2.0;" x1="827.5" x2="874.5" y1="996.5176" y2="996.5176"/><polygon fill="#181818" points="837.5,992.5176,827.5,996.5176,837.5,1000.5176,833.5,996.5176" style="stroke:#181818;stroke-width:1.0;"/><text fill="#000000" font-family="sans-serif" font-size="13" font-weight="bold" lengthAdjust="spacing" textLength="14" x="839.5" y="978.2549">25</text><text fill="#000000" font-family="sans-serif" font-size="13" lengthAdjust="spacing" textLength="41" x="857.5" y="978.2549">all jobs</text><polygon fill="#181818" points="542.5,1018.8086,532.5,1022.8086,542.5,1026.8086,538.5,1022.8086" style="stroke:#181818;stroke-width:1.0;"/><line style="stroke:#181818;stroke-width:1.0;stroke-dasharray:2.0,2.0;" x1="536.5" x2="821.5" y1="1022.8086" y2="1022.8086"/><text fill="#000000" font-family="sans-serif" font-size="13" font-weight="bold" lengthAdjust="spacing" textLength="14" x="548.5" y="1017.5459">26</text><text fill="#000000" font-family="sans-serif" font-size="13" lengthAdjust="spacing" textLength="41" x="566.5" y="1017.5459">all jobs</text><polygon fill="#181818" points="84.5,1050.0996,74.5,1054.0996,84.5,1058.0996,80.5,1054.0996" style="stroke:#181818;stroke-width:1.0;"/><line style="stroke:#181818;stroke-width:1.0;stroke-dasharray:2.0,2.0;" x1="78.5" x2="525.5" y1="1054.0996" y2="1054.0996"/><text fill="#000000" font-family="sans-serif" font-size="13" font-weight="bold" lengthAdjust="spacing" textLength="14" x="90.5" y="1048.8369">27</text><text fill="#000000" font-family="sans-serif" font-size="13" lengthAdjust="spacing" textLength="361" x="108.5" y="1048.8369">requests to select job opening to update for selected customer</text><polygon fill="#181818" points="509.5,1081.3906,519.5,1085.3906,509.5,1089.3906,513.5,1085.3906" style="stroke:#181818;stroke-width:1.0;"/><line style="stroke:#181818;stroke-width:1.0;" x1="73.5" x2="515.5" y1="1085.3906" y2="1085.3906"/><text fill="#000000" font-family="sans-serif" font-size="13" font-weight="bold" lengthAdjust="spacing" textLength="14" x="80.5" y="1080.1279">28</text><text fill="#000000" font-family="sans-serif" font-size="13" lengthAdjust="spacing" textLength="165" x="98.5" y="1080.1279">chooses desired job opening</text><polygon fill="#181818" points="84.5,1112.6816,74.5,1116.6816,84.5,1120.6816,80.5,1116.6816" style="stroke:#181818;stroke-width:1.0;"/><line style="stroke:#181818;stroke-width:1.0;stroke-dasharray:2.0,2.0;" x1="78.5" x2="525.5" y1="1116.6816" y2="1116.6816"/><text fill="#000000" font-family="sans-serif" font-size="13" font-weight="bold" lengthAdjust="spacing" textLength="14" x="90.5" y="1111.4189">29</text><text fill="#000000" font-family="sans-serif" font-size="13" lengthAdjust="spacing" textLength="334" x="108.5" y="1111.4189">requests to select what to update for selected job opening</text><polygon fill="#181818" points="509.5,1143.9727,519.5,1147.9727,509.5,1151.9727,513.5,1147.9727" style="stroke:#181818;stroke-width:1.0;"/><line style="stroke:#181818;stroke-width:1.0;" x1="73.5" x2="515.5" y1="1147.9727" y2="1147.9727"/><text fill="#000000" font-family="sans-serif" font-size="13" font-weight="bold" lengthAdjust="spacing" textLength="14" x="80.5" y="1142.71">30</text><text fill="#000000" font-family="sans-serif" font-size="13" lengthAdjust="spacing" textLength="194" x="98.5" y="1142.71">chooses parameter to be updated</text><polygon fill="#181818" points="84.5,1175.2637,74.5,1179.2637,84.5,1183.2637,80.5,1179.2637" style="stroke:#181818;stroke-width:1.0;"/><line style="stroke:#181818;stroke-width:1.0;stroke-dasharray:2.0,2.0;" x1="78.5" x2="525.5" y1="1179.2637" y2="1179.2637"/><text fill="#000000" font-family="sans-serif" font-size="13" font-weight="bold" lengthAdjust="spacing" textLength="14" x="90.5" y="1174.001">31</text><text fill="#000000" font-family="sans-serif" font-size="13" lengthAdjust="spacing" textLength="290" x="108.5" y="1174.001">requests to select new value for chosen parameter</text><polygon fill="#181818" points="509.5,1206.5547,519.5,1210.5547,509.5,1214.5547,513.5,1210.5547" style="stroke:#181818;stroke-width:1.0;"/><line style="stroke:#181818;stroke-width:1.0;" x1="73.5" x2="515.5" y1="1210.5547" y2="1210.5547"/><text fill="#000000" font-family="sans-serif" font-size="13" font-weight="bold" lengthAdjust="spacing" textLength="14" x="80.5" y="1205.292">32</text><text fill="#000000" font-family="sans-serif" font-size="13" lengthAdjust="spacing" textLength="109" x="98.5" y="1205.292">chooses new value</text><polygon fill="#181818" points="805.5,1237.8457,815.5,1241.8457,805.5,1245.8457,809.5,1241.8457" style="stroke:#181818;stroke-width:1.0;"/><line style="stroke:#181818;stroke-width:1.0;" x1="531.5" x2="811.5" y1="1241.8457" y2="1241.8457"/><text fill="#000000" font-family="sans-serif" font-size="13" font-weight="bold" lengthAdjust="spacing" textLength="14" x="538.5" y="1236.583">33</text><text fill="#000000" font-family="sans-serif" font-size="13" lengthAdjust="spacing" textLength="168" x="556.5" y="1236.583">requirements(jobOpeningDto)</text><polygon fill="#181818" points="1271.5,1269.1367,1281.5,1273.1367,1271.5,1277.1367,1275.5,1273.1367" style="stroke:#181818;stroke-width:1.0;"/><line style="stroke:#181818;stroke-width:1.0;" x1="827.5" x2="1277.5" y1="1273.1367" y2="1273.1367"/><text fill="#000000" font-family="sans-serif" font-size="13" font-weight="bold" lengthAdjust="spacing" textLength="14" x="834.5" y="1267.874">34</text><text fill="#000000" font-family="sans-serif" font-size="13" lengthAdjust="spacing" textLength="295" x="852.5" y="1267.874">updateRequirements(jobOpeningDto, requirements)</text><polygon fill="#181818" points="1466.5,1300.4277,1476.5,1304.4277,1466.5,1308.4277,1470.5,1304.4277" style="stroke:#181818;stroke-width:1.0;"/><line style="stroke:#181818;stroke-width:1.0;" x1="1293.5" x2="1472.5" y1="1304.4277" y2="1304.4277"/><text fill="#000000" font-family="sans-serif" font-size="13" font-weight="bold" lengthAdjust="spacing" textLength="14" x="1300.5" y="1299.165">35</text><text fill="#000000" font-family="sans-serif" font-size="13" lengthAdjust="spacing" textLength="148" x="1318.5" y="1299.165">toDomain(jobOpeningDto)</text><polygon fill="#181818" points="1304.5,1331.7188,1294.5,1335.7188,1304.5,1339.7188,1300.5,1335.7188" style="stroke:#181818;stroke-width:1.0;"/><line style="stroke:#181818;stroke-width:1.0;stroke-dasharray:2.0,2.0;" x1="1298.5" x2="1482.5" y1="1335.7188" y2="1335.7188"/><text fill="#000000" font-family="sans-serif" font-size="13" font-weight="bold" lengthAdjust="spacing" textLength="14" x="1310.5" y="1330.4561">36</text><text fill="#000000" font-family="sans-serif" font-size="13" lengthAdjust="spacing" textLength="65" x="1328.5" y="1330.4561">jobOpening</text><polygon fill="#181818" points="1781.5,1363.0098,1791.5,1367.0098,1781.5,1371.0098,1785.5,1367.0098" style="stroke:#181818;stroke-width:1.0;"/><line style="stroke:#181818;stroke-width:1.0;" x1="1293.5" x2="1787.5" y1="1367.0098" y2="1367.0098"/><text fill="#000000" font-family="sans-serif" font-size="13" font-weight="bold" lengthAdjust="spacing" textLength="14" x="1300.5" y="1361.7471">37</text><text fill="#000000" font-family="sans-serif" font-size="13" lengthAdjust="spacing" textLength="99" x="1318.5" y="1361.7471">save(jobOpening)</text><polygon fill="#181818" points="1304.5,1394.3008,1294.5,1398.3008,1304.5,1402.3008,1300.5,1398.3008" style="stroke:#181818;stroke-width:1.0;"/><line style="stroke:#181818;stroke-width:1.0;stroke-dasharray:2.0,2.0;" x1="1298.5" x2="1797.5" y1="1398.3008" y2="1398.3008"/><text fill="#000000" font-family="sans-serif" font-size="13" font-weight="bold" lengthAdjust="spacing" textLength="14" x="1310.5" y="1393.0381">38</text><text fill="#000000" font-family="sans-serif" font-size="13" lengthAdjust="spacing" textLength="102" x="1328.5" y="1393.0381">saved jobOpening</text><polygon fill="#181818" points="1466.5,1425.5918,1476.5,1429.5918,1466.5,1433.5918,1470.5,1429.5918" style="stroke:#181818;stroke-width:1.0;"/><line style="stroke:#181818;stroke-width:1.0;" x1="1293.5" x2="1472.5" y1="1429.5918" y2="1429.5918"/><text fill="#000000" font-family="sans-serif" font-size="13" font-weight="bold" lengthAdjust="spacing" textLength="14" x="1300.5" y="1424.3291">39</text><text fill="#000000" font-family="sans-serif" font-size="13" lengthAdjust="spacing" textLength="104" x="1318.5" y="1424.3291">toDto(jobOpening)</text><polygon fill="#181818" points="1304.5,1456.8828,1294.5,1460.8828,1304.5,1464.8828,1300.5,1460.8828" style="stroke:#181818;stroke-width:1.0;"/><line style="stroke:#181818;stroke-width:1.0;stroke-dasharray:2.0,2.0;" x1="1298.5" x2="1482.5" y1="1460.8828" y2="1460.8828"/><text fill="#000000" font-family="sans-serif" font-size="13" font-weight="bold" lengthAdjust="spacing" textLength="14" x="1310.5" y="1455.6201">40</text><text fill="#000000" font-family="sans-serif" font-size="13" lengthAdjust="spacing" textLength="85" x="1328.5" y="1455.6201">jobOpeningDto</text><polygon fill="#181818" points="838.5,1488.1738,828.5,1492.1738,838.5,1496.1738,834.5,1492.1738" style="stroke:#181818;stroke-width:1.0;"/><line style="stroke:#181818;stroke-width:1.0;stroke-dasharray:2.0,2.0;" x1="832.5" x2="1287.5" y1="1492.1738" y2="1492.1738"/><text fill="#000000" font-family="sans-serif" font-size="13" font-weight="bold" lengthAdjust="spacing" textLength="14" x="844.5" y="1486.9111">41</text><text fill="#000000" font-family="sans-serif" font-size="13" lengthAdjust="spacing" textLength="135" x="862.5" y="1486.9111">updated jobOpeningDto</text><polygon fill="#181818" points="542.5,1519.4648,532.5,1523.4648,542.5,1527.4648,538.5,1523.4648" style="stroke:#181818;stroke-width:1.0;"/><line style="stroke:#181818;stroke-width:1.0;stroke-dasharray:2.0,2.0;" x1="536.5" x2="821.5" y1="1523.4648" y2="1523.4648"/><text fill="#000000" font-family="sans-serif" font-size="13" font-weight="bold" lengthAdjust="spacing" textLength="14" x="548.5" y="1518.2021">42</text><text fill="#000000" font-family="sans-serif" font-size="13" lengthAdjust="spacing" textLength="135" x="566.5" y="1518.2021">updated jobOpeningDto</text><polygon fill="#181818" points="79.5,1550.7559,69.5,1554.7559,79.5,1558.7559,75.5,1554.7559" style="stroke:#181818;stroke-width:1.0;"/><line style="stroke:#181818;stroke-width:1.0;stroke-dasharray:2.0,2.0;" x1="73.5" x2="525.5" y1="1554.7559" y2="1554.7559"/><text fill="#000000" font-family="sans-serif" font-size="13" font-weight="bold" lengthAdjust="spacing" textLength="14" x="85.5" y="1549.4932">43</text><text fill="#000000" font-family="sans-serif" font-size="13" lengthAdjust="spacing" textLength="106" x="103.5" y="1549.4932">operation success</text><!--SRC=[hLTDRvmm4BtpAqQvD8sQvhw7IglaibMZIAdo0xpWW5EmgMrsrVxw3eQiZJzOs6PF0SRlpPVVJ3vLMhTgStVNreJhhgc_vgAvK_HtHtbERmj6IacQB2ET5hnhzbJYtxaM4gxkEwL5GoKy4avAAg-0A7XHQD4IgLdEMaI4gvUs89f-5_kdbdB6ovVTOBYRDxiNN4jHroEkVPmUkwyPvRfd_KdbWULqiFRVJWzjErq9oVuIpGHtpyK-J8zQ1zrpmTlKeKVIjcD4_ijKNC-q5OfXnlzueTaFAJRlQEn3bfbwiWCcVoXU1lZh_uBRRrWbsC1M_LAW1NIcH43WJUn134Z6sWBinkEx_h2jsSqDmkIIeatSO0Eg4iSXDdNzUOhgrDvyiCzJ4EGWTJq5IG61y_Fm_DungFspYpd53TeDl5zWCMMozTZ0A-F5jgwtFJZr61EiJZdJnDO8RfDXGZvaBy0fwAMyfu2zWgVOeaonlBfbMu3judeDDTTK6oYf_Y7AaXOxthkIR88bpHKJ6EnzgXG-fv2ZgkHQnWpCxJMPCzYO4pJ2XB0S8OkvG9nJ4mFdlKbuF1P9TIUvWjga31Y7JdafSIgHuef7v1Lc7TNPB9xfgGJBYhOoUeewECvDXPgiMCaH5CNr_IqqmpGzHs1rT2mqgjzpFxQLDcAjQ4rpRM5TBXjAbDMjpoxp1m86K0c1BOjsYad4UGS9Py6CrjjXfAxpqprFA_-vUpg8Fw9Uhlp158z1Jc33kJ-nguLeGLTIT6LbD0a7PoYj0SZKbs4xs63T7hIuHeIPaH3i56ckmS1qJoJkVi8NMioDWHLSSoCWcf8eJUpEKbvaouO2HEZEtDt4_OrwFNjBKn_36op36-miMyuIzeeR-63WNq3lzfwxl8jskT71g7_7YkYKOpxuGjzmdIKDrVW1SVTqX2ukyu_J8nn8tGsk8OMYt3AiSUk457Sa2zeuLBxUFqnxOpRKjrDhuysUM_JYuhL8m8RKFITflqnSMYGjgTcvNCT4GnXV7Fv7YjgJqunBTMrjeEuohmZky9PtKPGpMtNCA1LjJrsiZjdzp_1_1zMQe3-ij0yhfzO5OskKeqj85-wTlUgiPacDi8XCeYPBimU3wl8Sz- -O37fh-Zy0]--></g></svg>