<?xml version="1.0" encoding="us-ascii" standalone="no"?><svg xmlns="http://www.w3.org/2000/svg" xmlns:xlink="http://www.w3.org/1999/xlink" contentStyleType="text/css" height="638px" preserveAspectRatio="none" style="width:746px;height:638px;background:#FFFFFF;" version="1.1" viewBox="0 0 746 638" width="746px" zoomAndPan="magnify"><defs/><g><!--cluster authz--><g id="cluster_authz"><path d="M229.5,6.0137 L268.5,6.0137 A3.75,3.75 0 0 1 271,8.5137 L278,30.6348 L604.5,30.6348 A2.5,2.5 0 0 1 607,33.1348 L607,178.5137 A2.5,2.5 0 0 1 604.5,181.0137 L229.5,181.0137 A2.5,2.5 0 0 1 227,178.5137 L227,8.5137 A2.5,2.5 0 0 1 229.5,6.0137 " fill="none" style="stroke:#000000;stroke-width:1.5;"/><line style="stroke:#000000;stroke-width:1.5;" x1="227" x2="278" y1="30.6348" y2="30.6348"/><text fill="#000000" font-family="sans-serif" font-size="14" font-weight="bold" lengthAdjust="spacing" textLength="38" x="231" y="23.1211">authz</text></g><!--cluster Application--><g id="cluster_Application"><path d="M139.5,249.0137 L218.5,249.0137 A3.75,3.75 0 0 1 221,251.5137 L228,273.6348 L694.5,273.6348 A2.5,2.5 0 0 1 697,276.1348 L697,459.5137 A2.5,2.5 0 0 1 694.5,462.0137 L139.5,462.0137 A2.5,2.5 0 0 1 137,459.5137 L137,251.5137 A2.5,2.5 0 0 1 139.5,249.0137 " fill="none" style="stroke:#000000;stroke-width:1.5;"/><line style="stroke:#000000;stroke-width:1.5;" x1="137" x2="228" y1="273.6348" y2="273.6348"/><text fill="#000000" font-family="sans-serif" font-size="14" font-weight="bold" lengthAdjust="spacing" textLength="78" x="141" y="266.1211">Application</text></g><!--cluster Libraries--><g id="cluster_Libraries"><path d="M8.5,530.0137 L71.5,530.0137 A3.75,3.75 0 0 1 74,532.5137 L81,554.6348 L736.5,554.6348 A2.5,2.5 0 0 1 739,557.1348 L739,628.5137 A2.5,2.5 0 0 1 736.5,631.0137 L8.5,631.0137 A2.5,2.5 0 0 1 6,628.5137 L6,532.5137 A2.5,2.5 0 0 1 8.5,530.0137 " fill="none" style="stroke:#000000;stroke-width:1.5;"/><line style="stroke:#000000;stroke-width:1.5;" x1="6" x2="81" y1="554.6348" y2="554.6348"/><text fill="#000000" font-family="sans-serif" font-size="14" font-weight="bold" lengthAdjust="spacing" textLength="62" x="10" y="547.1211">Libraries</text></g><!--class AddUserUI--><g id="elem_AddUserUI"><rect codeLine="4" fill="#F1F1F1" height="122.4844" id="AddUserUI" rx="2.5" ry="2.5" style="stroke:#181818;stroke-width:0.5;" width="347" x="243.5" y="43.0137"/><ellipse cx="379.75" cy="59.0137" fill="#ADD1B2" rx="11" ry="11" style="stroke:#181818;stroke-width:1.0;"/><path d="M382.5156,54.8887 Q382.6719,54.6699 382.8594,54.5605 Q383.0469,54.4512 383.2656,54.4512 Q383.6406,54.4512 383.875,54.7168 Q384.1094,54.9668 384.1094,55.5762 L384.1094,57.0293 Q384.1094,57.6387 383.875,57.9043 Q383.6406,58.1699 383.2656,58.1699 Q382.9219,58.1699 382.7188,57.9668 Q382.5156,57.7793 382.4063,57.2637 Q382.3594,56.9043 382.1719,56.7168 Q381.8438,56.3418 381.2344,56.123 Q380.625,55.9043 380,55.9043 Q379.2344,55.9043 378.5938,56.2324 Q377.9688,56.5605 377.4688,57.3105 Q376.9844,58.0605 376.9844,59.0918 L376.9844,60.1855 Q376.9844,61.4199 377.875,62.248 Q378.7656,63.0605 380.3594,63.0605 Q381.2969,63.0605 381.9531,62.8105 Q382.3438,62.6543 382.7656,62.2168 Q383.0313,61.9512 383.1719,61.873 Q383.3281,61.7949 383.5313,61.7949 Q383.8594,61.7949 384.1094,62.0605 Q384.375,62.3105 384.375,62.6543 Q384.375,62.998 384.0313,63.4043 Q383.5313,63.9824 382.7344,64.3105 Q381.6563,64.7637 380.3594,64.7637 Q378.8438,64.7637 377.6406,64.1387 Q376.6563,63.6387 375.9688,62.5762 Q375.2813,61.498 375.2813,60.2168 L375.2813,59.0605 Q375.2813,57.7324 375.8906,56.5918 Q376.5156,55.4355 377.6094,54.8262 Q378.7031,54.2012 379.9375,54.2012 Q380.6719,54.2012 381.3125,54.373 Q381.9688,54.5293 382.5156,54.8887 Z " fill="#000000"/><text fill="#000000" font-family="sans-serif" font-size="14" lengthAdjust="spacing" textLength="66" x="400.25" y="64.8105">AddUserUI</text><line style="stroke:#181818;stroke-width:0.5;" x1="244.5" x2="589.5" y1="75.0137" y2="75.0137"/><line style="stroke:#181818;stroke-width:0.5;" x1="244.5" x2="589.5" y1="83.0137" y2="83.0137"/><polygon fill="#FFFF44" points="254.5,92.8242,258.5,96.8242,254.5,100.8242,250.5,96.8242" style="stroke:#B38D22;stroke-width:1.0;"/><text fill="#000000" font-family="sans-serif" font-size="14" lengthAdjust="spacing" textLength="123" x="263.5" y="102.1211">doShow() : boolean</text><ellipse cx="254.5" cy="116.4453" fill="#84BE84" rx="3" ry="3" style="stroke:#038048;stroke-width:1.0;"/><text fill="#000000" font-family="sans-serif" font-size="14" lengthAdjust="spacing" textLength="118" x="263.5" y="120.7422">headLine() : String</text><rect fill="#F24D5C" height="6" style="stroke:#C82930;stroke-width:1.0;" width="6" x="251.5" y="132.0664"/><text fill="#000000" font-family="sans-serif" font-size="14" lengthAdjust="spacing" textLength="304" x="263.5" y="139.3633">showRoles(final Set&lt;Role&gt; roleTypes) : boolean</text><rect fill="#F24D5C" height="6" style="stroke:#C82930;stroke-width:1.0;" width="6" x="251.5" y="150.6875"/><text fill="#000000" font-family="sans-serif" font-size="14" lengthAdjust="spacing" textLength="321" x="263.5" y="157.9844">buildRolesMenu(final Set&lt;Role&gt; roleTypes) : Menu</text></g><!--class AddUserController--><g id="elem_AddUserController"><rect codeLine="13" fill="#F1F1F1" height="159.7266" id="AddUserController" rx="2.5" ry="2.5" style="stroke:#181818;stroke-width:0.5;" width="528" x="153" y="286.0137"/><ellipse cx="354.75" cy="302.0137" fill="#ADD1B2" rx="11" ry="11" style="stroke:#181818;stroke-width:1.0;"/><path d="M357.5156,297.8887 Q357.6719,297.6699 357.8594,297.5605 Q358.0469,297.4512 358.2656,297.4512 Q358.6406,297.4512 358.875,297.7168 Q359.1094,297.9668 359.1094,298.5762 L359.1094,300.0293 Q359.1094,300.6387 358.875,300.9043 Q358.6406,301.1699 358.2656,301.1699 Q357.9219,301.1699 357.7188,300.9668 Q357.5156,300.7793 357.4063,300.2637 Q357.3594,299.9043 357.1719,299.7168 Q356.8438,299.3418 356.2344,299.123 Q355.625,298.9043 355,298.9043 Q354.2344,298.9043 353.5938,299.2324 Q352.9688,299.5605 352.4688,300.3105 Q351.9844,301.0605 351.9844,302.0918 L351.9844,303.1855 Q351.9844,304.4199 352.875,305.248 Q353.7656,306.0605 355.3594,306.0605 Q356.2969,306.0605 356.9531,305.8105 Q357.3438,305.6543 357.7656,305.2168 Q358.0313,304.9512 358.1719,304.873 Q358.3281,304.7949 358.5313,304.7949 Q358.8594,304.7949 359.1094,305.0605 Q359.375,305.3105 359.375,305.6543 Q359.375,305.998 359.0313,306.4043 Q358.5313,306.9824 357.7344,307.3105 Q356.6563,307.7637 355.3594,307.7637 Q353.8438,307.7637 352.6406,307.1387 Q351.6563,306.6387 350.9688,305.5762 Q350.2813,304.498 350.2813,303.2168 L350.2813,302.0605 Q350.2813,300.7324 350.8906,299.5918 Q351.5156,298.4355 352.6094,297.8262 Q353.7031,297.2012 354.9375,297.2012 Q355.6719,297.2012 356.3125,297.373 Q356.9688,297.5293 357.5156,297.8887 Z " fill="#000000"/><text fill="#000000" font-family="sans-serif" font-size="14" lengthAdjust="spacing" textLength="116" x="375.25" y="307.8105">AddUserController</text><line style="stroke:#181818;stroke-width:0.5;" x1="154" x2="680" y1="318.0137" y2="318.0137"/><text fill="#000000" font-family="sans-serif" font-size="14" lengthAdjust="spacing" textLength="133" x="159" y="337.1211">final String lastName,</text><text fill="#000000" font-family="sans-serif" font-size="14" lengthAdjust="spacing" textLength="133" x="159" y="355.7422">final String lastName,</text><line style="stroke:#181818;stroke-width:0.5;" x1="154" x2="680" y1="363.2559" y2="363.2559"/><ellipse cx="164" cy="378.0664" fill="#84BE84" rx="3" ry="3" style="stroke:#038048;stroke-width:1.0;"/><text fill="#000000" font-family="sans-serif" font-size="14" lengthAdjust="spacing" textLength="473" x="173" y="382.3633">addUser(final String username, final String password, final String firstName,</text><text fill="#000000" font-family="sans-serif" font-size="14" lengthAdjust="spacing" textLength="335" x="173" y="400.9844">final String email, final Set&lt;Role&gt; roles) : SystemUser</text><ellipse cx="164" cy="415.3086" fill="#84BE84" rx="3" ry="3" style="stroke:#038048;stroke-width:1.0;"/><text fill="#000000" font-family="sans-serif" font-size="14" lengthAdjust="spacing" textLength="473" x="173" y="419.6055">addUser(final String username, final String password, final String firstName,</text><text fill="#000000" font-family="sans-serif" font-size="14" lengthAdjust="spacing" textLength="502" x="173" y="438.2266">final String email, final Set&lt;Role&gt; roles, final Calendar createdOn) : SystemUser</text></g><!--class UserManagementService--><g id="elem_UserManagementService"><rect codeLine="24" fill="#F1F1F1" height="48" id="UserManagementService" rx="2.5" ry="2.5" style="stroke:#181818;stroke-width:0.5;" width="190" x="22" y="567.0137"/><ellipse cx="37" cy="583.0137" fill="#ADD1B2" rx="11" ry="11" style="stroke:#181818;stroke-width:1.0;"/><path d="M39.7656,578.8887 Q39.9219,578.6699 40.1094,578.5605 Q40.2969,578.4512 40.5156,578.4512 Q40.8906,578.4512 41.125,578.7168 Q41.3594,578.9668 41.3594,579.5762 L41.3594,581.0293 Q41.3594,581.6387 41.125,581.9043 Q40.8906,582.1699 40.5156,582.1699 Q40.1719,582.1699 39.9688,581.9668 Q39.7656,581.7793 39.6563,581.2637 Q39.6094,580.9043 39.4219,580.7168 Q39.0938,580.3418 38.4844,580.123 Q37.875,579.9043 37.25,579.9043 Q36.4844,579.9043 35.8438,580.2324 Q35.2188,580.5605 34.7188,581.3105 Q34.2344,582.0605 34.2344,583.0918 L34.2344,584.1855 Q34.2344,585.4199 35.125,586.248 Q36.0156,587.0605 37.6094,587.0605 Q38.5469,587.0605 39.2031,586.8105 Q39.5938,586.6543 40.0156,586.2168 Q40.2813,585.9512 40.4219,585.873 Q40.5781,585.7949 40.7813,585.7949 Q41.1094,585.7949 41.3594,586.0605 Q41.625,586.3105 41.625,586.6543 Q41.625,586.998 41.2813,587.4043 Q40.7813,587.9824 39.9844,588.3105 Q38.9063,588.7637 37.6094,588.7637 Q36.0938,588.7637 34.8906,588.1387 Q33.9063,587.6387 33.2188,586.5762 Q32.5313,585.498 32.5313,584.2168 L32.5313,583.0605 Q32.5313,581.7324 33.1406,580.5918 Q33.7656,579.4355 34.8594,578.8262 Q35.9531,578.2012 37.1875,578.2012 Q37.9219,578.2012 38.5625,578.373 Q39.2188,578.5293 39.7656,578.8887 Z " fill="#000000"/><text fill="#000000" font-family="sans-serif" font-size="14" lengthAdjust="spacing" textLength="158" x="51" y="588.8105">UserManagementService</text><line style="stroke:#181818;stroke-width:0.5;" x1="23" x2="211" y1="599.0137" y2="599.0137"/><line style="stroke:#181818;stroke-width:0.5;" x1="23" x2="211" y1="607.0137" y2="607.0137"/></g><!--class AuthorizationService--><g id="elem_AuthorizationService"><rect codeLine="25" fill="#F1F1F1" height="48" id="AuthorizationService" rx="2.5" ry="2.5" style="stroke:#181818;stroke-width:0.5;" width="161" x="247.5" y="567.0137"/><ellipse cx="262.5" cy="583.0137" fill="#ADD1B2" rx="11" ry="11" style="stroke:#181818;stroke-width:1.0;"/><path d="M265.2656,578.8887 Q265.4219,578.6699 265.6094,578.5605 Q265.7969,578.4512 266.0156,578.4512 Q266.3906,578.4512 266.625,578.7168 Q266.8594,578.9668 266.8594,579.5762 L266.8594,581.0293 Q266.8594,581.6387 266.625,581.9043 Q266.3906,582.1699 266.0156,582.1699 Q265.6719,582.1699 265.4688,581.9668 Q265.2656,581.7793 265.1563,581.2637 Q265.1094,580.9043 264.9219,580.7168 Q264.5938,580.3418 263.9844,580.123 Q263.375,579.9043 262.75,579.9043 Q261.9844,579.9043 261.3438,580.2324 Q260.7188,580.5605 260.2188,581.3105 Q259.7344,582.0605 259.7344,583.0918 L259.7344,584.1855 Q259.7344,585.4199 260.625,586.248 Q261.5156,587.0605 263.1094,587.0605 Q264.0469,587.0605 264.7031,586.8105 Q265.0938,586.6543 265.5156,586.2168 Q265.7813,585.9512 265.9219,585.873 Q266.0781,585.7949 266.2813,585.7949 Q266.6094,585.7949 266.8594,586.0605 Q267.125,586.3105 267.125,586.6543 Q267.125,586.998 266.7813,587.4043 Q266.2813,587.9824 265.4844,588.3105 Q264.4063,588.7637 263.1094,588.7637 Q261.5938,588.7637 260.3906,588.1387 Q259.4063,587.6387 258.7188,586.5762 Q258.0313,585.498 258.0313,584.2168 L258.0313,583.0605 Q258.0313,581.7324 258.6406,580.5918 Q259.2656,579.4355 260.3594,578.8262 Q261.4531,578.2012 262.6875,578.2012 Q263.4219,578.2012 264.0625,578.373 Q264.7188,578.5293 265.2656,578.8887 Z " fill="#000000"/><text fill="#000000" font-family="sans-serif" font-size="14" lengthAdjust="spacing" textLength="129" x="276.5" y="588.8105">AuthorizationService</text><line style="stroke:#181818;stroke-width:0.5;" x1="248.5" x2="407.5" y1="599.0137" y2="599.0137"/><line style="stroke:#181818;stroke-width:0.5;" x1="248.5" x2="407.5" y1="607.0137" y2="607.0137"/></g><!--class LoggerFactory--><g id="elem_LoggerFactory"><rect codeLine="26" fill="#F1F1F1" height="48" id="LoggerFactory" rx="2.5" ry="2.5" style="stroke:#181818;stroke-width:0.5;" width="125" x="443.5" y="567.0137"/><ellipse cx="458.5" cy="583.0137" fill="#ADD1B2" rx="11" ry="11" style="stroke:#181818;stroke-width:1.0;"/><path d="M461.2656,578.8887 Q461.4219,578.6699 461.6094,578.5605 Q461.7969,578.4512 462.0156,578.4512 Q462.3906,578.4512 462.625,578.7168 Q462.8594,578.9668 462.8594,579.5762 L462.8594,581.0293 Q462.8594,581.6387 462.625,581.9043 Q462.3906,582.1699 462.0156,582.1699 Q461.6719,582.1699 461.4688,581.9668 Q461.2656,581.7793 461.1563,581.2637 Q461.1094,580.9043 460.9219,580.7168 Q460.5938,580.3418 459.9844,580.123 Q459.375,579.9043 458.75,579.9043 Q457.9844,579.9043 457.3438,580.2324 Q456.7188,580.5605 456.2188,581.3105 Q455.7344,582.0605 455.7344,583.0918 L455.7344,584.1855 Q455.7344,585.4199 456.625,586.248 Q457.5156,587.0605 459.1094,587.0605 Q460.0469,587.0605 460.7031,586.8105 Q461.0938,586.6543 461.5156,586.2168 Q461.7813,585.9512 461.9219,585.873 Q462.0781,585.7949 462.2813,585.7949 Q462.6094,585.7949 462.8594,586.0605 Q463.125,586.3105 463.125,586.6543 Q463.125,586.998 462.7813,587.4043 Q462.2813,587.9824 461.4844,588.3105 Q460.4063,588.7637 459.1094,588.7637 Q457.5938,588.7637 456.3906,588.1387 Q455.4063,587.6387 454.7188,586.5762 Q454.0313,585.498 454.0313,584.2168 L454.0313,583.0605 Q454.0313,581.7324 454.6406,580.5918 Q455.2656,579.4355 456.3594,578.8262 Q457.4531,578.2012 458.6875,578.2012 Q459.4219,578.2012 460.0625,578.373 Q460.7188,578.5293 461.2656,578.8887 Z " fill="#000000"/><text fill="#000000" font-family="sans-serif" font-size="14" lengthAdjust="spacing" textLength="93" x="472.5" y="588.8105">LoggerFactory</text><line style="stroke:#181818;stroke-width:0.5;" x1="444.5" x2="567.5" y1="599.0137" y2="599.0137"/><line style="stroke:#181818;stroke-width:0.5;" x1="444.5" x2="567.5" y1="607.0137" y2="607.0137"/></g><!--class AuthzRegistry--><g id="elem_AuthzRegistry"><rect codeLine="27" fill="#F1F1F1" height="48" id="AuthzRegistry" rx="2.5" ry="2.5" style="stroke:#181818;stroke-width:0.5;" width="119" x="603.5" y="567.0137"/><ellipse cx="618.5" cy="583.0137" fill="#ADD1B2" rx="11" ry="11" style="stroke:#181818;stroke-width:1.0;"/><path d="M621.2656,578.8887 Q621.4219,578.6699 621.6094,578.5605 Q621.7969,578.4512 622.0156,578.4512 Q622.3906,578.4512 622.625,578.7168 Q622.8594,578.9668 622.8594,579.5762 L622.8594,581.0293 Q622.8594,581.6387 622.625,581.9043 Q622.3906,582.1699 622.0156,582.1699 Q621.6719,582.1699 621.4688,581.9668 Q621.2656,581.7793 621.1563,581.2637 Q621.1094,580.9043 620.9219,580.7168 Q620.5938,580.3418 619.9844,580.123 Q619.375,579.9043 618.75,579.9043 Q617.9844,579.9043 617.3438,580.2324 Q616.7188,580.5605 616.2188,581.3105 Q615.7344,582.0605 615.7344,583.0918 L615.7344,584.1855 Q615.7344,585.4199 616.625,586.248 Q617.5156,587.0605 619.1094,587.0605 Q620.0469,587.0605 620.7031,586.8105 Q621.0938,586.6543 621.5156,586.2168 Q621.7813,585.9512 621.9219,585.873 Q622.0781,585.7949 622.2813,585.7949 Q622.6094,585.7949 622.8594,586.0605 Q623.125,586.3105 623.125,586.6543 Q623.125,586.998 622.7813,587.4043 Q622.2813,587.9824 621.4844,588.3105 Q620.4063,588.7637 619.1094,588.7637 Q617.5938,588.7637 616.3906,588.1387 Q615.4063,587.6387 614.7188,586.5762 Q614.0313,585.498 614.0313,584.2168 L614.0313,583.0605 Q614.0313,581.7324 614.6406,580.5918 Q615.2656,579.4355 616.3594,578.8262 Q617.4531,578.2012 618.6875,578.2012 Q619.4219,578.2012 620.0625,578.373 Q620.7188,578.5293 621.2656,578.8887 Z " fill="#000000"/><text fill="#000000" font-family="sans-serif" font-size="14" lengthAdjust="spacing" textLength="87" x="632.5" y="588.8105">AuthzRegistry</text><line style="stroke:#181818;stroke-width:0.5;" x1="604.5" x2="721.5" y1="599.0137" y2="599.0137"/><line style="stroke:#181818;stroke-width:0.5;" x1="604.5" x2="721.5" y1="607.0137" y2="607.0137"/></g><!--link AddUserUI to AddUserController--><g id="link_AddUserUI_AddUserController"><path codeLine="30" d="M417,165.3137 C417,201.1737 417,241.0637 417,279.8137 " fill="none" id="AddUserUI-to-AddUserController" style="stroke:#181818;stroke-width:1.0;stroke-dasharray:7.0,7.0;"/><polygon fill="#181818" points="417,285.8137,421,276.8137,417,280.8137,413,276.8137,417,285.8137" style="stroke:#181818;stroke-width:1.0;"/></g><!--link AddUserController to UserManagementService--><g id="link_AddUserController_UserManagementService"><path codeLine="31" d="M310.39,446.2637 C252.96,488.9537 191.0553,534.9641 152.9053,563.3241 " fill="none" id="AddUserController-to-UserManagementService" style="stroke:#181818;stroke-width:1.0;stroke-dasharray:7.0,7.0;"/><polygon fill="#181818" points="148.09,566.9037,157.6993,564.7445,152.1027,563.9207,152.9265,558.3241,148.09,566.9037" style="stroke:#181818;stroke-width:1.0;"/></g><!--link AddUserController to AuthorizationService--><g id="link_AddUserController_AuthorizationService"><path codeLine="32" d="M385.37,446.2637 C368.38,488.8237 350.885,532.6815 339.545,561.0815 " fill="none" id="AddUserController-to-AuthorizationService" style="stroke:#181818;stroke-width:1.0;stroke-dasharray:7.0,7.0;"/><polygon fill="#181818" points="337.32,566.6537,344.3722,559.7787,339.1741,562.0102,336.9426,556.812,337.32,566.6537" style="stroke:#181818;stroke-width:1.0;"/></g><!--link AddUserController to LoggerFactory--><g id="link_AddUserController_LoggerFactory"><path codeLine="33" d="M448.63,446.2637 C465.62,488.8237 483.115,532.6815 494.455,561.0815 " fill="none" id="AddUserController-to-LoggerFactory" style="stroke:#181818;stroke-width:1.0;stroke-dasharray:7.0,7.0;"/><polygon fill="#181818" points="496.68,566.6537,497.0574,556.812,494.8259,562.0102,489.6278,559.7787,496.68,566.6537" style="stroke:#181818;stroke-width:1.0;"/></g><!--link AddUserController to AuthzRegistry--><g id="link_AddUserController_AuthzRegistry"><path codeLine="34" d="M504.42,446.2637 C551.52,488.9537 601.7743,534.5143 633.0643,562.8743 " fill="none" id="AddUserController-to-AuthzRegistry" style="stroke:#181818;stroke-width:1.0;stroke-dasharray:7.0,7.0;"/><polygon fill="#181818" points="637.51,566.9037,633.5277,557.8958,633.8053,563.5459,628.1552,563.8234,637.51,566.9037" style="stroke:#181818;stroke-width:1.0;"/></g><!--SRC=[tLDTQy8m57tlhmZiOGvNVPSXY30Ow0Ps_e1hSct3yb5kqeaE__lI59sjTR3NvI7GSywzEIUvlI-yBzraF2uL65zfDU9MZxa2vr8X8IVGIL82_u0S6LI-E7mbBAoeO3CXrWvf_TA0Ty9cXTqD7jY4RQnL22RYmm91BAJ1o6IUfCaZaReWNmMX6sob0SKoz4_rzvHHsD_t9RfkitHJIILYqH9DzNjXhOXLn-JuasDMbafoyDAQdZHpQtneef0QSWWDVZefscTLG0neV6Gjk0oDTfP41zvASlwrbiUMlQjL40pzIOyQf3eVshgCU17PtddKTOp_aUa4pq6X4K2C4u97yMPwqhOUVo4t12JHNJvzBLs22Rn6upEaJydnSZJ2v5kIXpWpr_J2vZdICt1lQTyfEwmmbyu7F9Wu_p0iJKVJwubBhf16sE_lXhZNR8zsb4uxpc-8sZ6-0G00]--></g></svg>