<?xml version="1.0" encoding="us-ascii" standalone="no"?><svg xmlns="http://www.w3.org/2000/svg" xmlns:xlink="http://www.w3.org/1999/xlink" contentStyleType="text/css" height="671px" preserveAspectRatio="none" style="width:1554px;height:671px;background:#FFFFFF;" version="1.1" viewBox="0 0 1554 671" width="1554px" zoomAndPan="magnify"><defs/><g><text fill="#000000" font-family="sans-serif" font-size="14" font-weight="bold" lengthAdjust="spacing" textLength="404" x="574.25" y="30.1074">UI Sequence Diagram (SSD) - Register User to Back Office</text><rect fill="#FFFFFF" height="446.1133" style="stroke:#181818;stroke-width:1.0;" width="10" x="22.5" y="133.2422"/><rect fill="#FFFFFF" height="74.9121" style="stroke:#181818;stroke-width:1.0;" width="10" x="472.5" y="156.5332"/><rect fill="#FFFFFF" height="307.6191" style="stroke:#181818;stroke-width:1.0;" width="10" x="472.5" y="262.7363"/><rect fill="#FFFFFF" height="245.0371" style="stroke:#181818;stroke-width:1.0;" width="10" x="882.5" y="294.0273"/><rect fill="#FFFFFF" height="167.4551" style="stroke:#181818;stroke-width:1.0;" width="10" x="887.5" y="333.3184"/><rect fill="#FFFFFF" height="93.873" style="stroke:#181818;stroke-width:1.0;" width="10" x="1377.5" y="369.6094"/><rect fill="#FFFFFF" height="31.291" style="stroke:#181818;stroke-width:1.0;" width="10" x="1488" y="400.9004"/><line style="stroke:#181818;stroke-width:0.5;stroke-dasharray:5.0,5.0;" x1="27" x2="27" y1="123.2422" y2="588.3555"/><line style="stroke:#181818;stroke-width:0.5;stroke-dasharray:5.0,5.0;" x1="477.5" x2="477.5" y1="123.2422" y2="588.3555"/><line style="stroke:#181818;stroke-width:0.5;stroke-dasharray:5.0,5.0;" x1="887.5" x2="887.5" y1="196.3438" y2="588.3555"/><line style="stroke:#181818;stroke-width:0.5;stroke-dasharray:5.0,5.0;" x1="1382.5" x2="1382.5" y1="123.2422" y2="588.3555"/><line style="stroke:#181818;stroke-width:0.5;stroke-dasharray:5.0,5.0;" x1="1492.5" x2="1492.5" y1="123.2422" y2="588.3555"/><text fill="#000000" font-family="sans-serif" font-size="14" lengthAdjust="spacing" textLength="39" x="5" y="119.7285">Admin</text><ellipse cx="27.5" cy="53.1211" fill="#E3E3E3" rx="8" ry="8" style="stroke:#181818;stroke-width:0.5;"/><path d="M27.5,61.1211 L27.5,88.1211 M14.5,69.1211 L40.5,69.1211 M27.5,88.1211 L14.5,103.1211 M27.5,88.1211 L40.5,103.1211 " fill="none" style="stroke:#181818;stroke-width:0.5;"/><text fill="#000000" font-family="sans-serif" font-size="14" lengthAdjust="spacing" textLength="39" x="5" y="602.4629">Admin</text><ellipse cx="27.5" cy="614.4766" fill="#E3E3E3" rx="8" ry="8" style="stroke:#181818;stroke-width:0.5;"/><path d="M27.5,622.4766 L27.5,649.4766 M14.5,630.4766 L40.5,630.4766 M27.5,649.4766 L14.5,664.4766 M27.5,649.4766 L40.5,664.4766 " fill="none" style="stroke:#181818;stroke-width:0.5;"/><rect fill="#E3E3E3" height="32.6211" rx="2.5" ry="2.5" style="stroke:#181818;stroke-width:0.5;" width="80" x="437.5" y="89.6211"/><text fill="#000000" font-family="sans-serif" font-size="14" lengthAdjust="spacing" textLength="66" x="444.5" y="111.7285">AddUserUI</text><rect fill="#E3E3E3" height="32.6211" rx="2.5" ry="2.5" style="stroke:#181818;stroke-width:0.5;" width="80" x="437.5" y="587.3555"/><text fill="#000000" font-family="sans-serif" font-size="14" lengthAdjust="spacing" textLength="66" x="444.5" y="609.4629">AddUserUI</text><rect fill="#E3E3E3" height="32.6211" rx="2.5" ry="2.5" style="stroke:#181818;stroke-width:0.5;" width="130" x="822.5" y="587.3555"/><text fill="#000000" font-family="sans-serif" font-size="14" lengthAdjust="spacing" textLength="116" x="829.5" y="609.4629">AddUserController</text><rect fill="#E3E3E3" height="32.6211" rx="2.5" ry="2.5" style="stroke:#181818;stroke-width:0.5;" width="90" x="1337.5" y="89.6211"/><text fill="#000000" font-family="sans-serif" font-size="14" lengthAdjust="spacing" textLength="76" x="1344.5" y="111.7285">UserService</text><rect fill="#E3E3E3" height="32.6211" rx="2.5" ry="2.5" style="stroke:#181818;stroke-width:0.5;" width="90" x="1337.5" y="587.3555"/><text fill="#000000" font-family="sans-serif" font-size="14" lengthAdjust="spacing" textLength="76" x="1344.5" y="609.4629">UserService</text><rect fill="#E3E3E3" height="32.6211" rx="2.5" ry="2.5" style="stroke:#181818;stroke-width:0.5;" width="111" x="1437.5" y="89.6211"/><text fill="#000000" font-family="sans-serif" font-size="14" lengthAdjust="spacing" textLength="97" x="1444.5" y="111.7285">UserRepository</text><rect fill="#E3E3E3" height="32.6211" rx="2.5" ry="2.5" style="stroke:#181818;stroke-width:0.5;" width="111" x="1437.5" y="587.3555"/><text fill="#000000" font-family="sans-serif" font-size="14" lengthAdjust="spacing" textLength="97" x="1444.5" y="609.4629">UserRepository</text><rect fill="#FFFFFF" height="446.1133" style="stroke:#181818;stroke-width:1.0;" width="10" x="22.5" y="133.2422"/><rect fill="#FFFFFF" height="74.9121" style="stroke:#181818;stroke-width:1.0;" width="10" x="472.5" y="156.5332"/><rect fill="#FFFFFF" height="307.6191" style="stroke:#181818;stroke-width:1.0;" width="10" x="472.5" y="262.7363"/><rect fill="#FFFFFF" height="245.0371" style="stroke:#181818;stroke-width:1.0;" width="10" x="882.5" y="294.0273"/><rect fill="#FFFFFF" height="167.4551" style="stroke:#181818;stroke-width:1.0;" width="10" x="887.5" y="333.3184"/><rect fill="#FFFFFF" height="93.873" style="stroke:#181818;stroke-width:1.0;" width="10" x="1377.5" y="369.6094"/><rect fill="#FFFFFF" height="31.291" style="stroke:#181818;stroke-width:1.0;" width="10" x="1488" y="400.9004"/><polygon fill="#181818" points="460.5,152.5332,470.5,156.5332,460.5,160.5332,464.5,156.5332" style="stroke:#181818;stroke-width:1.0;"/><line style="stroke:#181818;stroke-width:1.0;" x1="32.5" x2="466.5" y1="156.5332" y2="156.5332"/><text fill="#000000" font-family="sans-serif" font-size="13" font-weight="bold" lengthAdjust="spacing" textLength="7" x="39.5" y="151.2705">1</text><text fill="#000000" font-family="sans-serif" font-size="13" lengthAdjust="spacing" textLength="121" x="50.5" y="151.2705">Asks to register user</text><polygon fill="#181818" points="810.5,183.8242,820.5,187.8242,810.5,191.8242,814.5,187.8242" style="stroke:#181818;stroke-width:1.0;"/><line style="stroke:#181818;stroke-width:1.0;" x1="482.5" x2="816.5" y1="187.8242" y2="187.8242"/><text fill="#000000" font-family="sans-serif" font-size="13" font-weight="bold" lengthAdjust="spacing" textLength="7" x="489.5" y="182.5615">2</text><text fill="#000000" font-family="sans-serif" font-size="13" lengthAdjust="spacing" textLength="36" x="500.5" y="182.5615">create</text><rect fill="#E3E3E3" height="32.6211" rx="2.5" ry="2.5" style="stroke:#181818;stroke-width:0.5;" width="130" x="822.5" y="164.5332"/><text fill="#000000" font-family="sans-serif" font-size="14" lengthAdjust="spacing" textLength="116" x="829.5" y="186.6406">AddUserController</text><polygon fill="#181818" points="43.5,227.4453,33.5,231.4453,43.5,235.4453,39.5,231.4453" style="stroke:#181818;stroke-width:1.0;"/><line style="stroke:#181818;stroke-width:1.0;stroke-dasharray:2.0,2.0;" x1="37.5" x2="476.5" y1="231.4453" y2="231.4453"/><text fill="#000000" font-family="sans-serif" font-size="13" font-weight="bold" lengthAdjust="spacing" textLength="7" x="49.5" y="226.1826">3</text><text fill="#000000" font-family="sans-serif" font-size="13" lengthAdjust="spacing" textLength="405" x="60.5" y="226.1826">requests data (username,password, first name, last name, email, role)</text><polygon fill="#181818" points="460.5,258.7363,470.5,262.7363,460.5,266.7363,464.5,262.7363" style="stroke:#181818;stroke-width:1.0;"/><line style="stroke:#181818;stroke-width:1.0;" x1="32.5" x2="466.5" y1="262.7363" y2="262.7363"/><text fill="#000000" font-family="sans-serif" font-size="13" font-weight="bold" lengthAdjust="spacing" textLength="7" x="39.5" y="257.4736">4</text><text fill="#000000" font-family="sans-serif" font-size="13" lengthAdjust="spacing" textLength="78" x="50.5" y="257.4736">Provides data</text><polygon fill="#181818" points="870.5,290.0273,880.5,294.0273,870.5,298.0273,874.5,294.0273" style="stroke:#181818;stroke-width:1.0;"/><line style="stroke:#181818;stroke-width:1.0;" x1="482.5" x2="876.5" y1="294.0273" y2="294.0273"/><text fill="#000000" font-family="sans-serif" font-size="13" font-weight="bold" lengthAdjust="spacing" textLength="7" x="489.5" y="288.7646">5</text><text fill="#000000" font-family="sans-serif" font-size="13" lengthAdjust="spacing" textLength="370" x="500.5" y="288.7646">addUser(username,password, first name, last name, email, role)</text><line style="stroke:#181818;stroke-width:1.0;" x1="892.5" x2="939.5" y1="320.3184" y2="320.3184"/><line style="stroke:#181818;stroke-width:1.0;" x1="939.5" x2="939.5" y1="320.3184" y2="333.3184"/><line style="stroke:#181818;stroke-width:1.0;" x1="898.5" x2="939.5" y1="333.3184" y2="333.3184"/><polygon fill="#181818" points="908.5,329.3184,898.5,333.3184,908.5,337.3184,904.5,333.3184" style="stroke:#181818;stroke-width:1.0;"/><text fill="#000000" font-family="sans-serif" font-size="13" font-weight="bold" lengthAdjust="spacing" textLength="7" x="904.5" y="315.0557">6</text><text fill="#000000" font-family="sans-serif" font-size="13" lengthAdjust="spacing" textLength="447" x="915.5" y="315.0557">addUser(username,password, first name, last name, email, role, current time)</text><polygon fill="#181818" points="1365.5,365.6094,1375.5,369.6094,1365.5,373.6094,1369.5,369.6094" style="stroke:#181818;stroke-width:1.0;"/><line style="stroke:#181818;stroke-width:1.0;" x1="897.5" x2="1371.5" y1="369.6094" y2="369.6094"/><text fill="#000000" font-family="sans-serif" font-size="13" font-weight="bold" lengthAdjust="spacing" textLength="7" x="904.5" y="364.3467">7</text><text fill="#000000" font-family="sans-serif" font-size="13" lengthAdjust="spacing" textLength="450" x="915.5" y="364.3467">registerNewUser(username,password, first name, last name, email, role, time)</text><polygon fill="#181818" points="1476,396.9004,1486,400.9004,1476,404.9004,1480,400.9004" style="stroke:#181818;stroke-width:1.0;"/><line style="stroke:#181818;stroke-width:1.0;" x1="1387.5" x2="1482" y1="400.9004" y2="400.9004"/><text fill="#000000" font-family="sans-serif" font-size="13" font-weight="bold" lengthAdjust="spacing" textLength="7" x="1394.5" y="395.6377">8</text><text fill="#000000" font-family="sans-serif" font-size="13" lengthAdjust="spacing" textLength="59" x="1405.5" y="395.6377">save(user)</text><polygon fill="#181818" points="1398.5,428.1914,1388.5,432.1914,1398.5,436.1914,1394.5,432.1914" style="stroke:#181818;stroke-width:1.0;"/><line style="stroke:#181818;stroke-width:1.0;stroke-dasharray:2.0,2.0;" x1="1392.5" x2="1492" y1="432.1914" y2="432.1914"/><text fill="#000000" font-family="sans-serif" font-size="13" font-weight="bold" lengthAdjust="spacing" textLength="7" x="1404.5" y="426.9287">9</text><text fill="#000000" font-family="sans-serif" font-size="13" lengthAdjust="spacing" textLength="25" x="1415.5" y="426.9287">user</text><polygon fill="#181818" points="908.5,459.4824,898.5,463.4824,908.5,467.4824,904.5,463.4824" style="stroke:#181818;stroke-width:1.0;"/><line style="stroke:#181818;stroke-width:1.0;stroke-dasharray:2.0,2.0;" x1="902.5" x2="1381.5" y1="463.4824" y2="463.4824"/><text fill="#000000" font-family="sans-serif" font-size="13" font-weight="bold" lengthAdjust="spacing" textLength="14" x="914.5" y="458.2197">10</text><text fill="#000000" font-family="sans-serif" font-size="13" lengthAdjust="spacing" textLength="25" x="932.5" y="458.2197">user</text><line style="stroke:#181818;stroke-width:1.0;stroke-dasharray:2.0,2.0;" x1="897.5" x2="939.5" y1="499.7734" y2="499.7734"/><line style="stroke:#181818;stroke-width:1.0;stroke-dasharray:2.0,2.0;" x1="939.5" x2="939.5" y1="499.7734" y2="512.7734"/><line style="stroke:#181818;stroke-width:1.0;stroke-dasharray:2.0,2.0;" x1="892.5" x2="939.5" y1="512.7734" y2="512.7734"/><polygon fill="#181818" points="902.5,508.7734,892.5,512.7734,902.5,516.7734,898.5,512.7734" style="stroke:#181818;stroke-width:1.0;"/><text fill="#000000" font-family="sans-serif" font-size="13" font-weight="bold" lengthAdjust="spacing" textLength="14" x="904.5" y="494.5107">11</text><text fill="#000000" font-family="sans-serif" font-size="13" lengthAdjust="spacing" textLength="25" x="922.5" y="494.5107">user</text><polygon fill="#181818" points="493.5,535.0645,483.5,539.0645,493.5,543.0645,489.5,539.0645" style="stroke:#181818;stroke-width:1.0;"/><line style="stroke:#181818;stroke-width:1.0;stroke-dasharray:2.0,2.0;" x1="487.5" x2="886.5" y1="539.0645" y2="539.0645"/><text fill="#000000" font-family="sans-serif" font-size="13" font-weight="bold" lengthAdjust="spacing" textLength="14" x="499.5" y="533.8018">12</text><text fill="#000000" font-family="sans-serif" font-size="13" lengthAdjust="spacing" textLength="25" x="517.5" y="533.8018">user</text><polygon fill="#181818" points="43.5,566.3555,33.5,570.3555,43.5,574.3555,39.5,570.3555" style="stroke:#181818;stroke-width:1.0;"/><line style="stroke:#181818;stroke-width:1.0;stroke-dasharray:2.0,2.0;" x1="37.5" x2="476.5" y1="570.3555" y2="570.3555"/><text fill="#000000" font-family="sans-serif" font-size="13" font-weight="bold" lengthAdjust="spacing" textLength="14" x="49.5" y="565.0928">13</text><text fill="#000000" font-family="sans-serif" font-size="13" lengthAdjust="spacing" textLength="119" x="67.5" y="565.0928">Confirms registration</text><!--SRC=[fLF1Rjim3BtxAuYUsYBvWHuATEl5bwweaG_WPCOLOaaUHIVetu-o4rjPtAr3T30iyV6zHv6AE-ixP7JWWW_cdOCZ4EwfY5EaGxF3XYhvQ0cOZA1lsXmGtx4E1-iRs68RgIZ4Ya8t9LJqgoTl29ujDWbwMrNFTx26Dsfi56BOHFr8W6yg0Z-sMsiq7ti9ldS_YVNVI62uUQgTzJU0SSWeL5YiiHrwIR4w7MxACLukHhy7BnpQbdX0pTjpT89Mn7lrCQaTzvV0D-f2jEhlOyBEHuDrkqUXqN81kePoru_fRXxWAUvYgfrFbz4dN8BDcUKnhqnPi-dxUyqtJ8gP0OatyJyeezvxb0Wr2i9julNeQDLXZ8V0zGgsbgF0S0WjJh_aqBOhK16w6tXhklIIr_3AOMzh6fM-vbspSEp9DSOccQoJGo0JEfEzKdK5fcScRRrOztyUiXaQUZDs-uKErxXPS97FwjIfa_3HnpoVQYNYdWRz1Q9ya4zSMVBwegvfUFEH-OHeClNdO7n6SbPMVhjV8VXRTqvp_A-yfLUcSUsKYyUMCeeDVkdLfFKR]--></g></svg>