<?xml version="1.0" encoding="us-ascii" standalone="no"?><svg xmlns="http://www.w3.org/2000/svg" xmlns:xlink="http://www.w3.org/1999/xlink" contentStyleType="text/css" height="479px" preserveAspectRatio="none" style="width:1149px;height:479px;background:#FFFFFF;" version="1.1" viewBox="0 0 1149 479" width="1149px" zoomAndPan="magnify"><defs/><g><text fill="#000000" font-family="sans-serif" font-size="14" font-weight="bold" lengthAdjust="spacing" textLength="472" x="337.5" y="30.1074">System Sequence Diagram (SSD) - Get an ordered list of candidates</text><rect fill="#FFFFFF" height="254.4063" style="stroke:#181818;stroke-width:1.0;" width="10" x="48" y="133.2422"/><rect fill="#FFFFFF" height="222.1152" style="stroke:#181818;stroke-width:1.0;" width="10" x="426" y="156.5332"/><rect fill="#FFFFFF" height="88.9121" style="stroke:#181818;stroke-width:1.0;" width="10" x="767" y="231.4453"/><rect fill="#FFFFFF" height="33.6211" style="stroke:#181818;stroke-width:1.0;" width="10" x="1057.5" y="272.7363"/><line style="stroke:#181818;stroke-width:0.5;stroke-dasharray:5.0,5.0;" x1="53" x2="53" y1="123.2422" y2="396.6484"/><line style="stroke:#181818;stroke-width:0.5;stroke-dasharray:5.0,5.0;" x1="430.5" x2="430.5" y1="123.2422" y2="396.6484"/><line style="stroke:#181818;stroke-width:0.5;stroke-dasharray:5.0,5.0;" x1="771.5" x2="771.5" y1="196.3438" y2="396.6484"/><line style="stroke:#181818;stroke-width:0.5;stroke-dasharray:5.0,5.0;" x1="1062" x2="1062" y1="271.2559" y2="396.6484"/><text fill="#000000" font-family="sans-serif" font-size="14" lengthAdjust="spacing" textLength="90" x="5" y="119.7285">CandidateApp</text><ellipse cx="53" cy="53.1211" fill="#E2E2F0" rx="8" ry="8" style="stroke:#181818;stroke-width:0.5;"/><path d="M53,61.1211 L53,88.1211 M40,69.1211 L66,69.1211 M53,88.1211 L40,103.1211 M53,88.1211 L66,103.1211 " fill="none" style="stroke:#181818;stroke-width:0.5;"/><text fill="#000000" font-family="sans-serif" font-size="14" lengthAdjust="spacing" textLength="90" x="5" y="410.7559">CandidateApp</text><ellipse cx="53" cy="422.7695" fill="#E2E2F0" rx="8" ry="8" style="stroke:#181818;stroke-width:0.5;"/><path d="M53,430.7695 L53,457.7695 M40,438.7695 L66,438.7695 M53,457.7695 L40,472.7695 M53,457.7695 L66,472.7695 " fill="none" style="stroke:#181818;stroke-width:0.5;"/><rect fill="#E2E2F0" height="32.6211" rx="2.5" ry="2.5" style="stroke:#181818;stroke-width:0.5;" width="109" x="376.5" y="89.6211"/><text fill="#000000" font-family="sans-serif" font-size="14" lengthAdjust="spacing" textLength="95" x="383.5" y="111.7285">:ServerHandler</text><rect fill="#E2E2F0" height="32.6211" rx="2.5" ry="2.5" style="stroke:#181818;stroke-width:0.5;" width="109" x="376.5" y="395.6484"/><text fill="#000000" font-family="sans-serif" font-size="14" lengthAdjust="spacing" textLength="95" x="383.5" y="417.7559">:ServerHandler</text><rect fill="#E2E2F0" height="32.6211" rx="2.5" ry="2.5" style="stroke:#181818;stroke-width:0.5;" width="137" x="703.5" y="395.6484"/><text fill="#000000" font-family="sans-serif" font-size="14" lengthAdjust="spacing" textLength="123" x="710.5" y="417.7559">:UseCaseController</text><rect fill="#E2E2F0" height="32.6211" rx="2.5" ry="2.5" style="stroke:#181818;stroke-width:0.5;" width="161" x="982" y="395.6484"/><text fill="#000000" font-family="sans-serif" font-size="14" lengthAdjust="spacing" textLength="147" x="989" y="417.7559">:AppsReportRepository</text><rect fill="#FFFFFF" height="254.4063" style="stroke:#181818;stroke-width:1.0;" width="10" x="48" y="133.2422"/><rect fill="#FFFFFF" height="222.1152" style="stroke:#181818;stroke-width:1.0;" width="10" x="426" y="156.5332"/><rect fill="#FFFFFF" height="88.9121" style="stroke:#181818;stroke-width:1.0;" width="10" x="767" y="231.4453"/><rect fill="#FFFFFF" height="33.6211" style="stroke:#181818;stroke-width:1.0;" width="10" x="1057.5" y="272.7363"/><polygon fill="#181818" points="414,152.5332,424,156.5332,414,160.5332,418,156.5332" style="stroke:#181818;stroke-width:1.0;"/><line style="stroke:#181818;stroke-width:1.0;" x1="58" x2="420" y1="156.5332" y2="156.5332"/><text fill="#000000" font-family="sans-serif" font-size="13" lengthAdjust="spacing" textLength="138" x="65" y="151.2705">(tcp:)requestUserApps()</text><text fill="#000000" font-family="sans-serif" font-size="13" lengthAdjust="spacing" text-decoration="line-through" textLength="199" x="211" y="151.2705">n&#227;o &#233; um m&#233;todo, meter anota&#231;&#227;o</text><polygon fill="#181818" points="691.5,183.8242,701.5,187.8242,691.5,191.8242,695.5,187.8242" style="stroke:#181818;stroke-width:1.0;"/><line style="stroke:#181818;stroke-width:1.0;stroke-dasharray:2.0,2.0;" x1="436" x2="697.5" y1="187.8242" y2="187.8242"/><text fill="#000000" font-family="sans-serif" font-size="13" lengthAdjust="spacing" textLength="36" x="443" y="182.5615">create</text><rect fill="#E2E2F0" height="32.6211" rx="2.5" ry="2.5" style="stroke:#181818;stroke-width:0.5;" width="137" x="703.5" y="164.5332"/><text fill="#000000" font-family="sans-serif" font-size="14" lengthAdjust="spacing" textLength="123" x="710.5" y="186.6406">:UseCaseController</text><polygon fill="#181818" points="755,227.4453,765,231.4453,755,235.4453,759,231.4453" style="stroke:#181818;stroke-width:1.0;"/><line style="stroke:#181818;stroke-width:1.0;" x1="436" x2="761" y1="231.4453" y2="231.4453"/><text fill="#000000" font-family="sans-serif" font-size="13" lengthAdjust="spacing" textLength="73" x="443" y="226.1826">listMyApps()</text><polygon fill="#181818" points="970,258.7363,980,262.7363,970,266.7363,974,262.7363" style="stroke:#181818;stroke-width:1.0;"/><line style="stroke:#181818;stroke-width:1.0;stroke-dasharray:2.0,2.0;" x1="777" x2="976" y1="262.7363" y2="262.7363"/><text fill="#000000" font-family="sans-serif" font-size="13" lengthAdjust="spacing" textLength="181" x="784" y="257.4736">findAllOfCandidate(currentUser)</text><rect fill="#E2E2F0" height="32.6211" rx="2.5" ry="2.5" style="stroke:#181818;stroke-width:0.5;" width="161" x="982" y="239.4453"/><text fill="#000000" font-family="sans-serif" font-size="14" lengthAdjust="spacing" textLength="147" x="989" y="261.5527">:AppsReportRepository</text><polygon fill="#181818" points="788,302.3574,778,306.3574,788,310.3574,784,306.3574" style="stroke:#181818;stroke-width:1.0;"/><line style="stroke:#181818;stroke-width:1.0;stroke-dasharray:2.0,2.0;" x1="782" x2="1061.5" y1="306.3574" y2="306.3574"/><text fill="#000000" font-family="sans-serif" font-size="13" lengthAdjust="spacing" textLength="193" x="794" y="301.0947">Iterable&lt;AppForCandidateDTOS&gt;</text><polygon fill="#181818" points="447,316.3574,437,320.3574,447,324.3574,443,320.3574" style="stroke:#181818;stroke-width:1.0;"/><line style="stroke:#181818;stroke-width:1.0;stroke-dasharray:2.0,2.0;" x1="441" x2="771" y1="320.3574" y2="320.3574"/><line style="stroke:#181818;stroke-width:1.0;stroke-dasharray:2.0,2.0;" x1="436" x2="478" y1="351.6484" y2="351.6484"/><line style="stroke:#181818;stroke-width:1.0;stroke-dasharray:2.0,2.0;" x1="478" x2="478" y1="351.6484" y2="364.6484"/><line style="stroke:#181818;stroke-width:1.0;stroke-dasharray:2.0,2.0;" x1="437" x2="478" y1="364.6484" y2="364.6484"/><polygon fill="#181818" points="447,360.6484,437,364.6484,447,368.6484,443,364.6484" style="stroke:#181818;stroke-width:1.0;"/><text fill="#000000" font-family="sans-serif" font-size="13" lengthAdjust="spacing" textLength="317" x="443" y="346.3857">PROCESS DATA TO BE SENT ( FAZER UMA NOTA )</text><polygon fill="#181818" points="69,374.6484,59,378.6484,69,382.6484,65,378.6484" style="stroke:#181818;stroke-width:1.0;"/><line style="stroke:#181818;stroke-width:1.0;stroke-dasharray:2.0,2.0;" x1="63" x2="430" y1="378.6484" y2="378.6484"/><!--SRC=[TLJBZXCx4DtxAqgpISAz4M8R8QIG6Iv8C47fi65Nuwua5jrsOpk3mjSWiK2i4L-G7-DKloQ3TBFeI7RLgNDELNcIFZdVSEIQwk23FSHG2-Lu53Dvk6hOVkAz5FbK2KMncVs-UXIH3bo6ByxlQSTL4cEoouWjJYbBJOLyFegtGjUEzne-BOhh6StfFyd4da8i9Kf9bKkPmeui-zALd2KP_KqAYVSIN-EqadX5GbCI02Vzdhy7AiNdYBym59mPjZb4kbeDICkckI9EjDmZre1qTjOrx3DTBVw2HrG7OoRddtIi6Nw0t9m4YXh8TubHaX1CJCxlGgpv_4E9u5Bk70Wwdne41i-H0jdphzBjGP2f5fzW9ImOJniGxOzzegUa0k0N7HYiK9_I5vVj0QuaWRB7t3yaMU5y5TI1Qk2_scxUcebwH91WeqDtMYNWXUPPnzH85QZNRFu2XLbf8-2LzPiSh3nrxhtVe1_mrjt3qzvCCzdsZBEeMbTg9yOUZjrfwTJddpcKmRIfD7ynT6n1qsoRnIpggAGCML5PJ34bS_BgRTkB8VzVEARLs8VSUp-VNp3h6sXwz3aAgITFdg2GZOAGXxlk2XSwVkzENTaBhDPCOzeW1O89BSxE-N9PLUlTE6HJUumHkfJz9K9h6wQOC2fKkXs6tOE- -YLrI3fCdHpatRlpZq2wPhtpBamJm0n0HXse_WRnV5V9S_1z5UB8uNgxBbuOKyhZwYFxmPcBW5xWXLTZK-ZzPhswAGgwNcwNj5tJonigRcwt6DzNouyt6_hmRactQzpD7W6qxLrSLkaM-RWVLZPGWhZ5eFFy2qBLYDZEdPxZshDEtSEA_SREww1zFZfOHVhsq1u-j6i2vQ3LhsoReNWx_jfk4MjYF7Kvzi0racp0AYUDPILKIwe3uOKIF59bc6dBsj4Bw3LGj5L3ovH51-tf7thM8PO0OrnUQahWvDlHn_u6pNSy01nJntniEqhUmi6BHwQt8P9EVI8T5YwxaL5DmvOTeQ09EEH6FAU7jF-nJs90ErQT3NsEujtBLpf_epjzQe3MrOAbiCK6dwJITzxy0G00]--></g></svg>