<?xml version="1.0" encoding="us-ascii" standalone="no"?><svg xmlns="http://www.w3.org/2000/svg" xmlns:xlink="http://www.w3.org/1999/xlink" contentStyleType="text/css" height="1039.2px" preserveAspectRatio="none" style="width:1016px;height:1039px;background:#FFFFFF;" version="1.1" viewBox="0 0 1016 1039" width="1016.4px" zoomAndPan="magnify"><defs/><g><!--cluster Job Opening--><g id="cluster_Job Opening"><rect fill="#BBCCAA" height="262.2" rx="1.5" ry="1.5" style="stroke:#181818;stroke-width:0.6;" width="388.2" x="490.2" y="393"/><text fill="#000000" font-family="sans-serif" font-size="8.4" font-weight="bold" lengthAdjust="spacing" textLength="54" x="657.3" y="403.2645">Job Opening</text></g><!--cluster Job Opening Application--><g id="cluster_Job Opening Application"><rect fill="#AACCBB" height="151.2" rx="1.5" ry="1.5" style="stroke:#181818;stroke-width:0.6;" width="574.2" x="206.4" y="174"/><text fill="#000000" font-family="sans-serif" font-size="8.4" font-weight="bold" lengthAdjust="spacing" textLength="103.2" x="441.9" y="184.2645">Job Opening Application</text></g><!--cluster candidate--><g id="cluster_candidate"><rect fill="#AABBCC" height="151.2" rx="1.5" ry="1.5" style="stroke:#181818;stroke-width:0.6;" width="187.8" x="825" y="174"/><text fill="#000000" font-family="sans-serif" font-size="8.4" font-weight="bold" lengthAdjust="spacing" textLength="41.4" x="898.2" y="184.2645">candidate</text></g><!--cluster Job Opening Process--><g id="cluster_Job Opening Process"><rect fill="#CCBBCC" height="275.4" rx="1.5" ry="1.5" style="stroke:#181818;stroke-width:0.6;" width="238.2" x="720" y="760.2"/><text fill="#000000" font-family="sans-serif" font-size="8.4" font-weight="bold" lengthAdjust="spacing" textLength="90.6" x="793.8" y="770.4645">Job Opening Process</text></g><!--cluster Job Opening Interview--><g id="cluster_Job Opening Interview"><rect fill="#CCBBAA" height="238.2" rx="1.5" ry="1.5" style="stroke:#181818;stroke-width:0.6;" width="187.8" x="4.2" y="4.2"/><text fill="#000000" font-family="sans-serif" font-size="8.4" font-weight="bold" lengthAdjust="spacing" textLength="96" x="50.1" y="14.4645">Job Opening Interview</text></g><!--class JobOpening--><g id="elem_JobOpening"><rect codeLine="7" fill="#F1F1F1" height="41.1258" id="JobOpening" rx="1.5" ry="1.5" style="stroke:#181818;stroke-width:0.3;" width="76.8" x="697.2" y="526.2"/><ellipse cx="706.2" cy="544.3629" fill="#ADD1B2" rx="6.6" ry="6.6" style="stroke:#181818;stroke-width:0.6;"/><path d="M707.8594,541.8879 Q707.9531,541.7566 708.0656,541.691 Q708.1781,541.6254 708.3094,541.6254 Q708.5344,541.6254 708.675,541.7848 Q708.8156,541.9348 708.8156,542.3004 L708.8156,543.1723 Q708.8156,543.5379 708.675,543.6973 Q708.5344,543.8566 708.3094,543.8566 Q708.1031,543.8566 707.9812,543.7348 Q707.8594,543.6223 707.7937,543.3129 Q707.7656,543.0973 707.6531,542.9848 Q707.4563,542.7598 707.0906,542.6285 Q706.725,542.4973 706.35,542.4973 Q705.8906,542.4973 705.5063,542.6941 Q705.1313,542.891 704.8313,543.341 Q704.5406,543.791 704.5406,544.4098 L704.5406,545.066 Q704.5406,545.8066 705.075,546.3035 Q705.6094,546.791 706.5656,546.791 Q707.1281,546.791 707.5219,546.641 Q707.7563,546.5473 708.0094,546.2848 Q708.1687,546.1254 708.2531,546.0785 Q708.3469,546.0316 708.4688,546.0316 Q708.6656,546.0316 708.8156,546.191 Q708.975,546.341 708.975,546.5473 Q708.975,546.7535 708.7688,546.9973 Q708.4688,547.3441 707.9906,547.541 Q707.3438,547.8129 706.5656,547.8129 Q705.6563,547.8129 704.9344,547.4379 Q704.3438,547.1379 703.9313,546.5004 Q703.5188,545.8535 703.5188,545.0848 L703.5188,544.391 Q703.5188,543.5941 703.8844,542.9098 Q704.2594,542.216 704.9156,541.8504 Q705.5719,541.4754 706.3125,541.4754 Q706.7531,541.4754 707.1375,541.5785 Q707.5313,541.6723 707.8594,541.8879 Z " fill="#000000"/><text fill="#000000" font-family="sans-serif" font-size="7.2" font-style="italic" lengthAdjust="spacing" textLength="60" x="713.4" y="536.9695">&#171;Aggregate Root&#187;</text><text fill="#000000" font-family="sans-serif" font-size="7.2" font-style="italic" lengthAdjust="spacing" textLength="26.4" x="730.2" y="546.5461">&#171;Entity&#187;</text><text fill="#000000" font-family="sans-serif" font-size="8.4" lengthAdjust="spacing" textLength="45.6" x="720.6" y="557.4176">JobOpening</text><line style="stroke:#181818;stroke-width:0.3;" x1="697.8" x2="773.4" y1="562.5258" y2="562.5258"/></g><!--class JobReference--><g id="elem_JobReference"><rect codeLine="9" fill="#F1F1F1" height="41.1258" id="JobReference" rx="1.5" ry="1.5" style="stroke:#181818;stroke-width:0.3;" width="72" x="499.8" y="604.2"/><ellipse cx="508.8" cy="622.3629" fill="#ADD1B2" rx="6.6" ry="6.6" style="stroke:#181818;stroke-width:0.6;"/><path d="M510.4594,619.8879 Q510.5531,619.7566 510.6656,619.691 Q510.7781,619.6254 510.9094,619.6254 Q511.1344,619.6254 511.275,619.7848 Q511.4156,619.9348 511.4156,620.3004 L511.4156,621.1723 Q511.4156,621.5379 511.275,621.6973 Q511.1344,621.8566 510.9094,621.8566 Q510.7031,621.8566 510.5812,621.7348 Q510.4594,621.6223 510.3937,621.3129 Q510.3656,621.0973 510.2531,620.9848 Q510.0563,620.7598 509.6906,620.6285 Q509.325,620.4973 508.95,620.4973 Q508.4906,620.4973 508.1063,620.6941 Q507.7313,620.891 507.4313,621.341 Q507.1406,621.791 507.1406,622.4098 L507.1406,623.066 Q507.1406,623.8066 507.675,624.3035 Q508.2094,624.791 509.1656,624.791 Q509.7281,624.791 510.1219,624.641 Q510.3563,624.5473 510.6094,624.2848 Q510.7687,624.1254 510.8531,624.0785 Q510.9469,624.0316 511.0687,624.0316 Q511.2656,624.0316 511.4156,624.191 Q511.575,624.341 511.575,624.5473 Q511.575,624.7535 511.3688,624.9973 Q511.0687,625.3441 510.5906,625.541 Q509.9437,625.8129 509.1656,625.8129 Q508.2562,625.8129 507.5344,625.4379 Q506.9437,625.1379 506.5313,624.5004 Q506.1188,623.8535 506.1188,623.0848 L506.1188,622.391 Q506.1188,621.5941 506.4844,620.9098 Q506.8594,620.216 507.5156,619.8504 Q508.1719,619.4754 508.9125,619.4754 Q509.3531,619.4754 509.7375,619.5785 Q510.1312,619.6723 510.4594,619.8879 Z " fill="#000000"/><text fill="#000000" font-family="sans-serif" font-size="7.2" font-style="italic" lengthAdjust="spacing" textLength="32.4" x="527.4" y="614.9695">&#171;Identity&#187;</text><text fill="#000000" font-family="sans-serif" font-size="7.2" font-style="italic" lengthAdjust="spacing" textLength="51" x="518.1" y="624.5461">&#171;Value Object&#187;</text><text fill="#000000" font-family="sans-serif" font-size="8.4" lengthAdjust="spacing" textLength="52.8" x="517.2" y="635.4176">JobReference</text><line style="stroke:#181818;stroke-width:0.3;" x1="500.4" x2="571.2" y1="640.5258" y2="640.5258"/></g><!--class TitleOrFunction--><g id="elem_TitleOrFunction"><rect codeLine="11" fill="#F1F1F1" height="31.5492" id="TitleOrFunction" rx="1.5" ry="1.5" style="stroke:#181818;stroke-width:0.3;" width="78" x="592.8" y="609"/><ellipse cx="601.8" cy="622.3746" fill="#ADD1B2" rx="6.6" ry="6.6" style="stroke:#181818;stroke-width:0.6;"/><path d="M603.4594,619.8996 Q603.5531,619.7684 603.6656,619.7027 Q603.7781,619.6371 603.9094,619.6371 Q604.1344,619.6371 604.275,619.7965 Q604.4156,619.9465 604.4156,620.3121 L604.4156,621.184 Q604.4156,621.5496 604.275,621.709 Q604.1344,621.8684 603.9094,621.8684 Q603.7031,621.8684 603.5813,621.7465 Q603.4594,621.634 603.3938,621.3246 Q603.3656,621.109 603.2531,620.9965 Q603.0563,620.7715 602.6906,620.6402 Q602.325,620.509 601.95,620.509 Q601.4906,620.509 601.1062,620.7059 Q600.7312,620.9027 600.4313,621.3527 Q600.1406,621.8027 600.1406,622.4215 L600.1406,623.0777 Q600.1406,623.8184 600.675,624.3152 Q601.2094,624.8027 602.1656,624.8027 Q602.7281,624.8027 603.1219,624.6527 Q603.3562,624.559 603.6094,624.2965 Q603.7688,624.1371 603.8531,624.0902 Q603.9469,624.0434 604.0688,624.0434 Q604.2656,624.0434 604.4156,624.2027 Q604.575,624.3527 604.575,624.559 Q604.575,624.7652 604.3688,625.009 Q604.0688,625.3559 603.5906,625.5527 Q602.9438,625.8246 602.1656,625.8246 Q601.2563,625.8246 600.5344,625.4496 Q599.9438,625.1496 599.5313,624.5121 Q599.1188,623.8652 599.1188,623.0965 L599.1188,622.4027 Q599.1188,621.6059 599.4844,620.9215 Q599.8594,620.2277 600.5156,619.8621 Q601.1719,619.4871 601.9125,619.4871 Q602.3531,619.4871 602.7375,619.5902 Q603.1313,619.684 603.4594,619.8996 Z " fill="#000000"/><text fill="#000000" font-family="sans-serif" font-size="7.2" font-style="italic" lengthAdjust="spacing" textLength="51" x="614.1" y="619.7695">&#171;Value Object&#187;</text><text fill="#000000" font-family="sans-serif" font-size="8.4" lengthAdjust="spacing" textLength="58.8" x="610.2" y="630.641">TitleOrFunction</text><line style="stroke:#181818;stroke-width:0.3;" x1="593.4" x2="670.2" y1="635.7492" y2="635.7492"/></g><!--class ContractType--><g id="elem_ContractType"><rect codeLine="13" fill="#F1F1F1" height="63.4711" id="ContractType" rx="1.5" ry="1.5" style="stroke:#181818;stroke-width:0.3;" width="70.8" x="700.2" y="420.6"/><ellipse cx="709.2" cy="438.7629" fill="#EB937F" rx="6.6" ry="6.6" style="stroke:#181818;stroke-width:0.6;"/><path d="M708.5156,439.241 L708.5156,440.741 L711.1125,440.741 L711.1125,440.1879 Q711.1125,439.8223 711.2531,439.6629 Q711.4031,439.5035 711.6281,439.5035 Q711.8531,439.5035 711.9938,439.6629 Q712.1344,439.8223 712.1344,440.1879 L712.1344,441.7629 L707.3344,441.7629 Q706.9594,441.7629 706.8,441.6223 Q706.65,441.4816 706.65,441.2473 Q706.65,441.0223 706.8094,440.8816 Q706.9688,440.741 707.3344,440.741 L707.4938,440.741 L707.4938,436.7473 L707.3344,436.7473 Q706.9594,436.7473 706.8,436.6066 Q706.65,436.466 706.65,436.2316 Q706.65,436.0066 706.8,435.866 Q706.9594,435.7254 707.3344,435.7254 L711.9094,435.7254 L711.9094,437.2816 Q711.9094,437.6473 711.7688,437.8066 Q711.6375,437.9566 711.4031,437.9566 Q711.1781,437.9566 711.0375,437.8066 Q710.8969,437.6473 710.8969,437.2816 L710.8969,436.7473 L708.5156,436.7473 L708.5156,438.2191 L709.4063,438.2191 Q709.4063,437.8254 709.4812,437.7129 Q709.6406,437.4691 709.9219,437.4691 Q710.1469,437.4691 710.2875,437.6285 Q710.4281,437.7785 710.4281,438.1441 L710.4281,439.3254 Q710.4281,439.6535 710.3531,439.766 Q710.1938,440.0004 709.9219,440.0004 Q709.6406,440.0004 709.4812,439.7566 Q709.4063,439.6441 709.4063,439.241 L708.5156,439.241 Z " fill="#000000"/><text fill="#000000" font-family="sans-serif" font-size="7.2" font-style="italic" lengthAdjust="spacing" textLength="49.2" x="718.8" y="431.3695">&#171;Enumerated&#187;</text><text fill="#000000" font-family="sans-serif" font-size="7.2" font-style="italic" lengthAdjust="spacing" textLength="51" x="717.9" y="440.9461">&#171;Value Object&#187;</text><text fill="#000000" font-family="sans-serif" font-size="8.4" lengthAdjust="spacing" textLength="51.6" x="717.6" y="451.8176">ContractType</text><line style="stroke:#181818;stroke-width:0.3;" x1="700.8" x2="770.4" y1="456.9258" y2="456.9258"/><text fill="#000000" font-family="sans-serif" font-size="8.4" lengthAdjust="spacing" textLength="44.4" x="703.8" y="468.3902">FULL_TIME</text><text fill="#000000" font-family="sans-serif" font-size="8.4" lengthAdjust="spacing" textLength="46.2" x="703.8" y="479.5629">PART_TIME</text></g><!--class Mode--><g id="elem_Mode"><rect codeLine="18" fill="#F1F1F1" height="74.6438" id="Mode" rx="1.5" ry="1.5" style="stroke:#181818;stroke-width:0.3;" width="67.8" x="611.1" y="415.2"/><ellipse cx="620.1" cy="433.3629" fill="#EB937F" rx="6.6" ry="6.6" style="stroke:#181818;stroke-width:0.6;"/><path d="M619.4156,433.841 L619.4156,435.341 L622.0125,435.341 L622.0125,434.7879 Q622.0125,434.4223 622.1531,434.2629 Q622.3031,434.1035 622.5281,434.1035 Q622.7531,434.1035 622.8938,434.2629 Q623.0344,434.4223 623.0344,434.7879 L623.0344,436.3629 L618.2344,436.3629 Q617.8594,436.3629 617.7,436.2223 Q617.55,436.0816 617.55,435.8473 Q617.55,435.6223 617.7094,435.4816 Q617.8688,435.341 618.2344,435.341 L618.3938,435.341 L618.3938,431.3473 L618.2344,431.3473 Q617.8594,431.3473 617.7,431.2066 Q617.55,431.066 617.55,430.8316 Q617.55,430.6066 617.7,430.466 Q617.8594,430.3254 618.2344,430.3254 L622.8094,430.3254 L622.8094,431.8816 Q622.8094,432.2473 622.6687,432.4066 Q622.5375,432.5566 622.3031,432.5566 Q622.0781,432.5566 621.9375,432.4066 Q621.7969,432.2473 621.7969,431.8816 L621.7969,431.3473 L619.4156,431.3473 L619.4156,432.8191 L620.3063,432.8191 Q620.3063,432.4254 620.3813,432.3129 Q620.5406,432.0691 620.8219,432.0691 Q621.0469,432.0691 621.1875,432.2285 Q621.3281,432.3785 621.3281,432.7441 L621.3281,433.9254 Q621.3281,434.2535 621.2531,434.366 Q621.0938,434.6004 620.8219,434.6004 Q620.5406,434.6004 620.3813,434.3566 Q620.3063,434.2441 620.3063,433.841 L619.4156,433.841 Z " fill="#000000"/><text fill="#000000" font-family="sans-serif" font-size="7.2" font-style="italic" lengthAdjust="spacing" textLength="49.2" x="628.2" y="425.9695">&#171;Enumerated&#187;</text><text fill="#000000" font-family="sans-serif" font-size="7.2" font-style="italic" lengthAdjust="spacing" textLength="51" x="627.3" y="435.5461">&#171;Value Object&#187;</text><text fill="#000000" font-family="sans-serif" font-size="8.4" lengthAdjust="spacing" textLength="21" x="642.3" y="446.4176">Mode</text><line style="stroke:#181818;stroke-width:0.3;" x1="611.7" x2="678.3" y1="451.5258" y2="451.5258"/><text fill="#000000" font-family="sans-serif" font-size="8.4" lengthAdjust="spacing" textLength="35.4" x="614.7" y="462.9902">REMOTE</text><text fill="#000000" font-family="sans-serif" font-size="8.4" lengthAdjust="spacing" textLength="33" x="614.7" y="474.1629">ON-SITE</text><text fill="#000000" font-family="sans-serif" font-size="8.4" lengthAdjust="spacing" textLength="30" x="614.7" y="485.3355">HYBRID</text></g><!--class VacanciesNumber--><g id="elem_VacanciesNumber"><rect codeLine="25" fill="#F1F1F1" height="31.5492" id="VacanciesNumber" rx="1.5" ry="1.5" style="stroke:#181818;stroke-width:0.3;" width="87.6" x="691.8" y="609"/><ellipse cx="700.8" cy="622.3746" fill="#ADD1B2" rx="6.6" ry="6.6" style="stroke:#181818;stroke-width:0.6;"/><path d="M702.4594,619.8996 Q702.5531,619.7684 702.6656,619.7027 Q702.7781,619.6371 702.9094,619.6371 Q703.1344,619.6371 703.275,619.7965 Q703.4156,619.9465 703.4156,620.3121 L703.4156,621.184 Q703.4156,621.5496 703.275,621.709 Q703.1344,621.8684 702.9094,621.8684 Q702.7031,621.8684 702.5813,621.7465 Q702.4594,621.634 702.3938,621.3246 Q702.3656,621.109 702.2531,620.9965 Q702.0563,620.7715 701.6906,620.6402 Q701.325,620.509 700.95,620.509 Q700.4906,620.509 700.1062,620.7059 Q699.7312,620.9027 699.4313,621.3527 Q699.1406,621.8027 699.1406,622.4215 L699.1406,623.0777 Q699.1406,623.8184 699.675,624.3152 Q700.2094,624.8027 701.1656,624.8027 Q701.7281,624.8027 702.1219,624.6527 Q702.3562,624.559 702.6094,624.2965 Q702.7688,624.1371 702.8531,624.0902 Q702.9469,624.0434 703.0688,624.0434 Q703.2656,624.0434 703.4156,624.2027 Q703.575,624.3527 703.575,624.559 Q703.575,624.7652 703.3688,625.009 Q703.0688,625.3559 702.5906,625.5527 Q701.9438,625.8246 701.1656,625.8246 Q700.2563,625.8246 699.5344,625.4496 Q698.9438,625.1496 698.5313,624.5121 Q698.1188,623.8652 698.1188,623.0965 L698.1188,622.4027 Q698.1188,621.6059 698.4844,620.9215 Q698.8594,620.2277 699.5156,619.8621 Q700.1719,619.4871 700.9125,619.4871 Q701.3531,619.4871 701.7375,619.5902 Q702.1313,619.684 702.4594,619.8996 Z " fill="#000000"/><text fill="#000000" font-family="sans-serif" font-size="7.2" font-style="italic" lengthAdjust="spacing" textLength="51" x="717.9" y="619.7695">&#171;Value Object&#187;</text><text fill="#000000" font-family="sans-serif" font-size="8.4" lengthAdjust="spacing" textLength="68.4" x="709.2" y="630.641">VacanciesNumber</text><line style="stroke:#181818;stroke-width:0.3;" x1="692.4" x2="778.8" y1="635.7492" y2="635.7492"/></g><!--class Description--><g id="elem_Description"><rect codeLine="27" fill="#F1F1F1" height="31.5492" id="Description" rx="1.5" ry="1.5" style="stroke:#181818;stroke-width:0.3;" width="67.8" x="800.7" y="609"/><ellipse cx="809.7" cy="622.3746" fill="#ADD1B2" rx="6.6" ry="6.6" style="stroke:#181818;stroke-width:0.6;"/><path d="M811.3594,619.8996 Q811.4531,619.7684 811.5656,619.7027 Q811.6781,619.6371 811.8094,619.6371 Q812.0344,619.6371 812.175,619.7965 Q812.3156,619.9465 812.3156,620.3121 L812.3156,621.184 Q812.3156,621.5496 812.175,621.709 Q812.0344,621.8684 811.8094,621.8684 Q811.6031,621.8684 811.4812,621.7465 Q811.3594,621.634 811.2937,621.3246 Q811.2656,621.109 811.1531,620.9965 Q810.9563,620.7715 810.5906,620.6402 Q810.225,620.509 809.85,620.509 Q809.3906,620.509 809.0063,620.7059 Q808.6313,620.9027 808.3313,621.3527 Q808.0406,621.8027 808.0406,622.4215 L808.0406,623.0777 Q808.0406,623.8184 808.575,624.3152 Q809.1094,624.8027 810.0656,624.8027 Q810.6281,624.8027 811.0219,624.6527 Q811.2563,624.559 811.5094,624.2965 Q811.6687,624.1371 811.7531,624.0902 Q811.8469,624.0434 811.9688,624.0434 Q812.1656,624.0434 812.3156,624.2027 Q812.475,624.3527 812.475,624.559 Q812.475,624.7652 812.2688,625.009 Q811.9688,625.3559 811.4906,625.5527 Q810.8438,625.8246 810.0656,625.8246 Q809.1563,625.8246 808.4344,625.4496 Q807.8438,625.1496 807.4313,624.5121 Q807.0188,623.8652 807.0188,623.0965 L807.0188,622.4027 Q807.0188,621.6059 807.3844,620.9215 Q807.7594,620.2277 808.4156,619.8621 Q809.0719,619.4871 809.8125,619.4871 Q810.2531,619.4871 810.6375,619.5902 Q811.0313,619.684 811.3594,619.8996 Z " fill="#000000"/><text fill="#000000" font-family="sans-serif" font-size="7.2" font-style="italic" lengthAdjust="spacing" textLength="51" x="816.9" y="619.7695">&#171;Value Object&#187;</text><text fill="#000000" font-family="sans-serif" font-size="8.4" lengthAdjust="spacing" textLength="42.6" x="821.1" y="630.641">Description</text><line style="stroke:#181818;stroke-width:0.3;" x1="801.3" x2="867.9" y1="635.7492" y2="635.7492"/></g><!--class Application--><g id="elem_Application"><rect codeLine="34" fill="#F1F1F1" height="41.1258" id="Application" rx="1.5" ry="1.5" style="stroke:#181818;stroke-width:0.3;" width="76.8" x="487.8" y="196.2"/><ellipse cx="496.8" cy="214.3629" fill="#ADD1B2" rx="6.6" ry="6.6" style="stroke:#181818;stroke-width:0.6;"/><path d="M498.4594,211.8879 Q498.5531,211.7566 498.6656,211.691 Q498.7781,211.6254 498.9094,211.6254 Q499.1344,211.6254 499.275,211.7848 Q499.4156,211.9348 499.4156,212.3004 L499.4156,213.1723 Q499.4156,213.5379 499.275,213.6973 Q499.1344,213.8566 498.9094,213.8566 Q498.7031,213.8566 498.5812,213.7348 Q498.4594,213.6223 498.3937,213.3129 Q498.3656,213.0973 498.2531,212.9848 Q498.0563,212.7598 497.6906,212.6285 Q497.325,212.4973 496.95,212.4973 Q496.4906,212.4973 496.1063,212.6941 Q495.7313,212.891 495.4313,213.341 Q495.1406,213.791 495.1406,214.4098 L495.1406,215.066 Q495.1406,215.8066 495.675,216.3035 Q496.2094,216.791 497.1656,216.791 Q497.7281,216.791 498.1219,216.641 Q498.3563,216.5473 498.6094,216.2848 Q498.7687,216.1254 498.8531,216.0785 Q498.9469,216.0316 499.0687,216.0316 Q499.2656,216.0316 499.4156,216.191 Q499.575,216.341 499.575,216.5473 Q499.575,216.7535 499.3688,216.9973 Q499.0687,217.3441 498.5906,217.541 Q497.9437,217.8129 497.1656,217.8129 Q496.2562,217.8129 495.5344,217.4379 Q494.9437,217.1379 494.5313,216.5004 Q494.1188,215.8535 494.1188,215.0848 L494.1188,214.391 Q494.1188,213.5941 494.4844,212.9098 Q494.8594,212.216 495.5156,211.8504 Q496.1719,211.4754 496.9125,211.4754 Q497.3531,211.4754 497.7375,211.5785 Q498.1312,211.6723 498.4594,211.8879 Z " fill="#000000"/><text fill="#000000" font-family="sans-serif" font-size="7.2" font-style="italic" lengthAdjust="spacing" textLength="60" x="504" y="206.9695">&#171;Aggregate Root&#187;</text><text fill="#000000" font-family="sans-serif" font-size="7.2" font-style="italic" lengthAdjust="spacing" textLength="26.4" x="520.8" y="216.5461">&#171;Entity&#187;</text><text fill="#000000" font-family="sans-serif" font-size="8.4" lengthAdjust="spacing" textLength="41.4" x="513.3" y="227.4176">Application</text><line style="stroke:#181818;stroke-width:0.3;" x1="488.4" x2="564" y1="232.5258" y2="232.5258"/></g><!--class ApplicationId--><g id="elem_ApplicationId"><rect codeLine="36" fill="#F1F1F1" height="41.1258" id="ApplicationId" rx="1.5" ry="1.5" style="stroke:#181818;stroke-width:0.3;" width="67.8" x="216.3" y="274.2"/><ellipse cx="225.3" cy="292.3629" fill="#ADD1B2" rx="6.6" ry="6.6" style="stroke:#181818;stroke-width:0.6;"/><path d="M226.9594,289.8879 Q227.0531,289.7566 227.1656,289.691 Q227.2781,289.6254 227.4094,289.6254 Q227.6344,289.6254 227.775,289.7848 Q227.9156,289.9348 227.9156,290.3004 L227.9156,291.1723 Q227.9156,291.5379 227.775,291.6973 Q227.6344,291.8566 227.4094,291.8566 Q227.2031,291.8566 227.0812,291.7348 Q226.9594,291.6223 226.8937,291.3129 Q226.8656,291.0973 226.7531,290.9848 Q226.5563,290.7598 226.1906,290.6285 Q225.825,290.4973 225.45,290.4973 Q224.9906,290.4973 224.6063,290.6941 Q224.2313,290.891 223.9313,291.341 Q223.6406,291.791 223.6406,292.4098 L223.6406,293.066 Q223.6406,293.8066 224.175,294.3035 Q224.7094,294.791 225.6656,294.791 Q226.2281,294.791 226.6219,294.641 Q226.8563,294.5473 227.1094,294.2848 Q227.2687,294.1254 227.3531,294.0785 Q227.4469,294.0316 227.5688,294.0316 Q227.7656,294.0316 227.9156,294.191 Q228.075,294.341 228.075,294.5473 Q228.075,294.7535 227.8688,294.9973 Q227.5688,295.3441 227.0906,295.541 Q226.4438,295.8129 225.6656,295.8129 Q224.7563,295.8129 224.0344,295.4379 Q223.4438,295.1379 223.0313,294.5004 Q222.6188,293.8535 222.6188,293.0848 L222.6188,292.391 Q222.6188,291.5941 222.9844,290.9098 Q223.3594,290.216 224.0156,289.8504 Q224.6719,289.4754 225.4125,289.4754 Q225.8531,289.4754 226.2375,289.5785 Q226.6313,289.6723 226.9594,289.8879 Z " fill="#000000"/><text fill="#000000" font-family="sans-serif" font-size="7.2" font-style="italic" lengthAdjust="spacing" textLength="32.4" x="241.8" y="284.9695">&#171;Identity&#187;</text><text fill="#000000" font-family="sans-serif" font-size="7.2" font-style="italic" lengthAdjust="spacing" textLength="51" x="232.5" y="294.5461">&#171;Value Object&#187;</text><text fill="#000000" font-family="sans-serif" font-size="8.4" lengthAdjust="spacing" textLength="48" x="234" y="305.4176">ApplicationId</text><line style="stroke:#181818;stroke-width:0.3;" x1="216.9" x2="283.5" y1="310.5258" y2="310.5258"/></g><!--class AttachedEmail--><g id="elem_AttachedEmail"><rect codeLine="38" fill="#F1F1F1" height="31.5492" id="AttachedEmail" rx="1.5" ry="1.5" style="stroke:#181818;stroke-width:0.3;" width="73.2" x="305.4" y="279"/><ellipse cx="314.4" cy="292.3746" fill="#ADD1B2" rx="6.6" ry="6.6" style="stroke:#181818;stroke-width:0.6;"/><path d="M316.0594,289.8996 Q316.1531,289.7684 316.2656,289.7027 Q316.3781,289.6371 316.5094,289.6371 Q316.7344,289.6371 316.875,289.7965 Q317.0156,289.9465 317.0156,290.3121 L317.0156,291.184 Q317.0156,291.5496 316.875,291.709 Q316.7344,291.8684 316.5094,291.8684 Q316.3031,291.8684 316.1813,291.7465 Q316.0594,291.634 315.9938,291.3246 Q315.9656,291.109 315.8531,290.9965 Q315.6563,290.7715 315.2906,290.6402 Q314.925,290.509 314.55,290.509 Q314.0906,290.509 313.7063,290.7059 Q313.3313,290.9027 313.0313,291.3527 Q312.7406,291.8027 312.7406,292.4215 L312.7406,293.0777 Q312.7406,293.8184 313.275,294.3152 Q313.8094,294.8027 314.7656,294.8027 Q315.3281,294.8027 315.7219,294.6527 Q315.9563,294.559 316.2094,294.2965 Q316.3688,294.1371 316.4531,294.0902 Q316.5469,294.0434 316.6688,294.0434 Q316.8656,294.0434 317.0156,294.2027 Q317.175,294.3527 317.175,294.559 Q317.175,294.7652 316.9688,295.009 Q316.6688,295.3559 316.1906,295.5527 Q315.5438,295.8246 314.7656,295.8246 Q313.8563,295.8246 313.1344,295.4496 Q312.5438,295.1496 312.1312,294.5121 Q311.7188,293.8652 311.7188,293.0965 L311.7188,292.4027 Q311.7188,291.6059 312.0844,290.9215 Q312.4594,290.2277 313.1156,289.8621 Q313.7719,289.4871 314.5125,289.4871 Q314.9531,289.4871 315.3375,289.5902 Q315.7313,289.684 316.0594,289.8996 Z " fill="#000000"/><text fill="#000000" font-family="sans-serif" font-size="7.2" font-style="italic" lengthAdjust="spacing" textLength="51" x="324.3" y="289.7695">&#171;Value Object&#187;</text><text fill="#000000" font-family="sans-serif" font-size="8.4" lengthAdjust="spacing" textLength="54" x="322.8" y="300.641">AttachedEmail</text><line style="stroke:#181818;stroke-width:0.3;" x1="306" x2="378" y1="305.7492" y2="305.7492"/></g><!--class AttachedFile--><g id="elem_AttachedFile"><rect codeLine="40" fill="#F1F1F1" height="31.5492" id="AttachedFile" rx="1.5" ry="1.5" style="stroke:#181818;stroke-width:0.3;" width="67.8" x="399.9" y="279"/><ellipse cx="408.9" cy="292.3746" fill="#ADD1B2" rx="6.6" ry="6.6" style="stroke:#181818;stroke-width:0.6;"/><path d="M410.5594,289.8996 Q410.6531,289.7684 410.7656,289.7027 Q410.8781,289.6371 411.0094,289.6371 Q411.2344,289.6371 411.375,289.7965 Q411.5156,289.9465 411.5156,290.3121 L411.5156,291.184 Q411.5156,291.5496 411.375,291.709 Q411.2344,291.8684 411.0094,291.8684 Q410.8031,291.8684 410.6813,291.7465 Q410.5594,291.634 410.4938,291.3246 Q410.4656,291.109 410.3531,290.9965 Q410.1563,290.7715 409.7906,290.6402 Q409.425,290.509 409.05,290.509 Q408.5906,290.509 408.2063,290.7059 Q407.8313,290.9027 407.5313,291.3527 Q407.2406,291.8027 407.2406,292.4215 L407.2406,293.0777 Q407.2406,293.8184 407.775,294.3152 Q408.3094,294.8027 409.2656,294.8027 Q409.8281,294.8027 410.2219,294.6527 Q410.4563,294.559 410.7094,294.2965 Q410.8688,294.1371 410.9531,294.0902 Q411.0469,294.0434 411.1688,294.0434 Q411.3656,294.0434 411.5156,294.2027 Q411.675,294.3527 411.675,294.559 Q411.675,294.7652 411.4688,295.009 Q411.1688,295.3559 410.6906,295.5527 Q410.0438,295.8246 409.2656,295.8246 Q408.3563,295.8246 407.6344,295.4496 Q407.0438,295.1496 406.6312,294.5121 Q406.2188,293.8652 406.2188,293.0965 L406.2188,292.4027 Q406.2188,291.6059 406.5844,290.9215 Q406.9594,290.2277 407.6156,289.8621 Q408.2719,289.4871 409.0125,289.4871 Q409.4531,289.4871 409.8375,289.5902 Q410.2313,289.684 410.5594,289.8996 Z " fill="#000000"/><text fill="#000000" font-family="sans-serif" font-size="7.2" font-style="italic" lengthAdjust="spacing" textLength="51" x="416.1" y="289.7695">&#171;Value Object&#187;</text><text fill="#000000" font-family="sans-serif" font-size="8.4" lengthAdjust="spacing" textLength="47.4" x="417.9" y="300.641">AttachedFile</text><line style="stroke:#181818;stroke-width:0.3;" x1="400.5" x2="467.1" y1="305.7492" y2="305.7492"/></g><!--class ApplicatorData--><g id="elem_ApplicatorData"><rect codeLine="42" fill="#F1F1F1" height="31.5492" id="ApplicatorData" rx="1.5" ry="1.5" style="stroke:#181818;stroke-width:0.3;" width="75" x="488.7" y="279"/><ellipse cx="497.7" cy="292.3746" fill="#ADD1B2" rx="6.6" ry="6.6" style="stroke:#181818;stroke-width:0.6;"/><path d="M499.3594,289.8996 Q499.4531,289.7684 499.5656,289.7027 Q499.6781,289.6371 499.8094,289.6371 Q500.0344,289.6371 500.175,289.7965 Q500.3156,289.9465 500.3156,290.3121 L500.3156,291.184 Q500.3156,291.5496 500.175,291.709 Q500.0344,291.8684 499.8094,291.8684 Q499.6031,291.8684 499.4813,291.7465 Q499.3594,291.634 499.2938,291.3246 Q499.2656,291.109 499.1531,290.9965 Q498.9562,290.7715 498.5906,290.6402 Q498.225,290.509 497.85,290.509 Q497.3906,290.509 497.0062,290.7059 Q496.6312,290.9027 496.3312,291.3527 Q496.0406,291.8027 496.0406,292.4215 L496.0406,293.0777 Q496.0406,293.8184 496.575,294.3152 Q497.1094,294.8027 498.0656,294.8027 Q498.6281,294.8027 499.0219,294.6527 Q499.2562,294.559 499.5094,294.2965 Q499.6688,294.1371 499.7531,294.0902 Q499.8469,294.0434 499.9688,294.0434 Q500.1656,294.0434 500.3156,294.2027 Q500.475,294.3527 500.475,294.559 Q500.475,294.7652 500.2687,295.009 Q499.9688,295.3559 499.4906,295.5527 Q498.8438,295.8246 498.0656,295.8246 Q497.1563,295.8246 496.4344,295.4496 Q495.8438,295.1496 495.4313,294.5121 Q495.0187,293.8652 495.0187,293.0965 L495.0187,292.4027 Q495.0187,291.6059 495.3844,290.9215 Q495.7594,290.2277 496.4156,289.8621 Q497.0719,289.4871 497.8125,289.4871 Q498.2531,289.4871 498.6375,289.5902 Q499.0313,289.684 499.3594,289.8996 Z " fill="#000000"/><text fill="#000000" font-family="sans-serif" font-size="7.2" font-style="italic" lengthAdjust="spacing" textLength="51" x="508.5" y="289.7695">&#171;Value Object&#187;</text><text fill="#000000" font-family="sans-serif" font-size="8.4" lengthAdjust="spacing" textLength="55.8" x="506.1" y="300.641">ApplicatorData</text><line style="stroke:#181818;stroke-width:0.3;" x1="489.3" x2="563.1" y1="305.7492" y2="305.7492"/></g><!--class ApplicationStatus--><g id="elem_ApplicationStatus"><rect codeLine="44" fill="#F1F1F1" height="31.5492" id="ApplicationStatus" rx="1.5" ry="1.5" style="stroke:#181818;stroke-width:0.3;" width="84.6" x="584.7" y="279"/><ellipse cx="593.7" cy="292.3746" fill="#ADD1B2" rx="6.6" ry="6.6" style="stroke:#181818;stroke-width:0.6;"/><path d="M595.3594,289.8996 Q595.4531,289.7684 595.5656,289.7027 Q595.6781,289.6371 595.8094,289.6371 Q596.0344,289.6371 596.175,289.7965 Q596.3156,289.9465 596.3156,290.3121 L596.3156,291.184 Q596.3156,291.5496 596.175,291.709 Q596.0344,291.8684 595.8094,291.8684 Q595.6031,291.8684 595.4812,291.7465 Q595.3594,291.634 595.2937,291.3246 Q595.2656,291.109 595.1531,290.9965 Q594.9563,290.7715 594.5906,290.6402 Q594.225,290.509 593.85,290.509 Q593.3906,290.509 593.0063,290.7059 Q592.6313,290.9027 592.3313,291.3527 Q592.0406,291.8027 592.0406,292.4215 L592.0406,293.0777 Q592.0406,293.8184 592.575,294.3152 Q593.1094,294.8027 594.0656,294.8027 Q594.6281,294.8027 595.0219,294.6527 Q595.2563,294.559 595.5094,294.2965 Q595.6687,294.1371 595.7531,294.0902 Q595.8469,294.0434 595.9688,294.0434 Q596.1656,294.0434 596.3156,294.2027 Q596.475,294.3527 596.475,294.559 Q596.475,294.7652 596.2688,295.009 Q595.9688,295.3559 595.4906,295.5527 Q594.8438,295.8246 594.0656,295.8246 Q593.1563,295.8246 592.4344,295.4496 Q591.8438,295.1496 591.4313,294.5121 Q591.0188,293.8652 591.0188,293.0965 L591.0188,292.4027 Q591.0188,291.6059 591.3844,290.9215 Q591.7594,290.2277 592.4156,289.8621 Q593.0719,289.4871 593.8125,289.4871 Q594.2531,289.4871 594.6375,289.5902 Q595.0313,289.684 595.3594,289.8996 Z " fill="#000000"/><text fill="#000000" font-family="sans-serif" font-size="7.2" font-style="italic" lengthAdjust="spacing" textLength="51" x="609.3" y="289.7695">&#171;Value Object&#187;</text><text fill="#000000" font-family="sans-serif" font-size="8.4" lengthAdjust="spacing" textLength="65.4" x="602.1" y="300.641">ApplicationStatus</text><line style="stroke:#181818;stroke-width:0.3;" x1="585.3" x2="668.7" y1="305.7492" y2="305.7492"/></g><!--class ApplicationRank--><g id="elem_ApplicationRank"><rect codeLine="46" fill="#F1F1F1" height="31.5492" id="ApplicationRank" rx="1.5" ry="1.5" style="stroke:#181818;stroke-width:0.3;" width="80.4" x="690.6" y="279"/><ellipse cx="699.6" cy="292.3746" fill="#ADD1B2" rx="6.6" ry="6.6" style="stroke:#181818;stroke-width:0.6;"/><path d="M701.2594,289.8996 Q701.3531,289.7684 701.4656,289.7027 Q701.5781,289.6371 701.7094,289.6371 Q701.9344,289.6371 702.075,289.7965 Q702.2156,289.9465 702.2156,290.3121 L702.2156,291.184 Q702.2156,291.5496 702.075,291.709 Q701.9344,291.8684 701.7094,291.8684 Q701.5031,291.8684 701.3813,291.7465 Q701.2594,291.634 701.1938,291.3246 Q701.1656,291.109 701.0531,290.9965 Q700.8562,290.7715 700.4906,290.6402 Q700.125,290.509 699.75,290.509 Q699.2906,290.509 698.9063,290.7059 Q698.5313,290.9027 698.2312,291.3527 Q697.9406,291.8027 697.9406,292.4215 L697.9406,293.0777 Q697.9406,293.8184 698.475,294.3152 Q699.0094,294.8027 699.9656,294.8027 Q700.5281,294.8027 700.9219,294.6527 Q701.1563,294.559 701.4094,294.2965 Q701.5688,294.1371 701.6531,294.0902 Q701.7469,294.0434 701.8688,294.0434 Q702.0656,294.0434 702.2156,294.2027 Q702.375,294.3527 702.375,294.559 Q702.375,294.7652 702.1687,295.009 Q701.8688,295.3559 701.3906,295.5527 Q700.7438,295.8246 699.9656,295.8246 Q699.0563,295.8246 698.3344,295.4496 Q697.7438,295.1496 697.3313,294.5121 Q696.9187,293.8652 696.9187,293.0965 L696.9187,292.4027 Q696.9187,291.6059 697.2844,290.9215 Q697.6594,290.2277 698.3156,289.8621 Q698.9719,289.4871 699.7125,289.4871 Q700.1531,289.4871 700.5375,289.5902 Q700.9313,289.684 701.2594,289.8996 Z " fill="#000000"/><text fill="#000000" font-family="sans-serif" font-size="7.2" font-style="italic" lengthAdjust="spacing" textLength="51" x="713.1" y="289.7695">&#171;Value Object&#187;</text><text fill="#000000" font-family="sans-serif" font-size="8.4" lengthAdjust="spacing" textLength="61.2" x="708" y="300.641">ApplicationRank</text><line style="stroke:#181818;stroke-width:0.3;" x1="691.2" x2="770.4" y1="305.7492" y2="305.7492"/></g><!--class Candidate--><g id="elem_Candidate"><rect codeLine="52" fill="#F1F1F1" height="41.1258" id="Candidate" rx="1.5" ry="1.5" style="stroke:#181818;stroke-width:0.3;" width="76.8" x="834.6" y="196.2"/><ellipse cx="843.6" cy="214.3629" fill="#ADD1B2" rx="6.6" ry="6.6" style="stroke:#181818;stroke-width:0.6;"/><path d="M845.2594,211.8879 Q845.3531,211.7566 845.4656,211.691 Q845.5781,211.6254 845.7094,211.6254 Q845.9344,211.6254 846.075,211.7848 Q846.2156,211.9348 846.2156,212.3004 L846.2156,213.1723 Q846.2156,213.5379 846.075,213.6973 Q845.9344,213.8566 845.7094,213.8566 Q845.5031,213.8566 845.3813,213.7348 Q845.2594,213.6223 845.1938,213.3129 Q845.1656,213.0973 845.0531,212.9848 Q844.8562,212.7598 844.4906,212.6285 Q844.125,212.4973 843.75,212.4973 Q843.2906,212.4973 842.9063,212.6941 Q842.5313,212.891 842.2312,213.341 Q841.9406,213.791 841.9406,214.4098 L841.9406,215.066 Q841.9406,215.8066 842.475,216.3035 Q843.0094,216.791 843.9656,216.791 Q844.5281,216.791 844.9219,216.641 Q845.1563,216.5473 845.4094,216.2848 Q845.5688,216.1254 845.6531,216.0785 Q845.7469,216.0316 845.8688,216.0316 Q846.0656,216.0316 846.2156,216.191 Q846.375,216.341 846.375,216.5473 Q846.375,216.7535 846.1687,216.9973 Q845.8688,217.3441 845.3906,217.541 Q844.7438,217.8129 843.9656,217.8129 Q843.0563,217.8129 842.3344,217.4379 Q841.7438,217.1379 841.3313,216.5004 Q840.9187,215.8535 840.9187,215.0848 L840.9187,214.391 Q840.9187,213.5941 841.2844,212.9098 Q841.6594,212.216 842.3156,211.8504 Q842.9719,211.4754 843.7125,211.4754 Q844.1531,211.4754 844.5375,211.5785 Q844.9313,211.6723 845.2594,211.8879 Z " fill="#000000"/><text fill="#000000" font-family="sans-serif" font-size="7.2" font-style="italic" lengthAdjust="spacing" textLength="60" x="850.8" y="206.9695">&#171;Aggregate Root&#187;</text><text fill="#000000" font-family="sans-serif" font-size="7.2" font-style="italic" lengthAdjust="spacing" textLength="26.4" x="867.6" y="216.5461">&#171;Entity&#187;</text><text fill="#000000" font-family="sans-serif" font-size="8.4" lengthAdjust="spacing" textLength="39" x="861.3" y="227.4176">Candidate</text><line style="stroke:#181818;stroke-width:0.3;" x1="835.2" x2="910.8" y1="232.5258" y2="232.5258"/></g><!--class CandidateId--><g id="elem_CandidateId"><rect codeLine="53" fill="#F1F1F1" height="41.1258" id="CandidateId" rx="1.5" ry="1.5" style="stroke:#181818;stroke-width:0.3;" width="67.8" x="834.9" y="274.2"/><ellipse cx="843.9" cy="292.3629" fill="#ADD1B2" rx="6.6" ry="6.6" style="stroke:#181818;stroke-width:0.6;"/><path d="M845.5594,289.8879 Q845.6531,289.7566 845.7656,289.691 Q845.8781,289.6254 846.0094,289.6254 Q846.2344,289.6254 846.375,289.7848 Q846.5156,289.9348 846.5156,290.3004 L846.5156,291.1723 Q846.5156,291.5379 846.375,291.6973 Q846.2344,291.8566 846.0094,291.8566 Q845.8031,291.8566 845.6813,291.7348 Q845.5594,291.6223 845.4938,291.3129 Q845.4656,291.0973 845.3531,290.9848 Q845.1563,290.7598 844.7906,290.6285 Q844.425,290.4973 844.05,290.4973 Q843.5906,290.4973 843.2063,290.6941 Q842.8313,290.891 842.5313,291.341 Q842.2406,291.791 842.2406,292.4098 L842.2406,293.066 Q842.2406,293.8066 842.775,294.3035 Q843.3094,294.791 844.2656,294.791 Q844.8281,294.791 845.2219,294.641 Q845.4563,294.5473 845.7094,294.2848 Q845.8688,294.1254 845.9531,294.0785 Q846.0469,294.0316 846.1687,294.0316 Q846.3656,294.0316 846.5156,294.191 Q846.675,294.341 846.675,294.5473 Q846.675,294.7535 846.4688,294.9973 Q846.1687,295.3441 845.6906,295.541 Q845.0437,295.8129 844.2656,295.8129 Q843.3562,295.8129 842.6344,295.4379 Q842.0437,295.1379 841.6313,294.5004 Q841.2188,293.8535 841.2188,293.0848 L841.2188,292.391 Q841.2188,291.5941 841.5844,290.9098 Q841.9594,290.216 842.6156,289.8504 Q843.2719,289.4754 844.0125,289.4754 Q844.4531,289.4754 844.8375,289.5785 Q845.2312,289.6723 845.5594,289.8879 Z " fill="#000000"/><text fill="#000000" font-family="sans-serif" font-size="7.2" font-style="italic" lengthAdjust="spacing" textLength="32.4" x="860.4" y="284.9695">&#171;Identity&#187;</text><text fill="#000000" font-family="sans-serif" font-size="7.2" font-style="italic" lengthAdjust="spacing" textLength="51" x="851.1" y="294.5461">&#171;Value Object&#187;</text><text fill="#000000" font-family="sans-serif" font-size="8.4" lengthAdjust="spacing" textLength="45.6" x="853.8" y="305.4176">CandidateId</text><line style="stroke:#181818;stroke-width:0.3;" x1="835.5" x2="902.1" y1="310.5258" y2="310.5258"/></g><!--class CurriculumVitae--><g id="elem_CurriculumVitae"><rect codeLine="54" fill="#F1F1F1" height="31.5492" id="CurriculumVitae" rx="1.5" ry="1.5" style="stroke:#181818;stroke-width:0.3;" width="79.2" x="924" y="279"/><ellipse cx="933" cy="292.3746" fill="#ADD1B2" rx="6.6" ry="6.6" style="stroke:#181818;stroke-width:0.6;"/><path d="M934.6594,289.8996 Q934.7531,289.7684 934.8656,289.7027 Q934.9781,289.6371 935.1094,289.6371 Q935.3344,289.6371 935.475,289.7965 Q935.6156,289.9465 935.6156,290.3121 L935.6156,291.184 Q935.6156,291.5496 935.475,291.709 Q935.3344,291.8684 935.1094,291.8684 Q934.9031,291.8684 934.7813,291.7465 Q934.6594,291.634 934.5938,291.3246 Q934.5656,291.109 934.4531,290.9965 Q934.2562,290.7715 933.8906,290.6402 Q933.525,290.509 933.15,290.509 Q932.6906,290.509 932.3063,290.7059 Q931.9313,290.9027 931.6312,291.3527 Q931.3406,291.8027 931.3406,292.4215 L931.3406,293.0777 Q931.3406,293.8184 931.875,294.3152 Q932.4094,294.8027 933.3656,294.8027 Q933.9281,294.8027 934.3219,294.6527 Q934.5563,294.559 934.8094,294.2965 Q934.9688,294.1371 935.0531,294.0902 Q935.1469,294.0434 935.2688,294.0434 Q935.4656,294.0434 935.6156,294.2027 Q935.775,294.3527 935.775,294.559 Q935.775,294.7652 935.5687,295.009 Q935.2688,295.3559 934.7906,295.5527 Q934.1438,295.8246 933.3656,295.8246 Q932.4563,295.8246 931.7344,295.4496 Q931.1438,295.1496 930.7312,294.5121 Q930.3187,293.8652 930.3187,293.0965 L930.3187,292.4027 Q930.3187,291.6059 930.6844,290.9215 Q931.0594,290.2277 931.7156,289.8621 Q932.3719,289.4871 933.1125,289.4871 Q933.5531,289.4871 933.9375,289.5902 Q934.3313,289.684 934.6594,289.8996 Z " fill="#000000"/><text fill="#000000" font-family="sans-serif" font-size="7.2" font-style="italic" lengthAdjust="spacing" textLength="51" x="945.9" y="289.7695">&#171;Value Object&#187;</text><text fill="#000000" font-family="sans-serif" font-size="8.4" lengthAdjust="spacing" textLength="60" x="941.4" y="300.641">CurriculumVitae</text><line style="stroke:#181818;stroke-width:0.3;" x1="924.6" x2="1002.6" y1="305.7492" y2="305.7492"/></g><!--class JobOpeningProcess--><g id="elem_JobOpeningProcess"><rect codeLine="60" fill="#F1F1F1" height="41.1258" id="JobOpeningProcess" rx="1.5" ry="1.5" style="stroke:#181818;stroke-width:0.3;" width="95.4" x="852.9" y="782.4"/><ellipse cx="861.9" cy="800.5629" fill="#ADD1B2" rx="6.6" ry="6.6" style="stroke:#181818;stroke-width:0.6;"/><path d="M863.5594,798.0879 Q863.6531,797.9566 863.7656,797.891 Q863.8781,797.8254 864.0094,797.8254 Q864.2344,797.8254 864.375,797.9848 Q864.5156,798.1348 864.5156,798.5004 L864.5156,799.3723 Q864.5156,799.7379 864.375,799.8973 Q864.2344,800.0566 864.0094,800.0566 Q863.8031,800.0566 863.6813,799.9348 Q863.5594,799.8223 863.4938,799.5129 Q863.4656,799.2973 863.3531,799.1848 Q863.1563,798.9598 862.7906,798.8285 Q862.425,798.6973 862.05,798.6973 Q861.5906,798.6973 861.2063,798.8941 Q860.8313,799.091 860.5313,799.541 Q860.2406,799.991 860.2406,800.6098 L860.2406,801.266 Q860.2406,802.0066 860.775,802.5035 Q861.3094,802.991 862.2656,802.991 Q862.8281,802.991 863.2219,802.841 Q863.4563,802.7473 863.7094,802.4848 Q863.8688,802.3254 863.9531,802.2785 Q864.0469,802.2316 864.1687,802.2316 Q864.3656,802.2316 864.5156,802.391 Q864.675,802.541 864.675,802.7473 Q864.675,802.9535 864.4688,803.1973 Q864.1687,803.5441 863.6906,803.741 Q863.0437,804.0129 862.2656,804.0129 Q861.3562,804.0129 860.6344,803.6379 Q860.0437,803.3379 859.6313,802.7004 Q859.2188,802.0535 859.2188,801.2848 L859.2188,800.591 Q859.2188,799.7941 859.5844,799.1098 Q859.9594,798.416 860.6156,798.0504 Q861.2719,797.6754 862.0125,797.6754 Q862.4531,797.6754 862.8375,797.7785 Q863.2312,797.8723 863.5594,798.0879 Z " fill="#000000"/><text fill="#000000" font-family="sans-serif" font-size="7.2" font-style="italic" lengthAdjust="spacing" textLength="60" x="878.4" y="793.1695">&#171;Aggregate Root&#187;</text><text fill="#000000" font-family="sans-serif" font-size="7.2" font-style="italic" lengthAdjust="spacing" textLength="26.4" x="895.2" y="802.7461">&#171;Entity&#187;</text><text fill="#000000" font-family="sans-serif" font-size="8.4" lengthAdjust="spacing" textLength="76.2" x="870.3" y="813.6176">JobOpeningProcess</text><line style="stroke:#181818;stroke-width:0.3;" x1="853.5" x2="947.7" y1="818.7258" y2="818.7258"/></g><!--class JobOpeningProcessId--><g id="elem_JobOpeningProcessId"><rect codeLine="61" fill="#F1F1F1" height="41.1258" id="JobOpeningProcessId" rx="1.5" ry="1.5" style="stroke:#181818;stroke-width:0.3;" width="102" x="729.6" y="782.4"/><ellipse cx="738.6" cy="800.5629" fill="#ADD1B2" rx="6.6" ry="6.6" style="stroke:#181818;stroke-width:0.6;"/><path d="M740.2594,798.0879 Q740.3531,797.9566 740.4656,797.891 Q740.5781,797.8254 740.7094,797.8254 Q740.9344,797.8254 741.075,797.9848 Q741.2156,798.1348 741.2156,798.5004 L741.2156,799.3723 Q741.2156,799.7379 741.075,799.8973 Q740.9344,800.0566 740.7094,800.0566 Q740.5031,800.0566 740.3813,799.9348 Q740.2594,799.8223 740.1938,799.5129 Q740.1656,799.2973 740.0531,799.1848 Q739.8562,798.9598 739.4906,798.8285 Q739.125,798.6973 738.75,798.6973 Q738.2906,798.6973 737.9063,798.8941 Q737.5313,799.091 737.2312,799.541 Q736.9406,799.991 736.9406,800.6098 L736.9406,801.266 Q736.9406,802.0066 737.475,802.5035 Q738.0094,802.991 738.9656,802.991 Q739.5281,802.991 739.9219,802.841 Q740.1563,802.7473 740.4094,802.4848 Q740.5688,802.3254 740.6531,802.2785 Q740.7469,802.2316 740.8688,802.2316 Q741.0656,802.2316 741.2156,802.391 Q741.375,802.541 741.375,802.7473 Q741.375,802.9535 741.1687,803.1973 Q740.8688,803.5441 740.3906,803.741 Q739.7438,804.0129 738.9656,804.0129 Q738.0563,804.0129 737.3344,803.6379 Q736.7438,803.3379 736.3313,802.7004 Q735.9187,802.0535 735.9187,801.2848 L735.9187,800.591 Q735.9187,799.7941 736.2844,799.1098 Q736.6594,798.416 737.3156,798.0504 Q737.9719,797.6754 738.7125,797.6754 Q739.1531,797.6754 739.5375,797.7785 Q739.9313,797.8723 740.2594,798.0879 Z " fill="#000000"/><text fill="#000000" font-family="sans-serif" font-size="7.2" font-style="italic" lengthAdjust="spacing" textLength="32.4" x="772.2" y="793.1695">&#171;Identity&#187;</text><text fill="#000000" font-family="sans-serif" font-size="7.2" font-style="italic" lengthAdjust="spacing" textLength="51" x="762.9" y="802.7461">&#171;Value Object&#187;</text><text fill="#000000" font-family="sans-serif" font-size="8.4" lengthAdjust="spacing" textLength="82.8" x="747" y="813.6176">JobOpeningProcessId</text><line style="stroke:#181818;stroke-width:0.3;" x1="730.2" x2="831" y1="818.7258" y2="818.7258"/></g><!--class Phase--><g id="elem_Phase"><rect codeLine="64" fill="#F1F1F1" height="31.5492" id="Phase" rx="1.5" ry="1.5" style="stroke:#181818;stroke-width:0.3;" width="43.2" x="879" y="860.4"/><ellipse cx="888" cy="873.7746" fill="#ADD1B2" rx="6.6" ry="6.6" style="stroke:#181818;stroke-width:0.6;"/><path d="M889.6594,871.2996 Q889.7531,871.1684 889.8656,871.1027 Q889.9781,871.0371 890.1094,871.0371 Q890.3344,871.0371 890.475,871.1965 Q890.6156,871.3465 890.6156,871.7121 L890.6156,872.584 Q890.6156,872.9496 890.475,873.109 Q890.3344,873.2684 890.1094,873.2684 Q889.9031,873.2684 889.7813,873.1465 Q889.6594,873.034 889.5938,872.7246 Q889.5656,872.509 889.4531,872.3965 Q889.2563,872.1715 888.8906,872.0402 Q888.525,871.909 888.15,871.909 Q887.6906,871.909 887.3063,872.1059 Q886.9313,872.3027 886.6313,872.7527 Q886.3406,873.2027 886.3406,873.8215 L886.3406,874.4777 Q886.3406,875.2184 886.875,875.7152 Q887.4094,876.2027 888.3656,876.2027 Q888.9281,876.2027 889.3219,876.0527 Q889.5563,875.959 889.8094,875.6965 Q889.9688,875.5371 890.0531,875.4902 Q890.1469,875.4434 890.2688,875.4434 Q890.4656,875.4434 890.6156,875.6027 Q890.775,875.7527 890.775,875.959 Q890.775,876.1652 890.5688,876.409 Q890.2688,876.7559 889.7906,876.9527 Q889.1438,877.2246 888.3656,877.2246 Q887.4563,877.2246 886.7344,876.8496 Q886.1438,876.5496 885.7312,875.9121 Q885.3188,875.2652 885.3188,874.4965 L885.3188,873.8027 Q885.3188,873.0059 885.6844,872.3215 Q886.0594,871.6277 886.7156,871.2621 Q887.3719,870.8871 888.1125,870.8871 Q888.5531,870.8871 888.9375,870.9902 Q889.3313,871.084 889.6594,871.2996 Z " fill="#000000"/><text fill="#000000" font-family="sans-serif" font-size="7.2" font-style="italic" lengthAdjust="spacing" textLength="26.4" x="895.2" y="871.1695">&#171;Entity&#187;</text><text fill="#000000" font-family="sans-serif" font-size="8.4" lengthAdjust="spacing" textLength="24" x="896.4" y="882.041">Phase</text><line style="stroke:#181818;stroke-width:0.3;" x1="879.6" x2="921.6" y1="887.1492" y2="887.1492"/></g><!--class PhaseType--><g id="elem_PhaseType"><rect codeLine="66" fill="#F1F1F1" height="96.9891" id="PhaseType" rx="1.5" ry="1.5" style="stroke:#181818;stroke-width:0.3;" width="67.8" x="866.7" y="928.8"/><ellipse cx="875.7" cy="946.9629" fill="#EB937F" rx="6.6" ry="6.6" style="stroke:#181818;stroke-width:0.6;"/><path d="M875.0156,947.441 L875.0156,948.941 L877.6125,948.941 L877.6125,948.3879 Q877.6125,948.0223 877.7531,947.8629 Q877.9031,947.7035 878.1281,947.7035 Q878.3531,947.7035 878.4938,947.8629 Q878.6344,948.0223 878.6344,948.3879 L878.6344,949.9629 L873.8344,949.9629 Q873.4594,949.9629 873.3,949.8223 Q873.15,949.6816 873.15,949.4473 Q873.15,949.2223 873.3094,949.0816 Q873.4688,948.941 873.8344,948.941 L873.9938,948.941 L873.9938,944.9473 L873.8344,944.9473 Q873.4594,944.9473 873.3,944.8066 Q873.15,944.666 873.15,944.4316 Q873.15,944.2066 873.3,944.066 Q873.4594,943.9254 873.8344,943.9254 L878.4094,943.9254 L878.4094,945.4816 Q878.4094,945.8473 878.2688,946.0066 Q878.1375,946.1566 877.9031,946.1566 Q877.6781,946.1566 877.5375,946.0066 Q877.3969,945.8473 877.3969,945.4816 L877.3969,944.9473 L875.0156,944.9473 L875.0156,946.4191 L875.9063,946.4191 Q875.9063,946.0254 875.9812,945.9129 Q876.1406,945.6691 876.4219,945.6691 Q876.6469,945.6691 876.7875,945.8285 Q876.9281,945.9785 876.9281,946.3441 L876.9281,947.5254 Q876.9281,947.8535 876.8531,947.966 Q876.6938,948.2004 876.4219,948.2004 Q876.1406,948.2004 875.9812,947.9566 Q875.9063,947.8441 875.9063,947.441 L875.0156,947.441 Z " fill="#000000"/><text fill="#000000" font-family="sans-serif" font-size="7.2" font-style="italic" lengthAdjust="spacing" textLength="49.2" x="883.8" y="939.5695">&#171;Enumerated&#187;</text><text fill="#000000" font-family="sans-serif" font-size="7.2" font-style="italic" lengthAdjust="spacing" textLength="51" x="882.9" y="949.1461">&#171;Value Object&#187;</text><text fill="#000000" font-family="sans-serif" font-size="8.4" lengthAdjust="spacing" textLength="43.2" x="886.8" y="960.0176">PhaseType</text><line style="stroke:#181818;stroke-width:0.3;" x1="867.3" x2="933.9" y1="965.1258" y2="965.1258"/><text fill="#000000" font-family="sans-serif" font-size="8.4" lengthAdjust="spacing" textLength="53.4" x="870.3" y="976.5902">APPLICATION</text><text fill="#000000" font-family="sans-serif" font-size="8.4" lengthAdjust="spacing" textLength="47.4" x="870.3" y="987.7629">SCREENING</text><text fill="#000000" font-family="sans-serif" font-size="8.4" lengthAdjust="spacing" textLength="49.8" x="870.3" y="998.9355">INTERVIEWS</text><text fill="#000000" font-family="sans-serif" font-size="8.4" lengthAdjust="spacing" textLength="39" x="870.3" y="1010.1082">ANALYSIS</text><text fill="#000000" font-family="sans-serif" font-size="8.4" lengthAdjust="spacing" textLength="32.4" x="870.3" y="1021.2809">RESULT</text></g><!--class JobInterview--><g id="elem_JobInterview"><rect codeLine="76" fill="#F1F1F1" height="41.1258" id="JobInterview" rx="1.5" ry="1.5" style="stroke:#181818;stroke-width:0.3;" width="76.8" x="16.2" y="104.4"/><ellipse cx="25.2" cy="122.5629" fill="#ADD1B2" rx="6.6" ry="6.6" style="stroke:#181818;stroke-width:0.6;"/><path d="M26.8594,120.0879 Q26.9531,119.9566 27.0656,119.891 Q27.1781,119.8254 27.3094,119.8254 Q27.5344,119.8254 27.675,119.9848 Q27.8156,120.1348 27.8156,120.5004 L27.8156,121.3723 Q27.8156,121.7379 27.675,121.8973 Q27.5344,122.0566 27.3094,122.0566 Q27.1031,122.0566 26.9813,121.9348 Q26.8594,121.8223 26.7938,121.5129 Q26.7656,121.2973 26.6531,121.1848 Q26.4563,120.9598 26.0906,120.8285 Q25.725,120.6973 25.35,120.6973 Q24.8906,120.6973 24.5062,120.8941 Q24.1312,121.091 23.8313,121.541 Q23.5406,121.991 23.5406,122.6098 L23.5406,123.266 Q23.5406,124.0066 24.075,124.5035 Q24.6094,124.991 25.5656,124.991 Q26.1281,124.991 26.5219,124.841 Q26.7562,124.7473 27.0094,124.4848 Q27.1688,124.3254 27.2531,124.2785 Q27.3469,124.2316 27.4688,124.2316 Q27.6656,124.2316 27.8156,124.391 Q27.975,124.541 27.975,124.7473 Q27.975,124.9535 27.7688,125.1973 Q27.4688,125.5441 26.9906,125.741 Q26.3438,126.0129 25.5656,126.0129 Q24.6563,126.0129 23.9344,125.6379 Q23.3438,125.3379 22.9313,124.7004 Q22.5188,124.0535 22.5188,123.2848 L22.5188,122.591 Q22.5188,121.7941 22.8844,121.1098 Q23.2594,120.416 23.9156,120.0504 Q24.5719,119.6754 25.3125,119.6754 Q25.7531,119.6754 26.1375,119.7785 Q26.5313,119.8723 26.8594,120.0879 Z " fill="#000000"/><text fill="#000000" font-family="sans-serif" font-size="7.2" font-style="italic" lengthAdjust="spacing" textLength="60" x="32.4" y="115.1695">&#171;Aggregate Root&#187;</text><text fill="#000000" font-family="sans-serif" font-size="7.2" font-style="italic" lengthAdjust="spacing" textLength="26.4" x="49.2" y="124.7461">&#171;Entity&#187;</text><text fill="#000000" font-family="sans-serif" font-size="8.4" lengthAdjust="spacing" textLength="46.2" x="39.3" y="135.6176">JobInterview</text><line style="stroke:#181818;stroke-width:0.3;" x1="16.8" x2="92.4" y1="140.7258" y2="140.7258"/></g><!--class JobInterviewId--><g id="elem_JobInterviewId"><rect codeLine="77" fill="#F1F1F1" height="41.1258" id="JobInterviewId" rx="1.5" ry="1.5" style="stroke:#181818;stroke-width:0.3;" width="72" x="15" y="26.4"/><ellipse cx="24" cy="44.5629" fill="#ADD1B2" rx="6.6" ry="6.6" style="stroke:#181818;stroke-width:0.6;"/><path d="M25.6594,42.0879 Q25.7531,41.9566 25.8656,41.891 Q25.9781,41.8254 26.1094,41.8254 Q26.3344,41.8254 26.475,41.9848 Q26.6156,42.1348 26.6156,42.5004 L26.6156,43.3723 Q26.6156,43.7379 26.475,43.8973 Q26.3344,44.0566 26.1094,44.0566 Q25.9031,44.0566 25.7813,43.9348 Q25.6594,43.8223 25.5938,43.5129 Q25.5656,43.2973 25.4531,43.1848 Q25.2562,42.9598 24.8906,42.8285 Q24.525,42.6973 24.15,42.6973 Q23.6906,42.6973 23.3063,42.8941 Q22.9313,43.091 22.6312,43.541 Q22.3406,43.991 22.3406,44.6098 L22.3406,45.266 Q22.3406,46.0066 22.875,46.5035 Q23.4094,46.991 24.3656,46.991 Q24.9281,46.991 25.3219,46.841 Q25.5563,46.7473 25.8094,46.4848 Q25.9688,46.3254 26.0531,46.2785 Q26.1469,46.2316 26.2688,46.2316 Q26.4656,46.2316 26.6156,46.391 Q26.775,46.541 26.775,46.7473 Q26.775,46.9535 26.5687,47.1973 Q26.2688,47.5441 25.7906,47.741 Q25.1438,48.0129 24.3656,48.0129 Q23.4563,48.0129 22.7344,47.6379 Q22.1438,47.3379 21.7313,46.7004 Q21.3187,46.0535 21.3187,45.2848 L21.3187,44.591 Q21.3187,43.7941 21.6844,43.1098 Q22.0594,42.416 22.7156,42.0504 Q23.3719,41.6754 24.1125,41.6754 Q24.5531,41.6754 24.9375,41.7785 Q25.3313,41.8723 25.6594,42.0879 Z " fill="#000000"/><text fill="#000000" font-family="sans-serif" font-size="7.2" font-style="italic" lengthAdjust="spacing" textLength="32.4" x="42.6" y="37.1695">&#171;Identity&#187;</text><text fill="#000000" font-family="sans-serif" font-size="7.2" font-style="italic" lengthAdjust="spacing" textLength="51" x="33.3" y="46.7461">&#171;Value Object&#187;</text><text fill="#000000" font-family="sans-serif" font-size="8.4" lengthAdjust="spacing" textLength="52.8" x="32.4" y="57.6176">JobInterviewId</text><line style="stroke:#181818;stroke-width:0.3;" x1="15.6" x2="86.4" y1="62.7258" y2="62.7258"/></g><!--class InterviewDate--><g id="elem_InterviewDate"><rect codeLine="78" fill="#F1F1F1" height="31.5492" id="InterviewDate" rx="1.5" ry="1.5" style="stroke:#181818;stroke-width:0.3;" width="70.2" x="108.3" y="31.2"/><ellipse cx="117.3" cy="44.5746" fill="#ADD1B2" rx="6.6" ry="6.6" style="stroke:#181818;stroke-width:0.6;"/><path d="M118.9594,42.0996 Q119.0531,41.9684 119.1656,41.9027 Q119.2781,41.8371 119.4094,41.8371 Q119.6344,41.8371 119.775,41.9965 Q119.9156,42.1465 119.9156,42.5121 L119.9156,43.384 Q119.9156,43.7496 119.775,43.909 Q119.6344,44.0684 119.4094,44.0684 Q119.2031,44.0684 119.0813,43.9465 Q118.9594,43.834 118.8938,43.5246 Q118.8656,43.309 118.7531,43.1965 Q118.5562,42.9715 118.1906,42.8402 Q117.825,42.709 117.45,42.709 Q116.9906,42.709 116.6062,42.9059 Q116.2312,43.1027 115.9312,43.5527 Q115.6406,44.0027 115.6406,44.6215 L115.6406,45.2777 Q115.6406,46.0184 116.175,46.5152 Q116.7094,47.0027 117.6656,47.0027 Q118.2281,47.0027 118.6219,46.8527 Q118.8562,46.759 119.1094,46.4965 Q119.2688,46.3371 119.3531,46.2902 Q119.4469,46.2434 119.5688,46.2434 Q119.7656,46.2434 119.9156,46.4027 Q120.075,46.5527 120.075,46.759 Q120.075,46.9652 119.8687,47.209 Q119.5688,47.5559 119.0906,47.7527 Q118.4438,48.0246 117.6656,48.0246 Q116.7563,48.0246 116.0344,47.6496 Q115.4438,47.3496 115.0313,46.7121 Q114.6187,46.0652 114.6187,45.2965 L114.6187,44.6027 Q114.6187,43.8059 114.9844,43.1215 Q115.3594,42.4277 116.0156,42.0621 Q116.6719,41.6871 117.4125,41.6871 Q117.8531,41.6871 118.2375,41.7902 Q118.6313,41.884 118.9594,42.0996 Z " fill="#000000"/><text fill="#000000" font-family="sans-serif" font-size="7.2" font-style="italic" lengthAdjust="spacing" textLength="51" x="125.7" y="41.9695">&#171;Value Object&#187;</text><text fill="#000000" font-family="sans-serif" font-size="8.4" lengthAdjust="spacing" textLength="51" x="125.7" y="52.841">InterviewDate</text><line style="stroke:#181818;stroke-width:0.3;" x1="108.9" x2="177.9" y1="57.9492" y2="57.9492"/></g><!--class InterviewTime--><g id="elem_InterviewTime"><rect codeLine="79" fill="#F1F1F1" height="31.5492" id="InterviewTime" rx="1.5" ry="1.5" style="stroke:#181818;stroke-width:0.3;" width="70.8" x="13.8" y="201"/><ellipse cx="22.8" cy="214.3746" fill="#ADD1B2" rx="6.6" ry="6.6" style="stroke:#181818;stroke-width:0.6;"/><path d="M24.4594,211.8996 Q24.5531,211.7684 24.6656,211.7027 Q24.7781,211.6371 24.9094,211.6371 Q25.1344,211.6371 25.275,211.7965 Q25.4156,211.9465 25.4156,212.3121 L25.4156,213.184 Q25.4156,213.5496 25.275,213.709 Q25.1344,213.8684 24.9094,213.8684 Q24.7031,213.8684 24.5813,213.7465 Q24.4594,213.634 24.3938,213.3246 Q24.3656,213.109 24.2531,212.9965 Q24.0563,212.7715 23.6906,212.6402 Q23.325,212.509 22.95,212.509 Q22.4906,212.509 22.1063,212.7059 Q21.7313,212.9027 21.4313,213.3527 Q21.1406,213.8027 21.1406,214.4215 L21.1406,215.0777 Q21.1406,215.8184 21.675,216.3152 Q22.2094,216.8027 23.1656,216.8027 Q23.7281,216.8027 24.1219,216.6527 Q24.3563,216.559 24.6094,216.2965 Q24.7688,216.1371 24.8531,216.0902 Q24.9469,216.0434 25.0687,216.0434 Q25.2656,216.0434 25.4156,216.2027 Q25.575,216.3527 25.575,216.559 Q25.575,216.7652 25.3688,217.009 Q25.0687,217.3559 24.5906,217.5527 Q23.9437,217.8246 23.1656,217.8246 Q22.2562,217.8246 21.5344,217.4496 Q20.9437,217.1496 20.5313,216.5121 Q20.1188,215.8652 20.1188,215.0965 L20.1188,214.4027 Q20.1188,213.6059 20.4844,212.9215 Q20.8594,212.2277 21.5156,211.8621 Q22.1719,211.4871 22.9125,211.4871 Q23.3531,211.4871 23.7375,211.5902 Q24.1312,211.684 24.4594,211.8996 Z " fill="#000000"/><text fill="#000000" font-family="sans-serif" font-size="7.2" font-style="italic" lengthAdjust="spacing" textLength="51" x="31.5" y="211.7695">&#171;Value Object&#187;</text><text fill="#000000" font-family="sans-serif" font-size="8.4" lengthAdjust="spacing" textLength="51.6" x="31.2" y="222.641">InterviewTime</text><line style="stroke:#181818;stroke-width:0.3;" x1="14.4" x2="84" y1="227.7492" y2="227.7492"/></g><!--class Score--><g id="elem_Score"><rect codeLine="80" fill="#F1F1F1" height="31.5492" id="Score" rx="1.5" ry="1.5" style="stroke:#181818;stroke-width:0.3;" width="67.8" x="114.3" y="109.2"/><ellipse cx="123.3" cy="122.5746" fill="#ADD1B2" rx="6.6" ry="6.6" style="stroke:#181818;stroke-width:0.6;"/><path d="M124.9594,120.0996 Q125.0531,119.9684 125.1656,119.9027 Q125.2781,119.8371 125.4094,119.8371 Q125.6344,119.8371 125.775,119.9965 Q125.9156,120.1465 125.9156,120.5121 L125.9156,121.384 Q125.9156,121.7496 125.775,121.909 Q125.6344,122.0684 125.4094,122.0684 Q125.2031,122.0684 125.0813,121.9465 Q124.9594,121.834 124.8938,121.5246 Q124.8656,121.309 124.7531,121.1965 Q124.5562,120.9715 124.1906,120.8402 Q123.825,120.709 123.45,120.709 Q122.9906,120.709 122.6062,120.9059 Q122.2312,121.1027 121.9312,121.5527 Q121.6406,122.0027 121.6406,122.6215 L121.6406,123.2777 Q121.6406,124.0184 122.175,124.5152 Q122.7094,125.0027 123.6656,125.0027 Q124.2281,125.0027 124.6219,124.8527 Q124.8562,124.759 125.1094,124.4965 Q125.2688,124.3371 125.3531,124.2902 Q125.4469,124.2434 125.5688,124.2434 Q125.7656,124.2434 125.9156,124.4027 Q126.075,124.5527 126.075,124.759 Q126.075,124.9652 125.8687,125.209 Q125.5688,125.5559 125.0906,125.7527 Q124.4438,126.0246 123.6656,126.0246 Q122.7563,126.0246 122.0344,125.6496 Q121.4438,125.3496 121.0313,124.7121 Q120.6187,124.0652 120.6187,123.2965 L120.6187,122.6027 Q120.6187,121.8059 120.9844,121.1215 Q121.3594,120.4277 122.0156,120.0621 Q122.6719,119.6871 123.4125,119.6871 Q123.8531,119.6871 124.2375,119.7902 Q124.6313,119.884 124.9594,120.0996 Z " fill="#000000"/><text fill="#000000" font-family="sans-serif" font-size="7.2" font-style="italic" lengthAdjust="spacing" textLength="51" x="130.5" y="119.9695">&#171;Value Object&#187;</text><text fill="#000000" font-family="sans-serif" font-size="8.4" lengthAdjust="spacing" textLength="22.2" x="144.9" y="130.841">Score</text><line style="stroke:#181818;stroke-width:0.3;" x1="114.9" x2="181.5" y1="135.9492" y2="135.9492"/></g><!--class InterviewResult--><g id="elem_InterviewResult"><rect codeLine="81" fill="#F1F1F1" height="31.5492" id="InterviewResult" rx="1.5" ry="1.5" style="stroke:#181818;stroke-width:0.3;" width="76.2" x="105.9" y="201"/><ellipse cx="114.9" cy="214.3746" fill="#ADD1B2" rx="6.6" ry="6.6" style="stroke:#181818;stroke-width:0.6;"/><path d="M116.5594,211.8996 Q116.6531,211.7684 116.7656,211.7027 Q116.8781,211.6371 117.0094,211.6371 Q117.2344,211.6371 117.375,211.7965 Q117.5156,211.9465 117.5156,212.3121 L117.5156,213.184 Q117.5156,213.5496 117.375,213.709 Q117.2344,213.8684 117.0094,213.8684 Q116.8031,213.8684 116.6812,213.7465 Q116.5594,213.634 116.4937,213.3246 Q116.4656,213.109 116.3531,212.9965 Q116.1563,212.7715 115.7906,212.6402 Q115.425,212.509 115.05,212.509 Q114.5906,212.509 114.2063,212.7059 Q113.8313,212.9027 113.5313,213.3527 Q113.2406,213.8027 113.2406,214.4215 L113.2406,215.0777 Q113.2406,215.8184 113.775,216.3152 Q114.3094,216.8027 115.2656,216.8027 Q115.8281,216.8027 116.2219,216.6527 Q116.4563,216.559 116.7094,216.2965 Q116.8687,216.1371 116.9531,216.0902 Q117.0469,216.0434 117.1687,216.0434 Q117.3656,216.0434 117.5156,216.2027 Q117.675,216.3527 117.675,216.559 Q117.675,216.7652 117.4688,217.009 Q117.1687,217.3559 116.6906,217.5527 Q116.0437,217.8246 115.2656,217.8246 Q114.3563,217.8246 113.6344,217.4496 Q113.0438,217.1496 112.6313,216.5121 Q112.2188,215.8652 112.2188,215.0965 L112.2188,214.4027 Q112.2188,213.6059 112.5844,212.9215 Q112.9594,212.2277 113.6156,211.8621 Q114.2719,211.4871 115.0125,211.4871 Q115.4531,211.4871 115.8375,211.5902 Q116.2312,211.684 116.5594,211.8996 Z " fill="#000000"/><text fill="#000000" font-family="sans-serif" font-size="7.2" font-style="italic" lengthAdjust="spacing" textLength="51" x="126.3" y="211.7695">&#171;Value Object&#187;</text><text fill="#000000" font-family="sans-serif" font-size="8.4" lengthAdjust="spacing" textLength="57" x="123.3" y="222.641">InterviewResult</text><line style="stroke:#181818;stroke-width:0.3;" x1="106.5" x2="181.5" y1="227.7492" y2="227.7492"/></g><!--reverse link JobInterviewId to JobInterview--><g id="link_JobInterviewId_JobInterview"><path codeLine="85" d="M52.1156,71.4741 C52.6376,82.6761 53.124,92.97 53.646,104.19 " fill="none" id="JobInterviewId-backto-JobInterview" style="stroke:#181818;stroke-width:0.6;"/><polygon fill="#181818" points="51.948,67.878,49.802,73.3839,52.0876,70.8747,54.5968,73.1604,51.948,67.878" style="stroke:#181818;stroke-width:0.6;"/><text fill="#000000" font-family="sans-serif" font-size="7.8" lengthAdjust="spacing" textLength="4.2" x="47.55" y="80.7813">1</text><text fill="#000000" font-family="sans-serif" font-size="7.8" lengthAdjust="spacing" textLength="4.2" x="48.8829" y="97.6528">1</text></g><!--reverse link InterviewDate to JobInterview--><g id="link_InterviewDate_JobInterview"><path codeLine="86" d="M122.923,65.4149 C109.207,77.2769 92.826,91.44 77.886,104.358 " fill="none" id="InterviewDate-backto-JobInterview" style="stroke:#181818;stroke-width:0.6;"/><polygon fill="#181818" points="125.646,63.06,119.9916,64.777,123.3769,65.0224,123.1315,68.4076,125.646,63.06" style="stroke:#181818;stroke-width:0.6;"/><text fill="#000000" font-family="sans-serif" font-size="7.8" lengthAdjust="spacing" textLength="4.2" x="117.3511" y="75.8645">1</text><text fill="#000000" font-family="sans-serif" font-size="7.8" lengthAdjust="spacing" textLength="4.2" x="77.7246" y="97.6916">1</text></g><!--link JobInterview to InterviewTime--><g id="link_JobInterview_InterviewTime"><path codeLine="87" d="M53.4,145.806 C52.416,162.384 51.2444,181.9684 50.3384,197.1544 " fill="none" id="JobInterview-to-InterviewTime" style="stroke:#181818;stroke-width:0.6;"/><polygon fill="#181818" points="50.124,200.748,52.8413,195.5005,50.3027,197.7533,48.0499,195.2147,50.124,200.748" style="stroke:#181818;stroke-width:0.6;"/><text fill="#000000" font-family="sans-serif" font-size="7.8" lengthAdjust="spacing" textLength="4.2" x="48.6328" y="158.697">1</text><text fill="#000000" font-family="sans-serif" font-size="7.8" lengthAdjust="spacing" textLength="4.2" x="45.6668" y="194.3626">1</text></g><!--link JobInterview to Score--><g id="link_JobInterview_Score"><path codeLine="88" d="M93.174,125.1 C100.194,125.1 103.614,125.1 110.64,125.1 " fill="none" id="JobInterview-to-Score" style="stroke:#181818;stroke-width:0.6;"/><polygon fill="#181818" points="114.24,125.1,108.84,122.7,111.24,125.1,108.84,127.5,114.24,125.1" style="stroke:#181818;stroke-width:0.6;"/><text fill="#000000" font-family="sans-serif" font-size="7.8" lengthAdjust="spacing" textLength="4.2" x="97.8769" y="122.7533">1</text><text fill="#000000" font-family="sans-serif" font-size="7.8" lengthAdjust="spacing" textLength="4.2" x="105.1944" y="122.6603">1</text></g><!--link JobInterview to InterviewResult--><g id="link_JobInterview_InterviewResult"><path codeLine="89" d="M74.442,145.806 C90.798,162.384 111.1417,182.9993 126.1237,198.1853 " fill="none" id="JobInterview-to-InterviewResult" style="stroke:#181818;stroke-width:0.6;"/><polygon fill="#181818" points="128.652,200.748,126.568,195.2183,126.5451,198.6124,123.151,198.5894,128.652,200.748" style="stroke:#181818;stroke-width:0.6;"/><text fill="#000000" font-family="sans-serif" font-size="7.8" lengthAdjust="spacing" textLength="4.2" x="73.2914" y="158.697">1</text><text fill="#000000" font-family="sans-serif" font-size="7.8" lengthAdjust="spacing" textLength="4.2" x="120.6352" y="194.3626">1</text></g><!--reverse link JobInterview to Application--><g id="link_JobInterview_Application"><path codeLine="91" d="M96.6526,143.6208 C100.1866,144.8688 100.338,144.816 103.8,145.8 C242.196,185.088 412.704,205.26 487.71,212.772 " fill="none" id="JobInterview-backto-Application" style="stroke:#181818;stroke-width:0.6;"/><polygon fill="#181818" points="93.258,142.422,97.5507,146.4832,96.0868,143.421,99.149,141.9571,93.258,142.422" style="stroke:#181818;stroke-width:0.6;"/><text fill="#000000" font-family="sans-serif" font-size="7.8" lengthAdjust="spacing" textLength="4.2" x="97.7159" y="142.0003">1</text><text fill="#000000" font-family="sans-serif" font-size="7.8" lengthAdjust="spacing" textLength="4.2" x="478.8168" y="209.948">1</text></g><!--link JobOpening to JobReference--><g id="link_JobOpening_JobReference"><path codeLine="96" d="M697.194,561.12 C666.126,572.286 621.33,588.72 582.6,604.2 C579.15,605.58 578.8949,605.6542 575.3249,607.1482 " fill="none" id="JobOpening-to-JobReference" style="stroke:#181818;stroke-width:0.6;"/><polygon fill="#181818" points="572.004,608.538,577.9119,608.6673,574.7714,607.3799,576.0589,604.2394,572.004,608.538" style="stroke:#181818;stroke-width:0.6;"/><text fill="#000000" font-family="sans-serif" font-size="7.8" lengthAdjust="spacing" textLength="4.2" x="688.3105" y="560.4174">1</text><text fill="#000000" font-family="sans-serif" font-size="7.8" lengthAdjust="spacing" textLength="4.2" x="576.6723" y="604.1667">1</text></g><!--link JobOpening to TitleOrFunction--><g id="link_JobOpening_TitleOrFunction"><path codeLine="97" d="M708.33,567.678 C690.846,580.614 671.4141,594.9909 655.3881,606.8469 " fill="none" id="JobOpening-to-TitleOrFunction" style="stroke:#181818;stroke-width:0.6;"/><polygon fill="#181818" points="652.494,608.988,658.2625,607.7058,654.9058,607.2038,655.4078,603.847,652.494,608.988" style="stroke:#181818;stroke-width:0.6;"/><text fill="#000000" font-family="sans-serif" font-size="7.8" lengthAdjust="spacing" textLength="4.2" x="699.082" y="580.5813">1</text><text fill="#000000" font-family="sans-serif" font-size="7.8" lengthAdjust="spacing" textLength="4.2" x="652.8263" y="602.1352">1</text></g><!--reverse link ContractType to JobOpening--><g id="link_ContractType_JobOpening"><path codeLine="98" d="M735.6,487.926 C735.6,501.69 735.6,513.858 735.6,526.044 " fill="none" id="ContractType-backto-JobOpening" style="stroke:#181818;stroke-width:0.6;"/><polygon fill="#181818" points="735.6,484.326,733.2,489.726,735.6,487.326,738,489.726,735.6,484.326" style="stroke:#181818;stroke-width:0.6;"/><text fill="#000000" font-family="sans-serif" font-size="7.8" lengthAdjust="spacing" textLength="4.2" x="731.1441" y="497.274">1</text><text fill="#000000" font-family="sans-serif" font-size="7.8" lengthAdjust="spacing" textLength="4.2" x="731.0128" y="519.5167">1</text></g><!--reverse link Mode to JobOpening--><g id="link_Mode_JobOpening"><path codeLine="99" d="M681.5032,490.5874 C693.9532,503.4154 705.114,514.908 715.902,526.014 " fill="none" id="Mode-backto-JobOpening" style="stroke:#181818;stroke-width:0.6;"/><polygon fill="#181818" points="678.996,488.004,681.0346,493.5505,681.0854,490.1568,684.4791,490.2076,678.996,488.004" style="stroke:#181818;stroke-width:0.6;"/><text fill="#000000" font-family="sans-serif" font-size="7.8" lengthAdjust="spacing" textLength="4.2" x="683.6208" y="490.1249">1</text><text fill="#000000" font-family="sans-serif" font-size="7.8" lengthAdjust="spacing" textLength="4.2" x="707.683" y="519.4812">1</text></g><!--link JobOpening to Description--><g id="link_JobOpening_Description"><path codeLine="100" d="M761.61,567.678 C778.284,580.614 796.7336,594.9253 812.0156,606.7813 " fill="none" id="JobOpening-to-Description" style="stroke:#181818;stroke-width:0.6;"/><polygon fill="#181818" points="814.86,608.988,812.0646,603.7817,812.4897,607.1491,809.1223,607.5742,814.86,608.988" style="stroke:#181818;stroke-width:0.6;"/><text fill="#000000" font-family="sans-serif" font-size="7.8" lengthAdjust="spacing" textLength="4.2" x="761.5195" y="580.5813">1</text><text fill="#000000" font-family="sans-serif" font-size="7.8" lengthAdjust="spacing" textLength="4.2" x="805.3365" y="602.1352">1</text></g><!--link JobOpening to VacanciesNumber--><g id="link_JobOpening_VacanciesNumber"><path codeLine="101" d="M735.6,567.678 C735.6,580.566 735.6,593.418 735.6,605.268 " fill="none" id="JobOpening-to-VacanciesNumber" style="stroke:#181818;stroke-width:0.6;"/><polygon fill="#181818" points="735.6,608.868,738,603.468,735.6,605.868,733.2,603.468,735.6,608.868" style="stroke:#181818;stroke-width:0.6;"/><text fill="#000000" font-family="sans-serif" font-size="7.8" lengthAdjust="spacing" textLength="4.2" x="731.0391" y="580.5813">1</text><text fill="#000000" font-family="sans-serif" font-size="7.8" lengthAdjust="spacing" textLength="4.2" x="730.9144" y="602.2474">1</text></g><!--link Candidate to CandidateId--><g id="link_Candidate_CandidateId"><path codeLine="103" d="M871.896,237.678 C871.284,248.88 870.7181,259.1753 870.1061,270.3953 " fill="none" id="Candidate-to-CandidateId" style="stroke:#181818;stroke-width:0.6;"/><polygon fill="#181818" points="869.91,273.99,872.6005,268.7287,870.0734,270.9945,867.8077,268.4673,869.91,273.99" style="stroke:#181818;stroke-width:0.6;"/><text fill="#000000" font-family="sans-serif" font-size="7.8" lengthAdjust="spacing" textLength="4.2" x="867.1453" y="250.5813">1</text><text fill="#000000" font-family="sans-serif" font-size="7.8" lengthAdjust="spacing" textLength="4.2" x="865.5275" y="267.4528">1</text></g><!--link Candidate to CurriculumVitae--><g id="link_Candidate_CurriculumVitae"><path codeLine="104" d="M896.802,237.678 C912.006,250.566 928.6703,264.6896 942.6443,276.5396 " fill="none" id="Candidate-to-CurriculumVitae" style="stroke:#181818;stroke-width:0.6;"/><polygon fill="#181818" points="945.39,278.868,942.8237,273.545,943.1019,276.9277,939.7192,277.2059,945.39,278.868" style="stroke:#181818;stroke-width:0.6;"/><text fill="#000000" font-family="sans-serif" font-size="7.8" lengthAdjust="spacing" textLength="4.2" x="896.332" y="250.5813">1</text><text fill="#000000" font-family="sans-serif" font-size="7.8" lengthAdjust="spacing" textLength="4.2" x="936.4933" y="272.2474">1</text></g><!--link Application to ApplicationId--><g id="link_Application_ApplicationId"><path codeLine="107" d="M487.782,224.73 C441.444,233.946 361.506,251.46 295.2,274.2 C291.636,275.424 291.3049,275.46 287.6749,276.936 " fill="none" id="Application-to-ApplicationId" style="stroke:#181818;stroke-width:0.6;"/><polygon fill="#181818" points="284.34,278.292,290.2463,278.4813,287.119,277.162,288.4383,274.0348,284.34,278.292" style="stroke:#181818;stroke-width:0.6;"/><text fill="#000000" font-family="sans-serif" font-size="7.8" lengthAdjust="spacing" textLength="4.2" x="478.8971" y="223.2886">1</text><text fill="#000000" font-family="sans-serif" font-size="7.8" lengthAdjust="spacing" textLength="4.2" x="288.9832" y="273.7564">1</text></g><!--link Application to AttachedEmail--><g id="link_Application_AttachedEmail"><path codeLine="108" d="M487.542,233.424 C460.122,244.74 422.478,260.334 389.4,274.2 C385.77,275.718 385.3076,275.9163 381.5336,277.5063 " fill="none" id="Application-to-AttachedEmail" style="stroke:#181818;stroke-width:0.6;"/><polygon fill="#181818" points="378.216,278.904,384.1242,279.0192,380.9807,277.7392,382.2606,274.5957,378.216,278.904" style="stroke:#181818;stroke-width:0.6;"/><text fill="#000000" font-family="sans-serif" font-size="7.8" lengthAdjust="spacing" textLength="4.2" x="478.8841" y="244.2307">1</text><text fill="#000000" font-family="sans-serif" font-size="7.8" lengthAdjust="spacing" textLength="4.2" x="381.9053" y="272.2917">1</text></g><!--link Application to AttachedFile--><g id="link_Application_AttachedFile"><path codeLine="109" d="M501.924,237.678 C486.414,250.566 469.388,264.7162 455.138,276.5662 " fill="none" id="Application-to-AttachedFile" style="stroke:#181818;stroke-width:0.6;"/><polygon fill="#181818" points="452.37,278.868,458.0565,277.2606,454.6767,276.9498,454.9874,273.57,452.37,278.868" style="stroke:#181818;stroke-width:0.6;"/><text fill="#000000" font-family="sans-serif" font-size="7.8" lengthAdjust="spacing" textLength="4.2" x="493.1906" y="250.5813">1</text><text fill="#000000" font-family="sans-serif" font-size="7.8" lengthAdjust="spacing" textLength="4.2" x="451.9787" y="272.2474">1</text></g><!--link Application to ApplicatorData--><g id="link_Application_ApplicatorData"><path codeLine="110" d="M526.2,237.678 C526.2,250.566 526.2,263.418 526.2,275.268 " fill="none" id="Application-to-ApplicatorData" style="stroke:#181818;stroke-width:0.6;"/><polygon fill="#181818" points="526.2,278.868,528.6,273.468,526.2,275.868,523.8,273.468,526.2,278.868" style="stroke:#181818;stroke-width:0.6;"/><text fill="#000000" font-family="sans-serif" font-size="7.8" lengthAdjust="spacing" textLength="4.2" x="521.6391" y="250.5813">1</text><text fill="#000000" font-family="sans-serif" font-size="7.8" lengthAdjust="spacing" textLength="4.2" x="521.5144" y="272.2474">1</text></g><!--link Application to JobOpening--><g id="link_Application_JobOpening"><path codeLine="111" d="M564.66,220.128 C640.662,226.386 802.8,245.46 802.8,294.3 C802.8,294.3 802.8,294.3 802.8,453 C802.8,482.442 783.1581,506.5129 764.2461,523.6729 " fill="none" id="Application-to-JobOpening" style="stroke:#181818;stroke-width:0.6;"/><polygon fill="#181818" points="761.58,526.092,767.1918,524.2407,763.8017,524.0761,763.9664,520.686,761.58,526.092" style="stroke:#181818;stroke-width:0.6;"/><text fill="#000000" font-family="sans-serif" font-size="7.8" lengthAdjust="spacing" textLength="45" x="803.4" y="362.417">submitted for</text><text fill="#000000" font-family="sans-serif" font-size="7.8" lengthAdjust="spacing" textLength="3" x="569.2804" y="229.5339">*</text><text fill="#000000" font-family="sans-serif" font-size="7.8" lengthAdjust="spacing" textLength="4.2" x="761.9321" y="519.4131">1</text></g><!--link Application to Candidate--><g id="link_Application_Candidate"><path codeLine="112" d="M564.636,216.9 C631.302,216.9 764.01,216.9 830.79,216.9 " fill="none" id="Application-to-Candidate" style="stroke:#181818;stroke-width:0.6;"/><polygon fill="#181818" points="834.39,216.9,828.99,214.5,831.39,216.9,828.99,219.3,834.39,216.9" style="stroke:#181818;stroke-width:0.6;"/><text fill="#000000" font-family="sans-serif" font-size="7.8" lengthAdjust="spacing" textLength="45" x="677.1" y="212.717">submitted by</text><text fill="#000000" font-family="sans-serif" font-size="7.8" lengthAdjust="spacing" textLength="4.2" x="569.323" y="214.5533">1</text><text fill="#000000" font-family="sans-serif" font-size="7.8" lengthAdjust="spacing" textLength="4.2" x="825.4829" y="214.5533">1</text></g><!--link Application to ApplicationStatus--><g id="link_Application_ApplicationStatus"><path codeLine="113" d="M552.684,237.678 C569.658,250.614 588.4786,264.95 604.0366,276.806 " fill="none" id="Application-to-ApplicationStatus" style="stroke:#181818;stroke-width:0.6;"/><polygon fill="#181818" points="606.9,278.988,604.0597,273.8061,604.5139,277.1696,601.1503,277.6239,606.9,278.988" style="stroke:#181818;stroke-width:0.6;"/><text fill="#000000" font-family="sans-serif" font-size="7.8" lengthAdjust="spacing" textLength="4.2" x="552.675" y="250.5813">1</text><text fill="#000000" font-family="sans-serif" font-size="7.8" lengthAdjust="spacing" textLength="4.2" x="597.2888" y="272.1352">1</text></g><!--link Application to ApplicationRank--><g id="link_Application_ApplicationRank"><path codeLine="114" d="M564.636,231.426 C595.758,242.76 640.692,259.278 679.8,274.2 C683.802,275.724 684.6176,276.0311 688.7756,277.6511 " fill="none" id="Application-to-ApplicationRank" style="stroke:#181818;stroke-width:0.6;"/><polygon fill="#181818" points="692.13,278.958,687.9697,274.7614,689.3347,277.8689,686.2271,279.2339,692.13,278.958" style="stroke:#181818;stroke-width:0.6;"/><text fill="#000000" font-family="sans-serif" font-size="7.8" lengthAdjust="spacing" textLength="4.2" x="569.323" y="242.1382">1</text><text fill="#000000" font-family="sans-serif" font-size="7.8" lengthAdjust="spacing" textLength="13.2" x="672.5639" y="274.2459">0..1</text></g><!--reverse link JobOpeningProcessId to JobOpeningProcess--><g id="link_JobOpeningProcessId_JobOpeningProcess"><path codeLine="117" d="M835.296,803.1 C842.292,803.1 845.688,803.1 852.69,803.1 " fill="none" id="JobOpeningProcessId-backto-JobOpeningProcess" style="stroke:#181818;stroke-width:0.6;"/><polygon fill="#181818" points="831.696,803.1,837.096,805.5,834.696,803.1,837.096,800.7,831.696,803.1" style="stroke:#181818;stroke-width:0.6;"/><text fill="#000000" font-family="sans-serif" font-size="7.8" lengthAdjust="spacing" textLength="4.2" x="836.4338" y="800.8828">1</text><text fill="#000000" font-family="sans-serif" font-size="7.8" lengthAdjust="spacing" textLength="4.2" x="843.8797" y="800.8675">1</text></g><!--link JobOpening to JobOpeningProcess--><g id="link_JobOpening_JobOpeningProcess"><path codeLine="118" d="M774.078,549.036 C822.834,553.29 900.6,568.77 900.6,624.3 C900.6,624.3 900.6,624.3 900.6,732 C900.6,748.95 900.6,764.598 900.6,778.692 " fill="none" id="JobOpening-to-JobOpeningProcess" style="stroke:#181818;stroke-width:0.6;"/><polygon fill="#181818" points="900.6,782.292,903,776.892,900.6,779.292,898.2,776.892,900.6,782.292" style="stroke:#181818;stroke-width:0.6;"/><text fill="#000000" font-family="sans-serif" font-size="7.8" lengthAdjust="spacing" textLength="12.6" x="901.2" y="692.417">has</text><text fill="#000000" font-family="sans-serif" font-size="7.8" lengthAdjust="spacing" textLength="4.2" x="778.7698" y="546.9362">1</text><text fill="#000000" font-family="sans-serif" font-size="7.8" lengthAdjust="spacing" textLength="3" x="897.3141" y="775.6131">*</text></g><!--link JobOpeningProcess to Phase--><g id="link_JobOpeningProcess_Phase"><path codeLine="119" d="M900.6,823.95 C900.6,835.512 900.6,846.174 900.6,856.794 " fill="none" id="JobOpeningProcess-to-Phase" style="stroke:#181818;stroke-width:0.6;"/><polygon fill="#181818" points="900.6,860.394,903,854.994,900.6,857.394,898.2,854.994,900.6,860.394" style="stroke:#181818;stroke-width:0.6;"/><text fill="#000000" font-family="sans-serif" font-size="7.8" lengthAdjust="spacing" textLength="4.2" x="896.0522" y="836.7021">1</text><text fill="#000000" font-family="sans-serif" font-size="7.8" lengthAdjust="spacing" textLength="4.2" x="895.8881" y="853.5426">1</text></g><!--link Phase to PhaseType--><g id="link_Phase_PhaseType"><path codeLine="120" d="M900.6,892.29 C900.6,902.142 900.6,911.91 900.6,925.11 " fill="none" id="Phase-to-PhaseType" style="stroke:#181818;stroke-width:0.6;"/><polygon fill="#181818" points="900.6,928.71,903,923.31,900.6,925.71,898.2,923.31,900.6,928.71" style="stroke:#181818;stroke-width:0.6;"/><text fill="#000000" font-family="sans-serif" font-size="7.8" lengthAdjust="spacing" textLength="4.2" x="895.9669" y="905.1007">1</text><text fill="#000000" font-family="sans-serif" font-size="7.8" lengthAdjust="spacing" textLength="4.2" x="896.2064" y="921.986">1</text></g><!--SRC=[bPLTRvim58Rl_IkixA9IfQJRROKYiOHkJ2c9W6RgrMJCAV76bupPL5NzxxE149D0e5n4mJpliS-7pxav294NztTtUKnIKIRnWcR97Or9KSn3HY9E4eGEB0ISW3XaOO4G1of86iM0Pp-o06zpI5aQpV2d8A2K4Fo649PFPGDBeW4CmumY3X4HWDqi4ykbOLYfOE9rkNnxFzEuy08SKWg6OOVGK8Qn9t49U1lybaSuL_bCnB3b3sLA1SlI8HZICi6hB1MSKE6_vg1EKIR0vRd2dZqgaNeUdZQRNxxzQBKhEzFrJokw_SSid6pNjHwt_iderfbxjlR-_VchQw_RLxcBvlEUK99I1eLJ9W7mwm5QGq4vouU2eoptfnQRUHupIfHIffaGIeEWcsQDc9vdJMI7qnDj2a7e0K8h8IoUXZwm64R8vYmPNnD1fh7ot9uWeYmcuov9_up7NkOqPA6AduorkbHlchNLyUD8d7iKeq7MD2NdZ9PncUoP87snKqSUgfSTpoWKXQmLLIdTyvyQGaDDzkD2EUhFpHNnOEP6H15S3TpkG0hG7D0kRjiTAkOZhSVSxJRsolJjhTEkUIlNiXpR-TQks8vlkNlR-kcTX8wvUVPiJsistjF6R_hL-s02xLG0_ylWNvF2ggjtuj8I-2FvQrKVACLMiwwAVWhfi-GwwT6CJxJbGb76Ok02T08n-pB3ypAVBwj_NM-laHq7Uy1pJ7dNWzLKvTa48xLR26dDwOe3wguZVInNXA7W8zkK3ZeRmyEWFeCRwe9HStJecpREXZSv6v3386gxfFfo39VMEWU0Rfz4FG5joCwm6wRqsJPAgR4skc4zqRhOhSBcyrEcZnV_7XTba30X6n9-oVYbyREuT0J1wnJlwyRRJtvUBBgm6fXrwNKRSIs9uKLS-D0E1qtLx51xVDj3IpzaKnxQfzcZwjke-hrSLsMC_WC0]--></g></svg>