<?xml version="1.0" encoding="us-ascii" standalone="no"?><svg xmlns="http://www.w3.org/2000/svg" xmlns:xlink="http://www.w3.org/1999/xlink" contentStyleType="text/css" height="509px" preserveAspectRatio="none" style="width:596px;height:509px;background:#FFFFFF;" version="1.1" viewBox="0 0 596 509" width="596px" zoomAndPan="magnify"><defs/><g><text fill="#000000" font-family="sans-serif" font-size="14" font-weight="bold" lengthAdjust="spacing" textLength="568" x="10" y="30.1074">System Sequence Diagram (SSD) - Get an ordered list applications and their state</text><rect fill="#FFFFFF" height="284.6191" style="stroke:#181818;stroke-width:1.0;" width="10" x="68.25" y="133.2422"/><rect fill="#FFFFFF" height="31.291" style="stroke:#181818;stroke-width:1.0;" width="10" x="514.25" y="156.5332"/><rect fill="#FFFFFF" height="31.291" style="stroke:#181818;stroke-width:1.0;" width="10" x="514.25" y="219.1152"/><rect fill="#FFFFFF" height="135.1641" style="stroke:#181818;stroke-width:1.0;" width="10" x="514.25" y="281.6973"/><rect fill="none" height="50.582" style="stroke:#000000;stroke-width:1.5;" width="533.5" x="27.75" y="359.2793"/><line style="stroke:#181818;stroke-width:0.5;stroke-dasharray:5.0,5.0;" x1="72.75" x2="72.75" y1="123.2422" y2="426.8613"/><line style="stroke:#181818;stroke-width:0.5;stroke-dasharray:5.0,5.0;" x1="519.25" x2="519.25" y1="123.2422" y2="426.8613"/><text fill="#000000" font-family="sans-serif" font-size="14" lengthAdjust="spacing" textLength="65" x="37.75" y="119.7285">Candidate</text><ellipse cx="73.25" cy="53.1211" fill="#E2E2F0" rx="8" ry="8" style="stroke:#181818;stroke-width:0.5;"/><path d="M73.25,61.1211 L73.25,88.1211 M60.25,69.1211 L86.25,69.1211 M73.25,88.1211 L60.25,103.1211 M73.25,88.1211 L86.25,103.1211 " fill="none" style="stroke:#181818;stroke-width:0.5;"/><text fill="#000000" font-family="sans-serif" font-size="14" lengthAdjust="spacing" textLength="65" x="37.75" y="440.9688">Candidate</text><ellipse cx="73.25" cy="452.9824" fill="#E2E2F0" rx="8" ry="8" style="stroke:#181818;stroke-width:0.5;"/><path d="M73.25,460.9824 L73.25,487.9824 M60.25,468.9824 L86.25,468.9824 M73.25,487.9824 L60.25,502.9824 M73.25,487.9824 L86.25,502.9824 " fill="none" style="stroke:#181818;stroke-width:0.5;"/><rect fill="#E2E2F0" height="32.6211" rx="2.5" ry="2.5" style="stroke:#181818;stroke-width:0.5;" width="64" x="487.25" y="89.6211"/><text fill="#000000" font-family="sans-serif" font-size="14" lengthAdjust="spacing" textLength="50" x="494.25" y="111.7285">:System</text><rect fill="#E2E2F0" height="32.6211" rx="2.5" ry="2.5" style="stroke:#181818;stroke-width:0.5;" width="64" x="487.25" y="425.8613"/><text fill="#000000" font-family="sans-serif" font-size="14" lengthAdjust="spacing" textLength="50" x="494.25" y="447.9688">:System</text><rect fill="#FFFFFF" height="284.6191" style="stroke:#181818;stroke-width:1.0;" width="10" x="68.25" y="133.2422"/><rect fill="#FFFFFF" height="31.291" style="stroke:#181818;stroke-width:1.0;" width="10" x="514.25" y="156.5332"/><rect fill="#FFFFFF" height="31.291" style="stroke:#181818;stroke-width:1.0;" width="10" x="514.25" y="219.1152"/><rect fill="#FFFFFF" height="135.1641" style="stroke:#181818;stroke-width:1.0;" width="10" x="514.25" y="281.6973"/><polygon fill="#181818" points="502.25,152.5332,512.25,156.5332,502.25,160.5332,506.25,156.5332" style="stroke:#181818;stroke-width:1.0;"/><line style="stroke:#181818;stroke-width:1.0;" x1="78.25" x2="508.25" y1="156.5332" y2="156.5332"/><text fill="#000000" font-family="sans-serif" font-size="13" lengthAdjust="spacing" textLength="146" x="85.25" y="151.2705">opens the Candidate App</text><polygon fill="#181818" points="89.25,183.8242,79.25,187.8242,89.25,191.8242,85.25,187.8242" style="stroke:#181818;stroke-width:1.0;"/><line style="stroke:#181818;stroke-width:1.0;stroke-dasharray:2.0,2.0;" x1="83.25" x2="518.25" y1="187.8242" y2="187.8242"/><text fill="#000000" font-family="sans-serif" font-size="13" lengthAdjust="spacing" textLength="111" x="95.25" y="182.5615">requests username</text><polygon fill="#181818" points="502.25,215.1152,512.25,219.1152,502.25,223.1152,506.25,219.1152" style="stroke:#181818;stroke-width:1.0;"/><line style="stroke:#181818;stroke-width:1.0;" x1="78.25" x2="508.25" y1="219.1152" y2="219.1152"/><text fill="#000000" font-family="sans-serif" font-size="13" lengthAdjust="spacing" textLength="93" x="85.25" y="213.8525">types username</text><polygon fill="#181818" points="89.25,246.4063,79.25,250.4063,89.25,254.4063,85.25,250.4063" style="stroke:#181818;stroke-width:1.0;"/><line style="stroke:#181818;stroke-width:1.0;stroke-dasharray:2.0,2.0;" x1="83.25" x2="518.25" y1="250.4063" y2="250.4063"/><text fill="#000000" font-family="sans-serif" font-size="13" lengthAdjust="spacing" textLength="109" x="95.25" y="245.1436">requests password</text><polygon fill="#181818" points="502.25,277.6973,512.25,281.6973,502.25,285.6973,506.25,281.6973" style="stroke:#181818;stroke-width:1.0;"/><line style="stroke:#181818;stroke-width:1.0;" x1="78.25" x2="508.25" y1="281.6973" y2="281.6973"/><text fill="#000000" font-family="sans-serif" font-size="13" lengthAdjust="spacing" textLength="91" x="85.25" y="276.4346">types password</text><polygon fill="#181818" points="89.25,308.9883,79.25,312.9883,89.25,316.9883,85.25,312.9883" style="stroke:#181818;stroke-width:1.0;"/><line style="stroke:#181818;stroke-width:1.0;stroke-dasharray:2.0,2.0;" x1="83.25" x2="513.25" y1="312.9883" y2="312.9883"/><text fill="#000000" font-family="sans-serif" font-size="13" lengthAdjust="spacing" textLength="260" x="95.25" y="307.7256">displays option to view the listed applications</text><polygon fill="#181818" points="502.25,340.2793,512.25,344.2793,502.25,348.2793,506.25,344.2793" style="stroke:#181818;stroke-width:1.0;"/><line style="stroke:#181818;stroke-width:1.0;" x1="78.25" x2="508.25" y1="344.2793" y2="344.2793"/><text fill="#000000" font-family="sans-serif" font-size="13" lengthAdjust="spacing" textLength="276" x="85.25" y="339.0166">selects the option to view the listed applications</text><path d="M27.75,359.2793 L100.75,359.2793 L100.75,368.5703 L90.75,378.5703 L27.75,378.5703 L27.75,359.2793 " fill="#EEEEEE" style="stroke:#000000;stroke-width:1.5;"/><rect fill="none" height="50.582" style="stroke:#000000;stroke-width:1.5;" width="533.5" x="27.75" y="359.2793"/><text fill="#000000" font-family="sans-serif" font-size="13" font-weight="bold" lengthAdjust="spacing" textLength="28" x="42.75" y="374.3076">loop</text><text fill="#000000" font-family="sans-serif" font-size="11" font-weight="bold" lengthAdjust="spacing" textLength="115" x="115.75" y="373.1494">[for each application]</text><polygon fill="#181818" points="89.25,397.8613,79.25,401.8613,89.25,405.8613,85.25,401.8613" style="stroke:#181818;stroke-width:1.0;"/><line style="stroke:#181818;stroke-width:1.0;stroke-dasharray:2.0,2.0;" x1="83.25" x2="513.25" y1="401.8613" y2="401.8613"/><text fill="#000000" font-family="sans-serif" font-size="13" lengthAdjust="spacing" textLength="412" x="95.25" y="396.5986">displays application with their state (including the number of applicants)</text><!--SRC=[bPBFRi8m3CRlVGgB2-p02t2OX8Qq1-WJU8bfBT8aYrqgtdvk-TS9f8rJcjgVVyvdB-N0CMF13heKasjBwWYqz5Gjxw6Cxe0DrNeA18MSOcp2hmnfqQU1OmDx349LfQoMMvz4gOEQldkAZc37s8pfgxhUlS4QFaa18wJYgP27m6Btd0CxL4vHBEX1M-82egXM5vsc0eiF2x2tFmj0WMr3KIlhHDbnngYms9pHK_ZyEMdvQ9fBVZKTi7w_jhc1bCcW1eGR0BOvpwJNMXV9sjHJcOtvOeyK5UY5IiJEclNqe7jawYdJNFGAAgF8OEwzXBgB_aIPnhFaW2SnRyQHW2OuCWsJIUEyR6ppYJt32WNRcREl_wqIKigmjr7Rkzfvx9aVjnvdUJ2mjlFTWHL75te_Bkc8ZNttHGNI_ggAAczLHRPn8_o9epy0]--></g></svg>