<?xml version="1.0" encoding="us-ascii" standalone="no"?><svg xmlns="http://www.w3.org/2000/svg" xmlns:xlink="http://www.w3.org/1999/xlink" contentStyleType="text/css" height="1732px" preserveAspectRatio="none" style="width:1694px;height:1732px;background:#FFFFFF;" version="1.1" viewBox="0 0 1694 1732" width="1694px" zoomAndPan="magnify"><defs/><g><!--cluster Job Opening--><g id="cluster_Job Opening"><rect fill="#BBCCAA" height="437" rx="2.5" ry="2.5" style="stroke:#181818;stroke-width:1.0;" width="647" x="817" y="655"/><text fill="#000000" font-family="sans-serif" font-size="14" font-weight="bold" lengthAdjust="spacing" textLength="90" x="1095.5" y="672.1074">Job Opening</text></g><!--cluster Job Opening Application--><g id="cluster_Job Opening Application"><rect fill="#AACCBB" height="252" rx="2.5" ry="2.5" style="stroke:#181818;stroke-width:1.0;" width="957" x="344" y="290"/><text fill="#000000" font-family="sans-serif" font-size="14" font-weight="bold" lengthAdjust="spacing" textLength="172" x="736.5" y="307.1074">Job Opening Application</text></g><!--cluster candidate--><g id="cluster_candidate"><rect fill="#AABBCC" height="252" rx="2.5" ry="2.5" style="stroke:#181818;stroke-width:1.0;" width="313" x="1375" y="290"/><text fill="#000000" font-family="sans-serif" font-size="14" font-weight="bold" lengthAdjust="spacing" textLength="69" x="1497" y="307.1074">candidate</text></g><!--cluster Job Opening Process--><g id="cluster_Job Opening Process"><rect fill="#CCBBCC" height="459" rx="2.5" ry="2.5" style="stroke:#181818;stroke-width:1.0;" width="397" x="1200" y="1267"/><text fill="#000000" font-family="sans-serif" font-size="14" font-weight="bold" lengthAdjust="spacing" textLength="151" x="1323" y="1284.1074">Job Opening Process</text></g><!--cluster Job Opening Interview--><g id="cluster_Job Opening Interview"><rect fill="#CCBBAA" height="397" rx="2.5" ry="2.5" style="stroke:#181818;stroke-width:1.0;" width="313" x="7" y="7"/><text fill="#000000" font-family="sans-serif" font-size="14" font-weight="bold" lengthAdjust="spacing" textLength="160" x="83.5" y="24.1074">Job Opening Interview</text></g><!--class JobOpening--><g id="elem_JobOpening"><rect codeLine="7" fill="#F1F1F1" height="68.543" id="JobOpening" rx="2.5" ry="2.5" style="stroke:#181818;stroke-width:0.5;" width="128" x="1162" y="877"/><ellipse cx="1177" cy="907.2715" fill="#ADD1B2" rx="11" ry="11" style="stroke:#181818;stroke-width:1.0;"/><path d="M1179.7656,903.1465 Q1179.9219,902.9277 1180.1094,902.8184 Q1180.2969,902.709 1180.5156,902.709 Q1180.8906,902.709 1181.125,902.9746 Q1181.3594,903.2246 1181.3594,903.834 L1181.3594,905.2871 Q1181.3594,905.8965 1181.125,906.1621 Q1180.8906,906.4277 1180.5156,906.4277 Q1180.1719,906.4277 1179.9688,906.2246 Q1179.7656,906.0371 1179.6563,905.5215 Q1179.6094,905.1621 1179.4219,904.9746 Q1179.0938,904.5996 1178.4844,904.3809 Q1177.875,904.1621 1177.25,904.1621 Q1176.4844,904.1621 1175.8438,904.4902 Q1175.2188,904.8184 1174.7188,905.5684 Q1174.2344,906.3184 1174.2344,907.3496 L1174.2344,908.4434 Q1174.2344,909.6777 1175.125,910.5059 Q1176.0156,911.3184 1177.6094,911.3184 Q1178.5469,911.3184 1179.2031,911.0684 Q1179.5938,910.9121 1180.0156,910.4746 Q1180.2813,910.209 1180.4219,910.1309 Q1180.5781,910.0527 1180.7813,910.0527 Q1181.1094,910.0527 1181.3594,910.3184 Q1181.625,910.5684 1181.625,910.9121 Q1181.625,911.2559 1181.2813,911.6621 Q1180.7813,912.2402 1179.9844,912.5684 Q1178.9063,913.0215 1177.6094,913.0215 Q1176.0938,913.0215 1174.8906,912.3965 Q1173.9063,911.8965 1173.2188,910.834 Q1172.5313,909.7559 1172.5313,908.4746 L1172.5313,907.3184 Q1172.5313,905.9902 1173.1406,904.8496 Q1173.7656,903.6934 1174.8594,903.084 Q1175.9531,902.459 1177.1875,902.459 Q1177.9219,902.459 1178.5625,902.6309 Q1179.2188,902.7871 1179.7656,903.1465 Z " fill="#000000"/><text fill="#000000" font-family="sans-serif" font-size="12" font-style="italic" lengthAdjust="spacing" textLength="100" x="1189" y="894.9492">&#171;Aggregate Root&#187;</text><text fill="#000000" font-family="sans-serif" font-size="12" font-style="italic" lengthAdjust="spacing" textLength="44" x="1217" y="910.9102">&#171;Entity&#187;</text><text fill="#000000" font-family="sans-serif" font-size="14" lengthAdjust="spacing" textLength="76" x="1201" y="929.0293">JobOpening</text><line style="stroke:#181818;stroke-width:0.5;" x1="1163" x2="1289" y1="937.543" y2="937.543"/></g><!--class JobReference--><g id="elem_JobReference"><rect codeLine="9" fill="#F1F1F1" height="68.543" id="JobReference" rx="2.5" ry="2.5" style="stroke:#181818;stroke-width:0.5;" width="120" x="833" y="1007"/><ellipse cx="848" cy="1037.2715" fill="#ADD1B2" rx="11" ry="11" style="stroke:#181818;stroke-width:1.0;"/><path d="M850.7656,1033.1465 Q850.9219,1032.9277 851.1094,1032.8184 Q851.2969,1032.709 851.5156,1032.709 Q851.8906,1032.709 852.125,1032.9746 Q852.3594,1033.2246 852.3594,1033.834 L852.3594,1035.2871 Q852.3594,1035.8965 852.125,1036.1621 Q851.8906,1036.4277 851.5156,1036.4277 Q851.1719,1036.4277 850.9688,1036.2246 Q850.7656,1036.0371 850.6563,1035.5215 Q850.6094,1035.1621 850.4219,1034.9746 Q850.0938,1034.5996 849.4844,1034.3809 Q848.875,1034.1621 848.25,1034.1621 Q847.4844,1034.1621 846.8438,1034.4902 Q846.2188,1034.8184 845.7188,1035.5684 Q845.2344,1036.3184 845.2344,1037.3496 L845.2344,1038.4434 Q845.2344,1039.6777 846.125,1040.5059 Q847.0156,1041.3184 848.6094,1041.3184 Q849.5469,1041.3184 850.2031,1041.0684 Q850.5938,1040.9121 851.0156,1040.4746 Q851.2813,1040.209 851.4219,1040.1309 Q851.5781,1040.0527 851.7813,1040.0527 Q852.1094,1040.0527 852.3594,1040.3184 Q852.625,1040.5684 852.625,1040.9121 Q852.625,1041.2559 852.2813,1041.6621 Q851.7813,1042.2402 850.9844,1042.5684 Q849.9063,1043.0215 848.6094,1043.0215 Q847.0938,1043.0215 845.8906,1042.3965 Q844.9063,1041.8965 844.2188,1040.834 Q843.5313,1039.7559 843.5313,1038.4746 L843.5313,1037.3184 Q843.5313,1035.9902 844.1406,1034.8496 Q844.7656,1033.6934 845.8594,1033.084 Q846.9531,1032.459 848.1875,1032.459 Q848.9219,1032.459 849.5625,1032.6309 Q850.2188,1032.7871 850.7656,1033.1465 Z " fill="#000000"/><text fill="#000000" font-family="sans-serif" font-size="12" font-style="italic" lengthAdjust="spacing" textLength="54" x="879" y="1024.9492">&#171;Identity&#187;</text><text fill="#000000" font-family="sans-serif" font-size="12" font-style="italic" lengthAdjust="spacing" textLength="85" x="863.5" y="1040.9102">&#171;Value Object&#187;</text><text fill="#000000" font-family="sans-serif" font-size="14" lengthAdjust="spacing" textLength="88" x="862" y="1059.0293">JobReference</text><line style="stroke:#181818;stroke-width:0.5;" x1="834" x2="952" y1="1067.543" y2="1067.543"/></g><!--class TitleOrFunction--><g id="elem_TitleOrFunction"><rect codeLine="11" fill="#F1F1F1" height="52.582" id="TitleOrFunction" rx="2.5" ry="2.5" style="stroke:#181818;stroke-width:0.5;" width="130" x="988" y="1015"/><ellipse cx="1003" cy="1037.291" fill="#ADD1B2" rx="11" ry="11" style="stroke:#181818;stroke-width:1.0;"/><path d="M1005.7656,1033.166 Q1005.9219,1032.9473 1006.1094,1032.8379 Q1006.2969,1032.7285 1006.5156,1032.7285 Q1006.8906,1032.7285 1007.125,1032.9941 Q1007.3594,1033.2441 1007.3594,1033.8535 L1007.3594,1035.3066 Q1007.3594,1035.916 1007.125,1036.1816 Q1006.8906,1036.4473 1006.5156,1036.4473 Q1006.1719,1036.4473 1005.9688,1036.2441 Q1005.7656,1036.0566 1005.6563,1035.541 Q1005.6094,1035.1816 1005.4219,1034.9941 Q1005.0938,1034.6191 1004.4844,1034.4004 Q1003.875,1034.1816 1003.25,1034.1816 Q1002.4844,1034.1816 1001.8438,1034.5098 Q1001.2188,1034.8379 1000.7188,1035.5879 Q1000.2344,1036.3379 1000.2344,1037.3691 L1000.2344,1038.4629 Q1000.2344,1039.6973 1001.125,1040.5254 Q1002.0156,1041.3379 1003.6094,1041.3379 Q1004.5469,1041.3379 1005.2031,1041.0879 Q1005.5938,1040.9316 1006.0156,1040.4941 Q1006.2813,1040.2285 1006.4219,1040.1504 Q1006.5781,1040.0723 1006.7813,1040.0723 Q1007.1094,1040.0723 1007.3594,1040.3379 Q1007.625,1040.5879 1007.625,1040.9316 Q1007.625,1041.2754 1007.2813,1041.6816 Q1006.7813,1042.2598 1005.9844,1042.5879 Q1004.9063,1043.041 1003.6094,1043.041 Q1002.0938,1043.041 1000.8906,1042.416 Q999.9063,1041.916 999.2188,1040.8535 Q998.5313,1039.7754 998.5313,1038.4941 L998.5313,1037.3379 Q998.5313,1036.0098 999.1406,1034.8691 Q999.7656,1033.7129 1000.8594,1033.1035 Q1001.9531,1032.4785 1003.1875,1032.4785 Q1003.9219,1032.4785 1004.5625,1032.6504 Q1005.2188,1032.8066 1005.7656,1033.166 Z " fill="#000000"/><text fill="#000000" font-family="sans-serif" font-size="12" font-style="italic" lengthAdjust="spacing" textLength="85" x="1023.5" y="1032.9492">&#171;Value Object&#187;</text><text fill="#000000" font-family="sans-serif" font-size="14" lengthAdjust="spacing" textLength="98" x="1017" y="1051.0684">TitleOrFunction</text><line style="stroke:#181818;stroke-width:0.5;" x1="989" x2="1117" y1="1059.582" y2="1059.582"/></g><!--class ContractType--><g id="elem_ContractType"><rect codeLine="13" fill="#F1F1F1" height="105.7852" id="ContractType" rx="2.5" ry="2.5" style="stroke:#181818;stroke-width:0.5;" width="118" x="1167" y="701"/><ellipse cx="1182" cy="731.2715" fill="#EB937F" rx="11" ry="11" style="stroke:#181818;stroke-width:1.0;"/><path d="M1180.8594,732.0684 L1180.8594,734.5684 L1185.1875,734.5684 L1185.1875,733.6465 Q1185.1875,733.0371 1185.4219,732.7715 Q1185.6719,732.5059 1186.0469,732.5059 Q1186.4219,732.5059 1186.6563,732.7715 Q1186.8906,733.0371 1186.8906,733.6465 L1186.8906,736.2715 L1178.8906,736.2715 Q1178.2656,736.2715 1178,736.0371 Q1177.75,735.8027 1177.75,735.4121 Q1177.75,735.0371 1178.0156,734.8027 Q1178.2813,734.5684 1178.8906,734.5684 L1179.1563,734.5684 L1179.1563,727.9121 L1178.8906,727.9121 Q1178.2656,727.9121 1178,727.6777 Q1177.75,727.4434 1177.75,727.0527 Q1177.75,726.6777 1178,726.4434 Q1178.2656,726.209 1178.8906,726.209 L1186.5156,726.209 L1186.5156,728.8027 Q1186.5156,729.4121 1186.2813,729.6777 Q1186.0625,729.9277 1185.6719,729.9277 Q1185.2969,729.9277 1185.0625,729.6777 Q1184.8281,729.4121 1184.8281,728.8027 L1184.8281,727.9121 L1180.8594,727.9121 L1180.8594,730.3652 L1182.3438,730.3652 Q1182.3438,729.709 1182.4688,729.5215 Q1182.7344,729.1152 1183.2031,729.1152 Q1183.5781,729.1152 1183.8125,729.3809 Q1184.0469,729.6309 1184.0469,730.2402 L1184.0469,732.209 Q1184.0469,732.7559 1183.9219,732.9434 Q1183.6563,733.334 1183.2031,733.334 Q1182.7344,733.334 1182.4688,732.9277 Q1182.3438,732.7402 1182.3438,732.0684 L1180.8594,732.0684 Z " fill="#000000"/><text fill="#000000" font-family="sans-serif" font-size="12" font-style="italic" lengthAdjust="spacing" textLength="82" x="1198" y="718.9492">&#171;Enumerated&#187;</text><text fill="#000000" font-family="sans-serif" font-size="12" font-style="italic" lengthAdjust="spacing" textLength="85" x="1196.5" y="734.9102">&#171;Value Object&#187;</text><text fill="#000000" font-family="sans-serif" font-size="14" lengthAdjust="spacing" textLength="86" x="1196" y="753.0293">ContractType</text><line style="stroke:#181818;stroke-width:0.5;" x1="1168" x2="1284" y1="761.543" y2="761.543"/><text fill="#000000" font-family="sans-serif" font-size="14" lengthAdjust="spacing" textLength="74" x="1173" y="780.6504">FULL_TIME</text><text fill="#000000" font-family="sans-serif" font-size="14" lengthAdjust="spacing" textLength="77" x="1173" y="799.2715">PART_TIME</text></g><!--class Mode--><g id="elem_Mode"><rect codeLine="18" fill="#F1F1F1" height="124.4063" id="Mode" rx="2.5" ry="2.5" style="stroke:#181818;stroke-width:0.5;" width="113" x="1018.5" y="692"/><ellipse cx="1033.5" cy="722.2715" fill="#EB937F" rx="11" ry="11" style="stroke:#181818;stroke-width:1.0;"/><path d="M1032.3594,723.0684 L1032.3594,725.5684 L1036.6875,725.5684 L1036.6875,724.6465 Q1036.6875,724.0371 1036.9219,723.7715 Q1037.1719,723.5059 1037.5469,723.5059 Q1037.9219,723.5059 1038.1563,723.7715 Q1038.3906,724.0371 1038.3906,724.6465 L1038.3906,727.2715 L1030.3906,727.2715 Q1029.7656,727.2715 1029.5,727.0371 Q1029.25,726.8027 1029.25,726.4121 Q1029.25,726.0371 1029.5156,725.8027 Q1029.7813,725.5684 1030.3906,725.5684 L1030.6563,725.5684 L1030.6563,718.9121 L1030.3906,718.9121 Q1029.7656,718.9121 1029.5,718.6777 Q1029.25,718.4434 1029.25,718.0527 Q1029.25,717.6777 1029.5,717.4434 Q1029.7656,717.209 1030.3906,717.209 L1038.0156,717.209 L1038.0156,719.8027 Q1038.0156,720.4121 1037.7813,720.6777 Q1037.5625,720.9277 1037.1719,720.9277 Q1036.7969,720.9277 1036.5625,720.6777 Q1036.3281,720.4121 1036.3281,719.8027 L1036.3281,718.9121 L1032.3594,718.9121 L1032.3594,721.3652 L1033.8438,721.3652 Q1033.8438,720.709 1033.9688,720.5215 Q1034.2344,720.1152 1034.7031,720.1152 Q1035.0781,720.1152 1035.3125,720.3809 Q1035.5469,720.6309 1035.5469,721.2402 L1035.5469,723.209 Q1035.5469,723.7559 1035.4219,723.9434 Q1035.1563,724.334 1034.7031,724.334 Q1034.2344,724.334 1033.9688,723.9277 Q1033.8438,723.7402 1033.8438,723.0684 L1032.3594,723.0684 Z " fill="#000000"/><text fill="#000000" font-family="sans-serif" font-size="12" font-style="italic" lengthAdjust="spacing" textLength="82" x="1047" y="709.9492">&#171;Enumerated&#187;</text><text fill="#000000" font-family="sans-serif" font-size="12" font-style="italic" lengthAdjust="spacing" textLength="85" x="1045.5" y="725.9102">&#171;Value Object&#187;</text><text fill="#000000" font-family="sans-serif" font-size="14" lengthAdjust="spacing" textLength="35" x="1070.5" y="744.0293">Mode</text><line style="stroke:#181818;stroke-width:0.5;" x1="1019.5" x2="1130.5" y1="752.543" y2="752.543"/><text fill="#000000" font-family="sans-serif" font-size="14" lengthAdjust="spacing" textLength="59" x="1024.5" y="771.6504">REMOTE</text><text fill="#000000" font-family="sans-serif" font-size="14" lengthAdjust="spacing" textLength="55" x="1024.5" y="790.2715">ON-SITE</text><text fill="#000000" font-family="sans-serif" font-size="14" lengthAdjust="spacing" textLength="50" x="1024.5" y="808.8926">HYBRID</text></g><!--class VacanciesNumber--><g id="elem_VacanciesNumber"><rect codeLine="25" fill="#F1F1F1" height="52.582" id="VacanciesNumber" rx="2.5" ry="2.5" style="stroke:#181818;stroke-width:0.5;" width="146" x="1153" y="1015"/><ellipse cx="1168" cy="1037.291" fill="#ADD1B2" rx="11" ry="11" style="stroke:#181818;stroke-width:1.0;"/><path d="M1170.7656,1033.166 Q1170.9219,1032.9473 1171.1094,1032.8379 Q1171.2969,1032.7285 1171.5156,1032.7285 Q1171.8906,1032.7285 1172.125,1032.9941 Q1172.3594,1033.2441 1172.3594,1033.8535 L1172.3594,1035.3066 Q1172.3594,1035.916 1172.125,1036.1816 Q1171.8906,1036.4473 1171.5156,1036.4473 Q1171.1719,1036.4473 1170.9688,1036.2441 Q1170.7656,1036.0566 1170.6563,1035.541 Q1170.6094,1035.1816 1170.4219,1034.9941 Q1170.0938,1034.6191 1169.4844,1034.4004 Q1168.875,1034.1816 1168.25,1034.1816 Q1167.4844,1034.1816 1166.8438,1034.5098 Q1166.2188,1034.8379 1165.7188,1035.5879 Q1165.2344,1036.3379 1165.2344,1037.3691 L1165.2344,1038.4629 Q1165.2344,1039.6973 1166.125,1040.5254 Q1167.0156,1041.3379 1168.6094,1041.3379 Q1169.5469,1041.3379 1170.2031,1041.0879 Q1170.5938,1040.9316 1171.0156,1040.4941 Q1171.2813,1040.2285 1171.4219,1040.1504 Q1171.5781,1040.0723 1171.7813,1040.0723 Q1172.1094,1040.0723 1172.3594,1040.3379 Q1172.625,1040.5879 1172.625,1040.9316 Q1172.625,1041.2754 1172.2813,1041.6816 Q1171.7813,1042.2598 1170.9844,1042.5879 Q1169.9063,1043.041 1168.6094,1043.041 Q1167.0938,1043.041 1165.8906,1042.416 Q1164.9063,1041.916 1164.2188,1040.8535 Q1163.5313,1039.7754 1163.5313,1038.4941 L1163.5313,1037.3379 Q1163.5313,1036.0098 1164.1406,1034.8691 Q1164.7656,1033.7129 1165.8594,1033.1035 Q1166.9531,1032.4785 1168.1875,1032.4785 Q1168.9219,1032.4785 1169.5625,1032.6504 Q1170.2188,1032.8066 1170.7656,1033.166 Z " fill="#000000"/><text fill="#000000" font-family="sans-serif" font-size="12" font-style="italic" lengthAdjust="spacing" textLength="85" x="1196.5" y="1032.9492">&#171;Value Object&#187;</text><text fill="#000000" font-family="sans-serif" font-size="14" lengthAdjust="spacing" textLength="114" x="1182" y="1051.0684">VacanciesNumber</text><line style="stroke:#181818;stroke-width:0.5;" x1="1154" x2="1298" y1="1059.582" y2="1059.582"/></g><!--class Description--><g id="elem_Description"><rect codeLine="27" fill="#F1F1F1" height="52.582" id="Description" rx="2.5" ry="2.5" style="stroke:#181818;stroke-width:0.5;" width="113" x="1334.5" y="1015"/><ellipse cx="1349.5" cy="1037.291" fill="#ADD1B2" rx="11" ry="11" style="stroke:#181818;stroke-width:1.0;"/><path d="M1352.2656,1033.166 Q1352.4219,1032.9473 1352.6094,1032.8379 Q1352.7969,1032.7285 1353.0156,1032.7285 Q1353.3906,1032.7285 1353.625,1032.9941 Q1353.8594,1033.2441 1353.8594,1033.8535 L1353.8594,1035.3066 Q1353.8594,1035.916 1353.625,1036.1816 Q1353.3906,1036.4473 1353.0156,1036.4473 Q1352.6719,1036.4473 1352.4688,1036.2441 Q1352.2656,1036.0566 1352.1563,1035.541 Q1352.1094,1035.1816 1351.9219,1034.9941 Q1351.5938,1034.6191 1350.9844,1034.4004 Q1350.375,1034.1816 1349.75,1034.1816 Q1348.9844,1034.1816 1348.3438,1034.5098 Q1347.7188,1034.8379 1347.2188,1035.5879 Q1346.7344,1036.3379 1346.7344,1037.3691 L1346.7344,1038.4629 Q1346.7344,1039.6973 1347.625,1040.5254 Q1348.5156,1041.3379 1350.1094,1041.3379 Q1351.0469,1041.3379 1351.7031,1041.0879 Q1352.0938,1040.9316 1352.5156,1040.4941 Q1352.7813,1040.2285 1352.9219,1040.1504 Q1353.0781,1040.0723 1353.2813,1040.0723 Q1353.6094,1040.0723 1353.8594,1040.3379 Q1354.125,1040.5879 1354.125,1040.9316 Q1354.125,1041.2754 1353.7813,1041.6816 Q1353.2813,1042.2598 1352.4844,1042.5879 Q1351.4063,1043.041 1350.1094,1043.041 Q1348.5938,1043.041 1347.3906,1042.416 Q1346.4063,1041.916 1345.7188,1040.8535 Q1345.0313,1039.7754 1345.0313,1038.4941 L1345.0313,1037.3379 Q1345.0313,1036.0098 1345.6406,1034.8691 Q1346.2656,1033.7129 1347.3594,1033.1035 Q1348.4531,1032.4785 1349.6875,1032.4785 Q1350.4219,1032.4785 1351.0625,1032.6504 Q1351.7188,1032.8066 1352.2656,1033.166 Z " fill="#000000"/><text fill="#000000" font-family="sans-serif" font-size="12" font-style="italic" lengthAdjust="spacing" textLength="85" x="1361.5" y="1032.9492">&#171;Value Object&#187;</text><text fill="#000000" font-family="sans-serif" font-size="14" lengthAdjust="spacing" textLength="71" x="1368.5" y="1051.0684">Description</text><line style="stroke:#181818;stroke-width:0.5;" x1="1335.5" x2="1446.5" y1="1059.582" y2="1059.582"/></g><!--class Application--><g id="elem_Application"><rect codeLine="34" fill="#F1F1F1" height="68.543" id="Application" rx="2.5" ry="2.5" style="stroke:#181818;stroke-width:0.5;" width="128" x="813" y="327"/><ellipse cx="828" cy="357.2715" fill="#ADD1B2" rx="11" ry="11" style="stroke:#181818;stroke-width:1.0;"/><path d="M830.7656,353.1465 Q830.9219,352.9277 831.1094,352.8184 Q831.2969,352.709 831.5156,352.709 Q831.8906,352.709 832.125,352.9746 Q832.3594,353.2246 832.3594,353.834 L832.3594,355.2871 Q832.3594,355.8965 832.125,356.1621 Q831.8906,356.4277 831.5156,356.4277 Q831.1719,356.4277 830.9688,356.2246 Q830.7656,356.0371 830.6563,355.5215 Q830.6094,355.1621 830.4219,354.9746 Q830.0938,354.5996 829.4844,354.3809 Q828.875,354.1621 828.25,354.1621 Q827.4844,354.1621 826.8438,354.4902 Q826.2188,354.8184 825.7188,355.5684 Q825.2344,356.3184 825.2344,357.3496 L825.2344,358.4434 Q825.2344,359.6777 826.125,360.5059 Q827.0156,361.3184 828.6094,361.3184 Q829.5469,361.3184 830.2031,361.0684 Q830.5938,360.9121 831.0156,360.4746 Q831.2813,360.209 831.4219,360.1309 Q831.5781,360.0527 831.7813,360.0527 Q832.1094,360.0527 832.3594,360.3184 Q832.625,360.5684 832.625,360.9121 Q832.625,361.2559 832.2813,361.6621 Q831.7813,362.2402 830.9844,362.5684 Q829.9063,363.0215 828.6094,363.0215 Q827.0938,363.0215 825.8906,362.3965 Q824.9063,361.8965 824.2188,360.834 Q823.5313,359.7559 823.5313,358.4746 L823.5313,357.3184 Q823.5313,355.9902 824.1406,354.8496 Q824.7656,353.6934 825.8594,353.084 Q826.9531,352.459 828.1875,352.459 Q828.9219,352.459 829.5625,352.6309 Q830.2188,352.7871 830.7656,353.1465 Z " fill="#000000"/><text fill="#000000" font-family="sans-serif" font-size="12" font-style="italic" lengthAdjust="spacing" textLength="100" x="840" y="344.9492">&#171;Aggregate Root&#187;</text><text fill="#000000" font-family="sans-serif" font-size="12" font-style="italic" lengthAdjust="spacing" textLength="44" x="868" y="360.9102">&#171;Entity&#187;</text><text fill="#000000" font-family="sans-serif" font-size="14" lengthAdjust="spacing" textLength="69" x="855.5" y="379.0293">Application</text><line style="stroke:#181818;stroke-width:0.5;" x1="814" x2="940" y1="387.543" y2="387.543"/></g><!--class ApplicationId--><g id="elem_ApplicationId"><rect codeLine="36" fill="#F1F1F1" height="68.543" id="ApplicationId" rx="2.5" ry="2.5" style="stroke:#181818;stroke-width:0.5;" width="113" x="360.5" y="457"/><ellipse cx="375.5" cy="487.2715" fill="#ADD1B2" rx="11" ry="11" style="stroke:#181818;stroke-width:1.0;"/><path d="M378.2656,483.1465 Q378.4219,482.9277 378.6094,482.8184 Q378.7969,482.709 379.0156,482.709 Q379.3906,482.709 379.625,482.9746 Q379.8594,483.2246 379.8594,483.834 L379.8594,485.2871 Q379.8594,485.8965 379.625,486.1621 Q379.3906,486.4277 379.0156,486.4277 Q378.6719,486.4277 378.4688,486.2246 Q378.2656,486.0371 378.1563,485.5215 Q378.1094,485.1621 377.9219,484.9746 Q377.5938,484.5996 376.9844,484.3809 Q376.375,484.1621 375.75,484.1621 Q374.9844,484.1621 374.3438,484.4902 Q373.7188,484.8184 373.2188,485.5684 Q372.7344,486.3184 372.7344,487.3496 L372.7344,488.4434 Q372.7344,489.6777 373.625,490.5059 Q374.5156,491.3184 376.1094,491.3184 Q377.0469,491.3184 377.7031,491.0684 Q378.0938,490.9121 378.5156,490.4746 Q378.7813,490.209 378.9219,490.1309 Q379.0781,490.0527 379.2813,490.0527 Q379.6094,490.0527 379.8594,490.3184 Q380.125,490.5684 380.125,490.9121 Q380.125,491.2559 379.7813,491.6621 Q379.2813,492.2402 378.4844,492.5684 Q377.4063,493.0215 376.1094,493.0215 Q374.5938,493.0215 373.3906,492.3965 Q372.4063,491.8965 371.7188,490.834 Q371.0313,489.7559 371.0313,488.4746 L371.0313,487.3184 Q371.0313,485.9902 371.6406,484.8496 Q372.2656,483.6934 373.3594,483.084 Q374.4531,482.459 375.6875,482.459 Q376.4219,482.459 377.0625,482.6309 Q377.7188,482.7871 378.2656,483.1465 Z " fill="#000000"/><text fill="#000000" font-family="sans-serif" font-size="12" font-style="italic" lengthAdjust="spacing" textLength="54" x="403" y="474.9492">&#171;Identity&#187;</text><text fill="#000000" font-family="sans-serif" font-size="12" font-style="italic" lengthAdjust="spacing" textLength="85" x="387.5" y="490.9102">&#171;Value Object&#187;</text><text fill="#000000" font-family="sans-serif" font-size="14" lengthAdjust="spacing" textLength="80" x="390" y="509.0293">ApplicationId</text><line style="stroke:#181818;stroke-width:0.5;" x1="361.5" x2="472.5" y1="517.543" y2="517.543"/></g><!--class AttachedEmail--><g id="elem_AttachedEmail"><rect codeLine="38" fill="#F1F1F1" height="52.582" id="AttachedEmail" rx="2.5" ry="2.5" style="stroke:#181818;stroke-width:0.5;" width="122" x="509" y="465"/><ellipse cx="524" cy="487.291" fill="#ADD1B2" rx="11" ry="11" style="stroke:#181818;stroke-width:1.0;"/><path d="M526.7656,483.166 Q526.9219,482.9473 527.1094,482.8379 Q527.2969,482.7285 527.5156,482.7285 Q527.8906,482.7285 528.125,482.9941 Q528.3594,483.2441 528.3594,483.8535 L528.3594,485.3066 Q528.3594,485.916 528.125,486.1816 Q527.8906,486.4473 527.5156,486.4473 Q527.1719,486.4473 526.9688,486.2441 Q526.7656,486.0566 526.6563,485.541 Q526.6094,485.1816 526.4219,484.9941 Q526.0938,484.6191 525.4844,484.4004 Q524.875,484.1816 524.25,484.1816 Q523.4844,484.1816 522.8438,484.5098 Q522.2188,484.8379 521.7188,485.5879 Q521.2344,486.3379 521.2344,487.3691 L521.2344,488.4629 Q521.2344,489.6973 522.125,490.5254 Q523.0156,491.3379 524.6094,491.3379 Q525.5469,491.3379 526.2031,491.0879 Q526.5938,490.9316 527.0156,490.4941 Q527.2813,490.2285 527.4219,490.1504 Q527.5781,490.0723 527.7813,490.0723 Q528.1094,490.0723 528.3594,490.3379 Q528.625,490.5879 528.625,490.9316 Q528.625,491.2754 528.2813,491.6816 Q527.7813,492.2598 526.9844,492.5879 Q525.9063,493.041 524.6094,493.041 Q523.0938,493.041 521.8906,492.416 Q520.9063,491.916 520.2188,490.8535 Q519.5313,489.7754 519.5313,488.4941 L519.5313,487.3379 Q519.5313,486.0098 520.1406,484.8691 Q520.7656,483.7129 521.8594,483.1035 Q522.9531,482.4785 524.1875,482.4785 Q524.9219,482.4785 525.5625,482.6504 Q526.2188,482.8066 526.7656,483.166 Z " fill="#000000"/><text fill="#000000" font-family="sans-serif" font-size="12" font-style="italic" lengthAdjust="spacing" textLength="85" x="540.5" y="482.9492">&#171;Value Object&#187;</text><text fill="#000000" font-family="sans-serif" font-size="14" lengthAdjust="spacing" textLength="90" x="538" y="501.0684">AttachedEmail</text><line style="stroke:#181818;stroke-width:0.5;" x1="510" x2="630" y1="509.582" y2="509.582"/></g><!--class AttachedFile--><g id="elem_AttachedFile"><rect codeLine="40" fill="#F1F1F1" height="52.582" id="AttachedFile" rx="2.5" ry="2.5" style="stroke:#181818;stroke-width:0.5;" width="113" x="666.5" y="465"/><ellipse cx="681.5" cy="487.291" fill="#ADD1B2" rx="11" ry="11" style="stroke:#181818;stroke-width:1.0;"/><path d="M684.2656,483.166 Q684.4219,482.9473 684.6094,482.8379 Q684.7969,482.7285 685.0156,482.7285 Q685.3906,482.7285 685.625,482.9941 Q685.8594,483.2441 685.8594,483.8535 L685.8594,485.3066 Q685.8594,485.916 685.625,486.1816 Q685.3906,486.4473 685.0156,486.4473 Q684.6719,486.4473 684.4688,486.2441 Q684.2656,486.0566 684.1563,485.541 Q684.1094,485.1816 683.9219,484.9941 Q683.5938,484.6191 682.9844,484.4004 Q682.375,484.1816 681.75,484.1816 Q680.9844,484.1816 680.3438,484.5098 Q679.7188,484.8379 679.2188,485.5879 Q678.7344,486.3379 678.7344,487.3691 L678.7344,488.4629 Q678.7344,489.6973 679.625,490.5254 Q680.5156,491.3379 682.1094,491.3379 Q683.0469,491.3379 683.7031,491.0879 Q684.0938,490.9316 684.5156,490.4941 Q684.7813,490.2285 684.9219,490.1504 Q685.0781,490.0723 685.2813,490.0723 Q685.6094,490.0723 685.8594,490.3379 Q686.125,490.5879 686.125,490.9316 Q686.125,491.2754 685.7813,491.6816 Q685.2813,492.2598 684.4844,492.5879 Q683.4063,493.041 682.1094,493.041 Q680.5938,493.041 679.3906,492.416 Q678.4063,491.916 677.7188,490.8535 Q677.0313,489.7754 677.0313,488.4941 L677.0313,487.3379 Q677.0313,486.0098 677.6406,484.8691 Q678.2656,483.7129 679.3594,483.1035 Q680.4531,482.4785 681.6875,482.4785 Q682.4219,482.4785 683.0625,482.6504 Q683.7188,482.8066 684.2656,483.166 Z " fill="#000000"/><text fill="#000000" font-family="sans-serif" font-size="12" font-style="italic" lengthAdjust="spacing" textLength="85" x="693.5" y="482.9492">&#171;Value Object&#187;</text><text fill="#000000" font-family="sans-serif" font-size="14" lengthAdjust="spacing" textLength="79" x="696.5" y="501.0684">AttachedFile</text><line style="stroke:#181818;stroke-width:0.5;" x1="667.5" x2="778.5" y1="509.582" y2="509.582"/></g><!--class ApplicatorData--><g id="elem_ApplicatorData"><rect codeLine="42" fill="#F1F1F1" height="52.582" id="ApplicatorData" rx="2.5" ry="2.5" style="stroke:#181818;stroke-width:0.5;" width="125" x="814.5" y="465"/><ellipse cx="829.5" cy="487.291" fill="#ADD1B2" rx="11" ry="11" style="stroke:#181818;stroke-width:1.0;"/><path d="M832.2656,483.166 Q832.4219,482.9473 832.6094,482.8379 Q832.7969,482.7285 833.0156,482.7285 Q833.3906,482.7285 833.625,482.9941 Q833.8594,483.2441 833.8594,483.8535 L833.8594,485.3066 Q833.8594,485.916 833.625,486.1816 Q833.3906,486.4473 833.0156,486.4473 Q832.6719,486.4473 832.4688,486.2441 Q832.2656,486.0566 832.1563,485.541 Q832.1094,485.1816 831.9219,484.9941 Q831.5938,484.6191 830.9844,484.4004 Q830.375,484.1816 829.75,484.1816 Q828.9844,484.1816 828.3438,484.5098 Q827.7188,484.8379 827.2188,485.5879 Q826.7344,486.3379 826.7344,487.3691 L826.7344,488.4629 Q826.7344,489.6973 827.625,490.5254 Q828.5156,491.3379 830.1094,491.3379 Q831.0469,491.3379 831.7031,491.0879 Q832.0938,490.9316 832.5156,490.4941 Q832.7813,490.2285 832.9219,490.1504 Q833.0781,490.0723 833.2813,490.0723 Q833.6094,490.0723 833.8594,490.3379 Q834.125,490.5879 834.125,490.9316 Q834.125,491.2754 833.7813,491.6816 Q833.2813,492.2598 832.4844,492.5879 Q831.4063,493.041 830.1094,493.041 Q828.5938,493.041 827.3906,492.416 Q826.4063,491.916 825.7188,490.8535 Q825.0313,489.7754 825.0313,488.4941 L825.0313,487.3379 Q825.0313,486.0098 825.6406,484.8691 Q826.2656,483.7129 827.3594,483.1035 Q828.4531,482.4785 829.6875,482.4785 Q830.4219,482.4785 831.0625,482.6504 Q831.7188,482.8066 832.2656,483.166 Z " fill="#000000"/><text fill="#000000" font-family="sans-serif" font-size="12" font-style="italic" lengthAdjust="spacing" textLength="85" x="847.5" y="482.9492">&#171;Value Object&#187;</text><text fill="#000000" font-family="sans-serif" font-size="14" lengthAdjust="spacing" textLength="93" x="843.5" y="501.0684">ApplicatorData</text><line style="stroke:#181818;stroke-width:0.5;" x1="815.5" x2="938.5" y1="509.582" y2="509.582"/></g><!--class ApplicationStatus--><g id="elem_ApplicationStatus"><rect codeLine="44" fill="#F1F1F1" height="52.582" id="ApplicationStatus" rx="2.5" ry="2.5" style="stroke:#181818;stroke-width:0.5;" width="141" x="974.5" y="465"/><ellipse cx="989.5" cy="487.291" fill="#ADD1B2" rx="11" ry="11" style="stroke:#181818;stroke-width:1.0;"/><path d="M992.2656,483.166 Q992.4219,482.9473 992.6094,482.8379 Q992.7969,482.7285 993.0156,482.7285 Q993.3906,482.7285 993.625,482.9941 Q993.8594,483.2441 993.8594,483.8535 L993.8594,485.3066 Q993.8594,485.916 993.625,486.1816 Q993.3906,486.4473 993.0156,486.4473 Q992.6719,486.4473 992.4688,486.2441 Q992.2656,486.0566 992.1563,485.541 Q992.1094,485.1816 991.9219,484.9941 Q991.5938,484.6191 990.9844,484.4004 Q990.375,484.1816 989.75,484.1816 Q988.9844,484.1816 988.3438,484.5098 Q987.7188,484.8379 987.2188,485.5879 Q986.7344,486.3379 986.7344,487.3691 L986.7344,488.4629 Q986.7344,489.6973 987.625,490.5254 Q988.5156,491.3379 990.1094,491.3379 Q991.0469,491.3379 991.7031,491.0879 Q992.0938,490.9316 992.5156,490.4941 Q992.7813,490.2285 992.9219,490.1504 Q993.0781,490.0723 993.2813,490.0723 Q993.6094,490.0723 993.8594,490.3379 Q994.125,490.5879 994.125,490.9316 Q994.125,491.2754 993.7813,491.6816 Q993.2813,492.2598 992.4844,492.5879 Q991.4063,493.041 990.1094,493.041 Q988.5938,493.041 987.3906,492.416 Q986.4063,491.916 985.7188,490.8535 Q985.0313,489.7754 985.0313,488.4941 L985.0313,487.3379 Q985.0313,486.0098 985.6406,484.8691 Q986.2656,483.7129 987.3594,483.1035 Q988.4531,482.4785 989.6875,482.4785 Q990.4219,482.4785 991.0625,482.6504 Q991.7188,482.8066 992.2656,483.166 Z " fill="#000000"/><text fill="#000000" font-family="sans-serif" font-size="12" font-style="italic" lengthAdjust="spacing" textLength="85" x="1015.5" y="482.9492">&#171;Value Object&#187;</text><text fill="#000000" font-family="sans-serif" font-size="14" lengthAdjust="spacing" textLength="109" x="1003.5" y="501.0684">ApplicationStatus</text><line style="stroke:#181818;stroke-width:0.5;" x1="975.5" x2="1114.5" y1="509.582" y2="509.582"/></g><!--class ApplicationRank--><g id="elem_ApplicationRank"><rect codeLine="46" fill="#F1F1F1" height="52.582" id="ApplicationRank" rx="2.5" ry="2.5" style="stroke:#181818;stroke-width:0.5;" width="134" x="1151" y="465"/><ellipse cx="1166" cy="487.291" fill="#ADD1B2" rx="11" ry="11" style="stroke:#181818;stroke-width:1.0;"/><path d="M1168.7656,483.166 Q1168.9219,482.9473 1169.1094,482.8379 Q1169.2969,482.7285 1169.5156,482.7285 Q1169.8906,482.7285 1170.125,482.9941 Q1170.3594,483.2441 1170.3594,483.8535 L1170.3594,485.3066 Q1170.3594,485.916 1170.125,486.1816 Q1169.8906,486.4473 1169.5156,486.4473 Q1169.1719,486.4473 1168.9688,486.2441 Q1168.7656,486.0566 1168.6563,485.541 Q1168.6094,485.1816 1168.4219,484.9941 Q1168.0938,484.6191 1167.4844,484.4004 Q1166.875,484.1816 1166.25,484.1816 Q1165.4844,484.1816 1164.8438,484.5098 Q1164.2188,484.8379 1163.7188,485.5879 Q1163.2344,486.3379 1163.2344,487.3691 L1163.2344,488.4629 Q1163.2344,489.6973 1164.125,490.5254 Q1165.0156,491.3379 1166.6094,491.3379 Q1167.5469,491.3379 1168.2031,491.0879 Q1168.5938,490.9316 1169.0156,490.4941 Q1169.2813,490.2285 1169.4219,490.1504 Q1169.5781,490.0723 1169.7813,490.0723 Q1170.1094,490.0723 1170.3594,490.3379 Q1170.625,490.5879 1170.625,490.9316 Q1170.625,491.2754 1170.2813,491.6816 Q1169.7813,492.2598 1168.9844,492.5879 Q1167.9063,493.041 1166.6094,493.041 Q1165.0938,493.041 1163.8906,492.416 Q1162.9063,491.916 1162.2188,490.8535 Q1161.5313,489.7754 1161.5313,488.4941 L1161.5313,487.3379 Q1161.5313,486.0098 1162.1406,484.8691 Q1162.7656,483.7129 1163.8594,483.1035 Q1164.9531,482.4785 1166.1875,482.4785 Q1166.9219,482.4785 1167.5625,482.6504 Q1168.2188,482.8066 1168.7656,483.166 Z " fill="#000000"/><text fill="#000000" font-family="sans-serif" font-size="12" font-style="italic" lengthAdjust="spacing" textLength="85" x="1188.5" y="482.9492">&#171;Value Object&#187;</text><text fill="#000000" font-family="sans-serif" font-size="14" lengthAdjust="spacing" textLength="102" x="1180" y="501.0684">ApplicationRank</text><line style="stroke:#181818;stroke-width:0.5;" x1="1152" x2="1284" y1="509.582" y2="509.582"/></g><!--class Candidate--><g id="elem_Candidate"><rect codeLine="52" fill="#F1F1F1" height="68.543" id="Candidate" rx="2.5" ry="2.5" style="stroke:#181818;stroke-width:0.5;" width="128" x="1391" y="327"/><ellipse cx="1406" cy="357.2715" fill="#ADD1B2" rx="11" ry="11" style="stroke:#181818;stroke-width:1.0;"/><path d="M1408.7656,353.1465 Q1408.9219,352.9277 1409.1094,352.8184 Q1409.2969,352.709 1409.5156,352.709 Q1409.8906,352.709 1410.125,352.9746 Q1410.3594,353.2246 1410.3594,353.834 L1410.3594,355.2871 Q1410.3594,355.8965 1410.125,356.1621 Q1409.8906,356.4277 1409.5156,356.4277 Q1409.1719,356.4277 1408.9688,356.2246 Q1408.7656,356.0371 1408.6563,355.5215 Q1408.6094,355.1621 1408.4219,354.9746 Q1408.0938,354.5996 1407.4844,354.3809 Q1406.875,354.1621 1406.25,354.1621 Q1405.4844,354.1621 1404.8438,354.4902 Q1404.2188,354.8184 1403.7188,355.5684 Q1403.2344,356.3184 1403.2344,357.3496 L1403.2344,358.4434 Q1403.2344,359.6777 1404.125,360.5059 Q1405.0156,361.3184 1406.6094,361.3184 Q1407.5469,361.3184 1408.2031,361.0684 Q1408.5938,360.9121 1409.0156,360.4746 Q1409.2813,360.209 1409.4219,360.1309 Q1409.5781,360.0527 1409.7813,360.0527 Q1410.1094,360.0527 1410.3594,360.3184 Q1410.625,360.5684 1410.625,360.9121 Q1410.625,361.2559 1410.2813,361.6621 Q1409.7813,362.2402 1408.9844,362.5684 Q1407.9063,363.0215 1406.6094,363.0215 Q1405.0938,363.0215 1403.8906,362.3965 Q1402.9063,361.8965 1402.2188,360.834 Q1401.5313,359.7559 1401.5313,358.4746 L1401.5313,357.3184 Q1401.5313,355.9902 1402.1406,354.8496 Q1402.7656,353.6934 1403.8594,353.084 Q1404.9531,352.459 1406.1875,352.459 Q1406.9219,352.459 1407.5625,352.6309 Q1408.2188,352.7871 1408.7656,353.1465 Z " fill="#000000"/><text fill="#000000" font-family="sans-serif" font-size="12" font-style="italic" lengthAdjust="spacing" textLength="100" x="1418" y="344.9492">&#171;Aggregate Root&#187;</text><text fill="#000000" font-family="sans-serif" font-size="12" font-style="italic" lengthAdjust="spacing" textLength="44" x="1446" y="360.9102">&#171;Entity&#187;</text><text fill="#000000" font-family="sans-serif" font-size="14" lengthAdjust="spacing" textLength="65" x="1435.5" y="379.0293">Candidate</text><line style="stroke:#181818;stroke-width:0.5;" x1="1392" x2="1518" y1="387.543" y2="387.543"/></g><!--class CandidateId--><g id="elem_CandidateId"><rect codeLine="53" fill="#F1F1F1" height="68.543" id="CandidateId" rx="2.5" ry="2.5" style="stroke:#181818;stroke-width:0.5;" width="113" x="1391.5" y="457"/><ellipse cx="1406.5" cy="487.2715" fill="#ADD1B2" rx="11" ry="11" style="stroke:#181818;stroke-width:1.0;"/><path d="M1409.2656,483.1465 Q1409.4219,482.9277 1409.6094,482.8184 Q1409.7969,482.709 1410.0156,482.709 Q1410.3906,482.709 1410.625,482.9746 Q1410.8594,483.2246 1410.8594,483.834 L1410.8594,485.2871 Q1410.8594,485.8965 1410.625,486.1621 Q1410.3906,486.4277 1410.0156,486.4277 Q1409.6719,486.4277 1409.4688,486.2246 Q1409.2656,486.0371 1409.1563,485.5215 Q1409.1094,485.1621 1408.9219,484.9746 Q1408.5938,484.5996 1407.9844,484.3809 Q1407.375,484.1621 1406.75,484.1621 Q1405.9844,484.1621 1405.3438,484.4902 Q1404.7188,484.8184 1404.2188,485.5684 Q1403.7344,486.3184 1403.7344,487.3496 L1403.7344,488.4434 Q1403.7344,489.6777 1404.625,490.5059 Q1405.5156,491.3184 1407.1094,491.3184 Q1408.0469,491.3184 1408.7031,491.0684 Q1409.0938,490.9121 1409.5156,490.4746 Q1409.7813,490.209 1409.9219,490.1309 Q1410.0781,490.0527 1410.2813,490.0527 Q1410.6094,490.0527 1410.8594,490.3184 Q1411.125,490.5684 1411.125,490.9121 Q1411.125,491.2559 1410.7813,491.6621 Q1410.2813,492.2402 1409.4844,492.5684 Q1408.4063,493.0215 1407.1094,493.0215 Q1405.5938,493.0215 1404.3906,492.3965 Q1403.4063,491.8965 1402.7188,490.834 Q1402.0313,489.7559 1402.0313,488.4746 L1402.0313,487.3184 Q1402.0313,485.9902 1402.6406,484.8496 Q1403.2656,483.6934 1404.3594,483.084 Q1405.4531,482.459 1406.6875,482.459 Q1407.4219,482.459 1408.0625,482.6309 Q1408.7188,482.7871 1409.2656,483.1465 Z " fill="#000000"/><text fill="#000000" font-family="sans-serif" font-size="12" font-style="italic" lengthAdjust="spacing" textLength="54" x="1434" y="474.9492">&#171;Identity&#187;</text><text fill="#000000" font-family="sans-serif" font-size="12" font-style="italic" lengthAdjust="spacing" textLength="85" x="1418.5" y="490.9102">&#171;Value Object&#187;</text><text fill="#000000" font-family="sans-serif" font-size="14" lengthAdjust="spacing" textLength="76" x="1423" y="509.0293">CandidateId</text><line style="stroke:#181818;stroke-width:0.5;" x1="1392.5" x2="1503.5" y1="517.543" y2="517.543"/></g><!--class CurriculumVitae--><g id="elem_CurriculumVitae"><rect codeLine="54" fill="#F1F1F1" height="52.582" id="CurriculumVitae" rx="2.5" ry="2.5" style="stroke:#181818;stroke-width:0.5;" width="132" x="1540" y="465"/><ellipse cx="1555" cy="487.291" fill="#ADD1B2" rx="11" ry="11" style="stroke:#181818;stroke-width:1.0;"/><path d="M1557.7656,483.166 Q1557.9219,482.9473 1558.1094,482.8379 Q1558.2969,482.7285 1558.5156,482.7285 Q1558.8906,482.7285 1559.125,482.9941 Q1559.3594,483.2441 1559.3594,483.8535 L1559.3594,485.3066 Q1559.3594,485.916 1559.125,486.1816 Q1558.8906,486.4473 1558.5156,486.4473 Q1558.1719,486.4473 1557.9688,486.2441 Q1557.7656,486.0566 1557.6563,485.541 Q1557.6094,485.1816 1557.4219,484.9941 Q1557.0938,484.6191 1556.4844,484.4004 Q1555.875,484.1816 1555.25,484.1816 Q1554.4844,484.1816 1553.8438,484.5098 Q1553.2188,484.8379 1552.7188,485.5879 Q1552.2344,486.3379 1552.2344,487.3691 L1552.2344,488.4629 Q1552.2344,489.6973 1553.125,490.5254 Q1554.0156,491.3379 1555.6094,491.3379 Q1556.5469,491.3379 1557.2031,491.0879 Q1557.5938,490.9316 1558.0156,490.4941 Q1558.2813,490.2285 1558.4219,490.1504 Q1558.5781,490.0723 1558.7813,490.0723 Q1559.1094,490.0723 1559.3594,490.3379 Q1559.625,490.5879 1559.625,490.9316 Q1559.625,491.2754 1559.2813,491.6816 Q1558.7813,492.2598 1557.9844,492.5879 Q1556.9063,493.041 1555.6094,493.041 Q1554.0938,493.041 1552.8906,492.416 Q1551.9063,491.916 1551.2188,490.8535 Q1550.5313,489.7754 1550.5313,488.4941 L1550.5313,487.3379 Q1550.5313,486.0098 1551.1406,484.8691 Q1551.7656,483.7129 1552.8594,483.1035 Q1553.9531,482.4785 1555.1875,482.4785 Q1555.9219,482.4785 1556.5625,482.6504 Q1557.2188,482.8066 1557.7656,483.166 Z " fill="#000000"/><text fill="#000000" font-family="sans-serif" font-size="12" font-style="italic" lengthAdjust="spacing" textLength="85" x="1576.5" y="482.9492">&#171;Value Object&#187;</text><text fill="#000000" font-family="sans-serif" font-size="14" lengthAdjust="spacing" textLength="100" x="1569" y="501.0684">CurriculumVitae</text><line style="stroke:#181818;stroke-width:0.5;" x1="1541" x2="1671" y1="509.582" y2="509.582"/></g><!--class JobOpeningProcess--><g id="elem_JobOpeningProcess"><rect codeLine="60" fill="#F1F1F1" height="68.543" id="JobOpeningProcess" rx="2.5" ry="2.5" style="stroke:#181818;stroke-width:0.5;" width="159" x="1421.5" y="1304"/><ellipse cx="1436.5" cy="1334.2715" fill="#ADD1B2" rx="11" ry="11" style="stroke:#181818;stroke-width:1.0;"/><path d="M1439.2656,1330.1465 Q1439.4219,1329.9277 1439.6094,1329.8184 Q1439.7969,1329.709 1440.0156,1329.709 Q1440.3906,1329.709 1440.625,1329.9746 Q1440.8594,1330.2246 1440.8594,1330.834 L1440.8594,1332.2871 Q1440.8594,1332.8965 1440.625,1333.1621 Q1440.3906,1333.4277 1440.0156,1333.4277 Q1439.6719,1333.4277 1439.4688,1333.2246 Q1439.2656,1333.0371 1439.1563,1332.5215 Q1439.1094,1332.1621 1438.9219,1331.9746 Q1438.5938,1331.5996 1437.9844,1331.3809 Q1437.375,1331.1621 1436.75,1331.1621 Q1435.9844,1331.1621 1435.3438,1331.4902 Q1434.7188,1331.8184 1434.2188,1332.5684 Q1433.7344,1333.3184 1433.7344,1334.3496 L1433.7344,1335.4434 Q1433.7344,1336.6777 1434.625,1337.5059 Q1435.5156,1338.3184 1437.1094,1338.3184 Q1438.0469,1338.3184 1438.7031,1338.0684 Q1439.0938,1337.9121 1439.5156,1337.4746 Q1439.7813,1337.209 1439.9219,1337.1309 Q1440.0781,1337.0527 1440.2813,1337.0527 Q1440.6094,1337.0527 1440.8594,1337.3184 Q1441.125,1337.5684 1441.125,1337.9121 Q1441.125,1338.2559 1440.7813,1338.6621 Q1440.2813,1339.2402 1439.4844,1339.5684 Q1438.4063,1340.0215 1437.1094,1340.0215 Q1435.5938,1340.0215 1434.3906,1339.3965 Q1433.4063,1338.8965 1432.7188,1337.834 Q1432.0313,1336.7559 1432.0313,1335.4746 L1432.0313,1334.3184 Q1432.0313,1332.9902 1432.6406,1331.8496 Q1433.2656,1330.6934 1434.3594,1330.084 Q1435.4531,1329.459 1436.6875,1329.459 Q1437.4219,1329.459 1438.0625,1329.6309 Q1438.7188,1329.7871 1439.2656,1330.1465 Z " fill="#000000"/><text fill="#000000" font-family="sans-serif" font-size="12" font-style="italic" lengthAdjust="spacing" textLength="100" x="1464" y="1321.9492">&#171;Aggregate Root&#187;</text><text fill="#000000" font-family="sans-serif" font-size="12" font-style="italic" lengthAdjust="spacing" textLength="44" x="1492" y="1337.9102">&#171;Entity&#187;</text><text fill="#000000" font-family="sans-serif" font-size="14" lengthAdjust="spacing" textLength="127" x="1450.5" y="1356.0293">JobOpeningProcess</text><line style="stroke:#181818;stroke-width:0.5;" x1="1422.5" x2="1579.5" y1="1364.543" y2="1364.543"/></g><!--class JobOpeningProcessId--><g id="elem_JobOpeningProcessId"><rect codeLine="61" fill="#F1F1F1" height="68.543" id="JobOpeningProcessId" rx="2.5" ry="2.5" style="stroke:#181818;stroke-width:0.5;" width="170" x="1216" y="1304"/><ellipse cx="1231" cy="1334.2715" fill="#ADD1B2" rx="11" ry="11" style="stroke:#181818;stroke-width:1.0;"/><path d="M1233.7656,1330.1465 Q1233.9219,1329.9277 1234.1094,1329.8184 Q1234.2969,1329.709 1234.5156,1329.709 Q1234.8906,1329.709 1235.125,1329.9746 Q1235.3594,1330.2246 1235.3594,1330.834 L1235.3594,1332.2871 Q1235.3594,1332.8965 1235.125,1333.1621 Q1234.8906,1333.4277 1234.5156,1333.4277 Q1234.1719,1333.4277 1233.9688,1333.2246 Q1233.7656,1333.0371 1233.6563,1332.5215 Q1233.6094,1332.1621 1233.4219,1331.9746 Q1233.0938,1331.5996 1232.4844,1331.3809 Q1231.875,1331.1621 1231.25,1331.1621 Q1230.4844,1331.1621 1229.8438,1331.4902 Q1229.2188,1331.8184 1228.7188,1332.5684 Q1228.2344,1333.3184 1228.2344,1334.3496 L1228.2344,1335.4434 Q1228.2344,1336.6777 1229.125,1337.5059 Q1230.0156,1338.3184 1231.6094,1338.3184 Q1232.5469,1338.3184 1233.2031,1338.0684 Q1233.5938,1337.9121 1234.0156,1337.4746 Q1234.2813,1337.209 1234.4219,1337.1309 Q1234.5781,1337.0527 1234.7813,1337.0527 Q1235.1094,1337.0527 1235.3594,1337.3184 Q1235.625,1337.5684 1235.625,1337.9121 Q1235.625,1338.2559 1235.2813,1338.6621 Q1234.7813,1339.2402 1233.9844,1339.5684 Q1232.9063,1340.0215 1231.6094,1340.0215 Q1230.0938,1340.0215 1228.8906,1339.3965 Q1227.9063,1338.8965 1227.2188,1337.834 Q1226.5313,1336.7559 1226.5313,1335.4746 L1226.5313,1334.3184 Q1226.5313,1332.9902 1227.1406,1331.8496 Q1227.7656,1330.6934 1228.8594,1330.084 Q1229.9531,1329.459 1231.1875,1329.459 Q1231.9219,1329.459 1232.5625,1329.6309 Q1233.2188,1329.7871 1233.7656,1330.1465 Z " fill="#000000"/><text fill="#000000" font-family="sans-serif" font-size="12" font-style="italic" lengthAdjust="spacing" textLength="54" x="1287" y="1321.9492">&#171;Identity&#187;</text><text fill="#000000" font-family="sans-serif" font-size="12" font-style="italic" lengthAdjust="spacing" textLength="85" x="1271.5" y="1337.9102">&#171;Value Object&#187;</text><text fill="#000000" font-family="sans-serif" font-size="14" lengthAdjust="spacing" textLength="138" x="1245" y="1356.0293">JobOpeningProcessId</text><line style="stroke:#181818;stroke-width:0.5;" x1="1217" x2="1385" y1="1364.543" y2="1364.543"/></g><!--class Phase--><g id="elem_Phase"><rect codeLine="64" fill="#F1F1F1" height="52.582" id="Phase" rx="2.5" ry="2.5" style="stroke:#181818;stroke-width:0.5;" width="72" x="1465" y="1434"/><ellipse cx="1480" cy="1456.291" fill="#ADD1B2" rx="11" ry="11" style="stroke:#181818;stroke-width:1.0;"/><path d="M1482.7656,1452.166 Q1482.9219,1451.9473 1483.1094,1451.8379 Q1483.2969,1451.7285 1483.5156,1451.7285 Q1483.8906,1451.7285 1484.125,1451.9941 Q1484.3594,1452.2441 1484.3594,1452.8535 L1484.3594,1454.3066 Q1484.3594,1454.916 1484.125,1455.1816 Q1483.8906,1455.4473 1483.5156,1455.4473 Q1483.1719,1455.4473 1482.9688,1455.2441 Q1482.7656,1455.0566 1482.6563,1454.541 Q1482.6094,1454.1816 1482.4219,1453.9941 Q1482.0938,1453.6191 1481.4844,1453.4004 Q1480.875,1453.1816 1480.25,1453.1816 Q1479.4844,1453.1816 1478.8438,1453.5098 Q1478.2188,1453.8379 1477.7188,1454.5879 Q1477.2344,1455.3379 1477.2344,1456.3691 L1477.2344,1457.4629 Q1477.2344,1458.6973 1478.125,1459.5254 Q1479.0156,1460.3379 1480.6094,1460.3379 Q1481.5469,1460.3379 1482.2031,1460.0879 Q1482.5938,1459.9316 1483.0156,1459.4941 Q1483.2813,1459.2285 1483.4219,1459.1504 Q1483.5781,1459.0723 1483.7813,1459.0723 Q1484.1094,1459.0723 1484.3594,1459.3379 Q1484.625,1459.5879 1484.625,1459.9316 Q1484.625,1460.2754 1484.2813,1460.6816 Q1483.7813,1461.2598 1482.9844,1461.5879 Q1481.9063,1462.041 1480.6094,1462.041 Q1479.0938,1462.041 1477.8906,1461.416 Q1476.9063,1460.916 1476.2188,1459.8535 Q1475.5313,1458.7754 1475.5313,1457.4941 L1475.5313,1456.3379 Q1475.5313,1455.0098 1476.1406,1453.8691 Q1476.7656,1452.7129 1477.8594,1452.1035 Q1478.9531,1451.4785 1480.1875,1451.4785 Q1480.9219,1451.4785 1481.5625,1451.6504 Q1482.2188,1451.8066 1482.7656,1452.166 Z " fill="#000000"/><text fill="#000000" font-family="sans-serif" font-size="12" font-style="italic" lengthAdjust="spacing" textLength="44" x="1492" y="1451.9492">&#171;Entity&#187;</text><text fill="#000000" font-family="sans-serif" font-size="14" lengthAdjust="spacing" textLength="40" x="1494" y="1470.0684">Phase</text><line style="stroke:#181818;stroke-width:0.5;" x1="1466" x2="1536" y1="1478.582" y2="1478.582"/></g><!--class PhaseType--><g id="elem_PhaseType"><rect codeLine="66" fill="#F1F1F1" height="161.6484" id="PhaseType" rx="2.5" ry="2.5" style="stroke:#181818;stroke-width:0.5;" width="113" x="1444.5" y="1548"/><ellipse cx="1459.5" cy="1578.2715" fill="#EB937F" rx="11" ry="11" style="stroke:#181818;stroke-width:1.0;"/><path d="M1458.3594,1579.0684 L1458.3594,1581.5684 L1462.6875,1581.5684 L1462.6875,1580.6465 Q1462.6875,1580.0371 1462.9219,1579.7715 Q1463.1719,1579.5059 1463.5469,1579.5059 Q1463.9219,1579.5059 1464.1563,1579.7715 Q1464.3906,1580.0371 1464.3906,1580.6465 L1464.3906,1583.2715 L1456.3906,1583.2715 Q1455.7656,1583.2715 1455.5,1583.0371 Q1455.25,1582.8027 1455.25,1582.4121 Q1455.25,1582.0371 1455.5156,1581.8027 Q1455.7813,1581.5684 1456.3906,1581.5684 L1456.6563,1581.5684 L1456.6563,1574.9121 L1456.3906,1574.9121 Q1455.7656,1574.9121 1455.5,1574.6777 Q1455.25,1574.4434 1455.25,1574.0527 Q1455.25,1573.6777 1455.5,1573.4434 Q1455.7656,1573.209 1456.3906,1573.209 L1464.0156,1573.209 L1464.0156,1575.8027 Q1464.0156,1576.4121 1463.7813,1576.6777 Q1463.5625,1576.9277 1463.1719,1576.9277 Q1462.7969,1576.9277 1462.5625,1576.6777 Q1462.3281,1576.4121 1462.3281,1575.8027 L1462.3281,1574.9121 L1458.3594,1574.9121 L1458.3594,1577.3652 L1459.8438,1577.3652 Q1459.8438,1576.709 1459.9688,1576.5215 Q1460.2344,1576.1152 1460.7031,1576.1152 Q1461.0781,1576.1152 1461.3125,1576.3809 Q1461.5469,1576.6309 1461.5469,1577.2402 L1461.5469,1579.209 Q1461.5469,1579.7559 1461.4219,1579.9434 Q1461.1563,1580.334 1460.7031,1580.334 Q1460.2344,1580.334 1459.9688,1579.9277 Q1459.8438,1579.7402 1459.8438,1579.0684 L1458.3594,1579.0684 Z " fill="#000000"/><text fill="#000000" font-family="sans-serif" font-size="12" font-style="italic" lengthAdjust="spacing" textLength="82" x="1473" y="1565.9492">&#171;Enumerated&#187;</text><text fill="#000000" font-family="sans-serif" font-size="12" font-style="italic" lengthAdjust="spacing" textLength="85" x="1471.5" y="1581.9102">&#171;Value Object&#187;</text><text fill="#000000" font-family="sans-serif" font-size="14" lengthAdjust="spacing" textLength="72" x="1478" y="1600.0293">PhaseType</text><line style="stroke:#181818;stroke-width:0.5;" x1="1445.5" x2="1556.5" y1="1608.543" y2="1608.543"/><text fill="#000000" font-family="sans-serif" font-size="14" lengthAdjust="spacing" textLength="89" x="1450.5" y="1627.6504">APPLICATION</text><text fill="#000000" font-family="sans-serif" font-size="14" lengthAdjust="spacing" textLength="79" x="1450.5" y="1646.2715">SCREENING</text><text fill="#000000" font-family="sans-serif" font-size="14" lengthAdjust="spacing" textLength="83" x="1450.5" y="1664.8926">INTERVIEWS</text><text fill="#000000" font-family="sans-serif" font-size="14" lengthAdjust="spacing" textLength="65" x="1450.5" y="1683.5137">ANALYSIS</text><text fill="#000000" font-family="sans-serif" font-size="14" lengthAdjust="spacing" textLength="54" x="1450.5" y="1702.1348">RESULT</text></g><!--class JobInterview--><g id="elem_JobInterview"><rect codeLine="76" fill="#F1F1F1" height="68.543" id="JobInterview" rx="2.5" ry="2.5" style="stroke:#181818;stroke-width:0.5;" width="128" x="27" y="174"/><ellipse cx="42" cy="204.2715" fill="#ADD1B2" rx="11" ry="11" style="stroke:#181818;stroke-width:1.0;"/><path d="M44.7656,200.1465 Q44.9219,199.9277 45.1094,199.8184 Q45.2969,199.709 45.5156,199.709 Q45.8906,199.709 46.125,199.9746 Q46.3594,200.2246 46.3594,200.834 L46.3594,202.2871 Q46.3594,202.8965 46.125,203.1621 Q45.8906,203.4277 45.5156,203.4277 Q45.1719,203.4277 44.9688,203.2246 Q44.7656,203.0371 44.6563,202.5215 Q44.6094,202.1621 44.4219,201.9746 Q44.0938,201.5996 43.4844,201.3809 Q42.875,201.1621 42.25,201.1621 Q41.4844,201.1621 40.8438,201.4902 Q40.2188,201.8184 39.7188,202.5684 Q39.2344,203.3184 39.2344,204.3496 L39.2344,205.4434 Q39.2344,206.6777 40.125,207.5059 Q41.0156,208.3184 42.6094,208.3184 Q43.5469,208.3184 44.2031,208.0684 Q44.5938,207.9121 45.0156,207.4746 Q45.2813,207.209 45.4219,207.1309 Q45.5781,207.0527 45.7813,207.0527 Q46.1094,207.0527 46.3594,207.3184 Q46.625,207.5684 46.625,207.9121 Q46.625,208.2559 46.2813,208.6621 Q45.7813,209.2402 44.9844,209.5684 Q43.9063,210.0215 42.6094,210.0215 Q41.0938,210.0215 39.8906,209.3965 Q38.9063,208.8965 38.2188,207.834 Q37.5313,206.7559 37.5313,205.4746 L37.5313,204.3184 Q37.5313,202.9902 38.1406,201.8496 Q38.7656,200.6934 39.8594,200.084 Q40.9531,199.459 42.1875,199.459 Q42.9219,199.459 43.5625,199.6309 Q44.2188,199.7871 44.7656,200.1465 Z " fill="#000000"/><text fill="#000000" font-family="sans-serif" font-size="12" font-style="italic" lengthAdjust="spacing" textLength="100" x="54" y="191.9492">&#171;Aggregate Root&#187;</text><text fill="#000000" font-family="sans-serif" font-size="12" font-style="italic" lengthAdjust="spacing" textLength="44" x="82" y="207.9102">&#171;Entity&#187;</text><text fill="#000000" font-family="sans-serif" font-size="14" lengthAdjust="spacing" textLength="77" x="65.5" y="226.0293">JobInterview</text><line style="stroke:#181818;stroke-width:0.5;" x1="28" x2="154" y1="234.543" y2="234.543"/></g><!--class JobInterviewId--><g id="elem_JobInterviewId"><rect codeLine="77" fill="#F1F1F1" height="68.543" id="JobInterviewId" rx="2.5" ry="2.5" style="stroke:#181818;stroke-width:0.5;" width="120" x="25" y="44"/><ellipse cx="40" cy="74.2715" fill="#ADD1B2" rx="11" ry="11" style="stroke:#181818;stroke-width:1.0;"/><path d="M42.7656,70.1465 Q42.9219,69.9277 43.1094,69.8184 Q43.2969,69.709 43.5156,69.709 Q43.8906,69.709 44.125,69.9746 Q44.3594,70.2246 44.3594,70.834 L44.3594,72.2871 Q44.3594,72.8965 44.125,73.1621 Q43.8906,73.4277 43.5156,73.4277 Q43.1719,73.4277 42.9688,73.2246 Q42.7656,73.0371 42.6563,72.5215 Q42.6094,72.1621 42.4219,71.9746 Q42.0938,71.5996 41.4844,71.3809 Q40.875,71.1621 40.25,71.1621 Q39.4844,71.1621 38.8438,71.4902 Q38.2188,71.8184 37.7188,72.5684 Q37.2344,73.3184 37.2344,74.3496 L37.2344,75.4434 Q37.2344,76.6777 38.125,77.5059 Q39.0156,78.3184 40.6094,78.3184 Q41.5469,78.3184 42.2031,78.0684 Q42.5938,77.9121 43.0156,77.4746 Q43.2813,77.209 43.4219,77.1309 Q43.5781,77.0527 43.7813,77.0527 Q44.1094,77.0527 44.3594,77.3184 Q44.625,77.5684 44.625,77.9121 Q44.625,78.2559 44.2813,78.6621 Q43.7813,79.2402 42.9844,79.5684 Q41.9063,80.0215 40.6094,80.0215 Q39.0938,80.0215 37.8906,79.3965 Q36.9063,78.8965 36.2188,77.834 Q35.5313,76.7559 35.5313,75.4746 L35.5313,74.3184 Q35.5313,72.9902 36.1406,71.8496 Q36.7656,70.6934 37.8594,70.084 Q38.9531,69.459 40.1875,69.459 Q40.9219,69.459 41.5625,69.6309 Q42.2188,69.7871 42.7656,70.1465 Z " fill="#000000"/><text fill="#000000" font-family="sans-serif" font-size="12" font-style="italic" lengthAdjust="spacing" textLength="54" x="71" y="61.9492">&#171;Identity&#187;</text><text fill="#000000" font-family="sans-serif" font-size="12" font-style="italic" lengthAdjust="spacing" textLength="85" x="55.5" y="77.9102">&#171;Value Object&#187;</text><text fill="#000000" font-family="sans-serif" font-size="14" lengthAdjust="spacing" textLength="88" x="54" y="96.0293">JobInterviewId</text><line style="stroke:#181818;stroke-width:0.5;" x1="26" x2="144" y1="104.543" y2="104.543"/></g><!--class InterviewDate--><g id="elem_InterviewDate"><rect codeLine="78" fill="#F1F1F1" height="52.582" id="InterviewDate" rx="2.5" ry="2.5" style="stroke:#181818;stroke-width:0.5;" width="117" x="180.5" y="52"/><ellipse cx="195.5" cy="74.291" fill="#ADD1B2" rx="11" ry="11" style="stroke:#181818;stroke-width:1.0;"/><path d="M198.2656,70.166 Q198.4219,69.9473 198.6094,69.8379 Q198.7969,69.7285 199.0156,69.7285 Q199.3906,69.7285 199.625,69.9941 Q199.8594,70.2441 199.8594,70.8535 L199.8594,72.3066 Q199.8594,72.916 199.625,73.1816 Q199.3906,73.4473 199.0156,73.4473 Q198.6719,73.4473 198.4688,73.2441 Q198.2656,73.0566 198.1563,72.541 Q198.1094,72.1816 197.9219,71.9941 Q197.5938,71.6191 196.9844,71.4004 Q196.375,71.1816 195.75,71.1816 Q194.9844,71.1816 194.3438,71.5098 Q193.7188,71.8379 193.2188,72.5879 Q192.7344,73.3379 192.7344,74.3691 L192.7344,75.4629 Q192.7344,76.6973 193.625,77.5254 Q194.5156,78.3379 196.1094,78.3379 Q197.0469,78.3379 197.7031,78.0879 Q198.0938,77.9316 198.5156,77.4941 Q198.7813,77.2285 198.9219,77.1504 Q199.0781,77.0723 199.2813,77.0723 Q199.6094,77.0723 199.8594,77.3379 Q200.125,77.5879 200.125,77.9316 Q200.125,78.2754 199.7813,78.6816 Q199.2813,79.2598 198.4844,79.5879 Q197.4063,80.041 196.1094,80.041 Q194.5938,80.041 193.3906,79.416 Q192.4063,78.916 191.7188,77.8535 Q191.0313,76.7754 191.0313,75.4941 L191.0313,74.3379 Q191.0313,73.0098 191.6406,71.8691 Q192.2656,70.7129 193.3594,70.1035 Q194.4531,69.4785 195.6875,69.4785 Q196.4219,69.4785 197.0625,69.6504 Q197.7188,69.8066 198.2656,70.166 Z " fill="#000000"/><text fill="#000000" font-family="sans-serif" font-size="12" font-style="italic" lengthAdjust="spacing" textLength="85" x="209.5" y="69.9492">&#171;Value Object&#187;</text><text fill="#000000" font-family="sans-serif" font-size="14" lengthAdjust="spacing" textLength="85" x="209.5" y="88.0684">InterviewDate</text><line style="stroke:#181818;stroke-width:0.5;" x1="181.5" x2="296.5" y1="96.582" y2="96.582"/></g><!--class InterviewTime--><g id="elem_InterviewTime"><rect codeLine="79" fill="#F1F1F1" height="52.582" id="InterviewTime" rx="2.5" ry="2.5" style="stroke:#181818;stroke-width:0.5;" width="118" x="23" y="335"/><ellipse cx="38" cy="357.291" fill="#ADD1B2" rx="11" ry="11" style="stroke:#181818;stroke-width:1.0;"/><path d="M40.7656,353.166 Q40.9219,352.9473 41.1094,352.8379 Q41.2969,352.7285 41.5156,352.7285 Q41.8906,352.7285 42.125,352.9941 Q42.3594,353.2441 42.3594,353.8535 L42.3594,355.3066 Q42.3594,355.916 42.125,356.1816 Q41.8906,356.4473 41.5156,356.4473 Q41.1719,356.4473 40.9688,356.2441 Q40.7656,356.0566 40.6563,355.541 Q40.6094,355.1816 40.4219,354.9941 Q40.0938,354.6191 39.4844,354.4004 Q38.875,354.1816 38.25,354.1816 Q37.4844,354.1816 36.8438,354.5098 Q36.2188,354.8379 35.7188,355.5879 Q35.2344,356.3379 35.2344,357.3691 L35.2344,358.4629 Q35.2344,359.6973 36.125,360.5254 Q37.0156,361.3379 38.6094,361.3379 Q39.5469,361.3379 40.2031,361.0879 Q40.5938,360.9316 41.0156,360.4941 Q41.2813,360.2285 41.4219,360.1504 Q41.5781,360.0723 41.7813,360.0723 Q42.1094,360.0723 42.3594,360.3379 Q42.625,360.5879 42.625,360.9316 Q42.625,361.2754 42.2813,361.6816 Q41.7813,362.2598 40.9844,362.5879 Q39.9063,363.041 38.6094,363.041 Q37.0938,363.041 35.8906,362.416 Q34.9063,361.916 34.2188,360.8535 Q33.5313,359.7754 33.5313,358.4941 L33.5313,357.3379 Q33.5313,356.0098 34.1406,354.8691 Q34.7656,353.7129 35.8594,353.1035 Q36.9531,352.4785 38.1875,352.4785 Q38.9219,352.4785 39.5625,352.6504 Q40.2188,352.8066 40.7656,353.166 Z " fill="#000000"/><text fill="#000000" font-family="sans-serif" font-size="12" font-style="italic" lengthAdjust="spacing" textLength="85" x="52.5" y="352.9492">&#171;Value Object&#187;</text><text fill="#000000" font-family="sans-serif" font-size="14" lengthAdjust="spacing" textLength="86" x="52" y="371.0684">InterviewTime</text><line style="stroke:#181818;stroke-width:0.5;" x1="24" x2="140" y1="379.582" y2="379.582"/></g><!--class Score--><g id="elem_Score"><rect codeLine="80" fill="#F1F1F1" height="52.582" id="Score" rx="2.5" ry="2.5" style="stroke:#181818;stroke-width:0.5;" width="113" x="190.5" y="182"/><ellipse cx="205.5" cy="204.291" fill="#ADD1B2" rx="11" ry="11" style="stroke:#181818;stroke-width:1.0;"/><path d="M208.2656,200.166 Q208.4219,199.9473 208.6094,199.8379 Q208.7969,199.7285 209.0156,199.7285 Q209.3906,199.7285 209.625,199.9941 Q209.8594,200.2441 209.8594,200.8535 L209.8594,202.3066 Q209.8594,202.916 209.625,203.1816 Q209.3906,203.4473 209.0156,203.4473 Q208.6719,203.4473 208.4688,203.2441 Q208.2656,203.0566 208.1563,202.541 Q208.1094,202.1816 207.9219,201.9941 Q207.5938,201.6191 206.9844,201.4004 Q206.375,201.1816 205.75,201.1816 Q204.9844,201.1816 204.3438,201.5098 Q203.7188,201.8379 203.2188,202.5879 Q202.7344,203.3379 202.7344,204.3691 L202.7344,205.4629 Q202.7344,206.6973 203.625,207.5254 Q204.5156,208.3379 206.1094,208.3379 Q207.0469,208.3379 207.7031,208.0879 Q208.0938,207.9316 208.5156,207.4941 Q208.7813,207.2285 208.9219,207.1504 Q209.0781,207.0723 209.2813,207.0723 Q209.6094,207.0723 209.8594,207.3379 Q210.125,207.5879 210.125,207.9316 Q210.125,208.2754 209.7813,208.6816 Q209.2813,209.2598 208.4844,209.5879 Q207.4063,210.041 206.1094,210.041 Q204.5938,210.041 203.3906,209.416 Q202.4063,208.916 201.7188,207.8535 Q201.0313,206.7754 201.0313,205.4941 L201.0313,204.3379 Q201.0313,203.0098 201.6406,201.8691 Q202.2656,200.7129 203.3594,200.1035 Q204.4531,199.4785 205.6875,199.4785 Q206.4219,199.4785 207.0625,199.6504 Q207.7188,199.8066 208.2656,200.166 Z " fill="#000000"/><text fill="#000000" font-family="sans-serif" font-size="12" font-style="italic" lengthAdjust="spacing" textLength="85" x="217.5" y="199.9492">&#171;Value Object&#187;</text><text fill="#000000" font-family="sans-serif" font-size="14" lengthAdjust="spacing" textLength="37" x="241.5" y="218.0684">Score</text><line style="stroke:#181818;stroke-width:0.5;" x1="191.5" x2="302.5" y1="226.582" y2="226.582"/></g><!--class InterviewResult--><g id="elem_InterviewResult"><rect codeLine="81" fill="#F1F1F1" height="52.582" id="InterviewResult" rx="2.5" ry="2.5" style="stroke:#181818;stroke-width:0.5;" width="127" x="176.5" y="335"/><ellipse cx="191.5" cy="357.291" fill="#ADD1B2" rx="11" ry="11" style="stroke:#181818;stroke-width:1.0;"/><path d="M194.2656,353.166 Q194.4219,352.9473 194.6094,352.8379 Q194.7969,352.7285 195.0156,352.7285 Q195.3906,352.7285 195.625,352.9941 Q195.8594,353.2441 195.8594,353.8535 L195.8594,355.3066 Q195.8594,355.916 195.625,356.1816 Q195.3906,356.4473 195.0156,356.4473 Q194.6719,356.4473 194.4688,356.2441 Q194.2656,356.0566 194.1563,355.541 Q194.1094,355.1816 193.9219,354.9941 Q193.5938,354.6191 192.9844,354.4004 Q192.375,354.1816 191.75,354.1816 Q190.9844,354.1816 190.3438,354.5098 Q189.7188,354.8379 189.2188,355.5879 Q188.7344,356.3379 188.7344,357.3691 L188.7344,358.4629 Q188.7344,359.6973 189.625,360.5254 Q190.5156,361.3379 192.1094,361.3379 Q193.0469,361.3379 193.7031,361.0879 Q194.0938,360.9316 194.5156,360.4941 Q194.7813,360.2285 194.9219,360.1504 Q195.0781,360.0723 195.2813,360.0723 Q195.6094,360.0723 195.8594,360.3379 Q196.125,360.5879 196.125,360.9316 Q196.125,361.2754 195.7813,361.6816 Q195.2813,362.2598 194.4844,362.5879 Q193.4063,363.041 192.1094,363.041 Q190.5938,363.041 189.3906,362.416 Q188.4063,361.916 187.7188,360.8535 Q187.0313,359.7754 187.0313,358.4941 L187.0313,357.3379 Q187.0313,356.0098 187.6406,354.8691 Q188.2656,353.7129 189.3594,353.1035 Q190.4531,352.4785 191.6875,352.4785 Q192.4219,352.4785 193.0625,352.6504 Q193.7188,352.8066 194.2656,353.166 Z " fill="#000000"/><text fill="#000000" font-family="sans-serif" font-size="12" font-style="italic" lengthAdjust="spacing" textLength="85" x="210.5" y="352.9492">&#171;Value Object&#187;</text><text fill="#000000" font-family="sans-serif" font-size="14" lengthAdjust="spacing" textLength="95" x="205.5" y="371.0684">InterviewResult</text><line style="stroke:#181818;stroke-width:0.5;" x1="177.5" x2="302.5" y1="379.582" y2="379.582"/></g><!--reverse link JobInterviewId to JobInterview--><g id="link_JobInterviewId_JobInterview"><path codeLine="85" d="M86.8593,119.1235 C87.7293,137.7935 88.54,154.95 89.41,173.65 " fill="none" id="JobInterviewId-backto-JobInterview" style="stroke:#181818;stroke-width:1.0;"/><polygon fill="#181818" points="86.58,113.13,83.0033,122.3064,86.8127,118.1246,90.9946,121.9341,86.58,113.13" style="stroke:#181818;stroke-width:1.0;"/><text fill="#000000" font-family="sans-serif" font-size="13" lengthAdjust="spacing" textLength="7" x="79.25" y="134.6356">1</text><text fill="#000000" font-family="sans-serif" font-size="13" lengthAdjust="spacing" textLength="7" x="81.4715" y="162.7546">1</text></g><!--reverse link InterviewDate to JobInterview--><g id="link_InterviewDate_JobInterview"><path codeLine="86" d="M204.8717,109.0248 C182.0117,128.7948 154.71,152.4 129.81,173.93 " fill="none" id="InterviewDate-backto-JobInterview" style="stroke:#181818;stroke-width:1.0;"/><polygon fill="#181818" points="209.41,105.1,199.9861,107.9617,205.6281,108.3707,205.2192,114.0127,209.41,105.1" style="stroke:#181818;stroke-width:1.0;"/><text fill="#000000" font-family="sans-serif" font-size="13" lengthAdjust="spacing" textLength="7" x="195.5852" y="126.4408">1</text><text fill="#000000" font-family="sans-serif" font-size="13" lengthAdjust="spacing" textLength="7" x="129.541" y="162.8194">1</text></g><!--link JobInterview to InterviewTime--><g id="link_JobInterview_InterviewTime"><path codeLine="87" d="M89,243.01 C87.36,270.64 85.4073,303.2806 83.8973,328.5906 " fill="none" id="JobInterview-to-InterviewTime" style="stroke:#181818;stroke-width:1.0;"/><polygon fill="#181818" points="83.54,334.58,88.0689,325.8342,83.8378,329.5889,80.0831,325.3578,83.54,334.58" style="stroke:#181818;stroke-width:1.0;"/><text fill="#000000" font-family="sans-serif" font-size="13" lengthAdjust="spacing" textLength="7" x="81.0547" y="264.4949">1</text><text fill="#000000" font-family="sans-serif" font-size="13" lengthAdjust="spacing" textLength="7" x="76.1113" y="323.9377">1</text></g><!--link JobInterview to Score--><g id="link_JobInterview_Score"><path codeLine="88" d="M155.29,208.5 C166.99,208.5 172.69,208.5 184.4,208.5 " fill="none" id="JobInterview-to-Score" style="stroke:#181818;stroke-width:1.0;"/><polygon fill="#181818" points="190.4,208.5,181.4,204.5,185.4,208.5,181.4,212.5,190.4,208.5" style="stroke:#181818;stroke-width:1.0;"/><text fill="#000000" font-family="sans-serif" font-size="13" lengthAdjust="spacing" textLength="7" x="163.1282" y="204.5888">1</text><text fill="#000000" font-family="sans-serif" font-size="13" lengthAdjust="spacing" textLength="7" x="175.3241" y="204.4338">1</text></g><!--link JobInterview to InterviewResult--><g id="link_JobInterview_InterviewResult"><path codeLine="89" d="M124.07,243.01 C151.33,270.64 185.2361,304.9988 210.2061,330.3088 " fill="none" id="JobInterview-to-InterviewResult" style="stroke:#181818;stroke-width:1.0;"/><polygon fill="#181818" points="214.42,334.58,210.9467,325.3639,210.9085,331.0206,205.2517,330.9824,214.42,334.58" style="stroke:#181818;stroke-width:1.0;"/><text fill="#000000" font-family="sans-serif" font-size="13" lengthAdjust="spacing" textLength="7" x="122.1523" y="264.4949">1</text><text fill="#000000" font-family="sans-serif" font-size="13" lengthAdjust="spacing" textLength="7" x="201.0587" y="323.9377">1</text></g><!--reverse link JobInterview to Application--><g id="link_JobInterview_Application"><path codeLine="91" d="M161.0876,239.3679 C166.9776,241.4479 167.23,241.36 173,243 C403.66,308.48 687.84,342.1 812.85,354.62 " fill="none" id="JobInterview-backto-Application" style="stroke:#181818;stroke-width:1.0;"/><polygon fill="#181818" points="155.43,237.37,162.5844,244.1386,160.1447,239.0349,165.2483,236.5952,155.43,237.37" style="stroke:#181818;stroke-width:1.0;"/><text fill="#000000" font-family="sans-serif" font-size="13" lengthAdjust="spacing" textLength="7" x="162.8598" y="236.6672">1</text><text fill="#000000" font-family="sans-serif" font-size="13" lengthAdjust="spacing" textLength="7" x="798.028" y="349.9133">1</text></g><!--link JobOpening to JobReference--><g id="link_JobOpening_JobReference"><path codeLine="96" d="M1161.99,935.2 C1110.21,953.81 1035.55,981.2 971,1007 C965.25,1009.3 964.8249,1009.4237 958.8749,1011.9137 " fill="none" id="JobOpening-to-JobReference" style="stroke:#181818;stroke-width:1.0;"/><polygon fill="#181818" points="953.34,1014.23,963.1865,1014.4455,957.9524,1012.2998,960.0981,1007.0657,953.34,1014.23" style="stroke:#181818;stroke-width:1.0;"/><text fill="#000000" font-family="sans-serif" font-size="13" lengthAdjust="spacing" textLength="7" x="1147.1842" y="934.0291">1</text><text fill="#000000" font-family="sans-serif" font-size="13" lengthAdjust="spacing" textLength="7" x="961.1205" y="1006.9444">1</text></g><!--link JobOpening to TitleOrFunction--><g id="link_JobOpening_TitleOrFunction"><path codeLine="97" d="M1180.55,946.13 C1151.41,967.69 1119.0235,991.6516 1092.3135,1011.4116 " fill="none" id="JobOpening-to-TitleOrFunction" style="stroke:#181818;stroke-width:1.0;"/><polygon fill="#181818" points="1087.49,1014.98,1097.1042,1012.843,1091.5096,1012.0063,1092.3463,1006.4117,1087.49,1014.98" style="stroke:#181818;stroke-width:1.0;"/><text fill="#000000" font-family="sans-serif" font-size="13" lengthAdjust="spacing" textLength="7" x="1165.1367" y="967.6356">1</text><text fill="#000000" font-family="sans-serif" font-size="13" lengthAdjust="spacing" textLength="7" x="1088.0438" y="1003.5586">1</text></g><!--reverse link ContractType to JobOpening--><g id="link_ContractType_JobOpening"><path codeLine="98" d="M1226,813.21 C1226,836.15 1226,856.43 1226,876.74 " fill="none" id="ContractType-backto-JobOpening" style="stroke:#181818;stroke-width:1.0;"/><polygon fill="#181818" points="1226,807.21,1222,816.21,1226,812.21,1230,816.21,1226,807.21" style="stroke:#181818;stroke-width:1.0;"/><text fill="#000000" font-family="sans-serif" font-size="13" lengthAdjust="spacing" textLength="7" x="1218.5734" y="828.7901">1</text><text fill="#000000" font-family="sans-serif" font-size="13" lengthAdjust="spacing" textLength="7" x="1218.3547" y="865.8612">1</text></g><!--reverse link Mode to JobOpening--><g id="link_Mode_JobOpening"><path codeLine="99" d="M1135.8387,817.6456 C1156.5887,839.0256 1175.19,858.18 1193.17,876.69 " fill="none" id="Mode-backto-JobOpening" style="stroke:#181818;stroke-width:1.0;"/><polygon fill="#181818" points="1131.66,813.34,1135.0577,822.5842,1135.1423,816.928,1140.7985,817.0126,1131.66,813.34" style="stroke:#181818;stroke-width:1.0;"/><text fill="#000000" font-family="sans-serif" font-size="13" lengthAdjust="spacing" textLength="7" x="1139.368" y="816.8748">1</text><text fill="#000000" font-family="sans-serif" font-size="13" lengthAdjust="spacing" textLength="7" x="1179.4717" y="865.802">1</text></g><!--link JobOpening to Description--><g id="link_JobOpening_Description"><path codeLine="100" d="M1269.35,946.13 C1297.14,967.69 1327.8894,991.5422 1353.3594,1011.3022 " fill="none" id="JobOpening-to-Description" style="stroke:#181818;stroke-width:1.0;"/><polygon fill="#181818" points="1358.1,1014.98,1353.441,1006.3028,1354.1495,1011.9151,1348.5372,1012.6236,1358.1,1014.98" style="stroke:#181818;stroke-width:1.0;"/><text fill="#000000" font-family="sans-serif" font-size="13" lengthAdjust="spacing" textLength="7" x="1269.1992" y="967.6356">1</text><text fill="#000000" font-family="sans-serif" font-size="13" lengthAdjust="spacing" textLength="7" x="1342.2275" y="1003.5586">1</text></g><!--link JobOpening to VacanciesNumber--><g id="link_JobOpening_VacanciesNumber"><path codeLine="101" d="M1226,946.13 C1226,967.61 1226,989.03 1226,1008.78 " fill="none" id="JobOpening-to-VacanciesNumber" style="stroke:#181818;stroke-width:1.0;"/><polygon fill="#181818" points="1226,1014.78,1230,1005.78,1226,1009.78,1222,1005.78,1226,1014.78" style="stroke:#181818;stroke-width:1.0;"/><text fill="#000000" font-family="sans-serif" font-size="13" lengthAdjust="spacing" textLength="7" x="1218.3984" y="967.6356">1</text><text fill="#000000" font-family="sans-serif" font-size="13" lengthAdjust="spacing" textLength="7" x="1218.1906" y="1003.7457">1</text></g><!--link Candidate to CandidateId--><g id="link_Candidate_CandidateId"><path codeLine="103" d="M1453.16,396.13 C1452.14,414.8 1451.1968,431.9589 1450.1768,450.6589 " fill="none" id="Candidate-to-CandidateId" style="stroke:#181818;stroke-width:1.0;"/><polygon fill="#181818" points="1449.85,456.65,1454.3342,447.8812,1450.1223,451.6574,1446.3461,447.4455,1449.85,456.65" style="stroke:#181818;stroke-width:1.0;"/><text fill="#000000" font-family="sans-serif" font-size="13" lengthAdjust="spacing" textLength="7" x="1445.2422" y="417.6356">1</text><text fill="#000000" font-family="sans-serif" font-size="13" lengthAdjust="spacing" textLength="7" x="1442.5458" y="445.7546">1</text></g><!--link Candidate to CurriculumVitae--><g id="link_Candidate_CurriculumVitae"><path codeLine="104" d="M1494.67,396.13 C1520.01,417.61 1547.7839,441.1494 1571.0739,460.8994 " fill="none" id="Candidate-to-CurriculumVitae" style="stroke:#181818;stroke-width:1.0;"/><polygon fill="#181818" points="1575.65,464.78,1571.3728,455.9084,1571.8365,461.5462,1566.1987,462.0099,1575.65,464.78" style="stroke:#181818;stroke-width:1.0;"/><text fill="#000000" font-family="sans-serif" font-size="13" lengthAdjust="spacing" textLength="7" x="1493.8867" y="417.6356">1</text><text fill="#000000" font-family="sans-serif" font-size="13" lengthAdjust="spacing" textLength="7" x="1560.8222" y="453.7457">1</text></g><!--link Application to ApplicationId--><g id="link_Application_ApplicationId"><path codeLine="107" d="M812.97,374.55 C735.74,389.91 602.51,419.1 492,457 C486.06,459.04 485.5081,459.1 479.4581,461.56 " fill="none" id="Application-to-ApplicationId" style="stroke:#181818;stroke-width:1.0;"/><polygon fill="#181818" points="473.9,463.82,483.7438,464.1354,478.5317,461.9367,480.7305,456.7246,473.9,463.82" style="stroke:#181818;stroke-width:1.0;"/><text fill="#000000" font-family="sans-serif" font-size="13" lengthAdjust="spacing" textLength="7" x="798.1618" y="372.1477">1</text><text fill="#000000" font-family="sans-serif" font-size="13" lengthAdjust="spacing" textLength="7" x="481.6387" y="456.2607">1</text></g><!--link Application to AttachedEmail--><g id="link_Application_AttachedEmail"><path codeLine="108" d="M812.57,389.04 C766.87,407.9 704.13,433.89 649,457 C642.95,459.53 642.1793,459.8605 635.8893,462.5105 " fill="none" id="Application-to-AttachedEmail" style="stroke:#181818;stroke-width:1.0;"/><polygon fill="#181818" points="630.36,464.84,640.207,465.0319,634.9678,462.8987,637.101,457.6595,630.36,464.84" style="stroke:#181818;stroke-width:1.0;"/><text fill="#000000" font-family="sans-serif" font-size="13" lengthAdjust="spacing" textLength="7" x="798.1402" y="407.0511">1</text><text fill="#000000" font-family="sans-serif" font-size="13" lengthAdjust="spacing" textLength="7" x="636.5089" y="453.8195">1</text></g><!--link Application to AttachedFile--><g id="link_Application_AttachedFile"><path codeLine="109" d="M836.54,396.13 C810.69,417.61 782.3133,441.1937 758.5633,460.9437 " fill="none" id="Application-to-AttachedFile" style="stroke:#181818;stroke-width:1.0;"/><polygon fill="#181818" points="753.95,464.78,763.4275,462.101,757.7944,461.5831,758.3124,455.95,753.95,464.78" style="stroke:#181818;stroke-width:1.0;"/><text fill="#000000" font-family="sans-serif" font-size="13" lengthAdjust="spacing" textLength="7" x="821.9844" y="417.6356">1</text><text fill="#000000" font-family="sans-serif" font-size="13" lengthAdjust="spacing" textLength="7" x="753.2978" y="453.7457">1</text></g><!--link Application to ApplicatorData--><g id="link_Application_ApplicatorData"><path codeLine="110" d="M877,396.13 C877,417.61 877,439.03 877,458.78 " fill="none" id="Application-to-ApplicatorData" style="stroke:#181818;stroke-width:1.0;"/><polygon fill="#181818" points="877,464.78,881,455.78,877,459.78,873,455.78,877,464.78" style="stroke:#181818;stroke-width:1.0;"/><text fill="#000000" font-family="sans-serif" font-size="13" lengthAdjust="spacing" textLength="7" x="869.3984" y="417.6356">1</text><text fill="#000000" font-family="sans-serif" font-size="13" lengthAdjust="spacing" textLength="7" x="869.1906" y="453.7457">1</text></g><!--link Application to JobOpening--><g id="link_Application_JobOpening"><path codeLine="111" d="M941.1,366.88 C1067.77,377.31 1338,409.1 1338,490.5 C1338,490.5 1338,490.5 1338,755 C1338,804.07 1305.2635,844.1882 1273.7435,872.7882 " fill="none" id="Application-to-JobOpening" style="stroke:#181818;stroke-width:1.0;"/><polygon fill="#181818" points="1269.3,876.82,1278.6531,873.7346,1273.0029,873.4601,1273.2773,867.81,1269.3,876.82" style="stroke:#181818;stroke-width:1.0;"/><text fill="#000000" font-family="sans-serif" font-size="13" lengthAdjust="spacing" textLength="75" x="1339" y="604.0283">submitted for</text><text fill="#000000" font-family="sans-serif" font-size="13" lengthAdjust="spacing" textLength="5" x="948.8006" y="382.5564">*</text><text fill="#000000" font-family="sans-serif" font-size="13" lengthAdjust="spacing" textLength="7" x="1269.8869" y="865.6884">1</text></g><!--link Application to Candidate--><g id="link_Application_Candidate"><path codeLine="112" d="M941.06,361.5 C1052.17,361.5 1273.35,361.5 1384.65,361.5 " fill="none" id="Application-to-Candidate" style="stroke:#181818;stroke-width:1.0;"/><polygon fill="#181818" points="1390.65,361.5,1381.65,357.5,1385.65,361.5,1381.65,365.5,1390.65,361.5" style="stroke:#181818;stroke-width:1.0;"/><text fill="#000000" font-family="sans-serif" font-size="13" lengthAdjust="spacing" textLength="75" x="1128.5" y="354.5283">submitted by</text><text fill="#000000" font-family="sans-serif" font-size="13" lengthAdjust="spacing" textLength="7" x="948.8716" y="357.5888">1</text><text fill="#000000" font-family="sans-serif" font-size="13" lengthAdjust="spacing" textLength="7" x="1375.8048" y="357.5888">1</text></g><!--link Application to ApplicationStatus--><g id="link_Application_ApplicationStatus"><path codeLine="113" d="M921.14,396.13 C949.43,417.69 980.7977,441.5833 1006.7277,461.3433 " fill="none" id="Application-to-ApplicationStatus" style="stroke:#181818;stroke-width:1.0;"/><polygon fill="#181818" points="1011.5,464.98,1006.7661,456.3434,1007.5231,461.9494,1001.9172,462.7064,1011.5,464.98" style="stroke:#181818;stroke-width:1.0;"/><text fill="#000000" font-family="sans-serif" font-size="13" lengthAdjust="spacing" textLength="7" x="921.125" y="417.6356">1</text><text fill="#000000" font-family="sans-serif" font-size="13" lengthAdjust="spacing" textLength="7" x="995.4813" y="453.5586">1</text></g><!--link Application to ApplicationRank--><g id="link_Application_ApplicationRank"><path codeLine="114" d="M941.06,385.71 C992.93,404.6 1067.82,432.13 1133,457 C1139.67,459.54 1141.0293,460.0518 1147.9593,462.7518 " fill="none" id="Application-to-ApplicationRank" style="stroke:#181818;stroke-width:1.0;"/><polygon fill="#181818" points="1153.55,464.93,1146.6161,457.9356,1148.8911,463.1148,1143.7119,465.3898,1153.55,464.93" style="stroke:#181818;stroke-width:1.0;"/><text fill="#000000" font-family="sans-serif" font-size="13" lengthAdjust="spacing" textLength="7" x="948.8716" y="403.5637">1</text><text fill="#000000" font-family="sans-serif" font-size="13" lengthAdjust="spacing" textLength="22" x="1120.9398" y="457.0765">0..1</text></g><!--reverse link JobOpeningProcessId to JobOpeningProcess--><g id="link_JobOpeningProcessId_JobOpeningProcess"><path codeLine="117" d="M1392.16,1338.5 C1403.82,1338.5 1409.48,1338.5 1421.15,1338.5 " fill="none" id="JobOpeningProcessId-backto-JobOpeningProcess" style="stroke:#181818;stroke-width:1.0;"/><polygon fill="#181818" points="1386.16,1338.5,1395.16,1342.5,1391.16,1338.5,1395.16,1334.5,1386.16,1338.5" style="stroke:#181818;stroke-width:1.0;"/><text fill="#000000" font-family="sans-serif" font-size="13" lengthAdjust="spacing" textLength="7" x="1394.0563" y="1334.8046">1</text><text fill="#000000" font-family="sans-serif" font-size="13" lengthAdjust="spacing" textLength="7" x="1406.4662" y="1334.7792">1</text></g><!--link JobOpening to JobOpeningProcess--><g id="link_JobOpening_JobOpeningProcess"><path codeLine="118" d="M1290.13,915.06 C1371.39,922.15 1501,947.95 1501,1040.5 C1501,1040.5 1501,1040.5 1501,1220 C1501,1248.25 1501,1274.33 1501,1297.82 " fill="none" id="JobOpening-to-JobOpeningProcess" style="stroke:#181818;stroke-width:1.0;"/><polygon fill="#181818" points="1501,1303.82,1505,1294.82,1501,1298.82,1497,1294.82,1501,1303.82" style="stroke:#181818;stroke-width:1.0;"/><text fill="#000000" font-family="sans-serif" font-size="13" lengthAdjust="spacing" textLength="21" x="1502" y="1154.0283">has</text><text fill="#000000" font-family="sans-serif" font-size="13" lengthAdjust="spacing" textLength="7" x="1297.9497" y="911.5604">1</text><text fill="#000000" font-family="sans-serif" font-size="13" lengthAdjust="spacing" textLength="5" x="1495.5234" y="1292.6884">*</text></g><!--link JobOpeningProcess to Phase--><g id="link_JobOpeningProcess_Phase"><path codeLine="119" d="M1501,1373.25 C1501,1392.52 1501,1410.29 1501,1427.99 " fill="none" id="JobOpeningProcess-to-Phase" style="stroke:#181818;stroke-width:1.0;"/><polygon fill="#181818" points="1501,1433.99,1505,1424.99,1501,1428.99,1497,1424.99,1501,1433.99" style="stroke:#181818;stroke-width:1.0;"/><text fill="#000000" font-family="sans-serif" font-size="13" lengthAdjust="spacing" textLength="7" x="1493.4203" y="1394.5035">1</text><text fill="#000000" font-family="sans-serif" font-size="13" lengthAdjust="spacing" textLength="7" x="1493.1469" y="1422.571">1</text></g><!--link Phase to PhaseType--><g id="link_Phase_PhaseType"><path codeLine="120" d="M1501,1487.15 C1501,1503.57 1501,1519.85 1501,1541.85 " fill="none" id="Phase-to-PhaseType" style="stroke:#181818;stroke-width:1.0;"/><polygon fill="#181818" points="1501,1547.85,1505,1538.85,1501,1542.85,1497,1538.85,1501,1547.85" style="stroke:#181818;stroke-width:1.0;"/><text fill="#000000" font-family="sans-serif" font-size="13" lengthAdjust="spacing" textLength="7" x="1493.2781" y="1508.5011">1</text><text fill="#000000" font-family="sans-serif" font-size="13" lengthAdjust="spacing" textLength="7" x="1493.6773" y="1536.6433">1</text></g><!--SRC=[bPLTRvim58Rl_IkixA9IfQJRROKYiOHkJ2c9W6RgrMJCAV76bupPL5NzxxE149D0e5n4mJpliS-7pxav294NztTtUKnIKIRnWcR97Or9KSn3HY9E4eGEB0ISW3XaOO4G1of86iM0Pp-o06zpI5aQpV2d8A2K4Fo649PFPGDBeW4CmumY3X4HWDqi4ykbOLYfOE9rkNnxFzEuy08SKWg6OOVGK8Qn9t49U1lybaSuL_bCnB3b3sLA1SlI8HZICi6hB1MSKE6_vg1EKIR0vRd2dZqgaNeUdZQRNxxzQBKhEzFrJokw_SSid6pNjHwt_iderfbxjlR-_VchQw_RLxcBvlEUK99I1eLJ9W7mwm5QGq4vouU2eoptfnQRUHupIfHIffaGIeEWcsQDc9vdJMI7qnDj2a7e0K8h8IoUXZwm64R8vYmPNnD1fh7ot9uWeYmcuov9_up7NkOqPA6AduorkbHlchNLyUD8d7iKeq7MD2NdZ9PncUoP87snKqSUgfSTpoWKXQmLLIdTyvyQGaDDzkD2EUhFpHNnOEP6H15S3TpkG0hG7D0kRjiTAkOZhSVSxJRsolJjhTEkUIlNiXpR-TQks8vlkNlR-kcTX8wvUVPiJsistjF6R_hL-s02xLG0_ylWNvF2ggjtuj8I-2FvQrKVACLMiwwAVWhfi-GwwT6CJxJbGb76Ok02T08n-pB3ypAVBwj_NM-laHq7Uy1pJ7dNWzLKvTa48xLR26dDwOe3wguZVInNXA7W8zkK3ZeRmyEWFeCRwe9HStJecpREXZSv6v3386gxfFfo39VMEWU0Rfz4FG5joCwm6wRqsJPAgR4skc4zqRhOhSBcyrEcZnV_7XTba30X6n9-oVYbyREuT0J1wnJlwyRRJtvUBBgm6fXrwNKRSIs9uKLS-D0E1qtLx51xVDj3IpzaKnxQfzcZwjke-hrSLsMC_WC0]--></g></svg>