<?xml version="1.0" encoding="us-ascii" standalone="no"?><svg xmlns="http://www.w3.org/2000/svg" xmlns:xlink="http://www.w3.org/1999/xlink" contentStyleType="text/css" height="1558.8px" preserveAspectRatio="none" style="width:1524px;height:1558px;background:#FFFFFF;" version="1.1" viewBox="0 0 1524 1558" width="1524.6px" zoomAndPan="magnify"><defs/><g><!--cluster Job Opening--><g id="cluster_Job Opening"><rect fill="#BBCCAA" height="393.3" rx="2.25" ry="2.25" style="stroke:#181818;stroke-width:0.9;" width="582.3" x="735.3" y="589.5"/><text fill="#000000" font-family="sans-serif" font-size="12.6" font-weight="bold" lengthAdjust="spacing" textLength="81" x="985.95" y="604.8967">Job Opening</text></g><!--cluster Job Opening Application--><g id="cluster_Job Opening Application"><rect fill="#AACCBB" height="226.8" rx="2.25" ry="2.25" style="stroke:#181818;stroke-width:0.9;" width="861.3" x="309.6" y="261"/><text fill="#000000" font-family="sans-serif" font-size="12.6" font-weight="bold" lengthAdjust="spacing" textLength="154.8" x="662.85" y="276.3967">Job Opening Application</text></g><!--cluster candidate--><g id="cluster_candidate"><rect fill="#AABBCC" height="226.8" rx="2.25" ry="2.25" style="stroke:#181818;stroke-width:0.9;" width="281.7" x="1237.5" y="261"/><text fill="#000000" font-family="sans-serif" font-size="12.6" font-weight="bold" lengthAdjust="spacing" textLength="62.1" x="1347.3" y="276.3967">candidate</text></g><!--cluster Job Opening Process--><g id="cluster_Job Opening Process"><rect fill="#CCBBCC" height="413.1" rx="2.25" ry="2.25" style="stroke:#181818;stroke-width:0.9;" width="357.3" x="1080" y="1140.3"/><text fill="#000000" font-family="sans-serif" font-size="12.6" font-weight="bold" lengthAdjust="spacing" textLength="135.9" x="1190.7" y="1155.6967">Job Opening Process</text></g><!--cluster Job Opening Interview--><g id="cluster_Job Opening Interview"><rect fill="#CCBBAA" height="357.3" rx="2.25" ry="2.25" style="stroke:#181818;stroke-width:0.9;" width="281.7" x="6.3" y="6.3"/><text fill="#000000" font-family="sans-serif" font-size="12.6" font-weight="bold" lengthAdjust="spacing" textLength="144" x="75.15" y="21.6967">Job Opening Interview</text></g><!--class JobOpening--><g id="elem_JobOpening"><rect codeLine="7" fill="#F1F1F1" height="61.6887" id="JobOpening" rx="2.25" ry="2.25" style="stroke:#181818;stroke-width:0.45;" width="115.2" x="1045.8" y="789.3"/><ellipse cx="1059.3" cy="816.5443" fill="#ADD1B2" rx="9.9" ry="9.9" style="stroke:#181818;stroke-width:0.9;"/><path d="M1061.7891,812.8318 Q1061.9297,812.635 1062.0984,812.5365 Q1062.2672,812.4381 1062.4641,812.4381 Q1062.8016,812.4381 1063.0125,812.6771 Q1063.2234,812.9021 1063.2234,813.4506 L1063.2234,814.7584 Q1063.2234,815.3068 1063.0125,815.5459 Q1062.8016,815.785 1062.4641,815.785 Q1062.1547,815.785 1061.9719,815.6021 Q1061.7891,815.4334 1061.6906,814.9693 Q1061.6484,814.6459 1061.4797,814.4771 Q1061.1844,814.1396 1060.6359,813.9428 Q1060.0875,813.7459 1059.525,813.7459 Q1058.8359,813.7459 1058.2594,814.0412 Q1057.6969,814.3365 1057.2469,815.0115 Q1056.8109,815.6865 1056.8109,816.6146 L1056.8109,817.599 Q1056.8109,818.71 1057.6125,819.4553 Q1058.4141,820.1865 1059.8484,820.1865 Q1060.6922,820.1865 1061.2828,819.9615 Q1061.6344,819.8209 1062.0141,819.4271 Q1062.2531,819.1881 1062.3797,819.1178 Q1062.5203,819.0475 1062.7031,819.0475 Q1062.9984,819.0475 1063.2234,819.2865 Q1063.4625,819.5115 1063.4625,819.8209 Q1063.4625,820.1303 1063.1531,820.4959 Q1062.7031,821.0162 1061.9859,821.3115 Q1061.0156,821.7193 1059.8484,821.7193 Q1058.4844,821.7193 1057.4016,821.1568 Q1056.5156,820.7068 1055.8969,819.7506 Q1055.2781,818.7803 1055.2781,817.6271 L1055.2781,816.5865 Q1055.2781,815.3912 1055.8266,814.3646 Q1056.3891,813.324 1057.3734,812.7756 Q1058.3578,812.2131 1059.4688,812.2131 Q1060.1297,812.2131 1060.7063,812.3678 Q1061.2969,812.5084 1061.7891,812.8318 Z " fill="#000000"/><text fill="#000000" font-family="sans-serif" font-size="10.8" font-style="italic" lengthAdjust="spacing" textLength="90" x="1070.1" y="805.4543">&#171;Aggregate Root&#187;</text><text fill="#000000" font-family="sans-serif" font-size="10.8" font-style="italic" lengthAdjust="spacing" textLength="39.6" x="1095.3" y="819.8191">&#171;Entity&#187;</text><text fill="#000000" font-family="sans-serif" font-size="12.6" lengthAdjust="spacing" textLength="68.4" x="1080.9" y="836.1264">JobOpening</text><line style="stroke:#181818;stroke-width:0.45;" x1="1046.7" x2="1160.1" y1="843.7887" y2="843.7887"/></g><!--class JobReference--><g id="elem_JobReference"><rect codeLine="9" fill="#F1F1F1" height="61.6887" id="JobReference" rx="2.25" ry="2.25" style="stroke:#181818;stroke-width:0.45;" width="108" x="749.7" y="906.3"/><ellipse cx="763.2" cy="933.5443" fill="#ADD1B2" rx="9.9" ry="9.9" style="stroke:#181818;stroke-width:0.9;"/><path d="M765.6891,929.8318 Q765.8297,929.635 765.9984,929.5365 Q766.1672,929.4381 766.3641,929.4381 Q766.7016,929.4381 766.9125,929.6771 Q767.1234,929.9021 767.1234,930.4506 L767.1234,931.7584 Q767.1234,932.3068 766.9125,932.5459 Q766.7016,932.785 766.3641,932.785 Q766.0547,932.785 765.8719,932.6021 Q765.6891,932.4334 765.5906,931.9693 Q765.5484,931.6459 765.3797,931.4771 Q765.0844,931.1396 764.5359,930.9428 Q763.9875,930.7459 763.425,930.7459 Q762.7359,930.7459 762.1594,931.0412 Q761.5969,931.3365 761.1469,932.0115 Q760.7109,932.6865 760.7109,933.6146 L760.7109,934.599 Q760.7109,935.71 761.5125,936.4553 Q762.3141,937.1865 763.7484,937.1865 Q764.5922,937.1865 765.1828,936.9615 Q765.5344,936.8209 765.9141,936.4271 Q766.1531,936.1881 766.2797,936.1178 Q766.4203,936.0475 766.6031,936.0475 Q766.8984,936.0475 767.1234,936.2865 Q767.3625,936.5115 767.3625,936.8209 Q767.3625,937.1303 767.0531,937.4959 Q766.6031,938.0162 765.8859,938.3115 Q764.9156,938.7193 763.7484,938.7193 Q762.3844,938.7193 761.3016,938.1568 Q760.4156,937.7068 759.7969,936.7506 Q759.1781,935.7803 759.1781,934.6271 L759.1781,933.5865 Q759.1781,932.3912 759.7266,931.3646 Q760.2891,930.324 761.2734,929.7756 Q762.2578,929.2131 763.3688,929.2131 Q764.0297,929.2131 764.6063,929.3678 Q765.1969,929.5084 765.6891,929.8318 Z " fill="#000000"/><text fill="#000000" font-family="sans-serif" font-size="10.8" font-style="italic" lengthAdjust="spacing" textLength="48.6" x="791.1" y="922.4543">&#171;Identity&#187;</text><text fill="#000000" font-family="sans-serif" font-size="10.8" font-style="italic" lengthAdjust="spacing" textLength="76.5" x="777.15" y="936.8191">&#171;Value Object&#187;</text><text fill="#000000" font-family="sans-serif" font-size="12.6" lengthAdjust="spacing" textLength="79.2" x="775.8" y="953.1264">JobReference</text><line style="stroke:#181818;stroke-width:0.45;" x1="750.6" x2="856.8" y1="960.7887" y2="960.7887"/></g><!--class TitleOrFunction--><g id="elem_TitleOrFunction"><rect codeLine="11" fill="#F1F1F1" height="47.3238" id="TitleOrFunction" rx="2.25" ry="2.25" style="stroke:#181818;stroke-width:0.45;" width="117" x="889.2" y="913.5"/><ellipse cx="902.7" cy="933.5619" fill="#ADD1B2" rx="9.9" ry="9.9" style="stroke:#181818;stroke-width:0.9;"/><path d="M905.1891,929.8494 Q905.3297,929.6525 905.4984,929.5541 Q905.6672,929.4557 905.8641,929.4557 Q906.2016,929.4557 906.4125,929.6947 Q906.6234,929.9197 906.6234,930.4682 L906.6234,931.776 Q906.6234,932.3244 906.4125,932.5635 Q906.2016,932.8025 905.8641,932.8025 Q905.5547,932.8025 905.3719,932.6197 Q905.1891,932.451 905.0906,931.9869 Q905.0484,931.6635 904.8797,931.4947 Q904.5844,931.1572 904.0359,930.9604 Q903.4875,930.7635 902.925,930.7635 Q902.2359,930.7635 901.6594,931.0588 Q901.0969,931.3541 900.6469,932.0291 Q900.2109,932.7041 900.2109,933.6322 L900.2109,934.6166 Q900.2109,935.7275 901.0125,936.4729 Q901.8141,937.2041 903.2484,937.2041 Q904.0922,937.2041 904.6828,936.9791 Q905.0344,936.8385 905.4141,936.4447 Q905.6531,936.2057 905.7797,936.1354 Q905.9203,936.065 906.1031,936.065 Q906.3984,936.065 906.6234,936.3041 Q906.8625,936.5291 906.8625,936.8385 Q906.8625,937.1479 906.5531,937.5135 Q906.1031,938.0338 905.3859,938.3291 Q904.4156,938.7369 903.2484,938.7369 Q901.8844,938.7369 900.8016,938.1744 Q899.9156,937.7244 899.2969,936.7682 Q898.6781,935.7979 898.6781,934.6447 L898.6781,933.6041 Q898.6781,932.4088 899.2266,931.3822 Q899.7891,930.3416 900.7734,929.7932 Q901.7578,929.2307 902.8688,929.2307 Q903.5297,929.2307 904.1063,929.3854 Q904.6969,929.526 905.1891,929.8494 Z " fill="#000000"/><text fill="#000000" font-family="sans-serif" font-size="10.8" font-style="italic" lengthAdjust="spacing" textLength="76.5" x="921.15" y="929.6543">&#171;Value Object&#187;</text><text fill="#000000" font-family="sans-serif" font-size="12.6" lengthAdjust="spacing" textLength="88.2" x="915.3" y="945.9615">TitleOrFunction</text><line style="stroke:#181818;stroke-width:0.45;" x1="890.1" x2="1005.3" y1="953.6238" y2="953.6238"/></g><!--class ContractType--><g id="elem_ContractType"><rect codeLine="13" fill="#F1F1F1" height="95.2066" id="ContractType" rx="2.25" ry="2.25" style="stroke:#181818;stroke-width:0.45;" width="106.2" x="1050.3" y="630.9"/><ellipse cx="1063.8" cy="658.1443" fill="#EB937F" rx="9.9" ry="9.9" style="stroke:#181818;stroke-width:0.9;"/><path d="M1062.7734,658.8615 L1062.7734,661.1115 L1066.6688,661.1115 L1066.6688,660.2818 Q1066.6688,659.7334 1066.8797,659.4943 Q1067.1047,659.2553 1067.4422,659.2553 Q1067.7797,659.2553 1067.9906,659.4943 Q1068.2016,659.7334 1068.2016,660.2818 L1068.2016,662.6443 L1061.0016,662.6443 Q1060.4391,662.6443 1060.2,662.4334 Q1059.975,662.2225 1059.975,661.8709 Q1059.975,661.5334 1060.2141,661.3225 Q1060.4531,661.1115 1061.0016,661.1115 L1061.2406,661.1115 L1061.2406,655.1209 L1061.0016,655.1209 Q1060.4391,655.1209 1060.2,654.91 Q1059.975,654.699 1059.975,654.3475 Q1059.975,654.01 1060.2,653.799 Q1060.4391,653.5881 1061.0016,653.5881 L1067.8641,653.5881 L1067.8641,655.9225 Q1067.8641,656.4709 1067.6531,656.71 Q1067.4563,656.935 1067.1047,656.935 Q1066.7672,656.935 1066.5563,656.71 Q1066.3453,656.4709 1066.3453,655.9225 L1066.3453,655.1209 L1062.7734,655.1209 L1062.7734,657.3287 L1064.1094,657.3287 Q1064.1094,656.7381 1064.2219,656.5693 Q1064.4609,656.2037 1064.8828,656.2037 Q1065.2203,656.2037 1065.4313,656.4428 Q1065.6422,656.6678 1065.6422,657.2162 L1065.6422,658.9881 Q1065.6422,659.4803 1065.5297,659.649 Q1065.2906,660.0006 1064.8828,660.0006 Q1064.4609,660.0006 1064.2219,659.635 Q1064.1094,659.4662 1064.1094,658.8615 L1062.7734,658.8615 Z " fill="#000000"/><text fill="#000000" font-family="sans-serif" font-size="10.8" font-style="italic" lengthAdjust="spacing" textLength="73.8" x="1078.2" y="647.0543">&#171;Enumerated&#187;</text><text fill="#000000" font-family="sans-serif" font-size="10.8" font-style="italic" lengthAdjust="spacing" textLength="76.5" x="1076.85" y="661.4191">&#171;Value Object&#187;</text><text fill="#000000" font-family="sans-serif" font-size="12.6" lengthAdjust="spacing" textLength="77.4" x="1076.4" y="677.7264">ContractType</text><line style="stroke:#181818;stroke-width:0.45;" x1="1051.2" x2="1155.6" y1="685.3887" y2="685.3887"/><text fill="#000000" font-family="sans-serif" font-size="12.6" lengthAdjust="spacing" textLength="66.6" x="1055.7" y="702.5854">FULL_TIME</text><text fill="#000000" font-family="sans-serif" font-size="12.6" lengthAdjust="spacing" textLength="69.3" x="1055.7" y="719.3443">PART_TIME</text></g><!--class Mode--><g id="elem_Mode"><rect codeLine="18" fill="#F1F1F1" height="111.9656" id="Mode" rx="2.25" ry="2.25" style="stroke:#181818;stroke-width:0.45;" width="101.7" x="916.65" y="622.8"/><ellipse cx="930.15" cy="650.0443" fill="#EB937F" rx="9.9" ry="9.9" style="stroke:#181818;stroke-width:0.9;"/><path d="M929.1234,650.7615 L929.1234,653.0115 L933.0188,653.0115 L933.0188,652.1818 Q933.0188,651.6334 933.2297,651.3943 Q933.4547,651.1553 933.7922,651.1553 Q934.1297,651.1553 934.3406,651.3943 Q934.5516,651.6334 934.5516,652.1818 L934.5516,654.5443 L927.3516,654.5443 Q926.7891,654.5443 926.55,654.3334 Q926.325,654.1225 926.325,653.7709 Q926.325,653.4334 926.5641,653.2225 Q926.8031,653.0115 927.3516,653.0115 L927.5906,653.0115 L927.5906,647.0209 L927.3516,647.0209 Q926.7891,647.0209 926.55,646.81 Q926.325,646.599 926.325,646.2475 Q926.325,645.91 926.55,645.699 Q926.7891,645.4881 927.3516,645.4881 L934.2141,645.4881 L934.2141,647.8225 Q934.2141,648.3709 934.0031,648.61 Q933.8063,648.835 933.4547,648.835 Q933.1172,648.835 932.9063,648.61 Q932.6953,648.3709 932.6953,647.8225 L932.6953,647.0209 L929.1234,647.0209 L929.1234,649.2287 L930.4594,649.2287 Q930.4594,648.6381 930.5719,648.4693 Q930.8109,648.1037 931.2328,648.1037 Q931.5703,648.1037 931.7813,648.3428 Q931.9922,648.5678 931.9922,649.1162 L931.9922,650.8881 Q931.9922,651.3803 931.8797,651.549 Q931.6406,651.9006 931.2328,651.9006 Q930.8109,651.9006 930.5719,651.535 Q930.4594,651.3662 930.4594,650.7615 L929.1234,650.7615 Z " fill="#000000"/><text fill="#000000" font-family="sans-serif" font-size="10.8" font-style="italic" lengthAdjust="spacing" textLength="73.8" x="942.3" y="638.9543">&#171;Enumerated&#187;</text><text fill="#000000" font-family="sans-serif" font-size="10.8" font-style="italic" lengthAdjust="spacing" textLength="76.5" x="940.95" y="653.3191">&#171;Value Object&#187;</text><text fill="#000000" font-family="sans-serif" font-size="12.6" lengthAdjust="spacing" textLength="31.5" x="963.45" y="669.6264">Mode</text><line style="stroke:#181818;stroke-width:0.45;" x1="917.55" x2="1017.45" y1="677.2887" y2="677.2887"/><text fill="#000000" font-family="sans-serif" font-size="12.6" lengthAdjust="spacing" textLength="53.1" x="922.05" y="694.4854">REMOTE</text><text fill="#000000" font-family="sans-serif" font-size="12.6" lengthAdjust="spacing" textLength="49.5" x="922.05" y="711.2443">ON-SITE</text><text fill="#000000" font-family="sans-serif" font-size="12.6" lengthAdjust="spacing" textLength="45" x="922.05" y="728.0033">HYBRID</text></g><!--class VacanciesNumber--><g id="elem_VacanciesNumber"><rect codeLine="25" fill="#F1F1F1" height="47.3238" id="VacanciesNumber" rx="2.25" ry="2.25" style="stroke:#181818;stroke-width:0.45;" width="131.4" x="1037.7" y="913.5"/><ellipse cx="1051.2" cy="933.5619" fill="#ADD1B2" rx="9.9" ry="9.9" style="stroke:#181818;stroke-width:0.9;"/><path d="M1053.6891,929.8494 Q1053.8297,929.6525 1053.9984,929.5541 Q1054.1672,929.4557 1054.3641,929.4557 Q1054.7016,929.4557 1054.9125,929.6947 Q1055.1234,929.9197 1055.1234,930.4682 L1055.1234,931.776 Q1055.1234,932.3244 1054.9125,932.5635 Q1054.7016,932.8025 1054.3641,932.8025 Q1054.0547,932.8025 1053.8719,932.6197 Q1053.6891,932.451 1053.5906,931.9869 Q1053.5484,931.6635 1053.3797,931.4947 Q1053.0844,931.1572 1052.5359,930.9604 Q1051.9875,930.7635 1051.425,930.7635 Q1050.7359,930.7635 1050.1594,931.0588 Q1049.5969,931.3541 1049.1469,932.0291 Q1048.7109,932.7041 1048.7109,933.6322 L1048.7109,934.6166 Q1048.7109,935.7275 1049.5125,936.4729 Q1050.3141,937.2041 1051.7484,937.2041 Q1052.5922,937.2041 1053.1828,936.9791 Q1053.5344,936.8385 1053.9141,936.4447 Q1054.1531,936.2057 1054.2797,936.1354 Q1054.4203,936.065 1054.6031,936.065 Q1054.8984,936.065 1055.1234,936.3041 Q1055.3625,936.5291 1055.3625,936.8385 Q1055.3625,937.1479 1055.0531,937.5135 Q1054.6031,938.0338 1053.8859,938.3291 Q1052.9156,938.7369 1051.7484,938.7369 Q1050.3844,938.7369 1049.3016,938.1744 Q1048.4156,937.7244 1047.7969,936.7682 Q1047.1781,935.7979 1047.1781,934.6447 L1047.1781,933.6041 Q1047.1781,932.4088 1047.7266,931.3822 Q1048.2891,930.3416 1049.2734,929.7932 Q1050.2578,929.2307 1051.3688,929.2307 Q1052.0297,929.2307 1052.6063,929.3854 Q1053.1969,929.526 1053.6891,929.8494 Z " fill="#000000"/><text fill="#000000" font-family="sans-serif" font-size="10.8" font-style="italic" lengthAdjust="spacing" textLength="76.5" x="1076.85" y="929.6543">&#171;Value Object&#187;</text><text fill="#000000" font-family="sans-serif" font-size="12.6" lengthAdjust="spacing" textLength="102.6" x="1063.8" y="945.9615">VacanciesNumber</text><line style="stroke:#181818;stroke-width:0.45;" x1="1038.6" x2="1168.2" y1="953.6238" y2="953.6238"/></g><!--class Description--><g id="elem_Description"><rect codeLine="27" fill="#F1F1F1" height="47.3238" id="Description" rx="2.25" ry="2.25" style="stroke:#181818;stroke-width:0.45;" width="101.7" x="1201.05" y="913.5"/><ellipse cx="1214.55" cy="933.5619" fill="#ADD1B2" rx="9.9" ry="9.9" style="stroke:#181818;stroke-width:0.9;"/><path d="M1217.0391,929.8494 Q1217.1797,929.6525 1217.3484,929.5541 Q1217.5172,929.4557 1217.7141,929.4557 Q1218.0516,929.4557 1218.2625,929.6947 Q1218.4734,929.9197 1218.4734,930.4682 L1218.4734,931.776 Q1218.4734,932.3244 1218.2625,932.5635 Q1218.0516,932.8025 1217.7141,932.8025 Q1217.4047,932.8025 1217.2219,932.6197 Q1217.0391,932.451 1216.9406,931.9869 Q1216.8984,931.6635 1216.7297,931.4947 Q1216.4344,931.1572 1215.8859,930.9604 Q1215.3375,930.7635 1214.775,930.7635 Q1214.0859,930.7635 1213.5094,931.0588 Q1212.9469,931.3541 1212.4969,932.0291 Q1212.0609,932.7041 1212.0609,933.6322 L1212.0609,934.6166 Q1212.0609,935.7275 1212.8625,936.4729 Q1213.6641,937.2041 1215.0984,937.2041 Q1215.9422,937.2041 1216.5328,936.9791 Q1216.8844,936.8385 1217.2641,936.4447 Q1217.5031,936.2057 1217.6297,936.1354 Q1217.7703,936.065 1217.9531,936.065 Q1218.2484,936.065 1218.4734,936.3041 Q1218.7125,936.5291 1218.7125,936.8385 Q1218.7125,937.1479 1218.4031,937.5135 Q1217.9531,938.0338 1217.2359,938.3291 Q1216.2656,938.7369 1215.0984,938.7369 Q1213.7344,938.7369 1212.6516,938.1744 Q1211.7656,937.7244 1211.1469,936.7682 Q1210.5281,935.7979 1210.5281,934.6447 L1210.5281,933.6041 Q1210.5281,932.4088 1211.0766,931.3822 Q1211.6391,930.3416 1212.6234,929.7932 Q1213.6078,929.2307 1214.7188,929.2307 Q1215.3797,929.2307 1215.9563,929.3854 Q1216.5469,929.526 1217.0391,929.8494 Z " fill="#000000"/><text fill="#000000" font-family="sans-serif" font-size="10.8" font-style="italic" lengthAdjust="spacing" textLength="76.5" x="1225.35" y="929.6543">&#171;Value Object&#187;</text><text fill="#000000" font-family="sans-serif" font-size="12.6" lengthAdjust="spacing" textLength="63.9" x="1231.65" y="945.9615">Description</text><line style="stroke:#181818;stroke-width:0.45;" x1="1201.95" x2="1301.85" y1="953.6238" y2="953.6238"/></g><!--class Application--><g id="elem_Application"><rect codeLine="34" fill="#F1F1F1" height="61.6887" id="Application" rx="2.25" ry="2.25" style="stroke:#181818;stroke-width:0.45;" width="115.2" x="731.7" y="294.3"/><ellipse cx="745.2" cy="321.5443" fill="#ADD1B2" rx="9.9" ry="9.9" style="stroke:#181818;stroke-width:0.9;"/><path d="M747.6891,317.8318 Q747.8297,317.635 747.9984,317.5365 Q748.1672,317.4381 748.3641,317.4381 Q748.7016,317.4381 748.9125,317.6771 Q749.1234,317.9021 749.1234,318.4506 L749.1234,319.7584 Q749.1234,320.3068 748.9125,320.5459 Q748.7016,320.785 748.3641,320.785 Q748.0547,320.785 747.8719,320.6021 Q747.6891,320.4334 747.5906,319.9693 Q747.5484,319.6459 747.3797,319.4771 Q747.0844,319.1396 746.5359,318.9428 Q745.9875,318.7459 745.425,318.7459 Q744.7359,318.7459 744.1594,319.0412 Q743.5969,319.3365 743.1469,320.0115 Q742.7109,320.6865 742.7109,321.6146 L742.7109,322.599 Q742.7109,323.71 743.5125,324.4553 Q744.3141,325.1865 745.7484,325.1865 Q746.5922,325.1865 747.1828,324.9615 Q747.5344,324.8209 747.9141,324.4271 Q748.1531,324.1881 748.2797,324.1178 Q748.4203,324.0475 748.6031,324.0475 Q748.8984,324.0475 749.1234,324.2865 Q749.3625,324.5115 749.3625,324.8209 Q749.3625,325.1303 749.0531,325.4959 Q748.6031,326.0162 747.8859,326.3115 Q746.9156,326.7193 745.7484,326.7193 Q744.3844,326.7193 743.3016,326.1568 Q742.4156,325.7068 741.7969,324.7506 Q741.1781,323.7803 741.1781,322.6271 L741.1781,321.5865 Q741.1781,320.3912 741.7266,319.3646 Q742.2891,318.324 743.2734,317.7756 Q744.2578,317.2131 745.3688,317.2131 Q746.0297,317.2131 746.6063,317.3678 Q747.1969,317.5084 747.6891,317.8318 Z " fill="#000000"/><text fill="#000000" font-family="sans-serif" font-size="10.8" font-style="italic" lengthAdjust="spacing" textLength="90" x="756" y="310.4543">&#171;Aggregate Root&#187;</text><text fill="#000000" font-family="sans-serif" font-size="10.8" font-style="italic" lengthAdjust="spacing" textLength="39.6" x="781.2" y="324.8191">&#171;Entity&#187;</text><text fill="#000000" font-family="sans-serif" font-size="12.6" lengthAdjust="spacing" textLength="62.1" x="769.95" y="341.1264">Application</text><line style="stroke:#181818;stroke-width:0.45;" x1="732.6" x2="846" y1="348.7887" y2="348.7887"/></g><!--class ApplicationId--><g id="elem_ApplicationId"><rect codeLine="36" fill="#F1F1F1" height="61.6887" id="ApplicationId" rx="2.25" ry="2.25" style="stroke:#181818;stroke-width:0.45;" width="101.7" x="324.45" y="411.3"/><ellipse cx="337.95" cy="438.5443" fill="#ADD1B2" rx="9.9" ry="9.9" style="stroke:#181818;stroke-width:0.9;"/><path d="M340.4391,434.8318 Q340.5797,434.635 340.7484,434.5365 Q340.9172,434.4381 341.1141,434.4381 Q341.4516,434.4381 341.6625,434.6771 Q341.8734,434.9021 341.8734,435.4506 L341.8734,436.7584 Q341.8734,437.3068 341.6625,437.5459 Q341.4516,437.785 341.1141,437.785 Q340.8047,437.785 340.6219,437.6021 Q340.4391,437.4334 340.3406,436.9693 Q340.2984,436.6459 340.1297,436.4771 Q339.8344,436.1396 339.2859,435.9428 Q338.7375,435.7459 338.175,435.7459 Q337.4859,435.7459 336.9094,436.0412 Q336.3469,436.3365 335.8969,437.0115 Q335.4609,437.6865 335.4609,438.6146 L335.4609,439.599 Q335.4609,440.71 336.2625,441.4553 Q337.0641,442.1865 338.4984,442.1865 Q339.3422,442.1865 339.9328,441.9615 Q340.2844,441.8209 340.6641,441.4271 Q340.9031,441.1881 341.0297,441.1178 Q341.1703,441.0475 341.3531,441.0475 Q341.6484,441.0475 341.8734,441.2865 Q342.1125,441.5115 342.1125,441.8209 Q342.1125,442.1303 341.8031,442.4959 Q341.3531,443.0162 340.6359,443.3115 Q339.6656,443.7193 338.4984,443.7193 Q337.1344,443.7193 336.0516,443.1568 Q335.1656,442.7068 334.5469,441.7506 Q333.9281,440.7803 333.9281,439.6271 L333.9281,438.5865 Q333.9281,437.3912 334.4766,436.3646 Q335.0391,435.324 336.0234,434.7756 Q337.0078,434.2131 338.1188,434.2131 Q338.7797,434.2131 339.3563,434.3678 Q339.9469,434.5084 340.4391,434.8318 Z " fill="#000000"/><text fill="#000000" font-family="sans-serif" font-size="10.8" font-style="italic" lengthAdjust="spacing" textLength="48.6" x="362.7" y="427.4543">&#171;Identity&#187;</text><text fill="#000000" font-family="sans-serif" font-size="10.8" font-style="italic" lengthAdjust="spacing" textLength="76.5" x="348.75" y="441.8191">&#171;Value Object&#187;</text><text fill="#000000" font-family="sans-serif" font-size="12.6" lengthAdjust="spacing" textLength="72" x="351" y="458.1264">ApplicationId</text><line style="stroke:#181818;stroke-width:0.45;" x1="325.35" x2="425.25" y1="465.7887" y2="465.7887"/></g><!--class AttachedEmail--><g id="elem_AttachedEmail"><rect codeLine="38" fill="#F1F1F1" height="47.3238" id="AttachedEmail" rx="2.25" ry="2.25" style="stroke:#181818;stroke-width:0.45;" width="109.8" x="458.1" y="418.5"/><ellipse cx="471.6" cy="438.5619" fill="#ADD1B2" rx="9.9" ry="9.9" style="stroke:#181818;stroke-width:0.9;"/><path d="M474.0891,434.8494 Q474.2297,434.6525 474.3984,434.5541 Q474.5672,434.4557 474.7641,434.4557 Q475.1016,434.4557 475.3125,434.6947 Q475.5234,434.9197 475.5234,435.4682 L475.5234,436.776 Q475.5234,437.3244 475.3125,437.5635 Q475.1016,437.8025 474.7641,437.8025 Q474.4547,437.8025 474.2719,437.6197 Q474.0891,437.451 473.9906,436.9869 Q473.9484,436.6635 473.7797,436.4947 Q473.4844,436.1572 472.9359,435.9604 Q472.3875,435.7635 471.825,435.7635 Q471.1359,435.7635 470.5594,436.0588 Q469.9969,436.3541 469.5469,437.0291 Q469.1109,437.7041 469.1109,438.6322 L469.1109,439.6166 Q469.1109,440.7275 469.9125,441.4729 Q470.7141,442.2041 472.1484,442.2041 Q472.9922,442.2041 473.5828,441.9791 Q473.9344,441.8385 474.3141,441.4447 Q474.5531,441.2057 474.6797,441.1354 Q474.8203,441.065 475.0031,441.065 Q475.2984,441.065 475.5234,441.3041 Q475.7625,441.5291 475.7625,441.8385 Q475.7625,442.1479 475.4531,442.5135 Q475.0031,443.0338 474.2859,443.3291 Q473.3156,443.7369 472.1484,443.7369 Q470.7844,443.7369 469.7016,443.1744 Q468.8156,442.7244 468.1969,441.7682 Q467.5781,440.7979 467.5781,439.6447 L467.5781,438.6041 Q467.5781,437.4088 468.1266,436.3822 Q468.6891,435.3416 469.6734,434.7932 Q470.6578,434.2307 471.7688,434.2307 Q472.4297,434.2307 473.0063,434.3854 Q473.5969,434.526 474.0891,434.8494 Z " fill="#000000"/><text fill="#000000" font-family="sans-serif" font-size="10.8" font-style="italic" lengthAdjust="spacing" textLength="76.5" x="486.45" y="434.6543">&#171;Value Object&#187;</text><text fill="#000000" font-family="sans-serif" font-size="12.6" lengthAdjust="spacing" textLength="81" x="484.2" y="450.9615">AttachedEmail</text><line style="stroke:#181818;stroke-width:0.45;" x1="459" x2="567" y1="458.6238" y2="458.6238"/></g><!--class AttachedFile--><g id="elem_AttachedFile"><rect codeLine="40" fill="#F1F1F1" height="47.3238" id="AttachedFile" rx="2.25" ry="2.25" style="stroke:#181818;stroke-width:0.45;" width="101.7" x="599.85" y="418.5"/><ellipse cx="613.35" cy="438.5619" fill="#ADD1B2" rx="9.9" ry="9.9" style="stroke:#181818;stroke-width:0.9;"/><path d="M615.8391,434.8494 Q615.9797,434.6525 616.1484,434.5541 Q616.3172,434.4557 616.5141,434.4557 Q616.8516,434.4557 617.0625,434.6947 Q617.2734,434.9197 617.2734,435.4682 L617.2734,436.776 Q617.2734,437.3244 617.0625,437.5635 Q616.8516,437.8025 616.5141,437.8025 Q616.2047,437.8025 616.0219,437.6197 Q615.8391,437.451 615.7406,436.9869 Q615.6984,436.6635 615.5297,436.4947 Q615.2344,436.1572 614.6859,435.9604 Q614.1375,435.7635 613.575,435.7635 Q612.8859,435.7635 612.3094,436.0588 Q611.7469,436.3541 611.2969,437.0291 Q610.8609,437.7041 610.8609,438.6322 L610.8609,439.6166 Q610.8609,440.7275 611.6625,441.4729 Q612.4641,442.2041 613.8984,442.2041 Q614.7422,442.2041 615.3328,441.9791 Q615.6844,441.8385 616.0641,441.4447 Q616.3031,441.2057 616.4297,441.1354 Q616.5703,441.065 616.7531,441.065 Q617.0484,441.065 617.2734,441.3041 Q617.5125,441.5291 617.5125,441.8385 Q617.5125,442.1479 617.2031,442.5135 Q616.7531,443.0338 616.0359,443.3291 Q615.0656,443.7369 613.8984,443.7369 Q612.5344,443.7369 611.4516,443.1744 Q610.5656,442.7244 609.9469,441.7682 Q609.3281,440.7979 609.3281,439.6447 L609.3281,438.6041 Q609.3281,437.4088 609.8766,436.3822 Q610.4391,435.3416 611.4234,434.7932 Q612.4078,434.2307 613.5188,434.2307 Q614.1797,434.2307 614.7563,434.3854 Q615.3469,434.526 615.8391,434.8494 Z " fill="#000000"/><text fill="#000000" font-family="sans-serif" font-size="10.8" font-style="italic" lengthAdjust="spacing" textLength="76.5" x="624.15" y="434.6543">&#171;Value Object&#187;</text><text fill="#000000" font-family="sans-serif" font-size="12.6" lengthAdjust="spacing" textLength="71.1" x="626.85" y="450.9615">AttachedFile</text><line style="stroke:#181818;stroke-width:0.45;" x1="600.75" x2="700.65" y1="458.6238" y2="458.6238"/></g><!--class ApplicatorData--><g id="elem_ApplicatorData"><rect codeLine="42" fill="#F1F1F1" height="47.3238" id="ApplicatorData" rx="2.25" ry="2.25" style="stroke:#181818;stroke-width:0.45;" width="112.5" x="733.05" y="418.5"/><ellipse cx="746.55" cy="438.5619" fill="#ADD1B2" rx="9.9" ry="9.9" style="stroke:#181818;stroke-width:0.9;"/><path d="M749.0391,434.8494 Q749.1797,434.6525 749.3484,434.5541 Q749.5172,434.4557 749.7141,434.4557 Q750.0516,434.4557 750.2625,434.6947 Q750.4734,434.9197 750.4734,435.4682 L750.4734,436.776 Q750.4734,437.3244 750.2625,437.5635 Q750.0516,437.8025 749.7141,437.8025 Q749.4047,437.8025 749.2219,437.6197 Q749.0391,437.451 748.9406,436.9869 Q748.8984,436.6635 748.7297,436.4947 Q748.4344,436.1572 747.8859,435.9604 Q747.3375,435.7635 746.775,435.7635 Q746.0859,435.7635 745.5094,436.0588 Q744.9469,436.3541 744.4969,437.0291 Q744.0609,437.7041 744.0609,438.6322 L744.0609,439.6166 Q744.0609,440.7275 744.8625,441.4729 Q745.6641,442.2041 747.0984,442.2041 Q747.9422,442.2041 748.5328,441.9791 Q748.8844,441.8385 749.2641,441.4447 Q749.5031,441.2057 749.6297,441.1354 Q749.7703,441.065 749.9531,441.065 Q750.2484,441.065 750.4734,441.3041 Q750.7125,441.5291 750.7125,441.8385 Q750.7125,442.1479 750.4031,442.5135 Q749.9531,443.0338 749.2359,443.3291 Q748.2656,443.7369 747.0984,443.7369 Q745.7344,443.7369 744.6516,443.1744 Q743.7656,442.7244 743.1469,441.7682 Q742.5281,440.7979 742.5281,439.6447 L742.5281,438.6041 Q742.5281,437.4088 743.0766,436.3822 Q743.6391,435.3416 744.6234,434.7932 Q745.6078,434.2307 746.7188,434.2307 Q747.3797,434.2307 747.9563,434.3854 Q748.5469,434.526 749.0391,434.8494 Z " fill="#000000"/><text fill="#000000" font-family="sans-serif" font-size="10.8" font-style="italic" lengthAdjust="spacing" textLength="76.5" x="762.75" y="434.6543">&#171;Value Object&#187;</text><text fill="#000000" font-family="sans-serif" font-size="12.6" lengthAdjust="spacing" textLength="83.7" x="759.15" y="450.9615">ApplicatorData</text><line style="stroke:#181818;stroke-width:0.45;" x1="733.95" x2="844.65" y1="458.6238" y2="458.6238"/></g><!--class ApplicationStatus--><g id="elem_ApplicationStatus"><rect codeLine="44" fill="#F1F1F1" height="47.3238" id="ApplicationStatus" rx="2.25" ry="2.25" style="stroke:#181818;stroke-width:0.45;" width="126.9" x="877.05" y="418.5"/><ellipse cx="890.55" cy="438.5619" fill="#ADD1B2" rx="9.9" ry="9.9" style="stroke:#181818;stroke-width:0.9;"/><path d="M893.0391,434.8494 Q893.1797,434.6525 893.3484,434.5541 Q893.5172,434.4557 893.7141,434.4557 Q894.0516,434.4557 894.2625,434.6947 Q894.4734,434.9197 894.4734,435.4682 L894.4734,436.776 Q894.4734,437.3244 894.2625,437.5635 Q894.0516,437.8025 893.7141,437.8025 Q893.4047,437.8025 893.2219,437.6197 Q893.0391,437.451 892.9406,436.9869 Q892.8984,436.6635 892.7297,436.4947 Q892.4344,436.1572 891.8859,435.9604 Q891.3375,435.7635 890.775,435.7635 Q890.0859,435.7635 889.5094,436.0588 Q888.9469,436.3541 888.4969,437.0291 Q888.0609,437.7041 888.0609,438.6322 L888.0609,439.6166 Q888.0609,440.7275 888.8625,441.4729 Q889.6641,442.2041 891.0984,442.2041 Q891.9422,442.2041 892.5328,441.9791 Q892.8844,441.8385 893.2641,441.4447 Q893.5031,441.2057 893.6297,441.1354 Q893.7703,441.065 893.9531,441.065 Q894.2484,441.065 894.4734,441.3041 Q894.7125,441.5291 894.7125,441.8385 Q894.7125,442.1479 894.4031,442.5135 Q893.9531,443.0338 893.2359,443.3291 Q892.2656,443.7369 891.0984,443.7369 Q889.7344,443.7369 888.6516,443.1744 Q887.7656,442.7244 887.1469,441.7682 Q886.5281,440.7979 886.5281,439.6447 L886.5281,438.6041 Q886.5281,437.4088 887.0766,436.3822 Q887.6391,435.3416 888.6234,434.7932 Q889.6078,434.2307 890.7188,434.2307 Q891.3797,434.2307 891.9563,434.3854 Q892.5469,434.526 893.0391,434.8494 Z " fill="#000000"/><text fill="#000000" font-family="sans-serif" font-size="10.8" font-style="italic" lengthAdjust="spacing" textLength="76.5" x="913.95" y="434.6543">&#171;Value Object&#187;</text><text fill="#000000" font-family="sans-serif" font-size="12.6" lengthAdjust="spacing" textLength="98.1" x="903.15" y="450.9615">ApplicationStatus</text><line style="stroke:#181818;stroke-width:0.45;" x1="877.95" x2="1003.05" y1="458.6238" y2="458.6238"/></g><!--class ApplicationRank--><g id="elem_ApplicationRank"><rect codeLine="46" fill="#F1F1F1" height="47.3238" id="ApplicationRank" rx="2.25" ry="2.25" style="stroke:#181818;stroke-width:0.45;" width="120.6" x="1035.9" y="418.5"/><ellipse cx="1049.4" cy="438.5619" fill="#ADD1B2" rx="9.9" ry="9.9" style="stroke:#181818;stroke-width:0.9;"/><path d="M1051.8891,434.8494 Q1052.0297,434.6525 1052.1984,434.5541 Q1052.3672,434.4557 1052.5641,434.4557 Q1052.9016,434.4557 1053.1125,434.6947 Q1053.3234,434.9197 1053.3234,435.4682 L1053.3234,436.776 Q1053.3234,437.3244 1053.1125,437.5635 Q1052.9016,437.8025 1052.5641,437.8025 Q1052.2547,437.8025 1052.0719,437.6197 Q1051.8891,437.451 1051.7906,436.9869 Q1051.7484,436.6635 1051.5797,436.4947 Q1051.2844,436.1572 1050.7359,435.9604 Q1050.1875,435.7635 1049.625,435.7635 Q1048.9359,435.7635 1048.3594,436.0588 Q1047.7969,436.3541 1047.3469,437.0291 Q1046.9109,437.7041 1046.9109,438.6322 L1046.9109,439.6166 Q1046.9109,440.7275 1047.7125,441.4729 Q1048.5141,442.2041 1049.9484,442.2041 Q1050.7922,442.2041 1051.3828,441.9791 Q1051.7344,441.8385 1052.1141,441.4447 Q1052.3531,441.2057 1052.4797,441.1354 Q1052.6203,441.065 1052.8031,441.065 Q1053.0984,441.065 1053.3234,441.3041 Q1053.5625,441.5291 1053.5625,441.8385 Q1053.5625,442.1479 1053.2531,442.5135 Q1052.8031,443.0338 1052.0859,443.3291 Q1051.1156,443.7369 1049.9484,443.7369 Q1048.5844,443.7369 1047.5016,443.1744 Q1046.6156,442.7244 1045.9969,441.7682 Q1045.3781,440.7979 1045.3781,439.6447 L1045.3781,438.6041 Q1045.3781,437.4088 1045.9266,436.3822 Q1046.4891,435.3416 1047.4734,434.7932 Q1048.4578,434.2307 1049.5688,434.2307 Q1050.2297,434.2307 1050.8063,434.3854 Q1051.3969,434.526 1051.8891,434.8494 Z " fill="#000000"/><text fill="#000000" font-family="sans-serif" font-size="10.8" font-style="italic" lengthAdjust="spacing" textLength="76.5" x="1069.65" y="434.6543">&#171;Value Object&#187;</text><text fill="#000000" font-family="sans-serif" font-size="12.6" lengthAdjust="spacing" textLength="91.8" x="1062" y="450.9615">ApplicationRank</text><line style="stroke:#181818;stroke-width:0.45;" x1="1036.8" x2="1155.6" y1="458.6238" y2="458.6238"/></g><!--class Candidate--><g id="elem_Candidate"><rect codeLine="52" fill="#F1F1F1" height="61.6887" id="Candidate" rx="2.25" ry="2.25" style="stroke:#181818;stroke-width:0.45;" width="115.2" x="1251.9" y="294.3"/><ellipse cx="1265.4" cy="321.5443" fill="#ADD1B2" rx="9.9" ry="9.9" style="stroke:#181818;stroke-width:0.9;"/><path d="M1267.8891,317.8318 Q1268.0297,317.635 1268.1984,317.5365 Q1268.3672,317.4381 1268.5641,317.4381 Q1268.9016,317.4381 1269.1125,317.6771 Q1269.3234,317.9021 1269.3234,318.4506 L1269.3234,319.7584 Q1269.3234,320.3068 1269.1125,320.5459 Q1268.9016,320.785 1268.5641,320.785 Q1268.2547,320.785 1268.0719,320.6021 Q1267.8891,320.4334 1267.7906,319.9693 Q1267.7484,319.6459 1267.5797,319.4771 Q1267.2844,319.1396 1266.7359,318.9428 Q1266.1875,318.7459 1265.625,318.7459 Q1264.9359,318.7459 1264.3594,319.0412 Q1263.7969,319.3365 1263.3469,320.0115 Q1262.9109,320.6865 1262.9109,321.6146 L1262.9109,322.599 Q1262.9109,323.71 1263.7125,324.4553 Q1264.5141,325.1865 1265.9484,325.1865 Q1266.7922,325.1865 1267.3828,324.9615 Q1267.7344,324.8209 1268.1141,324.4271 Q1268.3531,324.1881 1268.4797,324.1178 Q1268.6203,324.0475 1268.8031,324.0475 Q1269.0984,324.0475 1269.3234,324.2865 Q1269.5625,324.5115 1269.5625,324.8209 Q1269.5625,325.1303 1269.2531,325.4959 Q1268.8031,326.0162 1268.0859,326.3115 Q1267.1156,326.7193 1265.9484,326.7193 Q1264.5844,326.7193 1263.5016,326.1568 Q1262.6156,325.7068 1261.9969,324.7506 Q1261.3781,323.7803 1261.3781,322.6271 L1261.3781,321.5865 Q1261.3781,320.3912 1261.9266,319.3646 Q1262.4891,318.324 1263.4734,317.7756 Q1264.4578,317.2131 1265.5688,317.2131 Q1266.2297,317.2131 1266.8063,317.3678 Q1267.3969,317.5084 1267.8891,317.8318 Z " fill="#000000"/><text fill="#000000" font-family="sans-serif" font-size="10.8" font-style="italic" lengthAdjust="spacing" textLength="90" x="1276.2" y="310.4543">&#171;Aggregate Root&#187;</text><text fill="#000000" font-family="sans-serif" font-size="10.8" font-style="italic" lengthAdjust="spacing" textLength="39.6" x="1301.4" y="324.8191">&#171;Entity&#187;</text><text fill="#000000" font-family="sans-serif" font-size="12.6" lengthAdjust="spacing" textLength="58.5" x="1291.95" y="341.1264">Candidate</text><line style="stroke:#181818;stroke-width:0.45;" x1="1252.8" x2="1366.2" y1="348.7887" y2="348.7887"/></g><!--class CandidateId--><g id="elem_CandidateId"><rect codeLine="53" fill="#F1F1F1" height="61.6887" id="CandidateId" rx="2.25" ry="2.25" style="stroke:#181818;stroke-width:0.45;" width="101.7" x="1252.35" y="411.3"/><ellipse cx="1265.85" cy="438.5443" fill="#ADD1B2" rx="9.9" ry="9.9" style="stroke:#181818;stroke-width:0.9;"/><path d="M1268.3391,434.8318 Q1268.4797,434.635 1268.6484,434.5365 Q1268.8172,434.4381 1269.0141,434.4381 Q1269.3516,434.4381 1269.5625,434.6771 Q1269.7734,434.9021 1269.7734,435.4506 L1269.7734,436.7584 Q1269.7734,437.3068 1269.5625,437.5459 Q1269.3516,437.785 1269.0141,437.785 Q1268.7047,437.785 1268.5219,437.6021 Q1268.3391,437.4334 1268.2406,436.9693 Q1268.1984,436.6459 1268.0297,436.4771 Q1267.7344,436.1396 1267.1859,435.9428 Q1266.6375,435.7459 1266.075,435.7459 Q1265.3859,435.7459 1264.8094,436.0412 Q1264.2469,436.3365 1263.7969,437.0115 Q1263.3609,437.6865 1263.3609,438.6146 L1263.3609,439.599 Q1263.3609,440.71 1264.1625,441.4553 Q1264.9641,442.1865 1266.3984,442.1865 Q1267.2422,442.1865 1267.8328,441.9615 Q1268.1844,441.8209 1268.5641,441.4271 Q1268.8031,441.1881 1268.9297,441.1178 Q1269.0703,441.0475 1269.2531,441.0475 Q1269.5484,441.0475 1269.7734,441.2865 Q1270.0125,441.5115 1270.0125,441.8209 Q1270.0125,442.1303 1269.7031,442.4959 Q1269.2531,443.0162 1268.5359,443.3115 Q1267.5656,443.7193 1266.3984,443.7193 Q1265.0344,443.7193 1263.9516,443.1568 Q1263.0656,442.7068 1262.4469,441.7506 Q1261.8281,440.7803 1261.8281,439.6271 L1261.8281,438.5865 Q1261.8281,437.3912 1262.3766,436.3646 Q1262.9391,435.324 1263.9234,434.7756 Q1264.9078,434.2131 1266.0188,434.2131 Q1266.6797,434.2131 1267.2563,434.3678 Q1267.8469,434.5084 1268.3391,434.8318 Z " fill="#000000"/><text fill="#000000" font-family="sans-serif" font-size="10.8" font-style="italic" lengthAdjust="spacing" textLength="48.6" x="1290.6" y="427.4543">&#171;Identity&#187;</text><text fill="#000000" font-family="sans-serif" font-size="10.8" font-style="italic" lengthAdjust="spacing" textLength="76.5" x="1276.65" y="441.8191">&#171;Value Object&#187;</text><text fill="#000000" font-family="sans-serif" font-size="12.6" lengthAdjust="spacing" textLength="68.4" x="1280.7" y="458.1264">CandidateId</text><line style="stroke:#181818;stroke-width:0.45;" x1="1253.25" x2="1353.15" y1="465.7887" y2="465.7887"/></g><!--class CurriculumVitae--><g id="elem_CurriculumVitae"><rect codeLine="54" fill="#F1F1F1" height="47.3238" id="CurriculumVitae" rx="2.25" ry="2.25" style="stroke:#181818;stroke-width:0.45;" width="118.8" x="1386" y="418.5"/><ellipse cx="1399.5" cy="438.5619" fill="#ADD1B2" rx="9.9" ry="9.9" style="stroke:#181818;stroke-width:0.9;"/><path d="M1401.9891,434.8494 Q1402.1297,434.6525 1402.2984,434.5541 Q1402.4672,434.4557 1402.6641,434.4557 Q1403.0016,434.4557 1403.2125,434.6947 Q1403.4234,434.9197 1403.4234,435.4682 L1403.4234,436.776 Q1403.4234,437.3244 1403.2125,437.5635 Q1403.0016,437.8025 1402.6641,437.8025 Q1402.3547,437.8025 1402.1719,437.6197 Q1401.9891,437.451 1401.8906,436.9869 Q1401.8484,436.6635 1401.6797,436.4947 Q1401.3844,436.1572 1400.8359,435.9604 Q1400.2875,435.7635 1399.725,435.7635 Q1399.0359,435.7635 1398.4594,436.0588 Q1397.8969,436.3541 1397.4469,437.0291 Q1397.0109,437.7041 1397.0109,438.6322 L1397.0109,439.6166 Q1397.0109,440.7275 1397.8125,441.4729 Q1398.6141,442.2041 1400.0484,442.2041 Q1400.8922,442.2041 1401.4828,441.9791 Q1401.8344,441.8385 1402.2141,441.4447 Q1402.4531,441.2057 1402.5797,441.1354 Q1402.7203,441.065 1402.9031,441.065 Q1403.1984,441.065 1403.4234,441.3041 Q1403.6625,441.5291 1403.6625,441.8385 Q1403.6625,442.1479 1403.3531,442.5135 Q1402.9031,443.0338 1402.1859,443.3291 Q1401.2156,443.7369 1400.0484,443.7369 Q1398.6844,443.7369 1397.6016,443.1744 Q1396.7156,442.7244 1396.0969,441.7682 Q1395.4781,440.7979 1395.4781,439.6447 L1395.4781,438.6041 Q1395.4781,437.4088 1396.0266,436.3822 Q1396.5891,435.3416 1397.5734,434.7932 Q1398.5578,434.2307 1399.6688,434.2307 Q1400.3297,434.2307 1400.9063,434.3854 Q1401.4969,434.526 1401.9891,434.8494 Z " fill="#000000"/><text fill="#000000" font-family="sans-serif" font-size="10.8" font-style="italic" lengthAdjust="spacing" textLength="76.5" x="1418.85" y="434.6543">&#171;Value Object&#187;</text><text fill="#000000" font-family="sans-serif" font-size="12.6" lengthAdjust="spacing" textLength="90" x="1412.1" y="450.9615">CurriculumVitae</text><line style="stroke:#181818;stroke-width:0.45;" x1="1386.9" x2="1503.9" y1="458.6238" y2="458.6238"/></g><!--class JobOpeningProcess--><g id="elem_JobOpeningProcess"><rect codeLine="60" fill="#F1F1F1" height="61.6887" id="JobOpeningProcess" rx="2.25" ry="2.25" style="stroke:#181818;stroke-width:0.45;" width="143.1" x="1279.35" y="1173.6"/><ellipse cx="1292.85" cy="1200.8443" fill="#ADD1B2" rx="9.9" ry="9.9" style="stroke:#181818;stroke-width:0.9;"/><path d="M1295.3391,1197.1318 Q1295.4797,1196.935 1295.6484,1196.8365 Q1295.8172,1196.7381 1296.0141,1196.7381 Q1296.3516,1196.7381 1296.5625,1196.9771 Q1296.7734,1197.2021 1296.7734,1197.7506 L1296.7734,1199.0584 Q1296.7734,1199.6068 1296.5625,1199.8459 Q1296.3516,1200.085 1296.0141,1200.085 Q1295.7047,1200.085 1295.5219,1199.9021 Q1295.3391,1199.7334 1295.2406,1199.2693 Q1295.1984,1198.9459 1295.0297,1198.7771 Q1294.7344,1198.4396 1294.1859,1198.2428 Q1293.6375,1198.0459 1293.075,1198.0459 Q1292.3859,1198.0459 1291.8094,1198.3412 Q1291.2469,1198.6365 1290.7969,1199.3115 Q1290.3609,1199.9865 1290.3609,1200.9146 L1290.3609,1201.899 Q1290.3609,1203.01 1291.1625,1203.7553 Q1291.9641,1204.4865 1293.3984,1204.4865 Q1294.2422,1204.4865 1294.8328,1204.2615 Q1295.1844,1204.1209 1295.5641,1203.7271 Q1295.8031,1203.4881 1295.9297,1203.4178 Q1296.0703,1203.3475 1296.2531,1203.3475 Q1296.5484,1203.3475 1296.7734,1203.5865 Q1297.0125,1203.8115 1297.0125,1204.1209 Q1297.0125,1204.4303 1296.7031,1204.7959 Q1296.2531,1205.3162 1295.5359,1205.6115 Q1294.5656,1206.0193 1293.3984,1206.0193 Q1292.0344,1206.0193 1290.9516,1205.4568 Q1290.0656,1205.0068 1289.4469,1204.0506 Q1288.8281,1203.0803 1288.8281,1201.9271 L1288.8281,1200.8865 Q1288.8281,1199.6912 1289.3766,1198.6646 Q1289.9391,1197.624 1290.9234,1197.0756 Q1291.9078,1196.5131 1293.0188,1196.5131 Q1293.6797,1196.5131 1294.2563,1196.6678 Q1294.8469,1196.8084 1295.3391,1197.1318 Z " fill="#000000"/><text fill="#000000" font-family="sans-serif" font-size="10.8" font-style="italic" lengthAdjust="spacing" textLength="90" x="1317.6" y="1189.7543">&#171;Aggregate Root&#187;</text><text fill="#000000" font-family="sans-serif" font-size="10.8" font-style="italic" lengthAdjust="spacing" textLength="39.6" x="1342.8" y="1204.1191">&#171;Entity&#187;</text><text fill="#000000" font-family="sans-serif" font-size="12.6" lengthAdjust="spacing" textLength="114.3" x="1305.45" y="1220.4264">JobOpeningProcess</text><line style="stroke:#181818;stroke-width:0.45;" x1="1280.25" x2="1421.55" y1="1228.0887" y2="1228.0887"/></g><!--class JobOpeningProcessId--><g id="elem_JobOpeningProcessId"><rect codeLine="61" fill="#F1F1F1" height="61.6887" id="JobOpeningProcessId" rx="2.25" ry="2.25" style="stroke:#181818;stroke-width:0.45;" width="153" x="1094.4" y="1173.6"/><ellipse cx="1107.9" cy="1200.8443" fill="#ADD1B2" rx="9.9" ry="9.9" style="stroke:#181818;stroke-width:0.9;"/><path d="M1110.3891,1197.1318 Q1110.5297,1196.935 1110.6984,1196.8365 Q1110.8672,1196.7381 1111.0641,1196.7381 Q1111.4016,1196.7381 1111.6125,1196.9771 Q1111.8234,1197.2021 1111.8234,1197.7506 L1111.8234,1199.0584 Q1111.8234,1199.6068 1111.6125,1199.8459 Q1111.4016,1200.085 1111.0641,1200.085 Q1110.7547,1200.085 1110.5719,1199.9021 Q1110.3891,1199.7334 1110.2906,1199.2693 Q1110.2484,1198.9459 1110.0797,1198.7771 Q1109.7844,1198.4396 1109.2359,1198.2428 Q1108.6875,1198.0459 1108.125,1198.0459 Q1107.4359,1198.0459 1106.8594,1198.3412 Q1106.2969,1198.6365 1105.8469,1199.3115 Q1105.4109,1199.9865 1105.4109,1200.9146 L1105.4109,1201.899 Q1105.4109,1203.01 1106.2125,1203.7553 Q1107.0141,1204.4865 1108.4484,1204.4865 Q1109.2922,1204.4865 1109.8828,1204.2615 Q1110.2344,1204.1209 1110.6141,1203.7271 Q1110.8531,1203.4881 1110.9797,1203.4178 Q1111.1203,1203.3475 1111.3031,1203.3475 Q1111.5984,1203.3475 1111.8234,1203.5865 Q1112.0625,1203.8115 1112.0625,1204.1209 Q1112.0625,1204.4303 1111.7531,1204.7959 Q1111.3031,1205.3162 1110.5859,1205.6115 Q1109.6156,1206.0193 1108.4484,1206.0193 Q1107.0844,1206.0193 1106.0016,1205.4568 Q1105.1156,1205.0068 1104.4969,1204.0506 Q1103.8781,1203.0803 1103.8781,1201.9271 L1103.8781,1200.8865 Q1103.8781,1199.6912 1104.4266,1198.6646 Q1104.9891,1197.624 1105.9734,1197.0756 Q1106.9578,1196.5131 1108.0688,1196.5131 Q1108.7297,1196.5131 1109.3063,1196.6678 Q1109.8969,1196.8084 1110.3891,1197.1318 Z " fill="#000000"/><text fill="#000000" font-family="sans-serif" font-size="10.8" font-style="italic" lengthAdjust="spacing" textLength="48.6" x="1158.3" y="1189.7543">&#171;Identity&#187;</text><text fill="#000000" font-family="sans-serif" font-size="10.8" font-style="italic" lengthAdjust="spacing" textLength="76.5" x="1144.35" y="1204.1191">&#171;Value Object&#187;</text><text fill="#000000" font-family="sans-serif" font-size="12.6" lengthAdjust="spacing" textLength="124.2" x="1120.5" y="1220.4264">JobOpeningProcessId</text><line style="stroke:#181818;stroke-width:0.45;" x1="1095.3" x2="1246.5" y1="1228.0887" y2="1228.0887"/></g><!--class Phase--><g id="elem_Phase"><rect codeLine="64" fill="#F1F1F1" height="47.3238" id="Phase" rx="2.25" ry="2.25" style="stroke:#181818;stroke-width:0.45;" width="64.8" x="1318.5" y="1290.6"/><ellipse cx="1332" cy="1310.6619" fill="#ADD1B2" rx="9.9" ry="9.9" style="stroke:#181818;stroke-width:0.9;"/><path d="M1334.4891,1306.9494 Q1334.6297,1306.7525 1334.7984,1306.6541 Q1334.9672,1306.5557 1335.1641,1306.5557 Q1335.5016,1306.5557 1335.7125,1306.7947 Q1335.9234,1307.0197 1335.9234,1307.5682 L1335.9234,1308.876 Q1335.9234,1309.4244 1335.7125,1309.6635 Q1335.5016,1309.9025 1335.1641,1309.9025 Q1334.8547,1309.9025 1334.6719,1309.7197 Q1334.4891,1309.551 1334.3906,1309.0869 Q1334.3484,1308.7635 1334.1797,1308.5947 Q1333.8844,1308.2572 1333.3359,1308.0604 Q1332.7875,1307.8635 1332.225,1307.8635 Q1331.5359,1307.8635 1330.9594,1308.1588 Q1330.3969,1308.4541 1329.9469,1309.1291 Q1329.5109,1309.8041 1329.5109,1310.7322 L1329.5109,1311.7166 Q1329.5109,1312.8275 1330.3125,1313.5729 Q1331.1141,1314.3041 1332.5484,1314.3041 Q1333.3922,1314.3041 1333.9828,1314.0791 Q1334.3344,1313.9385 1334.7141,1313.5447 Q1334.9531,1313.3057 1335.0797,1313.2354 Q1335.2203,1313.165 1335.4031,1313.165 Q1335.6984,1313.165 1335.9234,1313.4041 Q1336.1625,1313.6291 1336.1625,1313.9385 Q1336.1625,1314.2479 1335.8531,1314.6135 Q1335.4031,1315.1338 1334.6859,1315.4291 Q1333.7156,1315.8369 1332.5484,1315.8369 Q1331.1844,1315.8369 1330.1016,1315.2744 Q1329.2156,1314.8244 1328.5969,1313.8682 Q1327.9781,1312.8979 1327.9781,1311.7447 L1327.9781,1310.7041 Q1327.9781,1309.5088 1328.5266,1308.4822 Q1329.0891,1307.4416 1330.0734,1306.8932 Q1331.0578,1306.3307 1332.1688,1306.3307 Q1332.8297,1306.3307 1333.4063,1306.4854 Q1333.9969,1306.626 1334.4891,1306.9494 Z " fill="#000000"/><text fill="#000000" font-family="sans-serif" font-size="10.8" font-style="italic" lengthAdjust="spacing" textLength="39.6" x="1342.8" y="1306.7543">&#171;Entity&#187;</text><text fill="#000000" font-family="sans-serif" font-size="12.6" lengthAdjust="spacing" textLength="36" x="1344.6" y="1323.0615">Phase</text><line style="stroke:#181818;stroke-width:0.45;" x1="1319.4" x2="1382.4" y1="1330.7238" y2="1330.7238"/></g><!--class PhaseType--><g id="elem_PhaseType"><rect codeLine="66" fill="#F1F1F1" height="145.4836" id="PhaseType" rx="2.25" ry="2.25" style="stroke:#181818;stroke-width:0.45;" width="101.7" x="1300.05" y="1393.2"/><ellipse cx="1313.55" cy="1420.4443" fill="#EB937F" rx="9.9" ry="9.9" style="stroke:#181818;stroke-width:0.9;"/><path d="M1312.5234,1421.1615 L1312.5234,1423.4115 L1316.4188,1423.4115 L1316.4188,1422.5818 Q1316.4188,1422.0334 1316.6297,1421.7943 Q1316.8547,1421.5553 1317.1922,1421.5553 Q1317.5297,1421.5553 1317.7406,1421.7943 Q1317.9516,1422.0334 1317.9516,1422.5818 L1317.9516,1424.9443 L1310.7516,1424.9443 Q1310.1891,1424.9443 1309.95,1424.7334 Q1309.725,1424.5225 1309.725,1424.1709 Q1309.725,1423.8334 1309.9641,1423.6225 Q1310.2031,1423.4115 1310.7516,1423.4115 L1310.9906,1423.4115 L1310.9906,1417.4209 L1310.7516,1417.4209 Q1310.1891,1417.4209 1309.95,1417.21 Q1309.725,1416.999 1309.725,1416.6475 Q1309.725,1416.31 1309.95,1416.099 Q1310.1891,1415.8881 1310.7516,1415.8881 L1317.6141,1415.8881 L1317.6141,1418.2225 Q1317.6141,1418.7709 1317.4031,1419.01 Q1317.2063,1419.235 1316.8547,1419.235 Q1316.5172,1419.235 1316.3063,1419.01 Q1316.0953,1418.7709 1316.0953,1418.2225 L1316.0953,1417.4209 L1312.5234,1417.4209 L1312.5234,1419.6287 L1313.8594,1419.6287 Q1313.8594,1419.0381 1313.9719,1418.8693 Q1314.2109,1418.5037 1314.6328,1418.5037 Q1314.9703,1418.5037 1315.1813,1418.7428 Q1315.3922,1418.9678 1315.3922,1419.5162 L1315.3922,1421.2881 Q1315.3922,1421.7803 1315.2797,1421.949 Q1315.0406,1422.3006 1314.6328,1422.3006 Q1314.2109,1422.3006 1313.9719,1421.935 Q1313.8594,1421.7662 1313.8594,1421.1615 L1312.5234,1421.1615 Z " fill="#000000"/><text fill="#000000" font-family="sans-serif" font-size="10.8" font-style="italic" lengthAdjust="spacing" textLength="73.8" x="1325.7" y="1409.3543">&#171;Enumerated&#187;</text><text fill="#000000" font-family="sans-serif" font-size="10.8" font-style="italic" lengthAdjust="spacing" textLength="76.5" x="1324.35" y="1423.7191">&#171;Value Object&#187;</text><text fill="#000000" font-family="sans-serif" font-size="12.6" lengthAdjust="spacing" textLength="64.8" x="1330.2" y="1440.0264">PhaseType</text><line style="stroke:#181818;stroke-width:0.45;" x1="1300.95" x2="1400.85" y1="1447.6887" y2="1447.6887"/><text fill="#000000" font-family="sans-serif" font-size="12.6" lengthAdjust="spacing" textLength="80.1" x="1305.45" y="1464.8854">APPLICATION</text><text fill="#000000" font-family="sans-serif" font-size="12.6" lengthAdjust="spacing" textLength="71.1" x="1305.45" y="1481.6443">SCREENING</text><text fill="#000000" font-family="sans-serif" font-size="12.6" lengthAdjust="spacing" textLength="74.7" x="1305.45" y="1498.4033">INTERVIEWS</text><text fill="#000000" font-family="sans-serif" font-size="12.6" lengthAdjust="spacing" textLength="58.5" x="1305.45" y="1515.1623">ANALYSIS</text><text fill="#000000" font-family="sans-serif" font-size="12.6" lengthAdjust="spacing" textLength="48.6" x="1305.45" y="1531.9213">RESULT</text></g><!--class JobInterview--><g id="elem_JobInterview"><rect codeLine="76" fill="#F1F1F1" height="61.6887" id="JobInterview" rx="2.25" ry="2.25" style="stroke:#181818;stroke-width:0.45;" width="115.2" x="24.3" y="156.6"/><ellipse cx="37.8" cy="183.8443" fill="#ADD1B2" rx="9.9" ry="9.9" style="stroke:#181818;stroke-width:0.9;"/><path d="M40.2891,180.1318 Q40.4297,179.935 40.5984,179.8365 Q40.7672,179.7381 40.9641,179.7381 Q41.3016,179.7381 41.5125,179.9771 Q41.7234,180.2021 41.7234,180.7506 L41.7234,182.0584 Q41.7234,182.6068 41.5125,182.8459 Q41.3016,183.085 40.9641,183.085 Q40.6547,183.085 40.4719,182.9021 Q40.2891,182.7334 40.1906,182.2693 Q40.1484,181.9459 39.9797,181.7771 Q39.6844,181.4396 39.1359,181.2428 Q38.5875,181.0459 38.025,181.0459 Q37.3359,181.0459 36.7594,181.3412 Q36.1969,181.6365 35.7469,182.3115 Q35.3109,182.9865 35.3109,183.9146 L35.3109,184.899 Q35.3109,186.01 36.1125,186.7553 Q36.9141,187.4865 38.3484,187.4865 Q39.1922,187.4865 39.7828,187.2615 Q40.1344,187.1209 40.5141,186.7271 Q40.7531,186.4881 40.8797,186.4178 Q41.0203,186.3475 41.2031,186.3475 Q41.4984,186.3475 41.7234,186.5865 Q41.9625,186.8115 41.9625,187.1209 Q41.9625,187.4303 41.6531,187.7959 Q41.2031,188.3162 40.4859,188.6115 Q39.5156,189.0193 38.3484,189.0193 Q36.9844,189.0193 35.9016,188.4568 Q35.0156,188.0068 34.3969,187.0506 Q33.7781,186.0803 33.7781,184.9271 L33.7781,183.8865 Q33.7781,182.6912 34.3266,181.6646 Q34.8891,180.624 35.8734,180.0756 Q36.8578,179.5131 37.9688,179.5131 Q38.6297,179.5131 39.2063,179.6678 Q39.7969,179.8084 40.2891,180.1318 Z " fill="#000000"/><text fill="#000000" font-family="sans-serif" font-size="10.8" font-style="italic" lengthAdjust="spacing" textLength="90" x="48.6" y="172.7543">&#171;Aggregate Root&#187;</text><text fill="#000000" font-family="sans-serif" font-size="10.8" font-style="italic" lengthAdjust="spacing" textLength="39.6" x="73.8" y="187.1191">&#171;Entity&#187;</text><text fill="#000000" font-family="sans-serif" font-size="12.6" lengthAdjust="spacing" textLength="69.3" x="58.95" y="203.4264">JobInterview</text><line style="stroke:#181818;stroke-width:0.45;" x1="25.2" x2="138.6" y1="211.0887" y2="211.0887"/></g><!--class JobInterviewId--><g id="elem_JobInterviewId"><rect codeLine="77" fill="#F1F1F1" height="61.6887" id="JobInterviewId" rx="2.25" ry="2.25" style="stroke:#181818;stroke-width:0.45;" width="108" x="22.5" y="39.6"/><ellipse cx="36" cy="66.8443" fill="#ADD1B2" rx="9.9" ry="9.9" style="stroke:#181818;stroke-width:0.9;"/><path d="M38.4891,63.1318 Q38.6297,62.935 38.7984,62.8365 Q38.9672,62.7381 39.1641,62.7381 Q39.5016,62.7381 39.7125,62.9771 Q39.9234,63.2021 39.9234,63.7506 L39.9234,65.0584 Q39.9234,65.6068 39.7125,65.8459 Q39.5016,66.085 39.1641,66.085 Q38.8547,66.085 38.6719,65.9021 Q38.4891,65.7334 38.3906,65.2693 Q38.3484,64.9459 38.1797,64.7771 Q37.8844,64.4396 37.3359,64.2428 Q36.7875,64.0459 36.225,64.0459 Q35.5359,64.0459 34.9594,64.3412 Q34.3969,64.6365 33.9469,65.3115 Q33.5109,65.9865 33.5109,66.9146 L33.5109,67.899 Q33.5109,69.01 34.3125,69.7553 Q35.1141,70.4865 36.5484,70.4865 Q37.3922,70.4865 37.9828,70.2615 Q38.3344,70.1209 38.7141,69.7271 Q38.9531,69.4881 39.0797,69.4178 Q39.2203,69.3475 39.4031,69.3475 Q39.6984,69.3475 39.9234,69.5865 Q40.1625,69.8115 40.1625,70.1209 Q40.1625,70.4303 39.8531,70.7959 Q39.4031,71.3162 38.6859,71.6115 Q37.7156,72.0193 36.5484,72.0193 Q35.1844,72.0193 34.1016,71.4568 Q33.2156,71.0068 32.5969,70.0506 Q31.9781,69.0803 31.9781,67.9271 L31.9781,66.8865 Q31.9781,65.6912 32.5266,64.6646 Q33.0891,63.624 34.0734,63.0756 Q35.0578,62.5131 36.1688,62.5131 Q36.8297,62.5131 37.4063,62.6678 Q37.9969,62.8084 38.4891,63.1318 Z " fill="#000000"/><text fill="#000000" font-family="sans-serif" font-size="10.8" font-style="italic" lengthAdjust="spacing" textLength="48.6" x="63.9" y="55.7543">&#171;Identity&#187;</text><text fill="#000000" font-family="sans-serif" font-size="10.8" font-style="italic" lengthAdjust="spacing" textLength="76.5" x="49.95" y="70.1191">&#171;Value Object&#187;</text><text fill="#000000" font-family="sans-serif" font-size="12.6" lengthAdjust="spacing" textLength="79.2" x="48.6" y="86.4264">JobInterviewId</text><line style="stroke:#181818;stroke-width:0.45;" x1="23.4" x2="129.6" y1="94.0887" y2="94.0887"/></g><!--class InterviewDate--><g id="elem_InterviewDate"><rect codeLine="78" fill="#F1F1F1" height="47.3238" id="InterviewDate" rx="2.25" ry="2.25" style="stroke:#181818;stroke-width:0.45;" width="105.3" x="162.45" y="46.8"/><ellipse cx="175.95" cy="66.8619" fill="#ADD1B2" rx="9.9" ry="9.9" style="stroke:#181818;stroke-width:0.9;"/><path d="M178.4391,63.1494 Q178.5797,62.9525 178.7484,62.8541 Q178.9172,62.7557 179.1141,62.7557 Q179.4516,62.7557 179.6625,62.9947 Q179.8734,63.2197 179.8734,63.7682 L179.8734,65.076 Q179.8734,65.6244 179.6625,65.8635 Q179.4516,66.1025 179.1141,66.1025 Q178.8047,66.1025 178.6219,65.9197 Q178.4391,65.751 178.3406,65.2869 Q178.2984,64.9635 178.1297,64.7947 Q177.8344,64.4572 177.2859,64.2604 Q176.7375,64.0635 176.175,64.0635 Q175.4859,64.0635 174.9094,64.3588 Q174.3469,64.6541 173.8969,65.3291 Q173.4609,66.0041 173.4609,66.9322 L173.4609,67.9166 Q173.4609,69.0275 174.2625,69.7729 Q175.0641,70.5041 176.4984,70.5041 Q177.3422,70.5041 177.9328,70.2791 Q178.2844,70.1385 178.6641,69.7447 Q178.9031,69.5057 179.0297,69.4354 Q179.1703,69.365 179.3531,69.365 Q179.6484,69.365 179.8734,69.6041 Q180.1125,69.8291 180.1125,70.1385 Q180.1125,70.4479 179.8031,70.8135 Q179.3531,71.3338 178.6359,71.6291 Q177.6656,72.0369 176.4984,72.0369 Q175.1344,72.0369 174.0516,71.4744 Q173.1656,71.0244 172.5469,70.0682 Q171.9281,69.0979 171.9281,67.9447 L171.9281,66.9041 Q171.9281,65.7088 172.4766,64.6822 Q173.0391,63.6416 174.0234,63.0932 Q175.0078,62.5307 176.1188,62.5307 Q176.7797,62.5307 177.3563,62.6854 Q177.9469,62.826 178.4391,63.1494 Z " fill="#000000"/><text fill="#000000" font-family="sans-serif" font-size="10.8" font-style="italic" lengthAdjust="spacing" textLength="76.5" x="188.55" y="62.9543">&#171;Value Object&#187;</text><text fill="#000000" font-family="sans-serif" font-size="12.6" lengthAdjust="spacing" textLength="76.5" x="188.55" y="79.2615">InterviewDate</text><line style="stroke:#181818;stroke-width:0.45;" x1="163.35" x2="266.85" y1="86.9238" y2="86.9238"/></g><!--class InterviewTime--><g id="elem_InterviewTime"><rect codeLine="79" fill="#F1F1F1" height="47.3238" id="InterviewTime" rx="2.25" ry="2.25" style="stroke:#181818;stroke-width:0.45;" width="106.2" x="20.7" y="301.5"/><ellipse cx="34.2" cy="321.5619" fill="#ADD1B2" rx="9.9" ry="9.9" style="stroke:#181818;stroke-width:0.9;"/><path d="M36.6891,317.8494 Q36.8297,317.6525 36.9984,317.5541 Q37.1672,317.4557 37.3641,317.4557 Q37.7016,317.4557 37.9125,317.6947 Q38.1234,317.9197 38.1234,318.4682 L38.1234,319.776 Q38.1234,320.3244 37.9125,320.5635 Q37.7016,320.8025 37.3641,320.8025 Q37.0547,320.8025 36.8719,320.6197 Q36.6891,320.451 36.5906,319.9869 Q36.5484,319.6635 36.3797,319.4947 Q36.0844,319.1572 35.5359,318.9604 Q34.9875,318.7635 34.425,318.7635 Q33.7359,318.7635 33.1594,319.0588 Q32.5969,319.3541 32.1469,320.0291 Q31.7109,320.7041 31.7109,321.6322 L31.7109,322.6166 Q31.7109,323.7275 32.5125,324.4729 Q33.3141,325.2041 34.7484,325.2041 Q35.5922,325.2041 36.1828,324.9791 Q36.5344,324.8385 36.9141,324.4447 Q37.1531,324.2057 37.2797,324.1354 Q37.4203,324.065 37.6031,324.065 Q37.8984,324.065 38.1234,324.3041 Q38.3625,324.5291 38.3625,324.8385 Q38.3625,325.1479 38.0531,325.5135 Q37.6031,326.0338 36.8859,326.3291 Q35.9156,326.7369 34.7484,326.7369 Q33.3844,326.7369 32.3016,326.1744 Q31.4156,325.7244 30.7969,324.7682 Q30.1781,323.7979 30.1781,322.6447 L30.1781,321.6041 Q30.1781,320.4088 30.7266,319.3822 Q31.2891,318.3416 32.2734,317.7932 Q33.2578,317.2307 34.3688,317.2307 Q35.0297,317.2307 35.6063,317.3854 Q36.1969,317.526 36.6891,317.8494 Z " fill="#000000"/><text fill="#000000" font-family="sans-serif" font-size="10.8" font-style="italic" lengthAdjust="spacing" textLength="76.5" x="47.25" y="317.6543">&#171;Value Object&#187;</text><text fill="#000000" font-family="sans-serif" font-size="12.6" lengthAdjust="spacing" textLength="77.4" x="46.8" y="333.9615">InterviewTime</text><line style="stroke:#181818;stroke-width:0.45;" x1="21.6" x2="126" y1="341.6238" y2="341.6238"/></g><!--class Score--><g id="elem_Score"><rect codeLine="80" fill="#F1F1F1" height="47.3238" id="Score" rx="2.25" ry="2.25" style="stroke:#181818;stroke-width:0.45;" width="101.7" x="171.45" y="163.8"/><ellipse cx="184.95" cy="183.8619" fill="#ADD1B2" rx="9.9" ry="9.9" style="stroke:#181818;stroke-width:0.9;"/><path d="M187.4391,180.1494 Q187.5797,179.9525 187.7484,179.8541 Q187.9172,179.7557 188.1141,179.7557 Q188.4516,179.7557 188.6625,179.9947 Q188.8734,180.2197 188.8734,180.7682 L188.8734,182.076 Q188.8734,182.6244 188.6625,182.8635 Q188.4516,183.1025 188.1141,183.1025 Q187.8047,183.1025 187.6219,182.9197 Q187.4391,182.751 187.3406,182.2869 Q187.2984,181.9635 187.1297,181.7947 Q186.8344,181.4572 186.2859,181.2604 Q185.7375,181.0635 185.175,181.0635 Q184.4859,181.0635 183.9094,181.3588 Q183.3469,181.6541 182.8969,182.3291 Q182.4609,183.0041 182.4609,183.9322 L182.4609,184.9166 Q182.4609,186.0275 183.2625,186.7729 Q184.0641,187.5041 185.4984,187.5041 Q186.3422,187.5041 186.9328,187.2791 Q187.2844,187.1385 187.6641,186.7447 Q187.9031,186.5057 188.0297,186.4354 Q188.1703,186.365 188.3531,186.365 Q188.6484,186.365 188.8734,186.6041 Q189.1125,186.8291 189.1125,187.1385 Q189.1125,187.4479 188.8031,187.8135 Q188.3531,188.3338 187.6359,188.6291 Q186.6656,189.0369 185.4984,189.0369 Q184.1344,189.0369 183.0516,188.4744 Q182.1656,188.0244 181.5469,187.0682 Q180.9281,186.0979 180.9281,184.9447 L180.9281,183.9041 Q180.9281,182.7088 181.4766,181.6822 Q182.0391,180.6416 183.0234,180.0932 Q184.0078,179.5307 185.1188,179.5307 Q185.7797,179.5307 186.3563,179.6854 Q186.9469,179.826 187.4391,180.1494 Z " fill="#000000"/><text fill="#000000" font-family="sans-serif" font-size="10.8" font-style="italic" lengthAdjust="spacing" textLength="76.5" x="195.75" y="179.9543">&#171;Value Object&#187;</text><text fill="#000000" font-family="sans-serif" font-size="12.6" lengthAdjust="spacing" textLength="33.3" x="217.35" y="196.2615">Score</text><line style="stroke:#181818;stroke-width:0.45;" x1="172.35" x2="272.25" y1="203.9238" y2="203.9238"/></g><!--class InterviewResult--><g id="elem_InterviewResult"><rect codeLine="81" fill="#F1F1F1" height="47.3238" id="InterviewResult" rx="2.25" ry="2.25" style="stroke:#181818;stroke-width:0.45;" width="114.3" x="158.85" y="301.5"/><ellipse cx="172.35" cy="321.5619" fill="#ADD1B2" rx="9.9" ry="9.9" style="stroke:#181818;stroke-width:0.9;"/><path d="M174.8391,317.8494 Q174.9797,317.6525 175.1484,317.5541 Q175.3172,317.4557 175.5141,317.4557 Q175.8516,317.4557 176.0625,317.6947 Q176.2734,317.9197 176.2734,318.4682 L176.2734,319.776 Q176.2734,320.3244 176.0625,320.5635 Q175.8516,320.8025 175.5141,320.8025 Q175.2047,320.8025 175.0219,320.6197 Q174.8391,320.451 174.7406,319.9869 Q174.6984,319.6635 174.5297,319.4947 Q174.2344,319.1572 173.6859,318.9604 Q173.1375,318.7635 172.575,318.7635 Q171.8859,318.7635 171.3094,319.0588 Q170.7469,319.3541 170.2969,320.0291 Q169.8609,320.7041 169.8609,321.6322 L169.8609,322.6166 Q169.8609,323.7275 170.6625,324.4729 Q171.4641,325.2041 172.8984,325.2041 Q173.7422,325.2041 174.3328,324.9791 Q174.6844,324.8385 175.0641,324.4447 Q175.3031,324.2057 175.4297,324.1354 Q175.5703,324.065 175.7531,324.065 Q176.0484,324.065 176.2734,324.3041 Q176.5125,324.5291 176.5125,324.8385 Q176.5125,325.1479 176.2031,325.5135 Q175.7531,326.0338 175.0359,326.3291 Q174.0656,326.7369 172.8984,326.7369 Q171.5344,326.7369 170.4516,326.1744 Q169.5656,325.7244 168.9469,324.7682 Q168.3281,323.7979 168.3281,322.6447 L168.3281,321.6041 Q168.3281,320.4088 168.8766,319.3822 Q169.4391,318.3416 170.4234,317.7932 Q171.4078,317.2307 172.5188,317.2307 Q173.1797,317.2307 173.7563,317.3854 Q174.3469,317.526 174.8391,317.8494 Z " fill="#000000"/><text fill="#000000" font-family="sans-serif" font-size="10.8" font-style="italic" lengthAdjust="spacing" textLength="76.5" x="189.45" y="317.6543">&#171;Value Object&#187;</text><text fill="#000000" font-family="sans-serif" font-size="12.6" lengthAdjust="spacing" textLength="85.5" x="184.95" y="333.9615">InterviewResult</text><line style="stroke:#181818;stroke-width:0.45;" x1="159.75" x2="272.25" y1="341.6238" y2="341.6238"/></g><!--reverse link JobInterviewId to JobInterview--><g id="link_JobInterviewId_JobInterview"><path codeLine="85" d="M78.1734,107.2111 C78.9564,124.0141 79.686,139.455 80.469,156.285 " fill="none" id="JobInterviewId-backto-JobInterview" style="stroke:#181818;stroke-width:0.9;"/><polygon fill="#181818" points="77.922,101.817,74.7029,110.0758,78.1315,106.3121,81.8951,109.7406,77.922,101.817" style="stroke:#181818;stroke-width:0.9;"/><text fill="#000000" font-family="sans-serif" font-size="11.7" lengthAdjust="spacing" textLength="6.3" x="71.325" y="121.172">1</text><text fill="#000000" font-family="sans-serif" font-size="11.7" lengthAdjust="spacing" textLength="6.3" x="73.3244" y="146.4792">1</text></g><!--reverse link InterviewDate to JobInterview--><g id="link_InterviewDate_JobInterview"><path codeLine="86" d="M184.3846,98.1223 C163.8106,115.9153 139.239,137.16 116.829,156.537 " fill="none" id="InterviewDate-backto-JobInterview" style="stroke:#181818;stroke-width:0.9;"/><polygon fill="#181818" points="188.469,94.59,179.9875,97.1656,185.0653,97.5336,184.6972,102.6115,188.469,94.59" style="stroke:#181818;stroke-width:0.9;"/><text fill="#000000" font-family="sans-serif" font-size="11.7" lengthAdjust="spacing" textLength="6.3" x="176.0267" y="113.7967">1</text><text fill="#000000" font-family="sans-serif" font-size="11.7" lengthAdjust="spacing" textLength="6.3" x="116.5869" y="146.5375">1</text></g><!--link JobInterview to InterviewTime--><g id="link_JobInterview_InterviewTime"><path codeLine="87" d="M80.1,218.709 C78.624,243.576 76.8666,272.9526 75.5076,295.7316 " fill="none" id="JobInterview-to-InterviewTime" style="stroke:#181818;stroke-width:0.9;"/><polygon fill="#181818" points="75.186,301.122,79.262,293.2508,75.454,296.63,72.0748,292.822,75.186,301.122" style="stroke:#181818;stroke-width:0.9;"/><text fill="#000000" font-family="sans-serif" font-size="11.7" lengthAdjust="spacing" textLength="6.3" x="72.9492" y="238.0455">1</text><text fill="#000000" font-family="sans-serif" font-size="11.7" lengthAdjust="spacing" textLength="6.3" x="68.5001" y="291.544">1</text></g><!--link JobInterview to Score--><g id="link_JobInterview_Score"><path codeLine="88" d="M139.761,187.65 C150.291,187.65 155.421,187.65 165.96,187.65 " fill="none" id="JobInterview-to-Score" style="stroke:#181818;stroke-width:0.9;"/><polygon fill="#181818" points="171.36,187.65,163.26,184.05,166.86,187.65,163.26,191.25,171.36,187.65" style="stroke:#181818;stroke-width:0.9;"/><text fill="#000000" font-family="sans-serif" font-size="11.7" lengthAdjust="spacing" textLength="6.3" x="146.8154" y="184.1299">1</text><text fill="#000000" font-family="sans-serif" font-size="11.7" lengthAdjust="spacing" textLength="6.3" x="157.7917" y="183.9904">1</text></g><!--link JobInterview to InterviewResult--><g id="link_JobInterview_InterviewResult"><path codeLine="89" d="M111.663,218.709 C136.197,243.576 166.7125,274.4989 189.1855,297.2779 " fill="none" id="JobInterview-to-InterviewResult" style="stroke:#181818;stroke-width:0.9;"/><polygon fill="#181818" points="192.978,301.122,189.852,292.8275,189.8176,297.9186,184.7266,297.8841,192.978,301.122" style="stroke:#181818;stroke-width:0.9;"/><text fill="#000000" font-family="sans-serif" font-size="11.7" lengthAdjust="spacing" textLength="6.3" x="109.9371" y="238.0455">1</text><text fill="#000000" font-family="sans-serif" font-size="11.7" lengthAdjust="spacing" textLength="6.3" x="180.9529" y="291.544">1</text></g><!--reverse link JobInterview to Application--><g id="link_JobInterview_Application"><path codeLine="91" d="M144.9788,215.4311 C150.2798,217.3031 150.507,217.224 155.7,218.7 C363.294,277.632 619.056,307.89 731.565,319.158 " fill="none" id="JobInterview-backto-Application" style="stroke:#181818;stroke-width:0.9;"/><polygon fill="#181818" points="139.887,213.633,146.326,219.7248,144.1302,215.1314,148.7235,212.9356,139.887,213.633" style="stroke:#181818;stroke-width:0.9;"/><text fill="#000000" font-family="sans-serif" font-size="11.7" lengthAdjust="spacing" textLength="6.3" x="146.5739" y="213.0005">1</text><text fill="#000000" font-family="sans-serif" font-size="11.7" lengthAdjust="spacing" textLength="6.3" x="718.2252" y="314.9219">1</text></g><!--link JobOpening to JobReference--><g id="link_JobOpening_JobReference"><path codeLine="96" d="M1045.791,841.68 C999.189,858.429 931.995,883.08 873.9,906.3 C868.725,908.37 868.3424,908.4814 862.9874,910.7224 " fill="none" id="JobOpening-to-JobReference" style="stroke:#181818;stroke-width:0.9;"/><polygon fill="#181818" points="858.006,912.807,866.8678,913.001,862.1572,911.0698,864.0883,906.3591,858.006,912.807" style="stroke:#181818;stroke-width:0.9;"/><text fill="#000000" font-family="sans-serif" font-size="11.7" lengthAdjust="spacing" textLength="6.3" x="1032.4657" y="840.6262">1</text><text fill="#000000" font-family="sans-serif" font-size="11.7" lengthAdjust="spacing" textLength="6.3" x="865.0085" y="906.25">1</text></g><!--link JobOpening to TitleOrFunction--><g id="link_JobOpening_TitleOrFunction"><path codeLine="97" d="M1062.495,851.517 C1036.269,870.921 1007.1212,892.4864 983.0822,910.2704 " fill="none" id="JobOpening-to-TitleOrFunction" style="stroke:#181818;stroke-width:0.9;"/><polygon fill="#181818" points="978.741,913.482,987.3938,911.5587,982.3586,910.8057,983.1117,905.7705,978.741,913.482" style="stroke:#181818;stroke-width:0.9;"/><text fill="#000000" font-family="sans-serif" font-size="11.7" lengthAdjust="spacing" textLength="6.3" x="1048.623" y="870.872">1</text><text fill="#000000" font-family="sans-serif" font-size="11.7" lengthAdjust="spacing" textLength="6.3" x="979.2394" y="903.2027">1</text></g><!--reverse link ContractType to JobOpening--><g id="link_ContractType_JobOpening"><path codeLine="98" d="M1103.4,731.889 C1103.4,752.535 1103.4,770.787 1103.4,789.066 " fill="none" id="ContractType-backto-JobOpening" style="stroke:#181818;stroke-width:0.9;"/><polygon fill="#181818" points="1103.4,726.489,1099.8,734.589,1103.4,730.989,1107,734.589,1103.4,726.489" style="stroke:#181818;stroke-width:0.9;"/><text fill="#000000" font-family="sans-serif" font-size="11.7" lengthAdjust="spacing" textLength="6.3" x="1096.7161" y="745.911">1</text><text fill="#000000" font-family="sans-serif" font-size="11.7" lengthAdjust="spacing" textLength="6.3" x="1096.5192" y="779.2751">1</text></g><!--reverse link Mode to JobOpening--><g id="link_Mode_JobOpening"><path codeLine="99" d="M1022.2549,735.881 C1040.9299,755.123 1057.671,772.362 1073.853,789.021 " fill="none" id="Mode-backto-JobOpening" style="stroke:#181818;stroke-width:0.9;"/><polygon fill="#181818" points="1018.494,732.006,1021.5519,740.3258,1021.628,735.2352,1026.7186,735.3113,1018.494,732.006" style="stroke:#181818;stroke-width:0.9;"/><text fill="#000000" font-family="sans-serif" font-size="11.7" lengthAdjust="spacing" textLength="6.3" x="1025.4312" y="735.1873">1</text><text fill="#000000" font-family="sans-serif" font-size="11.7" lengthAdjust="spacing" textLength="6.3" x="1061.5245" y="779.2218">1</text></g><!--link JobOpening to Description--><g id="link_JobOpening_Description"><path codeLine="100" d="M1142.415,851.517 C1167.426,870.921 1195.1004,892.3879 1218.0234,910.1719 " fill="none" id="JobOpening-to-Description" style="stroke:#181818;stroke-width:0.9;"/><polygon fill="#181818" points="1222.29,913.482,1218.0969,905.6725,1218.7345,910.7236,1213.6835,911.3613,1222.29,913.482" style="stroke:#181818;stroke-width:0.9;"/><text fill="#000000" font-family="sans-serif" font-size="11.7" lengthAdjust="spacing" textLength="6.3" x="1142.2793" y="870.872">1</text><text fill="#000000" font-family="sans-serif" font-size="11.7" lengthAdjust="spacing" textLength="6.3" x="1208.0048" y="903.2027">1</text></g><!--link JobOpening to VacanciesNumber--><g id="link_JobOpening_VacanciesNumber"><path codeLine="101" d="M1103.4,851.517 C1103.4,870.849 1103.4,890.127 1103.4,907.902 " fill="none" id="JobOpening-to-VacanciesNumber" style="stroke:#181818;stroke-width:0.9;"/><polygon fill="#181818" points="1103.4,913.302,1107,905.202,1103.4,908.802,1099.8,905.202,1103.4,913.302" style="stroke:#181818;stroke-width:0.9;"/><text fill="#000000" font-family="sans-serif" font-size="11.7" lengthAdjust="spacing" textLength="6.3" x="1096.5586" y="870.872">1</text><text fill="#000000" font-family="sans-serif" font-size="11.7" lengthAdjust="spacing" textLength="6.3" x="1096.3716" y="903.3711">1</text></g><!--link Candidate to CandidateId--><g id="link_Candidate_CandidateId"><path codeLine="103" d="M1307.844,356.517 C1306.926,373.32 1306.0771,388.763 1305.1591,405.593 " fill="none" id="Candidate-to-CandidateId" style="stroke:#181818;stroke-width:0.9;"/><polygon fill="#181818" points="1304.865,410.985,1308.9008,403.0931,1305.1101,406.4917,1301.7115,402.701,1304.865,410.985" style="stroke:#181818;stroke-width:0.9;"/><text fill="#000000" font-family="sans-serif" font-size="11.7" lengthAdjust="spacing" textLength="6.3" x="1300.718" y="375.872">1</text><text fill="#000000" font-family="sans-serif" font-size="11.7" lengthAdjust="spacing" textLength="6.3" x="1298.2912" y="401.1792">1</text></g><!--link Candidate to CurriculumVitae--><g id="link_Candidate_CurriculumVitae"><path codeLine="104" d="M1345.203,356.517 C1368.009,375.849 1393.0055,397.0345 1413.9665,414.8095 " fill="none" id="Candidate-to-CurriculumVitae" style="stroke:#181818;stroke-width:0.9;"/><polygon fill="#181818" points="1418.085,418.302,1414.2356,410.3175,1414.6529,415.3916,1409.5789,415.8089,1418.085,418.302" style="stroke:#181818;stroke-width:0.9;"/><text fill="#000000" font-family="sans-serif" font-size="11.7" lengthAdjust="spacing" textLength="6.3" x="1344.498" y="375.872">1</text><text fill="#000000" font-family="sans-serif" font-size="11.7" lengthAdjust="spacing" textLength="6.3" x="1404.74" y="408.3711">1</text></g><!--link Application to ApplicationId--><g id="link_Application_ApplicationId"><path codeLine="107" d="M731.673,337.095 C662.166,350.919 542.259,377.19 442.8,411.3 C437.454,413.136 436.9573,413.19 431.5123,415.404 " fill="none" id="Application-to-ApplicationId" style="stroke:#181818;stroke-width:0.9;"/><polygon fill="#181818" points="426.51,417.438,435.3694,417.7219,430.6786,415.743,432.6574,411.0522,426.51,417.438" style="stroke:#181818;stroke-width:0.9;"/><text fill="#000000" font-family="sans-serif" font-size="11.7" lengthAdjust="spacing" textLength="6.3" x="718.3457" y="334.9329">1</text><text fill="#000000" font-family="sans-serif" font-size="11.7" lengthAdjust="spacing" textLength="6.3" x="433.4749" y="410.6346">1</text></g><!--link Application to AttachedEmail--><g id="link_Application_AttachedEmail"><path codeLine="108" d="M731.313,350.136 C690.183,367.11 633.717,390.501 584.1,411.3 C578.655,413.577 577.9614,413.8744 572.3004,416.2594 " fill="none" id="Application-to-AttachedEmail" style="stroke:#181818;stroke-width:0.9;"/><polygon fill="#181818" points="567.324,418.356,576.1863,418.5287,571.471,416.6089,573.3909,411.8936,567.324,418.356" style="stroke:#181818;stroke-width:0.9;"/><text fill="#000000" font-family="sans-serif" font-size="11.7" lengthAdjust="spacing" textLength="6.3" x="718.3261" y="366.346">1</text><text fill="#000000" font-family="sans-serif" font-size="11.7" lengthAdjust="spacing" textLength="6.3" x="572.858" y="408.4376">1</text></g><!--link Application to AttachedFile--><g id="link_Application_AttachedFile"><path codeLine="109" d="M752.886,356.517 C729.621,375.849 704.082,397.0743 682.707,414.8493 " fill="none" id="Application-to-AttachedFile" style="stroke:#181818;stroke-width:0.9;"/><polygon fill="#181818" points="678.555,418.302,687.0848,415.8909,682.015,415.4248,682.4812,410.355,678.555,418.302" style="stroke:#181818;stroke-width:0.9;"/><text fill="#000000" font-family="sans-serif" font-size="11.7" lengthAdjust="spacing" textLength="6.3" x="739.7859" y="375.872">1</text><text fill="#000000" font-family="sans-serif" font-size="11.7" lengthAdjust="spacing" textLength="6.3" x="677.968" y="408.3711">1</text></g><!--link Application to ApplicatorData--><g id="link_Application_ApplicatorData"><path codeLine="110" d="M789.3,356.517 C789.3,375.849 789.3,395.127 789.3,412.902 " fill="none" id="Application-to-ApplicatorData" style="stroke:#181818;stroke-width:0.9;"/><polygon fill="#181818" points="789.3,418.302,792.9,410.202,789.3,413.802,785.7,410.202,789.3,418.302" style="stroke:#181818;stroke-width:0.9;"/><text fill="#000000" font-family="sans-serif" font-size="11.7" lengthAdjust="spacing" textLength="6.3" x="782.4586" y="375.872">1</text><text fill="#000000" font-family="sans-serif" font-size="11.7" lengthAdjust="spacing" textLength="6.3" x="782.2716" y="408.3711">1</text></g><!--link Application to JobOpening--><g id="link_Application_JobOpening"><path codeLine="111" d="M846.99,330.192 C960.993,339.579 1204.2,368.19 1204.2,441.45 C1204.2,441.45 1204.2,441.45 1204.2,679.5 C1204.2,723.663 1174.7371,759.7694 1146.3691,785.5094 " fill="none" id="Application-to-JobOpening" style="stroke:#181818;stroke-width:0.9;"/><polygon fill="#181818" points="1142.37,789.138,1150.7878,786.3611,1145.7026,786.1141,1145.9496,781.029,1142.37,789.138" style="stroke:#181818;stroke-width:0.9;"/><text fill="#000000" font-family="sans-serif" font-size="11.7" lengthAdjust="spacing" textLength="67.5" x="1205.1" y="543.6255">submitted for</text><text fill="#000000" font-family="sans-serif" font-size="11.7" lengthAdjust="spacing" textLength="4.5" x="853.9206" y="344.3008">*</text><text fill="#000000" font-family="sans-serif" font-size="11.7" lengthAdjust="spacing" textLength="6.3" x="1142.8982" y="779.1196">1</text></g><!--link Application to Candidate--><g id="link_Application_Candidate"><path codeLine="112" d="M846.954,325.35 C946.953,325.35 1146.015,325.35 1246.185,325.35 " fill="none" id="Application-to-Candidate" style="stroke:#181818;stroke-width:0.9;"/><polygon fill="#181818" points="1251.585,325.35,1243.485,321.75,1247.085,325.35,1243.485,328.95,1251.585,325.35" style="stroke:#181818;stroke-width:0.9;"/><text fill="#000000" font-family="sans-serif" font-size="11.7" lengthAdjust="spacing" textLength="67.5" x="1015.65" y="319.0755">submitted by</text><text fill="#000000" font-family="sans-serif" font-size="11.7" lengthAdjust="spacing" textLength="6.3" x="853.9845" y="321.8299">1</text><text fill="#000000" font-family="sans-serif" font-size="11.7" lengthAdjust="spacing" textLength="6.3" x="1238.2244" y="321.8299">1</text></g><!--link Application to ApplicationStatus--><g id="link_Application_ApplicationStatus"><path codeLine="113" d="M829.026,356.517 C854.487,375.921 882.718,397.425 906.055,415.209 " fill="none" id="Application-to-ApplicationStatus" style="stroke:#181818;stroke-width:0.9;"/><polygon fill="#181818" points="910.35,418.482,906.0895,410.7091,906.7708,415.7545,901.7254,416.4358,910.35,418.482" style="stroke:#181818;stroke-width:0.9;"/><text fill="#000000" font-family="sans-serif" font-size="11.7" lengthAdjust="spacing" textLength="6.3" x="829.0125" y="375.872">1</text><text fill="#000000" font-family="sans-serif" font-size="11.7" lengthAdjust="spacing" textLength="6.3" x="895.9331" y="408.2027">1</text></g><!--link Application to ApplicationRank--><g id="link_Application_ApplicationRank"><path codeLine="114" d="M846.954,347.139 C893.637,364.14 961.038,388.917 1019.7,411.3 C1025.703,413.586 1026.9264,414.0466 1033.1634,416.4766 " fill="none" id="Application-to-ApplicationRank" style="stroke:#181818;stroke-width:0.9;"/><polygon fill="#181818" points="1038.195,418.437,1031.9545,412.1421,1034.002,416.8034,1029.3407,418.8509,1038.195,418.437" style="stroke:#181818;stroke-width:0.9;"/><text fill="#000000" font-family="sans-serif" font-size="11.7" lengthAdjust="spacing" textLength="6.3" x="853.9845" y="363.2073">1</text><text fill="#000000" font-family="sans-serif" font-size="11.7" lengthAdjust="spacing" textLength="19.8" x="1008.8459" y="411.3688">0..1</text></g><!--reverse link JobOpeningProcessId to JobOpeningProcess--><g id="link_JobOpeningProcessId_JobOpeningProcess"><path codeLine="117" d="M1252.944,1204.65 C1263.438,1204.65 1268.532,1204.65 1279.035,1204.65 " fill="none" id="JobOpeningProcessId-backto-JobOpeningProcess" style="stroke:#181818;stroke-width:0.9;"/><polygon fill="#181818" points="1247.544,1204.65,1255.644,1208.25,1252.044,1204.65,1255.644,1201.05,1247.544,1204.65" style="stroke:#181818;stroke-width:0.9;"/><text fill="#000000" font-family="sans-serif" font-size="11.7" lengthAdjust="spacing" textLength="6.3" x="1254.6507" y="1201.3241">1</text><text fill="#000000" font-family="sans-serif" font-size="11.7" lengthAdjust="spacing" textLength="6.3" x="1265.8196" y="1201.3013">1</text></g><!--link JobOpening to JobOpeningProcess--><g id="link_JobOpening_JobOpeningProcess"><path codeLine="118" d="M1161.117,823.554 C1234.251,829.935 1350.9,853.155 1350.9,936.45 C1350.9,936.45 1350.9,936.45 1350.9,1098 C1350.9,1123.425 1350.9,1146.897 1350.9,1168.038 " fill="none" id="JobOpening-to-JobOpeningProcess" style="stroke:#181818;stroke-width:0.9;"/><polygon fill="#181818" points="1350.9,1173.438,1354.5,1165.338,1350.9,1168.938,1347.3,1165.338,1350.9,1173.438" style="stroke:#181818;stroke-width:0.9;"/><text fill="#000000" font-family="sans-serif" font-size="11.7" lengthAdjust="spacing" textLength="18.9" x="1351.8" y="1038.6255">has</text><text fill="#000000" font-family="sans-serif" font-size="11.7" lengthAdjust="spacing" textLength="6.3" x="1168.1547" y="820.4043">1</text><text fill="#000000" font-family="sans-serif" font-size="11.7" lengthAdjust="spacing" textLength="4.5" x="1345.9711" y="1163.4196">*</text></g><!--link JobOpeningProcess to Phase--><g id="link_JobOpeningProcess_Phase"><path codeLine="119" d="M1350.9,1235.925 C1350.9,1253.268 1350.9,1269.261 1350.9,1285.191 " fill="none" id="JobOpeningProcess-to-Phase" style="stroke:#181818;stroke-width:0.9;"/><polygon fill="#181818" points="1350.9,1290.591,1354.5,1282.491,1350.9,1286.091,1347.3,1282.491,1350.9,1290.591" style="stroke:#181818;stroke-width:0.9;"/><text fill="#000000" font-family="sans-serif" font-size="11.7" lengthAdjust="spacing" textLength="6.3" x="1344.0783" y="1255.0532">1</text><text fill="#000000" font-family="sans-serif" font-size="11.7" lengthAdjust="spacing" textLength="6.3" x="1343.8322" y="1280.3139">1</text></g><!--link Phase to PhaseType--><g id="link_Phase_PhaseType"><path codeLine="120" d="M1350.9,1338.435 C1350.9,1353.213 1350.9,1367.865 1350.9,1387.665 " fill="none" id="Phase-to-PhaseType" style="stroke:#181818;stroke-width:0.9;"/><polygon fill="#181818" points="1350.9,1393.065,1354.5,1384.965,1350.9,1388.565,1347.3,1384.965,1350.9,1393.065" style="stroke:#181818;stroke-width:0.9;"/><text fill="#000000" font-family="sans-serif" font-size="11.7" lengthAdjust="spacing" textLength="6.3" x="1343.9503" y="1357.651">1</text><text fill="#000000" font-family="sans-serif" font-size="11.7" lengthAdjust="spacing" textLength="6.3" x="1344.3096" y="1382.979">1</text></g><!--SRC=[bPLTRvim58Rl_IkixA9IfQJRROKYiOHkJ2c9W6RgrMJCAV76bupPL5NzxxE149D0e5n4mJpliS-7pxav294NztTtUKnIKIRnWcR97Or9KSn3HY9E4eGEB0ISW3XaOO4G1of86iM0Pp-o06zpI5aQpV2d8A2K4Fo649PFPGDBeW4CmumY3X4HWDqi4ykbOLYfOE9rkNnxFzEuy08SKWg6OOVGK8Qn9t49U1lybaSuL_bCnB3b3sLA1SlI8HZICi6hB1MSKE6_vg1EKIR0vRd2dZqgaNeUdZQRNxxzQBKhEzFrJokw_SSid6pNjHwt_iderfbxjlR-_VchQw_RLxcBvlEUK99I1eLJ9W7mwm5QGq4vouU2eoptfnQRUHupIfHIffaGIeEWcsQDc9vdJMI7qnDj2a7e0K8h8IoUXZwm64R8vYmPNnD1fh7ot9uWeYmcuov9_up7NkOqPA6AduorkbHlchNLyUD8d7iKeq7MD2NdZ9PncUoP87snKqSUgfSTpoWKXQmLLIdTyvyQGaDDzkD2EUhFpHNnOEP6H15S3TpkG0hG7D0kRjiTAkOZhSVSxJRsolJjhTEkUIlNiXpR-TQks8vlkNlR-kcTX8wvUVPiJsistjF6R_hL-s02xLG0_ylWNvF2ggjtuj8I-2FvQrKVACLMiwwAVWhfi-GwwT6CJxJbGb76Ok02T08n-pB3ypAVBwj_NM-laHq7Uy1pJ7dNWzLKvTa48xLR26dDwOe3wguZVInNXA7W8zkK3ZeRmyEWFeCRwe9HStJecpREXZSv6v3386gxfFfo39VMEWU0Rfz4FG5joCwm6wRqsJPAgR4skc4zqRhOhSBcyrEcZnV_7XTba30X6n9-oVYbyREuT0J1wnJlwyRRJtvUBBgm6fXrwNKRSIs9uKLS-D0E1qtLx51xVDj3IpzaKnxQfzcZwjke-hrSLsMC_WC0]--></g></svg>