<?xml version="1.0" encoding="us-ascii" standalone="no"?><svg xmlns="http://www.w3.org/2000/svg" xmlns:xlink="http://www.w3.org/1999/xlink" contentStyleType="text/css" height="892px" preserveAspectRatio="none" style="width:1949px;height:892px;background:#FFFFFF;" version="1.1" viewBox="0 0 1949 892" width="1949px" zoomAndPan="magnify"><defs/><g><!--cluster PlugIn--><g id="cluster_PlugIn"><rect fill="#BABABA" height="370" rx="2.5" ry="2.5" style="stroke:#181818;stroke-width:1.0;" width="472" x="678" y="516"/><text fill="#000000" font-family="sans-serif" font-size="14" font-weight="bold" lengthAdjust="spacing" textLength="44" x="892" y="533.1074">PlugIn</text></g><!--cluster Job Opening Application--><g id="cluster_Job Opening Application"><rect fill="#AACCBB" height="320.5" rx="2.5" ry="2.5" style="stroke:#181818;stroke-width:1.0;" width="788" x="678" y="7"/><text fill="#000000" font-family="sans-serif" font-size="14" font-weight="bold" lengthAdjust="spacing" textLength="172" x="986" y="24.1074">Job Opening Application</text></g><!--cluster Job Opening--><g id="cluster_Job Opening"><rect fill="#BBCCAA" height="460" rx="2.5" ry="2.5" style="stroke:#181818;stroke-width:1.0;" width="647" x="7" y="178"/><text fill="#000000" font-family="sans-serif" font-size="14" font-weight="bold" lengthAdjust="spacing" textLength="90" x="285.5" y="195.1074">Job Opening</text></g><!--cluster candidate--><g id="cluster_candidate"><rect fill="#AABBCC" height="271.5" rx="2.5" ry="2.5" style="stroke:#181818;stroke-width:1.0;" width="327" x="1616" y="205.5"/><text fill="#000000" font-family="sans-serif" font-size="14" font-weight="bold" lengthAdjust="spacing" textLength="69" x="1745" y="222.6074">candidate</text></g><!--class Plugin--><g id="elem_Plugin"><rect codeLine="6" fill="#F1F1F1" height="68.543" id="Plugin" rx="2.5" ry="2.5" style="stroke:#181818;stroke-width:0.5;" width="128" x="772" y="553"/><ellipse cx="787" cy="583.2715" fill="#ADD1B2" rx="11" ry="11" style="stroke:#181818;stroke-width:1.0;"/><path d="M789.7656,579.1465 Q789.9219,578.9277 790.1094,578.8184 Q790.2969,578.709 790.5156,578.709 Q790.8906,578.709 791.125,578.9746 Q791.3594,579.2246 791.3594,579.834 L791.3594,581.2871 Q791.3594,581.8965 791.125,582.1621 Q790.8906,582.4277 790.5156,582.4277 Q790.1719,582.4277 789.9688,582.2246 Q789.7656,582.0371 789.6563,581.5215 Q789.6094,581.1621 789.4219,580.9746 Q789.0938,580.5996 788.4844,580.3809 Q787.875,580.1621 787.25,580.1621 Q786.4844,580.1621 785.8438,580.4902 Q785.2188,580.8184 784.7188,581.5684 Q784.2344,582.3184 784.2344,583.3496 L784.2344,584.4434 Q784.2344,585.6777 785.125,586.5059 Q786.0156,587.3184 787.6094,587.3184 Q788.5469,587.3184 789.2031,587.0684 Q789.5938,586.9121 790.0156,586.4746 Q790.2813,586.209 790.4219,586.1309 Q790.5781,586.0527 790.7813,586.0527 Q791.1094,586.0527 791.3594,586.3184 Q791.625,586.5684 791.625,586.9121 Q791.625,587.2559 791.2813,587.6621 Q790.7813,588.2402 789.9844,588.5684 Q788.9063,589.0215 787.6094,589.0215 Q786.0938,589.0215 784.8906,588.3965 Q783.9063,587.8965 783.2188,586.834 Q782.5313,585.7559 782.5313,584.4746 L782.5313,583.3184 Q782.5313,581.9902 783.1406,580.8496 Q783.7656,579.6934 784.8594,579.084 Q785.9531,578.459 787.1875,578.459 Q787.9219,578.459 788.5625,578.6309 Q789.2188,578.7871 789.7656,579.1465 Z " fill="#000000"/><text fill="#000000" font-family="sans-serif" font-size="12" font-style="italic" lengthAdjust="spacing" textLength="100" x="799" y="570.9492">&#171;Aggregate Root&#187;</text><text fill="#000000" font-family="sans-serif" font-size="12" font-style="italic" lengthAdjust="spacing" textLength="44" x="827" y="586.9102">&#171;Entity&#187;</text><text fill="#000000" font-family="sans-serif" font-size="14" lengthAdjust="spacing" textLength="39" x="829.5" y="605.0293">Plugin</text><line style="stroke:#181818;stroke-width:0.5;" x1="773" x2="899" y1="613.543" y2="613.543"/></g><!--class PluginType--><g id="elem_PluginType"><rect codeLine="7" fill="#F1F1F1" height="52.582" id="PluginType" rx="2.5" ry="2.5" style="stroke:#181818;stroke-width:0.5;" width="113" x="694.5" y="685"/><ellipse cx="709.5" cy="707.291" fill="#ADD1B2" rx="11" ry="11" style="stroke:#181818;stroke-width:1.0;"/><path d="M712.2656,703.166 Q712.4219,702.9473 712.6094,702.8379 Q712.7969,702.7285 713.0156,702.7285 Q713.3906,702.7285 713.625,702.9941 Q713.8594,703.2441 713.8594,703.8535 L713.8594,705.3066 Q713.8594,705.916 713.625,706.1816 Q713.3906,706.4473 713.0156,706.4473 Q712.6719,706.4473 712.4688,706.2441 Q712.2656,706.0566 712.1563,705.541 Q712.1094,705.1816 711.9219,704.9941 Q711.5938,704.6191 710.9844,704.4004 Q710.375,704.1816 709.75,704.1816 Q708.9844,704.1816 708.3438,704.5098 Q707.7188,704.8379 707.2188,705.5879 Q706.7344,706.3379 706.7344,707.3691 L706.7344,708.4629 Q706.7344,709.6973 707.625,710.5254 Q708.5156,711.3379 710.1094,711.3379 Q711.0469,711.3379 711.7031,711.0879 Q712.0938,710.9316 712.5156,710.4941 Q712.7813,710.2285 712.9219,710.1504 Q713.0781,710.0723 713.2813,710.0723 Q713.6094,710.0723 713.8594,710.3379 Q714.125,710.5879 714.125,710.9316 Q714.125,711.2754 713.7813,711.6816 Q713.2813,712.2598 712.4844,712.5879 Q711.4063,713.041 710.1094,713.041 Q708.5938,713.041 707.3906,712.416 Q706.4063,711.916 705.7188,710.8535 Q705.0313,709.7754 705.0313,708.4941 L705.0313,707.3379 Q705.0313,706.0098 705.6406,704.8691 Q706.2656,703.7129 707.3594,703.1035 Q708.4531,702.4785 709.6875,702.4785 Q710.4219,702.4785 711.0625,702.6504 Q711.7188,702.8066 712.2656,703.166 Z " fill="#000000"/><text fill="#000000" font-family="sans-serif" font-size="12" font-style="italic" lengthAdjust="spacing" textLength="85" x="721.5" y="702.9492">&#171;Value Object&#187;</text><text fill="#000000" font-family="sans-serif" font-size="14" lengthAdjust="spacing" textLength="71" x="728.5" y="721.0684">PluginType</text><line style="stroke:#181818;stroke-width:0.5;" x1="695.5" x2="806.5" y1="729.582" y2="729.582"/></g><!--class PluginId--><g id="elem_PluginId"><rect codeLine="8" fill="#F1F1F1" height="68.543" id="PluginId" rx="2.5" ry="2.5" style="stroke:#181818;stroke-width:0.5;" width="113" x="935.5" y="553"/><ellipse cx="950.5" cy="583.2715" fill="#ADD1B2" rx="11" ry="11" style="stroke:#181818;stroke-width:1.0;"/><path d="M953.2656,579.1465 Q953.4219,578.9277 953.6094,578.8184 Q953.7969,578.709 954.0156,578.709 Q954.3906,578.709 954.625,578.9746 Q954.8594,579.2246 954.8594,579.834 L954.8594,581.2871 Q954.8594,581.8965 954.625,582.1621 Q954.3906,582.4277 954.0156,582.4277 Q953.6719,582.4277 953.4688,582.2246 Q953.2656,582.0371 953.1563,581.5215 Q953.1094,581.1621 952.9219,580.9746 Q952.5938,580.5996 951.9844,580.3809 Q951.375,580.1621 950.75,580.1621 Q949.9844,580.1621 949.3438,580.4902 Q948.7188,580.8184 948.2188,581.5684 Q947.7344,582.3184 947.7344,583.3496 L947.7344,584.4434 Q947.7344,585.6777 948.625,586.5059 Q949.5156,587.3184 951.1094,587.3184 Q952.0469,587.3184 952.7031,587.0684 Q953.0938,586.9121 953.5156,586.4746 Q953.7813,586.209 953.9219,586.1309 Q954.0781,586.0527 954.2813,586.0527 Q954.6094,586.0527 954.8594,586.3184 Q955.125,586.5684 955.125,586.9121 Q955.125,587.2559 954.7813,587.6621 Q954.2813,588.2402 953.4844,588.5684 Q952.4063,589.0215 951.1094,589.0215 Q949.5938,589.0215 948.3906,588.3965 Q947.4063,587.8965 946.7188,586.834 Q946.0313,585.7559 946.0313,584.4746 L946.0313,583.3184 Q946.0313,581.9902 946.6406,580.8496 Q947.2656,579.6934 948.3594,579.084 Q949.4531,578.459 950.6875,578.459 Q951.4219,578.459 952.0625,578.6309 Q952.7188,578.7871 953.2656,579.1465 Z " fill="#000000"/><text fill="#000000" font-family="sans-serif" font-size="12" font-style="italic" lengthAdjust="spacing" textLength="54" x="978" y="570.9492">&#171;Identity&#187;</text><text fill="#000000" font-family="sans-serif" font-size="12" font-style="italic" lengthAdjust="spacing" textLength="85" x="962.5" y="586.9102">&#171;Value Object&#187;</text><text fill="#000000" font-family="sans-serif" font-size="14" lengthAdjust="spacing" textLength="50" x="980" y="605.0293">PluginId</text><line style="stroke:#181818;stroke-width:0.5;" x1="936.5" x2="1047.5" y1="613.543" y2="613.543"/></g><!--class PluginDescription--><g id="elem_PluginDescription"><rect codeLine="9" fill="#F1F1F1" height="52.582" id="PluginDescription" rx="2.5" ry="2.5" style="stroke:#181818;stroke-width:0.5;" width="142" x="843" y="685"/><ellipse cx="858" cy="707.291" fill="#ADD1B2" rx="11" ry="11" style="stroke:#181818;stroke-width:1.0;"/><path d="M860.7656,703.166 Q860.9219,702.9473 861.1094,702.8379 Q861.2969,702.7285 861.5156,702.7285 Q861.8906,702.7285 862.125,702.9941 Q862.3594,703.2441 862.3594,703.8535 L862.3594,705.3066 Q862.3594,705.916 862.125,706.1816 Q861.8906,706.4473 861.5156,706.4473 Q861.1719,706.4473 860.9688,706.2441 Q860.7656,706.0566 860.6563,705.541 Q860.6094,705.1816 860.4219,704.9941 Q860.0938,704.6191 859.4844,704.4004 Q858.875,704.1816 858.25,704.1816 Q857.4844,704.1816 856.8438,704.5098 Q856.2188,704.8379 855.7188,705.5879 Q855.2344,706.3379 855.2344,707.3691 L855.2344,708.4629 Q855.2344,709.6973 856.125,710.5254 Q857.0156,711.3379 858.6094,711.3379 Q859.5469,711.3379 860.2031,711.0879 Q860.5938,710.9316 861.0156,710.4941 Q861.2813,710.2285 861.4219,710.1504 Q861.5781,710.0723 861.7813,710.0723 Q862.1094,710.0723 862.3594,710.3379 Q862.625,710.5879 862.625,710.9316 Q862.625,711.2754 862.2813,711.6816 Q861.7813,712.2598 860.9844,712.5879 Q859.9063,713.041 858.6094,713.041 Q857.0938,713.041 855.8906,712.416 Q854.9063,711.916 854.2188,710.8535 Q853.5313,709.7754 853.5313,708.4941 L853.5313,707.3379 Q853.5313,706.0098 854.1406,704.8691 Q854.7656,703.7129 855.8594,703.1035 Q856.9531,702.4785 858.1875,702.4785 Q858.9219,702.4785 859.5625,702.6504 Q860.2188,702.8066 860.7656,703.166 Z " fill="#000000"/><text fill="#000000" font-family="sans-serif" font-size="12" font-style="italic" lengthAdjust="spacing" textLength="85" x="884.5" y="702.9492">&#171;Value Object&#187;</text><text fill="#000000" font-family="sans-serif" font-size="14" lengthAdjust="spacing" textLength="110" x="872" y="721.0684">PluginDescription</text><line style="stroke:#181818;stroke-width:0.5;" x1="844" x2="984" y1="729.582" y2="729.582"/></g><!--class JarFile--><g id="elem_JarFile"><rect codeLine="10" fill="#F1F1F1" height="52.582" id="JarFile" rx="2.5" ry="2.5" style="stroke:#181818;stroke-width:0.5;" width="113" x="1020.5" y="685"/><ellipse cx="1035.5" cy="707.291" fill="#ADD1B2" rx="11" ry="11" style="stroke:#181818;stroke-width:1.0;"/><path d="M1038.2656,703.166 Q1038.4219,702.9473 1038.6094,702.8379 Q1038.7969,702.7285 1039.0156,702.7285 Q1039.3906,702.7285 1039.625,702.9941 Q1039.8594,703.2441 1039.8594,703.8535 L1039.8594,705.3066 Q1039.8594,705.916 1039.625,706.1816 Q1039.3906,706.4473 1039.0156,706.4473 Q1038.6719,706.4473 1038.4688,706.2441 Q1038.2656,706.0566 1038.1563,705.541 Q1038.1094,705.1816 1037.9219,704.9941 Q1037.5938,704.6191 1036.9844,704.4004 Q1036.375,704.1816 1035.75,704.1816 Q1034.9844,704.1816 1034.3438,704.5098 Q1033.7188,704.8379 1033.2188,705.5879 Q1032.7344,706.3379 1032.7344,707.3691 L1032.7344,708.4629 Q1032.7344,709.6973 1033.625,710.5254 Q1034.5156,711.3379 1036.1094,711.3379 Q1037.0469,711.3379 1037.7031,711.0879 Q1038.0938,710.9316 1038.5156,710.4941 Q1038.7813,710.2285 1038.9219,710.1504 Q1039.0781,710.0723 1039.2813,710.0723 Q1039.6094,710.0723 1039.8594,710.3379 Q1040.125,710.5879 1040.125,710.9316 Q1040.125,711.2754 1039.7813,711.6816 Q1039.2813,712.2598 1038.4844,712.5879 Q1037.4063,713.041 1036.1094,713.041 Q1034.5938,713.041 1033.3906,712.416 Q1032.4063,711.916 1031.7188,710.8535 Q1031.0313,709.7754 1031.0313,708.4941 L1031.0313,707.3379 Q1031.0313,706.0098 1031.6406,704.8691 Q1032.2656,703.7129 1033.3594,703.1035 Q1034.4531,702.4785 1035.6875,702.4785 Q1036.4219,702.4785 1037.0625,702.6504 Q1037.7188,702.8066 1038.2656,703.166 Z " fill="#000000"/><text fill="#000000" font-family="sans-serif" font-size="12" font-style="italic" lengthAdjust="spacing" textLength="85" x="1047.5" y="702.9492">&#171;Value Object&#187;</text><text fill="#000000" font-family="sans-serif" font-size="14" lengthAdjust="spacing" textLength="42" x="1069" y="721.0684">JarFile</text><line style="stroke:#181818;stroke-width:0.5;" x1="1021.5" x2="1132.5" y1="729.582" y2="729.582"/></g><!--class Requirement--><g id="elem_Requirement"><rect codeLine="11" fill="#F1F1F1" height="52.582" id="Requirement" rx="2.5" ry="2.5" style="stroke:#181818;stroke-width:0.5;" width="113" x="845.5" y="817"/><ellipse cx="860.5" cy="839.291" fill="#ADD1B2" rx="11" ry="11" style="stroke:#181818;stroke-width:1.0;"/><path d="M863.2656,835.166 Q863.4219,834.9473 863.6094,834.8379 Q863.7969,834.7285 864.0156,834.7285 Q864.3906,834.7285 864.625,834.9941 Q864.8594,835.2441 864.8594,835.8535 L864.8594,837.3066 Q864.8594,837.916 864.625,838.1816 Q864.3906,838.4473 864.0156,838.4473 Q863.6719,838.4473 863.4688,838.2441 Q863.2656,838.0566 863.1563,837.541 Q863.1094,837.1816 862.9219,836.9941 Q862.5938,836.6191 861.9844,836.4004 Q861.375,836.1816 860.75,836.1816 Q859.9844,836.1816 859.3438,836.5098 Q858.7188,836.8379 858.2188,837.5879 Q857.7344,838.3379 857.7344,839.3691 L857.7344,840.4629 Q857.7344,841.6973 858.625,842.5254 Q859.5156,843.3379 861.1094,843.3379 Q862.0469,843.3379 862.7031,843.0879 Q863.0938,842.9316 863.5156,842.4941 Q863.7813,842.2285 863.9219,842.1504 Q864.0781,842.0723 864.2813,842.0723 Q864.6094,842.0723 864.8594,842.3379 Q865.125,842.5879 865.125,842.9316 Q865.125,843.2754 864.7813,843.6816 Q864.2813,844.2598 863.4844,844.5879 Q862.4063,845.041 861.1094,845.041 Q859.5938,845.041 858.3906,844.416 Q857.4063,843.916 856.7188,842.8535 Q856.0313,841.7754 856.0313,840.4941 L856.0313,839.3379 Q856.0313,838.0098 856.6406,836.8691 Q857.2656,835.7129 858.3594,835.1035 Q859.4531,834.4785 860.6875,834.4785 Q861.4219,834.4785 862.0625,834.6504 Q862.7188,834.8066 863.2656,835.166 Z " fill="#000000"/><text fill="#000000" font-family="sans-serif" font-size="12" font-style="italic" lengthAdjust="spacing" textLength="67" x="881.5" y="834.9492">&#171;Resource&#187;</text><text fill="#000000" font-family="sans-serif" font-size="14" lengthAdjust="spacing" textLength="81" x="874.5" y="853.0684">Requirement</text><line style="stroke:#181818;stroke-width:0.5;" x1="846.5" x2="957.5" y1="861.582" y2="861.582"/></g><!--class InterviewModel--><g id="elem_InterviewModel"><rect codeLine="12" fill="#F1F1F1" height="52.582" id="InterviewModel" rx="2.5" ry="2.5" style="stroke:#181818;stroke-width:0.5;" width="125" x="993.5" y="817"/><ellipse cx="1008.5" cy="839.291" fill="#ADD1B2" rx="11" ry="11" style="stroke:#181818;stroke-width:1.0;"/><path d="M1011.2656,835.166 Q1011.4219,834.9473 1011.6094,834.8379 Q1011.7969,834.7285 1012.0156,834.7285 Q1012.3906,834.7285 1012.625,834.9941 Q1012.8594,835.2441 1012.8594,835.8535 L1012.8594,837.3066 Q1012.8594,837.916 1012.625,838.1816 Q1012.3906,838.4473 1012.0156,838.4473 Q1011.6719,838.4473 1011.4688,838.2441 Q1011.2656,838.0566 1011.1563,837.541 Q1011.1094,837.1816 1010.9219,836.9941 Q1010.5938,836.6191 1009.9844,836.4004 Q1009.375,836.1816 1008.75,836.1816 Q1007.9844,836.1816 1007.3438,836.5098 Q1006.7188,836.8379 1006.2188,837.5879 Q1005.7344,838.3379 1005.7344,839.3691 L1005.7344,840.4629 Q1005.7344,841.6973 1006.625,842.5254 Q1007.5156,843.3379 1009.1094,843.3379 Q1010.0469,843.3379 1010.7031,843.0879 Q1011.0938,842.9316 1011.5156,842.4941 Q1011.7813,842.2285 1011.9219,842.1504 Q1012.0781,842.0723 1012.2813,842.0723 Q1012.6094,842.0723 1012.8594,842.3379 Q1013.125,842.5879 1013.125,842.9316 Q1013.125,843.2754 1012.7813,843.6816 Q1012.2813,844.2598 1011.4844,844.5879 Q1010.4063,845.041 1009.1094,845.041 Q1007.5938,845.041 1006.3906,844.416 Q1005.4063,843.916 1004.7188,842.8535 Q1004.0313,841.7754 1004.0313,840.4941 L1004.0313,839.3379 Q1004.0313,838.0098 1004.6406,836.8691 Q1005.2656,835.7129 1006.3594,835.1035 Q1007.4531,834.4785 1008.6875,834.4785 Q1009.4219,834.4785 1010.0625,834.6504 Q1010.7188,834.8066 1011.2656,835.166 Z " fill="#000000"/><text fill="#000000" font-family="sans-serif" font-size="12" font-style="italic" lengthAdjust="spacing" textLength="67" x="1035.5" y="834.9492">&#171;Resource&#187;</text><text fill="#000000" font-family="sans-serif" font-size="14" lengthAdjust="spacing" textLength="93" x="1022.5" y="853.0684">InterviewModel</text><line style="stroke:#181818;stroke-width:0.5;" x1="994.5" x2="1117.5" y1="861.582" y2="861.582"/></g><!--class Application--><g id="elem_Application"><rect codeLine="27" fill="#F1F1F1" height="68.543" id="Application" rx="2.5" ry="2.5" style="stroke:#181818;stroke-width:0.5;" width="128" x="1147" y="44"/><ellipse cx="1162" cy="74.2715" fill="#ADD1B2" rx="11" ry="11" style="stroke:#181818;stroke-width:1.0;"/><path d="M1164.7656,70.1465 Q1164.9219,69.9277 1165.1094,69.8184 Q1165.2969,69.709 1165.5156,69.709 Q1165.8906,69.709 1166.125,69.9746 Q1166.3594,70.2246 1166.3594,70.834 L1166.3594,72.2871 Q1166.3594,72.8965 1166.125,73.1621 Q1165.8906,73.4277 1165.5156,73.4277 Q1165.1719,73.4277 1164.9688,73.2246 Q1164.7656,73.0371 1164.6563,72.5215 Q1164.6094,72.1621 1164.4219,71.9746 Q1164.0938,71.5996 1163.4844,71.3809 Q1162.875,71.1621 1162.25,71.1621 Q1161.4844,71.1621 1160.8438,71.4902 Q1160.2188,71.8184 1159.7188,72.5684 Q1159.2344,73.3184 1159.2344,74.3496 L1159.2344,75.4434 Q1159.2344,76.6777 1160.125,77.5059 Q1161.0156,78.3184 1162.6094,78.3184 Q1163.5469,78.3184 1164.2031,78.0684 Q1164.5938,77.9121 1165.0156,77.4746 Q1165.2813,77.209 1165.4219,77.1309 Q1165.5781,77.0527 1165.7813,77.0527 Q1166.1094,77.0527 1166.3594,77.3184 Q1166.625,77.5684 1166.625,77.9121 Q1166.625,78.2559 1166.2813,78.6621 Q1165.7813,79.2402 1164.9844,79.5684 Q1163.9063,80.0215 1162.6094,80.0215 Q1161.0938,80.0215 1159.8906,79.3965 Q1158.9063,78.8965 1158.2188,77.834 Q1157.5313,76.7559 1157.5313,75.4746 L1157.5313,74.3184 Q1157.5313,72.9902 1158.1406,71.8496 Q1158.7656,70.6934 1159.8594,70.084 Q1160.9531,69.459 1162.1875,69.459 Q1162.9219,69.459 1163.5625,69.6309 Q1164.2188,69.7871 1164.7656,70.1465 Z " fill="#000000"/><text fill="#000000" font-family="sans-serif" font-size="12" font-style="italic" lengthAdjust="spacing" textLength="100" x="1174" y="61.9492">&#171;Aggregate Root&#187;</text><text fill="#000000" font-family="sans-serif" font-size="12" font-style="italic" lengthAdjust="spacing" textLength="44" x="1202" y="77.9102">&#171;Entity&#187;</text><text fill="#000000" font-family="sans-serif" font-size="14" lengthAdjust="spacing" textLength="69" x="1189.5" y="96.0293">Application</text><line style="stroke:#181818;stroke-width:0.5;" x1="1148" x2="1274" y1="104.543" y2="104.543"/></g><!--class ApplicationId--><g id="elem_ApplicationId"><rect codeLine="29" fill="#F1F1F1" height="68.543" id="ApplicationId" rx="2.5" ry="2.5" style="stroke:#181818;stroke-width:0.5;" width="113" x="694.5" y="242.5"/><ellipse cx="709.5" cy="272.7715" fill="#ADD1B2" rx="11" ry="11" style="stroke:#181818;stroke-width:1.0;"/><path d="M712.2656,268.6465 Q712.4219,268.4277 712.6094,268.3184 Q712.7969,268.209 713.0156,268.209 Q713.3906,268.209 713.625,268.4746 Q713.8594,268.7246 713.8594,269.334 L713.8594,270.7871 Q713.8594,271.3965 713.625,271.6621 Q713.3906,271.9277 713.0156,271.9277 Q712.6719,271.9277 712.4688,271.7246 Q712.2656,271.5371 712.1563,271.0215 Q712.1094,270.6621 711.9219,270.4746 Q711.5938,270.0996 710.9844,269.8809 Q710.375,269.6621 709.75,269.6621 Q708.9844,269.6621 708.3438,269.9902 Q707.7188,270.3184 707.2188,271.0684 Q706.7344,271.8184 706.7344,272.8496 L706.7344,273.9434 Q706.7344,275.1777 707.625,276.0059 Q708.5156,276.8184 710.1094,276.8184 Q711.0469,276.8184 711.7031,276.5684 Q712.0938,276.4121 712.5156,275.9746 Q712.7813,275.709 712.9219,275.6309 Q713.0781,275.5527 713.2813,275.5527 Q713.6094,275.5527 713.8594,275.8184 Q714.125,276.0684 714.125,276.4121 Q714.125,276.7559 713.7813,277.1621 Q713.2813,277.7402 712.4844,278.0684 Q711.4063,278.5215 710.1094,278.5215 Q708.5938,278.5215 707.3906,277.8965 Q706.4063,277.3965 705.7188,276.334 Q705.0313,275.2559 705.0313,273.9746 L705.0313,272.8184 Q705.0313,271.4902 705.6406,270.3496 Q706.2656,269.1934 707.3594,268.584 Q708.4531,267.959 709.6875,267.959 Q710.4219,267.959 711.0625,268.1309 Q711.7188,268.2871 712.2656,268.6465 Z " fill="#000000"/><text fill="#000000" font-family="sans-serif" font-size="12" font-style="italic" lengthAdjust="spacing" textLength="54" x="737" y="260.4492">&#171;Identity&#187;</text><text fill="#000000" font-family="sans-serif" font-size="12" font-style="italic" lengthAdjust="spacing" textLength="85" x="721.5" y="276.4102">&#171;Value Object&#187;</text><text fill="#000000" font-family="sans-serif" font-size="14" lengthAdjust="spacing" textLength="80" x="724" y="294.5293">ApplicationId</text><line style="stroke:#181818;stroke-width:0.5;" x1="695.5" x2="806.5" y1="303.043" y2="303.043"/></g><!--class AttachedEmail--><g id="elem_AttachedEmail"><rect codeLine="31" fill="#F1F1F1" height="52.582" id="AttachedEmail" rx="2.5" ry="2.5" style="stroke:#181818;stroke-width:0.5;" width="122" x="843" y="250.5"/><ellipse cx="858" cy="272.791" fill="#ADD1B2" rx="11" ry="11" style="stroke:#181818;stroke-width:1.0;"/><path d="M860.7656,268.666 Q860.9219,268.4473 861.1094,268.3379 Q861.2969,268.2285 861.5156,268.2285 Q861.8906,268.2285 862.125,268.4941 Q862.3594,268.7441 862.3594,269.3535 L862.3594,270.8066 Q862.3594,271.416 862.125,271.6816 Q861.8906,271.9473 861.5156,271.9473 Q861.1719,271.9473 860.9688,271.7441 Q860.7656,271.5566 860.6563,271.041 Q860.6094,270.6816 860.4219,270.4941 Q860.0938,270.1191 859.4844,269.9004 Q858.875,269.6816 858.25,269.6816 Q857.4844,269.6816 856.8438,270.0098 Q856.2188,270.3379 855.7188,271.0879 Q855.2344,271.8379 855.2344,272.8691 L855.2344,273.9629 Q855.2344,275.1973 856.125,276.0254 Q857.0156,276.8379 858.6094,276.8379 Q859.5469,276.8379 860.2031,276.5879 Q860.5938,276.4316 861.0156,275.9941 Q861.2813,275.7285 861.4219,275.6504 Q861.5781,275.5723 861.7813,275.5723 Q862.1094,275.5723 862.3594,275.8379 Q862.625,276.0879 862.625,276.4316 Q862.625,276.7754 862.2813,277.1816 Q861.7813,277.7598 860.9844,278.0879 Q859.9063,278.541 858.6094,278.541 Q857.0938,278.541 855.8906,277.916 Q854.9063,277.416 854.2188,276.3535 Q853.5313,275.2754 853.5313,273.9941 L853.5313,272.8379 Q853.5313,271.5098 854.1406,270.3691 Q854.7656,269.2129 855.8594,268.6035 Q856.9531,267.9785 858.1875,267.9785 Q858.9219,267.9785 859.5625,268.1504 Q860.2188,268.3066 860.7656,268.666 Z " fill="#000000"/><text fill="#000000" font-family="sans-serif" font-size="12" font-style="italic" lengthAdjust="spacing" textLength="85" x="874.5" y="268.4492">&#171;Value Object&#187;</text><text fill="#000000" font-family="sans-serif" font-size="14" lengthAdjust="spacing" textLength="90" x="872" y="286.5684">AttachedEmail</text><line style="stroke:#181818;stroke-width:0.5;" x1="844" x2="964" y1="295.082" y2="295.082"/></g><!--class AttachedFile--><g id="elem_AttachedFile"><rect codeLine="33" fill="#F1F1F1" height="52.582" id="AttachedFile" rx="2.5" ry="2.5" style="stroke:#181818;stroke-width:0.5;" width="113" x="1000.5" y="250.5"/><ellipse cx="1015.5" cy="272.791" fill="#ADD1B2" rx="11" ry="11" style="stroke:#181818;stroke-width:1.0;"/><path d="M1018.2656,268.666 Q1018.4219,268.4473 1018.6094,268.3379 Q1018.7969,268.2285 1019.0156,268.2285 Q1019.3906,268.2285 1019.625,268.4941 Q1019.8594,268.7441 1019.8594,269.3535 L1019.8594,270.8066 Q1019.8594,271.416 1019.625,271.6816 Q1019.3906,271.9473 1019.0156,271.9473 Q1018.6719,271.9473 1018.4688,271.7441 Q1018.2656,271.5566 1018.1563,271.041 Q1018.1094,270.6816 1017.9219,270.4941 Q1017.5938,270.1191 1016.9844,269.9004 Q1016.375,269.6816 1015.75,269.6816 Q1014.9844,269.6816 1014.3438,270.0098 Q1013.7188,270.3379 1013.2188,271.0879 Q1012.7344,271.8379 1012.7344,272.8691 L1012.7344,273.9629 Q1012.7344,275.1973 1013.625,276.0254 Q1014.5156,276.8379 1016.1094,276.8379 Q1017.0469,276.8379 1017.7031,276.5879 Q1018.0938,276.4316 1018.5156,275.9941 Q1018.7813,275.7285 1018.9219,275.6504 Q1019.0781,275.5723 1019.2813,275.5723 Q1019.6094,275.5723 1019.8594,275.8379 Q1020.125,276.0879 1020.125,276.4316 Q1020.125,276.7754 1019.7813,277.1816 Q1019.2813,277.7598 1018.4844,278.0879 Q1017.4063,278.541 1016.1094,278.541 Q1014.5938,278.541 1013.3906,277.916 Q1012.4063,277.416 1011.7188,276.3535 Q1011.0313,275.2754 1011.0313,273.9941 L1011.0313,272.8379 Q1011.0313,271.5098 1011.6406,270.3691 Q1012.2656,269.2129 1013.3594,268.6035 Q1014.4531,267.9785 1015.6875,267.9785 Q1016.4219,267.9785 1017.0625,268.1504 Q1017.7188,268.3066 1018.2656,268.666 Z " fill="#000000"/><text fill="#000000" font-family="sans-serif" font-size="12" font-style="italic" lengthAdjust="spacing" textLength="85" x="1027.5" y="268.4492">&#171;Value Object&#187;</text><text fill="#000000" font-family="sans-serif" font-size="14" lengthAdjust="spacing" textLength="79" x="1030.5" y="286.5684">AttachedFile</text><line style="stroke:#181818;stroke-width:0.5;" x1="1001.5" x2="1112.5" y1="295.082" y2="295.082"/></g><!--class ApplicatorData--><g id="elem_ApplicatorData"><rect codeLine="35" fill="#F1F1F1" height="52.582" id="ApplicatorData" rx="2.5" ry="2.5" style="stroke:#181818;stroke-width:0.5;" width="125" x="1148.5" y="250.5"/><ellipse cx="1163.5" cy="272.791" fill="#ADD1B2" rx="11" ry="11" style="stroke:#181818;stroke-width:1.0;"/><path d="M1166.2656,268.666 Q1166.4219,268.4473 1166.6094,268.3379 Q1166.7969,268.2285 1167.0156,268.2285 Q1167.3906,268.2285 1167.625,268.4941 Q1167.8594,268.7441 1167.8594,269.3535 L1167.8594,270.8066 Q1167.8594,271.416 1167.625,271.6816 Q1167.3906,271.9473 1167.0156,271.9473 Q1166.6719,271.9473 1166.4688,271.7441 Q1166.2656,271.5566 1166.1563,271.041 Q1166.1094,270.6816 1165.9219,270.4941 Q1165.5938,270.1191 1164.9844,269.9004 Q1164.375,269.6816 1163.75,269.6816 Q1162.9844,269.6816 1162.3438,270.0098 Q1161.7188,270.3379 1161.2188,271.0879 Q1160.7344,271.8379 1160.7344,272.8691 L1160.7344,273.9629 Q1160.7344,275.1973 1161.625,276.0254 Q1162.5156,276.8379 1164.1094,276.8379 Q1165.0469,276.8379 1165.7031,276.5879 Q1166.0938,276.4316 1166.5156,275.9941 Q1166.7813,275.7285 1166.9219,275.6504 Q1167.0781,275.5723 1167.2813,275.5723 Q1167.6094,275.5723 1167.8594,275.8379 Q1168.125,276.0879 1168.125,276.4316 Q1168.125,276.7754 1167.7813,277.1816 Q1167.2813,277.7598 1166.4844,278.0879 Q1165.4063,278.541 1164.1094,278.541 Q1162.5938,278.541 1161.3906,277.916 Q1160.4063,277.416 1159.7188,276.3535 Q1159.0313,275.2754 1159.0313,273.9941 L1159.0313,272.8379 Q1159.0313,271.5098 1159.6406,270.3691 Q1160.2656,269.2129 1161.3594,268.6035 Q1162.4531,267.9785 1163.6875,267.9785 Q1164.4219,267.9785 1165.0625,268.1504 Q1165.7188,268.3066 1166.2656,268.666 Z " fill="#000000"/><text fill="#000000" font-family="sans-serif" font-size="12" font-style="italic" lengthAdjust="spacing" textLength="85" x="1181.5" y="268.4492">&#171;Value Object&#187;</text><text fill="#000000" font-family="sans-serif" font-size="14" lengthAdjust="spacing" textLength="93" x="1177.5" y="286.5684">ApplicatorData</text><line style="stroke:#181818;stroke-width:0.5;" x1="1149.5" x2="1272.5" y1="295.082" y2="295.082"/></g><!--class ApplicationStatus--><g id="elem_ApplicationStatus"><rect codeLine="37" fill="#F1F1F1" height="52.582" id="ApplicationStatus" rx="2.5" ry="2.5" style="stroke:#181818;stroke-width:0.5;" width="141" x="1308.5" y="250.5"/><ellipse cx="1323.5" cy="272.791" fill="#ADD1B2" rx="11" ry="11" style="stroke:#181818;stroke-width:1.0;"/><path d="M1326.2656,268.666 Q1326.4219,268.4473 1326.6094,268.3379 Q1326.7969,268.2285 1327.0156,268.2285 Q1327.3906,268.2285 1327.625,268.4941 Q1327.8594,268.7441 1327.8594,269.3535 L1327.8594,270.8066 Q1327.8594,271.416 1327.625,271.6816 Q1327.3906,271.9473 1327.0156,271.9473 Q1326.6719,271.9473 1326.4688,271.7441 Q1326.2656,271.5566 1326.1563,271.041 Q1326.1094,270.6816 1325.9219,270.4941 Q1325.5938,270.1191 1324.9844,269.9004 Q1324.375,269.6816 1323.75,269.6816 Q1322.9844,269.6816 1322.3438,270.0098 Q1321.7188,270.3379 1321.2188,271.0879 Q1320.7344,271.8379 1320.7344,272.8691 L1320.7344,273.9629 Q1320.7344,275.1973 1321.625,276.0254 Q1322.5156,276.8379 1324.1094,276.8379 Q1325.0469,276.8379 1325.7031,276.5879 Q1326.0938,276.4316 1326.5156,275.9941 Q1326.7813,275.7285 1326.9219,275.6504 Q1327.0781,275.5723 1327.2813,275.5723 Q1327.6094,275.5723 1327.8594,275.8379 Q1328.125,276.0879 1328.125,276.4316 Q1328.125,276.7754 1327.7813,277.1816 Q1327.2813,277.7598 1326.4844,278.0879 Q1325.4063,278.541 1324.1094,278.541 Q1322.5938,278.541 1321.3906,277.916 Q1320.4063,277.416 1319.7188,276.3535 Q1319.0313,275.2754 1319.0313,273.9941 L1319.0313,272.8379 Q1319.0313,271.5098 1319.6406,270.3691 Q1320.2656,269.2129 1321.3594,268.6035 Q1322.4531,267.9785 1323.6875,267.9785 Q1324.4219,267.9785 1325.0625,268.1504 Q1325.7188,268.3066 1326.2656,268.666 Z " fill="#000000"/><text fill="#000000" font-family="sans-serif" font-size="12" font-style="italic" lengthAdjust="spacing" textLength="85" x="1349.5" y="268.4492">&#171;Value Object&#187;</text><text fill="#000000" font-family="sans-serif" font-size="14" lengthAdjust="spacing" textLength="109" x="1337.5" y="286.5684">ApplicationStatus</text><line style="stroke:#181818;stroke-width:0.5;" x1="1309.5" x2="1448.5" y1="295.082" y2="295.082"/></g><!--class JobOpening--><g id="elem_JobOpening"><rect codeLine="50" fill="#F1F1F1" height="68.543" id="JobOpening" rx="2.5" ry="2.5" style="stroke:#181818;stroke-width:0.5;" width="128" x="387" y="400"/><ellipse cx="402" cy="430.2715" fill="#ADD1B2" rx="11" ry="11" style="stroke:#181818;stroke-width:1.0;"/><path d="M404.7656,426.1465 Q404.9219,425.9277 405.1094,425.8184 Q405.2969,425.709 405.5156,425.709 Q405.8906,425.709 406.125,425.9746 Q406.3594,426.2246 406.3594,426.834 L406.3594,428.2871 Q406.3594,428.8965 406.125,429.1621 Q405.8906,429.4277 405.5156,429.4277 Q405.1719,429.4277 404.9688,429.2246 Q404.7656,429.0371 404.6563,428.5215 Q404.6094,428.1621 404.4219,427.9746 Q404.0938,427.5996 403.4844,427.3809 Q402.875,427.1621 402.25,427.1621 Q401.4844,427.1621 400.8438,427.4902 Q400.2188,427.8184 399.7188,428.5684 Q399.2344,429.3184 399.2344,430.3496 L399.2344,431.4434 Q399.2344,432.6777 400.125,433.5059 Q401.0156,434.3184 402.6094,434.3184 Q403.5469,434.3184 404.2031,434.0684 Q404.5938,433.9121 405.0156,433.4746 Q405.2813,433.209 405.4219,433.1309 Q405.5781,433.0527 405.7813,433.0527 Q406.1094,433.0527 406.3594,433.3184 Q406.625,433.5684 406.625,433.9121 Q406.625,434.2559 406.2813,434.6621 Q405.7813,435.2402 404.9844,435.5684 Q403.9063,436.0215 402.6094,436.0215 Q401.0938,436.0215 399.8906,435.3965 Q398.9063,434.8965 398.2188,433.834 Q397.5313,432.7559 397.5313,431.4746 L397.5313,430.3184 Q397.5313,428.9902 398.1406,427.8496 Q398.7656,426.6934 399.8594,426.084 Q400.9531,425.459 402.1875,425.459 Q402.9219,425.459 403.5625,425.6309 Q404.2188,425.7871 404.7656,426.1465 Z " fill="#000000"/><text fill="#000000" font-family="sans-serif" font-size="12" font-style="italic" lengthAdjust="spacing" textLength="100" x="414" y="417.9492">&#171;Aggregate Root&#187;</text><text fill="#000000" font-family="sans-serif" font-size="12" font-style="italic" lengthAdjust="spacing" textLength="44" x="442" y="433.9102">&#171;Entity&#187;</text><text fill="#000000" font-family="sans-serif" font-size="14" lengthAdjust="spacing" textLength="76" x="426" y="452.0293">JobOpening</text><line style="stroke:#181818;stroke-width:0.5;" x1="388" x2="514" y1="460.543" y2="460.543"/></g><!--class JobReference--><g id="elem_JobReference"><rect codeLine="52" fill="#F1F1F1" height="68.543" id="JobReference" rx="2.5" ry="2.5" style="stroke:#181818;stroke-width:0.5;" width="120" x="23" y="553"/><ellipse cx="38" cy="583.2715" fill="#ADD1B2" rx="11" ry="11" style="stroke:#181818;stroke-width:1.0;"/><path d="M40.7656,579.1465 Q40.9219,578.9277 41.1094,578.8184 Q41.2969,578.709 41.5156,578.709 Q41.8906,578.709 42.125,578.9746 Q42.3594,579.2246 42.3594,579.834 L42.3594,581.2871 Q42.3594,581.8965 42.125,582.1621 Q41.8906,582.4277 41.5156,582.4277 Q41.1719,582.4277 40.9688,582.2246 Q40.7656,582.0371 40.6563,581.5215 Q40.6094,581.1621 40.4219,580.9746 Q40.0938,580.5996 39.4844,580.3809 Q38.875,580.1621 38.25,580.1621 Q37.4844,580.1621 36.8438,580.4902 Q36.2188,580.8184 35.7188,581.5684 Q35.2344,582.3184 35.2344,583.3496 L35.2344,584.4434 Q35.2344,585.6777 36.125,586.5059 Q37.0156,587.3184 38.6094,587.3184 Q39.5469,587.3184 40.2031,587.0684 Q40.5938,586.9121 41.0156,586.4746 Q41.2813,586.209 41.4219,586.1309 Q41.5781,586.0527 41.7813,586.0527 Q42.1094,586.0527 42.3594,586.3184 Q42.625,586.5684 42.625,586.9121 Q42.625,587.2559 42.2813,587.6621 Q41.7813,588.2402 40.9844,588.5684 Q39.9063,589.0215 38.6094,589.0215 Q37.0938,589.0215 35.8906,588.3965 Q34.9063,587.8965 34.2188,586.834 Q33.5313,585.7559 33.5313,584.4746 L33.5313,583.3184 Q33.5313,581.9902 34.1406,580.8496 Q34.7656,579.6934 35.8594,579.084 Q36.9531,578.459 38.1875,578.459 Q38.9219,578.459 39.5625,578.6309 Q40.2188,578.7871 40.7656,579.1465 Z " fill="#000000"/><text fill="#000000" font-family="sans-serif" font-size="12" font-style="italic" lengthAdjust="spacing" textLength="54" x="69" y="570.9492">&#171;Identity&#187;</text><text fill="#000000" font-family="sans-serif" font-size="12" font-style="italic" lengthAdjust="spacing" textLength="85" x="53.5" y="586.9102">&#171;Value Object&#187;</text><text fill="#000000" font-family="sans-serif" font-size="14" lengthAdjust="spacing" textLength="88" x="52" y="605.0293">JobReference</text><line style="stroke:#181818;stroke-width:0.5;" x1="24" x2="142" y1="613.543" y2="613.543"/></g><!--class TitleOrFunction--><g id="elem_TitleOrFunction"><rect codeLine="54" fill="#F1F1F1" height="52.582" id="TitleOrFunction" rx="2.5" ry="2.5" style="stroke:#181818;stroke-width:0.5;" width="130" x="178" y="561"/><ellipse cx="193" cy="583.291" fill="#ADD1B2" rx="11" ry="11" style="stroke:#181818;stroke-width:1.0;"/><path d="M195.7656,579.166 Q195.9219,578.9473 196.1094,578.8379 Q196.2969,578.7285 196.5156,578.7285 Q196.8906,578.7285 197.125,578.9941 Q197.3594,579.2441 197.3594,579.8535 L197.3594,581.3066 Q197.3594,581.916 197.125,582.1816 Q196.8906,582.4473 196.5156,582.4473 Q196.1719,582.4473 195.9688,582.2441 Q195.7656,582.0566 195.6563,581.541 Q195.6094,581.1816 195.4219,580.9941 Q195.0938,580.6191 194.4844,580.4004 Q193.875,580.1816 193.25,580.1816 Q192.4844,580.1816 191.8438,580.5098 Q191.2188,580.8379 190.7188,581.5879 Q190.2344,582.3379 190.2344,583.3691 L190.2344,584.4629 Q190.2344,585.6973 191.125,586.5254 Q192.0156,587.3379 193.6094,587.3379 Q194.5469,587.3379 195.2031,587.0879 Q195.5938,586.9316 196.0156,586.4941 Q196.2813,586.2285 196.4219,586.1504 Q196.5781,586.0723 196.7813,586.0723 Q197.1094,586.0723 197.3594,586.3379 Q197.625,586.5879 197.625,586.9316 Q197.625,587.2754 197.2813,587.6816 Q196.7813,588.2598 195.9844,588.5879 Q194.9063,589.041 193.6094,589.041 Q192.0938,589.041 190.8906,588.416 Q189.9063,587.916 189.2188,586.8535 Q188.5313,585.7754 188.5313,584.4941 L188.5313,583.3379 Q188.5313,582.0098 189.1406,580.8691 Q189.7656,579.7129 190.8594,579.1035 Q191.9531,578.4785 193.1875,578.4785 Q193.9219,578.4785 194.5625,578.6504 Q195.2188,578.8066 195.7656,579.166 Z " fill="#000000"/><text fill="#000000" font-family="sans-serif" font-size="12" font-style="italic" lengthAdjust="spacing" textLength="85" x="213.5" y="578.9492">&#171;Value Object&#187;</text><text fill="#000000" font-family="sans-serif" font-size="14" lengthAdjust="spacing" textLength="98" x="207" y="597.0684">TitleOrFunction</text><line style="stroke:#181818;stroke-width:0.5;" x1="179" x2="307" y1="605.582" y2="605.582"/></g><!--class ContractType--><g id="elem_ContractType"><rect codeLine="56" fill="#F1F1F1" height="105.7852" id="ContractType" rx="2.5" ry="2.5" style="stroke:#181818;stroke-width:0.5;" width="118" x="492" y="224"/><ellipse cx="507" cy="254.2715" fill="#EB937F" rx="11" ry="11" style="stroke:#181818;stroke-width:1.0;"/><path d="M505.8594,255.0684 L505.8594,257.5684 L510.1875,257.5684 L510.1875,256.6465 Q510.1875,256.0371 510.4219,255.7715 Q510.6719,255.5059 511.0469,255.5059 Q511.4219,255.5059 511.6563,255.7715 Q511.8906,256.0371 511.8906,256.6465 L511.8906,259.2715 L503.8906,259.2715 Q503.2656,259.2715 503,259.0371 Q502.75,258.8027 502.75,258.4121 Q502.75,258.0371 503.0156,257.8027 Q503.2813,257.5684 503.8906,257.5684 L504.1563,257.5684 L504.1563,250.9121 L503.8906,250.9121 Q503.2656,250.9121 503,250.6777 Q502.75,250.4434 502.75,250.0527 Q502.75,249.6777 503,249.4434 Q503.2656,249.209 503.8906,249.209 L511.5156,249.209 L511.5156,251.8027 Q511.5156,252.4121 511.2813,252.6777 Q511.0625,252.9277 510.6719,252.9277 Q510.2969,252.9277 510.0625,252.6777 Q509.8281,252.4121 509.8281,251.8027 L509.8281,250.9121 L505.8594,250.9121 L505.8594,253.3652 L507.3438,253.3652 Q507.3438,252.709 507.4688,252.5215 Q507.7344,252.1152 508.2031,252.1152 Q508.5781,252.1152 508.8125,252.3809 Q509.0469,252.6309 509.0469,253.2402 L509.0469,255.209 Q509.0469,255.7559 508.9219,255.9434 Q508.6563,256.334 508.2031,256.334 Q507.7344,256.334 507.4688,255.9277 Q507.3438,255.7402 507.3438,255.0684 L505.8594,255.0684 Z " fill="#000000"/><text fill="#000000" font-family="sans-serif" font-size="12" font-style="italic" lengthAdjust="spacing" textLength="82" x="523" y="241.9492">&#171;Enumerated&#187;</text><text fill="#000000" font-family="sans-serif" font-size="12" font-style="italic" lengthAdjust="spacing" textLength="85" x="521.5" y="257.9102">&#171;Value Object&#187;</text><text fill="#000000" font-family="sans-serif" font-size="14" lengthAdjust="spacing" textLength="86" x="521" y="276.0293">ContractType</text><line style="stroke:#181818;stroke-width:0.5;" x1="493" x2="609" y1="284.543" y2="284.543"/><text fill="#000000" font-family="sans-serif" font-size="14" lengthAdjust="spacing" textLength="74" x="498" y="303.6504">FULL_TIME</text><text fill="#000000" font-family="sans-serif" font-size="14" lengthAdjust="spacing" textLength="77" x="498" y="322.2715">PART_TIME</text></g><!--class Mode--><g id="elem_Mode"><rect codeLine="61" fill="#F1F1F1" height="124.4063" id="Mode" rx="2.5" ry="2.5" style="stroke:#181818;stroke-width:0.5;" width="113" x="343.5" y="215"/><ellipse cx="358.5" cy="245.2715" fill="#EB937F" rx="11" ry="11" style="stroke:#181818;stroke-width:1.0;"/><path d="M357.3594,246.0684 L357.3594,248.5684 L361.6875,248.5684 L361.6875,247.6465 Q361.6875,247.0371 361.9219,246.7715 Q362.1719,246.5059 362.5469,246.5059 Q362.9219,246.5059 363.1563,246.7715 Q363.3906,247.0371 363.3906,247.6465 L363.3906,250.2715 L355.3906,250.2715 Q354.7656,250.2715 354.5,250.0371 Q354.25,249.8027 354.25,249.4121 Q354.25,249.0371 354.5156,248.8027 Q354.7813,248.5684 355.3906,248.5684 L355.6563,248.5684 L355.6563,241.9121 L355.3906,241.9121 Q354.7656,241.9121 354.5,241.6777 Q354.25,241.4434 354.25,241.0527 Q354.25,240.6777 354.5,240.4434 Q354.7656,240.209 355.3906,240.209 L363.0156,240.209 L363.0156,242.8027 Q363.0156,243.4121 362.7813,243.6777 Q362.5625,243.9277 362.1719,243.9277 Q361.7969,243.9277 361.5625,243.6777 Q361.3281,243.4121 361.3281,242.8027 L361.3281,241.9121 L357.3594,241.9121 L357.3594,244.3652 L358.8438,244.3652 Q358.8438,243.709 358.9688,243.5215 Q359.2344,243.1152 359.7031,243.1152 Q360.0781,243.1152 360.3125,243.3809 Q360.5469,243.6309 360.5469,244.2402 L360.5469,246.209 Q360.5469,246.7559 360.4219,246.9434 Q360.1563,247.334 359.7031,247.334 Q359.2344,247.334 358.9688,246.9277 Q358.8438,246.7402 358.8438,246.0684 L357.3594,246.0684 Z " fill="#000000"/><text fill="#000000" font-family="sans-serif" font-size="12" font-style="italic" lengthAdjust="spacing" textLength="82" x="372" y="232.9492">&#171;Enumerated&#187;</text><text fill="#000000" font-family="sans-serif" font-size="12" font-style="italic" lengthAdjust="spacing" textLength="85" x="370.5" y="248.9102">&#171;Value Object&#187;</text><text fill="#000000" font-family="sans-serif" font-size="14" lengthAdjust="spacing" textLength="35" x="395.5" y="267.0293">Mode</text><line style="stroke:#181818;stroke-width:0.5;" x1="344.5" x2="455.5" y1="275.543" y2="275.543"/><text fill="#000000" font-family="sans-serif" font-size="14" lengthAdjust="spacing" textLength="59" x="349.5" y="294.6504">REMOTE</text><text fill="#000000" font-family="sans-serif" font-size="14" lengthAdjust="spacing" textLength="55" x="349.5" y="313.2715">ON-SITE</text><text fill="#000000" font-family="sans-serif" font-size="14" lengthAdjust="spacing" textLength="50" x="349.5" y="331.8926">HYBRID</text></g><!--class VacanciesNumber--><g id="elem_VacanciesNumber"><rect codeLine="68" fill="#F1F1F1" height="52.582" id="VacanciesNumber" rx="2.5" ry="2.5" style="stroke:#181818;stroke-width:0.5;" width="146" x="343" y="561"/><ellipse cx="358" cy="583.291" fill="#ADD1B2" rx="11" ry="11" style="stroke:#181818;stroke-width:1.0;"/><path d="M360.7656,579.166 Q360.9219,578.9473 361.1094,578.8379 Q361.2969,578.7285 361.5156,578.7285 Q361.8906,578.7285 362.125,578.9941 Q362.3594,579.2441 362.3594,579.8535 L362.3594,581.3066 Q362.3594,581.916 362.125,582.1816 Q361.8906,582.4473 361.5156,582.4473 Q361.1719,582.4473 360.9688,582.2441 Q360.7656,582.0566 360.6563,581.541 Q360.6094,581.1816 360.4219,580.9941 Q360.0938,580.6191 359.4844,580.4004 Q358.875,580.1816 358.25,580.1816 Q357.4844,580.1816 356.8438,580.5098 Q356.2188,580.8379 355.7188,581.5879 Q355.2344,582.3379 355.2344,583.3691 L355.2344,584.4629 Q355.2344,585.6973 356.125,586.5254 Q357.0156,587.3379 358.6094,587.3379 Q359.5469,587.3379 360.2031,587.0879 Q360.5938,586.9316 361.0156,586.4941 Q361.2813,586.2285 361.4219,586.1504 Q361.5781,586.0723 361.7813,586.0723 Q362.1094,586.0723 362.3594,586.3379 Q362.625,586.5879 362.625,586.9316 Q362.625,587.2754 362.2813,587.6816 Q361.7813,588.2598 360.9844,588.5879 Q359.9063,589.041 358.6094,589.041 Q357.0938,589.041 355.8906,588.416 Q354.9063,587.916 354.2188,586.8535 Q353.5313,585.7754 353.5313,584.4941 L353.5313,583.3379 Q353.5313,582.0098 354.1406,580.8691 Q354.7656,579.7129 355.8594,579.1035 Q356.9531,578.4785 358.1875,578.4785 Q358.9219,578.4785 359.5625,578.6504 Q360.2188,578.8066 360.7656,579.166 Z " fill="#000000"/><text fill="#000000" font-family="sans-serif" font-size="12" font-style="italic" lengthAdjust="spacing" textLength="85" x="386.5" y="578.9492">&#171;Value Object&#187;</text><text fill="#000000" font-family="sans-serif" font-size="14" lengthAdjust="spacing" textLength="114" x="372" y="597.0684">VacanciesNumber</text><line style="stroke:#181818;stroke-width:0.5;" x1="344" x2="488" y1="605.582" y2="605.582"/></g><!--class Description--><g id="elem_Description"><rect codeLine="70" fill="#F1F1F1" height="52.582" id="Description" rx="2.5" ry="2.5" style="stroke:#181818;stroke-width:0.5;" width="113" x="524.5" y="561"/><ellipse cx="539.5" cy="583.291" fill="#ADD1B2" rx="11" ry="11" style="stroke:#181818;stroke-width:1.0;"/><path d="M542.2656,579.166 Q542.4219,578.9473 542.6094,578.8379 Q542.7969,578.7285 543.0156,578.7285 Q543.3906,578.7285 543.625,578.9941 Q543.8594,579.2441 543.8594,579.8535 L543.8594,581.3066 Q543.8594,581.916 543.625,582.1816 Q543.3906,582.4473 543.0156,582.4473 Q542.6719,582.4473 542.4688,582.2441 Q542.2656,582.0566 542.1563,581.541 Q542.1094,581.1816 541.9219,580.9941 Q541.5938,580.6191 540.9844,580.4004 Q540.375,580.1816 539.75,580.1816 Q538.9844,580.1816 538.3438,580.5098 Q537.7188,580.8379 537.2188,581.5879 Q536.7344,582.3379 536.7344,583.3691 L536.7344,584.4629 Q536.7344,585.6973 537.625,586.5254 Q538.5156,587.3379 540.1094,587.3379 Q541.0469,587.3379 541.7031,587.0879 Q542.0938,586.9316 542.5156,586.4941 Q542.7813,586.2285 542.9219,586.1504 Q543.0781,586.0723 543.2813,586.0723 Q543.6094,586.0723 543.8594,586.3379 Q544.125,586.5879 544.125,586.9316 Q544.125,587.2754 543.7813,587.6816 Q543.2813,588.2598 542.4844,588.5879 Q541.4063,589.041 540.1094,589.041 Q538.5938,589.041 537.3906,588.416 Q536.4063,587.916 535.7188,586.8535 Q535.0313,585.7754 535.0313,584.4941 L535.0313,583.3379 Q535.0313,582.0098 535.6406,580.8691 Q536.2656,579.7129 537.3594,579.1035 Q538.4531,578.4785 539.6875,578.4785 Q540.4219,578.4785 541.0625,578.6504 Q541.7188,578.8066 542.2656,579.166 Z " fill="#000000"/><text fill="#000000" font-family="sans-serif" font-size="12" font-style="italic" lengthAdjust="spacing" textLength="85" x="551.5" y="578.9492">&#171;Value Object&#187;</text><text fill="#000000" font-family="sans-serif" font-size="14" lengthAdjust="spacing" textLength="71" x="558.5" y="597.0684">Description</text><line style="stroke:#181818;stroke-width:0.5;" x1="525.5" x2="636.5" y1="605.582" y2="605.582"/></g><!--class Candidate--><g id="elem_Candidate"><rect codeLine="94" fill="#F1F1F1" height="68.543" id="Candidate" rx="2.5" ry="2.5" style="stroke:#181818;stroke-width:0.5;" width="128" x="1632" y="242.5"/><ellipse cx="1647" cy="272.7715" fill="#ADD1B2" rx="11" ry="11" style="stroke:#181818;stroke-width:1.0;"/><path d="M1649.7656,268.6465 Q1649.9219,268.4277 1650.1094,268.3184 Q1650.2969,268.209 1650.5156,268.209 Q1650.8906,268.209 1651.125,268.4746 Q1651.3594,268.7246 1651.3594,269.334 L1651.3594,270.7871 Q1651.3594,271.3965 1651.125,271.6621 Q1650.8906,271.9277 1650.5156,271.9277 Q1650.1719,271.9277 1649.9688,271.7246 Q1649.7656,271.5371 1649.6563,271.0215 Q1649.6094,270.6621 1649.4219,270.4746 Q1649.0938,270.0996 1648.4844,269.8809 Q1647.875,269.6621 1647.25,269.6621 Q1646.4844,269.6621 1645.8438,269.9902 Q1645.2188,270.3184 1644.7188,271.0684 Q1644.2344,271.8184 1644.2344,272.8496 L1644.2344,273.9434 Q1644.2344,275.1777 1645.125,276.0059 Q1646.0156,276.8184 1647.6094,276.8184 Q1648.5469,276.8184 1649.2031,276.5684 Q1649.5938,276.4121 1650.0156,275.9746 Q1650.2813,275.709 1650.4219,275.6309 Q1650.5781,275.5527 1650.7813,275.5527 Q1651.1094,275.5527 1651.3594,275.8184 Q1651.625,276.0684 1651.625,276.4121 Q1651.625,276.7559 1651.2813,277.1621 Q1650.7813,277.7402 1649.9844,278.0684 Q1648.9063,278.5215 1647.6094,278.5215 Q1646.0938,278.5215 1644.8906,277.8965 Q1643.9063,277.3965 1643.2188,276.334 Q1642.5313,275.2559 1642.5313,273.9746 L1642.5313,272.8184 Q1642.5313,271.4902 1643.1406,270.3496 Q1643.7656,269.1934 1644.8594,268.584 Q1645.9531,267.959 1647.1875,267.959 Q1647.9219,267.959 1648.5625,268.1309 Q1649.2188,268.2871 1649.7656,268.6465 Z " fill="#000000"/><text fill="#000000" font-family="sans-serif" font-size="12" font-style="italic" lengthAdjust="spacing" textLength="100" x="1659" y="260.4492">&#171;Aggregate Root&#187;</text><text fill="#000000" font-family="sans-serif" font-size="12" font-style="italic" lengthAdjust="spacing" textLength="44" x="1687" y="276.4102">&#171;Entity&#187;</text><text fill="#000000" font-family="sans-serif" font-size="14" lengthAdjust="spacing" textLength="65" x="1676.5" y="294.5293">Candidate</text><line style="stroke:#181818;stroke-width:0.5;" x1="1633" x2="1759" y1="303.043" y2="303.043"/></g><!--class CurriculumVitae--><g id="elem_CurriculumVitae"><rect codeLine="95" fill="#F1F1F1" height="52.582" id="CurriculumVitae" rx="2.5" ry="2.5" style="stroke:#181818;stroke-width:0.5;" width="132" x="1795" y="250.5"/><ellipse cx="1810" cy="272.791" fill="#ADD1B2" rx="11" ry="11" style="stroke:#181818;stroke-width:1.0;"/><path d="M1812.7656,268.666 Q1812.9219,268.4473 1813.1094,268.3379 Q1813.2969,268.2285 1813.5156,268.2285 Q1813.8906,268.2285 1814.125,268.4941 Q1814.3594,268.7441 1814.3594,269.3535 L1814.3594,270.8066 Q1814.3594,271.416 1814.125,271.6816 Q1813.8906,271.9473 1813.5156,271.9473 Q1813.1719,271.9473 1812.9688,271.7441 Q1812.7656,271.5566 1812.6563,271.041 Q1812.6094,270.6816 1812.4219,270.4941 Q1812.0938,270.1191 1811.4844,269.9004 Q1810.875,269.6816 1810.25,269.6816 Q1809.4844,269.6816 1808.8438,270.0098 Q1808.2188,270.3379 1807.7188,271.0879 Q1807.2344,271.8379 1807.2344,272.8691 L1807.2344,273.9629 Q1807.2344,275.1973 1808.125,276.0254 Q1809.0156,276.8379 1810.6094,276.8379 Q1811.5469,276.8379 1812.2031,276.5879 Q1812.5938,276.4316 1813.0156,275.9941 Q1813.2813,275.7285 1813.4219,275.6504 Q1813.5781,275.5723 1813.7813,275.5723 Q1814.1094,275.5723 1814.3594,275.8379 Q1814.625,276.0879 1814.625,276.4316 Q1814.625,276.7754 1814.2813,277.1816 Q1813.7813,277.7598 1812.9844,278.0879 Q1811.9063,278.541 1810.6094,278.541 Q1809.0938,278.541 1807.8906,277.916 Q1806.9063,277.416 1806.2188,276.3535 Q1805.5313,275.2754 1805.5313,273.9941 L1805.5313,272.8379 Q1805.5313,271.5098 1806.1406,270.3691 Q1806.7656,269.2129 1807.8594,268.6035 Q1808.9531,267.9785 1810.1875,267.9785 Q1810.9219,267.9785 1811.5625,268.1504 Q1812.2188,268.3066 1812.7656,268.666 Z " fill="#000000"/><text fill="#000000" font-family="sans-serif" font-size="12" font-style="italic" lengthAdjust="spacing" textLength="85" x="1831.5" y="268.4492">&#171;Value Object&#187;</text><text fill="#000000" font-family="sans-serif" font-size="14" lengthAdjust="spacing" textLength="100" x="1824" y="286.5684">CurriculumVitae</text><line style="stroke:#181818;stroke-width:0.5;" x1="1796" x2="1926" y1="295.082" y2="295.082"/></g><!--class PhoneNumber--><g id="elem_PhoneNumber"><rect codeLine="96" fill="#F1F1F1" height="52.582" id="PhoneNumber" rx="2.5" ry="2.5" style="stroke:#181818;stroke-width:0.5;" width="122" x="1635" y="408"/><ellipse cx="1650" cy="430.291" fill="#ADD1B2" rx="11" ry="11" style="stroke:#181818;stroke-width:1.0;"/><path d="M1652.7656,426.166 Q1652.9219,425.9473 1653.1094,425.8379 Q1653.2969,425.7285 1653.5156,425.7285 Q1653.8906,425.7285 1654.125,425.9941 Q1654.3594,426.2441 1654.3594,426.8535 L1654.3594,428.3066 Q1654.3594,428.916 1654.125,429.1816 Q1653.8906,429.4473 1653.5156,429.4473 Q1653.1719,429.4473 1652.9688,429.2441 Q1652.7656,429.0566 1652.6563,428.541 Q1652.6094,428.1816 1652.4219,427.9941 Q1652.0938,427.6191 1651.4844,427.4004 Q1650.875,427.1816 1650.25,427.1816 Q1649.4844,427.1816 1648.8438,427.5098 Q1648.2188,427.8379 1647.7188,428.5879 Q1647.2344,429.3379 1647.2344,430.3691 L1647.2344,431.4629 Q1647.2344,432.6973 1648.125,433.5254 Q1649.0156,434.3379 1650.6094,434.3379 Q1651.5469,434.3379 1652.2031,434.0879 Q1652.5938,433.9316 1653.0156,433.4941 Q1653.2813,433.2285 1653.4219,433.1504 Q1653.5781,433.0723 1653.7813,433.0723 Q1654.1094,433.0723 1654.3594,433.3379 Q1654.625,433.5879 1654.625,433.9316 Q1654.625,434.2754 1654.2813,434.6816 Q1653.7813,435.2598 1652.9844,435.5879 Q1651.9063,436.041 1650.6094,436.041 Q1649.0938,436.041 1647.8906,435.416 Q1646.9063,434.916 1646.2188,433.8535 Q1645.5313,432.7754 1645.5313,431.4941 L1645.5313,430.3379 Q1645.5313,429.0098 1646.1406,427.8691 Q1646.7656,426.7129 1647.8594,426.1035 Q1648.9531,425.4785 1650.1875,425.4785 Q1650.9219,425.4785 1651.5625,425.6504 Q1652.2188,425.8066 1652.7656,426.166 Z " fill="#000000"/><text fill="#000000" font-family="sans-serif" font-size="12" font-style="italic" lengthAdjust="spacing" textLength="85" x="1666.5" y="425.9492">&#171;Value Object&#187;</text><text fill="#000000" font-family="sans-serif" font-size="14" lengthAdjust="spacing" textLength="90" x="1664" y="444.0684">PhoneNumber</text><line style="stroke:#181818;stroke-width:0.5;" x1="1636" x2="1756" y1="452.582" y2="452.582"/></g><!--link Plugin to PluginType--><g id="link_Plugin_PluginType"><path codeLine="17" d="M812.55,622.16 C798.79,641.91 785.1004,661.5574 772.4104,679.7674 " fill="none" id="Plugin-to-PluginType" style="stroke:#181818;stroke-width:1.0;"/><polygon fill="#181818" points="768.98,684.69,777.4074,679.593,771.8387,680.5878,770.8439,675.0191,768.98,684.69" style="stroke:#181818;stroke-width:1.0;"/><text fill="#000000" font-family="sans-serif" font-size="13" lengthAdjust="spacing" textLength="7" x="800.918" y="643.6707">1</text><text fill="#000000" font-family="sans-serif" font-size="13" lengthAdjust="spacing" textLength="7" x="765.3285" y="673.6349">1</text></g><!--link Plugin to PluginId--><g id="link_Plugin_PluginId"><path codeLine="18" d="M900.29,587.5 C911.99,587.5 917.69,587.5 929.4,587.5 " fill="none" id="Plugin-to-PluginId" style="stroke:#181818;stroke-width:1.0;"/><polygon fill="#181818" points="935.4,587.5,926.4,583.5,930.4,587.5,926.4,591.5,935.4,587.5" style="stroke:#181818;stroke-width:1.0;"/><text fill="#000000" font-family="sans-serif" font-size="13" lengthAdjust="spacing" textLength="7" x="908.1282" y="583.5888">1</text><text fill="#000000" font-family="sans-serif" font-size="13" lengthAdjust="spacing" textLength="7" x="920.3241" y="583.4364">1</text></g><!--link Plugin to PluginDescription--><g id="link_Plugin_PluginDescription"><path codeLine="19" d="M857.52,622.16 C870.15,641.91 882.6165,661.4258 894.2665,679.6358 " fill="none" id="Plugin-to-PluginDescription" style="stroke:#181818;stroke-width:1.0;"/><polygon fill="#181818" points="897.5,684.69,896.0193,674.9531,894.8055,680.4782,889.2804,679.2644,897.5,684.69" style="stroke:#181818;stroke-width:1.0;"/><text fill="#000000" font-family="sans-serif" font-size="13" lengthAdjust="spacing" textLength="7" x="853.6172" y="643.6707">1</text><text fill="#000000" font-family="sans-serif" font-size="13" lengthAdjust="spacing" textLength="7" x="885.875" y="673.6349">1</text></g><!--link Plugin to JarFile--><g id="link_Plugin_JarFile"><path codeLine="20" d="M879.94,622.03 C891.93,630.43 905.17,639.02 918,646 C950.71,663.8 983.7542,677.5143 1014.7742,689.0143 " fill="none" id="Plugin-to-JarFile" style="stroke:#181818;stroke-width:1.0;"/><polygon fill="#181818" points="1020.4,691.1,1013.3517,684.221,1015.7118,689.362,1010.5708,691.7221,1020.4,691.1" style="stroke:#181818;stroke-width:1.0;"/><text fill="#000000" font-family="sans-serif" font-size="13" lengthAdjust="spacing" textLength="7" x="879.8906" y="643.5184">1</text><text fill="#000000" font-family="sans-serif" font-size="13" lengthAdjust="spacing" textLength="7" x="1005.3241" y="684.2925">1</text></g><!--link JarFile to InterviewModel--><g id="link_JarFile_InterviewModel"><path codeLine="22" d="M1070.2994,753.9754 C1066.6194,776.7654 1064.7769,788.1668 1061.0969,810.9468 " fill="none" id="JarFile-InterviewModel" style="stroke:#181818;stroke-width:1.0;stroke-dasharray:7.0,7.0;"/><ellipse cx="1071.5747" cy="746.0777" fill="#FFFFFF" rx="8" ry="8" style="stroke:#181818;stroke-width:1.0;"/><line style="stroke:#181818;stroke-width:1.0;" x1="1070.2994" x2="1072.85" y1="753.9754" y2="738.18"/><line style="stroke:#181818;stroke-width:1.0;" x1="1063.677" x2="1079.4724" y1="744.8024" y2="747.353"/><polygon fill="#181818" points="1060.14,816.87,1065.5241,808.6231,1060.9374,811.934,1057.6265,807.3473,1060.14,816.87" style="stroke:#181818;stroke-width:1.0;"/><text fill="#000000" font-family="sans-serif" font-size="13" lengthAdjust="spacing" textLength="91" x="1068" y="783.0283">interviewModels</text><text fill="#000000" font-family="sans-serif" font-size="13" lengthAdjust="spacing" textLength="7" x="1064.2722" y="759.5373">1</text><text fill="#000000" font-family="sans-serif" font-size="13" lengthAdjust="spacing" textLength="5" x="1055.5193" y="805.8565">*</text></g><!--link JarFile to Requirement--><g id="link_JarFile_Requirement"><path codeLine="23" d="M1012.7479,746.0697 C997.2779,754.7797 994.46,757.21 980,768 C960.49,782.56 944.867,797.2424 930.097,812.4024 " fill="none" id="JarFile-Requirement" style="stroke:#181818;stroke-width:1.0;stroke-dasharray:7.0,7.0;"/><ellipse cx="1019.719" cy="742.1449" fill="#FFFFFF" rx="8" ry="8" style="stroke:#181818;stroke-width:1.0;"/><line style="stroke:#181818;stroke-width:1.0;" x1="1012.7479" x2="1026.69" y1="746.0697" y2="738.22"/><line style="stroke:#181818;stroke-width:1.0;" x1="1015.7941" x2="1023.6438" y1="735.1738" y2="749.1159"/><polygon fill="#181818" points="925.91,816.7,935.0555,813.045,929.3992,813.1187,929.3255,807.4623,925.91,816.7" style="stroke:#181818;stroke-width:1.0;"/><text fill="#000000" font-family="sans-serif" font-size="13" lengthAdjust="spacing" textLength="75" x="981" y="783.0283">requirements</text><text fill="#000000" font-family="sans-serif" font-size="13" lengthAdjust="spacing" textLength="7" x="1008.5917" y="759.5856">1</text><text fill="#000000" font-family="sans-serif" font-size="13" lengthAdjust="spacing" textLength="5" x="925.8611" y="805.6472">*</text></g><!--link Application to ApplicationId--><g id="link_Application_ApplicationId"><path codeLine="41" d="M1146.9,80.94 C1065.7,85.63 924.51,103.62 826,170 C799.45,187.89 782.1093,213.259 769.4093,237.009 " fill="none" id="Application-to-ApplicationId" style="stroke:#181818;stroke-width:1.0;"/><polygon fill="#181818" points="766.58,242.3,774.3513,236.2497,768.9378,237.8908,767.2966,232.4772,766.58,242.3" style="stroke:#181818;stroke-width:1.0;"/><text fill="#000000" font-family="sans-serif" font-size="13" lengthAdjust="spacing" textLength="7" x="1132.0838" y="77.3109">1</text><text fill="#000000" font-family="sans-serif" font-size="13" lengthAdjust="spacing" textLength="7" x="761.8828" y="231.1646">1</text></g><!--link Application to AttachedEmail--><g id="link_Application_AttachedEmail"><path codeLine="42" d="M1146.97,94.67 C1098.41,108.47 1031.92,132.49 983,170 C954.59,191.78 934.4767,221.1877 920.7467,244.8977 " fill="none" id="Application-to-AttachedEmail" style="stroke:#181818;stroke-width:1.0;"/><polygon fill="#181818" points="917.74,250.09,925.7116,244.3061,920.2456,245.7631,918.7886,240.2971,917.74,250.09" style="stroke:#181818;stroke-width:1.0;"/><text fill="#000000" font-family="sans-serif" font-size="13" lengthAdjust="spacing" textLength="7" x="1132.1618" y="111.594">1</text><text fill="#000000" font-family="sans-serif" font-size="13" lengthAdjust="spacing" textLength="7" x="912.98" y="239.4499">1</text></g><!--link Application to AttachedFile--><g id="link_Application_AttachedFile"><path codeLine="43" d="M1179.66,113.09 C1164.49,129.81 1146.3,150.55 1131,170 C1110.18,196.46 1091.6687,223.3014 1077.1687,245.1414 " fill="none" id="Application-to-AttachedFile" style="stroke:#181818;stroke-width:1.0;"/><polygon fill="#181818" points="1073.85,250.14,1082.1605,244.8545,1076.6156,245.9745,1075.4956,240.4296,1073.85,250.14" style="stroke:#181818;stroke-width:1.0;"/><text fill="#000000" font-family="sans-serif" font-size="13" lengthAdjust="spacing" textLength="7" x="1166.6719" y="134.5887">1</text><text fill="#000000" font-family="sans-serif" font-size="13" lengthAdjust="spacing" textLength="7" x="1069.9372" y="239.0733">1</text></g><!--link Application to ApplicatorData--><g id="link_Application_ApplicatorData"><path codeLine="44" d="M1211,113.28 C1211,152.23 1211,209.4 1211,244.47 " fill="none" id="Application-to-ApplicatorData" style="stroke:#181818;stroke-width:1.0;"/><polygon fill="#181818" points="1211,250.47,1215,241.47,1211,245.47,1207,241.47,1211,250.47" style="stroke:#181818;stroke-width:1.0;"/><text fill="#000000" font-family="sans-serif" font-size="13" lengthAdjust="spacing" textLength="7" x="1203.4203" y="134.5385">1</text><text fill="#000000" font-family="sans-serif" font-size="13" lengthAdjust="spacing" textLength="7" x="1203.1469" y="239.0462">1</text></g><!--link Application to ApplicationStatus--><g id="link_Application_ApplicationStatus"><path codeLine="45" d="M1241.26,113.23 C1256.34,130.16 1274.76,151.05 1291,170 C1314.19,197.06 1336.3862,223.8898 1354.0762,245.4698 " fill="none" id="Application-to-ApplicationStatus" style="stroke:#181818;stroke-width:1.0;"/><polygon fill="#181818" points="1357.88,250.11,1355.2678,240.6139,1354.7102,246.2432,1349.0809,245.6855,1357.88,250.11" style="stroke:#181818;stroke-width:1.0;"/><text fill="#000000" font-family="sans-serif" font-size="13" lengthAdjust="spacing" textLength="7" x="1238.6921" y="134.4802">1</text><text fill="#000000" font-family="sans-serif" font-size="13" lengthAdjust="spacing" textLength="7" x="1345.1866" y="239.0364">1</text></g><!--link JobOpening to JobReference--><g id="link_JobOpening_JobReference"><path codeLine="84" d="M386.82,441.32 C325.22,449.17 231.29,467.22 160,508 C140.28,519.28 126.1867,532.5034 112.5367,548.2734 " fill="none" id="JobOpening-to-JobReference" style="stroke:#181818;stroke-width:1.0;"/><polygon fill="#181818" points="108.61,552.81,117.5245,548.6229,111.8823,549.0295,111.4757,543.3873,108.61,552.81" style="stroke:#181818;stroke-width:1.0;"/><text fill="#000000" font-family="sans-serif" font-size="13" lengthAdjust="spacing" textLength="7" x="371.9945" y="438.1973">1</text><text fill="#000000" font-family="sans-serif" font-size="13" lengthAdjust="spacing" textLength="7" x="105.8247" y="541.6765">1</text></g><!--link JobOpening to TitleOrFunction--><g id="link_JobOpening_TitleOrFunction"><path codeLine="85" d="M386.95,468.4 C366.49,479.94 344.19,493.63 325,508 C303.86,523.83 286.5628,540.2887 270.8928,556.4787 " fill="none" id="JobOpening-to-TitleOrFunction" style="stroke:#181818;stroke-width:1.0;"/><polygon fill="#181818" points="266.72,560.79,275.8535,557.1049,270.1974,557.1972,270.1051,551.5411,266.72,560.79" style="stroke:#181818;stroke-width:1.0;"/><text fill="#000000" font-family="sans-serif" font-size="13" lengthAdjust="spacing" textLength="7" x="372.1395" y="468.4084">1</text><text fill="#000000" font-family="sans-serif" font-size="13" lengthAdjust="spacing" textLength="7" x="264.3959" y="549.758">1</text></g><!--reverse link ContractType to JobOpening--><g id="link_ContractType_JobOpening"><path codeLine="86" d="M514.175,335.2568 C499.425,358.1968 485.77,379.43 472.71,399.74 " fill="none" id="ContractType-backto-JobOpening" style="stroke:#181818;stroke-width:1.0;"/><polygon fill="#181818" points="517.42,330.21,509.188,335.6169,514.7158,334.4157,515.917,339.9435,517.42,330.21" style="stroke:#181818;stroke-width:1.0;"/><text fill="#000000" font-family="sans-serif" font-size="13" lengthAdjust="spacing" textLength="7" x="505.9009" y="351.7901">1</text><text fill="#000000" font-family="sans-serif" font-size="13" lengthAdjust="spacing" textLength="7" x="469.0675" y="388.8612">1</text></g><!--reverse link Mode to JobOpening--><g id="link_Mode_JobOpening"><path codeLine="87" d="M421.8791,344.7114 C428.6291,365.3014 434.06,381.84 439.87,399.56 " fill="none" id="Mode-backto-JobOpening" style="stroke:#181818;stroke-width:1.0;"/><polygon fill="#181818" points="420.01,339.01,419.0127,348.8082,421.5676,343.7612,426.6146,346.3161,420.01,339.01" style="stroke:#181818;stroke-width:1.0;"/><text fill="#000000" font-family="sans-serif" font-size="13" lengthAdjust="spacing" textLength="7" x="415.0222" y="361.6247">1</text><text fill="#000000" font-family="sans-serif" font-size="13" lengthAdjust="spacing" textLength="7" x="430.1726" y="388.648">1</text></g><!--link JobOpening to Description--><g id="link_JobOpening_Description"><path codeLine="88" d="M479.85,469.01 C503.64,496.64 532.9864,530.7221 554.7664,556.0321 " fill="none" id="JobOpening-to-Description" style="stroke:#181818;stroke-width:1.0;"/><polygon fill="#181818" points="558.68,560.58,555.8415,551.149,555.4187,556.7901,549.7776,556.3672,558.68,560.58" style="stroke:#181818;stroke-width:1.0;"/><text fill="#000000" font-family="sans-serif" font-size="13" lengthAdjust="spacing" textLength="7" x="477.207" y="490.4949">1</text><text fill="#000000" font-family="sans-serif" font-size="13" lengthAdjust="spacing" textLength="7" x="546.0319" y="549.9377">1</text></g><!--link JobOpening to VacanciesNumber--><g id="link_JobOpening_VacanciesNumber"><path codeLine="89" d="M443.23,469.01 C436.83,496.64 429.2234,529.4246 423.3634,554.7346 " fill="none" id="JobOpening-to-VacanciesNumber" style="stroke:#181818;stroke-width:1.0;"/><polygon fill="#181818" points="422.01,560.58,427.937,552.7142,423.1378,555.7089,420.1431,550.9097,422.01,560.58" style="stroke:#181818;stroke-width:1.0;"/><text fill="#000000" font-family="sans-serif" font-size="13" lengthAdjust="spacing" textLength="7" x="434.293" y="490.4949">1</text><text fill="#000000" font-family="sans-serif" font-size="13" lengthAdjust="spacing" textLength="7" x="415.5591" y="549.9377">1</text></g><!--link Candidate to PhoneNumber--><g id="link_Candidate_PhoneNumber"><path codeLine="100" d="M1696,311.74 C1696,340.5 1696,375.25 1696,401.52 " fill="none" id="Candidate-to-PhoneNumber" style="stroke:#181818;stroke-width:1.0;"/><polygon fill="#181818" points="1696,407.52,1700,398.52,1696,402.52,1692,398.52,1696,407.52" style="stroke:#181818;stroke-width:1.0;"/><text fill="#000000" font-family="sans-serif" font-size="13" lengthAdjust="spacing" textLength="7" x="1688.4203" y="332.9919">1</text><text fill="#000000" font-family="sans-serif" font-size="13" lengthAdjust="spacing" textLength="7" x="1688.2344" y="396.8646">1</text></g><!--link Candidate to CurriculumVitae--><g id="link_Candidate_CurriculumVitae"><path codeLine="101" d="M1760.13,277 C1771.69,277 1777.25,277 1788.8,277 " fill="none" id="Candidate-to-CurriculumVitae" style="stroke:#181818;stroke-width:1.0;"/><polygon fill="#181818" points="1794.8,277,1785.8,273,1789.8,277,1785.8,281,1794.8,277" style="stroke:#181818;stroke-width:1.0;"/><text fill="#000000" font-family="sans-serif" font-size="13" lengthAdjust="spacing" textLength="7" x="1780.1766" y="273.1374">1</text></g><!--link Application to Candidate--><g id="link_Application_Candidate"><path codeLine="102" d="M1275.12,87.79 C1372.93,101.48 1553.48,131.22 1605,170 C1631.74,190.13 1652.5317,214.5364 1669.3017,237.2064 " fill="none" id="Application-to-Candidate" style="stroke:#181818;stroke-width:1.0;"/><polygon fill="#181818" points="1672.87,242.03,1670.7334,232.4157,1669.8964,238.0103,1664.3018,237.1734,1672.87,242.03" style="stroke:#181818;stroke-width:1.0;"/><text fill="#000000" font-family="sans-serif" font-size="13" lengthAdjust="spacing" textLength="75" x="1590" y="158.0283">submitted by</text><text fill="#000000" font-family="sans-serif" font-size="13" lengthAdjust="spacing" textLength="7" x="1282.9386" y="84.9529">1</text><text fill="#000000" font-family="sans-serif" font-size="13" lengthAdjust="spacing" textLength="7" x="1660.9601" y="231.1125">1</text></g><!--link Application to JobOpening--><g id="link_Application_JobOpening"><path codeLine="103" d="M1275.06,82.3 C1335.73,88.78 1423.79,108.9 1467,170 C1510.37,231.33 1517.59,283.48 1467,339 C1402.79,409.46 734.2688,428.1221 521.1488,432.3121 " fill="none" id="Application-to-JobOpening" style="stroke:#181818;stroke-width:1.0;"/><polygon fill="#181818" points="515.15,432.43,524.2269,436.2523,520.149,432.3317,524.0696,428.2539,515.15,432.43" style="stroke:#181818;stroke-width:1.0;"/><text fill="#000000" font-family="sans-serif" font-size="13" lengthAdjust="spacing" textLength="75" x="1503" y="282.5283">submitted for</text><text fill="#000000" font-family="sans-serif" font-size="13" lengthAdjust="spacing" textLength="5" x="1283.172" y="97.873">*</text><text fill="#000000" font-family="sans-serif" font-size="13" lengthAdjust="spacing" textLength="7" x="522.972" y="428.2794">1</text></g><!--link JobOpening to Plugin--><g id="link_JobOpening_Plugin"><path codeLine="104" d="M515.39,457.31 C555.5,471.19 608.04,489.9 654,508 C693.54,523.57 731.8002,539.9687 766.4902,555.2687 " fill="none" id="JobOpening-to-Plugin" style="stroke:#181818;stroke-width:1.0;"/><polygon fill="#181818" points="771.98,557.69,765.3595,550.3983,767.4052,555.6723,762.1312,557.718,771.98,557.69" style="stroke:#181818;stroke-width:1.0;"/><text fill="#000000" font-family="sans-serif" font-size="13" lengthAdjust="spacing" textLength="7" x="522.8155" y="455.9444">1</text><text fill="#000000" font-family="sans-serif" font-size="13" lengthAdjust="spacing" textLength="20" x="743.8841" y="550.5691">1..*</text></g><!--SRC=[ZLPTRvim57tdLrZi8LAdqFMrGf6oX6vKAOa8pTIdoPXRy0I66REgglhVPmW1Go31YPJWUuxlXu-lcKL2PFdzxMqMOoQA93P8cjoI6EVvFA0uv3ZHj8W6W18GKHhaciQ12Cp2692-YulGPZhwukFoWpuq94V5HgMDCcIQop3a4681o4rJiLYOfiK45U-BnSVd6Tvxpy0q3pWk06tzFzBL8CmEJDCEe5vd0c4DEU4q4pHb5z6Fc3_G-788BlmjA8T4kZTD5_Aqu0Hw69i9uFyel3sb0SGzsAScHrqV_Kv7y_cY-crBqB5o6aQY0x63SRgIwH2eJb3JwZ_Lv5V3aDORlHSskaUqCv4FivI2I0fldxfgUKnzjCs0KHQYPPR5bE0oIYaVZ0dnVIaVfO8Aueg6XabN9QBIXC0aWi1AC8sdGKTKCX1BojTOu6bO6VTUO57aGt3vLN2TNUtaFOvIqxoAgcHopU4nkIbn7VFInXHHDX6V48oxAf286Z1T19BZmYjmO0IcQy2Z8eOjVoWO6UaI5HXOaQ1LoWJ7H1oxbIMdWCkuWW4V5QaS3y-RpM_FVhAQcTtIzTePTVtoi4rTrxMUjbwxwDQPxstb-UVBTzTUDuzbwsbpFc226Q6GEqNY0xzSeCijTARDb9uRuHoaC23lxD6iIR02JAdU3FN6ShVRsAkbPs-TS-D-vLgMOpi_passurdkmRP-xGVMT9QRbxqzO76j_VF6wyxNUIZIR2N_pJ3AHjoaNqFRYMx3FbMXFDggQYkhEI-o-R5dDvwqdah7WQf4QzGPffJPc4tPxN4dFVsC0pl7Nd826fJdM3R-yj2hhmshat7oYyEgu9oI8YwI0nNuojj3b3AeW-q3gmRRkEzjL4DJ49sBkHV5UKSCqZTsmZPBtAEyy1CgfFgH_zubtPJ-JxTsgpMLyffoRKY6TuOXsVhn-jSrxJy0]--></g></svg>