<?xml version="1.0" encoding="us-ascii" standalone="no"?><svg xmlns="http://www.w3.org/2000/svg" xmlns:xlink="http://www.w3.org/1999/xlink" contentStyleType="text/css" height="476px" preserveAspectRatio="none" style="width:533px;height:476px;background:#FFFFFF;" version="1.1" viewBox="0 0 533 476" width="533px" zoomAndPan="magnify"><defs/><g><text fill="#000000" font-family="sans-serif" font-size="14" font-weight="bold" lengthAdjust="spacing" textLength="505" x="10" y="30.1074">System Sequence Diagram (SSD) -  Record an interview with a candidate</text><rect fill="#FFFFFF" height="242.3281" style="stroke:#181818;stroke-width:1.0;" width="10" x="108.25" y="133.2422"/><rect fill="#FFFFFF" height="31.291" style="stroke:#181818;stroke-width:1.0;" width="10" x="439.25" y="156.5332"/><rect fill="#FFFFFF" height="31.291" style="stroke:#181818;stroke-width:1.0;" width="10" x="439.25" y="219.1152"/><rect fill="#FFFFFF" height="31.291" style="stroke:#181818;stroke-width:1.0;" width="10" x="439.25" y="281.6973"/><rect fill="#FFFFFF" height="31.291" style="stroke:#181818;stroke-width:1.0;" width="10" x="439.25" y="344.2793"/><line style="stroke:#181818;stroke-width:0.5;stroke-dasharray:5.0,5.0;" x1="112.75" x2="112.75" y1="123.2422" y2="393.5703"/><line style="stroke:#181818;stroke-width:0.5;stroke-dasharray:5.0,5.0;" x1="444.25" x2="444.25" y1="123.2422" y2="393.5703"/><text fill="#000000" font-family="sans-serif" font-size="14" lengthAdjust="spacing" textLength="121" x="49.75" y="119.7285">Customer Manager</text><ellipse cx="113.25" cy="53.1211" fill="#E2E2F0" rx="8" ry="8" style="stroke:#181818;stroke-width:0.5;"/><path d="M113.25,61.1211 L113.25,88.1211 M100.25,69.1211 L126.25,69.1211 M113.25,88.1211 L100.25,103.1211 M113.25,88.1211 L126.25,103.1211 " fill="none" style="stroke:#181818;stroke-width:0.5;"/><text fill="#000000" font-family="sans-serif" font-size="14" lengthAdjust="spacing" textLength="121" x="49.75" y="407.6777">Customer Manager</text><ellipse cx="113.25" cy="419.6914" fill="#E2E2F0" rx="8" ry="8" style="stroke:#181818;stroke-width:0.5;"/><path d="M113.25,427.6914 L113.25,454.6914 M100.25,435.6914 L126.25,435.6914 M113.25,454.6914 L100.25,469.6914 M113.25,454.6914 L126.25,469.6914 " fill="none" style="stroke:#181818;stroke-width:0.5;"/><rect fill="#E2E2F0" height="32.6211" rx="2.5" ry="2.5" style="stroke:#181818;stroke-width:0.5;" width="64" x="412.25" y="89.6211"/><text fill="#000000" font-family="sans-serif" font-size="14" lengthAdjust="spacing" textLength="50" x="419.25" y="111.7285">:System</text><rect fill="#E2E2F0" height="32.6211" rx="2.5" ry="2.5" style="stroke:#181818;stroke-width:0.5;" width="64" x="412.25" y="392.5703"/><text fill="#000000" font-family="sans-serif" font-size="14" lengthAdjust="spacing" textLength="50" x="419.25" y="414.6777">:System</text><rect fill="#FFFFFF" height="242.3281" style="stroke:#181818;stroke-width:1.0;" width="10" x="108.25" y="133.2422"/><rect fill="#FFFFFF" height="31.291" style="stroke:#181818;stroke-width:1.0;" width="10" x="439.25" y="156.5332"/><rect fill="#FFFFFF" height="31.291" style="stroke:#181818;stroke-width:1.0;" width="10" x="439.25" y="219.1152"/><rect fill="#FFFFFF" height="31.291" style="stroke:#181818;stroke-width:1.0;" width="10" x="439.25" y="281.6973"/><rect fill="#FFFFFF" height="31.291" style="stroke:#181818;stroke-width:1.0;" width="10" x="439.25" y="344.2793"/><polygon fill="#181818" points="427.25,152.5332,437.25,156.5332,427.25,160.5332,431.25,156.5332" style="stroke:#181818;stroke-width:1.0;"/><line style="stroke:#181818;stroke-width:1.0;" x1="118.25" x2="433.25" y1="156.5332" y2="156.5332"/><text fill="#000000" font-family="sans-serif" font-size="13" lengthAdjust="spacing" textLength="246" x="125.25" y="151.2705">Requests to Upload Interview Answers File</text><polygon fill="#181818" points="129.25,183.8242,119.25,187.8242,129.25,191.8242,125.25,187.8242" style="stroke:#181818;stroke-width:1.0;"/><line style="stroke:#181818;stroke-width:1.0;stroke-dasharray:2.0,2.0;" x1="123.25" x2="443.25" y1="187.8242" y2="187.8242"/><text fill="#000000" font-family="sans-serif" font-size="13" lengthAdjust="spacing" textLength="160" x="135.25" y="182.5615">Displays the candidates list</text><polygon fill="#181818" points="427.25,215.1152,437.25,219.1152,427.25,223.1152,431.25,219.1152" style="stroke:#181818;stroke-width:1.0;"/><line style="stroke:#181818;stroke-width:1.0;" x1="118.25" x2="433.25" y1="219.1152" y2="219.1152"/><text fill="#000000" font-family="sans-serif" font-size="13" lengthAdjust="spacing" textLength="108" x="125.25" y="213.8525">Select a candidate</text><polygon fill="#181818" points="129.25,246.4063,119.25,250.4063,129.25,254.4063,125.25,250.4063" style="stroke:#181818;stroke-width:1.0;"/><line style="stroke:#181818;stroke-width:1.0;stroke-dasharray:2.0,2.0;" x1="123.25" x2="443.25" y1="250.4063" y2="250.4063"/><text fill="#000000" font-family="sans-serif" font-size="13" lengthAdjust="spacing" textLength="292" x="135.25" y="245.1436">Show all job applications of the selected candidate</text><polygon fill="#181818" points="427.25,277.6973,437.25,281.6973,427.25,285.6973,431.25,281.6973" style="stroke:#181818;stroke-width:1.0;"/><line style="stroke:#181818;stroke-width:1.0;" x1="118.25" x2="433.25" y1="281.6973" y2="281.6973"/><text fill="#000000" font-family="sans-serif" font-size="13" lengthAdjust="spacing" textLength="121" x="125.25" y="276.4346">Selects a application</text><polygon fill="#181818" points="129.25,308.9883,119.25,312.9883,129.25,316.9883,125.25,312.9883" style="stroke:#181818;stroke-width:1.0;"/><line style="stroke:#181818;stroke-width:1.0;stroke-dasharray:2.0,2.0;" x1="123.25" x2="443.25" y1="312.9883" y2="312.9883"/><text fill="#000000" font-family="sans-serif" font-size="13" lengthAdjust="spacing" textLength="288" x="135.25" y="307.7256">Requests the path of the file that's being uploaded</text><polygon fill="#181818" points="427.25,340.2793,437.25,344.2793,427.25,348.2793,431.25,344.2793" style="stroke:#181818;stroke-width:1.0;"/><line style="stroke:#181818;stroke-width:1.0;" x1="118.25" x2="433.25" y1="344.2793" y2="344.2793"/><text fill="#000000" font-family="sans-serif" font-size="13" lengthAdjust="spacing" textLength="156" x="125.25" y="339.0166">Provides the path of the file</text><polygon fill="#181818" points="124.25,371.5703,114.25,375.5703,124.25,379.5703,120.25,375.5703" style="stroke:#181818;stroke-width:1.0;"/><line style="stroke:#181818;stroke-width:1.0;stroke-dasharray:2.0,2.0;" x1="118.25" x2="443.25" y1="375.5703" y2="375.5703"/><text fill="#000000" font-family="sans-serif" font-size="13" lengthAdjust="spacing" textLength="297" x="130.25" y="370.3076">Confirmation that the file has been properly updated</text><!--SRC=[ZP9DRkCm34RtFWMHJMOMkK0M1Oe40tHHe1YZ1s0bncOhIngHYP7R3wtykMW6qvK4YNvy_AobV73CM7208SNa-f860YrxQfQtgupk0pjgzHW82Zd5s8LF5TAZJoF73dOOX9f6MQssFOhI02tzsLDq15l6RYh_qRRRdx02-4qk5GyOWQDIEJ2DCBBsWE0mUlQe1aEdgS1YinSrlGBF64sdB0057ZkAsfY5ikECKM6nFhMjrwTjHV31OEVwfYwmUhWehat594K5DC5h3WazF5sT7gECL0H-iSrzPLtWPyRAS9Mxja4b1pmQhAVR90A1HHjF5y8zZvQ29VmfWFysd3xhqmWO0hodDy2S0pjKJb4WxQg5L2xv6NScyYyFCP4PxQlAFPTRbDOte_tEiyFEuhCDwbBWZQRdigz9av-vND5VdLvAEh2d- -3lkMrIt74PwZHLvIRMusH54N99cKeucjsKqrsvsT7fIVq5]--></g></svg>