<?xml version="1.0" encoding="us-ascii" standalone="no"?><svg xmlns="http://www.w3.org/2000/svg" xmlns:xlink="http://www.w3.org/1999/xlink" contentStyleType="text/css" height="1125px" preserveAspectRatio="none" style="width:1990px;height:1125px;background:#FFFFFF;" version="1.1" viewBox="0 0 1990 1125" width="1990px" zoomAndPan="magnify"><defs/><g><rect fill="#FFFFFF" height="930.7305" style="stroke:#181818;stroke-width:1.0;" width="10" x="61.5" y="93.6211"/><rect fill="#FFFFFF" height="281.6191" style="stroke:#181818;stroke-width:1.0;" width="10" x="392.5" y="116.9121"/><rect fill="#FFFFFF" height="594.5293" style="stroke:#181818;stroke-width:1.0;" width="10" x="392.5" y="429.8223"/><rect fill="#FFFFFF" height="219.0371" style="stroke:#181818;stroke-width:1.0;" width="10" x="618" y="148.2031"/><rect fill="#FFFFFF" height="219.0371" style="stroke:#181818;stroke-width:1.0;" width="10" x="850.5" y="461.1133"/><rect fill="#FFFFFF" height="156.4551" style="stroke:#181818;stroke-width:1.0;" width="10" x="850.5" y="836.6055"/><rect fill="#FFFFFF" height="31.291" style="stroke:#181818;stroke-width:1.0;" width="10" x="1039.5" y="179.4941"/><rect fill="#FFFFFF" height="31.291" style="stroke:#181818;stroke-width:1.0;" width="10" x="1039.5" y="492.4043"/><rect fill="#FFFFFF" height="31.291" style="stroke:#181818;stroke-width:1.0;" width="10" x="1182.5" y="242.0762"/><rect fill="#FFFFFF" height="31.291" style="stroke:#181818;stroke-width:1.0;" width="10" x="1182.5" y="554.9863"/><rect fill="#FFFFFF" height="31.291" style="stroke:#181818;stroke-width:1.0;" width="10" x="1331" y="304.6582"/><rect fill="#FFFFFF" height="31.291" style="stroke:#181818;stroke-width:1.0;" width="10" x="1528" y="617.5684"/><rect fill="#FFFFFF" height="93.873" style="stroke:#181818;stroke-width:1.0;" width="10" x="1716.5" y="867.8965"/><rect fill="#FFFFFF" height="31.291" style="stroke:#181818;stroke-width:1.0;" width="10" x="1934.5" y="899.1875"/><line style="stroke:#181818;stroke-width:0.5;stroke-dasharray:5.0,5.0;" x1="66" x2="66" y1="83.6211" y2="1042.3516"/><line style="stroke:#181818;stroke-width:0.5;stroke-dasharray:5.0,5.0;" x1="397.5" x2="397.5" y1="83.6211" y2="1042.3516"/><line style="stroke:#181818;stroke-width:0.5;stroke-dasharray:5.0,5.0;" x1="622.5" x2="622.5" y1="83.6211" y2="1042.3516"/><line style="stroke:#181818;stroke-width:0.5;stroke-dasharray:5.0,5.0;" x1="855.5" x2="855.5" y1="83.6211" y2="1042.3516"/><line style="stroke:#181818;stroke-width:0.5;stroke-dasharray:5.0,5.0;" x1="1044.5" x2="1044.5" y1="83.6211" y2="1042.3516"/><line style="stroke:#181818;stroke-width:0.5;stroke-dasharray:5.0,5.0;" x1="1187.5" x2="1187.5" y1="83.6211" y2="1042.3516"/><line style="stroke:#181818;stroke-width:0.5;stroke-dasharray:5.0,5.0;" x1="1335.5" x2="1335.5" y1="83.6211" y2="1042.3516"/><line style="stroke:#181818;stroke-width:0.5;stroke-dasharray:5.0,5.0;" x1="1532.5" x2="1532.5" y1="83.6211" y2="1042.3516"/><line style="stroke:#181818;stroke-width:0.5;stroke-dasharray:5.0,5.0;" x1="1721.5" x2="1721.5" y1="83.6211" y2="1042.3516"/><line style="stroke:#181818;stroke-width:0.5;stroke-dasharray:5.0,5.0;" x1="1939.5" x2="1939.5" y1="83.6211" y2="1042.3516"/><text fill="#000000" font-family="sans-serif" font-size="14" lengthAdjust="spacing" textLength="117" x="5" y="80.1074">CustomerManager</text><ellipse cx="66.5" cy="13.5" fill="#E2E2F0" rx="8" ry="8" style="stroke:#181818;stroke-width:0.5;"/><path d="M66.5,21.5 L66.5,48.5 M53.5,29.5 L79.5,29.5 M66.5,48.5 L53.5,63.5 M66.5,48.5 L79.5,63.5 " fill="none" style="stroke:#181818;stroke-width:0.5;"/><text fill="#000000" font-family="sans-serif" font-size="14" lengthAdjust="spacing" textLength="117" x="5" y="1056.459">CustomerManager</text><ellipse cx="66.5" cy="1068.4727" fill="#E2E2F0" rx="8" ry="8" style="stroke:#181818;stroke-width:0.5;"/><path d="M66.5,1076.4727 L66.5,1103.4727 M53.5,1084.4727 L79.5,1084.4727 M66.5,1103.4727 L53.5,1118.4727 M66.5,1103.4727 L79.5,1118.4727 " fill="none" style="stroke:#181818;stroke-width:0.5;"/><rect fill="#E2E2F0" height="51.2422" rx="2.5" ry="2.5" style="stroke:#181818;stroke-width:0.5;" width="208" x="293.5" y="31.3789"/><text fill="#000000" font-family="sans-serif" font-size="14" font-style="italic" lengthAdjust="spacing" textLength="30" x="382.5" y="53.4863">&#171;UI&#187;</text><text fill="#000000" font-family="sans-serif" font-size="14" lengthAdjust="spacing" textLength="194" x="300.5" y="72.1074">CandidateManagementService</text><rect fill="#E2E2F0" height="51.2422" rx="2.5" ry="2.5" style="stroke:#181818;stroke-width:0.5;" width="208" x="293.5" y="1041.3516"/><text fill="#000000" font-family="sans-serif" font-size="14" font-style="italic" lengthAdjust="spacing" textLength="30" x="382.5" y="1063.459">&#171;UI&#187;</text><text fill="#000000" font-family="sans-serif" font-size="14" lengthAdjust="spacing" textLength="194" x="300.5" y="1082.0801">CandidateManagementService</text><rect fill="#E2E2F0" height="51.2422" rx="2.5" ry="2.5" style="stroke:#181818;stroke-width:0.5;" width="223" x="511.5" y="31.3789"/><text fill="#000000" font-family="sans-serif" font-size="14" font-style="italic" lengthAdjust="spacing" textLength="62" x="592" y="53.4863">&#171;Service&#187;</text><text fill="#000000" font-family="sans-serif" font-size="14" lengthAdjust="spacing" textLength="209" x="518.5" y="72.1074">ListAllDataOfCandidateController</text><rect fill="#E2E2F0" height="51.2422" rx="2.5" ry="2.5" style="stroke:#181818;stroke-width:0.5;" width="223" x="511.5" y="1041.3516"/><text fill="#000000" font-family="sans-serif" font-size="14" font-style="italic" lengthAdjust="spacing" textLength="62" x="592" y="1063.459">&#171;Service&#187;</text><text fill="#000000" font-family="sans-serif" font-size="14" lengthAdjust="spacing" textLength="209" x="518.5" y="1082.0801">ListAllDataOfCandidateController</text><rect fill="#E2E2F0" height="51.2422" rx="2.5" ry="2.5" style="stroke:#181818;stroke-width:0.5;" width="222" x="744.5" y="31.3789"/><text fill="#000000" font-family="sans-serif" font-size="14" font-style="italic" lengthAdjust="spacing" textLength="78" x="816.5" y="53.4863">&#171;Controller&#187;</text><text fill="#000000" font-family="sans-serif" font-size="14" lengthAdjust="spacing" textLength="208" x="751.5" y="72.1074">UpdateInterviewAnswerController</text><rect fill="#E2E2F0" height="51.2422" rx="2.5" ry="2.5" style="stroke:#181818;stroke-width:0.5;" width="222" x="744.5" y="1041.3516"/><text fill="#000000" font-family="sans-serif" font-size="14" font-style="italic" lengthAdjust="spacing" textLength="78" x="816.5" y="1063.459">&#171;Controller&#187;</text><text fill="#000000" font-family="sans-serif" font-size="14" lengthAdjust="spacing" textLength="208" x="751.5" y="1082.0801">UpdateInterviewAnswerController</text><rect fill="#E2E2F0" height="51.2422" rx="2.5" ry="2.5" style="stroke:#181818;stroke-width:0.5;" width="136" x="976.5" y="31.3789"/><text fill="#000000" font-family="sans-serif" font-size="14" font-style="italic" lengthAdjust="spacing" textLength="62" x="1013.5" y="53.4863">&#171;Service&#187;</text><text fill="#000000" font-family="sans-serif" font-size="14" lengthAdjust="spacing" textLength="122" x="983.5" y="72.1074">PersistenceContext</text><rect fill="#E2E2F0" height="51.2422" rx="2.5" ry="2.5" style="stroke:#181818;stroke-width:0.5;" width="136" x="976.5" y="1041.3516"/><text fill="#000000" font-family="sans-serif" font-size="14" font-style="italic" lengthAdjust="spacing" textLength="62" x="1013.5" y="1063.459">&#171;Service&#187;</text><text fill="#000000" font-family="sans-serif" font-size="14" lengthAdjust="spacing" textLength="122" x="983.5" y="1082.0801">PersistenceContext</text><rect fill="#E2E2F0" height="51.2422" rx="2.5" ry="2.5" style="stroke:#181818;stroke-width:0.5;" width="130" x="1122.5" y="31.3789"/><text fill="#000000" font-family="sans-serif" font-size="14" font-style="italic" lengthAdjust="spacing" textLength="90" x="1142.5" y="53.4863">&#171;Persistence&#187;</text><text fill="#000000" font-family="sans-serif" font-size="14" lengthAdjust="spacing" textLength="116" x="1129.5" y="72.1074">RepositoryFactory</text><rect fill="#E2E2F0" height="51.2422" rx="2.5" ry="2.5" style="stroke:#181818;stroke-width:0.5;" width="130" x="1122.5" y="1041.3516"/><text fill="#000000" font-family="sans-serif" font-size="14" font-style="italic" lengthAdjust="spacing" textLength="90" x="1142.5" y="1063.459">&#171;Persistence&#187;</text><text fill="#000000" font-family="sans-serif" font-size="14" lengthAdjust="spacing" textLength="116" x="1129.5" y="1082.0801">RepositoryFactory</text><rect fill="#E2E2F0" height="51.2422" rx="2.5" ry="2.5" style="stroke:#181818;stroke-width:0.5;" width="147" x="1262.5" y="31.3789"/><text fill="#000000" font-family="sans-serif" font-size="14" font-style="italic" lengthAdjust="spacing" textLength="90" x="1291" y="53.4863">&#171;Persistence&#187;</text><text fill="#000000" font-family="sans-serif" font-size="14" lengthAdjust="spacing" textLength="133" x="1269.5" y="72.1074">CandidateRepository</text><rect fill="#E2E2F0" height="51.2422" rx="2.5" ry="2.5" style="stroke:#181818;stroke-width:0.5;" width="147" x="1262.5" y="1041.3516"/><text fill="#000000" font-family="sans-serif" font-size="14" font-style="italic" lengthAdjust="spacing" textLength="90" x="1291" y="1063.459">&#171;Persistence&#187;</text><text fill="#000000" font-family="sans-serif" font-size="14" lengthAdjust="spacing" textLength="133" x="1269.5" y="1082.0801">CandidateRepository</text><rect fill="#E2E2F0" height="51.2422" rx="2.5" ry="2.5" style="stroke:#181818;stroke-width:0.5;" width="227" x="1419.5" y="31.3789"/><text fill="#000000" font-family="sans-serif" font-size="14" font-style="italic" lengthAdjust="spacing" textLength="90" x="1488" y="53.4863">&#171;Persistence&#187;</text><text fill="#000000" font-family="sans-serif" font-size="14" lengthAdjust="spacing" textLength="213" x="1426.5" y="72.1074">JobOpeningApplicationRepository</text><rect fill="#E2E2F0" height="51.2422" rx="2.5" ry="2.5" style="stroke:#181818;stroke-width:0.5;" width="227" x="1419.5" y="1041.3516"/><text fill="#000000" font-family="sans-serif" font-size="14" font-style="italic" lengthAdjust="spacing" textLength="90" x="1488" y="1063.459">&#171;Persistence&#187;</text><text fill="#000000" font-family="sans-serif" font-size="14" lengthAdjust="spacing" textLength="213" x="1426.5" y="1082.0801">JobOpeningApplicationRepository</text><rect fill="#E2E2F0" height="51.2422" rx="2.5" ry="2.5" style="stroke:#181818;stroke-width:0.5;" width="130" x="1656.5" y="31.3789"/><text fill="#000000" font-family="sans-serif" font-size="14" font-style="italic" lengthAdjust="spacing" textLength="62" x="1690.5" y="53.4863">&#171;Service&#187;</text><text fill="#000000" font-family="sans-serif" font-size="14" lengthAdjust="spacing" textLength="116" x="1663.5" y="72.1074">ApplicationService</text><rect fill="#E2E2F0" height="51.2422" rx="2.5" ry="2.5" style="stroke:#181818;stroke-width:0.5;" width="130" x="1656.5" y="1041.3516"/><text fill="#000000" font-family="sans-serif" font-size="14" font-style="italic" lengthAdjust="spacing" textLength="62" x="1690.5" y="1063.459">&#171;Service&#187;</text><text fill="#000000" font-family="sans-serif" font-size="14" lengthAdjust="spacing" textLength="116" x="1663.5" y="1082.0801">ApplicationService</text><rect fill="#E2E2F0" height="51.2422" rx="2.5" ry="2.5" style="stroke:#181818;stroke-width:0.5;" width="90" x="1894.5" y="31.3789"/><text fill="#000000" font-family="sans-serif" font-size="14" font-style="italic" lengthAdjust="spacing" textLength="64" x="1907.5" y="53.4863">&#171;Domain&#187;</text><text fill="#000000" font-family="sans-serif" font-size="14" lengthAdjust="spacing" textLength="76" x="1901.5" y="72.1074">Applications</text><rect fill="#E2E2F0" height="51.2422" rx="2.5" ry="2.5" style="stroke:#181818;stroke-width:0.5;" width="90" x="1894.5" y="1041.3516"/><text fill="#000000" font-family="sans-serif" font-size="14" font-style="italic" lengthAdjust="spacing" textLength="64" x="1907.5" y="1063.459">&#171;Domain&#187;</text><text fill="#000000" font-family="sans-serif" font-size="14" lengthAdjust="spacing" textLength="76" x="1901.5" y="1082.0801">Applications</text><rect fill="#FFFFFF" height="930.7305" style="stroke:#181818;stroke-width:1.0;" width="10" x="61.5" y="93.6211"/><rect fill="#FFFFFF" height="281.6191" style="stroke:#181818;stroke-width:1.0;" width="10" x="392.5" y="116.9121"/><rect fill="#FFFFFF" height="594.5293" style="stroke:#181818;stroke-width:1.0;" width="10" x="392.5" y="429.8223"/><rect fill="#FFFFFF" height="219.0371" style="stroke:#181818;stroke-width:1.0;" width="10" x="618" y="148.2031"/><rect fill="#FFFFFF" height="219.0371" style="stroke:#181818;stroke-width:1.0;" width="10" x="850.5" y="461.1133"/><rect fill="#FFFFFF" height="156.4551" style="stroke:#181818;stroke-width:1.0;" width="10" x="850.5" y="836.6055"/><rect fill="#FFFFFF" height="31.291" style="stroke:#181818;stroke-width:1.0;" width="10" x="1039.5" y="179.4941"/><rect fill="#FFFFFF" height="31.291" style="stroke:#181818;stroke-width:1.0;" width="10" x="1039.5" y="492.4043"/><rect fill="#FFFFFF" height="31.291" style="stroke:#181818;stroke-width:1.0;" width="10" x="1182.5" y="242.0762"/><rect fill="#FFFFFF" height="31.291" style="stroke:#181818;stroke-width:1.0;" width="10" x="1182.5" y="554.9863"/><rect fill="#FFFFFF" height="31.291" style="stroke:#181818;stroke-width:1.0;" width="10" x="1331" y="304.6582"/><rect fill="#FFFFFF" height="31.291" style="stroke:#181818;stroke-width:1.0;" width="10" x="1528" y="617.5684"/><rect fill="#FFFFFF" height="93.873" style="stroke:#181818;stroke-width:1.0;" width="10" x="1716.5" y="867.8965"/><rect fill="#FFFFFF" height="31.291" style="stroke:#181818;stroke-width:1.0;" width="10" x="1934.5" y="899.1875"/><polygon fill="#181818" points="380.5,112.9121,390.5,116.9121,380.5,120.9121,384.5,116.9121" style="stroke:#181818;stroke-width:1.0;"/><line style="stroke:#181818;stroke-width:1.0;" x1="71.5" x2="386.5" y1="116.9121" y2="116.9121"/><text fill="#000000" font-family="sans-serif" font-size="13" lengthAdjust="spacing" textLength="246" x="78.5" y="111.6494">Requests to Upload Interview Answers File</text><polygon fill="#181818" points="606,144.2031,616,148.2031,606,152.2031,610,148.2031" style="stroke:#181818;stroke-width:1.0;"/><line style="stroke:#181818;stroke-width:1.0;" x1="402.5" x2="612" y1="148.2031" y2="148.2031"/><text fill="#000000" font-family="sans-serif" font-size="13" lengthAdjust="spacing" textLength="86" x="409.5" y="142.9404">allCandidates()</text><polygon fill="#181818" points="1027.5,175.4941,1037.5,179.4941,1027.5,183.4941,1031.5,179.4941" style="stroke:#181818;stroke-width:1.0;"/><line style="stroke:#181818;stroke-width:1.0;" x1="628" x2="1033.5" y1="179.4941" y2="179.4941"/><text fill="#000000" font-family="sans-serif" font-size="13" lengthAdjust="spacing" textLength="75" x="635" y="174.2314">repositories()</text><polygon fill="#181818" points="639,206.7852,629,210.7852,639,214.7852,635,210.7852" style="stroke:#181818;stroke-width:1.0;"/><line style="stroke:#181818;stroke-width:1.0;stroke-dasharray:2.0,2.0;" x1="633" x2="1043.5" y1="210.7852" y2="210.7852"/><text fill="#000000" font-family="sans-serif" font-size="13" lengthAdjust="spacing" textLength="67" x="645" y="205.5225">repositories</text><polygon fill="#181818" points="1170.5,238.0762,1180.5,242.0762,1170.5,246.0762,1174.5,242.0762" style="stroke:#181818;stroke-width:1.0;"/><line style="stroke:#181818;stroke-width:1.0;" x1="628" x2="1176.5" y1="242.0762" y2="242.0762"/><text fill="#000000" font-family="sans-serif" font-size="13" lengthAdjust="spacing" textLength="126" x="635" y="236.8135">candidateRepository()</text><polygon fill="#181818" points="639,269.3672,629,273.3672,639,277.3672,635,273.3672" style="stroke:#181818;stroke-width:1.0;"/><line style="stroke:#181818;stroke-width:1.0;stroke-dasharray:2.0,2.0;" x1="633" x2="1186.5" y1="273.3672" y2="273.3672"/><text fill="#000000" font-family="sans-serif" font-size="13" lengthAdjust="spacing" textLength="118" x="645" y="268.1045">candidateRepository</text><polygon fill="#181818" points="1319,300.6582,1329,304.6582,1319,308.6582,1323,304.6582" style="stroke:#181818;stroke-width:1.0;"/><line style="stroke:#181818;stroke-width:1.0;" x1="628" x2="1325" y1="304.6582" y2="304.6582"/><text fill="#000000" font-family="sans-serif" font-size="13" lengthAdjust="spacing" textLength="108" x="635" y="299.3955">findAllCandidates()</text><polygon fill="#181818" points="639,331.9492,629,335.9492,639,339.9492,635,335.9492" style="stroke:#181818;stroke-width:1.0;"/><line style="stroke:#181818;stroke-width:1.0;stroke-dasharray:2.0,2.0;" x1="633" x2="1335" y1="335.9492" y2="335.9492"/><text fill="#000000" font-family="sans-serif" font-size="13" lengthAdjust="spacing" textLength="65" x="645" y="330.6865">Candidates</text><polygon fill="#181818" points="413.5,363.2402,403.5,367.2402,413.5,371.2402,409.5,367.2402" style="stroke:#181818;stroke-width:1.0;"/><line style="stroke:#181818;stroke-width:1.0;stroke-dasharray:2.0,2.0;" x1="407.5" x2="622" y1="367.2402" y2="367.2402"/><text fill="#000000" font-family="sans-serif" font-size="13" lengthAdjust="spacing" textLength="65" x="419.5" y="361.9775">Candidates</text><polygon fill="#181818" points="82.5,394.5313,72.5,398.5313,82.5,402.5313,78.5,398.5313" style="stroke:#181818;stroke-width:1.0;"/><line style="stroke:#181818;stroke-width:1.0;stroke-dasharray:2.0,2.0;" x1="76.5" x2="396.5" y1="398.5313" y2="398.5313"/><text fill="#000000" font-family="sans-serif" font-size="13" lengthAdjust="spacing" textLength="276" x="88.5" y="393.2686">Display Candidates list and asks to choose one</text><polygon fill="#181818" points="380.5,425.8223,390.5,429.8223,380.5,433.8223,384.5,429.8223" style="stroke:#181818;stroke-width:1.0;"/><line style="stroke:#181818;stroke-width:1.0;" x1="71.5" x2="386.5" y1="429.8223" y2="429.8223"/><text fill="#000000" font-family="sans-serif" font-size="13" lengthAdjust="spacing" textLength="144" x="78.5" y="424.5596">Inputs index of candidate</text><polygon fill="#181818" points="838.5,457.1133,848.5,461.1133,838.5,465.1133,842.5,461.1133" style="stroke:#181818;stroke-width:1.0;"/><line style="stroke:#181818;stroke-width:1.0;" x1="402.5" x2="844.5" y1="461.1133" y2="461.1133"/><text fill="#000000" font-family="sans-serif" font-size="13" lengthAdjust="spacing" textLength="262" x="409.5" y="455.8506">allApplicationsById (candidates.get ( index ) )</text><polygon fill="#181818" points="1027.5,488.4043,1037.5,492.4043,1027.5,496.4043,1031.5,492.4043" style="stroke:#181818;stroke-width:1.0;"/><line style="stroke:#181818;stroke-width:1.0;" x1="860.5" x2="1033.5" y1="492.4043" y2="492.4043"/><text fill="#000000" font-family="sans-serif" font-size="13" lengthAdjust="spacing" textLength="75" x="867.5" y="487.1416">repositories()</text><polygon fill="#181818" points="871.5,519.6953,861.5,523.6953,871.5,527.6953,867.5,523.6953" style="stroke:#181818;stroke-width:1.0;"/><line style="stroke:#181818;stroke-width:1.0;stroke-dasharray:2.0,2.0;" x1="865.5" x2="1043.5" y1="523.6953" y2="523.6953"/><text fill="#000000" font-family="sans-serif" font-size="13" lengthAdjust="spacing" textLength="104" x="877.5" y="518.4326">return repositories</text><polygon fill="#181818" points="1170.5,550.9863,1180.5,554.9863,1170.5,558.9863,1174.5,554.9863" style="stroke:#181818;stroke-width:1.0;"/><line style="stroke:#181818;stroke-width:1.0;" x1="860.5" x2="1176.5" y1="554.9863" y2="554.9863"/><text fill="#000000" font-family="sans-serif" font-size="13" lengthAdjust="spacing" textLength="199" x="867.5" y="549.7236">jobOpeningApplicationRepository()</text><polygon fill="#181818" points="871.5,582.2773,861.5,586.2773,871.5,590.2773,867.5,586.2773" style="stroke:#181818;stroke-width:1.0;"/><line style="stroke:#181818;stroke-width:1.0;stroke-dasharray:2.0,2.0;" x1="865.5" x2="1186.5" y1="586.2773" y2="586.2773"/><text fill="#000000" font-family="sans-serif" font-size="13" lengthAdjust="spacing" textLength="228" x="877.5" y="581.0146">return jobOpeningApplicationRepository</text><polygon fill="#181818" points="1516,613.5684,1526,617.5684,1516,621.5684,1520,617.5684" style="stroke:#181818;stroke-width:1.0;"/><line style="stroke:#181818;stroke-width:1.0;" x1="860.5" x2="1522" y1="617.5684" y2="617.5684"/><text fill="#000000" font-family="sans-serif" font-size="13" lengthAdjust="spacing" textLength="374" x="867.5" y="612.3057">findAllApplicationsByCandidateId(candidates.get ( index ).getId())</text><polygon fill="#181818" points="871.5,644.8594,861.5,648.8594,871.5,652.8594,867.5,648.8594" style="stroke:#181818;stroke-width:1.0;"/><line style="stroke:#181818;stroke-width:1.0;stroke-dasharray:2.0,2.0;" x1="865.5" x2="1532" y1="648.8594" y2="648.8594"/><text fill="#000000" font-family="sans-serif" font-size="13" lengthAdjust="spacing" textLength="227" x="877.5" y="643.5967">return Iterable&lt;JobOpeningApplication&gt;</text><polygon fill="#181818" points="413.5,676.1504,403.5,680.1504,413.5,684.1504,409.5,680.1504" style="stroke:#181818;stroke-width:1.0;"/><line style="stroke:#181818;stroke-width:1.0;stroke-dasharray:2.0,2.0;" x1="407.5" x2="854.5" y1="680.1504" y2="680.1504"/><text fill="#000000" font-family="sans-serif" font-size="13" lengthAdjust="spacing" textLength="227" x="419.5" y="674.8877">return Iterable&lt;JobOpeningApplication&gt;</text><polygon fill="#181818" points="82.5,707.4414,72.5,711.4414,82.5,715.4414,78.5,711.4414" style="stroke:#181818;stroke-width:1.0;"/><line style="stroke:#181818;stroke-width:1.0;stroke-dasharray:2.0,2.0;" x1="76.5" x2="391.5" y1="711.4414" y2="711.4414"/><text fill="#000000" font-family="sans-serif" font-size="13" lengthAdjust="spacing" textLength="292" x="88.5" y="706.1787">Show all job applications of the selected candidate</text><polygon fill="#181818" points="380.5,738.7324,390.5,742.7324,380.5,746.7324,384.5,742.7324" style="stroke:#181818;stroke-width:1.0;"/><line style="stroke:#181818;stroke-width:1.0;" x1="71.5" x2="386.5" y1="742.7324" y2="742.7324"/><text fill="#000000" font-family="sans-serif" font-size="13" lengthAdjust="spacing" textLength="121" x="78.5" y="737.4697">Selects a application</text><polygon fill="#181818" points="82.5,770.0234,72.5,774.0234,82.5,778.0234,78.5,774.0234" style="stroke:#181818;stroke-width:1.0;"/><line style="stroke:#181818;stroke-width:1.0;stroke-dasharray:2.0,2.0;" x1="76.5" x2="391.5" y1="774.0234" y2="774.0234"/><text fill="#000000" font-family="sans-serif" font-size="13" lengthAdjust="spacing" textLength="288" x="88.5" y="768.7607">Requests the path of the file that's being uploaded</text><polygon fill="#181818" points="380.5,801.3145,390.5,805.3145,380.5,809.3145,384.5,805.3145" style="stroke:#181818;stroke-width:1.0;"/><line style="stroke:#181818;stroke-width:1.0;" x1="71.5" x2="386.5" y1="805.3145" y2="805.3145"/><text fill="#000000" font-family="sans-serif" font-size="13" lengthAdjust="spacing" textLength="156" x="78.5" y="800.0518">Provides the path of the file</text><polygon fill="#181818" points="838.5,832.6055,848.5,836.6055,838.5,840.6055,842.5,836.6055" style="stroke:#181818;stroke-width:1.0;"/><line style="stroke:#181818;stroke-width:1.0;" x1="402.5" x2="844.5" y1="836.6055" y2="836.6055"/><text fill="#000000" font-family="sans-serif" font-size="13" lengthAdjust="spacing" textLength="283" x="409.5" y="831.3428">uploadInterviewAnswersFile (application, filePath)</text><polygon fill="#181818" points="1704.5,863.8965,1714.5,867.8965,1704.5,871.8965,1708.5,867.8965" style="stroke:#181818;stroke-width:1.0;"/><line style="stroke:#181818;stroke-width:1.0;" x1="860.5" x2="1710.5" y1="867.8965" y2="867.8965"/><text fill="#000000" font-family="sans-serif" font-size="13" lengthAdjust="spacing" textLength="283" x="867.5" y="862.6338">uploadInterviewAnswersFile (application, filePath)</text><polygon fill="#181818" points="1922.5,895.1875,1932.5,899.1875,1922.5,903.1875,1926.5,899.1875" style="stroke:#181818;stroke-width:1.0;"/><line style="stroke:#181818;stroke-width:1.0;" x1="1726.5" x2="1928.5" y1="899.1875" y2="899.1875"/><text fill="#000000" font-family="sans-serif" font-size="13" lengthAdjust="spacing" textLength="189" x="1733.5" y="893.9248">setInterviewAnswersFile(filePath)</text><polygon fill="#181818" points="1737.5,926.4785,1727.5,930.4785,1737.5,934.4785,1733.5,930.4785" style="stroke:#181818;stroke-width:1.0;"/><line style="stroke:#181818;stroke-width:1.0;stroke-dasharray:2.0,2.0;" x1="1731.5" x2="1938.5" y1="930.4785" y2="930.4785"/><text fill="#000000" font-family="sans-serif" font-size="13" lengthAdjust="spacing" textLength="166" x="1743.5" y="925.2158">updatedInterviewAnswersFile</text><polygon fill="#181818" points="871.5,957.7695,861.5,961.7695,871.5,965.7695,867.5,961.7695" style="stroke:#181818;stroke-width:1.0;"/><line style="stroke:#181818;stroke-width:1.0;stroke-dasharray:2.0,2.0;" x1="865.5" x2="1720.5" y1="961.7695" y2="961.7695"/><text fill="#000000" font-family="sans-serif" font-size="13" lengthAdjust="spacing" textLength="166" x="877.5" y="956.5068">updatedInterviewAnswersFile</text><polygon fill="#181818" points="413.5,989.0605,403.5,993.0605,413.5,997.0605,409.5,993.0605" style="stroke:#181818;stroke-width:1.0;"/><line style="stroke:#181818;stroke-width:1.0;stroke-dasharray:2.0,2.0;" x1="407.5" x2="854.5" y1="993.0605" y2="993.0605"/><text fill="#000000" font-family="sans-serif" font-size="13" lengthAdjust="spacing" textLength="166" x="419.5" y="987.7979">updatedInterviewAnswersFile</text><polygon fill="#181818" points="77.5,1020.3516,67.5,1024.3516,77.5,1028.3516,73.5,1024.3516" style="stroke:#181818;stroke-width:1.0;"/><line style="stroke:#181818;stroke-width:1.0;stroke-dasharray:2.0,2.0;" x1="71.5" x2="396.5" y1="1024.3516" y2="1024.3516"/><text fill="#000000" font-family="sans-serif" font-size="13" lengthAdjust="spacing" textLength="297" x="83.5" y="1019.0889">Confirmation that the file has been properly updated</text><!--SRC=[fLLXRzem4FsUNt7gbr5fx0T45H9BXPIgg54oVe2R7CLRi3tRjENVxyw1nA5frsb8HOMyz-xytlaGjTSMieFpUezsBPHuGWl2GRPEZB1Urj88vI4Jgf6DyDX1zgXyXVPPriZWJGutDvjyiHXnxgNpoxQz5LuyR7k1J2jlTTjsPIeYdeGks1l3w5nvVeelI-LUq8x9sO_odlZ3bnSILmLQHqsWgaDPVFLNp2j6HSUK4ersaamvhWHxSmoCSaMKIEsoK7-wWHvuMVanxqu_FXXKKZqjZMbbBRpKwaBZRlbMPAGIKQDCbaNnlhaHnGMmSOIzrNiX5SlJYquld-b4F0dP6kOBIZc54dyVq7a7NbD2hHODz151bv63bMnnu6_oXEQ3-1Ma8DgszyhDhWTKbLICALAmv-FBCQ982fYpp1YID1X1WaYvIg5-cqWiLguIolGaDu6DLGaRPBCoXQrKpVAzCsHbGe6VH0T8h4MGAY3Op6b85UpYUkiKRgKphJX6K6Xf380-Kcw_GWxrJck7e1N6CcHxjfulk4wkp84YezRn5VHsEEz4I7odGapnY7m_vWtCUfhxzeGUPYV1QuWj87eIxkNdmkpAMVG7gpw8zQp8oVxy-CvCfpogynU5Y-pFjUaUzlcFpUd3oPjtJU9FzFWwweu44xxSR_hBwKA9nnPl9jV38kwFDRe6JpFrxn8XCdvjycxgw9fME_t2Gy1MWOYN1OsFto4uRB7ss4Ipr4qRayCpsYinirFdaHvM2EaOuNTdpIsj3Vf7-2yE7f4wXaFOCDZqarnO_ImRdEPoYKKm8pqnBtuz72ycc4LTVGt4WeIcPdY-u2NwVsAiaF0RYHcNEfg22PtP5DEuXFxcGnTiysGRSPo1nlKwBpxFuqR3gJkhFqaBPfso9T_fPtOhxJxu4R8Sajq9ZXKL6AiDslPuBd6njKRgw-GF]--></g></svg>