<?xml version="1.0" encoding="us-ascii" standalone="no"?><svg xmlns="http://www.w3.org/2000/svg" xmlns:xlink="http://www.w3.org/1999/xlink" contentStyleType="text/css" height="458px" preserveAspectRatio="none" style="width:223px;height:458px;background:#FFFFFF;" version="1.1" viewBox="0 0 223 458" width="223px" zoomAndPan="magnify"><defs/><g><!--cluster application--><g id="cluster_application"><rect fill="none" height="445" rx="2.5" ry="2.5" style="stroke:#181818;stroke-width:1.0;" width="210" x="7" y="7"/><text fill="#000000" font-family="sans-serif" font-size="14" font-weight="bold" lengthAdjust="spacing" textLength="77" x="73.5" y="24.1074">application</text></g><!--cluster interview--><g id="cluster_interview"><rect fill="none" height="130" rx="2.5" ry="2.5" style="stroke:#181818;stroke-width:1.0;" width="160" x="32" y="298"/><text fill="#000000" font-family="sans-serif" font-size="14" font-weight="bold" lengthAdjust="spacing" textLength="66" x="79" y="315.1074">interview</text></g><!--cluster candidate--><g id="cluster_candidate"><rect fill="none" height="130" rx="2.5" ry="2.5" style="stroke:#181818;stroke-width:1.0;" width="160" x="32" y="144"/><text fill="#000000" font-family="sans-serif" font-size="14" font-weight="bold" lengthAdjust="spacing" textLength="69" x="77.5" y="161.1074">candidate</text></g><!--class JobOpeningApplication--><g id="elem_JobOpeningApplication"><rect codeLine="3" fill="#F1F1F1" height="76.543" id="JobOpeningApplication" rx="2.5" ry="2.5" style="stroke:#181818;stroke-width:0.5;" width="177" x="23.5" y="44"/><ellipse cx="38.5" cy="74.2715" fill="#ADD1B2" rx="11" ry="11" style="stroke:#181818;stroke-width:1.0;"/><path d="M41.2656,70.1465 Q41.4219,69.9277 41.6094,69.8184 Q41.7969,69.709 42.0156,69.709 Q42.3906,69.709 42.625,69.9746 Q42.8594,70.2246 42.8594,70.834 L42.8594,72.2871 Q42.8594,72.8965 42.625,73.1621 Q42.3906,73.4277 42.0156,73.4277 Q41.6719,73.4277 41.4688,73.2246 Q41.2656,73.0371 41.1563,72.5215 Q41.1094,72.1621 40.9219,71.9746 Q40.5938,71.5996 39.9844,71.3809 Q39.375,71.1621 38.75,71.1621 Q37.9844,71.1621 37.3438,71.4902 Q36.7188,71.8184 36.2188,72.5684 Q35.7344,73.3184 35.7344,74.3496 L35.7344,75.4434 Q35.7344,76.6777 36.625,77.5059 Q37.5156,78.3184 39.1094,78.3184 Q40.0469,78.3184 40.7031,78.0684 Q41.0938,77.9121 41.5156,77.4746 Q41.7813,77.209 41.9219,77.1309 Q42.0781,77.0527 42.2813,77.0527 Q42.6094,77.0527 42.8594,77.3184 Q43.125,77.5684 43.125,77.9121 Q43.125,78.2559 42.7813,78.6621 Q42.2813,79.2402 41.4844,79.5684 Q40.4063,80.0215 39.1094,80.0215 Q37.5938,80.0215 36.3906,79.3965 Q35.4063,78.8965 34.7188,77.834 Q34.0313,76.7559 34.0313,75.4746 L34.0313,74.3184 Q34.0313,72.9902 34.6406,71.8496 Q35.2656,70.6934 36.3594,70.084 Q37.4531,69.459 38.6875,69.459 Q39.4219,69.459 40.0625,69.6309 Q40.7188,69.7871 41.2656,70.1465 Z " fill="#000000"/><text fill="#000000" font-family="sans-serif" font-size="12" font-style="italic" lengthAdjust="spacing" textLength="100" x="75" y="61.9492">&#171;Aggregate Root&#187;</text><text fill="#000000" font-family="sans-serif" font-size="12" font-style="italic" lengthAdjust="spacing" textLength="44" x="103" y="77.9102">&#171;Entity&#187;</text><text fill="#000000" font-family="sans-serif" font-size="14" lengthAdjust="spacing" textLength="145" x="52.5" y="96.0293">JobOpeningApplication</text><line style="stroke:#181818;stroke-width:0.5;" x1="24.5" x2="199.5" y1="104.543" y2="104.543"/><line style="stroke:#181818;stroke-width:0.5;" x1="24.5" x2="199.5" y1="112.543" y2="112.543"/></g><!--class Interview--><g id="elem_Interview"><rect codeLine="7" fill="#F1F1F1" height="76.543" id="Interview" rx="2.5" ry="2.5" style="stroke:#181818;stroke-width:0.5;" width="128" x="48" y="335"/><ellipse cx="63" cy="365.2715" fill="#ADD1B2" rx="11" ry="11" style="stroke:#181818;stroke-width:1.0;"/><path d="M65.7656,361.1465 Q65.9219,360.9277 66.1094,360.8184 Q66.2969,360.709 66.5156,360.709 Q66.8906,360.709 67.125,360.9746 Q67.3594,361.2246 67.3594,361.834 L67.3594,363.2871 Q67.3594,363.8965 67.125,364.1621 Q66.8906,364.4277 66.5156,364.4277 Q66.1719,364.4277 65.9688,364.2246 Q65.7656,364.0371 65.6563,363.5215 Q65.6094,363.1621 65.4219,362.9746 Q65.0938,362.5996 64.4844,362.3809 Q63.875,362.1621 63.25,362.1621 Q62.4844,362.1621 61.8438,362.4902 Q61.2188,362.8184 60.7188,363.5684 Q60.2344,364.3184 60.2344,365.3496 L60.2344,366.4434 Q60.2344,367.6777 61.125,368.5059 Q62.0156,369.3184 63.6094,369.3184 Q64.5469,369.3184 65.2031,369.0684 Q65.5938,368.9121 66.0156,368.4746 Q66.2813,368.209 66.4219,368.1309 Q66.5781,368.0527 66.7813,368.0527 Q67.1094,368.0527 67.3594,368.3184 Q67.625,368.5684 67.625,368.9121 Q67.625,369.2559 67.2813,369.6621 Q66.7813,370.2402 65.9844,370.5684 Q64.9063,371.0215 63.6094,371.0215 Q62.0938,371.0215 60.8906,370.3965 Q59.9063,369.8965 59.2188,368.834 Q58.5313,367.7559 58.5313,366.4746 L58.5313,365.3184 Q58.5313,363.9902 59.1406,362.8496 Q59.7656,361.6934 60.8594,361.084 Q61.9531,360.459 63.1875,360.459 Q63.9219,360.459 64.5625,360.6309 Q65.2188,360.7871 65.7656,361.1465 Z " fill="#000000"/><text fill="#000000" font-family="sans-serif" font-size="12" font-style="italic" lengthAdjust="spacing" textLength="100" x="75" y="352.9492">&#171;Aggregate Root&#187;</text><text fill="#000000" font-family="sans-serif" font-size="12" font-style="italic" lengthAdjust="spacing" textLength="44" x="103" y="368.9102">&#171;Entity&#187;</text><text fill="#000000" font-family="sans-serif" font-size="14" lengthAdjust="spacing" textLength="55" x="97.5" y="387.0293">Interview</text><line style="stroke:#181818;stroke-width:0.5;" x1="49" x2="175" y1="395.543" y2="395.543"/><line style="stroke:#181818;stroke-width:0.5;" x1="49" x2="175" y1="403.543" y2="403.543"/></g><!--class Candidate--><g id="elem_Candidate"><rect codeLine="13" fill="#F1F1F1" height="76.543" id="Candidate" rx="2.5" ry="2.5" style="stroke:#181818;stroke-width:0.5;" width="128" x="48" y="181"/><ellipse cx="63" cy="211.2715" fill="#ADD1B2" rx="11" ry="11" style="stroke:#181818;stroke-width:1.0;"/><path d="M65.7656,207.1465 Q65.9219,206.9277 66.1094,206.8184 Q66.2969,206.709 66.5156,206.709 Q66.8906,206.709 67.125,206.9746 Q67.3594,207.2246 67.3594,207.834 L67.3594,209.2871 Q67.3594,209.8965 67.125,210.1621 Q66.8906,210.4277 66.5156,210.4277 Q66.1719,210.4277 65.9688,210.2246 Q65.7656,210.0371 65.6563,209.5215 Q65.6094,209.1621 65.4219,208.9746 Q65.0938,208.5996 64.4844,208.3809 Q63.875,208.1621 63.25,208.1621 Q62.4844,208.1621 61.8438,208.4902 Q61.2188,208.8184 60.7188,209.5684 Q60.2344,210.3184 60.2344,211.3496 L60.2344,212.4434 Q60.2344,213.6777 61.125,214.5059 Q62.0156,215.3184 63.6094,215.3184 Q64.5469,215.3184 65.2031,215.0684 Q65.5938,214.9121 66.0156,214.4746 Q66.2813,214.209 66.4219,214.1309 Q66.5781,214.0527 66.7813,214.0527 Q67.1094,214.0527 67.3594,214.3184 Q67.625,214.5684 67.625,214.9121 Q67.625,215.2559 67.2813,215.6621 Q66.7813,216.2402 65.9844,216.5684 Q64.9063,217.0215 63.6094,217.0215 Q62.0938,217.0215 60.8906,216.3965 Q59.9063,215.8965 59.2188,214.834 Q58.5313,213.7559 58.5313,212.4746 L58.5313,211.3184 Q58.5313,209.9902 59.1406,208.8496 Q59.7656,207.6934 60.8594,207.084 Q61.9531,206.459 63.1875,206.459 Q63.9219,206.459 64.5625,206.6309 Q65.2188,206.7871 65.7656,207.1465 Z " fill="#000000"/><text fill="#000000" font-family="sans-serif" font-size="12" font-style="italic" lengthAdjust="spacing" textLength="100" x="75" y="198.9492">&#171;Aggregate Root&#187;</text><text fill="#000000" font-family="sans-serif" font-size="12" font-style="italic" lengthAdjust="spacing" textLength="44" x="103" y="214.9102">&#171;Entity&#187;</text><text fill="#000000" font-family="sans-serif" font-size="14" lengthAdjust="spacing" textLength="65" x="92.5" y="233.0293">Candidate</text><line style="stroke:#181818;stroke-width:0.5;" x1="49" x2="175" y1="241.543" y2="241.543"/><line style="stroke:#181818;stroke-width:0.5;" x1="49" x2="175" y1="249.543" y2="249.543"/></g><!--link JobOpeningApplication to Candidate--><g id="link_JobOpeningApplication_Candidate"><path codeLine="16" d="M112,133.11 C112,151.67 112,156.02 112,174.63 " fill="none" id="JobOpeningApplication-Candidate" style="stroke:#181818;stroke-width:1.0;"/><polygon fill="none" points="112,121.11,108,127.11,112,133.11,116,127.11,112,121.11" style="stroke:#181818;stroke-width:1.0;"/><polygon fill="#181818" points="112,180.63,116,171.63,112,175.63,108,171.63,112,180.63" style="stroke:#181818;stroke-width:1.0;"/><text fill="#000000" font-family="sans-serif" font-size="13" lengthAdjust="spacing" textLength="7" x="104.4422" y="142.7061">1</text><text fill="#000000" font-family="sans-serif" font-size="13" lengthAdjust="spacing" textLength="7" x="104.4203" y="169.8746">1</text></g><!--link Candidate to Interview--><g id="link_Candidate_Interview"><path codeLine="18" d="M112,270.07 C112,293.46 112,305.43 112,328.83 " fill="none" id="Candidate-Interview" style="stroke:#181818;stroke-width:1.0;"/><polygon fill="none" points="112,258.07,108,264.07,112,270.07,116,264.07,112,258.07" style="stroke:#181818;stroke-width:1.0;"/><polygon fill="#181818" points="112,334.83,116,325.83,112,329.83,108,325.83,112,334.83" style="stroke:#181818;stroke-width:1.0;"/><text fill="#000000" font-family="sans-serif" font-size="13" lengthAdjust="spacing" textLength="7" x="104.4422" y="279.6597">1</text><text fill="#000000" font-family="sans-serif" font-size="13" lengthAdjust="spacing" textLength="7" x="104.3984" y="323.8153">1</text></g><!--SRC=[XO-n2iCm34HtVON8dg6xCOJIeLqA_GFN4KPWPEE8bXBwx_KIruL2D1sdut5NoAkJ40bTpf6zKqwo0jRpqIqBNjBzcabOmlGD63E5K2Wu9RobfDOQSn9bVLcxlW6WD2oBKdamFNleUJFtGByixsJckMPxrd4pzrb_jmo70TCuMgoYiG2QxF-jTwq57m00]--></g></svg>