<?xml version="1.0" encoding="us-ascii" standalone="no"?><svg xmlns="http://www.w3.org/2000/svg" xmlns:xlink="http://www.w3.org/1999/xlink" contentStyleType="text/css" height="1083px" preserveAspectRatio="none" style="width:2163px;height:1083px;background:#FFFFFF;" version="1.1" viewBox="0 0 2163 1083" width="2163px" zoomAndPan="magnify"><defs/><g><rect fill="#FFFFFF" height="876.8086" style="stroke:#181818;stroke-width:1.0;" width="10" x="63.5" y="98.2422"/><rect fill="#FFFFFF" height="31.291" style="stroke:#181818;stroke-width:1.0;" width="10" x="538.5" y="121.5332"/><rect fill="#FFFFFF" height="31.291" style="stroke:#181818;stroke-width:1.0;" width="10" x="538.5" y="309.2793"/><rect fill="#FFFFFF" height="31.291" style="stroke:#181818;stroke-width:1.0;" width="10" x="538.5" y="371.8613"/><rect fill="#FFFFFF" height="31.291" style="stroke:#181818;stroke-width:1.0;" width="10" x="538.5" y="559.6074"/><rect fill="#FFFFFF" height="31.291" style="stroke:#181818;stroke-width:1.0;" width="10" x="538.5" y="622.1895"/><rect fill="#FFFFFF" height="40.291" style="stroke:#181818;stroke-width:1.0;" width="10" x="538.5" y="934.7598"/><rect fill="#FFFFFF" height="31.291" style="stroke:#181818;stroke-width:1.0;" width="10" x="937.5" y="152.8242"/><rect fill="#FFFFFF" height="31.291" style="stroke:#181818;stroke-width:1.0;" width="10" x="937.5" y="277.9883"/><rect fill="#FFFFFF" height="31.291" style="stroke:#181818;stroke-width:1.0;" width="10" x="937.5" y="403.1523"/><rect fill="#FFFFFF" height="31.291" style="stroke:#181818;stroke-width:1.0;" width="10" x="937.5" y="528.3164"/><rect fill="#FFFFFF" height="31.291" style="stroke:#181818;stroke-width:1.0;" width="10" x="937.5" y="653.4805"/><rect fill="#FFFFFF" height="31.291" style="stroke:#181818;stroke-width:1.0;" width="10" x="937.5" y="903.4688"/><rect fill="#FFFFFF" height="31.291" style="stroke:#181818;stroke-width:1.0;" width="10" x="1336.5" y="184.1152"/><rect fill="#FFFFFF" height="31.291" style="stroke:#181818;stroke-width:1.0;" width="10" x="1336.5" y="246.6973"/><rect fill="#FFFFFF" height="31.291" style="stroke:#181818;stroke-width:1.0;" width="10" x="1336.5" y="434.4434"/><rect fill="#FFFFFF" height="31.291" style="stroke:#181818;stroke-width:1.0;" width="10" x="1336.5" y="497.0254"/><rect fill="#FFFFFF" height="31.291" style="stroke:#181818;stroke-width:1.0;" width="10" x="1336.5" y="684.7715"/><rect fill="#FFFFFF" height="93.5332" style="stroke:#181818;stroke-width:1.0;" width="10" x="1336.5" y="747.3535"/><rect fill="#FFFFFF" height="31.291" style="stroke:#181818;stroke-width:1.0;" width="10" x="1336.5" y="872.1777"/><rect fill="#FFFFFF" height="31.291" style="stroke:#181818;stroke-width:1.0;" width="10" x="1563" y="215.4063"/><rect fill="#FFFFFF" height="31.291" style="stroke:#181818;stroke-width:1.0;" width="10" x="1751" y="716.0625"/><rect fill="#FFFFFF" height="31.291" style="stroke:#181818;stroke-width:1.0;" width="10" x="1751" y="840.8867"/><rect fill="#FFFFFF" height="31.291" style="stroke:#181818;stroke-width:1.0;" width="10" x="1921" y="465.7344"/><line style="stroke:#181818;stroke-width:0.5;stroke-dasharray:5.0,5.0;" x1="68" x2="68" y1="88.2422" y2="984.0508"/><line style="stroke:#181818;stroke-width:0.5;stroke-dasharray:5.0,5.0;" x1="543" x2="543" y1="88.2422" y2="984.0508"/><line style="stroke:#181818;stroke-width:0.5;stroke-dasharray:5.0,5.0;" x1="942" x2="942" y1="88.2422" y2="984.0508"/><line style="stroke:#181818;stroke-width:0.5;stroke-dasharray:5.0,5.0;" x1="1341.5" x2="1341.5" y1="88.2422" y2="984.0508"/><line style="stroke:#181818;stroke-width:0.5;stroke-dasharray:5.0,5.0;" x1="1567.5" x2="1567.5" y1="88.2422" y2="984.0508"/><line style="stroke:#181818;stroke-width:0.5;stroke-dasharray:5.0,5.0;" x1="1755.5" x2="1755.5" y1="88.2422" y2="984.0508"/><line style="stroke:#181818;stroke-width:0.5;stroke-dasharray:5.0,5.0;" x1="1925.5" x2="1925.5" y1="88.2422" y2="984.0508"/><line style="stroke:#181818;stroke-width:0.5;stroke-dasharray:5.0,5.0;" x1="2093.5" x2="2093.5" y1="796.4746" y2="984.0508"/><text fill="#000000" font-family="sans-serif" font-size="14" lengthAdjust="spacing" textLength="121" x="5" y="84.7285">Customer Manager</text><ellipse cx="68.5" cy="18.1211" fill="#E2E2F0" rx="8" ry="8" style="stroke:#181818;stroke-width:0.5;"/><path d="M68.5,26.1211 L68.5,53.1211 M55.5,34.1211 L81.5,34.1211 M68.5,53.1211 L55.5,68.1211 M68.5,53.1211 L81.5,68.1211 " fill="none" style="stroke:#181818;stroke-width:0.5;"/><text fill="#000000" font-family="sans-serif" font-size="14" lengthAdjust="spacing" textLength="121" x="5" y="998.1582">Customer Manager</text><ellipse cx="68.5" cy="1010.1719" fill="#E2E2F0" rx="8" ry="8" style="stroke:#181818;stroke-width:0.5;"/><path d="M68.5,1018.1719 L68.5,1045.1719 M55.5,1026.1719 L81.5,1026.1719 M68.5,1045.1719 L55.5,1060.1719 M68.5,1045.1719 L81.5,1060.1719 " fill="none" style="stroke:#181818;stroke-width:0.5;"/><rect fill="#E2E2F0" height="51.2422" rx="2.5" ry="2.5" style="stroke:#181818;stroke-width:0.5;" width="131" x="478" y="36"/><text fill="#000000" font-family="sans-serif" font-size="14" font-style="italic" lengthAdjust="spacing" textLength="30" x="528.5" y="58.1074">&#171;UI&#187;</text><text fill="#000000" font-family="sans-serif" font-size="14" lengthAdjust="spacing" textLength="117" x="485" y="76.7285">:RecordInterviewUI</text><rect fill="#E2E2F0" height="51.2422" rx="2.5" ry="2.5" style="stroke:#181818;stroke-width:0.5;" width="131" x="478" y="983.0508"/><text fill="#000000" font-family="sans-serif" font-size="14" font-style="italic" lengthAdjust="spacing" textLength="30" x="528.5" y="1005.1582">&#171;UI&#187;</text><text fill="#000000" font-family="sans-serif" font-size="14" lengthAdjust="spacing" textLength="117" x="485" y="1023.7793">:RecordInterviewUI</text><rect fill="#E2E2F0" height="51.2422" rx="2.5" ry="2.5" style="stroke:#181818;stroke-width:0.5;" width="181" x="852" y="36"/><text fill="#000000" font-family="sans-serif" font-size="14" font-style="italic" lengthAdjust="spacing" textLength="85" x="900" y="58.1074">&#171;Application&#187;</text><text fill="#000000" font-family="sans-serif" font-size="14" lengthAdjust="spacing" textLength="167" x="859" y="76.7285">:RecordInterviewController</text><rect fill="#E2E2F0" height="51.2422" rx="2.5" ry="2.5" style="stroke:#181818;stroke-width:0.5;" width="181" x="852" y="983.0508"/><text fill="#000000" font-family="sans-serif" font-size="14" font-style="italic" lengthAdjust="spacing" textLength="85" x="900" y="1005.1582">&#171;Application&#187;</text><text fill="#000000" font-family="sans-serif" font-size="14" lengthAdjust="spacing" textLength="167" x="859" y="1023.7793">:RecordInterviewController</text><rect fill="#E2E2F0" height="51.2422" rx="2.5" ry="2.5" style="stroke:#181818;stroke-width:0.5;" width="210" x="1236.5" y="36"/><text fill="#000000" font-family="sans-serif" font-size="14" font-style="italic" lengthAdjust="spacing" textLength="62" x="1310.5" y="58.1074">&#171;Service&#187;</text><text fill="#000000" font-family="sans-serif" font-size="14" lengthAdjust="spacing" textLength="196" x="1243.5" y="76.7285">:JobOpeningApplicationService</text><rect fill="#E2E2F0" height="51.2422" rx="2.5" ry="2.5" style="stroke:#181818;stroke-width:0.5;" width="210" x="1236.5" y="983.0508"/><text fill="#000000" font-family="sans-serif" font-size="14" font-style="italic" lengthAdjust="spacing" textLength="62" x="1310.5" y="1005.1582">&#171;Service&#187;</text><text fill="#000000" font-family="sans-serif" font-size="14" lengthAdjust="spacing" textLength="196" x="1243.5" y="1023.7793">:JobOpeningApplicationService</text><text fill="#000000" font-family="sans-serif" font-size="14" font-style="italic" lengthAdjust="spacing" textLength="90" x="1520" y="66.1074">&#171;Persistence&#187;</text><text fill="#000000" font-family="sans-serif" font-size="14" lengthAdjust="spacing" textLength="217" x="1456.5" y="84.7285">:JobOpeningApplicationRepository</text><path d="M1550,15 C1550,5 1568,5 1568,5 C1568,5 1586,5 1586,15 L1586,41 C1586,51 1568,51 1568,51 C1568,51 1550,51 1550,41 L1550,15 " fill="#E2E2F0" style="stroke:#181818;stroke-width:1.5;"/><path d="M1550,15 C1550,25 1568,25 1568,25 C1568,25 1586,25 1586,15 " fill="none" style="stroke:#181818;stroke-width:1.5;"/><text fill="#000000" font-family="sans-serif" font-size="14" font-style="italic" lengthAdjust="spacing" textLength="90" x="1520" y="998.1582">&#171;Persistence&#187;</text><text fill="#000000" font-family="sans-serif" font-size="14" lengthAdjust="spacing" textLength="217" x="1456.5" y="1016.7793">:JobOpeningApplicationRepository</text><path d="M1550,1030.293 C1550,1020.293 1568,1020.293 1568,1020.293 C1568,1020.293 1586,1020.293 1586,1030.293 L1586,1056.293 C1586,1066.293 1568,1066.293 1568,1066.293 C1568,1066.293 1550,1066.293 1550,1056.293 L1550,1030.293 " fill="#E2E2F0" style="stroke:#181818;stroke-width:1.5;"/><path d="M1550,1030.293 C1550,1040.293 1568,1040.293 1568,1040.293 C1568,1040.293 1586,1040.293 1586,1030.293 " fill="none" style="stroke:#181818;stroke-width:1.5;"/><text fill="#000000" font-family="sans-serif" font-size="14" font-style="italic" lengthAdjust="spacing" textLength="90" x="1708" y="66.1074">&#171;Persistence&#187;</text><text fill="#000000" font-family="sans-serif" font-size="14" lengthAdjust="spacing" textLength="127" x="1689.5" y="84.7285">:InterviewRepository</text><path d="M1738,15 C1738,5 1756,5 1756,5 C1756,5 1774,5 1774,15 L1774,41 C1774,51 1756,51 1756,51 C1756,51 1738,51 1738,41 L1738,15 " fill="#E2E2F0" style="stroke:#181818;stroke-width:1.5;"/><path d="M1738,15 C1738,25 1756,25 1756,25 C1756,25 1774,25 1774,15 " fill="none" style="stroke:#181818;stroke-width:1.5;"/><text fill="#000000" font-family="sans-serif" font-size="14" font-style="italic" lengthAdjust="spacing" textLength="90" x="1708" y="998.1582">&#171;Persistence&#187;</text><text fill="#000000" font-family="sans-serif" font-size="14" lengthAdjust="spacing" textLength="127" x="1689.5" y="1016.7793">:InterviewRepository</text><path d="M1738,1030.293 C1738,1020.293 1756,1020.293 1756,1020.293 C1756,1020.293 1774,1020.293 1774,1030.293 L1774,1056.293 C1774,1066.293 1756,1066.293 1756,1066.293 C1756,1066.293 1738,1066.293 1738,1056.293 L1738,1030.293 " fill="#E2E2F0" style="stroke:#181818;stroke-width:1.5;"/><path d="M1738,1030.293 C1738,1040.293 1756,1040.293 1756,1040.293 C1756,1040.293 1774,1040.293 1774,1030.293 " fill="none" style="stroke:#181818;stroke-width:1.5;"/><rect fill="#E2E2F0" height="51.2422" rx="2.5" ry="2.5" style="stroke:#181818;stroke-width:0.5;" width="187" x="1832.5" y="36"/><text fill="#000000" font-family="sans-serif" font-size="14" font-style="italic" lengthAdjust="spacing" textLength="64" x="1894" y="58.1074">&#171;Domain&#187;</text><text fill="#000000" font-family="sans-serif" font-size="14" lengthAdjust="spacing" textLength="173" x="1839.5" y="76.7285">app:JobOpeningApplication</text><rect fill="#E2E2F0" height="51.2422" rx="2.5" ry="2.5" style="stroke:#181818;stroke-width:0.5;" width="187" x="1832.5" y="983.0508"/><text fill="#000000" font-family="sans-serif" font-size="14" font-style="italic" lengthAdjust="spacing" textLength="64" x="1894" y="1005.1582">&#171;Domain&#187;</text><text fill="#000000" font-family="sans-serif" font-size="14" lengthAdjust="spacing" textLength="173" x="1839.5" y="1023.7793">app:JobOpeningApplication</text><rect fill="#E2E2F0" height="51.2422" rx="2.5" ry="2.5" style="stroke:#181818;stroke-width:0.5;" width="128" x="2029.5" y="983.0508"/><text fill="#000000" font-family="sans-serif" font-size="14" font-style="italic" lengthAdjust="spacing" textLength="64" x="2061.5" y="1005.1582">&#171;Domain&#187;</text><text fill="#000000" font-family="sans-serif" font-size="14" lengthAdjust="spacing" textLength="114" x="2036.5" y="1023.7793">interview:Interview</text><rect fill="#FFFFFF" height="876.8086" style="stroke:#181818;stroke-width:1.0;" width="10" x="63.5" y="98.2422"/><rect fill="#FFFFFF" height="31.291" style="stroke:#181818;stroke-width:1.0;" width="10" x="538.5" y="121.5332"/><rect fill="#FFFFFF" height="31.291" style="stroke:#181818;stroke-width:1.0;" width="10" x="538.5" y="309.2793"/><rect fill="#FFFFFF" height="31.291" style="stroke:#181818;stroke-width:1.0;" width="10" x="538.5" y="371.8613"/><rect fill="#FFFFFF" height="31.291" style="stroke:#181818;stroke-width:1.0;" width="10" x="538.5" y="559.6074"/><rect fill="#FFFFFF" height="31.291" style="stroke:#181818;stroke-width:1.0;" width="10" x="538.5" y="622.1895"/><rect fill="#FFFFFF" height="40.291" style="stroke:#181818;stroke-width:1.0;" width="10" x="538.5" y="934.7598"/><rect fill="#FFFFFF" height="31.291" style="stroke:#181818;stroke-width:1.0;" width="10" x="937.5" y="152.8242"/><rect fill="#FFFFFF" height="31.291" style="stroke:#181818;stroke-width:1.0;" width="10" x="937.5" y="277.9883"/><rect fill="#FFFFFF" height="31.291" style="stroke:#181818;stroke-width:1.0;" width="10" x="937.5" y="403.1523"/><rect fill="#FFFFFF" height="31.291" style="stroke:#181818;stroke-width:1.0;" width="10" x="937.5" y="528.3164"/><rect fill="#FFFFFF" height="31.291" style="stroke:#181818;stroke-width:1.0;" width="10" x="937.5" y="653.4805"/><rect fill="#FFFFFF" height="31.291" style="stroke:#181818;stroke-width:1.0;" width="10" x="937.5" y="903.4688"/><rect fill="#FFFFFF" height="31.291" style="stroke:#181818;stroke-width:1.0;" width="10" x="1336.5" y="184.1152"/><rect fill="#FFFFFF" height="31.291" style="stroke:#181818;stroke-width:1.0;" width="10" x="1336.5" y="246.6973"/><rect fill="#FFFFFF" height="31.291" style="stroke:#181818;stroke-width:1.0;" width="10" x="1336.5" y="434.4434"/><rect fill="#FFFFFF" height="31.291" style="stroke:#181818;stroke-width:1.0;" width="10" x="1336.5" y="497.0254"/><rect fill="#FFFFFF" height="31.291" style="stroke:#181818;stroke-width:1.0;" width="10" x="1336.5" y="684.7715"/><rect fill="#FFFFFF" height="93.5332" style="stroke:#181818;stroke-width:1.0;" width="10" x="1336.5" y="747.3535"/><rect fill="#FFFFFF" height="31.291" style="stroke:#181818;stroke-width:1.0;" width="10" x="1336.5" y="872.1777"/><rect fill="#FFFFFF" height="31.291" style="stroke:#181818;stroke-width:1.0;" width="10" x="1563" y="215.4063"/><rect fill="#FFFFFF" height="31.291" style="stroke:#181818;stroke-width:1.0;" width="10" x="1751" y="716.0625"/><rect fill="#FFFFFF" height="31.291" style="stroke:#181818;stroke-width:1.0;" width="10" x="1751" y="840.8867"/><rect fill="#FFFFFF" height="31.291" style="stroke:#181818;stroke-width:1.0;" width="10" x="1921" y="465.7344"/><polygon fill="#181818" points="526.5,117.5332,536.5,121.5332,526.5,125.5332,530.5,121.5332" style="stroke:#181818;stroke-width:1.0;"/><line style="stroke:#181818;stroke-width:1.0;" x1="73.5" x2="532.5" y1="121.5332" y2="121.5332"/><text fill="#000000" font-family="sans-serif" font-size="13" font-weight="bold" lengthAdjust="spacing" textLength="7" x="80.5" y="116.2705">1</text><text fill="#000000" font-family="sans-serif" font-size="13" lengthAdjust="spacing" textLength="333" x="91.5" y="116.2705">Record the time and date for an interview with a candidate</text><polygon fill="#181818" points="925.5,148.8242,935.5,152.8242,925.5,156.8242,929.5,152.8242" style="stroke:#181818;stroke-width:1.0;"/><line style="stroke:#181818;stroke-width:1.0;" x1="543.5" x2="931.5" y1="152.8242" y2="152.8242"/><text fill="#000000" font-family="sans-serif" font-size="13" font-weight="bold" lengthAdjust="spacing" textLength="7" x="550.5" y="147.5615">2</text><text fill="#000000" font-family="sans-serif" font-size="13" lengthAdjust="spacing" textLength="158" x="561.5" y="147.5615">getJobOpeningApplication()</text><polygon fill="#181818" points="1324.5,180.1152,1334.5,184.1152,1324.5,188.1152,1328.5,184.1152" style="stroke:#181818;stroke-width:1.0;"/><line style="stroke:#181818;stroke-width:1.0;" x1="942.5" x2="1330.5" y1="184.1152" y2="184.1152"/><text fill="#000000" font-family="sans-serif" font-size="13" font-weight="bold" lengthAdjust="spacing" textLength="7" x="949.5" y="178.8525">3</text><text fill="#000000" font-family="sans-serif" font-size="13" lengthAdjust="spacing" textLength="158" x="960.5" y="178.8525">getJobOpeningApplication()</text><polygon fill="#181818" points="1551,211.4063,1561,215.4063,1551,219.4063,1555,215.4063" style="stroke:#181818;stroke-width:1.0;"/><line style="stroke:#181818;stroke-width:1.0;" x1="1341.5" x2="1557" y1="215.4063" y2="215.4063"/><text fill="#000000" font-family="sans-serif" font-size="13" font-weight="bold" lengthAdjust="spacing" textLength="7" x="1348.5" y="210.1436">4</text><text fill="#000000" font-family="sans-serif" font-size="13" lengthAdjust="spacing" textLength="158" x="1359.5" y="210.1436">getJobOpeningApplication()</text><polygon fill="#181818" points="1357.5,242.6973,1347.5,246.6973,1357.5,250.6973,1353.5,246.6973" style="stroke:#181818;stroke-width:1.0;"/><line style="stroke:#181818;stroke-width:1.0;stroke-dasharray:2.0,2.0;" x1="1351.5" x2="1567" y1="246.6973" y2="246.6973"/><text fill="#000000" font-family="sans-serif" font-size="13" font-weight="bold" lengthAdjust="spacing" textLength="7" x="1363.5" y="241.4346">5</text><text fill="#000000" font-family="sans-serif" font-size="13" lengthAdjust="spacing" textLength="139" x="1374.5" y="241.4346">JobOpeningApplications</text><polygon fill="#181818" points="958.5,273.9883,948.5,277.9883,958.5,281.9883,954.5,277.9883" style="stroke:#181818;stroke-width:1.0;"/><line style="stroke:#181818;stroke-width:1.0;stroke-dasharray:2.0,2.0;" x1="952.5" x2="1340.5" y1="277.9883" y2="277.9883"/><text fill="#000000" font-family="sans-serif" font-size="13" font-weight="bold" lengthAdjust="spacing" textLength="7" x="964.5" y="272.7256">6</text><text fill="#000000" font-family="sans-serif" font-size="13" lengthAdjust="spacing" textLength="139" x="975.5" y="272.7256">JobOpeningApplications</text><polygon fill="#181818" points="559.5,305.2793,549.5,309.2793,559.5,313.2793,555.5,309.2793" style="stroke:#181818;stroke-width:1.0;"/><line style="stroke:#181818;stroke-width:1.0;stroke-dasharray:2.0,2.0;" x1="553.5" x2="941.5" y1="309.2793" y2="309.2793"/><text fill="#000000" font-family="sans-serif" font-size="13" font-weight="bold" lengthAdjust="spacing" textLength="7" x="565.5" y="304.0166">7</text><text fill="#000000" font-family="sans-serif" font-size="13" lengthAdjust="spacing" textLength="139" x="576.5" y="304.0166">JobOpeningApplications</text><polygon fill="#181818" points="84.5,336.5703,74.5,340.5703,84.5,344.5703,80.5,340.5703" style="stroke:#181818;stroke-width:1.0;"/><line style="stroke:#181818;stroke-width:1.0;stroke-dasharray:2.0,2.0;" x1="78.5" x2="542.5" y1="340.5703" y2="340.5703"/><text fill="#000000" font-family="sans-serif" font-size="13" font-weight="bold" lengthAdjust="spacing" textLength="7" x="90.5" y="335.3076">8</text><text fill="#000000" font-family="sans-serif" font-size="13" lengthAdjust="spacing" textLength="139" x="101.5" y="335.3076">JobOpeningApplications</text><polygon fill="#181818" points="526.5,367.8613,536.5,371.8613,526.5,375.8613,530.5,371.8613" style="stroke:#181818;stroke-width:1.0;"/><line style="stroke:#181818;stroke-width:1.0;" x1="73.5" x2="532.5" y1="371.8613" y2="371.8613"/><text fill="#000000" font-family="sans-serif" font-size="13" font-weight="bold" lengthAdjust="spacing" textLength="7" x="80.5" y="366.5986">9</text><text fill="#000000" font-family="sans-serif" font-size="13" lengthAdjust="spacing" textLength="435" x="91.5" y="366.5986">Select the job opening application for which the interview is to be scheduled</text><polygon fill="#181818" points="925.5,399.1523,935.5,403.1523,925.5,407.1523,929.5,403.1523" style="stroke:#181818;stroke-width:1.0;"/><line style="stroke:#181818;stroke-width:1.0;" x1="543.5" x2="931.5" y1="403.1523" y2="403.1523"/><text fill="#000000" font-family="sans-serif" font-size="13" font-weight="bold" lengthAdjust="spacing" textLength="14" x="550.5" y="397.8896">10</text><text fill="#000000" font-family="sans-serif" font-size="13" lengthAdjust="spacing" textLength="213" x="568.5" y="397.8896">getCandidate(jobOpeningApplication)</text><polygon fill="#181818" points="1324.5,430.4434,1334.5,434.4434,1324.5,438.4434,1328.5,434.4434" style="stroke:#181818;stroke-width:1.0;"/><line style="stroke:#181818;stroke-width:1.0;" x1="942.5" x2="1330.5" y1="434.4434" y2="434.4434"/><text fill="#000000" font-family="sans-serif" font-size="13" font-weight="bold" lengthAdjust="spacing" textLength="14" x="949.5" y="429.1807">11</text><text fill="#000000" font-family="sans-serif" font-size="13" lengthAdjust="spacing" textLength="213" x="967.5" y="429.1807">getCandidate(jobOpeningApplication)</text><polygon fill="#181818" points="1909,461.7344,1919,465.7344,1909,469.7344,1913,465.7344" style="stroke:#181818;stroke-width:1.0;"/><line style="stroke:#181818;stroke-width:1.0;" x1="1341.5" x2="1915" y1="465.7344" y2="465.7344"/><text fill="#000000" font-family="sans-serif" font-size="13" font-weight="bold" lengthAdjust="spacing" textLength="14" x="1348.5" y="460.4717">12</text><text fill="#000000" font-family="sans-serif" font-size="13" lengthAdjust="spacing" textLength="213" x="1366.5" y="460.4717">getCandidate(jobOpeningApplication)</text><polygon fill="#181818" points="1357.5,493.0254,1347.5,497.0254,1357.5,501.0254,1353.5,497.0254" style="stroke:#181818;stroke-width:1.0;"/><line style="stroke:#181818;stroke-width:1.0;stroke-dasharray:2.0,2.0;" x1="1351.5" x2="1925" y1="497.0254" y2="497.0254"/><text fill="#000000" font-family="sans-serif" font-size="13" font-weight="bold" lengthAdjust="spacing" textLength="14" x="1363.5" y="491.7627">13</text><text fill="#000000" font-family="sans-serif" font-size="13" lengthAdjust="spacing" textLength="58" x="1381.5" y="491.7627">Candidate</text><polygon fill="#181818" points="958.5,524.3164,948.5,528.3164,958.5,532.3164,954.5,528.3164" style="stroke:#181818;stroke-width:1.0;"/><line style="stroke:#181818;stroke-width:1.0;stroke-dasharray:2.0,2.0;" x1="952.5" x2="1340.5" y1="528.3164" y2="528.3164"/><text fill="#000000" font-family="sans-serif" font-size="13" font-weight="bold" lengthAdjust="spacing" textLength="14" x="964.5" y="523.0537">14</text><text fill="#000000" font-family="sans-serif" font-size="13" lengthAdjust="spacing" textLength="58" x="982.5" y="523.0537">Candidate</text><polygon fill="#181818" points="559.5,555.6074,549.5,559.6074,559.5,563.6074,555.5,559.6074" style="stroke:#181818;stroke-width:1.0;"/><line style="stroke:#181818;stroke-width:1.0;stroke-dasharray:2.0,2.0;" x1="553.5" x2="941.5" y1="559.6074" y2="559.6074"/><text fill="#000000" font-family="sans-serif" font-size="13" font-weight="bold" lengthAdjust="spacing" textLength="14" x="565.5" y="554.3447">15</text><text fill="#000000" font-family="sans-serif" font-size="13" lengthAdjust="spacing" textLength="58" x="583.5" y="554.3447">Candidate</text><polygon fill="#181818" points="84.5,586.8984,74.5,590.8984,84.5,594.8984,80.5,590.8984" style="stroke:#181818;stroke-width:1.0;"/><line style="stroke:#181818;stroke-width:1.0;stroke-dasharray:2.0,2.0;" x1="78.5" x2="542.5" y1="590.8984" y2="590.8984"/><text fill="#000000" font-family="sans-serif" font-size="13" font-weight="bold" lengthAdjust="spacing" textLength="14" x="90.5" y="585.6357">16</text><text fill="#000000" font-family="sans-serif" font-size="13" lengthAdjust="spacing" textLength="58" x="108.5" y="585.6357">Candidate</text><polygon fill="#181818" points="526.5,618.1895,536.5,622.1895,526.5,626.1895,530.5,622.1895" style="stroke:#181818;stroke-width:1.0;"/><line style="stroke:#181818;stroke-width:1.0;" x1="73.5" x2="532.5" y1="622.1895" y2="622.1895"/><text fill="#000000" font-family="sans-serif" font-size="13" font-weight="bold" lengthAdjust="spacing" textLength="14" x="80.5" y="616.9268">17</text><text fill="#000000" font-family="sans-serif" font-size="13" lengthAdjust="spacing" textLength="344" x="98.5" y="616.9268">Record the time and date for an interview with the candidate</text><polygon fill="#181818" points="925.5,649.4805,935.5,653.4805,925.5,657.4805,929.5,653.4805" style="stroke:#181818;stroke-width:1.0;"/><line style="stroke:#181818;stroke-width:1.0;" x1="543.5" x2="931.5" y1="653.4805" y2="653.4805"/><text fill="#000000" font-family="sans-serif" font-size="13" font-weight="bold" lengthAdjust="spacing" textLength="14" x="550.5" y="648.2178">18</text><text fill="#000000" font-family="sans-serif" font-size="13" lengthAdjust="spacing" textLength="352" x="568.5" y="648.2178">recordInterview(jobOpeningApplication, candidate, time, date)</text><polygon fill="#181818" points="1324.5,680.7715,1334.5,684.7715,1324.5,688.7715,1328.5,684.7715" style="stroke:#181818;stroke-width:1.0;"/><line style="stroke:#181818;stroke-width:1.0;" x1="942.5" x2="1330.5" y1="684.7715" y2="684.7715"/><text fill="#000000" font-family="sans-serif" font-size="13" font-weight="bold" lengthAdjust="spacing" textLength="14" x="949.5" y="679.5088">19</text><text fill="#000000" font-family="sans-serif" font-size="13" lengthAdjust="spacing" textLength="352" x="967.5" y="679.5088">recordInterview(jobOpeningApplication, candidate, time, date)</text><polygon fill="#181818" points="1739,712.0625,1749,716.0625,1739,720.0625,1743,716.0625" style="stroke:#181818;stroke-width:1.0;"/><line style="stroke:#181818;stroke-width:1.0;" x1="1341.5" x2="1745" y1="716.0625" y2="716.0625"/><text fill="#000000" font-family="sans-serif" font-size="13" font-weight="bold" lengthAdjust="spacing" textLength="14" x="1348.5" y="710.7998">20</text><text fill="#000000" font-family="sans-serif" font-size="13" lengthAdjust="spacing" textLength="352" x="1366.5" y="710.7998">recordInterview(jobOpeningApplication, candidate, time, date)</text><polygon fill="#181818" points="1357.5,743.3535,1347.5,747.3535,1357.5,751.3535,1353.5,747.3535" style="stroke:#181818;stroke-width:1.0;"/><line style="stroke:#181818;stroke-width:1.0;" x1="1351.5" x2="1755" y1="747.3535" y2="747.3535"/><text fill="#000000" font-family="sans-serif" font-size="13" font-weight="bold" lengthAdjust="spacing" textLength="14" x="1363.5" y="742.0908">21</text><text fill="#000000" font-family="sans-serif" font-size="13" lengthAdjust="spacing" textLength="81" x="1381.5" y="742.0908">Save interview</text><polygon fill="#181818" points="2017.5,774.6445,2027.5,778.6445,2017.5,782.6445,2021.5,778.6445" style="stroke:#181818;stroke-width:1.0;"/><line style="stroke:#181818;stroke-width:1.0;" x1="1346.5" x2="2023.5" y1="778.6445" y2="778.6445"/><text fill="#000000" font-family="sans-serif" font-size="13" font-weight="bold" lengthAdjust="spacing" textLength="14" x="1353.5" y="773.3818">22</text><text fill="#000000" font-family="sans-serif" font-size="13" lengthAdjust="spacing" textLength="57" x="1371.5" y="773.3818">&#171;creates&#187;</text><rect fill="#E2E2F0" height="51.2422" rx="2.5" ry="2.5" style="stroke:#181818;stroke-width:0.5;" width="128" x="2029.5" y="755.3535"/><text fill="#000000" font-family="sans-serif" font-size="14" font-style="italic" lengthAdjust="spacing" textLength="64" x="2061.5" y="777.4609">&#171;Domain&#187;</text><text fill="#000000" font-family="sans-serif" font-size="14" lengthAdjust="spacing" textLength="114" x="2036.5" y="796.082">interview:Interview</text><polygon fill="#181818" points="1739,836.8867,1749,840.8867,1739,844.8867,1743,840.8867" style="stroke:#181818;stroke-width:1.0;"/><line style="stroke:#181818;stroke-width:1.0;" x1="1341.5" x2="1745" y1="840.8867" y2="840.8867"/><text fill="#000000" font-family="sans-serif" font-size="13" font-weight="bold" lengthAdjust="spacing" textLength="14" x="1348.5" y="835.624">23</text><text fill="#000000" font-family="sans-serif" font-size="13" lengthAdjust="spacing" textLength="334" x="1366.5" y="835.624">getInterview(jobOpeningApplication, candidate, time, date)</text><polygon fill="#181818" points="1357.5,868.1777,1347.5,872.1777,1357.5,876.1777,1353.5,872.1777" style="stroke:#181818;stroke-width:1.0;"/><line style="stroke:#181818;stroke-width:1.0;stroke-dasharray:2.0,2.0;" x1="1351.5" x2="1755" y1="872.1777" y2="872.1777"/><text fill="#000000" font-family="sans-serif" font-size="13" font-weight="bold" lengthAdjust="spacing" textLength="14" x="1363.5" y="866.915">24</text><text fill="#000000" font-family="sans-serif" font-size="13" lengthAdjust="spacing" textLength="49" x="1381.5" y="866.915">Interview</text><polygon fill="#181818" points="958.5,899.4688,948.5,903.4688,958.5,907.4688,954.5,903.4688" style="stroke:#181818;stroke-width:1.0;"/><line style="stroke:#181818;stroke-width:1.0;stroke-dasharray:2.0,2.0;" x1="952.5" x2="1340.5" y1="903.4688" y2="903.4688"/><text fill="#000000" font-family="sans-serif" font-size="13" font-weight="bold" lengthAdjust="spacing" textLength="14" x="964.5" y="898.2061">25</text><text fill="#000000" font-family="sans-serif" font-size="13" lengthAdjust="spacing" textLength="49" x="982.5" y="898.2061">Interview</text><polygon fill="#181818" points="559.5,930.7598,549.5,934.7598,559.5,938.7598,555.5,934.7598" style="stroke:#181818;stroke-width:1.0;"/><line style="stroke:#181818;stroke-width:1.0;stroke-dasharray:2.0,2.0;" x1="553.5" x2="941.5" y1="934.7598" y2="934.7598"/><text fill="#000000" font-family="sans-serif" font-size="13" font-weight="bold" lengthAdjust="spacing" textLength="14" x="565.5" y="929.4971">26</text><text fill="#000000" font-family="sans-serif" font-size="13" lengthAdjust="spacing" textLength="49" x="583.5" y="929.4971">Interview</text><polygon fill="#181818" points="84.5,962.0508,74.5,966.0508,84.5,970.0508,80.5,966.0508" style="stroke:#181818;stroke-width:1.0;"/><line style="stroke:#181818;stroke-width:1.0;stroke-dasharray:2.0,2.0;" x1="78.5" x2="537.5" y1="966.0508" y2="966.0508"/><text fill="#000000" font-family="sans-serif" font-size="13" font-weight="bold" lengthAdjust="spacing" textLength="14" x="90.5" y="960.7881">27</text><text fill="#000000" font-family="sans-serif" font-size="13" lengthAdjust="spacing" textLength="49" x="108.5" y="960.7881">Interview</text><!--SRC=[lPLTZjem4CVVVOeHB_iXzW9eXOJe2vMghHRj0Omp1Q-27JaJKC_K8_HjJzQnynqCX7PLNaAi-VzcnlEt8nLP1vDbaPFTeuDlqiWjkWd871PRD2GowKWhdKb3C9czeh8kMHb2Tz1uV5k5o4B3y_FRQZw_7BsqXfnDqugloAMiMsHPgfKaRSq9uAlTl6HejDbsejQUfZ0mtkrcaVa51bNh34aaoOtCyHpX5JERQ-xyPmtnAupuZYxNEQ49cBj-CMTAaDd50fhk1qcreMZINavcnpkeCxFyYzrBVR9rkaxR5b2dBT-wIY5aGTOK-mqw_gz87oHXPG0H7l0qvp7Fe1mfq0w1z1v1cWGI7_o3VIHDXt_Kj0C9YYEqZsYvXHQ2BSD4Ru4PR96YJTu_295WJzP2l5I8u246DJwuIEl0IddpskY5Q2rLSlsKnb9RJ7V94m8t3FofNswKcei1jKHSARVPq3FCQA7n7QscVHqqsCTwjAmFjXc3y9gUnzQOegBWCQuJR2dtTg_rmMt7dLQx4DMQJkT05ZO8kTfXKgIONBJTiZRd_Nkip8TXcQFSTmjqf0tzFN0hEZPYvl0RNni34pRSBg0C7ccvA66aowBQgyQAgawyTEDzvUD6t5Yk_s6BJsFQagOX-JHa_WjJVLgwaNQhlasVc3ZcX2gB4FMdiD_qMXuw9xiBQuHZ6YdbZuymWuzVoY67vn-_ppNCP-o_TTjlT_KldJR6Z5967iEezkenR5Nbxmy0]--></g></svg>