<?xml version="1.0" encoding="us-ascii" standalone="no"?><svg xmlns="http://www.w3.org/2000/svg" xmlns:xlink="http://www.w3.org/1999/xlink" contentStyleType="text/css" height="445px" preserveAspectRatio="none" style="width:595px;height:445px;background:#FFFFFF;" version="1.1" viewBox="0 0 595 445" width="595px" zoomAndPan="magnify"><defs/><g><text fill="#000000" font-family="sans-serif" font-size="14" font-weight="bold" lengthAdjust="spacing" textLength="505" x="44.25" y="30.1074">System Sequence Diagram (SSD) -  Record an interview with a candidate</text><rect fill="#FFFFFF" height="211.0371" style="stroke:#181818;stroke-width:1.0;" width="10" x="63.5" y="133.2422"/><rect fill="#FFFFFF" height="31.291" style="stroke:#181818;stroke-width:1.0;" width="10" x="552.5" y="156.5332"/><rect fill="#FFFFFF" height="62.582" style="stroke:#181818;stroke-width:1.0;" width="10" x="552.5" y="219.1152"/><rect fill="#FFFFFF" height="40.291" style="stroke:#181818;stroke-width:1.0;" width="10" x="552.5" y="312.9883"/><line style="stroke:#181818;stroke-width:0.5;stroke-dasharray:5.0,5.0;" x1="68" x2="68" y1="123.2422" y2="362.2793"/><line style="stroke:#181818;stroke-width:0.5;stroke-dasharray:5.0,5.0;" x1="557.5" x2="557.5" y1="123.2422" y2="362.2793"/><text fill="#000000" font-family="sans-serif" font-size="14" lengthAdjust="spacing" textLength="121" x="5" y="119.7285">Customer Manager</text><ellipse cx="68.5" cy="53.1211" fill="#E2E2F0" rx="8" ry="8" style="stroke:#181818;stroke-width:0.5;"/><path d="M68.5,61.1211 L68.5,88.1211 M55.5,69.1211 L81.5,69.1211 M68.5,88.1211 L55.5,103.1211 M68.5,88.1211 L81.5,103.1211 " fill="none" style="stroke:#181818;stroke-width:0.5;"/><text fill="#000000" font-family="sans-serif" font-size="14" lengthAdjust="spacing" textLength="121" x="5" y="376.3867">Customer Manager</text><ellipse cx="68.5" cy="388.4004" fill="#E2E2F0" rx="8" ry="8" style="stroke:#181818;stroke-width:0.5;"/><path d="M68.5,396.4004 L68.5,423.4004 M55.5,404.4004 L81.5,404.4004 M68.5,423.4004 L55.5,438.4004 M68.5,423.4004 L81.5,438.4004 " fill="none" style="stroke:#181818;stroke-width:0.5;"/><rect fill="#E2E2F0" height="32.6211" rx="2.5" ry="2.5" style="stroke:#181818;stroke-width:0.5;" width="64" x="525.5" y="89.6211"/><text fill="#000000" font-family="sans-serif" font-size="14" lengthAdjust="spacing" textLength="50" x="532.5" y="111.7285">:System</text><rect fill="#E2E2F0" height="32.6211" rx="2.5" ry="2.5" style="stroke:#181818;stroke-width:0.5;" width="64" x="525.5" y="361.2793"/><text fill="#000000" font-family="sans-serif" font-size="14" lengthAdjust="spacing" textLength="50" x="532.5" y="383.3867">:System</text><rect fill="#FFFFFF" height="211.0371" style="stroke:#181818;stroke-width:1.0;" width="10" x="63.5" y="133.2422"/><rect fill="#FFFFFF" height="31.291" style="stroke:#181818;stroke-width:1.0;" width="10" x="552.5" y="156.5332"/><rect fill="#FFFFFF" height="62.582" style="stroke:#181818;stroke-width:1.0;" width="10" x="552.5" y="219.1152"/><rect fill="#FFFFFF" height="40.291" style="stroke:#181818;stroke-width:1.0;" width="10" x="552.5" y="312.9883"/><polygon fill="#181818" points="540.5,152.5332,550.5,156.5332,540.5,160.5332,544.5,156.5332" style="stroke:#181818;stroke-width:1.0;"/><line style="stroke:#181818;stroke-width:1.0;" x1="73.5" x2="546.5" y1="156.5332" y2="156.5332"/><text fill="#000000" font-family="sans-serif" font-size="13" lengthAdjust="spacing" textLength="333" x="80.5" y="151.2705">Record the time and date for an interview with a candidate</text><polygon fill="#181818" points="84.5,183.8242,74.5,187.8242,84.5,191.8242,80.5,187.8242" style="stroke:#181818;stroke-width:1.0;"/><line style="stroke:#181818;stroke-width:1.0;stroke-dasharray:2.0,2.0;" x1="78.5" x2="556.5" y1="187.8242" y2="187.8242"/><text fill="#000000" font-family="sans-serif" font-size="13" lengthAdjust="spacing" textLength="210" x="90.5" y="182.5615">Show list of job opening applications</text><polygon fill="#181818" points="540.5,215.1152,550.5,219.1152,540.5,223.1152,544.5,219.1152" style="stroke:#181818;stroke-width:1.0;"/><line style="stroke:#181818;stroke-width:1.0;" x1="73.5" x2="546.5" y1="219.1152" y2="219.1152"/><text fill="#000000" font-family="sans-serif" font-size="13" lengthAdjust="spacing" textLength="184" x="80.5" y="213.8525">Select a job opening application</text><polygon fill="#181818" points="84.5,246.4063,74.5,250.4063,84.5,254.4063,80.5,250.4063" style="stroke:#181818;stroke-width:1.0;"/><line style="stroke:#181818;stroke-width:1.0;stroke-dasharray:2.0,2.0;" x1="78.5" x2="551.5" y1="250.4063" y2="250.4063"/><text fill="#000000" font-family="sans-serif" font-size="13" lengthAdjust="spacing" textLength="455" x="90.5" y="245.1436">Show the job opening application selected and the candidate associated with it</text><polygon fill="#181818" points="84.5,277.6973,74.5,281.6973,84.5,285.6973,80.5,281.6973" style="stroke:#181818;stroke-width:1.0;"/><line style="stroke:#181818;stroke-width:1.0;stroke-dasharray:2.0,2.0;" x1="78.5" x2="556.5" y1="281.6973" y2="281.6973"/><text fill="#000000" font-family="sans-serif" font-size="13" lengthAdjust="spacing" textLength="309" x="90.5" y="276.4346">Request information about the interview date and time</text><polygon fill="#181818" points="540.5,308.9883,550.5,312.9883,540.5,316.9883,544.5,312.9883" style="stroke:#181818;stroke-width:1.0;"/><line style="stroke:#181818;stroke-width:1.0;" x1="73.5" x2="546.5" y1="312.9883" y2="312.9883"/><text fill="#000000" font-family="sans-serif" font-size="13" lengthAdjust="spacing" textLength="193" x="80.5" y="307.7256">Types the interview date and time</text><polygon fill="#181818" points="79.5,340.2793,69.5,344.2793,79.5,348.2793,75.5,344.2793" style="stroke:#181818;stroke-width:1.0;"/><line style="stroke:#181818;stroke-width:1.0;stroke-dasharray:2.0,2.0;" x1="73.5" x2="551.5" y1="344.2793" y2="344.2793"/><text fill="#000000" font-family="sans-serif" font-size="13" lengthAdjust="spacing" textLength="202" x="85.5" y="339.0166">Confirm the interview date and time</text><!--SRC=[ZP9BReCm48Rtd6AKJTf5Bf15fIhPTbDwWOaPO1gmNNi8okqxDf2eKXvbOwGPV_y3rl78rcF07dfddMc3wmaa35IihoEFveWDbNBk208PGTjqVpPYYvKRsJPGOnUfA8H5Tyjp5EgXf9-1h27OCpPf_QKizw-m0VWauq85Q86jK3WnZJ2oj81Wq5PSeIWCZRW0gzqGHUq5-42hTi8ACC9xGrOATI5isACLM6qdsJoUNZE2JmgRzujymEPjiRXTh4Yh-LbBK7b8yb2hzcE35_YYDaCtoiz2MoXRDqB7KS3LyEqEu3pPr1Twtx51OMTZKT62kkMmf4wxL-Kxzv_xWDb82da70Z6hK9KBI8kNdDfdT8On3NC7BBSKFjFNrg1ijRb-WkB13P9frnedP1BHkfz4_pfxYW_l_oVxpjcQG_-Gey_Lolot_080]--></g></svg>