<?xml version="1.0" encoding="us-ascii" standalone="no"?><svg xmlns="http://www.w3.org/2000/svg" xmlns:xlink="http://www.w3.org/1999/xlink" contentStyleType="text/css" height="832px" preserveAspectRatio="none" style="width:1747px;height:832px;background:#FFFFFF;" version="1.1" viewBox="0 0 1747 832" width="1747px" zoomAndPan="magnify"><defs/><g><rect fill="#FFFFFF" height="626.4805" style="stroke:#181818;stroke-width:1.0;" width="10" x="63.5" y="98.2422"/><rect fill="#FFFFFF" height="219.0371" style="stroke:#181818;stroke-width:1.0;" width="10" x="447.5" y="121.5332"/><rect fill="#FFFFFF" height="343.8613" style="stroke:#181818;stroke-width:1.0;" width="10" x="447.5" y="371.8613"/><rect fill="#FFFFFF" height="156.4551" style="stroke:#181818;stroke-width:1.0;" width="10" x="782.5" y="152.8242"/><rect fill="#FFFFFF" height="281.2793" style="stroke:#181818;stroke-width:1.0;" width="10" x="782.5" y="403.1523"/><rect fill="#FFFFFF" height="93.873" style="stroke:#181818;stroke-width:1.0;" width="10" x="1117.5" y="184.1152"/><rect fill="#FFFFFF" height="218.6973" style="stroke:#181818;stroke-width:1.0;" width="10" x="1117.5" y="434.4434"/><rect fill="#FFFFFF" height="31.291" style="stroke:#181818;stroke-width:1.0;" width="10" x="1344" y="215.4063"/><rect fill="#FFFFFF" height="31.291" style="stroke:#181818;stroke-width:1.0;" width="10" x="1532" y="465.7344"/><rect fill="#FFFFFF" height="31.291" style="stroke:#181818;stroke-width:1.0;" width="10" x="1532" y="590.5586"/><line style="stroke:#181818;stroke-width:0.5;stroke-dasharray:5.0,5.0;" x1="68" x2="68" y1="88.2422" y2="733.7227"/><line style="stroke:#181818;stroke-width:0.5;stroke-dasharray:5.0,5.0;" x1="452" x2="452" y1="88.2422" y2="733.7227"/><line style="stroke:#181818;stroke-width:0.5;stroke-dasharray:5.0,5.0;" x1="787" x2="787" y1="88.2422" y2="733.7227"/><line style="stroke:#181818;stroke-width:0.5;stroke-dasharray:5.0,5.0;" x1="1122.5" x2="1122.5" y1="88.2422" y2="733.7227"/><line style="stroke:#181818;stroke-width:0.5;stroke-dasharray:5.0,5.0;" x1="1348.5" x2="1348.5" y1="88.2422" y2="733.7227"/><line style="stroke:#181818;stroke-width:0.5;stroke-dasharray:5.0,5.0;" x1="1536.5" x2="1536.5" y1="88.2422" y2="733.7227"/><line style="stroke:#181818;stroke-width:0.5;stroke-dasharray:5.0,5.0;" x1="1677.5" x2="1677.5" y1="546.1465" y2="733.7227"/><text fill="#000000" font-family="sans-serif" font-size="14" lengthAdjust="spacing" textLength="121" x="5" y="84.7285">Customer Manager</text><ellipse cx="68.5" cy="18.1211" fill="#E2E2F0" rx="8" ry="8" style="stroke:#181818;stroke-width:0.5;"/><path d="M68.5,26.1211 L68.5,53.1211 M55.5,34.1211 L81.5,34.1211 M68.5,53.1211 L55.5,68.1211 M68.5,53.1211 L81.5,68.1211 " fill="none" style="stroke:#181818;stroke-width:0.5;"/><text fill="#000000" font-family="sans-serif" font-size="14" lengthAdjust="spacing" textLength="121" x="5" y="747.8301">Customer Manager</text><ellipse cx="68.5" cy="759.8438" fill="#E2E2F0" rx="8" ry="8" style="stroke:#181818;stroke-width:0.5;"/><path d="M68.5,767.8438 L68.5,794.8438 M55.5,775.8438 L81.5,775.8438 M68.5,794.8438 L55.5,809.8438 M68.5,794.8438 L81.5,809.8438 " fill="none" style="stroke:#181818;stroke-width:0.5;"/><rect fill="#E2E2F0" height="51.2422" rx="2.5" ry="2.5" style="stroke:#181818;stroke-width:0.5;" width="131" x="387" y="36"/><text fill="#000000" font-family="sans-serif" font-size="14" font-style="italic" lengthAdjust="spacing" textLength="30" x="437.5" y="58.1074">&#171;UI&#187;</text><text fill="#000000" font-family="sans-serif" font-size="14" lengthAdjust="spacing" textLength="117" x="394" y="76.7285">:RecordInterviewUI</text><rect fill="#E2E2F0" height="51.2422" rx="2.5" ry="2.5" style="stroke:#181818;stroke-width:0.5;" width="131" x="387" y="732.7227"/><text fill="#000000" font-family="sans-serif" font-size="14" font-style="italic" lengthAdjust="spacing" textLength="30" x="437.5" y="754.8301">&#171;UI&#187;</text><text fill="#000000" font-family="sans-serif" font-size="14" lengthAdjust="spacing" textLength="117" x="394" y="773.4512">:RecordInterviewUI</text><rect fill="#E2E2F0" height="51.2422" rx="2.5" ry="2.5" style="stroke:#181818;stroke-width:0.5;" width="181" x="697" y="36"/><text fill="#000000" font-family="sans-serif" font-size="14" font-style="italic" lengthAdjust="spacing" textLength="85" x="745" y="58.1074">&#171;Application&#187;</text><text fill="#000000" font-family="sans-serif" font-size="14" lengthAdjust="spacing" textLength="167" x="704" y="76.7285">:RecordInterviewController</text><rect fill="#E2E2F0" height="51.2422" rx="2.5" ry="2.5" style="stroke:#181818;stroke-width:0.5;" width="181" x="697" y="732.7227"/><text fill="#000000" font-family="sans-serif" font-size="14" font-style="italic" lengthAdjust="spacing" textLength="85" x="745" y="754.8301">&#171;Application&#187;</text><text fill="#000000" font-family="sans-serif" font-size="14" lengthAdjust="spacing" textLength="167" x="704" y="773.4512">:RecordInterviewController</text><rect fill="#E2E2F0" height="51.2422" rx="2.5" ry="2.5" style="stroke:#181818;stroke-width:0.5;" width="210" x="1017.5" y="36"/><text fill="#000000" font-family="sans-serif" font-size="14" font-style="italic" lengthAdjust="spacing" textLength="62" x="1091.5" y="58.1074">&#171;Service&#187;</text><text fill="#000000" font-family="sans-serif" font-size="14" lengthAdjust="spacing" textLength="196" x="1024.5" y="76.7285">:JobOpeningApplicationService</text><rect fill="#E2E2F0" height="51.2422" rx="2.5" ry="2.5" style="stroke:#181818;stroke-width:0.5;" width="210" x="1017.5" y="732.7227"/><text fill="#000000" font-family="sans-serif" font-size="14" font-style="italic" lengthAdjust="spacing" textLength="62" x="1091.5" y="754.8301">&#171;Service&#187;</text><text fill="#000000" font-family="sans-serif" font-size="14" lengthAdjust="spacing" textLength="196" x="1024.5" y="773.4512">:JobOpeningApplicationService</text><text fill="#000000" font-family="sans-serif" font-size="14" font-style="italic" lengthAdjust="spacing" textLength="90" x="1301" y="66.1074">&#171;Persistence&#187;</text><text fill="#000000" font-family="sans-serif" font-size="14" lengthAdjust="spacing" textLength="217" x="1237.5" y="84.7285">:JobOpeningApplicationRepository</text><path d="M1331,15 C1331,5 1349,5 1349,5 C1349,5 1367,5 1367,15 L1367,41 C1367,51 1349,51 1349,51 C1349,51 1331,51 1331,41 L1331,15 " fill="#E2E2F0" style="stroke:#181818;stroke-width:1.5;"/><path d="M1331,15 C1331,25 1349,25 1349,25 C1349,25 1367,25 1367,15 " fill="none" style="stroke:#181818;stroke-width:1.5;"/><text fill="#000000" font-family="sans-serif" font-size="14" font-style="italic" lengthAdjust="spacing" textLength="90" x="1301" y="747.8301">&#171;Persistence&#187;</text><text fill="#000000" font-family="sans-serif" font-size="14" lengthAdjust="spacing" textLength="217" x="1237.5" y="766.4512">:JobOpeningApplicationRepository</text><path d="M1331,779.9648 C1331,769.9648 1349,769.9648 1349,769.9648 C1349,769.9648 1367,769.9648 1367,779.9648 L1367,805.9648 C1367,815.9648 1349,815.9648 1349,815.9648 C1349,815.9648 1331,815.9648 1331,805.9648 L1331,779.9648 " fill="#E2E2F0" style="stroke:#181818;stroke-width:1.5;"/><path d="M1331,779.9648 C1331,789.9648 1349,789.9648 1349,789.9648 C1349,789.9648 1367,789.9648 1367,779.9648 " fill="none" style="stroke:#181818;stroke-width:1.5;"/><text fill="#000000" font-family="sans-serif" font-size="14" font-style="italic" lengthAdjust="spacing" textLength="90" x="1489" y="66.1074">&#171;Persistence&#187;</text><text fill="#000000" font-family="sans-serif" font-size="14" lengthAdjust="spacing" textLength="127" x="1470.5" y="84.7285">:InterviewRepository</text><path d="M1519,15 C1519,5 1537,5 1537,5 C1537,5 1555,5 1555,15 L1555,41 C1555,51 1537,51 1537,51 C1537,51 1519,51 1519,41 L1519,15 " fill="#E2E2F0" style="stroke:#181818;stroke-width:1.5;"/><path d="M1519,15 C1519,25 1537,25 1537,25 C1537,25 1555,25 1555,15 " fill="none" style="stroke:#181818;stroke-width:1.5;"/><text fill="#000000" font-family="sans-serif" font-size="14" font-style="italic" lengthAdjust="spacing" textLength="90" x="1489" y="747.8301">&#171;Persistence&#187;</text><text fill="#000000" font-family="sans-serif" font-size="14" lengthAdjust="spacing" textLength="127" x="1470.5" y="766.4512">:InterviewRepository</text><path d="M1519,779.9648 C1519,769.9648 1537,769.9648 1537,769.9648 C1537,769.9648 1555,769.9648 1555,779.9648 L1555,805.9648 C1555,815.9648 1537,815.9648 1537,815.9648 C1537,815.9648 1519,815.9648 1519,805.9648 L1519,779.9648 " fill="#E2E2F0" style="stroke:#181818;stroke-width:1.5;"/><path d="M1519,779.9648 C1519,789.9648 1537,789.9648 1537,789.9648 C1537,789.9648 1555,789.9648 1555,779.9648 " fill="none" style="stroke:#181818;stroke-width:1.5;"/><rect fill="#E2E2F0" height="51.2422" rx="2.5" ry="2.5" style="stroke:#181818;stroke-width:0.5;" width="128" x="1613.5" y="732.7227"/><text fill="#000000" font-family="sans-serif" font-size="14" font-style="italic" lengthAdjust="spacing" textLength="64" x="1645.5" y="754.8301">&#171;Domain&#187;</text><text fill="#000000" font-family="sans-serif" font-size="14" lengthAdjust="spacing" textLength="114" x="1620.5" y="773.4512">interview:Interview</text><rect fill="#FFFFFF" height="626.4805" style="stroke:#181818;stroke-width:1.0;" width="10" x="63.5" y="98.2422"/><rect fill="#FFFFFF" height="219.0371" style="stroke:#181818;stroke-width:1.0;" width="10" x="447.5" y="121.5332"/><rect fill="#FFFFFF" height="343.8613" style="stroke:#181818;stroke-width:1.0;" width="10" x="447.5" y="371.8613"/><rect fill="#FFFFFF" height="156.4551" style="stroke:#181818;stroke-width:1.0;" width="10" x="782.5" y="152.8242"/><rect fill="#FFFFFF" height="281.2793" style="stroke:#181818;stroke-width:1.0;" width="10" x="782.5" y="403.1523"/><rect fill="#FFFFFF" height="93.873" style="stroke:#181818;stroke-width:1.0;" width="10" x="1117.5" y="184.1152"/><rect fill="#FFFFFF" height="218.6973" style="stroke:#181818;stroke-width:1.0;" width="10" x="1117.5" y="434.4434"/><rect fill="#FFFFFF" height="31.291" style="stroke:#181818;stroke-width:1.0;" width="10" x="1344" y="215.4063"/><rect fill="#FFFFFF" height="31.291" style="stroke:#181818;stroke-width:1.0;" width="10" x="1532" y="465.7344"/><rect fill="#FFFFFF" height="31.291" style="stroke:#181818;stroke-width:1.0;" width="10" x="1532" y="590.5586"/><polygon fill="#181818" points="435.5,117.5332,445.5,121.5332,435.5,125.5332,439.5,121.5332" style="stroke:#181818;stroke-width:1.0;"/><line style="stroke:#181818;stroke-width:1.0;" x1="73.5" x2="441.5" y1="121.5332" y2="121.5332"/><text fill="#000000" font-family="sans-serif" font-size="13" font-weight="bold" lengthAdjust="spacing" textLength="7" x="80.5" y="116.2705">1</text><text fill="#000000" font-family="sans-serif" font-size="13" lengthAdjust="spacing" textLength="333" x="91.5" y="116.2705">Record the time and date for an interview with a candidate</text><polygon fill="#181818" points="770.5,148.8242,780.5,152.8242,770.5,156.8242,774.5,152.8242" style="stroke:#181818;stroke-width:1.0;"/><line style="stroke:#181818;stroke-width:1.0;" x1="457.5" x2="776.5" y1="152.8242" y2="152.8242"/><text fill="#000000" font-family="sans-serif" font-size="13" font-weight="bold" lengthAdjust="spacing" textLength="7" x="464.5" y="147.5615">2</text><text fill="#000000" font-family="sans-serif" font-size="13" lengthAdjust="spacing" textLength="158" x="475.5" y="147.5615">getJobOpeningApplication()</text><polygon fill="#181818" points="1105.5,180.1152,1115.5,184.1152,1105.5,188.1152,1109.5,184.1152" style="stroke:#181818;stroke-width:1.0;"/><line style="stroke:#181818;stroke-width:1.0;" x1="792.5" x2="1111.5" y1="184.1152" y2="184.1152"/><text fill="#000000" font-family="sans-serif" font-size="13" font-weight="bold" lengthAdjust="spacing" textLength="7" x="799.5" y="178.8525">3</text><text fill="#000000" font-family="sans-serif" font-size="13" lengthAdjust="spacing" textLength="158" x="810.5" y="178.8525">getJobOpeningApplication()</text><polygon fill="#181818" points="1332,211.4063,1342,215.4063,1332,219.4063,1336,215.4063" style="stroke:#181818;stroke-width:1.0;"/><line style="stroke:#181818;stroke-width:1.0;" x1="1127.5" x2="1338" y1="215.4063" y2="215.4063"/><text fill="#000000" font-family="sans-serif" font-size="13" font-weight="bold" lengthAdjust="spacing" textLength="7" x="1134.5" y="210.1436">4</text><text fill="#000000" font-family="sans-serif" font-size="13" lengthAdjust="spacing" textLength="158" x="1145.5" y="210.1436">getJobOpeningApplication()</text><polygon fill="#181818" points="1138.5,242.6973,1128.5,246.6973,1138.5,250.6973,1134.5,246.6973" style="stroke:#181818;stroke-width:1.0;"/><line style="stroke:#181818;stroke-width:1.0;stroke-dasharray:2.0,2.0;" x1="1132.5" x2="1348" y1="246.6973" y2="246.6973"/><text fill="#000000" font-family="sans-serif" font-size="13" font-weight="bold" lengthAdjust="spacing" textLength="7" x="1144.5" y="241.4346">5</text><text fill="#000000" font-family="sans-serif" font-size="13" lengthAdjust="spacing" textLength="139" x="1155.5" y="241.4346">JobOpeningApplications</text><polygon fill="#181818" points="803.5,273.9883,793.5,277.9883,803.5,281.9883,799.5,277.9883" style="stroke:#181818;stroke-width:1.0;"/><line style="stroke:#181818;stroke-width:1.0;stroke-dasharray:2.0,2.0;" x1="797.5" x2="1121.5" y1="277.9883" y2="277.9883"/><text fill="#000000" font-family="sans-serif" font-size="13" font-weight="bold" lengthAdjust="spacing" textLength="7" x="809.5" y="272.7256">6</text><text fill="#000000" font-family="sans-serif" font-size="13" lengthAdjust="spacing" textLength="139" x="820.5" y="272.7256">JobOpeningApplications</text><polygon fill="#181818" points="468.5,305.2793,458.5,309.2793,468.5,313.2793,464.5,309.2793" style="stroke:#181818;stroke-width:1.0;"/><line style="stroke:#181818;stroke-width:1.0;stroke-dasharray:2.0,2.0;" x1="462.5" x2="786.5" y1="309.2793" y2="309.2793"/><text fill="#000000" font-family="sans-serif" font-size="13" font-weight="bold" lengthAdjust="spacing" textLength="7" x="474.5" y="304.0166">7</text><text fill="#000000" font-family="sans-serif" font-size="13" lengthAdjust="spacing" textLength="139" x="485.5" y="304.0166">JobOpeningApplications</text><polygon fill="#181818" points="84.5,336.5703,74.5,340.5703,84.5,344.5703,80.5,340.5703" style="stroke:#181818;stroke-width:1.0;"/><line style="stroke:#181818;stroke-width:1.0;stroke-dasharray:2.0,2.0;" x1="78.5" x2="451.5" y1="340.5703" y2="340.5703"/><text fill="#000000" font-family="sans-serif" font-size="13" font-weight="bold" lengthAdjust="spacing" textLength="7" x="90.5" y="335.3076">8</text><text fill="#000000" font-family="sans-serif" font-size="13" lengthAdjust="spacing" textLength="139" x="101.5" y="335.3076">JobOpeningApplications</text><polygon fill="#181818" points="435.5,367.8613,445.5,371.8613,435.5,375.8613,439.5,371.8613" style="stroke:#181818;stroke-width:1.0;"/><line style="stroke:#181818;stroke-width:1.0;" x1="73.5" x2="441.5" y1="371.8613" y2="371.8613"/><text fill="#000000" font-family="sans-serif" font-size="13" font-weight="bold" lengthAdjust="spacing" textLength="7" x="80.5" y="366.5986">9</text><text fill="#000000" font-family="sans-serif" font-size="13" lengthAdjust="spacing" textLength="344" x="91.5" y="366.5986">Record the time and date for an interview with the candidate</text><polygon fill="#181818" points="770.5,399.1523,780.5,403.1523,770.5,407.1523,774.5,403.1523" style="stroke:#181818;stroke-width:1.0;"/><line style="stroke:#181818;stroke-width:1.0;" x1="457.5" x2="776.5" y1="403.1523" y2="403.1523"/><text fill="#000000" font-family="sans-serif" font-size="13" font-weight="bold" lengthAdjust="spacing" textLength="14" x="464.5" y="397.8896">10</text><text fill="#000000" font-family="sans-serif" font-size="13" lengthAdjust="spacing" textLength="288" x="482.5" y="397.8896">recordInterview(jobOpeningApplication, time, date)</text><polygon fill="#181818" points="1105.5,430.4434,1115.5,434.4434,1105.5,438.4434,1109.5,434.4434" style="stroke:#181818;stroke-width:1.0;"/><line style="stroke:#181818;stroke-width:1.0;" x1="792.5" x2="1111.5" y1="434.4434" y2="434.4434"/><text fill="#000000" font-family="sans-serif" font-size="13" font-weight="bold" lengthAdjust="spacing" textLength="14" x="799.5" y="429.1807">11</text><text fill="#000000" font-family="sans-serif" font-size="13" lengthAdjust="spacing" textLength="288" x="817.5" y="429.1807">recordInterview(jobOpeningApplication, time, date)</text><polygon fill="#181818" points="1520,461.7344,1530,465.7344,1520,469.7344,1524,465.7344" style="stroke:#181818;stroke-width:1.0;"/><line style="stroke:#181818;stroke-width:1.0;" x1="1127.5" x2="1526" y1="465.7344" y2="465.7344"/><text fill="#000000" font-family="sans-serif" font-size="13" font-weight="bold" lengthAdjust="spacing" textLength="14" x="1134.5" y="460.4717">12</text><text fill="#000000" font-family="sans-serif" font-size="13" lengthAdjust="spacing" textLength="288" x="1152.5" y="460.4717">recordInterview(jobOpeningApplication, time, date)</text><polygon fill="#181818" points="1138.5,493.0254,1128.5,497.0254,1138.5,501.0254,1134.5,497.0254" style="stroke:#181818;stroke-width:1.0;"/><line style="stroke:#181818;stroke-width:1.0;" x1="1132.5" x2="1536" y1="497.0254" y2="497.0254"/><text fill="#000000" font-family="sans-serif" font-size="13" font-weight="bold" lengthAdjust="spacing" textLength="14" x="1144.5" y="491.7627">13</text><text fill="#000000" font-family="sans-serif" font-size="13" lengthAdjust="spacing" textLength="81" x="1162.5" y="491.7627">Save interview</text><polygon fill="#181818" points="1601.5,524.3164,1611.5,528.3164,1601.5,532.3164,1605.5,528.3164" style="stroke:#181818;stroke-width:1.0;"/><line style="stroke:#181818;stroke-width:1.0;" x1="1127.5" x2="1607.5" y1="528.3164" y2="528.3164"/><text fill="#000000" font-family="sans-serif" font-size="13" font-weight="bold" lengthAdjust="spacing" textLength="14" x="1134.5" y="523.0537">14</text><text fill="#000000" font-family="sans-serif" font-size="13" lengthAdjust="spacing" textLength="57" x="1152.5" y="523.0537">&#171;creates&#187;</text><rect fill="#E2E2F0" height="51.2422" rx="2.5" ry="2.5" style="stroke:#181818;stroke-width:0.5;" width="128" x="1613.5" y="505.0254"/><text fill="#000000" font-family="sans-serif" font-size="14" font-style="italic" lengthAdjust="spacing" textLength="64" x="1645.5" y="527.1328">&#171;Domain&#187;</text><text fill="#000000" font-family="sans-serif" font-size="14" lengthAdjust="spacing" textLength="114" x="1620.5" y="545.7539">interview:Interview</text><polygon fill="#181818" points="1520,586.5586,1530,590.5586,1520,594.5586,1524,590.5586" style="stroke:#181818;stroke-width:1.0;"/><line style="stroke:#181818;stroke-width:1.0;" x1="1127.5" x2="1526" y1="590.5586" y2="590.5586"/><text fill="#000000" font-family="sans-serif" font-size="13" font-weight="bold" lengthAdjust="spacing" textLength="14" x="1134.5" y="585.2959">15</text><text fill="#000000" font-family="sans-serif" font-size="13" lengthAdjust="spacing" textLength="334" x="1152.5" y="585.2959">getInterview(jobOpeningApplication, candidate, time, date)</text><polygon fill="#181818" points="1138.5,617.8496,1128.5,621.8496,1138.5,625.8496,1134.5,621.8496" style="stroke:#181818;stroke-width:1.0;"/><line style="stroke:#181818;stroke-width:1.0;stroke-dasharray:2.0,2.0;" x1="1132.5" x2="1536" y1="621.8496" y2="621.8496"/><text fill="#000000" font-family="sans-serif" font-size="13" font-weight="bold" lengthAdjust="spacing" textLength="14" x="1144.5" y="616.5869">16</text><text fill="#000000" font-family="sans-serif" font-size="13" lengthAdjust="spacing" textLength="49" x="1162.5" y="616.5869">Interview</text><polygon fill="#181818" points="803.5,649.1406,793.5,653.1406,803.5,657.1406,799.5,653.1406" style="stroke:#181818;stroke-width:1.0;"/><line style="stroke:#181818;stroke-width:1.0;stroke-dasharray:2.0,2.0;" x1="797.5" x2="1121.5" y1="653.1406" y2="653.1406"/><text fill="#000000" font-family="sans-serif" font-size="13" font-weight="bold" lengthAdjust="spacing" textLength="14" x="809.5" y="647.8779">17</text><text fill="#000000" font-family="sans-serif" font-size="13" lengthAdjust="spacing" textLength="49" x="827.5" y="647.8779">Interview</text><polygon fill="#181818" points="468.5,680.4316,458.5,684.4316,468.5,688.4316,464.5,684.4316" style="stroke:#181818;stroke-width:1.0;"/><line style="stroke:#181818;stroke-width:1.0;stroke-dasharray:2.0,2.0;" x1="462.5" x2="786.5" y1="684.4316" y2="684.4316"/><text fill="#000000" font-family="sans-serif" font-size="13" font-weight="bold" lengthAdjust="spacing" textLength="14" x="474.5" y="679.1689">18</text><text fill="#000000" font-family="sans-serif" font-size="13" lengthAdjust="spacing" textLength="49" x="492.5" y="679.1689">Interview</text><polygon fill="#181818" points="84.5,711.7227,74.5,715.7227,84.5,719.7227,80.5,715.7227" style="stroke:#181818;stroke-width:1.0;"/><line style="stroke:#181818;stroke-width:1.0;stroke-dasharray:2.0,2.0;" x1="78.5" x2="451.5" y1="715.7227" y2="715.7227"/><text fill="#000000" font-family="sans-serif" font-size="13" font-weight="bold" lengthAdjust="spacing" textLength="14" x="90.5" y="710.46">19</text><text fill="#000000" font-family="sans-serif" font-size="13" lengthAdjust="spacing" textLength="49" x="108.5" y="710.46">Interview</text><!--SRC=[fPHDJiD038NtFeNL3J-22rIeKWMR8Y4GY0Eu4rC6jJFHn2dYJ1o17ITZPl9FaZPILssZvy_Fzcj8YNKukyqpiJjs-426DkncI1akDsm4KdAYbKx92CxcpwoiIrP6sEqrVxwkeZBNU7Fpkbei3gjlhH5djzkIhyHjVTqoJRTQaMXhUe1xktvCsMYpQQbU0arnP7pOzJ8D3poeVEuX2GcjAUCnmZEdDjD-ygyA4fvun1ExJ6V29cBEkcP6B51wq40z_R-csiY4fXu-F4BLsjVVsHtftkvqrRTnKFKjVhKh0IWNQ_BTcft_haJlIRXC0CGFl5xuEy-nk2dAEwFe7IEP19CWVlD18jFYVsfvHqBb5Jee6cwk0NncF35aO8uRbi4Xpoy0MdQ26236nfVMfpzSNrVNUe0cDGKd7E8WfGq9ueY8vxlkEXa4P009zn5j6_KgHW3T-cgESXVbPOwN5WkCg_SryQnJoiAvJaj1q4t8WUk-Byu_XgnTnOvNiTt5b7ISH1rBJVdtFP5UKW2gjq7N-GljkLbb-oHrOSzLeRsyn3d-VYl7Nftz_eovzva_Qhq-tFGfkcEi9azG9s6mP3JvW-eY3zsiDy9-lW7-0000]--></g></svg>