<?xml version="1.0" encoding="us-ascii" standalone="no"?><svg xmlns="http://www.w3.org/2000/svg" xmlns:xlink="http://www.w3.org/1999/xlink" contentStyleType="text/css" height="377px" preserveAspectRatio="none" style="width:1314px;height:377px;background:#FFFFFF;" version="1.1" viewBox="0 0 1314 377" width="1314px" zoomAndPan="magnify"><defs/><g><!--cluster Job Opening Application--><g id="cluster_Job Opening Application"><rect fill="#AACCBB" height="251" rx="2.5" ry="2.5" style="stroke:#181818;stroke-width:1.0;" width="964" x="344" y="7"/><text fill="#000000" font-family="sans-serif" font-size="14" font-weight="bold" lengthAdjust="spacing" textLength="172" x="740" y="24.1074">Job Opening Application</text></g><!--cluster Job Opening Interview--><g id="cluster_Job Opening Interview"><rect fill="#CCBBAA" height="364" rx="2.5" ry="2.5" style="stroke:#181818;stroke-width:1.0;" width="313" x="7" y="7"/><text fill="#000000" font-family="sans-serif" font-size="14" font-weight="bold" lengthAdjust="spacing" textLength="160" x="83.5" y="24.1074">Job Opening Interview</text></g><!--class Application--><g id="elem_Application"><rect codeLine="7" fill="#F1F1F1" height="68.543" id="Application" rx="2.5" ry="2.5" style="stroke:#181818;stroke-width:0.5;" width="128" x="659" y="44"/><ellipse cx="674" cy="74.2715" fill="#ADD1B2" rx="11" ry="11" style="stroke:#181818;stroke-width:1.0;"/><path d="M676.7656,70.1465 Q676.9219,69.9277 677.1094,69.8184 Q677.2969,69.709 677.5156,69.709 Q677.8906,69.709 678.125,69.9746 Q678.3594,70.2246 678.3594,70.834 L678.3594,72.2871 Q678.3594,72.8965 678.125,73.1621 Q677.8906,73.4277 677.5156,73.4277 Q677.1719,73.4277 676.9688,73.2246 Q676.7656,73.0371 676.6563,72.5215 Q676.6094,72.1621 676.4219,71.9746 Q676.0938,71.5996 675.4844,71.3809 Q674.875,71.1621 674.25,71.1621 Q673.4844,71.1621 672.8438,71.4902 Q672.2188,71.8184 671.7188,72.5684 Q671.2344,73.3184 671.2344,74.3496 L671.2344,75.4434 Q671.2344,76.6777 672.125,77.5059 Q673.0156,78.3184 674.6094,78.3184 Q675.5469,78.3184 676.2031,78.0684 Q676.5938,77.9121 677.0156,77.4746 Q677.2813,77.209 677.4219,77.1309 Q677.5781,77.0527 677.7813,77.0527 Q678.1094,77.0527 678.3594,77.3184 Q678.625,77.5684 678.625,77.9121 Q678.625,78.2559 678.2813,78.6621 Q677.7813,79.2402 676.9844,79.5684 Q675.9063,80.0215 674.6094,80.0215 Q673.0938,80.0215 671.8906,79.3965 Q670.9063,78.8965 670.2188,77.834 Q669.5313,76.7559 669.5313,75.4746 L669.5313,74.3184 Q669.5313,72.9902 670.1406,71.8496 Q670.7656,70.6934 671.8594,70.084 Q672.9531,69.459 674.1875,69.459 Q674.9219,69.459 675.5625,69.6309 Q676.2188,69.7871 676.7656,70.1465 Z " fill="#000000"/><text fill="#000000" font-family="sans-serif" font-size="12" font-style="italic" lengthAdjust="spacing" textLength="100" x="686" y="61.9492">&#171;Aggregate Root&#187;</text><text fill="#000000" font-family="sans-serif" font-size="12" font-style="italic" lengthAdjust="spacing" textLength="44" x="714" y="77.9102">&#171;Entity&#187;</text><text fill="#000000" font-family="sans-serif" font-size="14" lengthAdjust="spacing" textLength="69" x="701.5" y="96.0293">Application</text><line style="stroke:#181818;stroke-width:0.5;" x1="660" x2="786" y1="104.543" y2="104.543"/></g><!--class ApplicationId--><g id="elem_ApplicationId"><rect codeLine="8" fill="#F1F1F1" height="68.543" id="ApplicationId" rx="2.5" ry="2.5" style="stroke:#181818;stroke-width:0.5;" width="113" x="360.5" y="173"/><ellipse cx="375.5" cy="203.2715" fill="#ADD1B2" rx="11" ry="11" style="stroke:#181818;stroke-width:1.0;"/><path d="M378.2656,199.1465 Q378.4219,198.9277 378.6094,198.8184 Q378.7969,198.709 379.0156,198.709 Q379.3906,198.709 379.625,198.9746 Q379.8594,199.2246 379.8594,199.834 L379.8594,201.2871 Q379.8594,201.8965 379.625,202.1621 Q379.3906,202.4277 379.0156,202.4277 Q378.6719,202.4277 378.4688,202.2246 Q378.2656,202.0371 378.1563,201.5215 Q378.1094,201.1621 377.9219,200.9746 Q377.5938,200.5996 376.9844,200.3809 Q376.375,200.1621 375.75,200.1621 Q374.9844,200.1621 374.3438,200.4902 Q373.7188,200.8184 373.2188,201.5684 Q372.7344,202.3184 372.7344,203.3496 L372.7344,204.4434 Q372.7344,205.6777 373.625,206.5059 Q374.5156,207.3184 376.1094,207.3184 Q377.0469,207.3184 377.7031,207.0684 Q378.0938,206.9121 378.5156,206.4746 Q378.7813,206.209 378.9219,206.1309 Q379.0781,206.0527 379.2813,206.0527 Q379.6094,206.0527 379.8594,206.3184 Q380.125,206.5684 380.125,206.9121 Q380.125,207.2559 379.7813,207.6621 Q379.2813,208.2402 378.4844,208.5684 Q377.4063,209.0215 376.1094,209.0215 Q374.5938,209.0215 373.3906,208.3965 Q372.4063,207.8965 371.7188,206.834 Q371.0313,205.7559 371.0313,204.4746 L371.0313,203.3184 Q371.0313,201.9902 371.6406,200.8496 Q372.2656,199.6934 373.3594,199.084 Q374.4531,198.459 375.6875,198.459 Q376.4219,198.459 377.0625,198.6309 Q377.7188,198.7871 378.2656,199.1465 Z " fill="#000000"/><text fill="#000000" font-family="sans-serif" font-size="12" font-style="italic" lengthAdjust="spacing" textLength="54" x="403" y="190.9492">&#171;Identity&#187;</text><text fill="#000000" font-family="sans-serif" font-size="12" font-style="italic" lengthAdjust="spacing" textLength="85" x="387.5" y="206.9102">&#171;Value Object&#187;</text><text fill="#000000" font-family="sans-serif" font-size="14" lengthAdjust="spacing" textLength="80" x="390" y="225.0293">ApplicationId</text><line style="stroke:#181818;stroke-width:0.5;" x1="361.5" x2="472.5" y1="233.543" y2="233.543"/></g><!--class AttachedEmail--><g id="elem_AttachedEmail"><rect codeLine="9" fill="#F1F1F1" height="52.582" id="AttachedEmail" rx="2.5" ry="2.5" style="stroke:#181818;stroke-width:0.5;" width="122" x="509" y="181"/><ellipse cx="524" cy="203.291" fill="#ADD1B2" rx="11" ry="11" style="stroke:#181818;stroke-width:1.0;"/><path d="M526.7656,199.166 Q526.9219,198.9473 527.1094,198.8379 Q527.2969,198.7285 527.5156,198.7285 Q527.8906,198.7285 528.125,198.9941 Q528.3594,199.2441 528.3594,199.8535 L528.3594,201.3066 Q528.3594,201.916 528.125,202.1816 Q527.8906,202.4473 527.5156,202.4473 Q527.1719,202.4473 526.9688,202.2441 Q526.7656,202.0566 526.6563,201.541 Q526.6094,201.1816 526.4219,200.9941 Q526.0938,200.6191 525.4844,200.4004 Q524.875,200.1816 524.25,200.1816 Q523.4844,200.1816 522.8438,200.5098 Q522.2188,200.8379 521.7188,201.5879 Q521.2344,202.3379 521.2344,203.3691 L521.2344,204.4629 Q521.2344,205.6973 522.125,206.5254 Q523.0156,207.3379 524.6094,207.3379 Q525.5469,207.3379 526.2031,207.0879 Q526.5938,206.9316 527.0156,206.4941 Q527.2813,206.2285 527.4219,206.1504 Q527.5781,206.0723 527.7813,206.0723 Q528.1094,206.0723 528.3594,206.3379 Q528.625,206.5879 528.625,206.9316 Q528.625,207.2754 528.2813,207.6816 Q527.7813,208.2598 526.9844,208.5879 Q525.9063,209.041 524.6094,209.041 Q523.0938,209.041 521.8906,208.416 Q520.9063,207.916 520.2188,206.8535 Q519.5313,205.7754 519.5313,204.4941 L519.5313,203.3379 Q519.5313,202.0098 520.1406,200.8691 Q520.7656,199.7129 521.8594,199.1035 Q522.9531,198.4785 524.1875,198.4785 Q524.9219,198.4785 525.5625,198.6504 Q526.2188,198.8066 526.7656,199.166 Z " fill="#000000"/><text fill="#000000" font-family="sans-serif" font-size="12" font-style="italic" lengthAdjust="spacing" textLength="85" x="540.5" y="198.9492">&#171;Value Object&#187;</text><text fill="#000000" font-family="sans-serif" font-size="14" lengthAdjust="spacing" textLength="90" x="538" y="217.0684">AttachedEmail</text><line style="stroke:#181818;stroke-width:0.5;" x1="510" x2="630" y1="225.582" y2="225.582"/></g><!--class AttachedFile--><g id="elem_AttachedFile"><rect codeLine="10" fill="#F1F1F1" height="52.582" id="AttachedFile" rx="2.5" ry="2.5" style="stroke:#181818;stroke-width:0.5;" width="113" x="666.5" y="181"/><ellipse cx="681.5" cy="203.291" fill="#ADD1B2" rx="11" ry="11" style="stroke:#181818;stroke-width:1.0;"/><path d="M684.2656,199.166 Q684.4219,198.9473 684.6094,198.8379 Q684.7969,198.7285 685.0156,198.7285 Q685.3906,198.7285 685.625,198.9941 Q685.8594,199.2441 685.8594,199.8535 L685.8594,201.3066 Q685.8594,201.916 685.625,202.1816 Q685.3906,202.4473 685.0156,202.4473 Q684.6719,202.4473 684.4688,202.2441 Q684.2656,202.0566 684.1563,201.541 Q684.1094,201.1816 683.9219,200.9941 Q683.5938,200.6191 682.9844,200.4004 Q682.375,200.1816 681.75,200.1816 Q680.9844,200.1816 680.3438,200.5098 Q679.7188,200.8379 679.2188,201.5879 Q678.7344,202.3379 678.7344,203.3691 L678.7344,204.4629 Q678.7344,205.6973 679.625,206.5254 Q680.5156,207.3379 682.1094,207.3379 Q683.0469,207.3379 683.7031,207.0879 Q684.0938,206.9316 684.5156,206.4941 Q684.7813,206.2285 684.9219,206.1504 Q685.0781,206.0723 685.2813,206.0723 Q685.6094,206.0723 685.8594,206.3379 Q686.125,206.5879 686.125,206.9316 Q686.125,207.2754 685.7813,207.6816 Q685.2813,208.2598 684.4844,208.5879 Q683.4063,209.041 682.1094,209.041 Q680.5938,209.041 679.3906,208.416 Q678.4063,207.916 677.7188,206.8535 Q677.0313,205.7754 677.0313,204.4941 L677.0313,203.3379 Q677.0313,202.0098 677.6406,200.8691 Q678.2656,199.7129 679.3594,199.1035 Q680.4531,198.4785 681.6875,198.4785 Q682.4219,198.4785 683.0625,198.6504 Q683.7188,198.8066 684.2656,199.166 Z " fill="#000000"/><text fill="#000000" font-family="sans-serif" font-size="12" font-style="italic" lengthAdjust="spacing" textLength="85" x="693.5" y="198.9492">&#171;Value Object&#187;</text><text fill="#000000" font-family="sans-serif" font-size="14" lengthAdjust="spacing" textLength="79" x="696.5" y="217.0684">AttachedFile</text><line style="stroke:#181818;stroke-width:0.5;" x1="667.5" x2="778.5" y1="225.582" y2="225.582"/></g><!--class ApplicatorData--><g id="elem_ApplicatorData"><rect codeLine="11" fill="#F1F1F1" height="52.582" id="ApplicatorData" rx="2.5" ry="2.5" style="stroke:#181818;stroke-width:0.5;" width="125" x="814.5" y="181"/><ellipse cx="829.5" cy="203.291" fill="#ADD1B2" rx="11" ry="11" style="stroke:#181818;stroke-width:1.0;"/><path d="M832.2656,199.166 Q832.4219,198.9473 832.6094,198.8379 Q832.7969,198.7285 833.0156,198.7285 Q833.3906,198.7285 833.625,198.9941 Q833.8594,199.2441 833.8594,199.8535 L833.8594,201.3066 Q833.8594,201.916 833.625,202.1816 Q833.3906,202.4473 833.0156,202.4473 Q832.6719,202.4473 832.4688,202.2441 Q832.2656,202.0566 832.1563,201.541 Q832.1094,201.1816 831.9219,200.9941 Q831.5938,200.6191 830.9844,200.4004 Q830.375,200.1816 829.75,200.1816 Q828.9844,200.1816 828.3438,200.5098 Q827.7188,200.8379 827.2188,201.5879 Q826.7344,202.3379 826.7344,203.3691 L826.7344,204.4629 Q826.7344,205.6973 827.625,206.5254 Q828.5156,207.3379 830.1094,207.3379 Q831.0469,207.3379 831.7031,207.0879 Q832.0938,206.9316 832.5156,206.4941 Q832.7813,206.2285 832.9219,206.1504 Q833.0781,206.0723 833.2813,206.0723 Q833.6094,206.0723 833.8594,206.3379 Q834.125,206.5879 834.125,206.9316 Q834.125,207.2754 833.7813,207.6816 Q833.2813,208.2598 832.4844,208.5879 Q831.4063,209.041 830.1094,209.041 Q828.5938,209.041 827.3906,208.416 Q826.4063,207.916 825.7188,206.8535 Q825.0313,205.7754 825.0313,204.4941 L825.0313,203.3379 Q825.0313,202.0098 825.6406,200.8691 Q826.2656,199.7129 827.3594,199.1035 Q828.4531,198.4785 829.6875,198.4785 Q830.4219,198.4785 831.0625,198.6504 Q831.7188,198.8066 832.2656,199.166 Z " fill="#000000"/><text fill="#000000" font-family="sans-serif" font-size="12" font-style="italic" lengthAdjust="spacing" textLength="85" x="847.5" y="198.9492">&#171;Value Object&#187;</text><text fill="#000000" font-family="sans-serif" font-size="14" lengthAdjust="spacing" textLength="93" x="843.5" y="217.0684">ApplicatorData</text><line style="stroke:#181818;stroke-width:0.5;" x1="815.5" x2="938.5" y1="225.582" y2="225.582"/></g><!--class ApplicationStatus--><g id="elem_ApplicationStatus"><rect codeLine="12" fill="#F1F1F1" height="52.582" id="ApplicationStatus" rx="2.5" ry="2.5" style="stroke:#181818;stroke-width:0.5;" width="141" x="974.5" y="181"/><ellipse cx="989.5" cy="203.291" fill="#ADD1B2" rx="11" ry="11" style="stroke:#181818;stroke-width:1.0;"/><path d="M992.2656,199.166 Q992.4219,198.9473 992.6094,198.8379 Q992.7969,198.7285 993.0156,198.7285 Q993.3906,198.7285 993.625,198.9941 Q993.8594,199.2441 993.8594,199.8535 L993.8594,201.3066 Q993.8594,201.916 993.625,202.1816 Q993.3906,202.4473 993.0156,202.4473 Q992.6719,202.4473 992.4688,202.2441 Q992.2656,202.0566 992.1563,201.541 Q992.1094,201.1816 991.9219,200.9941 Q991.5938,200.6191 990.9844,200.4004 Q990.375,200.1816 989.75,200.1816 Q988.9844,200.1816 988.3438,200.5098 Q987.7188,200.8379 987.2188,201.5879 Q986.7344,202.3379 986.7344,203.3691 L986.7344,204.4629 Q986.7344,205.6973 987.625,206.5254 Q988.5156,207.3379 990.1094,207.3379 Q991.0469,207.3379 991.7031,207.0879 Q992.0938,206.9316 992.5156,206.4941 Q992.7813,206.2285 992.9219,206.1504 Q993.0781,206.0723 993.2813,206.0723 Q993.6094,206.0723 993.8594,206.3379 Q994.125,206.5879 994.125,206.9316 Q994.125,207.2754 993.7813,207.6816 Q993.2813,208.2598 992.4844,208.5879 Q991.4063,209.041 990.1094,209.041 Q988.5938,209.041 987.3906,208.416 Q986.4063,207.916 985.7188,206.8535 Q985.0313,205.7754 985.0313,204.4941 L985.0313,203.3379 Q985.0313,202.0098 985.6406,200.8691 Q986.2656,199.7129 987.3594,199.1035 Q988.4531,198.4785 989.6875,198.4785 Q990.4219,198.4785 991.0625,198.6504 Q991.7188,198.8066 992.2656,199.166 Z " fill="#000000"/><text fill="#000000" font-family="sans-serif" font-size="12" font-style="italic" lengthAdjust="spacing" textLength="85" x="1015.5" y="198.9492">&#171;Value Object&#187;</text><text fill="#000000" font-family="sans-serif" font-size="14" lengthAdjust="spacing" textLength="109" x="1003.5" y="217.0684">ApplicationStatus</text><line style="stroke:#181818;stroke-width:0.5;" x1="975.5" x2="1114.5" y1="225.582" y2="225.582"/></g><!--class ApplicationGrade--><g id="elem_ApplicationGrade"><rect codeLine="13" fill="#F1F1F1" height="52.582" id="ApplicationGrade" rx="2.5" ry="2.5" style="stroke:#181818;stroke-width:0.5;" width="141" x="1150.5" y="181"/><ellipse cx="1165.5" cy="203.291" fill="#ADD1B2" rx="11" ry="11" style="stroke:#181818;stroke-width:1.0;"/><path d="M1168.2656,199.166 Q1168.4219,198.9473 1168.6094,198.8379 Q1168.7969,198.7285 1169.0156,198.7285 Q1169.3906,198.7285 1169.625,198.9941 Q1169.8594,199.2441 1169.8594,199.8535 L1169.8594,201.3066 Q1169.8594,201.916 1169.625,202.1816 Q1169.3906,202.4473 1169.0156,202.4473 Q1168.6719,202.4473 1168.4688,202.2441 Q1168.2656,202.0566 1168.1563,201.541 Q1168.1094,201.1816 1167.9219,200.9941 Q1167.5938,200.6191 1166.9844,200.4004 Q1166.375,200.1816 1165.75,200.1816 Q1164.9844,200.1816 1164.3438,200.5098 Q1163.7188,200.8379 1163.2188,201.5879 Q1162.7344,202.3379 1162.7344,203.3691 L1162.7344,204.4629 Q1162.7344,205.6973 1163.625,206.5254 Q1164.5156,207.3379 1166.1094,207.3379 Q1167.0469,207.3379 1167.7031,207.0879 Q1168.0938,206.9316 1168.5156,206.4941 Q1168.7813,206.2285 1168.9219,206.1504 Q1169.0781,206.0723 1169.2813,206.0723 Q1169.6094,206.0723 1169.8594,206.3379 Q1170.125,206.5879 1170.125,206.9316 Q1170.125,207.2754 1169.7813,207.6816 Q1169.2813,208.2598 1168.4844,208.5879 Q1167.4063,209.041 1166.1094,209.041 Q1164.5938,209.041 1163.3906,208.416 Q1162.4063,207.916 1161.7188,206.8535 Q1161.0313,205.7754 1161.0313,204.4941 L1161.0313,203.3379 Q1161.0313,202.0098 1161.6406,200.8691 Q1162.2656,199.7129 1163.3594,199.1035 Q1164.4531,198.4785 1165.6875,198.4785 Q1166.4219,198.4785 1167.0625,198.6504 Q1167.7188,198.8066 1168.2656,199.166 Z " fill="#000000"/><text fill="#000000" font-family="sans-serif" font-size="12" font-style="italic" lengthAdjust="spacing" textLength="85" x="1191.5" y="198.9492">&#171;Value Object&#187;</text><text fill="#000000" font-family="sans-serif" font-size="14" lengthAdjust="spacing" textLength="109" x="1179.5" y="217.0684">ApplicationGrade</text><line style="stroke:#181818;stroke-width:0.5;" x1="1151.5" x2="1290.5" y1="225.582" y2="225.582"/></g><!--class JobInterview--><g id="elem_JobInterview"><rect codeLine="23" fill="#F1F1F1" height="68.543" id="JobInterview" rx="2.5" ry="2.5" style="stroke:#181818;stroke-width:0.5;" width="128" x="27" y="173"/><ellipse cx="42" cy="203.2715" fill="#ADD1B2" rx="11" ry="11" style="stroke:#181818;stroke-width:1.0;"/><path d="M44.7656,199.1465 Q44.9219,198.9277 45.1094,198.8184 Q45.2969,198.709 45.5156,198.709 Q45.8906,198.709 46.125,198.9746 Q46.3594,199.2246 46.3594,199.834 L46.3594,201.2871 Q46.3594,201.8965 46.125,202.1621 Q45.8906,202.4277 45.5156,202.4277 Q45.1719,202.4277 44.9688,202.2246 Q44.7656,202.0371 44.6563,201.5215 Q44.6094,201.1621 44.4219,200.9746 Q44.0938,200.5996 43.4844,200.3809 Q42.875,200.1621 42.25,200.1621 Q41.4844,200.1621 40.8438,200.4902 Q40.2188,200.8184 39.7188,201.5684 Q39.2344,202.3184 39.2344,203.3496 L39.2344,204.4434 Q39.2344,205.6777 40.125,206.5059 Q41.0156,207.3184 42.6094,207.3184 Q43.5469,207.3184 44.2031,207.0684 Q44.5938,206.9121 45.0156,206.4746 Q45.2813,206.209 45.4219,206.1309 Q45.5781,206.0527 45.7813,206.0527 Q46.1094,206.0527 46.3594,206.3184 Q46.625,206.5684 46.625,206.9121 Q46.625,207.2559 46.2813,207.6621 Q45.7813,208.2402 44.9844,208.5684 Q43.9063,209.0215 42.6094,209.0215 Q41.0938,209.0215 39.8906,208.3965 Q38.9063,207.8965 38.2188,206.834 Q37.5313,205.7559 37.5313,204.4746 L37.5313,203.3184 Q37.5313,201.9902 38.1406,200.8496 Q38.7656,199.6934 39.8594,199.084 Q40.9531,198.459 42.1875,198.459 Q42.9219,198.459 43.5625,198.6309 Q44.2188,198.7871 44.7656,199.1465 Z " fill="#000000"/><text fill="#000000" font-family="sans-serif" font-size="12" font-style="italic" lengthAdjust="spacing" textLength="100" x="54" y="190.9492">&#171;Aggregate Root&#187;</text><text fill="#000000" font-family="sans-serif" font-size="12" font-style="italic" lengthAdjust="spacing" textLength="44" x="82" y="206.9102">&#171;Entity&#187;</text><text fill="#000000" font-family="sans-serif" font-size="14" lengthAdjust="spacing" textLength="77" x="65.5" y="225.0293">JobInterview</text><line style="stroke:#181818;stroke-width:0.5;" x1="28" x2="154" y1="233.543" y2="233.543"/></g><!--class JobInterviewId--><g id="elem_JobInterviewId"><rect codeLine="24" fill="#F1F1F1" height="68.543" id="JobInterviewId" rx="2.5" ry="2.5" style="stroke:#181818;stroke-width:0.5;" width="120" x="27" y="44"/><ellipse cx="42" cy="74.2715" fill="#ADD1B2" rx="11" ry="11" style="stroke:#181818;stroke-width:1.0;"/><path d="M44.7656,70.1465 Q44.9219,69.9277 45.1094,69.8184 Q45.2969,69.709 45.5156,69.709 Q45.8906,69.709 46.125,69.9746 Q46.3594,70.2246 46.3594,70.834 L46.3594,72.2871 Q46.3594,72.8965 46.125,73.1621 Q45.8906,73.4277 45.5156,73.4277 Q45.1719,73.4277 44.9688,73.2246 Q44.7656,73.0371 44.6563,72.5215 Q44.6094,72.1621 44.4219,71.9746 Q44.0938,71.5996 43.4844,71.3809 Q42.875,71.1621 42.25,71.1621 Q41.4844,71.1621 40.8438,71.4902 Q40.2188,71.8184 39.7188,72.5684 Q39.2344,73.3184 39.2344,74.3496 L39.2344,75.4434 Q39.2344,76.6777 40.125,77.5059 Q41.0156,78.3184 42.6094,78.3184 Q43.5469,78.3184 44.2031,78.0684 Q44.5938,77.9121 45.0156,77.4746 Q45.2813,77.209 45.4219,77.1309 Q45.5781,77.0527 45.7813,77.0527 Q46.1094,77.0527 46.3594,77.3184 Q46.625,77.5684 46.625,77.9121 Q46.625,78.2559 46.2813,78.6621 Q45.7813,79.2402 44.9844,79.5684 Q43.9063,80.0215 42.6094,80.0215 Q41.0938,80.0215 39.8906,79.3965 Q38.9063,78.8965 38.2188,77.834 Q37.5313,76.7559 37.5313,75.4746 L37.5313,74.3184 Q37.5313,72.9902 38.1406,71.8496 Q38.7656,70.6934 39.8594,70.084 Q40.9531,69.459 42.1875,69.459 Q42.9219,69.459 43.5625,69.6309 Q44.2188,69.7871 44.7656,70.1465 Z " fill="#000000"/><text fill="#000000" font-family="sans-serif" font-size="12" font-style="italic" lengthAdjust="spacing" textLength="54" x="73" y="61.9492">&#171;Identity&#187;</text><text fill="#000000" font-family="sans-serif" font-size="12" font-style="italic" lengthAdjust="spacing" textLength="85" x="57.5" y="77.9102">&#171;Value Object&#187;</text><text fill="#000000" font-family="sans-serif" font-size="14" lengthAdjust="spacing" textLength="88" x="56" y="96.0293">JobInterviewId</text><line style="stroke:#181818;stroke-width:0.5;" x1="28" x2="146" y1="104.543" y2="104.543"/></g><!--class InterviewDate--><g id="elem_InterviewDate"><rect codeLine="25" fill="#F1F1F1" height="52.582" id="InterviewDate" rx="2.5" ry="2.5" style="stroke:#181818;stroke-width:0.5;" width="117" x="182.5" y="52"/><ellipse cx="197.5" cy="74.291" fill="#ADD1B2" rx="11" ry="11" style="stroke:#181818;stroke-width:1.0;"/><path d="M200.2656,70.166 Q200.4219,69.9473 200.6094,69.8379 Q200.7969,69.7285 201.0156,69.7285 Q201.3906,69.7285 201.625,69.9941 Q201.8594,70.2441 201.8594,70.8535 L201.8594,72.3066 Q201.8594,72.916 201.625,73.1816 Q201.3906,73.4473 201.0156,73.4473 Q200.6719,73.4473 200.4688,73.2441 Q200.2656,73.0566 200.1563,72.541 Q200.1094,72.1816 199.9219,71.9941 Q199.5938,71.6191 198.9844,71.4004 Q198.375,71.1816 197.75,71.1816 Q196.9844,71.1816 196.3438,71.5098 Q195.7188,71.8379 195.2188,72.5879 Q194.7344,73.3379 194.7344,74.3691 L194.7344,75.4629 Q194.7344,76.6973 195.625,77.5254 Q196.5156,78.3379 198.1094,78.3379 Q199.0469,78.3379 199.7031,78.0879 Q200.0938,77.9316 200.5156,77.4941 Q200.7813,77.2285 200.9219,77.1504 Q201.0781,77.0723 201.2813,77.0723 Q201.6094,77.0723 201.8594,77.3379 Q202.125,77.5879 202.125,77.9316 Q202.125,78.2754 201.7813,78.6816 Q201.2813,79.2598 200.4844,79.5879 Q199.4063,80.041 198.1094,80.041 Q196.5938,80.041 195.3906,79.416 Q194.4063,78.916 193.7188,77.8535 Q193.0313,76.7754 193.0313,75.4941 L193.0313,74.3379 Q193.0313,73.0098 193.6406,71.8691 Q194.2656,70.7129 195.3594,70.1035 Q196.4531,69.4785 197.6875,69.4785 Q198.4219,69.4785 199.0625,69.6504 Q199.7188,69.8066 200.2656,70.166 Z " fill="#000000"/><text fill="#000000" font-family="sans-serif" font-size="12" font-style="italic" lengthAdjust="spacing" textLength="85" x="211.5" y="69.9492">&#171;Value Object&#187;</text><text fill="#000000" font-family="sans-serif" font-size="14" lengthAdjust="spacing" textLength="85" x="211.5" y="88.0684">InterviewDate</text><line style="stroke:#181818;stroke-width:0.5;" x1="183.5" x2="298.5" y1="96.582" y2="96.582"/></g><!--class InterviewTime--><g id="elem_InterviewTime"><rect codeLine="26" fill="#F1F1F1" height="52.582" id="InterviewTime" rx="2.5" ry="2.5" style="stroke:#181818;stroke-width:0.5;" width="118" x="23" y="302"/><ellipse cx="38" cy="324.291" fill="#ADD1B2" rx="11" ry="11" style="stroke:#181818;stroke-width:1.0;"/><path d="M40.7656,320.166 Q40.9219,319.9473 41.1094,319.8379 Q41.2969,319.7285 41.5156,319.7285 Q41.8906,319.7285 42.125,319.9941 Q42.3594,320.2441 42.3594,320.8535 L42.3594,322.3066 Q42.3594,322.916 42.125,323.1816 Q41.8906,323.4473 41.5156,323.4473 Q41.1719,323.4473 40.9688,323.2441 Q40.7656,323.0566 40.6563,322.541 Q40.6094,322.1816 40.4219,321.9941 Q40.0938,321.6191 39.4844,321.4004 Q38.875,321.1816 38.25,321.1816 Q37.4844,321.1816 36.8438,321.5098 Q36.2188,321.8379 35.7188,322.5879 Q35.2344,323.3379 35.2344,324.3691 L35.2344,325.4629 Q35.2344,326.6973 36.125,327.5254 Q37.0156,328.3379 38.6094,328.3379 Q39.5469,328.3379 40.2031,328.0879 Q40.5938,327.9316 41.0156,327.4941 Q41.2813,327.2285 41.4219,327.1504 Q41.5781,327.0723 41.7813,327.0723 Q42.1094,327.0723 42.3594,327.3379 Q42.625,327.5879 42.625,327.9316 Q42.625,328.2754 42.2813,328.6816 Q41.7813,329.2598 40.9844,329.5879 Q39.9063,330.041 38.6094,330.041 Q37.0938,330.041 35.8906,329.416 Q34.9063,328.916 34.2188,327.8535 Q33.5313,326.7754 33.5313,325.4941 L33.5313,324.3379 Q33.5313,323.0098 34.1406,321.8691 Q34.7656,320.7129 35.8594,320.1035 Q36.9531,319.4785 38.1875,319.4785 Q38.9219,319.4785 39.5625,319.6504 Q40.2188,319.8066 40.7656,320.166 Z " fill="#000000"/><text fill="#000000" font-family="sans-serif" font-size="12" font-style="italic" lengthAdjust="spacing" textLength="85" x="52.5" y="319.9492">&#171;Value Object&#187;</text><text fill="#000000" font-family="sans-serif" font-size="14" lengthAdjust="spacing" textLength="86" x="52" y="338.0684">InterviewTime</text><line style="stroke:#181818;stroke-width:0.5;" x1="24" x2="140" y1="346.582" y2="346.582"/></g><!--class Score--><g id="elem_Score"><rect codeLine="27" fill="#F1F1F1" height="52.582" id="Score" rx="2.5" ry="2.5" style="stroke:#181818;stroke-width:0.5;" width="113" x="190.5" y="181"/><ellipse cx="205.5" cy="203.291" fill="#ADD1B2" rx="11" ry="11" style="stroke:#181818;stroke-width:1.0;"/><path d="M208.2656,199.166 Q208.4219,198.9473 208.6094,198.8379 Q208.7969,198.7285 209.0156,198.7285 Q209.3906,198.7285 209.625,198.9941 Q209.8594,199.2441 209.8594,199.8535 L209.8594,201.3066 Q209.8594,201.916 209.625,202.1816 Q209.3906,202.4473 209.0156,202.4473 Q208.6719,202.4473 208.4688,202.2441 Q208.2656,202.0566 208.1563,201.541 Q208.1094,201.1816 207.9219,200.9941 Q207.5938,200.6191 206.9844,200.4004 Q206.375,200.1816 205.75,200.1816 Q204.9844,200.1816 204.3438,200.5098 Q203.7188,200.8379 203.2188,201.5879 Q202.7344,202.3379 202.7344,203.3691 L202.7344,204.4629 Q202.7344,205.6973 203.625,206.5254 Q204.5156,207.3379 206.1094,207.3379 Q207.0469,207.3379 207.7031,207.0879 Q208.0938,206.9316 208.5156,206.4941 Q208.7813,206.2285 208.9219,206.1504 Q209.0781,206.0723 209.2813,206.0723 Q209.6094,206.0723 209.8594,206.3379 Q210.125,206.5879 210.125,206.9316 Q210.125,207.2754 209.7813,207.6816 Q209.2813,208.2598 208.4844,208.5879 Q207.4063,209.041 206.1094,209.041 Q204.5938,209.041 203.3906,208.416 Q202.4063,207.916 201.7188,206.8535 Q201.0313,205.7754 201.0313,204.4941 L201.0313,203.3379 Q201.0313,202.0098 201.6406,200.8691 Q202.2656,199.7129 203.3594,199.1035 Q204.4531,198.4785 205.6875,198.4785 Q206.4219,198.4785 207.0625,198.6504 Q207.7188,198.8066 208.2656,199.166 Z " fill="#000000"/><text fill="#000000" font-family="sans-serif" font-size="12" font-style="italic" lengthAdjust="spacing" textLength="85" x="217.5" y="198.9492">&#171;Value Object&#187;</text><text fill="#000000" font-family="sans-serif" font-size="14" lengthAdjust="spacing" textLength="37" x="241.5" y="217.0684">Score</text><line style="stroke:#181818;stroke-width:0.5;" x1="191.5" x2="302.5" y1="225.582" y2="225.582"/></g><!--class InterviewResult--><g id="elem_InterviewResult"><rect codeLine="28" fill="#F1F1F1" height="52.582" id="InterviewResult" rx="2.5" ry="2.5" style="stroke:#181818;stroke-width:0.5;" width="127" x="176.5" y="302"/><ellipse cx="191.5" cy="324.291" fill="#ADD1B2" rx="11" ry="11" style="stroke:#181818;stroke-width:1.0;"/><path d="M194.2656,320.166 Q194.4219,319.9473 194.6094,319.8379 Q194.7969,319.7285 195.0156,319.7285 Q195.3906,319.7285 195.625,319.9941 Q195.8594,320.2441 195.8594,320.8535 L195.8594,322.3066 Q195.8594,322.916 195.625,323.1816 Q195.3906,323.4473 195.0156,323.4473 Q194.6719,323.4473 194.4688,323.2441 Q194.2656,323.0566 194.1563,322.541 Q194.1094,322.1816 193.9219,321.9941 Q193.5938,321.6191 192.9844,321.4004 Q192.375,321.1816 191.75,321.1816 Q190.9844,321.1816 190.3438,321.5098 Q189.7188,321.8379 189.2188,322.5879 Q188.7344,323.3379 188.7344,324.3691 L188.7344,325.4629 Q188.7344,326.6973 189.625,327.5254 Q190.5156,328.3379 192.1094,328.3379 Q193.0469,328.3379 193.7031,328.0879 Q194.0938,327.9316 194.5156,327.4941 Q194.7813,327.2285 194.9219,327.1504 Q195.0781,327.0723 195.2813,327.0723 Q195.6094,327.0723 195.8594,327.3379 Q196.125,327.5879 196.125,327.9316 Q196.125,328.2754 195.7813,328.6816 Q195.2813,329.2598 194.4844,329.5879 Q193.4063,330.041 192.1094,330.041 Q190.5938,330.041 189.3906,329.416 Q188.4063,328.916 187.7188,327.8535 Q187.0313,326.7754 187.0313,325.4941 L187.0313,324.3379 Q187.0313,323.0098 187.6406,321.8691 Q188.2656,320.7129 189.3594,320.1035 Q190.4531,319.4785 191.6875,319.4785 Q192.4219,319.4785 193.0625,319.6504 Q193.7188,319.8066 194.2656,320.166 Z " fill="#000000"/><text fill="#000000" font-family="sans-serif" font-size="12" font-style="italic" lengthAdjust="spacing" textLength="85" x="210.5" y="319.9492">&#171;Value Object&#187;</text><text fill="#000000" font-family="sans-serif" font-size="14" lengthAdjust="spacing" textLength="95" x="205.5" y="338.0684">InterviewResult</text><line style="stroke:#181818;stroke-width:0.5;" x1="177.5" x2="302.5" y1="346.582" y2="346.582"/></g><!--link Application to ApplicationId--><g id="link_Application_ApplicationId"><path codeLine="38" d="M658.52,104.89 C612.05,123.36 547.93,149.2 492,173 C486.1,175.51 485.4461,175.7732 479.3261,178.4532 " fill="none" id="Application-to-ApplicationId" style="stroke:#181818;stroke-width:1.0;"/><polygon fill="#181818" points="473.83,180.86,483.6787,180.9139,478.4101,178.8543,480.4696,173.5857,473.83,180.86" style="stroke:#181818;stroke-width:1.0;"/><text fill="#000000" font-family="sans-serif" font-size="13" lengthAdjust="spacing" textLength="7" x="644.0847" y="103.9159">1</text><text fill="#000000" font-family="sans-serif" font-size="13" lengthAdjust="spacing" textLength="7" x="481.5598" y="173.4339">1</text></g><!--link Application to AttachedEmail--><g id="link_Application_AttachedEmail"><path codeLine="39" d="M682.4,113.2 C656.9,134.36 629.1472,157.4084 605.6972,176.8684 " fill="none" id="Application-to-AttachedEmail" style="stroke:#181818;stroke-width:1.0;"/><polygon fill="#181818" points="601.08,180.7,610.5602,178.0307,604.9277,177.507,605.4514,171.8744,601.08,180.7" style="stroke:#181818;stroke-width:1.0;"/><text fill="#000000" font-family="sans-serif" font-size="13" lengthAdjust="spacing" textLength="7" x="668.0959" y="134.4453">1</text><text fill="#000000" font-family="sans-serif" font-size="13" lengthAdjust="spacing" textLength="7" x="600.4579" y="169.6472">1</text></g><!--link Application to AttachedFile--><g id="link_Application_AttachedFile"><path codeLine="40" d="M723,113.2 C723,134.36 723,155.24 723,174.7 " fill="none" id="Application-to-AttachedFile" style="stroke:#181818;stroke-width:1.0;"/><polygon fill="#181818" points="723,180.7,727,171.7,723,175.7,719,171.7,723,180.7" style="stroke:#181818;stroke-width:1.0;"/><text fill="#000000" font-family="sans-serif" font-size="13" lengthAdjust="spacing" textLength="7" x="715.4203" y="134.4453">1</text><text fill="#000000" font-family="sans-serif" font-size="13" lengthAdjust="spacing" textLength="7" x="715.1906" y="169.6472">1</text></g><!--link Application to ApplicatorData--><g id="link_Application_ApplicatorData"><path codeLine="41" d="M763.86,113.2 C789.53,134.36 817.4908,157.4229 841.0908,176.8829 " fill="none" id="Application-to-ApplicatorData" style="stroke:#181818;stroke-width:1.0;"/><polygon fill="#181818" points="845.72,180.7,841.321,171.8882,841.8623,177.5191,836.2314,178.0604,845.72,180.7" style="stroke:#181818;stroke-width:1.0;"/><text fill="#000000" font-family="sans-serif" font-size="13" lengthAdjust="spacing" textLength="7" x="763.0478" y="134.4453">1</text><text fill="#000000" font-family="sans-serif" font-size="13" lengthAdjust="spacing" textLength="7" x="830.6771" y="169.6472">1</text></g><!--link Application to ApplicationStatus--><g id="link_Application_ApplicationStatus"><path codeLine="42" d="M787,104.74 C843.03,126.84 918.4684,156.5987 974.7084,178.7787 " fill="none" id="Application-to-ApplicationStatus" style="stroke:#181818;stroke-width:1.0;"/><polygon fill="#181818" points="980.29,180.98,973.3851,173.957,975.6387,179.1456,970.4501,181.3991,980.29,180.98" style="stroke:#181818;stroke-width:1.0;"/><text fill="#000000" font-family="sans-serif" font-size="13" lengthAdjust="spacing" textLength="7" x="794.8047" y="122.8284">1</text><text fill="#000000" font-family="sans-serif" font-size="13" lengthAdjust="spacing" textLength="7" x="959.2217" y="170.8586">1</text></g><!--link Application to ApplicationGrade--><g id="link_Application_ApplicationGrade"><path codeLine="43" d="M787.29,91.27 C868.63,106.83 1012.64,136.56 1133,173 C1140.82,175.37 1143.2972,176.0787 1151.3072,178.9287 " fill="none" id="Application-to-ApplicationGrade" style="stroke:#181818;stroke-width:1.0;"/><polygon fill="#181818" points="1156.96,180.94,1149.8216,174.1545,1152.2493,179.2639,1147.1399,181.6916,1156.96,180.94" style="stroke:#181818;stroke-width:1.0;"/><text fill="#000000" font-family="sans-serif" font-size="13" lengthAdjust="spacing" textLength="7" x="795.1282" y="88.8353">1</text><text fill="#000000" font-family="sans-serif" font-size="13" lengthAdjust="spacing" textLength="7" x="1135.1856" y="170.3765">1</text></g><!--reverse link JobInterviewId to JobInterview--><g id="link_JobInterviewId_JobInterview"><path codeLine="45" d="M88.2493,119.197 C88.8293,137.567 89.35,154.25 89.93,172.64 " fill="none" id="JobInterviewId-backto-JobInterview" style="stroke:#181818;stroke-width:1.0;"/><polygon fill="#181818" points="88.06,113.2,84.346,122.3217,88.2178,118.1975,92.342,122.0693,88.06,113.2" style="stroke:#181818;stroke-width:1.0;"/><text fill="#000000" font-family="sans-serif" font-size="13" lengthAdjust="spacing" textLength="7" x="80.6559" y="134.4453">1</text><text fill="#000000" font-family="sans-serif" font-size="13" lengthAdjust="spacing" textLength="7" x="82.0874" y="161.7428">1</text></g><!--reverse link InterviewDate to JobInterview--><g id="link_InterviewDate_JobInterview"><path codeLine="46" d="M206.071,109.0772 C183.041,128.5772 155.76,151.67 130.71,172.88 " fill="none" id="InterviewDate-backto-JobInterview" style="stroke:#181818;stroke-width:1.0;"/><polygon fill="#181818" points="210.65,105.2,201.1967,107.9631,206.8341,108.431,206.3662,114.0684,210.65,105.2" style="stroke:#181818;stroke-width:1.0;"/><text fill="#000000" font-family="sans-serif" font-size="13" lengthAdjust="spacing" textLength="7" x="196.6684" y="126.5614">1</text><text fill="#000000" font-family="sans-serif" font-size="13" lengthAdjust="spacing" textLength="7" x="130.6125" y="161.7599">1</text></g><!--link JobInterview to InterviewTime--><g id="link_JobInterview_InterviewTime"><path codeLine="47" d="M88.45,242.28 C87.01,261.25 85.7031,278.5471 84.3831,295.9771 " fill="none" id="JobInterview-to-InterviewTime" style="stroke:#181818;stroke-width:1.0;"/><polygon fill="#181818" points="83.93,301.96,88.5982,293.2878,84.3076,296.9743,80.6211,292.6836,83.93,301.96" style="stroke:#181818;stroke-width:1.0;"/><text fill="#000000" font-family="sans-serif" font-size="13" lengthAdjust="spacing" textLength="7" x="80.448" y="263.5385">1</text><text fill="#000000" font-family="sans-serif" font-size="13" lengthAdjust="spacing" textLength="7" x="76.5473" y="290.5337">1</text></g><!--link JobInterview to Score--><g id="link_JobInterview_Score"><path codeLine="48" d="M155.29,207.5 C166.99,207.5 172.69,207.5 184.4,207.5 " fill="none" id="JobInterview-to-Score" style="stroke:#181818;stroke-width:1.0;"/><polygon fill="#181818" points="190.4,207.5,181.4,203.5,185.4,207.5,181.4,211.5,190.4,207.5" style="stroke:#181818;stroke-width:1.0;"/><text fill="#000000" font-family="sans-serif" font-size="13" lengthAdjust="spacing" textLength="7" x="163.1282" y="203.5888">1</text><text fill="#000000" font-family="sans-serif" font-size="13" lengthAdjust="spacing" textLength="7" x="175.3241" y="203.4338">1</text></g><!--link JobInterview to InterviewResult--><g id="link_JobInterview_InterviewResult"><path codeLine="49" d="M133.3,242.28 C157.05,261.25 181.5121,280.7852 203.3321,298.2152 " fill="none" id="JobInterview-to-InterviewResult" style="stroke:#181818;stroke-width:1.0;"/><polygon fill="#181818" points="208.02,301.96,203.4846,293.2176,204.1134,298.8394,198.4916,299.4681,208.02,301.96" style="stroke:#181818;stroke-width:1.0;"/><text fill="#000000" font-family="sans-serif" font-size="13" lengthAdjust="spacing" textLength="7" x="132.7263" y="263.5385">1</text><text fill="#000000" font-family="sans-serif" font-size="13" lengthAdjust="spacing" textLength="7" x="192.3718" y="290.5337">1</text></g><!--link Application to JobInterview--><g id="link_Application_JobInterview"><path codeLine="51" d="M658.89,85.78 C555.23,96.96 345.07,123.87 173,173 C167.23,174.65 166.9795,174.5776 161.0995,176.6476 " fill="none" id="Application-to-JobInterview" style="stroke:#181818;stroke-width:1.0;"/><polygon fill="#181818" points="155.44,178.64,165.2576,179.4244,160.1563,176.9797,162.601,171.8784,155.44,178.64" style="stroke:#181818;stroke-width:1.0;"/><text fill="#000000" font-family="sans-serif" font-size="13" lengthAdjust="spacing" textLength="7" x="644.0726" y="82.7105">1</text><text fill="#000000" font-family="sans-serif" font-size="13" lengthAdjust="spacing" textLength="7" x="162.8709" y="171.623">1</text></g><!--SRC=[ZP8nQyCm48Lt_Oh37JgbfciHXa3JaYw1f7G_IuUj8al6FhUKaFzUntQ27Pn4jsZvtkbuxptcp6Nz4iUbHSTDOP-KBs9biQuNsc1MOI54RZH1GPnxNGiXAbACBhC4qOTFOLEICow3PLbQev2DTn4y82gLfh0Nq4wtRmn8kSooYZ9aWgttd2HIhXmR_akI_M5UizPIhZKDb9HVQ1k2JVhTddEfOaQLaruLQ6mG-MOitGQ7GtprYen1Q7lpZf6REfH-hr3FNN4Gmm1SyNxjcAeVGx-jyqVV4GVdJx-qy9c10FVdT441d8HdLMiNXRAVfhZ7xfIlWlTjgMuipz9dJyKe08YU8rWiakwTLEywDQxQNUfOixiVzXKBkQklLmZPLKk8IGqwj2a7U9hqBN8IxGnuYHrJdS5wgiipO4aVvVMqnXl4Fm00]--></g></svg>