<?xml version="1.0" encoding="us-ascii" standalone="no"?><svg xmlns="http://www.w3.org/2000/svg" xmlns:xlink="http://www.w3.org/1999/xlink" contentStyleType="text/css" height="565px" preserveAspectRatio="none" style="width:1229px;height:565px;background:#FFFFFF;" version="1.1" viewBox="0 0 1229 565" width="1229px" zoomAndPan="magnify"><defs/><g><!--cluster ui--><g id="cluster_ui"><path d="M184.5,6.0137 L198.5,6.0137 A3.75,3.75 0 0 1 201,8.5137 L208,30.6348 L345.5,30.6348 A2.5,2.5 0 0 1 348,33.1348 L348,104.5137 A2.5,2.5 0 0 1 345.5,107.0137 L184.5,107.0137 A2.5,2.5 0 0 1 182,104.5137 L182,8.5137 A2.5,2.5 0 0 1 184.5,6.0137 " fill="none" style="stroke:#000000;stroke-width:1.5;"/><line style="stroke:#000000;stroke-width:1.5;" x1="182" x2="208" y1="30.6348" y2="30.6348"/><text fill="#000000" font-family="sans-serif" font-size="14" font-weight="bold" lengthAdjust="spacing" textLength="13" x="186" y="23.1211">ui</text></g><!--cluster application--><g id="cluster_application"><path d="M159.5,131.0137 L237.5,131.0137 A3.75,3.75 0 0 1 240,133.5137 L247,155.6348 L370.5,155.6348 A2.5,2.5 0 0 1 373,158.1348 L373,248.5137 A2.5,2.5 0 0 1 370.5,251.0137 L159.5,251.0137 A2.5,2.5 0 0 1 157,248.5137 L157,133.5137 A2.5,2.5 0 0 1 159.5,131.0137 " fill="none" style="stroke:#000000;stroke-width:1.5;"/><line style="stroke:#000000;stroke-width:1.5;" x1="157" x2="247" y1="155.6348" y2="155.6348"/><text fill="#000000" font-family="sans-serif" font-size="14" font-weight="bold" lengthAdjust="spacing" textLength="77" x="161" y="148.1211">application</text></g><!--cluster repository--><g id="cluster_repository"><path d="M8.5,293.5137 L81.5,293.5137 A3.75,3.75 0 0 1 84,296.0137 L91,318.1348 L201.5,318.1348 A2.5,2.5 0 0 1 204,320.6348 L204,392.0137 A2.5,2.5 0 0 1 201.5,394.5137 L8.5,394.5137 A2.5,2.5 0 0 1 6,392.0137 L6,296.0137 A2.5,2.5 0 0 1 8.5,293.5137 " fill="none" style="stroke:#000000;stroke-width:1.5;"/><line style="stroke:#000000;stroke-width:1.5;" x1="6" x2="91" y1="318.1348" y2="318.1348"/><text fill="#000000" font-family="sans-serif" font-size="14" font-weight="bold" lengthAdjust="spacing" textLength="72" x="10" y="310.6211">repository</text></g><!--cluster domain--><g id="cluster_domain"><path d="M230.5,275.0137 L282.5,275.0137 A3.75,3.75 0 0 1 285,277.5137 L292,299.6348 L1177.5,299.6348 A2.5,2.5 0 0 1 1180,302.1348 L1180,555.5137 A2.5,2.5 0 0 1 1177.5,558.0137 L230.5,558.0137 A2.5,2.5 0 0 1 228,555.5137 L228,277.5137 A2.5,2.5 0 0 1 230.5,275.0137 " fill="none" style="stroke:#000000;stroke-width:1.5;"/><line style="stroke:#000000;stroke-width:1.5;" x1="228" x2="292" y1="299.6348" y2="299.6348"/><text fill="#000000" font-family="sans-serif" font-size="14" font-weight="bold" lengthAdjust="spacing" textLength="51" x="232" y="292.1211">domain</text></g><!--class AddCandidateUI--><g id="elem_AddCandidateUI"><rect codeLine="6" fill="#F1F1F1" height="48" id="AddCandidateUI" rx="2.5" ry="2.5" style="stroke:#181818;stroke-width:0.5;" width="134" x="198" y="43.0137"/><ellipse cx="213" cy="59.0137" fill="#ADD1B2" rx="11" ry="11" style="stroke:#181818;stroke-width:1.0;"/><path d="M215.7656,54.8887 Q215.9219,54.6699 216.1094,54.5605 Q216.2969,54.4512 216.5156,54.4512 Q216.8906,54.4512 217.125,54.7168 Q217.3594,54.9668 217.3594,55.5762 L217.3594,57.0293 Q217.3594,57.6387 217.125,57.9043 Q216.8906,58.1699 216.5156,58.1699 Q216.1719,58.1699 215.9688,57.9668 Q215.7656,57.7793 215.6563,57.2637 Q215.6094,56.9043 215.4219,56.7168 Q215.0938,56.3418 214.4844,56.123 Q213.875,55.9043 213.25,55.9043 Q212.4844,55.9043 211.8438,56.2324 Q211.2188,56.5605 210.7188,57.3105 Q210.2344,58.0605 210.2344,59.0918 L210.2344,60.1855 Q210.2344,61.4199 211.125,62.248 Q212.0156,63.0605 213.6094,63.0605 Q214.5469,63.0605 215.2031,62.8105 Q215.5938,62.6543 216.0156,62.2168 Q216.2813,61.9512 216.4219,61.873 Q216.5781,61.7949 216.7813,61.7949 Q217.1094,61.7949 217.3594,62.0605 Q217.625,62.3105 217.625,62.6543 Q217.625,62.998 217.2813,63.4043 Q216.7813,63.9824 215.9844,64.3105 Q214.9063,64.7637 213.6094,64.7637 Q212.0938,64.7637 210.8906,64.1387 Q209.9063,63.6387 209.2188,62.5762 Q208.5313,61.498 208.5313,60.2168 L208.5313,59.0605 Q208.5313,57.7324 209.1406,56.5918 Q209.7656,55.4355 210.8594,54.8262 Q211.9531,54.2012 213.1875,54.2012 Q213.9219,54.2012 214.5625,54.373 Q215.2188,54.5293 215.7656,54.8887 Z " fill="#000000"/><text fill="#000000" font-family="sans-serif" font-size="14" lengthAdjust="spacing" textLength="102" x="227" y="64.8105">AddCandidateUI</text><line style="stroke:#181818;stroke-width:0.5;" x1="199" x2="331" y1="75.0137" y2="75.0137"/><line style="stroke:#181818;stroke-width:0.5;" x1="199" x2="331" y1="83.0137" y2="83.0137"/></g><!--class AddCandidateController--><g id="elem_AddCandidateController"><rect codeLine="14" fill="#F1F1F1" height="66.6211" id="AddCandidateController" rx="2.5" ry="2.5" style="stroke:#181818;stroke-width:0.5;" width="184" x="173" y="168.0137"/><ellipse cx="188" cy="184.0137" fill="#ADD1B2" rx="11" ry="11" style="stroke:#181818;stroke-width:1.0;"/><path d="M190.7656,179.8887 Q190.9219,179.6699 191.1094,179.5605 Q191.2969,179.4512 191.5156,179.4512 Q191.8906,179.4512 192.125,179.7168 Q192.3594,179.9668 192.3594,180.5762 L192.3594,182.0293 Q192.3594,182.6387 192.125,182.9043 Q191.8906,183.1699 191.5156,183.1699 Q191.1719,183.1699 190.9688,182.9668 Q190.7656,182.7793 190.6563,182.2637 Q190.6094,181.9043 190.4219,181.7168 Q190.0938,181.3418 189.4844,181.123 Q188.875,180.9043 188.25,180.9043 Q187.4844,180.9043 186.8438,181.2324 Q186.2188,181.5605 185.7188,182.3105 Q185.2344,183.0605 185.2344,184.0918 L185.2344,185.1855 Q185.2344,186.4199 186.125,187.248 Q187.0156,188.0605 188.6094,188.0605 Q189.5469,188.0605 190.2031,187.8105 Q190.5938,187.6543 191.0156,187.2168 Q191.2813,186.9512 191.4219,186.873 Q191.5781,186.7949 191.7813,186.7949 Q192.1094,186.7949 192.3594,187.0605 Q192.625,187.3105 192.625,187.6543 Q192.625,187.998 192.2813,188.4043 Q191.7813,188.9824 190.9844,189.3105 Q189.9063,189.7637 188.6094,189.7637 Q187.0938,189.7637 185.8906,189.1387 Q184.9063,188.6387 184.2188,187.5762 Q183.5313,186.498 183.5313,185.2168 L183.5313,184.0605 Q183.5313,182.7324 184.1406,181.5918 Q184.7656,180.4355 185.8594,179.8262 Q186.9531,179.2012 188.1875,179.2012 Q188.9219,179.2012 189.5625,179.373 Q190.2188,179.5293 190.7656,179.8887 Z " fill="#000000"/><text fill="#000000" font-family="sans-serif" font-size="14" lengthAdjust="spacing" textLength="152" x="202" y="189.8105">AddCandidateController</text><line style="stroke:#181818;stroke-width:0.5;" x1="174" x2="356" y1="200.0137" y2="200.0137"/><line style="stroke:#181818;stroke-width:0.5;" x1="174" x2="356" y1="208.0137" y2="208.0137"/><ellipse cx="184" cy="222.8242" fill="#84BE84" rx="3" ry="3" style="stroke:#038048;stroke-width:1.0;"/><text fill="#000000" font-family="sans-serif" font-size="14" lengthAdjust="spacing" textLength="99" x="193" y="227.1211">addCandidate()</text></g><!--class CandidateRepository--><g id="elem_CandidateRepository"><rect codeLine="21" fill="#F1F1F1" height="48" id="CandidateRepository" rx="2.5" ry="2.5" style="stroke:#181818;stroke-width:0.5;" width="165" x="22.5" y="330.5137"/><ellipse cx="37.5" cy="346.5137" fill="#B4A7E5" rx="11" ry="11" style="stroke:#181818;stroke-width:1.0;"/><path d="M38.4531,343.1543 L38.4531,349.8105 L40.1719,349.8105 Q40.7813,349.8105 41.0469,350.0449 Q41.3125,350.2793 41.3125,350.6699 Q41.3125,351.0449 41.0469,351.2793 Q40.7813,351.5137 40.1719,351.5137 L35.0313,351.5137 Q34.4219,351.5137 34.1563,351.2793 Q33.8906,351.0449 33.8906,350.6543 Q33.8906,350.2793 34.1563,350.0449 Q34.4219,349.8105 35.0313,349.8105 L36.75,349.8105 L36.75,343.1543 L35.0313,343.1543 Q34.4219,343.1543 34.1563,342.9199 Q33.8906,342.6855 33.8906,342.2949 Q33.8906,341.9199 34.1563,341.6855 Q34.4219,341.4512 35.0313,341.4512 L40.1719,341.4512 Q40.7813,341.4512 41.0469,341.6855 Q41.3125,341.9199 41.3125,342.2949 Q41.3125,342.6855 41.0469,342.9199 Q40.7813,343.1543 40.1719,343.1543 L38.4531,343.1543 Z " fill="#000000"/><text fill="#000000" font-family="sans-serif" font-size="14" font-style="italic" lengthAdjust="spacing" textLength="133" x="51.5" y="352.3105">CandidateRepository</text><line style="stroke:#181818;stroke-width:0.5;" x1="23.5" x2="186.5" y1="362.5137" y2="362.5137"/><line style="stroke:#181818;stroke-width:0.5;" x1="23.5" x2="186.5" y1="370.5137" y2="370.5137"/></g><!--class Role--><g id="elem_Role"><rect codeLine="26" fill="#F1F1F1" height="48" id="Role" rx="2.5" ry="2.5" style="stroke:#181818;stroke-width:0.5;" width="61" x="970.5" y="330.5137"/><ellipse cx="985.5" cy="346.5137" fill="#ADD1B2" rx="11" ry="11" style="stroke:#181818;stroke-width:1.0;"/><path d="M988.2656,342.3887 Q988.4219,342.1699 988.6094,342.0605 Q988.7969,341.9512 989.0156,341.9512 Q989.3906,341.9512 989.625,342.2168 Q989.8594,342.4668 989.8594,343.0762 L989.8594,344.5293 Q989.8594,345.1387 989.625,345.4043 Q989.3906,345.6699 989.0156,345.6699 Q988.6719,345.6699 988.4688,345.4668 Q988.2656,345.2793 988.1563,344.7637 Q988.1094,344.4043 987.9219,344.2168 Q987.5938,343.8418 986.9844,343.623 Q986.375,343.4043 985.75,343.4043 Q984.9844,343.4043 984.3438,343.7324 Q983.7188,344.0605 983.2188,344.8105 Q982.7344,345.5605 982.7344,346.5918 L982.7344,347.6855 Q982.7344,348.9199 983.625,349.748 Q984.5156,350.5605 986.1094,350.5605 Q987.0469,350.5605 987.7031,350.3105 Q988.0938,350.1543 988.5156,349.7168 Q988.7813,349.4512 988.9219,349.373 Q989.0781,349.2949 989.2813,349.2949 Q989.6094,349.2949 989.8594,349.5605 Q990.125,349.8105 990.125,350.1543 Q990.125,350.498 989.7813,350.9043 Q989.2813,351.4824 988.4844,351.8105 Q987.4063,352.2637 986.1094,352.2637 Q984.5938,352.2637 983.3906,351.6387 Q982.4063,351.1387 981.7188,350.0762 Q981.0313,348.998 981.0313,347.7168 L981.0313,346.5605 Q981.0313,345.2324 981.6406,344.0918 Q982.2656,342.9355 983.3594,342.3262 Q984.4531,341.7012 985.6875,341.7012 Q986.4219,341.7012 987.0625,341.873 Q987.7188,342.0293 988.2656,342.3887 Z " fill="#000000"/><text fill="#000000" font-family="sans-serif" font-size="14" lengthAdjust="spacing" textLength="29" x="999.5" y="352.3105">Role</text><line style="stroke:#181818;stroke-width:0.5;" x1="971.5" x2="1030.5" y1="362.5137" y2="362.5137"/><line style="stroke:#181818;stroke-width:0.5;" x1="971.5" x2="1030.5" y1="370.5137" y2="370.5137"/></g><!--class AuthorizationService--><g id="elem_AuthorizationService"><rect codeLine="28" fill="#F1F1F1" height="85.2422" id="AuthorizationService" rx="2.5" ry="2.5" style="stroke:#181818;stroke-width:0.5;" width="305" x="630.5" y="312.0137"/><ellipse cx="714.25" cy="328.0137" fill="#ADD1B2" rx="11" ry="11" style="stroke:#181818;stroke-width:1.0;"/><path d="M717.0156,323.8887 Q717.1719,323.6699 717.3594,323.5605 Q717.5469,323.4512 717.7656,323.4512 Q718.1406,323.4512 718.375,323.7168 Q718.6094,323.9668 718.6094,324.5762 L718.6094,326.0293 Q718.6094,326.6387 718.375,326.9043 Q718.1406,327.1699 717.7656,327.1699 Q717.4219,327.1699 717.2188,326.9668 Q717.0156,326.7793 716.9063,326.2637 Q716.8594,325.9043 716.6719,325.7168 Q716.3438,325.3418 715.7344,325.123 Q715.125,324.9043 714.5,324.9043 Q713.7344,324.9043 713.0938,325.2324 Q712.4688,325.5605 711.9688,326.3105 Q711.4844,327.0605 711.4844,328.0918 L711.4844,329.1855 Q711.4844,330.4199 712.375,331.248 Q713.2656,332.0605 714.8594,332.0605 Q715.7969,332.0605 716.4531,331.8105 Q716.8438,331.6543 717.2656,331.2168 Q717.5313,330.9512 717.6719,330.873 Q717.8281,330.7949 718.0313,330.7949 Q718.3594,330.7949 718.6094,331.0605 Q718.875,331.3105 718.875,331.6543 Q718.875,331.998 718.5313,332.4043 Q718.0313,332.9824 717.2344,333.3105 Q716.1563,333.7637 714.8594,333.7637 Q713.3438,333.7637 712.1406,333.1387 Q711.1563,332.6387 710.4688,331.5762 Q709.7813,330.498 709.7813,329.2168 L709.7813,328.0605 Q709.7813,326.7324 710.3906,325.5918 Q711.0156,324.4355 712.1094,323.8262 Q713.2031,323.2012 714.4375,323.2012 Q715.1719,323.2012 715.8125,323.373 Q716.4688,323.5293 717.0156,323.8887 Z " fill="#000000"/><text fill="#000000" font-family="sans-serif" font-size="14" lengthAdjust="spacing" textLength="129" x="734.75" y="333.8105">AuthorizationService</text><line style="stroke:#181818;stroke-width:0.5;" x1="631.5" x2="934.5" y1="344.0137" y2="344.0137"/><line style="stroke:#181818;stroke-width:0.5;" x1="631.5" x2="934.5" y1="352.0137" y2="352.0137"/><ellipse cx="641.5" cy="366.8242" fill="#84BE84" rx="3" ry="3" style="stroke:#038048;stroke-width:1.0;"/><text fill="#000000" font-family="sans-serif" font-size="14" lengthAdjust="spacing" textLength="279" x="650.5" y="371.1211">authorizationService() : AuthorizationService</text><ellipse cx="641.5" cy="385.4453" fill="#84BE84" rx="3" ry="3" style="stroke:#038048;stroke-width:1.0;"/><text fill="#000000" font-family="sans-serif" font-size="14" lengthAdjust="spacing" textLength="233" x="650.5" y="389.7422">ensureAuthenticatedUserHasAnyOf()</text></g><!--class CandidateManagementService--><g id="elem_CandidateManagementService"><rect codeLine="33" fill="#F1F1F1" height="85.2422" id="CandidateManagementService" rx="2.5" ry="2.5" style="stroke:#181818;stroke-width:0.5;" width="351" x="244.5" y="312.0137"/><ellipse cx="318.75" cy="328.0137" fill="#ADD1B2" rx="11" ry="11" style="stroke:#181818;stroke-width:1.0;"/><path d="M321.5156,323.8887 Q321.6719,323.6699 321.8594,323.5605 Q322.0469,323.4512 322.2656,323.4512 Q322.6406,323.4512 322.875,323.7168 Q323.1094,323.9668 323.1094,324.5762 L323.1094,326.0293 Q323.1094,326.6387 322.875,326.9043 Q322.6406,327.1699 322.2656,327.1699 Q321.9219,327.1699 321.7188,326.9668 Q321.5156,326.7793 321.4063,326.2637 Q321.3594,325.9043 321.1719,325.7168 Q320.8438,325.3418 320.2344,325.123 Q319.625,324.9043 319,324.9043 Q318.2344,324.9043 317.5938,325.2324 Q316.9688,325.5605 316.4688,326.3105 Q315.9844,327.0605 315.9844,328.0918 L315.9844,329.1855 Q315.9844,330.4199 316.875,331.248 Q317.7656,332.0605 319.3594,332.0605 Q320.2969,332.0605 320.9531,331.8105 Q321.3438,331.6543 321.7656,331.2168 Q322.0313,330.9512 322.1719,330.873 Q322.3281,330.7949 322.5313,330.7949 Q322.8594,330.7949 323.1094,331.0605 Q323.375,331.3105 323.375,331.6543 Q323.375,331.998 323.0313,332.4043 Q322.5313,332.9824 321.7344,333.3105 Q320.6563,333.7637 319.3594,333.7637 Q317.8438,333.7637 316.6406,333.1387 Q315.6563,332.6387 314.9688,331.5762 Q314.2813,330.498 314.2813,329.2168 L314.2813,328.0605 Q314.2813,326.7324 314.8906,325.5918 Q315.5156,324.4355 316.6094,323.8262 Q317.7031,323.2012 318.9375,323.2012 Q319.6719,323.2012 320.3125,323.373 Q320.9688,323.5293 321.5156,323.8887 Z " fill="#000000"/><text fill="#000000" font-family="sans-serif" font-size="14" lengthAdjust="spacing" textLength="194" x="339.25" y="333.8105">CandidateManagementService</text><line style="stroke:#181818;stroke-width:0.5;" x1="245.5" x2="594.5" y1="344.0137" y2="344.0137"/><line style="stroke:#181818;stroke-width:0.5;" x1="245.5" x2="594.5" y1="352.0137" y2="352.0137"/><ellipse cx="255.5" cy="366.8242" fill="#84BE84" rx="3" ry="3" style="stroke:#038048;stroke-width:1.0;"/><text fill="#000000" font-family="sans-serif" font-size="14" lengthAdjust="spacing" textLength="325" x="264.5" y="371.1211">candidateService() : CandidateManagementService</text><ellipse cx="255.5" cy="385.4453" fill="#84BE84" rx="3" ry="3" style="stroke:#038048;stroke-width:1.0;"/><text fill="#000000" font-family="sans-serif" font-size="14" lengthAdjust="spacing" textLength="149" x="264.5" y="389.7422">registerNewCandidate()</text></g><!--class SystemCandidateBuilder--><g id="elem_SystemCandidateBuilder"><rect codeLine="38" fill="#F1F1F1" height="85.2422" id="SystemCandidateBuilder" rx="2.5" ry="2.5" style="stroke:#181818;stroke-width:0.5;" width="227" x="621.5" y="457.0137"/><ellipse cx="654.5" cy="473.0137" fill="#ADD1B2" rx="11" ry="11" style="stroke:#181818;stroke-width:1.0;"/><path d="M657.2656,468.8887 Q657.4219,468.6699 657.6094,468.5605 Q657.7969,468.4512 658.0156,468.4512 Q658.3906,468.4512 658.625,468.7168 Q658.8594,468.9668 658.8594,469.5762 L658.8594,471.0293 Q658.8594,471.6387 658.625,471.9043 Q658.3906,472.1699 658.0156,472.1699 Q657.6719,472.1699 657.4688,471.9668 Q657.2656,471.7793 657.1563,471.2637 Q657.1094,470.9043 656.9219,470.7168 Q656.5938,470.3418 655.9844,470.123 Q655.375,469.9043 654.75,469.9043 Q653.9844,469.9043 653.3438,470.2324 Q652.7188,470.5605 652.2188,471.3105 Q651.7344,472.0605 651.7344,473.0918 L651.7344,474.1855 Q651.7344,475.4199 652.625,476.248 Q653.5156,477.0605 655.1094,477.0605 Q656.0469,477.0605 656.7031,476.8105 Q657.0938,476.6543 657.5156,476.2168 Q657.7813,475.9512 657.9219,475.873 Q658.0781,475.7949 658.2813,475.7949 Q658.6094,475.7949 658.8594,476.0605 Q659.125,476.3105 659.125,476.6543 Q659.125,476.998 658.7813,477.4043 Q658.2813,477.9824 657.4844,478.3105 Q656.4063,478.7637 655.1094,478.7637 Q653.5938,478.7637 652.3906,478.1387 Q651.4063,477.6387 650.7188,476.5762 Q650.0313,475.498 650.0313,474.2168 L650.0313,473.0605 Q650.0313,471.7324 650.6406,470.5918 Q651.2656,469.4355 652.3594,468.8262 Q653.4531,468.2012 654.6875,468.2012 Q655.4219,468.2012 656.0625,468.373 Q656.7188,468.5293 657.2656,468.8887 Z " fill="#000000"/><text fill="#000000" font-family="sans-serif" font-size="14" lengthAdjust="spacing" textLength="155" x="672.5" y="478.8105">SystemCandidateBuilder</text><line style="stroke:#181818;stroke-width:0.5;" x1="622.5" x2="847.5" y1="489.0137" y2="489.0137"/><line style="stroke:#181818;stroke-width:0.5;" x1="622.5" x2="847.5" y1="497.0137" y2="497.0137"/><ellipse cx="632.5" cy="511.8242" fill="#84BE84" rx="3" ry="3" style="stroke:#038048;stroke-width:1.0;"/><text fill="#000000" font-family="sans-serif" font-size="14" lengthAdjust="spacing" textLength="201" x="641.5" y="516.1211">with() : SystemCandidateBuilder</text><ellipse cx="632.5" cy="530.4453" fill="#84BE84" rx="3" ry="3" style="stroke:#038048;stroke-width:1.0;"/><text fill="#000000" font-family="sans-serif" font-size="14" lengthAdjust="spacing" textLength="113" x="641.5" y="534.7422">build(): Candidate</text></g><!--class Candidate--><g id="elem_Candidate"><rect codeLine="43" fill="#F1F1F1" height="48" id="Candidate" rx="2.5" ry="2.5" style="stroke:#181818;stroke-width:0.5;" width="97" x="1066.5" y="330.5137"/><ellipse cx="1081.5" cy="346.5137" fill="#ADD1B2" rx="11" ry="11" style="stroke:#181818;stroke-width:1.0;"/><path d="M1084.2656,342.3887 Q1084.4219,342.1699 1084.6094,342.0605 Q1084.7969,341.9512 1085.0156,341.9512 Q1085.3906,341.9512 1085.625,342.2168 Q1085.8594,342.4668 1085.8594,343.0762 L1085.8594,344.5293 Q1085.8594,345.1387 1085.625,345.4043 Q1085.3906,345.6699 1085.0156,345.6699 Q1084.6719,345.6699 1084.4688,345.4668 Q1084.2656,345.2793 1084.1563,344.7637 Q1084.1094,344.4043 1083.9219,344.2168 Q1083.5938,343.8418 1082.9844,343.623 Q1082.375,343.4043 1081.75,343.4043 Q1080.9844,343.4043 1080.3438,343.7324 Q1079.7188,344.0605 1079.2188,344.8105 Q1078.7344,345.5605 1078.7344,346.5918 L1078.7344,347.6855 Q1078.7344,348.9199 1079.625,349.748 Q1080.5156,350.5605 1082.1094,350.5605 Q1083.0469,350.5605 1083.7031,350.3105 Q1084.0938,350.1543 1084.5156,349.7168 Q1084.7813,349.4512 1084.9219,349.373 Q1085.0781,349.2949 1085.2813,349.2949 Q1085.6094,349.2949 1085.8594,349.5605 Q1086.125,349.8105 1086.125,350.1543 Q1086.125,350.498 1085.7813,350.9043 Q1085.2813,351.4824 1084.4844,351.8105 Q1083.4063,352.2637 1082.1094,352.2637 Q1080.5938,352.2637 1079.3906,351.6387 Q1078.4063,351.1387 1077.7188,350.0762 Q1077.0313,348.998 1077.0313,347.7168 L1077.0313,346.5605 Q1077.0313,345.2324 1077.6406,344.0918 Q1078.2656,342.9355 1079.3594,342.3262 Q1080.4531,341.7012 1081.6875,341.7012 Q1082.4219,341.7012 1083.0625,341.873 Q1083.7188,342.0293 1084.2656,342.3887 Z " fill="#000000"/><text fill="#000000" font-family="sans-serif" font-size="14" lengthAdjust="spacing" textLength="65" x="1095.5" y="352.3105">Candidate</text><line style="stroke:#181818;stroke-width:0.5;" x1="1067.5" x2="1162.5" y1="362.5137" y2="362.5137"/><line style="stroke:#181818;stroke-width:0.5;" x1="1067.5" x2="1162.5" y1="370.5137" y2="370.5137"/></g><!--link CandidateManagementService to CandidateRepository--><g id="link_CandidateManagementService_CandidateRepository"><path codeLine="49" d="M244.45,354.5137 C225.55,354.5137 212.65,354.5137 193.75,354.5137 " fill="none" id="CandidateManagementService-to-CandidateRepository" style="stroke:#181818;stroke-width:1.0;"/><polygon fill="#181818" points="187.75,354.5137,196.75,358.5137,192.75,354.5137,196.75,350.5137,187.75,354.5137" style="stroke:#181818;stroke-width:1.0;"/></g><!--link CandidateManagementService to SystemCandidateBuilder--><g id="link_CandidateManagementService_SystemCandidateBuilder"><path codeLine="50" d="M511.53,397.0637 C553.04,415.9137 596.5466,435.6634 638.0466,454.5034 " fill="none" id="CandidateManagementService-to-SystemCandidateBuilder" style="stroke:#181818;stroke-width:1.0;"/><polygon fill="#181818" points="643.51,456.9837,636.9684,449.6211,638.9572,454.9168,633.6615,456.9056,643.51,456.9837" style="stroke:#181818;stroke-width:1.0;"/></g><!--link AddCandidateUI to AddCandidateController--><g id="link_AddCandidateUI_AddCandidateController"><path codeLine="51" d="M265,91.0937 C265,112.3037 265,137.9537 265,161.7737 " fill="none" id="AddCandidateUI-to-AddCandidateController" style="stroke:#181818;stroke-width:1.0;"/><polygon fill="#181818" points="265,167.7737,269,158.7737,265,162.7737,261,158.7737,265,167.7737" style="stroke:#181818;stroke-width:1.0;"/></g><!--link AddCandidateController to CandidateManagementService--><g id="link_AddCandidateController_CandidateManagementService"><path codeLine="52" d="M298.63,235.2737 C321.69,257.7437 348.1823,283.5468 372.9823,307.7068 " fill="none" id="AddCandidateController-to-CandidateManagementService" style="stroke:#181818;stroke-width:1.0;"/><polygon fill="#181818" points="377.28,311.8937,373.6246,302.7483,373.6986,308.4047,368.0422,308.4786,377.28,311.8937" style="stroke:#181818;stroke-width:1.0;"/></g><!--link AddCandidateController to SystemCandidateBuilder--><g id="link_AddCandidateController_SystemCandidateBuilder"><path codeLine="53" d="M357.39,202.0537 C578.83,201.9137 1125.67,207.6437 1181,267.0137 C1222.06,311.0637 1218.84,355.6637 1181,402.5137 C1139.97,453.3137 972.7718,477.9121 854.6818,489.4121 " fill="none" id="AddCandidateController-to-SystemCandidateBuilder" style="stroke:#181818;stroke-width:1.0;"/><polygon fill="#181818" points="848.71,489.9937,858.0553,493.1025,853.6865,489.509,857.2799,485.1402,848.71,489.9937" style="stroke:#181818;stroke-width:1.0;"/></g><!--link AddCandidateController to CandidateRepository--><g id="link_AddCandidateController_CandidateRepository"><path codeLine="54" d="M219.56,235.2737 C186.17,263.9037 147.3342,300.3024 124.2442,325.7224 " fill="none" id="AddCandidateController-to-CandidateRepository" style="stroke:#181818;stroke-width:1.0;"/><polygon fill="#181818" points="120.21,330.1637,129.2222,326.1912,123.5718,326.4626,123.3004,320.8122,120.21,330.1637" style="stroke:#181818;stroke-width:1.0;"/></g><!--link AddCandidateController to CandidateRepository--><g id="link_AddCandidateController_CandidateRepository"><path codeLine="55" d="M241.64,235.2737 C214.46,263.9937 175.2235,301.1939 144.1835,326.5939 " fill="none" id="AddCandidateController-to-CandidateRepository-1" style="stroke:#181818;stroke-width:1.0;"/><polygon fill="#181818" points="139.54,330.3937,149.0384,327.7897,143.4096,327.2272,143.972,321.5984,139.54,330.3937" style="stroke:#181818;stroke-width:1.0;"/></g><!--link CandidateRepository to Candidate--><g id="link_CandidateRepository_Candidate"><path codeLine="56" d="M127.55,330.0937 C153.2,304.8537 197.77,268.4037 245.5,263.0137 C288.89,258.1137 988.11,258.1137 1031.5,263.0137 C1039.43,263.9037 1042.3,262.6737 1049,267.0137 C1073.12,282.6337 1088.82,305.0277 1100.04,325.0777 " fill="none" id="CandidateRepository-to-Candidate" style="stroke:#181818;stroke-width:1.0;"/><polygon fill="#181818" points="1102.97,330.3137,1102.0656,320.5064,1100.5283,325.9504,1095.0843,324.4131,1102.97,330.3137" style="stroke:#181818;stroke-width:1.0;"/></g><!--SRC=[bPF1RiCW38RlUGgEYQQ-m0wJsbwsmpQfLH_03MvhZK04P5KMzTq7NOT8GhBEXoY2p_R_6wYX_80ZiePObx5Rb0ACOKlEro0vSR2uUucsBzdFruV_gsyreAu5bM19oTbYQoMjLaAWZZ0V3n1HUJ5k67VJM2j3LkdMLGaeIOlw02MoK6WJm6w-8bSLq5ZwHWbatIKREchiIMdwklhTeluartJe9y7a1NjC9lTJKPf6e-TGMZzLv3k3-XdCKhRlXzvq1ig2yrUGpbVb2apeAt_9MDjqUZzPuv6Cc_ORdjE7Df2rRHrT1NJLaE3ZAt0cUxhAIEDzUEyNyoBIVCTKqZTvPcYBnLFgDlsLCc5WyAmycNuSsSIRwSaPdz5CrXsAflf4jl-99zPOZ6RV]--></g></svg>