<?xml version="1.0" encoding="us-ascii" standalone="no"?><svg xmlns="http://www.w3.org/2000/svg" xmlns:xlink="http://www.w3.org/1999/xlink" contentStyleType="text/css" height="565px" preserveAspectRatio="none" style="width:1323px;height:565px;background:#FFFFFF;" version="1.1" viewBox="0 0 1323 565" width="1323px" zoomAndPan="magnify"><defs/><g><!--cluster ui--><g id="cluster_ui"><path d="M329.5,6.0137 L343.5,6.0137 A3.75,3.75 0 0 1 346,8.5137 L353,30.6348 L490.5,30.6348 A2.5,2.5 0 0 1 493,33.1348 L493,104.5137 A2.5,2.5 0 0 1 490.5,107.0137 L329.5,107.0137 A2.5,2.5 0 0 1 327,104.5137 L327,8.5137 A2.5,2.5 0 0 1 329.5,6.0137 " fill="none" style="stroke:#000000;stroke-width:1.5;"/><line style="stroke:#000000;stroke-width:1.5;" x1="327" x2="353" y1="30.6348" y2="30.6348"/><text fill="#000000" font-family="sans-serif" font-size="14" font-weight="bold" lengthAdjust="spacing" textLength="13" x="331" y="23.1211">ui</text></g><!--cluster application--><g id="cluster_application"><path d="M322.5,131.0137 L400.5,131.0137 A3.75,3.75 0 0 1 403,133.5137 L410,155.6348 L497.5,155.6348 A2.5,2.5 0 0 1 500,158.1348 L500,248.5137 A2.5,2.5 0 0 1 497.5,251.0137 L322.5,251.0137 A2.5,2.5 0 0 1 320,248.5137 L320,133.5137 A2.5,2.5 0 0 1 322.5,131.0137 " fill="none" style="stroke:#000000;stroke-width:1.5;"/><line style="stroke:#000000;stroke-width:1.5;" x1="320" x2="410" y1="155.6348" y2="155.6348"/><text fill="#000000" font-family="sans-serif" font-size="14" font-weight="bold" lengthAdjust="spacing" textLength="77" x="324" y="148.1211">application</text></g><!--cluster repository--><g id="cluster_repository"><path d="M8.5,293.5137 L81.5,293.5137 A3.75,3.75 0 0 1 84,296.0137 L91,318.1348 L366.5,318.1348 A2.5,2.5 0 0 1 369,320.6348 L369,392.0137 A2.5,2.5 0 0 1 366.5,394.5137 L8.5,394.5137 A2.5,2.5 0 0 1 6,392.0137 L6,296.0137 A2.5,2.5 0 0 1 8.5,293.5137 " fill="none" style="stroke:#000000;stroke-width:1.5;"/><line style="stroke:#000000;stroke-width:1.5;" x1="6" x2="91" y1="318.1348" y2="318.1348"/><text fill="#000000" font-family="sans-serif" font-size="14" font-weight="bold" lengthAdjust="spacing" textLength="72" x="10" y="310.6211">repository</text></g><!--cluster domain--><g id="cluster_domain"><path d="M395.5,275.0137 L447.5,275.0137 A3.75,3.75 0 0 1 450,277.5137 L457,299.6348 L1272.5,299.6348 A2.5,2.5 0 0 1 1275,302.1348 L1275,555.5137 A2.5,2.5 0 0 1 1272.5,558.0137 L395.5,558.0137 A2.5,2.5 0 0 1 393,555.5137 L393,277.5137 A2.5,2.5 0 0 1 395.5,275.0137 " fill="none" style="stroke:#000000;stroke-width:1.5;"/><line style="stroke:#000000;stroke-width:1.5;" x1="393" x2="457" y1="299.6348" y2="299.6348"/><text fill="#000000" font-family="sans-serif" font-size="14" font-weight="bold" lengthAdjust="spacing" textLength="51" x="397" y="292.1211">domain</text></g><!--class AddCandidateUI--><g id="elem_AddCandidateUI"><rect codeLine="6" fill="#F1F1F1" height="48" id="AddCandidateUI" rx="2.5" ry="2.5" style="stroke:#181818;stroke-width:0.5;" width="134" x="343" y="43.0137"/><ellipse cx="358" cy="59.0137" fill="#ADD1B2" rx="11" ry="11" style="stroke:#181818;stroke-width:1.0;"/><path d="M360.7656,54.8887 Q360.9219,54.6699 361.1094,54.5605 Q361.2969,54.4512 361.5156,54.4512 Q361.8906,54.4512 362.125,54.7168 Q362.3594,54.9668 362.3594,55.5762 L362.3594,57.0293 Q362.3594,57.6387 362.125,57.9043 Q361.8906,58.1699 361.5156,58.1699 Q361.1719,58.1699 360.9688,57.9668 Q360.7656,57.7793 360.6563,57.2637 Q360.6094,56.9043 360.4219,56.7168 Q360.0938,56.3418 359.4844,56.123 Q358.875,55.9043 358.25,55.9043 Q357.4844,55.9043 356.8438,56.2324 Q356.2188,56.5605 355.7188,57.3105 Q355.2344,58.0605 355.2344,59.0918 L355.2344,60.1855 Q355.2344,61.4199 356.125,62.248 Q357.0156,63.0605 358.6094,63.0605 Q359.5469,63.0605 360.2031,62.8105 Q360.5938,62.6543 361.0156,62.2168 Q361.2813,61.9512 361.4219,61.873 Q361.5781,61.7949 361.7813,61.7949 Q362.1094,61.7949 362.3594,62.0605 Q362.625,62.3105 362.625,62.6543 Q362.625,62.998 362.2813,63.4043 Q361.7813,63.9824 360.9844,64.3105 Q359.9063,64.7637 358.6094,64.7637 Q357.0938,64.7637 355.8906,64.1387 Q354.9063,63.6387 354.2188,62.5762 Q353.5313,61.498 353.5313,60.2168 L353.5313,59.0605 Q353.5313,57.7324 354.1406,56.5918 Q354.7656,55.4355 355.8594,54.8262 Q356.9531,54.2012 358.1875,54.2012 Q358.9219,54.2012 359.5625,54.373 Q360.2188,54.5293 360.7656,54.8887 Z " fill="#000000"/><text fill="#000000" font-family="sans-serif" font-size="14" lengthAdjust="spacing" textLength="102" x="372" y="64.8105">AddCandidateUI</text><line style="stroke:#181818;stroke-width:0.5;" x1="344" x2="476" y1="75.0137" y2="75.0137"/><line style="stroke:#181818;stroke-width:0.5;" x1="344" x2="476" y1="83.0137" y2="83.0137"/></g><!--class AddUserController--><g id="elem_AddUserController"><rect codeLine="14" fill="#F1F1F1" height="66.6211" id="AddUserController" rx="2.5" ry="2.5" style="stroke:#181818;stroke-width:0.5;" width="148" x="336" y="168.0137"/><ellipse cx="351" cy="184.0137" fill="#ADD1B2" rx="11" ry="11" style="stroke:#181818;stroke-width:1.0;"/><path d="M353.7656,179.8887 Q353.9219,179.6699 354.1094,179.5605 Q354.2969,179.4512 354.5156,179.4512 Q354.8906,179.4512 355.125,179.7168 Q355.3594,179.9668 355.3594,180.5762 L355.3594,182.0293 Q355.3594,182.6387 355.125,182.9043 Q354.8906,183.1699 354.5156,183.1699 Q354.1719,183.1699 353.9688,182.9668 Q353.7656,182.7793 353.6563,182.2637 Q353.6094,181.9043 353.4219,181.7168 Q353.0938,181.3418 352.4844,181.123 Q351.875,180.9043 351.25,180.9043 Q350.4844,180.9043 349.8438,181.2324 Q349.2188,181.5605 348.7188,182.3105 Q348.2344,183.0605 348.2344,184.0918 L348.2344,185.1855 Q348.2344,186.4199 349.125,187.248 Q350.0156,188.0605 351.6094,188.0605 Q352.5469,188.0605 353.2031,187.8105 Q353.5938,187.6543 354.0156,187.2168 Q354.2813,186.9512 354.4219,186.873 Q354.5781,186.7949 354.7813,186.7949 Q355.1094,186.7949 355.3594,187.0605 Q355.625,187.3105 355.625,187.6543 Q355.625,187.998 355.2813,188.4043 Q354.7813,188.9824 353.9844,189.3105 Q352.9063,189.7637 351.6094,189.7637 Q350.0938,189.7637 348.8906,189.1387 Q347.9063,188.6387 347.2188,187.5762 Q346.5313,186.498 346.5313,185.2168 L346.5313,184.0605 Q346.5313,182.7324 347.1406,181.5918 Q347.7656,180.4355 348.8594,179.8262 Q349.9531,179.2012 351.1875,179.2012 Q351.9219,179.2012 352.5625,179.373 Q353.2188,179.5293 353.7656,179.8887 Z " fill="#000000"/><text fill="#000000" font-family="sans-serif" font-size="14" lengthAdjust="spacing" textLength="116" x="365" y="189.8105">AddUserController</text><line style="stroke:#181818;stroke-width:0.5;" x1="337" x2="483" y1="200.0137" y2="200.0137"/><line style="stroke:#181818;stroke-width:0.5;" x1="337" x2="483" y1="208.0137" y2="208.0137"/><ellipse cx="347" cy="222.8242" fill="#84BE84" rx="3" ry="3" style="stroke:#038048;stroke-width:1.0;"/><text fill="#000000" font-family="sans-serif" font-size="14" lengthAdjust="spacing" textLength="63" x="356" y="227.1211">addUser()</text></g><!--class UserRepository--><g id="elem_UserRepository"><rect codeLine="20" fill="#F1F1F1" height="48" id="UserRepository" rx="2.5" ry="2.5" style="stroke:#181818;stroke-width:0.5;" width="130" x="22" y="330.5137"/><ellipse cx="37" cy="346.5137" fill="#B4A7E5" rx="11" ry="11" style="stroke:#181818;stroke-width:1.0;"/><path d="M37.9531,343.1543 L37.9531,349.8105 L39.6719,349.8105 Q40.2813,349.8105 40.5469,350.0449 Q40.8125,350.2793 40.8125,350.6699 Q40.8125,351.0449 40.5469,351.2793 Q40.2813,351.5137 39.6719,351.5137 L34.5313,351.5137 Q33.9219,351.5137 33.6563,351.2793 Q33.3906,351.0449 33.3906,350.6543 Q33.3906,350.2793 33.6563,350.0449 Q33.9219,349.8105 34.5313,349.8105 L36.25,349.8105 L36.25,343.1543 L34.5313,343.1543 Q33.9219,343.1543 33.6563,342.9199 Q33.3906,342.6855 33.3906,342.2949 Q33.3906,341.9199 33.6563,341.6855 Q33.9219,341.4512 34.5313,341.4512 L39.6719,341.4512 Q40.2813,341.4512 40.5469,341.6855 Q40.8125,341.9199 40.8125,342.2949 Q40.8125,342.6855 40.5469,342.9199 Q40.2813,343.1543 39.6719,343.1543 L37.9531,343.1543 Z " fill="#000000"/><text fill="#000000" font-family="sans-serif" font-size="14" font-style="italic" lengthAdjust="spacing" textLength="98" x="51" y="352.3105">UserRepository</text><line style="stroke:#181818;stroke-width:0.5;" x1="23" x2="151" y1="362.5137" y2="362.5137"/><line style="stroke:#181818;stroke-width:0.5;" x1="23" x2="151" y1="370.5137" y2="370.5137"/></g><!--class CandidateRepository--><g id="elem_CandidateRepository"><rect codeLine="22" fill="#F1F1F1" height="48" id="CandidateRepository" rx="2.5" ry="2.5" style="stroke:#181818;stroke-width:0.5;" width="165" x="187.5" y="330.5137"/><ellipse cx="202.5" cy="346.5137" fill="#B4A7E5" rx="11" ry="11" style="stroke:#181818;stroke-width:1.0;"/><path d="M203.4531,343.1543 L203.4531,349.8105 L205.1719,349.8105 Q205.7813,349.8105 206.0469,350.0449 Q206.3125,350.2793 206.3125,350.6699 Q206.3125,351.0449 206.0469,351.2793 Q205.7813,351.5137 205.1719,351.5137 L200.0313,351.5137 Q199.4219,351.5137 199.1563,351.2793 Q198.8906,351.0449 198.8906,350.6543 Q198.8906,350.2793 199.1563,350.0449 Q199.4219,349.8105 200.0313,349.8105 L201.75,349.8105 L201.75,343.1543 L200.0313,343.1543 Q199.4219,343.1543 199.1563,342.9199 Q198.8906,342.6855 198.8906,342.2949 Q198.8906,341.9199 199.1563,341.6855 Q199.4219,341.4512 200.0313,341.4512 L205.1719,341.4512 Q205.7813,341.4512 206.0469,341.6855 Q206.3125,341.9199 206.3125,342.2949 Q206.3125,342.6855 206.0469,342.9199 Q205.7813,343.1543 205.1719,343.1543 L203.4531,343.1543 Z " fill="#000000"/><text fill="#000000" font-family="sans-serif" font-size="14" font-style="italic" lengthAdjust="spacing" textLength="133" x="216.5" y="352.3105">CandidateRepository</text><line style="stroke:#181818;stroke-width:0.5;" x1="188.5" x2="351.5" y1="362.5137" y2="362.5137"/><line style="stroke:#181818;stroke-width:0.5;" x1="188.5" x2="351.5" y1="370.5137" y2="370.5137"/></g><!--class Role--><g id="elem_Role"><rect codeLine="27" fill="#F1F1F1" height="48" id="Role" rx="2.5" ry="2.5" style="stroke:#181818;stroke-width:0.5;" width="61" x="1065.5" y="330.5137"/><ellipse cx="1080.5" cy="346.5137" fill="#ADD1B2" rx="11" ry="11" style="stroke:#181818;stroke-width:1.0;"/><path d="M1083.2656,342.3887 Q1083.4219,342.1699 1083.6094,342.0605 Q1083.7969,341.9512 1084.0156,341.9512 Q1084.3906,341.9512 1084.625,342.2168 Q1084.8594,342.4668 1084.8594,343.0762 L1084.8594,344.5293 Q1084.8594,345.1387 1084.625,345.4043 Q1084.3906,345.6699 1084.0156,345.6699 Q1083.6719,345.6699 1083.4688,345.4668 Q1083.2656,345.2793 1083.1563,344.7637 Q1083.1094,344.4043 1082.9219,344.2168 Q1082.5938,343.8418 1081.9844,343.623 Q1081.375,343.4043 1080.75,343.4043 Q1079.9844,343.4043 1079.3438,343.7324 Q1078.7188,344.0605 1078.2188,344.8105 Q1077.7344,345.5605 1077.7344,346.5918 L1077.7344,347.6855 Q1077.7344,348.9199 1078.625,349.748 Q1079.5156,350.5605 1081.1094,350.5605 Q1082.0469,350.5605 1082.7031,350.3105 Q1083.0938,350.1543 1083.5156,349.7168 Q1083.7813,349.4512 1083.9219,349.373 Q1084.0781,349.2949 1084.2813,349.2949 Q1084.6094,349.2949 1084.8594,349.5605 Q1085.125,349.8105 1085.125,350.1543 Q1085.125,350.498 1084.7813,350.9043 Q1084.2813,351.4824 1083.4844,351.8105 Q1082.4063,352.2637 1081.1094,352.2637 Q1079.5938,352.2637 1078.3906,351.6387 Q1077.4063,351.1387 1076.7188,350.0762 Q1076.0313,348.998 1076.0313,347.7168 L1076.0313,346.5605 Q1076.0313,345.2324 1076.6406,344.0918 Q1077.2656,342.9355 1078.3594,342.3262 Q1079.4531,341.7012 1080.6875,341.7012 Q1081.4219,341.7012 1082.0625,341.873 Q1082.7188,342.0293 1083.2656,342.3887 Z " fill="#000000"/><text fill="#000000" font-family="sans-serif" font-size="14" lengthAdjust="spacing" textLength="29" x="1094.5" y="352.3105">Role</text><line style="stroke:#181818;stroke-width:0.5;" x1="1066.5" x2="1125.5" y1="362.5137" y2="362.5137"/><line style="stroke:#181818;stroke-width:0.5;" x1="1066.5" x2="1125.5" y1="370.5137" y2="370.5137"/></g><!--class AuthorizationService--><g id="elem_AuthorizationService"><rect codeLine="29" fill="#F1F1F1" height="85.2422" id="AuthorizationService" rx="2.5" ry="2.5" style="stroke:#181818;stroke-width:0.5;" width="305" x="725.5" y="312.0137"/><ellipse cx="809.25" cy="328.0137" fill="#ADD1B2" rx="11" ry="11" style="stroke:#181818;stroke-width:1.0;"/><path d="M812.0156,323.8887 Q812.1719,323.6699 812.3594,323.5605 Q812.5469,323.4512 812.7656,323.4512 Q813.1406,323.4512 813.375,323.7168 Q813.6094,323.9668 813.6094,324.5762 L813.6094,326.0293 Q813.6094,326.6387 813.375,326.9043 Q813.1406,327.1699 812.7656,327.1699 Q812.4219,327.1699 812.2188,326.9668 Q812.0156,326.7793 811.9063,326.2637 Q811.8594,325.9043 811.6719,325.7168 Q811.3438,325.3418 810.7344,325.123 Q810.125,324.9043 809.5,324.9043 Q808.7344,324.9043 808.0938,325.2324 Q807.4688,325.5605 806.9688,326.3105 Q806.4844,327.0605 806.4844,328.0918 L806.4844,329.1855 Q806.4844,330.4199 807.375,331.248 Q808.2656,332.0605 809.8594,332.0605 Q810.7969,332.0605 811.4531,331.8105 Q811.8438,331.6543 812.2656,331.2168 Q812.5313,330.9512 812.6719,330.873 Q812.8281,330.7949 813.0313,330.7949 Q813.3594,330.7949 813.6094,331.0605 Q813.875,331.3105 813.875,331.6543 Q813.875,331.998 813.5313,332.4043 Q813.0313,332.9824 812.2344,333.3105 Q811.1563,333.7637 809.8594,333.7637 Q808.3438,333.7637 807.1406,333.1387 Q806.1563,332.6387 805.4688,331.5762 Q804.7813,330.498 804.7813,329.2168 L804.7813,328.0605 Q804.7813,326.7324 805.3906,325.5918 Q806.0156,324.4355 807.1094,323.8262 Q808.2031,323.2012 809.4375,323.2012 Q810.1719,323.2012 810.8125,323.373 Q811.4688,323.5293 812.0156,323.8887 Z " fill="#000000"/><text fill="#000000" font-family="sans-serif" font-size="14" lengthAdjust="spacing" textLength="129" x="829.75" y="333.8105">AuthorizationService</text><line style="stroke:#181818;stroke-width:0.5;" x1="726.5" x2="1029.5" y1="344.0137" y2="344.0137"/><line style="stroke:#181818;stroke-width:0.5;" x1="726.5" x2="1029.5" y1="352.0137" y2="352.0137"/><ellipse cx="736.5" cy="366.8242" fill="#84BE84" rx="3" ry="3" style="stroke:#038048;stroke-width:1.0;"/><text fill="#000000" font-family="sans-serif" font-size="14" lengthAdjust="spacing" textLength="279" x="745.5" y="371.1211">authorizationService() : AuthorizationService</text><ellipse cx="736.5" cy="385.4453" fill="#84BE84" rx="3" ry="3" style="stroke:#038048;stroke-width:1.0;"/><text fill="#000000" font-family="sans-serif" font-size="14" lengthAdjust="spacing" textLength="233" x="745.5" y="389.7422">ensureAuthenticatedUserHasAnyOf()</text></g><!--class UserManagementService--><g id="elem_UserManagementService"><rect codeLine="34" fill="#F1F1F1" height="85.2422" id="UserManagementService" rx="2.5" ry="2.5" style="stroke:#181818;stroke-width:0.5;" width="281" x="409.5" y="312.0137"/><ellipse cx="466.75" cy="328.0137" fill="#ADD1B2" rx="11" ry="11" style="stroke:#181818;stroke-width:1.0;"/><path d="M469.5156,323.8887 Q469.6719,323.6699 469.8594,323.5605 Q470.0469,323.4512 470.2656,323.4512 Q470.6406,323.4512 470.875,323.7168 Q471.1094,323.9668 471.1094,324.5762 L471.1094,326.0293 Q471.1094,326.6387 470.875,326.9043 Q470.6406,327.1699 470.2656,327.1699 Q469.9219,327.1699 469.7188,326.9668 Q469.5156,326.7793 469.4063,326.2637 Q469.3594,325.9043 469.1719,325.7168 Q468.8438,325.3418 468.2344,325.123 Q467.625,324.9043 467,324.9043 Q466.2344,324.9043 465.5938,325.2324 Q464.9688,325.5605 464.4688,326.3105 Q463.9844,327.0605 463.9844,328.0918 L463.9844,329.1855 Q463.9844,330.4199 464.875,331.248 Q465.7656,332.0605 467.3594,332.0605 Q468.2969,332.0605 468.9531,331.8105 Q469.3438,331.6543 469.7656,331.2168 Q470.0313,330.9512 470.1719,330.873 Q470.3281,330.7949 470.5313,330.7949 Q470.8594,330.7949 471.1094,331.0605 Q471.375,331.3105 471.375,331.6543 Q471.375,331.998 471.0313,332.4043 Q470.5313,332.9824 469.7344,333.3105 Q468.6563,333.7637 467.3594,333.7637 Q465.8438,333.7637 464.6406,333.1387 Q463.6563,332.6387 462.9688,331.5762 Q462.2813,330.498 462.2813,329.2168 L462.2813,328.0605 Q462.2813,326.7324 462.8906,325.5918 Q463.5156,324.4355 464.6094,323.8262 Q465.7031,323.2012 466.9375,323.2012 Q467.6719,323.2012 468.3125,323.373 Q468.9688,323.5293 469.5156,323.8887 Z " fill="#000000"/><text fill="#000000" font-family="sans-serif" font-size="14" lengthAdjust="spacing" textLength="158" x="487.25" y="333.8105">UserManagementService</text><line style="stroke:#181818;stroke-width:0.5;" x1="410.5" x2="689.5" y1="344.0137" y2="344.0137"/><line style="stroke:#181818;stroke-width:0.5;" x1="410.5" x2="689.5" y1="352.0137" y2="352.0137"/><ellipse cx="420.5" cy="366.8242" fill="#84BE84" rx="3" ry="3" style="stroke:#038048;stroke-width:1.0;"/><text fill="#000000" font-family="sans-serif" font-size="14" lengthAdjust="spacing" textLength="255" x="429.5" y="371.1211">userService() : UserManagementService</text><ellipse cx="420.5" cy="385.4453" fill="#84BE84" rx="3" ry="3" style="stroke:#038048;stroke-width:1.0;"/><text fill="#000000" font-family="sans-serif" font-size="14" lengthAdjust="spacing" textLength="113" x="429.5" y="389.7422">registerNewUser()</text></g><!--class SystemUserBuilder--><g id="elem_SystemUserBuilder"><rect codeLine="39" fill="#F1F1F1" height="85.2422" id="SystemUserBuilder" rx="2.5" ry="2.5" style="stroke:#181818;stroke-width:0.5;" width="191" x="760.5" y="457.0137"/><ellipse cx="793.5" cy="473.0137" fill="#ADD1B2" rx="11" ry="11" style="stroke:#181818;stroke-width:1.0;"/><path d="M796.2656,468.8887 Q796.4219,468.6699 796.6094,468.5605 Q796.7969,468.4512 797.0156,468.4512 Q797.3906,468.4512 797.625,468.7168 Q797.8594,468.9668 797.8594,469.5762 L797.8594,471.0293 Q797.8594,471.6387 797.625,471.9043 Q797.3906,472.1699 797.0156,472.1699 Q796.6719,472.1699 796.4688,471.9668 Q796.2656,471.7793 796.1563,471.2637 Q796.1094,470.9043 795.9219,470.7168 Q795.5938,470.3418 794.9844,470.123 Q794.375,469.9043 793.75,469.9043 Q792.9844,469.9043 792.3438,470.2324 Q791.7188,470.5605 791.2188,471.3105 Q790.7344,472.0605 790.7344,473.0918 L790.7344,474.1855 Q790.7344,475.4199 791.625,476.248 Q792.5156,477.0605 794.1094,477.0605 Q795.0469,477.0605 795.7031,476.8105 Q796.0938,476.6543 796.5156,476.2168 Q796.7813,475.9512 796.9219,475.873 Q797.0781,475.7949 797.2813,475.7949 Q797.6094,475.7949 797.8594,476.0605 Q798.125,476.3105 798.125,476.6543 Q798.125,476.998 797.7813,477.4043 Q797.2813,477.9824 796.4844,478.3105 Q795.4063,478.7637 794.1094,478.7637 Q792.5938,478.7637 791.3906,478.1387 Q790.4063,477.6387 789.7188,476.5762 Q789.0313,475.498 789.0313,474.2168 L789.0313,473.0605 Q789.0313,471.7324 789.6406,470.5918 Q790.2656,469.4355 791.3594,468.8262 Q792.4531,468.2012 793.6875,468.2012 Q794.4219,468.2012 795.0625,468.373 Q795.7188,468.5293 796.2656,468.8887 Z " fill="#000000"/><text fill="#000000" font-family="sans-serif" font-size="14" lengthAdjust="spacing" textLength="119" x="811.5" y="478.8105">SystemUserBuilder</text><line style="stroke:#181818;stroke-width:0.5;" x1="761.5" x2="950.5" y1="489.0137" y2="489.0137"/><line style="stroke:#181818;stroke-width:0.5;" x1="761.5" x2="950.5" y1="497.0137" y2="497.0137"/><ellipse cx="771.5" cy="511.8242" fill="#84BE84" rx="3" ry="3" style="stroke:#038048;stroke-width:1.0;"/><text fill="#000000" font-family="sans-serif" font-size="14" lengthAdjust="spacing" textLength="165" x="780.5" y="516.1211">with() : SystemUserBuilder</text><ellipse cx="771.5" cy="530.4453" fill="#84BE84" rx="3" ry="3" style="stroke:#038048;stroke-width:1.0;"/><text fill="#000000" font-family="sans-serif" font-size="14" lengthAdjust="spacing" textLength="113" x="780.5" y="534.7422">build(): Candidate</text></g><!--class Candidate--><g id="elem_Candidate"><rect codeLine="44" fill="#F1F1F1" height="48" id="Candidate" rx="2.5" ry="2.5" style="stroke:#181818;stroke-width:0.5;" width="97" x="1161.5" y="330.5137"/><ellipse cx="1176.5" cy="346.5137" fill="#ADD1B2" rx="11" ry="11" style="stroke:#181818;stroke-width:1.0;"/><path d="M1179.2656,342.3887 Q1179.4219,342.1699 1179.6094,342.0605 Q1179.7969,341.9512 1180.0156,341.9512 Q1180.3906,341.9512 1180.625,342.2168 Q1180.8594,342.4668 1180.8594,343.0762 L1180.8594,344.5293 Q1180.8594,345.1387 1180.625,345.4043 Q1180.3906,345.6699 1180.0156,345.6699 Q1179.6719,345.6699 1179.4688,345.4668 Q1179.2656,345.2793 1179.1563,344.7637 Q1179.1094,344.4043 1178.9219,344.2168 Q1178.5938,343.8418 1177.9844,343.623 Q1177.375,343.4043 1176.75,343.4043 Q1175.9844,343.4043 1175.3438,343.7324 Q1174.7188,344.0605 1174.2188,344.8105 Q1173.7344,345.5605 1173.7344,346.5918 L1173.7344,347.6855 Q1173.7344,348.9199 1174.625,349.748 Q1175.5156,350.5605 1177.1094,350.5605 Q1178.0469,350.5605 1178.7031,350.3105 Q1179.0938,350.1543 1179.5156,349.7168 Q1179.7813,349.4512 1179.9219,349.373 Q1180.0781,349.2949 1180.2813,349.2949 Q1180.6094,349.2949 1180.8594,349.5605 Q1181.125,349.8105 1181.125,350.1543 Q1181.125,350.498 1180.7813,350.9043 Q1180.2813,351.4824 1179.4844,351.8105 Q1178.4063,352.2637 1177.1094,352.2637 Q1175.5938,352.2637 1174.3906,351.6387 Q1173.4063,351.1387 1172.7188,350.0762 Q1172.0313,348.998 1172.0313,347.7168 L1172.0313,346.5605 Q1172.0313,345.2324 1172.6406,344.0918 Q1173.2656,342.9355 1174.3594,342.3262 Q1175.4531,341.7012 1176.6875,341.7012 Q1177.4219,341.7012 1178.0625,341.873 Q1178.7188,342.0293 1179.2656,342.3887 Z " fill="#000000"/><text fill="#000000" font-family="sans-serif" font-size="14" lengthAdjust="spacing" textLength="65" x="1190.5" y="352.3105">Candidate</text><line style="stroke:#181818;stroke-width:0.5;" x1="1162.5" x2="1257.5" y1="362.5137" y2="362.5137"/><line style="stroke:#181818;stroke-width:0.5;" x1="1162.5" x2="1257.5" y1="370.5137" y2="370.5137"/></g><!--link UserManagementService to UserRepository--><g id="link_UserManagementService_UserRepository"><path codeLine="50" d="M485.18,311.8437 C447.84,290.6237 399.01,268.3737 351.5,263.0137 C315.29,258.9237 223.71,258.9237 187.5,263.0137 C179.57,263.9037 176.93,263.0637 170,267.0137 C142.54,282.6737 122.1896,305.5034 107.1696,325.5334 " fill="none" id="UserManagementService-to-UserRepository" style="stroke:#181818;stroke-width:1.0;"/><polygon fill="#181818" points="103.57,330.3337,112.1696,325.533,106.5697,326.3334,105.7692,320.7335,103.57,330.3337" style="stroke:#181818;stroke-width:1.0;"/></g><!--link UserManagementService to SystemUserBuilder--><g id="link_UserManagementService_SystemUserBuilder"><path codeLine="51" d="M638.92,397.0637 C679.24,415.9137 721.3744,435.6032 761.6844,454.4432 " fill="none" id="UserManagementService-to-SystemUserBuilder" style="stroke:#181818;stroke-width:1.0;"/><polygon fill="#181818" points="767.12,456.9837,760.6602,449.5492,762.5903,454.8666,757.2729,456.7967,767.12,456.9837" style="stroke:#181818;stroke-width:1.0;"/></g><!--link AddCandidateUI to AddUserController--><g id="link_AddCandidateUI_AddUserController"><path codeLine="52" d="M410,91.0937 C410,112.3037 410,137.9537 410,161.7737 " fill="none" id="AddCandidateUI-to-AddUserController" style="stroke:#181818;stroke-width:1.0;"/><polygon fill="#181818" points="410,167.7737,414,158.7737,410,162.7737,406,158.7737,410,167.7737" style="stroke:#181818;stroke-width:1.0;"/></g><!--link AddUserController to UserManagementService--><g id="link_AddUserController_UserManagementService"><path codeLine="53" d="M440.38,235.2737 C461.21,257.7437 484.9306,283.3338 507.3306,307.4938 " fill="none" id="AddUserController-to-UserManagementService" style="stroke:#181818;stroke-width:1.0;"/><polygon fill="#181818" points="511.41,311.8937,508.2242,302.5743,508.0105,308.2271,502.3577,308.0134,511.41,311.8937" style="stroke:#181818;stroke-width:1.0;"/></g><!--link AddUserController to SystemUserBuilder--><g id="link_AddUserController_SystemUserBuilder"><path codeLine="54" d="M484.29,202.4037 C684.3,202.8837 1222.66,209.5537 1276,267.0137 C1316.97,311.1537 1313.54,355.4237 1276,402.5137 C1236.25,452.3737 1069.1164,477.7695 957.9164,489.5895 " fill="none" id="AddUserController-to-SystemUserBuilder" style="stroke:#181818;stroke-width:1.0;"/><polygon fill="#181818" points="951.95,490.2237,961.3224,493.25,956.922,489.6952,960.4768,485.2948,951.95,490.2237" style="stroke:#181818;stroke-width:1.0;"/></g><!--link AddUserController to UserRepository--><g id="link_AddUserController_UserRepository"><path codeLine="55" d="M335.88,211.8037 C286.27,220.4937 220.96,236.8537 170,267.0137 C142.77,283.1237 122.2797,305.839 107.1397,325.509 " fill="none" id="AddUserController-to-UserRepository" style="stroke:#181818;stroke-width:1.0;"/><polygon fill="#181818" points="103.48,330.2637,112.1393,325.5715,106.5297,326.3015,105.7997,320.6919,103.48,330.2637" style="stroke:#181818;stroke-width:1.0;"/></g><!--link AddUserController to CandidateRepository--><g id="link_AddUserController_CandidateRepository"><path codeLine="56" d="M379.62,235.2737 C353.08,263.9037 319.2995,300.344 295.7295,325.764 " fill="none" id="AddUserController-to-CandidateRepository" style="stroke:#181818;stroke-width:1.0;"/><polygon fill="#181818" points="291.65,330.1637,300.7024,326.2838,295.0496,326.4972,294.8361,320.8444,291.65,330.1637" style="stroke:#181818;stroke-width:1.0;"/></g><!--link CandidateRepository to Candidate--><g id="link_CandidateRepository_Candidate"><path codeLine="57" d="M292.55,330.0937 C318.2,304.8537 362.77,268.4037 410.5,263.0137 C450.03,258.5537 1086.97,258.5537 1126.5,263.0137 C1134.43,263.9037 1137.3,262.6737 1144,267.0137 C1168.12,282.6337 1183.82,305.0277 1195.04,325.0777 " fill="none" id="CandidateRepository-to-Candidate" style="stroke:#181818;stroke-width:1.0;"/><polygon fill="#181818" points="1197.97,330.3137,1197.0656,320.5064,1195.5283,325.9504,1190.0843,324.4131,1197.97,330.3137" style="stroke:#181818;stroke-width:1.0;"/></g><!--SRC=[VPF1Ri8m38RlVOeSMqsy08T9ZCjss2Q1U02lCM2j95MI3dKLxxwaT90sBZbKLVBPl_qdhg7yXWEAXaINYM6L5LWhLbAkGKcIu73t5XrVikithF1N3pcWhYigmP5MNBATHRFMoXbTLMWY8gmdk09vaSh46WPhRSbfqqO9I3aqUoXHX1GR3hamyAsxUqJtM5tg4r3Qt4PNABg1ZNfkt54R-kqTsQBv8IywRPjXya8isU1nA2hR60mSAXTynzx1Lx0hrNxkHqvEAWlSEoZVqid7pfJMU2YkY0qQXnWyaFNsVk0vkSn92TlMWwT0lJHKoVH1dCaTUzs477DVOJClblVhd1Uz8VnhvcrPB9udx-e1c1Ox6QC09SEGfUFnhvewphEiy4pEg1CUOYOZO_P4Z6P_]--></g></svg>