<?xml version="1.0" encoding="us-ascii" standalone="no"?><svg xmlns="http://www.w3.org/2000/svg" xmlns:xlink="http://www.w3.org/1999/xlink" contentStyleType="text/css" height="281px" preserveAspectRatio="none" style="width:171px;height:281px;background:#FFFFFF;" version="1.1" viewBox="0 0 171 281" width="171px" zoomAndPan="magnify"><defs/><g><!--class Candidate--><g id="elem_Candidate"><rect codeLine="2" fill="#F1F1F1" height="103.8633" id="Candidate" rx="2.5" ry="2.5" style="stroke:#181818;stroke-width:0.5;" width="156" x="7.5" y="7"/><ellipse cx="49.05" cy="23" fill="#ADD1B2" rx="11" ry="11" style="stroke:#181818;stroke-width:1.0;"/><path d="M51.8156,18.875 Q51.9719,18.6563 52.1594,18.5469 Q52.3469,18.4375 52.5656,18.4375 Q52.9406,18.4375 53.175,18.7031 Q53.4094,18.9531 53.4094,19.5625 L53.4094,21.0156 Q53.4094,21.625 53.175,21.8906 Q52.9406,22.1563 52.5656,22.1563 Q52.2219,22.1563 52.0188,21.9531 Q51.8156,21.7656 51.7063,21.25 Q51.6594,20.8906 51.4719,20.7031 Q51.1438,20.3281 50.5344,20.1094 Q49.925,19.8906 49.3,19.8906 Q48.5344,19.8906 47.8938,20.2188 Q47.2688,20.5469 46.7688,21.2969 Q46.2844,22.0469 46.2844,23.0781 L46.2844,24.1719 Q46.2844,25.4063 47.175,26.2344 Q48.0656,27.0469 49.6594,27.0469 Q50.5969,27.0469 51.2531,26.7969 Q51.6438,26.6406 52.0656,26.2031 Q52.3313,25.9375 52.4719,25.8594 Q52.6281,25.7813 52.8313,25.7813 Q53.1594,25.7813 53.4094,26.0469 Q53.675,26.2969 53.675,26.6406 Q53.675,26.9844 53.3313,27.3906 Q52.8313,27.9688 52.0344,28.2969 Q50.9563,28.75 49.6594,28.75 Q48.1438,28.75 46.9406,28.125 Q45.9563,27.625 45.2688,26.5625 Q44.5813,25.4844 44.5813,24.2031 L44.5813,23.0469 Q44.5813,21.7188 45.1906,20.5781 Q45.8156,19.4219 46.9094,18.8125 Q48.0031,18.1875 49.2375,18.1875 Q49.9719,18.1875 50.6125,18.3594 Q51.2688,18.5156 51.8156,18.875 Z " fill="#000000"/><text fill="#000000" font-family="sans-serif" font-size="14" lengthAdjust="spacing" textLength="65" x="68.95" y="28.7969">Candidate</text><line style="stroke:#181818;stroke-width:0.5;" x1="8.5" x2="162.5" y1="39" y2="39"/><rect fill="none" height="6" style="stroke:#C82930;stroke-width:1.0;" width="6" x="15.5" y="50.8105"/><text fill="#000000" font-family="sans-serif" font-size="14" lengthAdjust="spacing" textLength="95" x="27.5" y="58.1074">String fullName</text><rect fill="none" height="6" style="stroke:#C82930;stroke-width:1.0;" width="6" x="15.5" y="69.4316"/><text fill="#000000" font-family="sans-serif" font-size="14" lengthAdjust="spacing" textLength="74" x="27.5" y="76.7285">String email</text><rect fill="none" height="6" style="stroke:#C82930;stroke-width:1.0;" width="6" x="15.5" y="88.0527"/><text fill="#000000" font-family="sans-serif" font-size="14" lengthAdjust="spacing" textLength="130" x="27.5" y="95.3496">String phoneNumber</text><line style="stroke:#181818;stroke-width:0.5;" x1="8.5" x2="162.5" y1="102.8633" y2="102.8633"/></g><!--class User--><g id="elem_User"><rect codeLine="8" fill="#F1F1F1" height="103.8633" id="User" rx="2.5" ry="2.5" style="stroke:#181818;stroke-width:0.5;" width="157" x="7" y="171"/><ellipse cx="66.75" cy="187" fill="#ADD1B2" rx="11" ry="11" style="stroke:#181818;stroke-width:1.0;"/><path d="M69.5156,182.875 Q69.6719,182.6563 69.8594,182.5469 Q70.0469,182.4375 70.2656,182.4375 Q70.6406,182.4375 70.875,182.7031 Q71.1094,182.9531 71.1094,183.5625 L71.1094,185.0156 Q71.1094,185.625 70.875,185.8906 Q70.6406,186.1563 70.2656,186.1563 Q69.9219,186.1563 69.7188,185.9531 Q69.5156,185.7656 69.4063,185.25 Q69.3594,184.8906 69.1719,184.7031 Q68.8438,184.3281 68.2344,184.1094 Q67.625,183.8906 67,183.8906 Q66.2344,183.8906 65.5938,184.2188 Q64.9688,184.5469 64.4688,185.2969 Q63.9844,186.0469 63.9844,187.0781 L63.9844,188.1719 Q63.9844,189.4063 64.875,190.2344 Q65.7656,191.0469 67.3594,191.0469 Q68.2969,191.0469 68.9531,190.7969 Q69.3438,190.6406 69.7656,190.2031 Q70.0313,189.9375 70.1719,189.8594 Q70.3281,189.7813 70.5313,189.7813 Q70.8594,189.7813 71.1094,190.0469 Q71.375,190.2969 71.375,190.6406 Q71.375,190.9844 71.0313,191.3906 Q70.5313,191.9688 69.7344,192.2969 Q68.6563,192.75 67.3594,192.75 Q65.8438,192.75 64.6406,192.125 Q63.6563,191.625 62.9688,190.5625 Q62.2813,189.4844 62.2813,188.2031 L62.2813,187.0469 Q62.2813,185.7188 62.8906,184.5781 Q63.5156,183.4219 64.6094,182.8125 Q65.7031,182.1875 66.9375,182.1875 Q67.6719,182.1875 68.3125,182.3594 Q68.9688,182.5156 69.5156,182.875 Z " fill="#000000"/><text fill="#000000" font-family="sans-serif" font-size="14" lengthAdjust="spacing" textLength="29" x="87.25" y="192.7969">User</text><line style="stroke:#181818;stroke-width:0.5;" x1="8" x2="163" y1="203" y2="203"/><rect fill="none" height="6" style="stroke:#C82930;stroke-width:1.0;" width="6" x="15" y="214.8105"/><text fill="#000000" font-family="sans-serif" font-size="14" lengthAdjust="spacing" textLength="104" x="27" y="222.1074">String username</text><rect fill="none" height="6" style="stroke:#C82930;stroke-width:1.0;" width="6" x="15" y="233.4316"/><text fill="#000000" font-family="sans-serif" font-size="14" lengthAdjust="spacing" textLength="101" x="27" y="240.7285">String password</text><rect fill="none" height="6" style="stroke:#C82930;stroke-width:1.0;" width="6" x="15" y="252.0527"/><text fill="#000000" font-family="sans-serif" font-size="14" lengthAdjust="spacing" textLength="131" x="27" y="259.3496">Candidate candidate</text><line style="stroke:#181818;stroke-width:0.5;" x1="8" x2="163" y1="266.8633" y2="266.8633"/></g><!--link Candidate to User--><g id="link_Candidate_User"><path codeLine="14" d="M85.5,111.26 C85.5,130.26 85.5,139.8 85.5,158.8 " fill="none" id="Candidate-to-User" style="stroke:#181818;stroke-width:1.0;"/><polygon fill="#181818" points="85.5,170.8,89.5,164.8,85.5,158.8,81.5,164.8,85.5,170.8" style="stroke:#181818;stroke-width:1.0;"/></g><!--SRC=[Iyv9B2vMS4xCIybCIIn9LQZcKW02NONWagBCl7I5jDAS7B_4t5HKqTJSnCmSLA62ZFoyLB_ItAJK8gvQBgvaiB6XnQb5w2QM0iNoC4mi02elpozAWOeYt9CCOu5CHGZhwcg1JUS20000]--></g></svg>