<?xml version="1.0" encoding="us-ascii" standalone="no"?><svg xmlns="http://www.w3.org/2000/svg" xmlns:xlink="http://www.w3.org/1999/xlink" contentStyleType="text/css" height="653px" preserveAspectRatio="none" style="width:1155px;height:653px;background:#FFFFFF;" version="1.1" viewBox="0 0 1155 653" width="1155.5px" zoomAndPan="magnify"><defs/><g><text fill="#000000" font-family="sans-serif" font-size="7" font-weight="bold" lengthAdjust="spacing" textLength="301" x="428" y="15.0537">Sequence Diagram (US 2000a - Register a candidate and create a corresponding user)</text><rect fill="#FFFFFF" height="529.9863" style="stroke:#181818;stroke-width:0.5;" width="5" x="15.75" y="68.9316"/><rect fill="#FFFFFF" height="129.6396" style="stroke:#181818;stroke-width:0.5;" width="5" x="224.25" y="68.9316"/><rect fill="#FFFFFF" height="371.5557" style="stroke:#181818;stroke-width:0.5;" width="5" x="224.25" y="222.8623"/><rect fill="#FFFFFF" height="73.0576" style="stroke:#181818;stroke-width:0.5;" width="5" x="430.25" y="101.2227"/><rect fill="#FFFFFF" height="287.3281" style="stroke:#181818;stroke-width:0.5;" width="5" x="430.25" y="291.4443"/><rect fill="#FFFFFF" height="15.6455" style="stroke:#181818;stroke-width:0.5;" width="5" x="642" y="127.3438"/><rect fill="#FFFFFF" height="15" style="stroke:#181818;stroke-width:0.5;" width="5" x="642" y="337.8809"/><rect fill="#FFFFFF" height="15.6455" style="stroke:#181818;stroke-width:0.5;" width="5" x="725.75" y="158.6348"/><rect fill="#FFFFFF" height="101.873" style="stroke:#181818;stroke-width:0.5;" width="5" x="725.75" y="377.1719"/><rect fill="#FFFFFF" height="31.291" style="stroke:#181818;stroke-width:0.5;" width="5" x="943.75" y="401.4629"/><rect fill="#FFFFFF" height="15" style="stroke:#181818;stroke-width:0.5;" width="5" x="1007.75" y="448.3994"/><rect fill="#FFFFFF" height="15.6455" style="stroke:#181818;stroke-width:0.5;" width="5" x="1058.25" y="516.8359"/><rect fill="#FFFFFF" height="15" style="stroke:#181818;stroke-width:0.5;" width="5" x="1117.75" y="548.127"/><line style="stroke:#181818;stroke-width:0.25;stroke-dasharray:5.0,5.0;" x1="18" x2="18" y1="63.9316" y2="603.418"/><line style="stroke:#181818;stroke-width:0.25;stroke-dasharray:5.0,5.0;" x1="226.75" x2="226.75" y1="63.9316" y2="603.418"/><line style="stroke:#181818;stroke-width:0.25;stroke-dasharray:5.0,5.0;" x1="432.75" x2="432.75" y1="105.1377" y2="603.418"/><line style="stroke:#181818;stroke-width:0.25;stroke-dasharray:5.0,5.0;" x1="584.25" x2="584.25" y1="63.9316" y2="603.418"/><line style="stroke:#181818;stroke-width:0.25;stroke-dasharray:5.0,5.0;" x1="644.25" x2="644.25" y1="63.9316" y2="603.418"/><line style="stroke:#181818;stroke-width:0.25;stroke-dasharray:5.0,5.0;" x1="728.25" x2="728.25" y1="63.9316" y2="603.418"/><line style="stroke:#181818;stroke-width:0.25;stroke-dasharray:5.0,5.0;" x1="946" x2="946" y1="63.9316" y2="603.418"/><line style="stroke:#181818;stroke-width:0.25;stroke-dasharray:5.0,5.0;" x1="1010" x2="1010" y1="63.9316" y2="603.418"/><line style="stroke:#181818;stroke-width:0.25;stroke-dasharray:5.0,5.0;" x1="1060.5" x2="1060.5" y1="63.9316" y2="603.418"/><line style="stroke:#181818;stroke-width:0.25;stroke-dasharray:5.0,5.0;" x1="1120" x2="1120" y1="63.9316" y2="603.418"/><text fill="#000000" font-family="sans-serif" font-size="7" lengthAdjust="spacing" textLength="28.5" x="2.5" y="62.1748">Operator</text><ellipse cx="18.25" cy="28.8711" fill="#E2E2F0" rx="4" ry="4" style="stroke:#181818;stroke-width:0.25;"/><path d="M18.25,32.8711 L18.25,46.3711 M11.75,36.8711 L24.75,36.8711 M18.25,46.3711 L11.75,53.8711 M18.25,46.3711 L24.75,53.8711 " fill="none" style="stroke:#181818;stroke-width:0.25;"/><text fill="#000000" font-family="sans-serif" font-size="7" lengthAdjust="spacing" textLength="28.5" x="2.5" y="610.4717">Operator</text><ellipse cx="18.25" cy="616.4785" fill="#E2E2F0" rx="4" ry="4" style="stroke:#181818;stroke-width:0.25;"/><path d="M18.25,620.4785 L18.25,633.9785 M11.75,624.4785 L24.75,624.4785 M18.25,633.9785 L11.75,641.4785 M18.25,633.9785 L24.75,641.4785 " fill="none" style="stroke:#181818;stroke-width:0.25;"/><rect fill="#E2E2F0" height="25.6211" rx="1.25" ry="1.25" style="stroke:#181818;stroke-width:0.25;" width="58" x="197.75" y="37.8105"/><text fill="#000000" font-family="sans-serif" font-size="7" font-style="italic" lengthAdjust="spacing" textLength="15" x="219.25" y="48.8643">&#171;UI&#187;</text><text fill="#000000" font-family="sans-serif" font-size="7" lengthAdjust="spacing" textLength="51" x="201.25" y="58.1748">AddCandidateUI</text><rect fill="#E2E2F0" height="25.6211" rx="1.25" ry="1.25" style="stroke:#181818;stroke-width:0.25;" width="58" x="197.75" y="602.918"/><text fill="#000000" font-family="sans-serif" font-size="7" font-style="italic" lengthAdjust="spacing" textLength="15" x="219.25" y="613.9717">&#171;UI&#187;</text><text fill="#000000" font-family="sans-serif" font-size="7" lengthAdjust="spacing" textLength="51" x="201.25" y="623.2822">AddCandidateUI</text><rect fill="#E2E2F0" height="25.6211" rx="1.25" ry="1.25" style="stroke:#181818;stroke-width:0.25;" width="65" x="400.25" y="602.918"/><text fill="#000000" font-family="sans-serif" font-size="7" font-style="italic" lengthAdjust="spacing" textLength="42.5" x="411.5" y="613.9717">&#171;Application&#187;</text><text fill="#000000" font-family="sans-serif" font-size="7" lengthAdjust="spacing" textLength="58" x="403.75" y="623.2822">AddUserController</text><rect fill="#E2E2F0" height="25.6211" rx="1.25" ry="1.25" style="stroke:#181818;stroke-width:0.25;" width="39" x="564.75" y="37.8105"/><text fill="#000000" font-family="sans-serif" font-size="7" font-style="italic" lengthAdjust="spacing" textLength="32" x="568.25" y="48.8643">&#171;Domain&#187;</text><text fill="#000000" font-family="sans-serif" font-size="7" lengthAdjust="spacing" textLength="14.5" x="577" y="58.1748">Role</text><rect fill="#E2E2F0" height="25.6211" rx="1.25" ry="1.25" style="stroke:#181818;stroke-width:0.25;" width="39" x="564.75" y="602.918"/><text fill="#000000" font-family="sans-serif" font-size="7" font-style="italic" lengthAdjust="spacing" textLength="32" x="568.25" y="613.9717">&#171;Domain&#187;</text><text fill="#000000" font-family="sans-serif" font-size="7" lengthAdjust="spacing" textLength="14.5" x="577" y="623.2822">Role</text><rect fill="#E2E2F0" height="25.6211" rx="1.25" ry="1.25" style="stroke:#181818;stroke-width:0.25;" width="71.5" x="608.75" y="37.8105"/><text fill="#000000" font-family="sans-serif" font-size="7" font-style="italic" lengthAdjust="spacing" textLength="32" x="628.5" y="48.8643">&#171;Domain&#187;</text><text fill="#000000" font-family="sans-serif" font-size="7" lengthAdjust="spacing" textLength="64.5" x="612.25" y="58.1748">AuthorizationService</text><rect fill="#E2E2F0" height="25.6211" rx="1.25" ry="1.25" style="stroke:#181818;stroke-width:0.25;" width="71.5" x="608.75" y="602.918"/><text fill="#000000" font-family="sans-serif" font-size="7" font-style="italic" lengthAdjust="spacing" textLength="32" x="628.5" y="613.9717">&#171;Domain&#187;</text><text fill="#000000" font-family="sans-serif" font-size="7" lengthAdjust="spacing" textLength="64.5" x="612.25" y="623.2822">AuthorizationService</text><rect fill="#E2E2F0" height="25.6211" rx="1.25" ry="1.25" style="stroke:#181818;stroke-width:0.25;" width="86" x="685.25" y="37.8105"/><text fill="#000000" font-family="sans-serif" font-size="7" font-style="italic" lengthAdjust="spacing" textLength="32" x="712.25" y="48.8643">&#171;Domain&#187;</text><text fill="#000000" font-family="sans-serif" font-size="7" lengthAdjust="spacing" textLength="79" x="688.75" y="58.1748">UserManagementService</text><rect fill="#E2E2F0" height="25.6211" rx="1.25" ry="1.25" style="stroke:#181818;stroke-width:0.25;" width="86" x="685.25" y="602.918"/><text fill="#000000" font-family="sans-serif" font-size="7" font-style="italic" lengthAdjust="spacing" textLength="32" x="712.25" y="613.9717">&#171;Domain&#187;</text><text fill="#000000" font-family="sans-serif" font-size="7" lengthAdjust="spacing" textLength="79" x="688.75" y="623.2822">UserManagementService</text><rect fill="#E2E2F0" height="25.6211" rx="1.25" ry="1.25" style="stroke:#181818;stroke-width:0.25;" width="66.5" x="913" y="37.8105"/><text fill="#000000" font-family="sans-serif" font-size="7" font-style="italic" lengthAdjust="spacing" textLength="32" x="930.25" y="48.8643">&#171;Domain&#187;</text><text fill="#000000" font-family="sans-serif" font-size="7" lengthAdjust="spacing" textLength="59.5" x="916.5" y="58.1748">SystemUserBuilder</text><rect fill="#E2E2F0" height="25.6211" rx="1.25" ry="1.25" style="stroke:#181818;stroke-width:0.25;" width="66.5" x="913" y="602.918"/><text fill="#000000" font-family="sans-serif" font-size="7" font-style="italic" lengthAdjust="spacing" textLength="32" x="930.25" y="613.9717">&#171;Domain&#187;</text><text fill="#000000" font-family="sans-serif" font-size="7" lengthAdjust="spacing" textLength="59.5" x="916.5" y="623.2822">SystemUserBuilder</text><text fill="#000000" font-family="sans-serif" font-size="7" font-style="italic" lengthAdjust="spacing" textLength="45" x="986.25" y="52.8643">&#171;Persistence&#187;</text><text fill="#000000" font-family="sans-serif" font-size="7" lengthAdjust="spacing" textLength="48.5" x="984.5" y="62.1748">UserRepository</text><path d="M1001.25,27.3105 C1001.25,22.3105 1010.25,22.3105 1010.25,22.3105 C1010.25,22.3105 1019.25,22.3105 1019.25,27.3105 L1019.25,40.3105 C1019.25,45.3105 1010.25,45.3105 1010.25,45.3105 C1010.25,45.3105 1001.25,45.3105 1001.25,40.3105 L1001.25,27.3105 " fill="#E2E2F0" style="stroke:#181818;stroke-width:0.75;"/><path d="M1001.25,27.3105 C1001.25,32.3105 1010.25,32.3105 1010.25,32.3105 C1010.25,32.3105 1019.25,32.3105 1019.25,27.3105 " fill="none" style="stroke:#181818;stroke-width:0.75;"/><text fill="#000000" font-family="sans-serif" font-size="7" font-style="italic" lengthAdjust="spacing" textLength="45" x="986.25" y="610.4717">&#171;Persistence&#187;</text><text fill="#000000" font-family="sans-serif" font-size="7" lengthAdjust="spacing" textLength="48.5" x="984.5" y="619.7822">UserRepository</text><path d="M1001.25,626.5391 C1001.25,621.5391 1010.25,621.5391 1010.25,621.5391 C1010.25,621.5391 1019.25,621.5391 1019.25,626.5391 L1019.25,639.5391 C1019.25,644.5391 1010.25,644.5391 1010.25,644.5391 C1010.25,644.5391 1001.25,644.5391 1001.25,639.5391 L1001.25,626.5391 " fill="#E2E2F0" style="stroke:#181818;stroke-width:0.75;"/><path d="M1001.25,626.5391 C1001.25,631.5391 1010.25,631.5391 1010.25,631.5391 C1010.25,631.5391 1019.25,631.5391 1019.25,626.5391 " fill="none" style="stroke:#181818;stroke-width:0.75;"/><rect fill="#E2E2F0" height="25.6211" rx="1.25" ry="1.25" style="stroke:#181818;stroke-width:0.25;" width="39.5" x="1041" y="37.8105"/><text fill="#000000" font-family="sans-serif" font-size="7" font-style="italic" lengthAdjust="spacing" textLength="32" x="1044.75" y="48.8643">&#171;Domain&#187;</text><text fill="#000000" font-family="sans-serif" font-size="7" lengthAdjust="spacing" textLength="32.5" x="1044.5" y="58.1748">Candidate</text><rect fill="#E2E2F0" height="25.6211" rx="1.25" ry="1.25" style="stroke:#181818;stroke-width:0.25;" width="39.5" x="1041" y="602.918"/><text fill="#000000" font-family="sans-serif" font-size="7" font-style="italic" lengthAdjust="spacing" textLength="32" x="1044.75" y="613.9717">&#171;Domain&#187;</text><text fill="#000000" font-family="sans-serif" font-size="7" lengthAdjust="spacing" textLength="32.5" x="1044.5" y="623.2822">Candidate</text><text fill="#000000" font-family="sans-serif" font-size="7" font-style="italic" lengthAdjust="spacing" textLength="45" x="1096.25" y="52.8643">&#171;Persistence&#187;</text><text fill="#000000" font-family="sans-serif" font-size="7" lengthAdjust="spacing" textLength="66.5" x="1085.5" y="62.1748">CandidateRepository</text><path d="M1111.25,27.3105 C1111.25,22.3105 1120.25,22.3105 1120.25,22.3105 C1120.25,22.3105 1129.25,22.3105 1129.25,27.3105 L1129.25,40.3105 C1129.25,45.3105 1120.25,45.3105 1120.25,45.3105 C1120.25,45.3105 1111.25,45.3105 1111.25,40.3105 L1111.25,27.3105 " fill="#E2E2F0" style="stroke:#181818;stroke-width:0.75;"/><path d="M1111.25,27.3105 C1111.25,32.3105 1120.25,32.3105 1120.25,32.3105 C1120.25,32.3105 1129.25,32.3105 1129.25,27.3105 " fill="none" style="stroke:#181818;stroke-width:0.75;"/><text fill="#000000" font-family="sans-serif" font-size="7" font-style="italic" lengthAdjust="spacing" textLength="45" x="1096.25" y="610.4717">&#171;Persistence&#187;</text><text fill="#000000" font-family="sans-serif" font-size="7" lengthAdjust="spacing" textLength="66.5" x="1085.5" y="619.7822">CandidateRepository</text><path d="M1111.25,626.5391 C1111.25,621.5391 1120.25,621.5391 1120.25,621.5391 C1120.25,621.5391 1129.25,621.5391 1129.25,626.5391 L1129.25,639.5391 C1129.25,644.5391 1120.25,644.5391 1120.25,644.5391 C1120.25,644.5391 1111.25,644.5391 1111.25,639.5391 L1111.25,626.5391 " fill="#E2E2F0" style="stroke:#181818;stroke-width:0.75;"/><path d="M1111.25,626.5391 C1111.25,631.5391 1120.25,631.5391 1120.25,631.5391 C1120.25,631.5391 1129.25,631.5391 1129.25,626.5391 " fill="none" style="stroke:#181818;stroke-width:0.75;"/><rect fill="#FFFFFF" height="529.9863" style="stroke:#181818;stroke-width:0.5;" width="5" x="15.75" y="68.9316"/><rect fill="#FFFFFF" height="129.6396" style="stroke:#181818;stroke-width:0.5;" width="5" x="224.25" y="68.9316"/><rect fill="#FFFFFF" height="371.5557" style="stroke:#181818;stroke-width:0.5;" width="5" x="224.25" y="222.8623"/><rect fill="#FFFFFF" height="73.0576" style="stroke:#181818;stroke-width:0.5;" width="5" x="430.25" y="101.2227"/><rect fill="#FFFFFF" height="287.3281" style="stroke:#181818;stroke-width:0.5;" width="5" x="430.25" y="291.4443"/><rect fill="#FFFFFF" height="15.6455" style="stroke:#181818;stroke-width:0.5;" width="5" x="642" y="127.3438"/><rect fill="#FFFFFF" height="15" style="stroke:#181818;stroke-width:0.5;" width="5" x="642" y="337.8809"/><rect fill="#FFFFFF" height="15.6455" style="stroke:#181818;stroke-width:0.5;" width="5" x="725.75" y="158.6348"/><rect fill="#FFFFFF" height="101.873" style="stroke:#181818;stroke-width:0.5;" width="5" x="725.75" y="377.1719"/><rect fill="#FFFFFF" height="31.291" style="stroke:#181818;stroke-width:0.5;" width="5" x="943.75" y="401.4629"/><rect fill="#FFFFFF" height="15" style="stroke:#181818;stroke-width:0.5;" width="5" x="1007.75" y="448.3994"/><rect fill="#FFFFFF" height="15.6455" style="stroke:#181818;stroke-width:0.5;" width="5" x="1058.25" y="516.8359"/><rect fill="#FFFFFF" height="15" style="stroke:#181818;stroke-width:0.5;" width="5" x="1117.75" y="548.127"/><polygon fill="#181818" points="218.25,78.5771,223.25,80.5771,218.25,82.5771,220.25,80.5771" style="stroke:#181818;stroke-width:0.5;"/><line style="stroke:#181818;stroke-width:0.5;" x1="20.75" x2="221.25" y1="80.5771" y2="80.5771"/><text fill="#000000" font-family="sans-serif" font-size="6.5" font-weight="bold" lengthAdjust="spacing" textLength="3.5" x="24.25" y="77.9458">1</text><text fill="#000000" font-family="sans-serif" font-size="6.5" lengthAdjust="spacing" textLength="85" x="29.75" y="77.9458">Request to register candidate</text><polygon fill="#181818" points="394.25,94.2227,399.25,96.2227,394.25,98.2227,396.25,96.2227" style="stroke:#181818;stroke-width:0.5;"/><line style="stroke:#181818;stroke-width:0.5;" x1="229.25" x2="397.25" y1="96.2227" y2="96.2227"/><text fill="#000000" font-family="sans-serif" font-size="6.5" font-weight="bold" lengthAdjust="spacing" textLength="3.5" x="232.75" y="93.5913">2</text><text fill="#000000" font-family="sans-serif" font-size="6.5" lengthAdjust="spacing" textLength="18" x="238.25" y="93.5913">create</text><rect fill="#E2E2F0" height="25.6211" rx="1.25" ry="1.25" style="stroke:#181818;stroke-width:0.25;" width="65" x="400.25" y="84.5771"/><text fill="#000000" font-family="sans-serif" font-size="7" font-style="italic" lengthAdjust="spacing" textLength="42.5" x="411.5" y="95.6309">&#171;Application&#187;</text><text fill="#000000" font-family="sans-serif" font-size="7" lengthAdjust="spacing" textLength="58" x="403.75" y="104.9414">AddUserController</text><polygon fill="#181818" points="636,125.3438,641,127.3438,636,129.3438,638,127.3438" style="stroke:#181818;stroke-width:0.5;"/><line style="stroke:#181818;stroke-width:0.5;" x1="435.25" x2="639" y1="127.3438" y2="127.3438"/><text fill="#000000" font-family="sans-serif" font-size="6.5" font-weight="bold" lengthAdjust="spacing" textLength="3.5" x="438.75" y="124.7124">3</text><text fill="#000000" font-family="sans-serif" font-size="6.5" lengthAdjust="spacing" textLength="62" x="444.25" y="124.7124">authorizationService()</text><polygon fill="#181818" points="440.75,140.9893,435.75,142.9893,440.75,144.9893,438.75,142.9893" style="stroke:#181818;stroke-width:0.5;"/><line style="stroke:#181818;stroke-width:0.5;stroke-dasharray:2.0,2.0;" x1="437.75" x2="644" y1="142.9893" y2="142.9893"/><text fill="#000000" font-family="sans-serif" font-size="6.5" font-weight="bold" lengthAdjust="spacing" textLength="3.5" x="443.75" y="140.3579">4</text><text fill="#000000" font-family="sans-serif" font-size="6.5" lengthAdjust="spacing" textLength="16" x="449.25" y="140.3579">authz</text><polygon fill="#181818" points="719.75,156.6348,724.75,158.6348,719.75,160.6348,721.75,158.6348" style="stroke:#181818;stroke-width:0.5;"/><line style="stroke:#181818;stroke-width:0.5;" x1="435.25" x2="722.75" y1="158.6348" y2="158.6348"/><text fill="#000000" font-family="sans-serif" font-size="6.5" font-weight="bold" lengthAdjust="spacing" textLength="3.5" x="438.75" y="156.0034">5</text><text fill="#000000" font-family="sans-serif" font-size="6.5" lengthAdjust="spacing" textLength="37.5" x="444.25" y="156.0034">userService()</text><polygon fill="#181818" points="438.25,172.2803,433.25,174.2803,438.25,176.2803,436.25,174.2803" style="stroke:#181818;stroke-width:0.5;"/><line style="stroke:#181818;stroke-width:0.5;stroke-dasharray:2.0,2.0;" x1="435.25" x2="727.75" y1="174.2803" y2="174.2803"/><text fill="#000000" font-family="sans-serif" font-size="6.5" font-weight="bold" lengthAdjust="spacing" textLength="3.5" x="441.25" y="171.6489">6</text><text fill="#000000" font-family="sans-serif" font-size="6.5" lengthAdjust="spacing" textLength="23" x="446.75" y="171.6489">userSvc</text><polygon fill="#181818" points="26.25,196.5713,21.25,198.5713,26.25,200.5713,24.25,198.5713" style="stroke:#181818;stroke-width:0.5;"/><line style="stroke:#181818;stroke-width:0.5;stroke-dasharray:2.0,2.0;" x1="23.25" x2="226.25" y1="198.5713" y2="198.5713"/><text fill="#000000" font-family="sans-serif" font-size="6.5" font-weight="bold" lengthAdjust="spacing" textLength="3.5" x="29.25" y="191.6172">7</text><text fill="#000000" font-family="sans-serif" font-size="6.5" lengthAdjust="spacing" textLength="99" x="34.75" y="187.2944">Request the username, password,</text><text fill="#000000" font-family="sans-serif" font-size="6.5" lengthAdjust="spacing" textLength="110.5" x="34.75" y="195.9399">firstName, lastName, email, roleTypes</text><polygon fill="#181818" points="218.25,220.8623,223.25,222.8623,218.25,224.8623,220.25,222.8623" style="stroke:#181818;stroke-width:0.5;"/><line style="stroke:#181818;stroke-width:0.5;" x1="20.75" x2="221.25" y1="222.8623" y2="222.8623"/><text fill="#000000" font-family="sans-serif" font-size="6.5" font-weight="bold" lengthAdjust="spacing" textLength="3.5" x="24.25" y="215.9082">8</text><text fill="#000000" font-family="sans-serif" font-size="6.5" lengthAdjust="spacing" textLength="116" x="29.75" y="211.5854">Types in the data (username, password,</text><text fill="#000000" font-family="sans-serif" font-size="6.5" lengthAdjust="spacing" textLength="112.5" x="29.75" y="220.231">firstName, lastName, email, roleTypes)</text><line style="stroke:#181818;stroke-width:0.5;stroke-dasharray:2.0,2.0;" x1="229.25" x2="250.25" y1="238.5078" y2="238.5078"/><line style="stroke:#181818;stroke-width:0.5;stroke-dasharray:2.0,2.0;" x1="250.25" x2="250.25" y1="238.5078" y2="245.0078"/><line style="stroke:#181818;stroke-width:0.5;stroke-dasharray:2.0,2.0;" x1="229.75" x2="250.25" y1="245.0078" y2="245.0078"/><polygon fill="#181818" points="234.75,243.0078,229.75,245.0078,234.75,247.0078,232.75,245.0078" style="stroke:#181818;stroke-width:0.5;"/><text fill="#000000" font-family="sans-serif" font-size="6.5" font-weight="bold" lengthAdjust="spacing" textLength="3.5" x="232.75" y="235.8765">9</text><text fill="#000000" font-family="sans-serif" font-size="6.5" lengthAdjust="spacing" textLength="42" x="238.25" y="235.8765">saves the data</text><line style="stroke:#181818;stroke-width:0.5;" x1="229.25" x2="250.25" y1="260.6533" y2="260.6533"/><line style="stroke:#181818;stroke-width:0.5;" x1="250.25" x2="250.25" y1="260.6533" y2="267.1533"/><line style="stroke:#181818;stroke-width:0.5;" x1="229.75" x2="250.25" y1="267.1533" y2="267.1533"/><polygon fill="#181818" points="234.75,265.1533,229.75,267.1533,234.75,269.1533,232.75,267.1533" style="stroke:#181818;stroke-width:0.5;"/><text fill="#000000" font-family="sans-serif" font-size="6.5" font-weight="bold" lengthAdjust="spacing" textLength="7" x="232.75" y="258.022">10</text><text fill="#000000" font-family="sans-serif" font-size="6.5" lengthAdjust="spacing" textLength="72.5" x="241.75" y="258.022">.add(ROLE.CANDIDATE)</text><polygon fill="#181818" points="424.25,289.4443,429.25,291.4443,424.25,293.4443,426.25,291.4443" style="stroke:#181818;stroke-width:0.5;"/><line style="stroke:#181818;stroke-width:0.5;" x1="229.25" x2="427.25" y1="291.4443" y2="291.4443"/><text fill="#000000" font-family="sans-serif" font-size="6.5" font-weight="bold" lengthAdjust="spacing" textLength="7" x="232.75" y="284.4902">11</text><text fill="#000000" font-family="sans-serif" font-size="6.5" lengthAdjust="spacing" textLength="180.5" x="241.75" y="280.1675">addCandidate(this.theController.addUser(username, password,</text><text fill="#000000" font-family="sans-serif" font-size="6.5" lengthAdjust="spacing" textLength="114.5" x="241.75" y="288.813">firstName, lastName, email, roleTypes))</text><line style="stroke:#181818;stroke-width:0.5;stroke-dasharray:2.0,2.0;" x1="435.25" x2="456.25" y1="315.7354" y2="315.7354"/><line style="stroke:#181818;stroke-width:0.5;stroke-dasharray:2.0,2.0;" x1="456.25" x2="456.25" y1="315.7354" y2="322.2354"/><line style="stroke:#181818;stroke-width:0.5;stroke-dasharray:2.0,2.0;" x1="435.75" x2="456.25" y1="322.2354" y2="322.2354"/><polygon fill="#181818" points="440.75,320.2354,435.75,322.2354,440.75,324.2354,438.75,322.2354" style="stroke:#181818;stroke-width:0.5;"/><text fill="#000000" font-family="sans-serif" font-size="6.5" font-weight="bold" lengthAdjust="spacing" textLength="7" x="438.75" y="308.7813">12</text><text fill="#000000" font-family="sans-serif" font-size="6.5" lengthAdjust="spacing" textLength="86" x="447.75" y="304.4585">addUser(username,password,</text><text fill="#000000" font-family="sans-serif" font-size="6.5" lengthAdjust="spacing" textLength="130.5" x="447.75" y="313.104">firstName,lastName, email, roles, createdOn)</text><polygon fill="#181818" points="636,335.8809,641,337.8809,636,339.8809,638,337.8809" style="stroke:#181818;stroke-width:0.5;"/><line style="stroke:#181818;stroke-width:0.5;" x1="435.25" x2="639" y1="337.8809" y2="337.8809"/><text fill="#000000" font-family="sans-serif" font-size="6.5" font-weight="bold" lengthAdjust="spacing" textLength="7" x="438.75" y="335.2495">13</text><text fill="#000000" font-family="sans-serif" font-size="6.5" lengthAdjust="spacing" textLength="106.5" x="447.75" y="335.2495">ensureAuthenticatedUserHasAnyOf()</text><polygon fill="#181818" points="719.75,375.1719,724.75,377.1719,719.75,379.1719,721.75,377.1719" style="stroke:#181818;stroke-width:0.5;"/><line style="stroke:#181818;stroke-width:0.5;" x1="435.25" x2="722.75" y1="377.1719" y2="377.1719"/><text fill="#000000" font-family="sans-serif" font-size="6.5" font-weight="bold" lengthAdjust="spacing" textLength="7" x="438.75" y="370.2178">14</text><text fill="#000000" font-family="sans-serif" font-size="6.5" lengthAdjust="spacing" textLength="111.5" x="447.75" y="365.895">registerNewUser(username, password,</text><text fill="#000000" font-family="sans-serif" font-size="6.5" lengthAdjust="spacing" textLength="132.5" x="447.75" y="374.5405">firstName, lastName, email, roles, createdOn)</text><polygon fill="#181818" points="937.75,399.4629,942.75,401.4629,937.75,403.4629,939.75,401.4629" style="stroke:#181818;stroke-width:0.5;"/><line style="stroke:#181818;stroke-width:0.5;" x1="730.75" x2="940.75" y1="401.4629" y2="401.4629"/><text fill="#000000" font-family="sans-serif" font-size="6.5" font-weight="bold" lengthAdjust="spacing" textLength="7" x="734.25" y="394.5088">15</text><text fill="#000000" font-family="sans-serif" font-size="6.5" lengthAdjust="spacing" textLength="88.5" x="743.25" y="390.186">.with(username, rawPassword,</text><text fill="#000000" font-family="sans-serif" font-size="6.5" lengthAdjust="spacing" textLength="194.5" x="743.25" y="398.8315">firstName, lastName, email).createdOn(createdOn).withRoles(roles)</text><polygon fill="#181818" points="937.75,415.1084,942.75,417.1084,937.75,419.1084,939.75,417.1084" style="stroke:#181818;stroke-width:0.5;"/><line style="stroke:#181818;stroke-width:0.5;" x1="730.75" x2="940.75" y1="417.1084" y2="417.1084"/><text fill="#000000" font-family="sans-serif" font-size="6.5" font-weight="bold" lengthAdjust="spacing" textLength="7" x="734.25" y="414.4771">16</text><text fill="#000000" font-family="sans-serif" font-size="6.5" lengthAdjust="spacing" textLength="19.5" x="743.25" y="414.4771">.build()</text><polygon fill="#181818" points="736.25,430.7539,731.25,432.7539,736.25,434.7539,734.25,432.7539" style="stroke:#181818;stroke-width:0.5;"/><line style="stroke:#181818;stroke-width:0.5;stroke-dasharray:2.0,2.0;" x1="733.25" x2="945.75" y1="432.7539" y2="432.7539"/><text fill="#000000" font-family="sans-serif" font-size="6.5" font-weight="bold" lengthAdjust="spacing" textLength="7" x="739.25" y="430.1226">17</text><text fill="#000000" font-family="sans-serif" font-size="6.5" lengthAdjust="spacing" textLength="12.5" x="748.25" y="430.1226">user</text><polygon fill="#181818" points="1001.75,446.3994,1006.75,448.3994,1001.75,450.3994,1003.75,448.3994" style="stroke:#181818;stroke-width:0.5;"/><line style="stroke:#181818;stroke-width:0.5;" x1="730.75" x2="1004.75" y1="448.3994" y2="448.3994"/><text fill="#000000" font-family="sans-serif" font-size="6.5" font-weight="bold" lengthAdjust="spacing" textLength="7" x="734.25" y="445.7681">18</text><text fill="#000000" font-family="sans-serif" font-size="6.5" lengthAdjust="spacing" textLength="38.5" x="743.25" y="445.7681">save the user</text><polygon fill="#181818" points="440.75,477.0449,435.75,479.0449,440.75,481.0449,438.75,479.0449" style="stroke:#181818;stroke-width:0.5;"/><line style="stroke:#181818;stroke-width:0.5;stroke-dasharray:2.0,2.0;" x1="437.75" x2="727.75" y1="479.0449" y2="479.0449"/><text fill="#000000" font-family="sans-serif" font-size="6.5" font-weight="bold" lengthAdjust="spacing" textLength="7" x="443.75" y="476.4136">19</text><text fill="#000000" font-family="sans-serif" font-size="6.5" lengthAdjust="spacing" textLength="12.5" x="452.75" y="476.4136">user</text><line style="stroke:#181818;stroke-width:0.5;stroke-dasharray:2.0,2.0;" x1="435.25" x2="456.25" y1="494.6904" y2="494.6904"/><line style="stroke:#181818;stroke-width:0.5;stroke-dasharray:2.0,2.0;" x1="456.25" x2="456.25" y1="494.6904" y2="501.1904"/><line style="stroke:#181818;stroke-width:0.5;stroke-dasharray:2.0,2.0;" x1="435.75" x2="456.25" y1="501.1904" y2="501.1904"/><polygon fill="#181818" points="440.75,499.1904,435.75,501.1904,440.75,503.1904,438.75,501.1904" style="stroke:#181818;stroke-width:0.5;"/><text fill="#000000" font-family="sans-serif" font-size="6.5" font-weight="bold" lengthAdjust="spacing" textLength="7" x="438.75" y="492.0591">20</text><text fill="#000000" font-family="sans-serif" font-size="6.5" lengthAdjust="spacing" textLength="42" x="447.75" y="492.0591">saves the user</text><polygon fill="#181818" points="1052.25,514.8359,1057.25,516.8359,1052.25,518.8359,1054.25,516.8359" style="stroke:#181818;stroke-width:0.5;"/><line style="stroke:#181818;stroke-width:0.5;" x1="435.25" x2="1055.25" y1="516.8359" y2="516.8359"/><text fill="#000000" font-family="sans-serif" font-size="6.5" font-weight="bold" lengthAdjust="spacing" textLength="7" x="438.75" y="514.2046">21</text><text fill="#000000" font-family="sans-serif" font-size="6.5" lengthAdjust="spacing" textLength="81.5" x="447.75" y="514.2046">Candidate (user, curriculum)</text><polygon fill="#181818" points="440.75,530.4814,435.75,532.4814,440.75,534.4814,438.75,532.4814" style="stroke:#181818;stroke-width:0.5;"/><line style="stroke:#181818;stroke-width:0.5;stroke-dasharray:2.0,2.0;" x1="437.75" x2="1060.25" y1="532.4814" y2="532.4814"/><text fill="#000000" font-family="sans-serif" font-size="6.5" font-weight="bold" lengthAdjust="spacing" textLength="7" x="443.75" y="529.8501">22</text><text fill="#000000" font-family="sans-serif" font-size="6.5" lengthAdjust="spacing" textLength="28" x="452.75" y="529.8501">candidate</text><polygon fill="#181818" points="1111.75,546.127,1116.75,548.127,1111.75,550.127,1113.75,548.127" style="stroke:#181818;stroke-width:0.5;"/><line style="stroke:#181818;stroke-width:0.5;" x1="435.25" x2="1114.75" y1="548.127" y2="548.127"/><text fill="#000000" font-family="sans-serif" font-size="6.5" font-weight="bold" lengthAdjust="spacing" textLength="7" x="438.75" y="545.4956">23</text><text fill="#000000" font-family="sans-serif" font-size="6.5" lengthAdjust="spacing" textLength="45" x="447.75" y="545.4956">save(candidate)</text><polygon fill="#181818" points="234.75,576.7725,229.75,578.7725,234.75,580.7725,232.75,578.7725" style="stroke:#181818;stroke-width:0.5;"/><line style="stroke:#181818;stroke-width:0.5;stroke-dasharray:2.0,2.0;" x1="231.75" x2="432.25" y1="578.7725" y2="578.7725"/><text fill="#000000" font-family="sans-serif" font-size="6.5" font-weight="bold" lengthAdjust="spacing" textLength="7" x="237.75" y="576.1411">24</text><text fill="#000000" font-family="sans-serif" font-size="6.5" lengthAdjust="spacing" textLength="85.5" x="246.75" y="576.1411">candidate added successfully</text><polygon fill="#181818" points="26.25,592.418,21.25,594.418,26.25,596.418,24.25,594.418" style="stroke:#181818;stroke-width:0.5;"/><line style="stroke:#181818;stroke-width:0.5;stroke-dasharray:2.0,2.0;" x1="23.25" x2="226.25" y1="594.418" y2="594.418"/><text fill="#000000" font-family="sans-serif" font-size="6.5" font-weight="bold" lengthAdjust="spacing" textLength="7" x="29.25" y="591.7866">25</text><text fill="#000000" font-family="sans-serif" font-size="6.5" lengthAdjust="spacing" textLength="182.5" x="38.25" y="591.7866">Creates the registered candidate and throws operation success</text><!--SRC=[fLLDR-8m4BtdL_YOL83G7X52IaEbHMfBHPhRNamoWAN4pjeEYFxw7JjVJfhkhjG3u8-PzpmpRmRDT0uaXjyLy1J8bj6pf0NnavZyM2wNbCp90SvCQP24afJoZ6LK0y45IINO9Kc5bA1AWPVyJ2e5Cl0yMcd1g-88qgEf5fBiIv3KBAZgrbv9fMOfAodN9Coog2L8TiOClzVhPBVPZEqIv8W4rrBaELZ4wFtmZCPXMUOifPe9Fl8w20mK3UtlUhqL1MLZcx3I5o7PX_MFGLvPQdt2-2iFyv0NokaP2k3QSKbUllI9xvZEmdW-LYpFwlV7oQDhZpcWHwh04XoW58fXkkuMsMpHzWsaCeN1keq8ehvCc9X9sCvaY1rDOdkcWkng0Bl2TIV9pkigEz_WTeMAGJafJRGWiXLF9ntFmwgYeIdOmyEg5b4FPuuzMqoqmRol29qeYX_q7c7ieTsyWQpjFxmCN0DpOnxtOW2DG2TmyDB33mBLEDRichf8niJPshUQQ12wpO4J_GKi1gS5p4X9bRe9cSt8BtvYKkbNUvpJTWLOedn6KD7mVYz13NW_vzZQ4COjZIahyRz15WpgcUmm8enhHHIz8ajBOIuCEruiQ9RvX_tpqo8ANxUxRVZ-5DJNJH6SNlRrXQa5WlGTQzoDih_rvc12DLtrFX5Cuq_2grapsx8z3nhjM2a2LvK4CoMmsSsO0KloawgGt_UdaIh_8i6sBLxXzeqq3D_vISWRd2bOgHlJ5uT0qjlRVt44YmxSxsaid9cXohTFS7YHhkObDV7HJ3VC2UxcTUHrKxc9wNpiLAi5rtME4vAv7NI4FHYtwxXN1uhejMnDctf4AsTSsZHXKYifMLhbLU5Ap8lw6TDFCtSSD9XH7uhV6Rf8us3gW-QnjhsSFzeiWuoeAar1gLELv_T_Jw38LgkEjLKQWWp_lVL5YfiYmdhXP6qvHdFd3m00]--></g></svg>