<?xml version="1.0" encoding="us-ascii" standalone="no"?><svg xmlns="http://www.w3.org/2000/svg" xmlns:xlink="http://www.w3.org/1999/xlink" contentStyleType="text/css" height="1063.2px" preserveAspectRatio="none" style="width:1985px;height:1063px;background:#FFFFFF;" version="1.1" viewBox="0 0 1985 1063" width="1985.6px" zoomAndPan="magnify"><defs/><g><text fill="#000000" font-family="sans-serif" font-size="11.2" font-weight="bold" lengthAdjust="spacing" textLength="239.2" x="872.6" y="24.0859">Register Job Opening - Sequence Diagram</text><rect fill="#FFFFFF" height="883.1391" style="stroke:#181818;stroke-width:0.8000000000000002;" width="8" x="50.8" y="106.5938"/><rect fill="#FFFFFF" height="883.1391" style="stroke:#181818;stroke-width:0.8000000000000002;" width="8" x="423.6" y="106.5938"/><rect fill="#FFFFFF" height="379.7484" style="stroke:#181818;stroke-width:0.8000000000000002;" width="8" x="950" y="577.7516"/><rect fill="#FFFFFF" height="329.6828" style="stroke:#181818;stroke-width:0.8000000000000002;" width="8" x="1434" y="602.7844"/><rect fill="#FFFFFF" height="25.0328" style="stroke:#181818;stroke-width:0.8000000000000002;" width="8" x="1570" y="627.8172"/><rect fill="#FFFFFF" height="96.6594" style="stroke:#181818;stroke-width:0.8000000000000002;" width="8" x="1688.4" y="735.9484"/><rect fill="#FFFFFF" height="50.0656" style="stroke:#181818;stroke-width:0.8000000000000002;" width="8" x="1914" y="677.8828"/><rect fill="#FFFFFF" height="25.0328" style="stroke:#181818;stroke-width:0.8000000000000002;" width="8" x="1914" y="882.4016"/><line style="stroke:#181818;stroke-width:0.4000000000000001;stroke-dasharray:5.0,5.0;" x1="54.4" x2="54.4" y1="98.5938" y2="996.9328"/><line style="stroke:#181818;stroke-width:0.4000000000000001;stroke-dasharray:5.0,5.0;" x1="427.2" x2="427.2" y1="98.5938" y2="996.9328"/><line style="stroke:#181818;stroke-width:0.4000000000000001;stroke-dasharray:5.0,5.0;" x1="953.6" x2="953.6" y1="98.5938" y2="996.9328"/><line style="stroke:#181818;stroke-width:0.4000000000000001;stroke-dasharray:5.0,5.0;" x1="1437.6" x2="1437.6" y1="98.5938" y2="996.9328"/><line style="stroke:#181818;stroke-width:0.4000000000000001;stroke-dasharray:5.0,5.0;" x1="1574" x2="1574" y1="98.5938" y2="996.9328"/><line style="stroke:#181818;stroke-width:0.4000000000000001;stroke-dasharray:5.0,5.0;" x1="1692.4" x2="1692.4" y1="742.2125" y2="996.9328"/><line style="stroke:#181818;stroke-width:0.4000000000000001;stroke-dasharray:5.0,5.0;" x1="1810.8" x2="1810.8" y1="846.8719" y2="996.9328"/><line style="stroke:#181818;stroke-width:0.4000000000000001;stroke-dasharray:5.0,5.0;" x1="1918" x2="1918" y1="98.5938" y2="996.9328"/><text fill="#000000" font-family="sans-serif" font-size="11.2" lengthAdjust="spacing" textLength="96.8" x="4" y="95.7828">Customer Manager</text><ellipse cx="54.8" cy="42.4969" fill="#E2E2F0" rx="6.4" ry="6.4" style="stroke:#181818;stroke-width:0.4000000000000001;"/><path d="M54.8,48.8969 L54.8,70.4969 M44.4,55.2969 L65.2,55.2969 M54.8,70.4969 L44.4,82.4969 M54.8,70.4969 L65.2,82.4969 " fill="none" style="stroke:#181818;stroke-width:0.4000000000000001;"/><text fill="#000000" font-family="sans-serif" font-size="11.2" lengthAdjust="spacing" textLength="96.8" x="4" y="1008.2188">Customer Manager</text><ellipse cx="54.8" cy="1017.8297" fill="#E2E2F0" rx="6.4" ry="6.4" style="stroke:#181818;stroke-width:0.4000000000000001;"/><path d="M54.8,1024.2297 L54.8,1045.8297 M44.4,1030.6297 L65.2,1030.6297 M54.8,1045.8297 L44.4,1057.8297 M54.8,1045.8297 L65.2,1057.8297 " fill="none" style="stroke:#181818;stroke-width:0.4000000000000001;"/><rect fill="#E2E2F0" height="40.9938" rx="2" ry="2" style="stroke:#181818;stroke-width:0.4000000000000001;" width="101.6" x="376.8" y="56.8"/><text fill="#000000" font-family="sans-serif" font-size="11.2" font-style="italic" lengthAdjust="spacing" textLength="24" x="415.6" y="74.4859">&#171;UI&#187;</text><text fill="#000000" font-family="sans-serif" font-size="11.2" lengthAdjust="spacing" textLength="90.4" x="382.4" y="89.3828">AddJobOpeningUI</text><rect fill="#E2E2F0" height="40.9938" rx="2" ry="2" style="stroke:#181818;stroke-width:0.4000000000000001;" width="101.6" x="376.8" y="996.1328"/><text fill="#000000" font-family="sans-serif" font-size="11.2" font-style="italic" lengthAdjust="spacing" textLength="24" x="415.6" y="1013.8188">&#171;UI&#187;</text><text fill="#000000" font-family="sans-serif" font-size="11.2" lengthAdjust="spacing" textLength="90.4" x="382.4" y="1028.7156">AddJobOpeningUI</text><rect fill="#E2E2F0" height="40.9938" rx="2" ry="2" style="stroke:#181818;stroke-width:0.4000000000000001;" width="141.6" x="883.2" y="56.8"/><text fill="#000000" font-family="sans-serif" font-size="11.2" font-style="italic" lengthAdjust="spacing" textLength="68" x="920" y="74.4859">&#171;Application&#187;</text><text fill="#000000" font-family="sans-serif" font-size="11.2" lengthAdjust="spacing" textLength="130.4" x="888.8" y="89.3828">AddJobOpeningController</text><rect fill="#E2E2F0" height="40.9938" rx="2" ry="2" style="stroke:#181818;stroke-width:0.4000000000000001;" width="141.6" x="883.2" y="996.1328"/><text fill="#000000" font-family="sans-serif" font-size="11.2" font-style="italic" lengthAdjust="spacing" textLength="68" x="920" y="1013.8188">&#171;Application&#187;</text><text fill="#000000" font-family="sans-serif" font-size="11.2" lengthAdjust="spacing" textLength="130.4" x="888.8" y="1028.7156">AddJobOpeningController</text><rect fill="#E2E2F0" height="40.9938" rx="2" ry="2" style="stroke:#181818;stroke-width:0.4000000000000001;" width="109.6" x="1383.2" y="56.8"/><text fill="#000000" font-family="sans-serif" font-size="11.2" font-style="italic" lengthAdjust="spacing" textLength="49.6" x="1413.2" y="74.4859">&#171;Service&#187;</text><text fill="#000000" font-family="sans-serif" font-size="11.2" lengthAdjust="spacing" textLength="98.4" x="1388.8" y="89.3828">JobOpeningService</text><rect fill="#E2E2F0" height="40.9938" rx="2" ry="2" style="stroke:#181818;stroke-width:0.4000000000000001;" width="109.6" x="1383.2" y="996.1328"/><text fill="#000000" font-family="sans-serif" font-size="11.2" font-style="italic" lengthAdjust="spacing" textLength="49.6" x="1413.2" y="1013.8188">&#171;Service&#187;</text><text fill="#000000" font-family="sans-serif" font-size="11.2" lengthAdjust="spacing" textLength="98.4" x="1388.8" y="1028.7156">JobOpeningService</text><rect fill="#E2E2F0" height="40.9938" rx="2" ry="2" style="stroke:#181818;stroke-width:0.4000000000000001;" width="113.6" x="1517.2" y="56.8"/><text fill="#000000" font-family="sans-serif" font-size="11.2" font-style="italic" lengthAdjust="spacing" textLength="72" x="1538" y="74.4859">&#171;Persistence&#187;</text><text fill="#000000" font-family="sans-serif" font-size="11.2" lengthAdjust="spacing" textLength="102.4" x="1522.8" y="89.3828">CompanyRepository</text><rect fill="#E2E2F0" height="40.9938" rx="2" ry="2" style="stroke:#181818;stroke-width:0.4000000000000001;" width="113.6" x="1517.2" y="996.1328"/><text fill="#000000" font-family="sans-serif" font-size="11.2" font-style="italic" lengthAdjust="spacing" textLength="72" x="1538" y="1013.8188">&#171;Persistence&#187;</text><text fill="#000000" font-family="sans-serif" font-size="11.2" lengthAdjust="spacing" textLength="102.4" x="1522.8" y="1028.7156">CompanyRepository</text><rect fill="#E2E2F0" height="40.9938" rx="2" ry="2" style="stroke:#181818;stroke-width:0.4000000000000001;" width="107.2" x="1638.8" y="996.1328"/><text fill="#000000" font-family="sans-serif" font-size="11.2" font-style="italic" lengthAdjust="spacing" textLength="51.2" x="1666.8" y="1013.8188">&#171;Domain&#187;</text><text fill="#000000" font-family="sans-serif" font-size="11.2" lengthAdjust="spacing" textLength="96" x="1644.4" y="1028.7156">JobOpeningBuilder</text><rect fill="#E2E2F0" height="40.9938" rx="2" ry="2" style="stroke:#181818;stroke-width:0.4000000000000001;" width="72" x="1774.8" y="996.1328"/><text fill="#000000" font-family="sans-serif" font-size="11.2" font-style="italic" lengthAdjust="spacing" textLength="51.2" x="1785.2" y="1013.8188">&#171;Domain&#187;</text><text fill="#000000" font-family="sans-serif" font-size="11.2" lengthAdjust="spacing" textLength="60.8" x="1780.4" y="1028.7156">JobOpening</text><rect fill="#E2E2F0" height="40.9938" rx="2" ry="2" style="stroke:#181818;stroke-width:0.4000000000000001;" width="126.4" x="1854.8" y="56.8"/><text fill="#000000" font-family="sans-serif" font-size="11.2" font-style="italic" lengthAdjust="spacing" textLength="72" x="1882" y="74.4859">&#171;Persistence&#187;</text><text fill="#000000" font-family="sans-serif" font-size="11.2" lengthAdjust="spacing" textLength="115.2" x="1860.4" y="89.3828">JobOpeningRepository</text><rect fill="#E2E2F0" height="40.9938" rx="2" ry="2" style="stroke:#181818;stroke-width:0.4000000000000001;" width="126.4" x="1854.8" y="996.1328"/><text fill="#000000" font-family="sans-serif" font-size="11.2" font-style="italic" lengthAdjust="spacing" textLength="72" x="1882" y="1013.8188">&#171;Persistence&#187;</text><text fill="#000000" font-family="sans-serif" font-size="11.2" lengthAdjust="spacing" textLength="115.2" x="1860.4" y="1028.7156">JobOpeningRepository</text><rect fill="#FFFFFF" height="883.1391" style="stroke:#181818;stroke-width:0.8000000000000002;" width="8" x="50.8" y="106.5938"/><rect fill="#FFFFFF" height="883.1391" style="stroke:#181818;stroke-width:0.8000000000000002;" width="8" x="423.6" y="106.5938"/><rect fill="#FFFFFF" height="379.7484" style="stroke:#181818;stroke-width:0.8000000000000002;" width="8" x="950" y="577.7516"/><rect fill="#FFFFFF" height="329.6828" style="stroke:#181818;stroke-width:0.8000000000000002;" width="8" x="1434" y="602.7844"/><rect fill="#FFFFFF" height="25.0328" style="stroke:#181818;stroke-width:0.8000000000000002;" width="8" x="1570" y="627.8172"/><rect fill="#FFFFFF" height="96.6594" style="stroke:#181818;stroke-width:0.8000000000000002;" width="8" x="1688.4" y="735.9484"/><rect fill="#FFFFFF" height="50.0656" style="stroke:#181818;stroke-width:0.8000000000000002;" width="8" x="1914" y="677.8828"/><rect fill="#FFFFFF" height="25.0328" style="stroke:#181818;stroke-width:0.8000000000000002;" width="8" x="1914" y="882.4016"/><polygon fill="#181818" points="414,122.0266,422,125.2266,414,128.4266,417.2,125.2266" style="stroke:#181818;stroke-width:0.8000000000000002;"/><line style="stroke:#181818;stroke-width:0.8000000000000002;" x1="58.8" x2="418.8" y1="125.2266" y2="125.2266"/><text fill="#000000" font-family="sans-serif" font-size="10.4" font-weight="bold" lengthAdjust="spacing" textLength="5.6" x="64.4" y="121.0164">1</text><text fill="#000000" font-family="sans-serif" font-size="10.4" lengthAdjust="spacing" textLength="154.4" x="73.2" y="121.0164">requests to register a job opening</text><polygon fill="#181818" points="67.6,147.0594,59.6,150.2594,67.6,153.4594,64.4,150.2594" style="stroke:#181818;stroke-width:0.8000000000000002;"/><line style="stroke:#181818;stroke-width:0.8000000000000002;stroke-dasharray:2.0,2.0;" x1="62.8" x2="422.8" y1="150.2594" y2="150.2594"/><text fill="#000000" font-family="sans-serif" font-size="10.4" font-weight="bold" lengthAdjust="spacing" textLength="5.6" x="72.4" y="146.0492">2</text><text fill="#000000" font-family="sans-serif" font-size="10.4" lengthAdjust="spacing" textLength="320" x="81.2" y="146.0492">prompts for job details (Description, Vacancies Number and Address)</text><line style="stroke:#181818;stroke-width:0.8000000000000002;stroke-dasharray:2.0,2.0;" x1="431.6" x2="465.2" y1="175.2922" y2="175.2922"/><line style="stroke:#181818;stroke-width:0.8000000000000002;stroke-dasharray:2.0,2.0;" x1="465.2" x2="465.2" y1="175.2922" y2="185.6922"/><line style="stroke:#181818;stroke-width:0.8000000000000002;stroke-dasharray:2.0,2.0;" x1="432.4" x2="465.2" y1="185.6922" y2="185.6922"/><polygon fill="#181818" points="440.4,182.4922,432.4,185.6922,440.4,188.8922,437.2,185.6922" style="stroke:#181818;stroke-width:0.8000000000000002;"/><text fill="#000000" font-family="sans-serif" font-size="10.4" font-weight="bold" lengthAdjust="spacing" textLength="5.6" x="437.2" y="171.082">3</text><text fill="#000000" font-family="sans-serif" font-size="10.4" lengthAdjust="spacing" textLength="136.8" x="446" y="171.082">checkDescription(description)</text><line style="stroke:#181818;stroke-width:0.8000000000000002;stroke-dasharray:2.0,2.0;" x1="431.6" x2="465.2" y1="210.725" y2="210.725"/><line style="stroke:#181818;stroke-width:0.8000000000000002;stroke-dasharray:2.0,2.0;" x1="465.2" x2="465.2" y1="210.725" y2="221.125"/><line style="stroke:#181818;stroke-width:0.8000000000000002;stroke-dasharray:2.0,2.0;" x1="432.4" x2="465.2" y1="221.125" y2="221.125"/><polygon fill="#181818" points="440.4,217.925,432.4,221.125,440.4,224.325,437.2,221.125" style="stroke:#181818;stroke-width:0.8000000000000002;"/><text fill="#000000" font-family="sans-serif" font-size="10.4" font-weight="bold" lengthAdjust="spacing" textLength="5.6" x="437.2" y="206.5148">4</text><text fill="#000000" font-family="sans-serif" font-size="10.4" lengthAdjust="spacing" textLength="200.8" x="446" y="206.5148">checkVacanciesNumber(vacanciesNumber)</text><line style="stroke:#181818;stroke-width:0.8000000000000002;stroke-dasharray:2.0,2.0;" x1="431.6" x2="465.2" y1="246.1578" y2="246.1578"/><line style="stroke:#181818;stroke-width:0.8000000000000002;stroke-dasharray:2.0,2.0;" x1="465.2" x2="465.2" y1="246.1578" y2="256.5578"/><line style="stroke:#181818;stroke-width:0.8000000000000002;stroke-dasharray:2.0,2.0;" x1="432.4" x2="465.2" y1="256.5578" y2="256.5578"/><polygon fill="#181818" points="440.4,253.3578,432.4,256.5578,440.4,259.7578,437.2,256.5578" style="stroke:#181818;stroke-width:0.8000000000000002;"/><text fill="#000000" font-family="sans-serif" font-size="10.4" font-weight="bold" lengthAdjust="spacing" textLength="5.6" x="437.2" y="241.9477">5</text><text fill="#000000" font-family="sans-serif" font-size="10.4" lengthAdjust="spacing" textLength="109.6" x="446" y="241.9477">checkAddress(address)</text><polygon fill="#181818" points="414,278.3906,422,281.5906,414,284.7906,417.2,281.5906" style="stroke:#181818;stroke-width:0.8000000000000002;"/><line style="stroke:#181818;stroke-width:0.8000000000000002;" x1="58.8" x2="418.8" y1="281.5906" y2="281.5906"/><text fill="#000000" font-family="sans-serif" font-size="10.4" font-weight="bold" lengthAdjust="spacing" textLength="5.6" x="64.4" y="277.3805">6</text><text fill="#000000" font-family="sans-serif" font-size="10.4" lengthAdjust="spacing" textLength="136.8" x="73.2" y="277.3805">provides job details requested</text><polygon fill="#181818" points="67.6,303.4234,59.6,306.6234,67.6,309.8234,64.4,306.6234" style="stroke:#181818;stroke-width:0.8000000000000002;"/><line style="stroke:#181818;stroke-width:0.8000000000000002;stroke-dasharray:2.0,2.0;" x1="62.8" x2="422.8" y1="306.6234" y2="306.6234"/><text fill="#000000" font-family="sans-serif" font-size="10.4" font-weight="bold" lengthAdjust="spacing" textLength="5.6" x="72.4" y="302.4133">7</text><text fill="#000000" font-family="sans-serif" font-size="10.4" lengthAdjust="spacing" textLength="306.4" x="81.2" y="302.4133">shows available job openings modes ( Remote, Hybrid and Onsite)</text><polygon fill="#181818" points="414,328.4563,422,331.6563,414,334.8563,417.2,331.6563" style="stroke:#181818;stroke-width:0.8000000000000002;"/><line style="stroke:#181818;stroke-width:0.8000000000000002;" x1="58.8" x2="418.8" y1="331.6563" y2="331.6563"/><text fill="#000000" font-family="sans-serif" font-size="10.4" font-weight="bold" lengthAdjust="spacing" textLength="5.6" x="64.4" y="327.4461">8</text><text fill="#000000" font-family="sans-serif" font-size="10.4" lengthAdjust="spacing" textLength="118.4" x="73.2" y="327.4461">selects job opening mode</text><polygon fill="#181818" points="67.6,353.4891,59.6,356.6891,67.6,359.8891,64.4,356.6891" style="stroke:#181818;stroke-width:0.8000000000000002;"/><line style="stroke:#181818;stroke-width:0.8000000000000002;stroke-dasharray:2.0,2.0;" x1="62.8" x2="422.8" y1="356.6891" y2="356.6891"/><text fill="#000000" font-family="sans-serif" font-size="10.4" font-weight="bold" lengthAdjust="spacing" textLength="5.6" x="72.4" y="352.4789">9</text><text fill="#000000" font-family="sans-serif" font-size="10.4" lengthAdjust="spacing" textLength="282.4" x="81.2" y="352.4789">shows available job openings types (Full Time and Part Time)</text><polygon fill="#181818" points="414,378.5219,422,381.7219,414,384.9219,417.2,381.7219" style="stroke:#181818;stroke-width:0.8000000000000002;"/><line style="stroke:#181818;stroke-width:0.8000000000000002;" x1="58.8" x2="418.8" y1="381.7219" y2="381.7219"/><text fill="#000000" font-family="sans-serif" font-size="10.4" font-weight="bold" lengthAdjust="spacing" textLength="11.2" x="64.4" y="377.5117">10</text><text fill="#000000" font-family="sans-serif" font-size="10.4" lengthAdjust="spacing" textLength="112.8" x="78.8" y="377.5117">selects job opening type</text><polygon fill="#181818" points="67.6,403.5547,59.6,406.7547,67.6,409.9547,64.4,406.7547" style="stroke:#181818;stroke-width:0.8000000000000002;"/><line style="stroke:#181818;stroke-width:0.8000000000000002;stroke-dasharray:2.0,2.0;" x1="62.8" x2="422.8" y1="406.7547" y2="406.7547"/><text fill="#000000" font-family="sans-serif" font-size="10.4" font-weight="bold" lengthAdjust="spacing" textLength="11.2" x="72.4" y="402.5445">11</text><text fill="#000000" font-family="sans-serif" font-size="10.4" lengthAdjust="spacing" textLength="331.2" x="86.8" y="402.5445">prompts for job opening requirements (Title or function and Company ID)</text><line style="stroke:#181818;stroke-width:0.8000000000000002;stroke-dasharray:2.0,2.0;" x1="431.6" x2="465.2" y1="431.7875" y2="431.7875"/><line style="stroke:#181818;stroke-width:0.8000000000000002;stroke-dasharray:2.0,2.0;" x1="465.2" x2="465.2" y1="431.7875" y2="442.1875"/><line style="stroke:#181818;stroke-width:0.8000000000000002;stroke-dasharray:2.0,2.0;" x1="432.4" x2="465.2" y1="442.1875" y2="442.1875"/><polygon fill="#181818" points="440.4,438.9875,432.4,442.1875,440.4,445.3875,437.2,442.1875" style="stroke:#181818;stroke-width:0.8000000000000002;"/><text fill="#000000" font-family="sans-serif" font-size="10.4" font-weight="bold" lengthAdjust="spacing" textLength="11.2" x="437.2" y="427.5773">12</text><text fill="#000000" font-family="sans-serif" font-size="10.4" lengthAdjust="spacing" textLength="176" x="451.6" y="427.5773">checkTittleOrFunction(titleOrFunction)</text><line style="stroke:#181818;stroke-width:0.8000000000000002;stroke-dasharray:2.0,2.0;" x1="431.6" x2="465.2" y1="467.2203" y2="467.2203"/><line style="stroke:#181818;stroke-width:0.8000000000000002;stroke-dasharray:2.0,2.0;" x1="465.2" x2="465.2" y1="467.2203" y2="477.6203"/><line style="stroke:#181818;stroke-width:0.8000000000000002;stroke-dasharray:2.0,2.0;" x1="432.4" x2="465.2" y1="477.6203" y2="477.6203"/><polygon fill="#181818" points="440.4,474.4203,432.4,477.6203,440.4,480.8203,437.2,477.6203" style="stroke:#181818;stroke-width:0.8000000000000002;"/><text fill="#000000" font-family="sans-serif" font-size="10.4" font-weight="bold" lengthAdjust="spacing" textLength="11.2" x="437.2" y="463.0102">13</text><text fill="#000000" font-family="sans-serif" font-size="10.4" lengthAdjust="spacing" textLength="136.8" x="451.6" y="463.0102">checkCompanyId(companyId)</text><polygon fill="#181818" points="414,499.4531,422,502.6531,414,505.8531,417.2,502.6531" style="stroke:#181818;stroke-width:0.8000000000000002;"/><line style="stroke:#181818;stroke-width:0.8000000000000002;" x1="58.8" x2="418.8" y1="502.6531" y2="502.6531"/><text fill="#000000" font-family="sans-serif" font-size="10.4" font-weight="bold" lengthAdjust="spacing" textLength="11.2" x="64.4" y="498.443">14</text><text fill="#000000" font-family="sans-serif" font-size="10.4" lengthAdjust="spacing" textLength="156.8" x="78.8" y="498.443">provides job opening requirements</text><polygon fill="#181818" points="67.6,524.4859,59.6,527.6859,67.6,530.8859,64.4,527.6859" style="stroke:#181818;stroke-width:0.8000000000000002;"/><line style="stroke:#181818;stroke-width:0.8000000000000002;stroke-dasharray:2.0,2.0;" x1="62.8" x2="422.8" y1="527.6859" y2="527.6859"/><text fill="#000000" font-family="sans-serif" font-size="10.4" font-weight="bold" lengthAdjust="spacing" textLength="11.2" x="72.4" y="523.4758">15</text><text fill="#000000" font-family="sans-serif" font-size="10.4" lengthAdjust="spacing" textLength="237.6" x="86.8" y="523.4758">shows and requests confirmation for job registration</text><polygon fill="#181818" points="414,549.5188,422,552.7188,414,555.9188,417.2,552.7188" style="stroke:#181818;stroke-width:0.8000000000000002;"/><line style="stroke:#181818;stroke-width:0.8000000000000002;" x1="58.8" x2="418.8" y1="552.7188" y2="552.7188"/><text fill="#000000" font-family="sans-serif" font-size="10.4" font-weight="bold" lengthAdjust="spacing" textLength="11.2" x="64.4" y="548.5086">16</text><text fill="#000000" font-family="sans-serif" font-size="10.4" lengthAdjust="spacing" textLength="110.4" x="78.8" y="548.5086">confirms job registration</text><polygon fill="#181818" points="940.4,574.5516,948.4,577.7516,940.4,580.9516,943.6,577.7516" style="stroke:#181818;stroke-width:0.8000000000000002;"/><line style="stroke:#181818;stroke-width:0.8000000000000002;" x1="431.6" x2="945.2" y1="577.7516" y2="577.7516"/><text fill="#000000" font-family="sans-serif" font-size="10.4" font-weight="bold" lengthAdjust="spacing" textLength="11.2" x="437.2" y="573.5414">17</text><text fill="#000000" font-family="sans-serif" font-size="10.4" lengthAdjust="spacing" textLength="488.8" x="451.6" y="573.5414">addJobOpening(description, address, mode, contractType, titleOrFunction, vacanciesNumber, companyId)</text><polygon fill="#181818" points="1424.4,599.5844,1432.4,602.7844,1424.4,605.9844,1427.6,602.7844" style="stroke:#181818;stroke-width:0.8000000000000002;"/><line style="stroke:#181818;stroke-width:0.8000000000000002;" x1="958" x2="1429.2" y1="602.7844" y2="602.7844"/><text fill="#000000" font-family="sans-serif" font-size="10.4" font-weight="bold" lengthAdjust="spacing" textLength="11.2" x="963.6" y="598.5742">18</text><text fill="#000000" font-family="sans-serif" font-size="10.4" lengthAdjust="spacing" textLength="446.4" x="978" y="598.5742">create(description, address, mode, contractType, titleOrFunction, vacanciesNumber, companyId)</text><polygon fill="#181818" points="1560.4,624.6172,1568.4,627.8172,1560.4,631.0172,1563.6,627.8172" style="stroke:#181818;stroke-width:0.8000000000000002;"/><line style="stroke:#181818;stroke-width:0.8000000000000002;" x1="1442" x2="1565.2" y1="627.8172" y2="627.8172"/><text fill="#000000" font-family="sans-serif" font-size="10.4" font-weight="bold" lengthAdjust="spacing" textLength="11.2" x="1447.6" y="623.607">19</text><text fill="#000000" font-family="sans-serif" font-size="10.4" lengthAdjust="spacing" textLength="98.4" x="1462" y="623.607">ofIdentity(companyId)</text><polygon fill="#181818" points="1450.8,649.65,1442.8,652.85,1450.8,656.05,1447.6,652.85" style="stroke:#181818;stroke-width:0.8000000000000002;"/><line style="stroke:#181818;stroke-width:0.8000000000000002;stroke-dasharray:2.0,2.0;" x1="1446" x2="1573.2" y1="652.85" y2="652.85"/><text fill="#000000" font-family="sans-serif" font-size="10.4" font-weight="bold" lengthAdjust="spacing" textLength="11.2" x="1455.6" y="648.6398">20</text><text fill="#000000" font-family="sans-serif" font-size="10.4" lengthAdjust="spacing" textLength="77.6" x="1470" y="648.6398">returns company</text><polygon fill="#181818" points="1904.4,674.6828,1912.4,677.8828,1904.4,681.0828,1907.6,677.8828" style="stroke:#181818;stroke-width:0.8000000000000002;"/><line style="stroke:#181818;stroke-width:0.8000000000000002;" x1="1442" x2="1909.2" y1="677.8828" y2="677.8828"/><text fill="#000000" font-family="sans-serif" font-size="10.4" font-weight="bold" lengthAdjust="spacing" textLength="11.2" x="1447.6" y="673.6727">21</text><text fill="#000000" font-family="sans-serif" font-size="10.4" lengthAdjust="spacing" textLength="167.2" x="1462" y="673.6727">getLastIdFromCompany(companyId)</text><polygon fill="#181818" points="1450.8,699.7156,1442.8,702.9156,1450.8,706.1156,1447.6,702.9156" style="stroke:#181818;stroke-width:0.8000000000000002;"/><line style="stroke:#181818;stroke-width:0.8000000000000002;stroke-dasharray:2.0,2.0;" x1="1446" x2="1913.2" y1="702.9156" y2="702.9156"/><text fill="#000000" font-family="sans-serif" font-size="10.4" font-weight="bold" lengthAdjust="spacing" textLength="11.2" x="1455.6" y="698.7055">22</text><text fill="#000000" font-family="sans-serif" font-size="10.4" lengthAdjust="spacing" textLength="60" x="1470" y="698.7055">returns lastId</text><polygon fill="#181818" points="1629.2,724.7484,1637.2,727.9484,1629.2,731.1484,1632.4,727.9484" style="stroke:#181818;stroke-width:0.8000000000000002;"/><line style="stroke:#181818;stroke-width:0.8000000000000002;" x1="1442" x2="1634" y1="727.9484" y2="727.9484"/><text fill="#000000" font-family="sans-serif" font-size="10.4" font-weight="bold" lengthAdjust="spacing" textLength="11.2" x="1447.6" y="723.7383">23</text><text fill="#000000" font-family="sans-serif" font-size="10.4" lengthAdjust="spacing" textLength="28.8" x="1462" y="723.7383">create</text><rect fill="#E2E2F0" height="40.9938" rx="2" ry="2" style="stroke:#181818;stroke-width:0.4000000000000001;" width="107.2" x="1638.8" y="709.3156"/><text fill="#000000" font-family="sans-serif" font-size="11.2" font-style="italic" lengthAdjust="spacing" textLength="51.2" x="1666.8" y="727.0016">&#171;Domain&#187;</text><text fill="#000000" font-family="sans-serif" font-size="11.2" lengthAdjust="spacing" textLength="96" x="1644.4" y="741.8984">JobOpeningBuilder</text><polygon fill="#181818" points="1678.8,774.5422,1686.8,777.7422,1678.8,780.9422,1682,777.7422" style="stroke:#181818;stroke-width:0.8000000000000002;"/><line style="stroke:#181818;stroke-width:0.8000000000000002;" x1="1442" x2="1683.6" y1="777.7422" y2="777.7422"/><text fill="#000000" font-family="sans-serif" font-size="10.4" font-weight="bold" lengthAdjust="spacing" textLength="11.2" x="1447.6" y="773.532">24</text><text fill="#000000" font-family="sans-serif" font-size="10.4" lengthAdjust="spacing" textLength="28" x="1462" y="773.532">build()</text><path d="M1445.6,788.1422 L1445.6,809.7422 L1680.8,809.7422 L1680.8,796.1422 L1672.8,788.1422 L1445.6,788.1422 " fill="#FEFFDD" style="stroke:#181818;stroke-width:0.4000000000000001;"/><path d="M1672.8,788.1422 L1672.8,796.1422 L1680.8,796.1422 L1672.8,788.1422 " fill="#FEFFDD" style="stroke:#181818;stroke-width:0.4000000000000001;"/><text fill="#000000" font-family="sans-serif" font-size="10.4" lengthAdjust="spacing" textLength="218.4" x="1450.4" y="803.3648">Passes the job opening attributes to the builder</text><polygon fill="#181818" points="1765.2,829.4078,1773.2,832.6078,1765.2,835.8078,1768.4,832.6078" style="stroke:#181818;stroke-width:0.8000000000000002;"/><line style="stroke:#181818;stroke-width:0.8000000000000002;" x1="1692.4" x2="1770" y1="832.6078" y2="832.6078"/><text fill="#000000" font-family="sans-serif" font-size="10.4" font-weight="bold" lengthAdjust="spacing" textLength="11.2" x="1698" y="828.3977">25</text><text fill="#000000" font-family="sans-serif" font-size="10.4" lengthAdjust="spacing" textLength="44.8" x="1712.4" y="828.3977">create(...)</text><rect fill="#E2E2F0" height="40.9938" rx="2" ry="2" style="stroke:#181818;stroke-width:0.4000000000000001;" width="72" x="1774.8" y="813.975"/><text fill="#000000" font-family="sans-serif" font-size="11.2" font-style="italic" lengthAdjust="spacing" textLength="51.2" x="1785.2" y="831.6609">&#171;Domain&#187;</text><text fill="#000000" font-family="sans-serif" font-size="11.2" lengthAdjust="spacing" textLength="60.8" x="1780.4" y="846.5578">JobOpening</text><polygon fill="#181818" points="1904.4,879.2016,1912.4,882.4016,1904.4,885.6016,1907.6,882.4016" style="stroke:#181818;stroke-width:0.8000000000000002;"/><line style="stroke:#181818;stroke-width:0.8000000000000002;" x1="1442" x2="1909.2" y1="882.4016" y2="882.4016"/><text fill="#000000" font-family="sans-serif" font-size="10.4" font-weight="bold" lengthAdjust="spacing" textLength="11.2" x="1447.6" y="878.1914">26</text><text fill="#000000" font-family="sans-serif" font-size="10.4" lengthAdjust="spacing" textLength="79.2" x="1462" y="878.1914">save(jobOpening)</text><polygon fill="#181818" points="1450.8,904.2344,1442.8,907.4344,1450.8,910.6344,1447.6,907.4344" style="stroke:#181818;stroke-width:0.8000000000000002;"/><line style="stroke:#181818;stroke-width:0.8000000000000002;stroke-dasharray:2.0,2.0;" x1="1446" x2="1917.2" y1="907.4344" y2="907.4344"/><text fill="#000000" font-family="sans-serif" font-size="10.4" font-weight="bold" lengthAdjust="spacing" textLength="11.2" x="1455.6" y="903.2242">27</text><text fill="#000000" font-family="sans-serif" font-size="10.4" lengthAdjust="spacing" textLength="88" x="1470" y="903.2242">returns job opening</text><polygon fill="#181818" points="966.8,929.2672,958.8,932.4672,966.8,935.6672,963.6,932.4672" style="stroke:#181818;stroke-width:0.8000000000000002;"/><line style="stroke:#181818;stroke-width:0.8000000000000002;stroke-dasharray:2.0,2.0;" x1="962" x2="1437.2" y1="932.4672" y2="932.4672"/><text fill="#000000" font-family="sans-serif" font-size="10.4" font-weight="bold" lengthAdjust="spacing" textLength="11.2" x="971.6" y="928.257">28</text><text fill="#000000" font-family="sans-serif" font-size="10.4" lengthAdjust="spacing" textLength="88" x="986" y="928.257">returns job opening</text><polygon fill="#181818" points="440.4,954.3,432.4,957.5,440.4,960.7,437.2,957.5" style="stroke:#181818;stroke-width:0.8000000000000002;"/><line style="stroke:#181818;stroke-width:0.8000000000000002;stroke-dasharray:2.0,2.0;" x1="435.6" x2="953.2" y1="957.5" y2="957.5"/><text fill="#000000" font-family="sans-serif" font-size="10.4" font-weight="bold" lengthAdjust="spacing" textLength="11.2" x="445.2" y="953.2898">29</text><text fill="#000000" font-family="sans-serif" font-size="10.4" lengthAdjust="spacing" textLength="74.4" x="459.6" y="953.2898">returns success</text><polygon fill="#181818" points="67.6,979.3328,59.6,982.5328,67.6,985.7328,64.4,982.5328" style="stroke:#181818;stroke-width:0.8000000000000002;"/><line style="stroke:#181818;stroke-width:0.8000000000000002;stroke-dasharray:2.0,2.0;" x1="62.8" x2="422.8" y1="982.5328" y2="982.5328"/><text fill="#000000" font-family="sans-serif" font-size="10.4" font-weight="bold" lengthAdjust="spacing" textLength="11.2" x="72.4" y="978.3227">30</text><text fill="#000000" font-family="sans-serif" font-size="10.4" lengthAdjust="spacing" textLength="146.4" x="86.8" y="978.3227">confirms successful registration</text><!--SRC=[jLNBRk8m5DtxAwwwcNG4_G24a0ge6j0mL8NEtYGNS2UnCxP3nT_FjJ5vaOXkPaLCphddldnYXKqHtl0WZ4KDIxM3TOvIo0CCOOD_2vGnmbpmW-OPOxomIXRP3ZNZiLKQ7cQ5iIeZwefBVa3z0Dp0YkLSMn6Bd4iBpqb2SKFOzmKu1FsCn- -BoQGVELFIQfMc59i8jTDu_9pdgOYv5Kgs8bJq3UgJeDo9kzmG9vnR-9dAwFVyXhaoWWewUort9CehQkFw8czebSoq46boIN4v9SvSPLpqP-Lnw_kuPaBBpeJS2CI9MwH-bu_l2yPMC9ou3ez0kmaQQy0gUWv3vl11OrON8SO8E2JyYk2vfdOGUa-JTPW4BHUfWMYE9jOYTmqVm6yUSnaBDF3Bhm9mcRZHQJJciOpdzUCZndzgv2YfdhkWPUXBvEZKF7THWd34omIgygcUao39HZ6X9vWqIZT7zMc0dmZ2TtGbQYqoa2aN9A9xaYcB0_XntccH-BhNaiQ43LM3ASRMr4Fu25_Ni-VSwRqKQGfRaQ5NUgL5yQUxOexU4BiPx1NfUY4qPYZfPRJrPa2GVI5ZDoAl6wu8BERrzeVk4uKuQ_qI694LZNC79SHR955yVUeVMbUYNNsaFCjTZvNS2vrvUoWhlco_zd_MrGBOT82SogHcF2FWTN-gx_80mleD_AG7BYp5YUsMHZ60LbC6qDfhXwzQKTxbIfgnclzHKkHebBf6Glt_D9ORnXWfkcOu8ng1sYyIceImvwWxSGUZdBrj3Ns-pejieQMvQZ2MO9jm4LbUH0veVt9Z5yaBBMzOccwvPM1togK-HXbx-ltxjNEiaK88ygtLwEa8FeKzzdfO3_x6bNfmAnfJv6RLYvZLHXZLvzdBs8exLxA7TzTyUpFikj0TlQtEqseU8zYvJsX454dc2beSZfOspAqTaEaPGrPWZms716wj5hl2el-okRUxotUO8Jc1YqC2Ko-mhWOUFJqzFJOJeqGOQosUuIUCFifxxchvsgerFgktvJkHbg7SPMvkqxq9N9zACDfhN5F4CQrVuwhLJENgepKR38nzaJRTy1y0]--></g></svg>