<?xml version="1.0" encoding="us-ascii" standalone="no"?><svg xmlns="http://www.w3.org/2000/svg" xmlns:xlink="http://www.w3.org/1999/xlink" contentStyleType="text/css" height="1247px" preserveAspectRatio="none" style="width:1807px;height:1247px;background:#FFFFFF;" version="1.1" viewBox="0 0 1807 1247" width="1807px" zoomAndPan="magnify"><defs/><g><text fill="#000000" font-family="sans-serif" font-size="14" font-weight="bold" lengthAdjust="spacing" textLength="299" x="755.75" y="30.1074">Register Job Opening - Sequence Diagram</text><rect fill="#FFFFFF" height="1001.6328" style="stroke:#181818;stroke-width:1.0;" width="10" x="63.5" y="137.8633"/><rect fill="#FFFFFF" height="1001.6328" style="stroke:#181818;stroke-width:1.0;" width="10" x="522.5" y="137.8633"/><rect fill="#FFFFFF" height="593.8496" style="stroke:#181818;stroke-width:1.0;" width="10" x="1177.5" y="505.3555"/><rect fill="#FFFFFF" height="343.8613" style="stroke:#181818;stroke-width:1.0;" width="10" x="1468.5" y="661.4707"/><rect fill="#FFFFFF" height="31.291" style="stroke:#181818;stroke-width:1.0;" width="10" x="1726.5" y="598.8887"/><rect fill="#FFFFFF" height="31.291" style="stroke:#181818;stroke-width:1.0;" width="10" x="1726.5" y="1036.623"/><line style="stroke:#181818;stroke-width:0.5;stroke-dasharray:5.0,5.0;" x1="68" x2="68" y1="127.8633" y2="1148.4961"/><line style="stroke:#181818;stroke-width:0.5;stroke-dasharray:5.0,5.0;" x1="527" x2="527" y1="127.8633" y2="1148.4961"/><line style="stroke:#181818;stroke-width:0.5;stroke-dasharray:5.0,5.0;" x1="1182" x2="1182" y1="127.8633" y2="1148.4961"/><line style="stroke:#181818;stroke-width:0.5;stroke-dasharray:5.0,5.0;" x1="1473.5" x2="1473.5" y1="554.4766" y2="1148.4961"/><line style="stroke:#181818;stroke-width:0.5;stroke-dasharray:5.0,5.0;" x1="1601.5" x2="1601.5" y1="960.9199" y2="1148.4961"/><line style="stroke:#181818;stroke-width:0.5;stroke-dasharray:5.0,5.0;" x1="1731.5" x2="1731.5" y1="127.8633" y2="1148.4961"/><text fill="#000000" font-family="sans-serif" font-size="14" lengthAdjust="spacing" textLength="121" x="5" y="124.3496">Customer Manager</text><ellipse cx="68.5" cy="57.7422" fill="#E2E2F0" rx="8" ry="8" style="stroke:#181818;stroke-width:0.5;"/><path d="M68.5,65.7422 L68.5,92.7422 M55.5,73.7422 L81.5,73.7422 M68.5,92.7422 L55.5,107.7422 M68.5,92.7422 L81.5,107.7422 " fill="none" style="stroke:#181818;stroke-width:0.5;"/><text fill="#000000" font-family="sans-serif" font-size="14" lengthAdjust="spacing" textLength="121" x="5" y="1162.6035">Customer Manager</text><ellipse cx="68.5" cy="1174.6172" fill="#E2E2F0" rx="8" ry="8" style="stroke:#181818;stroke-width:0.5;"/><path d="M68.5,1182.6172 L68.5,1209.6172 M55.5,1190.6172 L81.5,1190.6172 M68.5,1209.6172 L55.5,1224.6172 M68.5,1209.6172 L81.5,1224.6172 " fill="none" style="stroke:#181818;stroke-width:0.5;"/><rect fill="#E2E2F0" height="51.2422" rx="2.5" ry="2.5" style="stroke:#181818;stroke-width:0.5;" width="127" x="464" y="75.6211"/><text fill="#000000" font-family="sans-serif" font-size="14" font-style="italic" lengthAdjust="spacing" textLength="30" x="512.5" y="97.7285">&#171;UI&#187;</text><text fill="#000000" font-family="sans-serif" font-size="14" lengthAdjust="spacing" textLength="113" x="471" y="116.3496">AddJobOpeningUI</text><rect fill="#E2E2F0" height="51.2422" rx="2.5" ry="2.5" style="stroke:#181818;stroke-width:0.5;" width="127" x="464" y="1147.4961"/><text fill="#000000" font-family="sans-serif" font-size="14" font-style="italic" lengthAdjust="spacing" textLength="30" x="512.5" y="1169.6035">&#171;UI&#187;</text><text fill="#000000" font-family="sans-serif" font-size="14" lengthAdjust="spacing" textLength="113" x="471" y="1188.2246">AddJobOpeningUI</text><rect fill="#E2E2F0" height="51.2422" rx="2.5" ry="2.5" style="stroke:#181818;stroke-width:0.5;" width="177" x="1094" y="75.6211"/><text fill="#000000" font-family="sans-serif" font-size="14" font-style="italic" lengthAdjust="spacing" textLength="85" x="1140" y="97.7285">&#171;Application&#187;</text><text fill="#000000" font-family="sans-serif" font-size="14" lengthAdjust="spacing" textLength="163" x="1101" y="116.3496">AddJobOpeningController</text><rect fill="#E2E2F0" height="51.2422" rx="2.5" ry="2.5" style="stroke:#181818;stroke-width:0.5;" width="177" x="1094" y="1147.4961"/><text fill="#000000" font-family="sans-serif" font-size="14" font-style="italic" lengthAdjust="spacing" textLength="85" x="1140" y="1169.6035">&#171;Application&#187;</text><text fill="#000000" font-family="sans-serif" font-size="14" lengthAdjust="spacing" textLength="163" x="1101" y="1188.2246">AddJobOpeningController</text><rect fill="#E2E2F0" height="51.2422" rx="2.5" ry="2.5" style="stroke:#181818;stroke-width:0.5;" width="134" x="1406.5" y="1147.4961"/><text fill="#000000" font-family="sans-serif" font-size="14" font-style="italic" lengthAdjust="spacing" textLength="64" x="1441.5" y="1169.6035">&#171;Domain&#187;</text><text fill="#000000" font-family="sans-serif" font-size="14" lengthAdjust="spacing" textLength="120" x="1413.5" y="1188.2246">JobOpeningBuilder</text><rect fill="#E2E2F0" height="51.2422" rx="2.5" ry="2.5" style="stroke:#181818;stroke-width:0.5;" width="90" x="1556.5" y="1147.4961"/><text fill="#000000" font-family="sans-serif" font-size="14" font-style="italic" lengthAdjust="spacing" textLength="64" x="1569.5" y="1169.6035">&#171;Domain&#187;</text><text fill="#000000" font-family="sans-serif" font-size="14" lengthAdjust="spacing" textLength="76" x="1563.5" y="1188.2246">JobOpening</text><text fill="#000000" font-family="sans-serif" font-size="14" font-style="italic" lengthAdjust="spacing" textLength="90" x="1683.5" y="105.7285">&#171;Persistence&#187;</text><text fill="#000000" font-family="sans-serif" font-size="14" lengthAdjust="spacing" textLength="144" x="1656.5" y="124.3496">JobOpeningRepository</text><path d="M1713.5,54.6211 C1713.5,44.6211 1731.5,44.6211 1731.5,44.6211 C1731.5,44.6211 1749.5,44.6211 1749.5,54.6211 L1749.5,80.6211 C1749.5,90.6211 1731.5,90.6211 1731.5,90.6211 C1731.5,90.6211 1713.5,90.6211 1713.5,80.6211 L1713.5,54.6211 " fill="#E2E2F0" style="stroke:#181818;stroke-width:1.5;"/><path d="M1713.5,54.6211 C1713.5,64.6211 1731.5,64.6211 1731.5,64.6211 C1731.5,64.6211 1749.5,64.6211 1749.5,54.6211 " fill="none" style="stroke:#181818;stroke-width:1.5;"/><text fill="#000000" font-family="sans-serif" font-size="14" font-style="italic" lengthAdjust="spacing" textLength="90" x="1683.5" y="1162.6035">&#171;Persistence&#187;</text><text fill="#000000" font-family="sans-serif" font-size="14" lengthAdjust="spacing" textLength="144" x="1656.5" y="1181.2246">JobOpeningRepository</text><path d="M1713.5,1194.7383 C1713.5,1184.7383 1731.5,1184.7383 1731.5,1184.7383 C1731.5,1184.7383 1749.5,1184.7383 1749.5,1194.7383 L1749.5,1220.7383 C1749.5,1230.7383 1731.5,1230.7383 1731.5,1230.7383 C1731.5,1230.7383 1713.5,1230.7383 1713.5,1220.7383 L1713.5,1194.7383 " fill="#E2E2F0" style="stroke:#181818;stroke-width:1.5;"/><path d="M1713.5,1194.7383 C1713.5,1204.7383 1731.5,1204.7383 1731.5,1204.7383 C1731.5,1204.7383 1749.5,1204.7383 1749.5,1194.7383 " fill="none" style="stroke:#181818;stroke-width:1.5;"/><rect fill="#FFFFFF" height="1001.6328" style="stroke:#181818;stroke-width:1.0;" width="10" x="63.5" y="137.8633"/><rect fill="#FFFFFF" height="1001.6328" style="stroke:#181818;stroke-width:1.0;" width="10" x="522.5" y="137.8633"/><rect fill="#FFFFFF" height="593.8496" style="stroke:#181818;stroke-width:1.0;" width="10" x="1177.5" y="505.3555"/><rect fill="#FFFFFF" height="343.8613" style="stroke:#181818;stroke-width:1.0;" width="10" x="1468.5" y="661.4707"/><rect fill="#FFFFFF" height="31.291" style="stroke:#181818;stroke-width:1.0;" width="10" x="1726.5" y="598.8887"/><rect fill="#FFFFFF" height="31.291" style="stroke:#181818;stroke-width:1.0;" width="10" x="1726.5" y="1036.623"/><polygon fill="#181818" points="510.5,157.1543,520.5,161.1543,510.5,165.1543,514.5,161.1543" style="stroke:#181818;stroke-width:1.0;"/><line style="stroke:#181818;stroke-width:1.0;" x1="73.5" x2="516.5" y1="161.1543" y2="161.1543"/><text fill="#000000" font-family="sans-serif" font-size="13" font-weight="bold" lengthAdjust="spacing" textLength="7" x="80.5" y="155.8916">1</text><text fill="#000000" font-family="sans-serif" font-size="13" lengthAdjust="spacing" textLength="193" x="91.5" y="155.8916">requests to register a job opening</text><polygon fill="#181818" points="84.5,188.4453,74.5,192.4453,84.5,196.4453,80.5,192.4453" style="stroke:#181818;stroke-width:1.0;"/><line style="stroke:#181818;stroke-width:1.0;stroke-dasharray:2.0,2.0;" x1="78.5" x2="521.5" y1="192.4453" y2="192.4453"/><text fill="#000000" font-family="sans-serif" font-size="13" font-weight="bold" lengthAdjust="spacing" textLength="7" x="90.5" y="187.1826">2</text><text fill="#000000" font-family="sans-serif" font-size="13" lengthAdjust="spacing" textLength="400" x="101.5" y="187.1826">prompts for job details (Description, Vacancies Number and Address)</text><polygon fill="#181818" points="510.5,219.7363,520.5,223.7363,510.5,227.7363,514.5,223.7363" style="stroke:#181818;stroke-width:1.0;"/><line style="stroke:#181818;stroke-width:1.0;" x1="73.5" x2="516.5" y1="223.7363" y2="223.7363"/><text fill="#000000" font-family="sans-serif" font-size="13" font-weight="bold" lengthAdjust="spacing" textLength="7" x="80.5" y="218.4736">3</text><text fill="#000000" font-family="sans-serif" font-size="13" lengthAdjust="spacing" textLength="171" x="91.5" y="218.4736">provides job details requested</text><polygon fill="#181818" points="84.5,251.0273,74.5,255.0273,84.5,259.0273,80.5,255.0273" style="stroke:#181818;stroke-width:1.0;"/><line style="stroke:#181818;stroke-width:1.0;stroke-dasharray:2.0,2.0;" x1="78.5" x2="521.5" y1="255.0273" y2="255.0273"/><text fill="#000000" font-family="sans-serif" font-size="13" font-weight="bold" lengthAdjust="spacing" textLength="7" x="90.5" y="249.7646">4</text><text fill="#000000" font-family="sans-serif" font-size="13" lengthAdjust="spacing" textLength="383" x="101.5" y="249.7646">shows available job openings modes ( Remote, Hybrid and Onsite)</text><polygon fill="#181818" points="510.5,282.3184,520.5,286.3184,510.5,290.3184,514.5,286.3184" style="stroke:#181818;stroke-width:1.0;"/><line style="stroke:#181818;stroke-width:1.0;" x1="73.5" x2="516.5" y1="286.3184" y2="286.3184"/><text fill="#000000" font-family="sans-serif" font-size="13" font-weight="bold" lengthAdjust="spacing" textLength="7" x="80.5" y="281.0557">5</text><text fill="#000000" font-family="sans-serif" font-size="13" lengthAdjust="spacing" textLength="148" x="91.5" y="281.0557">selects job opening mode</text><polygon fill="#181818" points="84.5,313.6094,74.5,317.6094,84.5,321.6094,80.5,317.6094" style="stroke:#181818;stroke-width:1.0;"/><line style="stroke:#181818;stroke-width:1.0;stroke-dasharray:2.0,2.0;" x1="78.5" x2="521.5" y1="317.6094" y2="317.6094"/><text fill="#000000" font-family="sans-serif" font-size="13" font-weight="bold" lengthAdjust="spacing" textLength="7" x="90.5" y="312.3467">6</text><text fill="#000000" font-family="sans-serif" font-size="13" lengthAdjust="spacing" textLength="353" x="101.5" y="312.3467">shows available job openings types (Full Time and Part Time)</text><polygon fill="#181818" points="510.5,344.9004,520.5,348.9004,510.5,352.9004,514.5,348.9004" style="stroke:#181818;stroke-width:1.0;"/><line style="stroke:#181818;stroke-width:1.0;" x1="73.5" x2="516.5" y1="348.9004" y2="348.9004"/><text fill="#000000" font-family="sans-serif" font-size="13" font-weight="bold" lengthAdjust="spacing" textLength="7" x="80.5" y="343.6377">7</text><text fill="#000000" font-family="sans-serif" font-size="13" lengthAdjust="spacing" textLength="141" x="91.5" y="343.6377">selects job opening type</text><polygon fill="#181818" points="84.5,376.1914,74.5,380.1914,84.5,384.1914,80.5,380.1914" style="stroke:#181818;stroke-width:1.0;"/><line style="stroke:#181818;stroke-width:1.0;stroke-dasharray:2.0,2.0;" x1="78.5" x2="521.5" y1="380.1914" y2="380.1914"/><text fill="#000000" font-family="sans-serif" font-size="13" font-weight="bold" lengthAdjust="spacing" textLength="7" x="90.5" y="374.9287">8</text><text fill="#000000" font-family="sans-serif" font-size="13" lengthAdjust="spacing" textLength="414" x="101.5" y="374.9287">prompts for job opening requirements (Title or function and Company ID)</text><polygon fill="#181818" points="510.5,407.4824,520.5,411.4824,510.5,415.4824,514.5,411.4824" style="stroke:#181818;stroke-width:1.0;"/><line style="stroke:#181818;stroke-width:1.0;" x1="73.5" x2="516.5" y1="411.4824" y2="411.4824"/><text fill="#000000" font-family="sans-serif" font-size="13" font-weight="bold" lengthAdjust="spacing" textLength="7" x="80.5" y="406.2197">9</text><text fill="#000000" font-family="sans-serif" font-size="13" lengthAdjust="spacing" textLength="196" x="91.5" y="406.2197">provides job opening requirements</text><polygon fill="#181818" points="84.5,438.7734,74.5,442.7734,84.5,446.7734,80.5,442.7734" style="stroke:#181818;stroke-width:1.0;"/><line style="stroke:#181818;stroke-width:1.0;stroke-dasharray:2.0,2.0;" x1="78.5" x2="521.5" y1="442.7734" y2="442.7734"/><text fill="#000000" font-family="sans-serif" font-size="13" font-weight="bold" lengthAdjust="spacing" textLength="14" x="90.5" y="437.5107">10</text><text fill="#000000" font-family="sans-serif" font-size="13" lengthAdjust="spacing" textLength="297" x="108.5" y="437.5107">shows and requests confirmation for job registration</text><polygon fill="#181818" points="510.5,470.0645,520.5,474.0645,510.5,478.0645,514.5,474.0645" style="stroke:#181818;stroke-width:1.0;"/><line style="stroke:#181818;stroke-width:1.0;" x1="73.5" x2="516.5" y1="474.0645" y2="474.0645"/><text fill="#000000" font-family="sans-serif" font-size="13" font-weight="bold" lengthAdjust="spacing" textLength="14" x="80.5" y="468.8018">11</text><text fill="#000000" font-family="sans-serif" font-size="13" lengthAdjust="spacing" textLength="138" x="98.5" y="468.8018">confirms job registration</text><polygon fill="#181818" points="1165.5,501.3555,1175.5,505.3555,1165.5,509.3555,1169.5,505.3555" style="stroke:#181818;stroke-width:1.0;"/><line style="stroke:#181818;stroke-width:1.0;" x1="532.5" x2="1171.5" y1="505.3555" y2="505.3555"/><text fill="#000000" font-family="sans-serif" font-size="13" font-weight="bold" lengthAdjust="spacing" textLength="14" x="539.5" y="500.0928">12</text><text fill="#000000" font-family="sans-serif" font-size="13" lengthAdjust="spacing" textLength="608" x="557.5" y="500.0928">addJobopening(description, address, mode, contractType, titleOrFunction, vacanciesNumber, companyId)</text><polygon fill="#181818" points="1394.5,532.6465,1404.5,536.6465,1394.5,540.6465,1398.5,536.6465" style="stroke:#181818;stroke-width:1.0;"/><line style="stroke:#181818;stroke-width:1.0;" x1="1187.5" x2="1400.5" y1="536.6465" y2="536.6465"/><text fill="#000000" font-family="sans-serif" font-size="13" font-weight="bold" lengthAdjust="spacing" textLength="14" x="1194.5" y="531.3838">13</text><text fill="#000000" font-family="sans-serif" font-size="13" lengthAdjust="spacing" textLength="36" x="1212.5" y="531.3838">create</text><rect fill="#E2E2F0" height="51.2422" rx="2.5" ry="2.5" style="stroke:#181818;stroke-width:0.5;" width="134" x="1406.5" y="513.3555"/><text fill="#000000" font-family="sans-serif" font-size="14" font-style="italic" lengthAdjust="spacing" textLength="64" x="1441.5" y="535.4629">&#171;Domain&#187;</text><text fill="#000000" font-family="sans-serif" font-size="14" lengthAdjust="spacing" textLength="120" x="1413.5" y="554.084">JobOpeningBuilder</text><polygon fill="#181818" points="1714.5,594.8887,1724.5,598.8887,1714.5,602.8887,1718.5,598.8887" style="stroke:#181818;stroke-width:1.0;"/><line style="stroke:#181818;stroke-width:1.0;" x1="1187.5" x2="1720.5" y1="598.8887" y2="598.8887"/><text fill="#000000" font-family="sans-serif" font-size="13" font-weight="bold" lengthAdjust="spacing" textLength="14" x="1194.5" y="593.626">14</text><text fill="#000000" font-family="sans-serif" font-size="13" lengthAdjust="spacing" textLength="63" x="1212.5" y="593.626">nextCode()</text><polygon fill="#181818" points="1198.5,626.1797,1188.5,630.1797,1198.5,634.1797,1194.5,630.1797" style="stroke:#181818;stroke-width:1.0;"/><line style="stroke:#181818;stroke-width:1.0;stroke-dasharray:2.0,2.0;" x1="1192.5" x2="1730.5" y1="630.1797" y2="630.1797"/><text fill="#000000" font-family="sans-serif" font-size="13" font-weight="bold" lengthAdjust="spacing" textLength="14" x="1204.5" y="624.917">15</text><text fill="#000000" font-family="sans-serif" font-size="13" lengthAdjust="spacing" textLength="101" x="1222.5" y="624.917">returns next code</text><polygon fill="#181818" points="1456.5,657.4707,1466.5,661.4707,1456.5,665.4707,1460.5,661.4707" style="stroke:#181818;stroke-width:1.0;"/><line style="stroke:#181818;stroke-width:1.0;" x1="1187.5" x2="1462.5" y1="661.4707" y2="661.4707"/><text fill="#000000" font-family="sans-serif" font-size="13" font-weight="bold" lengthAdjust="spacing" textLength="14" x="1194.5" y="656.208">16</text><text fill="#000000" font-family="sans-serif" font-size="13" lengthAdjust="spacing" textLength="89" x="1212.5" y="656.208">withCode(code)</text><polygon fill="#181818" points="1456.5,688.7617,1466.5,692.7617,1456.5,696.7617,1460.5,692.7617" style="stroke:#181818;stroke-width:1.0;"/><line style="stroke:#181818;stroke-width:1.0;" x1="1187.5" x2="1462.5" y1="692.7617" y2="692.7617"/><text fill="#000000" font-family="sans-serif" font-size="13" font-weight="bold" lengthAdjust="spacing" textLength="14" x="1194.5" y="687.499">17</text><text fill="#000000" font-family="sans-serif" font-size="13" lengthAdjust="spacing" textLength="159" x="1212.5" y="687.499">withDescription(description)</text><polygon fill="#181818" points="1456.5,720.0527,1466.5,724.0527,1456.5,728.0527,1460.5,724.0527" style="stroke:#181818;stroke-width:1.0;"/><line style="stroke:#181818;stroke-width:1.0;" x1="1187.5" x2="1462.5" y1="724.0527" y2="724.0527"/><text fill="#000000" font-family="sans-serif" font-size="13" font-weight="bold" lengthAdjust="spacing" textLength="14" x="1194.5" y="718.79">18</text><text fill="#000000" font-family="sans-serif" font-size="13" lengthAdjust="spacing" textLength="125" x="1212.5" y="718.79">withAddress(address)</text><polygon fill="#181818" points="1456.5,751.3438,1466.5,755.3438,1456.5,759.3438,1460.5,755.3438" style="stroke:#181818;stroke-width:1.0;"/><line style="stroke:#181818;stroke-width:1.0;" x1="1187.5" x2="1462.5" y1="755.3438" y2="755.3438"/><text fill="#000000" font-family="sans-serif" font-size="13" font-weight="bold" lengthAdjust="spacing" textLength="14" x="1194.5" y="750.0811">19</text><text fill="#000000" font-family="sans-serif" font-size="13" lengthAdjust="spacing" textLength="95" x="1212.5" y="750.0811">withMode(mode)</text><polygon fill="#181818" points="1456.5,782.6348,1466.5,786.6348,1456.5,790.6348,1460.5,786.6348" style="stroke:#181818;stroke-width:1.0;"/><line style="stroke:#181818;stroke-width:1.0;" x1="1187.5" x2="1462.5" y1="786.6348" y2="786.6348"/><text fill="#000000" font-family="sans-serif" font-size="13" font-weight="bold" lengthAdjust="spacing" textLength="14" x="1194.5" y="781.3721">20</text><text fill="#000000" font-family="sans-serif" font-size="13" lengthAdjust="spacing" textLength="183" x="1212.5" y="781.3721">withContractType(contractType)</text><polygon fill="#181818" points="1456.5,813.9258,1466.5,817.9258,1456.5,821.9258,1460.5,817.9258" style="stroke:#181818;stroke-width:1.0;"/><line style="stroke:#181818;stroke-width:1.0;" x1="1187.5" x2="1462.5" y1="817.9258" y2="817.9258"/><text fill="#000000" font-family="sans-serif" font-size="13" font-weight="bold" lengthAdjust="spacing" textLength="14" x="1194.5" y="812.6631">21</text><text fill="#000000" font-family="sans-serif" font-size="13" lengthAdjust="spacing" textLength="204" x="1212.5" y="812.6631">withTitleOrFunction(titleOrFunction)</text><polygon fill="#181818" points="1456.5,845.2168,1466.5,849.2168,1456.5,853.2168,1460.5,849.2168" style="stroke:#181818;stroke-width:1.0;"/><line style="stroke:#181818;stroke-width:1.0;" x1="1187.5" x2="1462.5" y1="849.2168" y2="849.2168"/><text fill="#000000" font-family="sans-serif" font-size="13" font-weight="bold" lengthAdjust="spacing" textLength="14" x="1194.5" y="843.9541">22</text><text fill="#000000" font-family="sans-serif" font-size="13" lengthAdjust="spacing" textLength="239" x="1212.5" y="843.9541">withVacanciesNumber(vacanciesNumber)</text><polygon fill="#181818" points="1456.5,876.5078,1466.5,880.5078,1456.5,884.5078,1460.5,880.5078" style="stroke:#181818;stroke-width:1.0;"/><line style="stroke:#181818;stroke-width:1.0;" x1="1187.5" x2="1462.5" y1="880.5078" y2="880.5078"/><text fill="#000000" font-family="sans-serif" font-size="13" font-weight="bold" lengthAdjust="spacing" textLength="14" x="1194.5" y="875.2451">23</text><text fill="#000000" font-family="sans-serif" font-size="13" lengthAdjust="spacing" textLength="159" x="1212.5" y="875.2451">withCompanyId(companyId)</text><polygon fill="#181818" points="1456.5,907.7988,1466.5,911.7988,1456.5,915.7988,1460.5,911.7988" style="stroke:#181818;stroke-width:1.0;"/><line style="stroke:#181818;stroke-width:1.0;" x1="1187.5" x2="1462.5" y1="911.7988" y2="911.7988"/><text fill="#000000" font-family="sans-serif" font-size="13" font-weight="bold" lengthAdjust="spacing" textLength="14" x="1194.5" y="906.5361">24</text><text fill="#000000" font-family="sans-serif" font-size="13" lengthAdjust="spacing" textLength="35" x="1212.5" y="906.5361">build()</text><polygon fill="#181818" points="1544.5,939.0898,1554.5,943.0898,1544.5,947.0898,1548.5,943.0898" style="stroke:#181818;stroke-width:1.0;"/><line style="stroke:#181818;stroke-width:1.0;" x1="1478.5" x2="1550.5" y1="943.0898" y2="943.0898"/><text fill="#000000" font-family="sans-serif" font-size="13" font-weight="bold" lengthAdjust="spacing" textLength="14" x="1485.5" y="937.8271">25</text><text fill="#000000" font-family="sans-serif" font-size="13" lengthAdjust="spacing" textLength="36" x="1503.5" y="937.8271">create</text><rect fill="#E2E2F0" height="51.2422" rx="2.5" ry="2.5" style="stroke:#181818;stroke-width:0.5;" width="90" x="1556.5" y="919.7988"/><text fill="#000000" font-family="sans-serif" font-size="14" font-style="italic" lengthAdjust="spacing" textLength="64" x="1569.5" y="941.9063">&#171;Domain&#187;</text><text fill="#000000" font-family="sans-serif" font-size="14" lengthAdjust="spacing" textLength="76" x="1563.5" y="960.5273">JobOpening</text><polygon fill="#181818" points="1198.5,1001.332,1188.5,1005.332,1198.5,1009.332,1194.5,1005.332" style="stroke:#181818;stroke-width:1.0;"/><line style="stroke:#181818;stroke-width:1.0;stroke-dasharray:2.0,2.0;" x1="1192.5" x2="1472.5" y1="1005.332" y2="1005.332"/><text fill="#000000" font-family="sans-serif" font-size="13" font-weight="bold" lengthAdjust="spacing" textLength="14" x="1204.5" y="1000.0693">26</text><text fill="#000000" font-family="sans-serif" font-size="13" lengthAdjust="spacing" textLength="110" x="1222.5" y="1000.0693">returns job opening</text><polygon fill="#181818" points="1714.5,1032.623,1724.5,1036.623,1714.5,1040.623,1718.5,1036.623" style="stroke:#181818;stroke-width:1.0;"/><line style="stroke:#181818;stroke-width:1.0;" x1="1187.5" x2="1720.5" y1="1036.623" y2="1036.623"/><text fill="#000000" font-family="sans-serif" font-size="13" font-weight="bold" lengthAdjust="spacing" textLength="14" x="1194.5" y="1031.3604">27</text><text fill="#000000" font-family="sans-serif" font-size="13" lengthAdjust="spacing" textLength="100" x="1212.5" y="1031.3604">save(job opening)</text><polygon fill="#181818" points="1198.5,1063.9141,1188.5,1067.9141,1198.5,1071.9141,1194.5,1067.9141" style="stroke:#181818;stroke-width:1.0;"/><line style="stroke:#181818;stroke-width:1.0;stroke-dasharray:2.0,2.0;" x1="1192.5" x2="1730.5" y1="1067.9141" y2="1067.9141"/><text fill="#000000" font-family="sans-serif" font-size="13" font-weight="bold" lengthAdjust="spacing" textLength="14" x="1204.5" y="1062.6514">28</text><text fill="#000000" font-family="sans-serif" font-size="13" lengthAdjust="spacing" textLength="93" x="1222.5" y="1062.6514">returns success</text><polygon fill="#181818" points="543.5,1095.2051,533.5,1099.2051,543.5,1103.2051,539.5,1099.2051" style="stroke:#181818;stroke-width:1.0;"/><line style="stroke:#181818;stroke-width:1.0;stroke-dasharray:2.0,2.0;" x1="537.5" x2="1181.5" y1="1099.2051" y2="1099.2051"/><text fill="#000000" font-family="sans-serif" font-size="13" font-weight="bold" lengthAdjust="spacing" textLength="14" x="549.5" y="1093.9424">29</text><text fill="#000000" font-family="sans-serif" font-size="13" lengthAdjust="spacing" textLength="93" x="567.5" y="1093.9424">returns success</text><polygon fill="#181818" points="84.5,1126.4961,74.5,1130.4961,84.5,1134.4961,80.5,1130.4961" style="stroke:#181818;stroke-width:1.0;"/><line style="stroke:#181818;stroke-width:1.0;stroke-dasharray:2.0,2.0;" x1="78.5" x2="521.5" y1="1130.4961" y2="1130.4961"/><text fill="#000000" font-family="sans-serif" font-size="13" font-weight="bold" lengthAdjust="spacing" textLength="14" x="90.5" y="1125.2334">30</text><text fill="#000000" font-family="sans-serif" font-size="13" lengthAdjust="spacing" textLength="183" x="108.5" y="1125.2334">confirms successful registration</text><!--SRC=[bLJHRk8m47pFLwpw5Ahm0mWX5L1r875KFUZxnbceJucTinrw_FsjJIWEaDxT4oIPsLdFpjf9LnAyqbvQHmQMEeTrJKggFGpX1_rgI0c2kSIzmIf9i75QDLLE9a7Xj867MMEThfYwGeLxCW-05bP9ZSP98MjK3fwAWkksPRSBy0Z-6O-tYyca7pdJoXbTbboR2T7JUFnKrwKKwAHMLnKkz6aZo-B4NKwPCzSLodvumArZN84ESxGKWLwfrbRokOy1xX-PyKB6UllOAQPvO-G17R4Bdt-tYoHPmN3Yppq2utsrpeBJ_B-r7k4dcwzFGad2m27ZLmolZQvgHk_ORuyfoA4iBQHpiiB8sjkGmHiAL4AIXUzXG82gy8OQidOGgtEvWomO5zTgMwAYespVzOS5F304Syv9rA65IliYAOUdqeuo-7RCZIo2x5gnIzHHjLIIS3Ok4IhykvuxrbxlkIbBsCYAWj8B3pCy_LNCqpjYDxwUaTuBQQWYnH_JJTWGXkmQ9RpLGNV6L5H7MCpxlRrNxzvnkTnd8eHMEscg4EtFnauPCU5bhDQ2xHsGLvb4IpC23BlLzfGMSNJmb98i32JpPRcES1jsB0Fdpxysp-tfCpYSWtRAcSS7BnR580h_HJf9ejtbffRJnqVktH33Rhw5bHg1ejzknisaWql5y2r9Jf3XrUaCkSOe6uZS4EUge6lcTHiZ-93kFSXuHYmrxKD7AnTxEEY1j_kNudaFxyDMleSgzD3Nv6KaQJoVFiAcExNqQefzjBVkRDEhMVUtroOWZRDmYytzdSmplHqENz4UiuwYuL_rJ3c-AUDIFBQxYU9LmmEb4Ur_SsKR8NY0jut7Qc4ll-J4Mt6-2A8zRXcxfkokyny0]--></g></svg>