<?xml version="1.0" encoding="us-ascii" standalone="no"?><svg xmlns="http://www.w3.org/2000/svg" xmlns:xlink="http://www.w3.org/1999/xlink" contentStyleType="text/css" height="989.8px" preserveAspectRatio="none" style="width:1737px;height:989px;background:#FFFFFF;" version="1.1" viewBox="0 0 1737 989" width="1737.4px" zoomAndPan="magnify"><defs/><g><text fill="#000000" font-family="sans-serif" font-size="9.8" font-weight="bold" lengthAdjust="spacing" textLength="209.3" x="763.525" y="21.0752">Register Job Opening - Sequence Diagram</text><rect fill="#FFFFFF" height="832.2467" style="stroke:#181818;stroke-width:0.6999999999999998;" width="7" x="44.45" y="93.2695"/><rect fill="#FFFFFF" height="832.2467" style="stroke:#181818;stroke-width:0.6999999999999998;" width="7" x="370.65" y="93.2695"/><rect fill="#FFFFFF" height="21" style="stroke:#181818;stroke-width:0.6999999999999998;" width="7" x="831.25" y="153.3807"/><rect fill="#FFFFFF" height="21" style="stroke:#181818;stroke-width:0.6999999999999998;" width="7" x="831.25" y="196.2844"/><rect fill="#FFFFFF" height="21" style="stroke:#181818;stroke-width:0.6999999999999998;" width="7" x="831.25" y="239.1881"/><rect fill="#FFFFFF" height="21" style="stroke:#181818;stroke-width:0.6999999999999998;" width="7" x="831.25" y="413.5141"/><rect fill="#FFFFFF" height="21" style="stroke:#181818;stroke-width:0.6999999999999998;" width="7" x="831.25" y="456.4178"/><rect fill="#FFFFFF" height="332.2799" style="stroke:#181818;stroke-width:0.6999999999999998;" width="7" x="831.25" y="565.0326"/><rect fill="#FFFFFF" height="288.4725" style="stroke:#181818;stroke-width:0.6999999999999998;" width="7" x="1254.75" y="586.9363"/><rect fill="#FFFFFF" height="21.9037" style="stroke:#181818;stroke-width:0.6999999999999998;" width="7" x="1373.75" y="608.84"/><rect fill="#FFFFFF" height="84.577" style="stroke:#181818;stroke-width:0.6999999999999998;" width="7" x="1477.35" y="703.4549"/><rect fill="#FFFFFF" height="21.9037" style="stroke:#181818;stroke-width:0.6999999999999998;" width="7" x="1674.75" y="652.6475"/><rect fill="#FFFFFF" height="21.9037" style="stroke:#181818;stroke-width:0.6999999999999998;" width="7" x="1674.75" y="831.6014"/><line style="stroke:#181818;stroke-width:0.3499999999999999;stroke-dasharray:5.0,5.0;" x1="47.6" x2="47.6" y1="86.2695" y2="931.8162"/><line style="stroke:#181818;stroke-width:0.3499999999999999;stroke-dasharray:5.0,5.0;" x1="373.8" x2="373.8" y1="86.2695" y2="931.8162"/><line style="stroke:#181818;stroke-width:0.3499999999999999;stroke-dasharray:5.0,5.0;" x1="834.4" x2="834.4" y1="86.2695" y2="931.8162"/><line style="stroke:#181818;stroke-width:0.3499999999999999;stroke-dasharray:5.0,5.0;" x1="1257.9" x2="1257.9" y1="86.2695" y2="931.8162"/><line style="stroke:#181818;stroke-width:0.3499999999999999;stroke-dasharray:5.0,5.0;" x1="1377.25" x2="1377.25" y1="86.2695" y2="931.8162"/><line style="stroke:#181818;stroke-width:0.3499999999999999;stroke-dasharray:5.0,5.0;" x1="1480.85" x2="1480.85" y1="708.9359" y2="931.8162"/><line style="stroke:#181818;stroke-width:0.3499999999999999;stroke-dasharray:5.0,5.0;" x1="1584.45" x2="1584.45" y1="800.5129" y2="931.8162"/><line style="stroke:#181818;stroke-width:0.3499999999999999;stroke-dasharray:5.0,5.0;" x1="1678.25" x2="1678.25" y1="86.2695" y2="931.8162"/><text fill="#000000" font-family="sans-serif" font-size="9.8" lengthAdjust="spacing" textLength="84.7" x="3.5" y="83.81">Customer Manager</text><ellipse cx="47.95" cy="37.1848" fill="#E2E2F0" rx="5.6" ry="5.6" style="stroke:#181818;stroke-width:0.3499999999999999;"/><path d="M47.95,42.7848 L47.95,61.6848 M38.85,48.3848 L57.05,48.3848 M47.95,61.6848 L38.85,72.1848 M47.95,61.6848 L57.05,72.1848 " fill="none" style="stroke:#181818;stroke-width:0.3499999999999999;"/><text fill="#000000" font-family="sans-serif" font-size="9.8" lengthAdjust="spacing" textLength="84.7" x="3.5" y="941.6914">Customer Manager</text><ellipse cx="47.95" cy="950.101" fill="#E2E2F0" rx="5.6" ry="5.6" style="stroke:#181818;stroke-width:0.3499999999999999;"/><path d="M47.95,955.701 L47.95,974.601 M38.85,961.301 L57.05,961.301 M47.95,974.601 L38.85,985.101 M47.95,974.601 L57.05,985.101 " fill="none" style="stroke:#181818;stroke-width:0.3499999999999999;"/><rect fill="#E2E2F0" height="35.8695" rx="1.75" ry="1.75" style="stroke:#181818;stroke-width:0.3499999999999999;" width="88.9" x="329.7" y="49.7"/><text fill="#000000" font-family="sans-serif" font-size="9.8" font-style="italic" lengthAdjust="spacing" textLength="21" x="363.65" y="65.1752">&#171;UI&#187;</text><text fill="#000000" font-family="sans-serif" font-size="9.8" lengthAdjust="spacing" textLength="79.1" x="334.6" y="78.21">AddJobOpeningUI</text><rect fill="#E2E2F0" height="35.8695" rx="1.75" ry="1.75" style="stroke:#181818;stroke-width:0.3499999999999999;" width="88.9" x="329.7" y="931.1162"/><text fill="#000000" font-family="sans-serif" font-size="9.8" font-style="italic" lengthAdjust="spacing" textLength="21" x="363.65" y="946.5914">&#171;UI&#187;</text><text fill="#000000" font-family="sans-serif" font-size="9.8" lengthAdjust="spacing" textLength="79.1" x="334.6" y="959.6262">AddJobOpeningUI</text><rect fill="#E2E2F0" height="35.8695" rx="1.75" ry="1.75" style="stroke:#181818;stroke-width:0.3499999999999999;" width="123.9" x="772.8" y="49.7"/><text fill="#000000" font-family="sans-serif" font-size="9.8" font-style="italic" lengthAdjust="spacing" textLength="59.5" x="805" y="65.1752">&#171;Application&#187;</text><text fill="#000000" font-family="sans-serif" font-size="9.8" lengthAdjust="spacing" textLength="114.1" x="777.7" y="78.21">AddJobOpeningController</text><rect fill="#E2E2F0" height="35.8695" rx="1.75" ry="1.75" style="stroke:#181818;stroke-width:0.3499999999999999;" width="123.9" x="772.8" y="931.1162"/><text fill="#000000" font-family="sans-serif" font-size="9.8" font-style="italic" lengthAdjust="spacing" textLength="59.5" x="805" y="946.5914">&#171;Application&#187;</text><text fill="#000000" font-family="sans-serif" font-size="9.8" lengthAdjust="spacing" textLength="114.1" x="777.7" y="959.6262">AddJobOpeningController</text><rect fill="#E2E2F0" height="35.8695" rx="1.75" ry="1.75" style="stroke:#181818;stroke-width:0.3499999999999999;" width="95.9" x="1210.3" y="49.7"/><text fill="#000000" font-family="sans-serif" font-size="9.8" font-style="italic" lengthAdjust="spacing" textLength="43.4" x="1236.55" y="65.1752">&#171;Service&#187;</text><text fill="#000000" font-family="sans-serif" font-size="9.8" lengthAdjust="spacing" textLength="86.1" x="1215.2" y="78.21">JobOpeningService</text><rect fill="#E2E2F0" height="35.8695" rx="1.75" ry="1.75" style="stroke:#181818;stroke-width:0.3499999999999999;" width="95.9" x="1210.3" y="931.1162"/><text fill="#000000" font-family="sans-serif" font-size="9.8" font-style="italic" lengthAdjust="spacing" textLength="43.4" x="1236.55" y="946.5914">&#171;Service&#187;</text><text fill="#000000" font-family="sans-serif" font-size="9.8" lengthAdjust="spacing" textLength="86.1" x="1215.2" y="959.6262">JobOpeningService</text><rect fill="#E2E2F0" height="35.8695" rx="1.75" ry="1.75" style="stroke:#181818;stroke-width:0.3499999999999999;" width="99.4" x="1327.55" y="49.7"/><text fill="#000000" font-family="sans-serif" font-size="9.8" font-style="italic" lengthAdjust="spacing" textLength="63" x="1345.75" y="65.1752">&#171;Persistence&#187;</text><text fill="#000000" font-family="sans-serif" font-size="9.8" lengthAdjust="spacing" textLength="89.6" x="1332.45" y="78.21">CompanyRepository</text><rect fill="#E2E2F0" height="35.8695" rx="1.75" ry="1.75" style="stroke:#181818;stroke-width:0.3499999999999999;" width="99.4" x="1327.55" y="931.1162"/><text fill="#000000" font-family="sans-serif" font-size="9.8" font-style="italic" lengthAdjust="spacing" textLength="63" x="1345.75" y="946.5914">&#171;Persistence&#187;</text><text fill="#000000" font-family="sans-serif" font-size="9.8" lengthAdjust="spacing" textLength="89.6" x="1332.45" y="959.6262">CompanyRepository</text><rect fill="#E2E2F0" height="35.8695" rx="1.75" ry="1.75" style="stroke:#181818;stroke-width:0.3499999999999999;" width="93.8" x="1433.95" y="931.1162"/><text fill="#000000" font-family="sans-serif" font-size="9.8" font-style="italic" lengthAdjust="spacing" textLength="44.8" x="1458.45" y="946.5914">&#171;Domain&#187;</text><text fill="#000000" font-family="sans-serif" font-size="9.8" lengthAdjust="spacing" textLength="84" x="1438.85" y="959.6262">JobOpeningBuilder</text><rect fill="#E2E2F0" height="35.8695" rx="1.75" ry="1.75" style="stroke:#181818;stroke-width:0.3499999999999999;" width="63" x="1552.95" y="931.1162"/><text fill="#000000" font-family="sans-serif" font-size="9.8" font-style="italic" lengthAdjust="spacing" textLength="44.8" x="1562.05" y="946.5914">&#171;Domain&#187;</text><text fill="#000000" font-family="sans-serif" font-size="9.8" lengthAdjust="spacing" textLength="53.2" x="1557.85" y="959.6262">JobOpening</text><rect fill="#E2E2F0" height="35.8695" rx="1.75" ry="1.75" style="stroke:#181818;stroke-width:0.3499999999999999;" width="110.6" x="1622.95" y="49.7"/><text fill="#000000" font-family="sans-serif" font-size="9.8" font-style="italic" lengthAdjust="spacing" textLength="63" x="1646.75" y="65.1752">&#171;Persistence&#187;</text><text fill="#000000" font-family="sans-serif" font-size="9.8" lengthAdjust="spacing" textLength="100.8" x="1627.85" y="78.21">JobOpeningRepository</text><rect fill="#E2E2F0" height="35.8695" rx="1.75" ry="1.75" style="stroke:#181818;stroke-width:0.3499999999999999;" width="110.6" x="1622.95" y="931.1162"/><text fill="#000000" font-family="sans-serif" font-size="9.8" font-style="italic" lengthAdjust="spacing" textLength="63" x="1646.75" y="946.5914">&#171;Persistence&#187;</text><text fill="#000000" font-family="sans-serif" font-size="9.8" lengthAdjust="spacing" textLength="100.8" x="1627.85" y="959.6262">JobOpeningRepository</text><rect fill="#FFFFFF" height="832.2467" style="stroke:#181818;stroke-width:0.6999999999999998;" width="7" x="44.45" y="93.2695"/><rect fill="#FFFFFF" height="832.2467" style="stroke:#181818;stroke-width:0.6999999999999998;" width="7" x="370.65" y="93.2695"/><rect fill="#FFFFFF" height="21" style="stroke:#181818;stroke-width:0.6999999999999998;" width="7" x="831.25" y="153.3807"/><rect fill="#FFFFFF" height="21" style="stroke:#181818;stroke-width:0.6999999999999998;" width="7" x="831.25" y="196.2844"/><rect fill="#FFFFFF" height="21" style="stroke:#181818;stroke-width:0.6999999999999998;" width="7" x="831.25" y="239.1881"/><rect fill="#FFFFFF" height="21" style="stroke:#181818;stroke-width:0.6999999999999998;" width="7" x="831.25" y="413.5141"/><rect fill="#FFFFFF" height="21" style="stroke:#181818;stroke-width:0.6999999999999998;" width="7" x="831.25" y="456.4178"/><rect fill="#FFFFFF" height="332.2799" style="stroke:#181818;stroke-width:0.6999999999999998;" width="7" x="831.25" y="565.0326"/><rect fill="#FFFFFF" height="288.4725" style="stroke:#181818;stroke-width:0.6999999999999998;" width="7" x="1254.75" y="586.9363"/><rect fill="#FFFFFF" height="21.9037" style="stroke:#181818;stroke-width:0.6999999999999998;" width="7" x="1373.75" y="608.84"/><rect fill="#FFFFFF" height="84.577" style="stroke:#181818;stroke-width:0.6999999999999998;" width="7" x="1477.35" y="703.4549"/><rect fill="#FFFFFF" height="21.9037" style="stroke:#181818;stroke-width:0.6999999999999998;" width="7" x="1674.75" y="652.6475"/><rect fill="#FFFFFF" height="21.9037" style="stroke:#181818;stroke-width:0.6999999999999998;" width="7" x="1674.75" y="831.6014"/><polygon fill="#181818" points="362.25,106.7732,369.25,109.5732,362.25,112.3732,365.05,109.5732" style="stroke:#181818;stroke-width:0.6999999999999998;"/><line style="stroke:#181818;stroke-width:0.6999999999999998;" x1="51.45" x2="366.45" y1="109.5732" y2="109.5732"/><text fill="#000000" font-family="sans-serif" font-size="9.1" font-weight="bold" lengthAdjust="spacing" textLength="4.9" x="56.35" y="105.8894">1</text><text fill="#000000" font-family="sans-serif" font-size="9.1" lengthAdjust="spacing" textLength="135.1" x="64.05" y="105.8894">requests to register a job opening</text><polygon fill="#181818" points="59.15,128.677,52.15,131.477,59.15,134.277,56.35,131.477" style="stroke:#181818;stroke-width:0.6999999999999998;"/><line style="stroke:#181818;stroke-width:0.6999999999999998;stroke-dasharray:2.0,2.0;" x1="54.95" x2="369.95" y1="131.477" y2="131.477"/><text fill="#000000" font-family="sans-serif" font-size="9.1" font-weight="bold" lengthAdjust="spacing" textLength="4.9" x="63.35" y="127.7931">2</text><text fill="#000000" font-family="sans-serif" font-size="9.1" lengthAdjust="spacing" textLength="280" x="71.05" y="127.7931">prompts for job details (Description, Vacancies Number and Address)</text><polygon fill="#181818" points="822.85,150.5807,829.85,153.3807,822.85,156.1807,825.65,153.3807" style="stroke:#181818;stroke-width:0.6999999999999998;"/><line style="stroke:#181818;stroke-width:0.6999999999999998;" x1="377.65" x2="827.05" y1="153.3807" y2="153.3807"/><text fill="#000000" font-family="sans-serif" font-size="9.1" font-weight="bold" lengthAdjust="spacing" textLength="4.9" x="382.55" y="149.6968">3</text><text fill="#000000" font-family="sans-serif" font-size="9.1" lengthAdjust="spacing" textLength="119.7" x="390.25" y="149.6968">checkDescription(description)</text><polygon fill="#181818" points="822.85,193.4844,829.85,196.2844,822.85,199.0844,825.65,196.2844" style="stroke:#181818;stroke-width:0.6999999999999998;"/><line style="stroke:#181818;stroke-width:0.6999999999999998;" x1="377.65" x2="827.05" y1="196.2844" y2="196.2844"/><text fill="#000000" font-family="sans-serif" font-size="9.1" font-weight="bold" lengthAdjust="spacing" textLength="4.9" x="382.55" y="192.6005">4</text><text fill="#000000" font-family="sans-serif" font-size="9.1" lengthAdjust="spacing" textLength="175.7" x="390.25" y="192.6005">checkVacanciesNumber(vacanciesNumber)</text><polygon fill="#181818" points="822.85,236.3881,829.85,239.1881,822.85,241.9881,825.65,239.1881" style="stroke:#181818;stroke-width:0.6999999999999998;"/><line style="stroke:#181818;stroke-width:0.6999999999999998;" x1="377.65" x2="827.05" y1="239.1881" y2="239.1881"/><text fill="#000000" font-family="sans-serif" font-size="9.1" font-weight="bold" lengthAdjust="spacing" textLength="4.9" x="382.55" y="235.5042">5</text><text fill="#000000" font-family="sans-serif" font-size="9.1" lengthAdjust="spacing" textLength="95.9" x="390.25" y="235.5042">checkAddress(address)</text><polygon fill="#181818" points="362.25,279.2918,369.25,282.0918,362.25,284.8918,365.05,282.0918" style="stroke:#181818;stroke-width:0.6999999999999998;"/><line style="stroke:#181818;stroke-width:0.6999999999999998;" x1="51.45" x2="366.45" y1="282.0918" y2="282.0918"/><text fill="#000000" font-family="sans-serif" font-size="9.1" font-weight="bold" lengthAdjust="spacing" textLength="4.9" x="56.35" y="278.4079">6</text><text fill="#000000" font-family="sans-serif" font-size="9.1" lengthAdjust="spacing" textLength="119.7" x="64.05" y="278.4079">provides job details requested</text><polygon fill="#181818" points="59.15,301.1955,52.15,303.9955,59.15,306.7955,56.35,303.9955" style="stroke:#181818;stroke-width:0.6999999999999998;"/><line style="stroke:#181818;stroke-width:0.6999999999999998;stroke-dasharray:2.0,2.0;" x1="54.95" x2="369.95" y1="303.9955" y2="303.9955"/><text fill="#000000" font-family="sans-serif" font-size="9.1" font-weight="bold" lengthAdjust="spacing" textLength="4.9" x="63.35" y="300.3116">7</text><text fill="#000000" font-family="sans-serif" font-size="9.1" lengthAdjust="spacing" textLength="268.1" x="71.05" y="300.3116">shows available job openings modes ( Remote, Hybrid and Onsite)</text><polygon fill="#181818" points="362.25,323.0992,369.25,325.8992,362.25,328.6992,365.05,325.8992" style="stroke:#181818;stroke-width:0.6999999999999998;"/><line style="stroke:#181818;stroke-width:0.6999999999999998;" x1="51.45" x2="366.45" y1="325.8992" y2="325.8992"/><text fill="#000000" font-family="sans-serif" font-size="9.1" font-weight="bold" lengthAdjust="spacing" textLength="4.9" x="56.35" y="322.2153">8</text><text fill="#000000" font-family="sans-serif" font-size="9.1" lengthAdjust="spacing" textLength="103.6" x="64.05" y="322.2153">selects job opening mode</text><polygon fill="#181818" points="59.15,345.0029,52.15,347.8029,59.15,350.6029,56.35,347.8029" style="stroke:#181818;stroke-width:0.6999999999999998;"/><line style="stroke:#181818;stroke-width:0.6999999999999998;stroke-dasharray:2.0,2.0;" x1="54.95" x2="369.95" y1="347.8029" y2="347.8029"/><text fill="#000000" font-family="sans-serif" font-size="9.1" font-weight="bold" lengthAdjust="spacing" textLength="4.9" x="63.35" y="344.119">9</text><text fill="#000000" font-family="sans-serif" font-size="9.1" lengthAdjust="spacing" textLength="247.1" x="71.05" y="344.119">shows available job openings types (Full Time and Part Time)</text><polygon fill="#181818" points="362.25,366.9066,369.25,369.7066,362.25,372.5066,365.05,369.7066" style="stroke:#181818;stroke-width:0.6999999999999998;"/><line style="stroke:#181818;stroke-width:0.6999999999999998;" x1="51.45" x2="366.45" y1="369.7066" y2="369.7066"/><text fill="#000000" font-family="sans-serif" font-size="9.1" font-weight="bold" lengthAdjust="spacing" textLength="9.8" x="56.35" y="366.0228">10</text><text fill="#000000" font-family="sans-serif" font-size="9.1" lengthAdjust="spacing" textLength="98.7" x="68.95" y="366.0228">selects job opening type</text><polygon fill="#181818" points="59.15,388.8104,52.15,391.6104,59.15,394.4104,56.35,391.6104" style="stroke:#181818;stroke-width:0.6999999999999998;"/><line style="stroke:#181818;stroke-width:0.6999999999999998;stroke-dasharray:2.0,2.0;" x1="54.95" x2="369.95" y1="391.6104" y2="391.6104"/><text fill="#000000" font-family="sans-serif" font-size="9.1" font-weight="bold" lengthAdjust="spacing" textLength="9.8" x="63.35" y="387.9265">11</text><text fill="#000000" font-family="sans-serif" font-size="9.1" lengthAdjust="spacing" textLength="289.8" x="75.95" y="387.9265">prompts for job opening requirements (Title or function and Company ID)</text><polygon fill="#181818" points="822.85,410.7141,829.85,413.5141,822.85,416.3141,825.65,413.5141" style="stroke:#181818;stroke-width:0.6999999999999998;"/><line style="stroke:#181818;stroke-width:0.6999999999999998;" x1="377.65" x2="827.05" y1="413.5141" y2="413.5141"/><text fill="#000000" font-family="sans-serif" font-size="9.1" font-weight="bold" lengthAdjust="spacing" textLength="9.8" x="382.55" y="409.8302">12</text><text fill="#000000" font-family="sans-serif" font-size="9.1" lengthAdjust="spacing" textLength="154" x="395.15" y="409.8302">checkTittleOrFunction(titleOrFunction)</text><polygon fill="#181818" points="822.85,453.6178,829.85,456.4178,822.85,459.2178,825.65,456.4178" style="stroke:#181818;stroke-width:0.6999999999999998;"/><line style="stroke:#181818;stroke-width:0.6999999999999998;" x1="377.65" x2="827.05" y1="456.4178" y2="456.4178"/><text fill="#000000" font-family="sans-serif" font-size="9.1" font-weight="bold" lengthAdjust="spacing" textLength="9.8" x="382.55" y="452.7339">13</text><text fill="#000000" font-family="sans-serif" font-size="9.1" lengthAdjust="spacing" textLength="119.7" x="395.15" y="452.7339">checkCompanyId(companyId)</text><polygon fill="#181818" points="362.25,496.5215,369.25,499.3215,362.25,502.1215,365.05,499.3215" style="stroke:#181818;stroke-width:0.6999999999999998;"/><line style="stroke:#181818;stroke-width:0.6999999999999998;" x1="51.45" x2="366.45" y1="499.3215" y2="499.3215"/><text fill="#000000" font-family="sans-serif" font-size="9.1" font-weight="bold" lengthAdjust="spacing" textLength="9.8" x="56.35" y="495.6376">14</text><text fill="#000000" font-family="sans-serif" font-size="9.1" lengthAdjust="spacing" textLength="137.2" x="68.95" y="495.6376">provides job opening requirements</text><polygon fill="#181818" points="59.15,518.4252,52.15,521.2252,59.15,524.0252,56.35,521.2252" style="stroke:#181818;stroke-width:0.6999999999999998;"/><line style="stroke:#181818;stroke-width:0.6999999999999998;stroke-dasharray:2.0,2.0;" x1="54.95" x2="369.95" y1="521.2252" y2="521.2252"/><text fill="#000000" font-family="sans-serif" font-size="9.1" font-weight="bold" lengthAdjust="spacing" textLength="9.8" x="63.35" y="517.5413">15</text><text fill="#000000" font-family="sans-serif" font-size="9.1" lengthAdjust="spacing" textLength="207.9" x="75.95" y="517.5413">shows and requests confirmation for job registration</text><polygon fill="#181818" points="362.25,540.3289,369.25,543.1289,362.25,545.9289,365.05,543.1289" style="stroke:#181818;stroke-width:0.6999999999999998;"/><line style="stroke:#181818;stroke-width:0.6999999999999998;" x1="51.45" x2="366.45" y1="543.1289" y2="543.1289"/><text fill="#000000" font-family="sans-serif" font-size="9.1" font-weight="bold" lengthAdjust="spacing" textLength="9.8" x="56.35" y="539.445">16</text><text fill="#000000" font-family="sans-serif" font-size="9.1" lengthAdjust="spacing" textLength="96.6" x="68.95" y="539.445">confirms job registration</text><polygon fill="#181818" points="822.85,562.2326,829.85,565.0326,822.85,567.8326,825.65,565.0326" style="stroke:#181818;stroke-width:0.6999999999999998;"/><line style="stroke:#181818;stroke-width:0.6999999999999998;" x1="377.65" x2="827.05" y1="565.0326" y2="565.0326"/><text fill="#000000" font-family="sans-serif" font-size="9.1" font-weight="bold" lengthAdjust="spacing" textLength="9.8" x="382.55" y="561.3487">17</text><text fill="#000000" font-family="sans-serif" font-size="9.1" lengthAdjust="spacing" textLength="427.7" x="395.15" y="561.3487">addJobOpening(description, address, mode, contractType, titleOrFunction, vacanciesNumber, companyId)</text><polygon fill="#181818" points="1246.35,584.1363,1253.35,586.9363,1246.35,589.7363,1249.15,586.9363" style="stroke:#181818;stroke-width:0.6999999999999998;"/><line style="stroke:#181818;stroke-width:0.6999999999999998;" x1="838.25" x2="1250.55" y1="586.9363" y2="586.9363"/><text fill="#000000" font-family="sans-serif" font-size="9.1" font-weight="bold" lengthAdjust="spacing" textLength="9.8" x="843.15" y="583.2524">18</text><text fill="#000000" font-family="sans-serif" font-size="9.1" lengthAdjust="spacing" textLength="390.6" x="855.75" y="583.2524">create(description, address, mode, contractType, titleOrFunction, vacanciesNumber, companyId)</text><polygon fill="#181818" points="1365.35,606.04,1372.35,608.84,1365.35,611.64,1368.15,608.84" style="stroke:#181818;stroke-width:0.6999999999999998;"/><line style="stroke:#181818;stroke-width:0.6999999999999998;" x1="1261.75" x2="1369.55" y1="608.84" y2="608.84"/><text fill="#000000" font-family="sans-serif" font-size="9.1" font-weight="bold" lengthAdjust="spacing" textLength="9.8" x="1266.65" y="605.1562">19</text><text fill="#000000" font-family="sans-serif" font-size="9.1" lengthAdjust="spacing" textLength="86.1" x="1279.25" y="605.1562">ofIdentity(companyId)</text><polygon fill="#181818" points="1269.45,627.9437,1262.45,630.7437,1269.45,633.5437,1266.65,630.7437" style="stroke:#181818;stroke-width:0.6999999999999998;"/><line style="stroke:#181818;stroke-width:0.6999999999999998;stroke-dasharray:2.0,2.0;" x1="1265.25" x2="1376.55" y1="630.7437" y2="630.7437"/><text fill="#000000" font-family="sans-serif" font-size="9.1" font-weight="bold" lengthAdjust="spacing" textLength="9.8" x="1273.65" y="627.0599">20</text><text fill="#000000" font-family="sans-serif" font-size="9.1" lengthAdjust="spacing" textLength="67.9" x="1286.25" y="627.0599">returns company</text><polygon fill="#181818" points="1666.35,649.8475,1673.35,652.6475,1666.35,655.4475,1669.15,652.6475" style="stroke:#181818;stroke-width:0.6999999999999998;"/><line style="stroke:#181818;stroke-width:0.6999999999999998;" x1="1261.75" x2="1670.55" y1="652.6475" y2="652.6475"/><text fill="#000000" font-family="sans-serif" font-size="9.1" font-weight="bold" lengthAdjust="spacing" textLength="9.8" x="1266.65" y="648.9636">21</text><text fill="#000000" font-family="sans-serif" font-size="9.1" lengthAdjust="spacing" textLength="146.3" x="1279.25" y="648.9636">getLastIdFromCompany(companyId)</text><polygon fill="#181818" points="1269.45,671.7512,1262.45,674.5512,1269.45,677.3512,1266.65,674.5512" style="stroke:#181818;stroke-width:0.6999999999999998;"/><line style="stroke:#181818;stroke-width:0.6999999999999998;stroke-dasharray:2.0,2.0;" x1="1265.25" x2="1677.55" y1="674.5512" y2="674.5512"/><text fill="#000000" font-family="sans-serif" font-size="9.1" font-weight="bold" lengthAdjust="spacing" textLength="9.8" x="1273.65" y="670.8673">22</text><text fill="#000000" font-family="sans-serif" font-size="9.1" lengthAdjust="spacing" textLength="52.5" x="1286.25" y="670.8673">returns lastId</text><polygon fill="#181818" points="1425.55,693.6549,1432.55,696.4549,1425.55,699.2549,1428.35,696.4549" style="stroke:#181818;stroke-width:0.6999999999999998;"/><line style="stroke:#181818;stroke-width:0.6999999999999998;" x1="1261.75" x2="1429.75" y1="696.4549" y2="696.4549"/><text fill="#000000" font-family="sans-serif" font-size="9.1" font-weight="bold" lengthAdjust="spacing" textLength="9.8" x="1266.65" y="692.771">23</text><text fill="#000000" font-family="sans-serif" font-size="9.1" lengthAdjust="spacing" textLength="25.2" x="1279.25" y="692.771">create</text><rect fill="#E2E2F0" height="35.8695" rx="1.75" ry="1.75" style="stroke:#181818;stroke-width:0.3499999999999999;" width="93.8" x="1433.95" y="680.1512"/><text fill="#000000" font-family="sans-serif" font-size="9.8" font-style="italic" lengthAdjust="spacing" textLength="44.8" x="1458.45" y="695.6264">&#171;Domain&#187;</text><text fill="#000000" font-family="sans-serif" font-size="9.8" lengthAdjust="spacing" textLength="84" x="1438.85" y="708.6611">JobOpeningBuilder</text><polygon fill="#181818" points="1468.95,737.2244,1475.95,740.0244,1468.95,742.8244,1471.75,740.0244" style="stroke:#181818;stroke-width:0.6999999999999998;"/><line style="stroke:#181818;stroke-width:0.6999999999999998;" x1="1261.75" x2="1473.15" y1="740.0244" y2="740.0244"/><text fill="#000000" font-family="sans-serif" font-size="9.1" font-weight="bold" lengthAdjust="spacing" textLength="9.8" x="1266.65" y="736.3405">24</text><text fill="#000000" font-family="sans-serif" font-size="9.1" lengthAdjust="spacing" textLength="24.5" x="1279.25" y="736.3405">build()</text><path d="M1264.9,749.1244 L1264.9,768.0244 L1470.7,768.0244 L1470.7,756.1244 L1463.7,749.1244 L1264.9,749.1244 " fill="#FEFFDD" style="stroke:#181818;stroke-width:0.3499999999999999;"/><path d="M1463.7,749.1244 L1463.7,756.1244 L1470.7,756.1244 L1463.7,749.1244 " fill="#FEFFDD" style="stroke:#181818;stroke-width:0.3499999999999999;"/><text fill="#000000" font-family="sans-serif" font-size="9.1" lengthAdjust="spacing" textLength="191.1" x="1269.1" y="762.4442">Passes the job opening attributes to the builder</text><polygon fill="#181818" points="1544.55,785.2318,1551.55,788.0318,1544.55,790.8318,1547.35,788.0318" style="stroke:#181818;stroke-width:0.6999999999999998;"/><line style="stroke:#181818;stroke-width:0.6999999999999998;" x1="1480.85" x2="1548.75" y1="788.0318" y2="788.0318"/><text fill="#000000" font-family="sans-serif" font-size="9.1" font-weight="bold" lengthAdjust="spacing" textLength="9.8" x="1485.75" y="784.3479">25</text><text fill="#000000" font-family="sans-serif" font-size="9.1" lengthAdjust="spacing" textLength="39.2" x="1498.35" y="784.3479">create(...)</text><rect fill="#E2E2F0" height="35.8695" rx="1.75" ry="1.75" style="stroke:#181818;stroke-width:0.3499999999999999;" width="63" x="1552.95" y="771.7281"/><text fill="#000000" font-family="sans-serif" font-size="9.8" font-style="italic" lengthAdjust="spacing" textLength="44.8" x="1562.05" y="787.2033">&#171;Domain&#187;</text><text fill="#000000" font-family="sans-serif" font-size="9.8" lengthAdjust="spacing" textLength="53.2" x="1557.85" y="800.2381">JobOpening</text><polygon fill="#181818" points="1666.35,828.8014,1673.35,831.6014,1666.35,834.4014,1669.15,831.6014" style="stroke:#181818;stroke-width:0.6999999999999998;"/><line style="stroke:#181818;stroke-width:0.6999999999999998;" x1="1261.75" x2="1670.55" y1="831.6014" y2="831.6014"/><text fill="#000000" font-family="sans-serif" font-size="9.1" font-weight="bold" lengthAdjust="spacing" textLength="9.8" x="1266.65" y="827.9175">26</text><text fill="#000000" font-family="sans-serif" font-size="9.1" lengthAdjust="spacing" textLength="69.3" x="1279.25" y="827.9175">save(jobOpening)</text><polygon fill="#181818" points="1269.45,850.7051,1262.45,853.5051,1269.45,856.3051,1266.65,853.5051" style="stroke:#181818;stroke-width:0.6999999999999998;"/><line style="stroke:#181818;stroke-width:0.6999999999999998;stroke-dasharray:2.0,2.0;" x1="1265.25" x2="1677.55" y1="853.5051" y2="853.5051"/><text fill="#000000" font-family="sans-serif" font-size="9.1" font-weight="bold" lengthAdjust="spacing" textLength="9.8" x="1273.65" y="849.8212">27</text><text fill="#000000" font-family="sans-serif" font-size="9.1" lengthAdjust="spacing" textLength="77" x="1286.25" y="849.8212">returns job opening</text><polygon fill="#181818" points="845.95,872.6088,838.95,875.4088,845.95,878.2088,843.15,875.4088" style="stroke:#181818;stroke-width:0.6999999999999998;"/><line style="stroke:#181818;stroke-width:0.6999999999999998;stroke-dasharray:2.0,2.0;" x1="841.75" x2="1257.55" y1="875.4088" y2="875.4088"/><text fill="#000000" font-family="sans-serif" font-size="9.1" font-weight="bold" lengthAdjust="spacing" textLength="9.8" x="850.15" y="871.7249">28</text><text fill="#000000" font-family="sans-serif" font-size="9.1" lengthAdjust="spacing" textLength="77" x="862.75" y="871.7249">returns job opening</text><polygon fill="#181818" points="385.35,894.5125,378.35,897.3125,385.35,900.1125,382.55,897.3125" style="stroke:#181818;stroke-width:0.6999999999999998;"/><line style="stroke:#181818;stroke-width:0.6999999999999998;stroke-dasharray:2.0,2.0;" x1="381.15" x2="834.05" y1="897.3125" y2="897.3125"/><text fill="#000000" font-family="sans-serif" font-size="9.1" font-weight="bold" lengthAdjust="spacing" textLength="9.8" x="389.55" y="893.6286">29</text><text fill="#000000" font-family="sans-serif" font-size="9.1" lengthAdjust="spacing" textLength="65.1" x="402.15" y="893.6286">returns success</text><polygon fill="#181818" points="59.15,916.4162,52.15,919.2162,59.15,922.0162,56.35,919.2162" style="stroke:#181818;stroke-width:0.6999999999999998;"/><line style="stroke:#181818;stroke-width:0.6999999999999998;stroke-dasharray:2.0,2.0;" x1="54.95" x2="369.95" y1="919.2162" y2="919.2162"/><text fill="#000000" font-family="sans-serif" font-size="9.1" font-weight="bold" lengthAdjust="spacing" textLength="9.8" x="63.35" y="915.5323">30</text><text fill="#000000" font-family="sans-serif" font-size="9.1" lengthAdjust="spacing" textLength="128.1" x="75.95" y="915.5323">confirms successful registration</text><!--SRC=[jLPHRzem47xthpZrPQ62_W24a0ge6j4OLQ5xDya1xX8xinqg_ltEJY099AFJEbw8uRlxplVTVM25JH1US2UCHGsXsi0oGoda3WQmmbyvoWXX9lXEyvGndbibytI3cl78AWrtqznObLBeWak-Gtq7tC22PLnR4OcCImkFSKnvoxIlSt08UXkDNkVZSJToggJLAaaeDmNKJgFHOvOb8k9MA7cHeGfVeJu8gfrYmnN5bESB_5Ibz7vymKmPGHSwUYvtf91drCRrHLw5LJIJN2HnKM8uePYPIhdehihZbhTnpOB2reAS1EB0BLA_pu-lSyOMC1Yx3Wz1EmMDDM0LFPSYStWZcLL1n1W11uHV43pJr0v2RqbPXudHSf4O26Pe8Yqor_0-_E0Hbv500z_zA02NiPDEep6z8j-uhjSGeZr6FsivWhXwxjNkKGMn6Di-xKn-hgaeAJWqpvz3KjunuEUx_aNIZeyhhQZv1q6DQNI-513ZXavchzuDy0D1-8RsjwQdWLIv904jTQeizk7hSQD5x4LQIfefxDLP3IOOMLDFuJDydCyUCyVtb2S9h4MAdkcPfjgVRfAvy0RPrHIUaAuNGcEAahuCrjwv2BBDPUG6oVEM-mppMSiabZ9I98KkzLCP65ZHEF_Ri9GaPI7pE8XEJpts2OFHremshQWNv-MFbDmAdNg_F7Uri0FjFwopbM3J0hg-AgyRTdsh-r0kITzFKz-bfJoHNPFSVRZeU1ykzjNXprrhRrjjFQaeidWgNIEX_dyPuOenHeok6SwPXw2syvYK4FOOj1VkO5Ipz_61hzUPiysrD2UEvYGK0GL9M93iq7xZnixZ9rgGShxQwS8okfKkyJaQR663RN9_V-ebtPDzkUZqP0ZlmkuxxRm3VsMU7RW5wHGuiJeHqvg6GLtGpeYrkB7m7N4tVrKwAsnP_hQEL-T9rVuXRDoVYe1293auQB7RMnenDtT0pceCUO7TDsmOkBLQR7AB_hVUVRif_fam92jmUOXWuWcMbRx1myD3hrdOXFbNO_8CFs3mTbvqTvUFpLhZZqRxm5quoit8rNMvLudhgdXVg_AQF8fe_Fxaviv8QpvOHcppf6c7lm40]--></g></svg>