<?xml version="1.0" encoding="us-ascii" standalone="no"?><svg xmlns="http://www.w3.org/2000/svg" xmlns:xlink="http://www.w3.org/1999/xlink" contentStyleType="text/css" height="930.3px" preserveAspectRatio="none" style="width:1737px;height:930px;background:#FFFFFF;" version="1.1" viewBox="0 0 1737 930" width="1737.4px" zoomAndPan="magnify"><defs/><g><text fill="#000000" font-family="sans-serif" font-size="9.8" font-weight="bold" lengthAdjust="spacing" textLength="209.3" x="763.525" y="21.0752">Register Job Opening - Sequence Diagram</text><rect fill="#FFFFFF" height="772.7467" style="stroke:#181818;stroke-width:0.6999999999999998;" width="7" x="44.45" y="93.2695"/><rect fill="#FFFFFF" height="772.7467" style="stroke:#181818;stroke-width:0.6999999999999998;" width="7" x="370.65" y="93.2695"/><rect fill="#FFFFFF" height="332.2799" style="stroke:#181818;stroke-width:0.6999999999999998;" width="7" x="831.25" y="505.5326"/><rect fill="#FFFFFF" height="288.4725" style="stroke:#181818;stroke-width:0.6999999999999998;" width="7" x="1254.75" y="527.4363"/><rect fill="#FFFFFF" height="21.9037" style="stroke:#181818;stroke-width:0.6999999999999998;" width="7" x="1373.75" y="549.34"/><rect fill="#FFFFFF" height="84.577" style="stroke:#181818;stroke-width:0.6999999999999998;" width="7" x="1477.35" y="643.9549"/><rect fill="#FFFFFF" height="21.9037" style="stroke:#181818;stroke-width:0.6999999999999998;" width="7" x="1674.75" y="593.1475"/><rect fill="#FFFFFF" height="21.9037" style="stroke:#181818;stroke-width:0.6999999999999998;" width="7" x="1674.75" y="772.1014"/><line style="stroke:#181818;stroke-width:0.3499999999999999;stroke-dasharray:5.0,5.0;" x1="47.6" x2="47.6" y1="86.2695" y2="872.3162"/><line style="stroke:#181818;stroke-width:0.3499999999999999;stroke-dasharray:5.0,5.0;" x1="373.8" x2="373.8" y1="86.2695" y2="872.3162"/><line style="stroke:#181818;stroke-width:0.3499999999999999;stroke-dasharray:5.0,5.0;" x1="834.4" x2="834.4" y1="86.2695" y2="872.3162"/><line style="stroke:#181818;stroke-width:0.3499999999999999;stroke-dasharray:5.0,5.0;" x1="1257.9" x2="1257.9" y1="86.2695" y2="872.3162"/><line style="stroke:#181818;stroke-width:0.3499999999999999;stroke-dasharray:5.0,5.0;" x1="1377.25" x2="1377.25" y1="86.2695" y2="872.3162"/><line style="stroke:#181818;stroke-width:0.3499999999999999;stroke-dasharray:5.0,5.0;" x1="1480.85" x2="1480.85" y1="649.4359" y2="872.3162"/><line style="stroke:#181818;stroke-width:0.3499999999999999;stroke-dasharray:5.0,5.0;" x1="1584.45" x2="1584.45" y1="741.0129" y2="872.3162"/><line style="stroke:#181818;stroke-width:0.3499999999999999;stroke-dasharray:5.0,5.0;" x1="1678.25" x2="1678.25" y1="86.2695" y2="872.3162"/><text fill="#000000" font-family="sans-serif" font-size="9.8" lengthAdjust="spacing" textLength="84.7" x="3.5" y="83.81">Customer Manager</text><ellipse cx="47.95" cy="37.1848" fill="#E2E2F0" rx="5.6" ry="5.6" style="stroke:#181818;stroke-width:0.3499999999999999;"/><path d="M47.95,42.7848 L47.95,61.6848 M38.85,48.3848 L57.05,48.3848 M47.95,61.6848 L38.85,72.1848 M47.95,61.6848 L57.05,72.1848 " fill="none" style="stroke:#181818;stroke-width:0.3499999999999999;"/><text fill="#000000" font-family="sans-serif" font-size="9.8" lengthAdjust="spacing" textLength="84.7" x="3.5" y="882.1914">Customer Manager</text><ellipse cx="47.95" cy="890.601" fill="#E2E2F0" rx="5.6" ry="5.6" style="stroke:#181818;stroke-width:0.3499999999999999;"/><path d="M47.95,896.201 L47.95,915.101 M38.85,901.801 L57.05,901.801 M47.95,915.101 L38.85,925.601 M47.95,915.101 L57.05,925.601 " fill="none" style="stroke:#181818;stroke-width:0.3499999999999999;"/><rect fill="#E2E2F0" height="35.8695" rx="1.75" ry="1.75" style="stroke:#181818;stroke-width:0.3499999999999999;" width="88.9" x="329.7" y="49.7"/><text fill="#000000" font-family="sans-serif" font-size="9.8" font-style="italic" lengthAdjust="spacing" textLength="21" x="363.65" y="65.1752">&#171;UI&#187;</text><text fill="#000000" font-family="sans-serif" font-size="9.8" lengthAdjust="spacing" textLength="79.1" x="334.6" y="78.21">AddJobOpeningUI</text><rect fill="#E2E2F0" height="35.8695" rx="1.75" ry="1.75" style="stroke:#181818;stroke-width:0.3499999999999999;" width="88.9" x="329.7" y="871.6162"/><text fill="#000000" font-family="sans-serif" font-size="9.8" font-style="italic" lengthAdjust="spacing" textLength="21" x="363.65" y="887.0914">&#171;UI&#187;</text><text fill="#000000" font-family="sans-serif" font-size="9.8" lengthAdjust="spacing" textLength="79.1" x="334.6" y="900.1262">AddJobOpeningUI</text><rect fill="#E2E2F0" height="35.8695" rx="1.75" ry="1.75" style="stroke:#181818;stroke-width:0.3499999999999999;" width="123.9" x="772.8" y="49.7"/><text fill="#000000" font-family="sans-serif" font-size="9.8" font-style="italic" lengthAdjust="spacing" textLength="59.5" x="805" y="65.1752">&#171;Application&#187;</text><text fill="#000000" font-family="sans-serif" font-size="9.8" lengthAdjust="spacing" textLength="114.1" x="777.7" y="78.21">AddJobOpeningController</text><rect fill="#E2E2F0" height="35.8695" rx="1.75" ry="1.75" style="stroke:#181818;stroke-width:0.3499999999999999;" width="123.9" x="772.8" y="871.6162"/><text fill="#000000" font-family="sans-serif" font-size="9.8" font-style="italic" lengthAdjust="spacing" textLength="59.5" x="805" y="887.0914">&#171;Application&#187;</text><text fill="#000000" font-family="sans-serif" font-size="9.8" lengthAdjust="spacing" textLength="114.1" x="777.7" y="900.1262">AddJobOpeningController</text><rect fill="#E2E2F0" height="35.8695" rx="1.75" ry="1.75" style="stroke:#181818;stroke-width:0.3499999999999999;" width="95.9" x="1210.3" y="49.7"/><text fill="#000000" font-family="sans-serif" font-size="9.8" font-style="italic" lengthAdjust="spacing" textLength="43.4" x="1236.55" y="65.1752">&#171;Service&#187;</text><text fill="#000000" font-family="sans-serif" font-size="9.8" lengthAdjust="spacing" textLength="86.1" x="1215.2" y="78.21">JobOpeningService</text><rect fill="#E2E2F0" height="35.8695" rx="1.75" ry="1.75" style="stroke:#181818;stroke-width:0.3499999999999999;" width="95.9" x="1210.3" y="871.6162"/><text fill="#000000" font-family="sans-serif" font-size="9.8" font-style="italic" lengthAdjust="spacing" textLength="43.4" x="1236.55" y="887.0914">&#171;Service&#187;</text><text fill="#000000" font-family="sans-serif" font-size="9.8" lengthAdjust="spacing" textLength="86.1" x="1215.2" y="900.1262">JobOpeningService</text><rect fill="#E2E2F0" height="35.8695" rx="1.75" ry="1.75" style="stroke:#181818;stroke-width:0.3499999999999999;" width="99.4" x="1327.55" y="49.7"/><text fill="#000000" font-family="sans-serif" font-size="9.8" font-style="italic" lengthAdjust="spacing" textLength="63" x="1345.75" y="65.1752">&#171;Persistence&#187;</text><text fill="#000000" font-family="sans-serif" font-size="9.8" lengthAdjust="spacing" textLength="89.6" x="1332.45" y="78.21">CompanyRepository</text><rect fill="#E2E2F0" height="35.8695" rx="1.75" ry="1.75" style="stroke:#181818;stroke-width:0.3499999999999999;" width="99.4" x="1327.55" y="871.6162"/><text fill="#000000" font-family="sans-serif" font-size="9.8" font-style="italic" lengthAdjust="spacing" textLength="63" x="1345.75" y="887.0914">&#171;Persistence&#187;</text><text fill="#000000" font-family="sans-serif" font-size="9.8" lengthAdjust="spacing" textLength="89.6" x="1332.45" y="900.1262">CompanyRepository</text><rect fill="#E2E2F0" height="35.8695" rx="1.75" ry="1.75" style="stroke:#181818;stroke-width:0.3499999999999999;" width="93.8" x="1433.95" y="871.6162"/><text fill="#000000" font-family="sans-serif" font-size="9.8" font-style="italic" lengthAdjust="spacing" textLength="44.8" x="1458.45" y="887.0914">&#171;Domain&#187;</text><text fill="#000000" font-family="sans-serif" font-size="9.8" lengthAdjust="spacing" textLength="84" x="1438.85" y="900.1262">JobOpeningBuilder</text><rect fill="#E2E2F0" height="35.8695" rx="1.75" ry="1.75" style="stroke:#181818;stroke-width:0.3499999999999999;" width="63" x="1552.95" y="871.6162"/><text fill="#000000" font-family="sans-serif" font-size="9.8" font-style="italic" lengthAdjust="spacing" textLength="44.8" x="1562.05" y="887.0914">&#171;Domain&#187;</text><text fill="#000000" font-family="sans-serif" font-size="9.8" lengthAdjust="spacing" textLength="53.2" x="1557.85" y="900.1262">JobOpening</text><rect fill="#E2E2F0" height="35.8695" rx="1.75" ry="1.75" style="stroke:#181818;stroke-width:0.3499999999999999;" width="110.6" x="1622.95" y="49.7"/><text fill="#000000" font-family="sans-serif" font-size="9.8" font-style="italic" lengthAdjust="spacing" textLength="63" x="1646.75" y="65.1752">&#171;Persistence&#187;</text><text fill="#000000" font-family="sans-serif" font-size="9.8" lengthAdjust="spacing" textLength="100.8" x="1627.85" y="78.21">JobOpeningRepository</text><rect fill="#E2E2F0" height="35.8695" rx="1.75" ry="1.75" style="stroke:#181818;stroke-width:0.3499999999999999;" width="110.6" x="1622.95" y="871.6162"/><text fill="#000000" font-family="sans-serif" font-size="9.8" font-style="italic" lengthAdjust="spacing" textLength="63" x="1646.75" y="887.0914">&#171;Persistence&#187;</text><text fill="#000000" font-family="sans-serif" font-size="9.8" lengthAdjust="spacing" textLength="100.8" x="1627.85" y="900.1262">JobOpeningRepository</text><rect fill="#FFFFFF" height="772.7467" style="stroke:#181818;stroke-width:0.6999999999999998;" width="7" x="44.45" y="93.2695"/><rect fill="#FFFFFF" height="772.7467" style="stroke:#181818;stroke-width:0.6999999999999998;" width="7" x="370.65" y="93.2695"/><rect fill="#FFFFFF" height="332.2799" style="stroke:#181818;stroke-width:0.6999999999999998;" width="7" x="831.25" y="505.5326"/><rect fill="#FFFFFF" height="288.4725" style="stroke:#181818;stroke-width:0.6999999999999998;" width="7" x="1254.75" y="527.4363"/><rect fill="#FFFFFF" height="21.9037" style="stroke:#181818;stroke-width:0.6999999999999998;" width="7" x="1373.75" y="549.34"/><rect fill="#FFFFFF" height="84.577" style="stroke:#181818;stroke-width:0.6999999999999998;" width="7" x="1477.35" y="643.9549"/><rect fill="#FFFFFF" height="21.9037" style="stroke:#181818;stroke-width:0.6999999999999998;" width="7" x="1674.75" y="593.1475"/><rect fill="#FFFFFF" height="21.9037" style="stroke:#181818;stroke-width:0.6999999999999998;" width="7" x="1674.75" y="772.1014"/><polygon fill="#181818" points="362.25,106.7732,369.25,109.5732,362.25,112.3732,365.05,109.5732" style="stroke:#181818;stroke-width:0.6999999999999998;"/><line style="stroke:#181818;stroke-width:0.6999999999999998;" x1="51.45" x2="366.45" y1="109.5732" y2="109.5732"/><text fill="#000000" font-family="sans-serif" font-size="9.1" font-weight="bold" lengthAdjust="spacing" textLength="4.9" x="56.35" y="105.8894">1</text><text fill="#000000" font-family="sans-serif" font-size="9.1" lengthAdjust="spacing" textLength="135.1" x="64.05" y="105.8894">requests to register a job opening</text><polygon fill="#181818" points="59.15,128.677,52.15,131.477,59.15,134.277,56.35,131.477" style="stroke:#181818;stroke-width:0.6999999999999998;"/><line style="stroke:#181818;stroke-width:0.6999999999999998;stroke-dasharray:2.0,2.0;" x1="54.95" x2="369.95" y1="131.477" y2="131.477"/><text fill="#000000" font-family="sans-serif" font-size="9.1" font-weight="bold" lengthAdjust="spacing" textLength="4.9" x="63.35" y="127.7931">2</text><text fill="#000000" font-family="sans-serif" font-size="9.1" lengthAdjust="spacing" textLength="280" x="71.05" y="127.7931">prompts for job details (Description, Vacancies Number and Address)</text><line style="stroke:#181818;stroke-width:0.6999999999999998;stroke-dasharray:2.0,2.0;" x1="377.65" x2="407.05" y1="153.3807" y2="153.3807"/><line style="stroke:#181818;stroke-width:0.6999999999999998;stroke-dasharray:2.0,2.0;" x1="407.05" x2="407.05" y1="153.3807" y2="162.4807"/><line style="stroke:#181818;stroke-width:0.6999999999999998;stroke-dasharray:2.0,2.0;" x1="378.35" x2="407.05" y1="162.4807" y2="162.4807"/><polygon fill="#181818" points="385.35,159.6807,378.35,162.4807,385.35,165.2807,382.55,162.4807" style="stroke:#181818;stroke-width:0.6999999999999998;"/><text fill="#000000" font-family="sans-serif" font-size="9.1" font-weight="bold" lengthAdjust="spacing" textLength="4.9" x="382.55" y="149.6968">3</text><text fill="#000000" font-family="sans-serif" font-size="9.1" lengthAdjust="spacing" textLength="119.7" x="390.25" y="149.6968">checkDescription(description)</text><line style="stroke:#181818;stroke-width:0.6999999999999998;stroke-dasharray:2.0,2.0;" x1="377.65" x2="407.05" y1="184.3844" y2="184.3844"/><line style="stroke:#181818;stroke-width:0.6999999999999998;stroke-dasharray:2.0,2.0;" x1="407.05" x2="407.05" y1="184.3844" y2="193.4844"/><line style="stroke:#181818;stroke-width:0.6999999999999998;stroke-dasharray:2.0,2.0;" x1="378.35" x2="407.05" y1="193.4844" y2="193.4844"/><polygon fill="#181818" points="385.35,190.6844,378.35,193.4844,385.35,196.2844,382.55,193.4844" style="stroke:#181818;stroke-width:0.6999999999999998;"/><text fill="#000000" font-family="sans-serif" font-size="9.1" font-weight="bold" lengthAdjust="spacing" textLength="4.9" x="382.55" y="180.7005">4</text><text fill="#000000" font-family="sans-serif" font-size="9.1" lengthAdjust="spacing" textLength="175.7" x="390.25" y="180.7005">checkVacanciesNumber(vacanciesNumber)</text><line style="stroke:#181818;stroke-width:0.6999999999999998;stroke-dasharray:2.0,2.0;" x1="377.65" x2="407.05" y1="215.3881" y2="215.3881"/><line style="stroke:#181818;stroke-width:0.6999999999999998;stroke-dasharray:2.0,2.0;" x1="407.05" x2="407.05" y1="215.3881" y2="224.4881"/><line style="stroke:#181818;stroke-width:0.6999999999999998;stroke-dasharray:2.0,2.0;" x1="378.35" x2="407.05" y1="224.4881" y2="224.4881"/><polygon fill="#181818" points="385.35,221.6881,378.35,224.4881,385.35,227.2881,382.55,224.4881" style="stroke:#181818;stroke-width:0.6999999999999998;"/><text fill="#000000" font-family="sans-serif" font-size="9.1" font-weight="bold" lengthAdjust="spacing" textLength="4.9" x="382.55" y="211.7042">5</text><text fill="#000000" font-family="sans-serif" font-size="9.1" lengthAdjust="spacing" textLength="95.9" x="390.25" y="211.7042">checkAddress(address)</text><polygon fill="#181818" points="362.25,243.5918,369.25,246.3918,362.25,249.1918,365.05,246.3918" style="stroke:#181818;stroke-width:0.6999999999999998;"/><line style="stroke:#181818;stroke-width:0.6999999999999998;" x1="51.45" x2="366.45" y1="246.3918" y2="246.3918"/><text fill="#000000" font-family="sans-serif" font-size="9.1" font-weight="bold" lengthAdjust="spacing" textLength="4.9" x="56.35" y="242.7079">6</text><text fill="#000000" font-family="sans-serif" font-size="9.1" lengthAdjust="spacing" textLength="119.7" x="64.05" y="242.7079">provides job details requested</text><polygon fill="#181818" points="59.15,265.4955,52.15,268.2955,59.15,271.0955,56.35,268.2955" style="stroke:#181818;stroke-width:0.6999999999999998;"/><line style="stroke:#181818;stroke-width:0.6999999999999998;stroke-dasharray:2.0,2.0;" x1="54.95" x2="369.95" y1="268.2955" y2="268.2955"/><text fill="#000000" font-family="sans-serif" font-size="9.1" font-weight="bold" lengthAdjust="spacing" textLength="4.9" x="63.35" y="264.6116">7</text><text fill="#000000" font-family="sans-serif" font-size="9.1" lengthAdjust="spacing" textLength="268.1" x="71.05" y="264.6116">shows available job openings modes ( Remote, Hybrid and Onsite)</text><polygon fill="#181818" points="362.25,287.3992,369.25,290.1992,362.25,292.9992,365.05,290.1992" style="stroke:#181818;stroke-width:0.6999999999999998;"/><line style="stroke:#181818;stroke-width:0.6999999999999998;" x1="51.45" x2="366.45" y1="290.1992" y2="290.1992"/><text fill="#000000" font-family="sans-serif" font-size="9.1" font-weight="bold" lengthAdjust="spacing" textLength="4.9" x="56.35" y="286.5153">8</text><text fill="#000000" font-family="sans-serif" font-size="9.1" lengthAdjust="spacing" textLength="103.6" x="64.05" y="286.5153">selects job opening mode</text><polygon fill="#181818" points="59.15,309.3029,52.15,312.1029,59.15,314.9029,56.35,312.1029" style="stroke:#181818;stroke-width:0.6999999999999998;"/><line style="stroke:#181818;stroke-width:0.6999999999999998;stroke-dasharray:2.0,2.0;" x1="54.95" x2="369.95" y1="312.1029" y2="312.1029"/><text fill="#000000" font-family="sans-serif" font-size="9.1" font-weight="bold" lengthAdjust="spacing" textLength="4.9" x="63.35" y="308.419">9</text><text fill="#000000" font-family="sans-serif" font-size="9.1" lengthAdjust="spacing" textLength="247.1" x="71.05" y="308.419">shows available job openings types (Full Time and Part Time)</text><polygon fill="#181818" points="362.25,331.2066,369.25,334.0066,362.25,336.8066,365.05,334.0066" style="stroke:#181818;stroke-width:0.6999999999999998;"/><line style="stroke:#181818;stroke-width:0.6999999999999998;" x1="51.45" x2="366.45" y1="334.0066" y2="334.0066"/><text fill="#000000" font-family="sans-serif" font-size="9.1" font-weight="bold" lengthAdjust="spacing" textLength="9.8" x="56.35" y="330.3228">10</text><text fill="#000000" font-family="sans-serif" font-size="9.1" lengthAdjust="spacing" textLength="98.7" x="68.95" y="330.3228">selects job opening type</text><polygon fill="#181818" points="59.15,353.1104,52.15,355.9104,59.15,358.7104,56.35,355.9104" style="stroke:#181818;stroke-width:0.6999999999999998;"/><line style="stroke:#181818;stroke-width:0.6999999999999998;stroke-dasharray:2.0,2.0;" x1="54.95" x2="369.95" y1="355.9104" y2="355.9104"/><text fill="#000000" font-family="sans-serif" font-size="9.1" font-weight="bold" lengthAdjust="spacing" textLength="9.8" x="63.35" y="352.2265">11</text><text fill="#000000" font-family="sans-serif" font-size="9.1" lengthAdjust="spacing" textLength="289.8" x="75.95" y="352.2265">prompts for job opening requirements (Title or function and Company ID)</text><line style="stroke:#181818;stroke-width:0.6999999999999998;stroke-dasharray:2.0,2.0;" x1="377.65" x2="407.05" y1="377.8141" y2="377.8141"/><line style="stroke:#181818;stroke-width:0.6999999999999998;stroke-dasharray:2.0,2.0;" x1="407.05" x2="407.05" y1="377.8141" y2="386.9141"/><line style="stroke:#181818;stroke-width:0.6999999999999998;stroke-dasharray:2.0,2.0;" x1="378.35" x2="407.05" y1="386.9141" y2="386.9141"/><polygon fill="#181818" points="385.35,384.1141,378.35,386.9141,385.35,389.7141,382.55,386.9141" style="stroke:#181818;stroke-width:0.6999999999999998;"/><text fill="#000000" font-family="sans-serif" font-size="9.1" font-weight="bold" lengthAdjust="spacing" textLength="9.8" x="382.55" y="374.1302">12</text><text fill="#000000" font-family="sans-serif" font-size="9.1" lengthAdjust="spacing" textLength="154" x="395.15" y="374.1302">checkTittleOrFunction(titleOrFunction)</text><line style="stroke:#181818;stroke-width:0.6999999999999998;stroke-dasharray:2.0,2.0;" x1="377.65" x2="407.05" y1="408.8178" y2="408.8178"/><line style="stroke:#181818;stroke-width:0.6999999999999998;stroke-dasharray:2.0,2.0;" x1="407.05" x2="407.05" y1="408.8178" y2="417.9178"/><line style="stroke:#181818;stroke-width:0.6999999999999998;stroke-dasharray:2.0,2.0;" x1="378.35" x2="407.05" y1="417.9178" y2="417.9178"/><polygon fill="#181818" points="385.35,415.1178,378.35,417.9178,385.35,420.7178,382.55,417.9178" style="stroke:#181818;stroke-width:0.6999999999999998;"/><text fill="#000000" font-family="sans-serif" font-size="9.1" font-weight="bold" lengthAdjust="spacing" textLength="9.8" x="382.55" y="405.1339">13</text><text fill="#000000" font-family="sans-serif" font-size="9.1" lengthAdjust="spacing" textLength="119.7" x="395.15" y="405.1339">checkCompanyId(companyId)</text><polygon fill="#181818" points="362.25,437.0215,369.25,439.8215,362.25,442.6215,365.05,439.8215" style="stroke:#181818;stroke-width:0.6999999999999998;"/><line style="stroke:#181818;stroke-width:0.6999999999999998;" x1="51.45" x2="366.45" y1="439.8215" y2="439.8215"/><text fill="#000000" font-family="sans-serif" font-size="9.1" font-weight="bold" lengthAdjust="spacing" textLength="9.8" x="56.35" y="436.1376">14</text><text fill="#000000" font-family="sans-serif" font-size="9.1" lengthAdjust="spacing" textLength="137.2" x="68.95" y="436.1376">provides job opening requirements</text><polygon fill="#181818" points="59.15,458.9252,52.15,461.7252,59.15,464.5252,56.35,461.7252" style="stroke:#181818;stroke-width:0.6999999999999998;"/><line style="stroke:#181818;stroke-width:0.6999999999999998;stroke-dasharray:2.0,2.0;" x1="54.95" x2="369.95" y1="461.7252" y2="461.7252"/><text fill="#000000" font-family="sans-serif" font-size="9.1" font-weight="bold" lengthAdjust="spacing" textLength="9.8" x="63.35" y="458.0413">15</text><text fill="#000000" font-family="sans-serif" font-size="9.1" lengthAdjust="spacing" textLength="207.9" x="75.95" y="458.0413">shows and requests confirmation for job registration</text><polygon fill="#181818" points="362.25,480.8289,369.25,483.6289,362.25,486.4289,365.05,483.6289" style="stroke:#181818;stroke-width:0.6999999999999998;"/><line style="stroke:#181818;stroke-width:0.6999999999999998;" x1="51.45" x2="366.45" y1="483.6289" y2="483.6289"/><text fill="#000000" font-family="sans-serif" font-size="9.1" font-weight="bold" lengthAdjust="spacing" textLength="9.8" x="56.35" y="479.945">16</text><text fill="#000000" font-family="sans-serif" font-size="9.1" lengthAdjust="spacing" textLength="96.6" x="68.95" y="479.945">confirms job registration</text><polygon fill="#181818" points="822.85,502.7326,829.85,505.5326,822.85,508.3326,825.65,505.5326" style="stroke:#181818;stroke-width:0.6999999999999998;"/><line style="stroke:#181818;stroke-width:0.6999999999999998;" x1="377.65" x2="827.05" y1="505.5326" y2="505.5326"/><text fill="#000000" font-family="sans-serif" font-size="9.1" font-weight="bold" lengthAdjust="spacing" textLength="9.8" x="382.55" y="501.8487">17</text><text fill="#000000" font-family="sans-serif" font-size="9.1" lengthAdjust="spacing" textLength="427.7" x="395.15" y="501.8487">addJobOpening(description, address, mode, contractType, titleOrFunction, vacanciesNumber, companyId)</text><polygon fill="#181818" points="1246.35,524.6363,1253.35,527.4363,1246.35,530.2363,1249.15,527.4363" style="stroke:#181818;stroke-width:0.6999999999999998;"/><line style="stroke:#181818;stroke-width:0.6999999999999998;" x1="838.25" x2="1250.55" y1="527.4363" y2="527.4363"/><text fill="#000000" font-family="sans-serif" font-size="9.1" font-weight="bold" lengthAdjust="spacing" textLength="9.8" x="843.15" y="523.7524">18</text><text fill="#000000" font-family="sans-serif" font-size="9.1" lengthAdjust="spacing" textLength="390.6" x="855.75" y="523.7524">create(description, address, mode, contractType, titleOrFunction, vacanciesNumber, companyId)</text><polygon fill="#181818" points="1365.35,546.54,1372.35,549.34,1365.35,552.14,1368.15,549.34" style="stroke:#181818;stroke-width:0.6999999999999998;"/><line style="stroke:#181818;stroke-width:0.6999999999999998;" x1="1261.75" x2="1369.55" y1="549.34" y2="549.34"/><text fill="#000000" font-family="sans-serif" font-size="9.1" font-weight="bold" lengthAdjust="spacing" textLength="9.8" x="1266.65" y="545.6562">19</text><text fill="#000000" font-family="sans-serif" font-size="9.1" lengthAdjust="spacing" textLength="86.1" x="1279.25" y="545.6562">ofIdentity(companyId)</text><polygon fill="#181818" points="1269.45,568.4437,1262.45,571.2437,1269.45,574.0437,1266.65,571.2437" style="stroke:#181818;stroke-width:0.6999999999999998;"/><line style="stroke:#181818;stroke-width:0.6999999999999998;stroke-dasharray:2.0,2.0;" x1="1265.25" x2="1376.55" y1="571.2437" y2="571.2437"/><text fill="#000000" font-family="sans-serif" font-size="9.1" font-weight="bold" lengthAdjust="spacing" textLength="9.8" x="1273.65" y="567.5599">20</text><text fill="#000000" font-family="sans-serif" font-size="9.1" lengthAdjust="spacing" textLength="67.9" x="1286.25" y="567.5599">returns company</text><polygon fill="#181818" points="1666.35,590.3475,1673.35,593.1475,1666.35,595.9475,1669.15,593.1475" style="stroke:#181818;stroke-width:0.6999999999999998;"/><line style="stroke:#181818;stroke-width:0.6999999999999998;" x1="1261.75" x2="1670.55" y1="593.1475" y2="593.1475"/><text fill="#000000" font-family="sans-serif" font-size="9.1" font-weight="bold" lengthAdjust="spacing" textLength="9.8" x="1266.65" y="589.4636">21</text><text fill="#000000" font-family="sans-serif" font-size="9.1" lengthAdjust="spacing" textLength="146.3" x="1279.25" y="589.4636">getLastIdFromCompany(companyId)</text><polygon fill="#181818" points="1269.45,612.2512,1262.45,615.0512,1269.45,617.8512,1266.65,615.0512" style="stroke:#181818;stroke-width:0.6999999999999998;"/><line style="stroke:#181818;stroke-width:0.6999999999999998;stroke-dasharray:2.0,2.0;" x1="1265.25" x2="1677.55" y1="615.0512" y2="615.0512"/><text fill="#000000" font-family="sans-serif" font-size="9.1" font-weight="bold" lengthAdjust="spacing" textLength="9.8" x="1273.65" y="611.3673">22</text><text fill="#000000" font-family="sans-serif" font-size="9.1" lengthAdjust="spacing" textLength="52.5" x="1286.25" y="611.3673">returns lastId</text><polygon fill="#181818" points="1425.55,634.1549,1432.55,636.9549,1425.55,639.7549,1428.35,636.9549" style="stroke:#181818;stroke-width:0.6999999999999998;"/><line style="stroke:#181818;stroke-width:0.6999999999999998;" x1="1261.75" x2="1429.75" y1="636.9549" y2="636.9549"/><text fill="#000000" font-family="sans-serif" font-size="9.1" font-weight="bold" lengthAdjust="spacing" textLength="9.8" x="1266.65" y="633.271">23</text><text fill="#000000" font-family="sans-serif" font-size="9.1" lengthAdjust="spacing" textLength="25.2" x="1279.25" y="633.271">create</text><rect fill="#E2E2F0" height="35.8695" rx="1.75" ry="1.75" style="stroke:#181818;stroke-width:0.3499999999999999;" width="93.8" x="1433.95" y="620.6512"/><text fill="#000000" font-family="sans-serif" font-size="9.8" font-style="italic" lengthAdjust="spacing" textLength="44.8" x="1458.45" y="636.1264">&#171;Domain&#187;</text><text fill="#000000" font-family="sans-serif" font-size="9.8" lengthAdjust="spacing" textLength="84" x="1438.85" y="649.1611">JobOpeningBuilder</text><polygon fill="#181818" points="1468.95,677.7244,1475.95,680.5244,1468.95,683.3244,1471.75,680.5244" style="stroke:#181818;stroke-width:0.6999999999999998;"/><line style="stroke:#181818;stroke-width:0.6999999999999998;" x1="1261.75" x2="1473.15" y1="680.5244" y2="680.5244"/><text fill="#000000" font-family="sans-serif" font-size="9.1" font-weight="bold" lengthAdjust="spacing" textLength="9.8" x="1266.65" y="676.8405">24</text><text fill="#000000" font-family="sans-serif" font-size="9.1" lengthAdjust="spacing" textLength="24.5" x="1279.25" y="676.8405">build()</text><path d="M1264.9,689.6244 L1264.9,708.5244 L1470.7,708.5244 L1470.7,696.6244 L1463.7,689.6244 L1264.9,689.6244 " fill="#FEFFDD" style="stroke:#181818;stroke-width:0.3499999999999999;"/><path d="M1463.7,689.6244 L1463.7,696.6244 L1470.7,696.6244 L1463.7,689.6244 " fill="#FEFFDD" style="stroke:#181818;stroke-width:0.3499999999999999;"/><text fill="#000000" font-family="sans-serif" font-size="9.1" lengthAdjust="spacing" textLength="191.1" x="1269.1" y="702.9442">Passes the job opening attributes to the builder</text><polygon fill="#181818" points="1544.55,725.7318,1551.55,728.5318,1544.55,731.3318,1547.35,728.5318" style="stroke:#181818;stroke-width:0.6999999999999998;"/><line style="stroke:#181818;stroke-width:0.6999999999999998;" x1="1480.85" x2="1548.75" y1="728.5318" y2="728.5318"/><text fill="#000000" font-family="sans-serif" font-size="9.1" font-weight="bold" lengthAdjust="spacing" textLength="9.8" x="1485.75" y="724.8479">25</text><text fill="#000000" font-family="sans-serif" font-size="9.1" lengthAdjust="spacing" textLength="39.2" x="1498.35" y="724.8479">create(...)</text><rect fill="#E2E2F0" height="35.8695" rx="1.75" ry="1.75" style="stroke:#181818;stroke-width:0.3499999999999999;" width="63" x="1552.95" y="712.2281"/><text fill="#000000" font-family="sans-serif" font-size="9.8" font-style="italic" lengthAdjust="spacing" textLength="44.8" x="1562.05" y="727.7033">&#171;Domain&#187;</text><text fill="#000000" font-family="sans-serif" font-size="9.8" lengthAdjust="spacing" textLength="53.2" x="1557.85" y="740.7381">JobOpening</text><polygon fill="#181818" points="1666.35,769.3014,1673.35,772.1014,1666.35,774.9014,1669.15,772.1014" style="stroke:#181818;stroke-width:0.6999999999999998;"/><line style="stroke:#181818;stroke-width:0.6999999999999998;" x1="1261.75" x2="1670.55" y1="772.1014" y2="772.1014"/><text fill="#000000" font-family="sans-serif" font-size="9.1" font-weight="bold" lengthAdjust="spacing" textLength="9.8" x="1266.65" y="768.4175">26</text><text fill="#000000" font-family="sans-serif" font-size="9.1" lengthAdjust="spacing" textLength="69.3" x="1279.25" y="768.4175">save(jobOpening)</text><polygon fill="#181818" points="1269.45,791.2051,1262.45,794.0051,1269.45,796.8051,1266.65,794.0051" style="stroke:#181818;stroke-width:0.6999999999999998;"/><line style="stroke:#181818;stroke-width:0.6999999999999998;stroke-dasharray:2.0,2.0;" x1="1265.25" x2="1677.55" y1="794.0051" y2="794.0051"/><text fill="#000000" font-family="sans-serif" font-size="9.1" font-weight="bold" lengthAdjust="spacing" textLength="9.8" x="1273.65" y="790.3212">27</text><text fill="#000000" font-family="sans-serif" font-size="9.1" lengthAdjust="spacing" textLength="77" x="1286.25" y="790.3212">returns job opening</text><polygon fill="#181818" points="845.95,813.1088,838.95,815.9088,845.95,818.7088,843.15,815.9088" style="stroke:#181818;stroke-width:0.6999999999999998;"/><line style="stroke:#181818;stroke-width:0.6999999999999998;stroke-dasharray:2.0,2.0;" x1="841.75" x2="1257.55" y1="815.9088" y2="815.9088"/><text fill="#000000" font-family="sans-serif" font-size="9.1" font-weight="bold" lengthAdjust="spacing" textLength="9.8" x="850.15" y="812.2249">28</text><text fill="#000000" font-family="sans-serif" font-size="9.1" lengthAdjust="spacing" textLength="77" x="862.75" y="812.2249">returns job opening</text><polygon fill="#181818" points="385.35,835.0125,378.35,837.8125,385.35,840.6125,382.55,837.8125" style="stroke:#181818;stroke-width:0.6999999999999998;"/><line style="stroke:#181818;stroke-width:0.6999999999999998;stroke-dasharray:2.0,2.0;" x1="381.15" x2="834.05" y1="837.8125" y2="837.8125"/><text fill="#000000" font-family="sans-serif" font-size="9.1" font-weight="bold" lengthAdjust="spacing" textLength="9.8" x="389.55" y="834.1286">29</text><text fill="#000000" font-family="sans-serif" font-size="9.1" lengthAdjust="spacing" textLength="65.1" x="402.15" y="834.1286">returns success</text><polygon fill="#181818" points="59.15,856.9162,52.15,859.7162,59.15,862.5162,56.35,859.7162" style="stroke:#181818;stroke-width:0.6999999999999998;"/><line style="stroke:#181818;stroke-width:0.6999999999999998;stroke-dasharray:2.0,2.0;" x1="54.95" x2="369.95" y1="859.7162" y2="859.7162"/><text fill="#000000" font-family="sans-serif" font-size="9.1" font-weight="bold" lengthAdjust="spacing" textLength="9.8" x="63.35" y="856.0323">30</text><text fill="#000000" font-family="sans-serif" font-size="9.1" lengthAdjust="spacing" textLength="128.1" x="75.95" y="856.0323">confirms successful registration</text><!--SRC=[jLNBRk8m5DtxAwwwcNG4_G24a0ge6g9Xg0gTlN4ku4vYPso7Yh-VQnFoW4HqCso8uPnxxiidJheKuGttqZeq4Eijh79KKkrX26lyMw0I27F9zuPdZF72QLLaMpIC2wSDFCmAwtH6r2LNV8_c0RY59SkvSLB8d2i7pqb2SSkmxmlm2FeQZzyNaqa_SgQLCpfDAJOH6gVn-3dFKocuarfTHQZfQpH7IRaJDruJfpnVuMSwe-_J6-RQIYhe5BJyaIYlQAplYxgXrJBJGgR9ESLuIfovphZipohWLlTnxOJYpeJy2EIHEwH-Lu_l2yQMC9pu3e_0-0bQPy5fUYw7pE63ngpFGemHS4Zu9S5pG-qWz8ucwp49EYvJ2z4ShJ0ozmqVm6ykk18IBVmAgm1S9Nvq1grzhE85VN50yQT1ZfBwkGjQXJv7ZexjSnUb58vubK1TFjLpb2JPAgRi2IQjqkr1VrhWHuBmBLs9HeiiPDe7YUYUPDhX07wSjaOceUwLeZ5XIzLYYiBPPeWGuUjwxfHxlPSYJM4ZCmnAhxGeuNHNpDDROZU3lI1zBwJ131Nz6Ms26H1aLoZXHnHqooi2Ytcp_MNtYKASbNaf6P6JhNC7fOotI29nUUeVMbUYNNsaFAjT5rhjfCc2FLGLdxVVX1-RQYNOTe2yogHXF2FWJNzgxl80olKRX4aFV5YA8zo6HZ60gwOCu6glFRvkHNMNQsd66lv7IP6ZKUe62VN_quZNZ35IzCtmHZG2lLiaD0dfJb5tuXv6EGVR6ePylHUvmYXxqM0imMl2MIG-Y-pH_UJMBP8NMjvoQRhbufBTAPU662srkAKs_VxzqakgatsxwlHq19_I7NfDh0T_Oqizk2NDAVB3waNC6ZECcWFjPMpadJlPmxlhlhqPTjteZexNvsdT_X5i_Jiq8eeYTmKZzmT7A-Rt3iZrh2KlS8UMHG9tpiXjuJ2yslo_s_EBc25PWOz30jCWiAhd6pqzFJss4vkoy6bjdkL7Z3wgY-vh-TgkjTwhtGjtvIXtcUlRT6y2DwTIEkqbhYs4eFLhtRM6groCjE639MDNf6qx_0S0]--></g></svg>