<?xml version="1.0" encoding="us-ascii" standalone="no"?><svg xmlns="http://www.w3.org/2000/svg" xmlns:xlink="http://www.w3.org/1999/xlink" contentStyleType="text/css" height="601px" preserveAspectRatio="none" style="width:565px;height:601px;background:#FFFFFF;" version="1.1" viewBox="0 0 565 601" width="565px" zoomAndPan="magnify"><defs/><g><text fill="#000000" font-family="sans-serif" font-size="14" font-weight="bold" lengthAdjust="spacing" textLength="389" x="87.25" y="30.1074">System Sequence Diagram (SSD) - Register job opening</text><rect fill="#FFFFFF" height="376.4922" style="stroke:#181818;stroke-width:1.0;" width="10" x="63.5" y="133.2422"/><rect fill="#FFFFFF" height="31.291" style="stroke:#181818;stroke-width:1.0;" width="10" x="522.5" y="156.5332"/><rect fill="#FFFFFF" height="31.291" style="stroke:#181818;stroke-width:1.0;" width="10" x="522.5" y="219.1152"/><rect fill="#FFFFFF" height="31.291" style="stroke:#181818;stroke-width:1.0;" width="10" x="522.5" y="281.6973"/><rect fill="#FFFFFF" height="31.291" style="stroke:#181818;stroke-width:1.0;" width="10" x="522.5" y="344.2793"/><rect fill="#FFFFFF" height="31.291" style="stroke:#181818;stroke-width:1.0;" width="10" x="522.5" y="406.8613"/><rect fill="#FFFFFF" height="31.291" style="stroke:#181818;stroke-width:1.0;" width="10" x="522.5" y="469.4434"/><line style="stroke:#181818;stroke-width:0.5;stroke-dasharray:5.0,5.0;" x1="68" x2="68" y1="123.2422" y2="518.7344"/><line style="stroke:#181818;stroke-width:0.5;stroke-dasharray:5.0,5.0;" x1="527.5" x2="527.5" y1="123.2422" y2="518.7344"/><text fill="#000000" font-family="sans-serif" font-size="14" lengthAdjust="spacing" textLength="121" x="5" y="119.7285">Customer Manager</text><ellipse cx="68.5" cy="53.1211" fill="#E3E3E3" rx="8" ry="8" style="stroke:#181818;stroke-width:0.5;"/><path d="M68.5,61.1211 L68.5,88.1211 M55.5,69.1211 L81.5,69.1211 M68.5,88.1211 L55.5,103.1211 M68.5,88.1211 L81.5,103.1211 " fill="none" style="stroke:#181818;stroke-width:0.5;"/><text fill="#000000" font-family="sans-serif" font-size="14" lengthAdjust="spacing" textLength="121" x="5" y="532.8418">Customer Manager</text><ellipse cx="68.5" cy="544.8555" fill="#E3E3E3" rx="8" ry="8" style="stroke:#181818;stroke-width:0.5;"/><path d="M68.5,552.8555 L68.5,579.8555 M55.5,560.8555 L81.5,560.8555 M68.5,579.8555 L55.5,594.8555 M68.5,579.8555 L81.5,594.8555 " fill="none" style="stroke:#181818;stroke-width:0.5;"/><rect fill="#E3E3E3" height="32.6211" rx="2.5" ry="2.5" style="stroke:#181818;stroke-width:0.5;" width="64" x="495.5" y="89.6211"/><text fill="#000000" font-family="sans-serif" font-size="14" lengthAdjust="spacing" textLength="50" x="502.5" y="111.7285">:System</text><rect fill="#E3E3E3" height="32.6211" rx="2.5" ry="2.5" style="stroke:#181818;stroke-width:0.5;" width="64" x="495.5" y="517.7344"/><text fill="#000000" font-family="sans-serif" font-size="14" lengthAdjust="spacing" textLength="50" x="502.5" y="539.8418">:System</text><rect fill="#FFFFFF" height="376.4922" style="stroke:#181818;stroke-width:1.0;" width="10" x="63.5" y="133.2422"/><rect fill="#FFFFFF" height="31.291" style="stroke:#181818;stroke-width:1.0;" width="10" x="522.5" y="156.5332"/><rect fill="#FFFFFF" height="31.291" style="stroke:#181818;stroke-width:1.0;" width="10" x="522.5" y="219.1152"/><rect fill="#FFFFFF" height="31.291" style="stroke:#181818;stroke-width:1.0;" width="10" x="522.5" y="281.6973"/><rect fill="#FFFFFF" height="31.291" style="stroke:#181818;stroke-width:1.0;" width="10" x="522.5" y="344.2793"/><rect fill="#FFFFFF" height="31.291" style="stroke:#181818;stroke-width:1.0;" width="10" x="522.5" y="406.8613"/><rect fill="#FFFFFF" height="31.291" style="stroke:#181818;stroke-width:1.0;" width="10" x="522.5" y="469.4434"/><polygon fill="#181818" points="510.5,152.5332,520.5,156.5332,510.5,160.5332,514.5,156.5332" style="stroke:#181818;stroke-width:1.0;"/><line style="stroke:#181818;stroke-width:1.0;" x1="73.5" x2="516.5" y1="156.5332" y2="156.5332"/><text fill="#000000" font-family="sans-serif" font-size="13" font-weight="bold" lengthAdjust="spacing" textLength="7" x="80.5" y="151.2705">1</text><text fill="#000000" font-family="sans-serif" font-size="13" lengthAdjust="spacing" textLength="193" x="91.5" y="151.2705">requests to register a job opening</text><polygon fill="#181818" points="84.5,183.8242,74.5,187.8242,84.5,191.8242,80.5,187.8242" style="stroke:#181818;stroke-width:1.0;"/><line style="stroke:#181818;stroke-width:1.0;stroke-dasharray:2.0,2.0;" x1="78.5" x2="526.5" y1="187.8242" y2="187.8242"/><text fill="#000000" font-family="sans-serif" font-size="13" font-weight="bold" lengthAdjust="spacing" textLength="7" x="90.5" y="182.5615">2</text><text fill="#000000" font-family="sans-serif" font-size="13" lengthAdjust="spacing" textLength="400" x="101.5" y="182.5615">prompts for job details (Description, Vacancies Number and Address)</text><polygon fill="#181818" points="510.5,215.1152,520.5,219.1152,510.5,223.1152,514.5,219.1152" style="stroke:#181818;stroke-width:1.0;"/><line style="stroke:#181818;stroke-width:1.0;" x1="73.5" x2="516.5" y1="219.1152" y2="219.1152"/><text fill="#000000" font-family="sans-serif" font-size="13" font-weight="bold" lengthAdjust="spacing" textLength="7" x="80.5" y="213.8525">3</text><text fill="#000000" font-family="sans-serif" font-size="13" lengthAdjust="spacing" textLength="171" x="91.5" y="213.8525">provides job details requested</text><polygon fill="#181818" points="84.5,246.4063,74.5,250.4063,84.5,254.4063,80.5,250.4063" style="stroke:#181818;stroke-width:1.0;"/><line style="stroke:#181818;stroke-width:1.0;stroke-dasharray:2.0,2.0;" x1="78.5" x2="526.5" y1="250.4063" y2="250.4063"/><text fill="#000000" font-family="sans-serif" font-size="13" font-weight="bold" lengthAdjust="spacing" textLength="7" x="90.5" y="245.1436">4</text><text fill="#000000" font-family="sans-serif" font-size="13" lengthAdjust="spacing" textLength="383" x="101.5" y="245.1436">shows available job openings modes ( Remote, Hybrid and Onsite)</text><polygon fill="#181818" points="510.5,277.6973,520.5,281.6973,510.5,285.6973,514.5,281.6973" style="stroke:#181818;stroke-width:1.0;"/><line style="stroke:#181818;stroke-width:1.0;" x1="73.5" x2="516.5" y1="281.6973" y2="281.6973"/><text fill="#000000" font-family="sans-serif" font-size="13" font-weight="bold" lengthAdjust="spacing" textLength="7" x="80.5" y="276.4346">5</text><text fill="#000000" font-family="sans-serif" font-size="13" lengthAdjust="spacing" textLength="148" x="91.5" y="276.4346">selects job opening mode</text><polygon fill="#181818" points="84.5,308.9883,74.5,312.9883,84.5,316.9883,80.5,312.9883" style="stroke:#181818;stroke-width:1.0;"/><line style="stroke:#181818;stroke-width:1.0;stroke-dasharray:2.0,2.0;" x1="78.5" x2="526.5" y1="312.9883" y2="312.9883"/><text fill="#000000" font-family="sans-serif" font-size="13" font-weight="bold" lengthAdjust="spacing" textLength="7" x="90.5" y="307.7256">6</text><text fill="#000000" font-family="sans-serif" font-size="13" lengthAdjust="spacing" textLength="350" x="101.5" y="307.7256">shows available job opening types ( Full Time and Part Time)</text><polygon fill="#181818" points="510.5,340.2793,520.5,344.2793,510.5,348.2793,514.5,344.2793" style="stroke:#181818;stroke-width:1.0;"/><line style="stroke:#181818;stroke-width:1.0;" x1="73.5" x2="516.5" y1="344.2793" y2="344.2793"/><text fill="#000000" font-family="sans-serif" font-size="13" font-weight="bold" lengthAdjust="spacing" textLength="7" x="80.5" y="339.0166">7</text><text fill="#000000" font-family="sans-serif" font-size="13" lengthAdjust="spacing" textLength="141" x="91.5" y="339.0166">selects job opening type</text><polygon fill="#181818" points="84.5,371.5703,74.5,375.5703,84.5,379.5703,80.5,375.5703" style="stroke:#181818;stroke-width:1.0;"/><line style="stroke:#181818;stroke-width:1.0;stroke-dasharray:2.0,2.0;" x1="78.5" x2="526.5" y1="375.5703" y2="375.5703"/><text fill="#000000" font-family="sans-serif" font-size="13" font-weight="bold" lengthAdjust="spacing" textLength="7" x="90.5" y="370.3076">8</text><text fill="#000000" font-family="sans-serif" font-size="13" lengthAdjust="spacing" textLength="414" x="101.5" y="370.3076">prompts for job opening requirements (Title or function and Company ID)</text><polygon fill="#181818" points="510.5,402.8613,520.5,406.8613,510.5,410.8613,514.5,406.8613" style="stroke:#181818;stroke-width:1.0;"/><line style="stroke:#181818;stroke-width:1.0;" x1="73.5" x2="516.5" y1="406.8613" y2="406.8613"/><text fill="#000000" font-family="sans-serif" font-size="13" font-weight="bold" lengthAdjust="spacing" textLength="7" x="80.5" y="401.5986">9</text><text fill="#000000" font-family="sans-serif" font-size="13" lengthAdjust="spacing" textLength="196" x="91.5" y="401.5986">provides job opening requirements</text><polygon fill="#181818" points="84.5,434.1523,74.5,438.1523,84.5,442.1523,80.5,438.1523" style="stroke:#181818;stroke-width:1.0;"/><line style="stroke:#181818;stroke-width:1.0;stroke-dasharray:2.0,2.0;" x1="78.5" x2="526.5" y1="438.1523" y2="438.1523"/><text fill="#000000" font-family="sans-serif" font-size="13" font-weight="bold" lengthAdjust="spacing" textLength="14" x="90.5" y="432.8896">10</text><text fill="#000000" font-family="sans-serif" font-size="13" lengthAdjust="spacing" textLength="297" x="108.5" y="432.8896">shows and requests confirmation for job registration</text><polygon fill="#181818" points="510.5,465.4434,520.5,469.4434,510.5,473.4434,514.5,469.4434" style="stroke:#181818;stroke-width:1.0;"/><line style="stroke:#181818;stroke-width:1.0;" x1="73.5" x2="516.5" y1="469.4434" y2="469.4434"/><text fill="#000000" font-family="sans-serif" font-size="13" font-weight="bold" lengthAdjust="spacing" textLength="14" x="80.5" y="464.1807">11</text><text fill="#000000" font-family="sans-serif" font-size="13" lengthAdjust="spacing" textLength="138" x="98.5" y="464.1807">confirms job registration</text><polygon fill="#181818" points="84.5,496.7344,74.5,500.7344,84.5,504.7344,80.5,500.7344" style="stroke:#181818;stroke-width:1.0;"/><line style="stroke:#181818;stroke-width:1.0;stroke-dasharray:2.0,2.0;" x1="78.5" x2="526.5" y1="500.7344" y2="500.7344"/><text fill="#000000" font-family="sans-serif" font-size="13" font-weight="bold" lengthAdjust="spacing" textLength="14" x="90.5" y="495.4717">12</text><text fill="#000000" font-family="sans-serif" font-size="13" lengthAdjust="spacing" textLength="183" x="108.5" y="495.4717">confirms successful registration</text><!--SRC=[hPFBRjim44Nt-eg1LmuG_u0N0OeOHRle0rNG_PWSoMmaKk4C7UZlEw8US0ehQDDeHP73UyybX_peV8SHMsY33-OKGqiWCL71oqg7vX5hAgLl228PGLytbmLyGXkUdQ-XmeQfACI9bfOz2xLGqbCYRmWE3kkXV5kMXnlOmG-gdLP4-1ME43hogb0Kc2Jur1ufwjX8YB2vJopA5U4BUWM96q2UnuKYY3EkGo-msO-UkM0SPX5tHg5bHm7wJJ-mkvivzvfDILaO9EXuWiCNUCFMHN1s62OdaPtgpT9xwFGuEzMhmXZIag1h6BO7OXDT9oxuM_Y91hrnnF0rvmRq5ZvO6udvPbItTDNqMWZrF3khOfU6KpAonNg2rHHy2iyCU5ObFEgzNfm7QziCNbkzp3O8tSAd_XYTpH6-UNP2hoTOIy7KQAFnfLUsUcT-aBxB-1zJqy23q-OVoBzhJ-M_zuCVZ5RWNwV_iuTcmU5ANQIMl2vk7_ABqv8gUJEqLSvnhrlHz_3vyBOWBthfcl5_N8VYBU_D15-vs686duEEBp3coJVHJwgyelPlr8iO9sFqOLQf-Il2tm00]--></g></svg>