<?xml version="1.0" encoding="us-ascii" standalone="no"?><svg xmlns="http://www.w3.org/2000/svg" xmlns:xlink="http://www.w3.org/1999/xlink" contentStyleType="text/css" height="873.6px" preserveAspectRatio="none" style="width:1413px;height:873px;background:#FFFFFF;" version="1.1" viewBox="0 0 1413 873" width="1413.6px" zoomAndPan="magnify"><defs/><g><text fill="#000000" font-family="sans-serif" font-size="8.4" font-weight="bold" lengthAdjust="spacing" textLength="179.4" x="616.65" y="18.0645">Register Job Opening - Sequence Diagram</text><rect fill="#FFFFFF" height="738.8098" style="stroke:#181818;stroke-width:0.6;" width="6" x="38.1" y="79.9453"/><rect fill="#FFFFFF" height="738.8098" style="stroke:#181818;stroke-width:0.6;" width="6" x="317.7" y="79.9453"/><rect fill="#FFFFFF" height="18" style="stroke:#181818;stroke-width:0.6;" width="6" x="712.5" y="131.4691"/><rect fill="#FFFFFF" height="18" style="stroke:#181818;stroke-width:0.6;" width="6" x="712.5" y="168.2438"/><rect fill="#FFFFFF" height="18" style="stroke:#181818;stroke-width:0.6;" width="6" x="712.5" y="205.0184"/><rect fill="#FFFFFF" height="18" style="stroke:#181818;stroke-width:0.6;" width="6" x="712.5" y="354.4406"/><rect fill="#FFFFFF" height="18" style="stroke:#181818;stroke-width:0.6;" width="6" x="712.5" y="391.2152"/><rect fill="#FFFFFF" height="310.2668" style="stroke:#181818;stroke-width:0.6;" width="6" x="712.5" y="484.3137"/><rect fill="#FFFFFF" height="272.7176" style="stroke:#181818;stroke-width:0.6;" width="6" x="1075.5" y="503.0883"/><rect fill="#FFFFFF" height="18.7746" style="stroke:#181818;stroke-width:0.6;" width="6" x="1177.5" y="521.8629"/><rect fill="#FFFFFF" height="18.7746" style="stroke:#181818;stroke-width:0.6;" width="6" x="1266.3" y="700.7074"/><rect fill="#FFFFFF" height="18.7746" style="stroke:#181818;stroke-width:0.6;" width="6" x="1359.9" y="559.4121"/><rect fill="#FFFFFF" height="18.7746" style="stroke:#181818;stroke-width:0.6;" width="6" x="1359.9" y="738.2566"/><line style="stroke:#181818;stroke-width:0.3;stroke-dasharray:5.0,5.0;" x1="40.8" x2="40.8" y1="73.9453" y2="824.1551"/><line style="stroke:#181818;stroke-width:0.3;stroke-dasharray:5.0,5.0;" x1="320.4" x2="320.4" y1="73.9453" y2="824.1551"/><line style="stroke:#181818;stroke-width:0.3;stroke-dasharray:5.0,5.0;" x1="715.2" x2="715.2" y1="73.9453" y2="824.1551"/><line style="stroke:#181818;stroke-width:0.3;stroke-dasharray:5.0,5.0;" x1="1078.2" x2="1078.2" y1="73.9453" y2="824.1551"/><line style="stroke:#181818;stroke-width:0.3;stroke-dasharray:5.0,5.0;" x1="1180.5" x2="1180.5" y1="73.9453" y2="824.1551"/><line style="stroke:#181818;stroke-width:0.3;stroke-dasharray:5.0,5.0;" x1="1269.3" x2="1269.3" y1="73.9453" y2="824.1551"/><line style="stroke:#181818;stroke-width:0.3;stroke-dasharray:5.0,5.0;" x1="1362.9" x2="1362.9" y1="73.9453" y2="824.1551"/><text fill="#000000" font-family="sans-serif" font-size="8.4" lengthAdjust="spacing" textLength="72.6" x="3" y="71.8371">Customer Manager</text><ellipse cx="41.1" cy="31.8727" fill="#E2E2F0" rx="4.8" ry="4.8" style="stroke:#181818;stroke-width:0.3;"/><path d="M41.1,36.6727 L41.1,52.8727 M33.3,41.4727 L48.9,41.4727 M41.1,52.8727 L33.3,61.8727 M41.1,52.8727 L48.9,61.8727 " fill="none" style="stroke:#181818;stroke-width:0.3;"/><text fill="#000000" font-family="sans-serif" font-size="8.4" lengthAdjust="spacing" textLength="72.6" x="3" y="832.6195">Customer Manager</text><ellipse cx="41.1" cy="839.8277" fill="#E2E2F0" rx="4.8" ry="4.8" style="stroke:#181818;stroke-width:0.3;"/><path d="M41.1,844.6277 L41.1,860.8277 M33.3,849.4277 L48.9,849.4277 M41.1,860.8277 L33.3,869.8277 M41.1,860.8277 L48.9,869.8277 " fill="none" style="stroke:#181818;stroke-width:0.3;"/><rect fill="#E2E2F0" height="30.7453" rx="1.5" ry="1.5" style="stroke:#181818;stroke-width:0.3;" width="76.2" x="282.6" y="42.6"/><text fill="#000000" font-family="sans-serif" font-size="8.4" font-style="italic" lengthAdjust="spacing" textLength="18" x="311.7" y="55.8645">&#171;UI&#187;</text><text fill="#000000" font-family="sans-serif" font-size="8.4" lengthAdjust="spacing" textLength="67.8" x="286.8" y="67.0371">AddJobOpeningUI</text><rect fill="#E2E2F0" height="30.7453" rx="1.5" ry="1.5" style="stroke:#181818;stroke-width:0.3;" width="76.2" x="282.6" y="823.5551"/><text fill="#000000" font-family="sans-serif" font-size="8.4" font-style="italic" lengthAdjust="spacing" textLength="18" x="311.7" y="836.8195">&#171;UI&#187;</text><text fill="#000000" font-family="sans-serif" font-size="8.4" lengthAdjust="spacing" textLength="67.8" x="286.8" y="847.9922">AddJobOpeningUI</text><rect fill="#E2E2F0" height="30.7453" rx="1.5" ry="1.5" style="stroke:#181818;stroke-width:0.3;" width="106.2" x="662.4" y="42.6"/><text fill="#000000" font-family="sans-serif" font-size="8.4" font-style="italic" lengthAdjust="spacing" textLength="51" x="690" y="55.8645">&#171;Application&#187;</text><text fill="#000000" font-family="sans-serif" font-size="8.4" lengthAdjust="spacing" textLength="97.8" x="666.6" y="67.0371">AddJobOpeningController</text><rect fill="#E2E2F0" height="30.7453" rx="1.5" ry="1.5" style="stroke:#181818;stroke-width:0.3;" width="106.2" x="662.4" y="823.5551"/><text fill="#000000" font-family="sans-serif" font-size="8.4" font-style="italic" lengthAdjust="spacing" textLength="51" x="690" y="836.8195">&#171;Application&#187;</text><text fill="#000000" font-family="sans-serif" font-size="8.4" lengthAdjust="spacing" textLength="97.8" x="666.6" y="847.9922">AddJobOpeningController</text><rect fill="#E2E2F0" height="30.7453" rx="1.5" ry="1.5" style="stroke:#181818;stroke-width:0.3;" width="82.2" x="1037.4" y="42.6"/><text fill="#000000" font-family="sans-serif" font-size="8.4" font-style="italic" lengthAdjust="spacing" textLength="37.2" x="1059.9" y="55.8645">&#171;Service&#187;</text><text fill="#000000" font-family="sans-serif" font-size="8.4" lengthAdjust="spacing" textLength="73.8" x="1041.6" y="67.0371">JobOpeningService</text><rect fill="#E2E2F0" height="30.7453" rx="1.5" ry="1.5" style="stroke:#181818;stroke-width:0.3;" width="82.2" x="1037.4" y="823.5551"/><text fill="#000000" font-family="sans-serif" font-size="8.4" font-style="italic" lengthAdjust="spacing" textLength="37.2" x="1059.9" y="836.8195">&#171;Service&#187;</text><text fill="#000000" font-family="sans-serif" font-size="8.4" lengthAdjust="spacing" textLength="73.8" x="1041.6" y="847.9922">JobOpeningService</text><rect fill="#E2E2F0" height="30.7453" rx="1.5" ry="1.5" style="stroke:#181818;stroke-width:0.3;" width="85.2" x="1137.9" y="42.6"/><text fill="#000000" font-family="sans-serif" font-size="8.4" font-style="italic" lengthAdjust="spacing" textLength="54" x="1153.5" y="55.8645">&#171;Persistence&#187;</text><text fill="#000000" font-family="sans-serif" font-size="8.4" lengthAdjust="spacing" textLength="76.8" x="1142.1" y="67.0371">CompanyRepository</text><rect fill="#E2E2F0" height="30.7453" rx="1.5" ry="1.5" style="stroke:#181818;stroke-width:0.3;" width="85.2" x="1137.9" y="823.5551"/><text fill="#000000" font-family="sans-serif" font-size="8.4" font-style="italic" lengthAdjust="spacing" textLength="54" x="1153.5" y="836.8195">&#171;Persistence&#187;</text><text fill="#000000" font-family="sans-serif" font-size="8.4" lengthAdjust="spacing" textLength="76.8" x="1142.1" y="847.9922">CompanyRepository</text><rect fill="#E2E2F0" height="30.7453" rx="1.5" ry="1.5" style="stroke:#181818;stroke-width:0.3;" width="80.4" x="1229.1" y="42.6"/><text fill="#000000" font-family="sans-serif" font-size="8.4" font-style="italic" lengthAdjust="spacing" textLength="38.4" x="1250.1" y="55.8645">&#171;Domain&#187;</text><text fill="#000000" font-family="sans-serif" font-size="8.4" lengthAdjust="spacing" textLength="72" x="1233.3" y="67.0371">JobOpeningBuilder</text><rect fill="#E2E2F0" height="30.7453" rx="1.5" ry="1.5" style="stroke:#181818;stroke-width:0.3;" width="80.4" x="1229.1" y="823.5551"/><text fill="#000000" font-family="sans-serif" font-size="8.4" font-style="italic" lengthAdjust="spacing" textLength="38.4" x="1250.1" y="836.8195">&#171;Domain&#187;</text><text fill="#000000" font-family="sans-serif" font-size="8.4" lengthAdjust="spacing" textLength="72" x="1233.3" y="847.9922">JobOpeningBuilder</text><rect fill="#E2E2F0" height="30.7453" rx="1.5" ry="1.5" style="stroke:#181818;stroke-width:0.3;" width="94.8" x="1315.5" y="42.6"/><text fill="#000000" font-family="sans-serif" font-size="8.4" font-style="italic" lengthAdjust="spacing" textLength="54" x="1335.9" y="55.8645">&#171;Persistence&#187;</text><text fill="#000000" font-family="sans-serif" font-size="8.4" lengthAdjust="spacing" textLength="86.4" x="1319.7" y="67.0371">JobOpeningRepository</text><rect fill="#E2E2F0" height="30.7453" rx="1.5" ry="1.5" style="stroke:#181818;stroke-width:0.3;" width="94.8" x="1315.5" y="823.5551"/><text fill="#000000" font-family="sans-serif" font-size="8.4" font-style="italic" lengthAdjust="spacing" textLength="54" x="1335.9" y="836.8195">&#171;Persistence&#187;</text><text fill="#000000" font-family="sans-serif" font-size="8.4" lengthAdjust="spacing" textLength="86.4" x="1319.7" y="847.9922">JobOpeningRepository</text><rect fill="#FFFFFF" height="738.8098" style="stroke:#181818;stroke-width:0.6;" width="6" x="38.1" y="79.9453"/><rect fill="#FFFFFF" height="738.8098" style="stroke:#181818;stroke-width:0.6;" width="6" x="317.7" y="79.9453"/><rect fill="#FFFFFF" height="18" style="stroke:#181818;stroke-width:0.6;" width="6" x="712.5" y="131.4691"/><rect fill="#FFFFFF" height="18" style="stroke:#181818;stroke-width:0.6;" width="6" x="712.5" y="168.2438"/><rect fill="#FFFFFF" height="18" style="stroke:#181818;stroke-width:0.6;" width="6" x="712.5" y="205.0184"/><rect fill="#FFFFFF" height="18" style="stroke:#181818;stroke-width:0.6;" width="6" x="712.5" y="354.4406"/><rect fill="#FFFFFF" height="18" style="stroke:#181818;stroke-width:0.6;" width="6" x="712.5" y="391.2152"/><rect fill="#FFFFFF" height="310.2668" style="stroke:#181818;stroke-width:0.6;" width="6" x="712.5" y="484.3137"/><rect fill="#FFFFFF" height="272.7176" style="stroke:#181818;stroke-width:0.6;" width="6" x="1075.5" y="503.0883"/><rect fill="#FFFFFF" height="18.7746" style="stroke:#181818;stroke-width:0.6;" width="6" x="1177.5" y="521.8629"/><rect fill="#FFFFFF" height="18.7746" style="stroke:#181818;stroke-width:0.6;" width="6" x="1266.3" y="700.7074"/><rect fill="#FFFFFF" height="18.7746" style="stroke:#181818;stroke-width:0.6;" width="6" x="1359.9" y="559.4121"/><rect fill="#FFFFFF" height="18.7746" style="stroke:#181818;stroke-width:0.6;" width="6" x="1359.9" y="738.2566"/><polygon fill="#181818" points="310.5,91.5199,316.5,93.9199,310.5,96.3199,312.9,93.9199" style="stroke:#181818;stroke-width:0.6;"/><line style="stroke:#181818;stroke-width:0.6;" x1="44.1" x2="314.1" y1="93.9199" y2="93.9199"/><text fill="#000000" font-family="sans-serif" font-size="7.8" font-weight="bold" lengthAdjust="spacing" textLength="4.2" x="48.3" y="90.7623">1</text><text fill="#000000" font-family="sans-serif" font-size="7.8" lengthAdjust="spacing" textLength="115.8" x="54.9" y="90.7623">requests to register a job opening</text><polygon fill="#181818" points="50.7,110.2945,44.7,112.6945,50.7,115.0945,48.3,112.6945" style="stroke:#181818;stroke-width:0.6;"/><line style="stroke:#181818;stroke-width:0.6;stroke-dasharray:2.0,2.0;" x1="47.1" x2="317.1" y1="112.6945" y2="112.6945"/><text fill="#000000" font-family="sans-serif" font-size="7.8" font-weight="bold" lengthAdjust="spacing" textLength="4.2" x="54.3" y="109.5369">2</text><text fill="#000000" font-family="sans-serif" font-size="7.8" lengthAdjust="spacing" textLength="240" x="60.9" y="109.5369">prompts for job details (Description, Vacancies Number and Address)</text><polygon fill="#181818" points="705.3,129.0691,711.3,131.4691,705.3,133.8691,707.7,131.4691" style="stroke:#181818;stroke-width:0.6;"/><line style="stroke:#181818;stroke-width:0.6;" x1="323.7" x2="708.9" y1="131.4691" y2="131.4691"/><text fill="#000000" font-family="sans-serif" font-size="7.8" font-weight="bold" lengthAdjust="spacing" textLength="4.2" x="327.9" y="128.3115">3</text><text fill="#000000" font-family="sans-serif" font-size="7.8" lengthAdjust="spacing" textLength="102.6" x="334.5" y="128.3115">checkDescription(description)</text><polygon fill="#181818" points="705.3,165.8438,711.3,168.2438,705.3,170.6437,707.7,168.2438" style="stroke:#181818;stroke-width:0.6;"/><line style="stroke:#181818;stroke-width:0.6;" x1="323.7" x2="708.9" y1="168.2438" y2="168.2438"/><text fill="#000000" font-family="sans-serif" font-size="7.8" font-weight="bold" lengthAdjust="spacing" textLength="4.2" x="327.9" y="165.0861">4</text><text fill="#000000" font-family="sans-serif" font-size="7.8" lengthAdjust="spacing" textLength="150.6" x="334.5" y="165.0861">checkVacanciesNumber(vacanciesNumber)</text><polygon fill="#181818" points="705.3,202.6184,711.3,205.0184,705.3,207.4184,707.7,205.0184" style="stroke:#181818;stroke-width:0.6;"/><line style="stroke:#181818;stroke-width:0.6;" x1="323.7" x2="708.9" y1="205.0184" y2="205.0184"/><text fill="#000000" font-family="sans-serif" font-size="7.8" font-weight="bold" lengthAdjust="spacing" textLength="4.2" x="327.9" y="201.8607">5</text><text fill="#000000" font-family="sans-serif" font-size="7.8" lengthAdjust="spacing" textLength="82.2" x="334.5" y="201.8607">checkAddress(address)</text><polygon fill="#181818" points="310.5,239.393,316.5,241.793,310.5,244.193,312.9,241.793" style="stroke:#181818;stroke-width:0.6;"/><line style="stroke:#181818;stroke-width:0.6;" x1="44.1" x2="314.1" y1="241.793" y2="241.793"/><text fill="#000000" font-family="sans-serif" font-size="7.8" font-weight="bold" lengthAdjust="spacing" textLength="4.2" x="48.3" y="238.6354">6</text><text fill="#000000" font-family="sans-serif" font-size="7.8" lengthAdjust="spacing" textLength="102.6" x="54.9" y="238.6354">provides job details requested</text><polygon fill="#181818" points="50.7,258.1676,44.7,260.5676,50.7,262.9676,48.3,260.5676" style="stroke:#181818;stroke-width:0.6;"/><line style="stroke:#181818;stroke-width:0.6;stroke-dasharray:2.0,2.0;" x1="47.1" x2="317.1" y1="260.5676" y2="260.5676"/><text fill="#000000" font-family="sans-serif" font-size="7.8" font-weight="bold" lengthAdjust="spacing" textLength="4.2" x="54.3" y="257.41">7</text><text fill="#000000" font-family="sans-serif" font-size="7.8" lengthAdjust="spacing" textLength="229.8" x="60.9" y="257.41">shows available job openings modes ( Remote, Hybrid and Onsite)</text><polygon fill="#181818" points="310.5,276.9422,316.5,279.3422,310.5,281.7422,312.9,279.3422" style="stroke:#181818;stroke-width:0.6;"/><line style="stroke:#181818;stroke-width:0.6;" x1="44.1" x2="314.1" y1="279.3422" y2="279.3422"/><text fill="#000000" font-family="sans-serif" font-size="7.8" font-weight="bold" lengthAdjust="spacing" textLength="4.2" x="48.3" y="276.1846">8</text><text fill="#000000" font-family="sans-serif" font-size="7.8" lengthAdjust="spacing" textLength="88.8" x="54.9" y="276.1846">selects job opening mode</text><polygon fill="#181818" points="50.7,295.7168,44.7,298.1168,50.7,300.5168,48.3,298.1168" style="stroke:#181818;stroke-width:0.6;"/><line style="stroke:#181818;stroke-width:0.6;stroke-dasharray:2.0,2.0;" x1="47.1" x2="317.1" y1="298.1168" y2="298.1168"/><text fill="#000000" font-family="sans-serif" font-size="7.8" font-weight="bold" lengthAdjust="spacing" textLength="4.2" x="54.3" y="294.9592">9</text><text fill="#000000" font-family="sans-serif" font-size="7.8" lengthAdjust="spacing" textLength="211.8" x="60.9" y="294.9592">shows available job openings types (Full Time and Part Time)</text><polygon fill="#181818" points="310.5,314.4914,316.5,316.8914,310.5,319.2914,312.9,316.8914" style="stroke:#181818;stroke-width:0.6;"/><line style="stroke:#181818;stroke-width:0.6;" x1="44.1" x2="314.1" y1="316.8914" y2="316.8914"/><text fill="#000000" font-family="sans-serif" font-size="7.8" font-weight="bold" lengthAdjust="spacing" textLength="8.4" x="48.3" y="313.7338">10</text><text fill="#000000" font-family="sans-serif" font-size="7.8" lengthAdjust="spacing" textLength="84.6" x="59.1" y="313.7338">selects job opening type</text><polygon fill="#181818" points="50.7,333.266,44.7,335.666,50.7,338.066,48.3,335.666" style="stroke:#181818;stroke-width:0.6;"/><line style="stroke:#181818;stroke-width:0.6;stroke-dasharray:2.0,2.0;" x1="47.1" x2="317.1" y1="335.666" y2="335.666"/><text fill="#000000" font-family="sans-serif" font-size="7.8" font-weight="bold" lengthAdjust="spacing" textLength="8.4" x="54.3" y="332.5084">11</text><text fill="#000000" font-family="sans-serif" font-size="7.8" lengthAdjust="spacing" textLength="248.4" x="65.1" y="332.5084">prompts for job opening requirements (Title or function and Company ID)</text><polygon fill="#181818" points="705.3,352.0406,711.3,354.4406,705.3,356.8406,707.7,354.4406" style="stroke:#181818;stroke-width:0.6;"/><line style="stroke:#181818;stroke-width:0.6;" x1="323.7" x2="708.9" y1="354.4406" y2="354.4406"/><text fill="#000000" font-family="sans-serif" font-size="7.8" font-weight="bold" lengthAdjust="spacing" textLength="8.4" x="327.9" y="351.283">12</text><text fill="#000000" font-family="sans-serif" font-size="7.8" lengthAdjust="spacing" textLength="132" x="338.7" y="351.283">checkTittleOrFunction(titleOrFunction)</text><polygon fill="#181818" points="705.3,388.8152,711.3,391.2152,705.3,393.6152,707.7,391.2152" style="stroke:#181818;stroke-width:0.6;"/><line style="stroke:#181818;stroke-width:0.6;" x1="323.7" x2="708.9" y1="391.2152" y2="391.2152"/><text fill="#000000" font-family="sans-serif" font-size="7.8" font-weight="bold" lengthAdjust="spacing" textLength="8.4" x="327.9" y="388.0576">13</text><text fill="#000000" font-family="sans-serif" font-size="7.8" lengthAdjust="spacing" textLength="102.6" x="338.7" y="388.0576">checkCompanyId(companyId)</text><polygon fill="#181818" points="310.5,425.5898,316.5,427.9898,310.5,430.3898,312.9,427.9898" style="stroke:#181818;stroke-width:0.6;"/><line style="stroke:#181818;stroke-width:0.6;" x1="44.1" x2="314.1" y1="427.9898" y2="427.9898"/><text fill="#000000" font-family="sans-serif" font-size="7.8" font-weight="bold" lengthAdjust="spacing" textLength="8.4" x="48.3" y="424.8322">14</text><text fill="#000000" font-family="sans-serif" font-size="7.8" lengthAdjust="spacing" textLength="117.6" x="59.1" y="424.8322">provides job opening requirements</text><polygon fill="#181818" points="50.7,444.3645,44.7,446.7645,50.7,449.1645,48.3,446.7645" style="stroke:#181818;stroke-width:0.6;"/><line style="stroke:#181818;stroke-width:0.6;stroke-dasharray:2.0,2.0;" x1="47.1" x2="317.1" y1="446.7645" y2="446.7645"/><text fill="#000000" font-family="sans-serif" font-size="7.8" font-weight="bold" lengthAdjust="spacing" textLength="8.4" x="54.3" y="443.6068">15</text><text fill="#000000" font-family="sans-serif" font-size="7.8" lengthAdjust="spacing" textLength="178.2" x="65.1" y="443.6068">shows and requests confirmation for job registration</text><polygon fill="#181818" points="310.5,463.1391,316.5,465.5391,310.5,467.9391,312.9,465.5391" style="stroke:#181818;stroke-width:0.6;"/><line style="stroke:#181818;stroke-width:0.6;" x1="44.1" x2="314.1" y1="465.5391" y2="465.5391"/><text fill="#000000" font-family="sans-serif" font-size="7.8" font-weight="bold" lengthAdjust="spacing" textLength="8.4" x="48.3" y="462.3814">16</text><text fill="#000000" font-family="sans-serif" font-size="7.8" lengthAdjust="spacing" textLength="82.8" x="59.1" y="462.3814">confirms job registration</text><polygon fill="#181818" points="705.3,481.9137,711.3,484.3137,705.3,486.7137,707.7,484.3137" style="stroke:#181818;stroke-width:0.6;"/><line style="stroke:#181818;stroke-width:0.6;" x1="323.7" x2="708.9" y1="484.3137" y2="484.3137"/><text fill="#000000" font-family="sans-serif" font-size="7.8" font-weight="bold" lengthAdjust="spacing" textLength="8.4" x="327.9" y="481.1561">17</text><text fill="#000000" font-family="sans-serif" font-size="7.8" lengthAdjust="spacing" textLength="366.6" x="338.7" y="481.1561">addJobOpening(description, address, mode, contractType, titleOrFunction, vacanciesNumber, companyId)</text><polygon fill="#181818" points="1068.3,500.6883,1074.3,503.0883,1068.3,505.4883,1070.7,503.0883" style="stroke:#181818;stroke-width:0.6;"/><line style="stroke:#181818;stroke-width:0.6;" x1="718.5" x2="1071.9" y1="503.0883" y2="503.0883"/><text fill="#000000" font-family="sans-serif" font-size="7.8" font-weight="bold" lengthAdjust="spacing" textLength="8.4" x="722.7" y="499.9307">18</text><text fill="#000000" font-family="sans-serif" font-size="7.8" lengthAdjust="spacing" textLength="334.8" x="733.5" y="499.9307">create(description, address, mode, contractType, titleOrFunction, vacanciesNumber, companyId)</text><polygon fill="#181818" points="1170.3,519.4629,1176.3,521.8629,1170.3,524.2629,1172.7,521.8629" style="stroke:#181818;stroke-width:0.6;"/><line style="stroke:#181818;stroke-width:0.6;" x1="1081.5" x2="1173.9" y1="521.8629" y2="521.8629"/><text fill="#000000" font-family="sans-serif" font-size="7.8" font-weight="bold" lengthAdjust="spacing" textLength="8.4" x="1085.7" y="518.7053">19</text><text fill="#000000" font-family="sans-serif" font-size="7.8" lengthAdjust="spacing" textLength="73.8" x="1096.5" y="518.7053">ofIdentity(companyId)</text><polygon fill="#181818" points="1088.1,538.2375,1082.1,540.6375,1088.1,543.0375,1085.7,540.6375" style="stroke:#181818;stroke-width:0.6;"/><line style="stroke:#181818;stroke-width:0.6;stroke-dasharray:2.0,2.0;" x1="1084.5" x2="1179.9" y1="540.6375" y2="540.6375"/><text fill="#000000" font-family="sans-serif" font-size="7.8" font-weight="bold" lengthAdjust="spacing" textLength="8.4" x="1091.7" y="537.4799">20</text><text fill="#000000" font-family="sans-serif" font-size="7.8" lengthAdjust="spacing" textLength="58.2" x="1102.5" y="537.4799">returns company</text><polygon fill="#181818" points="1352.7,557.0121,1358.7,559.4121,1352.7,561.8121,1355.1,559.4121" style="stroke:#181818;stroke-width:0.6;"/><line style="stroke:#181818;stroke-width:0.6;" x1="1081.5" x2="1356.3" y1="559.4121" y2="559.4121"/><text fill="#000000" font-family="sans-serif" font-size="7.8" font-weight="bold" lengthAdjust="spacing" textLength="8.4" x="1085.7" y="556.2545">21</text><text fill="#000000" font-family="sans-serif" font-size="7.8" lengthAdjust="spacing" textLength="125.4" x="1096.5" y="556.2545">getLastIdFromCompany(companyId)</text><polygon fill="#181818" points="1088.1,575.7867,1082.1,578.1867,1088.1,580.5867,1085.7,578.1867" style="stroke:#181818;stroke-width:0.6;"/><line style="stroke:#181818;stroke-width:0.6;stroke-dasharray:2.0,2.0;" x1="1084.5" x2="1362.3" y1="578.1867" y2="578.1867"/><text fill="#000000" font-family="sans-serif" font-size="7.8" font-weight="bold" lengthAdjust="spacing" textLength="8.4" x="1091.7" y="575.0291">22</text><text fill="#000000" font-family="sans-serif" font-size="7.8" lengthAdjust="spacing" textLength="45" x="1102.5" y="575.0291">returns lastId</text><polygon fill="#181818" points="1259.1,698.3074,1265.1,700.7074,1259.1,703.1074,1261.5,700.7074" style="stroke:#181818;stroke-width:0.6;"/><line style="stroke:#181818;stroke-width:0.6;" x1="1081.5" x2="1262.7" y1="700.7074" y2="700.7074"/><text fill="#000000" font-family="sans-serif" font-size="7.8" font-weight="bold" lengthAdjust="spacing" textLength="8.4" x="1085.7" y="645.6768">23</text><text fill="#000000" font-family="sans-serif" font-size="7.8" lengthAdjust="spacing" textLength="22.8" x="1096.5" y="593.8037">builder</text><text fill="#000000" font-family="sans-serif" font-size="7.8" lengthAdjust="spacing" textLength="84" x="1096.5" y="604.1783">.jobReference(reference)</text><text fill="#000000" font-family="sans-serif" font-size="7.8" lengthAdjust="spacing" textLength="73.2" x="1096.5" y="614.5529">.titleOrFunction(title).</text><text fill="#000000" font-family="sans-serif" font-size="7.8" lengthAdjust="spacing" textLength="82.8" x="1096.5" y="624.9275">description(description).</text><text fill="#000000" font-family="sans-serif" font-size="7.8" lengthAdjust="spacing" textLength="97.2" x="1096.5" y="635.3021">contractType(contractType).</text><text fill="#000000" font-family="sans-serif" font-size="7.8" lengthAdjust="spacing" textLength="45.6" x="1096.5" y="645.6768">mode(mode).</text><text fill="#000000" font-family="sans-serif" font-size="7.8" lengthAdjust="spacing" textLength="62.4" x="1096.5" y="656.0514">address(address).</text><text fill="#000000" font-family="sans-serif" font-size="7.8" lengthAdjust="spacing" textLength="129.6" x="1096.5" y="666.426">vacanciesNumber(vacanciesNumber).</text><text fill="#000000" font-family="sans-serif" font-size="7.8" lengthAdjust="spacing" textLength="70.8" x="1096.5" y="676.8006">company(company).</text><text fill="#000000" font-family="sans-serif" font-size="7.8" lengthAdjust="spacing" textLength="104.4" x="1096.5" y="687.1752">currentJobPhase(PhaseType).</text><text fill="#000000" font-family="sans-serif" font-size="7.8" lengthAdjust="spacing" textLength="23.4" x="1096.5" y="697.5498">build();</text><polygon fill="#181818" points="1088.1,717.082,1082.1,719.482,1088.1,721.882,1085.7,719.482" style="stroke:#181818;stroke-width:0.6;"/><line style="stroke:#181818;stroke-width:0.6;stroke-dasharray:2.0,2.0;" x1="1084.5" x2="1268.7" y1="719.482" y2="719.482"/><text fill="#000000" font-family="sans-serif" font-size="7.8" font-weight="bold" lengthAdjust="spacing" textLength="8.4" x="1091.7" y="716.3244">24</text><text fill="#000000" font-family="sans-serif" font-size="7.8" lengthAdjust="spacing" textLength="66" x="1102.5" y="716.3244">returns job opening</text><polygon fill="#181818" points="1352.7,735.8566,1358.7,738.2566,1352.7,740.6566,1355.1,738.2566" style="stroke:#181818;stroke-width:0.6;"/><line style="stroke:#181818;stroke-width:0.6;" x1="1081.5" x2="1356.3" y1="738.2566" y2="738.2566"/><text fill="#000000" font-family="sans-serif" font-size="7.8" font-weight="bold" lengthAdjust="spacing" textLength="8.4" x="1085.7" y="735.099">25</text><text fill="#000000" font-family="sans-serif" font-size="7.8" lengthAdjust="spacing" textLength="59.4" x="1096.5" y="735.099">save(jobOpening)</text><polygon fill="#181818" points="1088.1,754.6313,1082.1,757.0313,1088.1,759.4313,1085.7,757.0313" style="stroke:#181818;stroke-width:0.6;"/><line style="stroke:#181818;stroke-width:0.6;stroke-dasharray:2.0,2.0;" x1="1084.5" x2="1362.3" y1="757.0313" y2="757.0313"/><text fill="#000000" font-family="sans-serif" font-size="7.8" font-weight="bold" lengthAdjust="spacing" textLength="8.4" x="1091.7" y="753.8736">26</text><text fill="#000000" font-family="sans-serif" font-size="7.8" lengthAdjust="spacing" textLength="66" x="1102.5" y="753.8736">returns job opening</text><polygon fill="#181818" points="725.1,773.4059,719.1,775.8059,725.1,778.2059,722.7,775.8059" style="stroke:#181818;stroke-width:0.6;"/><line style="stroke:#181818;stroke-width:0.6;stroke-dasharray:2.0,2.0;" x1="721.5" x2="1077.9" y1="775.8059" y2="775.8059"/><text fill="#000000" font-family="sans-serif" font-size="7.8" font-weight="bold" lengthAdjust="spacing" textLength="8.4" x="728.7" y="772.6482">27</text><text fill="#000000" font-family="sans-serif" font-size="7.8" lengthAdjust="spacing" textLength="66" x="739.5" y="772.6482">returns job opening</text><polygon fill="#181818" points="330.3,792.1805,324.3,794.5805,330.3,796.9805,327.9,794.5805" style="stroke:#181818;stroke-width:0.6;"/><line style="stroke:#181818;stroke-width:0.6;stroke-dasharray:2.0,2.0;" x1="326.7" x2="714.9" y1="794.5805" y2="794.5805"/><text fill="#000000" font-family="sans-serif" font-size="7.8" font-weight="bold" lengthAdjust="spacing" textLength="8.4" x="333.9" y="791.4229">28</text><text fill="#000000" font-family="sans-serif" font-size="7.8" lengthAdjust="spacing" textLength="55.8" x="344.7" y="791.4229">returns success</text><polygon fill="#181818" points="50.7,810.9551,44.7,813.3551,50.7,815.7551,48.3,813.3551" style="stroke:#181818;stroke-width:0.6;"/><line style="stroke:#181818;stroke-width:0.6;stroke-dasharray:2.0,2.0;" x1="47.1" x2="317.1" y1="813.3551" y2="813.3551"/><text fill="#000000" font-family="sans-serif" font-size="7.8" font-weight="bold" lengthAdjust="spacing" textLength="8.4" x="54.3" y="810.1975">29</text><text fill="#000000" font-family="sans-serif" font-size="7.8" lengthAdjust="spacing" textLength="109.8" x="65.1" y="810.1975">confirms successful registration</text><!--SRC=[jLPHRzem47xFhpZrPK62_e2kgbH0rK1ZhKgxfxuOvw3k4Zkp7Ih-_SwE0ISaezCs7i1sxkuxVz_T1IjiZl286s4iQfYh5ToNA8NSm0YM-BD2oH6cWcqqAvA4LLR9gbYXJXYtIiF5f39M5UIwO99jK5y0Cx18IgQjuA9aqi9jbb7S4FPv1iw2VgwldsStD_sM4oMjLdbEiSaXsbrVtvPbBZYpGibMXAFx4lLMKExaEr-IJzYtx2UgeD_T8vRA2BhGpcEvBRaye3QE5tdYTeGPLoBFwXJdO_APgeA9_goQGFDE84Ujs3ABnEDX-JnBaWMCRXnpLw2TCiOQi8hMGJm6RoIVge6IX0n7PByWyrBJDSbwJOevcmmj4xc1T8g6Qr4w8eVmdN4ckK03txp4m6Jc9D5epA2ETnFhS0Ny5VcFA4QQ7TU3w1v7foJ3hjFUu8USwfJIRNF_Rq327LDskEiV1EqvFcf5v6y54TDWFWY8MKCdywhU3R0jcR0LzMMafu52kI0fDMkXB0xXoswbHUP5kfTKKpY8KGtcoAs9G_W87yUpkzBXtLLv3a-YG8_qG5NjTsV1d7i3xAGAzvQE2w6nG4aFqoS_aSXaNKdk2idZXZw5sRIZ4eECv4ckz_ekEAPMDFP_Lom192GoorA-NmsIVr0ONMHqQKLS79gVAxaMkl1pyC1gFGwqFupHWh7fC3gzAei7STpLGmXDClJLD7HXAGwtJoJt45gC3w7Lhyx-m5etRL5xKb8qkYbrZMJr_zEOBvCa8KH7XflCLw3MiuoK47QNTYVkp2XdFyT7Fbytd6sbfTbZD2kXTgX1vZN81krNPkmikwC62VNL3JSFtfrmkO_HG0lszFdKedLy1U_2llRExXxxaqdPOxSWKLAdJA_5918iZTNhzNWIPxgxn-_iAwGtmuvExwGtg4b-0Alw_y2BlAG-UyGrQlTMJ_L-DQ0djkicWyiNcVN8GOzuBr_qi3ZGJHlMqeYEjcSeyF4RTUUFAaqfMne43w_COEg_zv3-dkdWSroTOw9YV5ANZJybCNlZLXyOjiNqxJ1s7DaVg_nUX6EpjURRMS_bIQgdWUEoyLFs6DTKd1FtltktkB4UJUNWiQxovd3-1G00]--></g></svg>