<?xml version="1.0" encoding="us-ascii" standalone="no"?><svg xmlns="http://www.w3.org/2000/svg" xmlns:xlink="http://www.w3.org/1999/xlink" contentStyleType="text/css" height="530px" preserveAspectRatio="none" style="width:866px;height:530px;background:#FFFFFF;" version="1.1" viewBox="0 0 866 530" width="866px" zoomAndPan="magnify"><defs/><g><text fill="#000000" font-family="sans-serif" font-size="7" font-weight="bold" lengthAdjust="spacing" textLength="149.5" x="359.125" y="15.0537">Register Job Opening - Sequence Diagram</text><rect fill="#FFFFFF" height="407.2832" style="stroke:#181818;stroke-width:0.5;" width="5" x="31.75" y="68.9316"/><rect fill="#FFFFFF" height="407.2832" style="stroke:#181818;stroke-width:0.5;" width="5" x="264.75" y="68.9316"/><rect fill="#FFFFFF" height="172.1006" style="stroke:#181818;stroke-width:0.5;" width="5" x="560.25" y="283.9688"/><rect fill="#FFFFFF" height="109.5186" style="stroke:#181818;stroke-width:0.5;" width="5" x="699.75" y="299.6143"/><rect fill="#FFFFFF" height="15.6455" style="stroke:#181818;stroke-width:0.5;" width="5" x="825.75" y="362.1963"/><rect fill="#FFFFFF" height="15.6455" style="stroke:#181818;stroke-width:0.5;" width="5" x="825.75" y="424.7783"/><line style="stroke:#181818;stroke-width:0.25;stroke-dasharray:5.0,5.0;" x1="34" x2="34" y1="63.9316" y2="480.7148"/><line style="stroke:#181818;stroke-width:0.25;stroke-dasharray:5.0,5.0;" x1="267" x2="267" y1="63.9316" y2="480.7148"/><line style="stroke:#181818;stroke-width:0.25;stroke-dasharray:5.0,5.0;" x1="562.5" x2="562.5" y1="63.9316" y2="480.7148"/><line style="stroke:#181818;stroke-width:0.25;stroke-dasharray:5.0,5.0;" x1="702.25" x2="702.25" y1="63.9316" y2="480.7148"/><line style="stroke:#181818;stroke-width:0.25;stroke-dasharray:5.0,5.0;" x1="763.25" x2="763.25" y1="63.9316" y2="480.7148"/><line style="stroke:#181818;stroke-width:0.25;stroke-dasharray:5.0,5.0;" x1="828.25" x2="828.25" y1="63.9316" y2="480.7148"/><text fill="#000000" font-family="sans-serif" font-size="7" lengthAdjust="spacing" textLength="60.5" x="2.5" y="62.1748">Customer Manager</text><ellipse cx="34.25" cy="28.8711" fill="#E2E2F0" rx="4" ry="4" style="stroke:#181818;stroke-width:0.25;"/><path d="M34.25,32.8711 L34.25,46.3711 M27.75,36.8711 L40.75,36.8711 M34.25,46.3711 L27.75,53.8711 M34.25,46.3711 L40.75,53.8711 " fill="none" style="stroke:#181818;stroke-width:0.25;"/><text fill="#000000" font-family="sans-serif" font-size="7" lengthAdjust="spacing" textLength="60.5" x="2.5" y="487.7686">Customer Manager</text><ellipse cx="34.25" cy="493.7754" fill="#E2E2F0" rx="4" ry="4" style="stroke:#181818;stroke-width:0.25;"/><path d="M34.25,497.7754 L34.25,511.2754 M27.75,501.7754 L40.75,501.7754 M34.25,511.2754 L27.75,518.7754 M34.25,511.2754 L40.75,518.7754 " fill="none" style="stroke:#181818;stroke-width:0.25;"/><rect fill="#E2E2F0" height="25.6211" rx="1.25" ry="1.25" style="stroke:#181818;stroke-width:0.25;" width="63.5" x="235.5" y="37.8105"/><text fill="#000000" font-family="sans-serif" font-size="7" font-style="italic" lengthAdjust="spacing" textLength="15" x="259.75" y="48.8643">&#171;UI&#187;</text><text fill="#000000" font-family="sans-serif" font-size="7" lengthAdjust="spacing" textLength="56.5" x="239" y="58.1748">AddJobOpeningUI</text><rect fill="#E2E2F0" height="25.6211" rx="1.25" ry="1.25" style="stroke:#181818;stroke-width:0.25;" width="63.5" x="235.5" y="480.2148"/><text fill="#000000" font-family="sans-serif" font-size="7" font-style="italic" lengthAdjust="spacing" textLength="15" x="259.75" y="491.2686">&#171;UI&#187;</text><text fill="#000000" font-family="sans-serif" font-size="7" lengthAdjust="spacing" textLength="56.5" x="239" y="500.5791">AddJobOpeningUI</text><rect fill="#E2E2F0" height="25.6211" rx="1.25" ry="1.25" style="stroke:#181818;stroke-width:0.25;" width="88.5" x="518.5" y="37.8105"/><text fill="#000000" font-family="sans-serif" font-size="7" font-style="italic" lengthAdjust="spacing" textLength="42.5" x="541.5" y="48.8643">&#171;Application&#187;</text><text fill="#000000" font-family="sans-serif" font-size="7" lengthAdjust="spacing" textLength="81.5" x="522" y="58.1748">AddJobOpeningController</text><rect fill="#E2E2F0" height="25.6211" rx="1.25" ry="1.25" style="stroke:#181818;stroke-width:0.25;" width="88.5" x="518.5" y="480.2148"/><text fill="#000000" font-family="sans-serif" font-size="7" font-style="italic" lengthAdjust="spacing" textLength="42.5" x="541.5" y="491.2686">&#171;Application&#187;</text><text fill="#000000" font-family="sans-serif" font-size="7" lengthAdjust="spacing" textLength="81.5" x="522" y="500.5791">AddJobOpeningController</text><rect fill="#E2E2F0" height="25.6211" rx="1.25" ry="1.25" style="stroke:#181818;stroke-width:0.25;" width="67" x="668.75" y="37.8105"/><text fill="#000000" font-family="sans-serif" font-size="7" font-style="italic" lengthAdjust="spacing" textLength="32" x="686.25" y="48.8643">&#171;Domain&#187;</text><text fill="#000000" font-family="sans-serif" font-size="7" lengthAdjust="spacing" textLength="60" x="672.25" y="58.1748">JobOpeningBuilder</text><rect fill="#E2E2F0" height="25.6211" rx="1.25" ry="1.25" style="stroke:#181818;stroke-width:0.25;" width="67" x="668.75" y="480.2148"/><text fill="#000000" font-family="sans-serif" font-size="7" font-style="italic" lengthAdjust="spacing" textLength="32" x="686.25" y="491.2686">&#171;Domain&#187;</text><text fill="#000000" font-family="sans-serif" font-size="7" lengthAdjust="spacing" textLength="60" x="672.25" y="500.5791">JobOpeningBuilder</text><rect fill="#E2E2F0" height="25.6211" rx="1.25" ry="1.25" style="stroke:#181818;stroke-width:0.25;" width="45" x="740.75" y="37.8105"/><text fill="#000000" font-family="sans-serif" font-size="7" font-style="italic" lengthAdjust="spacing" textLength="32" x="747.25" y="48.8643">&#171;Domain&#187;</text><text fill="#000000" font-family="sans-serif" font-size="7" lengthAdjust="spacing" textLength="38" x="744.25" y="58.1748">JobOpening</text><rect fill="#E2E2F0" height="25.6211" rx="1.25" ry="1.25" style="stroke:#181818;stroke-width:0.25;" width="45" x="740.75" y="480.2148"/><text fill="#000000" font-family="sans-serif" font-size="7" font-style="italic" lengthAdjust="spacing" textLength="32" x="747.25" y="491.2686">&#171;Domain&#187;</text><text fill="#000000" font-family="sans-serif" font-size="7" lengthAdjust="spacing" textLength="38" x="744.25" y="500.5791">JobOpening</text><text fill="#000000" font-family="sans-serif" font-size="7" font-style="italic" lengthAdjust="spacing" textLength="45" x="804.25" y="52.8643">&#171;Persistence&#187;</text><text fill="#000000" font-family="sans-serif" font-size="7" lengthAdjust="spacing" textLength="72" x="790.75" y="62.1748">JobOpeningRepository</text><path d="M819.25,27.3105 C819.25,22.3105 828.25,22.3105 828.25,22.3105 C828.25,22.3105 837.25,22.3105 837.25,27.3105 L837.25,40.3105 C837.25,45.3105 828.25,45.3105 828.25,45.3105 C828.25,45.3105 819.25,45.3105 819.25,40.3105 L819.25,27.3105 " fill="#E2E2F0" style="stroke:#181818;stroke-width:0.75;"/><path d="M819.25,27.3105 C819.25,32.3105 828.25,32.3105 828.25,32.3105 C828.25,32.3105 837.25,32.3105 837.25,27.3105 " fill="none" style="stroke:#181818;stroke-width:0.75;"/><text fill="#000000" font-family="sans-serif" font-size="7" font-style="italic" lengthAdjust="spacing" textLength="45" x="804.25" y="487.7686">&#171;Persistence&#187;</text><text fill="#000000" font-family="sans-serif" font-size="7" lengthAdjust="spacing" textLength="72" x="790.75" y="497.0791">JobOpeningRepository</text><path d="M819.25,503.8359 C819.25,498.8359 828.25,498.8359 828.25,498.8359 C828.25,498.8359 837.25,498.8359 837.25,503.8359 L837.25,516.8359 C837.25,521.8359 828.25,521.8359 828.25,521.8359 C828.25,521.8359 819.25,521.8359 819.25,516.8359 L819.25,503.8359 " fill="#E2E2F0" style="stroke:#181818;stroke-width:0.75;"/><path d="M819.25,503.8359 C819.25,508.8359 828.25,508.8359 828.25,508.8359 C828.25,508.8359 837.25,508.8359 837.25,503.8359 " fill="none" style="stroke:#181818;stroke-width:0.75;"/><rect fill="#FFFFFF" height="407.2832" style="stroke:#181818;stroke-width:0.5;" width="5" x="31.75" y="68.9316"/><rect fill="#FFFFFF" height="407.2832" style="stroke:#181818;stroke-width:0.5;" width="5" x="264.75" y="68.9316"/><rect fill="#FFFFFF" height="172.1006" style="stroke:#181818;stroke-width:0.5;" width="5" x="560.25" y="283.9688"/><rect fill="#FFFFFF" height="109.5186" style="stroke:#181818;stroke-width:0.5;" width="5" x="699.75" y="299.6143"/><rect fill="#FFFFFF" height="15.6455" style="stroke:#181818;stroke-width:0.5;" width="5" x="825.75" y="362.1963"/><rect fill="#FFFFFF" height="15.6455" style="stroke:#181818;stroke-width:0.5;" width="5" x="825.75" y="424.7783"/><polygon fill="#181818" points="258.75,78.5771,263.75,80.5771,258.75,82.5771,260.75,80.5771" style="stroke:#181818;stroke-width:0.5;"/><line style="stroke:#181818;stroke-width:0.5;" x1="36.75" x2="261.75" y1="80.5771" y2="80.5771"/><text fill="#000000" font-family="sans-serif" font-size="6.5" font-weight="bold" lengthAdjust="spacing" textLength="3.5" x="40.25" y="77.9458">1</text><text fill="#000000" font-family="sans-serif" font-size="6.5" lengthAdjust="spacing" textLength="96.5" x="45.75" y="77.9458">requests to register a job opening</text><polygon fill="#181818" points="42.25,94.2227,37.25,96.2227,42.25,98.2227,40.25,96.2227" style="stroke:#181818;stroke-width:0.5;"/><line style="stroke:#181818;stroke-width:0.5;stroke-dasharray:2.0,2.0;" x1="39.25" x2="264.25" y1="96.2227" y2="96.2227"/><text fill="#000000" font-family="sans-serif" font-size="6.5" font-weight="bold" lengthAdjust="spacing" textLength="3.5" x="45.25" y="93.5913">2</text><text fill="#000000" font-family="sans-serif" font-size="6.5" lengthAdjust="spacing" textLength="200" x="50.75" y="93.5913">prompts for job details (Description, Vacancies Number and Address)</text><polygon fill="#181818" points="258.75,109.8682,263.75,111.8682,258.75,113.8682,260.75,111.8682" style="stroke:#181818;stroke-width:0.5;"/><line style="stroke:#181818;stroke-width:0.5;" x1="36.75" x2="261.75" y1="111.8682" y2="111.8682"/><text fill="#000000" font-family="sans-serif" font-size="6.5" font-weight="bold" lengthAdjust="spacing" textLength="3.5" x="40.25" y="109.2368">3</text><text fill="#000000" font-family="sans-serif" font-size="6.5" lengthAdjust="spacing" textLength="85.5" x="45.75" y="109.2368">provides job details requested</text><polygon fill="#181818" points="42.25,125.5137,37.25,127.5137,42.25,129.5137,40.25,127.5137" style="stroke:#181818;stroke-width:0.5;"/><line style="stroke:#181818;stroke-width:0.5;stroke-dasharray:2.0,2.0;" x1="39.25" x2="264.25" y1="127.5137" y2="127.5137"/><text fill="#000000" font-family="sans-serif" font-size="6.5" font-weight="bold" lengthAdjust="spacing" textLength="3.5" x="45.25" y="124.8823">4</text><text fill="#000000" font-family="sans-serif" font-size="6.5" lengthAdjust="spacing" textLength="191.5" x="50.75" y="124.8823">shows available job openings modes ( Remote, Hybrid and Onsite)</text><polygon fill="#181818" points="258.75,141.1592,263.75,143.1592,258.75,145.1592,260.75,143.1592" style="stroke:#181818;stroke-width:0.5;"/><line style="stroke:#181818;stroke-width:0.5;" x1="36.75" x2="261.75" y1="143.1592" y2="143.1592"/><text fill="#000000" font-family="sans-serif" font-size="6.5" font-weight="bold" lengthAdjust="spacing" textLength="3.5" x="40.25" y="140.5278">5</text><text fill="#000000" font-family="sans-serif" font-size="6.5" lengthAdjust="spacing" textLength="85.5" x="45.75" y="140.5278">provides job details requested</text><polygon fill="#181818" points="42.25,156.8047,37.25,158.8047,42.25,160.8047,40.25,158.8047" style="stroke:#181818;stroke-width:0.5;"/><line style="stroke:#181818;stroke-width:0.5;stroke-dasharray:2.0,2.0;" x1="39.25" x2="264.25" y1="158.8047" y2="158.8047"/><text fill="#000000" font-family="sans-serif" font-size="6.5" font-weight="bold" lengthAdjust="spacing" textLength="3.5" x="45.25" y="156.1733">6</text><text fill="#000000" font-family="sans-serif" font-size="6.5" lengthAdjust="spacing" textLength="191.5" x="50.75" y="156.1733">shows available job openings modes ( Remote, Hybrid and Onsite)</text><polygon fill="#181818" points="258.75,172.4502,263.75,174.4502,258.75,176.4502,260.75,174.4502" style="stroke:#181818;stroke-width:0.5;"/><line style="stroke:#181818;stroke-width:0.5;" x1="36.75" x2="261.75" y1="174.4502" y2="174.4502"/><text fill="#000000" font-family="sans-serif" font-size="6.5" font-weight="bold" lengthAdjust="spacing" textLength="3.5" x="40.25" y="171.8188">7</text><text fill="#000000" font-family="sans-serif" font-size="6.5" lengthAdjust="spacing" textLength="74" x="45.75" y="171.8188">selects job opening mode</text><polygon fill="#181818" points="42.25,188.0957,37.25,190.0957,42.25,192.0957,40.25,190.0957" style="stroke:#181818;stroke-width:0.5;"/><line style="stroke:#181818;stroke-width:0.5;stroke-dasharray:2.0,2.0;" x1="39.25" x2="264.25" y1="190.0957" y2="190.0957"/><text fill="#000000" font-family="sans-serif" font-size="6.5" font-weight="bold" lengthAdjust="spacing" textLength="3.5" x="45.25" y="187.4644">8</text><text fill="#000000" font-family="sans-serif" font-size="6.5" lengthAdjust="spacing" textLength="176.5" x="50.75" y="187.4644">shows available job openings types (Full Time and Part Time)</text><polygon fill="#181818" points="258.75,203.7412,263.75,205.7412,258.75,207.7412,260.75,205.7412" style="stroke:#181818;stroke-width:0.5;"/><line style="stroke:#181818;stroke-width:0.5;" x1="36.75" x2="261.75" y1="205.7412" y2="205.7412"/><text fill="#000000" font-family="sans-serif" font-size="6.5" font-weight="bold" lengthAdjust="spacing" textLength="3.5" x="40.25" y="203.1099">9</text><text fill="#000000" font-family="sans-serif" font-size="6.5" lengthAdjust="spacing" textLength="70.5" x="45.75" y="203.1099">selects job opening type</text><polygon fill="#181818" points="42.25,219.3867,37.25,221.3867,42.25,223.3867,40.25,221.3867" style="stroke:#181818;stroke-width:0.5;"/><line style="stroke:#181818;stroke-width:0.5;stroke-dasharray:2.0,2.0;" x1="39.25" x2="264.25" y1="221.3867" y2="221.3867"/><text fill="#000000" font-family="sans-serif" font-size="6.5" font-weight="bold" lengthAdjust="spacing" textLength="7" x="45.25" y="218.7554">10</text><text fill="#000000" font-family="sans-serif" font-size="6.5" lengthAdjust="spacing" textLength="207" x="54.25" y="218.7554">prompts for job opening requirements (Title or function and Company ID)</text><polygon fill="#181818" points="258.75,235.0322,263.75,237.0322,258.75,239.0322,260.75,237.0322" style="stroke:#181818;stroke-width:0.5;"/><line style="stroke:#181818;stroke-width:0.5;" x1="36.75" x2="261.75" y1="237.0322" y2="237.0322"/><text fill="#000000" font-family="sans-serif" font-size="6.5" font-weight="bold" lengthAdjust="spacing" textLength="7" x="40.25" y="234.4009">11</text><text fill="#000000" font-family="sans-serif" font-size="6.5" lengthAdjust="spacing" textLength="98" x="49.25" y="234.4009">provides job opening requirements</text><polygon fill="#181818" points="42.25,250.6777,37.25,252.6777,42.25,254.6777,40.25,252.6777" style="stroke:#181818;stroke-width:0.5;"/><line style="stroke:#181818;stroke-width:0.5;stroke-dasharray:2.0,2.0;" x1="39.25" x2="264.25" y1="252.6777" y2="252.6777"/><text fill="#000000" font-family="sans-serif" font-size="6.5" font-weight="bold" lengthAdjust="spacing" textLength="7" x="45.25" y="250.0464">12</text><text fill="#000000" font-family="sans-serif" font-size="6.5" lengthAdjust="spacing" textLength="148.5" x="54.25" y="250.0464">shows and requests confirmation for job registration</text><polygon fill="#181818" points="258.75,266.3232,263.75,268.3232,258.75,270.3232,260.75,268.3232" style="stroke:#181818;stroke-width:0.5;"/><line style="stroke:#181818;stroke-width:0.5;" x1="36.75" x2="261.75" y1="268.3232" y2="268.3232"/><text fill="#000000" font-family="sans-serif" font-size="6.5" font-weight="bold" lengthAdjust="spacing" textLength="7" x="40.25" y="265.6919">13</text><text fill="#000000" font-family="sans-serif" font-size="6.5" lengthAdjust="spacing" textLength="69" x="49.25" y="265.6919">confirms job registration</text><polygon fill="#181818" points="554.25,281.9688,559.25,283.9688,554.25,285.9688,556.25,283.9688" style="stroke:#181818;stroke-width:0.5;"/><line style="stroke:#181818;stroke-width:0.5;" x1="269.75" x2="557.25" y1="283.9688" y2="283.9688"/><text fill="#000000" font-family="sans-serif" font-size="6.5" font-weight="bold" lengthAdjust="spacing" textLength="7" x="273.25" y="281.3374">14</text><text fill="#000000" font-family="sans-serif" font-size="6.5" lengthAdjust="spacing" textLength="272" x="282.25" y="281.3374">addJobopening(description, address, mode, ct, titleOrFunction, vacanciesNumber, companyId)</text><polygon fill="#181818" points="693.75,297.6143,698.75,299.6143,693.75,301.6143,695.75,299.6143" style="stroke:#181818;stroke-width:0.5;"/><line style="stroke:#181818;stroke-width:0.5;" x1="565.25" x2="696.75" y1="299.6143" y2="299.6143"/><text fill="#000000" font-family="sans-serif" font-size="6.5" font-weight="bold" lengthAdjust="spacing" textLength="7" x="568.75" y="296.9829">15</text><text fill="#000000" font-family="sans-serif" font-size="6.5" lengthAdjust="spacing" textLength="78.5" x="577.75" y="296.9829">withJobOpeningCode(code)</text><polygon fill="#181818" points="693.75,313.2598,698.75,315.2598,693.75,317.2598,695.75,315.2598" style="stroke:#181818;stroke-width:0.5;"/><line style="stroke:#181818;stroke-width:0.5;" x1="565.25" x2="696.75" y1="315.2598" y2="315.2598"/><text fill="#000000" font-family="sans-serif" font-size="6.5" font-weight="bold" lengthAdjust="spacing" textLength="7" x="568.75" y="312.6284">16</text><text fill="#000000" font-family="sans-serif" font-size="6.5" lengthAdjust="spacing" textLength="82.5" x="577.75" y="312.6284">withJobOpeningName(name)</text><polygon fill="#181818" points="693.75,328.9053,698.75,330.9053,693.75,332.9053,695.75,330.9053" style="stroke:#181818;stroke-width:0.5;"/><line style="stroke:#181818;stroke-width:0.5;" x1="565.25" x2="696.75" y1="330.9053" y2="330.9053"/><text fill="#000000" font-family="sans-serif" font-size="6.5" font-weight="bold" lengthAdjust="spacing" textLength="7" x="568.75" y="328.2739">17</text><text fill="#000000" font-family="sans-serif" font-size="6.5" lengthAdjust="spacing" textLength="113.5" x="577.75" y="328.2739">withJobOpeningDescription(description)</text><polygon fill="#181818" points="693.75,344.5508,698.75,346.5508,693.75,348.5508,695.75,346.5508" style="stroke:#181818;stroke-width:0.5;"/><line style="stroke:#181818;stroke-width:0.5;" x1="565.25" x2="696.75" y1="346.5508" y2="346.5508"/><text fill="#000000" font-family="sans-serif" font-size="6.5" font-weight="bold" lengthAdjust="spacing" textLength="7" x="568.75" y="343.9194">18</text><text fill="#000000" font-family="sans-serif" font-size="6.5" lengthAdjust="spacing" textLength="17.5" x="577.75" y="343.9194">build()</text><polygon fill="#181818" points="819.75,360.1963,824.75,362.1963,819.75,364.1963,821.75,362.1963" style="stroke:#181818;stroke-width:0.5;"/><line style="stroke:#181818;stroke-width:0.5;" x1="704.75" x2="822.75" y1="362.1963" y2="362.1963"/><text fill="#000000" font-family="sans-serif" font-size="6.5" font-weight="bold" lengthAdjust="spacing" textLength="7" x="708.25" y="359.5649">19</text><text fill="#000000" font-family="sans-serif" font-size="6.5" lengthAdjust="spacing" textLength="44" x="717.25" y="359.5649">ofIdentity(code)</text><polygon fill="#181818" points="710.25,375.8418,705.25,377.8418,710.25,379.8418,708.25,377.8418" style="stroke:#181818;stroke-width:0.5;"/><line style="stroke:#181818;stroke-width:0.5;stroke-dasharray:2.0,2.0;" x1="707.25" x2="827.75" y1="377.8418" y2="377.8418"/><text fill="#000000" font-family="sans-serif" font-size="6.5" font-weight="bold" lengthAdjust="spacing" textLength="7" x="713.25" y="375.2104">20</text><text fill="#000000" font-family="sans-serif" font-size="6.5" lengthAdjust="spacing" textLength="55" x="722.25" y="375.2104">returns job opening</text><polygon fill="#181818" points="757.25,391.4873,762.25,393.4873,757.25,395.4873,759.25,393.4873" style="stroke:#181818;stroke-width:0.5;"/><line style="stroke:#181818;stroke-width:0.5;" x1="704.75" x2="760.25" y1="393.4873" y2="393.4873"/><text fill="#000000" font-family="sans-serif" font-size="6.5" font-weight="bold" lengthAdjust="spacing" textLength="7" x="708.25" y="390.856">21</text><text fill="#000000" font-family="sans-serif" font-size="6.5" lengthAdjust="spacing" textLength="18" x="717.25" y="390.856">create</text><polygon fill="#181818" points="570.75,407.1328,565.75,409.1328,570.75,411.1328,568.75,409.1328" style="stroke:#181818;stroke-width:0.5;"/><line style="stroke:#181818;stroke-width:0.5;stroke-dasharray:2.0,2.0;" x1="567.75" x2="701.75" y1="409.1328" y2="409.1328"/><text fill="#000000" font-family="sans-serif" font-size="6.5" font-weight="bold" lengthAdjust="spacing" textLength="7" x="573.75" y="406.5015">22</text><text fill="#000000" font-family="sans-serif" font-size="6.5" lengthAdjust="spacing" textLength="55" x="582.75" y="406.5015">returns job opening</text><polygon fill="#181818" points="819.75,422.7783,824.75,424.7783,819.75,426.7783,821.75,424.7783" style="stroke:#181818;stroke-width:0.5;"/><line style="stroke:#181818;stroke-width:0.5;" x1="565.25" x2="822.75" y1="424.7783" y2="424.7783"/><text fill="#000000" font-family="sans-serif" font-size="6.5" font-weight="bold" lengthAdjust="spacing" textLength="7" x="568.75" y="422.147">23</text><text fill="#000000" font-family="sans-serif" font-size="6.5" lengthAdjust="spacing" textLength="50" x="577.75" y="422.147">save(job opening)</text><polygon fill="#181818" points="570.75,438.4238,565.75,440.4238,570.75,442.4238,568.75,440.4238" style="stroke:#181818;stroke-width:0.5;"/><line style="stroke:#181818;stroke-width:0.5;stroke-dasharray:2.0,2.0;" x1="567.75" x2="827.75" y1="440.4238" y2="440.4238"/><text fill="#000000" font-family="sans-serif" font-size="6.5" font-weight="bold" lengthAdjust="spacing" textLength="7" x="573.75" y="437.7925">24</text><text fill="#000000" font-family="sans-serif" font-size="6.5" lengthAdjust="spacing" textLength="46.5" x="582.75" y="437.7925">returns success</text><polygon fill="#181818" points="275.25,454.0693,270.25,456.0693,275.25,458.0693,273.25,456.0693" style="stroke:#181818;stroke-width:0.5;"/><line style="stroke:#181818;stroke-width:0.5;stroke-dasharray:2.0,2.0;" x1="272.25" x2="562.25" y1="456.0693" y2="456.0693"/><text fill="#000000" font-family="sans-serif" font-size="6.5" font-weight="bold" lengthAdjust="spacing" textLength="7" x="278.25" y="453.438">25</text><text fill="#000000" font-family="sans-serif" font-size="6.5" lengthAdjust="spacing" textLength="46.5" x="287.25" y="453.438">returns success</text><polygon fill="#181818" points="42.25,469.7148,37.25,471.7148,42.25,473.7148,40.25,471.7148" style="stroke:#181818;stroke-width:0.5;"/><line style="stroke:#181818;stroke-width:0.5;stroke-dasharray:2.0,2.0;" x1="39.25" x2="264.25" y1="471.7148" y2="471.7148"/><text fill="#000000" font-family="sans-serif" font-size="6.5" font-weight="bold" lengthAdjust="spacing" textLength="7" x="45.25" y="469.0835">26</text><text fill="#000000" font-family="sans-serif" font-size="6.5" lengthAdjust="spacing" textLength="91.5" x="54.25" y="469.0835">confirms successful registration</text><!--SRC=[hLJHRk8m47ptLwpw52Ju0OIG2gWgI9IgL-vziHVgKsBdR8UAlx-r4rf3ePnEzq8ICxEpdXqxw50IlD1E-q0E5dO3gvgCDZiOm0_wtP2H13EDEuUL4DW4QvfgGqwW3DR1tRJnmLPCNQB17RaxG0zBKQCBMkeQJO1xfRXkLtOzXuZWnsYqde_7rv5JQuApPScrcP1zZKRtTLrgYK5RSrRXapvfTAbQxcB2d9cjK5-79zmgnoaCk45F6UY5Qkirx_kGuF6J6S_aVBIFdM9QD4RlCH2xyF6wdWknXC4uxdi8BlhgWuTW-Rsp7k4NcszR8I4OE63yak6rirNDw2tx7J6A0khIGp4ZBvskemrz-8aIZTJauIaD2D2eQAWZxtkvEfVRQyMul5RN4gaJPV1lzjq3xXc36mvArgA7oiOg1QUdie7wy7ZOEAsIxigmJVIlilzHrLD9ClYyHAhmzthXK4UzXwOiuLLNb9IUEKFfwwPOf9zwUZxE8p9weHrLPFZFuZKTJ8Pi6oFZX9FkbAbe3Z2VNVVsKhrBs-Lo7q6KrcorgzA9-cYiZQPBYxbQ1_ONG55bd9tL8M0wqbrFXSeJYsqu-saWVP2X3o7kUkKUkZttONzCTHjgHhKEp5KlEscVWa9a5mMtifWCuLs7j_nQKLH8_kbzyXUJcxGdhAWm62T-2veTotp3buYRU4aLl1M-ek9Il566OBTpnLFJuV2bqGXWTBfv1bqHHw5nvcJuGj4PfnDOyVWSyN9QE9lLhK8J8RxustRiSKz5HlkkvKkAlf6Ie_2rxLmjvUzRJfw3O-2pl7QCRLEUnlOF]--></g></svg>