<?xml version="1.0" encoding="us-ascii" standalone="no"?><svg xmlns="http://www.w3.org/2000/svg" xmlns:xlink="http://www.w3.org/1999/xlink" contentStyleType="text/css" height="466px" preserveAspectRatio="none" style="width:539px;height:466px;background:#FFFFFF;" version="1.1" viewBox="0 0 539 466" width="539px" zoomAndPan="magnify"><defs/><g><text fill="#000000" font-family="sans-serif" font-size="14" font-weight="bold" lengthAdjust="spacing" textLength="221" x="160.75" y="30.1074">Enable User Sequence Diagram</text><rect fill="#FFFFFF" height="196.7461" style="stroke:#181818;stroke-width:1.0;" width="10" x="166.5" y="161.1543"/><rect fill="#FFFFFF" height="93.873" style="stroke:#181818;stroke-width:1.0;" width="10" x="305.5" y="223.7363"/><rect fill="#FFFFFF" height="31.291" style="stroke:#181818;stroke-width:1.0;" width="10" x="459" y="255.0273"/><line style="stroke:#181818;stroke-width:0.5;stroke-dasharray:5.0,5.0;" x1="49" x2="49" y1="127.8633" y2="366.9004"/><line style="stroke:#181818;stroke-width:0.5;stroke-dasharray:5.0,5.0;" x1="171.5" x2="171.5" y1="127.8633" y2="366.9004"/><line style="stroke:#181818;stroke-width:0.5;stroke-dasharray:5.0,5.0;" x1="310.5" x2="310.5" y1="127.8633" y2="366.9004"/><line style="stroke:#181818;stroke-width:0.5;stroke-dasharray:5.0,5.0;" x1="463.5" x2="463.5" y1="127.8633" y2="366.9004"/><text fill="#000000" font-family="sans-serif" font-size="14" lengthAdjust="spacing" textLength="83" x="5" y="124.3496">Administrator</text><ellipse cx="49.5" cy="57.7422" fill="#E2E2F0" rx="8" ry="8" style="stroke:#181818;stroke-width:0.5;"/><path d="M49.5,65.7422 L49.5,92.7422 M36.5,73.7422 L62.5,73.7422 M49.5,92.7422 L36.5,107.7422 M49.5,92.7422 L62.5,107.7422 " fill="none" style="stroke:#181818;stroke-width:0.5;"/><text fill="#000000" font-family="sans-serif" font-size="14" lengthAdjust="spacing" textLength="83" x="5" y="381.0078">Administrator</text><ellipse cx="49.5" cy="393.0215" fill="#E2E2F0" rx="8" ry="8" style="stroke:#181818;stroke-width:0.5;"/><path d="M49.5,401.0215 L49.5,428.0215 M36.5,409.0215 L62.5,409.0215 M49.5,428.0215 L36.5,443.0215 M49.5,428.0215 L62.5,443.0215 " fill="none" style="stroke:#181818;stroke-width:0.5;"/><rect fill="#E2E2F0" height="51.2422" rx="2.5" ry="2.5" style="stroke:#181818;stroke-width:0.5;" width="84" x="129.5" y="75.6211"/><text fill="#000000" font-family="sans-serif" font-size="14" font-style="italic" lengthAdjust="spacing" textLength="27" x="158" y="97.7285">&#171;ui&#187;</text><text fill="#000000" font-family="sans-serif" font-size="14" lengthAdjust="spacing" textLength="70" x="136.5" y="116.3496">ListUsersUI</text><rect fill="#E2E2F0" height="51.2422" rx="2.5" ry="2.5" style="stroke:#181818;stroke-width:0.5;" width="84" x="129.5" y="365.9004"/><text fill="#000000" font-family="sans-serif" font-size="14" font-style="italic" lengthAdjust="spacing" textLength="27" x="158" y="388.0078">&#171;ui&#187;</text><text fill="#000000" font-family="sans-serif" font-size="14" lengthAdjust="spacing" textLength="70" x="136.5" y="406.6289">ListUsersUI</text><rect fill="#E2E2F0" height="51.2422" rx="2.5" ry="2.5" style="stroke:#181818;stroke-width:0.5;" width="138" x="241.5" y="75.6211"/><text fill="#000000" font-family="sans-serif" font-size="14" font-style="italic" lengthAdjust="spacing" textLength="84" x="268.5" y="97.7285">&#171;application&#187;</text><text fill="#000000" font-family="sans-serif" font-size="14" lengthAdjust="spacing" textLength="124" x="248.5" y="116.3496">:ListUsersController</text><rect fill="#E2E2F0" height="51.2422" rx="2.5" ry="2.5" style="stroke:#181818;stroke-width:0.5;" width="138" x="241.5" y="365.9004"/><text fill="#000000" font-family="sans-serif" font-size="14" font-style="italic" lengthAdjust="spacing" textLength="84" x="268.5" y="388.0078">&#171;application&#187;</text><text fill="#000000" font-family="sans-serif" font-size="14" lengthAdjust="spacing" textLength="124" x="248.5" y="406.6289">:ListUsersController</text><text fill="#000000" font-family="sans-serif" font-size="14" font-style="italic" lengthAdjust="spacing" textLength="79" x="421.5" y="105.7285">&#171;repository&#187;</text><text fill="#000000" font-family="sans-serif" font-size="14" lengthAdjust="spacing" textLength="143" x="389.5" y="124.3496">Jobs4UUserRepository</text><path d="M446,54.6211 C446,44.6211 464,44.6211 464,44.6211 C464,44.6211 482,44.6211 482,54.6211 L482,80.6211 C482,90.6211 464,90.6211 464,90.6211 C464,90.6211 446,90.6211 446,80.6211 L446,54.6211 " fill="#E2E2F0" style="stroke:#181818;stroke-width:1.5;"/><path d="M446,54.6211 C446,64.6211 464,64.6211 464,64.6211 C464,64.6211 482,64.6211 482,54.6211 " fill="none" style="stroke:#181818;stroke-width:1.5;"/><text fill="#000000" font-family="sans-serif" font-size="14" font-style="italic" lengthAdjust="spacing" textLength="79" x="421.5" y="381.0078">&#171;repository&#187;</text><text fill="#000000" font-family="sans-serif" font-size="14" lengthAdjust="spacing" textLength="143" x="389.5" y="399.6289">Jobs4UUserRepository</text><path d="M446,413.1426 C446,403.1426 464,403.1426 464,403.1426 C464,403.1426 482,403.1426 482,413.1426 L482,439.1426 C482,449.1426 464,449.1426 464,449.1426 C464,449.1426 446,449.1426 446,439.1426 L446,413.1426 " fill="#E2E2F0" style="stroke:#181818;stroke-width:1.5;"/><path d="M446,413.1426 C446,423.1426 464,423.1426 464,423.1426 C464,423.1426 482,423.1426 482,413.1426 " fill="none" style="stroke:#181818;stroke-width:1.5;"/><rect fill="#FFFFFF" height="196.7461" style="stroke:#181818;stroke-width:1.0;" width="10" x="166.5" y="161.1543"/><rect fill="#FFFFFF" height="93.873" style="stroke:#181818;stroke-width:1.0;" width="10" x="305.5" y="223.7363"/><rect fill="#FFFFFF" height="31.291" style="stroke:#181818;stroke-width:1.0;" width="10" x="459" y="255.0273"/><polygon fill="#181818" points="154.5,157.1543,164.5,161.1543,154.5,165.1543,158.5,161.1543" style="stroke:#181818;stroke-width:1.0;"/><line style="stroke:#181818;stroke-width:1.0;" x1="0" x2="160.5" y1="161.1543" y2="161.1543"/><text fill="#000000" font-family="sans-serif" font-size="13" font-weight="bold" lengthAdjust="spacing" textLength="7" x="7" y="155.8916">1</text><text fill="#000000" font-family="sans-serif" font-size="13" lengthAdjust="spacing" textLength="42" x="18" y="155.8916">onLoad</text><polygon fill="#181818" points="298.5,188.4453,308.5,192.4453,298.5,196.4453,302.5,192.4453" style="stroke:#181818;stroke-width:1.0;"/><line style="stroke:#181818;stroke-width:1.0;" x1="176.5" x2="304.5" y1="192.4453" y2="192.4453"/><text fill="#000000" font-family="sans-serif" font-size="13" font-weight="bold" lengthAdjust="spacing" textLength="7" x="183.5" y="187.1826">2</text><text fill="#000000" font-family="sans-serif" font-size="13" lengthAdjust="spacing" textLength="99" x="194.5" y="187.1826">create(userRepo)</text><polygon fill="#181818" points="293.5,219.7363,303.5,223.7363,293.5,227.7363,297.5,223.7363" style="stroke:#181818;stroke-width:1.0;"/><line style="stroke:#181818;stroke-width:1.0;" x1="176.5" x2="299.5" y1="223.7363" y2="223.7363"/><text fill="#000000" font-family="sans-serif" font-size="13" font-weight="bold" lengthAdjust="spacing" textLength="7" x="183.5" y="218.4736">3</text><text fill="#000000" font-family="sans-serif" font-size="13" lengthAdjust="spacing" textLength="61" x="194.5" y="218.4736">elements()</text><polygon fill="#181818" points="447,251.0273,457,255.0273,447,259.0273,451,255.0273" style="stroke:#181818;stroke-width:1.0;"/><line style="stroke:#181818;stroke-width:1.0;" x1="315.5" x2="453" y1="255.0273" y2="255.0273"/><text fill="#000000" font-family="sans-serif" font-size="13" font-weight="bold" lengthAdjust="spacing" textLength="7" x="322.5" y="249.7646">4</text><text fill="#000000" font-family="sans-serif" font-size="13" lengthAdjust="spacing" textLength="57" x="333.5" y="249.7646">AllUsers()</text><polygon fill="#181818" points="326.5,282.3184,316.5,286.3184,326.5,290.3184,322.5,286.3184" style="stroke:#181818;stroke-width:1.0;"/><line style="stroke:#181818;stroke-width:1.0;stroke-dasharray:2.0,2.0;" x1="320.5" x2="463" y1="286.3184" y2="286.3184"/><text fill="#000000" font-family="sans-serif" font-size="13" font-weight="bold" lengthAdjust="spacing" textLength="7" x="332.5" y="281.0557">5</text><text fill="#000000" font-family="sans-serif" font-size="13" lengthAdjust="spacing" textLength="32" x="343.5" y="281.0557">users</text><polygon fill="#181818" points="187.5,313.6094,177.5,317.6094,187.5,321.6094,183.5,317.6094" style="stroke:#181818;stroke-width:1.0;"/><line style="stroke:#181818;stroke-width:1.0;stroke-dasharray:2.0,2.0;" x1="181.5" x2="309.5" y1="317.6094" y2="317.6094"/><text fill="#000000" font-family="sans-serif" font-size="13" font-weight="bold" lengthAdjust="spacing" textLength="7" x="193.5" y="312.3467">6</text><text fill="#000000" font-family="sans-serif" font-size="13" lengthAdjust="spacing" textLength="32" x="204.5" y="312.3467">users</text><polygon fill="#181818" points="60.5,344.9004,50.5,348.9004,60.5,352.9004,56.5,348.9004" style="stroke:#181818;stroke-width:1.0;"/><line style="stroke:#181818;stroke-width:1.0;" x1="54.5" x2="165.5" y1="348.9004" y2="348.9004"/><text fill="#000000" font-family="sans-serif" font-size="13" font-weight="bold" lengthAdjust="spacing" textLength="7" x="66.5" y="343.6377">7</text><text fill="#000000" font-family="sans-serif" font-size="13" lengthAdjust="spacing" textLength="82" x="77.5" y="343.6377">lists the users</text><!--SRC=[PP31QiCm38RlUWgHKtleRQTG0g7jeIDZ8riUG4d4Pd3ip5O6U_l9RjSkx6Ii__lrIn8Zbl7agDUdYnpmbJyNTWFZqT1xe0c05l5kcNeEG8FuWFKu6MUY14e_YbWVds2c86OmCpd1eb4rTOlTkKX0TyRzVZ5LjSRA6tVmJeAtbaFc3szjemwQPsi64kETMaSIwYao5e- -ZmzTChOy-sXqZE_iQqylp-eBjwhQ07PL6g14xnfFOrh2V97elcVGkgevhiGXi9OtoxNlTgMovOcTnCtstY0fa6N5SdQ9jRLvexzSaY3hktjQYeamyfgwTFkT-1-J4ozZwT6Li7h1YFB1LnP-0000]--></g></svg>