<?xml version="1.0" encoding="us-ascii" standalone="no"?><svg xmlns="http://www.w3.org/2000/svg" xmlns:xlink="http://www.w3.org/1999/xlink" contentStyleType="text/css" height="481px" preserveAspectRatio="none" style="width:844px;height:481px;background:#FFFFFF;" version="1.1" viewBox="0 0 844 481" width="844px" zoomAndPan="magnify"><defs/><g><text fill="#000000" font-family="sans-serif" font-size="14" font-weight="bold" lengthAdjust="spacing" textLength="51" x="389.5" y="25.1074">US3002</text><!--cluster Job Opening--><g id="cluster_Job Opening"><rect fill="#BBCCAA" height="429" rx="2.5" ry="2.5" style="stroke:#181818;stroke-width:1.0;" width="647" x="7" y="46.6211"/><text fill="#000000" font-family="sans-serif" font-size="14" font-weight="bold" lengthAdjust="spacing" textLength="90" x="285.5" y="63.7285">Job Opening</text></g><!--cluster customer--><g id="cluster_customer"><rect fill="#BBAACC" height="268" rx="2.5" ry="2.5" style="stroke:#181818;stroke-width:1.0;" width="160" x="678" y="207.6211"/><text fill="#000000" font-family="sans-serif" font-size="14" font-weight="bold" lengthAdjust="spacing" textLength="66" x="725" y="224.7285">customer</text></g><!--class JobOpening--><g id="elem_JobOpening"><rect codeLine="6" fill="#F1F1F1" height="76.543" id="JobOpening" rx="2.5" ry="2.5" style="stroke:#181818;stroke-width:0.5;" width="128" x="352" y="244.6211"/><ellipse cx="367" cy="274.8926" fill="#ADD1B2" rx="11" ry="11" style="stroke:#181818;stroke-width:1.0;"/><path d="M369.7656,270.7676 Q369.9219,270.5488 370.1094,270.4395 Q370.2969,270.3301 370.5156,270.3301 Q370.8906,270.3301 371.125,270.5957 Q371.3594,270.8457 371.3594,271.4551 L371.3594,272.9082 Q371.3594,273.5176 371.125,273.7832 Q370.8906,274.0488 370.5156,274.0488 Q370.1719,274.0488 369.9688,273.8457 Q369.7656,273.6582 369.6563,273.1426 Q369.6094,272.7832 369.4219,272.5957 Q369.0938,272.2207 368.4844,272.002 Q367.875,271.7832 367.25,271.7832 Q366.4844,271.7832 365.8438,272.1113 Q365.2188,272.4395 364.7188,273.1895 Q364.2344,273.9395 364.2344,274.9707 L364.2344,276.0645 Q364.2344,277.2988 365.125,278.127 Q366.0156,278.9395 367.6094,278.9395 Q368.5469,278.9395 369.2031,278.6895 Q369.5938,278.5332 370.0156,278.0957 Q370.2813,277.8301 370.4219,277.752 Q370.5781,277.6738 370.7813,277.6738 Q371.1094,277.6738 371.3594,277.9395 Q371.625,278.1895 371.625,278.5332 Q371.625,278.877 371.2813,279.2832 Q370.7813,279.8613 369.9844,280.1895 Q368.9063,280.6426 367.6094,280.6426 Q366.0938,280.6426 364.8906,280.0176 Q363.9063,279.5176 363.2188,278.4551 Q362.5313,277.377 362.5313,276.0957 L362.5313,274.9395 Q362.5313,273.6113 363.1406,272.4707 Q363.7656,271.3145 364.8594,270.7051 Q365.9531,270.0801 367.1875,270.0801 Q367.9219,270.0801 368.5625,270.252 Q369.2188,270.4082 369.7656,270.7676 Z " fill="#000000"/><text fill="#000000" font-family="sans-serif" font-size="12" font-style="italic" lengthAdjust="spacing" textLength="100" x="379" y="262.5703">&#171;Aggregate Root&#187;</text><text fill="#000000" font-family="sans-serif" font-size="12" font-style="italic" lengthAdjust="spacing" textLength="44" x="407" y="278.5313">&#171;Entity&#187;</text><text fill="#000000" font-family="sans-serif" font-size="14" lengthAdjust="spacing" textLength="76" x="391" y="296.6504">JobOpening</text><line style="stroke:#181818;stroke-width:0.5;" x1="353" x2="479" y1="305.1641" y2="305.1641"/><line style="stroke:#181818;stroke-width:0.5;" x1="353" x2="479" y1="313.1641" y2="313.1641"/></g><!--class JobReference--><g id="elem_JobReference"><rect codeLine="8" fill="#F1F1F1" height="76.543" id="JobReference" rx="2.5" ry="2.5" style="stroke:#181818;stroke-width:0.5;" width="120" x="23" y="382.6211"/><ellipse cx="38" cy="412.8926" fill="#ADD1B2" rx="11" ry="11" style="stroke:#181818;stroke-width:1.0;"/><path d="M40.7656,408.7676 Q40.9219,408.5488 41.1094,408.4395 Q41.2969,408.3301 41.5156,408.3301 Q41.8906,408.3301 42.125,408.5957 Q42.3594,408.8457 42.3594,409.4551 L42.3594,410.9082 Q42.3594,411.5176 42.125,411.7832 Q41.8906,412.0488 41.5156,412.0488 Q41.1719,412.0488 40.9688,411.8457 Q40.7656,411.6582 40.6563,411.1426 Q40.6094,410.7832 40.4219,410.5957 Q40.0938,410.2207 39.4844,410.002 Q38.875,409.7832 38.25,409.7832 Q37.4844,409.7832 36.8438,410.1113 Q36.2188,410.4395 35.7188,411.1895 Q35.2344,411.9395 35.2344,412.9707 L35.2344,414.0645 Q35.2344,415.2988 36.125,416.127 Q37.0156,416.9395 38.6094,416.9395 Q39.5469,416.9395 40.2031,416.6895 Q40.5938,416.5332 41.0156,416.0957 Q41.2813,415.8301 41.4219,415.752 Q41.5781,415.6738 41.7813,415.6738 Q42.1094,415.6738 42.3594,415.9395 Q42.625,416.1895 42.625,416.5332 Q42.625,416.877 42.2813,417.2832 Q41.7813,417.8613 40.9844,418.1895 Q39.9063,418.6426 38.6094,418.6426 Q37.0938,418.6426 35.8906,418.0176 Q34.9063,417.5176 34.2188,416.4551 Q33.5313,415.377 33.5313,414.0957 L33.5313,412.9395 Q33.5313,411.6113 34.1406,410.4707 Q34.7656,409.3145 35.8594,408.7051 Q36.9531,408.0801 38.1875,408.0801 Q38.9219,408.0801 39.5625,408.252 Q40.2188,408.4082 40.7656,408.7676 Z " fill="#000000"/><text fill="#000000" font-family="sans-serif" font-size="12" font-style="italic" lengthAdjust="spacing" textLength="54" x="69" y="400.5703">&#171;Identity&#187;</text><text fill="#000000" font-family="sans-serif" font-size="12" font-style="italic" lengthAdjust="spacing" textLength="85" x="53.5" y="416.5313">&#171;Value Object&#187;</text><text fill="#000000" font-family="sans-serif" font-size="14" lengthAdjust="spacing" textLength="88" x="52" y="434.6504">JobReference</text><line style="stroke:#181818;stroke-width:0.5;" x1="24" x2="142" y1="443.1641" y2="443.1641"/><line style="stroke:#181818;stroke-width:0.5;" x1="24" x2="142" y1="451.1641" y2="451.1641"/></g><!--class TitleOrFunction--><g id="elem_TitleOrFunction"><rect codeLine="10" fill="#F1F1F1" height="60.582" id="TitleOrFunction" rx="2.5" ry="2.5" style="stroke:#181818;stroke-width:0.5;" width="130" x="178" y="390.6211"/><ellipse cx="193" cy="412.9121" fill="#ADD1B2" rx="11" ry="11" style="stroke:#181818;stroke-width:1.0;"/><path d="M195.7656,408.7871 Q195.9219,408.5684 196.1094,408.459 Q196.2969,408.3496 196.5156,408.3496 Q196.8906,408.3496 197.125,408.6152 Q197.3594,408.8652 197.3594,409.4746 L197.3594,410.9277 Q197.3594,411.5371 197.125,411.8027 Q196.8906,412.0684 196.5156,412.0684 Q196.1719,412.0684 195.9688,411.8652 Q195.7656,411.6777 195.6563,411.1621 Q195.6094,410.8027 195.4219,410.6152 Q195.0938,410.2402 194.4844,410.0215 Q193.875,409.8027 193.25,409.8027 Q192.4844,409.8027 191.8438,410.1309 Q191.2188,410.459 190.7188,411.209 Q190.2344,411.959 190.2344,412.9902 L190.2344,414.084 Q190.2344,415.3184 191.125,416.1465 Q192.0156,416.959 193.6094,416.959 Q194.5469,416.959 195.2031,416.709 Q195.5938,416.5527 196.0156,416.1152 Q196.2813,415.8496 196.4219,415.7715 Q196.5781,415.6934 196.7813,415.6934 Q197.1094,415.6934 197.3594,415.959 Q197.625,416.209 197.625,416.5527 Q197.625,416.8965 197.2813,417.3027 Q196.7813,417.8809 195.9844,418.209 Q194.9063,418.6621 193.6094,418.6621 Q192.0938,418.6621 190.8906,418.0371 Q189.9063,417.5371 189.2188,416.4746 Q188.5313,415.3965 188.5313,414.1152 L188.5313,412.959 Q188.5313,411.6309 189.1406,410.4902 Q189.7656,409.334 190.8594,408.7246 Q191.9531,408.0996 193.1875,408.0996 Q193.9219,408.0996 194.5625,408.2715 Q195.2188,408.4277 195.7656,408.7871 Z " fill="#000000"/><text fill="#000000" font-family="sans-serif" font-size="12" font-style="italic" lengthAdjust="spacing" textLength="85" x="213.5" y="408.5703">&#171;Value Object&#187;</text><text fill="#000000" font-family="sans-serif" font-size="14" lengthAdjust="spacing" textLength="98" x="207" y="426.6895">TitleOrFunction</text><line style="stroke:#181818;stroke-width:0.5;" x1="179" x2="307" y1="435.2031" y2="435.2031"/><line style="stroke:#181818;stroke-width:0.5;" x1="179" x2="307" y1="443.2031" y2="443.2031"/></g><!--class ContractType--><g id="elem_ContractType"><rect codeLine="12" fill="#F1F1F1" height="76.543" id="ContractType" rx="2.5" ry="2.5" style="stroke:#181818;stroke-width:0.5;" width="118" x="508" y="83.6211"/><ellipse cx="523" cy="113.8926" fill="#EB937F" rx="11" ry="11" style="stroke:#181818;stroke-width:1.0;"/><path d="M521.8594,114.6895 L521.8594,117.1895 L526.1875,117.1895 L526.1875,116.2676 Q526.1875,115.6582 526.4219,115.3926 Q526.6719,115.127 527.0469,115.127 Q527.4219,115.127 527.6563,115.3926 Q527.8906,115.6582 527.8906,116.2676 L527.8906,118.8926 L519.8906,118.8926 Q519.2656,118.8926 519,118.6582 Q518.75,118.4238 518.75,118.0332 Q518.75,117.6582 519.0156,117.4238 Q519.2813,117.1895 519.8906,117.1895 L520.1563,117.1895 L520.1563,110.5332 L519.8906,110.5332 Q519.2656,110.5332 519,110.2988 Q518.75,110.0645 518.75,109.6738 Q518.75,109.2988 519,109.0645 Q519.2656,108.8301 519.8906,108.8301 L527.5156,108.8301 L527.5156,111.4238 Q527.5156,112.0332 527.2813,112.2988 Q527.0625,112.5488 526.6719,112.5488 Q526.2969,112.5488 526.0625,112.2988 Q525.8281,112.0332 525.8281,111.4238 L525.8281,110.5332 L521.8594,110.5332 L521.8594,112.9863 L523.3438,112.9863 Q523.3438,112.3301 523.4688,112.1426 Q523.7344,111.7363 524.2031,111.7363 Q524.5781,111.7363 524.8125,112.002 Q525.0469,112.252 525.0469,112.8613 L525.0469,114.8301 Q525.0469,115.377 524.9219,115.5645 Q524.6563,115.9551 524.2031,115.9551 Q523.7344,115.9551 523.4688,115.5488 Q523.3438,115.3613 523.3438,114.6895 L521.8594,114.6895 Z " fill="#000000"/><text fill="#000000" font-family="sans-serif" font-size="12" font-style="italic" lengthAdjust="spacing" textLength="82" x="539" y="101.5703">&#171;Enumerated&#187;</text><text fill="#000000" font-family="sans-serif" font-size="12" font-style="italic" lengthAdjust="spacing" textLength="85" x="537.5" y="117.5313">&#171;Value Object&#187;</text><text fill="#000000" font-family="sans-serif" font-size="14" lengthAdjust="spacing" textLength="86" x="537" y="135.6504">ContractType</text><line style="stroke:#181818;stroke-width:0.5;" x1="509" x2="625" y1="144.1641" y2="144.1641"/><line style="stroke:#181818;stroke-width:0.5;" x1="509" x2="625" y1="152.1641" y2="152.1641"/></g><!--class Mode--><g id="elem_Mode"><rect codeLine="14" fill="#F1F1F1" height="76.543" id="Mode" rx="2.5" ry="2.5" style="stroke:#181818;stroke-width:0.5;" width="113" x="359.5" y="83.6211"/><ellipse cx="374.5" cy="113.8926" fill="#ADD1B2" rx="11" ry="11" style="stroke:#181818;stroke-width:1.0;"/><path d="M377.2656,109.7676 Q377.4219,109.5488 377.6094,109.4395 Q377.7969,109.3301 378.0156,109.3301 Q378.3906,109.3301 378.625,109.5957 Q378.8594,109.8457 378.8594,110.4551 L378.8594,111.9082 Q378.8594,112.5176 378.625,112.7832 Q378.3906,113.0488 378.0156,113.0488 Q377.6719,113.0488 377.4688,112.8457 Q377.2656,112.6582 377.1563,112.1426 Q377.1094,111.7832 376.9219,111.5957 Q376.5938,111.2207 375.9844,111.002 Q375.375,110.7832 374.75,110.7832 Q373.9844,110.7832 373.3438,111.1113 Q372.7188,111.4395 372.2188,112.1895 Q371.7344,112.9395 371.7344,113.9707 L371.7344,115.0645 Q371.7344,116.2988 372.625,117.127 Q373.5156,117.9395 375.1094,117.9395 Q376.0469,117.9395 376.7031,117.6895 Q377.0938,117.5332 377.5156,117.0957 Q377.7813,116.8301 377.9219,116.752 Q378.0781,116.6738 378.2813,116.6738 Q378.6094,116.6738 378.8594,116.9395 Q379.125,117.1895 379.125,117.5332 Q379.125,117.877 378.7813,118.2832 Q378.2813,118.8613 377.4844,119.1895 Q376.4063,119.6426 375.1094,119.6426 Q373.5938,119.6426 372.3906,119.0176 Q371.4063,118.5176 370.7188,117.4551 Q370.0313,116.377 370.0313,115.0957 L370.0313,113.9395 Q370.0313,112.6113 370.6406,111.4707 Q371.2656,110.3145 372.3594,109.7051 Q373.4531,109.0801 374.6875,109.0801 Q375.4219,109.0801 376.0625,109.252 Q376.7188,109.4082 377.2656,109.7676 Z " fill="#000000"/><text fill="#000000" font-family="sans-serif" font-size="12" font-style="italic" lengthAdjust="spacing" textLength="82" x="388" y="101.5703">&#171;Enumerated&#187;</text><text fill="#000000" font-family="sans-serif" font-size="12" font-style="italic" lengthAdjust="spacing" textLength="85" x="386.5" y="117.5313">&#171;Value Object&#187;</text><text fill="#000000" font-family="sans-serif" font-size="14" lengthAdjust="spacing" textLength="35" x="411.5" y="135.6504">Mode</text><line style="stroke:#181818;stroke-width:0.5;" x1="360.5" x2="471.5" y1="144.1641" y2="144.1641"/><line style="stroke:#181818;stroke-width:0.5;" x1="360.5" x2="471.5" y1="152.1641" y2="152.1641"/></g><!--class VacanciesNumber--><g id="elem_VacanciesNumber"><rect codeLine="17" fill="#F1F1F1" height="60.582" id="VacanciesNumber" rx="2.5" ry="2.5" style="stroke:#181818;stroke-width:0.5;" width="146" x="343" y="390.6211"/><ellipse cx="358" cy="412.9121" fill="#ADD1B2" rx="11" ry="11" style="stroke:#181818;stroke-width:1.0;"/><path d="M360.7656,408.7871 Q360.9219,408.5684 361.1094,408.459 Q361.2969,408.3496 361.5156,408.3496 Q361.8906,408.3496 362.125,408.6152 Q362.3594,408.8652 362.3594,409.4746 L362.3594,410.9277 Q362.3594,411.5371 362.125,411.8027 Q361.8906,412.0684 361.5156,412.0684 Q361.1719,412.0684 360.9688,411.8652 Q360.7656,411.6777 360.6563,411.1621 Q360.6094,410.8027 360.4219,410.6152 Q360.0938,410.2402 359.4844,410.0215 Q358.875,409.8027 358.25,409.8027 Q357.4844,409.8027 356.8438,410.1309 Q356.2188,410.459 355.7188,411.209 Q355.2344,411.959 355.2344,412.9902 L355.2344,414.084 Q355.2344,415.3184 356.125,416.1465 Q357.0156,416.959 358.6094,416.959 Q359.5469,416.959 360.2031,416.709 Q360.5938,416.5527 361.0156,416.1152 Q361.2813,415.8496 361.4219,415.7715 Q361.5781,415.6934 361.7813,415.6934 Q362.1094,415.6934 362.3594,415.959 Q362.625,416.209 362.625,416.5527 Q362.625,416.8965 362.2813,417.3027 Q361.7813,417.8809 360.9844,418.209 Q359.9063,418.6621 358.6094,418.6621 Q357.0938,418.6621 355.8906,418.0371 Q354.9063,417.5371 354.2188,416.4746 Q353.5313,415.3965 353.5313,414.1152 L353.5313,412.959 Q353.5313,411.6309 354.1406,410.4902 Q354.7656,409.334 355.8594,408.7246 Q356.9531,408.0996 358.1875,408.0996 Q358.9219,408.0996 359.5625,408.2715 Q360.2188,408.4277 360.7656,408.7871 Z " fill="#000000"/><text fill="#000000" font-family="sans-serif" font-size="12" font-style="italic" lengthAdjust="spacing" textLength="85" x="386.5" y="408.5703">&#171;Value Object&#187;</text><text fill="#000000" font-family="sans-serif" font-size="14" lengthAdjust="spacing" textLength="114" x="372" y="426.6895">VacanciesNumber</text><line style="stroke:#181818;stroke-width:0.5;" x1="344" x2="488" y1="435.2031" y2="435.2031"/><line style="stroke:#181818;stroke-width:0.5;" x1="344" x2="488" y1="443.2031" y2="443.2031"/></g><!--class Description--><g id="elem_Description"><rect codeLine="19" fill="#F1F1F1" height="60.582" id="Description" rx="2.5" ry="2.5" style="stroke:#181818;stroke-width:0.5;" width="113" x="524.5" y="390.6211"/><ellipse cx="539.5" cy="412.9121" fill="#ADD1B2" rx="11" ry="11" style="stroke:#181818;stroke-width:1.0;"/><path d="M542.2656,408.7871 Q542.4219,408.5684 542.6094,408.459 Q542.7969,408.3496 543.0156,408.3496 Q543.3906,408.3496 543.625,408.6152 Q543.8594,408.8652 543.8594,409.4746 L543.8594,410.9277 Q543.8594,411.5371 543.625,411.8027 Q543.3906,412.0684 543.0156,412.0684 Q542.6719,412.0684 542.4688,411.8652 Q542.2656,411.6777 542.1563,411.1621 Q542.1094,410.8027 541.9219,410.6152 Q541.5938,410.2402 540.9844,410.0215 Q540.375,409.8027 539.75,409.8027 Q538.9844,409.8027 538.3438,410.1309 Q537.7188,410.459 537.2188,411.209 Q536.7344,411.959 536.7344,412.9902 L536.7344,414.084 Q536.7344,415.3184 537.625,416.1465 Q538.5156,416.959 540.1094,416.959 Q541.0469,416.959 541.7031,416.709 Q542.0938,416.5527 542.5156,416.1152 Q542.7813,415.8496 542.9219,415.7715 Q543.0781,415.6934 543.2813,415.6934 Q543.6094,415.6934 543.8594,415.959 Q544.125,416.209 544.125,416.5527 Q544.125,416.8965 543.7813,417.3027 Q543.2813,417.8809 542.4844,418.209 Q541.4063,418.6621 540.1094,418.6621 Q538.5938,418.6621 537.3906,418.0371 Q536.4063,417.5371 535.7188,416.4746 Q535.0313,415.3965 535.0313,414.1152 L535.0313,412.959 Q535.0313,411.6309 535.6406,410.4902 Q536.2656,409.334 537.3594,408.7246 Q538.4531,408.0996 539.6875,408.0996 Q540.4219,408.0996 541.0625,408.2715 Q541.7188,408.4277 542.2656,408.7871 Z " fill="#000000"/><text fill="#000000" font-family="sans-serif" font-size="12" font-style="italic" lengthAdjust="spacing" textLength="85" x="551.5" y="408.5703">&#171;Value Object&#187;</text><text fill="#000000" font-family="sans-serif" font-size="14" lengthAdjust="spacing" textLength="71" x="558.5" y="426.6895">Description</text><line style="stroke:#181818;stroke-width:0.5;" x1="525.5" x2="636.5" y1="435.2031" y2="435.2031"/><line style="stroke:#181818;stroke-width:0.5;" x1="525.5" x2="636.5" y1="443.2031" y2="443.2031"/></g><!--class Phase--><g id="elem_Phase"><rect codeLine="21" fill="#F1F1F1" height="60.582" id="Phase" rx="2.5" ry="2.5" style="stroke:#181818;stroke-width:0.5;" width="113" x="211.5" y="91.6211"/><ellipse cx="226.5" cy="113.9121" fill="#ADD1B2" rx="11" ry="11" style="stroke:#181818;stroke-width:1.0;"/><path d="M229.2656,109.7871 Q229.4219,109.5684 229.6094,109.459 Q229.7969,109.3496 230.0156,109.3496 Q230.3906,109.3496 230.625,109.6152 Q230.8594,109.8652 230.8594,110.4746 L230.8594,111.9277 Q230.8594,112.5371 230.625,112.8027 Q230.3906,113.0684 230.0156,113.0684 Q229.6719,113.0684 229.4688,112.8652 Q229.2656,112.6777 229.1563,112.1621 Q229.1094,111.8027 228.9219,111.6152 Q228.5938,111.2402 227.9844,111.0215 Q227.375,110.8027 226.75,110.8027 Q225.9844,110.8027 225.3438,111.1309 Q224.7188,111.459 224.2188,112.209 Q223.7344,112.959 223.7344,113.9902 L223.7344,115.084 Q223.7344,116.3184 224.625,117.1465 Q225.5156,117.959 227.1094,117.959 Q228.0469,117.959 228.7031,117.709 Q229.0938,117.5527 229.5156,117.1152 Q229.7813,116.8496 229.9219,116.7715 Q230.0781,116.6934 230.2813,116.6934 Q230.6094,116.6934 230.8594,116.959 Q231.125,117.209 231.125,117.5527 Q231.125,117.8965 230.7813,118.3027 Q230.2813,118.8809 229.4844,119.209 Q228.4063,119.6621 227.1094,119.6621 Q225.5938,119.6621 224.3906,119.0371 Q223.4063,118.5371 222.7188,117.4746 Q222.0313,116.3965 222.0313,115.1152 L222.0313,113.959 Q222.0313,112.6309 222.6406,111.4902 Q223.2656,110.334 224.3594,109.7246 Q225.4531,109.0996 226.6875,109.0996 Q227.4219,109.0996 228.0625,109.2715 Q228.7188,109.4277 229.2656,109.7871 Z " fill="#000000"/><text fill="#000000" font-family="sans-serif" font-size="12" font-style="italic" lengthAdjust="spacing" textLength="85" x="238.5" y="109.5703">&#171;Value Object&#187;</text><text fill="#000000" font-family="sans-serif" font-size="14" lengthAdjust="spacing" textLength="40" x="261" y="127.6895">Phase</text><line style="stroke:#181818;stroke-width:0.5;" x1="212.5" x2="323.5" y1="136.2031" y2="136.2031"/><line style="stroke:#181818;stroke-width:0.5;" x1="212.5" x2="323.5" y1="144.2031" y2="144.2031"/></g><!--class Customer--><g id="elem_Customer"><rect codeLine="26" fill="#F1F1F1" height="76.543" id="Customer" rx="2.5" ry="2.5" style="stroke:#181818;stroke-width:0.5;" width="128" x="694" y="244.6211"/><ellipse cx="709" cy="274.8926" fill="#ADD1B2" rx="11" ry="11" style="stroke:#181818;stroke-width:1.0;"/><path d="M711.7656,270.7676 Q711.9219,270.5488 712.1094,270.4395 Q712.2969,270.3301 712.5156,270.3301 Q712.8906,270.3301 713.125,270.5957 Q713.3594,270.8457 713.3594,271.4551 L713.3594,272.9082 Q713.3594,273.5176 713.125,273.7832 Q712.8906,274.0488 712.5156,274.0488 Q712.1719,274.0488 711.9688,273.8457 Q711.7656,273.6582 711.6563,273.1426 Q711.6094,272.7832 711.4219,272.5957 Q711.0938,272.2207 710.4844,272.002 Q709.875,271.7832 709.25,271.7832 Q708.4844,271.7832 707.8438,272.1113 Q707.2188,272.4395 706.7188,273.1895 Q706.2344,273.9395 706.2344,274.9707 L706.2344,276.0645 Q706.2344,277.2988 707.125,278.127 Q708.0156,278.9395 709.6094,278.9395 Q710.5469,278.9395 711.2031,278.6895 Q711.5938,278.5332 712.0156,278.0957 Q712.2813,277.8301 712.4219,277.752 Q712.5781,277.6738 712.7813,277.6738 Q713.1094,277.6738 713.3594,277.9395 Q713.625,278.1895 713.625,278.5332 Q713.625,278.877 713.2813,279.2832 Q712.7813,279.8613 711.9844,280.1895 Q710.9063,280.6426 709.6094,280.6426 Q708.0938,280.6426 706.8906,280.0176 Q705.9063,279.5176 705.2188,278.4551 Q704.5313,277.377 704.5313,276.0957 L704.5313,274.9395 Q704.5313,273.6113 705.1406,272.4707 Q705.7656,271.3145 706.8594,270.7051 Q707.9531,270.0801 709.1875,270.0801 Q709.9219,270.0801 710.5625,270.252 Q711.2188,270.4082 711.7656,270.7676 Z " fill="#000000"/><text fill="#000000" font-family="sans-serif" font-size="12" font-style="italic" lengthAdjust="spacing" textLength="100" x="721" y="262.5703">&#171;Aggregate Root&#187;</text><text fill="#000000" font-family="sans-serif" font-size="12" font-style="italic" lengthAdjust="spacing" textLength="44" x="749" y="278.5313">&#171;Entity&#187;</text><text fill="#000000" font-family="sans-serif" font-size="14" lengthAdjust="spacing" textLength="61" x="740.5" y="296.6504">Customer</text><line style="stroke:#181818;stroke-width:0.5;" x1="695" x2="821" y1="305.1641" y2="305.1641"/><line style="stroke:#181818;stroke-width:0.5;" x1="695" x2="821" y1="313.1641" y2="313.1641"/></g><!--class CustomerId--><g id="elem_CustomerId"><rect codeLine="27" fill="#F1F1F1" height="76.543" id="CustomerId" rx="2.5" ry="2.5" style="stroke:#181818;stroke-width:0.5;" width="113" x="701.5" y="382.6211"/><ellipse cx="716.5" cy="412.8926" fill="#ADD1B2" rx="11" ry="11" style="stroke:#181818;stroke-width:1.0;"/><path d="M719.2656,408.7676 Q719.4219,408.5488 719.6094,408.4395 Q719.7969,408.3301 720.0156,408.3301 Q720.3906,408.3301 720.625,408.5957 Q720.8594,408.8457 720.8594,409.4551 L720.8594,410.9082 Q720.8594,411.5176 720.625,411.7832 Q720.3906,412.0488 720.0156,412.0488 Q719.6719,412.0488 719.4688,411.8457 Q719.2656,411.6582 719.1563,411.1426 Q719.1094,410.7832 718.9219,410.5957 Q718.5938,410.2207 717.9844,410.002 Q717.375,409.7832 716.75,409.7832 Q715.9844,409.7832 715.3438,410.1113 Q714.7188,410.4395 714.2188,411.1895 Q713.7344,411.9395 713.7344,412.9707 L713.7344,414.0645 Q713.7344,415.2988 714.625,416.127 Q715.5156,416.9395 717.1094,416.9395 Q718.0469,416.9395 718.7031,416.6895 Q719.0938,416.5332 719.5156,416.0957 Q719.7813,415.8301 719.9219,415.752 Q720.0781,415.6738 720.2813,415.6738 Q720.6094,415.6738 720.8594,415.9395 Q721.125,416.1895 721.125,416.5332 Q721.125,416.877 720.7813,417.2832 Q720.2813,417.8613 719.4844,418.1895 Q718.4063,418.6426 717.1094,418.6426 Q715.5938,418.6426 714.3906,418.0176 Q713.4063,417.5176 712.7188,416.4551 Q712.0313,415.377 712.0313,414.0957 L712.0313,412.9395 Q712.0313,411.6113 712.6406,410.4707 Q713.2656,409.3145 714.3594,408.7051 Q715.4531,408.0801 716.6875,408.0801 Q717.4219,408.0801 718.0625,408.252 Q718.7188,408.4082 719.2656,408.7676 Z " fill="#000000"/><text fill="#000000" font-family="sans-serif" font-size="12" font-style="italic" lengthAdjust="spacing" textLength="54" x="744" y="400.5703">&#171;Identity&#187;</text><text fill="#000000" font-family="sans-serif" font-size="12" font-style="italic" lengthAdjust="spacing" textLength="85" x="728.5" y="416.5313">&#171;Value Object&#187;</text><text fill="#000000" font-family="sans-serif" font-size="14" lengthAdjust="spacing" textLength="72" x="735" y="434.6504">CustomerId</text><line style="stroke:#181818;stroke-width:0.5;" x1="702.5" x2="813.5" y1="443.1641" y2="443.1641"/><line style="stroke:#181818;stroke-width:0.5;" x1="702.5" x2="813.5" y1="451.1641" y2="451.1641"/></g><!--link JobOpening to Customer--><g id="link_JobOpening_Customer"><path codeLine="30" d="M480.33,283.1211 C541.47,283.1211 626.91,283.1211 687.96,283.1211 " fill="none" id="JobOpening-to-Customer" style="stroke:#181818;stroke-width:1.0;"/><polygon fill="#181818" points="693.96,283.1211,684.96,279.1211,688.96,283.1211,684.96,287.1211,693.96,283.1211" style="stroke:#181818;stroke-width:1.0;"/><text fill="#000000" font-family="sans-serif" font-size="13" lengthAdjust="spacing" textLength="36" x="569" y="276.1494">set by</text><text fill="#000000" font-family="sans-serif" font-size="13" lengthAdjust="spacing" textLength="5" x="488.0572" y="279.2098">*</text><text fill="#000000" font-family="sans-serif" font-size="13" lengthAdjust="spacing" textLength="7" x="679.1507" y="279.2098">1</text></g><!--link Customer to CustomerId--><g id="link_Customer_CustomerId"><path codeLine="31" d="M758,321.6411 C758,340.5111 758,357.3311 758,376.2511 " fill="none" id="Customer-to-CustomerId" style="stroke:#181818;stroke-width:1.0;"/><polygon fill="#181818" points="758,382.2511,762,373.2511,758,377.2511,754,373.2511,758,382.2511" style="stroke:#181818;stroke-width:1.0;"/><text fill="#000000" font-family="sans-serif" font-size="13" lengthAdjust="spacing" textLength="7" x="750.4422" y="343.2228">1</text><text fill="#000000" font-family="sans-serif" font-size="13" lengthAdjust="spacing" textLength="7" x="750.4203" y="371.4957">1</text></g><!--link JobOpening to JobReference--><g id="link_JobOpening_JobReference"><path codeLine="36" d="M351.77,307.3211 C299.86,326.4511 225.14,354.8711 161,382.6211 C155.21,385.1311 154.6696,385.3108 148.6996,388.0608 " fill="none" id="JobOpening-to-JobReference" style="stroke:#181818;stroke-width:1.0;"/><polygon fill="#181818" points="143.25,390.5711,153.098,390.4387,147.7914,388.4792,149.7509,383.1726,143.25,390.5711" style="stroke:#181818;stroke-width:1.0;"/><text fill="#000000" font-family="sans-serif" font-size="13" lengthAdjust="spacing" textLength="7" x="336.9387" y="306.208">1</text><text fill="#000000" font-family="sans-serif" font-size="13" lengthAdjust="spacing" textLength="7" x="151.0195" y="382.8858">1</text></g><!--link JobOpening to TitleOrFunction--><g id="link_JobOpening_TitleOrFunction"><path codeLine="37" d="M368.27,321.6411 C340.67,343.3411 311.1364,366.5522 285.4364,386.7622 " fill="none" id="JobOpening-to-TitleOrFunction" style="stroke:#181818;stroke-width:1.0;"/><polygon fill="#181818" points="280.72,390.4711,290.2672,388.052,284.6503,387.3804,285.322,381.7635,280.72,390.4711" style="stroke:#181818;stroke-width:1.0;"/><text fill="#000000" font-family="sans-serif" font-size="13" lengthAdjust="spacing" textLength="7" x="353.1052" y="343.2228">1</text><text fill="#000000" font-family="sans-serif" font-size="13" lengthAdjust="spacing" textLength="7" x="280.7779" y="379.4978">1</text></g><!--reverse link ContractType to JobOpening--><g id="link_ContractType_JobOpening"><path codeLine="38" d="M527.0873,165.1509 C503.0973,190.4009 475.77,219.1811 451.79,244.4311 " fill="none" id="ContractType-backto-JobOpening" style="stroke:#181818;stroke-width:1.0;"/><polygon fill="#181818" points="531.22,160.8011,522.1211,164.5706,527.7761,164.4259,527.9208,170.0809,531.22,160.8011" style="stroke:#181818;stroke-width:1.0;"/><text fill="#000000" font-family="sans-serif" font-size="13" lengthAdjust="spacing" textLength="7" x="518.2053" y="182.1111">1</text><text fill="#000000" font-family="sans-serif" font-size="13" lengthAdjust="spacing" textLength="7" x="450.3398" y="233.4129">1</text></g><!--reverse link Mode to JobOpening--><g id="link_Mode_JobOpening"><path codeLine="39" d="M416,166.8011 C416,192.0511 416,219.1811 416,244.4311 " fill="none" id="Mode-backto-JobOpening" style="stroke:#181818;stroke-width:1.0;"/><polygon fill="#181818" points="416,160.8011,412,169.8011,416,165.8011,420,169.8011,416,160.8011" style="stroke:#181818;stroke-width:1.0;"/><text fill="#000000" font-family="sans-serif" font-size="13" lengthAdjust="spacing" textLength="7" x="408.4641" y="182.1111">1</text><text fill="#000000" font-family="sans-serif" font-size="13" lengthAdjust="spacing" textLength="7" x="408.3984" y="233.4129">1</text></g><!--link JobOpening to Description--><g id="link_JobOpening_Description"><path codeLine="40" d="M461.52,321.6411 C487.85,343.3411 515.88,366.4449 540.4,386.6549 " fill="none" id="JobOpening-to-Description" style="stroke:#181818;stroke-width:1.0;"/><polygon fill="#181818" points="545.03,390.4711,540.6291,381.6602,541.1717,387.291,535.5409,387.8335,545.03,390.4711" style="stroke:#181818;stroke-width:1.0;"/><text fill="#000000" font-family="sans-serif" font-size="13" lengthAdjust="spacing" textLength="7" x="461.2169" y="343.2228">1</text><text fill="#000000" font-family="sans-serif" font-size="13" lengthAdjust="spacing" textLength="7" x="529.8893" y="379.4978">1</text></g><!--link JobOpening to VacanciesNumber--><g id="link_JobOpening_VacanciesNumber"><path codeLine="41" d="M416,321.6411 C416,343.3411 416,364.2611 416,384.4711 " fill="none" id="JobOpening-to-VacanciesNumber" style="stroke:#181818;stroke-width:1.0;"/><polygon fill="#181818" points="416,390.4711,420,381.4711,416,385.4711,412,381.4711,416,390.4711" style="stroke:#181818;stroke-width:1.0;"/><text fill="#000000" font-family="sans-serif" font-size="13" lengthAdjust="spacing" textLength="7" x="408.4422" y="343.2228">1</text><text fill="#000000" font-family="sans-serif" font-size="13" lengthAdjust="spacing" textLength="7" x="408.2781" y="379.4978">1</text></g><!--reverse link Phase to JobOpening--><g id="link_Phase_JobOpening"><path codeLine="42" d="M299.5776,157.0433 C323.7376,183.0033 354.93,216.5111 381.08,244.6111 " fill="none" id="Phase-backto-JobOpening" style="stroke:#181818;stroke-width:1.0;"/><polygon fill="#181818" points="295.49,152.6511,298.6933,161.9645,298.8964,156.3112,304.5496,156.5143,295.49,152.6511" style="stroke:#181818;stroke-width:1.0;"/><text fill="#000000" font-family="sans-serif" font-size="13" lengthAdjust="spacing" textLength="7" x="293.0631" y="174.1871">1</text><text fill="#000000" font-family="sans-serif" font-size="13" lengthAdjust="spacing" textLength="7" x="367.2364" y="233.3324">1</text></g><!--SRC=[ZP9VIyCm5CNVyoakzM4W5AQ-IIZ8LAWm9tFkFKclDT8c9NySPUoxcspJbSvkvYda_cxEISvTI5SXmDlhpNXyJOX1uPWgmr7of3dC6bHIbGbSS2u4Ox0c1C8I5RCM0h47ABqhIuCbSmXphLsMKVgWd7HjbgqtlPuvlgD19P3IlC0zHUcILHvXnZ-3XNxN8hgScKUlX9DQ3S6eV0qJhPnXmYtQ1gCBNwC9lefp6bDT_8FlD2oPO4f8jC- -vcXEttwFLXZPd7A_0ry-c4NuWud8Q3HbBKSeDJWDkN9elYIkjjuhGZQT_8ItJeUdnEWO4sBTqPZyrCxaTjoH5sT22syvZ0Kabmca6IHNoK7p5Ymwu2tvFOdbj8Vb1OchEoxREarzasvt1ndI6uzXi3iRU-g8YNyvLEkaE2pIcujXS1VrhbpebUe3tm00]--></g></svg>