<?xml version="1.0" encoding="us-ascii" standalone="no"?><svg xmlns="http://www.w3.org/2000/svg" xmlns:xlink="http://www.w3.org/1999/xlink" contentStyleType="text/css" height="782px" preserveAspectRatio="none" style="width:1414px;height:782px;background:#FFFFFF;" version="1.1" viewBox="0 0 1414 782" width="1414px" zoomAndPan="magnify"><defs/><g><text fill="#000000" font-family="sans-serif" font-size="14" font-weight="bold" lengthAdjust="spacing" textLength="257" x="580.25" y="30.1074">Register Teacher Sequence Diagram</text><rect fill="#FFFFFF" height="512.9473" style="stroke:#181818;stroke-width:1.0;" width="10" x="290.5" y="161.1543"/><rect fill="#FFFFFF" height="312.9102" style="stroke:#181818;stroke-width:1.0;" width="10" x="575.5" y="320.9004"/><rect fill="#FFFFFF" height="62.582" style="stroke:#181818;stroke-width:1.0;" width="10" x="790.5" y="352.1914"/><rect fill="#FFFFFF" height="62.582" style="stroke:#181818;stroke-width:1.0;" width="10" x="964" y="508.6465"/><line style="stroke:#181818;stroke-width:0.5;stroke-dasharray:5.0,5.0;" x1="66" x2="66" y1="127.8633" y2="683.1016"/><line style="stroke:#181818;stroke-width:0.5;stroke-dasharray:5.0,5.0;" x1="295.5" x2="295.5" y1="127.8633" y2="683.1016"/><line style="stroke:#181818;stroke-width:0.5;stroke-dasharray:5.0,5.0;" x1="580.5" x2="580.5" y1="127.8633" y2="683.1016"/><line style="stroke:#181818;stroke-width:0.5;stroke-dasharray:5.0,5.0;" x1="795.5" x2="795.5" y1="127.8633" y2="683.1016"/><line style="stroke:#181818;stroke-width:0.5;stroke-dasharray:5.0,5.0;" x1="968.5" x2="968.5" y1="127.8633" y2="683.1016"/><line style="stroke:#181818;stroke-width:0.5;stroke-dasharray:5.0,5.0;" x1="1110.5" x2="1110.5" y1="127.8633" y2="683.1016"/><line style="stroke:#181818;stroke-width:0.5;stroke-dasharray:5.0,5.0;" x1="1209.5" x2="1209.5" y1="127.8633" y2="683.1016"/><line style="stroke:#181818;stroke-width:0.5;stroke-dasharray:5.0,5.0;" x1="1338.5" x2="1338.5" y1="127.8633" y2="683.1016"/><text fill="#000000" font-family="sans-serif" font-size="14" lengthAdjust="spacing" textLength="117" x="5" y="124.3496">CustomerManager</text><ellipse cx="66.5" cy="57.7422" fill="#E2E2F0" rx="8" ry="8" style="stroke:#181818;stroke-width:0.5;"/><path d="M66.5,65.7422 L66.5,92.7422 M53.5,73.7422 L79.5,73.7422 M66.5,92.7422 L53.5,107.7422 M66.5,92.7422 L79.5,107.7422 " fill="none" style="stroke:#181818;stroke-width:0.5;"/><text fill="#000000" font-family="sans-serif" font-size="14" lengthAdjust="spacing" textLength="117" x="5" y="697.209">CustomerManager</text><ellipse cx="66.5" cy="709.2227" fill="#E2E2F0" rx="8" ry="8" style="stroke:#181818;stroke-width:0.5;"/><path d="M66.5,717.2227 L66.5,744.2227 M53.5,725.2227 L79.5,725.2227 M66.5,744.2227 L53.5,759.2227 M66.5,744.2227 L79.5,759.2227 " fill="none" style="stroke:#181818;stroke-width:0.5;"/><rect fill="#E2E2F0" height="51.2422" rx="2.5" ry="2.5" style="stroke:#181818;stroke-width:0.5;" width="196" x="197.5" y="75.6211"/><text fill="#000000" font-family="sans-serif" font-size="14" font-style="italic" lengthAdjust="spacing" textLength="27" x="282" y="97.7285">&#171;ui&#187;</text><text fill="#000000" font-family="sans-serif" font-size="14" lengthAdjust="spacing" textLength="182" x="204.5" y="116.3496">RegisterCostumerManagerUI</text><rect fill="#E2E2F0" height="51.2422" rx="2.5" ry="2.5" style="stroke:#181818;stroke-width:0.5;" width="196" x="197.5" y="682.1016"/><text fill="#000000" font-family="sans-serif" font-size="14" font-style="italic" lengthAdjust="spacing" textLength="27" x="282" y="704.209">&#171;ui&#187;</text><text fill="#000000" font-family="sans-serif" font-size="14" lengthAdjust="spacing" textLength="182" x="204.5" y="722.8301">RegisterCostumerManagerUI</text><rect fill="#E2E2F0" height="51.2422" rx="2.5" ry="2.5" style="stroke:#181818;stroke-width:0.5;" width="246" x="457.5" y="75.6211"/><text fill="#000000" font-family="sans-serif" font-size="14" font-style="italic" lengthAdjust="spacing" textLength="84" x="538.5" y="97.7285">&#171;application&#187;</text><text fill="#000000" font-family="sans-serif" font-size="14" lengthAdjust="spacing" textLength="232" x="464.5" y="116.3496">RegisterCostumerManagerController</text><rect fill="#E2E2F0" height="51.2422" rx="2.5" ry="2.5" style="stroke:#181818;stroke-width:0.5;" width="246" x="457.5" y="682.1016"/><text fill="#000000" font-family="sans-serif" font-size="14" font-style="italic" lengthAdjust="spacing" textLength="84" x="538.5" y="704.209">&#171;application&#187;</text><text fill="#000000" font-family="sans-serif" font-size="14" lengthAdjust="spacing" textLength="232" x="464.5" y="722.8301">RegisterCostumerManagerController</text><rect fill="#E2E2F0" height="51.2422" rx="2.5" ry="2.5" style="stroke:#181818;stroke-width:0.5;" width="152" x="719.5" y="75.6211"/><text fill="#000000" font-family="sans-serif" font-size="14" font-style="italic" lengthAdjust="spacing" textLength="59" x="766" y="97.7285">&#171;factory&#187;</text><text fill="#000000" font-family="sans-serif" font-size="14" lengthAdjust="spacing" textLength="138" x="726.5" y="116.3496">Jobs4UBuilderFactory</text><rect fill="#E2E2F0" height="51.2422" rx="2.5" ry="2.5" style="stroke:#181818;stroke-width:0.5;" width="152" x="719.5" y="682.1016"/><text fill="#000000" font-family="sans-serif" font-size="14" font-style="italic" lengthAdjust="spacing" textLength="59" x="766" y="704.209">&#171;factory&#187;</text><text fill="#000000" font-family="sans-serif" font-size="14" lengthAdjust="spacing" textLength="138" x="726.5" y="722.8301">Jobs4UBuilderFactory</text><rect fill="#E2E2F0" height="51.2422" rx="2.5" ry="2.5" style="stroke:#181818;stroke-width:0.5;" width="175" x="881.5" y="75.6211"/><text fill="#000000" font-family="sans-serif" font-size="14" font-style="italic" lengthAdjust="spacing" textLength="59" x="939.5" y="97.7285">&#171;builder&#187;</text><text fill="#000000" font-family="sans-serif" font-size="14" lengthAdjust="spacing" textLength="161" x="888.5" y="116.3496">CostumerManagerBuilder</text><rect fill="#E2E2F0" height="51.2422" rx="2.5" ry="2.5" style="stroke:#181818;stroke-width:0.5;" width="175" x="881.5" y="682.1016"/><text fill="#000000" font-family="sans-serif" font-size="14" font-style="italic" lengthAdjust="spacing" textLength="59" x="939.5" y="704.209">&#171;builder&#187;</text><text fill="#000000" font-family="sans-serif" font-size="14" lengthAdjust="spacing" textLength="161" x="888.5" y="722.8301">CostumerManagerBuilder</text><rect fill="#E2E2F0" height="51.2422" rx="2.5" ry="2.5" style="stroke:#181818;stroke-width:0.5;" width="89" x="1066.5" y="75.6211"/><text fill="#000000" font-family="sans-serif" font-size="14" font-style="italic" lengthAdjust="spacing" textLength="62" x="1080" y="97.7285">&#171;f_entity&#187;</text><text fill="#000000" font-family="sans-serif" font-size="14" lengthAdjust="spacing" textLength="75" x="1073.5" y="116.3496">SystemUser</text><rect fill="#E2E2F0" height="51.2422" rx="2.5" ry="2.5" style="stroke:#181818;stroke-width:0.5;" width="89" x="1066.5" y="682.1016"/><text fill="#000000" font-family="sans-serif" font-size="14" font-style="italic" lengthAdjust="spacing" textLength="62" x="1080" y="704.209">&#171;f_entity&#187;</text><text fill="#000000" font-family="sans-serif" font-size="14" lengthAdjust="spacing" textLength="75" x="1073.5" y="722.8301">SystemUser</text><rect fill="#E2E2F0" height="51.2422" rx="2.5" ry="2.5" style="stroke:#181818;stroke-width:0.5;" width="89" x="1165.5" y="75.6211"/><text fill="#000000" font-family="sans-serif" font-size="14" font-style="italic" lengthAdjust="spacing" textLength="62" x="1179" y="97.7285">&#171;domain&#187;</text><text fill="#000000" font-family="sans-serif" font-size="14" lengthAdjust="spacing" textLength="75" x="1172.5" y="116.3496">Jobs4UUser</text><rect fill="#E2E2F0" height="51.2422" rx="2.5" ry="2.5" style="stroke:#181818;stroke-width:0.5;" width="89" x="1165.5" y="682.1016"/><text fill="#000000" font-family="sans-serif" font-size="14" font-style="italic" lengthAdjust="spacing" textLength="62" x="1179" y="704.209">&#171;domain&#187;</text><text fill="#000000" font-family="sans-serif" font-size="14" lengthAdjust="spacing" textLength="75" x="1172.5" y="722.8301">Jobs4UUser</text><text fill="#000000" font-family="sans-serif" font-size="14" font-style="italic" lengthAdjust="spacing" textLength="79" x="1296.5" y="105.7285">&#171;repository&#187;</text><text fill="#000000" font-family="sans-serif" font-size="14" lengthAdjust="spacing" textLength="143" x="1264.5" y="124.3496">Jobs4UUserRepository</text><path d="M1321,54.6211 C1321,44.6211 1339,44.6211 1339,44.6211 C1339,44.6211 1357,44.6211 1357,54.6211 L1357,80.6211 C1357,90.6211 1339,90.6211 1339,90.6211 C1339,90.6211 1321,90.6211 1321,80.6211 L1321,54.6211 " fill="#E2E2F0" style="stroke:#181818;stroke-width:1.5;"/><path d="M1321,54.6211 C1321,64.6211 1339,64.6211 1339,64.6211 C1339,64.6211 1357,64.6211 1357,54.6211 " fill="none" style="stroke:#181818;stroke-width:1.5;"/><text fill="#000000" font-family="sans-serif" font-size="14" font-style="italic" lengthAdjust="spacing" textLength="79" x="1296.5" y="697.209">&#171;repository&#187;</text><text fill="#000000" font-family="sans-serif" font-size="14" lengthAdjust="spacing" textLength="143" x="1264.5" y="715.8301">Jobs4UUserRepository</text><path d="M1321,729.3438 C1321,719.3438 1339,719.3438 1339,719.3438 C1339,719.3438 1357,719.3438 1357,729.3438 L1357,755.3438 C1357,765.3438 1339,765.3438 1339,765.3438 C1339,765.3438 1321,765.3438 1321,755.3438 L1321,729.3438 " fill="#E2E2F0" style="stroke:#181818;stroke-width:1.5;"/><path d="M1321,729.3438 C1321,739.3438 1339,739.3438 1339,739.3438 C1339,739.3438 1357,739.3438 1357,729.3438 " fill="none" style="stroke:#181818;stroke-width:1.5;"/><rect fill="#FFFFFF" height="512.9473" style="stroke:#181818;stroke-width:1.0;" width="10" x="290.5" y="161.1543"/><rect fill="#FFFFFF" height="312.9102" style="stroke:#181818;stroke-width:1.0;" width="10" x="575.5" y="320.9004"/><rect fill="#FFFFFF" height="62.582" style="stroke:#181818;stroke-width:1.0;" width="10" x="790.5" y="352.1914"/><rect fill="#FFFFFF" height="62.582" style="stroke:#181818;stroke-width:1.0;" width="10" x="964" y="508.6465"/><polygon fill="#181818" points="278.5,157.1543,288.5,161.1543,278.5,165.1543,282.5,161.1543" style="stroke:#181818;stroke-width:1.0;"/><line style="stroke:#181818;stroke-width:1.0;" x1="0" x2="284.5" y1="161.1543" y2="161.1543"/><text fill="#000000" font-family="sans-serif" font-size="13" font-weight="bold" lengthAdjust="spacing" textLength="7" x="7" y="155.8916">1</text><text fill="#000000" font-family="sans-serif" font-size="13" lengthAdjust="spacing" textLength="42" x="18" y="155.8916">onLoad</text><polygon fill="#181818" points="568.5,188.4453,578.5,192.4453,568.5,196.4453,572.5,192.4453" style="stroke:#181818;stroke-width:1.0;"/><line style="stroke:#181818;stroke-width:1.0;" x1="300.5" x2="574.5" y1="192.4453" y2="192.4453"/><text fill="#000000" font-family="sans-serif" font-size="13" font-weight="bold" lengthAdjust="spacing" textLength="7" x="307.5" y="187.1826">2</text><text fill="#000000" font-family="sans-serif" font-size="13" lengthAdjust="spacing" textLength="216" x="318.5" y="187.1826">create(userRepo, userBuilderFactory)</text><polygon fill="#181818" points="77.5,237.0273,67.5,241.0273,77.5,245.0273,73.5,241.0273" style="stroke:#181818;stroke-width:1.0;"/><line style="stroke:#181818;stroke-width:1.0;stroke-dasharray:2.0,2.0;" x1="71.5" x2="289.5" y1="241.0273" y2="241.0273"/><text fill="#000000" font-family="sans-serif" font-size="13" font-weight="bold" lengthAdjust="spacing" textLength="7" x="83.5" y="227.1191">3</text><text fill="#000000" font-family="sans-serif" font-size="13" lengthAdjust="spacing" textLength="74" x="94.5" y="218.4736">asks input of</text><text fill="#000000" font-family="sans-serif" font-size="13" lengthAdjust="spacing" textLength="150" x="98.5" y="235.7646">costumer manager details</text><polygon fill="#181818" points="278.5,268.3184,288.5,272.3184,278.5,276.3184,282.5,272.3184" style="stroke:#181818;stroke-width:1.0;"/><line style="stroke:#181818;stroke-width:1.0;" x1="66.5" x2="284.5" y1="272.3184" y2="272.3184"/><text fill="#000000" font-family="sans-serif" font-size="13" font-weight="bold" lengthAdjust="spacing" textLength="7" x="73.5" y="267.0557">4</text><text fill="#000000" font-family="sans-serif" font-size="13" lengthAdjust="spacing" textLength="189" x="84.5" y="267.0557">inputs costumer manager details</text><polygon fill="#181818" points="563.5,316.9004,573.5,320.9004,563.5,324.9004,567.5,320.9004" style="stroke:#181818;stroke-width:1.0;"/><line style="stroke:#181818;stroke-width:1.0;" x1="300.5" x2="569.5" y1="320.9004" y2="320.9004"/><text fill="#000000" font-family="sans-serif" font-size="13" font-weight="bold" lengthAdjust="spacing" textLength="7" x="307.5" y="306.9922">5</text><text fill="#000000" font-family="sans-serif" font-size="13" lengthAdjust="spacing" textLength="245" x="318.5" y="298.3467">registerCostumerManager(username, pwd,</text><text fill="#000000" font-family="sans-serif" font-size="13" lengthAdjust="spacing" textLength="161" x="322.5" y="315.6377">firstName, lastName, email)</text><polygon fill="#181818" points="778.5,348.1914,788.5,352.1914,778.5,356.1914,782.5,352.1914" style="stroke:#181818;stroke-width:1.0;"/><line style="stroke:#181818;stroke-width:1.0;" x1="585.5" x2="784.5" y1="352.1914" y2="352.1914"/><text fill="#000000" font-family="sans-serif" font-size="13" font-weight="bold" lengthAdjust="spacing" textLength="7" x="592.5" y="346.9287">6</text><text fill="#000000" font-family="sans-serif" font-size="13" lengthAdjust="spacing" textLength="175" x="603.5" y="346.9287">createJobs4UUserBuilder(role)</text><polygon fill="#181818" points="957,379.4824,967,383.4824,957,387.4824,961,383.4824" style="stroke:#181818;stroke-width:1.0;"/><line style="stroke:#181818;stroke-width:1.0;" x1="800.5" x2="963" y1="383.4824" y2="383.4824"/><text fill="#000000" font-family="sans-serif" font-size="13" font-weight="bold" lengthAdjust="spacing" textLength="7" x="807.5" y="378.2197">7</text><text fill="#000000" font-family="sans-serif" font-size="13" lengthAdjust="spacing" textLength="36" x="818.5" y="378.2197">create</text><polygon fill="#181818" points="596.5,410.7734,586.5,414.7734,596.5,418.7734,592.5,414.7734" style="stroke:#181818;stroke-width:1.0;"/><line style="stroke:#181818;stroke-width:1.0;stroke-dasharray:2.0,2.0;" x1="590.5" x2="794.5" y1="414.7734" y2="414.7734"/><text fill="#000000" font-family="sans-serif" font-size="13" font-weight="bold" lengthAdjust="spacing" textLength="7" x="602.5" y="409.5107">8</text><text fill="#000000" font-family="sans-serif" font-size="13" lengthAdjust="spacing" textLength="38" x="613.5" y="409.5107">builder</text><polygon fill="#181818" points="1099,442.0645,1109,446.0645,1099,450.0645,1103,446.0645" style="stroke:#181818;stroke-width:1.0;"/><line style="stroke:#181818;stroke-width:1.0;" x1="585.5" x2="1105" y1="446.0645" y2="446.0645"/><text fill="#000000" font-family="sans-serif" font-size="13" font-weight="bold" lengthAdjust="spacing" textLength="7" x="592.5" y="440.8018">9</text><text fill="#000000" font-family="sans-serif" font-size="13" lengthAdjust="spacing" textLength="36" x="603.5" y="440.8018">create</text><polygon fill="#181818" points="957,473.3555,967,477.3555,957,481.3555,961,477.3555" style="stroke:#181818;stroke-width:1.0;"/><line style="stroke:#181818;stroke-width:1.0;" x1="585.5" x2="963" y1="477.3555" y2="477.3555"/><text fill="#000000" font-family="sans-serif" font-size="13" font-weight="bold" lengthAdjust="spacing" textLength="14" x="592.5" y="472.0928">10</text><text fill="#000000" font-family="sans-serif" font-size="13" lengthAdjust="spacing" textLength="151" x="610.5" y="472.0928">withSystemUser(sysUser)</text><polygon fill="#181818" points="952,504.6465,962,508.6465,952,512.6465,956,508.6465" style="stroke:#181818;stroke-width:1.0;"/><line style="stroke:#181818;stroke-width:1.0;" x1="585.5" x2="958" y1="508.6465" y2="508.6465"/><text fill="#000000" font-family="sans-serif" font-size="13" font-weight="bold" lengthAdjust="spacing" textLength="14" x="592.5" y="503.3838">11</text><text fill="#000000" font-family="sans-serif" font-size="13" lengthAdjust="spacing" textLength="35" x="610.5" y="503.3838">build()</text><polygon fill="#181818" points="1198,535.9375,1208,539.9375,1198,543.9375,1202,539.9375" style="stroke:#181818;stroke-width:1.0;"/><line style="stroke:#181818;stroke-width:1.0;" x1="974" x2="1204" y1="539.9375" y2="539.9375"/><text fill="#000000" font-family="sans-serif" font-size="13" font-weight="bold" lengthAdjust="spacing" textLength="14" x="981" y="534.6748">12</text><text fill="#000000" font-family="sans-serif" font-size="13" lengthAdjust="spacing" textLength="92" x="999" y="534.6748">create(sysUser)</text><polygon fill="#181818" points="596.5,567.2285,586.5,571.2285,596.5,575.2285,592.5,571.2285" style="stroke:#181818;stroke-width:1.0;"/><line style="stroke:#181818;stroke-width:1.0;stroke-dasharray:2.0,2.0;" x1="590.5" x2="968" y1="571.2285" y2="571.2285"/><text fill="#000000" font-family="sans-serif" font-size="13" font-weight="bold" lengthAdjust="spacing" textLength="14" x="602.5" y="565.9658">13</text><text fill="#000000" font-family="sans-serif" font-size="13" lengthAdjust="spacing" textLength="25" x="620.5" y="565.9658">user</text><polygon fill="#181818" points="1327,598.5195,1337,602.5195,1327,606.5195,1331,602.5195" style="stroke:#181818;stroke-width:1.0;"/><line style="stroke:#181818;stroke-width:1.0;" x1="585.5" x2="1333" y1="602.5195" y2="602.5195"/><text fill="#000000" font-family="sans-serif" font-size="13" font-weight="bold" lengthAdjust="spacing" textLength="14" x="592.5" y="597.2568">14</text><text fill="#000000" font-family="sans-serif" font-size="13" lengthAdjust="spacing" textLength="59" x="610.5" y="597.2568">save(user)</text><polygon fill="#181818" points="311.5,629.8105,301.5,633.8105,311.5,637.8105,307.5,633.8105" style="stroke:#181818;stroke-width:1.0;"/><line style="stroke:#181818;stroke-width:1.0;stroke-dasharray:2.0,2.0;" x1="305.5" x2="579.5" y1="633.8105" y2="633.8105"/><text fill="#000000" font-family="sans-serif" font-size="13" font-weight="bold" lengthAdjust="spacing" textLength="14" x="317.5" y="628.5479">15</text><text fill="#000000" font-family="sans-serif" font-size="13" lengthAdjust="spacing" textLength="93" x="335.5" y="628.5479">returns success</text><polygon fill="#181818" points="77.5,661.1016,67.5,665.1016,77.5,669.1016,73.5,665.1016" style="stroke:#181818;stroke-width:1.0;"/><line style="stroke:#181818;stroke-width:1.0;stroke-dasharray:2.0,2.0;" x1="71.5" x2="289.5" y1="665.1016" y2="665.1016"/><text fill="#000000" font-family="sans-serif" font-size="13" font-weight="bold" lengthAdjust="spacing" textLength="14" x="83.5" y="659.8389">16</text><text fill="#000000" font-family="sans-serif" font-size="13" lengthAdjust="spacing" textLength="101" x="101.5" y="659.8389">displays success</text><!--SRC=[ZP9DRzim38Rl-XL2JmcGtNOAYW2jim8jqcr8wjk0WR6PL9WjUIBLmlz-bFoL62qmNonGx_EI8ic6AzHxF1jYzFe5eNYL_m7_1hG5wgs1iuTQAGZiRAYFw1KKxBpE0h6hqJ-3XRCWGFfk-wmQy6mAqu1bVJFuPeuuJDhyyIRAyqTzUnlCPlDVKEOiUrTLw1ESlUntWaFJLAO0DixEVPxSaRxczy5K9Vg7L7IRq8UxJCXJ5vbJiwmzdhZxtLQuOnUPSuTMQgvpwhM7FARuZPODjnzNDcgVv2pgqjLWuYjAO3W2uQLmZuqZCpvX_-td3q7y61LCgI-RsDErTdRde8npCc_0A44bSRbDJLlhmgE45w7tNUbukcxKCX62o4o50Ff3sjWci7QdNrONVPTqtK-_H0PJaOhoeOoafy-rLpNvZwUUYhHGuqetx-LAKf-C9_wU8XKC9vJMLSlfnT5K9MV94ESzF7hgQF_UXUmKNf0YLX4GBivxuBhOL6w_1Qh4At98AUCVoI7MsRqRVfrsPK4jnVzofahsYuko9ApYbIZIken370tIxLHWxDjbTT5Wo96sPwq9theb6B8FW_F8mLlI58e2YIvjKcElLgCqr5JGJchv_W40]--></g></svg>