<?xml version="1.0" encoding="us-ascii" standalone="no"?><svg xmlns="http://www.w3.org/2000/svg" xmlns:xlink="http://www.w3.org/1999/xlink" contentStyleType="text/css" height="782px" preserveAspectRatio="none" style="width:1424px;height:782px;background:#FFFFFF;" version="1.1" viewBox="0 0 1424 782" width="1424px" zoomAndPan="magnify"><defs/><g><text fill="#000000" font-family="sans-serif" font-size="14" font-weight="bold" lengthAdjust="spacing" textLength="262" x="582.75" y="30.1074">Register Manager Sequence Diagram</text><rect fill="#FFFFFF" height="512.9473" style="stroke:#181818;stroke-width:1.0;" width="10" x="270.5" y="161.1543"/><rect fill="#FFFFFF" height="312.9102" style="stroke:#181818;stroke-width:1.0;" width="10" x="556.5" y="320.9004"/><rect fill="#FFFFFF" height="62.582" style="stroke:#181818;stroke-width:1.0;" width="10" x="782" y="352.1914"/><rect fill="#FFFFFF" height="62.582" style="stroke:#181818;stroke-width:1.0;" width="10" x="972" y="508.6465"/><line style="stroke:#181818;stroke-width:0.5;stroke-dasharray:5.0,5.0;" x1="49" x2="49" y1="127.8633" y2="683.1016"/><line style="stroke:#181818;stroke-width:0.5;stroke-dasharray:5.0,5.0;" x1="275.5" x2="275.5" y1="127.8633" y2="683.1016"/><line style="stroke:#181818;stroke-width:0.5;stroke-dasharray:5.0,5.0;" x1="561.5" x2="561.5" y1="127.8633" y2="683.1016"/><line style="stroke:#181818;stroke-width:0.5;stroke-dasharray:5.0,5.0;" x1="786.5" x2="786.5" y1="127.8633" y2="683.1016"/><line style="stroke:#181818;stroke-width:0.5;stroke-dasharray:5.0,5.0;" x1="976.5" x2="976.5" y1="127.8633" y2="683.1016"/><line style="stroke:#181818;stroke-width:0.5;stroke-dasharray:5.0,5.0;" x1="1120.5" x2="1120.5" y1="127.8633" y2="683.1016"/><line style="stroke:#181818;stroke-width:0.5;stroke-dasharray:5.0,5.0;" x1="1219.5" x2="1219.5" y1="127.8633" y2="683.1016"/><line style="stroke:#181818;stroke-width:0.5;stroke-dasharray:5.0,5.0;" x1="1348.5" x2="1348.5" y1="127.8633" y2="683.1016"/><text fill="#000000" font-family="sans-serif" font-size="14" lengthAdjust="spacing" textLength="83" x="5" y="124.3496">Administrator</text><ellipse cx="49.5" cy="57.7422" fill="#E2E2F0" rx="8" ry="8" style="stroke:#181818;stroke-width:0.5;"/><path d="M49.5,65.7422 L49.5,92.7422 M36.5,73.7422 L62.5,73.7422 M49.5,92.7422 L36.5,107.7422 M49.5,92.7422 L62.5,107.7422 " fill="none" style="stroke:#181818;stroke-width:0.5;"/><text fill="#000000" font-family="sans-serif" font-size="14" lengthAdjust="spacing" textLength="83" x="5" y="697.209">Administrator</text><ellipse cx="49.5" cy="709.2227" fill="#E2E2F0" rx="8" ry="8" style="stroke:#181818;stroke-width:0.5;"/><path d="M49.5,717.2227 L49.5,744.2227 M36.5,725.2227 L62.5,725.2227 M49.5,744.2227 L36.5,759.2227 M49.5,744.2227 L62.5,759.2227 " fill="none" style="stroke:#181818;stroke-width:0.5;"/><rect fill="#E2E2F0" height="51.2422" rx="2.5" ry="2.5" style="stroke:#181818;stroke-width:0.5;" width="200" x="175.5" y="75.6211"/><text fill="#000000" font-family="sans-serif" font-size="14" font-style="italic" lengthAdjust="spacing" textLength="27" x="262" y="97.7285">&#171;ui&#187;</text><text fill="#000000" font-family="sans-serif" font-size="14" lengthAdjust="spacing" textLength="186" x="182.5" y="116.3496">RegisterLanguageEngineerUI</text><rect fill="#E2E2F0" height="51.2422" rx="2.5" ry="2.5" style="stroke:#181818;stroke-width:0.5;" width="200" x="175.5" y="682.1016"/><text fill="#000000" font-family="sans-serif" font-size="14" font-style="italic" lengthAdjust="spacing" textLength="27" x="262" y="704.209">&#171;ui&#187;</text><text fill="#000000" font-family="sans-serif" font-size="14" lengthAdjust="spacing" textLength="186" x="182.5" y="722.8301">RegisterLanguageEngineerUI</text><rect fill="#E2E2F0" height="51.2422" rx="2.5" ry="2.5" style="stroke:#181818;stroke-width:0.5;" width="250" x="436.5" y="75.6211"/><text fill="#000000" font-family="sans-serif" font-size="14" font-style="italic" lengthAdjust="spacing" textLength="84" x="519.5" y="97.7285">&#171;application&#187;</text><text fill="#000000" font-family="sans-serif" font-size="14" lengthAdjust="spacing" textLength="236" x="443.5" y="116.3496">RegisterLanguageEngineerController</text><rect fill="#E2E2F0" height="51.2422" rx="2.5" ry="2.5" style="stroke:#181818;stroke-width:0.5;" width="250" x="436.5" y="682.1016"/><text fill="#000000" font-family="sans-serif" font-size="14" font-style="italic" lengthAdjust="spacing" textLength="84" x="519.5" y="704.209">&#171;application&#187;</text><text fill="#000000" font-family="sans-serif" font-size="14" lengthAdjust="spacing" textLength="236" x="443.5" y="722.8301">RegisterLanguageEngineerController</text><rect fill="#E2E2F0" height="51.2422" rx="2.5" ry="2.5" style="stroke:#181818;stroke-width:0.5;" width="181" x="696.5" y="75.6211"/><text fill="#000000" font-family="sans-serif" font-size="14" font-style="italic" lengthAdjust="spacing" textLength="59" x="757.5" y="97.7285">&#171;factory&#187;</text><text fill="#000000" font-family="sans-serif" font-size="14" lengthAdjust="spacing" textLength="167" x="703.5" y="116.3496">Jobs4UUserBuilderFactory</text><rect fill="#E2E2F0" height="51.2422" rx="2.5" ry="2.5" style="stroke:#181818;stroke-width:0.5;" width="181" x="696.5" y="682.1016"/><text fill="#000000" font-family="sans-serif" font-size="14" font-style="italic" lengthAdjust="spacing" textLength="59" x="757.5" y="704.209">&#171;factory&#187;</text><text fill="#000000" font-family="sans-serif" font-size="14" lengthAdjust="spacing" textLength="167" x="703.5" y="722.8301">Jobs4UUserBuilderFactory</text><rect fill="#E2E2F0" height="51.2422" rx="2.5" ry="2.5" style="stroke:#181818;stroke-width:0.5;" width="179" x="887.5" y="75.6211"/><text fill="#000000" font-family="sans-serif" font-size="14" font-style="italic" lengthAdjust="spacing" textLength="59" x="947.5" y="97.7285">&#171;builder&#187;</text><text fill="#000000" font-family="sans-serif" font-size="14" lengthAdjust="spacing" textLength="165" x="894.5" y="116.3496">LanguageEngineerBuilder</text><rect fill="#E2E2F0" height="51.2422" rx="2.5" ry="2.5" style="stroke:#181818;stroke-width:0.5;" width="179" x="887.5" y="682.1016"/><text fill="#000000" font-family="sans-serif" font-size="14" font-style="italic" lengthAdjust="spacing" textLength="59" x="947.5" y="704.209">&#171;builder&#187;</text><text fill="#000000" font-family="sans-serif" font-size="14" lengthAdjust="spacing" textLength="165" x="894.5" y="722.8301">LanguageEngineerBuilder</text><rect fill="#E2E2F0" height="51.2422" rx="2.5" ry="2.5" style="stroke:#181818;stroke-width:0.5;" width="89" x="1076.5" y="75.6211"/><text fill="#000000" font-family="sans-serif" font-size="14" font-style="italic" lengthAdjust="spacing" textLength="62" x="1090" y="97.7285">&#171;f_entity&#187;</text><text fill="#000000" font-family="sans-serif" font-size="14" lengthAdjust="spacing" textLength="75" x="1083.5" y="116.3496">SystemUser</text><rect fill="#E2E2F0" height="51.2422" rx="2.5" ry="2.5" style="stroke:#181818;stroke-width:0.5;" width="89" x="1076.5" y="682.1016"/><text fill="#000000" font-family="sans-serif" font-size="14" font-style="italic" lengthAdjust="spacing" textLength="62" x="1090" y="704.209">&#171;f_entity&#187;</text><text fill="#000000" font-family="sans-serif" font-size="14" lengthAdjust="spacing" textLength="75" x="1083.5" y="722.8301">SystemUser</text><rect fill="#E2E2F0" height="51.2422" rx="2.5" ry="2.5" style="stroke:#181818;stroke-width:0.5;" width="89" x="1175.5" y="75.6211"/><text fill="#000000" font-family="sans-serif" font-size="14" font-style="italic" lengthAdjust="spacing" textLength="62" x="1189" y="97.7285">&#171;domain&#187;</text><text fill="#000000" font-family="sans-serif" font-size="14" lengthAdjust="spacing" textLength="75" x="1182.5" y="116.3496">Jobs4UUser</text><rect fill="#E2E2F0" height="51.2422" rx="2.5" ry="2.5" style="stroke:#181818;stroke-width:0.5;" width="89" x="1175.5" y="682.1016"/><text fill="#000000" font-family="sans-serif" font-size="14" font-style="italic" lengthAdjust="spacing" textLength="62" x="1189" y="704.209">&#171;domain&#187;</text><text fill="#000000" font-family="sans-serif" font-size="14" lengthAdjust="spacing" textLength="75" x="1182.5" y="722.8301">Jobs4UUser</text><text fill="#000000" font-family="sans-serif" font-size="14" font-style="italic" lengthAdjust="spacing" textLength="79" x="1306.5" y="105.7285">&#171;repository&#187;</text><text fill="#000000" font-family="sans-serif" font-size="14" lengthAdjust="spacing" textLength="143" x="1274.5" y="124.3496">Jobs4UUserRepository</text><path d="M1331,54.6211 C1331,44.6211 1349,44.6211 1349,44.6211 C1349,44.6211 1367,44.6211 1367,54.6211 L1367,80.6211 C1367,90.6211 1349,90.6211 1349,90.6211 C1349,90.6211 1331,90.6211 1331,80.6211 L1331,54.6211 " fill="#E2E2F0" style="stroke:#181818;stroke-width:1.5;"/><path d="M1331,54.6211 C1331,64.6211 1349,64.6211 1349,64.6211 C1349,64.6211 1367,64.6211 1367,54.6211 " fill="none" style="stroke:#181818;stroke-width:1.5;"/><text fill="#000000" font-family="sans-serif" font-size="14" font-style="italic" lengthAdjust="spacing" textLength="79" x="1306.5" y="697.209">&#171;repository&#187;</text><text fill="#000000" font-family="sans-serif" font-size="14" lengthAdjust="spacing" textLength="143" x="1274.5" y="715.8301">Jobs4UUserRepository</text><path d="M1331,729.3438 C1331,719.3438 1349,719.3438 1349,719.3438 C1349,719.3438 1367,719.3438 1367,729.3438 L1367,755.3438 C1367,765.3438 1349,765.3438 1349,765.3438 C1349,765.3438 1331,765.3438 1331,755.3438 L1331,729.3438 " fill="#E2E2F0" style="stroke:#181818;stroke-width:1.5;"/><path d="M1331,729.3438 C1331,739.3438 1349,739.3438 1349,739.3438 C1349,739.3438 1367,739.3438 1367,729.3438 " fill="none" style="stroke:#181818;stroke-width:1.5;"/><rect fill="#FFFFFF" height="512.9473" style="stroke:#181818;stroke-width:1.0;" width="10" x="270.5" y="161.1543"/><rect fill="#FFFFFF" height="312.9102" style="stroke:#181818;stroke-width:1.0;" width="10" x="556.5" y="320.9004"/><rect fill="#FFFFFF" height="62.582" style="stroke:#181818;stroke-width:1.0;" width="10" x="782" y="352.1914"/><rect fill="#FFFFFF" height="62.582" style="stroke:#181818;stroke-width:1.0;" width="10" x="972" y="508.6465"/><polygon fill="#181818" points="258.5,157.1543,268.5,161.1543,258.5,165.1543,262.5,161.1543" style="stroke:#181818;stroke-width:1.0;"/><line style="stroke:#181818;stroke-width:1.0;" x1="0" x2="264.5" y1="161.1543" y2="161.1543"/><text fill="#000000" font-family="sans-serif" font-size="13" font-weight="bold" lengthAdjust="spacing" textLength="7" x="7" y="155.8916">1</text><text fill="#000000" font-family="sans-serif" font-size="13" lengthAdjust="spacing" textLength="42" x="18" y="155.8916">onLoad</text><polygon fill="#181818" points="549.5,188.4453,559.5,192.4453,549.5,196.4453,553.5,192.4453" style="stroke:#181818;stroke-width:1.0;"/><line style="stroke:#181818;stroke-width:1.0;" x1="280.5" x2="555.5" y1="192.4453" y2="192.4453"/><text fill="#000000" font-family="sans-serif" font-size="13" font-weight="bold" lengthAdjust="spacing" textLength="7" x="287.5" y="187.1826">2</text><text fill="#000000" font-family="sans-serif" font-size="13" lengthAdjust="spacing" textLength="216" x="298.5" y="187.1826">create(userRepo, userBuilderFactory)</text><polygon fill="#181818" points="60.5,237.0273,50.5,241.0273,60.5,245.0273,56.5,241.0273" style="stroke:#181818;stroke-width:1.0;"/><line style="stroke:#181818;stroke-width:1.0;stroke-dasharray:2.0,2.0;" x1="54.5" x2="269.5" y1="241.0273" y2="241.0273"/><text fill="#000000" font-family="sans-serif" font-size="13" font-weight="bold" lengthAdjust="spacing" textLength="7" x="66.5" y="227.1191">3</text><text fill="#000000" font-family="sans-serif" font-size="13" lengthAdjust="spacing" textLength="74" x="77.5" y="218.4736">asks input of</text><text fill="#000000" font-family="sans-serif" font-size="13" lengthAdjust="spacing" textLength="147" x="81.5" y="235.7646">language engineer details</text><polygon fill="#181818" points="258.5,268.3184,268.5,272.3184,258.5,276.3184,262.5,272.3184" style="stroke:#181818;stroke-width:1.0;"/><line style="stroke:#181818;stroke-width:1.0;" x1="49.5" x2="264.5" y1="272.3184" y2="272.3184"/><text fill="#000000" font-family="sans-serif" font-size="13" font-weight="bold" lengthAdjust="spacing" textLength="7" x="56.5" y="267.0557">4</text><text fill="#000000" font-family="sans-serif" font-size="13" lengthAdjust="spacing" textLength="186" x="67.5" y="267.0557">inputs language engineer details</text><polygon fill="#181818" points="544.5,316.9004,554.5,320.9004,544.5,324.9004,548.5,320.9004" style="stroke:#181818;stroke-width:1.0;"/><line style="stroke:#181818;stroke-width:1.0;" x1="280.5" x2="550.5" y1="320.9004" y2="320.9004"/><text fill="#000000" font-family="sans-serif" font-size="13" font-weight="bold" lengthAdjust="spacing" textLength="7" x="287.5" y="306.9922">5</text><text fill="#000000" font-family="sans-serif" font-size="13" lengthAdjust="spacing" textLength="246" x="298.5" y="298.3467">registerLanguageEngineer(username, pwd,</text><text fill="#000000" font-family="sans-serif" font-size="13" lengthAdjust="spacing" textLength="161" x="302.5" y="315.6377">firstName, lastName, email)</text><polygon fill="#181818" points="770,348.1914,780,352.1914,770,356.1914,774,352.1914" style="stroke:#181818;stroke-width:1.0;"/><line style="stroke:#181818;stroke-width:1.0;" x1="566.5" x2="776" y1="352.1914" y2="352.1914"/><text fill="#000000" font-family="sans-serif" font-size="13" font-weight="bold" lengthAdjust="spacing" textLength="7" x="573.5" y="346.9287">6</text><text fill="#000000" font-family="sans-serif" font-size="13" lengthAdjust="spacing" textLength="175" x="584.5" y="346.9287">createJobs4UUserBuilder(role)</text><polygon fill="#181818" points="965,379.4824,975,383.4824,965,387.4824,969,383.4824" style="stroke:#181818;stroke-width:1.0;"/><line style="stroke:#181818;stroke-width:1.0;" x1="792" x2="971" y1="383.4824" y2="383.4824"/><text fill="#000000" font-family="sans-serif" font-size="13" font-weight="bold" lengthAdjust="spacing" textLength="7" x="799" y="378.2197">7</text><text fill="#000000" font-family="sans-serif" font-size="13" lengthAdjust="spacing" textLength="36" x="810" y="378.2197">create</text><polygon fill="#181818" points="577.5,410.7734,567.5,414.7734,577.5,418.7734,573.5,414.7734" style="stroke:#181818;stroke-width:1.0;"/><line style="stroke:#181818;stroke-width:1.0;stroke-dasharray:2.0,2.0;" x1="571.5" x2="786" y1="414.7734" y2="414.7734"/><text fill="#000000" font-family="sans-serif" font-size="13" font-weight="bold" lengthAdjust="spacing" textLength="7" x="583.5" y="409.5107">8</text><text fill="#000000" font-family="sans-serif" font-size="13" lengthAdjust="spacing" textLength="38" x="594.5" y="409.5107">builder</text><polygon fill="#181818" points="1109,442.0645,1119,446.0645,1109,450.0645,1113,446.0645" style="stroke:#181818;stroke-width:1.0;"/><line style="stroke:#181818;stroke-width:1.0;" x1="566.5" x2="1115" y1="446.0645" y2="446.0645"/><text fill="#000000" font-family="sans-serif" font-size="13" font-weight="bold" lengthAdjust="spacing" textLength="7" x="573.5" y="440.8018">9</text><text fill="#000000" font-family="sans-serif" font-size="13" lengthAdjust="spacing" textLength="36" x="584.5" y="440.8018">create</text><polygon fill="#181818" points="965,473.3555,975,477.3555,965,481.3555,969,477.3555" style="stroke:#181818;stroke-width:1.0;"/><line style="stroke:#181818;stroke-width:1.0;" x1="566.5" x2="971" y1="477.3555" y2="477.3555"/><text fill="#000000" font-family="sans-serif" font-size="13" font-weight="bold" lengthAdjust="spacing" textLength="14" x="573.5" y="472.0928">10</text><text fill="#000000" font-family="sans-serif" font-size="13" lengthAdjust="spacing" textLength="151" x="591.5" y="472.0928">withSystemUser(sysUser)</text><polygon fill="#181818" points="960,504.6465,970,508.6465,960,512.6465,964,508.6465" style="stroke:#181818;stroke-width:1.0;"/><line style="stroke:#181818;stroke-width:1.0;" x1="566.5" x2="966" y1="508.6465" y2="508.6465"/><text fill="#000000" font-family="sans-serif" font-size="13" font-weight="bold" lengthAdjust="spacing" textLength="14" x="573.5" y="503.3838">11</text><text fill="#000000" font-family="sans-serif" font-size="13" lengthAdjust="spacing" textLength="35" x="591.5" y="503.3838">build()</text><polygon fill="#181818" points="1208,535.9375,1218,539.9375,1208,543.9375,1212,539.9375" style="stroke:#181818;stroke-width:1.0;"/><line style="stroke:#181818;stroke-width:1.0;" x1="982" x2="1214" y1="539.9375" y2="539.9375"/><text fill="#000000" font-family="sans-serif" font-size="13" font-weight="bold" lengthAdjust="spacing" textLength="14" x="989" y="534.6748">12</text><text fill="#000000" font-family="sans-serif" font-size="13" lengthAdjust="spacing" textLength="92" x="1007" y="534.6748">create(sysUser)</text><polygon fill="#181818" points="577.5,567.2285,567.5,571.2285,577.5,575.2285,573.5,571.2285" style="stroke:#181818;stroke-width:1.0;"/><line style="stroke:#181818;stroke-width:1.0;stroke-dasharray:2.0,2.0;" x1="571.5" x2="976" y1="571.2285" y2="571.2285"/><text fill="#000000" font-family="sans-serif" font-size="13" font-weight="bold" lengthAdjust="spacing" textLength="14" x="583.5" y="565.9658">13</text><text fill="#000000" font-family="sans-serif" font-size="13" lengthAdjust="spacing" textLength="25" x="601.5" y="565.9658">user</text><polygon fill="#181818" points="1337,598.5195,1347,602.5195,1337,606.5195,1341,602.5195" style="stroke:#181818;stroke-width:1.0;"/><line style="stroke:#181818;stroke-width:1.0;" x1="566.5" x2="1343" y1="602.5195" y2="602.5195"/><text fill="#000000" font-family="sans-serif" font-size="13" font-weight="bold" lengthAdjust="spacing" textLength="14" x="573.5" y="597.2568">14</text><text fill="#000000" font-family="sans-serif" font-size="13" lengthAdjust="spacing" textLength="59" x="591.5" y="597.2568">save(user)</text><polygon fill="#181818" points="291.5,629.8105,281.5,633.8105,291.5,637.8105,287.5,633.8105" style="stroke:#181818;stroke-width:1.0;"/><line style="stroke:#181818;stroke-width:1.0;stroke-dasharray:2.0,2.0;" x1="285.5" x2="560.5" y1="633.8105" y2="633.8105"/><text fill="#000000" font-family="sans-serif" font-size="13" font-weight="bold" lengthAdjust="spacing" textLength="14" x="297.5" y="628.5479">15</text><text fill="#000000" font-family="sans-serif" font-size="13" lengthAdjust="spacing" textLength="93" x="315.5" y="628.5479">returns success</text><polygon fill="#181818" points="60.5,661.1016,50.5,665.1016,60.5,669.1016,56.5,665.1016" style="stroke:#181818;stroke-width:1.0;"/><line style="stroke:#181818;stroke-width:1.0;stroke-dasharray:2.0,2.0;" x1="54.5" x2="269.5" y1="665.1016" y2="665.1016"/><text fill="#000000" font-family="sans-serif" font-size="13" font-weight="bold" lengthAdjust="spacing" textLength="14" x="66.5" y="659.8389">16</text><text fill="#000000" font-family="sans-serif" font-size="13" lengthAdjust="spacing" textLength="101" x="84.5" y="659.8389">displays success</text><!--SRC=[ZP9DRzim38Rl-XL2JmcGtNOAYW1fqW8jqcv8vjk0WR4PZwWjUVfeuNy_IhPinqM7-MARUf-N54b7ha9vn9AiGoEVGK79xnF-yQXob7k2qa0j17YdbQ_FQ0JaJXkvBMfIJ1a8Vs3bTlyi6Z2EScf0ENcJN0-WIi-szweaXMYonvkWpnxbxQsdpUR_g9rMpkYgGXFftO_ZWNbecefoSAJLtEX9d-tNBBDexZnL1Pg7M7WRyOVjZkbB5vcJyzGz7y6xmvx1SnUPWwUMAwz3ogWzPI77BrIENFjvUL7xnD-iBdGD5AvIW8CpM9mAZzXeIyCTZlVVlp5YXYXZGdpPXCwkfLO73KKO5hs1GmuAZlDfxDnQvWOvlF2zxqhw3vrQHe8H7YqJO5-j9DLu9_Nbfv9LtoQ9VPzaWGweiYBeKnqHiFyGNrLbFfb-h5D1ZIlPl1ShpduXOzrBZ5IGlf2xLot7ImTN4QqvHPXvklU7vLZmRk64PB4807DXv8dhOcEz_IA80g_8b98tO21JhBDx9_TxN9U5RMruBsUgQB-ObCLX4OvO4JTccEDW44_70aFVfjK5WvGZBj1QMdZhzY1bJwCpwBnHLbgVvsZjr2Oszcex2h9D1UsevkSl]--></g></svg>