<?xml version="1.0" encoding="us-ascii" standalone="no"?><svg xmlns="http://www.w3.org/2000/svg" xmlns:xlink="http://www.w3.org/1999/xlink" contentStyleType="text/css" height="525px" preserveAspectRatio="none" style="width:680px;height:525px;background:#FFFFFF;" version="1.1" viewBox="0 0 680 525" width="680px" zoomAndPan="magnify"><defs/><g><text fill="#000000" font-family="sans-serif" font-size="7" font-weight="bold" lengthAdjust="spacing" textLength="50" x="311.5" y="12.5537">Domain Model</text><!--cluster Client --><g id="cluster_Client "><rect fill="none" height="131.5" rx="1.25" ry="1.25" style="stroke:#000000;stroke-width:0.75;" width="54" x="201" y="100.8105"/><text fill="#000000" font-family="sans-serif" font-size="7" font-weight="bold" lengthAdjust="spacing" textLength="20.5" x="216.75" y="109.3643">Client</text></g><!--cluster Job Offer--><g id="cluster_Job Offer"><rect fill="none" height="264.5" rx="1.25" ry="1.25" style="stroke:#000000;stroke-width:0.75;" width="353.5" x="323.5" y="257.8105"/><text fill="#000000" font-family="sans-serif" font-size="7" font-weight="bold" lengthAdjust="spacing" textLength="33" x="483.75" y="266.3643">Job Offer</text></g><!--cluster Job Offer Application--><g id="cluster_Job Offer Application"><rect fill="none" height="119" rx="1.25" ry="1.25" style="stroke:#000000;stroke-width:0.75;" width="308" x="3.5" y="336.3105"/><text fill="#000000" font-family="sans-serif" font-size="7" font-weight="bold" lengthAdjust="spacing" textLength="74" x="120.5" y="344.8643">Job Offer Application</text></g><!--cluster Employees--><g id="cluster_Employees"><rect fill="none" height="131.5" rx="1.25" ry="1.25" style="stroke:#000000;stroke-width:0.75;" width="139.5" x="334" y="100.8105"/><text fill="#000000" font-family="sans-serif" font-size="7" font-weight="bold" lengthAdjust="spacing" textLength="38" x="384.75" y="109.3643">Employees</text></g><!--cluster Application Candidate--><g id="cluster_Application Candidate"><rect fill="none" height="131.5" rx="1.25" ry="1.25" style="stroke:#000000;stroke-width:0.75;" width="84.5" x="93.5" y="179.3105"/><text fill="#000000" font-family="sans-serif" font-size="7" font-weight="bold" lengthAdjust="spacing" textLength="76.5" x="97.5" y="187.8643">Application Candidate</text></g><!--cluster System--><g id="cluster_System"><rect fill="none" height="53" rx="1.25" ry="1.25" style="stroke:#000000;stroke-width:0.75;" width="60" x="485.5" y="179.3105"/><text fill="#000000" font-family="sans-serif" font-size="7" font-weight="bold" lengthAdjust="spacing" textLength="25" x="503" y="187.8643">System</text></g><!--cluster Administrator--><g id="cluster_Administrator"><rect fill="none" height="130.5" rx="1.25" ry="1.25" style="stroke:#000000;stroke-width:0.75;" width="55" x="267" y="23.3105"/><text fill="#000000" font-family="sans-serif" font-size="7" font-weight="bold" lengthAdjust="spacing" textLength="47" x="271" y="31.8643">Administrator</text></g><!--cluster Bots --><g id="cluster_Bots "><rect fill="none" height="130.5" rx="1.25" ry="1.25" style="stroke:#000000;stroke-width:0.75;" width="78" x="486" y="23.3105"/><text fill="#000000" font-family="sans-serif" font-size="7" font-weight="bold" lengthAdjust="spacing" textLength="16" x="516" y="31.8643">Bots</text></g><!--cluster BackOfice--><g id="cluster_BackOfice"><rect fill="none" height="53" rx="1.25" ry="1.25" style="stroke:#000000;stroke-width:0.75;" width="77" x="557.5" y="179.3105"/><text fill="#000000" font-family="sans-serif" font-size="7" font-weight="bold" lengthAdjust="spacing" textLength="35.5" x="578.25" y="187.8643">BackOfice</text></g><!--class Client--><g id="elem_Client"><rect codeLine="17" fill="#F1F1F1" height="26.291" id="Client" rx="1.25" ry="1.25" style="stroke:#181818;stroke-width:0.25;" width="37.5" x="209.25" y="119.3105"/><text fill="#000000" font-family="sans-serif" font-size="6" font-style="italic" lengthAdjust="spacing" textLength="36.5" x="209.75" y="128.2852">&#171;Root Entity&#187;</text><text fill="#000000" font-family="sans-serif" font-size="7" lengthAdjust="spacing" textLength="18" x="219" y="137.3447">Client</text><line style="stroke:#181818;stroke-width:0.25;" x1="209.75" x2="246.25" y1="141.6016" y2="141.6016"/></g><!--class ClientID--><g id="elem_ClientID"><rect codeLine="18" fill="#F1F1F1" height="26.291" id="ClientID" rx="1.25" ry="1.25" style="stroke:#181818;stroke-width:0.25;" width="32" x="214" y="197.8105"/><text fill="#000000" font-family="sans-serif" font-size="6" font-style="italic" lengthAdjust="spacing" textLength="31" x="214.5" y="206.7852">&#171;Identifier&#187;</text><text fill="#000000" font-family="sans-serif" font-size="7" lengthAdjust="spacing" textLength="24.5" x="217.75" y="215.8447">ClientID</text><line style="stroke:#181818;stroke-width:0.25;" x1="214.5" x2="245.5" y1="220.1016" y2="220.1016"/></g><!--class PhaseData--><g id="elem_PhaseData"><rect codeLine="24" fill="#F1F1F1" height="26.291" id="PhaseData" rx="1.25" ry="1.25" style="stroke:#181818;stroke-width:0.25;" width="43.5" x="480.25" y="487.8105"/><text fill="#000000" font-family="sans-serif" font-size="6" font-style="italic" lengthAdjust="spacing" textLength="42.5" x="480.75" y="496.7852">&#171;Value Object&#187;</text><text fill="#000000" font-family="sans-serif" font-size="7" lengthAdjust="spacing" textLength="35" x="484.5" y="505.8447">PhaseData</text><line style="stroke:#181818;stroke-width:0.25;" x1="480.75" x2="523.25" y1="510.1016" y2="510.1016"/></g><!--class Phase--><g id="elem_Phase"><rect codeLine="25" fill="#F1F1F1" height="26.291" id="Phase" rx="1.25" ry="1.25" style="stroke:#181818;stroke-width:0.25;" width="23" x="490.5" y="420.8105"/><text fill="#000000" font-family="sans-serif" font-size="6" font-style="italic" lengthAdjust="spacing" textLength="22" x="491" y="429.7852">&#171;Entity&#187;</text><text fill="#000000" font-family="sans-serif" font-size="7" lengthAdjust="spacing" textLength="20" x="492" y="438.8447">Phase</text><line style="stroke:#181818;stroke-width:0.25;" x1="491" x2="513" y1="443.1016" y2="443.1016"/></g><!--class JobOfferRequirements--><g id="elem_JobOfferRequirements"><rect codeLine="26" fill="#F1F1F1" height="26.291" id="JobOfferRequirements" rx="1.25" ry="1.25" style="stroke:#181818;stroke-width:0.25;" width="74" x="393" y="354.8105"/><text fill="#000000" font-family="sans-serif" font-size="6" font-style="italic" lengthAdjust="spacing" textLength="42.5" x="408.75" y="363.7852">&#171;Value Object&#187;</text><text fill="#000000" font-family="sans-serif" font-size="7" lengthAdjust="spacing" textLength="71" x="394.5" y="372.8447">JobOfferRequirements</text><line style="stroke:#181818;stroke-width:0.25;" x1="393.5" x2="466.5" y1="377.1016" y2="377.1016"/></g><!--class InterviewDescription--><g id="elem_InterviewDescription"><rect codeLine="27" fill="#F1F1F1" height="26.291" id="InterviewDescription" rx="1.25" ry="1.25" style="stroke:#181818;stroke-width:0.25;" width="66" x="541.5" y="420.8105"/><text fill="#000000" font-family="sans-serif" font-size="6" font-style="italic" lengthAdjust="spacing" textLength="42.5" x="553.25" y="429.7852">&#171;Value Object&#187;</text><text fill="#000000" font-family="sans-serif" font-size="7" lengthAdjust="spacing" textLength="63" x="543" y="438.8447">InterviewDescription</text><line style="stroke:#181818;stroke-width:0.25;" x1="542" x2="607" y1="443.1016" y2="443.1016"/></g><!--class JobOffer--><g id="elem_JobOffer"><rect codeLine="28" fill="#F1F1F1" height="26.291" id="JobOffer" rx="1.25" ry="1.25" style="stroke:#181818;stroke-width:0.25;" width="37.5" x="496.75" y="276.3105"/><text fill="#000000" font-family="sans-serif" font-size="6" font-style="italic" lengthAdjust="spacing" textLength="36.5" x="497.25" y="285.2852">&#171;Root Entity&#187;</text><text fill="#000000" font-family="sans-serif" font-size="7" lengthAdjust="spacing" textLength="27" x="502" y="294.3447">JobOffer</text><line style="stroke:#181818;stroke-width:0.25;" x1="497.25" x2="533.75" y1="298.6016" y2="298.6016"/></g><!--class JobOfferID--><g id="elem_JobOfferID"><rect codeLine="29" fill="#F1F1F1" height="26.291" id="JobOfferID" rx="1.25" ry="1.25" style="stroke:#181818;stroke-width:0.25;" width="36.5" x="526.25" y="354.8105"/><text fill="#000000" font-family="sans-serif" font-size="6" font-style="italic" lengthAdjust="spacing" textLength="31" x="529" y="363.7852">&#171;Identifier&#187;</text><text fill="#000000" font-family="sans-serif" font-size="7" lengthAdjust="spacing" textLength="33.5" x="527.75" y="372.8447">JobOfferID</text><line style="stroke:#181818;stroke-width:0.25;" x1="526.75" x2="562.25" y1="377.1016" y2="377.1016"/></g><!--class Report--><g id="elem_Report"><rect codeLine="30" fill="#F1F1F1" height="26.291" id="Report" rx="1.25" ry="1.25" style="stroke:#181818;stroke-width:0.25;" width="43.5" x="331.75" y="354.8105"/><text fill="#000000" font-family="sans-serif" font-size="6" font-style="italic" lengthAdjust="spacing" textLength="42.5" x="332.25" y="363.7852">&#171;Value Object&#187;</text><text fill="#000000" font-family="sans-serif" font-size="7" lengthAdjust="spacing" textLength="21.5" x="342.75" y="372.8447">Report</text><line style="stroke:#181818;stroke-width:0.25;" x1="332.25" x2="374.75" y1="377.1016" y2="377.1016"/></g><!--class Address--><g id="elem_Address"><rect codeLine="31" fill="#F1F1F1" height="26.291" id="Address" rx="1.25" ry="1.25" style="stroke:#181818;stroke-width:0.25;" width="43.5" x="625.25" y="420.8105"/><text fill="#000000" font-family="sans-serif" font-size="6" font-style="italic" lengthAdjust="spacing" textLength="42.5" x="625.75" y="429.7852">&#171;Value Object&#187;</text><text fill="#000000" font-family="sans-serif" font-size="7" lengthAdjust="spacing" textLength="26" x="634" y="438.8447">Address</text><line style="stroke:#181818;stroke-width:0.25;" x1="625.75" x2="668.25" y1="443.1016" y2="443.1016"/></g><!--class Application--><g id="elem_Application"><rect codeLine="37" fill="#F1F1F1" height="26.291" id="Application" rx="1.25" ry="1.25" style="stroke:#181818;stroke-width:0.25;" width="37.5" x="124.75" y="354.8105"/><text fill="#000000" font-family="sans-serif" font-size="6" font-style="italic" lengthAdjust="spacing" textLength="36.5" x="125.25" y="363.7852">&#171;Root Entity&#187;</text><text fill="#000000" font-family="sans-serif" font-size="7" lengthAdjust="spacing" textLength="34.5" x="126.25" y="372.8447">Application</text><line style="stroke:#181818;stroke-width:0.25;" x1="125.25" x2="161.75" y1="377.1016" y2="377.1016"/></g><!--class ApplicationStatus--><g id="elem_ApplicationStatus"><rect codeLine="38" fill="#F1F1F1" height="26.291" id="ApplicationStatus" rx="1.25" ry="1.25" style="stroke:#181818;stroke-width:0.25;" width="57.5" x="11.75" y="420.8105"/><text fill="#000000" font-family="sans-serif" font-size="6" font-style="italic" lengthAdjust="spacing" textLength="22" x="29.5" y="429.7852">&#171;Entity&#187;</text><text fill="#000000" font-family="sans-serif" font-size="7" lengthAdjust="spacing" textLength="54.5" x="13.25" y="438.8447">ApplicationStatus</text><line style="stroke:#181818;stroke-width:0.25;" x1="12.25" x2="68.75" y1="443.1016" y2="443.1016"/></g><!--class AnalyzedRequirements--><g id="elem_AnalyzedRequirements"><rect codeLine="39" fill="#F1F1F1" height="26.291" id="AnalyzedRequirements" rx="1.25" ry="1.25" style="stroke:#181818;stroke-width:0.25;" width="75.5" x="86.75" y="420.8105"/><text fill="#000000" font-family="sans-serif" font-size="6" font-style="italic" lengthAdjust="spacing" textLength="42.5" x="103.25" y="429.7852">&#171;Value Object&#187;</text><text fill="#000000" font-family="sans-serif" font-size="7" lengthAdjust="spacing" textLength="72.5" x="88.25" y="438.8447">AnalyzedRequirements</text><line style="stroke:#181818;stroke-width:0.25;" x1="87.25" x2="161.75" y1="443.1016" y2="443.1016"/></g><!--class InterviewFeedback--><g id="elem_InterviewFeedback"><rect codeLine="40" fill="#F1F1F1" height="26.291" id="InterviewFeedback" rx="1.25" ry="1.25" style="stroke:#181818;stroke-width:0.25;" width="62" x="180" y="420.8105"/><text fill="#000000" font-family="sans-serif" font-size="6" font-style="italic" lengthAdjust="spacing" textLength="42.5" x="189.75" y="429.7852">&#171;Value Object&#187;</text><text fill="#000000" font-family="sans-serif" font-size="7" lengthAdjust="spacing" textLength="59" x="181.5" y="438.8447">InterviewFeedback</text><line style="stroke:#181818;stroke-width:0.25;" x1="180.5" x2="241.5" y1="443.1016" y2="443.1016"/></g><!--class ReportFiles--><g id="elem_ReportFiles"><rect codeLine="41" fill="#F1F1F1" height="26.291" id="ReportFiles" rx="1.25" ry="1.25" style="stroke:#181818;stroke-width:0.25;" width="43.5" x="259.75" y="420.8105"/><text fill="#000000" font-family="sans-serif" font-size="6" font-style="italic" lengthAdjust="spacing" textLength="42.5" x="260.25" y="429.7852">&#171;Value Object&#187;</text><text fill="#000000" font-family="sans-serif" font-size="7" lengthAdjust="spacing" textLength="36.5" x="263.25" y="438.8447">ReportFiles</text><line style="stroke:#181818;stroke-width:0.25;" x1="260.25" x2="302.75" y1="443.1016" y2="443.1016"/></g><!--class CustomerManager--><g id="elem_CustomerManager"><rect codeLine="47" fill="#F1F1F1" height="26.291" id="CustomerManager" rx="1.25" ry="1.25" style="stroke:#181818;stroke-width:0.25;" width="61.5" x="400.75" y="119.3105"/><text fill="#000000" font-family="sans-serif" font-size="6" font-style="italic" lengthAdjust="spacing" textLength="36.5" x="413.25" y="128.2852">&#171;Root Entity&#187;</text><text fill="#000000" font-family="sans-serif" font-size="7" lengthAdjust="spacing" textLength="58.5" x="402.25" y="137.3447">CustomerManager</text><line style="stroke:#181818;stroke-width:0.25;" x1="401.25" x2="461.75" y1="141.6016" y2="141.6016"/></g><!--class CustomerManagerID--><g id="elem_CustomerManagerID"><rect codeLine="48" fill="#F1F1F1" height="26.291" id="CustomerManagerID" rx="1.25" ry="1.25" style="stroke:#181818;stroke-width:0.25;" width="68" x="397.5" y="197.8105"/><text fill="#000000" font-family="sans-serif" font-size="6" font-style="italic" lengthAdjust="spacing" textLength="31" x="416" y="206.7852">&#171;Identifier&#187;</text><text fill="#000000" font-family="sans-serif" font-size="7" lengthAdjust="spacing" textLength="65" x="399" y="215.8447">CustomerManagerID</text><line style="stroke:#181818;stroke-width:0.25;" x1="398" x2="465" y1="220.1016" y2="220.1016"/></g><!--class Operator--><g id="elem_Operator"><rect codeLine="49" fill="#F1F1F1" height="26.291" id="Operator" rx="1.25" ry="1.25" style="stroke:#181818;stroke-width:0.25;" width="37.5" x="342.25" y="119.3105"/><text fill="#000000" font-family="sans-serif" font-size="6" font-style="italic" lengthAdjust="spacing" textLength="36.5" x="342.75" y="128.2852">&#171;Root Entity&#187;</text><text fill="#000000" font-family="sans-serif" font-size="7" lengthAdjust="spacing" textLength="28.5" x="346.75" y="137.3447">Operator</text><line style="stroke:#181818;stroke-width:0.25;" x1="342.75" x2="379.25" y1="141.6016" y2="141.6016"/></g><!--class OperatorID--><g id="elem_OperatorID"><rect codeLine="50" fill="#F1F1F1" height="26.291" id="OperatorID" rx="1.25" ry="1.25" style="stroke:#181818;stroke-width:0.25;" width="38" x="342" y="197.8105"/><text fill="#000000" font-family="sans-serif" font-size="6" font-style="italic" lengthAdjust="spacing" textLength="31" x="345.5" y="206.7852">&#171;Identifier&#187;</text><text fill="#000000" font-family="sans-serif" font-size="7" lengthAdjust="spacing" textLength="35" x="343.5" y="215.8447">OperatorID</text><line style="stroke:#181818;stroke-width:0.25;" x1="342.5" x2="379.5" y1="220.1016" y2="220.1016"/></g><!--class Candidate--><g id="elem_Candidate"><rect codeLine="58" fill="#F1F1F1" height="26.291" id="Candidate" rx="1.25" ry="1.25" style="stroke:#181818;stroke-width:0.25;" width="37.5" x="124.75" y="197.8105"/><text fill="#000000" font-family="sans-serif" font-size="6" font-style="italic" lengthAdjust="spacing" textLength="36.5" x="125.25" y="206.7852">&#171;Root Entity&#187;</text><text fill="#000000" font-family="sans-serif" font-size="7" lengthAdjust="spacing" textLength="32.5" x="127.25" y="215.8447">Candidate</text><line style="stroke:#181818;stroke-width:0.25;" x1="125.25" x2="161.75" y1="220.1016" y2="220.1016"/></g><!--class CandidateID--><g id="elem_CandidateID"><rect codeLine="59" fill="#F1F1F1" height="26.291" id="CandidateID" rx="1.25" ry="1.25" style="stroke:#181818;stroke-width:0.25;" width="42" x="122.5" y="276.3105"/><text fill="#000000" font-family="sans-serif" font-size="6" font-style="italic" lengthAdjust="spacing" textLength="31" x="128" y="285.2852">&#171;Identifier&#187;</text><text fill="#000000" font-family="sans-serif" font-size="7" lengthAdjust="spacing" textLength="39" x="124" y="294.3447">CandidateID</text><line style="stroke:#181818;stroke-width:0.25;" x1="123" x2="164" y1="298.6016" y2="298.6016"/></g><!--class Process--><g id="elem_Process"><rect codeLine="65" fill="#F1F1F1" height="26.291" id="Process" rx="1.25" ry="1.25" style="stroke:#181818;stroke-width:0.25;" width="43.5" x="493.75" y="197.8105"/><text fill="#000000" font-family="sans-serif" font-size="6" font-style="italic" lengthAdjust="spacing" textLength="42.5" x="494.25" y="206.7852">&#171;Value Object&#187;</text><text fill="#000000" font-family="sans-serif" font-size="7" lengthAdjust="spacing" textLength="25.5" x="502.75" y="215.8447">Process</text><line style="stroke:#181818;stroke-width:0.25;" x1="494.25" x2="536.75" y1="220.1016" y2="220.1016"/></g><!--class Admin--><g id="elem_Admin"><rect codeLine="70" fill="#F1F1F1" height="26.291" id="Admin" rx="1.25" ry="1.25" style="stroke:#181818;stroke-width:0.25;" width="37.5" x="276.25" y="41.8105"/><text fill="#000000" font-family="sans-serif" font-size="6" font-style="italic" lengthAdjust="spacing" textLength="36.5" x="276.75" y="50.7852">&#171;Root Entity&#187;</text><text fill="#000000" font-family="sans-serif" font-size="7" lengthAdjust="spacing" textLength="19.5" x="285.25" y="59.8447">Admin</text><line style="stroke:#181818;stroke-width:0.25;" x1="276.75" x2="313.25" y1="64.1016" y2="64.1016"/></g><!--class AdminID--><g id="elem_AdminID"><rect codeLine="71" fill="#F1F1F1" height="26.291" id="AdminID" rx="1.25" ry="1.25" style="stroke:#181818;stroke-width:0.25;" width="32" x="279" y="119.3105"/><text fill="#000000" font-family="sans-serif" font-size="6" font-style="italic" lengthAdjust="spacing" textLength="31" x="279.5" y="128.2852">&#171;Identifier&#187;</text><text fill="#000000" font-family="sans-serif" font-size="7" lengthAdjust="spacing" textLength="26" x="282" y="137.3447">AdminID</text><line style="stroke:#181818;stroke-width:0.25;" x1="279.5" x2="310.5" y1="141.6016" y2="141.6016"/></g><!--class EmailBot--><g id="elem_EmailBot"><rect codeLine="78" fill="#F1F1F1" height="26.291" id="EmailBot" rx="1.25" ry="1.25" style="stroke:#181818;stroke-width:0.25;" width="37.5" x="494.25" y="41.8105"/><text fill="#000000" font-family="sans-serif" font-size="6" font-style="italic" lengthAdjust="spacing" textLength="36.5" x="494.75" y="50.7852">&#171;Root Entity&#187;</text><text fill="#000000" font-family="sans-serif" font-size="7" lengthAdjust="spacing" textLength="27.5" x="499.25" y="59.8447">EmailBot</text><line style="stroke:#181818;stroke-width:0.25;" x1="494.75" x2="531.25" y1="64.1016" y2="64.1016"/></g><!--class FileBot--><g id="elem_FileBot"><rect codeLine="79" fill="#F1F1F1" height="26.291" id="FileBot" rx="1.25" ry="1.25" style="stroke:#181818;stroke-width:0.25;" width="37.5" x="495.25" y="119.3105"/><text fill="#000000" font-family="sans-serif" font-size="6" font-style="italic" lengthAdjust="spacing" textLength="36.5" x="495.75" y="128.2852">&#171;Root Entity&#187;</text><text fill="#000000" font-family="sans-serif" font-size="7" lengthAdjust="spacing" textLength="22" x="503" y="137.3447">FileBot</text><line style="stroke:#181818;stroke-width:0.25;" x1="495.75" x2="532.25" y1="141.6016" y2="141.6016"/></g><!--class ProcessBackOfice--><g id="elem_ProcessBackOfice"><rect codeLine="85" fill="#F1F1F1" height="26.291" id="ProcessBackOfice" rx="1.25" ry="1.25" style="stroke:#181818;stroke-width:0.25;" width="60.5" x="565.75" y="197.8105"/><text fill="#000000" font-family="sans-serif" font-size="6" font-style="italic" lengthAdjust="spacing" textLength="42.5" x="574.75" y="206.7852">&#171;Value Object&#187;</text><text fill="#000000" font-family="sans-serif" font-size="7" lengthAdjust="spacing" textLength="57.5" x="567.25" y="215.8447">ProcessBackOfice</text><line style="stroke:#181818;stroke-width:0.25;" x1="566.25" x2="625.75" y1="220.1016" y2="220.1016"/></g><!--link Client to ClientID--><g id="link_Client_ClientID"><path codeLine="92" d="M228.33,145.8605 C228.7,160.2155 229.3,183.3755 229.67,197.7455 " fill="none" id="Client-ClientID" style="stroke:#181818;stroke-width:0.5;"/><polygon fill="#000000" points="231.0645,169.1325,232.4168,164.5735,229.4788,164.6494,231.0645,169.1325" style="stroke:#000000;stroke-width:0.5;"/><text fill="#000000" font-family="sans-serif" font-size="6.5" lengthAdjust="spacing" textLength="10.5" x="235.5" y="169.3247">has</text><text fill="#000000" font-family="sans-serif" font-size="6.5" lengthAdjust="spacing" textLength="3.5" x="224.5371" y="156.531">1</text><text fill="#000000" font-family="sans-serif" font-size="6.5" lengthAdjust="spacing" textLength="3.5" x="225.689" y="192.2388">1</text></g><!--link ClientID to JobOffer--><g id="link_ClientID_JobOffer"><path codeLine="94" d="M246.17,215.9505 C295.475,229.3355 443.79,269.5955 496.585,283.9255 " fill="none" id="ClientID-JobOffer" style="stroke:#181818;stroke-width:0.5;"/><polygon fill="#000000" points="368.9127,245.7882,364.933,243.1853,364.1631,246.0216,368.9127,245.7882" style="stroke:#000000;stroke-width:0.5;"/><text fill="#000000" font-family="sans-serif" font-size="6.5" lengthAdjust="spacing" textLength="23" x="371" y="247.8247">submits</text><text fill="#000000" font-family="sans-serif" font-size="6.5" lengthAdjust="spacing" textLength="3.5" x="250.09" y="214.6435">1</text><text fill="#000000" font-family="sans-serif" font-size="6.5" lengthAdjust="spacing" textLength="2.5" x="490.241" y="280.5892">*</text></g><!--link JobOffer to Phase--><g id="link_JobOffer_Phase"><path codeLine="96" d="M514.085,302.8105 C513.165,311.1905 511.97,322.4005 511,332.3105 C507.895,364.1005 504.68,401.5505 503.065,420.7655 " fill="none" id="JobOffer-Phase" style="stroke:#181818;stroke-width:0.5;"/><polygon fill="#000000" points="513.2674,370.5497,515.1512,366.1835,512.225,365.9101,513.2674,370.5497" style="stroke:#000000;stroke-width:0.5;"/><text fill="#000000" font-family="sans-serif" font-size="6.5" lengthAdjust="spacing" textLength="3.5" x="509.8927" y="313.6916">1</text><text fill="#000000" font-family="sans-serif" font-size="6.5" lengthAdjust="spacing" textLength="11" x="491.0394" y="415.2634">4..5</text></g><!--link JobOffer to JobOfferRequirements--><g id="link_JobOffer_JobOfferRequirements"><path codeLine="97" d="M496.68,294.4555 C482.525,298.6205 463.49,306.1605 451,318.8105 C441.22,328.7105 435.675,343.8955 432.765,354.6805 " fill="none" id="JobOffer-JobOfferRequirements" style="stroke:#181818;stroke-width:0.5;"/><polygon fill="#000000" points="451.6805,325.3478,455.9798,323.3158,453.9643,321.1768,451.6805,325.3478" style="stroke:#000000;stroke-width:0.5;"/><text fill="#000000" font-family="sans-serif" font-size="6.5" lengthAdjust="spacing" textLength="39" x="458" y="326.3247">composed by</text><text fill="#000000" font-family="sans-serif" font-size="6.5" lengthAdjust="spacing" textLength="11" x="481.804" y="302.9554">0..1</text><text fill="#000000" font-family="sans-serif" font-size="6.5" lengthAdjust="spacing" textLength="3.5" x="429.4997" y="349.1588">1</text></g><!--link JobOffer to InterviewDescription--><g id="link_JobOffer_InterviewDescription"><path codeLine="98" d="M534.34,298.6705 C547.315,305.7055 563.59,317.0005 571.5,332.3105 C586.315,360.9755 581.435,400.5705 577.48,420.6955 " fill="none" id="JobOffer-InterviewDescription" style="stroke:#181818;stroke-width:0.5;"/><polygon fill="#000000" points="584.8333,370.4903,584.7113,365.7366,581.9404,366.7162,584.8333,370.4903" style="stroke:#000000;stroke-width:0.5;"/><text fill="#000000" font-family="sans-serif" font-size="6.5" lengthAdjust="spacing" textLength="10.5" x="588.5" y="370.8247">has</text><text fill="#000000" font-family="sans-serif" font-size="6.5" lengthAdjust="spacing" textLength="11" x="538.2192" y="297.9875">0..1</text><text fill="#000000" font-family="sans-serif" font-size="6.5" lengthAdjust="spacing" textLength="11" x="565.8973" y="415.1772">0..1</text></g><!--link JobOffer to Report--><g id="link_JobOffer_Report"><path codeLine="99" d="M496.555,292.9005 C469.78,297.6005 420.165,308.9105 384.5,332.3105 C375.575,338.1655 367.665,347.2605 362.07,354.7455 " fill="none" id="JobOffer-Report" style="stroke:#181818;stroke-width:0.5;"/><polygon fill="#000000" points="407.2287,324.6051,411.9515,324.0506,410.7236,321.3805,407.2287,324.6051" style="stroke:#000000;stroke-width:0.5;"/><text fill="#000000" font-family="sans-serif" font-size="6.5" lengthAdjust="spacing" textLength="3.5" x="489.2394" y="291.2796">1</text><text fill="#000000" font-family="sans-serif" font-size="6.5" lengthAdjust="spacing" textLength="3.5" x="360.1471" y="349.2388">1</text></g><!--link JobOffer to Address--><g id="link_JobOffer_Address"><path codeLine="100" d="M534.335,294.8455 C553.93,300.6955 584.38,312.3755 603.5,332.3105 C628.13,357.9955 639.935,399.8055 644.545,420.7505 " fill="none" id="JobOffer-Address" style="stroke:#181818;stroke-width:0.5;"/><polygon fill="#000000" points="636.1466,370.0144,634.2735,365.6436,632.0622,367.5793,636.1466,370.0144" style="stroke:#000000;stroke-width:0.5;"/><text fill="#000000" font-family="sans-serif" font-size="6.5" lengthAdjust="spacing" textLength="10.5" x="639" y="370.8247">has</text><text fill="#000000" font-family="sans-serif" font-size="6.5" lengthAdjust="spacing" textLength="3.5" x="538.259" y="303.7111">1</text><text fill="#000000" font-family="sans-serif" font-size="6.5" lengthAdjust="spacing" textLength="3.5" x="640.0726" y="415.2449">1</text></g><!--link JobOffer to JobOfferID--><g id="link_JobOffer_JobOfferID"><path codeLine="101" d="M520.29,302.8605 C525.66,317.2155 534.33,340.3755 539.705,354.7455 " fill="none" id="JobOffer-JobOfferID" style="stroke:#181818;stroke-width:0.5;"/><polygon fill="#000000" points="532.3762,325.902,532.1674,321.1513,529.4149,322.1813,532.3762,325.902" style="stroke:#000000;stroke-width:0.5;"/><text fill="#000000" font-family="sans-serif" font-size="6.5" lengthAdjust="spacing" textLength="3.5" x="517.417" y="313.531">1</text><text fill="#000000" font-family="sans-serif" font-size="6.5" lengthAdjust="spacing" textLength="3.5" x="534.6915" y="349.2388">1</text></g><!--link Phase to PhaseData--><g id="link_Phase_PhaseData"><path codeLine="103" d="M502,447.4405 C502,459.0705 502,476.0905 502,487.7105 " fill="none" id="Phase-PhaseData" style="stroke:#181818;stroke-width:0.5;"/><polygon fill="#000000" points="504.5,470.6333,505.9695,466.1108,503.0305,466.1108,504.5,470.6333" style="stroke:#000000;stroke-width:0.5;"/><text fill="#000000" font-family="sans-serif" font-size="6.5" lengthAdjust="spacing" textLength="10.5" x="509" y="470.8247">has</text><text fill="#000000" font-family="sans-serif" font-size="6.5" lengthAdjust="spacing" textLength="2.5" x="499.2422" y="458.1275">*</text><text fill="#000000" font-family="sans-serif" font-size="6.5" lengthAdjust="spacing" textLength="3.5" x="498.0953" y="482.1957">1</text></g><!--link Report to ReportFiles--><g id="link_Report_ReportFiles"><path codeLine="105" d="M339.275,381.4005 C326.655,392.7955 308.31,409.3555 295.695,420.7455 " fill="none" id="Report-ReportFiles" style="stroke:#181818;stroke-width:0.5;"/><polygon fill="#000000" points="322.1444,402.8086,326.486,400.8687,324.5165,398.6872,322.1444,402.8086" style="stroke:#000000;stroke-width:0.5;"/><text fill="#000000" font-family="sans-serif" font-size="6.5" lengthAdjust="spacing" textLength="28" x="328.5" y="403.8247">originates</text><text fill="#000000" font-family="sans-serif" font-size="6.5" lengthAdjust="spacing" textLength="3.5" x="332.4802" y="392.0792">1</text><text fill="#000000" font-family="sans-serif" font-size="6.5" lengthAdjust="spacing" textLength="2.5" x="296.1885" y="415.2388">*</text></g><!--link Application to InterviewFeedback--><g id="link_Application_InterviewFeedback"><path codeLine="107" d="M156.835,381.4005 C168.67,392.7955 185.865,409.3555 197.69,420.7455 " fill="none" id="Application-InterviewFeedback" style="stroke:#181818;stroke-width:0.5;"/><polygon fill="#000000" points="185.8007,402.8675,183.5625,398.6719,181.5239,400.7888,185.8007,402.8675" style="stroke:#000000;stroke-width:0.5;"/><text fill="#000000" font-family="sans-serif" font-size="6.5" lengthAdjust="spacing" textLength="10.5" x="188.5" y="403.8247">has</text><text fill="#000000" font-family="sans-serif" font-size="6.5" lengthAdjust="spacing" textLength="3.5" x="155.7244" y="392.0792">1</text><text fill="#000000" font-family="sans-serif" font-size="6.5" lengthAdjust="spacing" textLength="3.5" x="190.7074" y="415.2388">1</text></g><!--link Application to AnalyzedRequirements--><g id="link_Application_AnalyzedRequirements"><path codeLine="108" d="M139.745,381.4005 C136.415,392.7955 131.575,409.3555 128.245,420.7455 " fill="none" id="Application-AnalyzedRequirements" style="stroke:#181818;stroke-width:0.5;"/><polygon fill="#000000" points="137.2986,403.5329,139.9779,399.6042,137.157,398.7797,137.2986,403.5329" style="stroke:#000000;stroke-width:0.5;"/><text fill="#000000" font-family="sans-serif" font-size="6.5" lengthAdjust="spacing" textLength="10.5" x="142.5" y="403.8247">has</text><text fill="#000000" font-family="sans-serif" font-size="6.5" lengthAdjust="spacing" textLength="3.5" x="135.1096" y="392.0792">1</text><text fill="#000000" font-family="sans-serif" font-size="6.5" lengthAdjust="spacing" textLength="3.5" x="125.2063" y="415.2388">1</text></g><!--link Application to ApplicationStatus--><g id="link_Application_ApplicationStatus"><path codeLine="109" d="M124.61,380.4805 C106.545,391.8805 79.395,409.0155 60.86,420.7105 " fill="none" id="Application-ApplicationStatus" style="stroke:#181818;stroke-width:0.5;"/><polygon fill="#000000" points="98.8858,402.3947,103.4947,401.2239,101.9262,398.7385,98.8858,402.3947" style="stroke:#000000;stroke-width:0.5;"/><text fill="#000000" font-family="sans-serif" font-size="6.5" lengthAdjust="spacing" textLength="3.5" x="117.3045" y="380.5337">1</text><text fill="#000000" font-family="sans-serif" font-size="6.5" lengthAdjust="spacing" textLength="3.5" x="61.6636" y="415.1957">1</text></g><!--link Application to ReportFiles--><g id="link_Application_ReportFiles"><path codeLine="110" d="M162.31,377.1855 C174.15,382.6355 189.74,389.8405 203.5,396.3105 C222.515,405.2455 244.06,415.5505 259.68,423.0505 " fill="none" id="Application-ReportFiles" style="stroke:#181818;stroke-width:0.5;"/><polygon fill="#000000" points="227.2617,402.1259,223.7965,398.8693,222.5441,401.528,227.2617,402.1259" style="stroke:#000000;stroke-width:0.5;"/><text fill="#000000" font-family="sans-serif" font-size="6.5" lengthAdjust="spacing" textLength="3.5" x="166.2293" y="376.6628">1</text><text fill="#000000" font-family="sans-serif" font-size="6.5" lengthAdjust="spacing" textLength="2.5" x="253.2148" y="418.9724">*</text></g><!--link CustomerManager to CustomerManagerID--><g id="link_CustomerManager_CustomerManagerID"><path codeLine="113" d="M430.955,145.9405 C430.77,150.9005 430.59,156.6155 430.5,161.8105 C430.29,174.0005 430.63,187.9005 430.97,197.7305 " fill="none" id="CustomerManager-CustomerManagerID" style="stroke:#181818;stroke-width:0.5;"/><polygon fill="#000000" points="433.0007,169.1333,434.4689,164.6103,431.53,164.6112,433.0007,169.1333" style="stroke:#000000;stroke-width:0.5;"/><text fill="#000000" font-family="sans-serif" font-size="6.5" lengthAdjust="spacing" textLength="10.5" x="437.5" y="169.3247">has</text><text fill="#000000" font-family="sans-serif" font-size="6.5" lengthAdjust="spacing" textLength="3.5" x="426.9817" y="156.6275">1</text><text fill="#000000" font-family="sans-serif" font-size="6.5" lengthAdjust="spacing" textLength="3.5" x="426.9428" y="192.2203">1</text></g><!--link CustomerManager to Process--><g id="link_CustomerManager_Process"><path codeLine="114" d="M445.37,145.8605 C460.935,160.2155 486.035,183.3755 501.61,197.7455 " fill="none" id="CustomerManager-Process" style="stroke:#181818;stroke-width:0.5;"/><polygon fill="#000000" points="474.8375,168.3285,472.5099,164.1818,470.517,166.3419,474.8375,168.3285" style="stroke:#000000;stroke-width:0.5;"/><text fill="#000000" font-family="sans-serif" font-size="6.5" lengthAdjust="spacing" textLength="16" x="477.5" y="169.3247">setup</text><text fill="#000000" font-family="sans-serif" font-size="6.5" lengthAdjust="spacing" textLength="3.5" x="444.3698" y="156.531">1</text><text fill="#000000" font-family="sans-serif" font-size="6.5" lengthAdjust="spacing" textLength="2.5" x="495.6089" y="192.2388">*</text></g><!--link Process to JobOffer--><g id="link_Process_JobOffer"><path codeLine="116" d="M515.5,224.3605 C515.5,238.7155 515.5,261.8755 515.5,276.2455 " fill="none" id="Process-JobOffer" style="stroke:#181818;stroke-width:0.5;"/><polygon fill="#000000" points="518,247.6333,519.4695,243.1108,516.5305,243.1108,518,247.6333" style="stroke:#000000;stroke-width:0.5;"/><text fill="#000000" font-family="sans-serif" font-size="6.5" lengthAdjust="spacing" textLength="18" x="522.5" y="247.8247">create</text><text fill="#000000" font-family="sans-serif" font-size="6.5" lengthAdjust="spacing" textLength="3.5" x="511.6391" y="235.031">1</text><text fill="#000000" font-family="sans-serif" font-size="6.5" lengthAdjust="spacing" textLength="2.5" x="512.7109" y="270.7388">*</text></g><!--link CandidateID to Application--><g id="link_CandidateID_Application"><path codeLine="120" d="M143.5,302.8605 C143.5,317.2155 143.5,340.3755 143.5,354.7455 " fill="none" id="CandidateID-Application" style="stroke:#181818;stroke-width:0.5;"/><polygon fill="#000000" points="146,326.1333,147.4695,321.6108,144.5305,321.6108,146,326.1333" style="stroke:#000000;stroke-width:0.5;"/><text fill="#000000" font-family="sans-serif" font-size="6.5" lengthAdjust="spacing" textLength="19.5" x="150.5" y="326.3247">makes</text><text fill="#000000" font-family="sans-serif" font-size="6.5" lengthAdjust="spacing" textLength="3.5" x="139.6391" y="313.531">1</text><text fill="#000000" font-family="sans-serif" font-size="6.5" lengthAdjust="spacing" textLength="2.5" x="140.7109" y="349.2388">*</text></g><!--link Candidate to CandidateID--><g id="link_Candidate_CandidateID"><path codeLine="121" d="M143.5,224.3605 C143.5,238.7155 143.5,261.8755 143.5,276.2455 " fill="none" id="Candidate-CandidateID" style="stroke:#181818;stroke-width:0.5;"/><polygon fill="#000000" points="146,247.6333,147.4695,243.1108,144.5305,243.1108,146,247.6333" style="stroke:#000000;stroke-width:0.5;"/><text fill="#000000" font-family="sans-serif" font-size="6.5" lengthAdjust="spacing" textLength="10.5" x="150.5" y="247.8247">has</text><text fill="#000000" font-family="sans-serif" font-size="6.5" lengthAdjust="spacing" textLength="3.5" x="139.6391" y="235.031">1</text><text fill="#000000" font-family="sans-serif" font-size="6.5" lengthAdjust="spacing" textLength="3.5" x="139.5953" y="270.7388">1</text></g><!--link Admin to AdminID--><g id="link_Admin_AdminID"><path codeLine="123" d="M295,68.3655 C295,82.4855 295,105.0755 295,119.2155 " fill="none" id="Admin-AdminID" style="stroke:#181818;stroke-width:0.5;"/><polygon fill="#000000" points="297.5,90.6333,298.9695,86.1108,296.0305,86.1108,297.5,90.6333" style="stroke:#000000;stroke-width:0.5;"/><text fill="#000000" font-family="sans-serif" font-size="6.5" lengthAdjust="spacing" textLength="10.5" x="302" y="90.8247">has</text><text fill="#000000" font-family="sans-serif" font-size="6.5" lengthAdjust="spacing" textLength="3.5" x="291.1391" y="79.037">1</text><text fill="#000000" font-family="sans-serif" font-size="6.5" lengthAdjust="spacing" textLength="3.5" x="291.0953" y="113.7019">1</text></g><!--link Admin to CustomerManager--><g id="link_Admin_CustomerManager"><path codeLine="124" d="M313.76,61.9055 C333.265,68.9355 364.27,81.3505 388.5,96.8105 C398.835,103.4055 409.5,112.1305 417.62,119.2505 " fill="none" id="Admin-CustomerManager" style="stroke:#181818;stroke-width:0.5;"/><polygon fill="#000000" points="385.6886,89.3417,382.4397,85.8693,381.0191,88.4421,385.6886,89.3417" style="stroke:#000000;stroke-width:0.5;"/><text fill="#000000" font-family="sans-serif" font-size="6.5" lengthAdjust="spacing" textLength="23" x="388" y="90.8247">manage</text><text fill="#000000" font-family="sans-serif" font-size="6.5" lengthAdjust="spacing" textLength="3.5" x="317.7979" y="60.9655">1</text><text fill="#000000" font-family="sans-serif" font-size="6.5" lengthAdjust="spacing" textLength="2.5" x="411.6212" y="113.7449">*</text></g><!--link Operator to OperatorID--><g id="link_Operator_OperatorID"><path codeLine="126" d="M361,145.8605 C361,160.2155 361,183.3755 361,197.7455 " fill="none" id="Operator-OperatorID" style="stroke:#181818;stroke-width:0.5;"/><polygon fill="#000000" points="363.5,169.1333,364.9695,164.6108,362.0305,164.6108,363.5,169.1333" style="stroke:#000000;stroke-width:0.5;"/><text fill="#000000" font-family="sans-serif" font-size="6.5" lengthAdjust="spacing" textLength="10.5" x="368" y="169.3247">has</text><text fill="#000000" font-family="sans-serif" font-size="6.5" lengthAdjust="spacing" textLength="3.5" x="357.1391" y="156.531">1</text><text fill="#000000" font-family="sans-serif" font-size="6.5" lengthAdjust="spacing" textLength="3.5" x="357.0953" y="192.2388">1</text></g><!--link Admin to Operator--><g id="link_Admin_Operator"><path codeLine="127" d="M306.045,68.3655 C318.23,82.4855 337.72,105.0755 349.915,119.2155 " fill="none" id="Admin-Operator" style="stroke:#181818;stroke-width:0.5;"/><polygon fill="#000000" points="330.1331,90.0262,328.2914,85.642,326.0662,87.5618,330.1331,90.0262" style="stroke:#000000;stroke-width:0.5;"/><text fill="#000000" font-family="sans-serif" font-size="6.5" lengthAdjust="spacing" textLength="23" x="333" y="90.8247">manage</text><text fill="#000000" font-family="sans-serif" font-size="6.5" lengthAdjust="spacing" textLength="3.5" x="304.4621" y="79.037">1</text><text fill="#000000" font-family="sans-serif" font-size="6.5" lengthAdjust="spacing" textLength="2.5" x="344.5625" y="113.7019">*</text></g><!--link ProcessBackOfice to JobOffer--><g id="link_ProcessBackOfice_JobOffer"><path codeLine="129" d="M582.705,224.3605 C567.79,238.7155 543.735,261.8755 528.815,276.2455 " fill="none" id="ProcessBackOfice-JobOffer" style="stroke:#181818;stroke-width:0.5;"/><polygon fill="#000000" points="569.301,243.3994,565.0238,245.4775,567.0622,247.5947,569.301,243.3994" style="stroke:#000000;stroke-width:0.5;"/><text fill="#000000" font-family="sans-serif" font-size="6.5" lengthAdjust="spacing" textLength="23" x="572" y="247.8247">regist in</text><text fill="#000000" font-family="sans-serif" font-size="6.5" lengthAdjust="spacing" textLength="2.5" x="577.2051" y="235.031">*</text><text fill="#000000" font-family="sans-serif" font-size="6.5" lengthAdjust="spacing" textLength="3.5" x="527.9894" y="270.7388">1</text></g><!--link EmailBot to Operator--><g id="link_EmailBot_Operator"><path codeLine="131" d="M494.13,64.0455 C474.755,72.4505 443.555,85.1455 415.5,92.8105 C405.28,95.6055 401.25,91.6455 392,96.8105 C382.465,102.1305 374.415,111.5405 368.915,119.3005 " fill="none" id="EmailBot-Operator" style="stroke:#181818;stroke-width:0.5;"/><polygon fill="#000000" points="447.2872,87.124,442.5564,87.6055,443.7429,90.2942,447.2872,87.124" style="stroke:#000000;stroke-width:0.5;"/><text fill="#000000" font-family="sans-serif" font-size="6.5" lengthAdjust="spacing" textLength="23" x="449.5" y="90.8247">manage</text><text fill="#000000" font-family="sans-serif" font-size="6.5" lengthAdjust="spacing" textLength="3.5" x="486.6993" y="63.4961">1</text><text fill="#000000" font-family="sans-serif" font-size="6.5" lengthAdjust="spacing" textLength="3.5" x="366.9177" y="113.5898">1</text></g><!--link EmailBot to FileBot--><g id="link_EmailBot_FileBot"><path codeLine="132" d="M513.165,68.3655 C513.35,82.4855 513.645,105.0755 513.83,119.2155 " fill="none" id="EmailBot-FileBot" style="stroke:#181818;stroke-width:0.5;"/><polygon fill="#000000" points="515.5327,90.6331,516.9429,86.0917,514.0042,86.1301,515.5327,90.6331" style="stroke:#000000;stroke-width:0.5;"/><text fill="#000000" font-family="sans-serif" font-size="6.5" lengthAdjust="spacing" textLength="37" x="520" y="90.8247">comunicates</text><text fill="#000000" font-family="sans-serif" font-size="6.5" lengthAdjust="spacing" textLength="3.5" x="509.3381" y="79.037">1</text><text fill="#000000" font-family="sans-serif" font-size="6.5" lengthAdjust="spacing" textLength="3.5" x="509.886" y="113.7019">1</text></g><!--link FileBot to Process--><g id="link_FileBot_Process"><path codeLine="134" d="M514.25,145.8605 C514.525,160.2155 514.975,183.3755 515.25,197.7455 " fill="none" id="FileBot-Process" style="stroke:#181818;stroke-width:0.5;"/><polygon fill="#000000" points="517.0482,169.1328,518.4302,164.5828,515.4918,164.6395,517.0482,169.1328" style="stroke:#000000;stroke-width:0.5;"/><text fill="#000000" font-family="sans-serif" font-size="6.5" lengthAdjust="spacing" textLength="18" x="521.5" y="169.3247">create</text><text fill="#000000" font-family="sans-serif" font-size="6.5" lengthAdjust="spacing" textLength="3.5" x="510.4406" y="156.531">1</text><text fill="#000000" font-family="sans-serif" font-size="6.5" lengthAdjust="spacing" textLength="2.5" x="512.4031" y="192.2388">*</text></g><!--SRC=[bLRVQzim47xtNo7oKYYqTB2zc118cnOow3AQiNTPlYHQRScJv1Ptz7_VIV6FIsojB2yHTzzzzqEd3zjdgIfkUCbAhRGu65q2SwQ6nFQUYejdleUjQmfW1eJZQbzGW3tmNBzAjMSxNbX84gShvZJBj7EwPBdqGLAhXCI8WbkxTCx8h7Qm5bfjvHkmcoGvo1oOa4PWZd0kmHrqRf5MEgnWfKik5NlKEHH9qXR7PdU51ENOZFr9aa3EMijy_gIrO_SAmvl5uiIvNg5xdUD9xYGOz2RlXFEhpjXcjmD3MByVk8KLTnmZV_AY1hR9Vc5_FNC0eFCy8v85hYVuNUD4IangOnnhvS2yI7XTWHL6LdvwCMp76scqSuzRFVgVeDB6nSYNUMx0JjGvFIUshAf22kxh9JCZraYL1B5rtDK-upb4yQ9vW_o_vlS0a6TOPWnuxFv15l1HZ_TbLUW6mD8DgoqkE9X7hX0Jku4pLEmYDXKOxdICfNDFhomfb0xxZgjSvjm1BRgpnShj_1yyZcrZ7PIpuM4OBIPNXGOjyr8gQLrePOWDvjXgUDz4BIUyjngNOU2xHuaeq1QXzFSzvNsdSxp5msOd1OnQx3tJAuE_Jem-pTZLLVZhzOQb30M2BJeGcZhOvMnup2cpTLPA5v2zzOX4wEVhwo-pLcfIXfW1SdDzFQIT59sK2LrMsaBEicOozgexJWfHry5PMU6lbPDqx3xwEq7v5mUHBC-J7Dlqusa1WmRtmsppab7IfvqoRUHUAjpgWAPlX2GUoqR77mcOrAIFOaPIbqR0eoRyrfzh3jsnaT1qfSI2C4FtR77XmDLLc7ThcjvBOS2BnoBiET4AWgRDfApaps7gW_3GcWb3Vvb7EQ0pQpMW7-q9u7BKUiZgJvwj5rP2IDGqojd7KRAH192r94DYS_nIsgFGCOcVFRqSJLGmiCydSPrMXKTRAp_MumvtZicx72xfubIT_oGN37_vy9oJY_SUTQSLIhDmFveAF7Jm-CyjRo7GikAgEG5zgyiCZDwzSC6La61FlFIH1CTV]--></g></svg>