<?xml version="1.0" encoding="us-ascii" standalone="no"?><svg xmlns="http://www.w3.org/2000/svg" xmlns:xlink="http://www.w3.org/1999/xlink" contentStyleType="text/css" height="867.6px" preserveAspectRatio="none" style="width:947px;height:867px;background:#FFFFFF;" version="1.1" viewBox="0 0 947 867" width="947.4px" zoomAndPan="magnify"><defs/><g><rect fill="#FFFFFF" height="750.8098" style="stroke:#181818;stroke-width:0.6;" width="6" x="38.1" y="56.1727"/><rect fill="#FFFFFF" height="18.7746" style="stroke:#181818;stroke-width:0.6;" width="6" x="324.9" y="70.1473"/><rect fill="#FFFFFF" height="18.7746" style="stroke:#181818;stroke-width:0.6;" width="6" x="324.9" y="220.3441"/><rect fill="#FFFFFF" height="18.7746" style="stroke:#181818;stroke-width:0.6;" width="6" x="324.9" y="257.8934"/><rect fill="#FFFFFF" height="18.7746" style="stroke:#181818;stroke-width:0.6;" width="6" x="324.9" y="397.1156"/><rect fill="#FFFFFF" height="18.7746" style="stroke:#181818;stroke-width:0.6;" width="6" x="324.9" y="509.7633"/><rect fill="#FFFFFF" height="18.7746" style="stroke:#181818;stroke-width:0.6;" width="6" x="324.9" y="648.9855"/><rect fill="#FFFFFF" height="18.7746" style="stroke:#181818;stroke-width:0.6;" width="6" x="324.9" y="788.2078"/><rect fill="#FFFFFF" height="18.7746" style="stroke:#181818;stroke-width:0.6;" width="6" x="468.3" y="88.9219"/><rect fill="#FFFFFF" height="18.7746" style="stroke:#181818;stroke-width:0.6;" width="6" x="468.3" y="201.5695"/><rect fill="#FFFFFF" height="18.7746" style="stroke:#181818;stroke-width:0.6;" width="6" x="468.3" y="276.668"/><rect fill="#FFFFFF" height="18.7746" style="stroke:#181818;stroke-width:0.6;" width="6" x="468.3" y="378.341"/><rect fill="#FFFFFF" height="18.7746" style="stroke:#181818;stroke-width:0.6;" width="6" x="468.3" y="415.8902"/><rect fill="#FFFFFF" height="18.7746" style="stroke:#181818;stroke-width:0.6;" width="6" x="468.3" y="490.9887"/><rect fill="#FFFFFF" height="18.7746" style="stroke:#181818;stroke-width:0.6;" width="6" x="468.3" y="528.5379"/><rect fill="#FFFFFF" height="18.7746" style="stroke:#181818;stroke-width:0.6;" width="6" x="468.3" y="630.2109"/><rect fill="#FFFFFF" height="18.7746" style="stroke:#181818;stroke-width:0.6;" width="6" x="468.3" y="667.7602"/><rect fill="#FFFFFF" height="18.7746" style="stroke:#181818;stroke-width:0.6;" width="6" x="468.3" y="769.4332"/><rect fill="#FFFFFF" height="93.873" style="stroke:#181818;stroke-width:0.6;" width="6" x="611.7" y="107.6965"/><rect fill="#FFFFFF" height="82.8984" style="stroke:#181818;stroke-width:0.6;" width="6" x="611.7" y="295.4426"/><rect fill="#FFFFFF" height="18.7746" style="stroke:#181818;stroke-width:0.6;" width="6" x="611.7" y="434.6648"/><rect fill="#FFFFFF" height="18.7746" style="stroke:#181818;stroke-width:0.6;" width="6" x="611.7" y="472.2141"/><rect fill="#FFFFFF" height="18.7746" style="stroke:#181818;stroke-width:0.6;" width="6" x="611.7" y="547.3125"/><rect fill="#FFFFFF" height="18.7746" style="stroke:#181818;stroke-width:0.6;" width="6" x="611.7" y="611.4363"/><rect fill="#FFFFFF" height="82.8984" style="stroke:#181818;stroke-width:0.6;" width="6" x="611.7" y="686.5348"/><rect fill="#FFFFFF" height="18.7746" style="stroke:#181818;stroke-width:0.6;" width="6" x="719.1" y="126.4711"/><rect fill="#FFFFFF" height="45.3492" style="stroke:#181818;stroke-width:0.6;" width="6" x="719.1" y="705.3094"/><rect fill="#FFFFFF" height="18.7746" style="stroke:#181818;stroke-width:0.6;" width="6" x="819.3" y="164.0203"/><rect fill="#FFFFFF" height="18.7746" style="stroke:#181818;stroke-width:0.6;" width="6" x="819.3" y="314.2172"/><rect fill="#FFFFFF" height="45.3492" style="stroke:#181818;stroke-width:0.6;" width="6" x="819.3" y="566.0871"/><rect fill="#FFFFFF" height="18.7746" style="stroke:#181818;stroke-width:0.6;" width="6" x="900.3" y="453.4395"/><line style="stroke:#181818;stroke-width:0.3;stroke-dasharray:5.0,5.0;" x1="40.8" x2="40.8" y1="50.1727" y2="817.7824"/><line style="stroke:#181818;stroke-width:0.3;stroke-dasharray:5.0,5.0;" x1="327.9" x2="327.9" y1="50.1727" y2="817.7824"/><line style="stroke:#181818;stroke-width:0.3;stroke-dasharray:5.0,5.0;" x1="471.3" x2="471.3" y1="50.1727" y2="817.7824"/><line style="stroke:#181818;stroke-width:0.3;stroke-dasharray:5.0,5.0;" x1="614.4" x2="614.4" y1="50.1727" y2="817.7824"/><line style="stroke:#181818;stroke-width:0.3;stroke-dasharray:5.0,5.0;" x1="721.8" x2="721.8" y1="50.1727" y2="817.7824"/><line style="stroke:#181818;stroke-width:0.3;stroke-dasharray:5.0,5.0;" x1="822" x2="822" y1="50.1727" y2="817.7824"/><line style="stroke:#181818;stroke-width:0.3;stroke-dasharray:5.0,5.0;" x1="903" x2="903" y1="50.1727" y2="817.7824"/><text fill="#000000" font-family="sans-serif" font-size="8.4" lengthAdjust="spacing" textLength="72.6" x="3" y="48.0645">Customer Manager</text><ellipse cx="41.1" cy="8.1" fill="#E2E2F0" rx="4.8" ry="4.8" style="stroke:#181818;stroke-width:0.3;"/><path d="M41.1,12.9 L41.1,29.1 M33.3,17.7 L48.9,17.7 M41.1,29.1 L33.3,38.1 M41.1,29.1 L48.9,38.1 " fill="none" style="stroke:#181818;stroke-width:0.3;"/><text fill="#000000" font-family="sans-serif" font-size="8.4" lengthAdjust="spacing" textLength="72.6" x="3" y="826.2469">Customer Manager</text><ellipse cx="41.1" cy="833.4551" fill="#E2E2F0" rx="4.8" ry="4.8" style="stroke:#181818;stroke-width:0.3;"/><path d="M41.1,838.2551 L41.1,854.4551 M33.3,843.0551 L48.9,843.0551 M41.1,854.4551 L33.3,863.4551 M41.1,854.4551 L48.9,863.4551 " fill="none" style="stroke:#181818;stroke-width:0.3;"/><rect fill="#E2E2F0" height="30.7453" rx="1.5" ry="1.5" style="stroke:#181818;stroke-width:0.3;" width="81.6" x="287.1" y="18.8273"/><text fill="#000000" font-family="sans-serif" font-size="8.4" font-style="italic" lengthAdjust="spacing" textLength="18" x="318.9" y="32.0918">&#171;UI&#187;</text><text fill="#000000" font-family="sans-serif" font-size="8.4" lengthAdjust="spacing" textLength="73.2" x="291.3" y="43.2645">EvaluateInterviewUI</text><rect fill="#E2E2F0" height="30.7453" rx="1.5" ry="1.5" style="stroke:#181818;stroke-width:0.3;" width="81.6" x="287.1" y="817.1824"/><text fill="#000000" font-family="sans-serif" font-size="8.4" font-style="italic" lengthAdjust="spacing" textLength="18" x="318.9" y="830.4469">&#171;UI&#187;</text><text fill="#000000" font-family="sans-serif" font-size="8.4" lengthAdjust="spacing" textLength="73.2" x="291.3" y="841.6195">EvaluateInterviewUI</text><rect fill="#E2E2F0" height="30.7453" rx="1.5" ry="1.5" style="stroke:#181818;stroke-width:0.3;" width="114" x="414.3" y="18.8273"/><text fill="#000000" font-family="sans-serif" font-size="8.4" font-style="italic" lengthAdjust="spacing" textLength="51" x="445.8" y="32.0918">&#171;Application&#187;</text><text fill="#000000" font-family="sans-serif" font-size="8.4" lengthAdjust="spacing" textLength="105.6" x="418.5" y="43.2645">:EvaluateInterviewController</text><rect fill="#E2E2F0" height="30.7453" rx="1.5" ry="1.5" style="stroke:#181818;stroke-width:0.3;" width="114" x="414.3" y="817.1824"/><text fill="#000000" font-family="sans-serif" font-size="8.4" font-style="italic" lengthAdjust="spacing" textLength="51" x="445.8" y="830.4469">&#171;Application&#187;</text><text fill="#000000" font-family="sans-serif" font-size="8.4" lengthAdjust="spacing" textLength="105.6" x="418.5" y="841.6195">:EvaluateInterviewController</text><rect fill="#E2E2F0" height="30.7453" rx="1.5" ry="1.5" style="stroke:#181818;stroke-width:0.3;" width="105" x="562.2" y="18.8273"/><text fill="#000000" font-family="sans-serif" font-size="8.4" font-style="italic" lengthAdjust="spacing" textLength="37.2" x="596.1" y="32.0918">&#171;Service&#187;</text><text fill="#000000" font-family="sans-serif" font-size="8.4" lengthAdjust="spacing" textLength="96.6" x="566.4" y="43.2645">:EvaluateInterviewService</text><rect fill="#E2E2F0" height="30.7453" rx="1.5" ry="1.5" style="stroke:#181818;stroke-width:0.3;" width="105" x="562.2" y="817.1824"/><text fill="#000000" font-family="sans-serif" font-size="8.4" font-style="italic" lengthAdjust="spacing" textLength="37.2" x="596.1" y="830.4469">&#171;Service&#187;</text><text fill="#000000" font-family="sans-serif" font-size="8.4" lengthAdjust="spacing" textLength="96.6" x="566.4" y="841.6195">:EvaluateInterviewService</text><rect fill="#E2E2F0" height="30.7453" rx="1.5" ry="1.5" style="stroke:#181818;stroke-width:0.3;" width="97.8" x="673.2" y="18.8273"/><text fill="#000000" font-family="sans-serif" font-size="8.4" font-style="italic" lengthAdjust="spacing" textLength="54" x="695.1" y="32.0918">&#171;Persistence&#187;</text><text fill="#000000" font-family="sans-serif" font-size="8.4" lengthAdjust="spacing" textLength="89.4" x="677.4" y="43.2645">:JobInterviewRepository</text><rect fill="#E2E2F0" height="30.7453" rx="1.5" ry="1.5" style="stroke:#181818;stroke-width:0.3;" width="97.8" x="673.2" y="817.1824"/><text fill="#000000" font-family="sans-serif" font-size="8.4" font-style="italic" lengthAdjust="spacing" textLength="54" x="695.1" y="830.4469">&#171;Persistence&#187;</text><text fill="#000000" font-family="sans-serif" font-size="8.4" lengthAdjust="spacing" textLength="89.4" x="677.4" y="841.6195">:JobInterviewRepository</text><rect fill="#E2E2F0" height="30.7453" rx="1.5" ry="1.5" style="stroke:#181818;stroke-width:0.3;" width="57" x="793.8" y="18.8273"/><text fill="#000000" font-family="sans-serif" font-size="8.4" font-style="italic" lengthAdjust="spacing" textLength="38.4" x="803.1" y="32.0918">&#171;Domain&#187;</text><text fill="#000000" font-family="sans-serif" font-size="8.4" lengthAdjust="spacing" textLength="48.6" x="798" y="43.2645">:JobInterview</text><rect fill="#E2E2F0" height="30.7453" rx="1.5" ry="1.5" style="stroke:#181818;stroke-width:0.3;" width="57" x="793.8" y="817.1824"/><text fill="#000000" font-family="sans-serif" font-size="8.4" font-style="italic" lengthAdjust="spacing" textLength="38.4" x="803.1" y="830.4469">&#171;Domain&#187;</text><text fill="#000000" font-family="sans-serif" font-size="8.4" lengthAdjust="spacing" textLength="48.6" x="798" y="841.6195">:JobInterview</text><rect fill="#E2E2F0" height="30.7453" rx="1.5" ry="1.5" style="stroke:#181818;stroke-width:0.3;" width="81" x="862.8" y="18.8273"/><text fill="#000000" font-family="sans-serif" font-size="8.4" font-style="italic" lengthAdjust="spacing" textLength="33" x="886.8" y="32.0918">&#171;Plugin&#187;</text><text fill="#000000" font-family="sans-serif" font-size="8.4" lengthAdjust="spacing" textLength="72.6" x="867" y="43.2645">app:InterviewModel</text><rect fill="#E2E2F0" height="30.7453" rx="1.5" ry="1.5" style="stroke:#181818;stroke-width:0.3;" width="81" x="862.8" y="817.1824"/><text fill="#000000" font-family="sans-serif" font-size="8.4" font-style="italic" lengthAdjust="spacing" textLength="33" x="886.8" y="830.4469">&#171;Plugin&#187;</text><text fill="#000000" font-family="sans-serif" font-size="8.4" lengthAdjust="spacing" textLength="72.6" x="867" y="841.6195">app:InterviewModel</text><rect fill="#FFFFFF" height="750.8098" style="stroke:#181818;stroke-width:0.6;" width="6" x="38.1" y="56.1727"/><rect fill="#FFFFFF" height="18.7746" style="stroke:#181818;stroke-width:0.6;" width="6" x="324.9" y="70.1473"/><rect fill="#FFFFFF" height="18.7746" style="stroke:#181818;stroke-width:0.6;" width="6" x="324.9" y="220.3441"/><rect fill="#FFFFFF" height="18.7746" style="stroke:#181818;stroke-width:0.6;" width="6" x="324.9" y="257.8934"/><rect fill="#FFFFFF" height="18.7746" style="stroke:#181818;stroke-width:0.6;" width="6" x="324.9" y="397.1156"/><rect fill="#FFFFFF" height="18.7746" style="stroke:#181818;stroke-width:0.6;" width="6" x="324.9" y="509.7633"/><rect fill="#FFFFFF" height="18.7746" style="stroke:#181818;stroke-width:0.6;" width="6" x="324.9" y="648.9855"/><rect fill="#FFFFFF" height="18.7746" style="stroke:#181818;stroke-width:0.6;" width="6" x="324.9" y="788.2078"/><rect fill="#FFFFFF" height="18.7746" style="stroke:#181818;stroke-width:0.6;" width="6" x="468.3" y="88.9219"/><rect fill="#FFFFFF" height="18.7746" style="stroke:#181818;stroke-width:0.6;" width="6" x="468.3" y="201.5695"/><rect fill="#FFFFFF" height="18.7746" style="stroke:#181818;stroke-width:0.6;" width="6" x="468.3" y="276.668"/><rect fill="#FFFFFF" height="18.7746" style="stroke:#181818;stroke-width:0.6;" width="6" x="468.3" y="378.341"/><rect fill="#FFFFFF" height="18.7746" style="stroke:#181818;stroke-width:0.6;" width="6" x="468.3" y="415.8902"/><rect fill="#FFFFFF" height="18.7746" style="stroke:#181818;stroke-width:0.6;" width="6" x="468.3" y="490.9887"/><rect fill="#FFFFFF" height="18.7746" style="stroke:#181818;stroke-width:0.6;" width="6" x="468.3" y="528.5379"/><rect fill="#FFFFFF" height="18.7746" style="stroke:#181818;stroke-width:0.6;" width="6" x="468.3" y="630.2109"/><rect fill="#FFFFFF" height="18.7746" style="stroke:#181818;stroke-width:0.6;" width="6" x="468.3" y="667.7602"/><rect fill="#FFFFFF" height="18.7746" style="stroke:#181818;stroke-width:0.6;" width="6" x="468.3" y="769.4332"/><rect fill="#FFFFFF" height="93.873" style="stroke:#181818;stroke-width:0.6;" width="6" x="611.7" y="107.6965"/><rect fill="#FFFFFF" height="82.8984" style="stroke:#181818;stroke-width:0.6;" width="6" x="611.7" y="295.4426"/><rect fill="#FFFFFF" height="18.7746" style="stroke:#181818;stroke-width:0.6;" width="6" x="611.7" y="434.6648"/><rect fill="#FFFFFF" height="18.7746" style="stroke:#181818;stroke-width:0.6;" width="6" x="611.7" y="472.2141"/><rect fill="#FFFFFF" height="18.7746" style="stroke:#181818;stroke-width:0.6;" width="6" x="611.7" y="547.3125"/><rect fill="#FFFFFF" height="18.7746" style="stroke:#181818;stroke-width:0.6;" width="6" x="611.7" y="611.4363"/><rect fill="#FFFFFF" height="82.8984" style="stroke:#181818;stroke-width:0.6;" width="6" x="611.7" y="686.5348"/><rect fill="#FFFFFF" height="18.7746" style="stroke:#181818;stroke-width:0.6;" width="6" x="719.1" y="126.4711"/><rect fill="#FFFFFF" height="45.3492" style="stroke:#181818;stroke-width:0.6;" width="6" x="719.1" y="705.3094"/><rect fill="#FFFFFF" height="18.7746" style="stroke:#181818;stroke-width:0.6;" width="6" x="819.3" y="164.0203"/><rect fill="#FFFFFF" height="18.7746" style="stroke:#181818;stroke-width:0.6;" width="6" x="819.3" y="314.2172"/><rect fill="#FFFFFF" height="45.3492" style="stroke:#181818;stroke-width:0.6;" width="6" x="819.3" y="566.0871"/><rect fill="#FFFFFF" height="18.7746" style="stroke:#181818;stroke-width:0.6;" width="6" x="900.3" y="453.4395"/><polygon fill="#181818" points="317.7,67.7473,323.7,70.1473,317.7,72.5473,320.1,70.1473" style="stroke:#181818;stroke-width:0.6;"/><line style="stroke:#181818;stroke-width:0.6;" x1="44.1" x2="321.3" y1="70.1473" y2="70.1473"/><text fill="#000000" font-family="sans-serif" font-size="7.8" font-weight="bold" lengthAdjust="spacing" textLength="4.2" x="48.3" y="66.9896">1</text><text fill="#000000" font-family="sans-serif" font-size="7.8" lengthAdjust="spacing" textLength="262.8" x="54.9" y="66.9896">execute the process that evaluates (grades) the interviews for a job opening.</text><polygon fill="#181818" points="461.1,86.5219,467.1,88.9219,461.1,91.3219,463.5,88.9219" style="stroke:#181818;stroke-width:0.6;"/><line style="stroke:#181818;stroke-width:0.6;" x1="327.9" x2="464.7" y1="88.9219" y2="88.9219"/><text fill="#000000" font-family="sans-serif" font-size="7.8" font-weight="bold" lengthAdjust="spacing" textLength="4.2" x="332.1" y="85.7643">2</text><text fill="#000000" font-family="sans-serif" font-size="7.8" lengthAdjust="spacing" textLength="58.2" x="338.7" y="85.7643">findJobInterview()</text><polygon fill="#181818" points="604.5,105.2965,610.5,107.6965,604.5,110.0965,606.9,107.6965" style="stroke:#181818;stroke-width:0.6;"/><line style="stroke:#181818;stroke-width:0.6;" x1="471.3" x2="608.1" y1="107.6965" y2="107.6965"/><text fill="#000000" font-family="sans-serif" font-size="7.8" font-weight="bold" lengthAdjust="spacing" textLength="4.2" x="475.5" y="104.5389">3</text><text fill="#000000" font-family="sans-serif" font-size="7.8" lengthAdjust="spacing" textLength="58.2" x="482.1" y="104.5389">findJobInterview()</text><polygon fill="#181818" points="711.9,124.0711,717.9,126.4711,711.9,128.8711,714.3,126.4711" style="stroke:#181818;stroke-width:0.6;"/><line style="stroke:#181818;stroke-width:0.6;" x1="617.7" x2="715.5" y1="126.4711" y2="126.4711"/><text fill="#000000" font-family="sans-serif" font-size="7.8" font-weight="bold" lengthAdjust="spacing" textLength="4.2" x="621.9" y="123.3135">4</text><text fill="#000000" font-family="sans-serif" font-size="7.8" lengthAdjust="spacing" textLength="25.8" x="628.5" y="123.3135">findAll()</text><polygon fill="#181818" points="624.3,142.8457,618.3,145.2457,624.3,147.6457,621.9,145.2457" style="stroke:#181818;stroke-width:0.6;"/><line style="stroke:#181818;stroke-width:0.6;stroke-dasharray:2.0,2.0;" x1="620.7" x2="721.5" y1="145.2457" y2="145.2457"/><text fill="#000000" font-family="sans-serif" font-size="7.8" font-weight="bold" lengthAdjust="spacing" textLength="4.2" x="627.9" y="142.0881">5</text><text fill="#000000" font-family="sans-serif" font-size="7.8" lengthAdjust="spacing" textLength="43.8" x="634.5" y="142.0881">jobInterviews</text><polygon fill="#181818" points="812.1,161.6203,818.1,164.0203,812.1,166.4203,814.5,164.0203" style="stroke:#181818;stroke-width:0.6;"/><line style="stroke:#181818;stroke-width:0.6;" x1="617.7" x2="815.7" y1="164.0203" y2="164.0203"/><text fill="#000000" font-family="sans-serif" font-size="7.8" font-weight="bold" lengthAdjust="spacing" textLength="4.2" x="621.9" y="160.8627">6</text><text fill="#000000" font-family="sans-serif" font-size="7.8" lengthAdjust="spacing" textLength="47.4" x="628.5" y="160.8627">hasAnswers()</text><polygon fill="#181818" points="624.3,180.3949,618.3,182.7949,624.3,185.1949,621.9,182.7949" style="stroke:#181818;stroke-width:0.6;"/><line style="stroke:#181818;stroke-width:0.6;stroke-dasharray:2.0,2.0;" x1="620.7" x2="821.7" y1="182.7949" y2="182.7949"/><text fill="#000000" font-family="sans-serif" font-size="7.8" font-weight="bold" lengthAdjust="spacing" textLength="4.2" x="627.9" y="179.6373">7</text><text fill="#000000" font-family="sans-serif" font-size="7.8" lengthAdjust="spacing" textLength="85.8" x="634.5" y="179.6373">jobInterviewWithAnswers</text><polygon fill="#181818" points="480.9,199.1695,474.9,201.5695,480.9,203.9695,478.5,201.5695" style="stroke:#181818;stroke-width:0.6;"/><line style="stroke:#181818;stroke-width:0.6;stroke-dasharray:2.0,2.0;" x1="477.3" x2="614.1" y1="201.5695" y2="201.5695"/><text fill="#000000" font-family="sans-serif" font-size="7.8" font-weight="bold" lengthAdjust="spacing" textLength="4.2" x="484.5" y="198.4119">8</text><text fill="#000000" font-family="sans-serif" font-size="7.8" lengthAdjust="spacing" textLength="85.8" x="491.1" y="198.4119">jobInterviewWithAnswers</text><polygon fill="#181818" points="337.5,217.9441,331.5,220.3441,337.5,222.7441,335.1,220.3441" style="stroke:#181818;stroke-width:0.6;"/><line style="stroke:#181818;stroke-width:0.6;" x1="333.9" x2="470.7" y1="220.3441" y2="220.3441"/><text fill="#000000" font-family="sans-serif" font-size="7.8" font-weight="bold" lengthAdjust="spacing" textLength="4.2" x="341.1" y="217.1865">9</text><text fill="#000000" font-family="sans-serif" font-size="7.8" lengthAdjust="spacing" textLength="85.8" x="347.7" y="217.1865">jobInterviewWithAnswers</text><polygon fill="#181818" points="50.7,236.7188,44.7,239.1187,50.7,241.5187,48.3,239.1187" style="stroke:#181818;stroke-width:0.6;"/><line style="stroke:#181818;stroke-width:0.6;stroke-dasharray:2.0,2.0;" x1="47.1" x2="327.3" y1="239.1187" y2="239.1187"/><text fill="#000000" font-family="sans-serif" font-size="7.8" font-weight="bold" lengthAdjust="spacing" textLength="8.4" x="54.3" y="235.9611">10</text><text fill="#000000" font-family="sans-serif" font-size="7.8" lengthAdjust="spacing" textLength="118.8" x="65.1" y="235.9611">List all job interviews with answers</text><polygon fill="#181818" points="317.7,255.4934,323.7,257.8934,317.7,260.2934,320.1,257.8934" style="stroke:#181818;stroke-width:0.6;"/><line style="stroke:#181818;stroke-width:0.6;" x1="44.1" x2="321.3" y1="257.8934" y2="257.8934"/><text fill="#000000" font-family="sans-serif" font-size="7.8" font-weight="bold" lengthAdjust="spacing" textLength="8.4" x="48.3" y="254.7357">11</text><text fill="#000000" font-family="sans-serif" font-size="7.8" lengthAdjust="spacing" textLength="111.6" x="59.1" y="254.7357">select a job interview to evaluate</text><polygon fill="#181818" points="461.1,274.268,467.1,276.668,461.1,279.068,463.5,276.668" style="stroke:#181818;stroke-width:0.6;"/><line style="stroke:#181818;stroke-width:0.6;" x1="327.9" x2="464.7" y1="276.668" y2="276.668"/><text fill="#000000" font-family="sans-serif" font-size="7.8" font-weight="bold" lengthAdjust="spacing" textLength="8.4" x="332.1" y="273.5104">12</text><text fill="#000000" font-family="sans-serif" font-size="7.8" lengthAdjust="spacing" textLength="87.6" x="342.9" y="273.5104">findPath(chosenInterview)</text><polygon fill="#181818" points="604.5,293.0426,610.5,295.4426,604.5,297.8426,606.9,295.4426" style="stroke:#181818;stroke-width:0.6;"/><line style="stroke:#181818;stroke-width:0.6;" x1="471.3" x2="608.1" y1="295.4426" y2="295.4426"/><text fill="#000000" font-family="sans-serif" font-size="7.8" font-weight="bold" lengthAdjust="spacing" textLength="8.4" x="475.5" y="292.285">13</text><text fill="#000000" font-family="sans-serif" font-size="7.8" lengthAdjust="spacing" textLength="87.6" x="486.3" y="292.285">findPath(chosenInterview)</text><polygon fill="#181818" points="812.1,311.8172,818.1,314.2172,812.1,316.6172,814.5,314.2172" style="stroke:#181818;stroke-width:0.6;"/><line style="stroke:#181818;stroke-width:0.6;" x1="617.7" x2="815.7" y1="314.2172" y2="314.2172"/><text fill="#000000" font-family="sans-serif" font-size="7.8" font-weight="bold" lengthAdjust="spacing" textLength="8.4" x="621.9" y="311.0596">14</text><text fill="#000000" font-family="sans-serif" font-size="7.8" lengthAdjust="spacing" textLength="87.6" x="632.7" y="311.0596">findPath(chosenInterview)</text><polygon fill="#181818" points="624.3,330.5918,618.3,332.9918,624.3,335.3918,621.9,332.9918" style="stroke:#181818;stroke-width:0.6;"/><line style="stroke:#181818;stroke-width:0.6;stroke-dasharray:2.0,2.0;" x1="620.7" x2="821.7" y1="332.9918" y2="332.9918"/><text fill="#000000" font-family="sans-serif" font-size="7.8" font-weight="bold" lengthAdjust="spacing" textLength="8.4" x="627.9" y="329.8342">15</text><text fill="#000000" font-family="sans-serif" font-size="7.8" lengthAdjust="spacing" textLength="30" x="638.7" y="329.8342">fileName</text><line style="stroke:#181818;stroke-width:0.6;stroke-dasharray:2.0,2.0;" x1="617.7" x2="642.9" y1="351.7664" y2="351.7664"/><line style="stroke:#181818;stroke-width:0.6;stroke-dasharray:2.0,2.0;" x1="642.9" x2="642.9" y1="351.7664" y2="359.5664"/><line style="stroke:#181818;stroke-width:0.6;stroke-dasharray:2.0,2.0;" x1="618.3" x2="642.9" y1="359.5664" y2="359.5664"/><polygon fill="#181818" points="624.3,357.1664,618.3,359.5664,624.3,361.9664,621.9,359.5664" style="stroke:#181818;stroke-width:0.6;"/><text fill="#000000" font-family="sans-serif" font-size="7.8" font-weight="bold" lengthAdjust="spacing" textLength="8.4" x="621.9" y="348.6088">16</text><text fill="#000000" font-family="sans-serif" font-size="7.8" lengthAdjust="spacing" textLength="58.8" x="632.7" y="348.6088">resolve(fileName)</text><polygon fill="#181818" points="480.9,375.941,474.9,378.341,480.9,380.741,478.5,378.341" style="stroke:#181818;stroke-width:0.6;"/><line style="stroke:#181818;stroke-width:0.6;stroke-dasharray:2.0,2.0;" x1="477.3" x2="614.1" y1="378.341" y2="378.341"/><text fill="#000000" font-family="sans-serif" font-size="7.8" font-weight="bold" lengthAdjust="spacing" textLength="8.4" x="484.5" y="375.1834">17</text><text fill="#000000" font-family="sans-serif" font-size="7.8" lengthAdjust="spacing" textLength="25.8" x="495.3" y="375.1834">filePath</text><polygon fill="#181818" points="337.5,394.7156,331.5,397.1156,337.5,399.5156,335.1,397.1156" style="stroke:#181818;stroke-width:0.6;"/><line style="stroke:#181818;stroke-width:0.6;" x1="333.9" x2="470.7" y1="397.1156" y2="397.1156"/><text fill="#000000" font-family="sans-serif" font-size="7.8" font-weight="bold" lengthAdjust="spacing" textLength="8.4" x="341.1" y="393.958">18</text><text fill="#000000" font-family="sans-serif" font-size="7.8" lengthAdjust="spacing" textLength="25.8" x="351.9" y="393.958">filePath</text><polygon fill="#181818" points="461.1,413.4902,467.1,415.8902,461.1,418.2902,463.5,415.8902" style="stroke:#181818;stroke-width:0.6;"/><line style="stroke:#181818;stroke-width:0.6;" x1="327.9" x2="464.7" y1="415.8902" y2="415.8902"/><text fill="#000000" font-family="sans-serif" font-size="7.8" font-weight="bold" lengthAdjust="spacing" textLength="8.4" x="332.1" y="412.7326">19</text><text fill="#000000" font-family="sans-serif" font-size="7.8" lengthAdjust="spacing" textLength="88.2" x="342.9" y="412.7326">evaluateInterview(filePath)</text><polygon fill="#181818" points="604.5,432.2648,610.5,434.6648,604.5,437.0648,606.9,434.6648" style="stroke:#181818;stroke-width:0.6;"/><line style="stroke:#181818;stroke-width:0.6;" x1="471.3" x2="608.1" y1="434.6648" y2="434.6648"/><text fill="#000000" font-family="sans-serif" font-size="7.8" font-weight="bold" lengthAdjust="spacing" textLength="8.4" x="475.5" y="431.5072">20</text><text fill="#000000" font-family="sans-serif" font-size="7.8" lengthAdjust="spacing" textLength="62.4" x="486.3" y="431.5072">evaluateInterview()</text><polygon fill="#181818" points="893.1,451.0395,899.1,453.4395,893.1,455.8395,895.5,453.4395" style="stroke:#181818;stroke-width:0.6;"/><line style="stroke:#181818;stroke-width:0.6;" x1="614.7" x2="896.7" y1="453.4395" y2="453.4395"/><text fill="#000000" font-family="sans-serif" font-size="7.8" font-weight="bold" lengthAdjust="spacing" textLength="8.4" x="618.9" y="450.2818">21</text><text fill="#000000" font-family="sans-serif" font-size="7.8" lengthAdjust="spacing" textLength="39" x="629.7" y="450.2818">enterStart()</text><polygon fill="#181818" points="624.3,469.8141,618.3,472.2141,624.3,474.6141,621.9,472.2141" style="stroke:#181818;stroke-width:0.6;"/><line style="stroke:#181818;stroke-width:0.6;" x1="620.7" x2="902.7" y1="472.2141" y2="472.2141"/><text fill="#000000" font-family="sans-serif" font-size="7.8" font-weight="bold" lengthAdjust="spacing" textLength="8.4" x="627.9" y="469.0564">22</text><text fill="#000000" font-family="sans-serif" font-size="7.8" lengthAdjust="spacing" textLength="19.2" x="638.7" y="469.0564">score</text><polygon fill="#181818" points="480.9,488.5887,474.9,490.9887,480.9,493.3887,478.5,490.9887" style="stroke:#181818;stroke-width:0.6;"/><line style="stroke:#181818;stroke-width:0.6;" x1="477.3" x2="614.1" y1="490.9887" y2="490.9887"/><text fill="#000000" font-family="sans-serif" font-size="7.8" font-weight="bold" lengthAdjust="spacing" textLength="8.4" x="484.5" y="487.8311">23</text><text fill="#000000" font-family="sans-serif" font-size="7.8" lengthAdjust="spacing" textLength="19.2" x="495.3" y="487.8311">score</text><polygon fill="#181818" points="337.5,507.3633,331.5,509.7633,337.5,512.1633,335.1,509.7633" style="stroke:#181818;stroke-width:0.6;"/><line style="stroke:#181818;stroke-width:0.6;" x1="333.9" x2="470.7" y1="509.7633" y2="509.7633"/><text fill="#000000" font-family="sans-serif" font-size="7.8" font-weight="bold" lengthAdjust="spacing" textLength="8.4" x="341.1" y="506.6057">24</text><text fill="#000000" font-family="sans-serif" font-size="7.8" lengthAdjust="spacing" textLength="19.2" x="351.9" y="506.6057">score</text><polygon fill="#181818" points="461.1,526.1379,467.1,528.5379,461.1,530.9379,463.5,528.5379" style="stroke:#181818;stroke-width:0.6;"/><line style="stroke:#181818;stroke-width:0.6;" x1="327.9" x2="464.7" y1="528.5379" y2="528.5379"/><text fill="#000000" font-family="sans-serif" font-size="7.8" font-weight="bold" lengthAdjust="spacing" textLength="8.4" x="332.1" y="525.3803">25</text><text fill="#000000" font-family="sans-serif" font-size="7.8" lengthAdjust="spacing" textLength="115.2" x="342.9" y="525.3803">setGrade(score, chosenInterview)</text><polygon fill="#181818" points="604.5,544.9125,610.5,547.3125,604.5,549.7125,606.9,547.3125" style="stroke:#181818;stroke-width:0.6;"/><line style="stroke:#181818;stroke-width:0.6;" x1="471.3" x2="608.1" y1="547.3125" y2="547.3125"/><text fill="#000000" font-family="sans-serif" font-size="7.8" font-weight="bold" lengthAdjust="spacing" textLength="8.4" x="475.5" y="544.1549">26</text><text fill="#000000" font-family="sans-serif" font-size="7.8" lengthAdjust="spacing" textLength="115.2" x="486.3" y="544.1549">setGrade(score, chosenInterview)</text><polygon fill="#181818" points="812.1,563.6871,818.1,566.0871,812.1,568.4871,814.5,566.0871" style="stroke:#181818;stroke-width:0.6;"/><line style="stroke:#181818;stroke-width:0.6;" x1="614.7" x2="815.7" y1="566.0871" y2="566.0871"/><text fill="#000000" font-family="sans-serif" font-size="7.8" font-weight="bold" lengthAdjust="spacing" textLength="8.4" x="618.9" y="562.9295">27</text><text fill="#000000" font-family="sans-serif" font-size="7.8" lengthAdjust="spacing" textLength="55.8" x="629.7" y="562.9295">setGrade(score)</text><line style="stroke:#181818;stroke-width:0.6;" x1="825.3" x2="850.5" y1="584.8617" y2="584.8617"/><line style="stroke:#181818;stroke-width:0.6;" x1="850.5" x2="850.5" y1="584.8617" y2="592.6617"/><line style="stroke:#181818;stroke-width:0.6;" x1="825.9" x2="850.5" y1="592.6617" y2="592.6617"/><polygon fill="#181818" points="831.9,590.2617,825.9,592.6617,831.9,595.0617,829.5,592.6617" style="stroke:#181818;stroke-width:0.6;"/><text fill="#000000" font-family="sans-serif" font-size="7.8" font-weight="bold" lengthAdjust="spacing" textLength="8.4" x="829.5" y="581.7041">28</text><text fill="#000000" font-family="sans-serif" font-size="7.8" lengthAdjust="spacing" textLength="55.8" x="840.3" y="581.7041">setGrade(score)</text><polygon fill="#181818" points="624.3,609.0363,618.3,611.4363,624.3,613.8363,621.9,611.4363" style="stroke:#181818;stroke-width:0.6;"/><line style="stroke:#181818;stroke-width:0.6;stroke-dasharray:2.0,2.0;" x1="620.7" x2="821.7" y1="611.4363" y2="611.4363"/><text fill="#000000" font-family="sans-serif" font-size="7.8" font-weight="bold" lengthAdjust="spacing" textLength="8.4" x="627.9" y="608.2787">29</text><text fill="#000000" font-family="sans-serif" font-size="7.8" lengthAdjust="spacing" textLength="39.6" x="638.7" y="608.2787">jobInterview</text><polygon fill="#181818" points="480.9,627.8109,474.9,630.2109,480.9,632.6109,478.5,630.2109" style="stroke:#181818;stroke-width:0.6;"/><line style="stroke:#181818;stroke-width:0.6;stroke-dasharray:2.0,2.0;" x1="477.3" x2="614.1" y1="630.2109" y2="630.2109"/><text fill="#000000" font-family="sans-serif" font-size="7.8" font-weight="bold" lengthAdjust="spacing" textLength="8.4" x="484.5" y="627.0533">30</text><text fill="#000000" font-family="sans-serif" font-size="7.8" lengthAdjust="spacing" textLength="39.6" x="495.3" y="627.0533">jobInterview</text><polygon fill="#181818" points="337.5,646.5855,331.5,648.9855,337.5,651.3855,335.1,648.9855" style="stroke:#181818;stroke-width:0.6;"/><line style="stroke:#181818;stroke-width:0.6;" x1="333.9" x2="470.7" y1="648.9855" y2="648.9855"/><text fill="#000000" font-family="sans-serif" font-size="7.8" font-weight="bold" lengthAdjust="spacing" textLength="8.4" x="341.1" y="645.8279">31</text><text fill="#000000" font-family="sans-serif" font-size="7.8" lengthAdjust="spacing" textLength="39.6" x="351.9" y="645.8279">jobInterview</text><polygon fill="#181818" points="461.1,665.3602,467.1,667.7602,461.1,670.1602,463.5,667.7602" style="stroke:#181818;stroke-width:0.6;"/><line style="stroke:#181818;stroke-width:0.6;" x1="327.9" x2="464.7" y1="667.7602" y2="667.7602"/><text fill="#000000" font-family="sans-serif" font-size="7.8" font-weight="bold" lengthAdjust="spacing" textLength="8.4" x="332.1" y="664.6025">32</text><text fill="#000000" font-family="sans-serif" font-size="7.8" lengthAdjust="spacing" textLength="75" x="342.9" y="664.6025">save(chosenInterview)</text><polygon fill="#181818" points="604.5,684.1348,610.5,686.5348,604.5,688.9348,606.9,686.5348" style="stroke:#181818;stroke-width:0.6;"/><line style="stroke:#181818;stroke-width:0.6;" x1="471.3" x2="608.1" y1="686.5348" y2="686.5348"/><text fill="#000000" font-family="sans-serif" font-size="7.8" font-weight="bold" lengthAdjust="spacing" textLength="8.4" x="475.5" y="683.3771">33</text><text fill="#000000" font-family="sans-serif" font-size="7.8" lengthAdjust="spacing" textLength="75" x="486.3" y="683.3771">save(chosenInterview)</text><polygon fill="#181818" points="711.9,702.9094,717.9,705.3094,711.9,707.7094,714.3,705.3094" style="stroke:#181818;stroke-width:0.6;"/><line style="stroke:#181818;stroke-width:0.6;" x1="617.7" x2="715.5" y1="705.3094" y2="705.3094"/><text fill="#000000" font-family="sans-serif" font-size="7.8" font-weight="bold" lengthAdjust="spacing" textLength="8.4" x="621.9" y="702.1518">34</text><text fill="#000000" font-family="sans-serif" font-size="7.8" lengthAdjust="spacing" textLength="75" x="632.7" y="702.1518">save(chosenInterview)</text><line style="stroke:#181818;stroke-width:0.6;" x1="725.1" x2="750.3" y1="724.084" y2="724.084"/><line style="stroke:#181818;stroke-width:0.6;" x1="750.3" x2="750.3" y1="724.084" y2="731.884"/><line style="stroke:#181818;stroke-width:0.6;" x1="725.7" x2="750.3" y1="731.884" y2="731.884"/><polygon fill="#181818" points="731.7,729.484,725.7,731.884,731.7,734.284,729.3,731.884" style="stroke:#181818;stroke-width:0.6;"/><text fill="#000000" font-family="sans-serif" font-size="7.8" font-weight="bold" lengthAdjust="spacing" textLength="8.4" x="729.3" y="720.9264">35</text><text fill="#000000" font-family="sans-serif" font-size="7.8" lengthAdjust="spacing" textLength="75" x="740.1" y="720.9264">save(chosenInterview)</text><polygon fill="#181818" points="624.3,748.2586,618.3,750.6586,624.3,753.0586,621.9,750.6586" style="stroke:#181818;stroke-width:0.6;"/><line style="stroke:#181818;stroke-width:0.6;stroke-dasharray:2.0,2.0;" x1="620.7" x2="721.5" y1="750.6586" y2="750.6586"/><text fill="#000000" font-family="sans-serif" font-size="7.8" font-weight="bold" lengthAdjust="spacing" textLength="8.4" x="627.9" y="747.501">36</text><text fill="#000000" font-family="sans-serif" font-size="7.8" lengthAdjust="spacing" textLength="49.2" x="638.7" y="747.501">savedInterview</text><polygon fill="#181818" points="480.9,767.0332,474.9,769.4332,480.9,771.8332,478.5,769.4332" style="stroke:#181818;stroke-width:0.6;"/><line style="stroke:#181818;stroke-width:0.6;stroke-dasharray:2.0,2.0;" x1="477.3" x2="614.1" y1="769.4332" y2="769.4332"/><text fill="#000000" font-family="sans-serif" font-size="7.8" font-weight="bold" lengthAdjust="spacing" textLength="8.4" x="484.5" y="766.2756">37</text><text fill="#000000" font-family="sans-serif" font-size="7.8" lengthAdjust="spacing" textLength="49.2" x="495.3" y="766.2756">savedInterview</text><polygon fill="#181818" points="337.5,785.8078,331.5,788.2078,337.5,790.6078,335.1,788.2078" style="stroke:#181818;stroke-width:0.6;"/><line style="stroke:#181818;stroke-width:0.6;" x1="333.9" x2="470.7" y1="788.2078" y2="788.2078"/><text fill="#000000" font-family="sans-serif" font-size="7.8" font-weight="bold" lengthAdjust="spacing" textLength="8.4" x="341.1" y="785.0502">38</text><text fill="#000000" font-family="sans-serif" font-size="7.8" lengthAdjust="spacing" textLength="49.2" x="351.9" y="785.0502">savedInterview</text><polygon fill="#181818" points="47.7,804.5824,41.7,806.9824,47.7,809.3824,45.3,806.9824" style="stroke:#181818;stroke-width:0.6;"/><line style="stroke:#181818;stroke-width:0.6;stroke-dasharray:2.0,2.0;" x1="44.1" x2="327.3" y1="806.9824" y2="806.9824"/><text fill="#000000" font-family="sans-serif" font-size="7.8" font-weight="bold" lengthAdjust="spacing" textLength="8.4" x="51.3" y="803.8248">39</text><text fill="#000000" font-family="sans-serif" font-size="7.8" lengthAdjust="spacing" textLength="49.2" x="62.1" y="803.8248">savedInterview</text><!--SRC=[fLR1ZjiW4Btp5MXFZjJj1rYhID6sMgNgLb5Ngvu9dYHK12p0IVlt1MnZYEtOxkOIZEUz6NYFmOGQgV33SwMDF8F2hqIG8wW7J3JU744OL19b66Kb4GO_VBqGNX43Ms50NHXStxS-j6BuwUbzkrwduNal_baAeoJdJGfg5BV8JLboHebXKanJlBa_2Xx_M-xTewLePdlmRt8Va3-Xb9hP1VzjmVwLcxOCEr2QQGDYWYN1kWcB_IBFXFLg9sMPXwXNMG3tM1O1TxmwUY0YbP6YEkz1sJ4rx6BNt4XWVtw07zTsftCCVu1Mzgqv0IwLfA2r7HE3eTahZREZ8WNebOy92JK-MBM9gnxB4WGJnyzTieeXP8MqIPmiEJumKSGBprQeW2GwF3W0GbvD2szKcMAeGU6nGI7KYbep1ObgkWtdbYK6XG2Fx1HzZ2k9zT9n4Js2szGEaUCJqHkXhzOYGzbTJ9VTIpkQ_HSpfuOA3HKIkEf2WXfZ72b5lOCZkZZlpA2vqQMrXINmBipnTtjCCE7S-oWorzNoOT8dT0o9WJLmeAOnOdSSZ0mEJjD7jiIvSy6Ec5D6JrA32AlvBtTE4YqmQUsKSTR5jZam3Z_86URP9C0KQCalaBNmrO2Rt3jNvLBx3E46_89GsahWjebdBT5YrVfKi_IA1METMk26RyPsxPIclnUistNxwqmRrwQfL8bQ7UYkW-fDwg7Rq7HniHmzY8-8zpDMGODvSTT2vc6VyCG16axRBNO1MrfMkwxHCvHIJmYJd8ZqC4tnpklOeyVlZgQ3RViZlNf6Wmuo4tluFzeS9qaMtzx3Z2CNySrLFezh_FftyKNKDwS_09BTBEvBU4_3Evadxzdnr4sFZMRQByL_]--></g></svg>