<?xml version="1.0" encoding="us-ascii" standalone="no"?><svg xmlns="http://www.w3.org/2000/svg" xmlns:xlink="http://www.w3.org/1999/xlink" contentStyleType="text/css" height="509px" preserveAspectRatio="none" style="width:520px;height:509px;background:#FFFFFF;" version="1.1" viewBox="0 0 520 509" width="520px" zoomAndPan="magnify"><defs/><g><text fill="#000000" font-family="sans-serif" font-size="14" font-weight="bold" lengthAdjust="spacing" textLength="492" x="10" y="30.1074">System Sequence Diagram (SSD) - Grade Interviews for a Job Opening</text><rect fill="#FFFFFF" height="283.6191" style="stroke:#181818;stroke-width:1.0;" width="10" x="105.25" y="133.2422"/><rect fill="#FFFFFF" height="31.291" style="stroke:#181818;stroke-width:1.0;" width="10" x="429.25" y="156.5332"/><rect fill="#FFFFFF" height="120.1641" style="stroke:#181818;stroke-width:1.0;" width="10" x="429.25" y="219.1152"/><rect fill="#FFFFFF" height="31.291" style="stroke:#181818;stroke-width:1.0;" width="10" x="429.25" y="370.5703"/><rect fill="none" height="113.1641" style="stroke:#000000;stroke-width:1.5;" width="439.5" x="36.75" y="296.6973"/><line style="stroke:#181818;stroke-width:0.5;stroke-dasharray:5.0,5.0;" x1="109.75" x2="109.75" y1="123.2422" y2="426.8613"/><line style="stroke:#181818;stroke-width:0.5;stroke-dasharray:5.0,5.0;" x1="434.25" x2="434.25" y1="123.2422" y2="426.8613"/><text fill="#000000" font-family="sans-serif" font-size="14" lengthAdjust="spacing" textLength="121" x="46.75" y="119.7285">Customer Manager</text><ellipse cx="110.25" cy="53.1211" fill="#E2E2F0" rx="8" ry="8" style="stroke:#181818;stroke-width:0.5;"/><path d="M110.25,61.1211 L110.25,88.1211 M97.25,69.1211 L123.25,69.1211 M110.25,88.1211 L97.25,103.1211 M110.25,88.1211 L123.25,103.1211 " fill="none" style="stroke:#181818;stroke-width:0.5;"/><text fill="#000000" font-family="sans-serif" font-size="14" lengthAdjust="spacing" textLength="121" x="46.75" y="440.9688">Customer Manager</text><ellipse cx="110.25" cy="452.9824" fill="#E2E2F0" rx="8" ry="8" style="stroke:#181818;stroke-width:0.5;"/><path d="M110.25,460.9824 L110.25,487.9824 M97.25,468.9824 L123.25,468.9824 M110.25,487.9824 L97.25,502.9824 M110.25,487.9824 L123.25,502.9824 " fill="none" style="stroke:#181818;stroke-width:0.5;"/><rect fill="#E2E2F0" height="32.6211" rx="2.5" ry="2.5" style="stroke:#181818;stroke-width:0.5;" width="64" x="402.25" y="89.6211"/><text fill="#000000" font-family="sans-serif" font-size="14" lengthAdjust="spacing" textLength="50" x="409.25" y="111.7285">:System</text><rect fill="#E2E2F0" height="32.6211" rx="2.5" ry="2.5" style="stroke:#181818;stroke-width:0.5;" width="64" x="402.25" y="425.8613"/><text fill="#000000" font-family="sans-serif" font-size="14" lengthAdjust="spacing" textLength="50" x="409.25" y="447.9688">:System</text><rect fill="#FFFFFF" height="283.6191" style="stroke:#181818;stroke-width:1.0;" width="10" x="105.25" y="133.2422"/><rect fill="#FFFFFF" height="31.291" style="stroke:#181818;stroke-width:1.0;" width="10" x="429.25" y="156.5332"/><rect fill="#FFFFFF" height="120.1641" style="stroke:#181818;stroke-width:1.0;" width="10" x="429.25" y="219.1152"/><rect fill="#FFFFFF" height="31.291" style="stroke:#181818;stroke-width:1.0;" width="10" x="429.25" y="370.5703"/><polygon fill="#181818" points="417.25,152.5332,427.25,156.5332,417.25,160.5332,421.25,156.5332" style="stroke:#181818;stroke-width:1.0;"/><line style="stroke:#181818;stroke-width:1.0;" x1="115.25" x2="423.25" y1="156.5332" y2="156.5332"/><text fill="#000000" font-family="sans-serif" font-size="13" lengthAdjust="spacing" textLength="280" x="122.25" y="151.2705">Request to grade the interviews for a job opening</text><polygon fill="#181818" points="126.25,183.8242,116.25,187.8242,126.25,191.8242,122.25,187.8242" style="stroke:#181818;stroke-width:1.0;"/><line style="stroke:#181818;stroke-width:1.0;stroke-dasharray:2.0,2.0;" x1="120.25" x2="433.25" y1="187.8242" y2="187.8242"/><text fill="#000000" font-family="sans-serif" font-size="13" lengthAdjust="spacing" textLength="206" x="132.25" y="182.5615">Show list of applicable job openings</text><polygon fill="#181818" points="417.25,215.1152,427.25,219.1152,417.25,223.1152,421.25,219.1152" style="stroke:#181818;stroke-width:1.0;"/><line style="stroke:#181818;stroke-width:1.0;" x1="115.25" x2="423.25" y1="219.1152" y2="219.1152"/><text fill="#000000" font-family="sans-serif" font-size="13" lengthAdjust="spacing" textLength="118" x="122.25" y="213.8525">Select a job opening</text><polygon fill="#181818" points="126.25,246.4063,116.25,250.4063,126.25,254.4063,122.25,250.4063" style="stroke:#181818;stroke-width:1.0;"/><line style="stroke:#181818;stroke-width:1.0;stroke-dasharray:2.0,2.0;" x1="120.25" x2="428.25" y1="250.4063" y2="250.4063"/><text fill="#000000" font-family="sans-serif" font-size="13" lengthAdjust="spacing" textLength="290" x="132.25" y="245.1436">Show list of interviews for the selected job opening</text><polygon fill="#181818" points="126.25,277.6973,116.25,281.6973,126.25,285.6973,122.25,281.6973" style="stroke:#181818;stroke-width:1.0;"/><line style="stroke:#181818;stroke-width:1.0;stroke-dasharray:2.0,2.0;" x1="120.25" x2="428.25" y1="281.6973" y2="281.6973"/><text fill="#000000" font-family="sans-serif" font-size="13" lengthAdjust="spacing" textLength="163" x="132.25" y="276.4346">Requests user to select one</text><path d="M36.75,296.6973 L109.75,296.6973 L109.75,305.9883 L99.75,315.9883 L36.75,315.9883 L36.75,296.6973 " fill="#EEEEEE" style="stroke:#000000;stroke-width:1.5;"/><rect fill="none" height="113.1641" style="stroke:#000000;stroke-width:1.5;" width="439.5" x="36.75" y="296.6973"/><text fill="#000000" font-family="sans-serif" font-size="13" font-weight="bold" lengthAdjust="spacing" textLength="28" x="51.75" y="311.7256">loop</text><text fill="#000000" font-family="sans-serif" font-size="11" font-weight="bold" lengthAdjust="spacing" textLength="160" x="124.75" y="310.5674">[while grading all interviews]</text><polygon fill="#181818" points="126.25,335.2793,116.25,339.2793,126.25,343.2793,122.25,339.2793" style="stroke:#181818;stroke-width:1.0;"/><line style="stroke:#181818;stroke-width:1.0;stroke-dasharray:2.0,2.0;" x1="120.25" x2="433.25" y1="339.2793" y2="339.2793"/><text fill="#000000" font-family="sans-serif" font-size="13" lengthAdjust="spacing" textLength="118" x="132.25" y="334.0166">Requests new grade</text><polygon fill="#181818" points="417.25,366.5703,427.25,370.5703,417.25,374.5703,421.25,370.5703" style="stroke:#181818;stroke-width:1.0;"/><line style="stroke:#181818;stroke-width:1.0;" x1="115.25" x2="423.25" y1="370.5703" y2="370.5703"/><text fill="#000000" font-family="sans-serif" font-size="13" lengthAdjust="spacing" textLength="112" x="122.25" y="365.3076">Provides new grade</text><polygon fill="#181818" points="126.25,397.8613,116.25,401.8613,126.25,405.8613,122.25,401.8613" style="stroke:#181818;stroke-width:1.0;"/><line style="stroke:#181818;stroke-width:1.0;stroke-dasharray:2.0,2.0;" x1="120.25" x2="433.25" y1="401.8613" y2="401.8613"/><text fill="#000000" font-family="sans-serif" font-size="13" lengthAdjust="spacing" textLength="114" x="132.25" y="396.5986">Confirms new grade</text><!--SRC=[bPBTJiCm38NlynJMRWONUu5U8A5DGY0X47q2htNRi3GkYRjgRu_xix6E0U8gKMn_v_WeoxYpli60DTJiEQi2rmGIMZBBhrA3sGvBIkNW209bWhvqiuvOOSwTzIKKw28P8rQqDpr4eHfI-cZ9PmGRYsNVVfEccrjOmKF0dE3H2uMzfIv2mG4GddWBBmrvvHc3cUZZOjr6KMy1dj6hbx00Z71VaXUZ5iHcja4li4X6pQ4yNWU4tQFGr6-60rPtHty9lFKEeu0mb8CdgGZifQztzSMJhnFpA3AnLeeT-0ca5NVWh6Av06mQPpFSQYfdc6XoEfAk-Kh9QTp_bOOBxOj5-jtY0APy1hx2cOA9q4RDNkCP1u6z-ZN6CJVGLLQtwdFhFm0wToPeVeLwwiQypNaEtsDu3RotESq6_av11zVi2nlg7vHEe-Hpw5UP5SVFyWa0]--></g></svg>