<?xml version="1.0" encoding="us-ascii" standalone="no"?><svg xmlns="http://www.w3.org/2000/svg" xmlns:xlink="http://www.w3.org/1999/xlink" contentStyleType="text/css" height="297px" preserveAspectRatio="none" style="width:173px;height:297px;background:#FFFFFF;" version="1.1" viewBox="0 0 173 297" width="173px" zoomAndPan="magnify"><defs/><g><!--cluster interview--><g id="cluster_interview"><rect fill="none" height="130" rx="2.5" ry="2.5" style="stroke:#181818;stroke-width:1.0;" width="160" x="7" y="161"/><text fill="#000000" font-family="sans-serif" font-size="14" font-weight="bold" lengthAdjust="spacing" textLength="66" x="54" y="178.1074">interview</text></g><!--cluster plugin--><g id="cluster_plugin"><rect fill="none" height="130" rx="2.5" ry="2.5" style="stroke:#181818;stroke-width:1.0;" width="160" x="7" y="7"/><text fill="#000000" font-family="sans-serif" font-size="14" font-weight="bold" lengthAdjust="spacing" textLength="44" x="65" y="24.1074">plugin</text></g><!--class Interview--><g id="elem_Interview"><rect codeLine="5" fill="#F1F1F1" height="76.543" id="Interview" rx="2.5" ry="2.5" style="stroke:#181818;stroke-width:0.5;" width="128" x="23" y="198"/><ellipse cx="38" cy="228.2715" fill="#ADD1B2" rx="11" ry="11" style="stroke:#181818;stroke-width:1.0;"/><path d="M40.7656,224.1465 Q40.9219,223.9277 41.1094,223.8184 Q41.2969,223.709 41.5156,223.709 Q41.8906,223.709 42.125,223.9746 Q42.3594,224.2246 42.3594,224.834 L42.3594,226.2871 Q42.3594,226.8965 42.125,227.1621 Q41.8906,227.4277 41.5156,227.4277 Q41.1719,227.4277 40.9688,227.2246 Q40.7656,227.0371 40.6563,226.5215 Q40.6094,226.1621 40.4219,225.9746 Q40.0938,225.5996 39.4844,225.3809 Q38.875,225.1621 38.25,225.1621 Q37.4844,225.1621 36.8438,225.4902 Q36.2188,225.8184 35.7188,226.5684 Q35.2344,227.3184 35.2344,228.3496 L35.2344,229.4434 Q35.2344,230.6777 36.125,231.5059 Q37.0156,232.3184 38.6094,232.3184 Q39.5469,232.3184 40.2031,232.0684 Q40.5938,231.9121 41.0156,231.4746 Q41.2813,231.209 41.4219,231.1309 Q41.5781,231.0527 41.7813,231.0527 Q42.1094,231.0527 42.3594,231.3184 Q42.625,231.5684 42.625,231.9121 Q42.625,232.2559 42.2813,232.6621 Q41.7813,233.2402 40.9844,233.5684 Q39.9063,234.0215 38.6094,234.0215 Q37.0938,234.0215 35.8906,233.3965 Q34.9063,232.8965 34.2188,231.834 Q33.5313,230.7559 33.5313,229.4746 L33.5313,228.3184 Q33.5313,226.9902 34.1406,225.8496 Q34.7656,224.6934 35.8594,224.084 Q36.9531,223.459 38.1875,223.459 Q38.9219,223.459 39.5625,223.6309 Q40.2188,223.7871 40.7656,224.1465 Z " fill="#000000"/><text fill="#000000" font-family="sans-serif" font-size="12" font-style="italic" lengthAdjust="spacing" textLength="100" x="50" y="215.9492">&#171;Aggregate Root&#187;</text><text fill="#000000" font-family="sans-serif" font-size="12" font-style="italic" lengthAdjust="spacing" textLength="44" x="78" y="231.9102">&#171;Entity&#187;</text><text fill="#000000" font-family="sans-serif" font-size="14" lengthAdjust="spacing" textLength="55" x="72.5" y="250.0293">Interview</text><line style="stroke:#181818;stroke-width:0.5;" x1="24" x2="150" y1="258.543" y2="258.543"/><line style="stroke:#181818;stroke-width:0.5;" x1="24" x2="150" y1="266.543" y2="266.543"/></g><!--class Plugin--><g id="elem_Plugin"><rect codeLine="10" fill="#F1F1F1" height="76.543" id="Plugin" rx="2.5" ry="2.5" style="stroke:#181818;stroke-width:0.5;" width="128" x="23" y="44"/><ellipse cx="38" cy="74.2715" fill="#ADD1B2" rx="11" ry="11" style="stroke:#181818;stroke-width:1.0;"/><path d="M40.7656,70.1465 Q40.9219,69.9277 41.1094,69.8184 Q41.2969,69.709 41.5156,69.709 Q41.8906,69.709 42.125,69.9746 Q42.3594,70.2246 42.3594,70.834 L42.3594,72.2871 Q42.3594,72.8965 42.125,73.1621 Q41.8906,73.4277 41.5156,73.4277 Q41.1719,73.4277 40.9688,73.2246 Q40.7656,73.0371 40.6563,72.5215 Q40.6094,72.1621 40.4219,71.9746 Q40.0938,71.5996 39.4844,71.3809 Q38.875,71.1621 38.25,71.1621 Q37.4844,71.1621 36.8438,71.4902 Q36.2188,71.8184 35.7188,72.5684 Q35.2344,73.3184 35.2344,74.3496 L35.2344,75.4434 Q35.2344,76.6777 36.125,77.5059 Q37.0156,78.3184 38.6094,78.3184 Q39.5469,78.3184 40.2031,78.0684 Q40.5938,77.9121 41.0156,77.4746 Q41.2813,77.209 41.4219,77.1309 Q41.5781,77.0527 41.7813,77.0527 Q42.1094,77.0527 42.3594,77.3184 Q42.625,77.5684 42.625,77.9121 Q42.625,78.2559 42.2813,78.6621 Q41.7813,79.2402 40.9844,79.5684 Q39.9063,80.0215 38.6094,80.0215 Q37.0938,80.0215 35.8906,79.3965 Q34.9063,78.8965 34.2188,77.834 Q33.5313,76.7559 33.5313,75.4746 L33.5313,74.3184 Q33.5313,72.9902 34.1406,71.8496 Q34.7656,70.6934 35.8594,70.084 Q36.9531,69.459 38.1875,69.459 Q38.9219,69.459 39.5625,69.6309 Q40.2188,69.7871 40.7656,70.1465 Z " fill="#000000"/><text fill="#000000" font-family="sans-serif" font-size="12" font-style="italic" lengthAdjust="spacing" textLength="100" x="50" y="61.9492">&#171;Aggregate Root&#187;</text><text fill="#000000" font-family="sans-serif" font-size="12" font-style="italic" lengthAdjust="spacing" textLength="44" x="78" y="77.9102">&#171;Entity&#187;</text><text fill="#000000" font-family="sans-serif" font-size="14" lengthAdjust="spacing" textLength="39" x="80.5" y="96.0293">Plugin</text><line style="stroke:#181818;stroke-width:0.5;" x1="24" x2="150" y1="104.543" y2="104.543"/><line style="stroke:#181818;stroke-width:0.5;" x1="24" x2="150" y1="112.543" y2="112.543"/></g><!--reverse link Plugin to Interview--><g id="link_Plugin_Interview"><path codeLine="15" d="M87,127.07 C87,150.46 87,174.43 87,197.83 " fill="none" id="Plugin-backto-Interview" style="stroke:#181818;stroke-width:1.0;"/><polygon fill="#181818" points="87,121.07,83,130.07,87,126.07,91,130.07,87,121.07" style="stroke:#181818;stroke-width:1.0;"/><text fill="#000000" font-family="sans-serif" font-size="13" lengthAdjust="spacing" textLength="15" x="70.8047" y="142.6597">1..</text><text fill="#000000" font-family="sans-serif" font-size="13" lengthAdjust="spacing" textLength="7" x="79.3984" y="186.8153">1</text></g><!--SRC=[AqfDBadCIyz9LSZCAqajAijCBQ_cKW22v9p4uc85JvYWZOrZUdfHQdfYIQf2K7v-YPsTZOrhNabcIQMTNNKj5nSG5S6DAiWfJS_CGpOd02n2m12W6LnS49LAXdfwIWeskheAIePAS4U0vBa0]--></g></svg>