<?xml version="1.0" encoding="us-ascii" standalone="no"?><svg xmlns="http://www.w3.org/2000/svg" xmlns:xlink="http://www.w3.org/1999/xlink" contentStyleType="text/css" height="506px" preserveAspectRatio="none" style="width:1116px;height:506px;background:#FFFFFF;" version="1.1" viewBox="0 0 1116 506" width="1116px" zoomAndPan="magnify"><defs/><g><!--cluster Job Opening Interview--><g id="cluster_Job Opening Interview"><rect fill="#CCBBAA" height="372" rx="2.5" ry="2.5" style="stroke:#181818;stroke-width:1.0;" width="461" x="7" y="7"/><text fill="#000000" font-family="sans-serif" font-size="14" font-weight="bold" lengthAdjust="spacing" textLength="160" x="157.5" y="24.1074">Job Opening Interview</text></g><!--cluster PlugIn--><g id="cluster_PlugIn"><rect fill="#BABABA" height="235" rx="2.5" ry="2.5" style="stroke:#181818;stroke-width:1.0;" width="618" x="492" y="265"/><text fill="#000000" font-family="sans-serif" font-size="14" font-weight="bold" lengthAdjust="spacing" textLength="44" x="779" y="282.1074">PlugIn</text></g><!--class JobInterview--><g id="elem_JobInterview"><rect codeLine="6" fill="#F1F1F1" height="68.543" id="JobInterview" rx="2.5" ry="2.5" style="stroke:#181818;stroke-width:0.5;" width="128" x="208" y="173"/><ellipse cx="223" cy="203.2715" fill="#ADD1B2" rx="11" ry="11" style="stroke:#181818;stroke-width:1.0;"/><path d="M225.7656,199.1465 Q225.9219,198.9277 226.1094,198.8184 Q226.2969,198.709 226.5156,198.709 Q226.8906,198.709 227.125,198.9746 Q227.3594,199.2246 227.3594,199.834 L227.3594,201.2871 Q227.3594,201.8965 227.125,202.1621 Q226.8906,202.4277 226.5156,202.4277 Q226.1719,202.4277 225.9688,202.2246 Q225.7656,202.0371 225.6563,201.5215 Q225.6094,201.1621 225.4219,200.9746 Q225.0938,200.5996 224.4844,200.3809 Q223.875,200.1621 223.25,200.1621 Q222.4844,200.1621 221.8438,200.4902 Q221.2188,200.8184 220.7188,201.5684 Q220.2344,202.3184 220.2344,203.3496 L220.2344,204.4434 Q220.2344,205.6777 221.125,206.5059 Q222.0156,207.3184 223.6094,207.3184 Q224.5469,207.3184 225.2031,207.0684 Q225.5938,206.9121 226.0156,206.4746 Q226.2813,206.209 226.4219,206.1309 Q226.5781,206.0527 226.7813,206.0527 Q227.1094,206.0527 227.3594,206.3184 Q227.625,206.5684 227.625,206.9121 Q227.625,207.2559 227.2813,207.6621 Q226.7813,208.2402 225.9844,208.5684 Q224.9063,209.0215 223.6094,209.0215 Q222.0938,209.0215 220.8906,208.3965 Q219.9063,207.8965 219.2188,206.834 Q218.5313,205.7559 218.5313,204.4746 L218.5313,203.3184 Q218.5313,201.9902 219.1406,200.8496 Q219.7656,199.6934 220.8594,199.084 Q221.9531,198.459 223.1875,198.459 Q223.9219,198.459 224.5625,198.6309 Q225.2188,198.7871 225.7656,199.1465 Z " fill="#000000"/><text fill="#000000" font-family="sans-serif" font-size="12" font-style="italic" lengthAdjust="spacing" textLength="100" x="235" y="190.9492">&#171;Aggregate Root&#187;</text><text fill="#000000" font-family="sans-serif" font-size="12" font-style="italic" lengthAdjust="spacing" textLength="44" x="263" y="206.9102">&#171;Entity&#187;</text><text fill="#000000" font-family="sans-serif" font-size="14" lengthAdjust="spacing" textLength="77" x="246.5" y="225.0293">JobInterview</text><line style="stroke:#181818;stroke-width:0.5;" x1="209" x2="335" y1="233.543" y2="233.543"/></g><!--class JobInterviewId--><g id="elem_JobInterviewId"><rect codeLine="7" fill="#F1F1F1" height="68.543" id="JobInterviewId" rx="2.5" ry="2.5" style="stroke:#181818;stroke-width:0.5;" width="120" x="98" y="44"/><ellipse cx="113" cy="74.2715" fill="#ADD1B2" rx="11" ry="11" style="stroke:#181818;stroke-width:1.0;"/><path d="M115.7656,70.1465 Q115.9219,69.9277 116.1094,69.8184 Q116.2969,69.709 116.5156,69.709 Q116.8906,69.709 117.125,69.9746 Q117.3594,70.2246 117.3594,70.834 L117.3594,72.2871 Q117.3594,72.8965 117.125,73.1621 Q116.8906,73.4277 116.5156,73.4277 Q116.1719,73.4277 115.9688,73.2246 Q115.7656,73.0371 115.6563,72.5215 Q115.6094,72.1621 115.4219,71.9746 Q115.0938,71.5996 114.4844,71.3809 Q113.875,71.1621 113.25,71.1621 Q112.4844,71.1621 111.8438,71.4902 Q111.2188,71.8184 110.7188,72.5684 Q110.2344,73.3184 110.2344,74.3496 L110.2344,75.4434 Q110.2344,76.6777 111.125,77.5059 Q112.0156,78.3184 113.6094,78.3184 Q114.5469,78.3184 115.2031,78.0684 Q115.5938,77.9121 116.0156,77.4746 Q116.2813,77.209 116.4219,77.1309 Q116.5781,77.0527 116.7813,77.0527 Q117.1094,77.0527 117.3594,77.3184 Q117.625,77.5684 117.625,77.9121 Q117.625,78.2559 117.2813,78.6621 Q116.7813,79.2402 115.9844,79.5684 Q114.9063,80.0215 113.6094,80.0215 Q112.0938,80.0215 110.8906,79.3965 Q109.9063,78.8965 109.2188,77.834 Q108.5313,76.7559 108.5313,75.4746 L108.5313,74.3184 Q108.5313,72.9902 109.1406,71.8496 Q109.7656,70.6934 110.8594,70.084 Q111.9531,69.459 113.1875,69.459 Q113.9219,69.459 114.5625,69.6309 Q115.2188,69.7871 115.7656,70.1465 Z " fill="#000000"/><text fill="#000000" font-family="sans-serif" font-size="12" font-style="italic" lengthAdjust="spacing" textLength="54" x="144" y="61.9492">&#171;Identity&#187;</text><text fill="#000000" font-family="sans-serif" font-size="12" font-style="italic" lengthAdjust="spacing" textLength="85" x="128.5" y="77.9102">&#171;Value Object&#187;</text><text fill="#000000" font-family="sans-serif" font-size="14" lengthAdjust="spacing" textLength="88" x="127" y="96.0293">JobInterviewId</text><line style="stroke:#181818;stroke-width:0.5;" x1="99" x2="217" y1="104.543" y2="104.543"/></g><!--class InterviewDate--><g id="elem_InterviewDate"><rect codeLine="8" fill="#F1F1F1" height="52.582" id="InterviewDate" rx="2.5" ry="2.5" style="stroke:#181818;stroke-width:0.5;" width="117" x="253.5" y="52"/><ellipse cx="268.5" cy="74.291" fill="#ADD1B2" rx="11" ry="11" style="stroke:#181818;stroke-width:1.0;"/><path d="M271.2656,70.166 Q271.4219,69.9473 271.6094,69.8379 Q271.7969,69.7285 272.0156,69.7285 Q272.3906,69.7285 272.625,69.9941 Q272.8594,70.2441 272.8594,70.8535 L272.8594,72.3066 Q272.8594,72.916 272.625,73.1816 Q272.3906,73.4473 272.0156,73.4473 Q271.6719,73.4473 271.4688,73.2441 Q271.2656,73.0566 271.1563,72.541 Q271.1094,72.1816 270.9219,71.9941 Q270.5938,71.6191 269.9844,71.4004 Q269.375,71.1816 268.75,71.1816 Q267.9844,71.1816 267.3438,71.5098 Q266.7188,71.8379 266.2188,72.5879 Q265.7344,73.3379 265.7344,74.3691 L265.7344,75.4629 Q265.7344,76.6973 266.625,77.5254 Q267.5156,78.3379 269.1094,78.3379 Q270.0469,78.3379 270.7031,78.0879 Q271.0938,77.9316 271.5156,77.4941 Q271.7813,77.2285 271.9219,77.1504 Q272.0781,77.0723 272.2813,77.0723 Q272.6094,77.0723 272.8594,77.3379 Q273.125,77.5879 273.125,77.9316 Q273.125,78.2754 272.7813,78.6816 Q272.2813,79.2598 271.4844,79.5879 Q270.4063,80.041 269.1094,80.041 Q267.5938,80.041 266.3906,79.416 Q265.4063,78.916 264.7188,77.8535 Q264.0313,76.7754 264.0313,75.4941 L264.0313,74.3379 Q264.0313,73.0098 264.6406,71.8691 Q265.2656,70.7129 266.3594,70.1035 Q267.4531,69.4785 268.6875,69.4785 Q269.4219,69.4785 270.0625,69.6504 Q270.7188,69.8066 271.2656,70.166 Z " fill="#000000"/><text fill="#000000" font-family="sans-serif" font-size="12" font-style="italic" lengthAdjust="spacing" textLength="85" x="282.5" y="69.9492">&#171;Value Object&#187;</text><text fill="#000000" font-family="sans-serif" font-size="14" lengthAdjust="spacing" textLength="85" x="282.5" y="88.0684">InterviewDate</text><line style="stroke:#181818;stroke-width:0.5;" x1="254.5" x2="369.5" y1="96.582" y2="96.582"/></g><!--class InterviewTime--><g id="elem_InterviewTime"><rect codeLine="9" fill="#F1F1F1" height="52.582" id="InterviewTime" rx="2.5" ry="2.5" style="stroke:#181818;stroke-width:0.5;" width="118" x="23" y="310"/><ellipse cx="38" cy="332.291" fill="#ADD1B2" rx="11" ry="11" style="stroke:#181818;stroke-width:1.0;"/><path d="M40.7656,328.166 Q40.9219,327.9473 41.1094,327.8379 Q41.2969,327.7285 41.5156,327.7285 Q41.8906,327.7285 42.125,327.9941 Q42.3594,328.2441 42.3594,328.8535 L42.3594,330.3066 Q42.3594,330.916 42.125,331.1816 Q41.8906,331.4473 41.5156,331.4473 Q41.1719,331.4473 40.9688,331.2441 Q40.7656,331.0566 40.6563,330.541 Q40.6094,330.1816 40.4219,329.9941 Q40.0938,329.6191 39.4844,329.4004 Q38.875,329.1816 38.25,329.1816 Q37.4844,329.1816 36.8438,329.5098 Q36.2188,329.8379 35.7188,330.5879 Q35.2344,331.3379 35.2344,332.3691 L35.2344,333.4629 Q35.2344,334.6973 36.125,335.5254 Q37.0156,336.3379 38.6094,336.3379 Q39.5469,336.3379 40.2031,336.0879 Q40.5938,335.9316 41.0156,335.4941 Q41.2813,335.2285 41.4219,335.1504 Q41.5781,335.0723 41.7813,335.0723 Q42.1094,335.0723 42.3594,335.3379 Q42.625,335.5879 42.625,335.9316 Q42.625,336.2754 42.2813,336.6816 Q41.7813,337.2598 40.9844,337.5879 Q39.9063,338.041 38.6094,338.041 Q37.0938,338.041 35.8906,337.416 Q34.9063,336.916 34.2188,335.8535 Q33.5313,334.7754 33.5313,333.4941 L33.5313,332.3379 Q33.5313,331.0098 34.1406,329.8691 Q34.7656,328.7129 35.8594,328.1035 Q36.9531,327.4785 38.1875,327.4785 Q38.9219,327.4785 39.5625,327.6504 Q40.2188,327.8066 40.7656,328.166 Z " fill="#000000"/><text fill="#000000" font-family="sans-serif" font-size="12" font-style="italic" lengthAdjust="spacing" textLength="85" x="52.5" y="327.9492">&#171;Value Object&#187;</text><text fill="#000000" font-family="sans-serif" font-size="14" lengthAdjust="spacing" textLength="86" x="52" y="346.0684">InterviewTime</text><line style="stroke:#181818;stroke-width:0.5;" x1="24" x2="140" y1="354.582" y2="354.582"/></g><!--class Score--><g id="elem_Score"><rect codeLine="10" fill="#F1F1F1" height="52.582" id="Score" rx="2.5" ry="2.5" style="stroke:#181818;stroke-width:0.5;" width="113" x="176.5" y="310"/><ellipse cx="191.5" cy="332.291" fill="#ADD1B2" rx="11" ry="11" style="stroke:#181818;stroke-width:1.0;"/><path d="M194.2656,328.166 Q194.4219,327.9473 194.6094,327.8379 Q194.7969,327.7285 195.0156,327.7285 Q195.3906,327.7285 195.625,327.9941 Q195.8594,328.2441 195.8594,328.8535 L195.8594,330.3066 Q195.8594,330.916 195.625,331.1816 Q195.3906,331.4473 195.0156,331.4473 Q194.6719,331.4473 194.4688,331.2441 Q194.2656,331.0566 194.1563,330.541 Q194.1094,330.1816 193.9219,329.9941 Q193.5938,329.6191 192.9844,329.4004 Q192.375,329.1816 191.75,329.1816 Q190.9844,329.1816 190.3438,329.5098 Q189.7188,329.8379 189.2188,330.5879 Q188.7344,331.3379 188.7344,332.3691 L188.7344,333.4629 Q188.7344,334.6973 189.625,335.5254 Q190.5156,336.3379 192.1094,336.3379 Q193.0469,336.3379 193.7031,336.0879 Q194.0938,335.9316 194.5156,335.4941 Q194.7813,335.2285 194.9219,335.1504 Q195.0781,335.0723 195.2813,335.0723 Q195.6094,335.0723 195.8594,335.3379 Q196.125,335.5879 196.125,335.9316 Q196.125,336.2754 195.7813,336.6816 Q195.2813,337.2598 194.4844,337.5879 Q193.4063,338.041 192.1094,338.041 Q190.5938,338.041 189.3906,337.416 Q188.4063,336.916 187.7188,335.8535 Q187.0313,334.7754 187.0313,333.4941 L187.0313,332.3379 Q187.0313,331.0098 187.6406,329.8691 Q188.2656,328.7129 189.3594,328.1035 Q190.4531,327.4785 191.6875,327.4785 Q192.4219,327.4785 193.0625,327.6504 Q193.7188,327.8066 194.2656,328.166 Z " fill="#000000"/><text fill="#000000" font-family="sans-serif" font-size="12" font-style="italic" lengthAdjust="spacing" textLength="85" x="203.5" y="327.9492">&#171;Value Object&#187;</text><text fill="#000000" font-family="sans-serif" font-size="14" lengthAdjust="spacing" textLength="37" x="227.5" y="346.0684">Score</text><line style="stroke:#181818;stroke-width:0.5;" x1="177.5" x2="288.5" y1="354.582" y2="354.582"/></g><!--class InterviewResult--><g id="elem_InterviewResult"><rect codeLine="11" fill="#F1F1F1" height="52.582" id="InterviewResult" rx="2.5" ry="2.5" style="stroke:#181818;stroke-width:0.5;" width="127" x="324.5" y="310"/><ellipse cx="339.5" cy="332.291" fill="#ADD1B2" rx="11" ry="11" style="stroke:#181818;stroke-width:1.0;"/><path d="M342.2656,328.166 Q342.4219,327.9473 342.6094,327.8379 Q342.7969,327.7285 343.0156,327.7285 Q343.3906,327.7285 343.625,327.9941 Q343.8594,328.2441 343.8594,328.8535 L343.8594,330.3066 Q343.8594,330.916 343.625,331.1816 Q343.3906,331.4473 343.0156,331.4473 Q342.6719,331.4473 342.4688,331.2441 Q342.2656,331.0566 342.1563,330.541 Q342.1094,330.1816 341.9219,329.9941 Q341.5938,329.6191 340.9844,329.4004 Q340.375,329.1816 339.75,329.1816 Q338.9844,329.1816 338.3438,329.5098 Q337.7188,329.8379 337.2188,330.5879 Q336.7344,331.3379 336.7344,332.3691 L336.7344,333.4629 Q336.7344,334.6973 337.625,335.5254 Q338.5156,336.3379 340.1094,336.3379 Q341.0469,336.3379 341.7031,336.0879 Q342.0938,335.9316 342.5156,335.4941 Q342.7813,335.2285 342.9219,335.1504 Q343.0781,335.0723 343.2813,335.0723 Q343.6094,335.0723 343.8594,335.3379 Q344.125,335.5879 344.125,335.9316 Q344.125,336.2754 343.7813,336.6816 Q343.2813,337.2598 342.4844,337.5879 Q341.4063,338.041 340.1094,338.041 Q338.5938,338.041 337.3906,337.416 Q336.4063,336.916 335.7188,335.8535 Q335.0313,334.7754 335.0313,333.4941 L335.0313,332.3379 Q335.0313,331.0098 335.6406,329.8691 Q336.2656,328.7129 337.3594,328.1035 Q338.4531,327.4785 339.6875,327.4785 Q340.4219,327.4785 341.0625,327.6504 Q341.7188,327.8066 342.2656,328.166 Z " fill="#000000"/><text fill="#000000" font-family="sans-serif" font-size="12" font-style="italic" lengthAdjust="spacing" textLength="85" x="358.5" y="327.9492">&#171;Value Object&#187;</text><text fill="#000000" font-family="sans-serif" font-size="14" lengthAdjust="spacing" textLength="95" x="353.5" y="346.0684">InterviewResult</text><line style="stroke:#181818;stroke-width:0.5;" x1="325.5" x2="450.5" y1="354.582" y2="354.582"/></g><!--class Plugin--><g id="elem_Plugin"><rect codeLine="15" fill="#F1F1F1" height="68.543" id="Plugin" rx="2.5" ry="2.5" style="stroke:#181818;stroke-width:0.5;" width="128" x="817" y="302"/><ellipse cx="832" cy="332.2715" fill="#ADD1B2" rx="11" ry="11" style="stroke:#181818;stroke-width:1.0;"/><path d="M834.7656,328.1465 Q834.9219,327.9277 835.1094,327.8184 Q835.2969,327.709 835.5156,327.709 Q835.8906,327.709 836.125,327.9746 Q836.3594,328.2246 836.3594,328.834 L836.3594,330.2871 Q836.3594,330.8965 836.125,331.1621 Q835.8906,331.4277 835.5156,331.4277 Q835.1719,331.4277 834.9688,331.2246 Q834.7656,331.0371 834.6563,330.5215 Q834.6094,330.1621 834.4219,329.9746 Q834.0938,329.5996 833.4844,329.3809 Q832.875,329.1621 832.25,329.1621 Q831.4844,329.1621 830.8438,329.4902 Q830.2188,329.8184 829.7188,330.5684 Q829.2344,331.3184 829.2344,332.3496 L829.2344,333.4434 Q829.2344,334.6777 830.125,335.5059 Q831.0156,336.3184 832.6094,336.3184 Q833.5469,336.3184 834.2031,336.0684 Q834.5938,335.9121 835.0156,335.4746 Q835.2813,335.209 835.4219,335.1309 Q835.5781,335.0527 835.7813,335.0527 Q836.1094,335.0527 836.3594,335.3184 Q836.625,335.5684 836.625,335.9121 Q836.625,336.2559 836.2813,336.6621 Q835.7813,337.2402 834.9844,337.5684 Q833.9063,338.0215 832.6094,338.0215 Q831.0938,338.0215 829.8906,337.3965 Q828.9063,336.8965 828.2188,335.834 Q827.5313,334.7559 827.5313,333.4746 L827.5313,332.3184 Q827.5313,330.9902 828.1406,329.8496 Q828.7656,328.6934 829.8594,328.084 Q830.9531,327.459 832.1875,327.459 Q832.9219,327.459 833.5625,327.6309 Q834.2188,327.7871 834.7656,328.1465 Z " fill="#000000"/><text fill="#000000" font-family="sans-serif" font-size="12" font-style="italic" lengthAdjust="spacing" textLength="100" x="844" y="319.9492">&#171;Aggregate Root&#187;</text><text fill="#000000" font-family="sans-serif" font-size="12" font-style="italic" lengthAdjust="spacing" textLength="44" x="872" y="335.9102">&#171;Entity&#187;</text><text fill="#000000" font-family="sans-serif" font-size="14" lengthAdjust="spacing" textLength="39" x="874.5" y="354.0293">Plugin</text><line style="stroke:#181818;stroke-width:0.5;" x1="818" x2="944" y1="362.543" y2="362.543"/></g><!--class PluginType--><g id="elem_PluginType"><rect codeLine="16" fill="#F1F1F1" height="52.582" id="PluginType" rx="2.5" ry="2.5" style="stroke:#181818;stroke-width:0.5;" width="113" x="654.5" y="431"/><ellipse cx="669.5" cy="453.291" fill="#ADD1B2" rx="11" ry="11" style="stroke:#181818;stroke-width:1.0;"/><path d="M672.2656,449.166 Q672.4219,448.9473 672.6094,448.8379 Q672.7969,448.7285 673.0156,448.7285 Q673.3906,448.7285 673.625,448.9941 Q673.8594,449.2441 673.8594,449.8535 L673.8594,451.3066 Q673.8594,451.916 673.625,452.1816 Q673.3906,452.4473 673.0156,452.4473 Q672.6719,452.4473 672.4688,452.2441 Q672.2656,452.0566 672.1563,451.541 Q672.1094,451.1816 671.9219,450.9941 Q671.5938,450.6191 670.9844,450.4004 Q670.375,450.1816 669.75,450.1816 Q668.9844,450.1816 668.3438,450.5098 Q667.7188,450.8379 667.2188,451.5879 Q666.7344,452.3379 666.7344,453.3691 L666.7344,454.4629 Q666.7344,455.6973 667.625,456.5254 Q668.5156,457.3379 670.1094,457.3379 Q671.0469,457.3379 671.7031,457.0879 Q672.0938,456.9316 672.5156,456.4941 Q672.7813,456.2285 672.9219,456.1504 Q673.0781,456.0723 673.2813,456.0723 Q673.6094,456.0723 673.8594,456.3379 Q674.125,456.5879 674.125,456.9316 Q674.125,457.2754 673.7813,457.6816 Q673.2813,458.2598 672.4844,458.5879 Q671.4063,459.041 670.1094,459.041 Q668.5938,459.041 667.3906,458.416 Q666.4063,457.916 665.7188,456.8535 Q665.0313,455.7754 665.0313,454.4941 L665.0313,453.3379 Q665.0313,452.0098 665.6406,450.8691 Q666.2656,449.7129 667.3594,449.1035 Q668.4531,448.4785 669.6875,448.4785 Q670.4219,448.4785 671.0625,448.6504 Q671.7188,448.8066 672.2656,449.166 Z " fill="#000000"/><text fill="#000000" font-family="sans-serif" font-size="12" font-style="italic" lengthAdjust="spacing" textLength="85" x="681.5" y="448.9492">&#171;Value Object&#187;</text><text fill="#000000" font-family="sans-serif" font-size="14" lengthAdjust="spacing" textLength="71" x="688.5" y="467.0684">PluginType</text><line style="stroke:#181818;stroke-width:0.5;" x1="655.5" x2="766.5" y1="475.582" y2="475.582"/></g><!--class PluginId--><g id="elem_PluginId"><rect codeLine="17" fill="#F1F1F1" height="68.543" id="PluginId" rx="2.5" ry="2.5" style="stroke:#181818;stroke-width:0.5;" width="113" x="980.5" y="302"/><ellipse cx="995.5" cy="332.2715" fill="#ADD1B2" rx="11" ry="11" style="stroke:#181818;stroke-width:1.0;"/><path d="M998.2656,328.1465 Q998.4219,327.9277 998.6094,327.8184 Q998.7969,327.709 999.0156,327.709 Q999.3906,327.709 999.625,327.9746 Q999.8594,328.2246 999.8594,328.834 L999.8594,330.2871 Q999.8594,330.8965 999.625,331.1621 Q999.3906,331.4277 999.0156,331.4277 Q998.6719,331.4277 998.4688,331.2246 Q998.2656,331.0371 998.1563,330.5215 Q998.1094,330.1621 997.9219,329.9746 Q997.5938,329.5996 996.9844,329.3809 Q996.375,329.1621 995.75,329.1621 Q994.9844,329.1621 994.3438,329.4902 Q993.7188,329.8184 993.2188,330.5684 Q992.7344,331.3184 992.7344,332.3496 L992.7344,333.4434 Q992.7344,334.6777 993.625,335.5059 Q994.5156,336.3184 996.1094,336.3184 Q997.0469,336.3184 997.7031,336.0684 Q998.0938,335.9121 998.5156,335.4746 Q998.7813,335.209 998.9219,335.1309 Q999.0781,335.0527 999.2813,335.0527 Q999.6094,335.0527 999.8594,335.3184 Q1000.125,335.5684 1000.125,335.9121 Q1000.125,336.2559 999.7813,336.6621 Q999.2813,337.2402 998.4844,337.5684 Q997.4063,338.0215 996.1094,338.0215 Q994.5938,338.0215 993.3906,337.3965 Q992.4063,336.8965 991.7188,335.834 Q991.0313,334.7559 991.0313,333.4746 L991.0313,332.3184 Q991.0313,330.9902 991.6406,329.8496 Q992.2656,328.6934 993.3594,328.084 Q994.4531,327.459 995.6875,327.459 Q996.4219,327.459 997.0625,327.6309 Q997.7188,327.7871 998.2656,328.1465 Z " fill="#000000"/><text fill="#000000" font-family="sans-serif" font-size="12" font-style="italic" lengthAdjust="spacing" textLength="54" x="1023" y="319.9492">&#171;Identity&#187;</text><text fill="#000000" font-family="sans-serif" font-size="12" font-style="italic" lengthAdjust="spacing" textLength="85" x="1007.5" y="335.9102">&#171;Value Object&#187;</text><text fill="#000000" font-family="sans-serif" font-size="14" lengthAdjust="spacing" textLength="50" x="1025" y="354.0293">PluginId</text><line style="stroke:#181818;stroke-width:0.5;" x1="981.5" x2="1092.5" y1="362.543" y2="362.543"/></g><!--class PluginDescription--><g id="elem_PluginDescription"><rect codeLine="18" fill="#F1F1F1" height="52.582" id="PluginDescription" rx="2.5" ry="2.5" style="stroke:#181818;stroke-width:0.5;" width="142" x="803" y="431"/><ellipse cx="818" cy="453.291" fill="#ADD1B2" rx="11" ry="11" style="stroke:#181818;stroke-width:1.0;"/><path d="M820.7656,449.166 Q820.9219,448.9473 821.1094,448.8379 Q821.2969,448.7285 821.5156,448.7285 Q821.8906,448.7285 822.125,448.9941 Q822.3594,449.2441 822.3594,449.8535 L822.3594,451.3066 Q822.3594,451.916 822.125,452.1816 Q821.8906,452.4473 821.5156,452.4473 Q821.1719,452.4473 820.9688,452.2441 Q820.7656,452.0566 820.6563,451.541 Q820.6094,451.1816 820.4219,450.9941 Q820.0938,450.6191 819.4844,450.4004 Q818.875,450.1816 818.25,450.1816 Q817.4844,450.1816 816.8438,450.5098 Q816.2188,450.8379 815.7188,451.5879 Q815.2344,452.3379 815.2344,453.3691 L815.2344,454.4629 Q815.2344,455.6973 816.125,456.5254 Q817.0156,457.3379 818.6094,457.3379 Q819.5469,457.3379 820.2031,457.0879 Q820.5938,456.9316 821.0156,456.4941 Q821.2813,456.2285 821.4219,456.1504 Q821.5781,456.0723 821.7813,456.0723 Q822.1094,456.0723 822.3594,456.3379 Q822.625,456.5879 822.625,456.9316 Q822.625,457.2754 822.2813,457.6816 Q821.7813,458.2598 820.9844,458.5879 Q819.9063,459.041 818.6094,459.041 Q817.0938,459.041 815.8906,458.416 Q814.9063,457.916 814.2188,456.8535 Q813.5313,455.7754 813.5313,454.4941 L813.5313,453.3379 Q813.5313,452.0098 814.1406,450.8691 Q814.7656,449.7129 815.8594,449.1035 Q816.9531,448.4785 818.1875,448.4785 Q818.9219,448.4785 819.5625,448.6504 Q820.2188,448.8066 820.7656,449.166 Z " fill="#000000"/><text fill="#000000" font-family="sans-serif" font-size="12" font-style="italic" lengthAdjust="spacing" textLength="85" x="844.5" y="448.9492">&#171;Value Object&#187;</text><text fill="#000000" font-family="sans-serif" font-size="14" lengthAdjust="spacing" textLength="110" x="832" y="467.0684">PluginDescription</text><line style="stroke:#181818;stroke-width:0.5;" x1="804" x2="944" y1="475.582" y2="475.582"/></g><!--class JarFile--><g id="elem_JarFile"><rect codeLine="19" fill="#F1F1F1" height="52.582" id="JarFile" rx="2.5" ry="2.5" style="stroke:#181818;stroke-width:0.5;" width="113" x="980.5" y="431"/><ellipse cx="995.5" cy="453.291" fill="#ADD1B2" rx="11" ry="11" style="stroke:#181818;stroke-width:1.0;"/><path d="M998.2656,449.166 Q998.4219,448.9473 998.6094,448.8379 Q998.7969,448.7285 999.0156,448.7285 Q999.3906,448.7285 999.625,448.9941 Q999.8594,449.2441 999.8594,449.8535 L999.8594,451.3066 Q999.8594,451.916 999.625,452.1816 Q999.3906,452.4473 999.0156,452.4473 Q998.6719,452.4473 998.4688,452.2441 Q998.2656,452.0566 998.1563,451.541 Q998.1094,451.1816 997.9219,450.9941 Q997.5938,450.6191 996.9844,450.4004 Q996.375,450.1816 995.75,450.1816 Q994.9844,450.1816 994.3438,450.5098 Q993.7188,450.8379 993.2188,451.5879 Q992.7344,452.3379 992.7344,453.3691 L992.7344,454.4629 Q992.7344,455.6973 993.625,456.5254 Q994.5156,457.3379 996.1094,457.3379 Q997.0469,457.3379 997.7031,457.0879 Q998.0938,456.9316 998.5156,456.4941 Q998.7813,456.2285 998.9219,456.1504 Q999.0781,456.0723 999.2813,456.0723 Q999.6094,456.0723 999.8594,456.3379 Q1000.125,456.5879 1000.125,456.9316 Q1000.125,457.2754 999.7813,457.6816 Q999.2813,458.2598 998.4844,458.5879 Q997.4063,459.041 996.1094,459.041 Q994.5938,459.041 993.3906,458.416 Q992.4063,457.916 991.7188,456.8535 Q991.0313,455.7754 991.0313,454.4941 L991.0313,453.3379 Q991.0313,452.0098 991.6406,450.8691 Q992.2656,449.7129 993.3594,449.1035 Q994.4531,448.4785 995.6875,448.4785 Q996.4219,448.4785 997.0625,448.6504 Q997.7188,448.8066 998.2656,449.166 Z " fill="#000000"/><text fill="#000000" font-family="sans-serif" font-size="12" font-style="italic" lengthAdjust="spacing" textLength="85" x="1007.5" y="448.9492">&#171;Value Object&#187;</text><text fill="#000000" font-family="sans-serif" font-size="14" lengthAdjust="spacing" textLength="42" x="1029" y="467.0684">JarFile</text><line style="stroke:#181818;stroke-width:0.5;" x1="981.5" x2="1092.5" y1="475.582" y2="475.582"/></g><!--class Requirement--><g id="elem_Requirement"><rect codeLine="20" fill="#F1F1F1" height="52.582" id="Requirement" rx="2.5" ry="2.5" style="stroke:#181818;stroke-width:0.5;" width="113" x="668.5" y="310"/><ellipse cx="683.5" cy="332.291" fill="#ADD1B2" rx="11" ry="11" style="stroke:#181818;stroke-width:1.0;"/><path d="M686.2656,328.166 Q686.4219,327.9473 686.6094,327.8379 Q686.7969,327.7285 687.0156,327.7285 Q687.3906,327.7285 687.625,327.9941 Q687.8594,328.2441 687.8594,328.8535 L687.8594,330.3066 Q687.8594,330.916 687.625,331.1816 Q687.3906,331.4473 687.0156,331.4473 Q686.6719,331.4473 686.4688,331.2441 Q686.2656,331.0566 686.1563,330.541 Q686.1094,330.1816 685.9219,329.9941 Q685.5938,329.6191 684.9844,329.4004 Q684.375,329.1816 683.75,329.1816 Q682.9844,329.1816 682.3438,329.5098 Q681.7188,329.8379 681.2188,330.5879 Q680.7344,331.3379 680.7344,332.3691 L680.7344,333.4629 Q680.7344,334.6973 681.625,335.5254 Q682.5156,336.3379 684.1094,336.3379 Q685.0469,336.3379 685.7031,336.0879 Q686.0938,335.9316 686.5156,335.4941 Q686.7813,335.2285 686.9219,335.1504 Q687.0781,335.0723 687.2813,335.0723 Q687.6094,335.0723 687.8594,335.3379 Q688.125,335.5879 688.125,335.9316 Q688.125,336.2754 687.7813,336.6816 Q687.2813,337.2598 686.4844,337.5879 Q685.4063,338.041 684.1094,338.041 Q682.5938,338.041 681.3906,337.416 Q680.4063,336.916 679.7188,335.8535 Q679.0313,334.7754 679.0313,333.4941 L679.0313,332.3379 Q679.0313,331.0098 679.6406,329.8691 Q680.2656,328.7129 681.3594,328.1035 Q682.4531,327.4785 683.6875,327.4785 Q684.4219,327.4785 685.0625,327.6504 Q685.7188,327.8066 686.2656,328.166 Z " fill="#000000"/><text fill="#000000" font-family="sans-serif" font-size="12" font-style="italic" lengthAdjust="spacing" textLength="67" x="704.5" y="327.9492">&#171;Resource&#187;</text><text fill="#000000" font-family="sans-serif" font-size="14" lengthAdjust="spacing" textLength="81" x="697.5" y="346.0684">Requirement</text><line style="stroke:#181818;stroke-width:0.5;" x1="669.5" x2="780.5" y1="354.582" y2="354.582"/></g><!--class InterviewModel--><g id="elem_InterviewModel"><rect codeLine="21" fill="#F1F1F1" height="52.582" id="InterviewModel" rx="2.5" ry="2.5" style="stroke:#181818;stroke-width:0.5;" width="125" x="508.5" y="310"/><ellipse cx="523.5" cy="332.291" fill="#ADD1B2" rx="11" ry="11" style="stroke:#181818;stroke-width:1.0;"/><path d="M526.2656,328.166 Q526.4219,327.9473 526.6094,327.8379 Q526.7969,327.7285 527.0156,327.7285 Q527.3906,327.7285 527.625,327.9941 Q527.8594,328.2441 527.8594,328.8535 L527.8594,330.3066 Q527.8594,330.916 527.625,331.1816 Q527.3906,331.4473 527.0156,331.4473 Q526.6719,331.4473 526.4688,331.2441 Q526.2656,331.0566 526.1563,330.541 Q526.1094,330.1816 525.9219,329.9941 Q525.5938,329.6191 524.9844,329.4004 Q524.375,329.1816 523.75,329.1816 Q522.9844,329.1816 522.3438,329.5098 Q521.7188,329.8379 521.2188,330.5879 Q520.7344,331.3379 520.7344,332.3691 L520.7344,333.4629 Q520.7344,334.6973 521.625,335.5254 Q522.5156,336.3379 524.1094,336.3379 Q525.0469,336.3379 525.7031,336.0879 Q526.0938,335.9316 526.5156,335.4941 Q526.7813,335.2285 526.9219,335.1504 Q527.0781,335.0723 527.2813,335.0723 Q527.6094,335.0723 527.8594,335.3379 Q528.125,335.5879 528.125,335.9316 Q528.125,336.2754 527.7813,336.6816 Q527.2813,337.2598 526.4844,337.5879 Q525.4063,338.041 524.1094,338.041 Q522.5938,338.041 521.3906,337.416 Q520.4063,336.916 519.7188,335.8535 Q519.0313,334.7754 519.0313,333.4941 L519.0313,332.3379 Q519.0313,331.0098 519.6406,329.8691 Q520.2656,328.7129 521.3594,328.1035 Q522.4531,327.4785 523.6875,327.4785 Q524.4219,327.4785 525.0625,327.6504 Q525.7188,327.8066 526.2656,328.166 Z " fill="#000000"/><text fill="#000000" font-family="sans-serif" font-size="12" font-style="italic" lengthAdjust="spacing" textLength="67" x="550.5" y="327.9492">&#171;Resource&#187;</text><text fill="#000000" font-family="sans-serif" font-size="14" lengthAdjust="spacing" textLength="93" x="537.5" y="346.0684">InterviewModel</text><line style="stroke:#181818;stroke-width:0.5;" x1="509.5" x2="632.5" y1="354.582" y2="354.582"/></g><!--reverse link JobInterviewId to JobInterview--><g id="link_JobInterviewId_JobInterview"><path codeLine="24" d="M192.258,117.665 C208.748,136.035 225.1,154.25 241.61,172.64 " fill="none" id="JobInterviewId-backto-JobInterview" style="stroke:#181818;stroke-width:1.0;"/><polygon fill="#181818" points="188.25,113.2,191.2854,122.5694,191.59,116.9208,197.2387,117.2254,188.25,113.2" style="stroke:#181818;stroke-width:1.0;"/><text fill="#000000" font-family="sans-serif" font-size="13" lengthAdjust="spacing" textLength="7" x="185.6805" y="134.4453">1</text><text fill="#000000" font-family="sans-serif" font-size="13" lengthAdjust="spacing" textLength="7" x="228.3615" y="161.7428">1</text></g><!--reverse link InterviewDate to JobInterview--><g id="link_InterviewDate_JobInterview"><path codeLine="25" d="M302.1066,110.9226 C295.9866,130.3426 289.33,151.47 282.66,172.64 " fill="none" id="InterviewDate-backto-JobInterview" style="stroke:#181818;stroke-width:1.0;"/><polygon fill="#181818" points="303.91,105.2,297.3899,112.5816,302.4072,109.9688,305.0199,114.9861,303.91,105.2" style="stroke:#181818;stroke-width:1.0;"/><text fill="#000000" font-family="sans-serif" font-size="13" lengthAdjust="spacing" textLength="7" x="294.5196" y="126.5614">1</text><text fill="#000000" font-family="sans-serif" font-size="13" lengthAdjust="spacing" textLength="7" x="276.9801" y="161.7428">1</text></g><!--link JobInterview to InterviewTime--><g id="link_JobInterview_InterviewTime"><path codeLine="26" d="M207.85,230.92 C191.26,238.06 173.89,246.81 159,257 C137.42,271.77 120.7959,288.6741 106.3759,305.4141 " fill="none" id="JobInterview-to-InterviewTime" style="stroke:#181818;stroke-width:1.0;"/><polygon fill="#181818" points="102.46,309.96,111.3645,305.7517,105.7233,306.1717,105.3033,300.5305,102.46,309.96" style="stroke:#181818;stroke-width:1.0;"/><text fill="#000000" font-family="sans-serif" font-size="13" lengthAdjust="spacing" textLength="7" x="193.028" y="229.7167">1</text><text fill="#000000" font-family="sans-serif" font-size="13" lengthAdjust="spacing" textLength="7" x="99.594" y="298.5337">1</text></g><!--link JobInterview to Score--><g id="link_JobInterview_Score"><path codeLine="27" d="M261.65,242.2 C255.15,263.36 248.6624,284.5047 242.6824,303.9647 " fill="none" id="JobInterview-to-Score" style="stroke:#181818;stroke-width:1.0;"/><polygon fill="#181818" points="240.92,309.7,247.3872,302.272,242.3887,304.9206,239.7401,299.9221,240.92,309.7" style="stroke:#181818;stroke-width:1.0;"/><text fill="#000000" font-family="sans-serif" font-size="13" lengthAdjust="spacing" textLength="7" x="252.3561" y="263.4453">1</text><text fill="#000000" font-family="sans-serif" font-size="13" lengthAdjust="spacing" textLength="22" x="218.2077" y="298.6472">0..1</text></g><!--link JobInterview to InterviewResult--><g id="link_JobInterview_InterviewResult"><path codeLine="28" d="M302.78,242.2 C322.11,263.36 342.6129,285.8105 360.3929,305.2705 " fill="none" id="JobInterview-to-InterviewResult" style="stroke:#181818;stroke-width:1.0;"/><polygon fill="#181818" points="364.44,309.7,361.3223,300.3576,361.0674,306.0087,355.4163,305.7538,364.44,309.7" style="stroke:#181818;stroke-width:1.0;"/><text fill="#000000" font-family="sans-serif" font-size="13" lengthAdjust="spacing" textLength="7" x="300.2983" y="263.4453">1</text><text fill="#000000" font-family="sans-serif" font-size="13" lengthAdjust="spacing" textLength="7" x="351.1824" y="298.6472">1</text></g><!--link JobInterview to Plugin--><g id="link_JobInterview_Plugin"><path codeLine="30" d="M336.43,209.17 C458.42,211.29 718.11,220.13 799,257 C820.88,266.97 836.5477,280.7821 851.1177,297.2021 " fill="none" id="JobInterview-to-Plugin" style="stroke:#181818;stroke-width:1.0;"/><polygon fill="#181818" points="855.1,301.69,852.1185,292.3033,851.7814,297.9501,846.1346,297.613,855.1,301.69" style="stroke:#181818;stroke-width:1.0;"/><text fill="#000000" font-family="sans-serif" font-size="13" lengthAdjust="spacing" textLength="7" x="343.8598" y="205.4922">1</text><text fill="#000000" font-family="sans-serif" font-size="13" lengthAdjust="spacing" textLength="20" x="828.4809" y="290.802">1..*</text></g><!--link Plugin to PluginType--><g id="link_Plugin_PluginType"><path codeLine="32" d="M832.74,371.28 C805.65,390.25 777.306,410.0902 752.396,427.5202 " fill="none" id="Plugin-to-PluginType" style="stroke:#181818;stroke-width:1.0;"/><polygon fill="#181818" points="747.48,430.96,757.1473,429.0776,751.5767,428.0935,752.5608,422.5229,747.48,430.96" style="stroke:#181818;stroke-width:1.0;"/><text fill="#000000" font-family="sans-serif" font-size="13" lengthAdjust="spacing" textLength="7" x="817.1673" y="392.5385">1</text><text fill="#000000" font-family="sans-serif" font-size="13" lengthAdjust="spacing" textLength="7" x="748.5189" y="419.5337">1</text></g><!--link Plugin to PluginId--><g id="link_Plugin_PluginId"><path codeLine="33" d="M945.29,336.5 C956.99,336.5 962.69,336.5 974.4,336.5 " fill="none" id="Plugin-to-PluginId" style="stroke:#181818;stroke-width:1.0;"/><polygon fill="#181818" points="980.4,336.5,971.4,332.5,975.4,336.5,971.4,340.5,980.4,336.5" style="stroke:#181818;stroke-width:1.0;"/><text fill="#000000" font-family="sans-serif" font-size="13" lengthAdjust="spacing" textLength="7" x="953.1282" y="332.5888">1</text><text fill="#000000" font-family="sans-serif" font-size="13" lengthAdjust="spacing" textLength="7" x="965.3241" y="332.4364">1</text></g><!--link Plugin to PluginDescription--><g id="link_Plugin_PluginDescription"><path codeLine="34" d="M879.01,371.28 C877.9,390.25 876.8839,407.5404 875.8539,424.9704 " fill="none" id="Plugin-to-PluginDescription" style="stroke:#181818;stroke-width:1.0;"/><polygon fill="#181818" points="875.5,430.96,880.0239,422.2116,875.795,425.9687,872.0379,421.7397,875.5,430.96" style="stroke:#181818;stroke-width:1.0;"/><text fill="#000000" font-family="sans-serif" font-size="13" lengthAdjust="spacing" textLength="7" x="871.1007" y="392.5385">1</text><text fill="#000000" font-family="sans-serif" font-size="13" lengthAdjust="spacing" textLength="7" x="868.0125" y="419.5337">1</text></g><!--link Plugin to JarFile--><g id="link_Plugin_JarFile"><path codeLine="35" d="M925.29,371.28 C950.15,390.25 975.8995,409.891 998.7495,427.321 " fill="none" id="Plugin-to-JarFile" style="stroke:#181818;stroke-width:1.0;"/><polygon fill="#181818" points="1003.52,430.96,998.7902,422.3212,999.5446,427.9275,993.9382,428.6819,1003.52,430.96" style="stroke:#181818;stroke-width:1.0;"/><text fill="#000000" font-family="sans-serif" font-size="13" lengthAdjust="spacing" textLength="7" x="925.0458" y="392.5385">1</text><text fill="#000000" font-family="sans-serif" font-size="13" lengthAdjust="spacing" textLength="7" x="987.5061" y="419.5337">1</text></g><!--SRC=[bP9HIyCm58NVyoj2VH24jVegeI1CeGEPpE5xcbxII9hKz4OPO__TR1rp6MkfoKiWtxdtSkwvhH7RxZ7BMiqD-aQdmZQPqBphPfNYql66a5fLG1l0sbOT8Gu4SYCrq6HXIxfimIWZQM4GtBU2duJU256MdDCjeU4SYj60dWZAs9EK3YH7e2jhCSyPUpQeS9Fdszs0ggWOAoeuOenzSEs1BilFCC-5xAIPXmxJoBLgnibtOTt4MYlelCOhx2voxqrxMPXWLydtDx9h_wVCTADwVhrfnqViiNyusGlcq0cdMbJMZD8BxbwK7XzX1LzUEMX2UyQ2KzOx0KDEljeAz0KMJ8p2b3maTERRMNvunOaP8wEGN04liNr21h3xD0tFGq8c5EhZGOR8DBrB-d0ean1oJC9vfRzbHxzEoHeZ91WmA3_RwJNek4f2VW40]--></g></svg>