<?xml version="1.0" encoding="us-ascii" standalone="no"?><svg xmlns="http://www.w3.org/2000/svg" xmlns:xlink="http://www.w3.org/1999/xlink" contentStyleType="text/css" height="1034px" preserveAspectRatio="none" style="width:2362px;height:1034px;background:#FFFFFF;" version="1.1" viewBox="0 0 2362 1034" width="2362px" zoomAndPan="magnify"><defs/><g><rect fill="#FFFFFF" height="839.2754" style="stroke:#181818;stroke-width:1.0;" width="10" x="63.5" y="93.6211"/><rect fill="#FFFFFF" height="31.291" style="stroke:#181818;stroke-width:1.0;" width="10" x="541.5" y="116.9121"/><rect fill="#FFFFFF" height="31.291" style="stroke:#181818;stroke-width:1.0;" width="10" x="541.5" y="901.6055"/><rect fill="#FFFFFF" height="31.291" style="stroke:#181818;stroke-width:1.0;" width="10" x="714.5" y="148.2031"/><rect fill="#FFFFFF" height="31.291" style="stroke:#181818;stroke-width:1.0;" width="10" x="714.5" y="870.3145"/><rect fill="#FFFFFF" height="31.291" style="stroke:#181818;stroke-width:1.0;" width="10" x="907" y="179.4941"/><rect fill="#FFFFFF" height="31.291" style="stroke:#181818;stroke-width:1.0;" width="10" x="907" y="839.0234"/><rect fill="#FFFFFF" height="628.2383" style="stroke:#181818;stroke-width:1.0;" width="10" x="1072" y="210.7852"/><rect fill="#FFFFFF" height="31.291" style="stroke:#181818;stroke-width:1.0;" width="10" x="1318" y="242.0762"/><rect fill="#FFFFFF" height="31.291" style="stroke:#181818;stroke-width:1.0;" width="10" x="1534" y="304.6582"/><rect fill="#FFFFFF" height="31.291" style="stroke:#181818;stroke-width:1.0;" width="10" x="1753.5" y="367.2402"/><rect fill="#FFFFFF" height="31.291" style="stroke:#181818;stroke-width:1.0;" width="10" x="1936.5" y="429.8223"/><rect fill="#FFFFFF" height="208.4551" style="stroke:#181818;stroke-width:1.0;" width="10" x="2042" y="492.4043"/><rect fill="#FFFFFF" height="75.582" style="stroke:#181818;stroke-width:1.0;" width="10" x="2226" y="732.1504"/><line style="stroke:#181818;stroke-width:0.5;stroke-dasharray:5.0,5.0;" x1="68" x2="68" y1="83.6211" y2="950.8965"/><line style="stroke:#181818;stroke-width:0.5;stroke-dasharray:5.0,5.0;" x1="546.5" x2="546.5" y1="83.6211" y2="950.8965"/><line style="stroke:#181818;stroke-width:0.5;stroke-dasharray:5.0,5.0;" x1="719.5" x2="719.5" y1="83.6211" y2="950.8965"/><line style="stroke:#181818;stroke-width:0.5;stroke-dasharray:5.0,5.0;" x1="911.5" x2="911.5" y1="83.6211" y2="950.8965"/><line style="stroke:#181818;stroke-width:0.5;stroke-dasharray:5.0,5.0;" x1="1076.5" x2="1076.5" y1="83.6211" y2="950.8965"/><line style="stroke:#181818;stroke-width:0.5;stroke-dasharray:5.0,5.0;" x1="1322.5" x2="1322.5" y1="83.6211" y2="950.8965"/><line style="stroke:#181818;stroke-width:0.5;stroke-dasharray:5.0,5.0;" x1="1538.5" x2="1538.5" y1="83.6211" y2="950.8965"/><line style="stroke:#181818;stroke-width:0.5;stroke-dasharray:5.0,5.0;" x1="1758.5" x2="1758.5" y1="83.6211" y2="950.8965"/><line style="stroke:#181818;stroke-width:0.5;stroke-dasharray:5.0,5.0;" x1="1941.5" x2="1941.5" y1="83.6211" y2="950.8965"/><line style="stroke:#181818;stroke-width:0.5;stroke-dasharray:5.0,5.0;" x1="2046.5" x2="2046.5" y1="83.6211" y2="950.8965"/><line style="stroke:#181818;stroke-width:0.5;stroke-dasharray:5.0,5.0;" x1="2231" x2="2231" y1="83.6211" y2="950.8965"/><text fill="#000000" font-family="sans-serif" font-size="14" lengthAdjust="spacing" textLength="121" x="5" y="80.1074">Customer Manager</text><ellipse cx="68.5" cy="13.5" fill="#E2E2F0" rx="8" ry="8" style="stroke:#181818;stroke-width:0.5;"/><path d="M68.5,21.5 L68.5,48.5 M55.5,29.5 L81.5,29.5 M68.5,48.5 L55.5,63.5 M68.5,48.5 L81.5,63.5 " fill="none" style="stroke:#181818;stroke-width:0.5;"/><text fill="#000000" font-family="sans-serif" font-size="14" lengthAdjust="spacing" textLength="121" x="5" y="965.0039">Customer Manager</text><ellipse cx="68.5" cy="977.0176" fill="#E2E2F0" rx="8" ry="8" style="stroke:#181818;stroke-width:0.5;"/><path d="M68.5,985.0176 L68.5,1012.0176 M55.5,993.0176 L81.5,993.0176 M68.5,1012.0176 L55.5,1027.0176 M68.5,1012.0176 L81.5,1027.0176 " fill="none" style="stroke:#181818;stroke-width:0.5;"/><rect fill="#E2E2F0" height="51.2422" rx="2.5" ry="2.5" style="stroke:#181818;stroke-width:0.5;" width="136" x="478.5" y="31.3789"/><text fill="#000000" font-family="sans-serif" font-size="14" font-style="italic" lengthAdjust="spacing" textLength="30" x="531.5" y="53.4863">&#171;UI&#187;</text><text fill="#000000" font-family="sans-serif" font-size="14" lengthAdjust="spacing" textLength="122" x="485.5" y="72.1074">EvaluateInterviewUI</text><rect fill="#E2E2F0" height="51.2422" rx="2.5" ry="2.5" style="stroke:#181818;stroke-width:0.5;" width="136" x="478.5" y="949.8965"/><text fill="#000000" font-family="sans-serif" font-size="14" font-style="italic" lengthAdjust="spacing" textLength="30" x="531.5" y="972.0039">&#171;UI&#187;</text><text fill="#000000" font-family="sans-serif" font-size="14" lengthAdjust="spacing" textLength="122" x="485.5" y="990.625">EvaluateInterviewUI</text><rect fill="#E2E2F0" height="51.2422" rx="2.5" ry="2.5" style="stroke:#181818;stroke-width:0.5;" width="190" x="624.5" y="31.3789"/><text fill="#000000" font-family="sans-serif" font-size="14" font-style="italic" lengthAdjust="spacing" textLength="85" x="677" y="53.4863">&#171;Application&#187;</text><text fill="#000000" font-family="sans-serif" font-size="14" lengthAdjust="spacing" textLength="176" x="631.5" y="72.1074">:EvaluateInterviewController</text><rect fill="#E2E2F0" height="51.2422" rx="2.5" ry="2.5" style="stroke:#181818;stroke-width:0.5;" width="190" x="624.5" y="949.8965"/><text fill="#000000" font-family="sans-serif" font-size="14" font-style="italic" lengthAdjust="spacing" textLength="85" x="677" y="972.0039">&#171;Application&#187;</text><text fill="#000000" font-family="sans-serif" font-size="14" lengthAdjust="spacing" textLength="176" x="631.5" y="990.625">:EvaluateInterviewController</text><rect fill="#E2E2F0" height="51.2422" rx="2.5" ry="2.5" style="stroke:#181818;stroke-width:0.5;" width="175" x="824.5" y="31.3789"/><text fill="#000000" font-family="sans-serif" font-size="14" font-style="italic" lengthAdjust="spacing" textLength="62" x="881" y="53.4863">&#171;Service&#187;</text><text fill="#000000" font-family="sans-serif" font-size="14" lengthAdjust="spacing" textLength="161" x="831.5" y="72.1074">:EvaluateInterviewService</text><rect fill="#E2E2F0" height="51.2422" rx="2.5" ry="2.5" style="stroke:#181818;stroke-width:0.5;" width="175" x="824.5" y="949.8965"/><text fill="#000000" font-family="sans-serif" font-size="14" font-style="italic" lengthAdjust="spacing" textLength="62" x="881" y="972.0039">&#171;Service&#187;</text><text fill="#000000" font-family="sans-serif" font-size="14" lengthAdjust="spacing" textLength="161" x="831.5" y="990.625">:EvaluateInterviewService</text><rect fill="#E2E2F0" height="51.2422" rx="2.5" ry="2.5" style="stroke:#181818;stroke-width:0.5;" width="135" x="1009.5" y="31.3789"/><text fill="#000000" font-family="sans-serif" font-size="14" font-style="italic" lengthAdjust="spacing" textLength="55" x="1049.5" y="53.4863">&#171;Plugin&#187;</text><text fill="#000000" font-family="sans-serif" font-size="14" lengthAdjust="spacing" textLength="121" x="1016.5" y="72.1074">app:InterviewModel</text><rect fill="#E2E2F0" height="51.2422" rx="2.5" ry="2.5" style="stroke:#181818;stroke-width:0.5;" width="135" x="1009.5" y="949.8965"/><text fill="#000000" font-family="sans-serif" font-size="14" font-style="italic" lengthAdjust="spacing" textLength="55" x="1049.5" y="972.0039">&#171;Plugin&#187;</text><text fill="#000000" font-family="sans-serif" font-size="14" lengthAdjust="spacing" textLength="121" x="1016.5" y="990.625">app:InterviewModel</text><rect fill="#E2E2F0" height="51.2422" rx="2.5" ry="2.5" style="stroke:#181818;stroke-width:0.5;" width="229" x="1208.5" y="31.3789"/><text fill="#000000" font-family="sans-serif" font-size="14" font-style="italic" lengthAdjust="spacing" textLength="55" x="1295.5" y="53.4863">&#171;Plugin&#187;</text><text fill="#000000" font-family="sans-serif" font-size="14" lengthAdjust="spacing" textLength="215" x="1215.5" y="72.1074">app:InterviewModelGrammarLexer</text><rect fill="#E2E2F0" height="51.2422" rx="2.5" ry="2.5" style="stroke:#181818;stroke-width:0.5;" width="229" x="1208.5" y="949.8965"/><text fill="#000000" font-family="sans-serif" font-size="14" font-style="italic" lengthAdjust="spacing" textLength="55" x="1295.5" y="972.0039">&#171;Plugin&#187;</text><text fill="#000000" font-family="sans-serif" font-size="14" lengthAdjust="spacing" textLength="215" x="1215.5" y="990.625">app:InterviewModelGrammarLexer</text><rect fill="#E2E2F0" height="51.2422" rx="2.5" ry="2.5" style="stroke:#181818;stroke-width:0.5;" width="183" x="1447.5" y="31.3789"/><text fill="#000000" font-family="sans-serif" font-size="14" font-style="italic" lengthAdjust="spacing" textLength="55" x="1511.5" y="53.4863">&#171;Plugin&#187;</text><text fill="#000000" font-family="sans-serif" font-size="14" lengthAdjust="spacing" textLength="169" x="1454.5" y="72.1074">app:CommonTokenStream</text><rect fill="#E2E2F0" height="51.2422" rx="2.5" ry="2.5" style="stroke:#181818;stroke-width:0.5;" width="183" x="1447.5" y="949.8965"/><text fill="#000000" font-family="sans-serif" font-size="14" font-style="italic" lengthAdjust="spacing" textLength="55" x="1511.5" y="972.0039">&#171;Plugin&#187;</text><text fill="#000000" font-family="sans-serif" font-size="14" lengthAdjust="spacing" textLength="169" x="1454.5" y="990.625">app:CommonTokenStream</text><rect fill="#E2E2F0" height="51.2422" rx="2.5" ry="2.5" style="stroke:#181818;stroke-width:0.5;" width="236" x="1640.5" y="31.3789"/><text fill="#000000" font-family="sans-serif" font-size="14" font-style="italic" lengthAdjust="spacing" textLength="55" x="1731" y="53.4863">&#171;Plugin&#187;</text><text fill="#000000" font-family="sans-serif" font-size="14" lengthAdjust="spacing" textLength="222" x="1647.5" y="72.1074">app:InterviewModelGrammarParser</text><rect fill="#E2E2F0" height="51.2422" rx="2.5" ry="2.5" style="stroke:#181818;stroke-width:0.5;" width="236" x="1640.5" y="949.8965"/><text fill="#000000" font-family="sans-serif" font-size="14" font-style="italic" lengthAdjust="spacing" textLength="55" x="1731" y="972.0039">&#171;Plugin&#187;</text><text fill="#000000" font-family="sans-serif" font-size="14" lengthAdjust="spacing" textLength="222" x="1647.5" y="990.625">app:InterviewModelGrammarParser</text><rect fill="#E2E2F0" height="51.2422" rx="2.5" ry="2.5" style="stroke:#181818;stroke-width:0.5;" width="110" x="1886.5" y="31.3789"/><text fill="#000000" font-family="sans-serif" font-size="14" font-style="italic" lengthAdjust="spacing" textLength="46" x="1918.5" y="53.4863">&#171;Tree&#187;</text><text fill="#000000" font-family="sans-serif" font-size="14" lengthAdjust="spacing" textLength="96" x="1893.5" y="72.1074">tree:ParseTree</text><rect fill="#E2E2F0" height="51.2422" rx="2.5" ry="2.5" style="stroke:#181818;stroke-width:0.5;" width="110" x="1886.5" y="949.8965"/><text fill="#000000" font-family="sans-serif" font-size="14" font-style="italic" lengthAdjust="spacing" textLength="46" x="1918.5" y="972.0039">&#171;Tree&#187;</text><text fill="#000000" font-family="sans-serif" font-size="14" lengthAdjust="spacing" textLength="96" x="1893.5" y="990.625">tree:ParseTree</text><rect fill="#E2E2F0" height="51.2422" rx="2.5" ry="2.5" style="stroke:#181818;stroke-width:0.5;" width="81" x="2006.5" y="31.3789"/><text fill="#000000" font-family="sans-serif" font-size="14" font-style="italic" lengthAdjust="spacing" textLength="55" x="2019.5" y="53.4863">&#171;Plugin&#187;</text><text fill="#000000" font-family="sans-serif" font-size="14" lengthAdjust="spacing" textLength="67" x="2013.5" y="72.1074">app:Visitor</text><rect fill="#E2E2F0" height="51.2422" rx="2.5" ry="2.5" style="stroke:#181818;stroke-width:0.5;" width="81" x="2006.5" y="949.8965"/><text fill="#000000" font-family="sans-serif" font-size="14" font-style="italic" lengthAdjust="spacing" textLength="55" x="2019.5" y="972.0039">&#171;Plugin&#187;</text><text fill="#000000" font-family="sans-serif" font-size="14" lengthAdjust="spacing" textLength="67" x="2013.5" y="990.625">app:Visitor</text><rect fill="#E2E2F0" height="32.6211" rx="2.5" ry="2.5" style="stroke:#181818;stroke-width:0.5;" width="80" x="2191" y="50"/><text fill="#000000" font-family="sans-serif" font-size="14" lengthAdjust="spacing" textLength="66" x="2198" y="72.1074">RuleScore</text><rect fill="#E2E2F0" height="32.6211" rx="2.5" ry="2.5" style="stroke:#181818;stroke-width:0.5;" width="80" x="2191" y="949.8965"/><text fill="#000000" font-family="sans-serif" font-size="14" lengthAdjust="spacing" textLength="66" x="2198" y="972.0039">RuleScore</text><rect fill="#FFFFFF" height="839.2754" style="stroke:#181818;stroke-width:1.0;" width="10" x="63.5" y="93.6211"/><rect fill="#FFFFFF" height="31.291" style="stroke:#181818;stroke-width:1.0;" width="10" x="541.5" y="116.9121"/><rect fill="#FFFFFF" height="31.291" style="stroke:#181818;stroke-width:1.0;" width="10" x="541.5" y="901.6055"/><rect fill="#FFFFFF" height="31.291" style="stroke:#181818;stroke-width:1.0;" width="10" x="714.5" y="148.2031"/><rect fill="#FFFFFF" height="31.291" style="stroke:#181818;stroke-width:1.0;" width="10" x="714.5" y="870.3145"/><rect fill="#FFFFFF" height="31.291" style="stroke:#181818;stroke-width:1.0;" width="10" x="907" y="179.4941"/><rect fill="#FFFFFF" height="31.291" style="stroke:#181818;stroke-width:1.0;" width="10" x="907" y="839.0234"/><rect fill="#FFFFFF" height="628.2383" style="stroke:#181818;stroke-width:1.0;" width="10" x="1072" y="210.7852"/><rect fill="#FFFFFF" height="31.291" style="stroke:#181818;stroke-width:1.0;" width="10" x="1318" y="242.0762"/><rect fill="#FFFFFF" height="31.291" style="stroke:#181818;stroke-width:1.0;" width="10" x="1534" y="304.6582"/><rect fill="#FFFFFF" height="31.291" style="stroke:#181818;stroke-width:1.0;" width="10" x="1753.5" y="367.2402"/><rect fill="#FFFFFF" height="31.291" style="stroke:#181818;stroke-width:1.0;" width="10" x="1936.5" y="429.8223"/><rect fill="#FFFFFF" height="208.4551" style="stroke:#181818;stroke-width:1.0;" width="10" x="2042" y="492.4043"/><rect fill="#FFFFFF" height="75.582" style="stroke:#181818;stroke-width:1.0;" width="10" x="2226" y="732.1504"/><polygon fill="#181818" points="529.5,112.9121,539.5,116.9121,529.5,120.9121,533.5,116.9121" style="stroke:#181818;stroke-width:1.0;"/><line style="stroke:#181818;stroke-width:1.0;" x1="73.5" x2="535.5" y1="116.9121" y2="116.9121"/><text fill="#000000" font-family="sans-serif" font-size="13" font-weight="bold" lengthAdjust="spacing" textLength="7" x="80.5" y="111.6494">1</text><text fill="#000000" font-family="sans-serif" font-size="13" lengthAdjust="spacing" textLength="438" x="91.5" y="111.6494">execute the process that evaluates (grades) the interviews for a job opening.</text><polygon fill="#181818" points="702.5,144.2031,712.5,148.2031,702.5,152.2031,706.5,148.2031" style="stroke:#181818;stroke-width:1.0;"/><line style="stroke:#181818;stroke-width:1.0;" x1="546.5" x2="708.5" y1="148.2031" y2="148.2031"/><text fill="#000000" font-family="sans-serif" font-size="13" font-weight="bold" lengthAdjust="spacing" textLength="7" x="553.5" y="142.9404">2</text><text fill="#000000" font-family="sans-serif" font-size="13" lengthAdjust="spacing" textLength="104" x="564.5" y="142.9404">evaluateInterview()</text><polygon fill="#181818" points="895,175.4941,905,179.4941,895,183.4941,899,179.4941" style="stroke:#181818;stroke-width:1.0;"/><line style="stroke:#181818;stroke-width:1.0;" x1="719.5" x2="901" y1="179.4941" y2="179.4941"/><text fill="#000000" font-family="sans-serif" font-size="13" font-weight="bold" lengthAdjust="spacing" textLength="7" x="726.5" y="174.2314">3</text><text fill="#000000" font-family="sans-serif" font-size="13" lengthAdjust="spacing" textLength="104" x="737.5" y="174.2314">evaluateInterview()</text><polygon fill="#181818" points="1060,206.7852,1070,210.7852,1060,214.7852,1064,210.7852" style="stroke:#181818;stroke-width:1.0;"/><line style="stroke:#181818;stroke-width:1.0;" x1="912" x2="1066" y1="210.7852" y2="210.7852"/><text fill="#000000" font-family="sans-serif" font-size="13" font-weight="bold" lengthAdjust="spacing" textLength="7" x="919" y="205.5225">4</text><text fill="#000000" font-family="sans-serif" font-size="13" lengthAdjust="spacing" textLength="65" x="930" y="205.5225">enterStart()</text><polygon fill="#181818" points="1306,238.0762,1316,242.0762,1306,246.0762,1310,242.0762" style="stroke:#181818;stroke-width:1.0;"/><line style="stroke:#181818;stroke-width:1.0;" x1="1082" x2="1312" y1="242.0762" y2="242.0762"/><text fill="#000000" font-family="sans-serif" font-size="13" font-weight="bold" lengthAdjust="spacing" textLength="7" x="1089" y="236.8135">5</text><text fill="#000000" font-family="sans-serif" font-size="13" lengthAdjust="spacing" textLength="206" x="1100" y="236.8135">InterviewModelGrammarLexer(input)</text><polygon fill="#181818" points="1093,269.3672,1083,273.3672,1093,277.3672,1089,273.3672" style="stroke:#181818;stroke-width:1.0;"/><line style="stroke:#181818;stroke-width:1.0;stroke-dasharray:2.0,2.0;" x1="1087" x2="1322" y1="273.3672" y2="273.3672"/><text fill="#000000" font-family="sans-serif" font-size="13" font-weight="bold" lengthAdjust="spacing" textLength="7" x="1099" y="268.1045">6</text><text fill="#000000" font-family="sans-serif" font-size="13" lengthAdjust="spacing" textLength="4" x="1110" y="268.1045">&#160;</text><polygon fill="#181818" points="1522,300.6582,1532,304.6582,1522,308.6582,1526,304.6582" style="stroke:#181818;stroke-width:1.0;"/><line style="stroke:#181818;stroke-width:1.0;" x1="1082" x2="1528" y1="304.6582" y2="304.6582"/><text fill="#000000" font-family="sans-serif" font-size="13" font-weight="bold" lengthAdjust="spacing" textLength="7" x="1089" y="299.3955">7</text><text fill="#000000" font-family="sans-serif" font-size="13" lengthAdjust="spacing" textLength="192" x="1100" y="299.3955">new CommonTokenStream(lexer)</text><polygon fill="#181818" points="1093,331.9492,1083,335.9492,1093,339.9492,1089,335.9492" style="stroke:#181818;stroke-width:1.0;"/><line style="stroke:#181818;stroke-width:1.0;stroke-dasharray:2.0,2.0;" x1="1087" x2="1538" y1="335.9492" y2="335.9492"/><text fill="#000000" font-family="sans-serif" font-size="13" font-weight="bold" lengthAdjust="spacing" textLength="7" x="1099" y="330.6865">8</text><text fill="#000000" font-family="sans-serif" font-size="13" lengthAdjust="spacing" textLength="4" x="1110" y="330.6865">&#160;</text><polygon fill="#181818" points="1741.5,363.2402,1751.5,367.2402,1741.5,371.2402,1745.5,367.2402" style="stroke:#181818;stroke-width:1.0;"/><line style="stroke:#181818;stroke-width:1.0;" x1="1082" x2="1747.5" y1="367.2402" y2="367.2402"/><text fill="#000000" font-family="sans-serif" font-size="13" font-weight="bold" lengthAdjust="spacing" textLength="7" x="1089" y="361.9775">9</text><text fill="#000000" font-family="sans-serif" font-size="13" lengthAdjust="spacing" textLength="223" x="1100" y="361.9775">InterviewModelGrammarParser(tokens)</text><polygon fill="#181818" points="1093,394.5313,1083,398.5313,1093,402.5313,1089,398.5313" style="stroke:#181818;stroke-width:1.0;"/><line style="stroke:#181818;stroke-width:1.0;stroke-dasharray:2.0,2.0;" x1="1087" x2="1757.5" y1="398.5313" y2="398.5313"/><text fill="#000000" font-family="sans-serif" font-size="13" font-weight="bold" lengthAdjust="spacing" textLength="14" x="1099" y="393.2686">10</text><text fill="#000000" font-family="sans-serif" font-size="13" lengthAdjust="spacing" textLength="4" x="1117" y="393.2686">&#160;</text><polygon fill="#181818" points="1924.5,425.8223,1934.5,429.8223,1924.5,433.8223,1928.5,429.8223" style="stroke:#181818;stroke-width:1.0;"/><line style="stroke:#181818;stroke-width:1.0;" x1="1082" x2="1930.5" y1="429.8223" y2="429.8223"/><text fill="#000000" font-family="sans-serif" font-size="13" font-weight="bold" lengthAdjust="spacing" textLength="14" x="1089" y="424.5596">11</text><text fill="#000000" font-family="sans-serif" font-size="13" lengthAdjust="spacing" textLength="34" x="1107" y="424.5596">start()</text><polygon fill="#181818" points="1093,457.1133,1083,461.1133,1093,465.1133,1089,461.1133" style="stroke:#181818;stroke-width:1.0;"/><line style="stroke:#181818;stroke-width:1.0;stroke-dasharray:2.0,2.0;" x1="1087" x2="1940.5" y1="461.1133" y2="461.1133"/><text fill="#000000" font-family="sans-serif" font-size="13" font-weight="bold" lengthAdjust="spacing" textLength="14" x="1099" y="455.8506">12</text><text fill="#000000" font-family="sans-serif" font-size="13" lengthAdjust="spacing" textLength="22" x="1117" y="455.8506">tree</text><polygon fill="#181818" points="2030,488.4043,2040,492.4043,2030,496.4043,2034,492.4043" style="stroke:#181818;stroke-width:1.0;"/><line style="stroke:#181818;stroke-width:1.0;" x1="1082" x2="2036" y1="492.4043" y2="492.4043"/><text fill="#000000" font-family="sans-serif" font-size="13" font-weight="bold" lengthAdjust="spacing" textLength="14" x="1089" y="487.1416">13</text><text fill="#000000" font-family="sans-serif" font-size="13" lengthAdjust="spacing" textLength="52" x="1107" y="487.1416">visit(tree)</text><line style="stroke:#181818;stroke-width:1.0;" x1="2052" x2="2094" y1="523.6953" y2="523.6953"/><line style="stroke:#181818;stroke-width:1.0;" x1="2094" x2="2094" y1="523.6953" y2="536.6953"/><line style="stroke:#181818;stroke-width:1.0;" x1="2053" x2="2094" y1="536.6953" y2="536.6953"/><polygon fill="#181818" points="2063,532.6953,2053,536.6953,2063,540.6953,2059,536.6953" style="stroke:#181818;stroke-width:1.0;"/><text fill="#000000" font-family="sans-serif" font-size="13" font-weight="bold" lengthAdjust="spacing" textLength="14" x="2059" y="518.4326">14</text><text fill="#000000" font-family="sans-serif" font-size="13" lengthAdjust="spacing" textLength="89" x="2077" y="518.4326">visitEvaluation()</text><line style="stroke:#181818;stroke-width:1.0;" x1="2052" x2="2094" y1="567.9863" y2="567.9863"/><line style="stroke:#181818;stroke-width:1.0;" x1="2094" x2="2094" y1="567.9863" y2="580.9863"/><line style="stroke:#181818;stroke-width:1.0;" x1="2053" x2="2094" y1="580.9863" y2="580.9863"/><polygon fill="#181818" points="2063,576.9863,2053,580.9863,2063,584.9863,2059,580.9863" style="stroke:#181818;stroke-width:1.0;"/><text fill="#000000" font-family="sans-serif" font-size="13" font-weight="bold" lengthAdjust="spacing" textLength="14" x="2059" y="562.7236">15</text><text fill="#000000" font-family="sans-serif" font-size="13" lengthAdjust="spacing" textLength="135" x="2077" y="562.7236">extractSpecificPhrase()</text><line style="stroke:#181818;stroke-width:1.0;" x1="2052" x2="2094" y1="612.2773" y2="612.2773"/><line style="stroke:#181818;stroke-width:1.0;" x1="2094" x2="2094" y1="612.2773" y2="625.2773"/><line style="stroke:#181818;stroke-width:1.0;" x1="2053" x2="2094" y1="625.2773" y2="625.2773"/><polygon fill="#181818" points="2063,621.2773,2053,625.2773,2063,629.2773,2059,625.2773" style="stroke:#181818;stroke-width:1.0;"/><text fill="#000000" font-family="sans-serif" font-size="13" font-weight="bold" lengthAdjust="spacing" textLength="14" x="2059" y="607.0146">16</text><text fill="#000000" font-family="sans-serif" font-size="13" lengthAdjust="spacing" textLength="142" x="2077" y="607.0146">extractSpecificPhrase2()</text><line style="stroke:#181818;stroke-width:1.0;" x1="2052" x2="2094" y1="656.5684" y2="656.5684"/><line style="stroke:#181818;stroke-width:1.0;" x1="2094" x2="2094" y1="656.5684" y2="669.5684"/><line style="stroke:#181818;stroke-width:1.0;" x1="2053" x2="2094" y1="669.5684" y2="669.5684"/><polygon fill="#181818" points="2063,665.5684,2053,669.5684,2063,673.5684,2059,669.5684" style="stroke:#181818;stroke-width:1.0;"/><text fill="#000000" font-family="sans-serif" font-size="13" font-weight="bold" lengthAdjust="spacing" textLength="14" x="2059" y="651.3057">17</text><text fill="#000000" font-family="sans-serif" font-size="13" lengthAdjust="spacing" textLength="142" x="2077" y="651.3057">extractSpecificPhrase3()</text><polygon fill="#181818" points="1093,696.8594,1083,700.8594,1093,704.8594,1089,700.8594" style="stroke:#181818;stroke-width:1.0;"/><line style="stroke:#181818;stroke-width:1.0;stroke-dasharray:2.0,2.0;" x1="1087" x2="2046" y1="700.8594" y2="700.8594"/><text fill="#000000" font-family="sans-serif" font-size="13" font-weight="bold" lengthAdjust="spacing" textLength="14" x="1099" y="695.5967">18</text><text fill="#000000" font-family="sans-serif" font-size="13" lengthAdjust="spacing" textLength="25" x="1117" y="695.5967">map</text><polygon fill="#181818" points="2214,728.1504,2224,732.1504,2214,736.1504,2218,732.1504" style="stroke:#181818;stroke-width:1.0;"/><line style="stroke:#181818;stroke-width:1.0;" x1="1082" x2="2220" y1="732.1504" y2="732.1504"/><text fill="#000000" font-family="sans-serif" font-size="13" font-weight="bold" lengthAdjust="spacing" textLength="14" x="1089" y="726.8877">19</text><text fill="#000000" font-family="sans-serif" font-size="13" lengthAdjust="spacing" textLength="159" x="1107" y="726.8877">calculateScore(map, score)</text><line style="stroke:#181818;stroke-width:1.0;" x1="2236" x2="2278" y1="763.4414" y2="763.4414"/><line style="stroke:#181818;stroke-width:1.0;" x1="2278" x2="2278" y1="763.4414" y2="776.4414"/><line style="stroke:#181818;stroke-width:1.0;" x1="2237" x2="2278" y1="776.4414" y2="776.4414"/><polygon fill="#181818" points="2247,772.4414,2237,776.4414,2247,780.4414,2243,776.4414" style="stroke:#181818;stroke-width:1.0;"/><text fill="#000000" font-family="sans-serif" font-size="13" font-weight="bold" lengthAdjust="spacing" textLength="14" x="2243" y="758.1787">20</text><text fill="#000000" font-family="sans-serif" font-size="13" lengthAdjust="spacing" textLength="94" x="2261" y="758.1787">calculateScore()</text><polygon fill="#181818" points="1093,803.7324,1083,807.7324,1093,811.7324,1089,807.7324" style="stroke:#181818;stroke-width:1.0;"/><line style="stroke:#181818;stroke-width:1.0;stroke-dasharray:2.0,2.0;" x1="1087" x2="2230" y1="807.7324" y2="807.7324"/><text fill="#000000" font-family="sans-serif" font-size="13" font-weight="bold" lengthAdjust="spacing" textLength="14" x="1099" y="802.4697">21</text><text fill="#000000" font-family="sans-serif" font-size="13" lengthAdjust="spacing" textLength="32" x="1117" y="802.4697">score</text><polygon fill="#181818" points="928,835.0234,918,839.0234,928,843.0234,924,839.0234" style="stroke:#181818;stroke-width:1.0;"/><line style="stroke:#181818;stroke-width:1.0;" x1="922" x2="1076" y1="839.0234" y2="839.0234"/><text fill="#000000" font-family="sans-serif" font-size="13" font-weight="bold" lengthAdjust="spacing" textLength="14" x="934" y="833.7607">22</text><text fill="#000000" font-family="sans-serif" font-size="13" lengthAdjust="spacing" textLength="32" x="952" y="833.7607">score</text><polygon fill="#181818" points="735.5,866.3145,725.5,870.3145,735.5,874.3145,731.5,870.3145" style="stroke:#181818;stroke-width:1.0;"/><line style="stroke:#181818;stroke-width:1.0;" x1="729.5" x2="911" y1="870.3145" y2="870.3145"/><text fill="#000000" font-family="sans-serif" font-size="13" font-weight="bold" lengthAdjust="spacing" textLength="14" x="741.5" y="865.0518">23</text><text fill="#000000" font-family="sans-serif" font-size="13" lengthAdjust="spacing" textLength="32" x="759.5" y="865.0518">score</text><polygon fill="#181818" points="562.5,897.6055,552.5,901.6055,562.5,905.6055,558.5,901.6055" style="stroke:#181818;stroke-width:1.0;"/><line style="stroke:#181818;stroke-width:1.0;" x1="556.5" x2="718.5" y1="901.6055" y2="901.6055"/><text fill="#000000" font-family="sans-serif" font-size="13" font-weight="bold" lengthAdjust="spacing" textLength="14" x="568.5" y="896.3428">24</text><text fill="#000000" font-family="sans-serif" font-size="13" lengthAdjust="spacing" textLength="32" x="586.5" y="896.3428">score</text><polygon fill="#181818" points="79.5,928.8965,69.5,932.8965,79.5,936.8965,75.5,932.8965" style="stroke:#181818;stroke-width:1.0;"/><line style="stroke:#181818;stroke-width:1.0;" x1="73.5" x2="545.5" y1="932.8965" y2="932.8965"/><text fill="#000000" font-family="sans-serif" font-size="13" font-weight="bold" lengthAdjust="spacing" textLength="14" x="85.5" y="927.6338">25</text><text fill="#000000" font-family="sans-serif" font-size="13" lengthAdjust="spacing" textLength="32" x="103.5" y="927.6338">score</text><!--SRC=[bLJ1ZjiW4Btp5IWdH-hsqDwiLQHLjAeYTQMesUsT9Mn2QmC2dExdTnW8XdMyKNpnWDzxCnuUmxZNbYxMW_Ew5vO-CSKEmYueS_JX89GdXbalkJHCURfuFB5kO5vib1Vs9CM_bmr21qdlxrysgrKDRoVujLRUwgvBARYt7J0VZEaaPrvgTLrY5rvS8F-FVWrBa4Yx7-dCc3Opd_HUTCYJvorWRhlX8DLruW_B-fxPd-8z5T-5w5E1jUvxhPxrNw5stWhM8yzXU7lcBRCkfJOOpaf00j4Y_1aYP8Gjm8VrfOI_fPFW18IUOboguyC6hzNGlmeBCVVo1AUIJ4BmHUzMu8IMGb_u0D_yKL1ZDHSEyX-PfoATfQFDmRAzS4l4vDDmz0toid2iL1kXf3fy7LCDae3F84TmJPl5Sg-Q9TcB4ZrI0uEWsO2UJ7DL0KcZHg918ywk0wrSEgY5SEUXixLCvkMTJ29aD2A8eQ5QEc-xHYep-EMeX0mIZNXNbLDM455rhcZ2bYfOJcpQ8AF84z4aENS-KyBLgQ9PP_uhchhn8RahCaOIYQ_vX0bM9qJxGotnA38sR1Ey1xLU_528ulg3PheKRGoQ02caqrT2pdTdmaXZ32OSb7G99Twz1RsT4Lo-IRuzMkR4BTXlju2_0tX4r-tecIcxaV-jwiUleHCxhYqqchEE3nr0STq0_Gjr8ImQbE64vF1pcMM5h2j4zRB6GhwgCb_r2MEyWzEBMjplE6ecx3Fqye09Ct12GSHqbk7Wl00FuukK6sdGaly0]--></g></svg>