<?xml version="1.0" encoding="us-ascii" standalone="no"?><svg xmlns="http://www.w3.org/2000/svg" xmlns:xlink="http://www.w3.org/1999/xlink" contentStyleType="text/css" height="1017px" preserveAspectRatio="none" style="width:1957px;height:1017px;background:#FFFFFF;" version="1.1" viewBox="0 0 1957 1017" width="1957px" zoomAndPan="magnify"><defs/><g><!--cluster Job Opening Interview--><g id="cluster_Job Opening Interview"><rect fill="#CCBBAA" height="389" rx="2.5" ry="2.5" style="stroke:#181818;stroke-width:1.0;" width="461" x="1490" y="7"/><text fill="#000000" font-family="sans-serif" font-size="14" font-weight="bold" lengthAdjust="spacing" textLength="160" x="1640.5" y="24.1074">Job Opening Interview</text></g><!--cluster PlugIn--><g id="cluster_PlugIn"><rect fill="#BABABA" height="238" rx="2.5" ry="2.5" style="stroke:#181818;stroke-width:1.0;" width="618" x="678" y="773"/><text fill="#000000" font-family="sans-serif" font-size="14" font-weight="bold" lengthAdjust="spacing" textLength="44" x="965" y="790.1074">PlugIn</text></g><!--cluster Job Opening--><g id="cluster_Job Opening"><rect fill="#BBCCAA" height="460" rx="2.5" ry="2.5" style="stroke:#181818;stroke-width:1.0;" width="647" x="7" y="435"/><text fill="#000000" font-family="sans-serif" font-size="14" font-weight="bold" lengthAdjust="spacing" textLength="90" x="285.5" y="452.1074">Job Opening</text></g><!--cluster Job Opening Application--><g id="cluster_Job Opening Application"><rect fill="#AACCBB" height="424.5" rx="2.5" ry="2.5" style="stroke:#181818;stroke-width:1.0;" width="788" x="678" y="160"/><text fill="#000000" font-family="sans-serif" font-size="14" font-weight="bold" lengthAdjust="spacing" textLength="172" x="986" y="177.1074">Job Opening Application</text></g><!--class JobInterview--><g id="elem_JobInterview"><rect codeLine="6" fill="#F1F1F1" height="68.543" id="JobInterview" rx="2.5" ry="2.5" style="stroke:#181818;stroke-width:0.5;" width="128" x="1614" y="189"/><ellipse cx="1629" cy="219.2715" fill="#ADD1B2" rx="11" ry="11" style="stroke:#181818;stroke-width:1.0;"/><path d="M1631.7656,215.1465 Q1631.9219,214.9277 1632.1094,214.8184 Q1632.2969,214.709 1632.5156,214.709 Q1632.8906,214.709 1633.125,214.9746 Q1633.3594,215.2246 1633.3594,215.834 L1633.3594,217.2871 Q1633.3594,217.8965 1633.125,218.1621 Q1632.8906,218.4277 1632.5156,218.4277 Q1632.1719,218.4277 1631.9688,218.2246 Q1631.7656,218.0371 1631.6563,217.5215 Q1631.6094,217.1621 1631.4219,216.9746 Q1631.0938,216.5996 1630.4844,216.3809 Q1629.875,216.1621 1629.25,216.1621 Q1628.4844,216.1621 1627.8438,216.4902 Q1627.2188,216.8184 1626.7188,217.5684 Q1626.2344,218.3184 1626.2344,219.3496 L1626.2344,220.4434 Q1626.2344,221.6777 1627.125,222.5059 Q1628.0156,223.3184 1629.6094,223.3184 Q1630.5469,223.3184 1631.2031,223.0684 Q1631.5938,222.9121 1632.0156,222.4746 Q1632.2813,222.209 1632.4219,222.1309 Q1632.5781,222.0527 1632.7813,222.0527 Q1633.1094,222.0527 1633.3594,222.3184 Q1633.625,222.5684 1633.625,222.9121 Q1633.625,223.2559 1633.2813,223.6621 Q1632.7813,224.2402 1631.9844,224.5684 Q1630.9063,225.0215 1629.6094,225.0215 Q1628.0938,225.0215 1626.8906,224.3965 Q1625.9063,223.8965 1625.2188,222.834 Q1624.5313,221.7559 1624.5313,220.4746 L1624.5313,219.3184 Q1624.5313,217.9902 1625.1406,216.8496 Q1625.7656,215.6934 1626.8594,215.084 Q1627.9531,214.459 1629.1875,214.459 Q1629.9219,214.459 1630.5625,214.6309 Q1631.2188,214.7871 1631.7656,215.1465 Z " fill="#000000"/><text fill="#000000" font-family="sans-serif" font-size="12" font-style="italic" lengthAdjust="spacing" textLength="100" x="1641" y="206.9492">&#171;Aggregate Root&#187;</text><text fill="#000000" font-family="sans-serif" font-size="12" font-style="italic" lengthAdjust="spacing" textLength="44" x="1669" y="222.9102">&#171;Entity&#187;</text><text fill="#000000" font-family="sans-serif" font-size="14" lengthAdjust="spacing" textLength="77" x="1652.5" y="241.0293">JobInterview</text><line style="stroke:#181818;stroke-width:0.5;" x1="1615" x2="1741" y1="249.543" y2="249.543"/></g><!--class JobInterviewId--><g id="elem_JobInterviewId"><rect codeLine="7" fill="#F1F1F1" height="68.543" id="JobInterviewId" rx="2.5" ry="2.5" style="stroke:#181818;stroke-width:0.5;" width="120" x="1577" y="44"/><ellipse cx="1592" cy="74.2715" fill="#ADD1B2" rx="11" ry="11" style="stroke:#181818;stroke-width:1.0;"/><path d="M1594.7656,70.1465 Q1594.9219,69.9277 1595.1094,69.8184 Q1595.2969,69.709 1595.5156,69.709 Q1595.8906,69.709 1596.125,69.9746 Q1596.3594,70.2246 1596.3594,70.834 L1596.3594,72.2871 Q1596.3594,72.8965 1596.125,73.1621 Q1595.8906,73.4277 1595.5156,73.4277 Q1595.1719,73.4277 1594.9688,73.2246 Q1594.7656,73.0371 1594.6563,72.5215 Q1594.6094,72.1621 1594.4219,71.9746 Q1594.0938,71.5996 1593.4844,71.3809 Q1592.875,71.1621 1592.25,71.1621 Q1591.4844,71.1621 1590.8438,71.4902 Q1590.2188,71.8184 1589.7188,72.5684 Q1589.2344,73.3184 1589.2344,74.3496 L1589.2344,75.4434 Q1589.2344,76.6777 1590.125,77.5059 Q1591.0156,78.3184 1592.6094,78.3184 Q1593.5469,78.3184 1594.2031,78.0684 Q1594.5938,77.9121 1595.0156,77.4746 Q1595.2813,77.209 1595.4219,77.1309 Q1595.5781,77.0527 1595.7813,77.0527 Q1596.1094,77.0527 1596.3594,77.3184 Q1596.625,77.5684 1596.625,77.9121 Q1596.625,78.2559 1596.2813,78.6621 Q1595.7813,79.2402 1594.9844,79.5684 Q1593.9063,80.0215 1592.6094,80.0215 Q1591.0938,80.0215 1589.8906,79.3965 Q1588.9063,78.8965 1588.2188,77.834 Q1587.5313,76.7559 1587.5313,75.4746 L1587.5313,74.3184 Q1587.5313,72.9902 1588.1406,71.8496 Q1588.7656,70.6934 1589.8594,70.084 Q1590.9531,69.459 1592.1875,69.459 Q1592.9219,69.459 1593.5625,69.6309 Q1594.2188,69.7871 1594.7656,70.1465 Z " fill="#000000"/><text fill="#000000" font-family="sans-serif" font-size="12" font-style="italic" lengthAdjust="spacing" textLength="54" x="1623" y="61.9492">&#171;Identity&#187;</text><text fill="#000000" font-family="sans-serif" font-size="12" font-style="italic" lengthAdjust="spacing" textLength="85" x="1607.5" y="77.9102">&#171;Value Object&#187;</text><text fill="#000000" font-family="sans-serif" font-size="14" lengthAdjust="spacing" textLength="88" x="1606" y="96.0293">JobInterviewId</text><line style="stroke:#181818;stroke-width:0.5;" x1="1578" x2="1696" y1="104.543" y2="104.543"/></g><!--class InterviewDate--><g id="elem_InterviewDate"><rect codeLine="8" fill="#F1F1F1" height="52.582" id="InterviewDate" rx="2.5" ry="2.5" style="stroke:#181818;stroke-width:0.5;" width="117" x="1732.5" y="52"/><ellipse cx="1747.5" cy="74.291" fill="#ADD1B2" rx="11" ry="11" style="stroke:#181818;stroke-width:1.0;"/><path d="M1750.2656,70.166 Q1750.4219,69.9473 1750.6094,69.8379 Q1750.7969,69.7285 1751.0156,69.7285 Q1751.3906,69.7285 1751.625,69.9941 Q1751.8594,70.2441 1751.8594,70.8535 L1751.8594,72.3066 Q1751.8594,72.916 1751.625,73.1816 Q1751.3906,73.4473 1751.0156,73.4473 Q1750.6719,73.4473 1750.4688,73.2441 Q1750.2656,73.0566 1750.1563,72.541 Q1750.1094,72.1816 1749.9219,71.9941 Q1749.5938,71.6191 1748.9844,71.4004 Q1748.375,71.1816 1747.75,71.1816 Q1746.9844,71.1816 1746.3438,71.5098 Q1745.7188,71.8379 1745.2188,72.5879 Q1744.7344,73.3379 1744.7344,74.3691 L1744.7344,75.4629 Q1744.7344,76.6973 1745.625,77.5254 Q1746.5156,78.3379 1748.1094,78.3379 Q1749.0469,78.3379 1749.7031,78.0879 Q1750.0938,77.9316 1750.5156,77.4941 Q1750.7813,77.2285 1750.9219,77.1504 Q1751.0781,77.0723 1751.2813,77.0723 Q1751.6094,77.0723 1751.8594,77.3379 Q1752.125,77.5879 1752.125,77.9316 Q1752.125,78.2754 1751.7813,78.6816 Q1751.2813,79.2598 1750.4844,79.5879 Q1749.4063,80.041 1748.1094,80.041 Q1746.5938,80.041 1745.3906,79.416 Q1744.4063,78.916 1743.7188,77.8535 Q1743.0313,76.7754 1743.0313,75.4941 L1743.0313,74.3379 Q1743.0313,73.0098 1743.6406,71.8691 Q1744.2656,70.7129 1745.3594,70.1035 Q1746.4531,69.4785 1747.6875,69.4785 Q1748.4219,69.4785 1749.0625,69.6504 Q1749.7188,69.8066 1750.2656,70.166 Z " fill="#000000"/><text fill="#000000" font-family="sans-serif" font-size="12" font-style="italic" lengthAdjust="spacing" textLength="85" x="1761.5" y="69.9492">&#171;Value Object&#187;</text><text fill="#000000" font-family="sans-serif" font-size="14" lengthAdjust="spacing" textLength="85" x="1761.5" y="88.0684">InterviewDate</text><line style="stroke:#181818;stroke-width:0.5;" x1="1733.5" x2="1848.5" y1="96.582" y2="96.582"/></g><!--class InterviewTime--><g id="elem_InterviewTime"><rect codeLine="9" fill="#F1F1F1" height="52.582" id="InterviewTime" rx="2.5" ry="2.5" style="stroke:#181818;stroke-width:0.5;" width="118" x="1506" y="327"/><ellipse cx="1521" cy="349.291" fill="#ADD1B2" rx="11" ry="11" style="stroke:#181818;stroke-width:1.0;"/><path d="M1523.7656,345.166 Q1523.9219,344.9473 1524.1094,344.8379 Q1524.2969,344.7285 1524.5156,344.7285 Q1524.8906,344.7285 1525.125,344.9941 Q1525.3594,345.2441 1525.3594,345.8535 L1525.3594,347.3066 Q1525.3594,347.916 1525.125,348.1816 Q1524.8906,348.4473 1524.5156,348.4473 Q1524.1719,348.4473 1523.9688,348.2441 Q1523.7656,348.0566 1523.6563,347.541 Q1523.6094,347.1816 1523.4219,346.9941 Q1523.0938,346.6191 1522.4844,346.4004 Q1521.875,346.1816 1521.25,346.1816 Q1520.4844,346.1816 1519.8438,346.5098 Q1519.2188,346.8379 1518.7188,347.5879 Q1518.2344,348.3379 1518.2344,349.3691 L1518.2344,350.4629 Q1518.2344,351.6973 1519.125,352.5254 Q1520.0156,353.3379 1521.6094,353.3379 Q1522.5469,353.3379 1523.2031,353.0879 Q1523.5938,352.9316 1524.0156,352.4941 Q1524.2813,352.2285 1524.4219,352.1504 Q1524.5781,352.0723 1524.7813,352.0723 Q1525.1094,352.0723 1525.3594,352.3379 Q1525.625,352.5879 1525.625,352.9316 Q1525.625,353.2754 1525.2813,353.6816 Q1524.7813,354.2598 1523.9844,354.5879 Q1522.9063,355.041 1521.6094,355.041 Q1520.0938,355.041 1518.8906,354.416 Q1517.9063,353.916 1517.2188,352.8535 Q1516.5313,351.7754 1516.5313,350.4941 L1516.5313,349.3379 Q1516.5313,348.0098 1517.1406,346.8691 Q1517.7656,345.7129 1518.8594,345.1035 Q1519.9531,344.4785 1521.1875,344.4785 Q1521.9219,344.4785 1522.5625,344.6504 Q1523.2188,344.8066 1523.7656,345.166 Z " fill="#000000"/><text fill="#000000" font-family="sans-serif" font-size="12" font-style="italic" lengthAdjust="spacing" textLength="85" x="1535.5" y="344.9492">&#171;Value Object&#187;</text><text fill="#000000" font-family="sans-serif" font-size="14" lengthAdjust="spacing" textLength="86" x="1535" y="363.0684">InterviewTime</text><line style="stroke:#181818;stroke-width:0.5;" x1="1507" x2="1623" y1="371.582" y2="371.582"/></g><!--class Score--><g id="elem_Score"><rect codeLine="10" fill="#F1F1F1" height="52.582" id="Score" rx="2.5" ry="2.5" style="stroke:#181818;stroke-width:0.5;" width="113" x="1659.5" y="327"/><ellipse cx="1674.5" cy="349.291" fill="#ADD1B2" rx="11" ry="11" style="stroke:#181818;stroke-width:1.0;"/><path d="M1677.2656,345.166 Q1677.4219,344.9473 1677.6094,344.8379 Q1677.7969,344.7285 1678.0156,344.7285 Q1678.3906,344.7285 1678.625,344.9941 Q1678.8594,345.2441 1678.8594,345.8535 L1678.8594,347.3066 Q1678.8594,347.916 1678.625,348.1816 Q1678.3906,348.4473 1678.0156,348.4473 Q1677.6719,348.4473 1677.4688,348.2441 Q1677.2656,348.0566 1677.1563,347.541 Q1677.1094,347.1816 1676.9219,346.9941 Q1676.5938,346.6191 1675.9844,346.4004 Q1675.375,346.1816 1674.75,346.1816 Q1673.9844,346.1816 1673.3438,346.5098 Q1672.7188,346.8379 1672.2188,347.5879 Q1671.7344,348.3379 1671.7344,349.3691 L1671.7344,350.4629 Q1671.7344,351.6973 1672.625,352.5254 Q1673.5156,353.3379 1675.1094,353.3379 Q1676.0469,353.3379 1676.7031,353.0879 Q1677.0938,352.9316 1677.5156,352.4941 Q1677.7813,352.2285 1677.9219,352.1504 Q1678.0781,352.0723 1678.2813,352.0723 Q1678.6094,352.0723 1678.8594,352.3379 Q1679.125,352.5879 1679.125,352.9316 Q1679.125,353.2754 1678.7813,353.6816 Q1678.2813,354.2598 1677.4844,354.5879 Q1676.4063,355.041 1675.1094,355.041 Q1673.5938,355.041 1672.3906,354.416 Q1671.4063,353.916 1670.7188,352.8535 Q1670.0313,351.7754 1670.0313,350.4941 L1670.0313,349.3379 Q1670.0313,348.0098 1670.6406,346.8691 Q1671.2656,345.7129 1672.3594,345.1035 Q1673.4531,344.4785 1674.6875,344.4785 Q1675.4219,344.4785 1676.0625,344.6504 Q1676.7188,344.8066 1677.2656,345.166 Z " fill="#000000"/><text fill="#000000" font-family="sans-serif" font-size="12" font-style="italic" lengthAdjust="spacing" textLength="85" x="1686.5" y="344.9492">&#171;Value Object&#187;</text><text fill="#000000" font-family="sans-serif" font-size="14" lengthAdjust="spacing" textLength="37" x="1710.5" y="363.0684">Score</text><line style="stroke:#181818;stroke-width:0.5;" x1="1660.5" x2="1771.5" y1="371.582" y2="371.582"/></g><!--class InterviewResult--><g id="elem_InterviewResult"><rect codeLine="11" fill="#F1F1F1" height="52.582" id="InterviewResult" rx="2.5" ry="2.5" style="stroke:#181818;stroke-width:0.5;" width="127" x="1807.5" y="327"/><ellipse cx="1822.5" cy="349.291" fill="#ADD1B2" rx="11" ry="11" style="stroke:#181818;stroke-width:1.0;"/><path d="M1825.2656,345.166 Q1825.4219,344.9473 1825.6094,344.8379 Q1825.7969,344.7285 1826.0156,344.7285 Q1826.3906,344.7285 1826.625,344.9941 Q1826.8594,345.2441 1826.8594,345.8535 L1826.8594,347.3066 Q1826.8594,347.916 1826.625,348.1816 Q1826.3906,348.4473 1826.0156,348.4473 Q1825.6719,348.4473 1825.4688,348.2441 Q1825.2656,348.0566 1825.1563,347.541 Q1825.1094,347.1816 1824.9219,346.9941 Q1824.5938,346.6191 1823.9844,346.4004 Q1823.375,346.1816 1822.75,346.1816 Q1821.9844,346.1816 1821.3438,346.5098 Q1820.7188,346.8379 1820.2188,347.5879 Q1819.7344,348.3379 1819.7344,349.3691 L1819.7344,350.4629 Q1819.7344,351.6973 1820.625,352.5254 Q1821.5156,353.3379 1823.1094,353.3379 Q1824.0469,353.3379 1824.7031,353.0879 Q1825.0938,352.9316 1825.5156,352.4941 Q1825.7813,352.2285 1825.9219,352.1504 Q1826.0781,352.0723 1826.2813,352.0723 Q1826.6094,352.0723 1826.8594,352.3379 Q1827.125,352.5879 1827.125,352.9316 Q1827.125,353.2754 1826.7813,353.6816 Q1826.2813,354.2598 1825.4844,354.5879 Q1824.4063,355.041 1823.1094,355.041 Q1821.5938,355.041 1820.3906,354.416 Q1819.4063,353.916 1818.7188,352.8535 Q1818.0313,351.7754 1818.0313,350.4941 L1818.0313,349.3379 Q1818.0313,348.0098 1818.6406,346.8691 Q1819.2656,345.7129 1820.3594,345.1035 Q1821.4531,344.4785 1822.6875,344.4785 Q1823.4219,344.4785 1824.0625,344.6504 Q1824.7188,344.8066 1825.2656,345.166 Z " fill="#000000"/><text fill="#000000" font-family="sans-serif" font-size="12" font-style="italic" lengthAdjust="spacing" textLength="85" x="1841.5" y="344.9492">&#171;Value Object&#187;</text><text fill="#000000" font-family="sans-serif" font-size="14" lengthAdjust="spacing" textLength="95" x="1836.5" y="363.0684">InterviewResult</text><line style="stroke:#181818;stroke-width:0.5;" x1="1808.5" x2="1933.5" y1="371.582" y2="371.582"/></g><!--class Plugin--><g id="elem_Plugin"><rect codeLine="15" fill="#F1F1F1" height="68.543" id="Plugin" rx="2.5" ry="2.5" style="stroke:#181818;stroke-width:0.5;" width="128" x="1003" y="810"/><ellipse cx="1018" cy="840.2715" fill="#ADD1B2" rx="11" ry="11" style="stroke:#181818;stroke-width:1.0;"/><path d="M1020.7656,836.1465 Q1020.9219,835.9277 1021.1094,835.8184 Q1021.2969,835.709 1021.5156,835.709 Q1021.8906,835.709 1022.125,835.9746 Q1022.3594,836.2246 1022.3594,836.834 L1022.3594,838.2871 Q1022.3594,838.8965 1022.125,839.1621 Q1021.8906,839.4277 1021.5156,839.4277 Q1021.1719,839.4277 1020.9688,839.2246 Q1020.7656,839.0371 1020.6563,838.5215 Q1020.6094,838.1621 1020.4219,837.9746 Q1020.0938,837.5996 1019.4844,837.3809 Q1018.875,837.1621 1018.25,837.1621 Q1017.4844,837.1621 1016.8438,837.4902 Q1016.2188,837.8184 1015.7188,838.5684 Q1015.2344,839.3184 1015.2344,840.3496 L1015.2344,841.4434 Q1015.2344,842.6777 1016.125,843.5059 Q1017.0156,844.3184 1018.6094,844.3184 Q1019.5469,844.3184 1020.2031,844.0684 Q1020.5938,843.9121 1021.0156,843.4746 Q1021.2813,843.209 1021.4219,843.1309 Q1021.5781,843.0527 1021.7813,843.0527 Q1022.1094,843.0527 1022.3594,843.3184 Q1022.625,843.5684 1022.625,843.9121 Q1022.625,844.2559 1022.2813,844.6621 Q1021.7813,845.2402 1020.9844,845.5684 Q1019.9063,846.0215 1018.6094,846.0215 Q1017.0938,846.0215 1015.8906,845.3965 Q1014.9063,844.8965 1014.2188,843.834 Q1013.5313,842.7559 1013.5313,841.4746 L1013.5313,840.3184 Q1013.5313,838.9902 1014.1406,837.8496 Q1014.7656,836.6934 1015.8594,836.084 Q1016.9531,835.459 1018.1875,835.459 Q1018.9219,835.459 1019.5625,835.6309 Q1020.2188,835.7871 1020.7656,836.1465 Z " fill="#000000"/><text fill="#000000" font-family="sans-serif" font-size="12" font-style="italic" lengthAdjust="spacing" textLength="100" x="1030" y="827.9492">&#171;Aggregate Root&#187;</text><text fill="#000000" font-family="sans-serif" font-size="12" font-style="italic" lengthAdjust="spacing" textLength="44" x="1058" y="843.9102">&#171;Entity&#187;</text><text fill="#000000" font-family="sans-serif" font-size="14" lengthAdjust="spacing" textLength="39" x="1060.5" y="862.0293">Plugin</text><line style="stroke:#181818;stroke-width:0.5;" x1="1004" x2="1130" y1="870.543" y2="870.543"/></g><!--class PluginType--><g id="elem_PluginType"><rect codeLine="16" fill="#F1F1F1" height="52.582" id="PluginType" rx="2.5" ry="2.5" style="stroke:#181818;stroke-width:0.5;" width="113" x="840.5" y="942"/><ellipse cx="855.5" cy="964.291" fill="#ADD1B2" rx="11" ry="11" style="stroke:#181818;stroke-width:1.0;"/><path d="M858.2656,960.166 Q858.4219,959.9473 858.6094,959.8379 Q858.7969,959.7285 859.0156,959.7285 Q859.3906,959.7285 859.625,959.9941 Q859.8594,960.2441 859.8594,960.8535 L859.8594,962.3066 Q859.8594,962.916 859.625,963.1816 Q859.3906,963.4473 859.0156,963.4473 Q858.6719,963.4473 858.4688,963.2441 Q858.2656,963.0566 858.1563,962.541 Q858.1094,962.1816 857.9219,961.9941 Q857.5938,961.6191 856.9844,961.4004 Q856.375,961.1816 855.75,961.1816 Q854.9844,961.1816 854.3438,961.5098 Q853.7188,961.8379 853.2188,962.5879 Q852.7344,963.3379 852.7344,964.3691 L852.7344,965.4629 Q852.7344,966.6973 853.625,967.5254 Q854.5156,968.3379 856.1094,968.3379 Q857.0469,968.3379 857.7031,968.0879 Q858.0938,967.9316 858.5156,967.4941 Q858.7813,967.2285 858.9219,967.1504 Q859.0781,967.0723 859.2813,967.0723 Q859.6094,967.0723 859.8594,967.3379 Q860.125,967.5879 860.125,967.9316 Q860.125,968.2754 859.7813,968.6816 Q859.2813,969.2598 858.4844,969.5879 Q857.4063,970.041 856.1094,970.041 Q854.5938,970.041 853.3906,969.416 Q852.4063,968.916 851.7188,967.8535 Q851.0313,966.7754 851.0313,965.4941 L851.0313,964.3379 Q851.0313,963.0098 851.6406,961.8691 Q852.2656,960.7129 853.3594,960.1035 Q854.4531,959.4785 855.6875,959.4785 Q856.4219,959.4785 857.0625,959.6504 Q857.7188,959.8066 858.2656,960.166 Z " fill="#000000"/><text fill="#000000" font-family="sans-serif" font-size="12" font-style="italic" lengthAdjust="spacing" textLength="85" x="867.5" y="959.9492">&#171;Value Object&#187;</text><text fill="#000000" font-family="sans-serif" font-size="14" lengthAdjust="spacing" textLength="71" x="874.5" y="978.0684">PluginType</text><line style="stroke:#181818;stroke-width:0.5;" x1="841.5" x2="952.5" y1="986.582" y2="986.582"/></g><!--class PluginId--><g id="elem_PluginId"><rect codeLine="17" fill="#F1F1F1" height="68.543" id="PluginId" rx="2.5" ry="2.5" style="stroke:#181818;stroke-width:0.5;" width="113" x="1166.5" y="810"/><ellipse cx="1181.5" cy="840.2715" fill="#ADD1B2" rx="11" ry="11" style="stroke:#181818;stroke-width:1.0;"/><path d="M1184.2656,836.1465 Q1184.4219,835.9277 1184.6094,835.8184 Q1184.7969,835.709 1185.0156,835.709 Q1185.3906,835.709 1185.625,835.9746 Q1185.8594,836.2246 1185.8594,836.834 L1185.8594,838.2871 Q1185.8594,838.8965 1185.625,839.1621 Q1185.3906,839.4277 1185.0156,839.4277 Q1184.6719,839.4277 1184.4688,839.2246 Q1184.2656,839.0371 1184.1563,838.5215 Q1184.1094,838.1621 1183.9219,837.9746 Q1183.5938,837.5996 1182.9844,837.3809 Q1182.375,837.1621 1181.75,837.1621 Q1180.9844,837.1621 1180.3438,837.4902 Q1179.7188,837.8184 1179.2188,838.5684 Q1178.7344,839.3184 1178.7344,840.3496 L1178.7344,841.4434 Q1178.7344,842.6777 1179.625,843.5059 Q1180.5156,844.3184 1182.1094,844.3184 Q1183.0469,844.3184 1183.7031,844.0684 Q1184.0938,843.9121 1184.5156,843.4746 Q1184.7813,843.209 1184.9219,843.1309 Q1185.0781,843.0527 1185.2813,843.0527 Q1185.6094,843.0527 1185.8594,843.3184 Q1186.125,843.5684 1186.125,843.9121 Q1186.125,844.2559 1185.7813,844.6621 Q1185.2813,845.2402 1184.4844,845.5684 Q1183.4063,846.0215 1182.1094,846.0215 Q1180.5938,846.0215 1179.3906,845.3965 Q1178.4063,844.8965 1177.7188,843.834 Q1177.0313,842.7559 1177.0313,841.4746 L1177.0313,840.3184 Q1177.0313,838.9902 1177.6406,837.8496 Q1178.2656,836.6934 1179.3594,836.084 Q1180.4531,835.459 1181.6875,835.459 Q1182.4219,835.459 1183.0625,835.6309 Q1183.7188,835.7871 1184.2656,836.1465 Z " fill="#000000"/><text fill="#000000" font-family="sans-serif" font-size="12" font-style="italic" lengthAdjust="spacing" textLength="54" x="1209" y="827.9492">&#171;Identity&#187;</text><text fill="#000000" font-family="sans-serif" font-size="12" font-style="italic" lengthAdjust="spacing" textLength="85" x="1193.5" y="843.9102">&#171;Value Object&#187;</text><text fill="#000000" font-family="sans-serif" font-size="14" lengthAdjust="spacing" textLength="50" x="1211" y="862.0293">PluginId</text><line style="stroke:#181818;stroke-width:0.5;" x1="1167.5" x2="1278.5" y1="870.543" y2="870.543"/></g><!--class PluginDescription--><g id="elem_PluginDescription"><rect codeLine="18" fill="#F1F1F1" height="52.582" id="PluginDescription" rx="2.5" ry="2.5" style="stroke:#181818;stroke-width:0.5;" width="142" x="989" y="942"/><ellipse cx="1004" cy="964.291" fill="#ADD1B2" rx="11" ry="11" style="stroke:#181818;stroke-width:1.0;"/><path d="M1006.7656,960.166 Q1006.9219,959.9473 1007.1094,959.8379 Q1007.2969,959.7285 1007.5156,959.7285 Q1007.8906,959.7285 1008.125,959.9941 Q1008.3594,960.2441 1008.3594,960.8535 L1008.3594,962.3066 Q1008.3594,962.916 1008.125,963.1816 Q1007.8906,963.4473 1007.5156,963.4473 Q1007.1719,963.4473 1006.9688,963.2441 Q1006.7656,963.0566 1006.6563,962.541 Q1006.6094,962.1816 1006.4219,961.9941 Q1006.0938,961.6191 1005.4844,961.4004 Q1004.875,961.1816 1004.25,961.1816 Q1003.4844,961.1816 1002.8438,961.5098 Q1002.2188,961.8379 1001.7188,962.5879 Q1001.2344,963.3379 1001.2344,964.3691 L1001.2344,965.4629 Q1001.2344,966.6973 1002.125,967.5254 Q1003.0156,968.3379 1004.6094,968.3379 Q1005.5469,968.3379 1006.2031,968.0879 Q1006.5938,967.9316 1007.0156,967.4941 Q1007.2813,967.2285 1007.4219,967.1504 Q1007.5781,967.0723 1007.7813,967.0723 Q1008.1094,967.0723 1008.3594,967.3379 Q1008.625,967.5879 1008.625,967.9316 Q1008.625,968.2754 1008.2813,968.6816 Q1007.7813,969.2598 1006.9844,969.5879 Q1005.9063,970.041 1004.6094,970.041 Q1003.0938,970.041 1001.8906,969.416 Q1000.9063,968.916 1000.2188,967.8535 Q999.5313,966.7754 999.5313,965.4941 L999.5313,964.3379 Q999.5313,963.0098 1000.1406,961.8691 Q1000.7656,960.7129 1001.8594,960.1035 Q1002.9531,959.4785 1004.1875,959.4785 Q1004.9219,959.4785 1005.5625,959.6504 Q1006.2188,959.8066 1006.7656,960.166 Z " fill="#000000"/><text fill="#000000" font-family="sans-serif" font-size="12" font-style="italic" lengthAdjust="spacing" textLength="85" x="1030.5" y="959.9492">&#171;Value Object&#187;</text><text fill="#000000" font-family="sans-serif" font-size="14" lengthAdjust="spacing" textLength="110" x="1018" y="978.0684">PluginDescription</text><line style="stroke:#181818;stroke-width:0.5;" x1="990" x2="1130" y1="986.582" y2="986.582"/></g><!--class JarFile--><g id="elem_JarFile"><rect codeLine="19" fill="#F1F1F1" height="52.582" id="JarFile" rx="2.5" ry="2.5" style="stroke:#181818;stroke-width:0.5;" width="113" x="1166.5" y="942"/><ellipse cx="1181.5" cy="964.291" fill="#ADD1B2" rx="11" ry="11" style="stroke:#181818;stroke-width:1.0;"/><path d="M1184.2656,960.166 Q1184.4219,959.9473 1184.6094,959.8379 Q1184.7969,959.7285 1185.0156,959.7285 Q1185.3906,959.7285 1185.625,959.9941 Q1185.8594,960.2441 1185.8594,960.8535 L1185.8594,962.3066 Q1185.8594,962.916 1185.625,963.1816 Q1185.3906,963.4473 1185.0156,963.4473 Q1184.6719,963.4473 1184.4688,963.2441 Q1184.2656,963.0566 1184.1563,962.541 Q1184.1094,962.1816 1183.9219,961.9941 Q1183.5938,961.6191 1182.9844,961.4004 Q1182.375,961.1816 1181.75,961.1816 Q1180.9844,961.1816 1180.3438,961.5098 Q1179.7188,961.8379 1179.2188,962.5879 Q1178.7344,963.3379 1178.7344,964.3691 L1178.7344,965.4629 Q1178.7344,966.6973 1179.625,967.5254 Q1180.5156,968.3379 1182.1094,968.3379 Q1183.0469,968.3379 1183.7031,968.0879 Q1184.0938,967.9316 1184.5156,967.4941 Q1184.7813,967.2285 1184.9219,967.1504 Q1185.0781,967.0723 1185.2813,967.0723 Q1185.6094,967.0723 1185.8594,967.3379 Q1186.125,967.5879 1186.125,967.9316 Q1186.125,968.2754 1185.7813,968.6816 Q1185.2813,969.2598 1184.4844,969.5879 Q1183.4063,970.041 1182.1094,970.041 Q1180.5938,970.041 1179.3906,969.416 Q1178.4063,968.916 1177.7188,967.8535 Q1177.0313,966.7754 1177.0313,965.4941 L1177.0313,964.3379 Q1177.0313,963.0098 1177.6406,961.8691 Q1178.2656,960.7129 1179.3594,960.1035 Q1180.4531,959.4785 1181.6875,959.4785 Q1182.4219,959.4785 1183.0625,959.6504 Q1183.7188,959.8066 1184.2656,960.166 Z " fill="#000000"/><text fill="#000000" font-family="sans-serif" font-size="12" font-style="italic" lengthAdjust="spacing" textLength="85" x="1193.5" y="959.9492">&#171;Value Object&#187;</text><text fill="#000000" font-family="sans-serif" font-size="14" lengthAdjust="spacing" textLength="42" x="1215" y="978.0684">JarFile</text><line style="stroke:#181818;stroke-width:0.5;" x1="1167.5" x2="1278.5" y1="986.582" y2="986.582"/></g><!--class Requirement--><g id="elem_Requirement"><rect codeLine="20" fill="#F1F1F1" height="52.582" id="Requirement" rx="2.5" ry="2.5" style="stroke:#181818;stroke-width:0.5;" width="113" x="854.5" y="818"/><ellipse cx="869.5" cy="840.291" fill="#ADD1B2" rx="11" ry="11" style="stroke:#181818;stroke-width:1.0;"/><path d="M872.2656,836.166 Q872.4219,835.9473 872.6094,835.8379 Q872.7969,835.7285 873.0156,835.7285 Q873.3906,835.7285 873.625,835.9941 Q873.8594,836.2441 873.8594,836.8535 L873.8594,838.3066 Q873.8594,838.916 873.625,839.1816 Q873.3906,839.4473 873.0156,839.4473 Q872.6719,839.4473 872.4688,839.2441 Q872.2656,839.0566 872.1563,838.541 Q872.1094,838.1816 871.9219,837.9941 Q871.5938,837.6191 870.9844,837.4004 Q870.375,837.1816 869.75,837.1816 Q868.9844,837.1816 868.3438,837.5098 Q867.7188,837.8379 867.2188,838.5879 Q866.7344,839.3379 866.7344,840.3691 L866.7344,841.4629 Q866.7344,842.6973 867.625,843.5254 Q868.5156,844.3379 870.1094,844.3379 Q871.0469,844.3379 871.7031,844.0879 Q872.0938,843.9316 872.5156,843.4941 Q872.7813,843.2285 872.9219,843.1504 Q873.0781,843.0723 873.2813,843.0723 Q873.6094,843.0723 873.8594,843.3379 Q874.125,843.5879 874.125,843.9316 Q874.125,844.2754 873.7813,844.6816 Q873.2813,845.2598 872.4844,845.5879 Q871.4063,846.041 870.1094,846.041 Q868.5938,846.041 867.3906,845.416 Q866.4063,844.916 865.7188,843.8535 Q865.0313,842.7754 865.0313,841.4941 L865.0313,840.3379 Q865.0313,839.0098 865.6406,837.8691 Q866.2656,836.7129 867.3594,836.1035 Q868.4531,835.4785 869.6875,835.4785 Q870.4219,835.4785 871.0625,835.6504 Q871.7188,835.8066 872.2656,836.166 Z " fill="#000000"/><text fill="#000000" font-family="sans-serif" font-size="12" font-style="italic" lengthAdjust="spacing" textLength="67" x="890.5" y="835.9492">&#171;Resource&#187;</text><text fill="#000000" font-family="sans-serif" font-size="14" lengthAdjust="spacing" textLength="81" x="883.5" y="854.0684">Requirement</text><line style="stroke:#181818;stroke-width:0.5;" x1="855.5" x2="966.5" y1="862.582" y2="862.582"/></g><!--class InterviewModel--><g id="elem_InterviewModel"><rect codeLine="21" fill="#F1F1F1" height="52.582" id="InterviewModel" rx="2.5" ry="2.5" style="stroke:#181818;stroke-width:0.5;" width="125" x="694.5" y="818"/><ellipse cx="709.5" cy="840.291" fill="#ADD1B2" rx="11" ry="11" style="stroke:#181818;stroke-width:1.0;"/><path d="M712.2656,836.166 Q712.4219,835.9473 712.6094,835.8379 Q712.7969,835.7285 713.0156,835.7285 Q713.3906,835.7285 713.625,835.9941 Q713.8594,836.2441 713.8594,836.8535 L713.8594,838.3066 Q713.8594,838.916 713.625,839.1816 Q713.3906,839.4473 713.0156,839.4473 Q712.6719,839.4473 712.4688,839.2441 Q712.2656,839.0566 712.1563,838.541 Q712.1094,838.1816 711.9219,837.9941 Q711.5938,837.6191 710.9844,837.4004 Q710.375,837.1816 709.75,837.1816 Q708.9844,837.1816 708.3438,837.5098 Q707.7188,837.8379 707.2188,838.5879 Q706.7344,839.3379 706.7344,840.3691 L706.7344,841.4629 Q706.7344,842.6973 707.625,843.5254 Q708.5156,844.3379 710.1094,844.3379 Q711.0469,844.3379 711.7031,844.0879 Q712.0938,843.9316 712.5156,843.4941 Q712.7813,843.2285 712.9219,843.1504 Q713.0781,843.0723 713.2813,843.0723 Q713.6094,843.0723 713.8594,843.3379 Q714.125,843.5879 714.125,843.9316 Q714.125,844.2754 713.7813,844.6816 Q713.2813,845.2598 712.4844,845.5879 Q711.4063,846.041 710.1094,846.041 Q708.5938,846.041 707.3906,845.416 Q706.4063,844.916 705.7188,843.8535 Q705.0313,842.7754 705.0313,841.4941 L705.0313,840.3379 Q705.0313,839.0098 705.6406,837.8691 Q706.2656,836.7129 707.3594,836.1035 Q708.4531,835.4785 709.6875,835.4785 Q710.4219,835.4785 711.0625,835.6504 Q711.7188,835.8066 712.2656,836.166 Z " fill="#000000"/><text fill="#000000" font-family="sans-serif" font-size="12" font-style="italic" lengthAdjust="spacing" textLength="67" x="736.5" y="835.9492">&#171;Resource&#187;</text><text fill="#000000" font-family="sans-serif" font-size="14" lengthAdjust="spacing" textLength="93" x="723.5" y="854.0684">InterviewModel</text><line style="stroke:#181818;stroke-width:0.5;" x1="695.5" x2="818.5" y1="862.582" y2="862.582"/></g><!--class JobOpening--><g id="elem_JobOpening"><rect codeLine="25" fill="#F1F1F1" height="68.543" id="JobOpening" rx="2.5" ry="2.5" style="stroke:#181818;stroke-width:0.5;" width="128" x="387" y="657"/><ellipse cx="402" cy="687.2715" fill="#ADD1B2" rx="11" ry="11" style="stroke:#181818;stroke-width:1.0;"/><path d="M404.7656,683.1465 Q404.9219,682.9277 405.1094,682.8184 Q405.2969,682.709 405.5156,682.709 Q405.8906,682.709 406.125,682.9746 Q406.3594,683.2246 406.3594,683.834 L406.3594,685.2871 Q406.3594,685.8965 406.125,686.1621 Q405.8906,686.4277 405.5156,686.4277 Q405.1719,686.4277 404.9688,686.2246 Q404.7656,686.0371 404.6563,685.5215 Q404.6094,685.1621 404.4219,684.9746 Q404.0938,684.5996 403.4844,684.3809 Q402.875,684.1621 402.25,684.1621 Q401.4844,684.1621 400.8438,684.4902 Q400.2188,684.8184 399.7188,685.5684 Q399.2344,686.3184 399.2344,687.3496 L399.2344,688.4434 Q399.2344,689.6777 400.125,690.5059 Q401.0156,691.3184 402.6094,691.3184 Q403.5469,691.3184 404.2031,691.0684 Q404.5938,690.9121 405.0156,690.4746 Q405.2813,690.209 405.4219,690.1309 Q405.5781,690.0527 405.7813,690.0527 Q406.1094,690.0527 406.3594,690.3184 Q406.625,690.5684 406.625,690.9121 Q406.625,691.2559 406.2813,691.6621 Q405.7813,692.2402 404.9844,692.5684 Q403.9063,693.0215 402.6094,693.0215 Q401.0938,693.0215 399.8906,692.3965 Q398.9063,691.8965 398.2188,690.834 Q397.5313,689.7559 397.5313,688.4746 L397.5313,687.3184 Q397.5313,685.9902 398.1406,684.8496 Q398.7656,683.6934 399.8594,683.084 Q400.9531,682.459 402.1875,682.459 Q402.9219,682.459 403.5625,682.6309 Q404.2188,682.7871 404.7656,683.1465 Z " fill="#000000"/><text fill="#000000" font-family="sans-serif" font-size="12" font-style="italic" lengthAdjust="spacing" textLength="100" x="414" y="674.9492">&#171;Aggregate Root&#187;</text><text fill="#000000" font-family="sans-serif" font-size="12" font-style="italic" lengthAdjust="spacing" textLength="44" x="442" y="690.9102">&#171;Entity&#187;</text><text fill="#000000" font-family="sans-serif" font-size="14" lengthAdjust="spacing" textLength="76" x="426" y="709.0293">JobOpening</text><line style="stroke:#181818;stroke-width:0.5;" x1="388" x2="514" y1="717.543" y2="717.543"/></g><!--class JobReference--><g id="elem_JobReference"><rect codeLine="27" fill="#F1F1F1" height="68.543" id="JobReference" rx="2.5" ry="2.5" style="stroke:#181818;stroke-width:0.5;" width="120" x="23" y="810"/><ellipse cx="38" cy="840.2715" fill="#ADD1B2" rx="11" ry="11" style="stroke:#181818;stroke-width:1.0;"/><path d="M40.7656,836.1465 Q40.9219,835.9277 41.1094,835.8184 Q41.2969,835.709 41.5156,835.709 Q41.8906,835.709 42.125,835.9746 Q42.3594,836.2246 42.3594,836.834 L42.3594,838.2871 Q42.3594,838.8965 42.125,839.1621 Q41.8906,839.4277 41.5156,839.4277 Q41.1719,839.4277 40.9688,839.2246 Q40.7656,839.0371 40.6563,838.5215 Q40.6094,838.1621 40.4219,837.9746 Q40.0938,837.5996 39.4844,837.3809 Q38.875,837.1621 38.25,837.1621 Q37.4844,837.1621 36.8438,837.4902 Q36.2188,837.8184 35.7188,838.5684 Q35.2344,839.3184 35.2344,840.3496 L35.2344,841.4434 Q35.2344,842.6777 36.125,843.5059 Q37.0156,844.3184 38.6094,844.3184 Q39.5469,844.3184 40.2031,844.0684 Q40.5938,843.9121 41.0156,843.4746 Q41.2813,843.209 41.4219,843.1309 Q41.5781,843.0527 41.7813,843.0527 Q42.1094,843.0527 42.3594,843.3184 Q42.625,843.5684 42.625,843.9121 Q42.625,844.2559 42.2813,844.6621 Q41.7813,845.2402 40.9844,845.5684 Q39.9063,846.0215 38.6094,846.0215 Q37.0938,846.0215 35.8906,845.3965 Q34.9063,844.8965 34.2188,843.834 Q33.5313,842.7559 33.5313,841.4746 L33.5313,840.3184 Q33.5313,838.9902 34.1406,837.8496 Q34.7656,836.6934 35.8594,836.084 Q36.9531,835.459 38.1875,835.459 Q38.9219,835.459 39.5625,835.6309 Q40.2188,835.7871 40.7656,836.1465 Z " fill="#000000"/><text fill="#000000" font-family="sans-serif" font-size="12" font-style="italic" lengthAdjust="spacing" textLength="54" x="69" y="827.9492">&#171;Identity&#187;</text><text fill="#000000" font-family="sans-serif" font-size="12" font-style="italic" lengthAdjust="spacing" textLength="85" x="53.5" y="843.9102">&#171;Value Object&#187;</text><text fill="#000000" font-family="sans-serif" font-size="14" lengthAdjust="spacing" textLength="88" x="52" y="862.0293">JobReference</text><line style="stroke:#181818;stroke-width:0.5;" x1="24" x2="142" y1="870.543" y2="870.543"/></g><!--class TitleOrFunction--><g id="elem_TitleOrFunction"><rect codeLine="29" fill="#F1F1F1" height="52.582" id="TitleOrFunction" rx="2.5" ry="2.5" style="stroke:#181818;stroke-width:0.5;" width="130" x="178" y="818"/><ellipse cx="193" cy="840.291" fill="#ADD1B2" rx="11" ry="11" style="stroke:#181818;stroke-width:1.0;"/><path d="M195.7656,836.166 Q195.9219,835.9473 196.1094,835.8379 Q196.2969,835.7285 196.5156,835.7285 Q196.8906,835.7285 197.125,835.9941 Q197.3594,836.2441 197.3594,836.8535 L197.3594,838.3066 Q197.3594,838.916 197.125,839.1816 Q196.8906,839.4473 196.5156,839.4473 Q196.1719,839.4473 195.9688,839.2441 Q195.7656,839.0566 195.6563,838.541 Q195.6094,838.1816 195.4219,837.9941 Q195.0938,837.6191 194.4844,837.4004 Q193.875,837.1816 193.25,837.1816 Q192.4844,837.1816 191.8438,837.5098 Q191.2188,837.8379 190.7188,838.5879 Q190.2344,839.3379 190.2344,840.3691 L190.2344,841.4629 Q190.2344,842.6973 191.125,843.5254 Q192.0156,844.3379 193.6094,844.3379 Q194.5469,844.3379 195.2031,844.0879 Q195.5938,843.9316 196.0156,843.4941 Q196.2813,843.2285 196.4219,843.1504 Q196.5781,843.0723 196.7813,843.0723 Q197.1094,843.0723 197.3594,843.3379 Q197.625,843.5879 197.625,843.9316 Q197.625,844.2754 197.2813,844.6816 Q196.7813,845.2598 195.9844,845.5879 Q194.9063,846.041 193.6094,846.041 Q192.0938,846.041 190.8906,845.416 Q189.9063,844.916 189.2188,843.8535 Q188.5313,842.7754 188.5313,841.4941 L188.5313,840.3379 Q188.5313,839.0098 189.1406,837.8691 Q189.7656,836.7129 190.8594,836.1035 Q191.9531,835.4785 193.1875,835.4785 Q193.9219,835.4785 194.5625,835.6504 Q195.2188,835.8066 195.7656,836.166 Z " fill="#000000"/><text fill="#000000" font-family="sans-serif" font-size="12" font-style="italic" lengthAdjust="spacing" textLength="85" x="213.5" y="835.9492">&#171;Value Object&#187;</text><text fill="#000000" font-family="sans-serif" font-size="14" lengthAdjust="spacing" textLength="98" x="207" y="854.0684">TitleOrFunction</text><line style="stroke:#181818;stroke-width:0.5;" x1="179" x2="307" y1="862.582" y2="862.582"/></g><!--class ContractType--><g id="elem_ContractType"><rect codeLine="31" fill="#F1F1F1" height="105.7852" id="ContractType" rx="2.5" ry="2.5" style="stroke:#181818;stroke-width:0.5;" width="118" x="492" y="481"/><ellipse cx="507" cy="511.2715" fill="#EB937F" rx="11" ry="11" style="stroke:#181818;stroke-width:1.0;"/><path d="M505.8594,512.0684 L505.8594,514.5684 L510.1875,514.5684 L510.1875,513.6465 Q510.1875,513.0371 510.4219,512.7715 Q510.6719,512.5059 511.0469,512.5059 Q511.4219,512.5059 511.6563,512.7715 Q511.8906,513.0371 511.8906,513.6465 L511.8906,516.2715 L503.8906,516.2715 Q503.2656,516.2715 503,516.0371 Q502.75,515.8027 502.75,515.4121 Q502.75,515.0371 503.0156,514.8027 Q503.2813,514.5684 503.8906,514.5684 L504.1563,514.5684 L504.1563,507.9121 L503.8906,507.9121 Q503.2656,507.9121 503,507.6777 Q502.75,507.4434 502.75,507.0527 Q502.75,506.6777 503,506.4434 Q503.2656,506.209 503.8906,506.209 L511.5156,506.209 L511.5156,508.8027 Q511.5156,509.4121 511.2813,509.6777 Q511.0625,509.9277 510.6719,509.9277 Q510.2969,509.9277 510.0625,509.6777 Q509.8281,509.4121 509.8281,508.8027 L509.8281,507.9121 L505.8594,507.9121 L505.8594,510.3652 L507.3438,510.3652 Q507.3438,509.709 507.4688,509.5215 Q507.7344,509.1152 508.2031,509.1152 Q508.5781,509.1152 508.8125,509.3809 Q509.0469,509.6309 509.0469,510.2402 L509.0469,512.209 Q509.0469,512.7559 508.9219,512.9434 Q508.6563,513.334 508.2031,513.334 Q507.7344,513.334 507.4688,512.9277 Q507.3438,512.7402 507.3438,512.0684 L505.8594,512.0684 Z " fill="#000000"/><text fill="#000000" font-family="sans-serif" font-size="12" font-style="italic" lengthAdjust="spacing" textLength="82" x="523" y="498.9492">&#171;Enumerated&#187;</text><text fill="#000000" font-family="sans-serif" font-size="12" font-style="italic" lengthAdjust="spacing" textLength="85" x="521.5" y="514.9102">&#171;Value Object&#187;</text><text fill="#000000" font-family="sans-serif" font-size="14" lengthAdjust="spacing" textLength="86" x="521" y="533.0293">ContractType</text><line style="stroke:#181818;stroke-width:0.5;" x1="493" x2="609" y1="541.543" y2="541.543"/><text fill="#000000" font-family="sans-serif" font-size="14" lengthAdjust="spacing" textLength="74" x="498" y="560.6504">FULL_TIME</text><text fill="#000000" font-family="sans-serif" font-size="14" lengthAdjust="spacing" textLength="77" x="498" y="579.2715">PART_TIME</text></g><!--class Mode--><g id="elem_Mode"><rect codeLine="36" fill="#F1F1F1" height="124.4063" id="Mode" rx="2.5" ry="2.5" style="stroke:#181818;stroke-width:0.5;" width="113" x="343.5" y="472"/><ellipse cx="358.5" cy="502.2715" fill="#EB937F" rx="11" ry="11" style="stroke:#181818;stroke-width:1.0;"/><path d="M357.3594,503.0684 L357.3594,505.5684 L361.6875,505.5684 L361.6875,504.6465 Q361.6875,504.0371 361.9219,503.7715 Q362.1719,503.5059 362.5469,503.5059 Q362.9219,503.5059 363.1563,503.7715 Q363.3906,504.0371 363.3906,504.6465 L363.3906,507.2715 L355.3906,507.2715 Q354.7656,507.2715 354.5,507.0371 Q354.25,506.8027 354.25,506.4121 Q354.25,506.0371 354.5156,505.8027 Q354.7813,505.5684 355.3906,505.5684 L355.6563,505.5684 L355.6563,498.9121 L355.3906,498.9121 Q354.7656,498.9121 354.5,498.6777 Q354.25,498.4434 354.25,498.0527 Q354.25,497.6777 354.5,497.4434 Q354.7656,497.209 355.3906,497.209 L363.0156,497.209 L363.0156,499.8027 Q363.0156,500.4121 362.7813,500.6777 Q362.5625,500.9277 362.1719,500.9277 Q361.7969,500.9277 361.5625,500.6777 Q361.3281,500.4121 361.3281,499.8027 L361.3281,498.9121 L357.3594,498.9121 L357.3594,501.3652 L358.8438,501.3652 Q358.8438,500.709 358.9688,500.5215 Q359.2344,500.1152 359.7031,500.1152 Q360.0781,500.1152 360.3125,500.3809 Q360.5469,500.6309 360.5469,501.2402 L360.5469,503.209 Q360.5469,503.7559 360.4219,503.9434 Q360.1563,504.334 359.7031,504.334 Q359.2344,504.334 358.9688,503.9277 Q358.8438,503.7402 358.8438,503.0684 L357.3594,503.0684 Z " fill="#000000"/><text fill="#000000" font-family="sans-serif" font-size="12" font-style="italic" lengthAdjust="spacing" textLength="82" x="372" y="489.9492">&#171;Enumerated&#187;</text><text fill="#000000" font-family="sans-serif" font-size="12" font-style="italic" lengthAdjust="spacing" textLength="85" x="370.5" y="505.9102">&#171;Value Object&#187;</text><text fill="#000000" font-family="sans-serif" font-size="14" lengthAdjust="spacing" textLength="35" x="395.5" y="524.0293">Mode</text><line style="stroke:#181818;stroke-width:0.5;" x1="344.5" x2="455.5" y1="532.543" y2="532.543"/><text fill="#000000" font-family="sans-serif" font-size="14" lengthAdjust="spacing" textLength="59" x="349.5" y="551.6504">REMOTE</text><text fill="#000000" font-family="sans-serif" font-size="14" lengthAdjust="spacing" textLength="55" x="349.5" y="570.2715">ON-SITE</text><text fill="#000000" font-family="sans-serif" font-size="14" lengthAdjust="spacing" textLength="50" x="349.5" y="588.8926">HYBRID</text></g><!--class VacanciesNumber--><g id="elem_VacanciesNumber"><rect codeLine="43" fill="#F1F1F1" height="52.582" id="VacanciesNumber" rx="2.5" ry="2.5" style="stroke:#181818;stroke-width:0.5;" width="146" x="343" y="818"/><ellipse cx="358" cy="840.291" fill="#ADD1B2" rx="11" ry="11" style="stroke:#181818;stroke-width:1.0;"/><path d="M360.7656,836.166 Q360.9219,835.9473 361.1094,835.8379 Q361.2969,835.7285 361.5156,835.7285 Q361.8906,835.7285 362.125,835.9941 Q362.3594,836.2441 362.3594,836.8535 L362.3594,838.3066 Q362.3594,838.916 362.125,839.1816 Q361.8906,839.4473 361.5156,839.4473 Q361.1719,839.4473 360.9688,839.2441 Q360.7656,839.0566 360.6563,838.541 Q360.6094,838.1816 360.4219,837.9941 Q360.0938,837.6191 359.4844,837.4004 Q358.875,837.1816 358.25,837.1816 Q357.4844,837.1816 356.8438,837.5098 Q356.2188,837.8379 355.7188,838.5879 Q355.2344,839.3379 355.2344,840.3691 L355.2344,841.4629 Q355.2344,842.6973 356.125,843.5254 Q357.0156,844.3379 358.6094,844.3379 Q359.5469,844.3379 360.2031,844.0879 Q360.5938,843.9316 361.0156,843.4941 Q361.2813,843.2285 361.4219,843.1504 Q361.5781,843.0723 361.7813,843.0723 Q362.1094,843.0723 362.3594,843.3379 Q362.625,843.5879 362.625,843.9316 Q362.625,844.2754 362.2813,844.6816 Q361.7813,845.2598 360.9844,845.5879 Q359.9063,846.041 358.6094,846.041 Q357.0938,846.041 355.8906,845.416 Q354.9063,844.916 354.2188,843.8535 Q353.5313,842.7754 353.5313,841.4941 L353.5313,840.3379 Q353.5313,839.0098 354.1406,837.8691 Q354.7656,836.7129 355.8594,836.1035 Q356.9531,835.4785 358.1875,835.4785 Q358.9219,835.4785 359.5625,835.6504 Q360.2188,835.8066 360.7656,836.166 Z " fill="#000000"/><text fill="#000000" font-family="sans-serif" font-size="12" font-style="italic" lengthAdjust="spacing" textLength="85" x="386.5" y="835.9492">&#171;Value Object&#187;</text><text fill="#000000" font-family="sans-serif" font-size="14" lengthAdjust="spacing" textLength="114" x="372" y="854.0684">VacanciesNumber</text><line style="stroke:#181818;stroke-width:0.5;" x1="344" x2="488" y1="862.582" y2="862.582"/></g><!--class Description--><g id="elem_Description"><rect codeLine="45" fill="#F1F1F1" height="52.582" id="Description" rx="2.5" ry="2.5" style="stroke:#181818;stroke-width:0.5;" width="113" x="524.5" y="818"/><ellipse cx="539.5" cy="840.291" fill="#ADD1B2" rx="11" ry="11" style="stroke:#181818;stroke-width:1.0;"/><path d="M542.2656,836.166 Q542.4219,835.9473 542.6094,835.8379 Q542.7969,835.7285 543.0156,835.7285 Q543.3906,835.7285 543.625,835.9941 Q543.8594,836.2441 543.8594,836.8535 L543.8594,838.3066 Q543.8594,838.916 543.625,839.1816 Q543.3906,839.4473 543.0156,839.4473 Q542.6719,839.4473 542.4688,839.2441 Q542.2656,839.0566 542.1563,838.541 Q542.1094,838.1816 541.9219,837.9941 Q541.5938,837.6191 540.9844,837.4004 Q540.375,837.1816 539.75,837.1816 Q538.9844,837.1816 538.3438,837.5098 Q537.7188,837.8379 537.2188,838.5879 Q536.7344,839.3379 536.7344,840.3691 L536.7344,841.4629 Q536.7344,842.6973 537.625,843.5254 Q538.5156,844.3379 540.1094,844.3379 Q541.0469,844.3379 541.7031,844.0879 Q542.0938,843.9316 542.5156,843.4941 Q542.7813,843.2285 542.9219,843.1504 Q543.0781,843.0723 543.2813,843.0723 Q543.6094,843.0723 543.8594,843.3379 Q544.125,843.5879 544.125,843.9316 Q544.125,844.2754 543.7813,844.6816 Q543.2813,845.2598 542.4844,845.5879 Q541.4063,846.041 540.1094,846.041 Q538.5938,846.041 537.3906,845.416 Q536.4063,844.916 535.7188,843.8535 Q535.0313,842.7754 535.0313,841.4941 L535.0313,840.3379 Q535.0313,839.0098 535.6406,837.8691 Q536.2656,836.7129 537.3594,836.1035 Q538.4531,835.4785 539.6875,835.4785 Q540.4219,835.4785 541.0625,835.6504 Q541.7188,835.8066 542.2656,836.166 Z " fill="#000000"/><text fill="#000000" font-family="sans-serif" font-size="12" font-style="italic" lengthAdjust="spacing" textLength="85" x="551.5" y="835.9492">&#171;Value Object&#187;</text><text fill="#000000" font-family="sans-serif" font-size="14" lengthAdjust="spacing" textLength="71" x="558.5" y="854.0684">Description</text><line style="stroke:#181818;stroke-width:0.5;" x1="525.5" x2="636.5" y1="862.582" y2="862.582"/></g><!--class Application--><g id="elem_Application"><rect codeLine="50" fill="#F1F1F1" height="68.543" id="Application" rx="2.5" ry="2.5" style="stroke:#181818;stroke-width:0.5;" width="128" x="1147" y="319"/><ellipse cx="1162" cy="349.2715" fill="#ADD1B2" rx="11" ry="11" style="stroke:#181818;stroke-width:1.0;"/><path d="M1164.7656,345.1465 Q1164.9219,344.9277 1165.1094,344.8184 Q1165.2969,344.709 1165.5156,344.709 Q1165.8906,344.709 1166.125,344.9746 Q1166.3594,345.2246 1166.3594,345.834 L1166.3594,347.2871 Q1166.3594,347.8965 1166.125,348.1621 Q1165.8906,348.4277 1165.5156,348.4277 Q1165.1719,348.4277 1164.9688,348.2246 Q1164.7656,348.0371 1164.6563,347.5215 Q1164.6094,347.1621 1164.4219,346.9746 Q1164.0938,346.5996 1163.4844,346.3809 Q1162.875,346.1621 1162.25,346.1621 Q1161.4844,346.1621 1160.8438,346.4902 Q1160.2188,346.8184 1159.7188,347.5684 Q1159.2344,348.3184 1159.2344,349.3496 L1159.2344,350.4434 Q1159.2344,351.6777 1160.125,352.5059 Q1161.0156,353.3184 1162.6094,353.3184 Q1163.5469,353.3184 1164.2031,353.0684 Q1164.5938,352.9121 1165.0156,352.4746 Q1165.2813,352.209 1165.4219,352.1309 Q1165.5781,352.0527 1165.7813,352.0527 Q1166.1094,352.0527 1166.3594,352.3184 Q1166.625,352.5684 1166.625,352.9121 Q1166.625,353.2559 1166.2813,353.6621 Q1165.7813,354.2402 1164.9844,354.5684 Q1163.9063,355.0215 1162.6094,355.0215 Q1161.0938,355.0215 1159.8906,354.3965 Q1158.9063,353.8965 1158.2188,352.834 Q1157.5313,351.7559 1157.5313,350.4746 L1157.5313,349.3184 Q1157.5313,347.9902 1158.1406,346.8496 Q1158.7656,345.6934 1159.8594,345.084 Q1160.9531,344.459 1162.1875,344.459 Q1162.9219,344.459 1163.5625,344.6309 Q1164.2188,344.7871 1164.7656,345.1465 Z " fill="#000000"/><text fill="#000000" font-family="sans-serif" font-size="12" font-style="italic" lengthAdjust="spacing" textLength="100" x="1174" y="336.9492">&#171;Aggregate Root&#187;</text><text fill="#000000" font-family="sans-serif" font-size="12" font-style="italic" lengthAdjust="spacing" textLength="44" x="1202" y="352.9102">&#171;Entity&#187;</text><text fill="#000000" font-family="sans-serif" font-size="14" lengthAdjust="spacing" textLength="69" x="1189.5" y="371.0293">Application</text><line style="stroke:#181818;stroke-width:0.5;" x1="1148" x2="1274" y1="379.543" y2="379.543"/></g><!--class ApplicationId--><g id="elem_ApplicationId"><rect codeLine="52" fill="#F1F1F1" height="68.543" id="ApplicationId" rx="2.5" ry="2.5" style="stroke:#181818;stroke-width:0.5;" width="113" x="694.5" y="499.5"/><ellipse cx="709.5" cy="529.7715" fill="#ADD1B2" rx="11" ry="11" style="stroke:#181818;stroke-width:1.0;"/><path d="M712.2656,525.6465 Q712.4219,525.4277 712.6094,525.3184 Q712.7969,525.209 713.0156,525.209 Q713.3906,525.209 713.625,525.4746 Q713.8594,525.7246 713.8594,526.334 L713.8594,527.7871 Q713.8594,528.3965 713.625,528.6621 Q713.3906,528.9277 713.0156,528.9277 Q712.6719,528.9277 712.4688,528.7246 Q712.2656,528.5371 712.1563,528.0215 Q712.1094,527.6621 711.9219,527.4746 Q711.5938,527.0996 710.9844,526.8809 Q710.375,526.6621 709.75,526.6621 Q708.9844,526.6621 708.3438,526.9902 Q707.7188,527.3184 707.2188,528.0684 Q706.7344,528.8184 706.7344,529.8496 L706.7344,530.9434 Q706.7344,532.1777 707.625,533.0059 Q708.5156,533.8184 710.1094,533.8184 Q711.0469,533.8184 711.7031,533.5684 Q712.0938,533.4121 712.5156,532.9746 Q712.7813,532.709 712.9219,532.6309 Q713.0781,532.5527 713.2813,532.5527 Q713.6094,532.5527 713.8594,532.8184 Q714.125,533.0684 714.125,533.4121 Q714.125,533.7559 713.7813,534.1621 Q713.2813,534.7402 712.4844,535.0684 Q711.4063,535.5215 710.1094,535.5215 Q708.5938,535.5215 707.3906,534.8965 Q706.4063,534.3965 705.7188,533.334 Q705.0313,532.2559 705.0313,530.9746 L705.0313,529.8184 Q705.0313,528.4902 705.6406,527.3496 Q706.2656,526.1934 707.3594,525.584 Q708.4531,524.959 709.6875,524.959 Q710.4219,524.959 711.0625,525.1309 Q711.7188,525.2871 712.2656,525.6465 Z " fill="#000000"/><text fill="#000000" font-family="sans-serif" font-size="12" font-style="italic" lengthAdjust="spacing" textLength="54" x="737" y="517.4492">&#171;Identity&#187;</text><text fill="#000000" font-family="sans-serif" font-size="12" font-style="italic" lengthAdjust="spacing" textLength="85" x="721.5" y="533.4102">&#171;Value Object&#187;</text><text fill="#000000" font-family="sans-serif" font-size="14" lengthAdjust="spacing" textLength="80" x="724" y="551.5293">ApplicationId</text><line style="stroke:#181818;stroke-width:0.5;" x1="695.5" x2="806.5" y1="560.043" y2="560.043"/></g><!--class AttachedEmail--><g id="elem_AttachedEmail"><rect codeLine="54" fill="#F1F1F1" height="52.582" id="AttachedEmail" rx="2.5" ry="2.5" style="stroke:#181818;stroke-width:0.5;" width="122" x="843" y="507.5"/><ellipse cx="858" cy="529.791" fill="#ADD1B2" rx="11" ry="11" style="stroke:#181818;stroke-width:1.0;"/><path d="M860.7656,525.666 Q860.9219,525.4473 861.1094,525.3379 Q861.2969,525.2285 861.5156,525.2285 Q861.8906,525.2285 862.125,525.4941 Q862.3594,525.7441 862.3594,526.3535 L862.3594,527.8066 Q862.3594,528.416 862.125,528.6816 Q861.8906,528.9473 861.5156,528.9473 Q861.1719,528.9473 860.9688,528.7441 Q860.7656,528.5566 860.6563,528.041 Q860.6094,527.6816 860.4219,527.4941 Q860.0938,527.1191 859.4844,526.9004 Q858.875,526.6816 858.25,526.6816 Q857.4844,526.6816 856.8438,527.0098 Q856.2188,527.3379 855.7188,528.0879 Q855.2344,528.8379 855.2344,529.8691 L855.2344,530.9629 Q855.2344,532.1973 856.125,533.0254 Q857.0156,533.8379 858.6094,533.8379 Q859.5469,533.8379 860.2031,533.5879 Q860.5938,533.4316 861.0156,532.9941 Q861.2813,532.7285 861.4219,532.6504 Q861.5781,532.5723 861.7813,532.5723 Q862.1094,532.5723 862.3594,532.8379 Q862.625,533.0879 862.625,533.4316 Q862.625,533.7754 862.2813,534.1816 Q861.7813,534.7598 860.9844,535.0879 Q859.9063,535.541 858.6094,535.541 Q857.0938,535.541 855.8906,534.916 Q854.9063,534.416 854.2188,533.3535 Q853.5313,532.2754 853.5313,530.9941 L853.5313,529.8379 Q853.5313,528.5098 854.1406,527.3691 Q854.7656,526.2129 855.8594,525.6035 Q856.9531,524.9785 858.1875,524.9785 Q858.9219,524.9785 859.5625,525.1504 Q860.2188,525.3066 860.7656,525.666 Z " fill="#000000"/><text fill="#000000" font-family="sans-serif" font-size="12" font-style="italic" lengthAdjust="spacing" textLength="85" x="874.5" y="525.4492">&#171;Value Object&#187;</text><text fill="#000000" font-family="sans-serif" font-size="14" lengthAdjust="spacing" textLength="90" x="872" y="543.5684">AttachedEmail</text><line style="stroke:#181818;stroke-width:0.5;" x1="844" x2="964" y1="552.082" y2="552.082"/></g><!--class AttachedFile--><g id="elem_AttachedFile"><rect codeLine="56" fill="#F1F1F1" height="52.582" id="AttachedFile" rx="2.5" ry="2.5" style="stroke:#181818;stroke-width:0.5;" width="113" x="1000.5" y="507.5"/><ellipse cx="1015.5" cy="529.791" fill="#ADD1B2" rx="11" ry="11" style="stroke:#181818;stroke-width:1.0;"/><path d="M1018.2656,525.666 Q1018.4219,525.4473 1018.6094,525.3379 Q1018.7969,525.2285 1019.0156,525.2285 Q1019.3906,525.2285 1019.625,525.4941 Q1019.8594,525.7441 1019.8594,526.3535 L1019.8594,527.8066 Q1019.8594,528.416 1019.625,528.6816 Q1019.3906,528.9473 1019.0156,528.9473 Q1018.6719,528.9473 1018.4688,528.7441 Q1018.2656,528.5566 1018.1563,528.041 Q1018.1094,527.6816 1017.9219,527.4941 Q1017.5938,527.1191 1016.9844,526.9004 Q1016.375,526.6816 1015.75,526.6816 Q1014.9844,526.6816 1014.3438,527.0098 Q1013.7188,527.3379 1013.2188,528.0879 Q1012.7344,528.8379 1012.7344,529.8691 L1012.7344,530.9629 Q1012.7344,532.1973 1013.625,533.0254 Q1014.5156,533.8379 1016.1094,533.8379 Q1017.0469,533.8379 1017.7031,533.5879 Q1018.0938,533.4316 1018.5156,532.9941 Q1018.7813,532.7285 1018.9219,532.6504 Q1019.0781,532.5723 1019.2813,532.5723 Q1019.6094,532.5723 1019.8594,532.8379 Q1020.125,533.0879 1020.125,533.4316 Q1020.125,533.7754 1019.7813,534.1816 Q1019.2813,534.7598 1018.4844,535.0879 Q1017.4063,535.541 1016.1094,535.541 Q1014.5938,535.541 1013.3906,534.916 Q1012.4063,534.416 1011.7188,533.3535 Q1011.0313,532.2754 1011.0313,530.9941 L1011.0313,529.8379 Q1011.0313,528.5098 1011.6406,527.3691 Q1012.2656,526.2129 1013.3594,525.6035 Q1014.4531,524.9785 1015.6875,524.9785 Q1016.4219,524.9785 1017.0625,525.1504 Q1017.7188,525.3066 1018.2656,525.666 Z " fill="#000000"/><text fill="#000000" font-family="sans-serif" font-size="12" font-style="italic" lengthAdjust="spacing" textLength="85" x="1027.5" y="525.4492">&#171;Value Object&#187;</text><text fill="#000000" font-family="sans-serif" font-size="14" lengthAdjust="spacing" textLength="79" x="1030.5" y="543.5684">AttachedFile</text><line style="stroke:#181818;stroke-width:0.5;" x1="1001.5" x2="1112.5" y1="552.082" y2="552.082"/></g><!--class ApplicatorData--><g id="elem_ApplicatorData"><rect codeLine="58" fill="#F1F1F1" height="52.582" id="ApplicatorData" rx="2.5" ry="2.5" style="stroke:#181818;stroke-width:0.5;" width="125" x="1148.5" y="507.5"/><ellipse cx="1163.5" cy="529.791" fill="#ADD1B2" rx="11" ry="11" style="stroke:#181818;stroke-width:1.0;"/><path d="M1166.2656,525.666 Q1166.4219,525.4473 1166.6094,525.3379 Q1166.7969,525.2285 1167.0156,525.2285 Q1167.3906,525.2285 1167.625,525.4941 Q1167.8594,525.7441 1167.8594,526.3535 L1167.8594,527.8066 Q1167.8594,528.416 1167.625,528.6816 Q1167.3906,528.9473 1167.0156,528.9473 Q1166.6719,528.9473 1166.4688,528.7441 Q1166.2656,528.5566 1166.1563,528.041 Q1166.1094,527.6816 1165.9219,527.4941 Q1165.5938,527.1191 1164.9844,526.9004 Q1164.375,526.6816 1163.75,526.6816 Q1162.9844,526.6816 1162.3438,527.0098 Q1161.7188,527.3379 1161.2188,528.0879 Q1160.7344,528.8379 1160.7344,529.8691 L1160.7344,530.9629 Q1160.7344,532.1973 1161.625,533.0254 Q1162.5156,533.8379 1164.1094,533.8379 Q1165.0469,533.8379 1165.7031,533.5879 Q1166.0938,533.4316 1166.5156,532.9941 Q1166.7813,532.7285 1166.9219,532.6504 Q1167.0781,532.5723 1167.2813,532.5723 Q1167.6094,532.5723 1167.8594,532.8379 Q1168.125,533.0879 1168.125,533.4316 Q1168.125,533.7754 1167.7813,534.1816 Q1167.2813,534.7598 1166.4844,535.0879 Q1165.4063,535.541 1164.1094,535.541 Q1162.5938,535.541 1161.3906,534.916 Q1160.4063,534.416 1159.7188,533.3535 Q1159.0313,532.2754 1159.0313,530.9941 L1159.0313,529.8379 Q1159.0313,528.5098 1159.6406,527.3691 Q1160.2656,526.2129 1161.3594,525.6035 Q1162.4531,524.9785 1163.6875,524.9785 Q1164.4219,524.9785 1165.0625,525.1504 Q1165.7188,525.3066 1166.2656,525.666 Z " fill="#000000"/><text fill="#000000" font-family="sans-serif" font-size="12" font-style="italic" lengthAdjust="spacing" textLength="85" x="1181.5" y="525.4492">&#171;Value Object&#187;</text><text fill="#000000" font-family="sans-serif" font-size="14" lengthAdjust="spacing" textLength="93" x="1177.5" y="543.5684">ApplicatorData</text><line style="stroke:#181818;stroke-width:0.5;" x1="1149.5" x2="1272.5" y1="552.082" y2="552.082"/></g><!--class ApplicationStatus--><g id="elem_ApplicationStatus"><rect codeLine="60" fill="#F1F1F1" height="52.582" id="ApplicationStatus" rx="2.5" ry="2.5" style="stroke:#181818;stroke-width:0.5;" width="141" x="1308.5" y="507.5"/><ellipse cx="1323.5" cy="529.791" fill="#ADD1B2" rx="11" ry="11" style="stroke:#181818;stroke-width:1.0;"/><path d="M1326.2656,525.666 Q1326.4219,525.4473 1326.6094,525.3379 Q1326.7969,525.2285 1327.0156,525.2285 Q1327.3906,525.2285 1327.625,525.4941 Q1327.8594,525.7441 1327.8594,526.3535 L1327.8594,527.8066 Q1327.8594,528.416 1327.625,528.6816 Q1327.3906,528.9473 1327.0156,528.9473 Q1326.6719,528.9473 1326.4688,528.7441 Q1326.2656,528.5566 1326.1563,528.041 Q1326.1094,527.6816 1325.9219,527.4941 Q1325.5938,527.1191 1324.9844,526.9004 Q1324.375,526.6816 1323.75,526.6816 Q1322.9844,526.6816 1322.3438,527.0098 Q1321.7188,527.3379 1321.2188,528.0879 Q1320.7344,528.8379 1320.7344,529.8691 L1320.7344,530.9629 Q1320.7344,532.1973 1321.625,533.0254 Q1322.5156,533.8379 1324.1094,533.8379 Q1325.0469,533.8379 1325.7031,533.5879 Q1326.0938,533.4316 1326.5156,532.9941 Q1326.7813,532.7285 1326.9219,532.6504 Q1327.0781,532.5723 1327.2813,532.5723 Q1327.6094,532.5723 1327.8594,532.8379 Q1328.125,533.0879 1328.125,533.4316 Q1328.125,533.7754 1327.7813,534.1816 Q1327.2813,534.7598 1326.4844,535.0879 Q1325.4063,535.541 1324.1094,535.541 Q1322.5938,535.541 1321.3906,534.916 Q1320.4063,534.416 1319.7188,533.3535 Q1319.0313,532.2754 1319.0313,530.9941 L1319.0313,529.8379 Q1319.0313,528.5098 1319.6406,527.3691 Q1320.2656,526.2129 1321.3594,525.6035 Q1322.4531,524.9785 1323.6875,524.9785 Q1324.4219,524.9785 1325.0625,525.1504 Q1325.7188,525.3066 1326.2656,525.666 Z " fill="#000000"/><text fill="#000000" font-family="sans-serif" font-size="12" font-style="italic" lengthAdjust="spacing" textLength="85" x="1349.5" y="525.4492">&#171;Value Object&#187;</text><text fill="#000000" font-family="sans-serif" font-size="14" lengthAdjust="spacing" textLength="109" x="1337.5" y="543.5684">ApplicationStatus</text><line style="stroke:#181818;stroke-width:0.5;" x1="1309.5" x2="1448.5" y1="552.082" y2="552.082"/></g><!--class ApplicationRank--><g id="elem_ApplicationRank"><rect codeLine="62" fill="#F1F1F1" height="52.582" id="ApplicationRank" rx="2.5" ry="2.5" style="stroke:#181818;stroke-width:0.5;" width="134" x="1144" y="197"/><ellipse cx="1159" cy="219.291" fill="#ADD1B2" rx="11" ry="11" style="stroke:#181818;stroke-width:1.0;"/><path d="M1161.7656,215.166 Q1161.9219,214.9473 1162.1094,214.8379 Q1162.2969,214.7285 1162.5156,214.7285 Q1162.8906,214.7285 1163.125,214.9941 Q1163.3594,215.2441 1163.3594,215.8535 L1163.3594,217.3066 Q1163.3594,217.916 1163.125,218.1816 Q1162.8906,218.4473 1162.5156,218.4473 Q1162.1719,218.4473 1161.9688,218.2441 Q1161.7656,218.0566 1161.6563,217.541 Q1161.6094,217.1816 1161.4219,216.9941 Q1161.0938,216.6191 1160.4844,216.4004 Q1159.875,216.1816 1159.25,216.1816 Q1158.4844,216.1816 1157.8438,216.5098 Q1157.2188,216.8379 1156.7188,217.5879 Q1156.2344,218.3379 1156.2344,219.3691 L1156.2344,220.4629 Q1156.2344,221.6973 1157.125,222.5254 Q1158.0156,223.3379 1159.6094,223.3379 Q1160.5469,223.3379 1161.2031,223.0879 Q1161.5938,222.9316 1162.0156,222.4941 Q1162.2813,222.2285 1162.4219,222.1504 Q1162.5781,222.0723 1162.7813,222.0723 Q1163.1094,222.0723 1163.3594,222.3379 Q1163.625,222.5879 1163.625,222.9316 Q1163.625,223.2754 1163.2813,223.6816 Q1162.7813,224.2598 1161.9844,224.5879 Q1160.9063,225.041 1159.6094,225.041 Q1158.0938,225.041 1156.8906,224.416 Q1155.9063,223.916 1155.2188,222.8535 Q1154.5313,221.7754 1154.5313,220.4941 L1154.5313,219.3379 Q1154.5313,218.0098 1155.1406,216.8691 Q1155.7656,215.7129 1156.8594,215.1035 Q1157.9531,214.4785 1159.1875,214.4785 Q1159.9219,214.4785 1160.5625,214.6504 Q1161.2188,214.8066 1161.7656,215.166 Z " fill="#000000"/><text fill="#000000" font-family="sans-serif" font-size="12" font-style="italic" lengthAdjust="spacing" textLength="85" x="1181.5" y="214.9492">&#171;Value Object&#187;</text><text fill="#000000" font-family="sans-serif" font-size="14" lengthAdjust="spacing" textLength="102" x="1173" y="233.0684">ApplicationRank</text><line style="stroke:#181818;stroke-width:0.5;" x1="1145" x2="1277" y1="241.582" y2="241.582"/></g><!--link JobOpening to JobReference--><g id="link_JobOpening_JobReference"><path codeLine="69" d="M386.82,698.32 C325.22,706.17 231.29,724.22 160,765 C140.28,776.28 126.1867,789.5034 112.5367,805.2734 " fill="none" id="JobOpening-to-JobReference" style="stroke:#181818;stroke-width:1.0;"/><polygon fill="#181818" points="108.61,809.81,117.5245,805.6229,111.8823,806.0295,111.4757,800.3873,108.61,809.81" style="stroke:#181818;stroke-width:1.0;"/><text fill="#000000" font-family="sans-serif" font-size="13" lengthAdjust="spacing" textLength="7" x="371.9945" y="695.1973">1</text><text fill="#000000" font-family="sans-serif" font-size="13" lengthAdjust="spacing" textLength="7" x="105.8247" y="798.6765">1</text></g><!--link JobOpening to TitleOrFunction--><g id="link_JobOpening_TitleOrFunction"><path codeLine="70" d="M386.95,725.4 C366.49,736.94 344.19,750.63 325,765 C303.86,780.83 286.5628,797.2887 270.8928,813.4787 " fill="none" id="JobOpening-to-TitleOrFunction" style="stroke:#181818;stroke-width:1.0;"/><polygon fill="#181818" points="266.72,817.79,275.8535,814.1049,270.1974,814.1972,270.1051,808.5411,266.72,817.79" style="stroke:#181818;stroke-width:1.0;"/><text fill="#000000" font-family="sans-serif" font-size="13" lengthAdjust="spacing" textLength="7" x="372.1395" y="725.4084">1</text><text fill="#000000" font-family="sans-serif" font-size="13" lengthAdjust="spacing" textLength="7" x="264.3959" y="806.758">1</text></g><!--reverse link ContractType to JobOpening--><g id="link_ContractType_JobOpening"><path codeLine="71" d="M514.175,592.2568 C499.425,615.1968 485.77,636.43 472.71,656.74 " fill="none" id="ContractType-backto-JobOpening" style="stroke:#181818;stroke-width:1.0;"/><polygon fill="#181818" points="517.42,587.21,509.188,592.6169,514.7158,591.4157,515.917,596.9435,517.42,587.21" style="stroke:#181818;stroke-width:1.0;"/><text fill="#000000" font-family="sans-serif" font-size="13" lengthAdjust="spacing" textLength="7" x="505.9009" y="608.7901">1</text><text fill="#000000" font-family="sans-serif" font-size="13" lengthAdjust="spacing" textLength="7" x="469.0675" y="645.8612">1</text></g><!--reverse link Mode to JobOpening--><g id="link_Mode_JobOpening"><path codeLine="72" d="M421.8791,601.7114 C428.6291,622.3014 434.06,638.84 439.87,656.56 " fill="none" id="Mode-backto-JobOpening" style="stroke:#181818;stroke-width:1.0;"/><polygon fill="#181818" points="420.01,596.01,419.0127,605.8082,421.5676,600.7612,426.6146,603.3161,420.01,596.01" style="stroke:#181818;stroke-width:1.0;"/><text fill="#000000" font-family="sans-serif" font-size="13" lengthAdjust="spacing" textLength="7" x="415.0222" y="618.6247">1</text><text fill="#000000" font-family="sans-serif" font-size="13" lengthAdjust="spacing" textLength="7" x="430.1726" y="645.648">1</text></g><!--link JobOpening to Description--><g id="link_JobOpening_Description"><path codeLine="73" d="M479.85,726.01 C503.64,753.64 532.9864,787.7221 554.7664,813.0321 " fill="none" id="JobOpening-to-Description" style="stroke:#181818;stroke-width:1.0;"/><polygon fill="#181818" points="558.68,817.58,555.8415,808.149,555.4187,813.7901,549.7776,813.3672,558.68,817.58" style="stroke:#181818;stroke-width:1.0;"/><text fill="#000000" font-family="sans-serif" font-size="13" lengthAdjust="spacing" textLength="7" x="477.207" y="747.4949">1</text><text fill="#000000" font-family="sans-serif" font-size="13" lengthAdjust="spacing" textLength="7" x="546.0319" y="806.9377">1</text></g><!--link JobOpening to VacanciesNumber--><g id="link_JobOpening_VacanciesNumber"><path codeLine="74" d="M443.23,726.01 C436.83,753.64 429.2234,786.4246 423.3634,811.7346 " fill="none" id="JobOpening-to-VacanciesNumber" style="stroke:#181818;stroke-width:1.0;"/><polygon fill="#181818" points="422.01,817.58,427.937,809.7142,423.1378,812.7089,420.1431,807.9097,422.01,817.58" style="stroke:#181818;stroke-width:1.0;"/><text fill="#000000" font-family="sans-serif" font-size="13" lengthAdjust="spacing" textLength="7" x="434.293" y="747.4949">1</text><text fill="#000000" font-family="sans-serif" font-size="13" lengthAdjust="spacing" textLength="7" x="415.5591" y="806.9377">1</text></g><!--link Application to ApplicationId--><g id="link_Application_ApplicationId"><path codeLine="77" d="M1146.93,360.71 C1051.65,370.91 878.23,393.48 826,427 C798.87,444.41 781.4338,470.1349 768.8638,494.1349 " fill="none" id="Application-to-ApplicationId" style="stroke:#181818;stroke-width:1.0;"/><polygon fill="#181818" points="766.08,499.45,773.7991,493.3332,768.3998,495.0207,766.7123,489.6215,766.08,499.45" style="stroke:#181818;stroke-width:1.0;"/><text fill="#000000" font-family="sans-serif" font-size="13" lengthAdjust="spacing" textLength="7" x="1132.1172" y="357.6324">1</text><text fill="#000000" font-family="sans-serif" font-size="13" lengthAdjust="spacing" textLength="7" x="761.2874" y="488.3432">1</text></g><!--link Application to AttachedEmail--><g id="link_Application_AttachedEmail"><path codeLine="78" d="M1146.99,363.91 C1098.45,373.5 1031.97,392.11 983,427 C953.65,447.91 933.5186,477.8033 920.0686,501.8533 " fill="none" id="Application-to-AttachedEmail" style="stroke:#181818;stroke-width:1.0;"/><polygon fill="#181818" points="917.14,507.09,925.0241,501.1874,919.5805,502.7261,918.0418,497.2825,917.14,507.09" style="stroke:#181818;stroke-width:1.0;"/><text fill="#000000" font-family="sans-serif" font-size="13" lengthAdjust="spacing" textLength="7" x="1132.1842" y="380.168">1</text><text fill="#000000" font-family="sans-serif" font-size="13" lengthAdjust="spacing" textLength="7" x="912.2488" y="496.4499">1</text></g><!--link Application to AttachedFile--><g id="link_Application_AttachedFile"><path codeLine="79" d="M1170.25,388.24 C1157.11,399.92 1142.89,413.5 1131,427 C1108.45,452.6 1089.7929,480.0964 1075.7529,502.3364 " fill="none" id="Application-to-AttachedFile" style="stroke:#181818;stroke-width:1.0;"/><polygon fill="#181818" points="1072.55,507.41,1080.7368,501.9349,1075.2191,503.182,1073.972,497.6643,1072.55,507.41" style="stroke:#181818;stroke-width:1.0;"/><text fill="#000000" font-family="sans-serif" font-size="13" lengthAdjust="spacing" textLength="7" x="1155.9211" y="409.4919">1</text><text fill="#000000" font-family="sans-serif" font-size="13" lengthAdjust="spacing" textLength="7" x="1068.3366" y="496.4057">1</text></g><!--link Application to ApplicatorData--><g id="link_Application_ApplicatorData"><path codeLine="80" d="M1211,388.07 C1211,422.71 1211,469.98 1211,501.38 " fill="none" id="Application-to-ApplicatorData" style="stroke:#181818;stroke-width:1.0;"/><polygon fill="#181818" points="1211,507.38,1215,498.38,1211,502.38,1207,498.38,1211,507.38" style="stroke:#181818;stroke-width:1.0;"/><text fill="#000000" font-family="sans-serif" font-size="13" lengthAdjust="spacing" textLength="7" x="1203.3984" y="409.5653">1</text><text fill="#000000" font-family="sans-serif" font-size="13" lengthAdjust="spacing" textLength="7" x="1203.1906" y="496.3688">1</text></g><!--link Application to JobOpening--><g id="link_Application_JobOpening"><path codeLine="81" d="M1275.1,363.74 C1343.1,375.01 1443.88,396.42 1467,427 C1512.3,486.91 1517.59,540.48 1467,596 C1402.79,666.46 734.2688,685.1221 521.1488,689.3121 " fill="none" id="Application-to-JobOpening" style="stroke:#181818;stroke-width:1.0;"/><polygon fill="#181818" points="515.15,689.43,524.2269,693.2523,520.149,689.3317,524.0696,685.2539,515.15,689.43" style="stroke:#181818;stroke-width:1.0;"/><text fill="#000000" font-family="sans-serif" font-size="13" lengthAdjust="spacing" textLength="75" x="1503" y="539.5283">submitted for</text><text fill="#000000" font-family="sans-serif" font-size="13" lengthAdjust="spacing" textLength="5" x="1282.8006" y="361.0128">*</text><text fill="#000000" font-family="sans-serif" font-size="13" lengthAdjust="spacing" textLength="7" x="522.972" y="704.245">1</text></g><!--link Application to ApplicationStatus--><g id="link_Application_ApplicationStatus"><path codeLine="82" d="M1250.29,388.1 C1263.59,400 1278.3,413.73 1291,427 C1315.98,453.09 1338.4126,480.5547 1355.6426,502.5747 " fill="none" id="Application-to-ApplicationStatus" style="stroke:#181818;stroke-width:1.0;"/><polygon fill="#181818" points="1359.34,507.3,1356.9441,497.747,1356.2588,503.3622,1350.6436,502.6769,1359.34,507.3" style="stroke:#181818;stroke-width:1.0;"/><text fill="#000000" font-family="sans-serif" font-size="13" lengthAdjust="spacing" textLength="7" x="1249.4414" y="409.6004">1</text><text fill="#000000" font-family="sans-serif" font-size="13" lengthAdjust="spacing" textLength="7" x="1346.9843" y="496.2703">1</text></g><!--reverse link JobInterview to Application--><g id="link_JobInterview_Application"><path codeLine="84" d="M1607.7734,243.7459 C1518.5634,268.1959 1364.21,310.51 1275.16,334.92 " fill="none" id="JobInterview-backto-Application" style="stroke:#181818;stroke-width:1.0;"/><polygon fill="#181818" points="1613.56,242.16,1603.8228,240.6812,1608.7378,243.4816,1605.9374,248.3967,1613.56,242.16" style="stroke:#181818;stroke-width:1.0;"/><text fill="#000000" font-family="sans-serif" font-size="13" lengthAdjust="spacing" textLength="7" x="1599.1291" y="240.3405">1</text><text fill="#000000" font-family="sans-serif" font-size="13" lengthAdjust="spacing" textLength="7" x="1282.9832" y="328.8604">1</text></g><!--reverse link ApplicationRank to Application--><g id="link_ApplicationRank_Application"><path codeLine="85" d="M1211,256.1 C1211,275.79 1211,297.19 1211,318.7 " fill="none" id="ApplicationRank-backto-Application" style="stroke:#181818;stroke-width:1.0;"/><polygon fill="#181818" points="1211,250.1,1207,259.1,1211,255.1,1215,259.1,1211,250.1" style="stroke:#181818;stroke-width:1.0;"/><text fill="#000000" font-family="sans-serif" font-size="13" lengthAdjust="spacing" textLength="22" x="1186.7313" y="271.4408">0..1</text><text fill="#000000" font-family="sans-serif" font-size="13" lengthAdjust="spacing" textLength="7" x="1203.3547" y="307.8138">1</text></g><!--reverse link JobInterviewId to JobInterview--><g id="link_JobInterviewId_JobInterview"><path codeLine="89" d="M1648.2657,118.797 C1654.8057,141.577 1661.76,165.84 1668.31,188.69 " fill="none" id="JobInterviewId-backto-JobInterview" style="stroke:#181818;stroke-width:1.0;"/><polygon fill="#181818" points="1646.61,113.03,1645.2488,122.7843,1647.9897,117.8359,1652.9382,120.5768,1646.61,113.03" style="stroke:#181818;stroke-width:1.0;"/><text fill="#000000" font-family="sans-serif" font-size="13" lengthAdjust="spacing" textLength="7" x="1640.6602" y="134.5184">1</text><text fill="#000000" font-family="sans-serif" font-size="13" lengthAdjust="spacing" textLength="7" x="1658.8781" y="177.802">1</text></g><!--reverse link InterviewDate to JobInterview--><g id="link_InterviewDate_JobInterview"><path codeLine="90" d="M1767.0784,109.7764 C1748.5984,133.1464 1724.87,163.18 1704.62,188.82 " fill="none" id="InterviewDate-backto-JobInterview" style="stroke:#181818;stroke-width:1.0;"/><polygon fill="#181818" points="1770.8,105.07,1762.08,109.6485,1767.6987,108.992,1768.3552,114.6106,1770.8,105.07" style="stroke:#181818;stroke-width:1.0;"/><text fill="#000000" font-family="sans-serif" font-size="13" lengthAdjust="spacing" textLength="7" x="1758.9119" y="126.4046">1</text><text fill="#000000" font-family="sans-serif" font-size="13" lengthAdjust="spacing" textLength="7" x="1702.0272" y="177.6884">1</text></g><!--link JobInterview to InterviewTime--><g id="link_JobInterview_InterviewTime"><path codeLine="91" d="M1648.31,258.13 C1629.35,279.61 1609.1102,302.5314 1591.6802,322.2814 " fill="none" id="JobInterview-to-InterviewTime" style="stroke:#181818;stroke-width:1.0;"/><polygon fill="#181818" points="1587.71,326.78,1596.6644,322.6788,1591.0185,323.0311,1590.6662,317.3853,1587.71,326.78" style="stroke:#181818;stroke-width:1.0;"/><text fill="#000000" font-family="sans-serif" font-size="13" lengthAdjust="spacing" textLength="7" x="1635.6055" y="279.6356">1</text><text fill="#000000" font-family="sans-serif" font-size="13" lengthAdjust="spacing" textLength="7" x="1585.1523" y="315.7457">1</text></g><!--link JobInterview to Score--><g id="link_JobInterview_Score"><path codeLine="92" d="M1687.98,258.13 C1694.36,279.61 1700.7933,301.2779 1706.6533,321.0279 " fill="none" id="JobInterview-to-Score" style="stroke:#181818;stroke-width:1.0;"/><polygon fill="#181818" points="1708.36,326.78,1709.6347,317.014,1706.9377,321.9865,1701.9652,319.2896,1708.36,326.78" style="stroke:#181818;stroke-width:1.0;"/><text fill="#000000" font-family="sans-serif" font-size="13" lengthAdjust="spacing" textLength="7" x="1682.0938" y="279.6356">1</text><text fill="#000000" font-family="sans-serif" font-size="13" lengthAdjust="spacing" textLength="22" x="1682.0495" y="315.7457">0..1</text></g><!--link JobInterview to InterviewResult--><g id="link_JobInterview_InterviewResult"><path codeLine="93" d="M1728.71,258.13 C1761.21,279.69 1797.73,303.9034 1827.52,323.6634 " fill="none" id="JobInterview-to-InterviewResult" style="stroke:#181818;stroke-width:1.0;"/><polygon fill="#181818" points="1832.52,326.98,1827.231,318.6718,1828.3533,324.2162,1822.8089,325.3385,1832.52,326.98" style="stroke:#181818;stroke-width:1.0;"/><text fill="#000000" font-family="sans-serif" font-size="13" lengthAdjust="spacing" textLength="7" x="1729.8242" y="279.6356">1</text><text fill="#000000" font-family="sans-serif" font-size="13" lengthAdjust="spacing" textLength="7" x="1815.2874" y="315.5586">1</text></g><!--link JobOpening to Plugin--><g id="link_JobOpening_Plugin"><path codeLine="95" d="M515.41,696.26 C638.74,704.27 903.25,725.59 985,765 C1006.48,775.36 1021.9561,789.0004 1036.5461,805.2104 " fill="none" id="JobOpening-to-Plugin" style="stroke:#181818;stroke-width:1.0;"/><polygon fill="#181818" points="1040.56,809.67,1037.5122,800.3046,1037.215,805.9536,1031.566,805.6565,1040.56,809.67" style="stroke:#181818;stroke-width:1.0;"/><text fill="#000000" font-family="sans-serif" font-size="13" lengthAdjust="spacing" textLength="7" x="522.8377" y="692.9202">1</text><text fill="#000000" font-family="sans-serif" font-size="13" lengthAdjust="spacing" textLength="20" x="1013.8414" y="798.7783">1..*</text></g><!--link Plugin to PluginType--><g id="link_Plugin_PluginType"><path codeLine="97" d="M1020.1,879.16 C992.48,898.98 962.9745,920.1515 937.5745,938.3815 " fill="none" id="Plugin-to-PluginType" style="stroke:#181818;stroke-width:1.0;"/><polygon fill="#181818" points="932.7,941.88,942.344,939.8819,936.7621,938.9646,937.6794,933.3826,932.7,941.88" style="stroke:#181818;stroke-width:1.0;"/><text fill="#000000" font-family="sans-serif" font-size="13" lengthAdjust="spacing" textLength="7" x="1004.4375" y="900.6707">1</text><text fill="#000000" font-family="sans-serif" font-size="13" lengthAdjust="spacing" textLength="7" x="933.1463" y="930.8688">1</text></g><!--link Plugin to PluginId--><g id="link_Plugin_PluginId"><path codeLine="98" d="M1131.29,844.5 C1142.99,844.5 1148.69,844.5 1160.4,844.5 " fill="none" id="Plugin-to-PluginId" style="stroke:#181818;stroke-width:1.0;"/><polygon fill="#181818" points="1166.4,844.5,1157.4,840.5,1161.4,844.5,1157.4,848.5,1166.4,844.5" style="stroke:#181818;stroke-width:1.0;"/><text fill="#000000" font-family="sans-serif" font-size="13" lengthAdjust="spacing" textLength="7" x="1139.1282" y="840.5888">1</text><text fill="#000000" font-family="sans-serif" font-size="13" lengthAdjust="spacing" textLength="7" x="1151.3241" y="840.4364">1</text></g><!--link Plugin to PluginDescription--><g id="link_Plugin_PluginDescription"><path codeLine="99" d="M1065.07,879.16 C1063.94,898.91 1062.8754,917.4899 1061.8254,935.6999 " fill="none" id="Plugin-to-PluginDescription" style="stroke:#181818;stroke-width:1.0;"/><polygon fill="#181818" points="1061.48,941.69,1065.9915,932.9352,1061.7678,936.6983,1058.0047,932.4747,1061.48,941.69" style="stroke:#181818;stroke-width:1.0;"/><text fill="#000000" font-family="sans-serif" font-size="13" lengthAdjust="spacing" textLength="7" x="1057.1367" y="900.6707">1</text><text fill="#000000" font-family="sans-serif" font-size="13" lengthAdjust="spacing" textLength="7" x="1054.0129" y="930.6349">1</text></g><!--link Plugin to JarFile--><g id="link_Plugin_JarFile"><path codeLine="100" d="M1110.04,879.16 C1135.29,898.91 1161.9841,919.7833 1185.2641,937.9933 " fill="none" id="Plugin-to-JarFile" style="stroke:#181818;stroke-width:1.0;"/><polygon fill="#181818" points="1189.99,941.69,1185.3656,932.9943,1186.0517,938.6094,1180.4366,939.2956,1189.99,941.69" style="stroke:#181818;stroke-width:1.0;"/><text fill="#000000" font-family="sans-serif" font-size="13" lengthAdjust="spacing" textLength="7" x="1109.8359" y="900.6707">1</text><text fill="#000000" font-family="sans-serif" font-size="13" lengthAdjust="spacing" textLength="7" x="1174.5471" y="930.6349">1</text></g><!--SRC=[bPLHRvim4CVV_IcixA7IfAJRQuKYPKkgKRLDHRDAUveESoNUm6R6TAggVFVPm8B9C679GmB-tVdyzz- -YxtMHNbrULba87ILPmicyqkMGLdE4mwfWfoGFK-GvgZtCYa9KSWqY3H3EhkHCTqMABX8QIWqgXUElsVq7MDn343V23MVEXarw96WGR1AKuKfQAIHb7gv38ADq5o_BfTl1qzKc0H1c62B1S4JP1NIRVp3r7CITenPcnccaJkUZvEFJAg9kI8igqmFi8UUUWzPbOR2o1M3_VRaicDSJ1UguNUlnNY93VOVIZO1QooPueNcKepIDw2kUJPUGeI_AgumDzC7WL5ALegXJyaxcM1sWXqy3hH2nepLlkjRg0NEYDcFYV0P5Gg6PwHoedPSPxXLrvLW7gLg64MLqyzIQ0LCDpksCQzGcRgIWJdg8Fkv_dfx-tqNtcsERnvMqQvxu-QtmatD6stkjhikwVP-_XWwpr- -VOh2zV7HpEAi-GaO2CQnlA_o6DMuGECsigZdRbaLHSOPs42pom3sVkdliaDCtsOdwEoHSCEq1hR7P9C3pwQXdbCnK8jKviw2QQof-r63hih9U0JYvn1yOUarld38PMbsGNC5Yagg34yJB8sKO3LLa4XYTuguHuJEFiveCA-AUVslEt7av4ZuGVSyjDG_ZFMqRyonbd-I4xFwGK8SpUh1-NnP__OiuwTSXvobh3dEJjZuee-zjrZBTTNJArfMSSwrEVRqMQefQsbiDB1i8yun__5Mzc4V5ej-McitqfYbQ_x-l4RH4RBNr0V0KynsT0_M55ftz0c9cdPUh-Aln1stM9XTc3LjSaP8sxVTF5rhxeqgdkvr3p7BzuOx_Xw2siPBo1y0]--></g></svg>