<?xml version="1.0" encoding="us-ascii" standalone="no"?><svg xmlns="http://www.w3.org/2000/svg" xmlns:xlink="http://www.w3.org/1999/xlink" contentStyleType="text/css" height="692.8px" preserveAspectRatio="none" style="width:677px;height:692px;background:#FFFFFF;" version="1.1" viewBox="0 0 677 692" width="677.6px" zoomAndPan="magnify"><defs/><g><!--cluster Job Opening--><g id="cluster_Job Opening"><rect fill="#BBCCAA" height="174.8" rx="1" ry="1" style="stroke:#181818;stroke-width:0.4000000000000001;" width="258.8" x="326.8" y="262"/><text fill="#000000" font-family="sans-serif" font-size="5.6" font-weight="bold" lengthAdjust="spacing" textLength="36" x="438.2" y="268.843">Job Opening</text></g><!--cluster Job Opening Application--><g id="cluster_Job Opening Application"><rect fill="#AACCBB" height="100.8" rx="1" ry="1" style="stroke:#181818;stroke-width:0.4000000000000001;" width="382.8" x="137.6" y="116"/><text fill="#000000" font-family="sans-serif" font-size="5.6" font-weight="bold" lengthAdjust="spacing" textLength="68.8" x="294.6" y="122.843">Job Opening Application</text></g><!--cluster candidate--><g id="cluster_candidate"><rect fill="#AABBCC" height="100.8" rx="1" ry="1" style="stroke:#181818;stroke-width:0.4000000000000001;" width="125.2" x="550" y="116"/><text fill="#000000" font-family="sans-serif" font-size="5.6" font-weight="bold" lengthAdjust="spacing" textLength="27.6" x="598.8" y="122.843">candidate</text></g><!--cluster Job Opening Process--><g id="cluster_Job Opening Process"><rect fill="#CCBBCC" height="183.6" rx="1" ry="1" style="stroke:#181818;stroke-width:0.4000000000000001;" width="158.8" x="480" y="506.8"/><text fill="#000000" font-family="sans-serif" font-size="5.6" font-weight="bold" lengthAdjust="spacing" textLength="60.4" x="529.2" y="513.643">Job Opening Process</text></g><!--cluster Job Opening Interview--><g id="cluster_Job Opening Interview"><rect fill="#CCBBAA" height="158.8" rx="1" ry="1" style="stroke:#181818;stroke-width:0.4000000000000001;" width="125.2" x="2.8" y="2.8"/><text fill="#000000" font-family="sans-serif" font-size="5.6" font-weight="bold" lengthAdjust="spacing" textLength="64" x="33.4" y="9.643">Job Opening Interview</text></g><!--class JobOpening--><g id="elem_JobOpening"><rect codeLine="7" fill="#F1F1F1" height="27.4172" id="JobOpening" rx="1" ry="1" style="stroke:#181818;stroke-width:0.20000000000000004;" width="51.2" x="464.8" y="350.8"/><ellipse cx="470.8" cy="362.9086" fill="#ADD1B2" rx="4.4" ry="4.4" style="stroke:#181818;stroke-width:0.4000000000000001;"/><path d="M471.9063,361.2586 Q471.9688,361.1711 472.0438,361.1273 Q472.1188,361.0836 472.2063,361.0836 Q472.3563,361.0836 472.45,361.1898 Q472.5438,361.2898 472.5438,361.5336 L472.5438,362.1148 Q472.5438,362.3586 472.45,362.4648 Q472.3563,362.5711 472.2063,362.5711 Q472.0688,362.5711 471.9875,362.4898 Q471.9063,362.4148 471.8625,362.2086 Q471.8438,362.0648 471.7688,361.9898 Q471.6375,361.8398 471.3938,361.7523 Q471.15,361.6648 470.9,361.6648 Q470.5938,361.6648 470.3375,361.7961 Q470.0875,361.9273 469.8875,362.2273 Q469.6938,362.5273 469.6938,362.9398 L469.6938,363.3773 Q469.6938,363.8711 470.05,364.2023 Q470.4063,364.5273 471.0438,364.5273 Q471.4188,364.5273 471.6813,364.4273 Q471.8375,364.3648 472.0063,364.1898 Q472.1125,364.0836 472.1688,364.0523 Q472.2313,364.0211 472.3125,364.0211 Q472.4438,364.0211 472.5438,364.1273 Q472.65,364.2273 472.65,364.3648 Q472.65,364.5023 472.5125,364.6648 Q472.3125,364.8961 471.9938,365.0273 Q471.5625,365.2086 471.0438,365.2086 Q470.4375,365.2086 469.9563,364.9586 Q469.5625,364.7586 469.2875,364.3336 Q469.0125,363.9023 469.0125,363.3898 L469.0125,362.9273 Q469.0125,362.3961 469.2563,361.9398 Q469.5063,361.4773 469.9438,361.2336 Q470.3813,360.9836 470.875,360.9836 Q471.1688,360.9836 471.425,361.0523 Q471.6875,361.1148 471.9063,361.2586 Z " fill="#000000"/><text fill="#000000" font-family="sans-serif" font-size="4.8" font-style="italic" lengthAdjust="spacing" textLength="40" x="475.6" y="357.9797">&#171;Aggregate Root&#187;</text><text fill="#000000" font-family="sans-serif" font-size="4.8" font-style="italic" lengthAdjust="spacing" textLength="17.6" x="486.8" y="364.3641">&#171;Entity&#187;</text><text fill="#000000" font-family="sans-serif" font-size="5.6" lengthAdjust="spacing" textLength="30.4" x="480.4" y="371.6117">JobOpening</text><line style="stroke:#181818;stroke-width:0.20000000000000004;" x1="465.2" x2="515.6" y1="375.0172" y2="375.0172"/></g><!--class JobReference--><g id="elem_JobReference"><rect codeLine="9" fill="#F1F1F1" height="27.4172" id="JobReference" rx="1" ry="1" style="stroke:#181818;stroke-width:0.20000000000000004;" width="48" x="333.2" y="402.8"/><ellipse cx="339.2" cy="414.9086" fill="#ADD1B2" rx="4.4" ry="4.4" style="stroke:#181818;stroke-width:0.4000000000000001;"/><path d="M340.3063,413.2586 Q340.3688,413.1711 340.4438,413.1273 Q340.5188,413.0836 340.6063,413.0836 Q340.7563,413.0836 340.85,413.1898 Q340.9438,413.2898 340.9438,413.5336 L340.9438,414.1148 Q340.9438,414.3586 340.85,414.4648 Q340.7563,414.5711 340.6063,414.5711 Q340.4688,414.5711 340.3875,414.4898 Q340.3063,414.4148 340.2625,414.2086 Q340.2438,414.0648 340.1688,413.9898 Q340.0375,413.8398 339.7938,413.7523 Q339.55,413.6648 339.3,413.6648 Q338.9938,413.6648 338.7375,413.7961 Q338.4875,413.9273 338.2875,414.2273 Q338.0938,414.5273 338.0938,414.9398 L338.0938,415.3773 Q338.0938,415.8711 338.45,416.2023 Q338.8063,416.5273 339.4438,416.5273 Q339.8188,416.5273 340.0813,416.4273 Q340.2375,416.3648 340.4063,416.1898 Q340.5125,416.0836 340.5688,416.0523 Q340.6313,416.0211 340.7125,416.0211 Q340.8438,416.0211 340.9438,416.1273 Q341.05,416.2273 341.05,416.3648 Q341.05,416.5023 340.9125,416.6648 Q340.7125,416.8961 340.3938,417.0273 Q339.9625,417.2086 339.4438,417.2086 Q338.8375,417.2086 338.3563,416.9586 Q337.9625,416.7586 337.6875,416.3336 Q337.4125,415.9023 337.4125,415.3898 L337.4125,414.9273 Q337.4125,414.3961 337.6563,413.9398 Q337.9063,413.4773 338.3438,413.2336 Q338.7813,412.9836 339.275,412.9836 Q339.5688,412.9836 339.825,413.0523 Q340.0875,413.1148 340.3063,413.2586 Z " fill="#000000"/><text fill="#000000" font-family="sans-serif" font-size="4.8" font-style="italic" lengthAdjust="spacing" textLength="21.6" x="351.6" y="409.9797">&#171;Identity&#187;</text><text fill="#000000" font-family="sans-serif" font-size="4.8" font-style="italic" lengthAdjust="spacing" textLength="34" x="345.4" y="416.3641">&#171;Value Object&#187;</text><text fill="#000000" font-family="sans-serif" font-size="5.6" lengthAdjust="spacing" textLength="35.2" x="344.8" y="423.6117">JobReference</text><line style="stroke:#181818;stroke-width:0.20000000000000004;" x1="333.6" x2="380.8" y1="427.0172" y2="427.0172"/></g><!--class TitleOrFunction--><g id="elem_TitleOrFunction"><rect codeLine="11" fill="#F1F1F1" height="21.0328" id="TitleOrFunction" rx="1" ry="1" style="stroke:#181818;stroke-width:0.20000000000000004;" width="52" x="395.2" y="406"/><ellipse cx="401.2" cy="414.9164" fill="#ADD1B2" rx="4.4" ry="4.4" style="stroke:#181818;stroke-width:0.4000000000000001;"/><path d="M402.3063,413.2664 Q402.3688,413.1789 402.4438,413.1352 Q402.5188,413.0914 402.6063,413.0914 Q402.7563,413.0914 402.85,413.1977 Q402.9438,413.2977 402.9438,413.5414 L402.9438,414.1227 Q402.9438,414.3664 402.85,414.4727 Q402.7563,414.5789 402.6063,414.5789 Q402.4688,414.5789 402.3875,414.4977 Q402.3063,414.4227 402.2625,414.2164 Q402.2438,414.0727 402.1688,413.9977 Q402.0375,413.8477 401.7938,413.7602 Q401.55,413.6727 401.3,413.6727 Q400.9938,413.6727 400.7375,413.8039 Q400.4875,413.9352 400.2875,414.2352 Q400.0938,414.5352 400.0938,414.9477 L400.0938,415.3852 Q400.0938,415.8789 400.45,416.2102 Q400.8063,416.5352 401.4438,416.5352 Q401.8188,416.5352 402.0813,416.4352 Q402.2375,416.3727 402.4063,416.1977 Q402.5125,416.0914 402.5688,416.0602 Q402.6313,416.0289 402.7125,416.0289 Q402.8438,416.0289 402.9438,416.1352 Q403.05,416.2352 403.05,416.3727 Q403.05,416.5102 402.9125,416.6727 Q402.7125,416.9039 402.3938,417.0352 Q401.9625,417.2164 401.4438,417.2164 Q400.8375,417.2164 400.3563,416.9664 Q399.9625,416.7664 399.6875,416.3414 Q399.4125,415.9102 399.4125,415.3977 L399.4125,414.9352 Q399.4125,414.4039 399.6563,413.9477 Q399.9063,413.4852 400.3438,413.2414 Q400.7813,412.9914 401.275,412.9914 Q401.5688,412.9914 401.825,413.0602 Q402.0875,413.1227 402.3063,413.2664 Z " fill="#000000"/><text fill="#000000" font-family="sans-serif" font-size="4.8" font-style="italic" lengthAdjust="spacing" textLength="34" x="409.4" y="413.1797">&#171;Value Object&#187;</text><text fill="#000000" font-family="sans-serif" font-size="5.6" lengthAdjust="spacing" textLength="39.2" x="406.8" y="420.4273">TitleOrFunction</text><line style="stroke:#181818;stroke-width:0.20000000000000004;" x1="395.6" x2="446.8" y1="423.8328" y2="423.8328"/></g><!--class ContractType--><g id="elem_ContractType"><rect codeLine="13" fill="#F1F1F1" height="42.3141" id="ContractType" rx="1" ry="1" style="stroke:#181818;stroke-width:0.20000000000000004;" width="47.2" x="466.8" y="280.4"/><ellipse cx="472.8" cy="292.5086" fill="#EB937F" rx="4.4" ry="4.4" style="stroke:#181818;stroke-width:0.4000000000000001;"/><path d="M472.3438,292.8273 L472.3438,293.8273 L474.075,293.8273 L474.075,293.4586 Q474.075,293.2148 474.1688,293.1086 Q474.2688,293.0023 474.4188,293.0023 Q474.5688,293.0023 474.6625,293.1086 Q474.7563,293.2148 474.7563,293.4586 L474.7563,294.5086 L471.5563,294.5086 Q471.3063,294.5086 471.2,294.4148 Q471.1,294.3211 471.1,294.1648 Q471.1,294.0148 471.2063,293.9211 Q471.3125,293.8273 471.5563,293.8273 L471.6625,293.8273 L471.6625,291.1648 L471.5563,291.1648 Q471.3063,291.1648 471.2,291.0711 Q471.1,290.9773 471.1,290.8211 Q471.1,290.6711 471.2,290.5773 Q471.3063,290.4836 471.5563,290.4836 L474.6063,290.4836 L474.6063,291.5211 Q474.6063,291.7648 474.5125,291.8711 Q474.425,291.9711 474.2688,291.9711 Q474.1188,291.9711 474.025,291.8711 Q473.9313,291.7648 473.9313,291.5211 L473.9313,291.1648 L472.3438,291.1648 L472.3438,292.1461 L472.9375,292.1461 Q472.9375,291.8836 472.9875,291.8086 Q473.0938,291.6461 473.2813,291.6461 Q473.4313,291.6461 473.525,291.7523 Q473.6188,291.8523 473.6188,292.0961 L473.6188,292.8836 Q473.6188,293.1023 473.5688,293.1773 Q473.4625,293.3336 473.2813,293.3336 Q473.0938,293.3336 472.9875,293.1711 Q472.9375,293.0961 472.9375,292.8273 L472.3438,292.8273 Z " fill="#000000"/><text fill="#000000" font-family="sans-serif" font-size="4.8" font-style="italic" lengthAdjust="spacing" textLength="32.8" x="479.2" y="287.5797">&#171;Enumerated&#187;</text><text fill="#000000" font-family="sans-serif" font-size="4.8" font-style="italic" lengthAdjust="spacing" textLength="34" x="478.6" y="293.9641">&#171;Value Object&#187;</text><text fill="#000000" font-family="sans-serif" font-size="5.6" lengthAdjust="spacing" textLength="34.4" x="478.4" y="301.2117">ContractType</text><line style="stroke:#181818;stroke-width:0.20000000000000004;" x1="467.2" x2="513.6" y1="304.6172" y2="304.6172"/><text fill="#000000" font-family="sans-serif" font-size="5.6" lengthAdjust="spacing" textLength="29.6" x="469.2" y="312.2602">FULL_TIME</text><text fill="#000000" font-family="sans-serif" font-size="5.6" lengthAdjust="spacing" textLength="30.8" x="469.2" y="319.7086">PART_TIME</text></g><!--class Mode--><g id="elem_Mode"><rect codeLine="18" fill="#F1F1F1" height="49.7625" id="Mode" rx="1" ry="1" style="stroke:#181818;stroke-width:0.20000000000000004;" width="45.2" x="407.4" y="276.8"/><ellipse cx="413.4" cy="288.9086" fill="#EB937F" rx="4.4" ry="4.4" style="stroke:#181818;stroke-width:0.4000000000000001;"/><path d="M412.9438,289.2273 L412.9438,290.2273 L414.675,290.2273 L414.675,289.8586 Q414.675,289.6148 414.7688,289.5086 Q414.8688,289.4023 415.0188,289.4023 Q415.1688,289.4023 415.2625,289.5086 Q415.3563,289.6148 415.3563,289.8586 L415.3563,290.9086 L412.1563,290.9086 Q411.9063,290.9086 411.8,290.8148 Q411.7,290.7211 411.7,290.5648 Q411.7,290.4148 411.8063,290.3211 Q411.9125,290.2273 412.1563,290.2273 L412.2625,290.2273 L412.2625,287.5648 L412.1563,287.5648 Q411.9063,287.5648 411.8,287.4711 Q411.7,287.3773 411.7,287.2211 Q411.7,287.0711 411.8,286.9773 Q411.9063,286.8836 412.1563,286.8836 L415.2063,286.8836 L415.2063,287.9211 Q415.2063,288.1648 415.1125,288.2711 Q415.025,288.3711 414.8688,288.3711 Q414.7188,288.3711 414.625,288.2711 Q414.5313,288.1648 414.5313,287.9211 L414.5313,287.5648 L412.9438,287.5648 L412.9438,288.5461 L413.5375,288.5461 Q413.5375,288.2836 413.5875,288.2086 Q413.6938,288.0461 413.8813,288.0461 Q414.0313,288.0461 414.125,288.1523 Q414.2188,288.2523 414.2188,288.4961 L414.2188,289.2836 Q414.2188,289.5023 414.1688,289.5773 Q414.0625,289.7336 413.8813,289.7336 Q413.6938,289.7336 413.5875,289.5711 Q413.5375,289.4961 413.5375,289.2273 L412.9438,289.2273 Z " fill="#000000"/><text fill="#000000" font-family="sans-serif" font-size="4.8" font-style="italic" lengthAdjust="spacing" textLength="32.8" x="418.8" y="283.9797">&#171;Enumerated&#187;</text><text fill="#000000" font-family="sans-serif" font-size="4.8" font-style="italic" lengthAdjust="spacing" textLength="34" x="418.2" y="290.3641">&#171;Value Object&#187;</text><text fill="#000000" font-family="sans-serif" font-size="5.6" lengthAdjust="spacing" textLength="14" x="428.2" y="297.6117">Mode</text><line style="stroke:#181818;stroke-width:0.20000000000000004;" x1="407.8" x2="452.2" y1="301.0172" y2="301.0172"/><text fill="#000000" font-family="sans-serif" font-size="5.6" lengthAdjust="spacing" textLength="23.6" x="409.8" y="308.6602">REMOTE</text><text fill="#000000" font-family="sans-serif" font-size="5.6" lengthAdjust="spacing" textLength="22" x="409.8" y="316.1086">ON-SITE</text><text fill="#000000" font-family="sans-serif" font-size="5.6" lengthAdjust="spacing" textLength="20" x="409.8" y="323.557">HYBRID</text></g><!--class VacanciesNumber--><g id="elem_VacanciesNumber"><rect codeLine="25" fill="#F1F1F1" height="21.0328" id="VacanciesNumber" rx="1" ry="1" style="stroke:#181818;stroke-width:0.20000000000000004;" width="58.4" x="461.2" y="406"/><ellipse cx="467.2" cy="414.9164" fill="#ADD1B2" rx="4.4" ry="4.4" style="stroke:#181818;stroke-width:0.4000000000000001;"/><path d="M468.3063,413.2664 Q468.3688,413.1789 468.4438,413.1352 Q468.5188,413.0914 468.6063,413.0914 Q468.7563,413.0914 468.85,413.1977 Q468.9438,413.2977 468.9438,413.5414 L468.9438,414.1227 Q468.9438,414.3664 468.85,414.4727 Q468.7563,414.5789 468.6063,414.5789 Q468.4688,414.5789 468.3875,414.4977 Q468.3063,414.4227 468.2625,414.2164 Q468.2438,414.0727 468.1688,413.9977 Q468.0375,413.8477 467.7938,413.7602 Q467.55,413.6727 467.3,413.6727 Q466.9938,413.6727 466.7375,413.8039 Q466.4875,413.9352 466.2875,414.2352 Q466.0938,414.5352 466.0938,414.9477 L466.0938,415.3852 Q466.0938,415.8789 466.45,416.2102 Q466.8063,416.5352 467.4438,416.5352 Q467.8188,416.5352 468.0813,416.4352 Q468.2375,416.3727 468.4063,416.1977 Q468.5125,416.0914 468.5688,416.0602 Q468.6313,416.0289 468.7125,416.0289 Q468.8438,416.0289 468.9438,416.1352 Q469.05,416.2352 469.05,416.3727 Q469.05,416.5102 468.9125,416.6727 Q468.7125,416.9039 468.3938,417.0352 Q467.9625,417.2164 467.4438,417.2164 Q466.8375,417.2164 466.3563,416.9664 Q465.9625,416.7664 465.6875,416.3414 Q465.4125,415.9102 465.4125,415.3977 L465.4125,414.9352 Q465.4125,414.4039 465.6563,413.9477 Q465.9063,413.4852 466.3438,413.2414 Q466.7813,412.9914 467.275,412.9914 Q467.5688,412.9914 467.825,413.0602 Q468.0875,413.1227 468.3063,413.2664 Z " fill="#000000"/><text fill="#000000" font-family="sans-serif" font-size="4.8" font-style="italic" lengthAdjust="spacing" textLength="34" x="478.6" y="413.1797">&#171;Value Object&#187;</text><text fill="#000000" font-family="sans-serif" font-size="5.6" lengthAdjust="spacing" textLength="45.6" x="472.8" y="420.4273">VacanciesNumber</text><line style="stroke:#181818;stroke-width:0.20000000000000004;" x1="461.6" x2="519.2" y1="423.8328" y2="423.8328"/></g><!--class Description--><g id="elem_Description"><rect codeLine="27" fill="#F1F1F1" height="21.0328" id="Description" rx="1" ry="1" style="stroke:#181818;stroke-width:0.20000000000000004;" width="45.2" x="533.8" y="406"/><ellipse cx="539.8" cy="414.9164" fill="#ADD1B2" rx="4.4" ry="4.4" style="stroke:#181818;stroke-width:0.4000000000000001;"/><path d="M540.9063,413.2664 Q540.9688,413.1789 541.0438,413.1352 Q541.1188,413.0914 541.2063,413.0914 Q541.3563,413.0914 541.45,413.1977 Q541.5438,413.2977 541.5438,413.5414 L541.5438,414.1227 Q541.5438,414.3664 541.45,414.4727 Q541.3563,414.5789 541.2063,414.5789 Q541.0688,414.5789 540.9875,414.4977 Q540.9063,414.4227 540.8625,414.2164 Q540.8438,414.0727 540.7688,413.9977 Q540.6375,413.8477 540.3938,413.7602 Q540.15,413.6727 539.9,413.6727 Q539.5938,413.6727 539.3375,413.8039 Q539.0875,413.9352 538.8875,414.2352 Q538.6938,414.5352 538.6938,414.9477 L538.6938,415.3852 Q538.6938,415.8789 539.05,416.2102 Q539.4063,416.5352 540.0438,416.5352 Q540.4188,416.5352 540.6813,416.4352 Q540.8375,416.3727 541.0063,416.1977 Q541.1125,416.0914 541.1688,416.0602 Q541.2313,416.0289 541.3125,416.0289 Q541.4438,416.0289 541.5438,416.1352 Q541.65,416.2352 541.65,416.3727 Q541.65,416.5102 541.5125,416.6727 Q541.3125,416.9039 540.9938,417.0352 Q540.5625,417.2164 540.0438,417.2164 Q539.4375,417.2164 538.9563,416.9664 Q538.5625,416.7664 538.2875,416.3414 Q538.0125,415.9102 538.0125,415.3977 L538.0125,414.9352 Q538.0125,414.4039 538.2563,413.9477 Q538.5063,413.4852 538.9438,413.2414 Q539.3813,412.9914 539.875,412.9914 Q540.1688,412.9914 540.425,413.0602 Q540.6875,413.1227 540.9063,413.2664 Z " fill="#000000"/><text fill="#000000" font-family="sans-serif" font-size="4.8" font-style="italic" lengthAdjust="spacing" textLength="34" x="544.6" y="413.1797">&#171;Value Object&#187;</text><text fill="#000000" font-family="sans-serif" font-size="5.6" lengthAdjust="spacing" textLength="28.4" x="547.4" y="420.4273">Description</text><line style="stroke:#181818;stroke-width:0.20000000000000004;" x1="534.2" x2="578.6" y1="423.8328" y2="423.8328"/></g><!--class Application--><g id="elem_Application"><rect codeLine="34" fill="#F1F1F1" height="27.4172" id="Application" rx="1" ry="1" style="stroke:#181818;stroke-width:0.20000000000000004;" width="51.2" x="325.2" y="130.8"/><ellipse cx="331.2" cy="142.9086" fill="#ADD1B2" rx="4.4" ry="4.4" style="stroke:#181818;stroke-width:0.4000000000000001;"/><path d="M332.3063,141.2586 Q332.3688,141.1711 332.4438,141.1273 Q332.5188,141.0836 332.6063,141.0836 Q332.7563,141.0836 332.85,141.1898 Q332.9438,141.2898 332.9438,141.5336 L332.9438,142.1148 Q332.9438,142.3586 332.85,142.4648 Q332.7563,142.5711 332.6063,142.5711 Q332.4688,142.5711 332.3875,142.4898 Q332.3063,142.4148 332.2625,142.2086 Q332.2438,142.0648 332.1688,141.9898 Q332.0375,141.8398 331.7938,141.7523 Q331.55,141.6648 331.3,141.6648 Q330.9938,141.6648 330.7375,141.7961 Q330.4875,141.9273 330.2875,142.2273 Q330.0938,142.5273 330.0938,142.9398 L330.0938,143.3773 Q330.0938,143.8711 330.45,144.2023 Q330.8063,144.5273 331.4438,144.5273 Q331.8188,144.5273 332.0813,144.4273 Q332.2375,144.3648 332.4063,144.1898 Q332.5125,144.0836 332.5688,144.0523 Q332.6313,144.0211 332.7125,144.0211 Q332.8438,144.0211 332.9438,144.1273 Q333.05,144.2273 333.05,144.3648 Q333.05,144.5023 332.9125,144.6648 Q332.7125,144.8961 332.3938,145.0273 Q331.9625,145.2086 331.4438,145.2086 Q330.8375,145.2086 330.3563,144.9586 Q329.9625,144.7586 329.6875,144.3336 Q329.4125,143.9023 329.4125,143.3898 L329.4125,142.9273 Q329.4125,142.3961 329.6563,141.9398 Q329.9063,141.4773 330.3438,141.2336 Q330.7813,140.9836 331.275,140.9836 Q331.5688,140.9836 331.825,141.0523 Q332.0875,141.1148 332.3063,141.2586 Z " fill="#000000"/><text fill="#000000" font-family="sans-serif" font-size="4.8" font-style="italic" lengthAdjust="spacing" textLength="40" x="336" y="137.9797">&#171;Aggregate Root&#187;</text><text fill="#000000" font-family="sans-serif" font-size="4.8" font-style="italic" lengthAdjust="spacing" textLength="17.6" x="347.2" y="144.3641">&#171;Entity&#187;</text><text fill="#000000" font-family="sans-serif" font-size="5.6" lengthAdjust="spacing" textLength="27.6" x="342.2" y="151.6117">Application</text><line style="stroke:#181818;stroke-width:0.20000000000000004;" x1="325.6" x2="376" y1="155.0172" y2="155.0172"/></g><!--class ApplicationId--><g id="elem_ApplicationId"><rect codeLine="36" fill="#F1F1F1" height="27.4172" id="ApplicationId" rx="1" ry="1" style="stroke:#181818;stroke-width:0.20000000000000004;" width="45.2" x="144.2" y="182.8"/><ellipse cx="150.2" cy="194.9086" fill="#ADD1B2" rx="4.4" ry="4.4" style="stroke:#181818;stroke-width:0.4000000000000001;"/><path d="M151.3063,193.2586 Q151.3688,193.1711 151.4438,193.1273 Q151.5188,193.0836 151.6063,193.0836 Q151.7563,193.0836 151.85,193.1898 Q151.9438,193.2898 151.9438,193.5336 L151.9438,194.1148 Q151.9438,194.3586 151.85,194.4648 Q151.7563,194.5711 151.6063,194.5711 Q151.4688,194.5711 151.3875,194.4898 Q151.3063,194.4148 151.2625,194.2086 Q151.2438,194.0648 151.1688,193.9898 Q151.0375,193.8398 150.7938,193.7523 Q150.55,193.6648 150.3,193.6648 Q149.9938,193.6648 149.7375,193.7961 Q149.4875,193.9273 149.2875,194.2273 Q149.0938,194.5273 149.0938,194.9398 L149.0938,195.3773 Q149.0938,195.8711 149.45,196.2023 Q149.8063,196.5273 150.4438,196.5273 Q150.8188,196.5273 151.0813,196.4273 Q151.2375,196.3648 151.4063,196.1898 Q151.5125,196.0836 151.5688,196.0523 Q151.6313,196.0211 151.7125,196.0211 Q151.8438,196.0211 151.9438,196.1273 Q152.05,196.2273 152.05,196.3648 Q152.05,196.5023 151.9125,196.6648 Q151.7125,196.8961 151.3938,197.0273 Q150.9625,197.2086 150.4438,197.2086 Q149.8375,197.2086 149.3563,196.9586 Q148.9625,196.7586 148.6875,196.3336 Q148.4125,195.9023 148.4125,195.3898 L148.4125,194.9273 Q148.4125,194.3961 148.6563,193.9398 Q148.9063,193.4773 149.3438,193.2336 Q149.7813,192.9836 150.275,192.9836 Q150.5688,192.9836 150.825,193.0523 Q151.0875,193.1148 151.3063,193.2586 Z " fill="#000000"/><text fill="#000000" font-family="sans-serif" font-size="4.8" font-style="italic" lengthAdjust="spacing" textLength="21.6" x="161.2" y="189.9797">&#171;Identity&#187;</text><text fill="#000000" font-family="sans-serif" font-size="4.8" font-style="italic" lengthAdjust="spacing" textLength="34" x="155" y="196.3641">&#171;Value Object&#187;</text><text fill="#000000" font-family="sans-serif" font-size="5.6" lengthAdjust="spacing" textLength="32" x="156" y="203.6117">ApplicationId</text><line style="stroke:#181818;stroke-width:0.20000000000000004;" x1="144.6" x2="189" y1="207.0172" y2="207.0172"/></g><!--class AttachedEmail--><g id="elem_AttachedEmail"><rect codeLine="38" fill="#F1F1F1" height="21.0328" id="AttachedEmail" rx="1" ry="1" style="stroke:#181818;stroke-width:0.20000000000000004;" width="48.8" x="203.6" y="186"/><ellipse cx="209.6" cy="194.9164" fill="#ADD1B2" rx="4.4" ry="4.4" style="stroke:#181818;stroke-width:0.4000000000000001;"/><path d="M210.7063,193.2664 Q210.7688,193.1789 210.8438,193.1352 Q210.9188,193.0914 211.0063,193.0914 Q211.1563,193.0914 211.25,193.1977 Q211.3438,193.2977 211.3438,193.5414 L211.3438,194.1227 Q211.3438,194.3664 211.25,194.4727 Q211.1563,194.5789 211.0063,194.5789 Q210.8688,194.5789 210.7875,194.4977 Q210.7063,194.4227 210.6625,194.2164 Q210.6438,194.0727 210.5688,193.9977 Q210.4375,193.8477 210.1938,193.7602 Q209.95,193.6727 209.7,193.6727 Q209.3938,193.6727 209.1375,193.8039 Q208.8875,193.9352 208.6875,194.2352 Q208.4938,194.5352 208.4938,194.9477 L208.4938,195.3852 Q208.4938,195.8789 208.85,196.2102 Q209.2063,196.5352 209.8438,196.5352 Q210.2188,196.5352 210.4813,196.4352 Q210.6375,196.3727 210.8063,196.1977 Q210.9125,196.0914 210.9688,196.0602 Q211.0313,196.0289 211.1125,196.0289 Q211.2438,196.0289 211.3438,196.1352 Q211.45,196.2352 211.45,196.3727 Q211.45,196.5102 211.3125,196.6727 Q211.1125,196.9039 210.7938,197.0352 Q210.3625,197.2164 209.8438,197.2164 Q209.2375,197.2164 208.7563,196.9664 Q208.3625,196.7664 208.0875,196.3414 Q207.8125,195.9102 207.8125,195.3977 L207.8125,194.9352 Q207.8125,194.4039 208.0563,193.9477 Q208.3063,193.4852 208.7438,193.2414 Q209.1813,192.9914 209.675,192.9914 Q209.9688,192.9914 210.225,193.0602 Q210.4875,193.1227 210.7063,193.2664 Z " fill="#000000"/><text fill="#000000" font-family="sans-serif" font-size="4.8" font-style="italic" lengthAdjust="spacing" textLength="34" x="216.2" y="193.1797">&#171;Value Object&#187;</text><text fill="#000000" font-family="sans-serif" font-size="5.6" lengthAdjust="spacing" textLength="36" x="215.2" y="200.4273">AttachedEmail</text><line style="stroke:#181818;stroke-width:0.20000000000000004;" x1="204" x2="252" y1="203.8328" y2="203.8328"/></g><!--class AttachedFile--><g id="elem_AttachedFile"><rect codeLine="40" fill="#F1F1F1" height="21.0328" id="AttachedFile" rx="1" ry="1" style="stroke:#181818;stroke-width:0.20000000000000004;" width="45.2" x="266.6" y="186"/><ellipse cx="272.6" cy="194.9164" fill="#ADD1B2" rx="4.4" ry="4.4" style="stroke:#181818;stroke-width:0.4000000000000001;"/><path d="M273.7063,193.2664 Q273.7688,193.1789 273.8438,193.1352 Q273.9188,193.0914 274.0063,193.0914 Q274.1563,193.0914 274.25,193.1977 Q274.3438,193.2977 274.3438,193.5414 L274.3438,194.1227 Q274.3438,194.3664 274.25,194.4727 Q274.1563,194.5789 274.0063,194.5789 Q273.8688,194.5789 273.7875,194.4977 Q273.7063,194.4227 273.6625,194.2164 Q273.6438,194.0727 273.5688,193.9977 Q273.4375,193.8477 273.1938,193.7602 Q272.95,193.6727 272.7,193.6727 Q272.3938,193.6727 272.1375,193.8039 Q271.8875,193.9352 271.6875,194.2352 Q271.4938,194.5352 271.4938,194.9477 L271.4938,195.3852 Q271.4938,195.8789 271.85,196.2102 Q272.2063,196.5352 272.8438,196.5352 Q273.2188,196.5352 273.4813,196.4352 Q273.6375,196.3727 273.8063,196.1977 Q273.9125,196.0914 273.9688,196.0602 Q274.0313,196.0289 274.1125,196.0289 Q274.2438,196.0289 274.3438,196.1352 Q274.45,196.2352 274.45,196.3727 Q274.45,196.5102 274.3125,196.6727 Q274.1125,196.9039 273.7938,197.0352 Q273.3625,197.2164 272.8438,197.2164 Q272.2375,197.2164 271.7563,196.9664 Q271.3625,196.7664 271.0875,196.3414 Q270.8125,195.9102 270.8125,195.3977 L270.8125,194.9352 Q270.8125,194.4039 271.0563,193.9477 Q271.3063,193.4852 271.7438,193.2414 Q272.1813,192.9914 272.675,192.9914 Q272.9688,192.9914 273.225,193.0602 Q273.4875,193.1227 273.7063,193.2664 Z " fill="#000000"/><text fill="#000000" font-family="sans-serif" font-size="4.8" font-style="italic" lengthAdjust="spacing" textLength="34" x="277.4" y="193.1797">&#171;Value Object&#187;</text><text fill="#000000" font-family="sans-serif" font-size="5.6" lengthAdjust="spacing" textLength="31.6" x="278.6" y="200.4273">AttachedFile</text><line style="stroke:#181818;stroke-width:0.20000000000000004;" x1="267" x2="311.4" y1="203.8328" y2="203.8328"/></g><!--class ApplicatorData--><g id="elem_ApplicatorData"><rect codeLine="42" fill="#F1F1F1" height="21.0328" id="ApplicatorData" rx="1" ry="1" style="stroke:#181818;stroke-width:0.20000000000000004;" width="50" x="325.8" y="186"/><ellipse cx="331.8" cy="194.9164" fill="#ADD1B2" rx="4.4" ry="4.4" style="stroke:#181818;stroke-width:0.4000000000000001;"/><path d="M332.9063,193.2664 Q332.9688,193.1789 333.0438,193.1352 Q333.1188,193.0914 333.2063,193.0914 Q333.3563,193.0914 333.45,193.1977 Q333.5438,193.2977 333.5438,193.5414 L333.5438,194.1227 Q333.5438,194.3664 333.45,194.4727 Q333.3563,194.5789 333.2063,194.5789 Q333.0688,194.5789 332.9875,194.4977 Q332.9063,194.4227 332.8625,194.2164 Q332.8438,194.0727 332.7688,193.9977 Q332.6375,193.8477 332.3938,193.7602 Q332.15,193.6727 331.9,193.6727 Q331.5938,193.6727 331.3375,193.8039 Q331.0875,193.9352 330.8875,194.2352 Q330.6938,194.5352 330.6938,194.9477 L330.6938,195.3852 Q330.6938,195.8789 331.05,196.2102 Q331.4063,196.5352 332.0438,196.5352 Q332.4188,196.5352 332.6813,196.4352 Q332.8375,196.3727 333.0063,196.1977 Q333.1125,196.0914 333.1688,196.0602 Q333.2313,196.0289 333.3125,196.0289 Q333.4438,196.0289 333.5438,196.1352 Q333.65,196.2352 333.65,196.3727 Q333.65,196.5102 333.5125,196.6727 Q333.3125,196.9039 332.9938,197.0352 Q332.5625,197.2164 332.0438,197.2164 Q331.4375,197.2164 330.9563,196.9664 Q330.5625,196.7664 330.2875,196.3414 Q330.0125,195.9102 330.0125,195.3977 L330.0125,194.9352 Q330.0125,194.4039 330.2563,193.9477 Q330.5063,193.4852 330.9438,193.2414 Q331.3813,192.9914 331.875,192.9914 Q332.1688,192.9914 332.425,193.0602 Q332.6875,193.1227 332.9063,193.2664 Z " fill="#000000"/><text fill="#000000" font-family="sans-serif" font-size="4.8" font-style="italic" lengthAdjust="spacing" textLength="34" x="339" y="193.1797">&#171;Value Object&#187;</text><text fill="#000000" font-family="sans-serif" font-size="5.6" lengthAdjust="spacing" textLength="37.2" x="337.4" y="200.4273">ApplicatorData</text><line style="stroke:#181818;stroke-width:0.20000000000000004;" x1="326.2" x2="375.4" y1="203.8328" y2="203.8328"/></g><!--class ApplicationStatus--><g id="elem_ApplicationStatus"><rect codeLine="44" fill="#F1F1F1" height="21.0328" id="ApplicationStatus" rx="1" ry="1" style="stroke:#181818;stroke-width:0.20000000000000004;" width="56.4" x="389.8" y="186"/><ellipse cx="395.8" cy="194.9164" fill="#ADD1B2" rx="4.4" ry="4.4" style="stroke:#181818;stroke-width:0.4000000000000001;"/><path d="M396.9063,193.2664 Q396.9688,193.1789 397.0438,193.1352 Q397.1188,193.0914 397.2063,193.0914 Q397.3563,193.0914 397.45,193.1977 Q397.5438,193.2977 397.5438,193.5414 L397.5438,194.1227 Q397.5438,194.3664 397.45,194.4727 Q397.3563,194.5789 397.2063,194.5789 Q397.0688,194.5789 396.9875,194.4977 Q396.9063,194.4227 396.8625,194.2164 Q396.8438,194.0727 396.7688,193.9977 Q396.6375,193.8477 396.3938,193.7602 Q396.15,193.6727 395.9,193.6727 Q395.5938,193.6727 395.3375,193.8039 Q395.0875,193.9352 394.8875,194.2352 Q394.6938,194.5352 394.6938,194.9477 L394.6938,195.3852 Q394.6938,195.8789 395.05,196.2102 Q395.4063,196.5352 396.0438,196.5352 Q396.4188,196.5352 396.6813,196.4352 Q396.8375,196.3727 397.0063,196.1977 Q397.1125,196.0914 397.1688,196.0602 Q397.2313,196.0289 397.3125,196.0289 Q397.4438,196.0289 397.5438,196.1352 Q397.65,196.2352 397.65,196.3727 Q397.65,196.5102 397.5125,196.6727 Q397.3125,196.9039 396.9938,197.0352 Q396.5625,197.2164 396.0438,197.2164 Q395.4375,197.2164 394.9563,196.9664 Q394.5625,196.7664 394.2875,196.3414 Q394.0125,195.9102 394.0125,195.3977 L394.0125,194.9352 Q394.0125,194.4039 394.2563,193.9477 Q394.5063,193.4852 394.9438,193.2414 Q395.3813,192.9914 395.875,192.9914 Q396.1688,192.9914 396.425,193.0602 Q396.6875,193.1227 396.9063,193.2664 Z " fill="#000000"/><text fill="#000000" font-family="sans-serif" font-size="4.8" font-style="italic" lengthAdjust="spacing" textLength="34" x="406.2" y="193.1797">&#171;Value Object&#187;</text><text fill="#000000" font-family="sans-serif" font-size="5.6" lengthAdjust="spacing" textLength="43.6" x="401.4" y="200.4273">ApplicationStatus</text><line style="stroke:#181818;stroke-width:0.20000000000000004;" x1="390.2" x2="445.8" y1="203.8328" y2="203.8328"/></g><!--class ApplicationRank--><g id="elem_ApplicationRank"><rect codeLine="46" fill="#F1F1F1" height="21.0328" id="ApplicationRank" rx="1" ry="1" style="stroke:#181818;stroke-width:0.20000000000000004;" width="53.6" x="460.4" y="186"/><ellipse cx="466.4" cy="194.9164" fill="#ADD1B2" rx="4.4" ry="4.4" style="stroke:#181818;stroke-width:0.4000000000000001;"/><path d="M467.5063,193.2664 Q467.5688,193.1789 467.6438,193.1352 Q467.7188,193.0914 467.8063,193.0914 Q467.9563,193.0914 468.05,193.1977 Q468.1438,193.2977 468.1438,193.5414 L468.1438,194.1227 Q468.1438,194.3664 468.05,194.4727 Q467.9563,194.5789 467.8063,194.5789 Q467.6688,194.5789 467.5875,194.4977 Q467.5063,194.4227 467.4625,194.2164 Q467.4438,194.0727 467.3688,193.9977 Q467.2375,193.8477 466.9938,193.7602 Q466.75,193.6727 466.5,193.6727 Q466.1938,193.6727 465.9375,193.8039 Q465.6875,193.9352 465.4875,194.2352 Q465.2938,194.5352 465.2938,194.9477 L465.2938,195.3852 Q465.2938,195.8789 465.65,196.2102 Q466.0063,196.5352 466.6438,196.5352 Q467.0188,196.5352 467.2813,196.4352 Q467.4375,196.3727 467.6063,196.1977 Q467.7125,196.0914 467.7688,196.0602 Q467.8313,196.0289 467.9125,196.0289 Q468.0438,196.0289 468.1438,196.1352 Q468.25,196.2352 468.25,196.3727 Q468.25,196.5102 468.1125,196.6727 Q467.9125,196.9039 467.5938,197.0352 Q467.1625,197.2164 466.6438,197.2164 Q466.0375,197.2164 465.5563,196.9664 Q465.1625,196.7664 464.8875,196.3414 Q464.6125,195.9102 464.6125,195.3977 L464.6125,194.9352 Q464.6125,194.4039 464.8563,193.9477 Q465.1063,193.4852 465.5438,193.2414 Q465.9813,192.9914 466.475,192.9914 Q466.7688,192.9914 467.025,193.0602 Q467.2875,193.1227 467.5063,193.2664 Z " fill="#000000"/><text fill="#000000" font-family="sans-serif" font-size="4.8" font-style="italic" lengthAdjust="spacing" textLength="34" x="475.4" y="193.1797">&#171;Value Object&#187;</text><text fill="#000000" font-family="sans-serif" font-size="5.6" lengthAdjust="spacing" textLength="40.8" x="472" y="200.4273">ApplicationRank</text><line style="stroke:#181818;stroke-width:0.20000000000000004;" x1="460.8" x2="513.6" y1="203.8328" y2="203.8328"/></g><!--class Candidate--><g id="elem_Candidate"><rect codeLine="52" fill="#F1F1F1" height="27.4172" id="Candidate" rx="1" ry="1" style="stroke:#181818;stroke-width:0.20000000000000004;" width="51.2" x="556.4" y="130.8"/><ellipse cx="562.4" cy="142.9086" fill="#ADD1B2" rx="4.4" ry="4.4" style="stroke:#181818;stroke-width:0.4000000000000001;"/><path d="M563.5063,141.2586 Q563.5688,141.1711 563.6438,141.1273 Q563.7188,141.0836 563.8063,141.0836 Q563.9563,141.0836 564.05,141.1898 Q564.1438,141.2898 564.1438,141.5336 L564.1438,142.1148 Q564.1438,142.3586 564.05,142.4648 Q563.9563,142.5711 563.8063,142.5711 Q563.6688,142.5711 563.5875,142.4898 Q563.5063,142.4148 563.4625,142.2086 Q563.4438,142.0648 563.3688,141.9898 Q563.2375,141.8398 562.9938,141.7523 Q562.75,141.6648 562.5,141.6648 Q562.1938,141.6648 561.9375,141.7961 Q561.6875,141.9273 561.4875,142.2273 Q561.2938,142.5273 561.2938,142.9398 L561.2938,143.3773 Q561.2938,143.8711 561.65,144.2023 Q562.0063,144.5273 562.6438,144.5273 Q563.0188,144.5273 563.2813,144.4273 Q563.4375,144.3648 563.6063,144.1898 Q563.7125,144.0836 563.7688,144.0523 Q563.8313,144.0211 563.9125,144.0211 Q564.0438,144.0211 564.1438,144.1273 Q564.25,144.2273 564.25,144.3648 Q564.25,144.5023 564.1125,144.6648 Q563.9125,144.8961 563.5938,145.0273 Q563.1625,145.2086 562.6438,145.2086 Q562.0375,145.2086 561.5563,144.9586 Q561.1625,144.7586 560.8875,144.3336 Q560.6125,143.9023 560.6125,143.3898 L560.6125,142.9273 Q560.6125,142.3961 560.8563,141.9398 Q561.1063,141.4773 561.5438,141.2336 Q561.9813,140.9836 562.475,140.9836 Q562.7688,140.9836 563.025,141.0523 Q563.2875,141.1148 563.5063,141.2586 Z " fill="#000000"/><text fill="#000000" font-family="sans-serif" font-size="4.8" font-style="italic" lengthAdjust="spacing" textLength="40" x="567.2" y="137.9797">&#171;Aggregate Root&#187;</text><text fill="#000000" font-family="sans-serif" font-size="4.8" font-style="italic" lengthAdjust="spacing" textLength="17.6" x="578.4" y="144.3641">&#171;Entity&#187;</text><text fill="#000000" font-family="sans-serif" font-size="5.6" lengthAdjust="spacing" textLength="26" x="574.2" y="151.6117">Candidate</text><line style="stroke:#181818;stroke-width:0.20000000000000004;" x1="556.8" x2="607.2" y1="155.0172" y2="155.0172"/></g><!--class CandidateId--><g id="elem_CandidateId"><rect codeLine="53" fill="#F1F1F1" height="27.4172" id="CandidateId" rx="1" ry="1" style="stroke:#181818;stroke-width:0.20000000000000004;" width="45.2" x="556.6" y="182.8"/><ellipse cx="562.6" cy="194.9086" fill="#ADD1B2" rx="4.4" ry="4.4" style="stroke:#181818;stroke-width:0.4000000000000001;"/><path d="M563.7063,193.2586 Q563.7688,193.1711 563.8438,193.1273 Q563.9188,193.0836 564.0063,193.0836 Q564.1563,193.0836 564.25,193.1898 Q564.3438,193.2898 564.3438,193.5336 L564.3438,194.1148 Q564.3438,194.3586 564.25,194.4648 Q564.1563,194.5711 564.0063,194.5711 Q563.8688,194.5711 563.7875,194.4898 Q563.7063,194.4148 563.6625,194.2086 Q563.6438,194.0648 563.5688,193.9898 Q563.4375,193.8398 563.1938,193.7523 Q562.95,193.6648 562.7,193.6648 Q562.3938,193.6648 562.1375,193.7961 Q561.8875,193.9273 561.6875,194.2273 Q561.4938,194.5273 561.4938,194.9398 L561.4938,195.3773 Q561.4938,195.8711 561.85,196.2023 Q562.2063,196.5273 562.8438,196.5273 Q563.2188,196.5273 563.4813,196.4273 Q563.6375,196.3648 563.8063,196.1898 Q563.9125,196.0836 563.9688,196.0523 Q564.0313,196.0211 564.1125,196.0211 Q564.2438,196.0211 564.3438,196.1273 Q564.45,196.2273 564.45,196.3648 Q564.45,196.5023 564.3125,196.6648 Q564.1125,196.8961 563.7938,197.0273 Q563.3625,197.2086 562.8438,197.2086 Q562.2375,197.2086 561.7563,196.9586 Q561.3625,196.7586 561.0875,196.3336 Q560.8125,195.9023 560.8125,195.3898 L560.8125,194.9273 Q560.8125,194.3961 561.0563,193.9398 Q561.3063,193.4773 561.7438,193.2336 Q562.1813,192.9836 562.675,192.9836 Q562.9688,192.9836 563.225,193.0523 Q563.4875,193.1148 563.7063,193.2586 Z " fill="#000000"/><text fill="#000000" font-family="sans-serif" font-size="4.8" font-style="italic" lengthAdjust="spacing" textLength="21.6" x="573.6" y="189.9797">&#171;Identity&#187;</text><text fill="#000000" font-family="sans-serif" font-size="4.8" font-style="italic" lengthAdjust="spacing" textLength="34" x="567.4" y="196.3641">&#171;Value Object&#187;</text><text fill="#000000" font-family="sans-serif" font-size="5.6" lengthAdjust="spacing" textLength="30.4" x="569.2" y="203.6117">CandidateId</text><line style="stroke:#181818;stroke-width:0.20000000000000004;" x1="557" x2="601.4" y1="207.0172" y2="207.0172"/></g><!--class CurriculumVitae--><g id="elem_CurriculumVitae"><rect codeLine="54" fill="#F1F1F1" height="21.0328" id="CurriculumVitae" rx="1" ry="1" style="stroke:#181818;stroke-width:0.20000000000000004;" width="52.8" x="616" y="186"/><ellipse cx="622" cy="194.9164" fill="#ADD1B2" rx="4.4" ry="4.4" style="stroke:#181818;stroke-width:0.4000000000000001;"/><path d="M623.1063,193.2664 Q623.1688,193.1789 623.2438,193.1352 Q623.3188,193.0914 623.4063,193.0914 Q623.5563,193.0914 623.65,193.1977 Q623.7438,193.2977 623.7438,193.5414 L623.7438,194.1227 Q623.7438,194.3664 623.65,194.4727 Q623.5563,194.5789 623.4063,194.5789 Q623.2688,194.5789 623.1875,194.4977 Q623.1063,194.4227 623.0625,194.2164 Q623.0438,194.0727 622.9688,193.9977 Q622.8375,193.8477 622.5938,193.7602 Q622.35,193.6727 622.1,193.6727 Q621.7938,193.6727 621.5375,193.8039 Q621.2875,193.9352 621.0875,194.2352 Q620.8938,194.5352 620.8938,194.9477 L620.8938,195.3852 Q620.8938,195.8789 621.25,196.2102 Q621.6063,196.5352 622.2438,196.5352 Q622.6188,196.5352 622.8813,196.4352 Q623.0375,196.3727 623.2063,196.1977 Q623.3125,196.0914 623.3688,196.0602 Q623.4313,196.0289 623.5125,196.0289 Q623.6438,196.0289 623.7438,196.1352 Q623.85,196.2352 623.85,196.3727 Q623.85,196.5102 623.7125,196.6727 Q623.5125,196.9039 623.1938,197.0352 Q622.7625,197.2164 622.2438,197.2164 Q621.6375,197.2164 621.1563,196.9664 Q620.7625,196.7664 620.4875,196.3414 Q620.2125,195.9102 620.2125,195.3977 L620.2125,194.9352 Q620.2125,194.4039 620.4563,193.9477 Q620.7063,193.4852 621.1438,193.2414 Q621.5813,192.9914 622.075,192.9914 Q622.3688,192.9914 622.625,193.0602 Q622.8875,193.1227 623.1063,193.2664 Z " fill="#000000"/><text fill="#000000" font-family="sans-serif" font-size="4.8" font-style="italic" lengthAdjust="spacing" textLength="34" x="630.6" y="193.1797">&#171;Value Object&#187;</text><text fill="#000000" font-family="sans-serif" font-size="5.6" lengthAdjust="spacing" textLength="40" x="627.6" y="200.4273">CurriculumVitae</text><line style="stroke:#181818;stroke-width:0.20000000000000004;" x1="616.4" x2="668.4" y1="203.8328" y2="203.8328"/></g><!--class JobOpeningProcess--><g id="elem_JobOpeningProcess"><rect codeLine="60" fill="#F1F1F1" height="27.4172" id="JobOpeningProcess" rx="1" ry="1" style="stroke:#181818;stroke-width:0.20000000000000004;" width="63.6" x="568.6" y="521.6"/><ellipse cx="574.6" cy="533.7086" fill="#ADD1B2" rx="4.4" ry="4.4" style="stroke:#181818;stroke-width:0.4000000000000001;"/><path d="M575.7063,532.0586 Q575.7688,531.9711 575.8438,531.9273 Q575.9188,531.8836 576.0063,531.8836 Q576.1563,531.8836 576.25,531.9898 Q576.3438,532.0898 576.3438,532.3336 L576.3438,532.9148 Q576.3438,533.1586 576.25,533.2648 Q576.1563,533.3711 576.0063,533.3711 Q575.8688,533.3711 575.7875,533.2898 Q575.7063,533.2148 575.6625,533.0086 Q575.6438,532.8648 575.5688,532.7898 Q575.4375,532.6398 575.1938,532.5523 Q574.95,532.4648 574.7,532.4648 Q574.3938,532.4648 574.1375,532.5961 Q573.8875,532.7273 573.6875,533.0273 Q573.4938,533.3273 573.4938,533.7398 L573.4938,534.1773 Q573.4938,534.6711 573.85,535.0023 Q574.2063,535.3273 574.8438,535.3273 Q575.2188,535.3273 575.4813,535.2273 Q575.6375,535.1648 575.8063,534.9898 Q575.9125,534.8836 575.9688,534.8523 Q576.0313,534.8211 576.1125,534.8211 Q576.2438,534.8211 576.3438,534.9273 Q576.45,535.0273 576.45,535.1648 Q576.45,535.3023 576.3125,535.4648 Q576.1125,535.6961 575.7938,535.8273 Q575.3625,536.0086 574.8438,536.0086 Q574.2375,536.0086 573.7563,535.7586 Q573.3625,535.5586 573.0875,535.1336 Q572.8125,534.7023 572.8125,534.1898 L572.8125,533.7273 Q572.8125,533.1961 573.0563,532.7398 Q573.3063,532.2773 573.7438,532.0336 Q574.1813,531.7836 574.675,531.7836 Q574.9688,531.7836 575.225,531.8523 Q575.4875,531.9148 575.7063,532.0586 Z " fill="#000000"/><text fill="#000000" font-family="sans-serif" font-size="4.8" font-style="italic" lengthAdjust="spacing" textLength="40" x="585.6" y="528.7797">&#171;Aggregate Root&#187;</text><text fill="#000000" font-family="sans-serif" font-size="4.8" font-style="italic" lengthAdjust="spacing" textLength="17.6" x="596.8" y="535.1641">&#171;Entity&#187;</text><text fill="#000000" font-family="sans-serif" font-size="5.6" lengthAdjust="spacing" textLength="50.8" x="580.2" y="542.4117">JobOpeningProcess</text><line style="stroke:#181818;stroke-width:0.20000000000000004;" x1="569" x2="631.8" y1="545.8172" y2="545.8172"/></g><!--class JobOpeningProcessId--><g id="elem_JobOpeningProcessId"><rect codeLine="61" fill="#F1F1F1" height="27.4172" id="JobOpeningProcessId" rx="1" ry="1" style="stroke:#181818;stroke-width:0.20000000000000004;" width="68" x="486.4" y="521.6"/><ellipse cx="492.4" cy="533.7086" fill="#ADD1B2" rx="4.4" ry="4.4" style="stroke:#181818;stroke-width:0.4000000000000001;"/><path d="M493.5063,532.0586 Q493.5688,531.9711 493.6438,531.9273 Q493.7188,531.8836 493.8063,531.8836 Q493.9563,531.8836 494.05,531.9898 Q494.1438,532.0898 494.1438,532.3336 L494.1438,532.9148 Q494.1438,533.1586 494.05,533.2648 Q493.9563,533.3711 493.8063,533.3711 Q493.6688,533.3711 493.5875,533.2898 Q493.5063,533.2148 493.4625,533.0086 Q493.4438,532.8648 493.3688,532.7898 Q493.2375,532.6398 492.9938,532.5523 Q492.75,532.4648 492.5,532.4648 Q492.1938,532.4648 491.9375,532.5961 Q491.6875,532.7273 491.4875,533.0273 Q491.2938,533.3273 491.2938,533.7398 L491.2938,534.1773 Q491.2938,534.6711 491.65,535.0023 Q492.0063,535.3273 492.6438,535.3273 Q493.0188,535.3273 493.2813,535.2273 Q493.4375,535.1648 493.6063,534.9898 Q493.7125,534.8836 493.7688,534.8523 Q493.8313,534.8211 493.9125,534.8211 Q494.0438,534.8211 494.1438,534.9273 Q494.25,535.0273 494.25,535.1648 Q494.25,535.3023 494.1125,535.4648 Q493.9125,535.6961 493.5938,535.8273 Q493.1625,536.0086 492.6438,536.0086 Q492.0375,536.0086 491.5563,535.7586 Q491.1625,535.5586 490.8875,535.1336 Q490.6125,534.7023 490.6125,534.1898 L490.6125,533.7273 Q490.6125,533.1961 490.8563,532.7398 Q491.1063,532.2773 491.5438,532.0336 Q491.9813,531.7836 492.475,531.7836 Q492.7688,531.7836 493.025,531.8523 Q493.2875,531.9148 493.5063,532.0586 Z " fill="#000000"/><text fill="#000000" font-family="sans-serif" font-size="4.8" font-style="italic" lengthAdjust="spacing" textLength="21.6" x="514.8" y="528.7797">&#171;Identity&#187;</text><text fill="#000000" font-family="sans-serif" font-size="4.8" font-style="italic" lengthAdjust="spacing" textLength="34" x="508.6" y="535.1641">&#171;Value Object&#187;</text><text fill="#000000" font-family="sans-serif" font-size="5.6" lengthAdjust="spacing" textLength="55.2" x="498" y="542.4117">JobOpeningProcessId</text><line style="stroke:#181818;stroke-width:0.20000000000000004;" x1="486.8" x2="554" y1="545.8172" y2="545.8172"/></g><!--class Phase--><g id="elem_Phase"><rect codeLine="64" fill="#F1F1F1" height="21.0328" id="Phase" rx="1" ry="1" style="stroke:#181818;stroke-width:0.20000000000000004;" width="28.8" x="586" y="573.6"/><ellipse cx="592" cy="582.5164" fill="#ADD1B2" rx="4.4" ry="4.4" style="stroke:#181818;stroke-width:0.4000000000000001;"/><path d="M593.1063,580.8664 Q593.1688,580.7789 593.2438,580.7352 Q593.3188,580.6914 593.4063,580.6914 Q593.5563,580.6914 593.65,580.7977 Q593.7438,580.8977 593.7438,581.1414 L593.7438,581.7227 Q593.7438,581.9664 593.65,582.0727 Q593.5563,582.1789 593.4063,582.1789 Q593.2688,582.1789 593.1875,582.0977 Q593.1063,582.0227 593.0625,581.8164 Q593.0438,581.6727 592.9688,581.5977 Q592.8375,581.4477 592.5938,581.3602 Q592.35,581.2727 592.1,581.2727 Q591.7938,581.2727 591.5375,581.4039 Q591.2875,581.5352 591.0875,581.8352 Q590.8938,582.1352 590.8938,582.5477 L590.8938,582.9852 Q590.8938,583.4789 591.25,583.8102 Q591.6063,584.1352 592.2438,584.1352 Q592.6188,584.1352 592.8813,584.0352 Q593.0375,583.9727 593.2063,583.7977 Q593.3125,583.6914 593.3688,583.6602 Q593.4313,583.6289 593.5125,583.6289 Q593.6438,583.6289 593.7438,583.7352 Q593.85,583.8352 593.85,583.9727 Q593.85,584.1102 593.7125,584.2727 Q593.5125,584.5039 593.1938,584.6352 Q592.7625,584.8164 592.2438,584.8164 Q591.6375,584.8164 591.1563,584.5664 Q590.7625,584.3664 590.4875,583.9414 Q590.2125,583.5102 590.2125,582.9977 L590.2125,582.5352 Q590.2125,582.0039 590.4563,581.5477 Q590.7063,581.0852 591.1438,580.8414 Q591.5813,580.5914 592.075,580.5914 Q592.3688,580.5914 592.625,580.6602 Q592.8875,580.7227 593.1063,580.8664 Z " fill="#000000"/><text fill="#000000" font-family="sans-serif" font-size="4.8" font-style="italic" lengthAdjust="spacing" textLength="17.6" x="596.8" y="580.7797">&#171;Entity&#187;</text><text fill="#000000" font-family="sans-serif" font-size="5.6" lengthAdjust="spacing" textLength="16" x="597.6" y="588.0273">Phase</text><line style="stroke:#181818;stroke-width:0.20000000000000004;" x1="586.4" x2="614.4" y1="591.4328" y2="591.4328"/></g><!--class PhaseType--><g id="elem_PhaseType"><rect codeLine="66" fill="#F1F1F1" height="64.6594" id="PhaseType" rx="1" ry="1" style="stroke:#181818;stroke-width:0.20000000000000004;" width="45.2" x="577.8" y="619.2"/><ellipse cx="583.8" cy="631.3086" fill="#EB937F" rx="4.4" ry="4.4" style="stroke:#181818;stroke-width:0.4000000000000001;"/><path d="M583.3438,631.6273 L583.3438,632.6273 L585.075,632.6273 L585.075,632.2586 Q585.075,632.0148 585.1688,631.9086 Q585.2688,631.8023 585.4188,631.8023 Q585.5688,631.8023 585.6625,631.9086 Q585.7563,632.0148 585.7563,632.2586 L585.7563,633.3086 L582.5563,633.3086 Q582.3063,633.3086 582.2,633.2148 Q582.1,633.1211 582.1,632.9648 Q582.1,632.8148 582.2063,632.7211 Q582.3125,632.6273 582.5563,632.6273 L582.6625,632.6273 L582.6625,629.9648 L582.5563,629.9648 Q582.3063,629.9648 582.2,629.8711 Q582.1,629.7773 582.1,629.6211 Q582.1,629.4711 582.2,629.3773 Q582.3063,629.2836 582.5563,629.2836 L585.6063,629.2836 L585.6063,630.3211 Q585.6063,630.5648 585.5125,630.6711 Q585.425,630.7711 585.2688,630.7711 Q585.1188,630.7711 585.025,630.6711 Q584.9313,630.5648 584.9313,630.3211 L584.9313,629.9648 L583.3438,629.9648 L583.3438,630.9461 L583.9375,630.9461 Q583.9375,630.6836 583.9875,630.6086 Q584.0938,630.4461 584.2813,630.4461 Q584.4313,630.4461 584.525,630.5523 Q584.6188,630.6523 584.6188,630.8961 L584.6188,631.6836 Q584.6188,631.9023 584.5688,631.9773 Q584.4625,632.1336 584.2813,632.1336 Q584.0938,632.1336 583.9875,631.9711 Q583.9375,631.8961 583.9375,631.6273 L583.3438,631.6273 Z " fill="#000000"/><text fill="#000000" font-family="sans-serif" font-size="4.8" font-style="italic" lengthAdjust="spacing" textLength="32.8" x="589.2" y="626.3797">&#171;Enumerated&#187;</text><text fill="#000000" font-family="sans-serif" font-size="4.8" font-style="italic" lengthAdjust="spacing" textLength="34" x="588.6" y="632.7641">&#171;Value Object&#187;</text><text fill="#000000" font-family="sans-serif" font-size="5.6" lengthAdjust="spacing" textLength="28.8" x="591.2" y="640.0117">PhaseType</text><line style="stroke:#181818;stroke-width:0.20000000000000004;" x1="578.2" x2="622.6" y1="643.4172" y2="643.4172"/><text fill="#000000" font-family="sans-serif" font-size="5.6" lengthAdjust="spacing" textLength="35.6" x="580.2" y="651.0602">APPLICATION</text><text fill="#000000" font-family="sans-serif" font-size="5.6" lengthAdjust="spacing" textLength="31.6" x="580.2" y="658.5086">SCREENING</text><text fill="#000000" font-family="sans-serif" font-size="5.6" lengthAdjust="spacing" textLength="33.2" x="580.2" y="665.957">INTERVIEWS</text><text fill="#000000" font-family="sans-serif" font-size="5.6" lengthAdjust="spacing" textLength="26" x="580.2" y="673.4055">ANALYSIS</text><text fill="#000000" font-family="sans-serif" font-size="5.6" lengthAdjust="spacing" textLength="21.6" x="580.2" y="680.8539">RESULT</text></g><!--class JobInterview--><g id="elem_JobInterview"><rect codeLine="76" fill="#F1F1F1" height="27.4172" id="JobInterview" rx="1" ry="1" style="stroke:#181818;stroke-width:0.20000000000000004;" width="51.2" x="10.8" y="69.6"/><ellipse cx="16.8" cy="81.7086" fill="#ADD1B2" rx="4.4" ry="4.4" style="stroke:#181818;stroke-width:0.4000000000000001;"/><path d="M17.9063,80.0586 Q17.9688,79.9711 18.0438,79.9273 Q18.1188,79.8836 18.2063,79.8836 Q18.3563,79.8836 18.45,79.9898 Q18.5438,80.0898 18.5438,80.3336 L18.5438,80.9148 Q18.5438,81.1586 18.45,81.2648 Q18.3563,81.3711 18.2063,81.3711 Q18.0688,81.3711 17.9875,81.2898 Q17.9063,81.2148 17.8625,81.0086 Q17.8438,80.8648 17.7688,80.7898 Q17.6375,80.6398 17.3938,80.5523 Q17.15,80.4648 16.9,80.4648 Q16.5938,80.4648 16.3375,80.5961 Q16.0875,80.7273 15.8875,81.0273 Q15.6938,81.3273 15.6938,81.7398 L15.6938,82.1773 Q15.6938,82.6711 16.05,83.0023 Q16.4063,83.3273 17.0438,83.3273 Q17.4188,83.3273 17.6813,83.2273 Q17.8375,83.1648 18.0063,82.9898 Q18.1125,82.8836 18.1688,82.8523 Q18.2313,82.8211 18.3125,82.8211 Q18.4438,82.8211 18.5438,82.9273 Q18.65,83.0273 18.65,83.1648 Q18.65,83.3023 18.5125,83.4648 Q18.3125,83.6961 17.9938,83.8273 Q17.5625,84.0086 17.0438,84.0086 Q16.4375,84.0086 15.9563,83.7586 Q15.5625,83.5586 15.2875,83.1336 Q15.0125,82.7023 15.0125,82.1898 L15.0125,81.7273 Q15.0125,81.1961 15.2563,80.7398 Q15.5063,80.2773 15.9438,80.0336 Q16.3813,79.7836 16.875,79.7836 Q17.1688,79.7836 17.425,79.8523 Q17.6875,79.9148 17.9063,80.0586 Z " fill="#000000"/><text fill="#000000" font-family="sans-serif" font-size="4.8" font-style="italic" lengthAdjust="spacing" textLength="40" x="21.6" y="76.7797">&#171;Aggregate Root&#187;</text><text fill="#000000" font-family="sans-serif" font-size="4.8" font-style="italic" lengthAdjust="spacing" textLength="17.6" x="32.8" y="83.1641">&#171;Entity&#187;</text><text fill="#000000" font-family="sans-serif" font-size="5.6" lengthAdjust="spacing" textLength="30.8" x="26.2" y="90.4117">JobInterview</text><line style="stroke:#181818;stroke-width:0.20000000000000004;" x1="11.2" x2="61.6" y1="93.8172" y2="93.8172"/></g><!--class JobInterviewId--><g id="elem_JobInterviewId"><rect codeLine="77" fill="#F1F1F1" height="27.4172" id="JobInterviewId" rx="1" ry="1" style="stroke:#181818;stroke-width:0.20000000000000004;" width="48" x="10" y="17.6"/><ellipse cx="16" cy="29.7086" fill="#ADD1B2" rx="4.4" ry="4.4" style="stroke:#181818;stroke-width:0.4000000000000001;"/><path d="M17.1063,28.0586 Q17.1688,27.9711 17.2438,27.9273 Q17.3188,27.8836 17.4063,27.8836 Q17.5563,27.8836 17.65,27.9898 Q17.7438,28.0898 17.7438,28.3336 L17.7438,28.9148 Q17.7438,29.1586 17.65,29.2648 Q17.5563,29.3711 17.4063,29.3711 Q17.2688,29.3711 17.1875,29.2898 Q17.1063,29.2148 17.0625,29.0086 Q17.0438,28.8648 16.9688,28.7898 Q16.8375,28.6398 16.5938,28.5523 Q16.35,28.4648 16.1,28.4648 Q15.7938,28.4648 15.5375,28.5961 Q15.2875,28.7273 15.0875,29.0273 Q14.8938,29.3273 14.8938,29.7398 L14.8938,30.1773 Q14.8938,30.6711 15.25,31.0023 Q15.6063,31.3273 16.2438,31.3273 Q16.6188,31.3273 16.8813,31.2273 Q17.0375,31.1648 17.2063,30.9898 Q17.3125,30.8836 17.3688,30.8523 Q17.4313,30.8211 17.5125,30.8211 Q17.6438,30.8211 17.7438,30.9273 Q17.85,31.0273 17.85,31.1648 Q17.85,31.3023 17.7125,31.4648 Q17.5125,31.6961 17.1938,31.8273 Q16.7625,32.0086 16.2438,32.0086 Q15.6375,32.0086 15.1563,31.7586 Q14.7625,31.5586 14.4875,31.1336 Q14.2125,30.7023 14.2125,30.1898 L14.2125,29.7273 Q14.2125,29.1961 14.4563,28.7398 Q14.7063,28.2773 15.1438,28.0336 Q15.5813,27.7836 16.075,27.7836 Q16.3688,27.7836 16.625,27.8523 Q16.8875,27.9148 17.1063,28.0586 Z " fill="#000000"/><text fill="#000000" font-family="sans-serif" font-size="4.8" font-style="italic" lengthAdjust="spacing" textLength="21.6" x="28.4" y="24.7797">&#171;Identity&#187;</text><text fill="#000000" font-family="sans-serif" font-size="4.8" font-style="italic" lengthAdjust="spacing" textLength="34" x="22.2" y="31.1641">&#171;Value Object&#187;</text><text fill="#000000" font-family="sans-serif" font-size="5.6" lengthAdjust="spacing" textLength="35.2" x="21.6" y="38.4117">JobInterviewId</text><line style="stroke:#181818;stroke-width:0.20000000000000004;" x1="10.4" x2="57.6" y1="41.8172" y2="41.8172"/></g><!--class InterviewDate--><g id="elem_InterviewDate"><rect codeLine="78" fill="#F1F1F1" height="21.0328" id="InterviewDate" rx="1" ry="1" style="stroke:#181818;stroke-width:0.20000000000000004;" width="46.8" x="72.2" y="20.8"/><ellipse cx="78.2" cy="29.7164" fill="#ADD1B2" rx="4.4" ry="4.4" style="stroke:#181818;stroke-width:0.4000000000000001;"/><path d="M79.3063,28.0664 Q79.3688,27.9789 79.4438,27.9352 Q79.5188,27.8914 79.6063,27.8914 Q79.7563,27.8914 79.85,27.9977 Q79.9438,28.0977 79.9438,28.3414 L79.9438,28.9227 Q79.9438,29.1664 79.85,29.2727 Q79.7563,29.3789 79.6063,29.3789 Q79.4688,29.3789 79.3875,29.2977 Q79.3063,29.2227 79.2625,29.0164 Q79.2438,28.8727 79.1688,28.7977 Q79.0375,28.6477 78.7938,28.5602 Q78.55,28.4727 78.3,28.4727 Q77.9938,28.4727 77.7375,28.6039 Q77.4875,28.7352 77.2875,29.0352 Q77.0938,29.3352 77.0938,29.7477 L77.0938,30.1852 Q77.0938,30.6789 77.45,31.0102 Q77.8063,31.3352 78.4438,31.3352 Q78.8188,31.3352 79.0813,31.2352 Q79.2375,31.1727 79.4063,30.9977 Q79.5125,30.8914 79.5688,30.8602 Q79.6313,30.8289 79.7125,30.8289 Q79.8438,30.8289 79.9438,30.9352 Q80.05,31.0352 80.05,31.1727 Q80.05,31.3102 79.9125,31.4727 Q79.7125,31.7039 79.3938,31.8352 Q78.9625,32.0164 78.4438,32.0164 Q77.8375,32.0164 77.3563,31.7664 Q76.9625,31.5664 76.6875,31.1414 Q76.4125,30.7102 76.4125,30.1977 L76.4125,29.7352 Q76.4125,29.2039 76.6563,28.7477 Q76.9063,28.2852 77.3438,28.0414 Q77.7813,27.7914 78.275,27.7914 Q78.5688,27.7914 78.825,27.8602 Q79.0875,27.9227 79.3063,28.0664 Z " fill="#000000"/><text fill="#000000" font-family="sans-serif" font-size="4.8" font-style="italic" lengthAdjust="spacing" textLength="34" x="83.8" y="27.9797">&#171;Value Object&#187;</text><text fill="#000000" font-family="sans-serif" font-size="5.6" lengthAdjust="spacing" textLength="34" x="83.8" y="35.2273">InterviewDate</text><line style="stroke:#181818;stroke-width:0.20000000000000004;" x1="72.6" x2="118.6" y1="38.6328" y2="38.6328"/></g><!--class InterviewTime--><g id="elem_InterviewTime"><rect codeLine="79" fill="#F1F1F1" height="21.0328" id="InterviewTime" rx="1" ry="1" style="stroke:#181818;stroke-width:0.20000000000000004;" width="47.2" x="9.2" y="134"/><ellipse cx="15.2" cy="142.9164" fill="#ADD1B2" rx="4.4" ry="4.4" style="stroke:#181818;stroke-width:0.4000000000000001;"/><path d="M16.3063,141.2664 Q16.3688,141.1789 16.4438,141.1352 Q16.5188,141.0914 16.6063,141.0914 Q16.7563,141.0914 16.85,141.1977 Q16.9438,141.2977 16.9438,141.5414 L16.9438,142.1227 Q16.9438,142.3664 16.85,142.4727 Q16.7563,142.5789 16.6063,142.5789 Q16.4688,142.5789 16.3875,142.4977 Q16.3063,142.4227 16.2625,142.2164 Q16.2438,142.0727 16.1688,141.9977 Q16.0375,141.8477 15.7938,141.7602 Q15.55,141.6727 15.3,141.6727 Q14.9938,141.6727 14.7375,141.8039 Q14.4875,141.9352 14.2875,142.2352 Q14.0938,142.5352 14.0938,142.9477 L14.0938,143.3852 Q14.0938,143.8789 14.45,144.2102 Q14.8063,144.5352 15.4438,144.5352 Q15.8188,144.5352 16.0813,144.4352 Q16.2375,144.3727 16.4063,144.1977 Q16.5125,144.0914 16.5688,144.0602 Q16.6313,144.0289 16.7125,144.0289 Q16.8438,144.0289 16.9438,144.1352 Q17.05,144.2352 17.05,144.3727 Q17.05,144.5102 16.9125,144.6727 Q16.7125,144.9039 16.3938,145.0352 Q15.9625,145.2164 15.4438,145.2164 Q14.8375,145.2164 14.3563,144.9664 Q13.9625,144.7664 13.6875,144.3414 Q13.4125,143.9102 13.4125,143.3977 L13.4125,142.9352 Q13.4125,142.4039 13.6563,141.9477 Q13.9063,141.4852 14.3438,141.2414 Q14.7813,140.9914 15.275,140.9914 Q15.5688,140.9914 15.825,141.0602 Q16.0875,141.1227 16.3063,141.2664 Z " fill="#000000"/><text fill="#000000" font-family="sans-serif" font-size="4.8" font-style="italic" lengthAdjust="spacing" textLength="34" x="21" y="141.1797">&#171;Value Object&#187;</text><text fill="#000000" font-family="sans-serif" font-size="5.6" lengthAdjust="spacing" textLength="34.4" x="20.8" y="148.4273">InterviewTime</text><line style="stroke:#181818;stroke-width:0.20000000000000004;" x1="9.6" x2="56" y1="151.8328" y2="151.8328"/></g><!--class Score--><g id="elem_Score"><rect codeLine="80" fill="#F1F1F1" height="21.0328" id="Score" rx="1" ry="1" style="stroke:#181818;stroke-width:0.20000000000000004;" width="45.2" x="76.2" y="72.8"/><ellipse cx="82.2" cy="81.7164" fill="#ADD1B2" rx="4.4" ry="4.4" style="stroke:#181818;stroke-width:0.4000000000000001;"/><path d="M83.3063,80.0664 Q83.3688,79.9789 83.4438,79.9352 Q83.5188,79.8914 83.6063,79.8914 Q83.7563,79.8914 83.85,79.9977 Q83.9438,80.0977 83.9438,80.3414 L83.9438,80.9227 Q83.9438,81.1664 83.85,81.2727 Q83.7563,81.3789 83.6063,81.3789 Q83.4688,81.3789 83.3875,81.2977 Q83.3063,81.2227 83.2625,81.0164 Q83.2438,80.8727 83.1688,80.7977 Q83.0375,80.6477 82.7938,80.5602 Q82.55,80.4727 82.3,80.4727 Q81.9938,80.4727 81.7375,80.6039 Q81.4875,80.7352 81.2875,81.0352 Q81.0938,81.3352 81.0938,81.7477 L81.0938,82.1852 Q81.0938,82.6789 81.45,83.0102 Q81.8063,83.3352 82.4438,83.3352 Q82.8188,83.3352 83.0813,83.2352 Q83.2375,83.1727 83.4063,82.9977 Q83.5125,82.8914 83.5688,82.8602 Q83.6313,82.8289 83.7125,82.8289 Q83.8438,82.8289 83.9438,82.9352 Q84.05,83.0352 84.05,83.1727 Q84.05,83.3102 83.9125,83.4727 Q83.7125,83.7039 83.3938,83.8352 Q82.9625,84.0164 82.4438,84.0164 Q81.8375,84.0164 81.3563,83.7664 Q80.9625,83.5664 80.6875,83.1414 Q80.4125,82.7102 80.4125,82.1977 L80.4125,81.7352 Q80.4125,81.2039 80.6563,80.7477 Q80.9063,80.2852 81.3438,80.0414 Q81.7813,79.7914 82.275,79.7914 Q82.5688,79.7914 82.825,79.8602 Q83.0875,79.9227 83.3063,80.0664 Z " fill="#000000"/><text fill="#000000" font-family="sans-serif" font-size="4.8" font-style="italic" lengthAdjust="spacing" textLength="34" x="87" y="79.9797">&#171;Value Object&#187;</text><text fill="#000000" font-family="sans-serif" font-size="5.6" lengthAdjust="spacing" textLength="14.8" x="96.6" y="87.2273">Score</text><line style="stroke:#181818;stroke-width:0.20000000000000004;" x1="76.6" x2="121" y1="90.6328" y2="90.6328"/></g><!--class InterviewResult--><g id="elem_InterviewResult"><rect codeLine="81" fill="#F1F1F1" height="21.0328" id="InterviewResult" rx="1" ry="1" style="stroke:#181818;stroke-width:0.20000000000000004;" width="50.8" x="70.6" y="134"/><ellipse cx="76.6" cy="142.9164" fill="#ADD1B2" rx="4.4" ry="4.4" style="stroke:#181818;stroke-width:0.4000000000000001;"/><path d="M77.7063,141.2664 Q77.7688,141.1789 77.8438,141.1352 Q77.9188,141.0914 78.0063,141.0914 Q78.1563,141.0914 78.25,141.1977 Q78.3438,141.2977 78.3438,141.5414 L78.3438,142.1227 Q78.3438,142.3664 78.25,142.4727 Q78.1563,142.5789 78.0063,142.5789 Q77.8688,142.5789 77.7875,142.4977 Q77.7063,142.4227 77.6625,142.2164 Q77.6438,142.0727 77.5688,141.9977 Q77.4375,141.8477 77.1938,141.7602 Q76.95,141.6727 76.7,141.6727 Q76.3938,141.6727 76.1375,141.8039 Q75.8875,141.9352 75.6875,142.2352 Q75.4938,142.5352 75.4938,142.9477 L75.4938,143.3852 Q75.4938,143.8789 75.85,144.2102 Q76.2063,144.5352 76.8438,144.5352 Q77.2188,144.5352 77.4813,144.4352 Q77.6375,144.3727 77.8063,144.1977 Q77.9125,144.0914 77.9688,144.0602 Q78.0313,144.0289 78.1125,144.0289 Q78.2438,144.0289 78.3438,144.1352 Q78.45,144.2352 78.45,144.3727 Q78.45,144.5102 78.3125,144.6727 Q78.1125,144.9039 77.7938,145.0352 Q77.3625,145.2164 76.8438,145.2164 Q76.2375,145.2164 75.7563,144.9664 Q75.3625,144.7664 75.0875,144.3414 Q74.8125,143.9102 74.8125,143.3977 L74.8125,142.9352 Q74.8125,142.4039 75.0563,141.9477 Q75.3063,141.4852 75.7438,141.2414 Q76.1813,140.9914 76.675,140.9914 Q76.9688,140.9914 77.225,141.0602 Q77.4875,141.1227 77.7063,141.2664 Z " fill="#000000"/><text fill="#000000" font-family="sans-serif" font-size="4.8" font-style="italic" lengthAdjust="spacing" textLength="34" x="84.2" y="141.1797">&#171;Value Object&#187;</text><text fill="#000000" font-family="sans-serif" font-size="5.6" lengthAdjust="spacing" textLength="38" x="82.2" y="148.4273">InterviewResult</text><line style="stroke:#181818;stroke-width:0.20000000000000004;" x1="71" x2="121" y1="151.8328" y2="151.8328"/></g><!--reverse link JobInterviewId to JobInterview--><g id="link_JobInterviewId_JobInterview"><path codeLine="85" d="M34.7437,47.6494 C35.0917,55.1174 35.416,61.98 35.764,69.46 " fill="none" id="JobInterviewId-backto-JobInterview" style="stroke:#181818;stroke-width:0.4000000000000001;"/><polygon fill="#181818" points="34.632,45.252,33.2013,48.9226,34.7251,47.2498,36.3978,48.7736,34.632,45.252" style="stroke:#181818;stroke-width:0.4000000000000001;"/><text fill="#000000" font-family="sans-serif" font-size="5.2" lengthAdjust="spacing" textLength="2.8" x="31.7" y="53.8542">1</text><text fill="#000000" font-family="sans-serif" font-size="5.2" lengthAdjust="spacing" textLength="2.8" x="32.5886" y="65.1018">1</text></g><!--reverse link InterviewDate to JobInterview--><g id="link_InterviewDate_JobInterview"><path codeLine="86" d="M81.9487,43.6099 C72.8047,51.5179 61.884,60.96 51.924,69.572 " fill="none" id="InterviewDate-backto-JobInterview" style="stroke:#181818;stroke-width:0.4000000000000001;"/><polygon fill="#181818" points="83.764,42.04,79.9944,43.1847,82.2512,43.3483,82.0877,45.6051,83.764,42.04" style="stroke:#181818;stroke-width:0.4000000000000001;"/><text fill="#000000" font-family="sans-serif" font-size="5.2" lengthAdjust="spacing" textLength="2.8" x="78.2341" y="50.5763">1</text><text fill="#000000" font-family="sans-serif" font-size="5.2" lengthAdjust="spacing" textLength="2.8" x="51.8164" y="65.1278">1</text></g><!--link JobInterview to InterviewTime--><g id="link_JobInterview_InterviewTime"><path codeLine="87" d="M35.6,97.204 C34.944,108.256 34.1629,121.3123 33.5589,131.4363 " fill="none" id="JobInterview-to-InterviewTime" style="stroke:#181818;stroke-width:0.4000000000000001;"/><polygon fill="#181818" points="33.416,133.832,35.2276,130.3337,33.5351,131.8355,32.0332,130.1431,33.416,133.832" style="stroke:#181818;stroke-width:0.4000000000000001;"/><text fill="#000000" font-family="sans-serif" font-size="5.2" lengthAdjust="spacing" textLength="2.8" x="32.4219" y="105.798">1</text><text fill="#000000" font-family="sans-serif" font-size="5.2" lengthAdjust="spacing" textLength="2.8" x="30.4445" y="129.5751">1</text></g><!--link JobInterview to Score--><g id="link_JobInterview_Score"><path codeLine="88" d="M62.116,83.4 C66.796,83.4 69.076,83.4 73.76,83.4 " fill="none" id="JobInterview-to-Score" style="stroke:#181818;stroke-width:0.4000000000000001;"/><polygon fill="#181818" points="76.16,83.4,72.56,81.8,74.16,83.4,72.56,85,76.16,83.4" style="stroke:#181818;stroke-width:0.4000000000000001;"/><text fill="#000000" font-family="sans-serif" font-size="5.2" lengthAdjust="spacing" textLength="2.8" x="65.2513" y="81.8355">1</text><text fill="#000000" font-family="sans-serif" font-size="5.2" lengthAdjust="spacing" textLength="2.8" x="70.1296" y="81.7735">1</text></g><!--link JobInterview to InterviewResult--><g id="link_JobInterview_InterviewResult"><path codeLine="89" d="M49.628,97.204 C60.532,108.256 74.0945,121.9995 84.0825,132.1235 " fill="none" id="JobInterview-to-InterviewResult" style="stroke:#181818;stroke-width:0.4000000000000001;"/><polygon fill="#181818" points="85.768,133.832,84.3787,130.1456,84.3634,132.4083,82.1007,132.393,85.768,133.832" style="stroke:#181818;stroke-width:0.4000000000000001;"/><text fill="#000000" font-family="sans-serif" font-size="5.2" lengthAdjust="spacing" textLength="2.8" x="48.8609" y="105.798">1</text><text fill="#000000" font-family="sans-serif" font-size="5.2" lengthAdjust="spacing" textLength="2.8" x="80.4235" y="129.5751">1</text></g><!--reverse link JobInterview to Application--><g id="link_JobInterview_Application"><path codeLine="91" d="M64.435,95.7472 C66.791,96.5792 66.892,96.544 69.2,97.2 C161.464,123.392 275.136,136.84 325.14,141.848 " fill="none" id="JobInterview-backto-Application" style="stroke:#181818;stroke-width:0.4000000000000001;"/><polygon fill="#181818" points="62.172,94.948,65.0338,97.6554,64.0579,95.614,66.0993,94.6381,62.172,94.948" style="stroke:#181818;stroke-width:0.4000000000000001;"/><text fill="#000000" font-family="sans-serif" font-size="5.2" lengthAdjust="spacing" textLength="2.8" x="65.1439" y="94.6669">1</text><text fill="#000000" font-family="sans-serif" font-size="5.2" lengthAdjust="spacing" textLength="2.8" x="319.2112" y="139.9653">1</text></g><!--link JobOpening to JobReference--><g id="link_JobOpening_JobReference"><path codeLine="96" d="M464.796,374.08 C444.084,381.524 414.22,392.48 388.4,402.8 C386.1,403.72 385.93,403.7695 383.55,404.7655 " fill="none" id="JobOpening-to-JobReference" style="stroke:#181818;stroke-width:0.4000000000000001;"/><polygon fill="#181818" points="381.336,405.692,385.2746,405.7782,383.181,404.9199,384.0393,402.8263,381.336,405.692" style="stroke:#181818;stroke-width:0.4000000000000001;"/><text fill="#000000" font-family="sans-serif" font-size="5.2" lengthAdjust="spacing" textLength="2.8" x="458.8737" y="373.6116">1</text><text fill="#000000" font-family="sans-serif" font-size="5.2" lengthAdjust="spacing" textLength="2.8" x="384.4482" y="402.7778">1</text></g><!--link JobOpening to TitleOrFunction--><g id="link_JobOpening_TitleOrFunction"><path codeLine="97" d="M472.22,378.452 C460.564,387.076 447.6094,396.6606 436.9254,404.5646 " fill="none" id="JobOpening-to-TitleOrFunction" style="stroke:#181818;stroke-width:0.4000000000000001;"/><polygon fill="#181818" points="434.996,405.992,438.8417,405.1372,436.6038,404.8025,436.9385,402.5647,434.996,405.992" style="stroke:#181818;stroke-width:0.4000000000000001;"/><text fill="#000000" font-family="sans-serif" font-size="5.2" lengthAdjust="spacing" textLength="2.8" x="466.0547" y="387.0542">1</text><text fill="#000000" font-family="sans-serif" font-size="5.2" lengthAdjust="spacing" textLength="2.8" x="435.2175" y="401.4234">1</text></g><!--reverse link ContractType to JobOpening--><g id="link_ContractType_JobOpening"><path codeLine="98" d="M490.4,325.284 C490.4,334.46 490.4,342.572 490.4,350.696 " fill="none" id="ContractType-backto-JobOpening" style="stroke:#181818;stroke-width:0.4000000000000001;"/><polygon fill="#181818" points="490.4,322.884,488.8,326.484,490.4,324.884,492,326.484,490.4,322.884" style="stroke:#181818;stroke-width:0.4000000000000001;"/><text fill="#000000" font-family="sans-serif" font-size="5.2" lengthAdjust="spacing" textLength="2.8" x="487.4294" y="331.516">1</text><text fill="#000000" font-family="sans-serif" font-size="5.2" lengthAdjust="spacing" textLength="2.8" x="487.3419" y="346.3445">1</text></g><!--reverse link Mode to JobOpening--><g id="link_Mode_JobOpening"><path codeLine="99" d="M454.3355,327.0582 C462.6355,335.6102 470.076,343.272 477.268,350.676 " fill="none" id="Mode-backto-JobOpening" style="stroke:#181818;stroke-width:0.4000000000000001;"/><polygon fill="#181818" points="452.664,325.336,454.0231,329.0337,454.0569,326.7712,456.3194,326.805,452.664,325.336" style="stroke:#181818;stroke-width:0.4000000000000001;"/><text fill="#000000" font-family="sans-serif" font-size="5.2" lengthAdjust="spacing" textLength="2.8" x="455.7472" y="326.7499">1</text><text fill="#000000" font-family="sans-serif" font-size="5.2" lengthAdjust="spacing" textLength="2.8" x="471.7887" y="346.3208">1</text></g><!--link JobOpening to Description--><g id="link_JobOpening_Description"><path codeLine="100" d="M507.74,378.452 C518.856,387.076 531.1558,396.6169 541.3438,404.5209 " fill="none" id="JobOpening-to-Description" style="stroke:#181818;stroke-width:0.4000000000000001;"/><polygon fill="#181818" points="543.24,405.992,541.3764,402.5211,541.6598,404.7661,539.4149,405.0495,543.24,405.992" style="stroke:#181818;stroke-width:0.4000000000000001;"/><text fill="#000000" font-family="sans-serif" font-size="5.2" lengthAdjust="spacing" textLength="2.8" x="507.6797" y="387.0542">1</text><text fill="#000000" font-family="sans-serif" font-size="5.2" lengthAdjust="spacing" textLength="2.8" x="536.891" y="401.4234">1</text></g><!--link JobOpening to VacanciesNumber--><g id="link_JobOpening_VacanciesNumber"><path codeLine="101" d="M490.4,378.452 C490.4,387.044 490.4,395.612 490.4,403.512 " fill="none" id="JobOpening-to-VacanciesNumber" style="stroke:#181818;stroke-width:0.4000000000000001;"/><polygon fill="#181818" points="490.4,405.912,492,402.312,490.4,403.912,488.8,402.312,490.4,405.912" style="stroke:#181818;stroke-width:0.4000000000000001;"/><text fill="#000000" font-family="sans-serif" font-size="5.2" lengthAdjust="spacing" textLength="2.8" x="487.3594" y="387.0542">1</text><text fill="#000000" font-family="sans-serif" font-size="5.2" lengthAdjust="spacing" textLength="2.8" x="487.2763" y="401.4983">1</text></g><!--link Candidate to CandidateId--><g id="link_Candidate_CandidateId"><path codeLine="103" d="M581.264,158.452 C580.856,165.92 580.4787,172.7836 580.0707,180.2636 " fill="none" id="Candidate-to-CandidateId" style="stroke:#181818;stroke-width:0.4000000000000001;"/><polygon fill="#181818" points="579.94,182.66,581.7337,179.1525,580.0489,180.663,578.5384,178.9782,579.94,182.66" style="stroke:#181818;stroke-width:0.4000000000000001;"/><text fill="#000000" font-family="sans-serif" font-size="5.2" lengthAdjust="spacing" textLength="2.8" x="578.0969" y="167.0542">1</text><text fill="#000000" font-family="sans-serif" font-size="5.2" lengthAdjust="spacing" textLength="2.8" x="577.0183" y="178.3018">1</text></g><!--link Candidate to CurriculumVitae--><g id="link_Candidate_CurriculumVitae"><path codeLine="104" d="M597.868,158.452 C608.004,167.044 619.1135,176.4598 628.4295,184.3598 " fill="none" id="Candidate-to-CurriculumVitae" style="stroke:#181818;stroke-width:0.4000000000000001;"/><polygon fill="#181818" points="630.26,185.912,628.5491,182.3633,628.7346,184.6185,626.4795,184.804,630.26,185.912" style="stroke:#181818;stroke-width:0.4000000000000001;"/><text fill="#000000" font-family="sans-serif" font-size="5.2" lengthAdjust="spacing" textLength="2.8" x="597.5547" y="167.0542">1</text><text fill="#000000" font-family="sans-serif" font-size="5.2" lengthAdjust="spacing" textLength="2.8" x="624.3289" y="181.4983">1</text></g><!--link Application to ApplicationId--><g id="link_Application_ApplicationId"><path codeLine="107" d="M325.188,149.82 C294.296,155.964 241.004,167.64 196.8,182.8 C194.424,183.616 194.2032,183.64 191.7832,184.624 " fill="none" id="Application-to-ApplicationId" style="stroke:#181818;stroke-width:0.4000000000000001;"/><polygon fill="#181818" points="189.56,185.528,193.4975,185.6542,191.4127,184.7747,192.2922,182.6898,189.56,185.528" style="stroke:#181818;stroke-width:0.4000000000000001;"/><text fill="#000000" font-family="sans-serif" font-size="5.2" lengthAdjust="spacing" textLength="2.8" x="319.2647" y="148.8591">1</text><text fill="#000000" font-family="sans-serif" font-size="5.2" lengthAdjust="spacing" textLength="2.8" x="192.6555" y="182.5043">1</text></g><!--link Application to AttachedEmail--><g id="link_Application_AttachedEmail"><path codeLine="108" d="M325.028,155.616 C306.748,163.16 281.652,173.556 259.6,182.8 C257.18,183.812 256.8717,183.9442 254.3557,185.0042 " fill="none" id="Application-to-AttachedEmail" style="stroke:#181818;stroke-width:0.4000000000000001;"/><polygon fill="#181818" points="252.144,185.936,256.0828,186.0128,253.9871,185.1595,254.8404,183.0638,252.144,185.936" style="stroke:#181818;stroke-width:0.4000000000000001;"/><text fill="#000000" font-family="sans-serif" font-size="5.2" lengthAdjust="spacing" textLength="2.8" x="319.2561" y="162.8204">1</text><text fill="#000000" font-family="sans-serif" font-size="5.2" lengthAdjust="spacing" textLength="2.8" x="254.6036" y="181.5278">1</text></g><!--link Application to AttachedFile--><g id="link_Application_AttachedFile"><path codeLine="109" d="M334.616,158.452 C324.276,167.044 312.9253,176.4775 303.4253,184.3775 " fill="none" id="Application-to-AttachedFile" style="stroke:#181818;stroke-width:0.4000000000000001;"/><polygon fill="#181818" points="301.58,185.912,305.371,184.8404,303.1178,184.6332,303.325,182.38,301.58,185.912" style="stroke:#181818;stroke-width:0.4000000000000001;"/><text fill="#000000" font-family="sans-serif" font-size="5.2" lengthAdjust="spacing" textLength="2.8" x="328.7938" y="167.0542">1</text><text fill="#000000" font-family="sans-serif" font-size="5.2" lengthAdjust="spacing" textLength="2.8" x="301.3191" y="181.4983">1</text></g><!--link Application to ApplicatorData--><g id="link_Application_ApplicatorData"><path codeLine="110" d="M350.8,158.452 C350.8,167.044 350.8,175.612 350.8,183.512 " fill="none" id="Application-to-ApplicatorData" style="stroke:#181818;stroke-width:0.4000000000000001;"/><polygon fill="#181818" points="350.8,185.912,352.4,182.312,350.8,183.912,349.2,182.312,350.8,185.912" style="stroke:#181818;stroke-width:0.4000000000000001;"/><text fill="#000000" font-family="sans-serif" font-size="5.2" lengthAdjust="spacing" textLength="2.8" x="347.7594" y="167.0542">1</text><text fill="#000000" font-family="sans-serif" font-size="5.2" lengthAdjust="spacing" textLength="2.8" x="347.6763" y="181.4983">1</text></g><!--link Application to JobOpening--><g id="link_Application_JobOpening"><path codeLine="111" d="M376.44,146.752 C427.108,150.924 535.2,163.64 535.2,196.2 C535.2,196.2 535.2,196.2 535.2,302 C535.2,321.628 522.1054,337.6753 509.4974,349.1153 " fill="none" id="Application-to-JobOpening" style="stroke:#181818;stroke-width:0.4000000000000001;"/><polygon fill="#181818" points="507.72,350.728,511.4612,349.4938,509.2012,349.3841,509.3109,347.124,507.72,350.728" style="stroke:#181818;stroke-width:0.4000000000000001;"/><text fill="#000000" font-family="sans-serif" font-size="5.2" lengthAdjust="spacing" textLength="30" x="535.6" y="241.6113">submitted for</text><text fill="#000000" font-family="sans-serif" font-size="5.2" lengthAdjust="spacing" textLength="2" x="379.5203" y="153.0226">*</text><text fill="#000000" font-family="sans-serif" font-size="5.2" lengthAdjust="spacing" textLength="2.8" x="507.9548" y="346.2754">1</text></g><!--link Application to Candidate--><g id="link_Application_Candidate"><path codeLine="112" d="M376.424,144.6 C420.868,144.6 509.34,144.6 553.86,144.6 " fill="none" id="Application-to-Candidate" style="stroke:#181818;stroke-width:0.4000000000000001;"/><polygon fill="#181818" points="556.26,144.6,552.66,143,554.26,144.6,552.66,146.2,556.26,144.6" style="stroke:#181818;stroke-width:0.4000000000000001;"/><text fill="#000000" font-family="sans-serif" font-size="5.2" lengthAdjust="spacing" textLength="30" x="451.4" y="141.8113">submitted by</text><text fill="#000000" font-family="sans-serif" font-size="5.2" lengthAdjust="spacing" textLength="2.8" x="379.5487" y="143.0355">1</text><text fill="#000000" font-family="sans-serif" font-size="5.2" lengthAdjust="spacing" textLength="2.8" x="550.3219" y="143.0355">1</text></g><!--link Application to ApplicationStatus--><g id="link_Application_ApplicationStatus"><path codeLine="113" d="M368.456,158.452 C379.772,167.076 392.3191,176.6333 402.6911,184.5373 " fill="none" id="Application-to-ApplicationStatus" style="stroke:#181818;stroke-width:0.4000000000000001;"/><polygon fill="#181818" points="404.6,185.992,402.7064,182.5374,403.0092,184.7798,400.7669,185.0826,404.6,185.992" style="stroke:#181818;stroke-width:0.4000000000000001;"/><text fill="#000000" font-family="sans-serif" font-size="5.2" lengthAdjust="spacing" textLength="2.8" x="368.45" y="167.0542">1</text><text fill="#000000" font-family="sans-serif" font-size="5.2" lengthAdjust="spacing" textLength="2.8" x="398.1925" y="181.4234">1</text></g><!--link Application to ApplicationRank--><g id="link_Application_ApplicationRank"><path codeLine="114" d="M376.424,154.284 C397.172,161.84 427.128,172.852 453.2,182.8 C455.868,183.816 456.4117,184.0207 459.1837,185.1007 " fill="none" id="Application-to-ApplicationRank" style="stroke:#181818;stroke-width:0.4000000000000001;"/><polygon fill="#181818" points="461.42,185.972,458.6464,183.1742,459.5564,185.2459,457.4848,186.1559,461.42,185.972" style="stroke:#181818;stroke-width:0.4000000000000001;"/><text fill="#000000" font-family="sans-serif" font-size="5.2" lengthAdjust="spacing" textLength="2.8" x="379.5487" y="161.4255">1</text><text fill="#000000" font-family="sans-serif" font-size="5.2" lengthAdjust="spacing" textLength="8.8" x="448.3759" y="182.8306">0..1</text></g><!--reverse link JobOpeningProcessId to JobOpeningProcess--><g id="link_JobOpeningProcessId_JobOpeningProcess"><path codeLine="117" d="M556.864,535.4 C561.528,535.4 563.792,535.4 568.46,535.4 " fill="none" id="JobOpeningProcessId-backto-JobOpeningProcess" style="stroke:#181818;stroke-width:0.4000000000000001;"/><polygon fill="#181818" points="554.464,535.4,558.064,537,556.464,535.4,558.064,533.8,554.464,535.4" style="stroke:#181818;stroke-width:0.4000000000000001;"/><text fill="#000000" font-family="sans-serif" font-size="5.2" lengthAdjust="spacing" textLength="2.8" x="557.6225" y="533.9218">1</text><text fill="#000000" font-family="sans-serif" font-size="5.2" lengthAdjust="spacing" textLength="2.8" x="562.5865" y="533.9117">1</text></g><!--link JobOpening to JobOpeningProcess--><g id="link_JobOpening_JobOpeningProcess"><path codeLine="118" d="M516.052,366.024 C548.556,368.86 600.4,379.18 600.4,416.2 C600.4,416.2 600.4,416.2 600.4,488 C600.4,499.3 600.4,509.732 600.4,519.128 " fill="none" id="JobOpening-to-JobOpeningProcess" style="stroke:#181818;stroke-width:0.4000000000000001;"/><polygon fill="#181818" points="600.4,521.528,602,517.928,600.4,519.528,598.8,517.928,600.4,521.528" style="stroke:#181818;stroke-width:0.4000000000000001;"/><text fill="#000000" font-family="sans-serif" font-size="5.2" lengthAdjust="spacing" textLength="8.4" x="600.8" y="461.6113">has</text><text fill="#000000" font-family="sans-serif" font-size="5.2" lengthAdjust="spacing" textLength="2.8" x="519.1799" y="364.6242">1</text><text fill="#000000" font-family="sans-serif" font-size="5.2" lengthAdjust="spacing" textLength="2" x="598.2094" y="517.0754">*</text></g><!--link JobOpeningProcess to Phase--><g id="link_JobOpeningProcess_Phase"><path codeLine="119" d="M600.4,549.3 C600.4,557.008 600.4,564.116 600.4,571.196 " fill="none" id="JobOpeningProcess-to-Phase" style="stroke:#181818;stroke-width:0.4000000000000001;"/><polygon fill="#181818" points="600.4,573.596,602,569.996,600.4,571.596,598.8,569.996,600.4,573.596" style="stroke:#181818;stroke-width:0.4000000000000001;"/><text fill="#000000" font-family="sans-serif" font-size="5.2" lengthAdjust="spacing" textLength="2.8" x="597.3681" y="557.8014">1</text><text fill="#000000" font-family="sans-serif" font-size="5.2" lengthAdjust="spacing" textLength="2.8" x="597.2588" y="569.0284">1</text></g><!--link Phase to PhaseType--><g id="link_Phase_PhaseType"><path codeLine="120" d="M600.4,594.86 C600.4,601.428 600.4,607.94 600.4,616.74 " fill="none" id="Phase-to-PhaseType" style="stroke:#181818;stroke-width:0.4000000000000001;"/><polygon fill="#181818" points="600.4,619.14,602,615.54,600.4,617.14,598.8,615.54,600.4,619.14" style="stroke:#181818;stroke-width:0.4000000000000001;"/><text fill="#000000" font-family="sans-serif" font-size="5.2" lengthAdjust="spacing" textLength="2.8" x="597.3113" y="603.4004">1</text><text fill="#000000" font-family="sans-serif" font-size="5.2" lengthAdjust="spacing" textLength="2.8" x="597.4709" y="614.6573">1</text></g><!--SRC=[bPLTRvim58Rl_IkixA9IfQJRROKYiOHkJ2c9W6RgrMJCAV76bupPL5NzxxE149D0e5n4mJpliS-7pxav294NztTtUKnIKIRnWcR97Or9KSn3HY9E4eGEB0ISW3XaOO4G1of86iM0Pp-o06zpI5aQpV2d8A2K4Fo649PFPGDBeW4CmumY3X4HWDqi4ykbOLYfOE9rkNnxFzEuy08SKWg6OOVGK8Qn9t49U1lybaSuL_bCnB3b3sLA1SlI8HZICi6hB1MSKE6_vg1EKIR0vRd2dZqgaNeUdZQRNxxzQBKhEzFrJokw_SSid6pNjHwt_iderfbxjlR-_VchQw_RLxcBvlEUK99I1eLJ9W7mwm5QGq4vouU2eoptfnQRUHupIfHIffaGIeEWcsQDc9vdJMI7qnDj2a7e0K8h8IoUXZwm64R8vYmPNnD1fh7ot9uWeYmcuov9_up7NkOqPA6AduorkbHlchNLyUD8d7iKeq7MD2NdZ9PncUoP87snKqSUgfSTpoWKXQmLLIdTyvyQGaDDzkD2EUhFpHNnOEP6H15S3TpkG0hG7D0kRjiTAkOZhSVSxJRsolJjhTEkUIlNiXpR-TQks8vlkNlR-kcTX8wvUVPiJsistjF6R_hL-s02xLG0_ylWNvF2ggjtuj8I-2FvQrKVACLMiwwAVWhfi-GwwT6CJxJbGb76Ok02T08n-pB3ypAVBwj_NM-laHq7Uy1pJ7dNWzLKvTa48xLR26dDwOe3wguZVInNXA7W8zkK3ZeRmyEWFeCRwe9HStJecpREXZSv6v3386gxfFfo39VMEWU0Rfz4FG5joCwm6wRqsJPAgR4skc4zqRhOhSBcyrEcZnV_7XTba30X6n9-oVYbyREuT0J1wnJlwyRRJtvUBBgm6fXrwNKRSIs9uKLS-D0E1qtLx51xVDj3IpzaKnxQfzcZwjke-hrSLsMC_WC0]--></g></svg>