<?xml version="1.0" encoding="us-ascii" standalone="no"?><svg xmlns="http://www.w3.org/2000/svg" xmlns:xlink="http://www.w3.org/1999/xlink" contentStyleType="text/css" height="728px" preserveAspectRatio="none" style="width:711px;height:728px;background:#FFFFFF;" version="1.1" viewBox="0 0 711 728" width="711px" zoomAndPan="magnify"><defs/><g><!--cluster ui--><g id="cluster_ui"><path d="M20.5,6.0137 L34.5,6.0137 A3.75,3.75 0 0 1 37,8.5137 L44,30.6348 L253.5,30.6348 A2.5,2.5 0 0 1 256,33.1348 L256,249.5137 A2.5,2.5 0 0 1 253.5,252.0137 L20.5,252.0137 A2.5,2.5 0 0 1 18,249.5137 L18,8.5137 A2.5,2.5 0 0 1 20.5,6.0137 " fill="none" style="stroke:#000000;stroke-width:1.5;"/><line style="stroke:#000000;stroke-width:1.5;" x1="18" x2="44" y1="30.6348" y2="30.6348"/><text fill="#000000" font-family="sans-serif" font-size="14" font-weight="bold" lengthAdjust="spacing" textLength="13" x="22" y="23.1211">ui</text></g><!--cluster application--><g id="cluster_application"><path d="M8.5,276.0137 L86.5,276.0137 A3.75,3.75 0 0 1 89,278.5137 L96,300.6348 L462.5,300.6348 A2.5,2.5 0 0 1 465,303.1348 L465,411.5137 A2.5,2.5 0 0 1 462.5,414.0137 L8.5,414.0137 A2.5,2.5 0 0 1 6,411.5137 L6,278.5137 A2.5,2.5 0 0 1 8.5,276.0137 " fill="none" style="stroke:#000000;stroke-width:1.5;"/><line style="stroke:#000000;stroke-width:1.5;" x1="6" x2="96" y1="300.6348" y2="300.6348"/><text fill="#000000" font-family="sans-serif" font-size="14" font-weight="bold" lengthAdjust="spacing" textLength="77" x="10" y="293.1211">application</text></g><!--cluster repository--><g id="cluster_repository"><path d="M14.5,447.0137 L87.5,447.0137 A3.75,3.75 0 0 1 90,449.5137 L97,471.6348 L207.5,471.6348 A2.5,2.5 0 0 1 210,474.1348 L210,564.5137 A2.5,2.5 0 0 1 207.5,567.0137 L14.5,567.0137 A2.5,2.5 0 0 1 12,564.5137 L12,449.5137 A2.5,2.5 0 0 1 14.5,447.0137 " fill="none" style="stroke:#000000;stroke-width:1.5;"/><line style="stroke:#000000;stroke-width:1.5;" x1="12" x2="97" y1="471.6348" y2="471.6348"/><text fill="#000000" font-family="sans-serif" font-size="14" font-weight="bold" lengthAdjust="spacing" textLength="72" x="16" y="464.1211">repository</text></g><!--cluster domain--><g id="cluster_domain"><path d="M236.5,438.0137 L288.5,438.0137 A3.75,3.75 0 0 1 291,440.5137 L298,462.6348 L701.5,462.6348 A2.5,2.5 0 0 1 704,465.1348 L704,718.5137 A2.5,2.5 0 0 1 701.5,721.0137 L236.5,721.0137 A2.5,2.5 0 0 1 234,718.5137 L234,440.5137 A2.5,2.5 0 0 1 236.5,438.0137 " fill="none" style="stroke:#000000;stroke-width:1.5;"/><line style="stroke:#000000;stroke-width:1.5;" x1="234" x2="298" y1="462.6348" y2="462.6348"/><text fill="#000000" font-family="sans-serif" font-size="14" font-weight="bold" lengthAdjust="spacing" textLength="51" x="238" y="455.1211">domain</text></g><!--class EnableCandidateUI--><g id="elem_EnableCandidateUI"><rect codeLine="6" fill="#F1F1F1" height="48" id="EnableCandidateUI" rx="2.5" ry="2.5" style="stroke:#181818;stroke-width:0.5;" width="153" x="73.5" y="43.0137"/><ellipse cx="88.5" cy="59.0137" fill="#ADD1B2" rx="11" ry="11" style="stroke:#181818;stroke-width:1.0;"/><path d="M91.2656,54.8887 Q91.4219,54.6699 91.6094,54.5605 Q91.7969,54.4512 92.0156,54.4512 Q92.3906,54.4512 92.625,54.7168 Q92.8594,54.9668 92.8594,55.5762 L92.8594,57.0293 Q92.8594,57.6387 92.625,57.9043 Q92.3906,58.1699 92.0156,58.1699 Q91.6719,58.1699 91.4688,57.9668 Q91.2656,57.7793 91.1563,57.2637 Q91.1094,56.9043 90.9219,56.7168 Q90.5938,56.3418 89.9844,56.123 Q89.375,55.9043 88.75,55.9043 Q87.9844,55.9043 87.3438,56.2324 Q86.7188,56.5605 86.2188,57.3105 Q85.7344,58.0605 85.7344,59.0918 L85.7344,60.1855 Q85.7344,61.4199 86.625,62.248 Q87.5156,63.0605 89.1094,63.0605 Q90.0469,63.0605 90.7031,62.8105 Q91.0938,62.6543 91.5156,62.2168 Q91.7813,61.9512 91.9219,61.873 Q92.0781,61.7949 92.2813,61.7949 Q92.6094,61.7949 92.8594,62.0605 Q93.125,62.3105 93.125,62.6543 Q93.125,62.998 92.7813,63.4043 Q92.2813,63.9824 91.4844,64.3105 Q90.4063,64.7637 89.1094,64.7637 Q87.5938,64.7637 86.3906,64.1387 Q85.4063,63.6387 84.7188,62.5762 Q84.0313,61.498 84.0313,60.2168 L84.0313,59.0605 Q84.0313,57.7324 84.6406,56.5918 Q85.2656,55.4355 86.3594,54.8262 Q87.4531,54.2012 88.6875,54.2012 Q89.4219,54.2012 90.0625,54.373 Q90.7188,54.5293 91.2656,54.8887 Z " fill="#000000"/><text fill="#000000" font-family="sans-serif" font-size="14" lengthAdjust="spacing" textLength="121" x="102.5" y="64.8105">EnableCandidateUI</text><line style="stroke:#181818;stroke-width:0.5;" x1="74.5" x2="225.5" y1="75.0137" y2="75.0137"/><line style="stroke:#181818;stroke-width:0.5;" x1="74.5" x2="225.5" y1="83.0137" y2="83.0137"/></g><!--class ListCandidatesUI--><g id="elem_ListCandidatesUI"><rect codeLine="9" fill="#F1F1F1" height="85.2422" id="ListCandidatesUI" rx="2.5" ry="2.5" style="stroke:#181818;stroke-width:0.5;" width="205" x="34.5" y="151.0137"/><ellipse cx="79.75" cy="167.0137" fill="#ADD1B2" rx="11" ry="11" style="stroke:#181818;stroke-width:1.0;"/><path d="M82.5156,162.8887 Q82.6719,162.6699 82.8594,162.5605 Q83.0469,162.4512 83.2656,162.4512 Q83.6406,162.4512 83.875,162.7168 Q84.1094,162.9668 84.1094,163.5762 L84.1094,165.0293 Q84.1094,165.6387 83.875,165.9043 Q83.6406,166.1699 83.2656,166.1699 Q82.9219,166.1699 82.7188,165.9668 Q82.5156,165.7793 82.4063,165.2637 Q82.3594,164.9043 82.1719,164.7168 Q81.8438,164.3418 81.2344,164.123 Q80.625,163.9043 80,163.9043 Q79.2344,163.9043 78.5938,164.2324 Q77.9688,164.5605 77.4688,165.3105 Q76.9844,166.0605 76.9844,167.0918 L76.9844,168.1855 Q76.9844,169.4199 77.875,170.248 Q78.7656,171.0605 80.3594,171.0605 Q81.2969,171.0605 81.9531,170.8105 Q82.3438,170.6543 82.7656,170.2168 Q83.0313,169.9512 83.1719,169.873 Q83.3281,169.7949 83.5313,169.7949 Q83.8594,169.7949 84.1094,170.0605 Q84.375,170.3105 84.375,170.6543 Q84.375,170.998 84.0313,171.4043 Q83.5313,171.9824 82.7344,172.3105 Q81.6563,172.7637 80.3594,172.7637 Q78.8438,172.7637 77.6406,172.1387 Q76.6563,171.6387 75.9688,170.5762 Q75.2813,169.498 75.2813,168.2168 L75.2813,167.0605 Q75.2813,165.7324 75.8906,164.5918 Q76.5156,163.4355 77.6094,162.8262 Q78.7031,162.2012 79.9375,162.2012 Q80.6719,162.2012 81.3125,162.373 Q81.9688,162.5293 82.5156,162.8887 Z " fill="#000000"/><text fill="#000000" font-family="sans-serif" font-size="14" lengthAdjust="spacing" textLength="106" x="100.25" y="172.8105">ListCandidatesUI</text><line style="stroke:#181818;stroke-width:0.5;" x1="35.5" x2="238.5" y1="183.0137" y2="183.0137"/><line style="stroke:#181818;stroke-width:0.5;" x1="35.5" x2="238.5" y1="191.0137" y2="191.0137"/><ellipse cx="45.5" cy="205.8242" fill="#84BE84" rx="3" ry="3" style="stroke:#038048;stroke-width:1.0;"/><text fill="#000000" font-family="sans-serif" font-size="14" lengthAdjust="spacing" textLength="154" x="54.5" y="210.1211">listDisabledCandidates()</text><ellipse cx="45.5" cy="224.4453" fill="#84BE84" rx="3" ry="3" style="stroke:#038048;stroke-width:1.0;"/><text fill="#000000" font-family="sans-serif" font-size="14" lengthAdjust="spacing" textLength="179" x="54.5" y="228.7422">printCandidates(candidates)</text></g><!--class EnableCandidateController--><g id="elem_EnableCandidateController"><rect codeLine="19" fill="#F1F1F1" height="66.6211" id="EnableCandidateController" rx="2.5" ry="2.5" style="stroke:#181818;stroke-width:0.5;" width="203" x="245.5" y="322.0137"/><ellipse cx="260.5" cy="338.0137" fill="#ADD1B2" rx="11" ry="11" style="stroke:#181818;stroke-width:1.0;"/><path d="M263.2656,333.8887 Q263.4219,333.6699 263.6094,333.5605 Q263.7969,333.4512 264.0156,333.4512 Q264.3906,333.4512 264.625,333.7168 Q264.8594,333.9668 264.8594,334.5762 L264.8594,336.0293 Q264.8594,336.6387 264.625,336.9043 Q264.3906,337.1699 264.0156,337.1699 Q263.6719,337.1699 263.4688,336.9668 Q263.2656,336.7793 263.1563,336.2637 Q263.1094,335.9043 262.9219,335.7168 Q262.5938,335.3418 261.9844,335.123 Q261.375,334.9043 260.75,334.9043 Q259.9844,334.9043 259.3438,335.2324 Q258.7188,335.5605 258.2188,336.3105 Q257.7344,337.0605 257.7344,338.0918 L257.7344,339.1855 Q257.7344,340.4199 258.625,341.248 Q259.5156,342.0605 261.1094,342.0605 Q262.0469,342.0605 262.7031,341.8105 Q263.0938,341.6543 263.5156,341.2168 Q263.7813,340.9512 263.9219,340.873 Q264.0781,340.7949 264.2813,340.7949 Q264.6094,340.7949 264.8594,341.0605 Q265.125,341.3105 265.125,341.6543 Q265.125,341.998 264.7813,342.4043 Q264.2813,342.9824 263.4844,343.3105 Q262.4063,343.7637 261.1094,343.7637 Q259.5938,343.7637 258.3906,343.1387 Q257.4063,342.6387 256.7188,341.5762 Q256.0313,340.498 256.0313,339.2168 L256.0313,338.0605 Q256.0313,336.7324 256.6406,335.5918 Q257.2656,334.4355 258.3594,333.8262 Q259.4531,333.2012 260.6875,333.2012 Q261.4219,333.2012 262.0625,333.373 Q262.7188,333.5293 263.2656,333.8887 Z " fill="#000000"/><text fill="#000000" font-family="sans-serif" font-size="14" lengthAdjust="spacing" textLength="171" x="274.5" y="343.8105">EnableCandidateController</text><line style="stroke:#181818;stroke-width:0.5;" x1="246.5" x2="447.5" y1="354.0137" y2="354.0137"/><line style="stroke:#181818;stroke-width:0.5;" x1="246.5" x2="447.5" y1="362.0137" y2="362.0137"/><ellipse cx="256.5" cy="376.8242" fill="#84BE84" rx="3" ry="3" style="stroke:#038048;stroke-width:1.0;"/><text fill="#000000" font-family="sans-serif" font-size="14" lengthAdjust="spacing" textLength="151" x="265.5" y="381.1211">enableCandidate(email)</text></g><!--class ListCandidatesController--><g id="elem_ListCandidatesController"><rect codeLine="23" fill="#F1F1F1" height="85.2422" id="ListCandidatesController" rx="2.5" ry="2.5" style="stroke:#181818;stroke-width:0.5;" width="188" x="22" y="313.0137"/><ellipse cx="37" cy="329.0137" fill="#ADD1B2" rx="11" ry="11" style="stroke:#181818;stroke-width:1.0;"/><path d="M39.7656,324.8887 Q39.9219,324.6699 40.1094,324.5605 Q40.2969,324.4512 40.5156,324.4512 Q40.8906,324.4512 41.125,324.7168 Q41.3594,324.9668 41.3594,325.5762 L41.3594,327.0293 Q41.3594,327.6387 41.125,327.9043 Q40.8906,328.1699 40.5156,328.1699 Q40.1719,328.1699 39.9688,327.9668 Q39.7656,327.7793 39.6563,327.2637 Q39.6094,326.9043 39.4219,326.7168 Q39.0938,326.3418 38.4844,326.123 Q37.875,325.9043 37.25,325.9043 Q36.4844,325.9043 35.8438,326.2324 Q35.2188,326.5605 34.7188,327.3105 Q34.2344,328.0605 34.2344,329.0918 L34.2344,330.1855 Q34.2344,331.4199 35.125,332.248 Q36.0156,333.0605 37.6094,333.0605 Q38.5469,333.0605 39.2031,332.8105 Q39.5938,332.6543 40.0156,332.2168 Q40.2813,331.9512 40.4219,331.873 Q40.5781,331.7949 40.7813,331.7949 Q41.1094,331.7949 41.3594,332.0605 Q41.625,332.3105 41.625,332.6543 Q41.625,332.998 41.2813,333.4043 Q40.7813,333.9824 39.9844,334.3105 Q38.9063,334.7637 37.6094,334.7637 Q36.0938,334.7637 34.8906,334.1387 Q33.9063,333.6387 33.2188,332.5762 Q32.5313,331.498 32.5313,330.2168 L32.5313,329.0605 Q32.5313,327.7324 33.1406,326.5918 Q33.7656,325.4355 34.8594,324.8262 Q35.9531,324.2012 37.1875,324.2012 Q37.9219,324.2012 38.5625,324.373 Q39.2188,324.5293 39.7656,324.8887 Z " fill="#000000"/><text fill="#000000" font-family="sans-serif" font-size="14" lengthAdjust="spacing" textLength="156" x="51" y="334.8105">ListCandidatesController</text><line style="stroke:#181818;stroke-width:0.5;" x1="23" x2="209" y1="345.0137" y2="345.0137"/><line style="stroke:#181818;stroke-width:0.5;" x1="23" x2="209" y1="353.0137" y2="353.0137"/><ellipse cx="33" cy="367.8242" fill="#84BE84" rx="3" ry="3" style="stroke:#038048;stroke-width:1.0;"/><text fill="#000000" font-family="sans-serif" font-size="14" lengthAdjust="spacing" textLength="135" x="42" y="372.1211">disabledCandidates()</text><ellipse cx="33" cy="386.4453" fill="#84BE84" rx="3" ry="3" style="stroke:#038048;stroke-width:1.0;"/><text fill="#000000" font-family="sans-serif" font-size="14" lengthAdjust="spacing" textLength="96" x="42" y="390.7422">allCandidates()</text></g><!--class CandidateRepository--><g id="elem_CandidateRepository"><rect codeLine="31" fill="#F1F1F1" height="66.6211" id="CandidateRepository" rx="2.5" ry="2.5" style="stroke:#181818;stroke-width:0.5;" width="165" x="28.5" y="484.0137"/><ellipse cx="43.5" cy="500.0137" fill="#B4A7E5" rx="11" ry="11" style="stroke:#181818;stroke-width:1.0;"/><path d="M44.4531,496.6543 L44.4531,503.3105 L46.1719,503.3105 Q46.7813,503.3105 47.0469,503.5449 Q47.3125,503.7793 47.3125,504.1699 Q47.3125,504.5449 47.0469,504.7793 Q46.7813,505.0137 46.1719,505.0137 L41.0313,505.0137 Q40.4219,505.0137 40.1563,504.7793 Q39.8906,504.5449 39.8906,504.1543 Q39.8906,503.7793 40.1563,503.5449 Q40.4219,503.3105 41.0313,503.3105 L42.75,503.3105 L42.75,496.6543 L41.0313,496.6543 Q40.4219,496.6543 40.1563,496.4199 Q39.8906,496.1855 39.8906,495.7949 Q39.8906,495.4199 40.1563,495.1855 Q40.4219,494.9512 41.0313,494.9512 L46.1719,494.9512 Q46.7813,494.9512 47.0469,495.1855 Q47.3125,495.4199 47.3125,495.7949 Q47.3125,496.1855 47.0469,496.4199 Q46.7813,496.6543 46.1719,496.6543 L44.4531,496.6543 Z " fill="#000000"/><text fill="#000000" font-family="sans-serif" font-size="14" font-style="italic" lengthAdjust="spacing" textLength="133" x="57.5" y="505.8105">CandidateRepository</text><line style="stroke:#181818;stroke-width:0.5;" x1="29.5" x2="192.5" y1="516.0137" y2="516.0137"/><line style="stroke:#181818;stroke-width:0.5;" x1="29.5" x2="192.5" y1="524.0137" y2="524.0137"/><ellipse cx="39.5" cy="538.8242" fill="#84BE84" rx="3" ry="3" style="stroke:#038048;stroke-width:1.0;"/><text fill="#000000" font-family="sans-serif" font-size="14" lengthAdjust="spacing" textLength="106" x="48.5" y="543.1211">.save(candidate)</text></g><!--class SystemUser--><g id="elem_SystemUser"><rect codeLine="37" fill="#F1F1F1" height="85.2422" id="SystemUser" rx="2.5" ry="2.5" style="stroke:#181818;stroke-width:0.5;" width="107" x="250.5" y="620.0137"/><ellipse cx="265.5" cy="636.0137" fill="#ADD1B2" rx="11" ry="11" style="stroke:#181818;stroke-width:1.0;"/><path d="M268.2656,631.8887 Q268.4219,631.6699 268.6094,631.5605 Q268.7969,631.4512 269.0156,631.4512 Q269.3906,631.4512 269.625,631.7168 Q269.8594,631.9668 269.8594,632.5762 L269.8594,634.0293 Q269.8594,634.6387 269.625,634.9043 Q269.3906,635.1699 269.0156,635.1699 Q268.6719,635.1699 268.4688,634.9668 Q268.2656,634.7793 268.1563,634.2637 Q268.1094,633.9043 267.9219,633.7168 Q267.5938,633.3418 266.9844,633.123 Q266.375,632.9043 265.75,632.9043 Q264.9844,632.9043 264.3438,633.2324 Q263.7188,633.5605 263.2188,634.3105 Q262.7344,635.0605 262.7344,636.0918 L262.7344,637.1855 Q262.7344,638.4199 263.625,639.248 Q264.5156,640.0605 266.1094,640.0605 Q267.0469,640.0605 267.7031,639.8105 Q268.0938,639.6543 268.5156,639.2168 Q268.7813,638.9512 268.9219,638.873 Q269.0781,638.7949 269.2813,638.7949 Q269.6094,638.7949 269.8594,639.0605 Q270.125,639.3105 270.125,639.6543 Q270.125,639.998 269.7813,640.4043 Q269.2813,640.9824 268.4844,641.3105 Q267.4063,641.7637 266.1094,641.7637 Q264.5938,641.7637 263.3906,641.1387 Q262.4063,640.6387 261.7188,639.5762 Q261.0313,638.498 261.0313,637.2168 L261.0313,636.0605 Q261.0313,634.7324 261.6406,633.5918 Q262.2656,632.4355 263.3594,631.8262 Q264.4531,631.2012 265.6875,631.2012 Q266.4219,631.2012 267.0625,631.373 Q267.7188,631.5293 268.2656,631.8887 Z " fill="#000000"/><text fill="#000000" font-family="sans-serif" font-size="14" lengthAdjust="spacing" textLength="75" x="279.5" y="641.8105">SystemUser</text><line style="stroke:#181818;stroke-width:0.5;" x1="251.5" x2="356.5" y1="652.0137" y2="652.0137"/><line style="stroke:#181818;stroke-width:0.5;" x1="251.5" x2="356.5" y1="660.0137" y2="660.0137"/><ellipse cx="261.5" cy="674.8242" fill="#84BE84" rx="3" ry="3" style="stroke:#038048;stroke-width:1.0;"/><text fill="#000000" font-family="sans-serif" font-size="14" lengthAdjust="spacing" textLength="62" x="270.5" y="679.1211">.isActive()</text><ellipse cx="261.5" cy="693.4453" fill="#84BE84" rx="3" ry="3" style="stroke:#038048;stroke-width:1.0;"/><text fill="#000000" font-family="sans-serif" font-size="14" lengthAdjust="spacing" textLength="63" x="270.5" y="697.7422">.activate()</text></g><!--class AuthorizationService--><g id="elem_AuthorizationService"><rect codeLine="42" fill="#F1F1F1" height="85.2422" id="AuthorizationService" rx="2.5" ry="2.5" style="stroke:#181818;stroke-width:0.5;" width="305" x="382.5" y="475.0137"/><ellipse cx="466.25" cy="491.0137" fill="#ADD1B2" rx="11" ry="11" style="stroke:#181818;stroke-width:1.0;"/><path d="M469.0156,486.8887 Q469.1719,486.6699 469.3594,486.5605 Q469.5469,486.4512 469.7656,486.4512 Q470.1406,486.4512 470.375,486.7168 Q470.6094,486.9668 470.6094,487.5762 L470.6094,489.0293 Q470.6094,489.6387 470.375,489.9043 Q470.1406,490.1699 469.7656,490.1699 Q469.4219,490.1699 469.2188,489.9668 Q469.0156,489.7793 468.9063,489.2637 Q468.8594,488.9043 468.6719,488.7168 Q468.3438,488.3418 467.7344,488.123 Q467.125,487.9043 466.5,487.9043 Q465.7344,487.9043 465.0938,488.2324 Q464.4688,488.5605 463.9688,489.3105 Q463.4844,490.0605 463.4844,491.0918 L463.4844,492.1855 Q463.4844,493.4199 464.375,494.248 Q465.2656,495.0605 466.8594,495.0605 Q467.7969,495.0605 468.4531,494.8105 Q468.8438,494.6543 469.2656,494.2168 Q469.5313,493.9512 469.6719,493.873 Q469.8281,493.7949 470.0313,493.7949 Q470.3594,493.7949 470.6094,494.0605 Q470.875,494.3105 470.875,494.6543 Q470.875,494.998 470.5313,495.4043 Q470.0313,495.9824 469.2344,496.3105 Q468.1563,496.7637 466.8594,496.7637 Q465.3438,496.7637 464.1406,496.1387 Q463.1563,495.6387 462.4688,494.5762 Q461.7813,493.498 461.7813,492.2168 L461.7813,491.0605 Q461.7813,489.7324 462.3906,488.5918 Q463.0156,487.4355 464.1094,486.8262 Q465.2031,486.2012 466.4375,486.2012 Q467.1719,486.2012 467.8125,486.373 Q468.4688,486.5293 469.0156,486.8887 Z " fill="#000000"/><text fill="#000000" font-family="sans-serif" font-size="14" lengthAdjust="spacing" textLength="129" x="486.75" y="496.8105">AuthorizationService</text><line style="stroke:#181818;stroke-width:0.5;" x1="383.5" x2="686.5" y1="507.0137" y2="507.0137"/><line style="stroke:#181818;stroke-width:0.5;" x1="383.5" x2="686.5" y1="515.0137" y2="515.0137"/><ellipse cx="393.5" cy="529.8242" fill="#84BE84" rx="3" ry="3" style="stroke:#038048;stroke-width:1.0;"/><text fill="#000000" font-family="sans-serif" font-size="14" lengthAdjust="spacing" textLength="279" x="402.5" y="534.1211">authorizationService() : AuthorizationService</text><ellipse cx="393.5" cy="548.4453" fill="#84BE84" rx="3" ry="3" style="stroke:#038048;stroke-width:1.0;"/><text fill="#000000" font-family="sans-serif" font-size="14" lengthAdjust="spacing" textLength="233" x="402.5" y="552.7422">ensureAuthenticatedUserHasAnyOf()</text></g><!--class Candidate--><g id="elem_Candidate"><rect codeLine="47" fill="#F1F1F1" height="66.6211" id="Candidate" rx="2.5" ry="2.5" style="stroke:#181818;stroke-width:0.5;" width="97" x="250.5" y="484.0137"/><ellipse cx="265.5" cy="500.0137" fill="#ADD1B2" rx="11" ry="11" style="stroke:#181818;stroke-width:1.0;"/><path d="M268.2656,495.8887 Q268.4219,495.6699 268.6094,495.5605 Q268.7969,495.4512 269.0156,495.4512 Q269.3906,495.4512 269.625,495.7168 Q269.8594,495.9668 269.8594,496.5762 L269.8594,498.0293 Q269.8594,498.6387 269.625,498.9043 Q269.3906,499.1699 269.0156,499.1699 Q268.6719,499.1699 268.4688,498.9668 Q268.2656,498.7793 268.1563,498.2637 Q268.1094,497.9043 267.9219,497.7168 Q267.5938,497.3418 266.9844,497.123 Q266.375,496.9043 265.75,496.9043 Q264.9844,496.9043 264.3438,497.2324 Q263.7188,497.5605 263.2188,498.3105 Q262.7344,499.0605 262.7344,500.0918 L262.7344,501.1855 Q262.7344,502.4199 263.625,503.248 Q264.5156,504.0605 266.1094,504.0605 Q267.0469,504.0605 267.7031,503.8105 Q268.0938,503.6543 268.5156,503.2168 Q268.7813,502.9512 268.9219,502.873 Q269.0781,502.7949 269.2813,502.7949 Q269.6094,502.7949 269.8594,503.0605 Q270.125,503.3105 270.125,503.6543 Q270.125,503.998 269.7813,504.4043 Q269.2813,504.9824 268.4844,505.3105 Q267.4063,505.7637 266.1094,505.7637 Q264.5938,505.7637 263.3906,505.1387 Q262.4063,504.6387 261.7188,503.5762 Q261.0313,502.498 261.0313,501.2168 L261.0313,500.0605 Q261.0313,498.7324 261.6406,497.5918 Q262.2656,496.4355 263.3594,495.8262 Q264.4531,495.2012 265.6875,495.2012 Q266.4219,495.2012 267.0625,495.373 Q267.7188,495.5293 268.2656,495.8887 Z " fill="#000000"/><text fill="#000000" font-family="sans-serif" font-size="14" lengthAdjust="spacing" textLength="65" x="279.5" y="505.8105">Candidate</text><line style="stroke:#181818;stroke-width:0.5;" x1="251.5" x2="346.5" y1="516.0137" y2="516.0137"/><line style="stroke:#181818;stroke-width:0.5;" x1="251.5" x2="346.5" y1="524.0137" y2="524.0137"/><ellipse cx="261.5" cy="538.8242" fill="#84BE84" rx="3" ry="3" style="stroke:#038048;stroke-width:1.0;"/><text fill="#000000" font-family="sans-serif" font-size="14" lengthAdjust="spacing" textLength="42" x="270.5" y="543.1211">.user()</text></g><!--link EnableCandidateUI to EnableCandidateController--><g id="link_EnableCandidateUI_EnableCandidateController"><path codeLine="54" d="M188.56,91.0437 C210.87,105.9137 238.17,126.9437 257,151.0137 C298.53,204.1137 323.53,273.6285 336.34,316.1685 " fill="none" id="EnableCandidateUI-to-EnableCandidateController" style="stroke:#181818;stroke-width:1.0;"/><polygon fill="#181818" points="338.07,321.9137,339.3051,312.1426,336.6283,317.126,331.6448,314.4493,338.07,321.9137" style="stroke:#181818;stroke-width:1.0;"/></g><!--link EnableCandidateUI to ListCandidatesUI--><g id="link_EnableCandidateUI_ListCandidatesUI"><path codeLine="55" d="M147.59,91.1437 C145.84,107.8737 144.0531,124.9861 141.9731,144.9061 " fill="none" id="EnableCandidateUI-to-ListCandidatesUI" style="stroke:#181818;stroke-width:1.0;"/><polygon fill="#181818" points="141.35,150.8737,146.263,142.3378,141.8693,145.9007,138.3063,141.5069,141.35,150.8737" style="stroke:#181818;stroke-width:1.0;"/></g><!--link ListCandidatesUI to ListCandidatesController--><g id="link_ListCandidatesUI_ListCandidatesController"><path codeLine="56" d="M131.54,236.1337 C128.44,259.7437 125.3508,283.2547 122.2508,306.8747 " fill="none" id="ListCandidatesUI-to-ListCandidatesController" style="stroke:#181818;stroke-width:1.0;"/><polygon fill="#181818" points="121.47,312.8237,126.6071,304.4207,122.1206,307.8662,118.6752,303.3797,121.47,312.8237" style="stroke:#181818;stroke-width:1.0;"/></g><!--link ListCandidatesController to Candidate--><g id="link_ListCandidatesController_Candidate"><path codeLine="57" d="M171.48,398.2937 C184.34,408.4137 197.82,419.3937 210,430.0137 C229.48,447.0137 246.011,462.8474 262.581,479.3674 " fill="none" id="ListCandidatesController-to-Candidate" style="stroke:#181818;stroke-width:1.0;"/><polygon fill="#181818" points="266.83,483.6037,263.2806,474.4166,263.2891,480.0735,257.6323,480.082,266.83,483.6037" style="stroke:#181818;stroke-width:1.0;"/></g><!--link Candidate to SystemUser--><g id="link_Candidate_SystemUser"><path codeLine="58" d="M300.15,551.3237 C300.86,571.6837 301.5712,592.0573 302.3312,613.8873 " fill="none" id="Candidate-to-SystemUser" style="stroke:#181818;stroke-width:1.0;"/><polygon fill="#181818" points="302.54,619.8837,306.2244,610.7499,302.366,614.8867,298.2293,611.0283,302.54,619.8837" style="stroke:#181818;stroke-width:1.0;"/></g><!--link EnableCandidateController to Candidate--><g id="link_EnableCandidateController_Candidate"><path codeLine="59" d="M337.17,389.2737 C328.89,416.8937 318.8241,450.4467 310.5441,478.0467 " fill="none" id="EnableCandidateController-to-Candidate" style="stroke:#181818;stroke-width:1.0;"/><polygon fill="#181818" points="308.82,483.7937,315.2374,476.3226,310.2567,479.0045,307.5748,474.0238,308.82,483.7937" style="stroke:#181818;stroke-width:1.0;"/></g><!--link EnableCandidateController to CandidateRepository--><g id="link_EnableCandidateController_CandidateRepository"><path codeLine="60" d="M296.12,389.0537 C276.59,401.6837 254.16,416.3737 234,430.0137 C208.16,447.4937 184.5326,464.0305 161.4726,480.4005 " fill="none" id="EnableCandidateController-to-CandidateRepository" style="stroke:#181818;stroke-width:1.0;"/><polygon fill="#181818" points="156.58,483.8737,166.2343,481.9256,160.6571,480.9794,161.6034,475.4022,156.58,483.8737" style="stroke:#181818;stroke-width:1.0;"/></g><!--link CandidateRepository to Candidate--><g id="link_CandidateRepository_Candidate"><path codeLine="61" d="M193.62,517.5137 C212.55,517.5137 225.49,517.5137 244.43,517.5137 " fill="none" id="CandidateRepository-to-Candidate" style="stroke:#181818;stroke-width:1.0;"/><polygon fill="#181818" points="250.43,517.5137,241.43,513.5137,245.43,517.5137,241.43,521.5137,250.43,517.5137" style="stroke:#181818;stroke-width:1.0;"/></g><!--link EnableCandidateController to AuthorizationService--><g id="link_EnableCandidateController_AuthorizationService"><path codeLine="62" d="M385.5,389.2737 C414.61,414.0537 450.2216,444.3539 481.5916,471.0639 " fill="none" id="EnableCandidateController-to-AuthorizationService" style="stroke:#181818;stroke-width:1.0;"/><polygon fill="#181818" points="486.16,474.9537,481.9006,466.0735,482.353,471.7122,476.7143,472.1646,486.16,474.9537" style="stroke:#181818;stroke-width:1.0;"/></g><!--SRC=[bLF1QiCm3BtxAtnC6Cq7x308tM25mc0b7w0bwYRcsi5s2jdOly_kYfswJjlvPAJd9xqdkOVs4zwH3yI_6J-ULe0n_4d2cy0bo8uwiDYi9eWVbe3NP6o0ccOLeVxS2PT-9EC9kmWhobDKhqbEM8esNCj9vMDzzjT2VnG0VI-e1KjANbEoLD9g9GHgdhI9fy02Tq2Yl5Lrv4rekwlAGOXiCgYTIjNOAqDMwT7r7w3EEjHRQ947fjS0J1gg3EmnsdkbNgUS3UUkRaPZSTUOCxaLcRgrv2eaAYlmOM_i1K_hmNueJL-7KMvGxyb9IYf01bEK_3xxE1sn6JHw74hh5mOxB-4PJ2t7b-sbpeAlQJlLu1YAx8wUVwB5uc5-8MVmwUzYQI23cf3E9GwlGe95VJuUnylc_yyfmOsuk9Oi4-F_eCoE-nS0]--></g></svg>