<?xml version="1.0" encoding="us-ascii" standalone="no"?><svg xmlns="http://www.w3.org/2000/svg" xmlns:xlink="http://www.w3.org/1999/xlink" contentStyleType="text/css" height="494px" preserveAspectRatio="none" style="width:865px;height:494px;background:#FFFFFF;" version="1.1" viewBox="0 0 865 494" width="865px" zoomAndPan="magnify"><defs/><g><text fill="#000000" font-family="sans-serif" font-size="14" font-weight="bold" lengthAdjust="spacing" textLength="177" x="337" y="25.1074">Domain Model - US 2000b</text><!--cluster candidate--><g id="cluster_candidate"><rect fill="#AABBCC" height="299" rx="2.5" ry="2.5" style="stroke:#181818;stroke-width:1.0;" width="327" x="7" y="46.6211"/><text fill="#000000" font-family="sans-serif" font-size="14" font-weight="bold" lengthAdjust="spacing" textLength="69" x="136" y="63.7285">candidate</text></g><!--cluster User--><g id="cluster_User"><rect fill="#CCBBCC" height="273" rx="2.5" ry="2.5" style="stroke:#181818;stroke-width:1.0;" width="493" x="366" y="215.6211"/><text fill="#000000" font-family="sans-serif" font-size="14" font-weight="bold" lengthAdjust="spacing" textLength="33" x="596" y="232.7285">User</text></g><!--class Candidate--><g id="elem_Candidate"><rect codeLine="5" fill="#F1F1F1" height="76.543" id="Candidate" rx="2.5" ry="2.5" style="stroke:#181818;stroke-width:0.5;" width="128" x="23" y="83.6211"/><ellipse cx="38" cy="113.8926" fill="#ADD1B2" rx="11" ry="11" style="stroke:#181818;stroke-width:1.0;"/><path d="M40.7656,109.7676 Q40.9219,109.5488 41.1094,109.4395 Q41.2969,109.3301 41.5156,109.3301 Q41.8906,109.3301 42.125,109.5957 Q42.3594,109.8457 42.3594,110.4551 L42.3594,111.9082 Q42.3594,112.5176 42.125,112.7832 Q41.8906,113.0488 41.5156,113.0488 Q41.1719,113.0488 40.9688,112.8457 Q40.7656,112.6582 40.6563,112.1426 Q40.6094,111.7832 40.4219,111.5957 Q40.0938,111.2207 39.4844,111.002 Q38.875,110.7832 38.25,110.7832 Q37.4844,110.7832 36.8438,111.1113 Q36.2188,111.4395 35.7188,112.1895 Q35.2344,112.9395 35.2344,113.9707 L35.2344,115.0645 Q35.2344,116.2988 36.125,117.127 Q37.0156,117.9395 38.6094,117.9395 Q39.5469,117.9395 40.2031,117.6895 Q40.5938,117.5332 41.0156,117.0957 Q41.2813,116.8301 41.4219,116.752 Q41.5781,116.6738 41.7813,116.6738 Q42.1094,116.6738 42.3594,116.9395 Q42.625,117.1895 42.625,117.5332 Q42.625,117.877 42.2813,118.2832 Q41.7813,118.8613 40.9844,119.1895 Q39.9063,119.6426 38.6094,119.6426 Q37.0938,119.6426 35.8906,119.0176 Q34.9063,118.5176 34.2188,117.4551 Q33.5313,116.377 33.5313,115.0957 L33.5313,113.9395 Q33.5313,112.6113 34.1406,111.4707 Q34.7656,110.3145 35.8594,109.7051 Q36.9531,109.0801 38.1875,109.0801 Q38.9219,109.0801 39.5625,109.252 Q40.2188,109.4082 40.7656,109.7676 Z " fill="#000000"/><text fill="#000000" font-family="sans-serif" font-size="12" font-style="italic" lengthAdjust="spacing" textLength="100" x="50" y="101.5703">&#171;Aggregate Root&#187;</text><text fill="#000000" font-family="sans-serif" font-size="12" font-style="italic" lengthAdjust="spacing" textLength="44" x="78" y="117.5313">&#171;Entity&#187;</text><text fill="#000000" font-family="sans-serif" font-size="14" lengthAdjust="spacing" textLength="65" x="67.5" y="135.6504">Candidate</text><line style="stroke:#181818;stroke-width:0.5;" x1="24" x2="150" y1="144.1641" y2="144.1641"/><line style="stroke:#181818;stroke-width:0.5;" x1="24" x2="150" y1="152.1641" y2="152.1641"/></g><!--class CurriculumVitae--><g id="elem_CurriculumVitae"><rect codeLine="6" fill="#F1F1F1" height="60.582" id="CurriculumVitae" rx="2.5" ry="2.5" style="stroke:#181818;stroke-width:0.5;" width="132" x="186" y="91.6211"/><ellipse cx="201" cy="113.9121" fill="#ADD1B2" rx="11" ry="11" style="stroke:#181818;stroke-width:1.0;"/><path d="M203.7656,109.7871 Q203.9219,109.5684 204.1094,109.459 Q204.2969,109.3496 204.5156,109.3496 Q204.8906,109.3496 205.125,109.6152 Q205.3594,109.8652 205.3594,110.4746 L205.3594,111.9277 Q205.3594,112.5371 205.125,112.8027 Q204.8906,113.0684 204.5156,113.0684 Q204.1719,113.0684 203.9688,112.8652 Q203.7656,112.6777 203.6563,112.1621 Q203.6094,111.8027 203.4219,111.6152 Q203.0938,111.2402 202.4844,111.0215 Q201.875,110.8027 201.25,110.8027 Q200.4844,110.8027 199.8438,111.1309 Q199.2188,111.459 198.7188,112.209 Q198.2344,112.959 198.2344,113.9902 L198.2344,115.084 Q198.2344,116.3184 199.125,117.1465 Q200.0156,117.959 201.6094,117.959 Q202.5469,117.959 203.2031,117.709 Q203.5938,117.5527 204.0156,117.1152 Q204.2813,116.8496 204.4219,116.7715 Q204.5781,116.6934 204.7813,116.6934 Q205.1094,116.6934 205.3594,116.959 Q205.625,117.209 205.625,117.5527 Q205.625,117.8965 205.2813,118.3027 Q204.7813,118.8809 203.9844,119.209 Q202.9063,119.6621 201.6094,119.6621 Q200.0938,119.6621 198.8906,119.0371 Q197.9063,118.5371 197.2188,117.4746 Q196.5313,116.3965 196.5313,115.1152 L196.5313,113.959 Q196.5313,112.6309 197.1406,111.4902 Q197.7656,110.334 198.8594,109.7246 Q199.9531,109.0996 201.1875,109.0996 Q201.9219,109.0996 202.5625,109.2715 Q203.2188,109.4277 203.7656,109.7871 Z " fill="#000000"/><text fill="#000000" font-family="sans-serif" font-size="12" font-style="italic" lengthAdjust="spacing" textLength="85" x="222.5" y="109.5703">&#171;Value Object&#187;</text><text fill="#000000" font-family="sans-serif" font-size="14" lengthAdjust="spacing" textLength="100" x="215" y="127.6895">CurriculumVitae</text><line style="stroke:#181818;stroke-width:0.5;" x1="187" x2="317" y1="136.2031" y2="136.2031"/><line style="stroke:#181818;stroke-width:0.5;" x1="187" x2="317" y1="144.2031" y2="144.2031"/></g><!--class PhoneNumber--><g id="elem_PhoneNumber"><rect codeLine="7" fill="#F1F1F1" height="60.582" id="PhoneNumber" rx="2.5" ry="2.5" style="stroke:#181818;stroke-width:0.5;" width="122" x="26" y="268.6211"/><ellipse cx="41" cy="290.9121" fill="#ADD1B2" rx="11" ry="11" style="stroke:#181818;stroke-width:1.0;"/><path d="M43.7656,286.7871 Q43.9219,286.5684 44.1094,286.459 Q44.2969,286.3496 44.5156,286.3496 Q44.8906,286.3496 45.125,286.6152 Q45.3594,286.8652 45.3594,287.4746 L45.3594,288.9277 Q45.3594,289.5371 45.125,289.8027 Q44.8906,290.0684 44.5156,290.0684 Q44.1719,290.0684 43.9688,289.8652 Q43.7656,289.6777 43.6563,289.1621 Q43.6094,288.8027 43.4219,288.6152 Q43.0938,288.2402 42.4844,288.0215 Q41.875,287.8027 41.25,287.8027 Q40.4844,287.8027 39.8438,288.1309 Q39.2188,288.459 38.7188,289.209 Q38.2344,289.959 38.2344,290.9902 L38.2344,292.084 Q38.2344,293.3184 39.125,294.1465 Q40.0156,294.959 41.6094,294.959 Q42.5469,294.959 43.2031,294.709 Q43.5938,294.5527 44.0156,294.1152 Q44.2813,293.8496 44.4219,293.7715 Q44.5781,293.6934 44.7813,293.6934 Q45.1094,293.6934 45.3594,293.959 Q45.625,294.209 45.625,294.5527 Q45.625,294.8965 45.2813,295.3027 Q44.7813,295.8809 43.9844,296.209 Q42.9063,296.6621 41.6094,296.6621 Q40.0938,296.6621 38.8906,296.0371 Q37.9063,295.5371 37.2188,294.4746 Q36.5313,293.3965 36.5313,292.1152 L36.5313,290.959 Q36.5313,289.6309 37.1406,288.4902 Q37.7656,287.334 38.8594,286.7246 Q39.9531,286.0996 41.1875,286.0996 Q41.9219,286.0996 42.5625,286.2715 Q43.2188,286.4277 43.7656,286.7871 Z " fill="#000000"/><text fill="#000000" font-family="sans-serif" font-size="12" font-style="italic" lengthAdjust="spacing" textLength="85" x="57.5" y="286.5703">&#171;Value Object&#187;</text><text fill="#000000" font-family="sans-serif" font-size="14" lengthAdjust="spacing" textLength="90" x="55" y="304.6895">PhoneNumber</text><line style="stroke:#181818;stroke-width:0.5;" x1="27" x2="147" y1="313.2031" y2="313.2031"/><line style="stroke:#181818;stroke-width:0.5;" x1="27" x2="147" y1="321.2031" y2="321.2031"/></g><!--class SystemUser--><g id="elem_SystemUser"><rect codeLine="13" fill="#F1F1F1" height="76.543" id="SystemUser" rx="2.5" ry="2.5" style="stroke:#181818;stroke-width:0.5;" width="128" x="558" y="260.6211"/><ellipse cx="573" cy="290.8926" fill="#ADD1B2" rx="11" ry="11" style="stroke:#181818;stroke-width:1.0;"/><path d="M575.7656,286.7676 Q575.9219,286.5488 576.1094,286.4395 Q576.2969,286.3301 576.5156,286.3301 Q576.8906,286.3301 577.125,286.5957 Q577.3594,286.8457 577.3594,287.4551 L577.3594,288.9082 Q577.3594,289.5176 577.125,289.7832 Q576.8906,290.0488 576.5156,290.0488 Q576.1719,290.0488 575.9688,289.8457 Q575.7656,289.6582 575.6563,289.1426 Q575.6094,288.7832 575.4219,288.5957 Q575.0938,288.2207 574.4844,288.002 Q573.875,287.7832 573.25,287.7832 Q572.4844,287.7832 571.8438,288.1113 Q571.2188,288.4395 570.7188,289.1895 Q570.2344,289.9395 570.2344,290.9707 L570.2344,292.0645 Q570.2344,293.2988 571.125,294.127 Q572.0156,294.9395 573.6094,294.9395 Q574.5469,294.9395 575.2031,294.6895 Q575.5938,294.5332 576.0156,294.0957 Q576.2813,293.8301 576.4219,293.752 Q576.5781,293.6738 576.7813,293.6738 Q577.1094,293.6738 577.3594,293.9395 Q577.625,294.1895 577.625,294.5332 Q577.625,294.877 577.2813,295.2832 Q576.7813,295.8613 575.9844,296.1895 Q574.9063,296.6426 573.6094,296.6426 Q572.0938,296.6426 570.8906,296.0176 Q569.9063,295.5176 569.2188,294.4551 Q568.5313,293.377 568.5313,292.0957 L568.5313,290.9395 Q568.5313,289.6113 569.1406,288.4707 Q569.7656,287.3145 570.8594,286.7051 Q571.9531,286.0801 573.1875,286.0801 Q573.9219,286.0801 574.5625,286.252 Q575.2188,286.4082 575.7656,286.7676 Z " fill="#000000"/><text fill="#000000" font-family="sans-serif" font-size="12" font-style="italic" lengthAdjust="spacing" textLength="100" x="585" y="278.5703">&#171;Aggregate Root&#187;</text><text fill="#000000" font-family="sans-serif" font-size="12" font-style="italic" lengthAdjust="spacing" textLength="44" x="613" y="294.5313">&#171;Entity&#187;</text><text fill="#000000" font-family="sans-serif" font-size="14" lengthAdjust="spacing" textLength="75" x="597.5" y="312.6504">SystemUser</text><line style="stroke:#181818;stroke-width:0.5;" x1="559" x2="685" y1="321.1641" y2="321.1641"/><line style="stroke:#181818;stroke-width:0.5;" x1="559" x2="685" y1="329.1641" y2="329.1641"/></g><!--class Password--><g id="elem_Password"><rect codeLine="14" fill="#F1F1F1" height="60.582" id="Password" rx="2.5" ry="2.5" style="stroke:#181818;stroke-width:0.5;" width="113" x="409.5" y="268.6211"/><ellipse cx="424.5" cy="290.9121" fill="#ADD1B2" rx="11" ry="11" style="stroke:#181818;stroke-width:1.0;"/><path d="M427.2656,286.7871 Q427.4219,286.5684 427.6094,286.459 Q427.7969,286.3496 428.0156,286.3496 Q428.3906,286.3496 428.625,286.6152 Q428.8594,286.8652 428.8594,287.4746 L428.8594,288.9277 Q428.8594,289.5371 428.625,289.8027 Q428.3906,290.0684 428.0156,290.0684 Q427.6719,290.0684 427.4688,289.8652 Q427.2656,289.6777 427.1563,289.1621 Q427.1094,288.8027 426.9219,288.6152 Q426.5938,288.2402 425.9844,288.0215 Q425.375,287.8027 424.75,287.8027 Q423.9844,287.8027 423.3438,288.1309 Q422.7188,288.459 422.2188,289.209 Q421.7344,289.959 421.7344,290.9902 L421.7344,292.084 Q421.7344,293.3184 422.625,294.1465 Q423.5156,294.959 425.1094,294.959 Q426.0469,294.959 426.7031,294.709 Q427.0938,294.5527 427.5156,294.1152 Q427.7813,293.8496 427.9219,293.7715 Q428.0781,293.6934 428.2813,293.6934 Q428.6094,293.6934 428.8594,293.959 Q429.125,294.209 429.125,294.5527 Q429.125,294.8965 428.7813,295.3027 Q428.2813,295.8809 427.4844,296.209 Q426.4063,296.6621 425.1094,296.6621 Q423.5938,296.6621 422.3906,296.0371 Q421.4063,295.5371 420.7188,294.4746 Q420.0313,293.3965 420.0313,292.1152 L420.0313,290.959 Q420.0313,289.6309 420.6406,288.4902 Q421.2656,287.334 422.3594,286.7246 Q423.4531,286.0996 424.6875,286.0996 Q425.4219,286.0996 426.0625,286.2715 Q426.7188,286.4277 427.2656,286.7871 Z " fill="#000000"/><text fill="#000000" font-family="sans-serif" font-size="12" font-style="italic" lengthAdjust="spacing" textLength="85" x="436.5" y="286.5703">&#171;Value Object&#187;</text><text fill="#000000" font-family="sans-serif" font-size="14" lengthAdjust="spacing" textLength="61" x="448.5" y="304.6895">Password</text><line style="stroke:#181818;stroke-width:0.5;" x1="410.5" x2="521.5" y1="313.2031" y2="313.2031"/><line style="stroke:#181818;stroke-width:0.5;" x1="410.5" x2="521.5" y1="321.2031" y2="321.2031"/></g><!--class BaseRole--><g id="elem_BaseRole"><rect codeLine="15" fill="#F1F1F1" height="60.582" id="BaseRole" rx="2.5" ry="2.5" style="stroke:#181818;stroke-width:0.5;" width="113" x="721.5" y="268.6211"/><ellipse cx="736.5" cy="290.9121" fill="#ADD1B2" rx="11" ry="11" style="stroke:#181818;stroke-width:1.0;"/><path d="M739.2656,286.7871 Q739.4219,286.5684 739.6094,286.459 Q739.7969,286.3496 740.0156,286.3496 Q740.3906,286.3496 740.625,286.6152 Q740.8594,286.8652 740.8594,287.4746 L740.8594,288.9277 Q740.8594,289.5371 740.625,289.8027 Q740.3906,290.0684 740.0156,290.0684 Q739.6719,290.0684 739.4688,289.8652 Q739.2656,289.6777 739.1563,289.1621 Q739.1094,288.8027 738.9219,288.6152 Q738.5938,288.2402 737.9844,288.0215 Q737.375,287.8027 736.75,287.8027 Q735.9844,287.8027 735.3438,288.1309 Q734.7188,288.459 734.2188,289.209 Q733.7344,289.959 733.7344,290.9902 L733.7344,292.084 Q733.7344,293.3184 734.625,294.1465 Q735.5156,294.959 737.1094,294.959 Q738.0469,294.959 738.7031,294.709 Q739.0938,294.5527 739.5156,294.1152 Q739.7813,293.8496 739.9219,293.7715 Q740.0781,293.6934 740.2813,293.6934 Q740.6094,293.6934 740.8594,293.959 Q741.125,294.209 741.125,294.5527 Q741.125,294.8965 740.7813,295.3027 Q740.2813,295.8809 739.4844,296.209 Q738.4063,296.6621 737.1094,296.6621 Q735.5938,296.6621 734.3906,296.0371 Q733.4063,295.5371 732.7188,294.4746 Q732.0313,293.3965 732.0313,292.1152 L732.0313,290.959 Q732.0313,289.6309 732.6406,288.4902 Q733.2656,287.334 734.3594,286.7246 Q735.4531,286.0996 736.6875,286.0996 Q737.4219,286.0996 738.0625,286.2715 Q738.7188,286.4277 739.2656,286.7871 Z " fill="#000000"/><text fill="#000000" font-family="sans-serif" font-size="12" font-style="italic" lengthAdjust="spacing" textLength="85" x="748.5" y="286.5703">&#171;Value Object&#187;</text><text fill="#000000" font-family="sans-serif" font-size="14" lengthAdjust="spacing" textLength="61" x="760.5" y="304.6895">BaseRole</text><line style="stroke:#181818;stroke-width:0.5;" x1="722.5" x2="833.5" y1="313.2031" y2="313.2031"/><line style="stroke:#181818;stroke-width:0.5;" x1="722.5" x2="833.5" y1="321.2031" y2="321.2031"/></g><!--class Email--><g id="elem_Email"><rect fill="#F1F1F1" height="48" id="Email" rx="2.5" ry="2.5" style="stroke:#181818;stroke-width:0.5;" width="66" x="473" y="416.6211"/><ellipse cx="488" cy="432.6211" fill="#ADD1B2" rx="11" ry="11" style="stroke:#181818;stroke-width:1.0;"/><path d="M490.7656,428.4961 Q490.9219,428.2773 491.1094,428.168 Q491.2969,428.0586 491.5156,428.0586 Q491.8906,428.0586 492.125,428.3242 Q492.3594,428.5742 492.3594,429.1836 L492.3594,430.6367 Q492.3594,431.2461 492.125,431.5117 Q491.8906,431.7773 491.5156,431.7773 Q491.1719,431.7773 490.9688,431.5742 Q490.7656,431.3867 490.6563,430.8711 Q490.6094,430.5117 490.4219,430.3242 Q490.0938,429.9492 489.4844,429.7305 Q488.875,429.5117 488.25,429.5117 Q487.4844,429.5117 486.8438,429.8398 Q486.2188,430.168 485.7188,430.918 Q485.2344,431.668 485.2344,432.6992 L485.2344,433.793 Q485.2344,435.0273 486.125,435.8555 Q487.0156,436.668 488.6094,436.668 Q489.5469,436.668 490.2031,436.418 Q490.5938,436.2617 491.0156,435.8242 Q491.2813,435.5586 491.4219,435.4805 Q491.5781,435.4023 491.7813,435.4023 Q492.1094,435.4023 492.3594,435.668 Q492.625,435.918 492.625,436.2617 Q492.625,436.6055 492.2813,437.0117 Q491.7813,437.5898 490.9844,437.918 Q489.9063,438.3711 488.6094,438.3711 Q487.0938,438.3711 485.8906,437.7461 Q484.9063,437.2461 484.2188,436.1836 Q483.5313,435.1055 483.5313,433.8242 L483.5313,432.668 Q483.5313,431.3398 484.1406,430.1992 Q484.7656,429.043 485.8594,428.4336 Q486.9531,427.8086 488.1875,427.8086 Q488.9219,427.8086 489.5625,427.9805 Q490.2188,428.1367 490.7656,428.4961 Z " fill="#000000"/><text fill="#000000" font-family="sans-serif" font-size="14" lengthAdjust="spacing" textLength="34" x="502" y="438.418">Email</text><line style="stroke:#181818;stroke-width:0.5;" x1="474" x2="538" y1="448.6211" y2="448.6211"/><line style="stroke:#181818;stroke-width:0.5;" x1="474" x2="538" y1="456.6211" y2="456.6211"/></g><!--class Username--><g id="elem_Username"><rect fill="#F1F1F1" height="48" id="Username" rx="2.5" ry="2.5" style="stroke:#181818;stroke-width:0.5;" width="96" x="574" y="416.6211"/><ellipse cx="589" cy="432.6211" fill="#ADD1B2" rx="11" ry="11" style="stroke:#181818;stroke-width:1.0;"/><path d="M591.7656,428.4961 Q591.9219,428.2773 592.1094,428.168 Q592.2969,428.0586 592.5156,428.0586 Q592.8906,428.0586 593.125,428.3242 Q593.3594,428.5742 593.3594,429.1836 L593.3594,430.6367 Q593.3594,431.2461 593.125,431.5117 Q592.8906,431.7773 592.5156,431.7773 Q592.1719,431.7773 591.9688,431.5742 Q591.7656,431.3867 591.6563,430.8711 Q591.6094,430.5117 591.4219,430.3242 Q591.0938,429.9492 590.4844,429.7305 Q589.875,429.5117 589.25,429.5117 Q588.4844,429.5117 587.8438,429.8398 Q587.2188,430.168 586.7188,430.918 Q586.2344,431.668 586.2344,432.6992 L586.2344,433.793 Q586.2344,435.0273 587.125,435.8555 Q588.0156,436.668 589.6094,436.668 Q590.5469,436.668 591.2031,436.418 Q591.5938,436.2617 592.0156,435.8242 Q592.2813,435.5586 592.4219,435.4805 Q592.5781,435.4023 592.7813,435.4023 Q593.1094,435.4023 593.3594,435.668 Q593.625,435.918 593.625,436.2617 Q593.625,436.6055 593.2813,437.0117 Q592.7813,437.5898 591.9844,437.918 Q590.9063,438.3711 589.6094,438.3711 Q588.0938,438.3711 586.8906,437.7461 Q585.9063,437.2461 585.2188,436.1836 Q584.5313,435.1055 584.5313,433.8242 L584.5313,432.668 Q584.5313,431.3398 585.1406,430.1992 Q585.7656,429.043 586.8594,428.4336 Q587.9531,427.8086 589.1875,427.8086 Q589.9219,427.8086 590.5625,427.9805 Q591.2188,428.1367 591.7656,428.4961 Z " fill="#000000"/><text fill="#000000" font-family="sans-serif" font-size="14" lengthAdjust="spacing" textLength="64" x="603" y="438.418">Username</text><line style="stroke:#181818;stroke-width:0.5;" x1="575" x2="669" y1="448.6211" y2="448.6211"/><line style="stroke:#181818;stroke-width:0.5;" x1="575" x2="669" y1="456.6211" y2="456.6211"/></g><!--class Name--><g id="elem_Name"><rect fill="#F1F1F1" height="48" id="Name" rx="2.5" ry="2.5" style="stroke:#181818;stroke-width:0.5;" width="68" x="705" y="416.6211"/><ellipse cx="720" cy="432.6211" fill="#ADD1B2" rx="11" ry="11" style="stroke:#181818;stroke-width:1.0;"/><path d="M722.7656,428.4961 Q722.9219,428.2773 723.1094,428.168 Q723.2969,428.0586 723.5156,428.0586 Q723.8906,428.0586 724.125,428.3242 Q724.3594,428.5742 724.3594,429.1836 L724.3594,430.6367 Q724.3594,431.2461 724.125,431.5117 Q723.8906,431.7773 723.5156,431.7773 Q723.1719,431.7773 722.9688,431.5742 Q722.7656,431.3867 722.6563,430.8711 Q722.6094,430.5117 722.4219,430.3242 Q722.0938,429.9492 721.4844,429.7305 Q720.875,429.5117 720.25,429.5117 Q719.4844,429.5117 718.8438,429.8398 Q718.2188,430.168 717.7188,430.918 Q717.2344,431.668 717.2344,432.6992 L717.2344,433.793 Q717.2344,435.0273 718.125,435.8555 Q719.0156,436.668 720.6094,436.668 Q721.5469,436.668 722.2031,436.418 Q722.5938,436.2617 723.0156,435.8242 Q723.2813,435.5586 723.4219,435.4805 Q723.5781,435.4023 723.7813,435.4023 Q724.1094,435.4023 724.3594,435.668 Q724.625,435.918 724.625,436.2617 Q724.625,436.6055 724.2813,437.0117 Q723.7813,437.5898 722.9844,437.918 Q721.9063,438.3711 720.6094,438.3711 Q719.0938,438.3711 717.8906,437.7461 Q716.9063,437.2461 716.2188,436.1836 Q715.5313,435.1055 715.5313,433.8242 L715.5313,432.668 Q715.5313,431.3398 716.1406,430.1992 Q716.7656,429.043 717.8594,428.4336 Q718.9531,427.8086 720.1875,427.8086 Q720.9219,427.8086 721.5625,427.9805 Q722.2188,428.1367 722.7656,428.4961 Z " fill="#000000"/><text fill="#000000" font-family="sans-serif" font-size="14" lengthAdjust="spacing" textLength="36" x="734" y="438.418">Name</text><line style="stroke:#181818;stroke-width:0.5;" x1="706" x2="772" y1="448.6211" y2="448.6211"/><line style="stroke:#181818;stroke-width:0.5;" x1="706" x2="772" y1="456.6211" y2="456.6211"/></g><!--link SystemUser to Email--><g id="link_SystemUser_Email"><path codeLine="17" d="M590.61,337.8711 C569.81,362.8811 547.0175,390.2988 529.2375,411.6688 " fill="none" id="SystemUser-to-Email" style="stroke:#181818;stroke-width:1.0;"/><polygon fill="#181818" points="525.4,416.2811,534.2311,411.9209,528.5979,412.4375,528.0814,406.8043,525.4,416.2811" style="stroke:#181818;stroke-width:1.0;"/><text fill="#000000" font-family="sans-serif" font-size="13" lengthAdjust="spacing" textLength="21" x="565" y="382.6494">has</text><text fill="#000000" font-family="sans-serif" font-size="13" lengthAdjust="spacing" textLength="7" x="578.2675" y="359.1918">1</text><text fill="#000000" font-family="sans-serif" font-size="13" lengthAdjust="spacing" textLength="7" x="522.2756" y="405.3401">1</text></g><!--link SystemUser to Username--><g id="link_SystemUser_Username"><path codeLine="18" d="M622,337.8711 C622,362.8811 622,388.9111 622,410.2811 " fill="none" id="SystemUser-to-Username" style="stroke:#181818;stroke-width:1.0;"/><polygon fill="#181818" points="622,416.2811,626,407.2811,622,411.2811,618,407.2811,622,416.2811" style="stroke:#181818;stroke-width:1.0;"/><text fill="#000000" font-family="sans-serif" font-size="13" lengthAdjust="spacing" textLength="21" x="623" y="382.6494">has</text><text fill="#000000" font-family="sans-serif" font-size="13" lengthAdjust="spacing" textLength="7" x="614.4641" y="359.1918">1</text><text fill="#000000" font-family="sans-serif" font-size="13" lengthAdjust="spacing" textLength="7" x="614.1469" y="405.3401">1</text></g><!--reverse link Password to SystemUser--><g id="link_Password_SystemUser"><path codeLine="19" d="M528.67,299.1211 C540.44,299.1211 546.21,299.1211 557.98,299.1211 " fill="none" id="Password-backto-SystemUser" style="stroke:#181818;stroke-width:1.0;"/><polygon fill="#181818" points="522.67,299.1211,531.67,303.1211,527.67,299.1211,531.67,295.1211,522.67,299.1211" style="stroke:#181818;stroke-width:1.0;"/><text fill="#000000" font-family="sans-serif" font-size="13" lengthAdjust="spacing" textLength="7" x="530.3793" y="295.1058">1</text><text fill="#000000" font-family="sans-serif" font-size="13" lengthAdjust="spacing" textLength="7" x="543.173" y="295.2098">1</text></g><!--link SystemUser to Name--><g id="link_SystemUser_Name"><path codeLine="20" d="M653.66,337.8711 C674.64,362.8811 697.6435,390.3147 715.5735,411.6847 " fill="none" id="SystemUser-to-Name" style="stroke:#181818;stroke-width:1.0;"/><polygon fill="#181818" points="719.43,416.2811,716.7095,406.8154,716.2162,412.4507,710.5809,411.9575,719.43,416.2811" style="stroke:#181818;stroke-width:1.0;"/><text fill="#000000" font-family="sans-serif" font-size="13" lengthAdjust="spacing" textLength="7" x="650.972" y="359.1918">1</text><text fill="#000000" font-family="sans-serif" font-size="13" lengthAdjust="spacing" textLength="7" x="706.8067" y="405.3401">1</text></g><!--link SystemUser to BaseRole--><g id="link_SystemUser_BaseRole"><path codeLine="21" d="M686.29,299.1211 C697.99,299.1211 703.69,299.1211 715.4,299.1211 " fill="none" id="SystemUser-to-BaseRole" style="stroke:#181818;stroke-width:1.0;"/><polygon fill="#181818" points="721.4,299.1211,712.4,295.1211,716.4,299.1211,712.4,303.1211,721.4,299.1211" style="stroke:#181818;stroke-width:1.0;"/><text fill="#000000" font-family="sans-serif" font-size="13" lengthAdjust="spacing" textLength="7" x="694.1282" y="295.2098">1</text><text fill="#000000" font-family="sans-serif" font-size="13" lengthAdjust="spacing" textLength="7" x="706.3241" y="295.0549">1</text></g><!--link Candidate to CurriculumVitae--><g id="link_Candidate_CurriculumVitae"><path codeLine="24" d="M151.13,122.1211 C162.69,122.1211 168.25,122.1211 179.8,122.1211 " fill="none" id="Candidate-to-CurriculumVitae" style="stroke:#181818;stroke-width:1.0;"/><polygon fill="#181818" points="185.8,122.1211,176.8,118.1211,180.8,122.1211,176.8,126.1211,185.8,122.1211" style="stroke:#181818;stroke-width:1.0;"/><text fill="#000000" font-family="sans-serif" font-size="13" lengthAdjust="spacing" textLength="7" x="171.1766" y="118.2585">1</text></g><!--link Candidate to PhoneNumber--><g id="link_Candidate_PhoneNumber"><path codeLine="25" d="M87,160.6611 C87,192.9011 87,232.7511 87,262.4611 " fill="none" id="Candidate-to-PhoneNumber" style="stroke:#181818;stroke-width:1.0;"/><polygon fill="#181818" points="87,268.4611,91,259.4611,87,263.4611,83,259.4611,87,268.4611" style="stroke:#181818;stroke-width:1.0;"/><text fill="#000000" font-family="sans-serif" font-size="13" lengthAdjust="spacing" textLength="7" x="79.4422" y="182.246">1</text><text fill="#000000" font-family="sans-serif" font-size="13" lengthAdjust="spacing" textLength="7" x="79.2781" y="257.4858">1</text></g><!--link Candidate to User--><g id="link_Candidate_User"><path codeLine="26" d="M151.42,154.0011 C157.31,156.3911 163.23,158.6411 169,160.6211 C240.28,185.0711 276.78,150.5811 334,199.6211 C342.83,207.1886 349.7363,216.9967 355.1309,227.4844 C357.8283,232.7282 360.1477,238.1419 362.1408,243.5304 C363.1374,246.2246 364.0523,248.9125 364.8921,251.5697 C365.1021,252.234 365.3073,252.8964 365.508,253.5565 C365.6083,253.8865 365.7075,254.216 365.8055,254.5448 C365.8545,254.7093 364.2042,249.1191 364.2527,249.2832 " fill="none" id="Candidate-to-User" style="stroke:#181818;stroke-width:1.0;"/><polygon fill="#181818" points="365.9517,255.0376,367.2394,245.2733,364.5358,250.2423,359.5668,247.5388,365.9517,255.0376" style="stroke:#181818;stroke-width:1.0;"/><text fill="#000000" font-family="sans-serif" font-size="13" lengthAdjust="spacing" textLength="7" x="158.8488" y="153.6275">1</text><text fill="#000000" font-family="sans-serif" font-size="13" lengthAdjust="spacing" textLength="7" x="367" y="295.0994">1</text></g><!--SRC=[ZP5DQyCm38Rl_XN2FGUo7Ki8xAF7jQMblIkEI3mSU_Y3KKh_- -ns6IQqOJxOO3tI-qhoqYi2_cu6b1e-J4iA2ZZiuRaiouOpPabur5s41EfMjkW95eXD8yIPGJn2eNFmDWQhwgNhB7M9sndZwxggLjfBVwhhyoNF2DPA4LGOZj9Zp3kY2WIRvZCgJjXjRpIjmz2GXId86BlaDld1aUMm429vXDpa_kGy3IaE_xQvZTUtiUsilrTqj3FgNXDNAXFcJnoAehw-gpXqjOGUtHoLFZGEz1WCNpToz3fNRHqhtOtVmcCdQQX_EuN2ogxtlyXaSHcMwsGhUq0aQVO3]--></g></svg>