<?xml version="1.0" encoding="us-ascii" standalone="no"?><svg xmlns="http://www.w3.org/2000/svg" xmlns:xlink="http://www.w3.org/1999/xlink" contentStyleType="text/css" height="1190px" preserveAspectRatio="none" style="width:2219px;height:1190px;background:#FFFFFF;" version="1.1" viewBox="0 0 2219 1190" width="2219px" zoomAndPan="magnify"><defs/><g><text fill="#000000" font-family="sans-serif" font-size="14" font-weight="bold" lengthAdjust="spacing" textLength="272" x="972.5" y="30.1074">Disable Candidate - Sequence Diagram</text><rect fill="#FFFFFF" height="965.3906" style="stroke:#181818;stroke-width:1.0;" width="10" x="31.5" y="133.2422"/><rect fill="#FFFFFF" height="432.4434" style="stroke:#181818;stroke-width:1.0;" width="10" x="326.5" y="156.5332"/><rect fill="#FFFFFF" height="478.3652" style="stroke:#181818;stroke-width:1.0;" width="10" x="326.5" y="620.2676"/><rect fill="#FFFFFF" height="219.0371" style="stroke:#181818;stroke-width:1.0;" width="10" x="529.5" y="294.3574"/><rect fill="#FFFFFF" height="406.7832" style="stroke:#181818;stroke-width:1.0;" width="10" x="529.5" y="651.5586"/><rect fill="#FFFFFF" height="156.4551" style="stroke:#181818;stroke-width:1.0;" width="10" x="741.5" y="325.6484"/><rect fill="#FFFFFF" height="344.2012" style="stroke:#181818;stroke-width:1.0;" width="10" x="741.5" y="682.8496"/><rect fill="#FFFFFF" height="31.291" style="stroke:#181818;stroke-width:1.0;" width="10" x="1638.5" y="356.9395"/><rect fill="#FFFFFF" height="31.291" style="stroke:#181818;stroke-width:1.0;" width="10" x="1638.5" y="714.1406"/><rect fill="#FFFFFF" height="31.291" style="stroke:#181818;stroke-width:1.0;" width="10" x="1793.5" y="419.5215"/><rect fill="#FFFFFF" height="31.291" style="stroke:#181818;stroke-width:1.0;" width="10" x="1793.5" y="776.7227"/><rect fill="#FFFFFF" height="31.291" style="stroke:#181818;stroke-width:1.0;" width="10" x="1793.5" y="964.4688"/><rect fill="#FFFFFF" height="93.873" style="stroke:#181818;stroke-width:1.0;" width="10" x="1916.5" y="839.3047"/><rect fill="#FFFFFF" height="31.291" style="stroke:#181818;stroke-width:1.0;" width="10" x="2163.5" y="870.5957"/><line style="stroke:#181818;stroke-width:0.5;stroke-dasharray:5.0,5.0;" x1="36" x2="36" y1="123.2422" y2="1107.6328"/><line style="stroke:#181818;stroke-width:0.5;stroke-dasharray:5.0,5.0;" x1="331.5" x2="331.5" y1="123.2422" y2="1107.6328"/><line style="stroke:#181818;stroke-width:0.5;stroke-dasharray:5.0,5.0;" x1="534.5" x2="534.5" y1="205.6543" y2="1107.6328"/><line style="stroke:#181818;stroke-width:0.5;stroke-dasharray:5.0,5.0;" x1="746.5" x2="746.5" y1="123.2422" y2="1107.6328"/><line style="stroke:#181818;stroke-width:0.5;stroke-dasharray:5.0,5.0;" x1="1643" x2="1643" y1="123.2422" y2="1107.6328"/><line style="stroke:#181818;stroke-width:0.5;stroke-dasharray:5.0,5.0;" x1="1798" x2="1798" y1="123.2422" y2="1107.6328"/><line style="stroke:#181818;stroke-width:0.5;stroke-dasharray:5.0,5.0;" x1="1921" x2="1921" y1="123.2422" y2="1107.6328"/><line style="stroke:#181818;stroke-width:0.5;stroke-dasharray:5.0,5.0;" x1="2168" x2="2168" y1="123.2422" y2="1107.6328"/><text fill="#000000" font-family="sans-serif" font-size="14" lengthAdjust="spacing" textLength="57" x="5" y="119.7285">Operator</text><ellipse cx="36.5" cy="53.1211" fill="#E2E2F0" rx="8" ry="8" style="stroke:#181818;stroke-width:0.5;"/><path d="M36.5,61.1211 L36.5,88.1211 M23.5,69.1211 L49.5,69.1211 M36.5,88.1211 L23.5,103.1211 M36.5,88.1211 L49.5,103.1211 " fill="none" style="stroke:#181818;stroke-width:0.5;"/><text fill="#000000" font-family="sans-serif" font-size="14" lengthAdjust="spacing" textLength="57" x="5" y="1121.7402">Operator</text><ellipse cx="36.5" cy="1133.7539" fill="#E2E2F0" rx="8" ry="8" style="stroke:#181818;stroke-width:0.5;"/><path d="M36.5,1141.7539 L36.5,1168.7539 M23.5,1149.7539 L49.5,1149.7539 M36.5,1168.7539 L23.5,1183.7539 M36.5,1168.7539 L49.5,1183.7539 " fill="none" style="stroke:#181818;stroke-width:0.5;"/><rect fill="#E2E2F0" height="51.2422" rx="2.5" ry="2.5" style="stroke:#181818;stroke-width:0.5;" width="138" x="262.5" y="71"/><text fill="#000000" font-family="sans-serif" font-size="14" font-style="italic" lengthAdjust="spacing" textLength="27" x="318" y="93.1074">&#171;ui&#187;</text><text fill="#000000" font-family="sans-serif" font-size="14" lengthAdjust="spacing" textLength="124" x="269.5" y="111.7285">DisableCandidateUI</text><rect fill="#E2E2F0" height="51.2422" rx="2.5" ry="2.5" style="stroke:#181818;stroke-width:0.5;" width="138" x="262.5" y="1106.6328"/><text fill="#000000" font-family="sans-serif" font-size="14" font-style="italic" lengthAdjust="spacing" textLength="27" x="318" y="1128.7402">&#171;ui&#187;</text><text fill="#000000" font-family="sans-serif" font-size="14" lengthAdjust="spacing" textLength="124" x="269.5" y="1147.3613">DisableCandidateUI</text><rect fill="#E2E2F0" height="51.2422" rx="2.5" ry="2.5" style="stroke:#181818;stroke-width:0.5;" width="192" x="438.5" y="1106.6328"/><text fill="#000000" font-family="sans-serif" font-size="14" font-style="italic" lengthAdjust="spacing" textLength="84" x="492.5" y="1128.7402">&#171;application&#187;</text><text fill="#000000" font-family="sans-serif" font-size="14" lengthAdjust="spacing" textLength="178" x="445.5" y="1147.3613">:DisableCandidateController</text><rect fill="#E2E2F0" height="51.2422" rx="2.5" ry="2.5" style="stroke:#181818;stroke-width:0.5;" width="212" x="640.5" y="71"/><text fill="#000000" font-family="sans-serif" font-size="14" font-style="italic" lengthAdjust="spacing" textLength="62" x="715.5" y="93.1074">&#171;Service&#187;</text><text fill="#000000" font-family="sans-serif" font-size="14" lengthAdjust="spacing" textLength="198" x="647.5" y="111.7285">:CandidateManagementService</text><rect fill="#E2E2F0" height="51.2422" rx="2.5" ry="2.5" style="stroke:#181818;stroke-width:0.5;" width="212" x="640.5" y="1106.6328"/><text fill="#000000" font-family="sans-serif" font-size="14" font-style="italic" lengthAdjust="spacing" textLength="62" x="715.5" y="1128.7402">&#171;Service&#187;</text><text fill="#000000" font-family="sans-serif" font-size="14" lengthAdjust="spacing" textLength="198" x="647.5" y="1147.3613">:CandidateManagementService</text><rect fill="#E2E2F0" height="51.2422" rx="2.5" ry="2.5" style="stroke:#181818;stroke-width:0.5;" width="143" x="1572" y="71"/><text fill="#000000" font-family="sans-serif" font-size="14" font-style="italic" lengthAdjust="spacing" textLength="62" x="1612.5" y="93.1074">&#171;Service&#187;</text><text fill="#000000" font-family="sans-serif" font-size="14" lengthAdjust="spacing" textLength="129" x="1579" y="111.7285">AuthorizationService</text><rect fill="#E2E2F0" height="51.2422" rx="2.5" ry="2.5" style="stroke:#181818;stroke-width:0.5;" width="143" x="1572" y="1106.6328"/><text fill="#000000" font-family="sans-serif" font-size="14" font-style="italic" lengthAdjust="spacing" textLength="62" x="1612.5" y="1128.7402">&#171;Service&#187;</text><text fill="#000000" font-family="sans-serif" font-size="14" lengthAdjust="spacing" textLength="129" x="1579" y="1147.3613">AuthorizationService</text><rect fill="#E2E2F0" height="51.2422" rx="2.5" ry="2.5" style="stroke:#181818;stroke-width:0.5;" width="147" x="1725" y="71"/><text fill="#000000" font-family="sans-serif" font-size="14" font-style="italic" lengthAdjust="spacing" textLength="79" x="1759" y="93.1074">&#171;repository&#187;</text><text fill="#000000" font-family="sans-serif" font-size="14" lengthAdjust="spacing" textLength="133" x="1732" y="111.7285">CandidateRepository</text><rect fill="#E2E2F0" height="51.2422" rx="2.5" ry="2.5" style="stroke:#181818;stroke-width:0.5;" width="147" x="1725" y="1106.6328"/><text fill="#000000" font-family="sans-serif" font-size="14" font-style="italic" lengthAdjust="spacing" textLength="79" x="1759" y="1128.7402">&#171;repository&#187;</text><text fill="#000000" font-family="sans-serif" font-size="14" lengthAdjust="spacing" textLength="133" x="1732" y="1147.3613">CandidateRepository</text><rect fill="#E2E2F0" height="51.2422" rx="2.5" ry="2.5" style="stroke:#181818;stroke-width:0.5;" width="79" x="1882" y="71"/><text fill="#000000" font-family="sans-serif" font-size="14" font-style="italic" lengthAdjust="spacing" textLength="62" x="1890.5" y="93.1074">&#171;domain&#187;</text><text fill="#000000" font-family="sans-serif" font-size="14" lengthAdjust="spacing" textLength="65" x="1889" y="111.7285">Candidate</text><rect fill="#E2E2F0" height="51.2422" rx="2.5" ry="2.5" style="stroke:#181818;stroke-width:0.5;" width="79" x="1882" y="1106.6328"/><text fill="#000000" font-family="sans-serif" font-size="14" font-style="italic" lengthAdjust="spacing" textLength="62" x="1890.5" y="1128.7402">&#171;domain&#187;</text><text fill="#000000" font-family="sans-serif" font-size="14" lengthAdjust="spacing" textLength="65" x="1889" y="1147.3613">Candidate</text><rect fill="#E2E2F0" height="51.2422" rx="2.5" ry="2.5" style="stroke:#181818;stroke-width:0.5;" width="89" x="2124" y="71"/><text fill="#000000" font-family="sans-serif" font-size="14" font-style="italic" lengthAdjust="spacing" textLength="62" x="2137.5" y="93.1074">&#171;domain&#187;</text><text fill="#000000" font-family="sans-serif" font-size="14" lengthAdjust="spacing" textLength="75" x="2131" y="111.7285">SystemUser</text><rect fill="#E2E2F0" height="51.2422" rx="2.5" ry="2.5" style="stroke:#181818;stroke-width:0.5;" width="89" x="2124" y="1106.6328"/><text fill="#000000" font-family="sans-serif" font-size="14" font-style="italic" lengthAdjust="spacing" textLength="62" x="2137.5" y="1128.7402">&#171;domain&#187;</text><text fill="#000000" font-family="sans-serif" font-size="14" lengthAdjust="spacing" textLength="75" x="2131" y="1147.3613">SystemUser</text><rect fill="#FFFFFF" height="965.3906" style="stroke:#181818;stroke-width:1.0;" width="10" x="31.5" y="133.2422"/><rect fill="#FFFFFF" height="432.4434" style="stroke:#181818;stroke-width:1.0;" width="10" x="326.5" y="156.5332"/><rect fill="#FFFFFF" height="478.3652" style="stroke:#181818;stroke-width:1.0;" width="10" x="326.5" y="620.2676"/><rect fill="#FFFFFF" height="219.0371" style="stroke:#181818;stroke-width:1.0;" width="10" x="529.5" y="294.3574"/><rect fill="#FFFFFF" height="406.7832" style="stroke:#181818;stroke-width:1.0;" width="10" x="529.5" y="651.5586"/><rect fill="#FFFFFF" height="156.4551" style="stroke:#181818;stroke-width:1.0;" width="10" x="741.5" y="325.6484"/><rect fill="#FFFFFF" height="344.2012" style="stroke:#181818;stroke-width:1.0;" width="10" x="741.5" y="682.8496"/><rect fill="#FFFFFF" height="31.291" style="stroke:#181818;stroke-width:1.0;" width="10" x="1638.5" y="356.9395"/><rect fill="#FFFFFF" height="31.291" style="stroke:#181818;stroke-width:1.0;" width="10" x="1638.5" y="714.1406"/><rect fill="#FFFFFF" height="31.291" style="stroke:#181818;stroke-width:1.0;" width="10" x="1793.5" y="419.5215"/><rect fill="#FFFFFF" height="31.291" style="stroke:#181818;stroke-width:1.0;" width="10" x="1793.5" y="776.7227"/><rect fill="#FFFFFF" height="31.291" style="stroke:#181818;stroke-width:1.0;" width="10" x="1793.5" y="964.4688"/><rect fill="#FFFFFF" height="93.873" style="stroke:#181818;stroke-width:1.0;" width="10" x="1916.5" y="839.3047"/><rect fill="#FFFFFF" height="31.291" style="stroke:#181818;stroke-width:1.0;" width="10" x="2163.5" y="870.5957"/><polygon fill="#181818" points="314.5,152.5332,324.5,156.5332,314.5,160.5332,318.5,156.5332" style="stroke:#181818;stroke-width:1.0;"/><line style="stroke:#181818;stroke-width:1.0;" x1="41.5" x2="320.5" y1="156.5332" y2="156.5332"/><text fill="#000000" font-family="sans-serif" font-size="13" font-weight="bold" lengthAdjust="spacing" textLength="7" x="48.5" y="151.2705">1</text><text fill="#000000" font-family="sans-serif" font-size="13" lengthAdjust="spacing" textLength="176" x="59.5" y="151.2705">Request to enable a candidate</text><polygon fill="#181818" points="426.5,183.8242,436.5,187.8242,426.5,191.8242,430.5,187.8242" style="stroke:#181818;stroke-width:1.0;"/><line style="stroke:#181818;stroke-width:1.0;" x1="336.5" x2="432.5" y1="187.8242" y2="187.8242"/><text fill="#000000" font-family="sans-serif" font-size="13" font-weight="bold" lengthAdjust="spacing" textLength="7" x="343.5" y="182.5615">2</text><text fill="#000000" font-family="sans-serif" font-size="13" lengthAdjust="spacing" textLength="36" x="354.5" y="182.5615">create</text><rect fill="#E2E2F0" height="51.2422" rx="2.5" ry="2.5" style="stroke:#181818;stroke-width:0.5;" width="192" x="438.5" y="164.5332"/><text fill="#000000" font-family="sans-serif" font-size="14" font-style="italic" lengthAdjust="spacing" textLength="84" x="492.5" y="186.6406">&#171;application&#187;</text><text fill="#000000" font-family="sans-serif" font-size="14" lengthAdjust="spacing" textLength="178" x="445.5" y="205.2617">:DisableCandidateController</text><line style="stroke:#181818;stroke-width:1.0;stroke-dasharray:2.0,2.0;" x1="336.5" x2="378.5" y1="250.0664" y2="250.0664"/><line style="stroke:#181818;stroke-width:1.0;stroke-dasharray:2.0,2.0;" x1="378.5" x2="378.5" y1="250.0664" y2="263.0664"/><line style="stroke:#181818;stroke-width:1.0;stroke-dasharray:2.0,2.0;" x1="337.5" x2="378.5" y1="263.0664" y2="263.0664"/><polygon fill="#181818" points="347.5,259.0664,337.5,263.0664,347.5,267.0664,343.5,263.0664" style="stroke:#181818;stroke-width:1.0;"/><text fill="#000000" font-family="sans-serif" font-size="13" font-weight="bold" lengthAdjust="spacing" textLength="7" x="343.5" y="244.8037">3</text><text fill="#000000" font-family="sans-serif" font-size="13" lengthAdjust="spacing" textLength="137" x="354.5" y="244.8037">listEnabledCandidates()</text><polygon fill="#181818" points="517.5,290.3574,527.5,294.3574,517.5,298.3574,521.5,294.3574" style="stroke:#181818;stroke-width:1.0;"/><line style="stroke:#181818;stroke-width:1.0;" x1="336.5" x2="523.5" y1="294.3574" y2="294.3574"/><text fill="#000000" font-family="sans-serif" font-size="13" font-weight="bold" lengthAdjust="spacing" textLength="7" x="343.5" y="289.0947">4</text><text fill="#000000" font-family="sans-serif" font-size="13" lengthAdjust="spacing" textLength="118" x="354.5" y="289.0947">enabledCandidates()</text><polygon fill="#181818" points="729.5,321.6484,739.5,325.6484,729.5,329.6484,733.5,325.6484" style="stroke:#181818;stroke-width:1.0;"/><line style="stroke:#181818;stroke-width:1.0;stroke-dasharray:2.0,2.0;" x1="539.5" x2="735.5" y1="325.6484" y2="325.6484"/><text fill="#000000" font-family="sans-serif" font-size="13" font-weight="bold" lengthAdjust="spacing" textLength="7" x="546.5" y="320.3857">5</text><text fill="#000000" font-family="sans-serif" font-size="13" lengthAdjust="spacing" textLength="79" x="557.5" y="320.3857">allCandidate()</text><polygon fill="#181818" points="1626.5,352.9395,1636.5,356.9395,1626.5,360.9395,1630.5,356.9395" style="stroke:#181818;stroke-width:1.0;"/><line style="stroke:#181818;stroke-width:1.0;" x1="751.5" x2="1632.5" y1="356.9395" y2="356.9395"/><text fill="#000000" font-family="sans-serif" font-size="13" font-weight="bold" lengthAdjust="spacing" textLength="7" x="758.5" y="351.6768">6</text><text fill="#000000" font-family="sans-serif" font-size="13" lengthAdjust="spacing" textLength="857" x="769.5" y="351.6768">ensureAuthenticatedUserHasAnyOf(BaseRoles.POWER_USER, BaseRoles.ADMIN, BaseRoles.OPERATOR, BaseRoles.CUSTOMER_MANAGER)</text><polygon fill="#181818" points="762.5,384.2305,752.5,388.2305,762.5,392.2305,758.5,388.2305" style="stroke:#181818;stroke-width:1.0;"/><line style="stroke:#181818;stroke-width:1.0;stroke-dasharray:2.0,2.0;" x1="756.5" x2="1642.5" y1="388.2305" y2="388.2305"/><text fill="#000000" font-family="sans-serif" font-size="13" font-weight="bold" lengthAdjust="spacing" textLength="7" x="768.5" y="382.9678">7</text><text fill="#000000" font-family="sans-serif" font-size="13" lengthAdjust="spacing" textLength="219" x="779.5" y="382.9678">ensures the user has the required role</text><polygon fill="#181818" points="1781.5,415.5215,1791.5,419.5215,1781.5,423.5215,1785.5,419.5215" style="stroke:#181818;stroke-width:1.0;"/><line style="stroke:#181818;stroke-width:1.0;" x1="751.5" x2="1787.5" y1="419.5215" y2="419.5215"/><text fill="#000000" font-family="sans-serif" font-size="13" font-weight="bold" lengthAdjust="spacing" textLength="7" x="758.5" y="414.2588">8</text><text fill="#000000" font-family="sans-serif" font-size="13" lengthAdjust="spacing" textLength="108" x="769.5" y="414.2588">findAllCandidates()</text><polygon fill="#181818" points="762.5,446.8125,752.5,450.8125,762.5,454.8125,758.5,450.8125" style="stroke:#181818;stroke-width:1.0;"/><line style="stroke:#181818;stroke-width:1.0;stroke-dasharray:2.0,2.0;" x1="756.5" x2="1797.5" y1="450.8125" y2="450.8125"/><text fill="#000000" font-family="sans-serif" font-size="13" font-weight="bold" lengthAdjust="spacing" textLength="7" x="768.5" y="445.5498">9</text><text fill="#000000" font-family="sans-serif" font-size="13" lengthAdjust="spacing" textLength="80" x="779.5" y="445.5498">all candidates</text><polygon fill="#181818" points="550.5,478.1035,540.5,482.1035,550.5,486.1035,546.5,482.1035" style="stroke:#181818;stroke-width:1.0;"/><line style="stroke:#181818;stroke-width:1.0;stroke-dasharray:2.0,2.0;" x1="544.5" x2="745.5" y1="482.1035" y2="482.1035"/><text fill="#000000" font-family="sans-serif" font-size="13" font-weight="bold" lengthAdjust="spacing" textLength="14" x="556.5" y="476.8408">10</text><text fill="#000000" font-family="sans-serif" font-size="13" lengthAdjust="spacing" textLength="80" x="574.5" y="476.8408">all candidates</text><polygon fill="#181818" points="347.5,509.3945,337.5,513.3945,347.5,517.3945,343.5,513.3945" style="stroke:#181818;stroke-width:1.0;"/><line style="stroke:#181818;stroke-width:1.0;stroke-dasharray:2.0,2.0;" x1="341.5" x2="533.5" y1="513.3945" y2="513.3945"/><text fill="#000000" font-family="sans-serif" font-size="13" font-weight="bold" lengthAdjust="spacing" textLength="14" x="353.5" y="508.1318">11</text><text fill="#000000" font-family="sans-serif" font-size="13" lengthAdjust="spacing" textLength="80" x="371.5" y="508.1318">all candidates</text><line style="stroke:#181818;stroke-width:1.0;stroke-dasharray:2.0,2.0;" x1="336.5" x2="378.5" y1="544.6855" y2="544.6855"/><line style="stroke:#181818;stroke-width:1.0;stroke-dasharray:2.0,2.0;" x1="378.5" x2="378.5" y1="544.6855" y2="557.6855"/><line style="stroke:#181818;stroke-width:1.0;stroke-dasharray:2.0,2.0;" x1="337.5" x2="378.5" y1="557.6855" y2="557.6855"/><polygon fill="#181818" points="347.5,553.6855,337.5,557.6855,347.5,561.6855,343.5,557.6855" style="stroke:#181818;stroke-width:1.0;"/><text fill="#000000" font-family="sans-serif" font-size="13" font-weight="bold" lengthAdjust="spacing" textLength="14" x="343.5" y="539.4229">12</text><text fill="#000000" font-family="sans-serif" font-size="13" lengthAdjust="spacing" textLength="161" x="361.5" y="539.4229">printCandidates(candidates)</text><polygon fill="#181818" points="52.5,584.9766,42.5,588.9766,52.5,592.9766,48.5,588.9766" style="stroke:#181818;stroke-width:1.0;"/><line style="stroke:#181818;stroke-width:1.0;stroke-dasharray:2.0,2.0;" x1="46.5" x2="330.5" y1="588.9766" y2="588.9766"/><text fill="#000000" font-family="sans-serif" font-size="13" font-weight="bold" lengthAdjust="spacing" textLength="14" x="58.5" y="583.7139">13</text><text fill="#000000" font-family="sans-serif" font-size="13" lengthAdjust="spacing" textLength="224" x="76.5" y="583.7139">returns a list of the enabled candidates</text><polygon fill="#181818" points="314.5,616.2676,324.5,620.2676,314.5,624.2676,318.5,620.2676" style="stroke:#181818;stroke-width:1.0;"/><line style="stroke:#181818;stroke-width:1.0;" x1="41.5" x2="320.5" y1="620.2676" y2="620.2676"/><text fill="#000000" font-family="sans-serif" font-size="13" font-weight="bold" lengthAdjust="spacing" textLength="14" x="48.5" y="615.0049">14</text><text fill="#000000" font-family="sans-serif" font-size="13" lengthAdjust="spacing" textLength="169" x="66.5" y="615.0049">selects an enabled candidate</text><polygon fill="#181818" points="517.5,647.5586,527.5,651.5586,517.5,655.5586,521.5,651.5586" style="stroke:#181818;stroke-width:1.0;"/><line style="stroke:#181818;stroke-width:1.0;" x1="336.5" x2="523.5" y1="651.5586" y2="651.5586"/><text fill="#000000" font-family="sans-serif" font-size="13" font-weight="bold" lengthAdjust="spacing" textLength="14" x="343.5" y="646.2959">15</text><text fill="#000000" font-family="sans-serif" font-size="13" lengthAdjust="spacing" textLength="138" x="361.5" y="646.2959">disableCandidate(email)</text><polygon fill="#181818" points="729.5,678.8496,739.5,682.8496,729.5,686.8496,733.5,682.8496" style="stroke:#181818;stroke-width:1.0;"/><line style="stroke:#181818;stroke-width:1.0;" x1="539.5" x2="735.5" y1="682.8496" y2="682.8496"/><text fill="#000000" font-family="sans-serif" font-size="13" font-weight="bold" lengthAdjust="spacing" textLength="14" x="546.5" y="677.5869">16</text><text fill="#000000" font-family="sans-serif" font-size="13" lengthAdjust="spacing" textLength="138" x="564.5" y="677.5869">disableCandidate(email)</text><polygon fill="#181818" points="1626.5,710.1406,1636.5,714.1406,1626.5,718.1406,1630.5,714.1406" style="stroke:#181818;stroke-width:1.0;"/><line style="stroke:#181818;stroke-width:1.0;" x1="751.5" x2="1632.5" y1="714.1406" y2="714.1406"/><text fill="#000000" font-family="sans-serif" font-size="13" font-weight="bold" lengthAdjust="spacing" textLength="14" x="758.5" y="708.8779">17</text><text fill="#000000" font-family="sans-serif" font-size="13" lengthAdjust="spacing" textLength="468" x="776.5" y="708.8779">ensureAuthenticatedUserHasAnyOf(BaseRoles.OPERATOR, BaseRoles.ADMIN)</text><polygon fill="#181818" points="762.5,741.4316,752.5,745.4316,762.5,749.4316,758.5,745.4316" style="stroke:#181818;stroke-width:1.0;"/><line style="stroke:#181818;stroke-width:1.0;stroke-dasharray:2.0,2.0;" x1="756.5" x2="1642.5" y1="745.4316" y2="745.4316"/><text fill="#000000" font-family="sans-serif" font-size="13" font-weight="bold" lengthAdjust="spacing" textLength="14" x="768.5" y="740.1689">18</text><text fill="#000000" font-family="sans-serif" font-size="13" lengthAdjust="spacing" textLength="198" x="786.5" y="740.1689">ensures the user has operator role</text><polygon fill="#181818" points="1781.5,772.7227,1791.5,776.7227,1781.5,780.7227,1785.5,776.7227" style="stroke:#181818;stroke-width:1.0;"/><line style="stroke:#181818;stroke-width:1.0;" x1="751.5" x2="1787.5" y1="776.7227" y2="776.7227"/><text fill="#000000" font-family="sans-serif" font-size="13" font-weight="bold" lengthAdjust="spacing" textLength="14" x="758.5" y="771.46">19</text><text fill="#000000" font-family="sans-serif" font-size="13" lengthAdjust="spacing" textLength="43" x="776.5" y="771.46">findAll()</text><polygon fill="#181818" points="762.5,804.0137,752.5,808.0137,762.5,812.0137,758.5,808.0137" style="stroke:#181818;stroke-width:1.0;"/><line style="stroke:#181818;stroke-width:1.0;stroke-dasharray:2.0,2.0;" x1="756.5" x2="1797.5" y1="808.0137" y2="808.0137"/><text fill="#000000" font-family="sans-serif" font-size="13" font-weight="bold" lengthAdjust="spacing" textLength="14" x="768.5" y="802.751">20</text><text fill="#000000" font-family="sans-serif" font-size="13" lengthAdjust="spacing" textLength="111" x="786.5" y="802.751">finds all candidates</text><polygon fill="#181818" points="1904.5,835.3047,1914.5,839.3047,1904.5,843.3047,1908.5,839.3047" style="stroke:#181818;stroke-width:1.0;"/><line style="stroke:#181818;stroke-width:1.0;" x1="751.5" x2="1910.5" y1="839.3047" y2="839.3047"/><text fill="#000000" font-family="sans-serif" font-size="13" font-weight="bold" lengthAdjust="spacing" textLength="14" x="758.5" y="834.042">21</text><text fill="#000000" font-family="sans-serif" font-size="13" lengthAdjust="spacing" textLength="37" x="776.5" y="834.042">.user()</text><polygon fill="#181818" points="2151.5,866.5957,2161.5,870.5957,2151.5,874.5957,2155.5,870.5957" style="stroke:#181818;stroke-width:1.0;"/><line style="stroke:#181818;stroke-width:1.0;" x1="1926.5" x2="2157.5" y1="870.5957" y2="870.5957"/><text fill="#000000" font-family="sans-serif" font-size="13" font-weight="bold" lengthAdjust="spacing" textLength="14" x="1933.5" y="865.333">22</text><text fill="#000000" font-family="sans-serif" font-size="13" lengthAdjust="spacing" textLength="200" x="1951.5" y="865.333">.deactivate(Calendar.getInstance())</text><polygon fill="#181818" points="1937.5,897.8867,1927.5,901.8867,1937.5,905.8867,1933.5,901.8867" style="stroke:#181818;stroke-width:1.0;"/><line style="stroke:#181818;stroke-width:1.0;stroke-dasharray:2.0,2.0;" x1="1931.5" x2="2167.5" y1="901.8867" y2="901.8867"/><text fill="#000000" font-family="sans-serif" font-size="13" font-weight="bold" lengthAdjust="spacing" textLength="14" x="1943.5" y="896.624">23</text><text fill="#000000" font-family="sans-serif" font-size="13" lengthAdjust="spacing" textLength="125" x="1961.5" y="896.624">candidate deactivated</text><polygon fill="#181818" points="762.5,929.1777,752.5,933.1777,762.5,937.1777,758.5,933.1777" style="stroke:#181818;stroke-width:1.0;"/><line style="stroke:#181818;stroke-width:1.0;stroke-dasharray:2.0,2.0;" x1="756.5" x2="1920.5" y1="933.1777" y2="933.1777"/><text fill="#000000" font-family="sans-serif" font-size="13" font-weight="bold" lengthAdjust="spacing" textLength="14" x="768.5" y="927.915">24</text><text fill="#000000" font-family="sans-serif" font-size="13" lengthAdjust="spacing" textLength="125" x="786.5" y="927.915">candidate deactivated</text><polygon fill="#181818" points="1781.5,960.4688,1791.5,964.4688,1781.5,968.4688,1785.5,964.4688" style="stroke:#181818;stroke-width:1.0;"/><line style="stroke:#181818;stroke-width:1.0;" x1="751.5" x2="1787.5" y1="964.4688" y2="964.4688"/><text fill="#000000" font-family="sans-serif" font-size="13" font-weight="bold" lengthAdjust="spacing" textLength="14" x="758.5" y="959.2061">25</text><text fill="#000000" font-family="sans-serif" font-size="13" lengthAdjust="spacing" textLength="94" x="776.5" y="959.2061">.save(candidate)</text><polygon fill="#181818" points="762.5,991.7598,752.5,995.7598,762.5,999.7598,758.5,995.7598" style="stroke:#181818;stroke-width:1.0;"/><line style="stroke:#181818;stroke-width:1.0;stroke-dasharray:2.0,2.0;" x1="756.5" x2="1797.5" y1="995.7598" y2="995.7598"/><text fill="#000000" font-family="sans-serif" font-size="13" font-weight="bold" lengthAdjust="spacing" textLength="14" x="768.5" y="990.4971">26</text><text fill="#000000" font-family="sans-serif" font-size="13" lengthAdjust="spacing" textLength="108" x="786.5" y="990.4971">candidate disabled</text><polygon fill="#181818" points="550.5,1023.0508,540.5,1027.0508,550.5,1031.0508,546.5,1027.0508" style="stroke:#181818;stroke-width:1.0;"/><line style="stroke:#181818;stroke-width:1.0;stroke-dasharray:2.0,2.0;" x1="544.5" x2="745.5" y1="1027.0508" y2="1027.0508"/><text fill="#000000" font-family="sans-serif" font-size="13" font-weight="bold" lengthAdjust="spacing" textLength="14" x="556.5" y="1021.7881">27</text><text fill="#000000" font-family="sans-serif" font-size="13" lengthAdjust="spacing" textLength="108" x="574.5" y="1021.7881">candidate disabled</text><polygon fill="#181818" points="347.5,1054.3418,337.5,1058.3418,347.5,1062.3418,343.5,1058.3418" style="stroke:#181818;stroke-width:1.0;"/><line style="stroke:#181818;stroke-width:1.0;stroke-dasharray:2.0,2.0;" x1="341.5" x2="533.5" y1="1058.3418" y2="1058.3418"/><text fill="#000000" font-family="sans-serif" font-size="13" font-weight="bold" lengthAdjust="spacing" textLength="14" x="353.5" y="1053.0791">28</text><text fill="#000000" font-family="sans-serif" font-size="13" lengthAdjust="spacing" textLength="108" x="371.5" y="1053.0791">candidate disabled</text><polygon fill="#181818" points="52.5,1085.6328,42.5,1089.6328,52.5,1093.6328,48.5,1089.6328" style="stroke:#181818;stroke-width:1.0;"/><line style="stroke:#181818;stroke-width:1.0;stroke-dasharray:2.0,2.0;" x1="46.5" x2="325.5" y1="1089.6328" y2="1089.6328"/><text fill="#000000" font-family="sans-serif" font-size="13" font-weight="bold" lengthAdjust="spacing" textLength="14" x="58.5" y="1084.3701">29</text><text fill="#000000" font-family="sans-serif" font-size="13" lengthAdjust="spacing" textLength="243" x="76.5" y="1084.3701">candidate disabled and success message</text><!--SRC=[ZLLTRwCm47pthrZrAQqk-G6eYiIbw2xIfLHGTBgdoeLjQuaOpZQLUh_-Taq2pXVj0uIOcV5wTcoSSZN2dRBocNvNKbUgaWvX3Zd-xL2N_5A-6haLGdQkqTts6OsGfMiCf2qQoG_IGdot4QqqJfMgbTh1rKvpa2pMLumhrd1xswdbyX0T7SDNZNQcgMiqdhPwp7uHKRPjhKhfLADF50RgHchvYblKBaVphahi5JOv2Un6ZibnvzuQe_vvvP0LJv262JDi6wl8Y0_FoPA7b5Xc6Br8zF2a873LRAKwMLF-OHrk2xip8V-JXr3kWdhdRh7vTCsNR6y46RVEEd0DeFQDbL3kvnnPnLeGd4XixiqD4Kk3ZE1HhnL1hQnBl4OrL6rdrmJPyI32Cw-7EHWY-4Q2r848P5qFo0FW9XTqpPSnWL3RpY0tXPh8_SQAJVWfRQm_qfVPTsanQsgqYuVqTv8z5NcIVODnbBnOtuS3wKEInO_f0MXLv8_fXjYR-3x-aMH1CN4kudnVSL-C1Ie6Ege2tcJ_nv3Doc05b5CK5OPqlnGEGWGlIbTniEe3VnWY-1RuC_RAXgeUohg494EdeDxCtdHkuWIGsqEzx76jKTe5TOwSwnv4laQqRDSPRIbJ70veNhmPknHSc8UYHbpO1zHYZQKZ2NtAkv1FObL7HyGCQIFKPyFMU_av8GZTrpDtBam-SMSI19SZrEnFpo_5Pp8qZB5VYSuoAQ85Ln3A9OL8YlcIJfTeCP9cArcZhgHPlA9RQ-iaVGncrm6F28AkkLSTPuPHemgBO3ZDiolvKpXLDRgmiF8TnpnEUH48z-sl9ZVHDFne8tq27ZQJtoUdOCfx1ROhIxGMjdIZpvGG_m40]--></g></svg>