<?xml version="1.0" encoding="us-ascii" standalone="no"?><svg xmlns="http://www.w3.org/2000/svg" xmlns:xlink="http://www.w3.org/1999/xlink" contentStyleType="text/css" height="1009px" preserveAspectRatio="none" style="width:1479px;height:1009px;background:#FFFFFF;" version="1.1" viewBox="0 0 1479 1009" width="1479px" zoomAndPan="magnify"><defs/><g><text fill="#000000" font-family="sans-serif" font-size="14" font-weight="bold" lengthAdjust="spacing" textLength="268" x="604.5" y="30.1074">Enable Candidate - Sequence Diagram</text><rect fill="#FFFFFF" height="783.6445" style="stroke:#181818;stroke-width:1.0;" width="10" x="31.5" y="133.2422"/><rect fill="#FFFFFF" height="407.1523" style="stroke:#181818;stroke-width:1.0;" width="10" x="310.5" y="156.5332"/><rect fill="#FFFFFF" height="312.9102" style="stroke:#181818;stroke-width:1.0;" width="10" x="310.5" y="594.9766"/><rect fill="#FFFFFF" height="250.3281" style="stroke:#181818;stroke-width:1.0;" width="10" x="508.5" y="626.2676"/><rect fill="#FFFFFF" height="282.3281" style="stroke:#181818;stroke-width:1.0;" width="10" x="673" y="250.0664"/><rect fill="#FFFFFF" height="175.4551" style="stroke:#181818;stroke-width:1.0;" width="10" x="876" y="281.3574"/><rect fill="#FFFFFF" height="31.291" style="stroke:#181818;stroke-width:1.0;" width="10" x="1042.5" y="657.5586"/><rect fill="#FFFFFF" height="34.291" style="stroke:#181818;stroke-width:1.0;" width="10" x="1163.5" y="356.9395"/><rect fill="#FFFFFF" height="31.291" style="stroke:#181818;stroke-width:1.0;" width="10" x="1163.5" y="720.1406"/><rect fill="#FFFFFF" height="34.291" style="stroke:#181818;stroke-width:1.0;" width="10" x="1266.5" y="391.2305"/><rect fill="#FFFFFF" height="31.291" style="stroke:#181818;stroke-width:1.0;" width="10" x="1266.5" y="751.4316"/><rect fill="#FFFFFF" height="31.291" style="stroke:#181818;stroke-width:1.0;" width="10" x="1394.5" y="814.0137"/><line style="stroke:#181818;stroke-width:0.5;stroke-dasharray:5.0,5.0;" x1="36" x2="36" y1="123.2422" y2="925.8867"/><line style="stroke:#181818;stroke-width:0.5;stroke-dasharray:5.0,5.0;" x1="315" x2="315" y1="123.2422" y2="925.8867"/><line style="stroke:#181818;stroke-width:0.5;stroke-dasharray:5.0,5.0;" x1="513" x2="513" y1="205.6543" y2="925.8867"/><line style="stroke:#181818;stroke-width:0.5;stroke-dasharray:5.0,5.0;" x1="678" x2="678" y1="123.2422" y2="925.8867"/><line style="stroke:#181818;stroke-width:0.5;stroke-dasharray:5.0,5.0;" x1="881" x2="881" y1="123.2422" y2="925.8867"/><line style="stroke:#181818;stroke-width:0.5;stroke-dasharray:5.0,5.0;" x1="1047" x2="1047" y1="123.2422" y2="925.8867"/><line style="stroke:#181818;stroke-width:0.5;stroke-dasharray:5.0,5.0;" x1="1168" x2="1168" y1="123.2422" y2="925.8867"/><line style="stroke:#181818;stroke-width:0.5;stroke-dasharray:5.0,5.0;" x1="1271" x2="1271" y1="123.2422" y2="925.8867"/><line style="stroke:#181818;stroke-width:0.5;stroke-dasharray:5.0,5.0;" x1="1399" x2="1399" y1="123.2422" y2="925.8867"/><text fill="#000000" font-family="sans-serif" font-size="14" lengthAdjust="spacing" textLength="57" x="5" y="119.7285">Operator</text><ellipse cx="36.5" cy="53.1211" fill="#E2E2F0" rx="8" ry="8" style="stroke:#181818;stroke-width:0.5;"/><path d="M36.5,61.1211 L36.5,88.1211 M23.5,69.1211 L49.5,69.1211 M36.5,88.1211 L23.5,103.1211 M36.5,88.1211 L49.5,103.1211 " fill="none" style="stroke:#181818;stroke-width:0.5;"/><text fill="#000000" font-family="sans-serif" font-size="14" lengthAdjust="spacing" textLength="57" x="5" y="939.9941">Operator</text><ellipse cx="36.5" cy="952.0078" fill="#E2E2F0" rx="8" ry="8" style="stroke:#181818;stroke-width:0.5;"/><path d="M36.5,960.0078 L36.5,987.0078 M23.5,968.0078 L49.5,968.0078 M36.5,987.0078 L23.5,1002.0078 M36.5,987.0078 L49.5,1002.0078 " fill="none" style="stroke:#181818;stroke-width:0.5;"/><rect fill="#E2E2F0" height="51.2422" rx="2.5" ry="2.5" style="stroke:#181818;stroke-width:0.5;" width="135" x="248" y="71"/><text fill="#000000" font-family="sans-serif" font-size="14" font-style="italic" lengthAdjust="spacing" textLength="27" x="302" y="93.1074">&#171;ui&#187;</text><text fill="#000000" font-family="sans-serif" font-size="14" lengthAdjust="spacing" textLength="121" x="255" y="111.7285">EnableCandidateUI</text><rect fill="#E2E2F0" height="51.2422" rx="2.5" ry="2.5" style="stroke:#181818;stroke-width:0.5;" width="135" x="248" y="924.8867"/><text fill="#000000" font-family="sans-serif" font-size="14" font-style="italic" lengthAdjust="spacing" textLength="27" x="302" y="946.9941">&#171;ui&#187;</text><text fill="#000000" font-family="sans-serif" font-size="14" lengthAdjust="spacing" textLength="121" x="255" y="965.6152">EnableCandidateUI</text><rect fill="#E2E2F0" height="51.2422" rx="2.5" ry="2.5" style="stroke:#181818;stroke-width:0.5;" width="189" x="419" y="924.8867"/><text fill="#000000" font-family="sans-serif" font-size="14" font-style="italic" lengthAdjust="spacing" textLength="84" x="471.5" y="946.9941">&#171;application&#187;</text><text fill="#000000" font-family="sans-serif" font-size="14" lengthAdjust="spacing" textLength="175" x="426" y="965.6152">:EnableCandidateController</text><rect fill="#E2E2F0" height="51.2422" rx="2.5" ry="2.5" style="stroke:#181818;stroke-width:0.5;" width="120" x="618" y="71"/><text fill="#000000" font-family="sans-serif" font-size="14" font-style="italic" lengthAdjust="spacing" textLength="27" x="664.5" y="93.1074">&#171;ui&#187;</text><text fill="#000000" font-family="sans-serif" font-size="14" lengthAdjust="spacing" textLength="106" x="625" y="111.7285">ListCandidatesUI</text><rect fill="#E2E2F0" height="51.2422" rx="2.5" ry="2.5" style="stroke:#181818;stroke-width:0.5;" width="120" x="618" y="924.8867"/><text fill="#000000" font-family="sans-serif" font-size="14" font-style="italic" lengthAdjust="spacing" textLength="27" x="664.5" y="946.9941">&#171;ui&#187;</text><text fill="#000000" font-family="sans-serif" font-size="14" lengthAdjust="spacing" textLength="106" x="625" y="965.6152">ListCandidatesUI</text><rect fill="#E2E2F0" height="51.2422" rx="2.5" ry="2.5" style="stroke:#181818;stroke-width:0.5;" width="170" x="796" y="71"/><text fill="#000000" font-family="sans-serif" font-size="14" font-style="italic" lengthAdjust="spacing" textLength="84" x="839" y="93.1074">&#171;application&#187;</text><text fill="#000000" font-family="sans-serif" font-size="14" lengthAdjust="spacing" textLength="156" x="803" y="111.7285">ListCandidatesController</text><rect fill="#E2E2F0" height="51.2422" rx="2.5" ry="2.5" style="stroke:#181818;stroke-width:0.5;" width="170" x="796" y="924.8867"/><text fill="#000000" font-family="sans-serif" font-size="14" font-style="italic" lengthAdjust="spacing" textLength="84" x="839" y="946.9941">&#171;application&#187;</text><text fill="#000000" font-family="sans-serif" font-size="14" lengthAdjust="spacing" textLength="156" x="803" y="965.6152">ListCandidatesController</text><rect fill="#E2E2F0" height="51.2422" rx="2.5" ry="2.5" style="stroke:#181818;stroke-width:0.5;" width="143" x="976" y="71"/><text fill="#000000" font-family="sans-serif" font-size="14" font-style="italic" lengthAdjust="spacing" textLength="62" x="1016.5" y="93.1074">&#171;Service&#187;</text><text fill="#000000" font-family="sans-serif" font-size="14" lengthAdjust="spacing" textLength="129" x="983" y="111.7285">AuthorizationService</text><rect fill="#E2E2F0" height="51.2422" rx="2.5" ry="2.5" style="stroke:#181818;stroke-width:0.5;" width="143" x="976" y="924.8867"/><text fill="#000000" font-family="sans-serif" font-size="14" font-style="italic" lengthAdjust="spacing" textLength="62" x="1016.5" y="946.9941">&#171;Service&#187;</text><text fill="#000000" font-family="sans-serif" font-size="14" lengthAdjust="spacing" textLength="129" x="983" y="965.6152">AuthorizationService</text><rect fill="#E2E2F0" height="51.2422" rx="2.5" ry="2.5" style="stroke:#181818;stroke-width:0.5;" width="79" x="1129" y="71"/><text fill="#000000" font-family="sans-serif" font-size="14" font-style="italic" lengthAdjust="spacing" textLength="62" x="1137.5" y="93.1074">&#171;domain&#187;</text><text fill="#000000" font-family="sans-serif" font-size="14" lengthAdjust="spacing" textLength="65" x="1136" y="111.7285">Candidate</text><rect fill="#E2E2F0" height="51.2422" rx="2.5" ry="2.5" style="stroke:#181818;stroke-width:0.5;" width="79" x="1129" y="924.8867"/><text fill="#000000" font-family="sans-serif" font-size="14" font-style="italic" lengthAdjust="spacing" textLength="62" x="1137.5" y="946.9941">&#171;domain&#187;</text><text fill="#000000" font-family="sans-serif" font-size="14" lengthAdjust="spacing" textLength="65" x="1136" y="965.6152">Candidate</text><rect fill="#E2E2F0" height="51.2422" rx="2.5" ry="2.5" style="stroke:#181818;stroke-width:0.5;" width="89" x="1227" y="71"/><text fill="#000000" font-family="sans-serif" font-size="14" font-style="italic" lengthAdjust="spacing" textLength="62" x="1240.5" y="93.1074">&#171;domain&#187;</text><text fill="#000000" font-family="sans-serif" font-size="14" lengthAdjust="spacing" textLength="75" x="1234" y="111.7285">SystemUser</text><rect fill="#E2E2F0" height="51.2422" rx="2.5" ry="2.5" style="stroke:#181818;stroke-width:0.5;" width="89" x="1227" y="924.8867"/><text fill="#000000" font-family="sans-serif" font-size="14" font-style="italic" lengthAdjust="spacing" textLength="62" x="1240.5" y="946.9941">&#171;domain&#187;</text><text fill="#000000" font-family="sans-serif" font-size="14" lengthAdjust="spacing" textLength="75" x="1234" y="965.6152">SystemUser</text><rect fill="#E2E2F0" height="51.2422" rx="2.5" ry="2.5" style="stroke:#181818;stroke-width:0.5;" width="147" x="1326" y="71"/><text fill="#000000" font-family="sans-serif" font-size="14" font-style="italic" lengthAdjust="spacing" textLength="79" x="1360" y="93.1074">&#171;repository&#187;</text><text fill="#000000" font-family="sans-serif" font-size="14" lengthAdjust="spacing" textLength="133" x="1333" y="111.7285">CandidateRepository</text><rect fill="#E2E2F0" height="51.2422" rx="2.5" ry="2.5" style="stroke:#181818;stroke-width:0.5;" width="147" x="1326" y="924.8867"/><text fill="#000000" font-family="sans-serif" font-size="14" font-style="italic" lengthAdjust="spacing" textLength="79" x="1360" y="946.9941">&#171;repository&#187;</text><text fill="#000000" font-family="sans-serif" font-size="14" lengthAdjust="spacing" textLength="133" x="1333" y="965.6152">CandidateRepository</text><rect fill="#FFFFFF" height="783.6445" style="stroke:#181818;stroke-width:1.0;" width="10" x="31.5" y="133.2422"/><rect fill="#FFFFFF" height="407.1523" style="stroke:#181818;stroke-width:1.0;" width="10" x="310.5" y="156.5332"/><rect fill="#FFFFFF" height="312.9102" style="stroke:#181818;stroke-width:1.0;" width="10" x="310.5" y="594.9766"/><rect fill="#FFFFFF" height="250.3281" style="stroke:#181818;stroke-width:1.0;" width="10" x="508.5" y="626.2676"/><rect fill="#FFFFFF" height="282.3281" style="stroke:#181818;stroke-width:1.0;" width="10" x="673" y="250.0664"/><rect fill="#FFFFFF" height="175.4551" style="stroke:#181818;stroke-width:1.0;" width="10" x="876" y="281.3574"/><rect fill="#FFFFFF" height="31.291" style="stroke:#181818;stroke-width:1.0;" width="10" x="1042.5" y="657.5586"/><rect fill="#FFFFFF" height="34.291" style="stroke:#181818;stroke-width:1.0;" width="10" x="1163.5" y="356.9395"/><rect fill="#FFFFFF" height="31.291" style="stroke:#181818;stroke-width:1.0;" width="10" x="1163.5" y="720.1406"/><rect fill="#FFFFFF" height="34.291" style="stroke:#181818;stroke-width:1.0;" width="10" x="1266.5" y="391.2305"/><rect fill="#FFFFFF" height="31.291" style="stroke:#181818;stroke-width:1.0;" width="10" x="1266.5" y="751.4316"/><rect fill="#FFFFFF" height="31.291" style="stroke:#181818;stroke-width:1.0;" width="10" x="1394.5" y="814.0137"/><polygon fill="#181818" points="298.5,152.5332,308.5,156.5332,298.5,160.5332,302.5,156.5332" style="stroke:#181818;stroke-width:1.0;"/><line style="stroke:#181818;stroke-width:1.0;" x1="41.5" x2="304.5" y1="156.5332" y2="156.5332"/><text fill="#000000" font-family="sans-serif" font-size="13" font-weight="bold" lengthAdjust="spacing" textLength="7" x="48.5" y="151.2705">1</text><text fill="#000000" font-family="sans-serif" font-size="13" lengthAdjust="spacing" textLength="176" x="59.5" y="151.2705">Request to enable a candidate</text><polygon fill="#181818" points="407,183.8242,417,187.8242,407,191.8242,411,187.8242" style="stroke:#181818;stroke-width:1.0;"/><line style="stroke:#181818;stroke-width:1.0;" x1="320.5" x2="413" y1="187.8242" y2="187.8242"/><text fill="#000000" font-family="sans-serif" font-size="13" font-weight="bold" lengthAdjust="spacing" textLength="7" x="327.5" y="182.5615">2</text><text fill="#000000" font-family="sans-serif" font-size="13" lengthAdjust="spacing" textLength="36" x="338.5" y="182.5615">create</text><rect fill="#E2E2F0" height="51.2422" rx="2.5" ry="2.5" style="stroke:#181818;stroke-width:0.5;" width="189" x="419" y="164.5332"/><text fill="#000000" font-family="sans-serif" font-size="14" font-style="italic" lengthAdjust="spacing" textLength="84" x="471.5" y="186.6406">&#171;application&#187;</text><text fill="#000000" font-family="sans-serif" font-size="14" lengthAdjust="spacing" textLength="175" x="426" y="205.2617">:EnableCandidateController</text><polygon fill="#181818" points="661,246.0664,671,250.0664,661,254.0664,665,250.0664" style="stroke:#181818;stroke-width:1.0;"/><line style="stroke:#181818;stroke-width:1.0;" x1="320.5" x2="667" y1="250.0664" y2="250.0664"/><text fill="#000000" font-family="sans-serif" font-size="13" font-weight="bold" lengthAdjust="spacing" textLength="7" x="327.5" y="244.8037">3</text><text fill="#000000" font-family="sans-serif" font-size="13" lengthAdjust="spacing" textLength="140" x="338.5" y="244.8037">listDisabledCandidates()</text><polygon fill="#181818" points="864,277.3574,874,281.3574,864,285.3574,868,281.3574" style="stroke:#181818;stroke-width:1.0;"/><line style="stroke:#181818;stroke-width:1.0;" x1="683" x2="870" y1="281.3574" y2="281.3574"/><text fill="#000000" font-family="sans-serif" font-size="13" font-weight="bold" lengthAdjust="spacing" textLength="7" x="690" y="276.0947">4</text><text fill="#000000" font-family="sans-serif" font-size="13" lengthAdjust="spacing" textLength="121" x="701" y="276.0947">disabledCandidates()</text><line style="stroke:#181818;stroke-width:1.0;stroke-dasharray:2.0,2.0;" x1="886" x2="928" y1="312.6484" y2="312.6484"/><line style="stroke:#181818;stroke-width:1.0;stroke-dasharray:2.0,2.0;" x1="928" x2="928" y1="312.6484" y2="325.6484"/><line style="stroke:#181818;stroke-width:1.0;stroke-dasharray:2.0,2.0;" x1="887" x2="928" y1="325.6484" y2="325.6484"/><polygon fill="#181818" points="897,321.6484,887,325.6484,897,329.6484,893,325.6484" style="stroke:#181818;stroke-width:1.0;"/><text fill="#000000" font-family="sans-serif" font-size="13" font-weight="bold" lengthAdjust="spacing" textLength="7" x="893" y="307.3857">5</text><text fill="#000000" font-family="sans-serif" font-size="13" lengthAdjust="spacing" textLength="86" x="904" y="307.3857">allCandidates()</text><polygon fill="#181818" points="1151.5,352.9395,1161.5,356.9395,1151.5,360.9395,1155.5,356.9395" style="stroke:#181818;stroke-width:1.0;"/><line style="stroke:#181818;stroke-width:1.0;" x1="886" x2="1157.5" y1="356.9395" y2="356.9395"/><text fill="#000000" font-family="sans-serif" font-size="13" font-weight="bold" lengthAdjust="spacing" textLength="7" x="893" y="351.6768">6</text><text fill="#000000" font-family="sans-serif" font-size="13" lengthAdjust="spacing" textLength="37" x="904" y="351.6768">.user()</text><polygon fill="#181818" points="1254.5,387.2305,1264.5,391.2305,1254.5,395.2305,1258.5,391.2305" style="stroke:#181818;stroke-width:1.0;"/><line style="stroke:#181818;stroke-width:1.0;" x1="1168.5" x2="1260.5" y1="391.2305" y2="391.2305"/><text fill="#000000" font-family="sans-serif" font-size="13" font-weight="bold" lengthAdjust="spacing" textLength="7" x="1175.5" y="385.9678">7</text><text fill="#000000" font-family="sans-serif" font-size="13" lengthAdjust="spacing" textLength="57" x="1186.5" y="385.9678">.isActive()</text><path d="M1281,369.9395 L1281,396.9395 L1305,396.9395 L1305,379.9395 L1295,369.9395 L1281,369.9395 " fill="#FEFFDD" style="stroke:#181818;stroke-width:0.5;"/><path d="M1295,369.9395 L1295,379.9395 L1305,379.9395 L1295,369.9395 " fill="#FEFFDD" style="stroke:#181818;stroke-width:0.5;"/><text fill="#000000" font-family="sans-serif" font-size="13" lengthAdjust="spacing" textLength="3" x="1287" y="388.9678">!</text><polygon fill="#181818" points="897,421.5215,887,425.5215,897,429.5215,893,425.5215" style="stroke:#181818;stroke-width:1.0;"/><line style="stroke:#181818;stroke-width:1.0;stroke-dasharray:2.0,2.0;" x1="891" x2="1270.5" y1="425.5215" y2="425.5215"/><text fill="#000000" font-family="sans-serif" font-size="13" font-weight="bold" lengthAdjust="spacing" textLength="7" x="903" y="420.2588">8</text><text fill="#000000" font-family="sans-serif" font-size="13" lengthAdjust="spacing" textLength="113" x="914" y="420.2588">disabledCandidates</text><polygon fill="#181818" points="694,452.8125,684,456.8125,694,460.8125,690,456.8125" style="stroke:#181818;stroke-width:1.0;"/><line style="stroke:#181818;stroke-width:1.0;stroke-dasharray:2.0,2.0;" x1="688" x2="880" y1="456.8125" y2="456.8125"/><text fill="#000000" font-family="sans-serif" font-size="13" font-weight="bold" lengthAdjust="spacing" textLength="7" x="700" y="451.5498">9</text><text fill="#000000" font-family="sans-serif" font-size="13" lengthAdjust="spacing" textLength="113" x="711" y="451.5498">disabledCandidates</text><line style="stroke:#181818;stroke-width:1.0;stroke-dasharray:2.0,2.0;" x1="683" x2="725" y1="488.1035" y2="488.1035"/><line style="stroke:#181818;stroke-width:1.0;stroke-dasharray:2.0,2.0;" x1="725" x2="725" y1="488.1035" y2="501.1035"/><line style="stroke:#181818;stroke-width:1.0;stroke-dasharray:2.0,2.0;" x1="684" x2="725" y1="501.1035" y2="501.1035"/><polygon fill="#181818" points="694,497.1035,684,501.1035,694,505.1035,690,501.1035" style="stroke:#181818;stroke-width:1.0;"/><text fill="#000000" font-family="sans-serif" font-size="13" font-weight="bold" lengthAdjust="spacing" textLength="14" x="690" y="482.8408">10</text><text fill="#000000" font-family="sans-serif" font-size="13" lengthAdjust="spacing" textLength="161" x="708" y="482.8408">printCandidates(candidates)</text><polygon fill="#181818" points="331.5,528.3945,321.5,532.3945,331.5,536.3945,327.5,532.3945" style="stroke:#181818;stroke-width:1.0;"/><line style="stroke:#181818;stroke-width:1.0;stroke-dasharray:2.0,2.0;" x1="325.5" x2="677" y1="532.3945" y2="532.3945"/><text fill="#000000" font-family="sans-serif" font-size="13" font-weight="bold" lengthAdjust="spacing" textLength="14" x="337.5" y="527.1318">11</text><text fill="#000000" font-family="sans-serif" font-size="13" lengthAdjust="spacing" textLength="17" x="355.5" y="527.1318">list</text><polygon fill="#181818" points="52.5,559.6855,42.5,563.6855,52.5,567.6855,48.5,563.6855" style="stroke:#181818;stroke-width:1.0;"/><line style="stroke:#181818;stroke-width:1.0;stroke-dasharray:2.0,2.0;" x1="46.5" x2="314.5" y1="563.6855" y2="563.6855"/><text fill="#000000" font-family="sans-serif" font-size="13" font-weight="bold" lengthAdjust="spacing" textLength="14" x="58.5" y="558.4229">12</text><text fill="#000000" font-family="sans-serif" font-size="13" lengthAdjust="spacing" textLength="227" x="76.5" y="558.4229">returns a list of the disabled candidates</text><polygon fill="#181818" points="298.5,590.9766,308.5,594.9766,298.5,598.9766,302.5,594.9766" style="stroke:#181818;stroke-width:1.0;"/><line style="stroke:#181818;stroke-width:1.0;" x1="41.5" x2="304.5" y1="594.9766" y2="594.9766"/><text fill="#000000" font-family="sans-serif" font-size="13" font-weight="bold" lengthAdjust="spacing" textLength="14" x="48.5" y="589.7139">13</text><text fill="#000000" font-family="sans-serif" font-size="13" lengthAdjust="spacing" textLength="165" x="66.5" y="589.7139">selects a disabled candidate</text><polygon fill="#181818" points="496.5,622.2676,506.5,626.2676,496.5,630.2676,500.5,626.2676" style="stroke:#181818;stroke-width:1.0;"/><line style="stroke:#181818;stroke-width:1.0;" x1="320.5" x2="502.5" y1="626.2676" y2="626.2676"/><text fill="#000000" font-family="sans-serif" font-size="13" font-weight="bold" lengthAdjust="spacing" textLength="14" x="327.5" y="621.0049">14</text><text fill="#000000" font-family="sans-serif" font-size="13" lengthAdjust="spacing" textLength="135" x="345.5" y="621.0049">enableCandidate(email)</text><polygon fill="#181818" points="1030.5,653.5586,1040.5,657.5586,1030.5,661.5586,1034.5,657.5586" style="stroke:#181818;stroke-width:1.0;"/><line style="stroke:#181818;stroke-width:1.0;" x1="518.5" x2="1036.5" y1="657.5586" y2="657.5586"/><text fill="#000000" font-family="sans-serif" font-size="13" font-weight="bold" lengthAdjust="spacing" textLength="14" x="525.5" y="652.2959">15</text><text fill="#000000" font-family="sans-serif" font-size="13" lengthAdjust="spacing" textLength="468" x="543.5" y="652.2959">ensureAuthenticatedUserHasAnyOf(BaseRoles.OPERATOR, BaseRoles.ADMIN)</text><polygon fill="#181818" points="529.5,684.8496,519.5,688.8496,529.5,692.8496,525.5,688.8496" style="stroke:#181818;stroke-width:1.0;"/><line style="stroke:#181818;stroke-width:1.0;stroke-dasharray:2.0,2.0;" x1="523.5" x2="1046.5" y1="688.8496" y2="688.8496"/><text fill="#000000" font-family="sans-serif" font-size="13" font-weight="bold" lengthAdjust="spacing" textLength="14" x="535.5" y="683.5869">16</text><text fill="#000000" font-family="sans-serif" font-size="13" lengthAdjust="spacing" textLength="198" x="553.5" y="683.5869">ensures the user has operator role</text><polygon fill="#181818" points="1151.5,716.1406,1161.5,720.1406,1151.5,724.1406,1155.5,720.1406" style="stroke:#181818;stroke-width:1.0;"/><line style="stroke:#181818;stroke-width:1.0;" x1="518.5" x2="1157.5" y1="720.1406" y2="720.1406"/><text fill="#000000" font-family="sans-serif" font-size="13" font-weight="bold" lengthAdjust="spacing" textLength="14" x="525.5" y="714.8779">17</text><text fill="#000000" font-family="sans-serif" font-size="13" lengthAdjust="spacing" textLength="37" x="543.5" y="714.8779">.user()</text><polygon fill="#181818" points="1254.5,747.4316,1264.5,751.4316,1254.5,755.4316,1258.5,751.4316" style="stroke:#181818;stroke-width:1.0;"/><line style="stroke:#181818;stroke-width:1.0;" x1="1168.5" x2="1260.5" y1="751.4316" y2="751.4316"/><text fill="#000000" font-family="sans-serif" font-size="13" font-weight="bold" lengthAdjust="spacing" textLength="14" x="1175.5" y="746.1689">18</text><text fill="#000000" font-family="sans-serif" font-size="13" lengthAdjust="spacing" textLength="56" x="1193.5" y="746.1689">.activate()</text><polygon fill="#181818" points="529.5,778.7227,519.5,782.7227,529.5,786.7227,525.5,782.7227" style="stroke:#181818;stroke-width:1.0;"/><line style="stroke:#181818;stroke-width:1.0;stroke-dasharray:2.0,2.0;" x1="523.5" x2="1270.5" y1="782.7227" y2="782.7227"/><text fill="#000000" font-family="sans-serif" font-size="13" font-weight="bold" lengthAdjust="spacing" textLength="14" x="535.5" y="777.46">19</text><text fill="#000000" font-family="sans-serif" font-size="13" lengthAdjust="spacing" textLength="111" x="553.5" y="777.46">candidate activated</text><polygon fill="#181818" points="1382.5,810.0137,1392.5,814.0137,1382.5,818.0137,1386.5,814.0137" style="stroke:#181818;stroke-width:1.0;"/><line style="stroke:#181818;stroke-width:1.0;" x1="518.5" x2="1388.5" y1="814.0137" y2="814.0137"/><text fill="#000000" font-family="sans-serif" font-size="13" font-weight="bold" lengthAdjust="spacing" textLength="14" x="525.5" y="808.751">20</text><text fill="#000000" font-family="sans-serif" font-size="13" lengthAdjust="spacing" textLength="90" x="543.5" y="808.751">save(candidate)</text><polygon fill="#181818" points="529.5,841.3047,519.5,845.3047,529.5,849.3047,525.5,845.3047" style="stroke:#181818;stroke-width:1.0;"/><line style="stroke:#181818;stroke-width:1.0;stroke-dasharray:2.0,2.0;" x1="523.5" x2="1398.5" y1="845.3047" y2="845.3047"/><text fill="#000000" font-family="sans-serif" font-size="13" font-weight="bold" lengthAdjust="spacing" textLength="14" x="535.5" y="840.042">21</text><text fill="#000000" font-family="sans-serif" font-size="13" lengthAdjust="spacing" textLength="127" x="553.5" y="840.042">the enabled candidate</text><polygon fill="#181818" points="331.5,872.5957,321.5,876.5957,331.5,880.5957,327.5,876.5957" style="stroke:#181818;stroke-width:1.0;"/><line style="stroke:#181818;stroke-width:1.0;stroke-dasharray:2.0,2.0;" x1="325.5" x2="512.5" y1="876.5957" y2="876.5957"/><text fill="#000000" font-family="sans-serif" font-size="13" font-weight="bold" lengthAdjust="spacing" textLength="14" x="337.5" y="871.333">22</text><text fill="#000000" font-family="sans-serif" font-size="13" lengthAdjust="spacing" textLength="146" x="355.5" y="871.333">returns success or failure</text><polygon fill="#181818" points="52.5,903.8867,42.5,907.8867,52.5,911.8867,48.5,907.8867" style="stroke:#181818;stroke-width:1.0;"/><line style="stroke:#181818;stroke-width:1.0;stroke-dasharray:2.0,2.0;" x1="46.5" x2="314.5" y1="907.8867" y2="907.8867"/><text fill="#000000" font-family="sans-serif" font-size="13" font-weight="bold" lengthAdjust="spacing" textLength="14" x="58.5" y="902.624">23</text><text fill="#000000" font-family="sans-serif" font-size="13" lengthAdjust="spacing" textLength="154" x="76.5" y="902.624">displays success or failure</text><!--SRC=[XLHTR-8m47pthzZh4wsE_e2eGif1f4FYZYff7kxHJPPYATWvswd4_VhRTRwXBKWXo3kpNi-CySfN28cMh_HQIrsgKdg49MJujq5T86oKVBFo98HilD7DwHMja8Kt5lOrMia_f8DuyqlKqdfLg5fg3tTjow5ZlhrZMBw5fwT6hLPpS7I1NXljhQagj86rVabtn9DrNQb2UcNqPOETSdvWkswptIUxpS4NU-rkRnOt_cYi-XUA6TftLM3WnXaHkuLBqh1XG2Ov8KjpakggUtPs7a-vw-R9_cIVGeUUATR6ARBY73XfyhmdaXrMYIZODFNEvh9Nz2nNR4S4AJljF7W3sEP0Gj5t7bdvLX2SI2pGmmCH2ukCQ5T9x0WgKdQZ73SfHuKNzsCNWWbwc124ZigluGmIuNkvN8Lt1BAgPkYsl29H8tXiIBXfXoGNIKv5rf7AoiLSGO9eGsMhtevU07s-2TGbyA8eSKeVVbCBGSymoFNeKoQZXy59dA_HtK59cHPTMwKd8LqCXhXxHi6oTuybdpKAFb6P78x0ec-iTkGeuy0Sm1yH-b56csUpK0SYGx-3mmeBppskUP_4WrWulz4Bf01N4r_2UJlZuYn2xHgBVBDGUxvtMF8L-2bThC_xm-A7T9YQ2jtZ_Zb9uvTz-Xt6DHft-tlIFCv4p3v16vYskGjdvtp0aIw9wV-zwFBFB2VopK31cAY-G9YRkUd46UI37bDU9YS0YH2kCdaWAR83RJ8DrmL_ZQVbKxRgJusQz0-S3_VhBUzZuvgYG4TQMJYGVIJYb1SixBB8WOau87KbpxU8b1Nn7m00]--></g></svg>