<?xml version="1.0" encoding="us-ascii" standalone="no"?><svg xmlns="http://www.w3.org/2000/svg" xmlns:xlink="http://www.w3.org/1999/xlink" contentStyleType="text/css" height="620px" preserveAspectRatio="none" style="width:966px;height:620px;background:#FFFFFF;" version="1.1" viewBox="0 0 966 620" width="966px" zoomAndPan="magnify"><defs/><g><!--cluster ui--><g id="cluster_ui"><path d="M405.5,6.0137 L419.5,6.0137 A3.75,3.75 0 0 1 422,8.5137 L429,30.6348 L612.5,30.6348 A2.5,2.5 0 0 1 615,33.1348 L615,141.5137 A2.5,2.5 0 0 1 612.5,144.0137 L405.5,144.0137 A2.5,2.5 0 0 1 403,141.5137 L403,8.5137 A2.5,2.5 0 0 1 405.5,6.0137 " fill="none" style="stroke:#000000;stroke-width:1.5;"/><line style="stroke:#000000;stroke-width:1.5;" x1="403" x2="429" y1="30.6348" y2="30.6348"/><text fill="#000000" font-family="sans-serif" font-size="14" font-weight="bold" lengthAdjust="spacing" textLength="13" x="407" y="23.1211">ui</text></g><!--cluster application--><g id="cluster_application"><path d="M393.5,168.0137 L471.5,168.0137 A3.75,3.75 0 0 1 474,170.5137 L481,192.6348 L624.5,192.6348 A2.5,2.5 0 0 1 627,195.1348 L627,303.5137 A2.5,2.5 0 0 1 624.5,306.0137 L393.5,306.0137 A2.5,2.5 0 0 1 391,303.5137 L391,170.5137 A2.5,2.5 0 0 1 393.5,168.0137 " fill="none" style="stroke:#000000;stroke-width:1.5;"/><line style="stroke:#000000;stroke-width:1.5;" x1="391" x2="481" y1="192.6348" y2="192.6348"/><text fill="#000000" font-family="sans-serif" font-size="14" font-weight="bold" lengthAdjust="spacing" textLength="77" x="395" y="185.1211">application</text></g><!--cluster repository--><g id="cluster_repository"><path d="M763.5,339.0137 L836.5,339.0137 A3.75,3.75 0 0 1 839,341.5137 L846,363.6348 L956.5,363.6348 A2.5,2.5 0 0 1 959,366.1348 L959,456.5137 A2.5,2.5 0 0 1 956.5,459.0137 L763.5,459.0137 A2.5,2.5 0 0 1 761,456.5137 L761,341.5137 A2.5,2.5 0 0 1 763.5,339.0137 " fill="none" style="stroke:#000000;stroke-width:1.5;"/><line style="stroke:#000000;stroke-width:1.5;" x1="761" x2="846" y1="363.6348" y2="363.6348"/><text fill="#000000" font-family="sans-serif" font-size="14" font-weight="bold" lengthAdjust="spacing" textLength="72" x="765" y="356.1211">repository</text></g><!--cluster domain--><g id="cluster_domain"><path d="M8.5,330.0137 L60.5,330.0137 A3.75,3.75 0 0 1 63,332.5137 L70,354.6348 L734.5,354.6348 A2.5,2.5 0 0 1 737,357.1348 L737,610.5137 A2.5,2.5 0 0 1 734.5,613.0137 L8.5,613.0137 A2.5,2.5 0 0 1 6,610.5137 L6,332.5137 A2.5,2.5 0 0 1 8.5,330.0137 " fill="none" style="stroke:#000000;stroke-width:1.5;"/><line style="stroke:#000000;stroke-width:1.5;" x1="6" x2="70" y1="354.6348" y2="354.6348"/><text fill="#000000" font-family="sans-serif" font-size="14" font-weight="bold" lengthAdjust="spacing" textLength="51" x="10" y="347.1211">domain</text></g><!--class EnableCandidateUI--><g id="elem_EnableCandidateUI"><rect codeLine="6" fill="#F1F1F1" height="85.2422" id="EnableCandidateUI" rx="2.5" ry="2.5" style="stroke:#181818;stroke-width:0.5;" width="180" x="419" y="43.0137"/><ellipse cx="446.15" cy="59.0137" fill="#ADD1B2" rx="11" ry="11" style="stroke:#181818;stroke-width:1.0;"/><path d="M448.9156,54.8887 Q449.0719,54.6699 449.2594,54.5605 Q449.4469,54.4512 449.6656,54.4512 Q450.0406,54.4512 450.275,54.7168 Q450.5094,54.9668 450.5094,55.5762 L450.5094,57.0293 Q450.5094,57.6387 450.275,57.9043 Q450.0406,58.1699 449.6656,58.1699 Q449.3219,58.1699 449.1188,57.9668 Q448.9156,57.7793 448.8063,57.2637 Q448.7594,56.9043 448.5719,56.7168 Q448.2438,56.3418 447.6344,56.123 Q447.025,55.9043 446.4,55.9043 Q445.6344,55.9043 444.9938,56.2324 Q444.3688,56.5605 443.8688,57.3105 Q443.3844,58.0605 443.3844,59.0918 L443.3844,60.1855 Q443.3844,61.4199 444.275,62.248 Q445.1656,63.0605 446.7594,63.0605 Q447.6969,63.0605 448.3531,62.8105 Q448.7438,62.6543 449.1656,62.2168 Q449.4313,61.9512 449.5719,61.873 Q449.7281,61.7949 449.9313,61.7949 Q450.2594,61.7949 450.5094,62.0605 Q450.775,62.3105 450.775,62.6543 Q450.775,62.998 450.4313,63.4043 Q449.9313,63.9824 449.1344,64.3105 Q448.0563,64.7637 446.7594,64.7637 Q445.2438,64.7637 444.0406,64.1387 Q443.0563,63.6387 442.3688,62.5762 Q441.6813,61.498 441.6813,60.2168 L441.6813,59.0605 Q441.6813,57.7324 442.2906,56.5918 Q442.9156,55.4355 444.0094,54.8262 Q445.1031,54.2012 446.3375,54.2012 Q447.0719,54.2012 447.7125,54.373 Q448.3688,54.5293 448.9156,54.8887 Z " fill="#000000"/><text fill="#000000" font-family="sans-serif" font-size="14" lengthAdjust="spacing" textLength="121" x="462.85" y="64.8105">EnableCandidateUI</text><line style="stroke:#181818;stroke-width:0.5;" x1="420" x2="598" y1="75.0137" y2="75.0137"/><line style="stroke:#181818;stroke-width:0.5;" x1="420" x2="598" y1="83.0137" y2="83.0137"/><ellipse cx="430" cy="97.8242" fill="#84BE84" rx="3" ry="3" style="stroke:#038048;stroke-width:1.0;"/><text fill="#000000" font-family="sans-serif" font-size="14" lengthAdjust="spacing" textLength="154" x="439" y="102.1211">listDisabledCandidates()</text><ellipse cx="430" cy="116.4453" fill="#84BE84" rx="3" ry="3" style="stroke:#038048;stroke-width:1.0;"/><text fill="#000000" font-family="sans-serif" font-size="14" lengthAdjust="spacing" textLength="110" x="439" y="120.7422">printCandidates()</text></g><!--class EnableCandidateController--><g id="elem_EnableCandidateController"><rect codeLine="17" fill="#F1F1F1" height="85.2422" id="EnableCandidateController" rx="2.5" ry="2.5" style="stroke:#181818;stroke-width:0.5;" width="203" x="407.5" y="205.0137"/><ellipse cx="422.5" cy="221.0137" fill="#ADD1B2" rx="11" ry="11" style="stroke:#181818;stroke-width:1.0;"/><path d="M425.2656,216.8887 Q425.4219,216.6699 425.6094,216.5605 Q425.7969,216.4512 426.0156,216.4512 Q426.3906,216.4512 426.625,216.7168 Q426.8594,216.9668 426.8594,217.5762 L426.8594,219.0293 Q426.8594,219.6387 426.625,219.9043 Q426.3906,220.1699 426.0156,220.1699 Q425.6719,220.1699 425.4688,219.9668 Q425.2656,219.7793 425.1563,219.2637 Q425.1094,218.9043 424.9219,218.7168 Q424.5938,218.3418 423.9844,218.123 Q423.375,217.9043 422.75,217.9043 Q421.9844,217.9043 421.3438,218.2324 Q420.7188,218.5605 420.2188,219.3105 Q419.7344,220.0605 419.7344,221.0918 L419.7344,222.1855 Q419.7344,223.4199 420.625,224.248 Q421.5156,225.0605 423.1094,225.0605 Q424.0469,225.0605 424.7031,224.8105 Q425.0938,224.6543 425.5156,224.2168 Q425.7813,223.9512 425.9219,223.873 Q426.0781,223.7949 426.2813,223.7949 Q426.6094,223.7949 426.8594,224.0605 Q427.125,224.3105 427.125,224.6543 Q427.125,224.998 426.7813,225.4043 Q426.2813,225.9824 425.4844,226.3105 Q424.4063,226.7637 423.1094,226.7637 Q421.5938,226.7637 420.3906,226.1387 Q419.4063,225.6387 418.7188,224.5762 Q418.0313,223.498 418.0313,222.2168 L418.0313,221.0605 Q418.0313,219.7324 418.6406,218.5918 Q419.2656,217.4355 420.3594,216.8262 Q421.4531,216.2012 422.6875,216.2012 Q423.4219,216.2012 424.0625,216.373 Q424.7188,216.5293 425.2656,216.8887 Z " fill="#000000"/><text fill="#000000" font-family="sans-serif" font-size="14" lengthAdjust="spacing" textLength="171" x="436.5" y="226.8105">EnableCandidateController</text><line style="stroke:#181818;stroke-width:0.5;" x1="408.5" x2="609.5" y1="237.0137" y2="237.0137"/><line style="stroke:#181818;stroke-width:0.5;" x1="408.5" x2="609.5" y1="245.0137" y2="245.0137"/><ellipse cx="418.5" cy="259.8242" fill="#84BE84" rx="3" ry="3" style="stroke:#038048;stroke-width:1.0;"/><text fill="#000000" font-family="sans-serif" font-size="14" lengthAdjust="spacing" textLength="118" x="427.5" y="264.1211">enableCandidate()</text><ellipse cx="418.5" cy="278.4453" fill="#84BE84" rx="3" ry="3" style="stroke:#038048;stroke-width:1.0;"/><text fill="#000000" font-family="sans-serif" font-size="14" lengthAdjust="spacing" textLength="135" x="427.5" y="282.7422">disabledCandidates()</text></g><!--class CandidateRepository--><g id="elem_CandidateRepository"><rect codeLine="25" fill="#F1F1F1" height="66.6211" id="CandidateRepository" rx="2.5" ry="2.5" style="stroke:#181818;stroke-width:0.5;" width="165" x="777.5" y="376.0137"/><ellipse cx="792.5" cy="392.0137" fill="#B4A7E5" rx="11" ry="11" style="stroke:#181818;stroke-width:1.0;"/><path d="M793.4531,388.6543 L793.4531,395.3105 L795.1719,395.3105 Q795.7813,395.3105 796.0469,395.5449 Q796.3125,395.7793 796.3125,396.1699 Q796.3125,396.5449 796.0469,396.7793 Q795.7813,397.0137 795.1719,397.0137 L790.0313,397.0137 Q789.4219,397.0137 789.1563,396.7793 Q788.8906,396.5449 788.8906,396.1543 Q788.8906,395.7793 789.1563,395.5449 Q789.4219,395.3105 790.0313,395.3105 L791.75,395.3105 L791.75,388.6543 L790.0313,388.6543 Q789.4219,388.6543 789.1563,388.4199 Q788.8906,388.1855 788.8906,387.7949 Q788.8906,387.4199 789.1563,387.1855 Q789.4219,386.9512 790.0313,386.9512 L795.1719,386.9512 Q795.7813,386.9512 796.0469,387.1855 Q796.3125,387.4199 796.3125,387.7949 Q796.3125,388.1855 796.0469,388.4199 Q795.7813,388.6543 795.1719,388.6543 L793.4531,388.6543 Z " fill="#000000"/><text fill="#000000" font-family="sans-serif" font-size="14" font-style="italic" lengthAdjust="spacing" textLength="133" x="806.5" y="397.8105">CandidateRepository</text><line style="stroke:#181818;stroke-width:0.5;" x1="778.5" x2="941.5" y1="408.0137" y2="408.0137"/><line style="stroke:#181818;stroke-width:0.5;" x1="778.5" x2="941.5" y1="416.0137" y2="416.0137"/><ellipse cx="788.5" cy="430.8242" fill="#84BE84" rx="3" ry="3" style="stroke:#038048;stroke-width:1.0;"/><text fill="#000000" font-family="sans-serif" font-size="14" lengthAdjust="spacing" textLength="44" x="797.5" y="435.1211">.save()</text></g><!--class SystemUser--><g id="elem_SystemUser"><rect codeLine="31" fill="#F1F1F1" height="85.2422" id="SystemUser" rx="2.5" ry="2.5" style="stroke:#181818;stroke-width:0.5;" width="107" x="357.5" y="512.0137"/><ellipse cx="372.5" cy="528.0137" fill="#ADD1B2" rx="11" ry="11" style="stroke:#181818;stroke-width:1.0;"/><path d="M375.2656,523.8887 Q375.4219,523.6699 375.6094,523.5605 Q375.7969,523.4512 376.0156,523.4512 Q376.3906,523.4512 376.625,523.7168 Q376.8594,523.9668 376.8594,524.5762 L376.8594,526.0293 Q376.8594,526.6387 376.625,526.9043 Q376.3906,527.1699 376.0156,527.1699 Q375.6719,527.1699 375.4688,526.9668 Q375.2656,526.7793 375.1563,526.2637 Q375.1094,525.9043 374.9219,525.7168 Q374.5938,525.3418 373.9844,525.123 Q373.375,524.9043 372.75,524.9043 Q371.9844,524.9043 371.3438,525.2324 Q370.7188,525.5605 370.2188,526.3105 Q369.7344,527.0605 369.7344,528.0918 L369.7344,529.1855 Q369.7344,530.4199 370.625,531.248 Q371.5156,532.0605 373.1094,532.0605 Q374.0469,532.0605 374.7031,531.8105 Q375.0938,531.6543 375.5156,531.2168 Q375.7813,530.9512 375.9219,530.873 Q376.0781,530.7949 376.2813,530.7949 Q376.6094,530.7949 376.8594,531.0605 Q377.125,531.3105 377.125,531.6543 Q377.125,531.998 376.7813,532.4043 Q376.2813,532.9824 375.4844,533.3105 Q374.4063,533.7637 373.1094,533.7637 Q371.5938,533.7637 370.3906,533.1387 Q369.4063,532.6387 368.7188,531.5762 Q368.0313,530.498 368.0313,529.2168 L368.0313,528.0605 Q368.0313,526.7324 368.6406,525.5918 Q369.2656,524.4355 370.3594,523.8262 Q371.4531,523.2012 372.6875,523.2012 Q373.4219,523.2012 374.0625,523.373 Q374.7188,523.5293 375.2656,523.8887 Z " fill="#000000"/><text fill="#000000" font-family="sans-serif" font-size="14" lengthAdjust="spacing" textLength="75" x="386.5" y="533.8105">SystemUser</text><line style="stroke:#181818;stroke-width:0.5;" x1="358.5" x2="463.5" y1="544.0137" y2="544.0137"/><line style="stroke:#181818;stroke-width:0.5;" x1="358.5" x2="463.5" y1="552.0137" y2="552.0137"/><ellipse cx="368.5" cy="566.8242" fill="#84BE84" rx="3" ry="3" style="stroke:#038048;stroke-width:1.0;"/><text fill="#000000" font-family="sans-serif" font-size="14" lengthAdjust="spacing" textLength="62" x="377.5" y="571.1211">.isActive()</text><ellipse cx="368.5" cy="585.4453" fill="#84BE84" rx="3" ry="3" style="stroke:#038048;stroke-width:1.0;"/><text fill="#000000" font-family="sans-serif" font-size="14" lengthAdjust="spacing" textLength="63" x="377.5" y="589.7422">.activate()</text></g><!--class AuthorizationService--><g id="elem_AuthorizationService"><rect codeLine="36" fill="#F1F1F1" height="85.2422" id="AuthorizationService" rx="2.5" ry="2.5" style="stroke:#181818;stroke-width:0.5;" width="305" x="22.5" y="367.0137"/><ellipse cx="106.25" cy="383.0137" fill="#ADD1B2" rx="11" ry="11" style="stroke:#181818;stroke-width:1.0;"/><path d="M109.0156,378.8887 Q109.1719,378.6699 109.3594,378.5605 Q109.5469,378.4512 109.7656,378.4512 Q110.1406,378.4512 110.375,378.7168 Q110.6094,378.9668 110.6094,379.5762 L110.6094,381.0293 Q110.6094,381.6387 110.375,381.9043 Q110.1406,382.1699 109.7656,382.1699 Q109.4219,382.1699 109.2188,381.9668 Q109.0156,381.7793 108.9063,381.2637 Q108.8594,380.9043 108.6719,380.7168 Q108.3438,380.3418 107.7344,380.123 Q107.125,379.9043 106.5,379.9043 Q105.7344,379.9043 105.0938,380.2324 Q104.4688,380.5605 103.9688,381.3105 Q103.4844,382.0605 103.4844,383.0918 L103.4844,384.1855 Q103.4844,385.4199 104.375,386.248 Q105.2656,387.0605 106.8594,387.0605 Q107.7969,387.0605 108.4531,386.8105 Q108.8438,386.6543 109.2656,386.2168 Q109.5313,385.9512 109.6719,385.873 Q109.8281,385.7949 110.0313,385.7949 Q110.3594,385.7949 110.6094,386.0605 Q110.875,386.3105 110.875,386.6543 Q110.875,386.998 110.5313,387.4043 Q110.0313,387.9824 109.2344,388.3105 Q108.1563,388.7637 106.8594,388.7637 Q105.3438,388.7637 104.1406,388.1387 Q103.1563,387.6387 102.4688,386.5762 Q101.7813,385.498 101.7813,384.2168 L101.7813,383.0605 Q101.7813,381.7324 102.3906,380.5918 Q103.0156,379.4355 104.1094,378.8262 Q105.2031,378.2012 106.4375,378.2012 Q107.1719,378.2012 107.8125,378.373 Q108.4688,378.5293 109.0156,378.8887 Z " fill="#000000"/><text fill="#000000" font-family="sans-serif" font-size="14" lengthAdjust="spacing" textLength="129" x="126.75" y="388.8105">AuthorizationService</text><line style="stroke:#181818;stroke-width:0.5;" x1="23.5" x2="326.5" y1="399.0137" y2="399.0137"/><line style="stroke:#181818;stroke-width:0.5;" x1="23.5" x2="326.5" y1="407.0137" y2="407.0137"/><ellipse cx="33.5" cy="421.8242" fill="#84BE84" rx="3" ry="3" style="stroke:#038048;stroke-width:1.0;"/><text fill="#000000" font-family="sans-serif" font-size="14" lengthAdjust="spacing" textLength="279" x="42.5" y="426.1211">authorizationService() : AuthorizationService</text><ellipse cx="33.5" cy="440.4453" fill="#84BE84" rx="3" ry="3" style="stroke:#038048;stroke-width:1.0;"/><text fill="#000000" font-family="sans-serif" font-size="14" lengthAdjust="spacing" textLength="233" x="42.5" y="444.7422">ensureAuthenticatedUserHasAnyOf()</text></g><!--class Candidate--><g id="elem_Candidate"><rect codeLine="41" fill="#F1F1F1" height="66.6211" id="Candidate" rx="2.5" ry="2.5" style="stroke:#181818;stroke-width:0.5;" width="97" x="362.5" y="376.0137"/><ellipse cx="377.5" cy="392.0137" fill="#ADD1B2" rx="11" ry="11" style="stroke:#181818;stroke-width:1.0;"/><path d="M380.2656,387.8887 Q380.4219,387.6699 380.6094,387.5605 Q380.7969,387.4512 381.0156,387.4512 Q381.3906,387.4512 381.625,387.7168 Q381.8594,387.9668 381.8594,388.5762 L381.8594,390.0293 Q381.8594,390.6387 381.625,390.9043 Q381.3906,391.1699 381.0156,391.1699 Q380.6719,391.1699 380.4688,390.9668 Q380.2656,390.7793 380.1563,390.2637 Q380.1094,389.9043 379.9219,389.7168 Q379.5938,389.3418 378.9844,389.123 Q378.375,388.9043 377.75,388.9043 Q376.9844,388.9043 376.3438,389.2324 Q375.7188,389.5605 375.2188,390.3105 Q374.7344,391.0605 374.7344,392.0918 L374.7344,393.1855 Q374.7344,394.4199 375.625,395.248 Q376.5156,396.0605 378.1094,396.0605 Q379.0469,396.0605 379.7031,395.8105 Q380.0938,395.6543 380.5156,395.2168 Q380.7813,394.9512 380.9219,394.873 Q381.0781,394.7949 381.2813,394.7949 Q381.6094,394.7949 381.8594,395.0605 Q382.125,395.3105 382.125,395.6543 Q382.125,395.998 381.7813,396.4043 Q381.2813,396.9824 380.4844,397.3105 Q379.4063,397.7637 378.1094,397.7637 Q376.5938,397.7637 375.3906,397.1387 Q374.4063,396.6387 373.7188,395.5762 Q373.0313,394.498 373.0313,393.2168 L373.0313,392.0605 Q373.0313,390.7324 373.6406,389.5918 Q374.2656,388.4355 375.3594,387.8262 Q376.4531,387.2012 377.6875,387.2012 Q378.4219,387.2012 379.0625,387.373 Q379.7188,387.5293 380.2656,387.8887 Z " fill="#000000"/><text fill="#000000" font-family="sans-serif" font-size="14" lengthAdjust="spacing" textLength="65" x="391.5" y="397.8105">Candidate</text><line style="stroke:#181818;stroke-width:0.5;" x1="363.5" x2="458.5" y1="408.0137" y2="408.0137"/><line style="stroke:#181818;stroke-width:0.5;" x1="363.5" x2="458.5" y1="416.0137" y2="416.0137"/><ellipse cx="373.5" cy="430.8242" fill="#84BE84" rx="3" ry="3" style="stroke:#038048;stroke-width:1.0;"/><text fill="#000000" font-family="sans-serif" font-size="14" lengthAdjust="spacing" textLength="42" x="382.5" y="435.1211">.user()</text></g><!--class CandidateManagementService--><g id="elem_CandidateManagementService"><rect codeLine="44" fill="#F1F1F1" height="85.2422" id="CandidateManagementService" rx="2.5" ry="2.5" style="stroke:#181818;stroke-width:0.5;" width="226" x="495" y="367.0137"/><ellipse cx="510" cy="383.0137" fill="#ADD1B2" rx="11" ry="11" style="stroke:#181818;stroke-width:1.0;"/><path d="M512.7656,378.8887 Q512.9219,378.6699 513.1094,378.5605 Q513.2969,378.4512 513.5156,378.4512 Q513.8906,378.4512 514.125,378.7168 Q514.3594,378.9668 514.3594,379.5762 L514.3594,381.0293 Q514.3594,381.6387 514.125,381.9043 Q513.8906,382.1699 513.5156,382.1699 Q513.1719,382.1699 512.9688,381.9668 Q512.7656,381.7793 512.6563,381.2637 Q512.6094,380.9043 512.4219,380.7168 Q512.0938,380.3418 511.4844,380.123 Q510.875,379.9043 510.25,379.9043 Q509.4844,379.9043 508.8438,380.2324 Q508.2188,380.5605 507.7188,381.3105 Q507.2344,382.0605 507.2344,383.0918 L507.2344,384.1855 Q507.2344,385.4199 508.125,386.248 Q509.0156,387.0605 510.6094,387.0605 Q511.5469,387.0605 512.2031,386.8105 Q512.5938,386.6543 513.0156,386.2168 Q513.2813,385.9512 513.4219,385.873 Q513.5781,385.7949 513.7813,385.7949 Q514.1094,385.7949 514.3594,386.0605 Q514.625,386.3105 514.625,386.6543 Q514.625,386.998 514.2813,387.4043 Q513.7813,387.9824 512.9844,388.3105 Q511.9063,388.7637 510.6094,388.7637 Q509.0938,388.7637 507.8906,388.1387 Q506.9063,387.6387 506.2188,386.5762 Q505.5313,385.498 505.5313,384.2168 L505.5313,383.0605 Q505.5313,381.7324 506.1406,380.5918 Q506.7656,379.4355 507.8594,378.8262 Q508.9531,378.2012 510.1875,378.2012 Q510.9219,378.2012 511.5625,378.373 Q512.2188,378.5293 512.7656,378.8887 Z " fill="#000000"/><text fill="#000000" font-family="sans-serif" font-size="14" lengthAdjust="spacing" textLength="194" x="524" y="388.8105">CandidateManagementService</text><line style="stroke:#181818;stroke-width:0.5;" x1="496" x2="720" y1="399.0137" y2="399.0137"/><line style="stroke:#181818;stroke-width:0.5;" x1="496" x2="720" y1="407.0137" y2="407.0137"/><ellipse cx="506" cy="421.8242" fill="#84BE84" rx="3" ry="3" style="stroke:#038048;stroke-width:1.0;"/><text fill="#000000" font-family="sans-serif" font-size="14" lengthAdjust="spacing" textLength="89" x="515" y="426.1211">allCandidate()</text><ellipse cx="506" cy="440.4453" fill="#84BE84" rx="3" ry="3" style="stroke:#038048;stroke-width:1.0;"/><text fill="#000000" font-family="sans-serif" font-size="14" lengthAdjust="spacing" textLength="118" x="515" y="444.7422">enableCandidate()</text></g><!--link CandidateManagementService to CandidateRepository--><g id="link_CandidateManagementService_CandidateRepository"><path codeLine="53" d="M721.2,409.5137 C739.91,409.5137 752.61,409.5137 771.32,409.5137 " fill="none" id="CandidateManagementService-to-CandidateRepository" style="stroke:#181818;stroke-width:1.0;"/><polygon fill="#181818" points="777.32,409.5137,768.32,405.5137,772.32,409.5137,768.32,413.5137,777.32,409.5137" style="stroke:#181818;stroke-width:1.0;"/></g><!--link EnableCandidateUI to EnableCandidateController--><g id="link_EnableCandidateUI_EnableCandidateController"><path codeLine="54" d="M509,128.1337 C509,151.7437 509,175.2037 509,198.8237 " fill="none" id="EnableCandidateUI-to-EnableCandidateController" style="stroke:#181818;stroke-width:1.0;"/><polygon fill="#181818" points="509,204.8237,513,195.8237,509,199.8237,505,195.8237,509,204.8237" style="stroke:#181818;stroke-width:1.0;"/></g><!--link CandidateRepository to Candidate--><g id="link_CandidateRepository_Candidate"><path codeLine="55" d="M827.86,375.9937 C801.49,351.8737 761.73,322.7737 719.5,318.0137 C694.77,315.2237 520.23,315.2237 495.5,318.0137 C487.57,318.9037 484.71,317.7037 478,322.0137 C457.4,335.2537 443.8288,352.0349 432.2288,370.6049 " fill="none" id="CandidateRepository-to-Candidate" style="stroke:#181818;stroke-width:1.0;"/><polygon fill="#181818" points="429.05,375.6937,437.2106,370.1797,431.699,371.453,430.4256,365.9414,429.05,375.6937" style="stroke:#181818;stroke-width:1.0;"/></g><!--link Candidate to SystemUser--><g id="link_Candidate_SystemUser"><path codeLine="56" d="M411,443.3237 C411,463.6837 411,484.0537 411,505.8837 " fill="none" id="Candidate-to-SystemUser" style="stroke:#181818;stroke-width:1.0;"/><polygon fill="#181818" points="411,511.8837,415,502.8837,411,506.8837,407,502.8837,411,511.8837" style="stroke:#181818;stroke-width:1.0;"/></g><!--link EnableCandidateController to Candidate--><g id="link_EnableCandidateController_Candidate"><path codeLine="57" d="M483.51,290.1337 C467.12,316.8937 449.2651,346.0479 434.0851,370.8179 " fill="none" id="EnableCandidateController-to-Candidate" style="stroke:#181818;stroke-width:1.0;"/><polygon fill="#181818" points="430.95,375.9337,439.0632,370.3501,433.5626,371.6705,432.2422,366.17,430.95,375.9337" style="stroke:#181818;stroke-width:1.0;"/></g><!--link EnableCandidateController to CandidateRepository--><g id="link_EnableCandidateController_CandidateRepository"><path codeLine="58" d="M610.61,274.1337 C651.02,286.1437 697.27,302.2137 737,322.0137 C766.56,336.7437 792.179,354.3923 815.349,372.1623 " fill="none" id="EnableCandidateController-to-CandidateRepository" style="stroke:#181818;stroke-width:1.0;"/><polygon fill="#181818" points="820.11,375.8137,815.4028,367.1626,816.1425,372.7708,810.5342,373.5106,820.11,375.8137" style="stroke:#181818;stroke-width:1.0;"/></g><!--link EnableCandidateController to AuthorizationService--><g id="link_EnableCandidateController_AuthorizationService"><path codeLine="59" d="M414.11,290.0837 C391.37,300.3137 367.24,311.3837 345,322.0137 C315.27,336.2237 288.3107,349.7293 259.9307,364.2593 " fill="none" id="EnableCandidateController-to-AuthorizationService" style="stroke:#181818;stroke-width:1.0;"/><polygon fill="#181818" points="254.59,366.9937,264.424,366.4526,259.0406,364.7151,260.7782,359.3317,254.59,366.9937" style="stroke:#181818;stroke-width:1.0;"/></g><!--link EnableCandidateController to CandidateManagementService--><g id="link_EnableCandidateController_CandidateManagementService"><path codeLine="60" d="M534.75,290.1337 C549.36,313.7437 564.4337,338.1009 579.0437,361.7209 " fill="none" id="EnableCandidateController-to-CandidateManagementService" style="stroke:#181818;stroke-width:1.0;"/><polygon fill="#181818" points="582.2,366.8237,580.8674,357.0654,579.5698,362.5714,574.0638,361.2737,582.2,366.8237" style="stroke:#181818;stroke-width:1.0;"/></g><!--SRC=[ZLFTJeCm5BxlK_Hoom8Fu8K9cIPwOKnSzW17EDCJIqlQGeA6TxTCPBGKjjv0uEltS_grWlmBFf3Nn7yO7rOkm1Z-AE5Tu1vaGGLOF3vF4FtQ2JBsWKoFAaQOsMnzLAL9skZlZh7XmVxUgi4CL9MW72mfUStLNachbH2eGtVe0qDRnPhnZaty_RlIM2b3LkdMIOrG5mxr2NBa8zFR20mifGOQl2PJg19edllG6elbqQ0EISbakQLcbZ25_hCVlMC1RLRRJwNf-ppi0-g6N9900IAOpPRVHJU7Xs1gZJqEfUsF58i-mXEOJBQlfpLdupX3Esdj66PJZ6ny0Ua6MZhbmPj7j0CX5jgnqfrkKjbb8PxSn-h0vbSgSSZ5IhC8XqTz0Po9BXrXozSayGXkn2rd27P4At6Zo6oClm00]--></g></svg>