<?xml version="1.0" encoding="us-ascii" standalone="no"?><svg xmlns="http://www.w3.org/2000/svg" xmlns:xlink="http://www.w3.org/1999/xlink" contentStyleType="text/css" height="620px" preserveAspectRatio="none" style="width:967px;height:620px;background:#FFFFFF;" version="1.1" viewBox="0 0 967 620" width="967px" zoomAndPan="magnify"><defs/><g><!--cluster ui--><g id="cluster_ui"><path d="M444.5,6.0137 L458.5,6.0137 A3.75,3.75 0 0 1 461,8.5137 L468,30.6348 L649.5,30.6348 A2.5,2.5 0 0 1 652,33.1348 L652,141.5137 A2.5,2.5 0 0 1 649.5,144.0137 L444.5,144.0137 A2.5,2.5 0 0 1 442,141.5137 L442,8.5137 A2.5,2.5 0 0 1 444.5,6.0137 " fill="none" style="stroke:#000000;stroke-width:1.5;"/><line style="stroke:#000000;stroke-width:1.5;" x1="442" x2="468" y1="30.6348" y2="30.6348"/><text fill="#000000" font-family="sans-serif" font-size="14" font-weight="bold" lengthAdjust="spacing" textLength="13" x="446" y="23.1211">ui</text></g><!--cluster application--><g id="cluster_application"><path d="M430.5,168.0137 L508.5,168.0137 A3.75,3.75 0 0 1 511,170.5137 L518,192.6348 L663.5,192.6348 A2.5,2.5 0 0 1 666,195.1348 L666,303.5137 A2.5,2.5 0 0 1 663.5,306.0137 L430.5,306.0137 A2.5,2.5 0 0 1 428,303.5137 L428,170.5137 A2.5,2.5 0 0 1 430.5,168.0137 " fill="none" style="stroke:#000000;stroke-width:1.5;"/><line style="stroke:#000000;stroke-width:1.5;" x1="428" x2="518" y1="192.6348" y2="192.6348"/><text fill="#000000" font-family="sans-serif" font-size="14" font-weight="bold" lengthAdjust="spacing" textLength="77" x="432" y="185.1211">application</text></g><!--cluster repository--><g id="cluster_repository"><path d="M8.5,339.0137 L81.5,339.0137 A3.75,3.75 0 0 1 84,341.5137 L91,363.6348 L201.5,363.6348 A2.5,2.5 0 0 1 204,366.1348 L204,456.5137 A2.5,2.5 0 0 1 201.5,459.0137 L8.5,459.0137 A2.5,2.5 0 0 1 6,456.5137 L6,341.5137 A2.5,2.5 0 0 1 8.5,339.0137 " fill="none" style="stroke:#000000;stroke-width:1.5;"/><line style="stroke:#000000;stroke-width:1.5;" x1="6" x2="91" y1="363.6348" y2="363.6348"/><text fill="#000000" font-family="sans-serif" font-size="14" font-weight="bold" lengthAdjust="spacing" textLength="72" x="10" y="356.1211">repository</text></g><!--cluster domain--><g id="cluster_domain"><path d="M230.5,330.0137 L282.5,330.0137 A3.75,3.75 0 0 1 285,332.5137 L292,354.6348 L957.5,354.6348 A2.5,2.5 0 0 1 960,357.1348 L960,610.5137 A2.5,2.5 0 0 1 957.5,613.0137 L230.5,613.0137 A2.5,2.5 0 0 1 228,610.5137 L228,332.5137 A2.5,2.5 0 0 1 230.5,330.0137 " fill="none" style="stroke:#000000;stroke-width:1.5;"/><line style="stroke:#000000;stroke-width:1.5;" x1="228" x2="292" y1="354.6348" y2="354.6348"/><text fill="#000000" font-family="sans-serif" font-size="14" font-weight="bold" lengthAdjust="spacing" textLength="51" x="232" y="347.1211">domain</text></g><!--class DisableCandidateUI--><g id="elem_DisableCandidateUI"><rect codeLine="6" fill="#F1F1F1" height="85.2422" id="DisableCandidateUI" rx="2.5" ry="2.5" style="stroke:#181818;stroke-width:0.5;" width="177" x="458.5" y="43.0137"/><ellipse cx="482.95" cy="59.0137" fill="#ADD1B2" rx="11" ry="11" style="stroke:#181818;stroke-width:1.0;"/><path d="M485.7156,54.8887 Q485.8719,54.6699 486.0594,54.5605 Q486.2469,54.4512 486.4656,54.4512 Q486.8406,54.4512 487.075,54.7168 Q487.3094,54.9668 487.3094,55.5762 L487.3094,57.0293 Q487.3094,57.6387 487.075,57.9043 Q486.8406,58.1699 486.4656,58.1699 Q486.1219,58.1699 485.9188,57.9668 Q485.7156,57.7793 485.6063,57.2637 Q485.5594,56.9043 485.3719,56.7168 Q485.0438,56.3418 484.4344,56.123 Q483.825,55.9043 483.2,55.9043 Q482.4344,55.9043 481.7938,56.2324 Q481.1688,56.5605 480.6688,57.3105 Q480.1844,58.0605 480.1844,59.0918 L480.1844,60.1855 Q480.1844,61.4199 481.075,62.248 Q481.9656,63.0605 483.5594,63.0605 Q484.4969,63.0605 485.1531,62.8105 Q485.5438,62.6543 485.9656,62.2168 Q486.2313,61.9512 486.3719,61.873 Q486.5281,61.7949 486.7313,61.7949 Q487.0594,61.7949 487.3094,62.0605 Q487.575,62.3105 487.575,62.6543 Q487.575,62.998 487.2313,63.4043 Q486.7313,63.9824 485.9344,64.3105 Q484.8563,64.7637 483.5594,64.7637 Q482.0438,64.7637 480.8406,64.1387 Q479.8563,63.6387 479.1688,62.5762 Q478.4813,61.498 478.4813,60.2168 L478.4813,59.0605 Q478.4813,57.7324 479.0906,56.5918 Q479.7156,55.4355 480.8094,54.8262 Q481.9031,54.2012 483.1375,54.2012 Q483.8719,54.2012 484.5125,54.373 Q485.1688,54.5293 485.7156,54.8887 Z " fill="#000000"/><text fill="#000000" font-family="sans-serif" font-size="14" lengthAdjust="spacing" textLength="124" x="499.05" y="64.8105">DisableCandidateUI</text><line style="stroke:#181818;stroke-width:0.5;" x1="459.5" x2="634.5" y1="75.0137" y2="75.0137"/><line style="stroke:#181818;stroke-width:0.5;" x1="459.5" x2="634.5" y1="83.0137" y2="83.0137"/><ellipse cx="469.5" cy="97.8242" fill="#84BE84" rx="3" ry="3" style="stroke:#038048;stroke-width:1.0;"/><text fill="#000000" font-family="sans-serif" font-size="14" lengthAdjust="spacing" textLength="151" x="478.5" y="102.1211">listEnabledCandidates()</text><ellipse cx="469.5" cy="116.4453" fill="#84BE84" rx="3" ry="3" style="stroke:#038048;stroke-width:1.0;"/><text fill="#000000" font-family="sans-serif" font-size="14" lengthAdjust="spacing" textLength="110" x="478.5" y="120.7422">printCandidates()</text></g><!--class DisableCandidateController--><g id="elem_DisableCandidateController"><rect codeLine="16" fill="#F1F1F1" height="85.2422" id="DisableCandidateController" rx="2.5" ry="2.5" style="stroke:#181818;stroke-width:0.5;" width="206" x="444" y="205.0137"/><ellipse cx="459" cy="221.0137" fill="#ADD1B2" rx="11" ry="11" style="stroke:#181818;stroke-width:1.0;"/><path d="M461.7656,216.8887 Q461.9219,216.6699 462.1094,216.5605 Q462.2969,216.4512 462.5156,216.4512 Q462.8906,216.4512 463.125,216.7168 Q463.3594,216.9668 463.3594,217.5762 L463.3594,219.0293 Q463.3594,219.6387 463.125,219.9043 Q462.8906,220.1699 462.5156,220.1699 Q462.1719,220.1699 461.9688,219.9668 Q461.7656,219.7793 461.6563,219.2637 Q461.6094,218.9043 461.4219,218.7168 Q461.0938,218.3418 460.4844,218.123 Q459.875,217.9043 459.25,217.9043 Q458.4844,217.9043 457.8438,218.2324 Q457.2188,218.5605 456.7188,219.3105 Q456.2344,220.0605 456.2344,221.0918 L456.2344,222.1855 Q456.2344,223.4199 457.125,224.248 Q458.0156,225.0605 459.6094,225.0605 Q460.5469,225.0605 461.2031,224.8105 Q461.5938,224.6543 462.0156,224.2168 Q462.2813,223.9512 462.4219,223.873 Q462.5781,223.7949 462.7813,223.7949 Q463.1094,223.7949 463.3594,224.0605 Q463.625,224.3105 463.625,224.6543 Q463.625,224.998 463.2813,225.4043 Q462.7813,225.9824 461.9844,226.3105 Q460.9063,226.7637 459.6094,226.7637 Q458.0938,226.7637 456.8906,226.1387 Q455.9063,225.6387 455.2188,224.5762 Q454.5313,223.498 454.5313,222.2168 L454.5313,221.0605 Q454.5313,219.7324 455.1406,218.5918 Q455.7656,217.4355 456.8594,216.8262 Q457.9531,216.2012 459.1875,216.2012 Q459.9219,216.2012 460.5625,216.373 Q461.2188,216.5293 461.7656,216.8887 Z " fill="#000000"/><text fill="#000000" font-family="sans-serif" font-size="14" lengthAdjust="spacing" textLength="174" x="473" y="226.8105">DisableCandidateController</text><line style="stroke:#181818;stroke-width:0.5;" x1="445" x2="649" y1="237.0137" y2="237.0137"/><line style="stroke:#181818;stroke-width:0.5;" x1="445" x2="649" y1="245.0137" y2="245.0137"/><ellipse cx="455" cy="259.8242" fill="#84BE84" rx="3" ry="3" style="stroke:#038048;stroke-width:1.0;"/><text fill="#000000" font-family="sans-serif" font-size="14" lengthAdjust="spacing" textLength="120" x="464" y="264.1211">disableCandidate()</text><ellipse cx="455" cy="278.4453" fill="#84BE84" rx="3" ry="3" style="stroke:#038048;stroke-width:1.0;"/><text fill="#000000" font-family="sans-serif" font-size="14" lengthAdjust="spacing" textLength="133" x="464" y="282.7422">enabledCandidates()</text></g><!--class CandidateRepository--><g id="elem_CandidateRepository"><rect codeLine="24" fill="#F1F1F1" height="66.6211" id="CandidateRepository" rx="2.5" ry="2.5" style="stroke:#181818;stroke-width:0.5;" width="165" x="22.5" y="376.0137"/><ellipse cx="37.5" cy="392.0137" fill="#B4A7E5" rx="11" ry="11" style="stroke:#181818;stroke-width:1.0;"/><path d="M38.4531,388.6543 L38.4531,395.3105 L40.1719,395.3105 Q40.7813,395.3105 41.0469,395.5449 Q41.3125,395.7793 41.3125,396.1699 Q41.3125,396.5449 41.0469,396.7793 Q40.7813,397.0137 40.1719,397.0137 L35.0313,397.0137 Q34.4219,397.0137 34.1563,396.7793 Q33.8906,396.5449 33.8906,396.1543 Q33.8906,395.7793 34.1563,395.5449 Q34.4219,395.3105 35.0313,395.3105 L36.75,395.3105 L36.75,388.6543 L35.0313,388.6543 Q34.4219,388.6543 34.1563,388.4199 Q33.8906,388.1855 33.8906,387.7949 Q33.8906,387.4199 34.1563,387.1855 Q34.4219,386.9512 35.0313,386.9512 L40.1719,386.9512 Q40.7813,386.9512 41.0469,387.1855 Q41.3125,387.4199 41.3125,387.7949 Q41.3125,388.1855 41.0469,388.4199 Q40.7813,388.6543 40.1719,388.6543 L38.4531,388.6543 Z " fill="#000000"/><text fill="#000000" font-family="sans-serif" font-size="14" font-style="italic" lengthAdjust="spacing" textLength="133" x="51.5" y="397.8105">CandidateRepository</text><line style="stroke:#181818;stroke-width:0.5;" x1="23.5" x2="186.5" y1="408.0137" y2="408.0137"/><line style="stroke:#181818;stroke-width:0.5;" x1="23.5" x2="186.5" y1="416.0137" y2="416.0137"/><ellipse cx="33.5" cy="430.8242" fill="#84BE84" rx="3" ry="3" style="stroke:#038048;stroke-width:1.0;"/><text fill="#000000" font-family="sans-serif" font-size="14" lengthAdjust="spacing" textLength="44" x="42.5" y="435.1211">.save()</text></g><!--class SystemUser--><g id="elem_SystemUser"><rect codeLine="30" fill="#F1F1F1" height="85.2422" id="SystemUser" rx="2.5" ry="2.5" style="stroke:#181818;stroke-width:0.5;" width="107" x="836.5" y="512.0137"/><ellipse cx="851.5" cy="528.0137" fill="#ADD1B2" rx="11" ry="11" style="stroke:#181818;stroke-width:1.0;"/><path d="M854.2656,523.8887 Q854.4219,523.6699 854.6094,523.5605 Q854.7969,523.4512 855.0156,523.4512 Q855.3906,523.4512 855.625,523.7168 Q855.8594,523.9668 855.8594,524.5762 L855.8594,526.0293 Q855.8594,526.6387 855.625,526.9043 Q855.3906,527.1699 855.0156,527.1699 Q854.6719,527.1699 854.4688,526.9668 Q854.2656,526.7793 854.1563,526.2637 Q854.1094,525.9043 853.9219,525.7168 Q853.5938,525.3418 852.9844,525.123 Q852.375,524.9043 851.75,524.9043 Q850.9844,524.9043 850.3438,525.2324 Q849.7188,525.5605 849.2188,526.3105 Q848.7344,527.0605 848.7344,528.0918 L848.7344,529.1855 Q848.7344,530.4199 849.625,531.248 Q850.5156,532.0605 852.1094,532.0605 Q853.0469,532.0605 853.7031,531.8105 Q854.0938,531.6543 854.5156,531.2168 Q854.7813,530.9512 854.9219,530.873 Q855.0781,530.7949 855.2813,530.7949 Q855.6094,530.7949 855.8594,531.0605 Q856.125,531.3105 856.125,531.6543 Q856.125,531.998 855.7813,532.4043 Q855.2813,532.9824 854.4844,533.3105 Q853.4063,533.7637 852.1094,533.7637 Q850.5938,533.7637 849.3906,533.1387 Q848.4063,532.6387 847.7188,531.5762 Q847.0313,530.498 847.0313,529.2168 L847.0313,528.0605 Q847.0313,526.7324 847.6406,525.5918 Q848.2656,524.4355 849.3594,523.8262 Q850.4531,523.2012 851.6875,523.2012 Q852.4219,523.2012 853.0625,523.373 Q853.7188,523.5293 854.2656,523.8887 Z " fill="#000000"/><text fill="#000000" font-family="sans-serif" font-size="14" lengthAdjust="spacing" textLength="75" x="865.5" y="533.8105">SystemUser</text><line style="stroke:#181818;stroke-width:0.5;" x1="837.5" x2="942.5" y1="544.0137" y2="544.0137"/><line style="stroke:#181818;stroke-width:0.5;" x1="837.5" x2="942.5" y1="552.0137" y2="552.0137"/><ellipse cx="847.5" cy="566.8242" fill="#84BE84" rx="3" ry="3" style="stroke:#038048;stroke-width:1.0;"/><text fill="#000000" font-family="sans-serif" font-size="14" lengthAdjust="spacing" textLength="62" x="856.5" y="571.1211">.isActive()</text><ellipse cx="847.5" cy="585.4453" fill="#84BE84" rx="3" ry="3" style="stroke:#038048;stroke-width:1.0;"/><text fill="#000000" font-family="sans-serif" font-size="14" lengthAdjust="spacing" textLength="79" x="856.5" y="589.7422">.deactivate()</text></g><!--class AuthorizationService--><g id="elem_AuthorizationService"><rect codeLine="34" fill="#F1F1F1" height="85.2422" id="AuthorizationService" rx="2.5" ry="2.5" style="stroke:#181818;stroke-width:0.5;" width="305" x="244.5" y="367.0137"/><ellipse cx="328.25" cy="383.0137" fill="#ADD1B2" rx="11" ry="11" style="stroke:#181818;stroke-width:1.0;"/><path d="M331.0156,378.8887 Q331.1719,378.6699 331.3594,378.5605 Q331.5469,378.4512 331.7656,378.4512 Q332.1406,378.4512 332.375,378.7168 Q332.6094,378.9668 332.6094,379.5762 L332.6094,381.0293 Q332.6094,381.6387 332.375,381.9043 Q332.1406,382.1699 331.7656,382.1699 Q331.4219,382.1699 331.2188,381.9668 Q331.0156,381.7793 330.9063,381.2637 Q330.8594,380.9043 330.6719,380.7168 Q330.3438,380.3418 329.7344,380.123 Q329.125,379.9043 328.5,379.9043 Q327.7344,379.9043 327.0938,380.2324 Q326.4688,380.5605 325.9688,381.3105 Q325.4844,382.0605 325.4844,383.0918 L325.4844,384.1855 Q325.4844,385.4199 326.375,386.248 Q327.2656,387.0605 328.8594,387.0605 Q329.7969,387.0605 330.4531,386.8105 Q330.8438,386.6543 331.2656,386.2168 Q331.5313,385.9512 331.6719,385.873 Q331.8281,385.7949 332.0313,385.7949 Q332.3594,385.7949 332.6094,386.0605 Q332.875,386.3105 332.875,386.6543 Q332.875,386.998 332.5313,387.4043 Q332.0313,387.9824 331.2344,388.3105 Q330.1563,388.7637 328.8594,388.7637 Q327.3438,388.7637 326.1406,388.1387 Q325.1563,387.6387 324.4688,386.5762 Q323.7813,385.498 323.7813,384.2168 L323.7813,383.0605 Q323.7813,381.7324 324.3906,380.5918 Q325.0156,379.4355 326.1094,378.8262 Q327.2031,378.2012 328.4375,378.2012 Q329.1719,378.2012 329.8125,378.373 Q330.4688,378.5293 331.0156,378.8887 Z " fill="#000000"/><text fill="#000000" font-family="sans-serif" font-size="14" lengthAdjust="spacing" textLength="129" x="348.75" y="388.8105">AuthorizationService</text><line style="stroke:#181818;stroke-width:0.5;" x1="245.5" x2="548.5" y1="399.0137" y2="399.0137"/><line style="stroke:#181818;stroke-width:0.5;" x1="245.5" x2="548.5" y1="407.0137" y2="407.0137"/><ellipse cx="255.5" cy="421.8242" fill="#84BE84" rx="3" ry="3" style="stroke:#038048;stroke-width:1.0;"/><text fill="#000000" font-family="sans-serif" font-size="14" lengthAdjust="spacing" textLength="279" x="264.5" y="426.1211">authorizationService() : AuthorizationService</text><ellipse cx="255.5" cy="440.4453" fill="#84BE84" rx="3" ry="3" style="stroke:#038048;stroke-width:1.0;"/><text fill="#000000" font-family="sans-serif" font-size="14" lengthAdjust="spacing" textLength="233" x="264.5" y="444.7422">ensureAuthenticatedUserHasAnyOf()</text></g><!--class Candidate--><g id="elem_Candidate"><rect codeLine="39" fill="#F1F1F1" height="66.6211" id="Candidate" rx="2.5" ry="2.5" style="stroke:#181818;stroke-width:0.5;" width="97" x="846.5" y="376.0137"/><ellipse cx="861.5" cy="392.0137" fill="#ADD1B2" rx="11" ry="11" style="stroke:#181818;stroke-width:1.0;"/><path d="M864.2656,387.8887 Q864.4219,387.6699 864.6094,387.5605 Q864.7969,387.4512 865.0156,387.4512 Q865.3906,387.4512 865.625,387.7168 Q865.8594,387.9668 865.8594,388.5762 L865.8594,390.0293 Q865.8594,390.6387 865.625,390.9043 Q865.3906,391.1699 865.0156,391.1699 Q864.6719,391.1699 864.4688,390.9668 Q864.2656,390.7793 864.1563,390.2637 Q864.1094,389.9043 863.9219,389.7168 Q863.5938,389.3418 862.9844,389.123 Q862.375,388.9043 861.75,388.9043 Q860.9844,388.9043 860.3438,389.2324 Q859.7188,389.5605 859.2188,390.3105 Q858.7344,391.0605 858.7344,392.0918 L858.7344,393.1855 Q858.7344,394.4199 859.625,395.248 Q860.5156,396.0605 862.1094,396.0605 Q863.0469,396.0605 863.7031,395.8105 Q864.0938,395.6543 864.5156,395.2168 Q864.7813,394.9512 864.9219,394.873 Q865.0781,394.7949 865.2813,394.7949 Q865.6094,394.7949 865.8594,395.0605 Q866.125,395.3105 866.125,395.6543 Q866.125,395.998 865.7813,396.4043 Q865.2813,396.9824 864.4844,397.3105 Q863.4063,397.7637 862.1094,397.7637 Q860.5938,397.7637 859.3906,397.1387 Q858.4063,396.6387 857.7188,395.5762 Q857.0313,394.498 857.0313,393.2168 L857.0313,392.0605 Q857.0313,390.7324 857.6406,389.5918 Q858.2656,388.4355 859.3594,387.8262 Q860.4531,387.2012 861.6875,387.2012 Q862.4219,387.2012 863.0625,387.373 Q863.7188,387.5293 864.2656,387.8887 Z " fill="#000000"/><text fill="#000000" font-family="sans-serif" font-size="14" lengthAdjust="spacing" textLength="65" x="875.5" y="397.8105">Candidate</text><line style="stroke:#181818;stroke-width:0.5;" x1="847.5" x2="942.5" y1="408.0137" y2="408.0137"/><line style="stroke:#181818;stroke-width:0.5;" x1="847.5" x2="942.5" y1="416.0137" y2="416.0137"/><ellipse cx="857.5" cy="430.8242" fill="#84BE84" rx="3" ry="3" style="stroke:#038048;stroke-width:1.0;"/><text fill="#000000" font-family="sans-serif" font-size="14" lengthAdjust="spacing" textLength="42" x="866.5" y="435.1211">.user()</text></g><!--class CandidateManagementService--><g id="elem_CandidateManagementService"><rect codeLine="43" fill="#F1F1F1" height="85.2422" id="CandidateManagementService" rx="2.5" ry="2.5" style="stroke:#181818;stroke-width:0.5;" width="226" x="585" y="367.0137"/><ellipse cx="600" cy="383.0137" fill="#ADD1B2" rx="11" ry="11" style="stroke:#181818;stroke-width:1.0;"/><path d="M602.7656,378.8887 Q602.9219,378.6699 603.1094,378.5605 Q603.2969,378.4512 603.5156,378.4512 Q603.8906,378.4512 604.125,378.7168 Q604.3594,378.9668 604.3594,379.5762 L604.3594,381.0293 Q604.3594,381.6387 604.125,381.9043 Q603.8906,382.1699 603.5156,382.1699 Q603.1719,382.1699 602.9688,381.9668 Q602.7656,381.7793 602.6563,381.2637 Q602.6094,380.9043 602.4219,380.7168 Q602.0938,380.3418 601.4844,380.123 Q600.875,379.9043 600.25,379.9043 Q599.4844,379.9043 598.8438,380.2324 Q598.2188,380.5605 597.7188,381.3105 Q597.2344,382.0605 597.2344,383.0918 L597.2344,384.1855 Q597.2344,385.4199 598.125,386.248 Q599.0156,387.0605 600.6094,387.0605 Q601.5469,387.0605 602.2031,386.8105 Q602.5938,386.6543 603.0156,386.2168 Q603.2813,385.9512 603.4219,385.873 Q603.5781,385.7949 603.7813,385.7949 Q604.1094,385.7949 604.3594,386.0605 Q604.625,386.3105 604.625,386.6543 Q604.625,386.998 604.2813,387.4043 Q603.7813,387.9824 602.9844,388.3105 Q601.9063,388.7637 600.6094,388.7637 Q599.0938,388.7637 597.8906,388.1387 Q596.9063,387.6387 596.2188,386.5762 Q595.5313,385.498 595.5313,384.2168 L595.5313,383.0605 Q595.5313,381.7324 596.1406,380.5918 Q596.7656,379.4355 597.8594,378.8262 Q598.9531,378.2012 600.1875,378.2012 Q600.9219,378.2012 601.5625,378.373 Q602.2188,378.5293 602.7656,378.8887 Z " fill="#000000"/><text fill="#000000" font-family="sans-serif" font-size="14" lengthAdjust="spacing" textLength="194" x="614" y="388.8105">CandidateManagementService</text><line style="stroke:#181818;stroke-width:0.5;" x1="586" x2="810" y1="399.0137" y2="399.0137"/><line style="stroke:#181818;stroke-width:0.5;" x1="586" x2="810" y1="407.0137" y2="407.0137"/><ellipse cx="596" cy="421.8242" fill="#84BE84" rx="3" ry="3" style="stroke:#038048;stroke-width:1.0;"/><text fill="#000000" font-family="sans-serif" font-size="14" lengthAdjust="spacing" textLength="89" x="605" y="426.1211">allCandidate()</text><ellipse cx="596" cy="440.4453" fill="#84BE84" rx="3" ry="3" style="stroke:#038048;stroke-width:1.0;"/><text fill="#000000" font-family="sans-serif" font-size="14" lengthAdjust="spacing" textLength="120" x="605" y="444.7422">disableCandidate()</text></g><!--link DisableCandidateUI to DisableCandidateController--><g id="link_DisableCandidateUI_DisableCandidateController"><path codeLine="51" d="M547,128.1337 C547,151.7437 547,175.2037 547,198.8237 " fill="none" id="DisableCandidateUI-to-DisableCandidateController" style="stroke:#181818;stroke-width:1.0;"/><polygon fill="#181818" points="547,204.8237,551,195.8237,547,199.8237,543,195.8237,547,204.8237" style="stroke:#181818;stroke-width:1.0;"/></g><!--link Candidate to SystemUser--><g id="link_Candidate_SystemUser"><path codeLine="52" d="M893.85,443.3237 C893.14,463.6837 892.4288,484.0573 891.6688,505.8873 " fill="none" id="Candidate-to-SystemUser" style="stroke:#181818;stroke-width:1.0;"/><polygon fill="#181818" points="891.46,511.8837,895.7707,503.0283,891.634,506.8867,887.7756,502.7499,891.46,511.8837" style="stroke:#181818;stroke-width:1.0;"/></g><!--link DisableCandidateController to Candidate--><g id="link_DisableCandidateController_Candidate"><path codeLine="53" d="M650.24,258.8137 C706.78,268.3537 775.92,286.7037 829,322.0137 C849.29,335.5137 862.7103,352.2755 874.1903,370.6455 " fill="none" id="DisableCandidateController-to-Candidate" style="stroke:#181818;stroke-width:1.0;"/><polygon fill="#181818" points="877.37,375.7337,875.9925,365.9816,874.7202,371.4936,869.2083,370.2213,877.37,375.7337" style="stroke:#181818;stroke-width:1.0;"/></g><!--link DisableCandidateController to CandidateRepository--><g id="link_DisableCandidateController_CandidateRepository"><path codeLine="54" d="M443.92,261.9037 C379.81,272.7237 296.77,291.3337 228,322.0137 C197.25,335.7337 170.9583,353.8746 147.7783,372.1846 " fill="none" id="DisableCandidateController-to-CandidateRepository" style="stroke:#181818;stroke-width:1.0;"/><polygon fill="#181818" points="143.07,375.9037,152.6119,373.4639,146.9936,372.8044,147.6531,367.1861,143.07,375.9037" style="stroke:#181818;stroke-width:1.0;"/></g><!--link CandidateRepository to Candidate--><g id="link_CandidateRepository_Candidate"><path codeLine="55" d="M137.14,375.9937 C163.51,351.8737 203.27,322.7737 245.5,318.0137 C276.75,314.4837 780.25,314.4837 811.5,318.0137 C819.43,318.9037 822.3,317.6737 829,322.0137 C849.44,335.2537 862.8029,352.0091 874.1929,370.5791 " fill="none" id="CandidateRepository-to-Candidate" style="stroke:#181818;stroke-width:1.0;"/><polygon fill="#181818" points="877.33,375.6937,876.0341,365.9304,874.7158,371.4315,869.2147,370.1132,877.33,375.6937" style="stroke:#181818;stroke-width:1.0;"/></g><!--link DisableCandidateController to AuthorizationService--><g id="link_DisableCandidateController_AuthorizationService"><path codeLine="56" d="M507.98,290.1337 C485.85,313.7437 462.3343,338.827 440.1843,362.447 " fill="none" id="DisableCandidateController-to-AuthorizationService" style="stroke:#181818;stroke-width:1.0;"/><polygon fill="#181818" points="436.08,366.8237,445.1542,362.9949,439.5002,363.1765,439.3186,357.5225,436.08,366.8237" style="stroke:#181818;stroke-width:1.0;"/></g><!--link DisableCandidateController to CandidateManagementService--><g id="link_DisableCandidateController_CandidateManagementService"><path codeLine="57" d="M586.28,290.1337 C608.56,313.7437 632.241,338.8409 654.541,362.4609 " fill="none" id="DisableCandidateController-to-CandidateManagementService" style="stroke:#181818;stroke-width:1.0;"/><polygon fill="#181818" points="658.66,366.8237,655.3901,357.5335,655.2275,363.188,649.573,363.0255,658.66,366.8237" style="stroke:#181818;stroke-width:1.0;"/></g><!--link CandidateManagementService to CandidateRepository--><g id="link_CandidateManagementService_CandidateRepository"><path codeLine="58" d="M652.32,366.7637 C624.85,345.0537 587.87,322.3437 549.5,318.0137 C515.94,314.2237 279.06,314.2237 245.5,318.0137 C237.57,318.9037 235.28,318.7537 228,322.0137 C197.51,335.6837 171.57,353.7015 148.51,372.1015 " fill="none" id="CandidateManagementService-to-CandidateRepository" style="stroke:#181818;stroke-width:1.0;"/><polygon fill="#181818" points="143.82,375.8437,153.3498,373.357,147.7283,372.7252,148.3601,367.1037,143.82,375.8437" style="stroke:#181818;stroke-width:1.0;"/></g><!--SRC=[bLHDRzf04BtlhvWZ2641XKhreIe1geR6IfH0UXxiWQowthNsmnAjyj-x6mKCnb2o5ripRz-yDpCs59Z-nWs1u_2NmUwa0es1AJUu4ZH1cV4CBIrl3p7-T0GtTYO3ADkZJAjz32eqbxOv_ShU7-6ylUxqO548dgBbIlvVs4H9gvKGf6i2ePFLe3LnqA5ByYjzH-8q5Sfmg_JMrwlGtYRfDQO4UxR7FR8kB39OqXMrCfKZR-Z1qzPOofU6z0apD-FKylBKQvGHXaoj3wzrxh6pBqhpFs_jVo9TSk-fLYRmOGEkrOQuaU3qEadZD0KiIHk6JLdmymFDM6xlrySIwnhtBJuPUUGyoPMN4vI-oRcl_wwoJeP2dD-TIyjrkDfDNrAt-_N27hC3Vm5PJPjTslu0tSUlHrPRofg2y27MnjbVg-Ha7kny2ivP-4OoSxbWx46WjCla3ahI9ln9-j6WDnX6drgB5mVVQGNz4VI_nCDUt1l1hza2GhhDMidj0enosXVnCxQQhrnmqsPpB14UdL_Nd6AuBqZEfpzt0PZ9acibWqOsVqugmETXzuPR2CAzu-U4JMcDJbX_8rKPbviO9aL_C1gmEvGRvtt6K5WsKPvORsDuMFm3]--></g></svg>