<?xml version="1.0" encoding="us-ascii" standalone="no"?><svg xmlns="http://www.w3.org/2000/svg" xmlns:xlink="http://www.w3.org/1999/xlink" contentStyleType="text/css" height="952px" preserveAspectRatio="none" style="width:1704px;height:952px;background:#FFFFFF;" version="1.1" viewBox="0 0 1704 952" width="1704px" zoomAndPan="magnify"><defs/><g><text fill="#000000" font-family="sans-serif" font-size="11.2" font-weight="bold" lengthAdjust="spacing" textLength="214.4" x="744.2" y="24.0859">Enable Candidate - Sequence Diagram</text><rect fill="#FFFFFF" height="772.3125" style="stroke:#181818;stroke-width:0.8000000000000002;" width="8" x="25.2" y="106.5938"/><rect fill="#FFFFFF" height="345.9547" style="stroke:#181818;stroke-width:0.8000000000000002;" width="8" x="258.8" y="125.2266"/><rect fill="#FFFFFF" height="382.6922" style="stroke:#181818;stroke-width:0.8000000000000002;" width="8" x="258.8" y="496.2141"/><rect fill="#FFFFFF" height="175.2297" style="stroke:#181818;stroke-width:0.8000000000000002;" width="8" x="421.2" y="235.4859"/><rect fill="#FFFFFF" height="325.4266" style="stroke:#181818;stroke-width:0.8000000000000002;" width="8" x="421.2" y="521.2469"/><rect fill="#FFFFFF" height="125.1641" style="stroke:#181818;stroke-width:0.8000000000000002;" width="8" x="589.6" y="260.5188"/><rect fill="#FFFFFF" height="275.3609" style="stroke:#181818;stroke-width:0.8000000000000002;" width="8" x="589.6" y="546.2797"/><rect fill="#FFFFFF" height="25.0328" style="stroke:#181818;stroke-width:0.8000000000000002;" width="8" x="1307.2" y="285.5516"/><rect fill="#FFFFFF" height="25.0328" style="stroke:#181818;stroke-width:0.8000000000000002;" width="8" x="1307.2" y="571.3125"/><rect fill="#FFFFFF" height="25.0328" style="stroke:#181818;stroke-width:0.8000000000000002;" width="8" x="1431.2" y="335.6172"/><rect fill="#FFFFFF" height="25.0328" style="stroke:#181818;stroke-width:0.8000000000000002;" width="8" x="1431.2" y="621.3781"/><rect fill="#FFFFFF" height="25.0328" style="stroke:#181818;stroke-width:0.8000000000000002;" width="8" x="1431.2" y="771.575"/><rect fill="#FFFFFF" height="75.0984" style="stroke:#181818;stroke-width:0.8000000000000002;" width="8" x="1529.6" y="671.4438"/><rect fill="#FFFFFF" height="25.0328" style="stroke:#181818;stroke-width:0.8000000000000002;" width="8" x="1660" y="696.4766"/><line style="stroke:#181818;stroke-width:0.4000000000000001;stroke-dasharray:5.0,5.0;" x1="28.8" x2="28.8" y1="98.5938" y2="886.1063"/><line style="stroke:#181818;stroke-width:0.4000000000000001;stroke-dasharray:5.0,5.0;" x1="262.4" x2="262.4" y1="98.5938" y2="886.1063"/><line style="stroke:#181818;stroke-width:0.4000000000000001;stroke-dasharray:5.0,5.0;" x1="424.8" x2="424.8" y1="164.5234" y2="886.1063"/><line style="stroke:#181818;stroke-width:0.4000000000000001;stroke-dasharray:5.0,5.0;" x1="593.6" x2="593.6" y1="98.5938" y2="886.1063"/><line style="stroke:#181818;stroke-width:0.4000000000000001;stroke-dasharray:5.0,5.0;" x1="1310.8" x2="1310.8" y1="98.5938" y2="886.1063"/><line style="stroke:#181818;stroke-width:0.4000000000000001;stroke-dasharray:5.0,5.0;" x1="1434.8" x2="1434.8" y1="98.5938" y2="886.1063"/><line style="stroke:#181818;stroke-width:0.4000000000000001;stroke-dasharray:5.0,5.0;" x1="1533.2" x2="1533.2" y1="98.5938" y2="886.1063"/><line style="stroke:#181818;stroke-width:0.4000000000000001;stroke-dasharray:5.0,5.0;" x1="1663.6" x2="1663.6" y1="98.5938" y2="886.1063"/><text fill="#000000" font-family="sans-serif" font-size="11.2" lengthAdjust="spacing" textLength="45.6" x="4" y="95.7828">Operator</text><ellipse cx="29.2" cy="42.4969" fill="#E2E2F0" rx="6.4" ry="6.4" style="stroke:#181818;stroke-width:0.4000000000000001;"/><path d="M29.2,48.8969 L29.2,70.4969 M18.8,55.2969 L39.6,55.2969 M29.2,70.4969 L18.8,82.4969 M29.2,70.4969 L39.6,82.4969 " fill="none" style="stroke:#181818;stroke-width:0.4000000000000001;"/><text fill="#000000" font-family="sans-serif" font-size="11.2" lengthAdjust="spacing" textLength="45.6" x="4" y="897.3922">Operator</text><ellipse cx="29.2" cy="907.0031" fill="#E2E2F0" rx="6.4" ry="6.4" style="stroke:#181818;stroke-width:0.4000000000000001;"/><path d="M29.2,913.4031 L29.2,935.0031 M18.8,919.8031 L39.6,919.8031 M29.2,935.0031 L18.8,947.0031 M29.2,935.0031 L39.6,947.0031 " fill="none" style="stroke:#181818;stroke-width:0.4000000000000001;"/><rect fill="#E2E2F0" height="40.9938" rx="2" ry="2" style="stroke:#181818;stroke-width:0.4000000000000001;" width="108" x="208.8" y="56.8"/><text fill="#000000" font-family="sans-serif" font-size="11.2" font-style="italic" lengthAdjust="spacing" textLength="21.6" x="252" y="74.4859">&#171;ui&#187;</text><text fill="#000000" font-family="sans-serif" font-size="11.2" lengthAdjust="spacing" textLength="96.8" x="214.4" y="89.3828">EnableCandidateUI</text><rect fill="#E2E2F0" height="40.9938" rx="2" ry="2" style="stroke:#181818;stroke-width:0.4000000000000001;" width="108" x="208.8" y="885.3063"/><text fill="#000000" font-family="sans-serif" font-size="11.2" font-style="italic" lengthAdjust="spacing" textLength="21.6" x="252" y="902.9922">&#171;ui&#187;</text><text fill="#000000" font-family="sans-serif" font-size="11.2" lengthAdjust="spacing" textLength="96.8" x="214.4" y="917.8891">EnableCandidateUI</text><rect fill="#E2E2F0" height="40.9938" rx="2" ry="2" style="stroke:#181818;stroke-width:0.4000000000000001;" width="151.2" x="349.6" y="885.3063"/><text fill="#000000" font-family="sans-serif" font-size="11.2" font-style="italic" lengthAdjust="spacing" textLength="67.2" x="391.6" y="902.9922">&#171;application&#187;</text><text fill="#000000" font-family="sans-serif" font-size="11.2" lengthAdjust="spacing" textLength="140" x="355.2" y="917.8891">:EnableCandidateController</text><rect fill="#E2E2F0" height="40.9938" rx="2" ry="2" style="stroke:#181818;stroke-width:0.4000000000000001;" width="169.6" x="508.8" y="56.8"/><text fill="#000000" font-family="sans-serif" font-size="11.2" font-style="italic" lengthAdjust="spacing" textLength="49.6" x="568.8" y="74.4859">&#171;Service&#187;</text><text fill="#000000" font-family="sans-serif" font-size="11.2" lengthAdjust="spacing" textLength="158.4" x="514.4" y="89.3828">:CandidateManagementService</text><rect fill="#E2E2F0" height="40.9938" rx="2" ry="2" style="stroke:#181818;stroke-width:0.4000000000000001;" width="169.6" x="508.8" y="885.3063"/><text fill="#000000" font-family="sans-serif" font-size="11.2" font-style="italic" lengthAdjust="spacing" textLength="49.6" x="568.8" y="902.9922">&#171;Service&#187;</text><text fill="#000000" font-family="sans-serif" font-size="11.2" lengthAdjust="spacing" textLength="158.4" x="514.4" y="917.8891">:CandidateManagementService</text><rect fill="#E2E2F0" height="40.9938" rx="2" ry="2" style="stroke:#181818;stroke-width:0.4000000000000001;" width="114.4" x="1254" y="56.8"/><text fill="#000000" font-family="sans-serif" font-size="11.2" font-style="italic" lengthAdjust="spacing" textLength="49.6" x="1286.4" y="74.4859">&#171;Service&#187;</text><text fill="#000000" font-family="sans-serif" font-size="11.2" lengthAdjust="spacing" textLength="103.2" x="1259.6" y="89.3828">AuthorizationService</text><rect fill="#E2E2F0" height="40.9938" rx="2" ry="2" style="stroke:#181818;stroke-width:0.4000000000000001;" width="114.4" x="1254" y="885.3063"/><text fill="#000000" font-family="sans-serif" font-size="11.2" font-style="italic" lengthAdjust="spacing" textLength="49.6" x="1286.4" y="902.9922">&#171;Service&#187;</text><text fill="#000000" font-family="sans-serif" font-size="11.2" lengthAdjust="spacing" textLength="103.2" x="1259.6" y="917.8891">AuthorizationService</text><rect fill="#E2E2F0" height="40.9938" rx="2" ry="2" style="stroke:#181818;stroke-width:0.4000000000000001;" width="117.6" x="1376.4" y="56.8"/><text fill="#000000" font-family="sans-serif" font-size="11.2" font-style="italic" lengthAdjust="spacing" textLength="63.2" x="1403.6" y="74.4859">&#171;repository&#187;</text><text fill="#000000" font-family="sans-serif" font-size="11.2" lengthAdjust="spacing" textLength="106.4" x="1382" y="89.3828">CandidateRepository</text><rect fill="#E2E2F0" height="40.9938" rx="2" ry="2" style="stroke:#181818;stroke-width:0.4000000000000001;" width="117.6" x="1376.4" y="885.3063"/><text fill="#000000" font-family="sans-serif" font-size="11.2" font-style="italic" lengthAdjust="spacing" textLength="63.2" x="1403.6" y="902.9922">&#171;repository&#187;</text><text fill="#000000" font-family="sans-serif" font-size="11.2" lengthAdjust="spacing" textLength="106.4" x="1382" y="917.8891">CandidateRepository</text><rect fill="#E2E2F0" height="40.9938" rx="2" ry="2" style="stroke:#181818;stroke-width:0.4000000000000001;" width="63.2" x="1502" y="56.8"/><text fill="#000000" font-family="sans-serif" font-size="11.2" font-style="italic" lengthAdjust="spacing" textLength="49.6" x="1508.8" y="74.4859">&#171;domain&#187;</text><text fill="#000000" font-family="sans-serif" font-size="11.2" lengthAdjust="spacing" textLength="52" x="1507.6" y="89.3828">Candidate</text><rect fill="#E2E2F0" height="40.9938" rx="2" ry="2" style="stroke:#181818;stroke-width:0.4000000000000001;" width="63.2" x="1502" y="885.3063"/><text fill="#000000" font-family="sans-serif" font-size="11.2" font-style="italic" lengthAdjust="spacing" textLength="49.6" x="1508.8" y="902.9922">&#171;domain&#187;</text><text fill="#000000" font-family="sans-serif" font-size="11.2" lengthAdjust="spacing" textLength="52" x="1507.6" y="917.8891">Candidate</text><rect fill="#E2E2F0" height="40.9938" rx="2" ry="2" style="stroke:#181818;stroke-width:0.4000000000000001;" width="71.2" x="1628.4" y="56.8"/><text fill="#000000" font-family="sans-serif" font-size="11.2" font-style="italic" lengthAdjust="spacing" textLength="49.6" x="1639.2" y="74.4859">&#171;domain&#187;</text><text fill="#000000" font-family="sans-serif" font-size="11.2" lengthAdjust="spacing" textLength="60" x="1634" y="89.3828">SystemUser</text><rect fill="#E2E2F0" height="40.9938" rx="2" ry="2" style="stroke:#181818;stroke-width:0.4000000000000001;" width="71.2" x="1628.4" y="885.3063"/><text fill="#000000" font-family="sans-serif" font-size="11.2" font-style="italic" lengthAdjust="spacing" textLength="49.6" x="1639.2" y="902.9922">&#171;domain&#187;</text><text fill="#000000" font-family="sans-serif" font-size="11.2" lengthAdjust="spacing" textLength="60" x="1634" y="917.8891">SystemUser</text><rect fill="#FFFFFF" height="772.3125" style="stroke:#181818;stroke-width:0.8000000000000002;" width="8" x="25.2" y="106.5938"/><rect fill="#FFFFFF" height="345.9547" style="stroke:#181818;stroke-width:0.8000000000000002;" width="8" x="258.8" y="125.2266"/><rect fill="#FFFFFF" height="382.6922" style="stroke:#181818;stroke-width:0.8000000000000002;" width="8" x="258.8" y="496.2141"/><rect fill="#FFFFFF" height="175.2297" style="stroke:#181818;stroke-width:0.8000000000000002;" width="8" x="421.2" y="235.4859"/><rect fill="#FFFFFF" height="325.4266" style="stroke:#181818;stroke-width:0.8000000000000002;" width="8" x="421.2" y="521.2469"/><rect fill="#FFFFFF" height="125.1641" style="stroke:#181818;stroke-width:0.8000000000000002;" width="8" x="589.6" y="260.5188"/><rect fill="#FFFFFF" height="275.3609" style="stroke:#181818;stroke-width:0.8000000000000002;" width="8" x="589.6" y="546.2797"/><rect fill="#FFFFFF" height="25.0328" style="stroke:#181818;stroke-width:0.8000000000000002;" width="8" x="1307.2" y="285.5516"/><rect fill="#FFFFFF" height="25.0328" style="stroke:#181818;stroke-width:0.8000000000000002;" width="8" x="1307.2" y="571.3125"/><rect fill="#FFFFFF" height="25.0328" style="stroke:#181818;stroke-width:0.8000000000000002;" width="8" x="1431.2" y="335.6172"/><rect fill="#FFFFFF" height="25.0328" style="stroke:#181818;stroke-width:0.8000000000000002;" width="8" x="1431.2" y="621.3781"/><rect fill="#FFFFFF" height="25.0328" style="stroke:#181818;stroke-width:0.8000000000000002;" width="8" x="1431.2" y="771.575"/><rect fill="#FFFFFF" height="75.0984" style="stroke:#181818;stroke-width:0.8000000000000002;" width="8" x="1529.6" y="671.4438"/><rect fill="#FFFFFF" height="25.0328" style="stroke:#181818;stroke-width:0.8000000000000002;" width="8" x="1660" y="696.4766"/><polygon fill="#181818" points="249.2,122.0266,257.2,125.2266,249.2,128.4266,252.4,125.2266" style="stroke:#181818;stroke-width:0.8000000000000002;"/><line style="stroke:#181818;stroke-width:0.8000000000000002;" x1="33.2" x2="254" y1="125.2266" y2="125.2266"/><text fill="#000000" font-family="sans-serif" font-size="10.4" font-weight="bold" lengthAdjust="spacing" textLength="5.6" x="38.8" y="121.0164">1</text><text fill="#000000" font-family="sans-serif" font-size="10.4" lengthAdjust="spacing" textLength="140.8" x="47.6" y="121.0164">Request to enable a candidate</text><polygon fill="#181818" points="340,147.0594,348,150.2594,340,153.4594,343.2,150.2594" style="stroke:#181818;stroke-width:0.8000000000000002;"/><line style="stroke:#181818;stroke-width:0.8000000000000002;" x1="266.8" x2="344.8" y1="150.2594" y2="150.2594"/><text fill="#000000" font-family="sans-serif" font-size="10.4" font-weight="bold" lengthAdjust="spacing" textLength="5.6" x="272.4" y="146.0492">2</text><text fill="#000000" font-family="sans-serif" font-size="10.4" lengthAdjust="spacing" textLength="28.8" x="281.2" y="146.0492">create</text><rect fill="#E2E2F0" height="40.9938" rx="2" ry="2" style="stroke:#181818;stroke-width:0.4000000000000001;" width="151.2" x="349.6" y="131.6266"/><text fill="#000000" font-family="sans-serif" font-size="11.2" font-style="italic" lengthAdjust="spacing" textLength="67.2" x="391.6" y="149.3125">&#171;application&#187;</text><text fill="#000000" font-family="sans-serif" font-size="11.2" lengthAdjust="spacing" textLength="140" x="355.2" y="164.2094">:EnableCandidateController</text><line style="stroke:#181818;stroke-width:0.8000000000000002;stroke-dasharray:2.0,2.0;" x1="266.8" x2="300.4" y1="200.0531" y2="200.0531"/><line style="stroke:#181818;stroke-width:0.8000000000000002;stroke-dasharray:2.0,2.0;" x1="300.4" x2="300.4" y1="200.0531" y2="210.4531"/><line style="stroke:#181818;stroke-width:0.8000000000000002;stroke-dasharray:2.0,2.0;" x1="267.6" x2="300.4" y1="210.4531" y2="210.4531"/><polygon fill="#181818" points="275.6,207.2531,267.6,210.4531,275.6,213.6531,272.4,210.4531" style="stroke:#181818;stroke-width:0.8000000000000002;"/><text fill="#000000" font-family="sans-serif" font-size="10.4" font-weight="bold" lengthAdjust="spacing" textLength="5.6" x="272.4" y="195.843">3</text><text fill="#000000" font-family="sans-serif" font-size="10.4" lengthAdjust="spacing" textLength="112" x="281.2" y="195.843">listDisabledCandidates()</text><polygon fill="#181818" points="411.6,232.2859,419.6,235.4859,411.6,238.6859,414.8,235.4859" style="stroke:#181818;stroke-width:0.8000000000000002;"/><line style="stroke:#181818;stroke-width:0.8000000000000002;" x1="266.8" x2="416.4" y1="235.4859" y2="235.4859"/><text fill="#000000" font-family="sans-serif" font-size="10.4" font-weight="bold" lengthAdjust="spacing" textLength="5.6" x="272.4" y="231.2758">4</text><text fill="#000000" font-family="sans-serif" font-size="10.4" lengthAdjust="spacing" textLength="96.8" x="281.2" y="231.2758">disabledCandidates()</text><polygon fill="#181818" points="580,257.3188,588,260.5188,580,263.7188,583.2,260.5188" style="stroke:#181818;stroke-width:0.8000000000000002;"/><line style="stroke:#181818;stroke-width:0.8000000000000002;stroke-dasharray:2.0,2.0;" x1="429.2" x2="584.8" y1="260.5188" y2="260.5188"/><text fill="#000000" font-family="sans-serif" font-size="10.4" font-weight="bold" lengthAdjust="spacing" textLength="5.6" x="434.8" y="256.3086">5</text><text fill="#000000" font-family="sans-serif" font-size="10.4" lengthAdjust="spacing" textLength="63.2" x="443.6" y="256.3086">allCandidate()</text><polygon fill="#181818" points="1297.6,282.3516,1305.6,285.5516,1297.6,288.7516,1300.8,285.5516" style="stroke:#181818;stroke-width:0.8000000000000002;"/><line style="stroke:#181818;stroke-width:0.8000000000000002;" x1="597.6" x2="1302.4" y1="285.5516" y2="285.5516"/><text fill="#000000" font-family="sans-serif" font-size="10.4" font-weight="bold" lengthAdjust="spacing" textLength="5.6" x="603.2" y="281.3414">6</text><text fill="#000000" font-family="sans-serif" font-size="10.4" lengthAdjust="spacing" textLength="685.6" x="612" y="281.3414">ensureAuthenticatedUserHasAnyOf(BaseRoles.POWER_USER, BaseRoles.ADMIN, BaseRoles.OPERATOR, BaseRoles.CUSTOMER_MANAGER)</text><polygon fill="#181818" points="606.4,307.3844,598.4,310.5844,606.4,313.7844,603.2,310.5844" style="stroke:#181818;stroke-width:0.8000000000000002;"/><line style="stroke:#181818;stroke-width:0.8000000000000002;stroke-dasharray:2.0,2.0;" x1="601.6" x2="1310.4" y1="310.5844" y2="310.5844"/><text fill="#000000" font-family="sans-serif" font-size="10.4" font-weight="bold" lengthAdjust="spacing" textLength="5.6" x="611.2" y="306.3742">7</text><text fill="#000000" font-family="sans-serif" font-size="10.4" lengthAdjust="spacing" textLength="175.2" x="620" y="306.3742">ensures the user has the required role</text><polygon fill="#181818" points="1421.6,332.4172,1429.6,335.6172,1421.6,338.8172,1424.8,335.6172" style="stroke:#181818;stroke-width:0.8000000000000002;"/><line style="stroke:#181818;stroke-width:0.8000000000000002;" x1="597.6" x2="1426.4" y1="335.6172" y2="335.6172"/><text fill="#000000" font-family="sans-serif" font-size="10.4" font-weight="bold" lengthAdjust="spacing" textLength="5.6" x="603.2" y="331.407">8</text><text fill="#000000" font-family="sans-serif" font-size="10.4" lengthAdjust="spacing" textLength="86.4" x="612" y="331.407">findAllCandidates()</text><polygon fill="#181818" points="606.4,357.45,598.4,360.65,606.4,363.85,603.2,360.65" style="stroke:#181818;stroke-width:0.8000000000000002;"/><line style="stroke:#181818;stroke-width:0.8000000000000002;stroke-dasharray:2.0,2.0;" x1="601.6" x2="1434.4" y1="360.65" y2="360.65"/><text fill="#000000" font-family="sans-serif" font-size="10.4" font-weight="bold" lengthAdjust="spacing" textLength="5.6" x="611.2" y="356.4398">9</text><text fill="#000000" font-family="sans-serif" font-size="10.4" lengthAdjust="spacing" textLength="64" x="620" y="356.4398">all candidates</text><polygon fill="#181818" points="438,382.4828,430,385.6828,438,388.8828,434.8,385.6828" style="stroke:#181818;stroke-width:0.8000000000000002;"/><line style="stroke:#181818;stroke-width:0.8000000000000002;stroke-dasharray:2.0,2.0;" x1="433.2" x2="592.8" y1="385.6828" y2="385.6828"/><text fill="#000000" font-family="sans-serif" font-size="10.4" font-weight="bold" lengthAdjust="spacing" textLength="11.2" x="442.8" y="381.4727">10</text><text fill="#000000" font-family="sans-serif" font-size="10.4" lengthAdjust="spacing" textLength="64" x="457.2" y="381.4727">all candidates</text><polygon fill="#181818" points="275.6,407.5156,267.6,410.7156,275.6,413.9156,272.4,410.7156" style="stroke:#181818;stroke-width:0.8000000000000002;"/><line style="stroke:#181818;stroke-width:0.8000000000000002;stroke-dasharray:2.0,2.0;" x1="270.8" x2="424.4" y1="410.7156" y2="410.7156"/><text fill="#000000" font-family="sans-serif" font-size="10.4" font-weight="bold" lengthAdjust="spacing" textLength="11.2" x="280.4" y="406.5055">11</text><text fill="#000000" font-family="sans-serif" font-size="10.4" lengthAdjust="spacing" textLength="64" x="294.8" y="406.5055">all candidates</text><line style="stroke:#181818;stroke-width:0.8000000000000002;stroke-dasharray:2.0,2.0;" x1="266.8" x2="300.4" y1="435.7484" y2="435.7484"/><line style="stroke:#181818;stroke-width:0.8000000000000002;stroke-dasharray:2.0,2.0;" x1="300.4" x2="300.4" y1="435.7484" y2="446.1484"/><line style="stroke:#181818;stroke-width:0.8000000000000002;stroke-dasharray:2.0,2.0;" x1="267.6" x2="300.4" y1="446.1484" y2="446.1484"/><polygon fill="#181818" points="275.6,442.9484,267.6,446.1484,275.6,449.3484,272.4,446.1484" style="stroke:#181818;stroke-width:0.8000000000000002;"/><text fill="#000000" font-family="sans-serif" font-size="10.4" font-weight="bold" lengthAdjust="spacing" textLength="11.2" x="272.4" y="431.5383">12</text><text fill="#000000" font-family="sans-serif" font-size="10.4" lengthAdjust="spacing" textLength="128.8" x="286.8" y="431.5383">printCandidates(candidates)</text><polygon fill="#181818" points="42,467.9813,34,471.1813,42,474.3813,38.8,471.1813" style="stroke:#181818;stroke-width:0.8000000000000002;"/><line style="stroke:#181818;stroke-width:0.8000000000000002;stroke-dasharray:2.0,2.0;" x1="37.2" x2="262" y1="471.1813" y2="471.1813"/><text fill="#000000" font-family="sans-serif" font-size="10.4" font-weight="bold" lengthAdjust="spacing" textLength="11.2" x="46.8" y="466.9711">13</text><text fill="#000000" font-family="sans-serif" font-size="10.4" lengthAdjust="spacing" textLength="181.6" x="61.2" y="466.9711">returns a list of the disabled candidates</text><polygon fill="#181818" points="249.2,493.0141,257.2,496.2141,249.2,499.4141,252.4,496.2141" style="stroke:#181818;stroke-width:0.8000000000000002;"/><line style="stroke:#181818;stroke-width:0.8000000000000002;" x1="33.2" x2="254" y1="496.2141" y2="496.2141"/><text fill="#000000" font-family="sans-serif" font-size="10.4" font-weight="bold" lengthAdjust="spacing" textLength="11.2" x="38.8" y="492.0039">14</text><text fill="#000000" font-family="sans-serif" font-size="10.4" lengthAdjust="spacing" textLength="132" x="53.2" y="492.0039">selects a disabled candidate</text><polygon fill="#181818" points="411.6,518.0469,419.6,521.2469,411.6,524.4469,414.8,521.2469" style="stroke:#181818;stroke-width:0.8000000000000002;"/><line style="stroke:#181818;stroke-width:0.8000000000000002;" x1="266.8" x2="416.4" y1="521.2469" y2="521.2469"/><text fill="#000000" font-family="sans-serif" font-size="10.4" font-weight="bold" lengthAdjust="spacing" textLength="11.2" x="272.4" y="517.0367">15</text><text fill="#000000" font-family="sans-serif" font-size="10.4" lengthAdjust="spacing" textLength="108" x="286.8" y="517.0367">enableCandidate(email)</text><polygon fill="#181818" points="580,543.0797,588,546.2797,580,549.4797,583.2,546.2797" style="stroke:#181818;stroke-width:0.8000000000000002;"/><line style="stroke:#181818;stroke-width:0.8000000000000002;" x1="429.2" x2="584.8" y1="546.2797" y2="546.2797"/><text fill="#000000" font-family="sans-serif" font-size="10.4" font-weight="bold" lengthAdjust="spacing" textLength="11.2" x="434.8" y="542.0695">16</text><text fill="#000000" font-family="sans-serif" font-size="10.4" lengthAdjust="spacing" textLength="108" x="449.2" y="542.0695">enableCandidate(email)</text><polygon fill="#181818" points="1297.6,568.1125,1305.6,571.3125,1297.6,574.5125,1300.8,571.3125" style="stroke:#181818;stroke-width:0.8000000000000002;"/><line style="stroke:#181818;stroke-width:0.8000000000000002;" x1="597.6" x2="1302.4" y1="571.3125" y2="571.3125"/><text fill="#000000" font-family="sans-serif" font-size="10.4" font-weight="bold" lengthAdjust="spacing" textLength="11.2" x="603.2" y="567.1023">17</text><text fill="#000000" font-family="sans-serif" font-size="10.4" lengthAdjust="spacing" textLength="374.4" x="617.6" y="567.1023">ensureAuthenticatedUserHasAnyOf(BaseRoles.OPERATOR, BaseRoles.ADMIN)</text><polygon fill="#181818" points="606.4,593.1453,598.4,596.3453,606.4,599.5453,603.2,596.3453" style="stroke:#181818;stroke-width:0.8000000000000002;"/><line style="stroke:#181818;stroke-width:0.8000000000000002;stroke-dasharray:2.0,2.0;" x1="601.6" x2="1310.4" y1="596.3453" y2="596.3453"/><text fill="#000000" font-family="sans-serif" font-size="10.4" font-weight="bold" lengthAdjust="spacing" textLength="11.2" x="611.2" y="592.1352">18</text><text fill="#000000" font-family="sans-serif" font-size="10.4" lengthAdjust="spacing" textLength="158.4" x="625.6" y="592.1352">ensures the user has operator role</text><polygon fill="#181818" points="1421.6,618.1781,1429.6,621.3781,1421.6,624.5781,1424.8,621.3781" style="stroke:#181818;stroke-width:0.8000000000000002;"/><line style="stroke:#181818;stroke-width:0.8000000000000002;" x1="597.6" x2="1426.4" y1="621.3781" y2="621.3781"/><text fill="#000000" font-family="sans-serif" font-size="10.4" font-weight="bold" lengthAdjust="spacing" textLength="11.2" x="603.2" y="617.168">19</text><text fill="#000000" font-family="sans-serif" font-size="10.4" lengthAdjust="spacing" textLength="34.4" x="617.6" y="617.168">findAll()</text><polygon fill="#181818" points="606.4,643.2109,598.4,646.4109,606.4,649.6109,603.2,646.4109" style="stroke:#181818;stroke-width:0.8000000000000002;"/><line style="stroke:#181818;stroke-width:0.8000000000000002;stroke-dasharray:2.0,2.0;" x1="601.6" x2="1434.4" y1="646.4109" y2="646.4109"/><text fill="#000000" font-family="sans-serif" font-size="10.4" font-weight="bold" lengthAdjust="spacing" textLength="11.2" x="611.2" y="642.2008">20</text><text fill="#000000" font-family="sans-serif" font-size="10.4" lengthAdjust="spacing" textLength="88.8" x="625.6" y="642.2008">finds all candidates</text><polygon fill="#181818" points="1520,668.2438,1528,671.4438,1520,674.6438,1523.2,671.4438" style="stroke:#181818;stroke-width:0.8000000000000002;"/><line style="stroke:#181818;stroke-width:0.8000000000000002;" x1="597.6" x2="1524.8" y1="671.4438" y2="671.4438"/><text fill="#000000" font-family="sans-serif" font-size="10.4" font-weight="bold" lengthAdjust="spacing" textLength="11.2" x="603.2" y="667.2336">21</text><text fill="#000000" font-family="sans-serif" font-size="10.4" lengthAdjust="spacing" textLength="29.6" x="617.6" y="667.2336">.user()</text><polygon fill="#181818" points="1650.4,693.2766,1658.4,696.4766,1650.4,699.6766,1653.6,696.4766" style="stroke:#181818;stroke-width:0.8000000000000002;"/><line style="stroke:#181818;stroke-width:0.8000000000000002;" x1="1537.6" x2="1655.2" y1="696.4766" y2="696.4766"/><text fill="#000000" font-family="sans-serif" font-size="10.4" font-weight="bold" lengthAdjust="spacing" textLength="11.2" x="1543.2" y="692.2664">22</text><text fill="#000000" font-family="sans-serif" font-size="10.4" lengthAdjust="spacing" textLength="44.8" x="1557.6" y="692.2664">.activate()</text><polygon fill="#181818" points="1546.4,718.3094,1538.4,721.5094,1546.4,724.7094,1543.2,721.5094" style="stroke:#181818;stroke-width:0.8000000000000002;"/><line style="stroke:#181818;stroke-width:0.8000000000000002;stroke-dasharray:2.0,2.0;" x1="1541.6" x2="1663.2" y1="721.5094" y2="721.5094"/><text fill="#000000" font-family="sans-serif" font-size="10.4" font-weight="bold" lengthAdjust="spacing" textLength="11.2" x="1551.2" y="717.2992">23</text><text fill="#000000" font-family="sans-serif" font-size="10.4" lengthAdjust="spacing" textLength="88.8" x="1565.6" y="717.2992">candidate activated</text><polygon fill="#181818" points="606.4,743.3422,598.4,746.5422,606.4,749.7422,603.2,746.5422" style="stroke:#181818;stroke-width:0.8000000000000002;"/><line style="stroke:#181818;stroke-width:0.8000000000000002;stroke-dasharray:2.0,2.0;" x1="601.6" x2="1532.8" y1="746.5422" y2="746.5422"/><text fill="#000000" font-family="sans-serif" font-size="10.4" font-weight="bold" lengthAdjust="spacing" textLength="11.2" x="611.2" y="742.332">24</text><text fill="#000000" font-family="sans-serif" font-size="10.4" lengthAdjust="spacing" textLength="88.8" x="625.6" y="742.332">candidate activated</text><polygon fill="#181818" points="1421.6,768.375,1429.6,771.575,1421.6,774.775,1424.8,771.575" style="stroke:#181818;stroke-width:0.8000000000000002;"/><line style="stroke:#181818;stroke-width:0.8000000000000002;" x1="597.6" x2="1426.4" y1="771.575" y2="771.575"/><text fill="#000000" font-family="sans-serif" font-size="10.4" font-weight="bold" lengthAdjust="spacing" textLength="11.2" x="603.2" y="767.3648">25</text><text fill="#000000" font-family="sans-serif" font-size="10.4" lengthAdjust="spacing" textLength="75.2" x="617.6" y="767.3648">.save(candidate)</text><polygon fill="#181818" points="606.4,793.4078,598.4,796.6078,606.4,799.8078,603.2,796.6078" style="stroke:#181818;stroke-width:0.8000000000000002;"/><line style="stroke:#181818;stroke-width:0.8000000000000002;stroke-dasharray:2.0,2.0;" x1="601.6" x2="1434.4" y1="796.6078" y2="796.6078"/><text fill="#000000" font-family="sans-serif" font-size="10.4" font-weight="bold" lengthAdjust="spacing" textLength="11.2" x="611.2" y="792.3977">26</text><text fill="#000000" font-family="sans-serif" font-size="10.4" lengthAdjust="spacing" textLength="84" x="625.6" y="792.3977">candidate enabled</text><polygon fill="#181818" points="438,818.4406,430,821.6406,438,824.8406,434.8,821.6406" style="stroke:#181818;stroke-width:0.8000000000000002;"/><line style="stroke:#181818;stroke-width:0.8000000000000002;stroke-dasharray:2.0,2.0;" x1="433.2" x2="592.8" y1="821.6406" y2="821.6406"/><text fill="#000000" font-family="sans-serif" font-size="10.4" font-weight="bold" lengthAdjust="spacing" textLength="11.2" x="442.8" y="817.4305">27</text><text fill="#000000" font-family="sans-serif" font-size="10.4" lengthAdjust="spacing" textLength="84" x="457.2" y="817.4305">candidate enabled</text><polygon fill="#181818" points="275.6,843.4734,267.6,846.6734,275.6,849.8734,272.4,846.6734" style="stroke:#181818;stroke-width:0.8000000000000002;"/><line style="stroke:#181818;stroke-width:0.8000000000000002;stroke-dasharray:2.0,2.0;" x1="270.8" x2="424.4" y1="846.6734" y2="846.6734"/><text fill="#000000" font-family="sans-serif" font-size="10.4" font-weight="bold" lengthAdjust="spacing" textLength="11.2" x="280.4" y="842.4633">28</text><text fill="#000000" font-family="sans-serif" font-size="10.4" lengthAdjust="spacing" textLength="84" x="294.8" y="842.4633">candidate enabled</text><polygon fill="#181818" points="42,868.5063,34,871.7063,42,874.9063,38.8,871.7063" style="stroke:#181818;stroke-width:0.8000000000000002;"/><line style="stroke:#181818;stroke-width:0.8000000000000002;stroke-dasharray:2.0,2.0;" x1="37.2" x2="258" y1="871.7063" y2="871.7063"/><text fill="#000000" font-family="sans-serif" font-size="10.4" font-weight="bold" lengthAdjust="spacing" textLength="11.2" x="46.8" y="867.4961">29</text><text fill="#000000" font-family="sans-serif" font-size="10.4" lengthAdjust="spacing" textLength="192" x="61.2" y="867.4961">candidate enabled and success message</text><!--SRC=[ZLNHRgCm47ptLwpwr5QNV02g8d4fkejqAHKKdUwfSc7RMYA6iqsbtjVVhWdWD0dj0oGnCxFhsJ5nojK8YPPFzB6MkbALT0WBoF5lXxf4k5NonSYT4B9pZUvsJsY4B5rZ86tHIFuYBSItMz5AurIfMgaTNFIIesAnkM1OiO6RcqwjLeVWw0DwtMXdchf6urdhX-mNyMJRrggKJZNwI62aRgMMBxX3xN8qRwh4Nc6Ray1-vICvxjnhOzG_hnoouXdIM333jh6AR7Ztd2ovJubbnjMpH0zF2W9NpKwgeptbxzRXhh1x4_8_UGZb6QWtdXLRJzTYnUv6aF7Wh0FN0FPZbL0EDITMiH449nARUtrDnD8W8tZLQqLGA-jkbMMHQcpRNbuHPa-4g3hrVAp26C4tagGPH23hUaGU0BUve6knYWc4sdO6UImqHfuuLcp3JsbZ_Pu-NtwN5hEcHhkyJtydsMEH9zatc5R9ZSrTk93U9rdya1w0raN-a6w9lOtluXz95ZGJvoBEXuxxPYnGCz1H5_0g-n-6Z5O6Aw2aegWmfFkjS1GYU5QwYeDT7_Z34C6tm9zfMZPKzL3M9IGPEWVrPlQcynXdW3mU6cQFQutIBkXpubpr8F8recsxpcXBgU9uGFFipHXYSAOGfOt8C6JKOesbOurZtfc8GhIFynGVfADGdmoRz_9JU12vhoVkL9Hytaxa1yu7g1dUdLyApsna66E_4fnLKaHBxY2KImgH58iLlLsYvR0OFgS7Wgw5PqyLO01KOIa6azg-iK_0L7dQwTBADvmIDxVVIRQVS3LxIcRH7mxAF7OyA_uO76615i1sPOdMmevkz3San7y0]--></g></svg>