<?xml version="1.0" encoding="us-ascii" standalone="no"?><svg xmlns="http://www.w3.org/2000/svg" xmlns:xlink="http://www.w3.org/1999/xlink" contentStyleType="text/css" height="728px" preserveAspectRatio="none" style="width:711px;height:728px;background:#FFFFFF;" version="1.1" viewBox="0 0 711 728" width="711px" zoomAndPan="magnify"><defs/><g><!--cluster ui--><g id="cluster_ui"><path d="M20.5,6.0137 L34.5,6.0137 A3.75,3.75 0 0 1 37,8.5137 L44,30.6348 L253.5,30.6348 A2.5,2.5 0 0 1 256,33.1348 L256,249.5137 A2.5,2.5 0 0 1 253.5,252.0137 L20.5,252.0137 A2.5,2.5 0 0 1 18,249.5137 L18,8.5137 A2.5,2.5 0 0 1 20.5,6.0137 " fill="none" style="stroke:#000000;stroke-width:1.5;"/><line style="stroke:#000000;stroke-width:1.5;" x1="18" x2="44" y1="30.6348" y2="30.6348"/><text fill="#000000" font-family="sans-serif" font-size="14" font-weight="bold" lengthAdjust="spacing" textLength="13" x="22" y="23.1211">ui</text></g><!--cluster application--><g id="cluster_application"><path d="M8.5,276.0137 L86.5,276.0137 A3.75,3.75 0 0 1 89,278.5137 L96,300.6348 L464.5,300.6348 A2.5,2.5 0 0 1 467,303.1348 L467,411.5137 A2.5,2.5 0 0 1 464.5,414.0137 L8.5,414.0137 A2.5,2.5 0 0 1 6,411.5137 L6,278.5137 A2.5,2.5 0 0 1 8.5,276.0137 " fill="none" style="stroke:#000000;stroke-width:1.5;"/><line style="stroke:#000000;stroke-width:1.5;" x1="6" x2="96" y1="300.6348" y2="300.6348"/><text fill="#000000" font-family="sans-serif" font-size="14" font-weight="bold" lengthAdjust="spacing" textLength="77" x="10" y="293.1211">application</text></g><!--cluster repository--><g id="cluster_repository"><path d="M14.5,447.0137 L87.5,447.0137 A3.75,3.75 0 0 1 90,449.5137 L97,471.6348 L207.5,471.6348 A2.5,2.5 0 0 1 210,474.1348 L210,564.5137 A2.5,2.5 0 0 1 207.5,567.0137 L14.5,567.0137 A2.5,2.5 0 0 1 12,564.5137 L12,449.5137 A2.5,2.5 0 0 1 14.5,447.0137 " fill="none" style="stroke:#000000;stroke-width:1.5;"/><line style="stroke:#000000;stroke-width:1.5;" x1="12" x2="97" y1="471.6348" y2="471.6348"/><text fill="#000000" font-family="sans-serif" font-size="14" font-weight="bold" lengthAdjust="spacing" textLength="72" x="16" y="464.1211">repository</text></g><!--cluster domain--><g id="cluster_domain"><path d="M236.5,438.0137 L288.5,438.0137 A3.75,3.75 0 0 1 291,440.5137 L298,462.6348 L701.5,462.6348 A2.5,2.5 0 0 1 704,465.1348 L704,718.5137 A2.5,2.5 0 0 1 701.5,721.0137 L236.5,721.0137 A2.5,2.5 0 0 1 234,718.5137 L234,440.5137 A2.5,2.5 0 0 1 236.5,438.0137 " fill="none" style="stroke:#000000;stroke-width:1.5;"/><line style="stroke:#000000;stroke-width:1.5;" x1="234" x2="298" y1="462.6348" y2="462.6348"/><text fill="#000000" font-family="sans-serif" font-size="14" font-weight="bold" lengthAdjust="spacing" textLength="51" x="238" y="455.1211">domain</text></g><!--class DisableCandidateUI--><g id="elem_DisableCandidateUI"><rect codeLine="6" fill="#F1F1F1" height="48" id="DisableCandidateUI" rx="2.5" ry="2.5" style="stroke:#181818;stroke-width:0.5;" width="156" x="71" y="43.0137"/><ellipse cx="86" cy="59.0137" fill="#ADD1B2" rx="11" ry="11" style="stroke:#181818;stroke-width:1.0;"/><path d="M88.7656,54.8887 Q88.9219,54.6699 89.1094,54.5605 Q89.2969,54.4512 89.5156,54.4512 Q89.8906,54.4512 90.125,54.7168 Q90.3594,54.9668 90.3594,55.5762 L90.3594,57.0293 Q90.3594,57.6387 90.125,57.9043 Q89.8906,58.1699 89.5156,58.1699 Q89.1719,58.1699 88.9688,57.9668 Q88.7656,57.7793 88.6563,57.2637 Q88.6094,56.9043 88.4219,56.7168 Q88.0938,56.3418 87.4844,56.123 Q86.875,55.9043 86.25,55.9043 Q85.4844,55.9043 84.8438,56.2324 Q84.2188,56.5605 83.7188,57.3105 Q83.2344,58.0605 83.2344,59.0918 L83.2344,60.1855 Q83.2344,61.4199 84.125,62.248 Q85.0156,63.0605 86.6094,63.0605 Q87.5469,63.0605 88.2031,62.8105 Q88.5938,62.6543 89.0156,62.2168 Q89.2813,61.9512 89.4219,61.873 Q89.5781,61.7949 89.7813,61.7949 Q90.1094,61.7949 90.3594,62.0605 Q90.625,62.3105 90.625,62.6543 Q90.625,62.998 90.2813,63.4043 Q89.7813,63.9824 88.9844,64.3105 Q87.9063,64.7637 86.6094,64.7637 Q85.0938,64.7637 83.8906,64.1387 Q82.9063,63.6387 82.2188,62.5762 Q81.5313,61.498 81.5313,60.2168 L81.5313,59.0605 Q81.5313,57.7324 82.1406,56.5918 Q82.7656,55.4355 83.8594,54.8262 Q84.9531,54.2012 86.1875,54.2012 Q86.9219,54.2012 87.5625,54.373 Q88.2188,54.5293 88.7656,54.8887 Z " fill="#000000"/><text fill="#000000" font-family="sans-serif" font-size="14" lengthAdjust="spacing" textLength="124" x="100" y="64.8105">DisableCandidateUI</text><line style="stroke:#181818;stroke-width:0.5;" x1="72" x2="226" y1="75.0137" y2="75.0137"/><line style="stroke:#181818;stroke-width:0.5;" x1="72" x2="226" y1="83.0137" y2="83.0137"/></g><!--class ListCandidatesUI--><g id="elem_ListCandidatesUI"><rect codeLine="9" fill="#F1F1F1" height="85.2422" id="ListCandidatesUI" rx="2.5" ry="2.5" style="stroke:#181818;stroke-width:0.5;" width="205" x="34.5" y="151.0137"/><ellipse cx="79.75" cy="167.0137" fill="#ADD1B2" rx="11" ry="11" style="stroke:#181818;stroke-width:1.0;"/><path d="M82.5156,162.8887 Q82.6719,162.6699 82.8594,162.5605 Q83.0469,162.4512 83.2656,162.4512 Q83.6406,162.4512 83.875,162.7168 Q84.1094,162.9668 84.1094,163.5762 L84.1094,165.0293 Q84.1094,165.6387 83.875,165.9043 Q83.6406,166.1699 83.2656,166.1699 Q82.9219,166.1699 82.7188,165.9668 Q82.5156,165.7793 82.4063,165.2637 Q82.3594,164.9043 82.1719,164.7168 Q81.8438,164.3418 81.2344,164.123 Q80.625,163.9043 80,163.9043 Q79.2344,163.9043 78.5938,164.2324 Q77.9688,164.5605 77.4688,165.3105 Q76.9844,166.0605 76.9844,167.0918 L76.9844,168.1855 Q76.9844,169.4199 77.875,170.248 Q78.7656,171.0605 80.3594,171.0605 Q81.2969,171.0605 81.9531,170.8105 Q82.3438,170.6543 82.7656,170.2168 Q83.0313,169.9512 83.1719,169.873 Q83.3281,169.7949 83.5313,169.7949 Q83.8594,169.7949 84.1094,170.0605 Q84.375,170.3105 84.375,170.6543 Q84.375,170.998 84.0313,171.4043 Q83.5313,171.9824 82.7344,172.3105 Q81.6563,172.7637 80.3594,172.7637 Q78.8438,172.7637 77.6406,172.1387 Q76.6563,171.6387 75.9688,170.5762 Q75.2813,169.498 75.2813,168.2168 L75.2813,167.0605 Q75.2813,165.7324 75.8906,164.5918 Q76.5156,163.4355 77.6094,162.8262 Q78.7031,162.2012 79.9375,162.2012 Q80.6719,162.2012 81.3125,162.373 Q81.9688,162.5293 82.5156,162.8887 Z " fill="#000000"/><text fill="#000000" font-family="sans-serif" font-size="14" lengthAdjust="spacing" textLength="106" x="100.25" y="172.8105">ListCandidatesUI</text><line style="stroke:#181818;stroke-width:0.5;" x1="35.5" x2="238.5" y1="183.0137" y2="183.0137"/><line style="stroke:#181818;stroke-width:0.5;" x1="35.5" x2="238.5" y1="191.0137" y2="191.0137"/><ellipse cx="45.5" cy="205.8242" fill="#84BE84" rx="3" ry="3" style="stroke:#038048;stroke-width:1.0;"/><text fill="#000000" font-family="sans-serif" font-size="14" lengthAdjust="spacing" textLength="151" x="54.5" y="210.1211">listEnabledCandidates()</text><ellipse cx="45.5" cy="224.4453" fill="#84BE84" rx="3" ry="3" style="stroke:#038048;stroke-width:1.0;"/><text fill="#000000" font-family="sans-serif" font-size="14" lengthAdjust="spacing" textLength="179" x="54.5" y="228.7422">printCandidates(candidates)</text></g><!--class DisableCandidateController--><g id="elem_DisableCandidateController"><rect codeLine="19" fill="#F1F1F1" height="66.6211" id="DisableCandidateController" rx="2.5" ry="2.5" style="stroke:#181818;stroke-width:0.5;" width="206" x="245" y="322.0137"/><ellipse cx="260" cy="338.0137" fill="#ADD1B2" rx="11" ry="11" style="stroke:#181818;stroke-width:1.0;"/><path d="M262.7656,333.8887 Q262.9219,333.6699 263.1094,333.5605 Q263.2969,333.4512 263.5156,333.4512 Q263.8906,333.4512 264.125,333.7168 Q264.3594,333.9668 264.3594,334.5762 L264.3594,336.0293 Q264.3594,336.6387 264.125,336.9043 Q263.8906,337.1699 263.5156,337.1699 Q263.1719,337.1699 262.9688,336.9668 Q262.7656,336.7793 262.6563,336.2637 Q262.6094,335.9043 262.4219,335.7168 Q262.0938,335.3418 261.4844,335.123 Q260.875,334.9043 260.25,334.9043 Q259.4844,334.9043 258.8438,335.2324 Q258.2188,335.5605 257.7188,336.3105 Q257.2344,337.0605 257.2344,338.0918 L257.2344,339.1855 Q257.2344,340.4199 258.125,341.248 Q259.0156,342.0605 260.6094,342.0605 Q261.5469,342.0605 262.2031,341.8105 Q262.5938,341.6543 263.0156,341.2168 Q263.2813,340.9512 263.4219,340.873 Q263.5781,340.7949 263.7813,340.7949 Q264.1094,340.7949 264.3594,341.0605 Q264.625,341.3105 264.625,341.6543 Q264.625,341.998 264.2813,342.4043 Q263.7813,342.9824 262.9844,343.3105 Q261.9063,343.7637 260.6094,343.7637 Q259.0938,343.7637 257.8906,343.1387 Q256.9063,342.6387 256.2188,341.5762 Q255.5313,340.498 255.5313,339.2168 L255.5313,338.0605 Q255.5313,336.7324 256.1406,335.5918 Q256.7656,334.4355 257.8594,333.8262 Q258.9531,333.2012 260.1875,333.2012 Q260.9219,333.2012 261.5625,333.373 Q262.2188,333.5293 262.7656,333.8887 Z " fill="#000000"/><text fill="#000000" font-family="sans-serif" font-size="14" lengthAdjust="spacing" textLength="174" x="274" y="343.8105">DisableCandidateController</text><line style="stroke:#181818;stroke-width:0.5;" x1="246" x2="450" y1="354.0137" y2="354.0137"/><line style="stroke:#181818;stroke-width:0.5;" x1="246" x2="450" y1="362.0137" y2="362.0137"/><ellipse cx="256" cy="376.8242" fill="#84BE84" rx="3" ry="3" style="stroke:#038048;stroke-width:1.0;"/><text fill="#000000" font-family="sans-serif" font-size="14" lengthAdjust="spacing" textLength="153" x="265" y="381.1211">disableCandidate(email)</text></g><!--class ListCandidatesController--><g id="elem_ListCandidatesController"><rect codeLine="23" fill="#F1F1F1" height="85.2422" id="ListCandidatesController" rx="2.5" ry="2.5" style="stroke:#181818;stroke-width:0.5;" width="188" x="22" y="313.0137"/><ellipse cx="37" cy="329.0137" fill="#ADD1B2" rx="11" ry="11" style="stroke:#181818;stroke-width:1.0;"/><path d="M39.7656,324.8887 Q39.9219,324.6699 40.1094,324.5605 Q40.2969,324.4512 40.5156,324.4512 Q40.8906,324.4512 41.125,324.7168 Q41.3594,324.9668 41.3594,325.5762 L41.3594,327.0293 Q41.3594,327.6387 41.125,327.9043 Q40.8906,328.1699 40.5156,328.1699 Q40.1719,328.1699 39.9688,327.9668 Q39.7656,327.7793 39.6563,327.2637 Q39.6094,326.9043 39.4219,326.7168 Q39.0938,326.3418 38.4844,326.123 Q37.875,325.9043 37.25,325.9043 Q36.4844,325.9043 35.8438,326.2324 Q35.2188,326.5605 34.7188,327.3105 Q34.2344,328.0605 34.2344,329.0918 L34.2344,330.1855 Q34.2344,331.4199 35.125,332.248 Q36.0156,333.0605 37.6094,333.0605 Q38.5469,333.0605 39.2031,332.8105 Q39.5938,332.6543 40.0156,332.2168 Q40.2813,331.9512 40.4219,331.873 Q40.5781,331.7949 40.7813,331.7949 Q41.1094,331.7949 41.3594,332.0605 Q41.625,332.3105 41.625,332.6543 Q41.625,332.998 41.2813,333.4043 Q40.7813,333.9824 39.9844,334.3105 Q38.9063,334.7637 37.6094,334.7637 Q36.0938,334.7637 34.8906,334.1387 Q33.9063,333.6387 33.2188,332.5762 Q32.5313,331.498 32.5313,330.2168 L32.5313,329.0605 Q32.5313,327.7324 33.1406,326.5918 Q33.7656,325.4355 34.8594,324.8262 Q35.9531,324.2012 37.1875,324.2012 Q37.9219,324.2012 38.5625,324.373 Q39.2188,324.5293 39.7656,324.8887 Z " fill="#000000"/><text fill="#000000" font-family="sans-serif" font-size="14" lengthAdjust="spacing" textLength="156" x="51" y="334.8105">ListCandidatesController</text><line style="stroke:#181818;stroke-width:0.5;" x1="23" x2="209" y1="345.0137" y2="345.0137"/><line style="stroke:#181818;stroke-width:0.5;" x1="23" x2="209" y1="353.0137" y2="353.0137"/><ellipse cx="33" cy="367.8242" fill="#84BE84" rx="3" ry="3" style="stroke:#038048;stroke-width:1.0;"/><text fill="#000000" font-family="sans-serif" font-size="14" lengthAdjust="spacing" textLength="133" x="42" y="372.1211">enabledCandidates()</text><ellipse cx="33" cy="386.4453" fill="#84BE84" rx="3" ry="3" style="stroke:#038048;stroke-width:1.0;"/><text fill="#000000" font-family="sans-serif" font-size="14" lengthAdjust="spacing" textLength="96" x="42" y="390.7422">allCandidates()</text></g><!--class CandidateRepository--><g id="elem_CandidateRepository"><rect codeLine="31" fill="#F1F1F1" height="66.6211" id="CandidateRepository" rx="2.5" ry="2.5" style="stroke:#181818;stroke-width:0.5;" width="165" x="28.5" y="484.0137"/><ellipse cx="43.5" cy="500.0137" fill="#B4A7E5" rx="11" ry="11" style="stroke:#181818;stroke-width:1.0;"/><path d="M44.4531,496.6543 L44.4531,503.3105 L46.1719,503.3105 Q46.7813,503.3105 47.0469,503.5449 Q47.3125,503.7793 47.3125,504.1699 Q47.3125,504.5449 47.0469,504.7793 Q46.7813,505.0137 46.1719,505.0137 L41.0313,505.0137 Q40.4219,505.0137 40.1563,504.7793 Q39.8906,504.5449 39.8906,504.1543 Q39.8906,503.7793 40.1563,503.5449 Q40.4219,503.3105 41.0313,503.3105 L42.75,503.3105 L42.75,496.6543 L41.0313,496.6543 Q40.4219,496.6543 40.1563,496.4199 Q39.8906,496.1855 39.8906,495.7949 Q39.8906,495.4199 40.1563,495.1855 Q40.4219,494.9512 41.0313,494.9512 L46.1719,494.9512 Q46.7813,494.9512 47.0469,495.1855 Q47.3125,495.4199 47.3125,495.7949 Q47.3125,496.1855 47.0469,496.4199 Q46.7813,496.6543 46.1719,496.6543 L44.4531,496.6543 Z " fill="#000000"/><text fill="#000000" font-family="sans-serif" font-size="14" font-style="italic" lengthAdjust="spacing" textLength="133" x="57.5" y="505.8105">CandidateRepository</text><line style="stroke:#181818;stroke-width:0.5;" x1="29.5" x2="192.5" y1="516.0137" y2="516.0137"/><line style="stroke:#181818;stroke-width:0.5;" x1="29.5" x2="192.5" y1="524.0137" y2="524.0137"/><ellipse cx="39.5" cy="538.8242" fill="#84BE84" rx="3" ry="3" style="stroke:#038048;stroke-width:1.0;"/><text fill="#000000" font-family="sans-serif" font-size="14" lengthAdjust="spacing" textLength="106" x="48.5" y="543.1211">.save(candidate)</text></g><!--class SystemUser--><g id="elem_SystemUser"><rect codeLine="37" fill="#F1F1F1" height="85.2422" id="SystemUser" rx="2.5" ry="2.5" style="stroke:#181818;stroke-width:0.5;" width="107" x="250.5" y="620.0137"/><ellipse cx="265.5" cy="636.0137" fill="#ADD1B2" rx="11" ry="11" style="stroke:#181818;stroke-width:1.0;"/><path d="M268.2656,631.8887 Q268.4219,631.6699 268.6094,631.5605 Q268.7969,631.4512 269.0156,631.4512 Q269.3906,631.4512 269.625,631.7168 Q269.8594,631.9668 269.8594,632.5762 L269.8594,634.0293 Q269.8594,634.6387 269.625,634.9043 Q269.3906,635.1699 269.0156,635.1699 Q268.6719,635.1699 268.4688,634.9668 Q268.2656,634.7793 268.1563,634.2637 Q268.1094,633.9043 267.9219,633.7168 Q267.5938,633.3418 266.9844,633.123 Q266.375,632.9043 265.75,632.9043 Q264.9844,632.9043 264.3438,633.2324 Q263.7188,633.5605 263.2188,634.3105 Q262.7344,635.0605 262.7344,636.0918 L262.7344,637.1855 Q262.7344,638.4199 263.625,639.248 Q264.5156,640.0605 266.1094,640.0605 Q267.0469,640.0605 267.7031,639.8105 Q268.0938,639.6543 268.5156,639.2168 Q268.7813,638.9512 268.9219,638.873 Q269.0781,638.7949 269.2813,638.7949 Q269.6094,638.7949 269.8594,639.0605 Q270.125,639.3105 270.125,639.6543 Q270.125,639.998 269.7813,640.4043 Q269.2813,640.9824 268.4844,641.3105 Q267.4063,641.7637 266.1094,641.7637 Q264.5938,641.7637 263.3906,641.1387 Q262.4063,640.6387 261.7188,639.5762 Q261.0313,638.498 261.0313,637.2168 L261.0313,636.0605 Q261.0313,634.7324 261.6406,633.5918 Q262.2656,632.4355 263.3594,631.8262 Q264.4531,631.2012 265.6875,631.2012 Q266.4219,631.2012 267.0625,631.373 Q267.7188,631.5293 268.2656,631.8887 Z " fill="#000000"/><text fill="#000000" font-family="sans-serif" font-size="14" lengthAdjust="spacing" textLength="75" x="279.5" y="641.8105">SystemUser</text><line style="stroke:#181818;stroke-width:0.5;" x1="251.5" x2="356.5" y1="652.0137" y2="652.0137"/><line style="stroke:#181818;stroke-width:0.5;" x1="251.5" x2="356.5" y1="660.0137" y2="660.0137"/><ellipse cx="261.5" cy="674.8242" fill="#84BE84" rx="3" ry="3" style="stroke:#038048;stroke-width:1.0;"/><text fill="#000000" font-family="sans-serif" font-size="14" lengthAdjust="spacing" textLength="62" x="270.5" y="679.1211">.isActive()</text><ellipse cx="261.5" cy="693.4453" fill="#84BE84" rx="3" ry="3" style="stroke:#038048;stroke-width:1.0;"/><text fill="#000000" font-family="sans-serif" font-size="14" lengthAdjust="spacing" textLength="63" x="270.5" y="697.7422">.activate()</text></g><!--class AuthorizationService--><g id="elem_AuthorizationService"><rect codeLine="41" fill="#F1F1F1" height="85.2422" id="AuthorizationService" rx="2.5" ry="2.5" style="stroke:#181818;stroke-width:0.5;" width="305" x="382.5" y="475.0137"/><ellipse cx="466.25" cy="491.0137" fill="#ADD1B2" rx="11" ry="11" style="stroke:#181818;stroke-width:1.0;"/><path d="M469.0156,486.8887 Q469.1719,486.6699 469.3594,486.5605 Q469.5469,486.4512 469.7656,486.4512 Q470.1406,486.4512 470.375,486.7168 Q470.6094,486.9668 470.6094,487.5762 L470.6094,489.0293 Q470.6094,489.6387 470.375,489.9043 Q470.1406,490.1699 469.7656,490.1699 Q469.4219,490.1699 469.2188,489.9668 Q469.0156,489.7793 468.9063,489.2637 Q468.8594,488.9043 468.6719,488.7168 Q468.3438,488.3418 467.7344,488.123 Q467.125,487.9043 466.5,487.9043 Q465.7344,487.9043 465.0938,488.2324 Q464.4688,488.5605 463.9688,489.3105 Q463.4844,490.0605 463.4844,491.0918 L463.4844,492.1855 Q463.4844,493.4199 464.375,494.248 Q465.2656,495.0605 466.8594,495.0605 Q467.7969,495.0605 468.4531,494.8105 Q468.8438,494.6543 469.2656,494.2168 Q469.5313,493.9512 469.6719,493.873 Q469.8281,493.7949 470.0313,493.7949 Q470.3594,493.7949 470.6094,494.0605 Q470.875,494.3105 470.875,494.6543 Q470.875,494.998 470.5313,495.4043 Q470.0313,495.9824 469.2344,496.3105 Q468.1563,496.7637 466.8594,496.7637 Q465.3438,496.7637 464.1406,496.1387 Q463.1563,495.6387 462.4688,494.5762 Q461.7813,493.498 461.7813,492.2168 L461.7813,491.0605 Q461.7813,489.7324 462.3906,488.5918 Q463.0156,487.4355 464.1094,486.8262 Q465.2031,486.2012 466.4375,486.2012 Q467.1719,486.2012 467.8125,486.373 Q468.4688,486.5293 469.0156,486.8887 Z " fill="#000000"/><text fill="#000000" font-family="sans-serif" font-size="14" lengthAdjust="spacing" textLength="129" x="486.75" y="496.8105">AuthorizationService</text><line style="stroke:#181818;stroke-width:0.5;" x1="383.5" x2="686.5" y1="507.0137" y2="507.0137"/><line style="stroke:#181818;stroke-width:0.5;" x1="383.5" x2="686.5" y1="515.0137" y2="515.0137"/><ellipse cx="393.5" cy="529.8242" fill="#84BE84" rx="3" ry="3" style="stroke:#038048;stroke-width:1.0;"/><text fill="#000000" font-family="sans-serif" font-size="14" lengthAdjust="spacing" textLength="279" x="402.5" y="534.1211">authorizationService() : AuthorizationService</text><ellipse cx="393.5" cy="548.4453" fill="#84BE84" rx="3" ry="3" style="stroke:#038048;stroke-width:1.0;"/><text fill="#000000" font-family="sans-serif" font-size="14" lengthAdjust="spacing" textLength="233" x="402.5" y="552.7422">ensureAuthenticatedUserHasAnyOf()</text></g><!--class Candidate--><g id="elem_Candidate"><rect codeLine="46" fill="#F1F1F1" height="66.6211" id="Candidate" rx="2.5" ry="2.5" style="stroke:#181818;stroke-width:0.5;" width="97" x="250.5" y="484.0137"/><ellipse cx="265.5" cy="500.0137" fill="#ADD1B2" rx="11" ry="11" style="stroke:#181818;stroke-width:1.0;"/><path d="M268.2656,495.8887 Q268.4219,495.6699 268.6094,495.5605 Q268.7969,495.4512 269.0156,495.4512 Q269.3906,495.4512 269.625,495.7168 Q269.8594,495.9668 269.8594,496.5762 L269.8594,498.0293 Q269.8594,498.6387 269.625,498.9043 Q269.3906,499.1699 269.0156,499.1699 Q268.6719,499.1699 268.4688,498.9668 Q268.2656,498.7793 268.1563,498.2637 Q268.1094,497.9043 267.9219,497.7168 Q267.5938,497.3418 266.9844,497.123 Q266.375,496.9043 265.75,496.9043 Q264.9844,496.9043 264.3438,497.2324 Q263.7188,497.5605 263.2188,498.3105 Q262.7344,499.0605 262.7344,500.0918 L262.7344,501.1855 Q262.7344,502.4199 263.625,503.248 Q264.5156,504.0605 266.1094,504.0605 Q267.0469,504.0605 267.7031,503.8105 Q268.0938,503.6543 268.5156,503.2168 Q268.7813,502.9512 268.9219,502.873 Q269.0781,502.7949 269.2813,502.7949 Q269.6094,502.7949 269.8594,503.0605 Q270.125,503.3105 270.125,503.6543 Q270.125,503.998 269.7813,504.4043 Q269.2813,504.9824 268.4844,505.3105 Q267.4063,505.7637 266.1094,505.7637 Q264.5938,505.7637 263.3906,505.1387 Q262.4063,504.6387 261.7188,503.5762 Q261.0313,502.498 261.0313,501.2168 L261.0313,500.0605 Q261.0313,498.7324 261.6406,497.5918 Q262.2656,496.4355 263.3594,495.8262 Q264.4531,495.2012 265.6875,495.2012 Q266.4219,495.2012 267.0625,495.373 Q267.7188,495.5293 268.2656,495.8887 Z " fill="#000000"/><text fill="#000000" font-family="sans-serif" font-size="14" lengthAdjust="spacing" textLength="65" x="279.5" y="505.8105">Candidate</text><line style="stroke:#181818;stroke-width:0.5;" x1="251.5" x2="346.5" y1="516.0137" y2="516.0137"/><line style="stroke:#181818;stroke-width:0.5;" x1="251.5" x2="346.5" y1="524.0137" y2="524.0137"/><ellipse cx="261.5" cy="538.8242" fill="#84BE84" rx="3" ry="3" style="stroke:#038048;stroke-width:1.0;"/><text fill="#000000" font-family="sans-serif" font-size="14" lengthAdjust="spacing" textLength="42" x="270.5" y="543.1211">.user()</text></g><!--link DisableCandidateUI to DisableCandidateController--><g id="link_DisableCandidateUI_DisableCandidateController"><path codeLine="53" d="M188.16,91.1737 C210.62,106.0137 238.03,126.9737 257,151.0137 C298.83,204.0337 324.1676,273.5853 337.1676,316.1553 " fill="none" id="DisableCandidateUI-to-DisableCandidateController" style="stroke:#181818;stroke-width:1.0;"/><polygon fill="#181818" points="338.92,321.8937,340.117,312.1178,337.4597,317.1117,332.4658,314.4543,338.92,321.8937" style="stroke:#181818;stroke-width:1.0;"/></g><!--link DisableCandidateUI to ListCandidatesUI--><g id="link_DisableCandidateUI_ListCandidatesUI"><path codeLine="54" d="M146.77,91.1437 C145.16,107.8737 143.5056,124.9813 141.5856,144.9013 " fill="none" id="DisableCandidateUI-to-ListCandidatesUI" style="stroke:#181818;stroke-width:1.0;"/><polygon fill="#181818" points="141.01,150.8737,145.855,142.299,141.4897,145.8967,137.8919,141.5314,141.01,150.8737" style="stroke:#181818;stroke-width:1.0;"/></g><!--link ListCandidatesUI to ListCandidatesController--><g id="link_ListCandidatesUI_ListCandidatesController"><path codeLine="55" d="M131.54,236.1337 C128.44,259.7437 125.3508,283.2547 122.2508,306.8747 " fill="none" id="ListCandidatesUI-to-ListCandidatesController" style="stroke:#181818;stroke-width:1.0;"/><polygon fill="#181818" points="121.47,312.8237,126.6071,304.4207,122.1206,307.8662,118.6752,303.3797,121.47,312.8237" style="stroke:#181818;stroke-width:1.0;"/></g><!--link ListCandidatesController to Candidate--><g id="link_ListCandidatesController_Candidate"><path codeLine="56" d="M171.48,398.2937 C184.34,408.4137 197.82,419.3937 210,430.0137 C229.48,447.0137 246.011,462.8474 262.581,479.3674 " fill="none" id="ListCandidatesController-to-Candidate" style="stroke:#181818;stroke-width:1.0;"/><polygon fill="#181818" points="266.83,483.6037,263.2806,474.4166,263.2891,480.0735,257.6323,480.082,266.83,483.6037" style="stroke:#181818;stroke-width:1.0;"/></g><!--link Candidate to SystemUser--><g id="link_Candidate_SystemUser"><path codeLine="57" d="M300.15,551.3237 C300.86,571.6837 301.5712,592.0573 302.3312,613.8873 " fill="none" id="Candidate-to-SystemUser" style="stroke:#181818;stroke-width:1.0;"/><polygon fill="#181818" points="302.54,619.8837,306.2244,610.7499,302.366,614.8867,298.2293,611.0283,302.54,619.8837" style="stroke:#181818;stroke-width:1.0;"/></g><!--link DisableCandidateController to Candidate--><g id="link_DisableCandidateController_Candidate"><path codeLine="58" d="M337.97,389.2737 C329.51,416.8937 319.2265,450.4565 310.7765,478.0565 " fill="none" id="DisableCandidateController-to-Candidate" style="stroke:#181818;stroke-width:1.0;"/><polygon fill="#181818" points="309.02,483.7937,315.4795,476.3589,310.4837,479.0127,307.83,474.017,309.02,483.7937" style="stroke:#181818;stroke-width:1.0;"/></g><!--link DisableCandidateController to CandidateRepository--><g id="link_DisableCandidateController_CandidateRepository"><path codeLine="59" d="M296.35,389.1937 C276.72,401.7737 254.21,416.3937 234,430.0137 C208.13,447.4437 184.5016,463.9691 161.4416,480.3491 " fill="none" id="DisableCandidateController-to-CandidateRepository" style="stroke:#181818;stroke-width:1.0;"/><polygon fill="#181818" points="156.55,483.8237,166.2037,481.8728,160.6263,480.9282,161.571,475.3508,156.55,483.8237" style="stroke:#181818;stroke-width:1.0;"/></g><!--link CandidateRepository to Candidate--><g id="link_CandidateRepository_Candidate"><path codeLine="60" d="M193.62,517.5137 C212.55,517.5137 225.49,517.5137 244.43,517.5137 " fill="none" id="CandidateRepository-to-Candidate" style="stroke:#181818;stroke-width:1.0;"/><polygon fill="#181818" points="250.43,517.5137,241.43,513.5137,245.43,517.5137,241.43,521.5137,250.43,517.5137" style="stroke:#181818;stroke-width:1.0;"/></g><!--link DisableCandidateController to AuthorizationService--><g id="link_DisableCandidateController_AuthorizationService"><path codeLine="61" d="M386.29,389.2737 C415.25,414.0537 450.6621,444.3417 481.8621,471.0517 " fill="none" id="DisableCandidateController-to-AuthorizationService" style="stroke:#181818;stroke-width:1.0;"/><polygon fill="#181818" points="486.42,474.9537,482.1845,466.0621,482.6217,471.702,476.9818,472.1393,486.42,474.9537" style="stroke:#181818;stroke-width:1.0;"/></g><!--SRC=[bLHDZzem4BtxLymnKKK452erXsefK1KAsjKkx9vDCh1M7JloHoHQzR_NHakI9W6sFaMUDs_cZTy4Sfhyf0S4o-0tWVD9EDKQPapJ7SSf5IbBgS7jeexvGvhu5TEc1EljeWRsvmDtyRdmb6a52y86AbTCr6Y2fFmCwyNFFP2tDiv2Q9vpbb33fBYjQ2g5KP9pLD1iDcr00ymeu-7xzLVSJMgyEGFAUNUqqlsFQ8MvrCn8TNGwAhGR9AezJH1AjiSIsUmgqhJ0QjgtYwRIJQHZo4z7RJ3RwhRmYEb9OfWhqnGSKN_lnzokMp5Fh7cLYlqwlUuJge8vQOqYf_5ru88Guaw2TZeARHLwB0hZlOIfL_ETweautk-3goOe9zroL6GTIN31n5tBrkjzkUBOYodDDIIjcmvOdVTIv9HM1aXDgWzKpqwkxLc3uxt8ohUawnB-YxNJ1WJkKAGsuuGyS2hCThs20fNsFv91DEmFHz77OFDguHlkO326mUTur8_xOtYPRy27GnAi5nlGqYfdI_V_C8hjh2yHaYKjA3nQPwSCOxZFKIndFyuNC1S5Kr9apcva-Rok09z6lQ_CW6_HjVwy9ZFSKykDoqXaoiGXXca-68w7P4N5mRgjZ24tP2eTiJh6yB3v2m00]--></g></svg>