<?xml version="1.0" encoding="us-ascii" standalone="no"?><svg xmlns="http://www.w3.org/2000/svg" xmlns:xlink="http://www.w3.org/1999/xlink" contentStyleType="text/css" height="839px" preserveAspectRatio="none" style="width:1390px;height:839px;background:#FFFFFF;" version="1.1" viewBox="0 0 1390 839" width="1390px" zoomAndPan="magnify"><defs/><g><text fill="#000000" font-family="sans-serif" font-size="14" font-weight="bold" lengthAdjust="spacing" textLength="315" x="530.5" y="25.1074">US1021 - Display all the data of an application</text><!--cluster Job Opening--><g id="cluster_Job Opening"><rect fill="#BBCCAA" height="406" rx="2.5" ry="2.5" style="stroke:#181818;stroke-width:1.0;" width="647" x="737" y="427.6211"/><text fill="#000000" font-family="sans-serif" font-size="14" font-weight="bold" lengthAdjust="spacing" textLength="90" x="1015.5" y="444.7285">Job Opening</text></g><!--cluster Job Opening Application--><g id="cluster_Job Opening Application"><rect fill="#AACCBB" height="268" rx="2.5" ry="2.5" style="stroke:#181818;stroke-width:1.0;" width="792" x="7" y="46.6211"/><text fill="#000000" font-family="sans-serif" font-size="14" font-weight="bold" lengthAdjust="spacing" textLength="172" x="317" y="63.7285">Job Opening Application</text></g><!--class JobOpening--><g id="elem_JobOpening"><rect codeLine="6" fill="#F1F1F1" height="76.543" id="JobOpening" rx="2.5" ry="2.5" style="stroke:#181818;stroke-width:0.5;" width="128" x="966" y="602.6211"/><ellipse cx="981" cy="632.8926" fill="#ADD1B2" rx="11" ry="11" style="stroke:#181818;stroke-width:1.0;"/><path d="M983.7656,628.7676 Q983.9219,628.5488 984.1094,628.4395 Q984.2969,628.3301 984.5156,628.3301 Q984.8906,628.3301 985.125,628.5957 Q985.3594,628.8457 985.3594,629.4551 L985.3594,630.9082 Q985.3594,631.5176 985.125,631.7832 Q984.8906,632.0488 984.5156,632.0488 Q984.1719,632.0488 983.9688,631.8457 Q983.7656,631.6582 983.6563,631.1426 Q983.6094,630.7832 983.4219,630.5957 Q983.0938,630.2207 982.4844,630.002 Q981.875,629.7832 981.25,629.7832 Q980.4844,629.7832 979.8438,630.1113 Q979.2188,630.4395 978.7188,631.1895 Q978.2344,631.9395 978.2344,632.9707 L978.2344,634.0645 Q978.2344,635.2988 979.125,636.127 Q980.0156,636.9395 981.6094,636.9395 Q982.5469,636.9395 983.2031,636.6895 Q983.5938,636.5332 984.0156,636.0957 Q984.2813,635.8301 984.4219,635.752 Q984.5781,635.6738 984.7813,635.6738 Q985.1094,635.6738 985.3594,635.9395 Q985.625,636.1895 985.625,636.5332 Q985.625,636.877 985.2813,637.2832 Q984.7813,637.8613 983.9844,638.1895 Q982.9063,638.6426 981.6094,638.6426 Q980.0938,638.6426 978.8906,638.0176 Q977.9063,637.5176 977.2188,636.4551 Q976.5313,635.377 976.5313,634.0957 L976.5313,632.9395 Q976.5313,631.6113 977.1406,630.4707 Q977.7656,629.3145 978.8594,628.7051 Q979.9531,628.0801 981.1875,628.0801 Q981.9219,628.0801 982.5625,628.252 Q983.2188,628.4082 983.7656,628.7676 Z " fill="#000000"/><text fill="#000000" font-family="sans-serif" font-size="12" font-style="italic" lengthAdjust="spacing" textLength="100" x="993" y="620.5703">&#171;Aggregate Root&#187;</text><text fill="#000000" font-family="sans-serif" font-size="12" font-style="italic" lengthAdjust="spacing" textLength="44" x="1021" y="636.5313">&#171;Entity&#187;</text><text fill="#000000" font-family="sans-serif" font-size="14" lengthAdjust="spacing" textLength="76" x="1005" y="654.6504">JobOpening</text><line style="stroke:#181818;stroke-width:0.5;" x1="967" x2="1093" y1="663.1641" y2="663.1641"/><line style="stroke:#181818;stroke-width:0.5;" x1="967" x2="1093" y1="671.1641" y2="671.1641"/></g><!--class JobReference--><g id="elem_JobReference"><rect codeLine="8" fill="#F1F1F1" height="76.543" id="JobReference" rx="2.5" ry="2.5" style="stroke:#181818;stroke-width:0.5;" width="120" x="753" y="740.6211"/><ellipse cx="768" cy="770.8926" fill="#ADD1B2" rx="11" ry="11" style="stroke:#181818;stroke-width:1.0;"/><path d="M770.7656,766.7676 Q770.9219,766.5488 771.1094,766.4395 Q771.2969,766.3301 771.5156,766.3301 Q771.8906,766.3301 772.125,766.5957 Q772.3594,766.8457 772.3594,767.4551 L772.3594,768.9082 Q772.3594,769.5176 772.125,769.7832 Q771.8906,770.0488 771.5156,770.0488 Q771.1719,770.0488 770.9688,769.8457 Q770.7656,769.6582 770.6563,769.1426 Q770.6094,768.7832 770.4219,768.5957 Q770.0938,768.2207 769.4844,768.002 Q768.875,767.7832 768.25,767.7832 Q767.4844,767.7832 766.8438,768.1113 Q766.2188,768.4395 765.7188,769.1895 Q765.2344,769.9395 765.2344,770.9707 L765.2344,772.0645 Q765.2344,773.2988 766.125,774.127 Q767.0156,774.9395 768.6094,774.9395 Q769.5469,774.9395 770.2031,774.6895 Q770.5938,774.5332 771.0156,774.0957 Q771.2813,773.8301 771.4219,773.752 Q771.5781,773.6738 771.7813,773.6738 Q772.1094,773.6738 772.3594,773.9395 Q772.625,774.1895 772.625,774.5332 Q772.625,774.877 772.2813,775.2832 Q771.7813,775.8613 770.9844,776.1895 Q769.9063,776.6426 768.6094,776.6426 Q767.0938,776.6426 765.8906,776.0176 Q764.9063,775.5176 764.2188,774.4551 Q763.5313,773.377 763.5313,772.0957 L763.5313,770.9395 Q763.5313,769.6113 764.1406,768.4707 Q764.7656,767.3145 765.8594,766.7051 Q766.9531,766.0801 768.1875,766.0801 Q768.9219,766.0801 769.5625,766.252 Q770.2188,766.4082 770.7656,766.7676 Z " fill="#000000"/><text fill="#000000" font-family="sans-serif" font-size="12" font-style="italic" lengthAdjust="spacing" textLength="54" x="799" y="758.5703">&#171;Identity&#187;</text><text fill="#000000" font-family="sans-serif" font-size="12" font-style="italic" lengthAdjust="spacing" textLength="85" x="783.5" y="774.5313">&#171;Value Object&#187;</text><text fill="#000000" font-family="sans-serif" font-size="14" lengthAdjust="spacing" textLength="88" x="782" y="792.6504">JobReference</text><line style="stroke:#181818;stroke-width:0.5;" x1="754" x2="872" y1="801.1641" y2="801.1641"/><line style="stroke:#181818;stroke-width:0.5;" x1="754" x2="872" y1="809.1641" y2="809.1641"/></g><!--class TitleOrFunction--><g id="elem_TitleOrFunction"><rect codeLine="10" fill="#F1F1F1" height="60.582" id="TitleOrFunction" rx="2.5" ry="2.5" style="stroke:#181818;stroke-width:0.5;" width="130" x="908" y="748.6211"/><ellipse cx="923" cy="770.9121" fill="#ADD1B2" rx="11" ry="11" style="stroke:#181818;stroke-width:1.0;"/><path d="M925.7656,766.7871 Q925.9219,766.5684 926.1094,766.459 Q926.2969,766.3496 926.5156,766.3496 Q926.8906,766.3496 927.125,766.6152 Q927.3594,766.8652 927.3594,767.4746 L927.3594,768.9277 Q927.3594,769.5371 927.125,769.8027 Q926.8906,770.0684 926.5156,770.0684 Q926.1719,770.0684 925.9688,769.8652 Q925.7656,769.6777 925.6563,769.1621 Q925.6094,768.8027 925.4219,768.6152 Q925.0938,768.2402 924.4844,768.0215 Q923.875,767.8027 923.25,767.8027 Q922.4844,767.8027 921.8438,768.1309 Q921.2188,768.459 920.7188,769.209 Q920.2344,769.959 920.2344,770.9902 L920.2344,772.084 Q920.2344,773.3184 921.125,774.1465 Q922.0156,774.959 923.6094,774.959 Q924.5469,774.959 925.2031,774.709 Q925.5938,774.5527 926.0156,774.1152 Q926.2813,773.8496 926.4219,773.7715 Q926.5781,773.6934 926.7813,773.6934 Q927.1094,773.6934 927.3594,773.959 Q927.625,774.209 927.625,774.5527 Q927.625,774.8965 927.2813,775.3027 Q926.7813,775.8809 925.9844,776.209 Q924.9063,776.6621 923.6094,776.6621 Q922.0938,776.6621 920.8906,776.0371 Q919.9063,775.5371 919.2188,774.4746 Q918.5313,773.3965 918.5313,772.1152 L918.5313,770.959 Q918.5313,769.6309 919.1406,768.4902 Q919.7656,767.334 920.8594,766.7246 Q921.9531,766.0996 923.1875,766.0996 Q923.9219,766.0996 924.5625,766.2715 Q925.2188,766.4277 925.7656,766.7871 Z " fill="#000000"/><text fill="#000000" font-family="sans-serif" font-size="12" font-style="italic" lengthAdjust="spacing" textLength="85" x="943.5" y="766.5703">&#171;Value Object&#187;</text><text fill="#000000" font-family="sans-serif" font-size="14" lengthAdjust="spacing" textLength="98" x="937" y="784.6895">TitleOrFunction</text><line style="stroke:#181818;stroke-width:0.5;" x1="909" x2="1037" y1="793.2031" y2="793.2031"/><line style="stroke:#181818;stroke-width:0.5;" x1="909" x2="1037" y1="801.2031" y2="801.2031"/></g><!--class ContractType--><g id="elem_ContractType"><rect codeLine="12" fill="#F1F1F1" height="76.543" id="ContractType" rx="2.5" ry="2.5" style="stroke:#181818;stroke-width:0.5;" width="118" x="1186" y="464.6211"/><ellipse cx="1201" cy="494.8926" fill="#EB937F" rx="11" ry="11" style="stroke:#181818;stroke-width:1.0;"/><path d="M1199.8594,495.6895 L1199.8594,498.1895 L1204.1875,498.1895 L1204.1875,497.2676 Q1204.1875,496.6582 1204.4219,496.3926 Q1204.6719,496.127 1205.0469,496.127 Q1205.4219,496.127 1205.6563,496.3926 Q1205.8906,496.6582 1205.8906,497.2676 L1205.8906,499.8926 L1197.8906,499.8926 Q1197.2656,499.8926 1197,499.6582 Q1196.75,499.4238 1196.75,499.0332 Q1196.75,498.6582 1197.0156,498.4238 Q1197.2813,498.1895 1197.8906,498.1895 L1198.1563,498.1895 L1198.1563,491.5332 L1197.8906,491.5332 Q1197.2656,491.5332 1197,491.2988 Q1196.75,491.0645 1196.75,490.6738 Q1196.75,490.2988 1197,490.0645 Q1197.2656,489.8301 1197.8906,489.8301 L1205.5156,489.8301 L1205.5156,492.4238 Q1205.5156,493.0332 1205.2813,493.2988 Q1205.0625,493.5488 1204.6719,493.5488 Q1204.2969,493.5488 1204.0625,493.2988 Q1203.8281,493.0332 1203.8281,492.4238 L1203.8281,491.5332 L1199.8594,491.5332 L1199.8594,493.9863 L1201.3438,493.9863 Q1201.3438,493.3301 1201.4688,493.1426 Q1201.7344,492.7363 1202.2031,492.7363 Q1202.5781,492.7363 1202.8125,493.002 Q1203.0469,493.252 1203.0469,493.8613 L1203.0469,495.8301 Q1203.0469,496.377 1202.9219,496.5645 Q1202.6563,496.9551 1202.2031,496.9551 Q1201.7344,496.9551 1201.4688,496.5488 Q1201.3438,496.3613 1201.3438,495.6895 L1199.8594,495.6895 Z " fill="#000000"/><text fill="#000000" font-family="sans-serif" font-size="12" font-style="italic" lengthAdjust="spacing" textLength="82" x="1217" y="482.5703">&#171;Enumerated&#187;</text><text fill="#000000" font-family="sans-serif" font-size="12" font-style="italic" lengthAdjust="spacing" textLength="85" x="1215.5" y="498.5313">&#171;Value Object&#187;</text><text fill="#000000" font-family="sans-serif" font-size="14" lengthAdjust="spacing" textLength="86" x="1215" y="516.6504">ContractType</text><line style="stroke:#181818;stroke-width:0.5;" x1="1187" x2="1303" y1="525.1641" y2="525.1641"/><line style="stroke:#181818;stroke-width:0.5;" x1="1187" x2="1303" y1="533.1641" y2="533.1641"/></g><!--class Mode--><g id="elem_Mode"><rect codeLine="14" fill="#F1F1F1" height="76.543" id="Mode" rx="2.5" ry="2.5" style="stroke:#181818;stroke-width:0.5;" width="113" x="1037.5" y="464.6211"/><ellipse cx="1052.5" cy="494.8926" fill="#ADD1B2" rx="11" ry="11" style="stroke:#181818;stroke-width:1.0;"/><path d="M1055.2656,490.7676 Q1055.4219,490.5488 1055.6094,490.4395 Q1055.7969,490.3301 1056.0156,490.3301 Q1056.3906,490.3301 1056.625,490.5957 Q1056.8594,490.8457 1056.8594,491.4551 L1056.8594,492.9082 Q1056.8594,493.5176 1056.625,493.7832 Q1056.3906,494.0488 1056.0156,494.0488 Q1055.6719,494.0488 1055.4688,493.8457 Q1055.2656,493.6582 1055.1563,493.1426 Q1055.1094,492.7832 1054.9219,492.5957 Q1054.5938,492.2207 1053.9844,492.002 Q1053.375,491.7832 1052.75,491.7832 Q1051.9844,491.7832 1051.3438,492.1113 Q1050.7188,492.4395 1050.2188,493.1895 Q1049.7344,493.9395 1049.7344,494.9707 L1049.7344,496.0645 Q1049.7344,497.2988 1050.625,498.127 Q1051.5156,498.9395 1053.1094,498.9395 Q1054.0469,498.9395 1054.7031,498.6895 Q1055.0938,498.5332 1055.5156,498.0957 Q1055.7813,497.8301 1055.9219,497.752 Q1056.0781,497.6738 1056.2813,497.6738 Q1056.6094,497.6738 1056.8594,497.9395 Q1057.125,498.1895 1057.125,498.5332 Q1057.125,498.877 1056.7813,499.2832 Q1056.2813,499.8613 1055.4844,500.1895 Q1054.4063,500.6426 1053.1094,500.6426 Q1051.5938,500.6426 1050.3906,500.0176 Q1049.4063,499.5176 1048.7188,498.4551 Q1048.0313,497.377 1048.0313,496.0957 L1048.0313,494.9395 Q1048.0313,493.6113 1048.6406,492.4707 Q1049.2656,491.3145 1050.3594,490.7051 Q1051.4531,490.0801 1052.6875,490.0801 Q1053.4219,490.0801 1054.0625,490.252 Q1054.7188,490.4082 1055.2656,490.7676 Z " fill="#000000"/><text fill="#000000" font-family="sans-serif" font-size="12" font-style="italic" lengthAdjust="spacing" textLength="82" x="1066" y="482.5703">&#171;Enumerated&#187;</text><text fill="#000000" font-family="sans-serif" font-size="12" font-style="italic" lengthAdjust="spacing" textLength="85" x="1064.5" y="498.5313">&#171;Value Object&#187;</text><text fill="#000000" font-family="sans-serif" font-size="14" lengthAdjust="spacing" textLength="35" x="1089.5" y="516.6504">Mode</text><line style="stroke:#181818;stroke-width:0.5;" x1="1038.5" x2="1149.5" y1="525.1641" y2="525.1641"/><line style="stroke:#181818;stroke-width:0.5;" x1="1038.5" x2="1149.5" y1="533.1641" y2="533.1641"/></g><!--class VacanciesNumber--><g id="elem_VacanciesNumber"><rect codeLine="17" fill="#F1F1F1" height="60.582" id="VacanciesNumber" rx="2.5" ry="2.5" style="stroke:#181818;stroke-width:0.5;" width="146" x="1073" y="748.6211"/><ellipse cx="1088" cy="770.9121" fill="#ADD1B2" rx="11" ry="11" style="stroke:#181818;stroke-width:1.0;"/><path d="M1090.7656,766.7871 Q1090.9219,766.5684 1091.1094,766.459 Q1091.2969,766.3496 1091.5156,766.3496 Q1091.8906,766.3496 1092.125,766.6152 Q1092.3594,766.8652 1092.3594,767.4746 L1092.3594,768.9277 Q1092.3594,769.5371 1092.125,769.8027 Q1091.8906,770.0684 1091.5156,770.0684 Q1091.1719,770.0684 1090.9688,769.8652 Q1090.7656,769.6777 1090.6563,769.1621 Q1090.6094,768.8027 1090.4219,768.6152 Q1090.0938,768.2402 1089.4844,768.0215 Q1088.875,767.8027 1088.25,767.8027 Q1087.4844,767.8027 1086.8438,768.1309 Q1086.2188,768.459 1085.7188,769.209 Q1085.2344,769.959 1085.2344,770.9902 L1085.2344,772.084 Q1085.2344,773.3184 1086.125,774.1465 Q1087.0156,774.959 1088.6094,774.959 Q1089.5469,774.959 1090.2031,774.709 Q1090.5938,774.5527 1091.0156,774.1152 Q1091.2813,773.8496 1091.4219,773.7715 Q1091.5781,773.6934 1091.7813,773.6934 Q1092.1094,773.6934 1092.3594,773.959 Q1092.625,774.209 1092.625,774.5527 Q1092.625,774.8965 1092.2813,775.3027 Q1091.7813,775.8809 1090.9844,776.209 Q1089.9063,776.6621 1088.6094,776.6621 Q1087.0938,776.6621 1085.8906,776.0371 Q1084.9063,775.5371 1084.2188,774.4746 Q1083.5313,773.3965 1083.5313,772.1152 L1083.5313,770.959 Q1083.5313,769.6309 1084.1406,768.4902 Q1084.7656,767.334 1085.8594,766.7246 Q1086.9531,766.0996 1088.1875,766.0996 Q1088.9219,766.0996 1089.5625,766.2715 Q1090.2188,766.4277 1090.7656,766.7871 Z " fill="#000000"/><text fill="#000000" font-family="sans-serif" font-size="12" font-style="italic" lengthAdjust="spacing" textLength="85" x="1116.5" y="766.5703">&#171;Value Object&#187;</text><text fill="#000000" font-family="sans-serif" font-size="14" lengthAdjust="spacing" textLength="114" x="1102" y="784.6895">VacanciesNumber</text><line style="stroke:#181818;stroke-width:0.5;" x1="1074" x2="1218" y1="793.2031" y2="793.2031"/><line style="stroke:#181818;stroke-width:0.5;" x1="1074" x2="1218" y1="801.2031" y2="801.2031"/></g><!--class Description--><g id="elem_Description"><rect codeLine="19" fill="#F1F1F1" height="60.582" id="Description" rx="2.5" ry="2.5" style="stroke:#181818;stroke-width:0.5;" width="113" x="1254.5" y="748.6211"/><ellipse cx="1269.5" cy="770.9121" fill="#ADD1B2" rx="11" ry="11" style="stroke:#181818;stroke-width:1.0;"/><path d="M1272.2656,766.7871 Q1272.4219,766.5684 1272.6094,766.459 Q1272.7969,766.3496 1273.0156,766.3496 Q1273.3906,766.3496 1273.625,766.6152 Q1273.8594,766.8652 1273.8594,767.4746 L1273.8594,768.9277 Q1273.8594,769.5371 1273.625,769.8027 Q1273.3906,770.0684 1273.0156,770.0684 Q1272.6719,770.0684 1272.4688,769.8652 Q1272.2656,769.6777 1272.1563,769.1621 Q1272.1094,768.8027 1271.9219,768.6152 Q1271.5938,768.2402 1270.9844,768.0215 Q1270.375,767.8027 1269.75,767.8027 Q1268.9844,767.8027 1268.3438,768.1309 Q1267.7188,768.459 1267.2188,769.209 Q1266.7344,769.959 1266.7344,770.9902 L1266.7344,772.084 Q1266.7344,773.3184 1267.625,774.1465 Q1268.5156,774.959 1270.1094,774.959 Q1271.0469,774.959 1271.7031,774.709 Q1272.0938,774.5527 1272.5156,774.1152 Q1272.7813,773.8496 1272.9219,773.7715 Q1273.0781,773.6934 1273.2813,773.6934 Q1273.6094,773.6934 1273.8594,773.959 Q1274.125,774.209 1274.125,774.5527 Q1274.125,774.8965 1273.7813,775.3027 Q1273.2813,775.8809 1272.4844,776.209 Q1271.4063,776.6621 1270.1094,776.6621 Q1268.5938,776.6621 1267.3906,776.0371 Q1266.4063,775.5371 1265.7188,774.4746 Q1265.0313,773.3965 1265.0313,772.1152 L1265.0313,770.959 Q1265.0313,769.6309 1265.6406,768.4902 Q1266.2656,767.334 1267.3594,766.7246 Q1268.4531,766.0996 1269.6875,766.0996 Q1270.4219,766.0996 1271.0625,766.2715 Q1271.7188,766.4277 1272.2656,766.7871 Z " fill="#000000"/><text fill="#000000" font-family="sans-serif" font-size="12" font-style="italic" lengthAdjust="spacing" textLength="85" x="1281.5" y="766.5703">&#171;Value Object&#187;</text><text fill="#000000" font-family="sans-serif" font-size="14" lengthAdjust="spacing" textLength="71" x="1288.5" y="784.6895">Description</text><line style="stroke:#181818;stroke-width:0.5;" x1="1255.5" x2="1366.5" y1="793.2031" y2="793.2031"/><line style="stroke:#181818;stroke-width:0.5;" x1="1255.5" x2="1366.5" y1="801.2031" y2="801.2031"/></g><!--class Phase--><g id="elem_Phase"><rect codeLine="21" fill="#F1F1F1" height="60.582" id="Phase" rx="2.5" ry="2.5" style="stroke:#181818;stroke-width:0.5;" width="113" x="889.5" y="472.6211"/><ellipse cx="904.5" cy="494.9121" fill="#ADD1B2" rx="11" ry="11" style="stroke:#181818;stroke-width:1.0;"/><path d="M907.2656,490.7871 Q907.4219,490.5684 907.6094,490.459 Q907.7969,490.3496 908.0156,490.3496 Q908.3906,490.3496 908.625,490.6152 Q908.8594,490.8652 908.8594,491.4746 L908.8594,492.9277 Q908.8594,493.5371 908.625,493.8027 Q908.3906,494.0684 908.0156,494.0684 Q907.6719,494.0684 907.4688,493.8652 Q907.2656,493.6777 907.1563,493.1621 Q907.1094,492.8027 906.9219,492.6152 Q906.5938,492.2402 905.9844,492.0215 Q905.375,491.8027 904.75,491.8027 Q903.9844,491.8027 903.3438,492.1309 Q902.7188,492.459 902.2188,493.209 Q901.7344,493.959 901.7344,494.9902 L901.7344,496.084 Q901.7344,497.3184 902.625,498.1465 Q903.5156,498.959 905.1094,498.959 Q906.0469,498.959 906.7031,498.709 Q907.0938,498.5527 907.5156,498.1152 Q907.7813,497.8496 907.9219,497.7715 Q908.0781,497.6934 908.2813,497.6934 Q908.6094,497.6934 908.8594,497.959 Q909.125,498.209 909.125,498.5527 Q909.125,498.8965 908.7813,499.3027 Q908.2813,499.8809 907.4844,500.209 Q906.4063,500.6621 905.1094,500.6621 Q903.5938,500.6621 902.3906,500.0371 Q901.4063,499.5371 900.7188,498.4746 Q900.0313,497.3965 900.0313,496.1152 L900.0313,494.959 Q900.0313,493.6309 900.6406,492.4902 Q901.2656,491.334 902.3594,490.7246 Q903.4531,490.0996 904.6875,490.0996 Q905.4219,490.0996 906.0625,490.2715 Q906.7188,490.4277 907.2656,490.7871 Z " fill="#000000"/><text fill="#000000" font-family="sans-serif" font-size="12" font-style="italic" lengthAdjust="spacing" textLength="85" x="916.5" y="490.5703">&#171;Value Object&#187;</text><text fill="#000000" font-family="sans-serif" font-size="14" lengthAdjust="spacing" textLength="40" x="939" y="508.6895">Phase</text><line style="stroke:#181818;stroke-width:0.5;" x1="890.5" x2="1001.5" y1="517.2031" y2="517.2031"/><line style="stroke:#181818;stroke-width:0.5;" x1="890.5" x2="1001.5" y1="525.2031" y2="525.2031"/></g><!--class Application--><g id="elem_Application"><rect codeLine="29" fill="#F1F1F1" height="76.543" id="Application" rx="2.5" ry="2.5" style="stroke:#181818;stroke-width:0.5;" width="128" x="478" y="83.6211"/><ellipse cx="493" cy="113.8926" fill="#ADD1B2" rx="11" ry="11" style="stroke:#181818;stroke-width:1.0;"/><path d="M495.7656,109.7676 Q495.9219,109.5488 496.1094,109.4395 Q496.2969,109.3301 496.5156,109.3301 Q496.8906,109.3301 497.125,109.5957 Q497.3594,109.8457 497.3594,110.4551 L497.3594,111.9082 Q497.3594,112.5176 497.125,112.7832 Q496.8906,113.0488 496.5156,113.0488 Q496.1719,113.0488 495.9688,112.8457 Q495.7656,112.6582 495.6563,112.1426 Q495.6094,111.7832 495.4219,111.5957 Q495.0938,111.2207 494.4844,111.002 Q493.875,110.7832 493.25,110.7832 Q492.4844,110.7832 491.8438,111.1113 Q491.2188,111.4395 490.7188,112.1895 Q490.2344,112.9395 490.2344,113.9707 L490.2344,115.0645 Q490.2344,116.2988 491.125,117.127 Q492.0156,117.9395 493.6094,117.9395 Q494.5469,117.9395 495.2031,117.6895 Q495.5938,117.5332 496.0156,117.0957 Q496.2813,116.8301 496.4219,116.752 Q496.5781,116.6738 496.7813,116.6738 Q497.1094,116.6738 497.3594,116.9395 Q497.625,117.1895 497.625,117.5332 Q497.625,117.877 497.2813,118.2832 Q496.7813,118.8613 495.9844,119.1895 Q494.9063,119.6426 493.6094,119.6426 Q492.0938,119.6426 490.8906,119.0176 Q489.9063,118.5176 489.2188,117.4551 Q488.5313,116.377 488.5313,115.0957 L488.5313,113.9395 Q488.5313,112.6113 489.1406,111.4707 Q489.7656,110.3145 490.8594,109.7051 Q491.9531,109.0801 493.1875,109.0801 Q493.9219,109.0801 494.5625,109.252 Q495.2188,109.4082 495.7656,109.7676 Z " fill="#000000"/><text fill="#000000" font-family="sans-serif" font-size="12" font-style="italic" lengthAdjust="spacing" textLength="100" x="505" y="101.5703">&#171;Aggregate Root&#187;</text><text fill="#000000" font-family="sans-serif" font-size="12" font-style="italic" lengthAdjust="spacing" textLength="44" x="533" y="117.5313">&#171;Entity&#187;</text><text fill="#000000" font-family="sans-serif" font-size="14" lengthAdjust="spacing" textLength="69" x="520.5" y="135.6504">Application</text><line style="stroke:#181818;stroke-width:0.5;" x1="479" x2="605" y1="144.1641" y2="144.1641"/><line style="stroke:#181818;stroke-width:0.5;" x1="479" x2="605" y1="152.1641" y2="152.1641"/></g><!--class ApplicationId--><g id="elem_ApplicationId"><rect codeLine="31" fill="#F1F1F1" height="76.543" id="ApplicationId" rx="2.5" ry="2.5" style="stroke:#181818;stroke-width:0.5;" width="113" x="23.5" y="221.6211"/><ellipse cx="38.5" cy="251.8926" fill="#ADD1B2" rx="11" ry="11" style="stroke:#181818;stroke-width:1.0;"/><path d="M41.2656,247.7676 Q41.4219,247.5488 41.6094,247.4395 Q41.7969,247.3301 42.0156,247.3301 Q42.3906,247.3301 42.625,247.5957 Q42.8594,247.8457 42.8594,248.4551 L42.8594,249.9082 Q42.8594,250.5176 42.625,250.7832 Q42.3906,251.0488 42.0156,251.0488 Q41.6719,251.0488 41.4688,250.8457 Q41.2656,250.6582 41.1563,250.1426 Q41.1094,249.7832 40.9219,249.5957 Q40.5938,249.2207 39.9844,249.002 Q39.375,248.7832 38.75,248.7832 Q37.9844,248.7832 37.3438,249.1113 Q36.7188,249.4395 36.2188,250.1895 Q35.7344,250.9395 35.7344,251.9707 L35.7344,253.0645 Q35.7344,254.2988 36.625,255.127 Q37.5156,255.9395 39.1094,255.9395 Q40.0469,255.9395 40.7031,255.6895 Q41.0938,255.5332 41.5156,255.0957 Q41.7813,254.8301 41.9219,254.752 Q42.0781,254.6738 42.2813,254.6738 Q42.6094,254.6738 42.8594,254.9395 Q43.125,255.1895 43.125,255.5332 Q43.125,255.877 42.7813,256.2832 Q42.2813,256.8613 41.4844,257.1895 Q40.4063,257.6426 39.1094,257.6426 Q37.5938,257.6426 36.3906,257.0176 Q35.4063,256.5176 34.7188,255.4551 Q34.0313,254.377 34.0313,253.0957 L34.0313,251.9395 Q34.0313,250.6113 34.6406,249.4707 Q35.2656,248.3145 36.3594,247.7051 Q37.4531,247.0801 38.6875,247.0801 Q39.4219,247.0801 40.0625,247.252 Q40.7188,247.4082 41.2656,247.7676 Z " fill="#000000"/><text fill="#000000" font-family="sans-serif" font-size="12" font-style="italic" lengthAdjust="spacing" textLength="54" x="66" y="239.5703">&#171;Identity&#187;</text><text fill="#000000" font-family="sans-serif" font-size="12" font-style="italic" lengthAdjust="spacing" textLength="85" x="50.5" y="255.5313">&#171;Value Object&#187;</text><text fill="#000000" font-family="sans-serif" font-size="14" lengthAdjust="spacing" textLength="80" x="53" y="273.6504">ApplicationId</text><line style="stroke:#181818;stroke-width:0.5;" x1="24.5" x2="135.5" y1="282.1641" y2="282.1641"/><line style="stroke:#181818;stroke-width:0.5;" x1="24.5" x2="135.5" y1="290.1641" y2="290.1641"/></g><!--class AttachedEmail--><g id="elem_AttachedEmail"><rect codeLine="33" fill="#F1F1F1" height="60.582" id="AttachedEmail" rx="2.5" ry="2.5" style="stroke:#181818;stroke-width:0.5;" width="122" x="172" y="229.6211"/><ellipse cx="187" cy="251.9121" fill="#ADD1B2" rx="11" ry="11" style="stroke:#181818;stroke-width:1.0;"/><path d="M189.7656,247.7871 Q189.9219,247.5684 190.1094,247.459 Q190.2969,247.3496 190.5156,247.3496 Q190.8906,247.3496 191.125,247.6152 Q191.3594,247.8652 191.3594,248.4746 L191.3594,249.9277 Q191.3594,250.5371 191.125,250.8027 Q190.8906,251.0684 190.5156,251.0684 Q190.1719,251.0684 189.9688,250.8652 Q189.7656,250.6777 189.6563,250.1621 Q189.6094,249.8027 189.4219,249.6152 Q189.0938,249.2402 188.4844,249.0215 Q187.875,248.8027 187.25,248.8027 Q186.4844,248.8027 185.8438,249.1309 Q185.2188,249.459 184.7188,250.209 Q184.2344,250.959 184.2344,251.9902 L184.2344,253.084 Q184.2344,254.3184 185.125,255.1465 Q186.0156,255.959 187.6094,255.959 Q188.5469,255.959 189.2031,255.709 Q189.5938,255.5527 190.0156,255.1152 Q190.2813,254.8496 190.4219,254.7715 Q190.5781,254.6934 190.7813,254.6934 Q191.1094,254.6934 191.3594,254.959 Q191.625,255.209 191.625,255.5527 Q191.625,255.8965 191.2813,256.3027 Q190.7813,256.8809 189.9844,257.209 Q188.9063,257.6621 187.6094,257.6621 Q186.0938,257.6621 184.8906,257.0371 Q183.9063,256.5371 183.2188,255.4746 Q182.5313,254.3965 182.5313,253.1152 L182.5313,251.959 Q182.5313,250.6309 183.1406,249.4902 Q183.7656,248.334 184.8594,247.7246 Q185.9531,247.0996 187.1875,247.0996 Q187.9219,247.0996 188.5625,247.2715 Q189.2188,247.4277 189.7656,247.7871 Z " fill="#000000"/><text fill="#000000" font-family="sans-serif" font-size="12" font-style="italic" lengthAdjust="spacing" textLength="85" x="203.5" y="247.5703">&#171;Value Object&#187;</text><text fill="#000000" font-family="sans-serif" font-size="14" lengthAdjust="spacing" textLength="90" x="201" y="265.6895">AttachedEmail</text><line style="stroke:#181818;stroke-width:0.5;" x1="173" x2="293" y1="274.2031" y2="274.2031"/><line style="stroke:#181818;stroke-width:0.5;" x1="173" x2="293" y1="282.2031" y2="282.2031"/></g><!--class AttachedFile--><g id="elem_AttachedFile"><rect codeLine="35" fill="#F1F1F1" height="60.582" id="AttachedFile" rx="2.5" ry="2.5" style="stroke:#181818;stroke-width:0.5;" width="113" x="329.5" y="229.6211"/><ellipse cx="344.5" cy="251.9121" fill="#ADD1B2" rx="11" ry="11" style="stroke:#181818;stroke-width:1.0;"/><path d="M347.2656,247.7871 Q347.4219,247.5684 347.6094,247.459 Q347.7969,247.3496 348.0156,247.3496 Q348.3906,247.3496 348.625,247.6152 Q348.8594,247.8652 348.8594,248.4746 L348.8594,249.9277 Q348.8594,250.5371 348.625,250.8027 Q348.3906,251.0684 348.0156,251.0684 Q347.6719,251.0684 347.4688,250.8652 Q347.2656,250.6777 347.1563,250.1621 Q347.1094,249.8027 346.9219,249.6152 Q346.5938,249.2402 345.9844,249.0215 Q345.375,248.8027 344.75,248.8027 Q343.9844,248.8027 343.3438,249.1309 Q342.7188,249.459 342.2188,250.209 Q341.7344,250.959 341.7344,251.9902 L341.7344,253.084 Q341.7344,254.3184 342.625,255.1465 Q343.5156,255.959 345.1094,255.959 Q346.0469,255.959 346.7031,255.709 Q347.0938,255.5527 347.5156,255.1152 Q347.7813,254.8496 347.9219,254.7715 Q348.0781,254.6934 348.2813,254.6934 Q348.6094,254.6934 348.8594,254.959 Q349.125,255.209 349.125,255.5527 Q349.125,255.8965 348.7813,256.3027 Q348.2813,256.8809 347.4844,257.209 Q346.4063,257.6621 345.1094,257.6621 Q343.5938,257.6621 342.3906,257.0371 Q341.4063,256.5371 340.7188,255.4746 Q340.0313,254.3965 340.0313,253.1152 L340.0313,251.959 Q340.0313,250.6309 340.6406,249.4902 Q341.2656,248.334 342.3594,247.7246 Q343.4531,247.0996 344.6875,247.0996 Q345.4219,247.0996 346.0625,247.2715 Q346.7188,247.4277 347.2656,247.7871 Z " fill="#000000"/><text fill="#000000" font-family="sans-serif" font-size="12" font-style="italic" lengthAdjust="spacing" textLength="85" x="356.5" y="247.5703">&#171;Value Object&#187;</text><text fill="#000000" font-family="sans-serif" font-size="14" lengthAdjust="spacing" textLength="79" x="359.5" y="265.6895">AttachedFile</text><line style="stroke:#181818;stroke-width:0.5;" x1="330.5" x2="441.5" y1="274.2031" y2="274.2031"/><line style="stroke:#181818;stroke-width:0.5;" x1="330.5" x2="441.5" y1="282.2031" y2="282.2031"/></g><!--class ApplicatonData--><g id="elem_ApplicatonData"><rect codeLine="37" fill="#F1F1F1" height="60.582" id="ApplicatonData" rx="2.5" ry="2.5" style="stroke:#181818;stroke-width:0.5;" width="128" x="478" y="229.6211"/><ellipse cx="493" cy="251.9121" fill="#ADD1B2" rx="11" ry="11" style="stroke:#181818;stroke-width:1.0;"/><path d="M495.7656,247.7871 Q495.9219,247.5684 496.1094,247.459 Q496.2969,247.3496 496.5156,247.3496 Q496.8906,247.3496 497.125,247.6152 Q497.3594,247.8652 497.3594,248.4746 L497.3594,249.9277 Q497.3594,250.5371 497.125,250.8027 Q496.8906,251.0684 496.5156,251.0684 Q496.1719,251.0684 495.9688,250.8652 Q495.7656,250.6777 495.6563,250.1621 Q495.6094,249.8027 495.4219,249.6152 Q495.0938,249.2402 494.4844,249.0215 Q493.875,248.8027 493.25,248.8027 Q492.4844,248.8027 491.8438,249.1309 Q491.2188,249.459 490.7188,250.209 Q490.2344,250.959 490.2344,251.9902 L490.2344,253.084 Q490.2344,254.3184 491.125,255.1465 Q492.0156,255.959 493.6094,255.959 Q494.5469,255.959 495.2031,255.709 Q495.5938,255.5527 496.0156,255.1152 Q496.2813,254.8496 496.4219,254.7715 Q496.5781,254.6934 496.7813,254.6934 Q497.1094,254.6934 497.3594,254.959 Q497.625,255.209 497.625,255.5527 Q497.625,255.8965 497.2813,256.3027 Q496.7813,256.8809 495.9844,257.209 Q494.9063,257.6621 493.6094,257.6621 Q492.0938,257.6621 490.8906,257.0371 Q489.9063,256.5371 489.2188,255.4746 Q488.5313,254.3965 488.5313,253.1152 L488.5313,251.959 Q488.5313,250.6309 489.1406,249.4902 Q489.7656,248.334 490.8594,247.7246 Q491.9531,247.0996 493.1875,247.0996 Q493.9219,247.0996 494.5625,247.2715 Q495.2188,247.4277 495.7656,247.7871 Z " fill="#000000"/><text fill="#000000" font-family="sans-serif" font-size="12" font-style="italic" lengthAdjust="spacing" textLength="85" x="512.5" y="247.5703">&#171;Value Object&#187;</text><text fill="#000000" font-family="sans-serif" font-size="14" lengthAdjust="spacing" textLength="96" x="507" y="265.6895">ApplicatonData</text><line style="stroke:#181818;stroke-width:0.5;" x1="479" x2="605" y1="274.2031" y2="274.2031"/><line style="stroke:#181818;stroke-width:0.5;" x1="479" x2="605" y1="282.2031" y2="282.2031"/></g><!--class ApplicationStatus--><g id="elem_ApplicationStatus"><rect codeLine="39" fill="#F1F1F1" height="60.582" id="ApplicationStatus" rx="2.5" ry="2.5" style="stroke:#181818;stroke-width:0.5;" width="141" x="641.5" y="229.6211"/><ellipse cx="656.5" cy="251.9121" fill="#ADD1B2" rx="11" ry="11" style="stroke:#181818;stroke-width:1.0;"/><path d="M659.2656,247.7871 Q659.4219,247.5684 659.6094,247.459 Q659.7969,247.3496 660.0156,247.3496 Q660.3906,247.3496 660.625,247.6152 Q660.8594,247.8652 660.8594,248.4746 L660.8594,249.9277 Q660.8594,250.5371 660.625,250.8027 Q660.3906,251.0684 660.0156,251.0684 Q659.6719,251.0684 659.4688,250.8652 Q659.2656,250.6777 659.1563,250.1621 Q659.1094,249.8027 658.9219,249.6152 Q658.5938,249.2402 657.9844,249.0215 Q657.375,248.8027 656.75,248.8027 Q655.9844,248.8027 655.3438,249.1309 Q654.7188,249.459 654.2188,250.209 Q653.7344,250.959 653.7344,251.9902 L653.7344,253.084 Q653.7344,254.3184 654.625,255.1465 Q655.5156,255.959 657.1094,255.959 Q658.0469,255.959 658.7031,255.709 Q659.0938,255.5527 659.5156,255.1152 Q659.7813,254.8496 659.9219,254.7715 Q660.0781,254.6934 660.2813,254.6934 Q660.6094,254.6934 660.8594,254.959 Q661.125,255.209 661.125,255.5527 Q661.125,255.8965 660.7813,256.3027 Q660.2813,256.8809 659.4844,257.209 Q658.4063,257.6621 657.1094,257.6621 Q655.5938,257.6621 654.3906,257.0371 Q653.4063,256.5371 652.7188,255.4746 Q652.0313,254.3965 652.0313,253.1152 L652.0313,251.959 Q652.0313,250.6309 652.6406,249.4902 Q653.2656,248.334 654.3594,247.7246 Q655.4531,247.0996 656.6875,247.0996 Q657.4219,247.0996 658.0625,247.2715 Q658.7188,247.4277 659.2656,247.7871 Z " fill="#000000"/><text fill="#000000" font-family="sans-serif" font-size="12" font-style="italic" lengthAdjust="spacing" textLength="85" x="682.5" y="247.5703">&#171;Value Object&#187;</text><text fill="#000000" font-family="sans-serif" font-size="14" lengthAdjust="spacing" textLength="109" x="670.5" y="265.6895">ApplicationStatus</text><line style="stroke:#181818;stroke-width:0.5;" x1="642.5" x2="781.5" y1="274.2031" y2="274.2031"/><line style="stroke:#181818;stroke-width:0.5;" x1="642.5" x2="781.5" y1="282.2031" y2="282.2031"/></g><!--class Candidate--><g id="elem_Candidate"><rect fill="#F1F1F1" height="48" id="Candidate" rx="2.5" ry="2.5" style="stroke:#181818;stroke-width:0.5;" width="97" x="815.5" y="98.1211"/><ellipse cx="830.5" cy="114.1211" fill="#ADD1B2" rx="11" ry="11" style="stroke:#181818;stroke-width:1.0;"/><path d="M833.2656,109.9961 Q833.4219,109.7773 833.6094,109.668 Q833.7969,109.5586 834.0156,109.5586 Q834.3906,109.5586 834.625,109.8242 Q834.8594,110.0742 834.8594,110.6836 L834.8594,112.1367 Q834.8594,112.7461 834.625,113.0117 Q834.3906,113.2773 834.0156,113.2773 Q833.6719,113.2773 833.4688,113.0742 Q833.2656,112.8867 833.1563,112.3711 Q833.1094,112.0117 832.9219,111.8242 Q832.5938,111.4492 831.9844,111.2305 Q831.375,111.0117 830.75,111.0117 Q829.9844,111.0117 829.3438,111.3398 Q828.7188,111.668 828.2188,112.418 Q827.7344,113.168 827.7344,114.1992 L827.7344,115.293 Q827.7344,116.5273 828.625,117.3555 Q829.5156,118.168 831.1094,118.168 Q832.0469,118.168 832.7031,117.918 Q833.0938,117.7617 833.5156,117.3242 Q833.7813,117.0586 833.9219,116.9805 Q834.0781,116.9023 834.2813,116.9023 Q834.6094,116.9023 834.8594,117.168 Q835.125,117.418 835.125,117.7617 Q835.125,118.1055 834.7813,118.5117 Q834.2813,119.0898 833.4844,119.418 Q832.4063,119.8711 831.1094,119.8711 Q829.5938,119.8711 828.3906,119.2461 Q827.4063,118.7461 826.7188,117.6836 Q826.0313,116.6055 826.0313,115.3242 L826.0313,114.168 Q826.0313,112.8398 826.6406,111.6992 Q827.2656,110.543 828.3594,109.9336 Q829.4531,109.3086 830.6875,109.3086 Q831.4219,109.3086 832.0625,109.4805 Q832.7188,109.6367 833.2656,109.9961 Z " fill="#000000"/><text fill="#000000" font-family="sans-serif" font-size="14" lengthAdjust="spacing" textLength="65" x="844.5" y="119.918">Candidate</text><line style="stroke:#181818;stroke-width:0.5;" x1="816.5" x2="911.5" y1="130.1211" y2="130.1211"/><line style="stroke:#181818;stroke-width:0.5;" x1="816.5" x2="911.5" y1="138.1211" y2="138.1211"/></g><!--link Application to ApplicationId--><g id="link_Application_ApplicationId"><path codeLine="46" d="M477.85,134.8911 C399.82,150.2211 264.78,180.0711 154,221.6211 C148.34,223.7411 148.009,223.7134 142.269,226.3034 " fill="none" id="Application-to-ApplicationId" style="stroke:#181818;stroke-width:1.0;"/><polygon fill="#181818" points="136.8,228.7711,146.6487,228.7155,141.3575,226.7146,143.3584,221.4235,136.8,228.7711" style="stroke:#181818;stroke-width:1.0;"/><text fill="#000000" font-family="sans-serif" font-size="13" lengthAdjust="spacing" textLength="7" x="463.028" y="132.4564">1</text><text fill="#000000" font-family="sans-serif" font-size="13" lengthAdjust="spacing" textLength="7" x="144.5259" y="220.7416">1</text></g><!--link Application to AttachedEmail--><g id="link_Application_AttachedEmail"><path codeLine="47" d="M477.76,149.8511 C431.48,169.3011 367.63,196.5211 312,221.6211 C306.19,224.2411 305.5985,224.4767 299.5685,227.2867 " fill="none" id="Application-to-AttachedEmail" style="stroke:#181818;stroke-width:1.0;"/><polygon fill="#181818" points="294.13,229.8211,303.9773,229.6452,298.6621,227.7091,300.5982,222.3939,294.13,229.8211" style="stroke:#181818;stroke-width:1.0;"/><text fill="#000000" font-family="sans-serif" font-size="13" lengthAdjust="spacing" textLength="7" x="462.9276" y="168.1118">1</text><text fill="#000000" font-family="sans-serif" font-size="13" lengthAdjust="spacing" textLength="7" x="302.0068" y="222.1639">1</text></g><!--link Application to AttachedFile--><g id="link_Application_AttachedFile"><path codeLine="48" d="M498.96,160.6411 C474.07,182.3411 447.7125,205.3181 424.5325,225.5281 " fill="none" id="Application-to-AttachedFile" style="stroke:#181818;stroke-width:1.0;"/><polygon fill="#181818" points="420.01,229.4711,429.4224,226.5716,423.7787,226.1853,424.165,220.5416,420.01,229.4711" style="stroke:#181818;stroke-width:1.0;"/><text fill="#000000" font-family="sans-serif" font-size="13" lengthAdjust="spacing" textLength="7" x="484.5427" y="182.2228">1</text><text fill="#000000" font-family="sans-serif" font-size="13" lengthAdjust="spacing" textLength="7" x="419.3027" y="218.4978">1</text></g><!--link Application to JobOpening--><g id="link_Application_JobOpening"><path codeLine="49" d="M606.16,125.3411 C692.66,132.1511 836,158.5911 836,259.1211 C836,259.1211 836,259.1211 836,504.1211 C836,568.9011 903.7287,603.5816 960.2387,622.1116 " fill="none" id="Application-to-JobOpening" style="stroke:#181818;stroke-width:1.0;"/><polygon fill="#181818" points="965.94,623.9811,958.6344,617.376,961.1889,622.4232,956.1417,624.9777,965.94,623.9811" style="stroke:#181818;stroke-width:1.0;"/><text fill="#000000" font-family="sans-serif" font-size="13" lengthAdjust="spacing" textLength="75" x="837" y="376.6494">submitted for</text><text fill="#000000" font-family="sans-serif" font-size="13" lengthAdjust="spacing" textLength="5" x="613.8676" y="140.7678">*</text><text fill="#000000" font-family="sans-serif" font-size="13" lengthAdjust="spacing" textLength="7" x="951.1284" y="618.088">1</text></g><!--link Application to Candidate--><g id="link_Application_Candidate"><path codeLine="50" d="M606,122.1211 C667.63,122.1211 753.48,122.1211 809.35,122.1211 " fill="none" id="Application-to-Candidate" style="stroke:#181818;stroke-width:1.0;"/><polygon fill="#181818" points="815.35,122.1211,806.35,118.1211,810.35,122.1211,806.35,126.1211,815.35,122.1211" style="stroke:#181818;stroke-width:1.0;"/><text fill="#000000" font-family="sans-serif" font-size="13" lengthAdjust="spacing" textLength="75" x="673.25" y="115.1494">submitted by</text><text fill="#000000" font-family="sans-serif" font-size="13" lengthAdjust="spacing" textLength="5" x="614.1047" y="118.1591">*</text><text fill="#000000" font-family="sans-serif" font-size="13" lengthAdjust="spacing" textLength="7" x="800.3645" y="117.8701">1</text></g><!--link Application to ApplicationStatus--><g id="link_Application_ApplicationStatus"><path codeLine="51" d="M588.9,160.6411 C616.03,182.3411 644.995,205.5127 670.255,225.7227 " fill="none" id="Application-to-ApplicationStatus" style="stroke:#181818;stroke-width:1.0;"/><polygon fill="#181818" points="674.94,229.4711,670.4114,220.7251,671.0358,226.3474,665.4135,226.9719,674.94,229.4711" style="stroke:#181818;stroke-width:1.0;"/><text fill="#000000" font-family="sans-serif" font-size="13" lengthAdjust="spacing" textLength="7" x="588.8169" y="182.2228">1</text><text fill="#000000" font-family="sans-serif" font-size="13" lengthAdjust="spacing" textLength="7" x="659.5745" y="218.4978">1</text></g><!--link Application to ApplicatonData--><g id="link_Application_ApplicatonData"><path codeLine="52" d="M542,160.6411 C542,182.3411 542,203.2611 542,223.4711 " fill="none" id="Application-to-ApplicatonData" style="stroke:#181818;stroke-width:1.0;"/><polygon fill="#181818" points="542,229.4711,546,220.4711,542,224.4711,538,220.4711,542,229.4711" style="stroke:#181818;stroke-width:1.0;"/><text fill="#000000" font-family="sans-serif" font-size="13" lengthAdjust="spacing" textLength="7" x="534.4422" y="182.2228">1</text><text fill="#000000" font-family="sans-serif" font-size="13" lengthAdjust="spacing" textLength="7" x="534.2781" y="218.4978">1</text></g><!--link JobOpening to JobReference--><g id="link_JobOpening_JobReference"><path codeLine="55" d="M970.13,679.6411 C939.9,698.5911 908.3944,718.3354 878.1344,737.2954 " fill="none" id="JobOpening-to-JobReference" style="stroke:#181818;stroke-width:1.0;"/><polygon fill="#181818" points="873.05,740.4811,882.8004,739.0921,877.287,737.8263,878.5528,732.3129,873.05,740.4811" style="stroke:#181818;stroke-width:1.0;"/><text fill="#000000" font-family="sans-serif" font-size="13" lengthAdjust="spacing" textLength="7" x="953.0304" y="701.2228">1</text><text fill="#000000" font-family="sans-serif" font-size="13" lengthAdjust="spacing" textLength="7" x="875.7695" y="729.4715">1</text></g><!--link JobOpening to TitleOrFunction--><g id="link_JobOpening_TitleOrFunction"><path codeLine="56" d="M1014.27,679.6411 C1005.18,701.3411 996.2192,722.7274 987.7492,742.9374 " fill="none" id="JobOpening-to-TitleOrFunction" style="stroke:#181818;stroke-width:1.0;"/><polygon fill="#181818" points="985.43,748.4711,992.5979,741.7167,987.3626,743.8597,985.2196,738.6245,985.43,748.4711" style="stroke:#181818;stroke-width:1.0;"/><text fill="#000000" font-family="sans-serif" font-size="13" lengthAdjust="spacing" textLength="7" x="1004.2052" y="701.2228">1</text><text fill="#000000" font-family="sans-serif" font-size="13" lengthAdjust="spacing" textLength="7" x="980.2718" y="737.4978">1</text></g><!--reverse link ContractType to JobOpening--><g id="link_ContractType_JobOpening"><path codeLine="57" d="M1180.8992,544.6684 C1150.9392,563.6184 1119.69,583.3811 1089.65,602.3911 " fill="none" id="ContractType-backto-JobOpening" style="stroke:#181818;stroke-width:1.0;"/><polygon fill="#181818" points="1185.97,541.4611,1176.2256,542.8916,1181.7443,544.1339,1180.502,549.6526,1185.97,541.4611" style="stroke:#181818;stroke-width:1.0;"/><text fill="#000000" font-family="sans-serif" font-size="13" lengthAdjust="spacing" textLength="7" x="1170.9583" y="542.3606">1</text><text fill="#000000" font-family="sans-serif" font-size="13" lengthAdjust="spacing" textLength="7" x="1092.3008" y="591.366">1</text></g><!--reverse link Mode to JobOpening--><g id="link_Mode_JobOpening"><path codeLine="58" d="M1073.7852,547.07 C1064.9052,565.94 1056.72,583.3311 1047.82,602.2511 " fill="none" id="Mode-backto-JobOpening" style="stroke:#181818;stroke-width:1.0;"/><polygon fill="#181818" points="1076.34,541.6411,1068.8886,548.0813,1074.211,546.1652,1076.1271,551.4877,1076.34,541.6411" style="stroke:#181818;stroke-width:1.0;"/><text fill="#000000" font-family="sans-serif" font-size="13" lengthAdjust="spacing" textLength="7" x="1065.9676" y="563.2228">1</text><text fill="#000000" font-family="sans-serif" font-size="13" lengthAdjust="spacing" textLength="7" x="1043.1918" y="591.4957">1</text></g><!--link JobOpening to Description--><g id="link_JobOpening_Description"><path codeLine="59" d="M1094.07,672.1111 C1135.07,691.4111 1189.31,717.2011 1237,740.6211 C1242.56,743.3511 1242.9753,743.5341 1248.7453,746.4241 " fill="none" id="JobOpening-to-Description" style="stroke:#181818;stroke-width:1.0;"/><polygon fill="#181818" points="1254.11,749.1111,1247.8543,741.5041,1249.6394,746.8719,1244.2716,748.6571,1254.11,749.1111" style="stroke:#181818;stroke-width:1.0;"/><text fill="#000000" font-family="sans-serif" font-size="13" lengthAdjust="spacing" textLength="7" x="1101.8828" y="671.7831">1</text><text fill="#000000" font-family="sans-serif" font-size="13" lengthAdjust="spacing" textLength="7" x="1239.3725" y="741.2507">1</text></g><!--link JobOpening to VacanciesNumber--><g id="link_JobOpening_VacanciesNumber"><path codeLine="60" d="M1062,679.6411 C1080.51,701.3411 1099.5874,723.6952 1116.8174,743.9052 " fill="none" id="JobOpening-to-VacanciesNumber" style="stroke:#181818;stroke-width:1.0;"/><polygon fill="#181818" points="1120.71,748.4711,1117.915,739.0272,1117.4661,744.6662,1111.8271,744.2174,1120.71,748.4711" style="stroke:#181818;stroke-width:1.0;"/><text fill="#000000" font-family="sans-serif" font-size="13" lengthAdjust="spacing" textLength="7" x="1059.5422" y="701.2228">1</text><text fill="#000000" font-family="sans-serif" font-size="13" lengthAdjust="spacing" textLength="7" x="1107.7721" y="737.4978">1</text></g><!--reverse link Phase to JobOpening--><g id="link_Phase_JobOpening"><path codeLine="61" d="M967.3826,538.7361 C979.8326,558.8961 993.28,580.6711 1006.69,602.3811 " fill="none" id="Phase-backto-JobOpening" style="stroke:#181818;stroke-width:1.0;"/><polygon fill="#181818" points="964.23,533.6311,965.5556,543.3903,966.8572,537.8853,972.3623,539.1868,964.23,533.6311" style="stroke:#181818;stroke-width:1.0;"/><text fill="#000000" font-family="sans-serif" font-size="13" lengthAdjust="spacing" textLength="7" x="960.0379" y="555.1633">1</text><text fill="#000000" font-family="sans-serif" font-size="13" lengthAdjust="spacing" textLength="7" x="995.082" y="591.3543">1</text></g><!--SRC=[ZPDHQzim58NV_IiksKDXO5ZsE8GXD2raq6MqMT-lf1j7GvQCVBrYolxxf3YZZXitzeiVz1txt7jqTeOj0VnwMdxvkeGSrgQfBNQ0rW8V23GoWjy3Ei2wjaOX6- -oB91YT6NKBhvx2TkQd77b0Zv9gHGYl6OPn4TPR1g8n0aGObMMWKfaWaVlkIY4k7Dik2kArxyZpIFjAP1J9CH6quaIuXbjIx2LlwE5iMgNnjc6-zQfv7CA9jTMSEiT1rIywsfABjgAGlIbh_tZmUiP_43mZ0gTCjJyQ2j9uUElhwbHmTGVkU_1dmTi22um2RcvUS1E4fGUsCF6COK_XbwEtcsM9N-N4uJLMyenJKIbf3nFSq3CZtCWskZvUQwOKHr8trLex3pqtbYwGfwyUBUEjtiU6tq_CNBRNCpwkD412elb0lAyEBxFHf-cXfDUfTAGvz3d1EN_kRV6mJTeMbaPZZSLzZwyL_MAMtJQw1JaK22xEMFrcxbAzlkEonfs-qY8lAtpaV5irELfS5Za4_MEIHT_wcnGkUcVZ4ey3VQzx8-rVt5Zu1y0]--></g></svg>