<?xml version="1.0" encoding="us-ascii" standalone="no"?><svg xmlns="http://www.w3.org/2000/svg" xmlns:xlink="http://www.w3.org/1999/xlink" contentStyleType="text/css" height="824px" preserveAspectRatio="none" style="width:1238px;height:824px;background:#FFFFFF;" version="1.1" viewBox="0 0 1238 824" width="1238px" zoomAndPan="magnify"><defs/><g><text fill="#000000" font-family="sans-serif" font-size="14" font-weight="bold" lengthAdjust="spacing" textLength="319" x="458.75" y="30.1074">US 1021 - Display all the data of an application</text><rect fill="#FFFFFF" height="599.5293" style="stroke:#181818;stroke-width:1.0;" width="10" x="78.5" y="133.2422"/><rect fill="#FFFFFF" height="156.4551" style="stroke:#181818;stroke-width:1.0;" width="10" x="488.5" y="156.5332"/><rect fill="#FFFFFF" height="387.4922" style="stroke:#181818;stroke-width:1.0;" width="10" x="488.5" y="344.2793"/><rect fill="#FFFFFF" height="93.873" style="stroke:#181818;stroke-width:1.0;" width="10" x="763.5" y="187.8242"/><rect fill="#FFFFFF" height="93.873" style="stroke:#181818;stroke-width:1.0;" width="10" x="763.5" y="375.5703"/><rect fill="#FFFFFF" height="31.291" style="stroke:#181818;stroke-width:1.0;" width="10" x="763.5" y="620.8984"/><rect fill="#FFFFFF" height="31.291" style="stroke:#181818;stroke-width:1.0;" width="10" x="981.5" y="219.1152"/><rect fill="#FFFFFF" height="31.291" style="stroke:#181818;stroke-width:1.0;" width="10" x="1150" y="406.8613"/><rect fill="none" height="177.7461" style="stroke:#000000;stroke-width:1.5;" width="895.5" x="10" y="547.0254"/><line style="stroke:#181818;stroke-width:0.5;stroke-dasharray:5.0,5.0;" x1="83" x2="83" y1="123.2422" y2="741.7715"/><line style="stroke:#181818;stroke-width:0.5;stroke-dasharray:5.0,5.0;" x1="493.5" x2="493.5" y1="123.2422" y2="741.7715"/><line style="stroke:#181818;stroke-width:0.5;stroke-dasharray:5.0,5.0;" x1="768.5" x2="768.5" y1="123.2422" y2="741.7715"/><line style="stroke:#181818;stroke-width:0.5;stroke-dasharray:5.0,5.0;" x1="986.5" x2="986.5" y1="123.2422" y2="741.7715"/><line style="stroke:#181818;stroke-width:0.5;stroke-dasharray:5.0,5.0;" x1="1154.5" x2="1154.5" y1="123.2422" y2="741.7715"/><text fill="#000000" font-family="sans-serif" font-size="14" lengthAdjust="spacing" textLength="121" x="20" y="119.7285">Customer Manager</text><ellipse cx="83.5" cy="53.1211" fill="#E2E2F0" rx="8" ry="8" style="stroke:#181818;stroke-width:0.5;"/><path d="M83.5,61.1211 L83.5,88.1211 M70.5,69.1211 L96.5,69.1211 M83.5,88.1211 L70.5,103.1211 M83.5,88.1211 L96.5,103.1211 " fill="none" style="stroke:#181818;stroke-width:0.5;"/><text fill="#000000" font-family="sans-serif" font-size="14" lengthAdjust="spacing" textLength="121" x="20" y="755.8789">Customer Manager</text><ellipse cx="83.5" cy="767.8926" fill="#E2E2F0" rx="8" ry="8" style="stroke:#181818;stroke-width:0.5;"/><path d="M83.5,775.8926 L83.5,802.8926 M70.5,783.8926 L96.5,783.8926 M83.5,802.8926 L70.5,817.8926 M83.5,802.8926 L96.5,817.8926 " fill="none" style="stroke:#181818;stroke-width:0.5;"/><rect fill="#E2E2F0" height="51.2422" rx="2.5" ry="2.5" style="stroke:#181818;stroke-width:0.5;" width="204" x="391.5" y="71"/><text fill="#000000" font-family="sans-serif" font-size="14" font-style="italic" lengthAdjust="spacing" textLength="30" x="478.5" y="93.1074">&#171;UI&#187;</text><text fill="#000000" font-family="sans-serif" font-size="14" lengthAdjust="spacing" textLength="190" x="398.5" y="111.7285">:ListJobOpeningApplicationsUI</text><rect fill="#E2E2F0" height="51.2422" rx="2.5" ry="2.5" style="stroke:#181818;stroke-width:0.5;" width="204" x="391.5" y="740.7715"/><text fill="#000000" font-family="sans-serif" font-size="14" font-style="italic" lengthAdjust="spacing" textLength="30" x="478.5" y="762.8789">&#171;UI&#187;</text><text fill="#000000" font-family="sans-serif" font-size="14" lengthAdjust="spacing" textLength="190" x="398.5" y="781.5">:ListJobOpeningApplicationsUI</text><rect fill="#E2E2F0" height="51.2422" rx="2.5" ry="2.5" style="stroke:#181818;stroke-width:0.5;" width="254" x="641.5" y="71"/><text fill="#000000" font-family="sans-serif" font-size="14" font-style="italic" lengthAdjust="spacing" textLength="78" x="729.5" y="93.1074">&#171;Controller&#187;</text><text fill="#000000" font-family="sans-serif" font-size="14" lengthAdjust="spacing" textLength="240" x="648.5" y="111.7285">:ListJobOpeningApplicationsController</text><rect fill="#E2E2F0" height="51.2422" rx="2.5" ry="2.5" style="stroke:#181818;stroke-width:0.5;" width="254" x="641.5" y="740.7715"/><text fill="#000000" font-family="sans-serif" font-size="14" font-style="italic" lengthAdjust="spacing" textLength="78" x="729.5" y="762.8789">&#171;Controller&#187;</text><text fill="#000000" font-family="sans-serif" font-size="14" lengthAdjust="spacing" textLength="240" x="648.5" y="781.5">:ListJobOpeningApplicationsController</text><rect fill="#E2E2F0" height="51.2422" rx="2.5" ry="2.5" style="stroke:#181818;stroke-width:0.5;" width="162" x="905.5" y="71"/><text fill="#000000" font-family="sans-serif" font-size="14" font-style="italic" lengthAdjust="spacing" textLength="90" x="941.5" y="93.1074">&#171;Persistence&#187;</text><text fill="#000000" font-family="sans-serif" font-size="14" lengthAdjust="spacing" textLength="148" x="912.5" y="111.7285">:JobOpeningRepository</text><rect fill="#E2E2F0" height="51.2422" rx="2.5" ry="2.5" style="stroke:#181818;stroke-width:0.5;" width="162" x="905.5" y="740.7715"/><text fill="#000000" font-family="sans-serif" font-size="14" font-style="italic" lengthAdjust="spacing" textLength="90" x="941.5" y="762.8789">&#171;Persistence&#187;</text><text fill="#000000" font-family="sans-serif" font-size="14" lengthAdjust="spacing" textLength="148" x="912.5" y="781.5">:JobOpeningRepository</text><rect fill="#E2E2F0" height="51.2422" rx="2.5" ry="2.5" style="stroke:#181818;stroke-width:0.5;" width="155" x="1077.5" y="71"/><text fill="#000000" font-family="sans-serif" font-size="14" font-style="italic" lengthAdjust="spacing" textLength="90" x="1110" y="93.1074">&#171;Persistence&#187;</text><text fill="#000000" font-family="sans-serif" font-size="14" lengthAdjust="spacing" textLength="141" x="1084.5" y="111.7285">:ApplicationRepository</text><rect fill="#E2E2F0" height="51.2422" rx="2.5" ry="2.5" style="stroke:#181818;stroke-width:0.5;" width="155" x="1077.5" y="740.7715"/><text fill="#000000" font-family="sans-serif" font-size="14" font-style="italic" lengthAdjust="spacing" textLength="90" x="1110" y="762.8789">&#171;Persistence&#187;</text><text fill="#000000" font-family="sans-serif" font-size="14" lengthAdjust="spacing" textLength="141" x="1084.5" y="781.5">:ApplicationRepository</text><rect fill="#FFFFFF" height="599.5293" style="stroke:#181818;stroke-width:1.0;" width="10" x="78.5" y="133.2422"/><rect fill="#FFFFFF" height="156.4551" style="stroke:#181818;stroke-width:1.0;" width="10" x="488.5" y="156.5332"/><rect fill="#FFFFFF" height="387.4922" style="stroke:#181818;stroke-width:1.0;" width="10" x="488.5" y="344.2793"/><rect fill="#FFFFFF" height="93.873" style="stroke:#181818;stroke-width:1.0;" width="10" x="763.5" y="187.8242"/><rect fill="#FFFFFF" height="93.873" style="stroke:#181818;stroke-width:1.0;" width="10" x="763.5" y="375.5703"/><rect fill="#FFFFFF" height="31.291" style="stroke:#181818;stroke-width:1.0;" width="10" x="763.5" y="620.8984"/><rect fill="#FFFFFF" height="31.291" style="stroke:#181818;stroke-width:1.0;" width="10" x="981.5" y="219.1152"/><rect fill="#FFFFFF" height="31.291" style="stroke:#181818;stroke-width:1.0;" width="10" x="1150" y="406.8613"/><polygon fill="#181818" points="476.5,152.5332,486.5,156.5332,476.5,160.5332,480.5,156.5332" style="stroke:#181818;stroke-width:1.0;"/><line style="stroke:#181818;stroke-width:1.0;" x1="88.5" x2="482.5" y1="156.5332" y2="156.5332"/><text fill="#000000" font-family="sans-serif" font-size="13" lengthAdjust="spacing" textLength="207" x="95.5" y="151.2705">asks to list job opening applications</text><polygon fill="#181818" points="751.5,183.8242,761.5,187.8242,751.5,191.8242,755.5,187.8242" style="stroke:#181818;stroke-width:1.0;"/><line style="stroke:#181818;stroke-width:1.0;" x1="498.5" x2="757.5" y1="187.8242" y2="187.8242"/><text fill="#000000" font-family="sans-serif" font-size="13" lengthAdjust="spacing" textLength="98" x="505.5" y="182.5615">AllJobOpenings()</text><polygon fill="#181818" points="969.5,215.1152,979.5,219.1152,969.5,223.1152,973.5,219.1152" style="stroke:#181818;stroke-width:1.0;"/><line style="stroke:#181818;stroke-width:1.0;" x1="773.5" x2="975.5" y1="219.1152" y2="219.1152"/><text fill="#000000" font-family="sans-serif" font-size="13" lengthAdjust="spacing" textLength="98" x="780.5" y="213.8525">AllJobOpenings()</text><polygon fill="#181818" points="784.5,246.4063,774.5,250.4063,784.5,254.4063,780.5,250.4063" style="stroke:#181818;stroke-width:1.0;"/><line style="stroke:#181818;stroke-width:1.0;stroke-dasharray:2.0,2.0;" x1="778.5" x2="985.5" y1="250.4063" y2="250.4063"/><text fill="#000000" font-family="sans-serif" font-size="13" lengthAdjust="spacing" textLength="72" x="790.5" y="245.1436">jobOpenings</text><polygon fill="#181818" points="509.5,277.6973,499.5,281.6973,509.5,285.6973,505.5,281.6973" style="stroke:#181818;stroke-width:1.0;"/><line style="stroke:#181818;stroke-width:1.0;stroke-dasharray:2.0,2.0;" x1="503.5" x2="767.5" y1="281.6973" y2="281.6973"/><text fill="#000000" font-family="sans-serif" font-size="13" lengthAdjust="spacing" textLength="72" x="515.5" y="276.4346">jobOpenings</text><polygon fill="#181818" points="99.5,308.9883,89.5,312.9883,99.5,316.9883,95.5,312.9883" style="stroke:#181818;stroke-width:1.0;"/><line style="stroke:#181818;stroke-width:1.0;stroke-dasharray:2.0,2.0;" x1="93.5" x2="492.5" y1="312.9883" y2="312.9883"/><text fill="#000000" font-family="sans-serif" font-size="13" lengthAdjust="spacing" textLength="286" x="105.5" y="307.7256">show list of job references and asks to select one</text><polygon fill="#181818" points="476.5,340.2793,486.5,344.2793,476.5,348.2793,480.5,344.2793" style="stroke:#181818;stroke-width:1.0;"/><line style="stroke:#181818;stroke-width:1.0;" x1="88.5" x2="482.5" y1="344.2793" y2="344.2793"/><text fill="#000000" font-family="sans-serif" font-size="13" lengthAdjust="spacing" textLength="120" x="95.5" y="339.0166">selects job reference</text><polygon fill="#181818" points="751.5,371.5703,761.5,375.5703,751.5,379.5703,755.5,375.5703" style="stroke:#181818;stroke-width:1.0;"/><line style="stroke:#181818;stroke-width:1.0;" x1="498.5" x2="757.5" y1="375.5703" y2="375.5703"/><text fill="#000000" font-family="sans-serif" font-size="13" lengthAdjust="spacing" textLength="246" x="505.5" y="370.3076">AllApplicationsForJobOpening(jobOpening)</text><polygon fill="#181818" points="1138,402.8613,1148,406.8613,1138,410.8613,1142,406.8613" style="stroke:#181818;stroke-width:1.0;"/><line style="stroke:#181818;stroke-width:1.0;" x1="773.5" x2="1144" y1="406.8613" y2="406.8613"/><text fill="#000000" font-family="sans-serif" font-size="13" lengthAdjust="spacing" textLength="243" x="780.5" y="401.5986">AllApplicationsByJobOpening(jobOpening)</text><polygon fill="#181818" points="784.5,434.1523,774.5,438.1523,784.5,442.1523,780.5,438.1523" style="stroke:#181818;stroke-width:1.0;"/><line style="stroke:#181818;stroke-width:1.0;stroke-dasharray:2.0,2.0;" x1="778.5" x2="1154" y1="438.1523" y2="438.1523"/><text fill="#000000" font-family="sans-serif" font-size="13" lengthAdjust="spacing" textLength="69" x="790.5" y="432.8896">applications</text><polygon fill="#181818" points="509.5,465.4434,499.5,469.4434,509.5,473.4434,505.5,469.4434" style="stroke:#181818;stroke-width:1.0;"/><line style="stroke:#181818;stroke-width:1.0;stroke-dasharray:2.0,2.0;" x1="503.5" x2="767.5" y1="469.4434" y2="469.4434"/><text fill="#000000" font-family="sans-serif" font-size="13" lengthAdjust="spacing" textLength="69" x="515.5" y="464.1807">applications</text><polygon fill="#181818" points="99.5,496.7344,89.5,500.7344,99.5,504.7344,95.5,500.7344" style="stroke:#181818;stroke-width:1.0;"/><line style="stroke:#181818;stroke-width:1.0;stroke-dasharray:2.0,2.0;" x1="93.5" x2="487.5" y1="500.7344" y2="500.7344"/><text fill="#000000" font-family="sans-serif" font-size="13" lengthAdjust="spacing" textLength="138" x="105.5" y="495.4717">show list of applications</text><polygon fill="#181818" points="99.5,528.0254,89.5,532.0254,99.5,536.0254,95.5,532.0254" style="stroke:#181818;stroke-width:1.0;"/><line style="stroke:#181818;stroke-width:1.0;stroke-dasharray:2.0,2.0;" x1="93.5" x2="487.5" y1="532.0254" y2="532.0254"/><text fill="#000000" font-family="sans-serif" font-size="13" lengthAdjust="spacing" textLength="376" x="105.5" y="526.7627">asks if the user wants to see all data from one of the applications</text><path d="M10,547.0254 L71,547.0254 L71,556.3164 L61,566.3164 L10,566.3164 L10,547.0254 " fill="#EEEEEE" style="stroke:#000000;stroke-width:1.5;"/><rect fill="none" height="177.7461" style="stroke:#000000;stroke-width:1.5;" width="895.5" x="10" y="547.0254"/><text fill="#000000" font-family="sans-serif" font-size="13" font-weight="bold" lengthAdjust="spacing" textLength="16" x="25" y="562.0537">alt</text><text fill="#000000" font-family="sans-serif" font-size="11" font-weight="bold" lengthAdjust="spacing" textLength="339" x="86" y="560.8955">[if the user wants to see all data from one of the applications]</text><polygon fill="#181818" points="476.5,585.6074,486.5,589.6074,476.5,593.6074,480.5,589.6074" style="stroke:#181818;stroke-width:1.0;"/><line style="stroke:#181818;stroke-width:1.0;" x1="88.5" x2="482.5" y1="589.6074" y2="589.6074"/><text fill="#000000" font-family="sans-serif" font-size="13" lengthAdjust="spacing" textLength="126" x="95.5" y="584.3447">selects an application</text><polygon fill="#181818" points="751.5,616.8984,761.5,620.8984,751.5,624.8984,755.5,620.8984" style="stroke:#181818;stroke-width:1.0;"/><line style="stroke:#181818;stroke-width:1.0;" x1="498.5" x2="757.5" y1="620.8984" y2="620.8984"/><text fill="#000000" font-family="sans-serif" font-size="13" lengthAdjust="spacing" textLength="123" x="505.5" y="615.6357">application.get(index)</text><polygon fill="#181818" points="509.5,648.1895,499.5,652.1895,509.5,656.1895,505.5,652.1895" style="stroke:#181818;stroke-width:1.0;"/><line style="stroke:#181818;stroke-width:1.0;stroke-dasharray:2.0,2.0;" x1="503.5" x2="767.5" y1="652.1895" y2="652.1895"/><text fill="#000000" font-family="sans-serif" font-size="13" lengthAdjust="spacing" textLength="62" x="515.5" y="646.9268">application</text><polygon fill="#181818" points="99.5,679.4805,89.5,683.4805,99.5,687.4805,95.5,683.4805" style="stroke:#181818;stroke-width:1.0;"/><line style="stroke:#181818;stroke-width:1.0;stroke-dasharray:2.0,2.0;" x1="93.5" x2="487.5" y1="683.4805" y2="683.4805"/><text fill="#000000" font-family="sans-serif" font-size="13" lengthAdjust="spacing" textLength="366" x="105.5" y="678.2178">display Candidate data and returns to Customer Manager Menu</text><line style="stroke:#000000;stroke-width:1.0;stroke-dasharray:2.0,2.0;" x1="10" x2="905.5" y1="692.4805" y2="692.4805"/><polygon fill="#181818" points="99.5,712.7715,89.5,716.7715,99.5,720.7715,95.5,716.7715" style="stroke:#181818;stroke-width:1.0;"/><line style="stroke:#181818;stroke-width:1.0;stroke-dasharray:2.0,2.0;" x1="93.5" x2="487.5" y1="716.7715" y2="716.7715"/><text fill="#000000" font-family="sans-serif" font-size="13" lengthAdjust="spacing" textLength="212" x="105.5" y="711.5088">returns the Customer Manager Menu</text><!--SRC=[fPJ1Rjim38RlUWeYf-pWeTqn209qAGPuMB5YGnv0jPbKcoePaj8kRpzITYDPTee2pI608V8Z-V-KWWeQOVSRhg- -N4C5jyftMfv0QWtX4Q6LGOBTWpGWkqwhHWPbZH2o2TR1OdlqmJwXWpjfv07T0gI7dKSdH2TTK8tgf0cmMFrGFdot3pyxDCeSRXBAx-e-gORrUbTlDkzEt5eJdDLwg9e-2PG-9i04-uMTzOhcE4L0-YJ0FJfFbT4qE25aJHI8sPC9JKJvrBCCE6Z5_r1jI8GLOVvw21Oq9S0V-m2sxpRNt-U4cl9hpav3hswqJdFwvIS1z3kdf40XCja8aRfUmOGnXgJG_Y0Rk1etmrEyOlhO5YzYydu6HTvApqRX4nQ2ipoNzO_sfPUH5fYLTBX7noPuskVshBH7ZGq56HGPEUgQ-T97-J6eyE6rXV7u96I-jz-iIxekqt2bmBbBXKspUpOfzFLqeSwvn2n7YFarBbqj5ZAJRXuxu-o8CE_gPKT7oQEmQApQnmVio1Q-qCKThCRujCLdRU_i4xlEC0uT0QKE7qLmCzKctvtY5PskIdRw-O1XgKoB_pB3Cc7UblCzQhR3Mx-bow1QZempyTLm68xEn7dB9nxkq1nf8r5x76x8kggu_3c9XBYGXQOLnINx3m00]--></g></svg>