<?xml version="1.0" encoding="us-ascii" standalone="no"?><svg xmlns="http://www.w3.org/2000/svg" xmlns:xlink="http://www.w3.org/1999/xlink" contentStyleType="text/css" height="511px" preserveAspectRatio="none" style="width:542px;height:511px;background:#FFFFFF;" version="1.1" viewBox="0 0 542 511" width="542px" zoomAndPan="magnify"><defs/><g><text fill="#000000" font-family="sans-serif" font-size="14" font-weight="bold" lengthAdjust="spacing" textLength="496" x="24.25" y="30.1074">System Sequence Diagram (SSD) -  Display all the data of an application</text><rect fill="#FFFFFF" height="285.6191" style="stroke:#181818;stroke-width:1.0;" width="10" x="78.5" y="133.2422"/><rect fill="#FFFFFF" height="31.291" style="stroke:#181818;stroke-width:1.0;" width="10" x="488.5" y="156.5332"/><rect fill="#FFFFFF" height="62.582" style="stroke:#181818;stroke-width:1.0;" width="10" x="488.5" y="219.1152"/><rect fill="#FFFFFF" height="80.582" style="stroke:#181818;stroke-width:1.0;" width="10" x="488.5" y="339.2793"/><rect fill="none" height="115.1641" style="stroke:#000000;stroke-width:1.5;" width="525.5" x="10" y="296.6973"/><line style="stroke:#181818;stroke-width:0.5;stroke-dasharray:5.0,5.0;" x1="83" x2="83" y1="123.2422" y2="428.8613"/><line style="stroke:#181818;stroke-width:0.5;stroke-dasharray:5.0,5.0;" x1="493.5" x2="493.5" y1="123.2422" y2="428.8613"/><text fill="#000000" font-family="sans-serif" font-size="14" lengthAdjust="spacing" textLength="121" x="20" y="119.7285">Customer Manager</text><ellipse cx="83.5" cy="53.1211" fill="#E2E2F0" rx="8" ry="8" style="stroke:#181818;stroke-width:0.5;"/><path d="M83.5,61.1211 L83.5,88.1211 M70.5,69.1211 L96.5,69.1211 M83.5,88.1211 L70.5,103.1211 M83.5,88.1211 L96.5,103.1211 " fill="none" style="stroke:#181818;stroke-width:0.5;"/><text fill="#000000" font-family="sans-serif" font-size="14" lengthAdjust="spacing" textLength="121" x="20" y="442.9688">Customer Manager</text><ellipse cx="83.5" cy="454.9824" fill="#E2E2F0" rx="8" ry="8" style="stroke:#181818;stroke-width:0.5;"/><path d="M83.5,462.9824 L83.5,489.9824 M70.5,470.9824 L96.5,470.9824 M83.5,489.9824 L70.5,504.9824 M83.5,489.9824 L96.5,504.9824 " fill="none" style="stroke:#181818;stroke-width:0.5;"/><rect fill="#E2E2F0" height="32.6211" rx="2.5" ry="2.5" style="stroke:#181818;stroke-width:0.5;" width="64" x="461.5" y="89.6211"/><text fill="#000000" font-family="sans-serif" font-size="14" lengthAdjust="spacing" textLength="50" x="468.5" y="111.7285">:System</text><rect fill="#E2E2F0" height="32.6211" rx="2.5" ry="2.5" style="stroke:#181818;stroke-width:0.5;" width="64" x="461.5" y="427.8613"/><text fill="#000000" font-family="sans-serif" font-size="14" lengthAdjust="spacing" textLength="50" x="468.5" y="449.9688">:System</text><rect fill="#FFFFFF" height="285.6191" style="stroke:#181818;stroke-width:1.0;" width="10" x="78.5" y="133.2422"/><rect fill="#FFFFFF" height="31.291" style="stroke:#181818;stroke-width:1.0;" width="10" x="488.5" y="156.5332"/><rect fill="#FFFFFF" height="62.582" style="stroke:#181818;stroke-width:1.0;" width="10" x="488.5" y="219.1152"/><rect fill="#FFFFFF" height="80.582" style="stroke:#181818;stroke-width:1.0;" width="10" x="488.5" y="339.2793"/><polygon fill="#181818" points="476.5,152.5332,486.5,156.5332,476.5,160.5332,480.5,156.5332" style="stroke:#181818;stroke-width:1.0;"/><line style="stroke:#181818;stroke-width:1.0;" x1="88.5" x2="482.5" y1="156.5332" y2="156.5332"/><text fill="#000000" font-family="sans-serif" font-size="13" lengthAdjust="spacing" textLength="207" x="95.5" y="151.2705">asks to list job opening applications</text><polygon fill="#181818" points="99.5,183.8242,89.5,187.8242,99.5,191.8242,95.5,187.8242" style="stroke:#181818;stroke-width:1.0;"/><line style="stroke:#181818;stroke-width:1.0;stroke-dasharray:2.0,2.0;" x1="93.5" x2="492.5" y1="187.8242" y2="187.8242"/><text fill="#000000" font-family="sans-serif" font-size="13" lengthAdjust="spacing" textLength="286" x="105.5" y="182.5615">show list of job references and asks to select one</text><polygon fill="#181818" points="476.5,215.1152,486.5,219.1152,476.5,223.1152,480.5,219.1152" style="stroke:#181818;stroke-width:1.0;"/><line style="stroke:#181818;stroke-width:1.0;" x1="88.5" x2="482.5" y1="219.1152" y2="219.1152"/><text fill="#000000" font-family="sans-serif" font-size="13" lengthAdjust="spacing" textLength="120" x="95.5" y="213.8525">selects job reference</text><polygon fill="#181818" points="99.5,246.4063,89.5,250.4063,99.5,254.4063,95.5,250.4063" style="stroke:#181818;stroke-width:1.0;"/><line style="stroke:#181818;stroke-width:1.0;stroke-dasharray:2.0,2.0;" x1="93.5" x2="487.5" y1="250.4063" y2="250.4063"/><text fill="#000000" font-family="sans-serif" font-size="13" lengthAdjust="spacing" textLength="138" x="105.5" y="245.1436">show list of applications</text><polygon fill="#181818" points="99.5,277.6973,89.5,281.6973,99.5,285.6973,95.5,281.6973" style="stroke:#181818;stroke-width:1.0;"/><line style="stroke:#181818;stroke-width:1.0;stroke-dasharray:2.0,2.0;" x1="93.5" x2="492.5" y1="281.6973" y2="281.6973"/><text fill="#000000" font-family="sans-serif" font-size="13" lengthAdjust="spacing" textLength="376" x="105.5" y="276.4346">asks if the user wants to see all data from one of the applications</text><path d="M10,296.6973 L71,296.6973 L71,305.9883 L61,315.9883 L10,315.9883 L10,296.6973 " fill="#EEEEEE" style="stroke:#000000;stroke-width:1.5;"/><rect fill="none" height="115.1641" style="stroke:#000000;stroke-width:1.5;" width="525.5" x="10" y="296.6973"/><text fill="#000000" font-family="sans-serif" font-size="13" font-weight="bold" lengthAdjust="spacing" textLength="16" x="25" y="311.7256">alt</text><text fill="#000000" font-family="sans-serif" font-size="11" font-weight="bold" lengthAdjust="spacing" textLength="339" x="86" y="310.5674">[if the user wants to see all data from one of the applications]</text><polygon fill="#181818" points="476.5,335.2793,486.5,339.2793,476.5,343.2793,480.5,339.2793" style="stroke:#181818;stroke-width:1.0;"/><line style="stroke:#181818;stroke-width:1.0;" x1="88.5" x2="482.5" y1="339.2793" y2="339.2793"/><text fill="#000000" font-family="sans-serif" font-size="13" lengthAdjust="spacing" textLength="126" x="95.5" y="334.0166">selects an application</text><polygon fill="#181818" points="99.5,366.5703,89.5,370.5703,99.5,374.5703,95.5,370.5703" style="stroke:#181818;stroke-width:1.0;"/><line style="stroke:#181818;stroke-width:1.0;stroke-dasharray:2.0,2.0;" x1="93.5" x2="487.5" y1="370.5703" y2="370.5703"/><text fill="#000000" font-family="sans-serif" font-size="13" lengthAdjust="spacing" textLength="366" x="105.5" y="365.3076">display Candidate data and returns to Customer Manager Menu</text><line style="stroke:#000000;stroke-width:1.0;stroke-dasharray:2.0,2.0;" x1="10" x2="535.5" y1="379.5703" y2="379.5703"/><polygon fill="#181818" points="99.5,399.8613,89.5,403.8613,99.5,407.8613,95.5,403.8613" style="stroke:#181818;stroke-width:1.0;"/><line style="stroke:#181818;stroke-width:1.0;stroke-dasharray:2.0,2.0;" x1="93.5" x2="487.5" y1="403.8613" y2="403.8613"/><text fill="#000000" font-family="sans-serif" font-size="13" lengthAdjust="spacing" textLength="212" x="105.5" y="398.5986">returns the Customer Manager Menu</text><!--SRC=[fP8zRiCm38LtdOB8adR81J8KA9Araq_0ohIZHgPSYMwGsvUIdH-dwG_GoOBr-FJnaSkqTznZn0wwmC7kOkW890vabfUh7kqUMwhaw0aYMK5k_KoHTbY7W-CM6lI9Z14dggsEIQY3Yju7OakmTTXc-KDLRHzX1VeZzHwFWDw3x0Xg58JG039WttjdKLnWOz1AYB3O34aKCC8BiWB51M22vvPOZ7A8iwv75bYinuVBzNWi5ku3XIQzAHzOFPqWrohU9v00tYM1j_0AeIVEFLsXf8lFoNYgNwbLyLnh6k4mkcWhsIXIGp4daBIp-lnG8gzXGc0oDPryxv6DmZJt-fq4Rb1cVTmH5oxNb4aCIMC-Q9eJAPKPbVaqkYGPEbjcwSpskX7qyb-x7yAusP6_f55FwxRHARWwYmj1daaa6I8NkjijWnVYmHZAY_tLz5oewDzLSctCLJBJ2du2]--></g></svg>