<?xml version="1.0" encoding="us-ascii" standalone="no"?><svg xmlns="http://www.w3.org/2000/svg" xmlns:xlink="http://www.w3.org/1999/xlink" contentStyleType="text/css" height="447px" preserveAspectRatio="none" style="width:541px;height:447px;background:#FFFFFF;" version="1.1" viewBox="0 0 541 447" width="541px" zoomAndPan="magnify"><defs/><g><text fill="#000000" font-family="sans-serif" font-size="14" font-weight="bold" lengthAdjust="spacing" textLength="496" x="24.25" y="30.1074">System Sequence Diagram (SSD) -  Display all the data of an application</text><rect fill="#FFFFFF" height="221.0371" style="stroke:#181818;stroke-width:1.0;" width="10" x="78.5" y="133.2422"/><rect fill="#FFFFFF" height="31.291" style="stroke:#181818;stroke-width:1.0;" width="10" x="488.5" y="156.5332"/><rect fill="#FFFFFF" height="31.291" style="stroke:#181818;stroke-width:1.0;" width="10" x="488.5" y="219.1152"/><rect fill="#FFFFFF" height="47.291" style="stroke:#181818;stroke-width:1.0;" width="10" x="488.5" y="307.9883"/><rect fill="none" height="81.873" style="stroke:#000000;stroke-width:1.5;" width="525.5" x="10" y="265.4063"/><line style="stroke:#181818;stroke-width:0.5;stroke-dasharray:5.0,5.0;" x1="83" x2="83" y1="123.2422" y2="364.2793"/><line style="stroke:#181818;stroke-width:0.5;stroke-dasharray:5.0,5.0;" x1="493.5" x2="493.5" y1="123.2422" y2="364.2793"/><text fill="#000000" font-family="sans-serif" font-size="14" lengthAdjust="spacing" textLength="121" x="20" y="119.7285">Customer Manager</text><ellipse cx="83.5" cy="53.1211" fill="#E2E2F0" rx="8" ry="8" style="stroke:#181818;stroke-width:0.5;"/><path d="M83.5,61.1211 L83.5,88.1211 M70.5,69.1211 L96.5,69.1211 M83.5,88.1211 L70.5,103.1211 M83.5,88.1211 L96.5,103.1211 " fill="none" style="stroke:#181818;stroke-width:0.5;"/><text fill="#000000" font-family="sans-serif" font-size="14" lengthAdjust="spacing" textLength="121" x="20" y="378.3867">Customer Manager</text><ellipse cx="83.5" cy="390.4004" fill="#E2E2F0" rx="8" ry="8" style="stroke:#181818;stroke-width:0.5;"/><path d="M83.5,398.4004 L83.5,425.4004 M70.5,406.4004 L96.5,406.4004 M83.5,425.4004 L70.5,440.4004 M83.5,425.4004 L96.5,440.4004 " fill="none" style="stroke:#181818;stroke-width:0.5;"/><rect fill="#E2E2F0" height="32.6211" rx="2.5" ry="2.5" style="stroke:#181818;stroke-width:0.5;" width="64" x="461.5" y="89.6211"/><text fill="#000000" font-family="sans-serif" font-size="14" lengthAdjust="spacing" textLength="50" x="468.5" y="111.7285">:System</text><rect fill="#E2E2F0" height="32.6211" rx="2.5" ry="2.5" style="stroke:#181818;stroke-width:0.5;" width="64" x="461.5" y="363.2793"/><text fill="#000000" font-family="sans-serif" font-size="14" lengthAdjust="spacing" textLength="50" x="468.5" y="385.3867">:System</text><rect fill="#FFFFFF" height="221.0371" style="stroke:#181818;stroke-width:1.0;" width="10" x="78.5" y="133.2422"/><rect fill="#FFFFFF" height="31.291" style="stroke:#181818;stroke-width:1.0;" width="10" x="488.5" y="156.5332"/><rect fill="#FFFFFF" height="31.291" style="stroke:#181818;stroke-width:1.0;" width="10" x="488.5" y="219.1152"/><rect fill="#FFFFFF" height="47.291" style="stroke:#181818;stroke-width:1.0;" width="10" x="488.5" y="307.9883"/><polygon fill="#181818" points="476.5,152.5332,486.5,156.5332,476.5,160.5332,480.5,156.5332" style="stroke:#181818;stroke-width:1.0;"/><line style="stroke:#181818;stroke-width:1.0;" x1="88.5" x2="482.5" y1="156.5332" y2="156.5332"/><text fill="#000000" font-family="sans-serif" font-size="13" lengthAdjust="spacing" textLength="207" x="95.5" y="151.2705">asks to list job opening applications</text><polygon fill="#181818" points="99.5,183.8242,89.5,187.8242,99.5,191.8242,95.5,187.8242" style="stroke:#181818;stroke-width:1.0;"/><line style="stroke:#181818;stroke-width:1.0;stroke-dasharray:2.0,2.0;" x1="93.5" x2="492.5" y1="187.8242" y2="187.8242"/><text fill="#000000" font-family="sans-serif" font-size="13" lengthAdjust="spacing" textLength="282" x="105.5" y="182.5615">lists jobReferences and asks user to choose one</text><polygon fill="#181818" points="476.5,215.1152,486.5,219.1152,476.5,223.1152,480.5,219.1152" style="stroke:#181818;stroke-width:1.0;"/><line style="stroke:#181818;stroke-width:1.0;" x1="88.5" x2="482.5" y1="219.1152" y2="219.1152"/><text fill="#000000" font-family="sans-serif" font-size="13" lengthAdjust="spacing" textLength="127" x="95.5" y="213.8525">chooses job reference</text><polygon fill="#181818" points="99.5,246.4063,89.5,250.4063,99.5,254.4063,95.5,250.4063" style="stroke:#181818;stroke-width:1.0;"/><line style="stroke:#181818;stroke-width:1.0;stroke-dasharray:2.0,2.0;" x1="93.5" x2="492.5" y1="250.4063" y2="250.4063"/><text fill="#000000" font-family="sans-serif" font-size="13" lengthAdjust="spacing" textLength="376" x="105.5" y="245.1436">asks if the user wants to see all data from one of the applications</text><path d="M10,265.4063 L71,265.4063 L71,274.6973 L61,284.6973 L10,284.6973 L10,265.4063 " fill="#EEEEEE" style="stroke:#000000;stroke-width:1.5;"/><rect fill="none" height="81.873" style="stroke:#000000;stroke-width:1.5;" width="525.5" x="10" y="265.4063"/><text fill="#000000" font-family="sans-serif" font-size="13" font-weight="bold" lengthAdjust="spacing" textLength="16" x="25" y="280.4346">alt</text><polygon fill="#181818" points="476.5,303.9883,486.5,307.9883,476.5,311.9883,480.5,307.9883" style="stroke:#181818;stroke-width:1.0;"/><line style="stroke:#181818;stroke-width:1.0;" x1="88.5" x2="482.5" y1="307.9883" y2="307.9883"/><text fill="#000000" font-family="sans-serif" font-size="13" lengthAdjust="spacing" textLength="117" x="95.5" y="302.7256">respond affirmatively</text><polygon fill="#181818" points="99.5,335.2793,89.5,339.2793,99.5,343.2793,95.5,339.2793" style="stroke:#181818;stroke-width:1.0;"/><line style="stroke:#181818;stroke-width:1.0;stroke-dasharray:2.0,2.0;" x1="93.5" x2="487.5" y1="339.2793" y2="339.2793"/><text fill="#000000" font-family="sans-serif" font-size="13" lengthAdjust="spacing" textLength="366" x="105.5" y="334.0166">display Candidate data and returns to Customer Manager Menu</text><!--SRC=[ZP51RiCW44Ntd6AKJTf5Bf15fIhPPbEVO8e7cmO3PSQ9VFi2jfMaYjIkZCpdp_j_jdosFcB20ORWW-vJ60WaZQIsjwk8-emTDJ8vWaHQq7VkGS4zjk5gVGS67PDIOYLhcuc51cZeUoIl2OuMko9_QPhZA-mW_-3eS09q3gGdQ54GWW7qW34wgr5iy4gXbf1WSnXPCc224_eCb3Q03EyTUL6PGwos4Rt0PZyFhjVpiLhO2mejUbK_i7jR8VTPV6QG0Cwom5VuX139bqntA7ppMOsNzxjiLJttrO2BmmSPIYKvvqJjF63ap9-dw3u49WYUL4khwJEiMLZzSlcBuTyOQo1hQhDrx3MtKoCoKUsyzctoqWj7ARv87-BUiw6J9to9E8QIpXYRXlpiGcxw5r-xRF-Gox5j4LUUKbKY6PElhB-N3YVoeoBVAdL7jwpr1m00]--></g></svg>