<?xml version="1.0" encoding="us-ascii" standalone="no"?><svg xmlns="http://www.w3.org/2000/svg" xmlns:xlink="http://www.w3.org/1999/xlink" contentStyleType="text/css" height="791px" preserveAspectRatio="none" style="width:1250px;height:791px;background:#FFFFFF;" version="1.1" viewBox="0 0 1250 791" width="1250px" zoomAndPan="magnify"><defs/><g><text fill="#000000" font-family="sans-serif" font-size="14" font-weight="bold" lengthAdjust="spacing" textLength="319" x="464.75" y="30.1074">US 1021 - Display all the data of an application</text><rect fill="#FFFFFF" height="566.2383" style="stroke:#181818;stroke-width:1.0;" width="10" x="78.5" y="133.2422"/><rect fill="#FFFFFF" height="187.7461" style="stroke:#181818;stroke-width:1.0;" width="10" x="488.5" y="156.5332"/><rect fill="#FFFFFF" height="322.9102" style="stroke:#181818;stroke-width:1.0;" width="10" x="488.5" y="375.5703"/><rect fill="#FFFFFF" height="125.1641" style="stroke:#181818;stroke-width:1.0;" width="10" x="763.5" y="187.8242"/><rect fill="#FFFFFF" height="93.873" style="stroke:#181818;stroke-width:1.0;" width="10" x="763.5" y="406.8613"/><rect fill="#FFFFFF" height="31.291" style="stroke:#181818;stroke-width:1.0;" width="10" x="763.5" y="620.8984"/><rect fill="#FFFFFF" height="31.291" style="stroke:#181818;stroke-width:1.0;" width="10" x="999.5" y="250.4063"/><rect fill="#FFFFFF" height="31.291" style="stroke:#181818;stroke-width:1.0;" width="10" x="1164" y="438.1523"/><rect fill="none" height="144.4551" style="stroke:#000000;stroke-width:1.5;" width="893.5" x="10" y="547.0254"/><line style="stroke:#181818;stroke-width:0.5;stroke-dasharray:5.0,5.0;" x1="83" x2="83" y1="123.2422" y2="708.4805"/><line style="stroke:#181818;stroke-width:0.5;stroke-dasharray:5.0,5.0;" x1="493.5" x2="493.5" y1="123.2422" y2="708.4805"/><line style="stroke:#181818;stroke-width:0.5;stroke-dasharray:5.0,5.0;" x1="768.5" x2="768.5" y1="123.2422" y2="708.4805"/><line style="stroke:#181818;stroke-width:0.5;stroke-dasharray:5.0,5.0;" x1="1004.5" x2="1004.5" y1="123.2422" y2="708.4805"/><line style="stroke:#181818;stroke-width:0.5;stroke-dasharray:5.0,5.0;" x1="1168.5" x2="1168.5" y1="123.2422" y2="708.4805"/><text fill="#000000" font-family="sans-serif" font-size="14" lengthAdjust="spacing" textLength="121" x="20" y="119.7285">Customer Manager</text><ellipse cx="83.5" cy="53.1211" fill="#E2E2F0" rx="8" ry="8" style="stroke:#181818;stroke-width:0.5;"/><path d="M83.5,61.1211 L83.5,88.1211 M70.5,69.1211 L96.5,69.1211 M83.5,88.1211 L70.5,103.1211 M83.5,88.1211 L96.5,103.1211 " fill="none" style="stroke:#181818;stroke-width:0.5;"/><text fill="#000000" font-family="sans-serif" font-size="14" lengthAdjust="spacing" textLength="121" x="20" y="722.5879">Customer Manager</text><ellipse cx="83.5" cy="734.6016" fill="#E2E2F0" rx="8" ry="8" style="stroke:#181818;stroke-width:0.5;"/><path d="M83.5,742.6016 L83.5,769.6016 M70.5,750.6016 L96.5,750.6016 M83.5,769.6016 L70.5,784.6016 M83.5,769.6016 L96.5,784.6016 " fill="none" style="stroke:#181818;stroke-width:0.5;"/><rect fill="#E2E2F0" height="51.2422" rx="2.5" ry="2.5" style="stroke:#181818;stroke-width:0.5;" width="200" x="393.5" y="71"/><text fill="#000000" font-family="sans-serif" font-size="14" font-style="italic" lengthAdjust="spacing" textLength="30" x="478.5" y="93.1074">&#171;UI&#187;</text><text fill="#000000" font-family="sans-serif" font-size="14" lengthAdjust="spacing" textLength="186" x="400.5" y="111.7285">ListJobOpeningApplicationsUI</text><rect fill="#E2E2F0" height="51.2422" rx="2.5" ry="2.5" style="stroke:#181818;stroke-width:0.5;" width="200" x="393.5" y="707.4805"/><text fill="#000000" font-family="sans-serif" font-size="14" font-style="italic" lengthAdjust="spacing" textLength="30" x="478.5" y="729.5879">&#171;UI&#187;</text><text fill="#000000" font-family="sans-serif" font-size="14" lengthAdjust="spacing" textLength="186" x="400.5" y="748.209">ListJobOpeningApplicationsUI</text><rect fill="#E2E2F0" height="51.2422" rx="2.5" ry="2.5" style="stroke:#181818;stroke-width:0.5;" width="250" x="643.5" y="71"/><text fill="#000000" font-family="sans-serif" font-size="14" font-style="italic" lengthAdjust="spacing" textLength="78" x="729.5" y="93.1074">&#171;Controller&#187;</text><text fill="#000000" font-family="sans-serif" font-size="14" lengthAdjust="spacing" textLength="236" x="650.5" y="111.7285">ListJobOpeningApplicationsController</text><rect fill="#E2E2F0" height="51.2422" rx="2.5" ry="2.5" style="stroke:#181818;stroke-width:0.5;" width="250" x="643.5" y="707.4805"/><text fill="#000000" font-family="sans-serif" font-size="14" font-style="italic" lengthAdjust="spacing" textLength="78" x="729.5" y="729.5879">&#171;Controller&#187;</text><text fill="#000000" font-family="sans-serif" font-size="14" lengthAdjust="spacing" textLength="236" x="650.5" y="748.209">ListJobOpeningApplicationsController</text><rect fill="#E2E2F0" height="51.2422" rx="2.5" ry="2.5" style="stroke:#181818;stroke-width:0.5;" width="158" x="925.5" y="71"/><text fill="#000000" font-family="sans-serif" font-size="14" font-style="italic" lengthAdjust="spacing" textLength="90" x="959.5" y="93.1074">&#171;Persistence&#187;</text><text fill="#000000" font-family="sans-serif" font-size="14" lengthAdjust="spacing" textLength="144" x="932.5" y="111.7285">JobOpeningRepository</text><rect fill="#E2E2F0" height="51.2422" rx="2.5" ry="2.5" style="stroke:#181818;stroke-width:0.5;" width="158" x="925.5" y="707.4805"/><text fill="#000000" font-family="sans-serif" font-size="14" font-style="italic" lengthAdjust="spacing" textLength="90" x="959.5" y="729.5879">&#171;Persistence&#187;</text><text fill="#000000" font-family="sans-serif" font-size="14" lengthAdjust="spacing" textLength="144" x="932.5" y="748.209">JobOpeningRepository</text><rect fill="#E2E2F0" height="51.2422" rx="2.5" ry="2.5" style="stroke:#181818;stroke-width:0.5;" width="151" x="1093.5" y="71"/><text fill="#000000" font-family="sans-serif" font-size="14" font-style="italic" lengthAdjust="spacing" textLength="90" x="1124" y="93.1074">&#171;Persistence&#187;</text><text fill="#000000" font-family="sans-serif" font-size="14" lengthAdjust="spacing" textLength="137" x="1100.5" y="111.7285">ApplicationRepository</text><rect fill="#E2E2F0" height="51.2422" rx="2.5" ry="2.5" style="stroke:#181818;stroke-width:0.5;" width="151" x="1093.5" y="707.4805"/><text fill="#000000" font-family="sans-serif" font-size="14" font-style="italic" lengthAdjust="spacing" textLength="90" x="1124" y="729.5879">&#171;Persistence&#187;</text><text fill="#000000" font-family="sans-serif" font-size="14" lengthAdjust="spacing" textLength="137" x="1100.5" y="748.209">ApplicationRepository</text><rect fill="#FFFFFF" height="566.2383" style="stroke:#181818;stroke-width:1.0;" width="10" x="78.5" y="133.2422"/><rect fill="#FFFFFF" height="187.7461" style="stroke:#181818;stroke-width:1.0;" width="10" x="488.5" y="156.5332"/><rect fill="#FFFFFF" height="322.9102" style="stroke:#181818;stroke-width:1.0;" width="10" x="488.5" y="375.5703"/><rect fill="#FFFFFF" height="125.1641" style="stroke:#181818;stroke-width:1.0;" width="10" x="763.5" y="187.8242"/><rect fill="#FFFFFF" height="93.873" style="stroke:#181818;stroke-width:1.0;" width="10" x="763.5" y="406.8613"/><rect fill="#FFFFFF" height="31.291" style="stroke:#181818;stroke-width:1.0;" width="10" x="763.5" y="620.8984"/><rect fill="#FFFFFF" height="31.291" style="stroke:#181818;stroke-width:1.0;" width="10" x="999.5" y="250.4063"/><rect fill="#FFFFFF" height="31.291" style="stroke:#181818;stroke-width:1.0;" width="10" x="1164" y="438.1523"/><polygon fill="#181818" points="476.5,152.5332,486.5,156.5332,476.5,160.5332,480.5,156.5332" style="stroke:#181818;stroke-width:1.0;"/><line style="stroke:#181818;stroke-width:1.0;" x1="88.5" x2="482.5" y1="156.5332" y2="156.5332"/><text fill="#000000" font-family="sans-serif" font-size="13" lengthAdjust="spacing" textLength="207" x="95.5" y="151.2705">asks to list job opening applications</text><polygon fill="#181818" points="751.5,183.8242,761.5,187.8242,751.5,191.8242,755.5,187.8242" style="stroke:#181818;stroke-width:1.0;"/><line style="stroke:#181818;stroke-width:1.0;" x1="498.5" x2="757.5" y1="187.8242" y2="187.8242"/><text fill="#000000" font-family="sans-serif" font-size="13" lengthAdjust="spacing" textLength="243" x="505.5" y="182.5615">new ListJobOpeningAplicationsController()</text><polygon fill="#181818" points="751.5,215.1152,761.5,219.1152,751.5,223.1152,755.5,219.1152" style="stroke:#181818;stroke-width:1.0;"/><line style="stroke:#181818;stroke-width:1.0;" x1="498.5" x2="757.5" y1="219.1152" y2="219.1152"/><text fill="#000000" font-family="sans-serif" font-size="13" lengthAdjust="spacing" textLength="98" x="505.5" y="213.8525">AllJobOpenings()</text><polygon fill="#181818" points="987.5,246.4063,997.5,250.4063,987.5,254.4063,991.5,250.4063" style="stroke:#181818;stroke-width:1.0;"/><line style="stroke:#181818;stroke-width:1.0;" x1="773.5" x2="993.5" y1="250.4063" y2="250.4063"/><text fill="#000000" font-family="sans-serif" font-size="13" lengthAdjust="spacing" textLength="98" x="780.5" y="245.1436">AllJobOpenings()</text><polygon fill="#181818" points="784.5,277.6973,774.5,281.6973,784.5,285.6973,780.5,281.6973" style="stroke:#181818;stroke-width:1.0;"/><line style="stroke:#181818;stroke-width:1.0;stroke-dasharray:2.0,2.0;" x1="778.5" x2="1003.5" y1="281.6973" y2="281.6973"/><text fill="#000000" font-family="sans-serif" font-size="13" lengthAdjust="spacing" textLength="202" x="790.5" y="276.4346">Iterable&lt;JobOpening&gt; jobOpenings</text><polygon fill="#181818" points="509.5,308.9883,499.5,312.9883,509.5,316.9883,505.5,312.9883" style="stroke:#181818;stroke-width:1.0;"/><line style="stroke:#181818;stroke-width:1.0;stroke-dasharray:2.0,2.0;" x1="503.5" x2="767.5" y1="312.9883" y2="312.9883"/><text fill="#000000" font-family="sans-serif" font-size="13" lengthAdjust="spacing" textLength="72" x="515.5" y="307.7256">jobOpenings</text><polygon fill="#181818" points="99.5,340.2793,89.5,344.2793,99.5,348.2793,95.5,344.2793" style="stroke:#181818;stroke-width:1.0;"/><line style="stroke:#181818;stroke-width:1.0;stroke-dasharray:2.0,2.0;" x1="93.5" x2="492.5" y1="344.2793" y2="344.2793"/><text fill="#000000" font-family="sans-serif" font-size="13" lengthAdjust="spacing" textLength="282" x="105.5" y="339.0166">lists jobReferences and asks user to choose one</text><polygon fill="#181818" points="476.5,371.5703,486.5,375.5703,476.5,379.5703,480.5,375.5703" style="stroke:#181818;stroke-width:1.0;"/><line style="stroke:#181818;stroke-width:1.0;" x1="88.5" x2="482.5" y1="375.5703" y2="375.5703"/><text fill="#000000" font-family="sans-serif" font-size="13" lengthAdjust="spacing" textLength="127" x="95.5" y="370.3076">chooses job reference</text><polygon fill="#181818" points="751.5,402.8613,761.5,406.8613,751.5,410.8613,755.5,406.8613" style="stroke:#181818;stroke-width:1.0;"/><line style="stroke:#181818;stroke-width:1.0;" x1="498.5" x2="757.5" y1="406.8613" y2="406.8613"/><text fill="#000000" font-family="sans-serif" font-size="13" lengthAdjust="spacing" textLength="246" x="505.5" y="401.5986">AllApplicationsForJobOpening(jobOpening)</text><polygon fill="#181818" points="1152,434.1523,1162,438.1523,1152,442.1523,1156,438.1523" style="stroke:#181818;stroke-width:1.0;"/><line style="stroke:#181818;stroke-width:1.0;" x1="773.5" x2="1158" y1="438.1523" y2="438.1523"/><text fill="#000000" font-family="sans-serif" font-size="13" lengthAdjust="spacing" textLength="243" x="780.5" y="432.8896">AllApplicationsByJobOpening(jobOpening)</text><polygon fill="#181818" points="784.5,465.4434,774.5,469.4434,784.5,473.4434,780.5,469.4434" style="stroke:#181818;stroke-width:1.0;"/><line style="stroke:#181818;stroke-width:1.0;stroke-dasharray:2.0,2.0;" x1="778.5" x2="1168" y1="469.4434" y2="469.4434"/><text fill="#000000" font-family="sans-serif" font-size="13" lengthAdjust="spacing" textLength="263" x="790.5" y="464.1807">Iterable&lt;JobOpeningApplication&gt; applications</text><polygon fill="#181818" points="509.5,496.7344,499.5,500.7344,509.5,504.7344,505.5,500.7344" style="stroke:#181818;stroke-width:1.0;"/><line style="stroke:#181818;stroke-width:1.0;stroke-dasharray:2.0,2.0;" x1="503.5" x2="767.5" y1="500.7344" y2="500.7344"/><text fill="#000000" font-family="sans-serif" font-size="13" lengthAdjust="spacing" textLength="69" x="515.5" y="495.4717">applications</text><polygon fill="#181818" points="99.5,528.0254,89.5,532.0254,99.5,536.0254,95.5,532.0254" style="stroke:#181818;stroke-width:1.0;"/><line style="stroke:#181818;stroke-width:1.0;stroke-dasharray:2.0,2.0;" x1="93.5" x2="487.5" y1="532.0254" y2="532.0254"/><text fill="#000000" font-family="sans-serif" font-size="13" lengthAdjust="spacing" textLength="376" x="105.5" y="526.7627">asks if the user wants to see all data from one of the applications</text><path d="M10,547.0254 L71,547.0254 L71,556.3164 L61,566.3164 L10,566.3164 L10,547.0254 " fill="#EEEEEE" style="stroke:#000000;stroke-width:1.5;"/><rect fill="none" height="144.4551" style="stroke:#000000;stroke-width:1.5;" width="893.5" x="10" y="547.0254"/><text fill="#000000" font-family="sans-serif" font-size="13" font-weight="bold" lengthAdjust="spacing" textLength="16" x="25" y="562.0537">alt</text><polygon fill="#181818" points="476.5,585.6074,486.5,589.6074,476.5,593.6074,480.5,589.6074" style="stroke:#181818;stroke-width:1.0;"/><line style="stroke:#181818;stroke-width:1.0;stroke-dasharray:2.0,2.0;" x1="88.5" x2="482.5" y1="589.6074" y2="589.6074"/><text fill="#000000" font-family="sans-serif" font-size="13" lengthAdjust="spacing" textLength="117" x="95.5" y="584.3447">respond affirmatively</text><polygon fill="#181818" points="751.5,616.8984,761.5,620.8984,751.5,624.8984,755.5,620.8984" style="stroke:#181818;stroke-width:1.0;"/><line style="stroke:#181818;stroke-width:1.0;" x1="498.5" x2="757.5" y1="620.8984" y2="620.8984"/><text fill="#000000" font-family="sans-serif" font-size="13" lengthAdjust="spacing" textLength="123" x="505.5" y="615.6357">application.get(index)</text><polygon fill="#181818" points="509.5,648.1895,499.5,652.1895,509.5,656.1895,505.5,652.1895" style="stroke:#181818;stroke-width:1.0;"/><line style="stroke:#181818;stroke-width:1.0;stroke-dasharray:2.0,2.0;" x1="503.5" x2="767.5" y1="652.1895" y2="652.1895"/><text fill="#000000" font-family="sans-serif" font-size="13" lengthAdjust="spacing" textLength="101" x="515.5" y="646.9268">return Application</text><polygon fill="#181818" points="99.5,679.4805,89.5,683.4805,99.5,687.4805,95.5,683.4805" style="stroke:#181818;stroke-width:1.0;"/><line style="stroke:#181818;stroke-width:1.0;stroke-dasharray:2.0,2.0;" x1="93.5" x2="487.5" y1="683.4805" y2="683.4805"/><text fill="#000000" font-family="sans-serif" font-size="13" lengthAdjust="spacing" textLength="366" x="105.5" y="678.2178">display Candidate data and returns to Customer Manager Menu</text><!--SRC=[ZLJ1ZXen3BtdAonEz43LxH6XaRPKAqtLLQkj-830UDXiGp9Amcxv-zePs6H2gCe1QHI_P_izsq45ZR3v1NUVFj_10hugFsXv0garX6U4JWO9jWTfG0w3LZiPb3L2o5sm3cRhem_sW0uUfP5xT3EG7ZOUdH23T47jr21DWDbtvSCtk_qne55cVv-O_AOTCIsiLfksQVuNjxOcEAlrEMVw99xqKV8bhYSSh5VKn2dYqoVXVwBpb1ZD3ak2h8I2eVfoHIQYTEfL1ZphnF-mQ4Y19T7yzX0iQ0B0Yzs27OlDjVSvGqlubj6fvIKOV8DIk8fkymy2wFTEbbwkEU-rJcoUa9dU59aQNi9Lw3HB2XqVCgqMHHzjG2Ut6bU9hs5LBjmZGOStkVCYpmh_2vu9m2yi0gCyryAEU4O_OO-EpVIq4ztes94j9DjspzPw16jGPBJHfCpaCIgIWRkm5QPUyay58Mdp5NYmBYapJvsLacTzYSAuwj1U9Vfokf7dFKMLHuZwJfG-Gytf3DeKuvzfMyzRyNt2KFTSJ0oFnge-7i7exnljVrnEZnZFOpoDlRC7Dfnl98TEyaWTelF4oZKuz8FbcUbxvGuKyuhwLDdVZEFZ7iDScGx_P69dDLSwTHYEpkJAtEXtqcvtlljh6chLSMHiZqTy98ojb-SU7j4S1PfE50F_5m00]--></g></svg>