<?xml version="1.0" encoding="us-ascii" standalone="no"?><svg xmlns="http://www.w3.org/2000/svg" xmlns:xlink="http://www.w3.org/1999/xlink" contentStyleType="text/css" height="1237px" preserveAspectRatio="none" style="width:1547px;height:1237px;background:#FFFFFF;" version="1.1" viewBox="0 0 1547 1237" width="1547px" zoomAndPan="magnify"><defs/><g><text fill="#000000" font-family="sans-serif" font-size="14" font-weight="bold" lengthAdjust="spacing" textLength="222" x="661.5" y="30.1074">Set Course's Teacher In Charge</text><rect fill="#FFFFFF" height="968.0215" style="stroke:#181818;stroke-width:1.0;" width="10" x="209.5" y="161.1543"/><rect fill="#FFFFFF" height="156.4551" style="stroke:#181818;stroke-width:1.0;" width="10" x="530.5" y="241.0273"/><rect fill="#FFFFFF" height="310.6191" style="stroke:#181818;stroke-width:1.0;" width="10" x="530.5" y="525.9375"/><rect fill="#FFFFFF" height="123.873" style="stroke:#181818;stroke-width:1.0;" width="10" x="530.5" y="965.0117"/><rect fill="#FFFFFF" height="93.873" style="stroke:#181818;stroke-width:1.0;" width="10" x="748.5" y="272.3184"/><rect fill="#FFFFFF" height="31.291" style="stroke:#181818;stroke-width:1.0;" width="10" x="966.5" y="303.6094"/><rect fill="#FFFFFF" height="248.0371" style="stroke:#181818;stroke-width:1.0;" width="10" x="1132" y="557.2285"/><rect fill="#FFFFFF" height="28" style="stroke:#181818;stroke-width:1.0;" width="10" x="1137" y="738.9746"/><rect fill="#FFFFFF" height="31.291" style="stroke:#181818;stroke-width:1.0;" width="10" x="1341" y="588.5195"/><rect fill="#FFFFFF" height="31.291" style="stroke:#181818;stroke-width:1.0;" width="10" x="1491" y="651.1016"/><rect fill="#FFFFFF" height="30" style="stroke:#181818;stroke-width:1.0;" width="10" x="1491" y="996.3027"/><line style="stroke:#181818;stroke-width:0.5;stroke-dasharray:5.0,5.0;" x1="66" x2="66" y1="127.8633" y2="1138.1758"/><line style="stroke:#181818;stroke-width:0.5;stroke-dasharray:5.0,5.0;" x1="214" x2="214" y1="127.8633" y2="1138.1758"/><line style="stroke:#181818;stroke-width:0.5;stroke-dasharray:5.0,5.0;" x1="535" x2="535" y1="127.8633" y2="1138.1758"/><line style="stroke:#181818;stroke-width:0.5;stroke-dasharray:5.0,5.0;" x1="753" x2="753" y1="127.8633" y2="1138.1758"/><line style="stroke:#181818;stroke-width:0.5;stroke-dasharray:5.0,5.0;" x1="971.5" x2="971.5" y1="127.8633" y2="1138.1758"/><line style="stroke:#181818;stroke-width:0.5;stroke-dasharray:5.0,5.0;" x1="1136.5" x2="1136.5" y1="127.8633" y2="1138.1758"/><line style="stroke:#181818;stroke-width:0.5;stroke-dasharray:5.0,5.0;" x1="1346" x2="1346" y1="127.8633" y2="1138.1758"/><line style="stroke:#181818;stroke-width:0.5;stroke-dasharray:5.0,5.0;" x1="1496" x2="1496" y1="127.8633" y2="1138.1758"/><text fill="#000000" font-family="sans-serif" font-size="14" lengthAdjust="spacing" textLength="117" x="5" y="124.3496">CustomerManager</text><ellipse cx="66.5" cy="57.7422" fill="#E2E2F0" rx="8" ry="8" style="stroke:#181818;stroke-width:0.5;"/><path d="M66.5,65.7422 L66.5,92.7422 M53.5,73.7422 L79.5,73.7422 M66.5,92.7422 L53.5,107.7422 M66.5,92.7422 L79.5,107.7422 " fill="none" style="stroke:#181818;stroke-width:0.5;"/><text fill="#000000" font-family="sans-serif" font-size="14" lengthAdjust="spacing" textLength="117" x="5" y="1152.2832">CustomerManager</text><ellipse cx="66.5" cy="1164.2969" fill="#E2E2F0" rx="8" ry="8" style="stroke:#181818;stroke-width:0.5;"/><path d="M66.5,1172.2969 L66.5,1199.2969 M53.5,1180.2969 L79.5,1180.2969 M66.5,1199.2969 L53.5,1214.2969 M66.5,1199.2969 L79.5,1214.2969 " fill="none" style="stroke:#181818;stroke-width:0.5;"/><rect fill="#E2E2F0" height="51.2422" rx="2.5" ry="2.5" style="stroke:#181818;stroke-width:0.5;" width="149" x="140" y="75.6211"/><text fill="#000000" font-family="sans-serif" font-size="14" font-style="italic" lengthAdjust="spacing" textLength="27" x="201" y="97.7285">&#171;ui&#187;</text><text fill="#000000" font-family="sans-serif" font-size="14" lengthAdjust="spacing" textLength="135" x="147" y="116.3496">SetPhaseInProcessUI</text><rect fill="#E2E2F0" height="51.2422" rx="2.5" ry="2.5" style="stroke:#181818;stroke-width:0.5;" width="149" x="140" y="1137.1758"/><text fill="#000000" font-family="sans-serif" font-size="14" font-style="italic" lengthAdjust="spacing" textLength="27" x="201" y="1159.2832">&#171;ui&#187;</text><text fill="#000000" font-family="sans-serif" font-size="14" lengthAdjust="spacing" textLength="135" x="147" y="1177.9043">SetPhaseInProcessUI</text><rect fill="#E2E2F0" height="51.2422" rx="2.5" ry="2.5" style="stroke:#181818;stroke-width:0.5;" width="199" x="436" y="75.6211"/><text fill="#000000" font-family="sans-serif" font-size="14" font-style="italic" lengthAdjust="spacing" textLength="84" x="493.5" y="97.7285">&#171;application&#187;</text><text fill="#000000" font-family="sans-serif" font-size="14" lengthAdjust="spacing" textLength="185" x="443" y="116.3496">SetPhaseInProcessController</text><rect fill="#E2E2F0" height="51.2422" rx="2.5" ry="2.5" style="stroke:#181818;stroke-width:0.5;" width="199" x="436" y="1137.1758"/><text fill="#000000" font-family="sans-serif" font-size="14" font-style="italic" lengthAdjust="spacing" textLength="84" x="493.5" y="1159.2832">&#171;application&#187;</text><text fill="#000000" font-family="sans-serif" font-size="14" lengthAdjust="spacing" textLength="185" x="443" y="1177.9043">SetPhaseInProcessController</text><rect fill="#E2E2F0" height="51.2422" rx="2.5" ry="2.5" style="stroke:#181818;stroke-width:0.5;" width="181" x="663" y="75.6211"/><text fill="#000000" font-family="sans-serif" font-size="14" font-style="italic" lengthAdjust="spacing" textLength="84" x="711.5" y="97.7285">&#171;application&#187;</text><text fill="#000000" font-family="sans-serif" font-size="14" lengthAdjust="spacing" textLength="167" x="670" y="116.3496">ListJobOpeningsController</text><rect fill="#E2E2F0" height="51.2422" rx="2.5" ry="2.5" style="stroke:#181818;stroke-width:0.5;" width="181" x="663" y="1137.1758"/><text fill="#000000" font-family="sans-serif" font-size="14" font-style="italic" lengthAdjust="spacing" textLength="84" x="711.5" y="1159.2832">&#171;application&#187;</text><text fill="#000000" font-family="sans-serif" font-size="14" lengthAdjust="spacing" textLength="167" x="670" y="1177.9043">ListJobOpeningsController</text><text fill="#000000" font-family="sans-serif" font-size="14" font-style="italic" lengthAdjust="spacing" textLength="79" x="929" y="105.7285">&#171;repository&#187;</text><text fill="#000000" font-family="sans-serif" font-size="14" lengthAdjust="spacing" textLength="144" x="896.5" y="124.3496">JobOpeningRepository</text><path d="M953.5,54.6211 C953.5,44.6211 971.5,44.6211 971.5,44.6211 C971.5,44.6211 989.5,44.6211 989.5,54.6211 L989.5,80.6211 C989.5,90.6211 971.5,90.6211 971.5,90.6211 C971.5,90.6211 953.5,90.6211 953.5,80.6211 L953.5,54.6211 " fill="#E2E2F0" style="stroke:#181818;stroke-width:1.5;"/><path d="M953.5,54.6211 C953.5,64.6211 971.5,64.6211 971.5,64.6211 C971.5,64.6211 989.5,64.6211 989.5,54.6211 " fill="none" style="stroke:#181818;stroke-width:1.5;"/><text fill="#000000" font-family="sans-serif" font-size="14" font-style="italic" lengthAdjust="spacing" textLength="79" x="929" y="1152.2832">&#171;repository&#187;</text><text fill="#000000" font-family="sans-serif" font-size="14" lengthAdjust="spacing" textLength="144" x="896.5" y="1170.9043">JobOpeningRepository</text><path d="M953.5,1184.418 C953.5,1174.418 971.5,1174.418 971.5,1174.418 C971.5,1174.418 989.5,1174.418 989.5,1184.418 L989.5,1210.418 C989.5,1220.418 971.5,1220.418 971.5,1220.418 C971.5,1220.418 953.5,1220.418 953.5,1210.418 L953.5,1184.418 " fill="#E2E2F0" style="stroke:#181818;stroke-width:1.5;"/><path d="M953.5,1184.418 C953.5,1194.418 971.5,1194.418 971.5,1194.418 C971.5,1194.418 989.5,1194.418 989.5,1184.418 " fill="none" style="stroke:#181818;stroke-width:1.5;"/><rect fill="#E2E2F0" height="51.2422" rx="2.5" ry="2.5" style="stroke:#181818;stroke-width:0.5;" width="161" x="1056.5" y="75.6211"/><text fill="#000000" font-family="sans-serif" font-size="14" font-style="italic" lengthAdjust="spacing" textLength="60" x="1107" y="97.7285">&#171;service&#187;</text><text fill="#000000" font-family="sans-serif" font-size="14" lengthAdjust="spacing" textLength="147" x="1063.5" y="116.3496">PossiblePhasesService</text><rect fill="#E2E2F0" height="51.2422" rx="2.5" ry="2.5" style="stroke:#181818;stroke-width:0.5;" width="161" x="1056.5" y="1137.1758"/><text fill="#000000" font-family="sans-serif" font-size="14" font-style="italic" lengthAdjust="spacing" textLength="60" x="1107" y="1159.2832">&#171;service&#187;</text><text fill="#000000" font-family="sans-serif" font-size="14" lengthAdjust="spacing" textLength="147" x="1063.5" y="1177.9043">PossiblePhasesService</text><text fill="#000000" font-family="sans-serif" font-size="14" font-style="italic" lengthAdjust="spacing" textLength="79" x="1303.5" y="105.7285">&#171;repository&#187;</text><text fill="#000000" font-family="sans-serif" font-size="14" lengthAdjust="spacing" textLength="184" x="1251" y="124.3496">IeJobOpeningUserRepository</text><path d="M1328,54.6211 C1328,44.6211 1346,44.6211 1346,44.6211 C1346,44.6211 1364,44.6211 1364,54.6211 L1364,80.6211 C1364,90.6211 1346,90.6211 1346,90.6211 C1346,90.6211 1328,90.6211 1328,80.6211 L1328,54.6211 " fill="#E2E2F0" style="stroke:#181818;stroke-width:1.5;"/><path d="M1328,54.6211 C1328,64.6211 1346,64.6211 1346,64.6211 C1346,64.6211 1364,64.6211 1364,54.6211 " fill="none" style="stroke:#181818;stroke-width:1.5;"/><text fill="#000000" font-family="sans-serif" font-size="14" font-style="italic" lengthAdjust="spacing" textLength="79" x="1303.5" y="1152.2832">&#171;repository&#187;</text><text fill="#000000" font-family="sans-serif" font-size="14" lengthAdjust="spacing" textLength="184" x="1251" y="1170.9043">IeJobOpeningUserRepository</text><path d="M1328,1184.418 C1328,1174.418 1346,1174.418 1346,1174.418 C1346,1174.418 1364,1174.418 1364,1184.418 L1364,1210.418 C1364,1220.418 1346,1220.418 1346,1220.418 C1346,1220.418 1328,1220.418 1328,1210.418 L1328,1184.418 " fill="#E2E2F0" style="stroke:#181818;stroke-width:1.5;"/><path d="M1328,1184.418 C1328,1194.418 1346,1194.418 1346,1194.418 C1346,1194.418 1364,1194.418 1364,1184.418 " fill="none" style="stroke:#181818;stroke-width:1.5;"/><rect fill="#E2E2F0" height="51.2422" rx="2.5" ry="2.5" style="stroke:#181818;stroke-width:0.5;" width="90" x="1451" y="75.6211"/><text fill="#000000" font-family="sans-serif" font-size="14" font-style="italic" lengthAdjust="spacing" textLength="62" x="1465" y="97.7285">&#171;domain&#187;</text><text fill="#000000" font-family="sans-serif" font-size="14" lengthAdjust="spacing" textLength="76" x="1458" y="116.3496">JobOpening</text><rect fill="#E2E2F0" height="51.2422" rx="2.5" ry="2.5" style="stroke:#181818;stroke-width:0.5;" width="90" x="1451" y="1137.1758"/><text fill="#000000" font-family="sans-serif" font-size="14" font-style="italic" lengthAdjust="spacing" textLength="62" x="1465" y="1159.2832">&#171;domain&#187;</text><text fill="#000000" font-family="sans-serif" font-size="14" lengthAdjust="spacing" textLength="76" x="1458" y="1177.9043">JobOpening</text><rect fill="#FFFFFF" height="968.0215" style="stroke:#181818;stroke-width:1.0;" width="10" x="209.5" y="161.1543"/><rect fill="#FFFFFF" height="156.4551" style="stroke:#181818;stroke-width:1.0;" width="10" x="530.5" y="241.0273"/><rect fill="#FFFFFF" height="310.6191" style="stroke:#181818;stroke-width:1.0;" width="10" x="530.5" y="525.9375"/><rect fill="#FFFFFF" height="123.873" style="stroke:#181818;stroke-width:1.0;" width="10" x="530.5" y="965.0117"/><rect fill="#FFFFFF" height="93.873" style="stroke:#181818;stroke-width:1.0;" width="10" x="748.5" y="272.3184"/><rect fill="#FFFFFF" height="31.291" style="stroke:#181818;stroke-width:1.0;" width="10" x="966.5" y="303.6094"/><rect fill="#FFFFFF" height="248.0371" style="stroke:#181818;stroke-width:1.0;" width="10" x="1132" y="557.2285"/><rect fill="#FFFFFF" height="28" style="stroke:#181818;stroke-width:1.0;" width="10" x="1137" y="738.9746"/><rect fill="#FFFFFF" height="31.291" style="stroke:#181818;stroke-width:1.0;" width="10" x="1341" y="588.5195"/><rect fill="#FFFFFF" height="31.291" style="stroke:#181818;stroke-width:1.0;" width="10" x="1491" y="651.1016"/><rect fill="#FFFFFF" height="30" style="stroke:#181818;stroke-width:1.0;" width="10" x="1491" y="996.3027"/><polygon fill="#181818" points="197.5,157.1543,207.5,161.1543,197.5,165.1543,201.5,161.1543" style="stroke:#181818;stroke-width:1.0;"/><line style="stroke:#181818;stroke-width:1.0;" x1="0" x2="203.5" y1="161.1543" y2="161.1543"/><text fill="#000000" font-family="sans-serif" font-size="13" font-weight="bold" lengthAdjust="spacing" textLength="7" x="7" y="155.8916">1</text><text fill="#000000" font-family="sans-serif" font-size="13" lengthAdjust="spacing" textLength="42" x="18" y="155.8916">onLoad</text><polygon fill="#181818" points="523.5,205.7363,533.5,209.7363,523.5,213.7363,527.5,209.7363" style="stroke:#181818;stroke-width:1.0;"/><line style="stroke:#181818;stroke-width:1.0;" x1="219.5" x2="529.5" y1="209.7363" y2="209.7363"/><text fill="#000000" font-family="sans-serif" font-size="13" font-weight="bold" lengthAdjust="spacing" textLength="7" x="226.5" y="195.8281">2</text><text fill="#000000" font-family="sans-serif" font-size="13" lengthAdjust="spacing" textLength="139" x="237.5" y="187.1826">create(jobOpeningRepo,</text><text fill="#000000" font-family="sans-serif" font-size="13" lengthAdjust="spacing" textLength="134" x="237.5" y="204.4736">possibleblePhasesSvc)</text><polygon fill="#181818" points="518.5,237.0273,528.5,241.0273,518.5,245.0273,522.5,241.0273" style="stroke:#181818;stroke-width:1.0;"/><line style="stroke:#181818;stroke-width:1.0;" x1="219.5" x2="524.5" y1="241.0273" y2="241.0273"/><text fill="#000000" font-family="sans-serif" font-size="13" font-weight="bold" lengthAdjust="spacing" textLength="7" x="226.5" y="235.7646">3</text><text fill="#000000" font-family="sans-serif" font-size="13" lengthAdjust="spacing" textLength="141" x="237.5" y="235.7646">notClosedJobOpenings()</text><polygon fill="#181818" points="736.5,268.3184,746.5,272.3184,736.5,276.3184,740.5,272.3184" style="stroke:#181818;stroke-width:1.0;"/><line style="stroke:#181818;stroke-width:1.0;" x1="540.5" x2="742.5" y1="272.3184" y2="272.3184"/><text fill="#000000" font-family="sans-serif" font-size="13" font-weight="bold" lengthAdjust="spacing" textLength="7" x="547.5" y="267.0557">4</text><text fill="#000000" font-family="sans-serif" font-size="13" lengthAdjust="spacing" textLength="178" x="558.5" y="267.0557">findAllNotClosedJobOpenings()</text><polygon fill="#181818" points="954.5,299.6094,964.5,303.6094,954.5,307.6094,958.5,303.6094" style="stroke:#181818;stroke-width:1.0;"/><line style="stroke:#181818;stroke-width:1.0;" x1="758.5" x2="960.5" y1="303.6094" y2="303.6094"/><text fill="#000000" font-family="sans-serif" font-size="13" font-weight="bold" lengthAdjust="spacing" textLength="7" x="765.5" y="298.3467">5</text><text fill="#000000" font-family="sans-serif" font-size="13" lengthAdjust="spacing" textLength="178" x="776.5" y="298.3467">findAllNotClosedJobOpenings()</text><polygon fill="#181818" points="769.5,330.9004,759.5,334.9004,769.5,338.9004,765.5,334.9004" style="stroke:#181818;stroke-width:1.0;"/><line style="stroke:#181818;stroke-width:1.0;stroke-dasharray:2.0,2.0;" x1="763.5" x2="970.5" y1="334.9004" y2="334.9004"/><text fill="#000000" font-family="sans-serif" font-size="13" font-weight="bold" lengthAdjust="spacing" textLength="7" x="775.5" y="329.6377">6</text><text fill="#000000" font-family="sans-serif" font-size="13" lengthAdjust="spacing" textLength="72" x="786.5" y="329.6377">jobOpenings</text><polygon fill="#181818" points="551.5,362.1914,541.5,366.1914,551.5,370.1914,547.5,366.1914" style="stroke:#181818;stroke-width:1.0;"/><line style="stroke:#181818;stroke-width:1.0;stroke-dasharray:2.0,2.0;" x1="545.5" x2="752.5" y1="366.1914" y2="366.1914"/><text fill="#000000" font-family="sans-serif" font-size="13" font-weight="bold" lengthAdjust="spacing" textLength="7" x="557.5" y="360.9287">7</text><text fill="#000000" font-family="sans-serif" font-size="13" lengthAdjust="spacing" textLength="72" x="568.5" y="360.9287">jobOpenings</text><polygon fill="#181818" points="230.5,393.4824,220.5,397.4824,230.5,401.4824,226.5,397.4824" style="stroke:#181818;stroke-width:1.0;"/><line style="stroke:#181818;stroke-width:1.0;stroke-dasharray:2.0,2.0;" x1="224.5" x2="534.5" y1="397.4824" y2="397.4824"/><text fill="#000000" font-family="sans-serif" font-size="13" font-weight="bold" lengthAdjust="spacing" textLength="7" x="236.5" y="392.2197">8</text><text fill="#000000" font-family="sans-serif" font-size="13" lengthAdjust="spacing" textLength="72" x="247.5" y="392.2197">jobOpenings</text><polygon fill="#181818" points="77.5,442.0645,67.5,446.0645,77.5,450.0645,73.5,446.0645" style="stroke:#181818;stroke-width:1.0;"/><line style="stroke:#181818;stroke-width:1.0;stroke-dasharray:2.0,2.0;" x1="71.5" x2="208.5" y1="446.0645" y2="446.0645"/><text fill="#000000" font-family="sans-serif" font-size="13" font-weight="bold" lengthAdjust="spacing" textLength="7" x="83.5" y="432.1563">9</text><text fill="#000000" font-family="sans-serif" font-size="13" lengthAdjust="spacing" textLength="46" x="94.5" y="423.5107">lists the</text><text fill="#000000" font-family="sans-serif" font-size="13" lengthAdjust="spacing" textLength="73" x="94.5" y="440.8018">job openings</text><polygon fill="#181818" points="197.5,490.6465,207.5,494.6465,197.5,498.6465,201.5,494.6465" style="stroke:#181818;stroke-width:1.0;"/><line style="stroke:#181818;stroke-width:1.0;" x1="66.5" x2="203.5" y1="494.6465" y2="494.6465"/><text fill="#000000" font-family="sans-serif" font-size="13" font-weight="bold" lengthAdjust="spacing" textLength="14" x="73.5" y="480.7383">10</text><text fill="#000000" font-family="sans-serif" font-size="13" lengthAdjust="spacing" textLength="64" x="91.5" y="472.0928">selects the</text><text fill="#000000" font-family="sans-serif" font-size="13" lengthAdjust="spacing" textLength="66" x="91.5" y="489.3838">job opening</text><polygon fill="#181818" points="518.5,521.9375,528.5,525.9375,518.5,529.9375,522.5,525.9375" style="stroke:#181818;stroke-width:1.0;"/><line style="stroke:#181818;stroke-width:1.0;" x1="219.5" x2="524.5" y1="525.9375" y2="525.9375"/><text fill="#000000" font-family="sans-serif" font-size="13" font-weight="bold" lengthAdjust="spacing" textLength="14" x="226.5" y="520.6748">11</text><text fill="#000000" font-family="sans-serif" font-size="13" lengthAdjust="spacing" textLength="139" x="244.5" y="520.6748">possiblePhases(course)</text><polygon fill="#181818" points="1120,553.2285,1130,557.2285,1120,561.2285,1124,557.2285" style="stroke:#181818;stroke-width:1.0;"/><line style="stroke:#181818;stroke-width:1.0;" x1="540.5" x2="1126" y1="557.2285" y2="557.2285"/><text fill="#000000" font-family="sans-serif" font-size="13" font-weight="bold" lengthAdjust="spacing" textLength="14" x="547.5" y="551.9658">12</text><text fill="#000000" font-family="sans-serif" font-size="13" lengthAdjust="spacing" textLength="165" x="565.5" y="551.9658">possiblePhases(jobOpening)</text><polygon fill="#181818" points="1329,584.5195,1339,588.5195,1329,592.5195,1333,588.5195" style="stroke:#181818;stroke-width:1.0;"/><line style="stroke:#181818;stroke-width:1.0;" x1="1142" x2="1335" y1="588.5195" y2="588.5195"/><text fill="#000000" font-family="sans-serif" font-size="13" font-weight="bold" lengthAdjust="spacing" textLength="14" x="1149" y="583.2568">13</text><text fill="#000000" font-family="sans-serif" font-size="13" lengthAdjust="spacing" textLength="152" x="1167" y="583.2568">findAllPhases(jobOpening)</text><polygon fill="#181818" points="1153,615.8105,1143,619.8105,1153,623.8105,1149,619.8105" style="stroke:#181818;stroke-width:1.0;"/><line style="stroke:#181818;stroke-width:1.0;stroke-dasharray:2.0,2.0;" x1="1147" x2="1345" y1="619.8105" y2="619.8105"/><text fill="#000000" font-family="sans-serif" font-size="13" font-weight="bold" lengthAdjust="spacing" textLength="14" x="1159" y="614.5479">14</text><text fill="#000000" font-family="sans-serif" font-size="13" lengthAdjust="spacing" textLength="42" x="1177" y="614.5479">phases</text><polygon fill="#181818" points="1479,647.1016,1489,651.1016,1479,655.1016,1483,651.1016" style="stroke:#181818;stroke-width:1.0;"/><line style="stroke:#181818;stroke-width:1.0;" x1="1142" x2="1485" y1="651.1016" y2="651.1016"/><text fill="#000000" font-family="sans-serif" font-size="13" font-weight="bold" lengthAdjust="spacing" textLength="14" x="1149" y="645.8389">15</text><text fill="#000000" font-family="sans-serif" font-size="13" lengthAdjust="spacing" textLength="50" x="1167" y="645.8389">phases()</text><polygon fill="#181818" points="1153,678.3926,1143,682.3926,1153,686.3926,1149,682.3926" style="stroke:#181818;stroke-width:1.0;"/><line style="stroke:#181818;stroke-width:1.0;stroke-dasharray:2.0,2.0;" x1="1147" x2="1495" y1="682.3926" y2="682.3926"/><text fill="#000000" font-family="sans-serif" font-size="13" font-weight="bold" lengthAdjust="spacing" textLength="14" x="1159" y="677.1299">16</text><text fill="#000000" font-family="sans-serif" font-size="13" lengthAdjust="spacing" textLength="109" x="1177" y="677.1299">jobOpeningPhases</text><line style="stroke:#181818;stroke-width:1.0;" x1="1147" x2="1189" y1="730.9746" y2="730.9746"/><line style="stroke:#181818;stroke-width:1.0;" x1="1189" x2="1189" y1="730.9746" y2="743.9746"/><line style="stroke:#181818;stroke-width:1.0;" x1="1148" x2="1189" y1="743.9746" y2="743.9746"/><polygon fill="#181818" points="1158,739.9746,1148,743.9746,1158,747.9746,1154,743.9746" style="stroke:#181818;stroke-width:1.0;"/><text fill="#000000" font-family="sans-serif" font-size="13" font-weight="bold" lengthAdjust="spacing" textLength="14" x="1154" y="717.0664">17</text><text fill="#000000" font-family="sans-serif" font-size="13" lengthAdjust="spacing" textLength="118" x="1172" y="708.4209">filterPossiblePhases</text><text fill="#000000" font-family="sans-serif" font-size="13" lengthAdjust="spacing" textLength="167" x="1172" y="725.7119">(phases, jobOpeningPhases)</text><polygon fill="#181818" points="551.5,801.2656,541.5,805.2656,551.5,809.2656,547.5,805.2656" style="stroke:#181818;stroke-width:1.0;"/><line style="stroke:#181818;stroke-width:1.0;stroke-dasharray:2.0,2.0;" x1="545.5" x2="1136" y1="805.2656" y2="805.2656"/><text fill="#000000" font-family="sans-serif" font-size="13" font-weight="bold" lengthAdjust="spacing" textLength="14" x="557.5" y="800.0029">18</text><text fill="#000000" font-family="sans-serif" font-size="13" lengthAdjust="spacing" textLength="92" x="575.5" y="800.0029">possiblePhases</text><polygon fill="#181818" points="230.5,832.5566,220.5,836.5566,230.5,840.5566,226.5,836.5566" style="stroke:#181818;stroke-width:1.0;"/><line style="stroke:#181818;stroke-width:1.0;stroke-dasharray:2.0,2.0;" x1="224.5" x2="534.5" y1="836.5566" y2="836.5566"/><text fill="#000000" font-family="sans-serif" font-size="13" font-weight="bold" lengthAdjust="spacing" textLength="14" x="236.5" y="831.2939">19</text><text fill="#000000" font-family="sans-serif" font-size="13" lengthAdjust="spacing" textLength="92" x="254.5" y="831.2939">possiblePhases</text><polygon fill="#181818" points="77.5,881.1387,67.5,885.1387,77.5,889.1387,73.5,885.1387" style="stroke:#181818;stroke-width:1.0;"/><line style="stroke:#181818;stroke-width:1.0;stroke-dasharray:2.0,2.0;" x1="71.5" x2="208.5" y1="885.1387" y2="885.1387"/><text fill="#000000" font-family="sans-serif" font-size="13" font-weight="bold" lengthAdjust="spacing" textLength="14" x="83.5" y="871.2305">20</text><text fill="#000000" font-family="sans-serif" font-size="13" lengthAdjust="spacing" textLength="46" x="101.5" y="862.585">lists the</text><text fill="#000000" font-family="sans-serif" font-size="13" lengthAdjust="spacing" textLength="42" x="101.5" y="879.876">phases</text><polygon fill="#181818" points="197.5,929.7207,207.5,933.7207,197.5,937.7207,201.5,933.7207" style="stroke:#181818;stroke-width:1.0;"/><line style="stroke:#181818;stroke-width:1.0;" x1="66.5" x2="203.5" y1="933.7207" y2="933.7207"/><text fill="#000000" font-family="sans-serif" font-size="13" font-weight="bold" lengthAdjust="spacing" textLength="14" x="73.5" y="919.8125">21</text><text fill="#000000" font-family="sans-serif" font-size="13" lengthAdjust="spacing" textLength="64" x="91.5" y="911.167">selects the</text><text fill="#000000" font-family="sans-serif" font-size="13" lengthAdjust="spacing" textLength="42" x="91.5" y="928.458">phases</text><polygon fill="#181818" points="518.5,961.0117,528.5,965.0117,518.5,969.0117,522.5,965.0117" style="stroke:#181818;stroke-width:1.0;"/><line style="stroke:#181818;stroke-width:1.0;" x1="219.5" x2="524.5" y1="965.0117" y2="965.0117"/><text fill="#000000" font-family="sans-serif" font-size="13" font-weight="bold" lengthAdjust="spacing" textLength="14" x="226.5" y="959.749">22</text><text fill="#000000" font-family="sans-serif" font-size="13" lengthAdjust="spacing" textLength="274" x="244.5" y="959.749">definePhaseForJobOpening(jobOpening, phase)</text><polygon fill="#181818" points="1479,992.3027,1489,996.3027,1479,1000.3027,1483,996.3027" style="stroke:#181818;stroke-width:1.0;"/><line style="stroke:#181818;stroke-width:1.0;" x1="540.5" x2="1485" y1="996.3027" y2="996.3027"/><text fill="#000000" font-family="sans-serif" font-size="13" font-weight="bold" lengthAdjust="spacing" textLength="14" x="547.5" y="991.04">23</text><text fill="#000000" font-family="sans-serif" font-size="13" lengthAdjust="spacing" textLength="114" x="565.5" y="991.04">definePhase(phase)</text><polygon fill="#181818" points="959.5,1053.5938,969.5,1057.5938,959.5,1061.5938,963.5,1057.5938" style="stroke:#181818;stroke-width:1.0;"/><line style="stroke:#181818;stroke-width:1.0;" x1="540.5" x2="965.5" y1="1057.5938" y2="1057.5938"/><text fill="#000000" font-family="sans-serif" font-size="13" font-weight="bold" lengthAdjust="spacing" textLength="14" x="547.5" y="1052.3311">24</text><text fill="#000000" font-family="sans-serif" font-size="13" lengthAdjust="spacing" textLength="99" x="565.5" y="1052.3311">save(jobOpening)</text><polygon fill="#181818" points="230.5,1084.8848,220.5,1088.8848,230.5,1092.8848,226.5,1088.8848" style="stroke:#181818;stroke-width:1.0;"/><line style="stroke:#181818;stroke-width:1.0;stroke-dasharray:2.0,2.0;" x1="224.5" x2="534.5" y1="1088.8848" y2="1088.8848"/><text fill="#000000" font-family="sans-serif" font-size="13" font-weight="bold" lengthAdjust="spacing" textLength="14" x="236.5" y="1083.6221">25</text><text fill="#000000" font-family="sans-serif" font-size="13" lengthAdjust="spacing" textLength="93" x="254.5" y="1083.6221">returns success</text><polygon fill="#181818" points="77.5,1116.1758,67.5,1120.1758,77.5,1124.1758,73.5,1120.1758" style="stroke:#181818;stroke-width:1.0;"/><line style="stroke:#181818;stroke-width:1.0;stroke-dasharray:2.0,2.0;" x1="71.5" x2="208.5" y1="1120.1758" y2="1120.1758"/><text fill="#000000" font-family="sans-serif" font-size="13" font-weight="bold" lengthAdjust="spacing" textLength="14" x="83.5" y="1114.9131">26</text><text fill="#000000" font-family="sans-serif" font-size="13" lengthAdjust="spacing" textLength="101" x="101.5" y="1114.9131">displays success</text><!--SRC=[ZPJ1Rkem44Nt_WgBpKib-05K8Jr5VLAgq4PGTcoCCmK_6Jko7QJ-VITEWkD0Q5dQvyxrt9dWX9D0j-1egcjZuO-b7y3u2GpD54rFp1o145OxhUhp0GnXt6b3qzewVGQpPeeTaMMMfcjICUC45nLJZiwmPd5Y5Z9L6Ct1sbqsQxXTHf-VQx5Q_O2dMZcZfGJZPUd79aSXgoefE7D2gt65N5ZtgW_l5IYXZcDzVhT0oHmxe2kT1UK6Acq5TldbXQ_l6vIPw-7Ojj3MYeC4_tgx1NCH7BooABQejEr9P9P1iDiXCBBCNXuw1cttGAHBVMQYwOWiLat4IwfLhbb9ce692tE0fmGlyDediQJS01ud_wF6vtjLTGs5dYxyAPOgxLAfBPI3l9EdODLWnBEeoJlHfr3bNodVVj1wdEIzked_rrg4IIDO36n3VvQK4A6TIUXhWiq7_VJnJg2UHA2jkaPGubfQwawmLwYXkXVXPL_BWWH-1uf3hw95IxZ_NgT2RtRlHXBUF90XIHeQHRXtrwWVIR8NWkWYs7Xs60CINKtSpXw89uM36fG8FiLDCMIxOYtxAQG34tztUvMq9lERKgDU1uMlhK-5F8RZ5PXc-osujmHTM5FZxwx3v9Uq19n9w_9Fcx3wW-7CsuYdji4FOL0c6TCOSHnu_FbPTe5e5U8W3BZQA4jjpPj_xeT9bC9Madq567_V]--></g></svg>