<?xml version="1.0" encoding="us-ascii" standalone="no"?><svg xmlns="http://www.w3.org/2000/svg" xmlns:xlink="http://www.w3.org/1999/xlink" contentStyleType="text/css" height="1674px" preserveAspectRatio="none" style="width:2096px;height:1674px;background:#FFFFFF;" version="1.1" viewBox="0 0 2096 1674" width="2096px" zoomAndPan="magnify"><defs/><g><rect fill="#FFFFFF" height="1479.7559" style="stroke:#181818;stroke-width:1.0;" width="10" x="63.5" y="93.6211"/><rect fill="#FFFFFF" height="583.6074" style="stroke:#181818;stroke-width:1.0;" width="10" x="521.5" y="116.9121"/><rect fill="#FFFFFF" height="340.9102" style="stroke:#181818;stroke-width:1.0;" width="10" x="521.5" y="731.8105"/><rect fill="#FFFFFF" height="31.291" style="stroke:#181818;stroke-width:1.0;" width="10" x="521.5" y="1104.0117"/><rect fill="#FFFFFF" height="31.291" style="stroke:#181818;stroke-width:1.0;" width="10" x="521.5" y="1166.5938"/><rect fill="#FFFFFF" height="344.2012" style="stroke:#181818;stroke-width:1.0;" width="10" x="521.5" y="1229.1758"/><rect fill="#FFFFFF" height="458.7832" style="stroke:#181818;stroke-width:1.0;" width="10" x="817.5" y="210.4453"/><rect fill="#FFFFFF" height="167.4551" style="stroke:#181818;stroke-width:1.0;" width="10" x="822.5" y="249.7363"/><rect fill="#FFFFFF" height="167.4551" style="stroke:#181818;stroke-width:1.0;" width="10" x="822.5" y="463.4824"/><rect fill="#FFFFFF" height="278.3281" style="stroke:#181818;stroke-width:1.0;" width="10" x="817.5" y="763.1016"/><rect fill="#FFFFFF" height="200.7461" style="stroke:#181818;stroke-width:1.0;" width="10" x="822.5" y="802.3926"/><rect fill="#FFFFFF" height="281.6191" style="stroke:#181818;stroke-width:1.0;" width="10" x="817.5" y="1260.4668"/><rect fill="#FFFFFF" height="93.873" style="stroke:#181818;stroke-width:1.0;" width="10" x="989" y="286.0273"/><rect fill="#FFFFFF" height="93.873" style="stroke:#181818;stroke-width:1.0;" width="10" x="1133.5" y="499.7734"/><rect fill="#FFFFFF" height="31.291" style="stroke:#181818;stroke-width:1.0;" width="10" x="1431" y="896.2656"/><rect fill="#FFFFFF" height="31.291" style="stroke:#181818;stroke-width:1.0;" width="10" x="1431" y="1323.0488"/><rect fill="#FFFFFF" height="31.291" style="stroke:#181818;stroke-width:1.0;" width="10" x="1431" y="1448.2129"/><rect fill="#FFFFFF" height="31.291" style="stroke:#181818;stroke-width:1.0;" width="10" x="1583.5" y="317.3184"/><rect fill="#FFFFFF" height="31.291" style="stroke:#181818;stroke-width:1.0;" width="10" x="1746" y="1385.6309"/><rect fill="#FFFFFF" height="31.291" style="stroke:#181818;stroke-width:1.0;" width="10" x="1881.5" y="531.0645"/><rect fill="#FFFFFF" height="120.1641" style="stroke:#181818;stroke-width:1.0;" width="10" x="2006.5" y="838.6836"/><rect fill="#FFFFFF" height="219.0371" style="stroke:#181818;stroke-width:1.0;" width="10" x="2006.5" y="1291.7578"/><rect fill="none" height="113.1641" style="stroke:#000000;stroke-width:1.5;" width="1376" x="714" y="853.6836"/><line style="stroke:#181818;stroke-width:0.5;stroke-dasharray:5.0,5.0;" x1="68" x2="68" y1="83.6211" y2="1591.377"/><line style="stroke:#181818;stroke-width:0.5;stroke-dasharray:5.0,5.0;" x1="526" x2="526" y1="83.6211" y2="1591.377"/><line style="stroke:#181818;stroke-width:0.5;stroke-dasharray:5.0,5.0;" x1="822" x2="822" y1="166.0332" y2="1591.377"/><line style="stroke:#181818;stroke-width:0.5;stroke-dasharray:5.0,5.0;" x1="994" x2="994" y1="83.6211" y2="1591.377"/><line style="stroke:#181818;stroke-width:0.5;stroke-dasharray:5.0,5.0;" x1="1138" x2="1138" y1="83.6211" y2="1591.377"/><line style="stroke:#181818;stroke-width:0.5;stroke-dasharray:5.0,5.0;" x1="1288" x2="1288" y1="83.6211" y2="1591.377"/><line style="stroke:#181818;stroke-width:0.5;stroke-dasharray:5.0,5.0;" x1="1436" x2="1436" y1="83.6211" y2="1591.377"/><line style="stroke:#181818;stroke-width:0.5;stroke-dasharray:5.0,5.0;" x1="1588" x2="1588" y1="83.6211" y2="1591.377"/><line style="stroke:#181818;stroke-width:0.5;stroke-dasharray:5.0,5.0;" x1="1751" x2="1751" y1="83.6211" y2="1591.377"/><line style="stroke:#181818;stroke-width:0.5;stroke-dasharray:5.0,5.0;" x1="1886" x2="1886" y1="83.6211" y2="1591.377"/><line style="stroke:#181818;stroke-width:0.5;stroke-dasharray:5.0,5.0;" x1="2011" x2="2011" y1="83.6211" y2="1591.377"/><text fill="#000000" font-family="sans-serif" font-size="14" lengthAdjust="spacing" textLength="121" x="5" y="80.1074">Customer Manager</text><ellipse cx="68.5" cy="13.5" fill="#E2E2F0" rx="8" ry="8" style="stroke:#181818;stroke-width:0.5;"/><path d="M68.5,21.5 L68.5,48.5 M55.5,29.5 L81.5,29.5 M68.5,48.5 L55.5,63.5 M68.5,48.5 L81.5,63.5 " fill="none" style="stroke:#181818;stroke-width:0.5;"/><text fill="#000000" font-family="sans-serif" font-size="14" lengthAdjust="spacing" textLength="121" x="5" y="1605.4844">Customer Manager</text><ellipse cx="68.5" cy="1617.498" fill="#E2E2F0" rx="8" ry="8" style="stroke:#181818;stroke-width:0.5;"/><path d="M68.5,1625.498 L68.5,1652.498 M55.5,1633.498 L81.5,1633.498 M68.5,1652.498 L55.5,1667.498 M68.5,1652.498 L81.5,1667.498 " fill="none" style="stroke:#181818;stroke-width:0.5;"/><rect fill="#E2E2F0" height="51.2422" rx="2.5" ry="2.5" style="stroke:#181818;stroke-width:0.5;" width="147" x="453" y="31.3789"/><text fill="#000000" font-family="sans-serif" font-size="14" font-style="italic" lengthAdjust="spacing" textLength="30" x="511.5" y="53.4863">&#171;UI&#187;</text><text fill="#000000" font-family="sans-serif" font-size="14" lengthAdjust="spacing" textLength="133" x="460" y="72.1074">UpdateJobOpeningUI</text><rect fill="#E2E2F0" height="51.2422" rx="2.5" ry="2.5" style="stroke:#181818;stroke-width:0.5;" width="147" x="453" y="1590.377"/><text fill="#000000" font-family="sans-serif" font-size="14" font-style="italic" lengthAdjust="spacing" textLength="30" x="511.5" y="1612.4844">&#171;UI&#187;</text><text fill="#000000" font-family="sans-serif" font-size="14" lengthAdjust="spacing" textLength="133" x="460" y="1631.1055">UpdateJobOpeningUI</text><rect fill="#E2E2F0" height="51.2422" rx="2.5" ry="2.5" style="stroke:#181818;stroke-width:0.5;" width="197" x="724" y="1590.377"/><text fill="#000000" font-family="sans-serif" font-size="14" font-style="italic" lengthAdjust="spacing" textLength="85" x="780" y="1612.4844">&#171;Application&#187;</text><text fill="#000000" font-family="sans-serif" font-size="14" lengthAdjust="spacing" textLength="183" x="731" y="1631.1055">UpdateJobOpeningController</text><rect fill="#E2E2F0" height="51.2422" rx="2.5" ry="2.5" style="stroke:#181818;stroke-width:0.5;" width="126" x="931" y="31.3789"/><text fill="#000000" font-family="sans-serif" font-size="14" font-style="italic" lengthAdjust="spacing" textLength="62" x="963" y="53.4863">&#171;Service&#187;</text><text fill="#000000" font-family="sans-serif" font-size="14" lengthAdjust="spacing" textLength="112" x="938" y="72.1074">ClientUserService</text><rect fill="#E2E2F0" height="51.2422" rx="2.5" ry="2.5" style="stroke:#181818;stroke-width:0.5;" width="126" x="931" y="1590.377"/><text fill="#000000" font-family="sans-serif" font-size="14" font-style="italic" lengthAdjust="spacing" textLength="62" x="963" y="1612.4844">&#171;Service&#187;</text><text fill="#000000" font-family="sans-serif" font-size="14" lengthAdjust="spacing" textLength="112" x="938" y="1631.1055">ClientUserService</text><rect fill="#E2E2F0" height="51.2422" rx="2.5" ry="2.5" style="stroke:#181818;stroke-width:0.5;" width="143" x="1067" y="31.3789"/><text fill="#000000" font-family="sans-serif" font-size="14" font-style="italic" lengthAdjust="spacing" textLength="62" x="1107.5" y="53.4863">&#171;Service&#187;</text><text fill="#000000" font-family="sans-serif" font-size="14" lengthAdjust="spacing" textLength="129" x="1074" y="72.1074">AuthorizationService</text><rect fill="#E2E2F0" height="51.2422" rx="2.5" ry="2.5" style="stroke:#181818;stroke-width:0.5;" width="143" x="1067" y="1590.377"/><text fill="#000000" font-family="sans-serif" font-size="14" font-style="italic" lengthAdjust="spacing" textLength="62" x="1107.5" y="1612.4844">&#171;Service&#187;</text><text fill="#000000" font-family="sans-serif" font-size="14" lengthAdjust="spacing" textLength="129" x="1074" y="1631.1055">AuthorizationService</text><rect fill="#E2E2F0" height="51.2422" rx="2.5" ry="2.5" style="stroke:#181818;stroke-width:0.5;" width="137" x="1220" y="31.3789"/><text fill="#000000" font-family="sans-serif" font-size="14" font-style="italic" lengthAdjust="spacing" textLength="62" x="1257.5" y="53.4863">&#171;Service&#187;</text><text fill="#000000" font-family="sans-serif" font-size="14" lengthAdjust="spacing" textLength="123" x="1227" y="72.1074">JobOpeningService</text><rect fill="#E2E2F0" height="51.2422" rx="2.5" ry="2.5" style="stroke:#181818;stroke-width:0.5;" width="137" x="1220" y="1590.377"/><text fill="#000000" font-family="sans-serif" font-size="14" font-style="italic" lengthAdjust="spacing" textLength="62" x="1257.5" y="1612.4844">&#171;Service&#187;</text><text fill="#000000" font-family="sans-serif" font-size="14" lengthAdjust="spacing" textLength="123" x="1227" y="1631.1055">JobOpeningService</text><rect fill="#E2E2F0" height="51.2422" rx="2.5" ry="2.5" style="stroke:#181818;stroke-width:0.5;" width="138" x="1367" y="31.3789"/><text fill="#000000" font-family="sans-serif" font-size="14" font-style="italic" lengthAdjust="spacing" textLength="64" x="1404" y="53.4863">&#171;Domain&#187;</text><text fill="#000000" font-family="sans-serif" font-size="14" lengthAdjust="spacing" textLength="124" x="1374" y="72.1074">JobOpeningMapper</text><rect fill="#E2E2F0" height="51.2422" rx="2.5" ry="2.5" style="stroke:#181818;stroke-width:0.5;" width="138" x="1367" y="1590.377"/><text fill="#000000" font-family="sans-serif" font-size="14" font-style="italic" lengthAdjust="spacing" textLength="64" x="1404" y="1612.4844">&#171;Domain&#187;</text><text fill="#000000" font-family="sans-serif" font-size="14" lengthAdjust="spacing" textLength="124" x="1374" y="1631.1055">JobOpeningMapper</text><rect fill="#E2E2F0" height="51.2422" rx="2.5" ry="2.5" style="stroke:#181818;stroke-width:0.5;" width="147" x="1515" y="31.3789"/><text fill="#000000" font-family="sans-serif" font-size="14" font-style="italic" lengthAdjust="spacing" textLength="90" x="1543.5" y="53.4863">&#171;Persistence&#187;</text><text fill="#000000" font-family="sans-serif" font-size="14" lengthAdjust="spacing" textLength="133" x="1522" y="72.1074">ClientUserRepository</text><rect fill="#E2E2F0" height="51.2422" rx="2.5" ry="2.5" style="stroke:#181818;stroke-width:0.5;" width="147" x="1515" y="1590.377"/><text fill="#000000" font-family="sans-serif" font-size="14" font-style="italic" lengthAdjust="spacing" textLength="90" x="1543.5" y="1612.4844">&#171;Persistence&#187;</text><text fill="#000000" font-family="sans-serif" font-size="14" lengthAdjust="spacing" textLength="133" x="1522" y="1631.1055">ClientUserRepository</text><rect fill="#E2E2F0" height="51.2422" rx="2.5" ry="2.5" style="stroke:#181818;stroke-width:0.5;" width="158" x="1672" y="31.3789"/><text fill="#000000" font-family="sans-serif" font-size="14" font-style="italic" lengthAdjust="spacing" textLength="90" x="1706" y="53.4863">&#171;Persistence&#187;</text><text fill="#000000" font-family="sans-serif" font-size="14" lengthAdjust="spacing" textLength="144" x="1679" y="72.1074">JobOpeningRepository</text><rect fill="#E2E2F0" height="51.2422" rx="2.5" ry="2.5" style="stroke:#181818;stroke-width:0.5;" width="158" x="1672" y="1590.377"/><text fill="#000000" font-family="sans-serif" font-size="14" font-style="italic" lengthAdjust="spacing" textLength="90" x="1706" y="1612.4844">&#171;Persistence&#187;</text><text fill="#000000" font-family="sans-serif" font-size="14" lengthAdjust="spacing" textLength="144" x="1679" y="1631.1055">JobOpeningRepository</text><rect fill="#E2E2F0" height="32.6211" rx="2.5" ry="2.5" style="stroke:#181818;stroke-width:0.5;" width="93" x="1840" y="50"/><text fill="#000000" font-family="sans-serif" font-size="14" lengthAdjust="spacing" textLength="79" x="1847" y="72.1074">UserSession</text><rect fill="#E2E2F0" height="32.6211" rx="2.5" ry="2.5" style="stroke:#181818;stroke-width:0.5;" width="93" x="1840" y="1590.377"/><text fill="#000000" font-family="sans-serif" font-size="14" lengthAdjust="spacing" textLength="79" x="1847" y="1612.4844">UserSession</text><rect fill="#E2E2F0" height="32.6211" rx="2.5" ry="2.5" style="stroke:#181818;stroke-width:0.5;" width="137" x="1943" y="50"/><text fill="#000000" font-family="sans-serif" font-size="14" lengthAdjust="spacing" textLength="123" x="1950" y="72.1074">JobOpeningService</text><rect fill="#E2E2F0" height="32.6211" rx="2.5" ry="2.5" style="stroke:#181818;stroke-width:0.5;" width="137" x="1943" y="1590.377"/><text fill="#000000" font-family="sans-serif" font-size="14" lengthAdjust="spacing" textLength="123" x="1950" y="1612.4844">JobOpeningService</text><rect fill="#FFFFFF" height="1479.7559" style="stroke:#181818;stroke-width:1.0;" width="10" x="63.5" y="93.6211"/><rect fill="#FFFFFF" height="583.6074" style="stroke:#181818;stroke-width:1.0;" width="10" x="521.5" y="116.9121"/><rect fill="#FFFFFF" height="340.9102" style="stroke:#181818;stroke-width:1.0;" width="10" x="521.5" y="731.8105"/><rect fill="#FFFFFF" height="31.291" style="stroke:#181818;stroke-width:1.0;" width="10" x="521.5" y="1104.0117"/><rect fill="#FFFFFF" height="31.291" style="stroke:#181818;stroke-width:1.0;" width="10" x="521.5" y="1166.5938"/><rect fill="#FFFFFF" height="344.2012" style="stroke:#181818;stroke-width:1.0;" width="10" x="521.5" y="1229.1758"/><rect fill="#FFFFFF" height="458.7832" style="stroke:#181818;stroke-width:1.0;" width="10" x="817.5" y="210.4453"/><rect fill="#FFFFFF" height="167.4551" style="stroke:#181818;stroke-width:1.0;" width="10" x="822.5" y="249.7363"/><rect fill="#FFFFFF" height="167.4551" style="stroke:#181818;stroke-width:1.0;" width="10" x="822.5" y="463.4824"/><rect fill="#FFFFFF" height="278.3281" style="stroke:#181818;stroke-width:1.0;" width="10" x="817.5" y="763.1016"/><rect fill="#FFFFFF" height="200.7461" style="stroke:#181818;stroke-width:1.0;" width="10" x="822.5" y="802.3926"/><rect fill="#FFFFFF" height="281.6191" style="stroke:#181818;stroke-width:1.0;" width="10" x="817.5" y="1260.4668"/><rect fill="#FFFFFF" height="93.873" style="stroke:#181818;stroke-width:1.0;" width="10" x="989" y="286.0273"/><rect fill="#FFFFFF" height="93.873" style="stroke:#181818;stroke-width:1.0;" width="10" x="1133.5" y="499.7734"/><rect fill="#FFFFFF" height="31.291" style="stroke:#181818;stroke-width:1.0;" width="10" x="1431" y="896.2656"/><rect fill="#FFFFFF" height="31.291" style="stroke:#181818;stroke-width:1.0;" width="10" x="1431" y="1323.0488"/><rect fill="#FFFFFF" height="31.291" style="stroke:#181818;stroke-width:1.0;" width="10" x="1431" y="1448.2129"/><rect fill="#FFFFFF" height="31.291" style="stroke:#181818;stroke-width:1.0;" width="10" x="1583.5" y="317.3184"/><rect fill="#FFFFFF" height="31.291" style="stroke:#181818;stroke-width:1.0;" width="10" x="1746" y="1385.6309"/><rect fill="#FFFFFF" height="31.291" style="stroke:#181818;stroke-width:1.0;" width="10" x="1881.5" y="531.0645"/><rect fill="#FFFFFF" height="120.1641" style="stroke:#181818;stroke-width:1.0;" width="10" x="2006.5" y="838.6836"/><rect fill="#FFFFFF" height="219.0371" style="stroke:#181818;stroke-width:1.0;" width="10" x="2006.5" y="1291.7578"/><polygon fill="#181818" points="509.5,112.9121,519.5,116.9121,509.5,120.9121,513.5,116.9121" style="stroke:#181818;stroke-width:1.0;"/><line style="stroke:#181818;stroke-width:1.0;" x1="73.5" x2="515.5" y1="116.9121" y2="116.9121"/><text fill="#000000" font-family="sans-serif" font-size="13" font-weight="bold" lengthAdjust="spacing" textLength="7" x="80.5" y="111.6494">1</text><text fill="#000000" font-family="sans-serif" font-size="13" lengthAdjust="spacing" textLength="169" x="91.5" y="111.6494">Asks to update a job opening</text><polygon fill="#181818" points="712,144.2031,722,148.2031,712,152.2031,716,148.2031" style="stroke:#181818;stroke-width:1.0;"/><line style="stroke:#181818;stroke-width:1.0;" x1="531.5" x2="718" y1="148.2031" y2="148.2031"/><text fill="#000000" font-family="sans-serif" font-size="13" font-weight="bold" lengthAdjust="spacing" textLength="7" x="538.5" y="142.9404">2</text><text fill="#000000" font-family="sans-serif" font-size="13" lengthAdjust="spacing" textLength="36" x="549.5" y="142.9404">create</text><rect fill="#E2E2F0" height="51.2422" rx="2.5" ry="2.5" style="stroke:#181818;stroke-width:0.5;" width="197" x="724" y="124.9121"/><text fill="#000000" font-family="sans-serif" font-size="14" font-style="italic" lengthAdjust="spacing" textLength="85" x="780" y="147.0195">&#171;Application&#187;</text><text fill="#000000" font-family="sans-serif" font-size="14" lengthAdjust="spacing" textLength="183" x="731" y="165.6406">UpdateJobOpeningController</text><polygon fill="#181818" points="805.5,206.4453,815.5,210.4453,805.5,214.4453,809.5,210.4453" style="stroke:#181818;stroke-width:1.0;"/><line style="stroke:#181818;stroke-width:1.0;" x1="531.5" x2="811.5" y1="210.4453" y2="210.4453"/><text fill="#000000" font-family="sans-serif" font-size="13" font-weight="bold" lengthAdjust="spacing" textLength="7" x="538.5" y="205.1826">3</text><text fill="#000000" font-family="sans-serif" font-size="13" lengthAdjust="spacing" textLength="78" x="549.5" y="205.1826">showClients()</text><line style="stroke:#181818;stroke-width:1.0;" x1="827.5" x2="874.5" y1="236.7363" y2="236.7363"/><line style="stroke:#181818;stroke-width:1.0;" x1="874.5" x2="874.5" y1="236.7363" y2="249.7363"/><line style="stroke:#181818;stroke-width:1.0;" x1="833.5" x2="874.5" y1="249.7363" y2="249.7363"/><polygon fill="#181818" points="843.5,245.7363,833.5,249.7363,843.5,253.7363,839.5,249.7363" style="stroke:#181818;stroke-width:1.0;"/><text fill="#000000" font-family="sans-serif" font-size="13" font-weight="bold" lengthAdjust="spacing" textLength="7" x="839.5" y="231.4736">4</text><text fill="#000000" font-family="sans-serif" font-size="13" lengthAdjust="spacing" textLength="61" x="850.5" y="231.4736">allClients()</text><polygon fill="#181818" points="977,282.0273,987,286.0273,977,290.0273,981,286.0273" style="stroke:#181818;stroke-width:1.0;"/><line style="stroke:#181818;stroke-width:1.0;" x1="832.5" x2="983" y1="286.0273" y2="286.0273"/><text fill="#000000" font-family="sans-serif" font-size="13" font-weight="bold" lengthAdjust="spacing" textLength="7" x="839.5" y="280.7646">5</text><text fill="#000000" font-family="sans-serif" font-size="13" lengthAdjust="spacing" textLength="55" x="850.5" y="280.7646">allUsers()</text><polygon fill="#181818" points="1571.5,313.3184,1581.5,317.3184,1571.5,321.3184,1575.5,317.3184" style="stroke:#181818;stroke-width:1.0;"/><line style="stroke:#181818;stroke-width:1.0;" x1="999" x2="1577.5" y1="317.3184" y2="317.3184"/><text fill="#000000" font-family="sans-serif" font-size="13" font-weight="bold" lengthAdjust="spacing" textLength="7" x="1006" y="312.0557">6</text><text fill="#000000" font-family="sans-serif" font-size="13" lengthAdjust="spacing" textLength="78" x="1017" y="312.0557">findAllActive()</text><polygon fill="#181818" points="1010,344.6094,1000,348.6094,1010,352.6094,1006,348.6094" style="stroke:#181818;stroke-width:1.0;"/><line style="stroke:#181818;stroke-width:1.0;stroke-dasharray:2.0,2.0;" x1="1004" x2="1587.5" y1="348.6094" y2="348.6094"/><text fill="#000000" font-family="sans-serif" font-size="13" font-weight="bold" lengthAdjust="spacing" textLength="7" x="1016" y="343.3467">7</text><text fill="#000000" font-family="sans-serif" font-size="13" lengthAdjust="spacing" textLength="55" x="1027" y="343.3467">all clients</text><polygon fill="#181818" points="843.5,375.9004,833.5,379.9004,843.5,383.9004,839.5,379.9004" style="stroke:#181818;stroke-width:1.0;"/><line style="stroke:#181818;stroke-width:1.0;stroke-dasharray:2.0,2.0;" x1="837.5" x2="993" y1="379.9004" y2="379.9004"/><text fill="#000000" font-family="sans-serif" font-size="13" font-weight="bold" lengthAdjust="spacing" textLength="7" x="849.5" y="374.6377">8</text><text fill="#000000" font-family="sans-serif" font-size="13" lengthAdjust="spacing" textLength="55" x="860.5" y="374.6377">all clients</text><line style="stroke:#181818;stroke-width:1.0;stroke-dasharray:2.0,2.0;" x1="832.5" x2="874.5" y1="416.1914" y2="416.1914"/><line style="stroke:#181818;stroke-width:1.0;stroke-dasharray:2.0,2.0;" x1="874.5" x2="874.5" y1="416.1914" y2="429.1914"/><line style="stroke:#181818;stroke-width:1.0;stroke-dasharray:2.0,2.0;" x1="827.5" x2="874.5" y1="429.1914" y2="429.1914"/><polygon fill="#181818" points="837.5,425.1914,827.5,429.1914,837.5,433.1914,833.5,429.1914" style="stroke:#181818;stroke-width:1.0;"/><text fill="#000000" font-family="sans-serif" font-size="13" font-weight="bold" lengthAdjust="spacing" textLength="7" x="839.5" y="410.9287">9</text><text fill="#000000" font-family="sans-serif" font-size="13" lengthAdjust="spacing" textLength="55" x="850.5" y="410.9287">all clients</text><line style="stroke:#181818;stroke-width:1.0;" x1="827.5" x2="874.5" y1="450.4824" y2="450.4824"/><line style="stroke:#181818;stroke-width:1.0;" x1="874.5" x2="874.5" y1="450.4824" y2="463.4824"/><line style="stroke:#181818;stroke-width:1.0;" x1="833.5" x2="874.5" y1="463.4824" y2="463.4824"/><polygon fill="#181818" points="843.5,459.4824,833.5,463.4824,843.5,467.4824,839.5,463.4824" style="stroke:#181818;stroke-width:1.0;"/><text fill="#000000" font-family="sans-serif" font-size="13" font-weight="bold" lengthAdjust="spacing" textLength="14" x="839.5" y="445.2197">10</text><text fill="#000000" font-family="sans-serif" font-size="13" lengthAdjust="spacing" textLength="105" x="857.5" y="445.2197">getLoggedInUser()</text><polygon fill="#181818" points="1121.5,495.7734,1131.5,499.7734,1121.5,503.7734,1125.5,499.7734" style="stroke:#181818;stroke-width:1.0;"/><line style="stroke:#181818;stroke-width:1.0;" x1="832.5" x2="1127.5" y1="499.7734" y2="499.7734"/><text fill="#000000" font-family="sans-serif" font-size="13" font-weight="bold" lengthAdjust="spacing" textLength="14" x="839.5" y="494.5107">11</text><text fill="#000000" font-family="sans-serif" font-size="13" lengthAdjust="spacing" textLength="53" x="857.5" y="494.5107">session()</text><polygon fill="#181818" points="1869.5,527.0645,1879.5,531.0645,1869.5,535.0645,1873.5,531.0645" style="stroke:#181818;stroke-width:1.0;"/><line style="stroke:#181818;stroke-width:1.0;" x1="1143.5" x2="1875.5" y1="531.0645" y2="531.0645"/><text fill="#000000" font-family="sans-serif" font-size="13" font-weight="bold" lengthAdjust="spacing" textLength="14" x="1150.5" y="525.8018">12</text><text fill="#000000" font-family="sans-serif" font-size="13" lengthAdjust="spacing" textLength="113" x="1168.5" y="525.8018">authenticatedUser()</text><polygon fill="#181818" points="1154.5,558.3555,1144.5,562.3555,1154.5,566.3555,1150.5,562.3555" style="stroke:#181818;stroke-width:1.0;"/><line style="stroke:#181818;stroke-width:1.0;stroke-dasharray:2.0,2.0;" x1="1148.5" x2="1885.5" y1="562.3555" y2="562.3555"/><text fill="#000000" font-family="sans-serif" font-size="13" font-weight="bold" lengthAdjust="spacing" textLength="14" x="1160.5" y="557.0928">13</text><text fill="#000000" font-family="sans-serif" font-size="13" lengthAdjust="spacing" textLength="125" x="1178.5" y="557.0928">returns logged in user</text><polygon fill="#181818" points="843.5,589.6465,833.5,593.6465,843.5,597.6465,839.5,593.6465" style="stroke:#181818;stroke-width:1.0;"/><line style="stroke:#181818;stroke-width:1.0;stroke-dasharray:2.0,2.0;" x1="837.5" x2="1137.5" y1="593.6465" y2="593.6465"/><text fill="#000000" font-family="sans-serif" font-size="13" font-weight="bold" lengthAdjust="spacing" textLength="14" x="849.5" y="588.3838">14</text><text fill="#000000" font-family="sans-serif" font-size="13" lengthAdjust="spacing" textLength="125" x="867.5" y="588.3838">returns logged in user</text><line style="stroke:#181818;stroke-width:1.0;stroke-dasharray:2.0,2.0;" x1="832.5" x2="874.5" y1="629.9375" y2="629.9375"/><line style="stroke:#181818;stroke-width:1.0;stroke-dasharray:2.0,2.0;" x1="874.5" x2="874.5" y1="629.9375" y2="642.9375"/><line style="stroke:#181818;stroke-width:1.0;stroke-dasharray:2.0,2.0;" x1="827.5" x2="874.5" y1="642.9375" y2="642.9375"/><polygon fill="#181818" points="837.5,638.9375,827.5,642.9375,837.5,646.9375,833.5,642.9375" style="stroke:#181818;stroke-width:1.0;"/><text fill="#000000" font-family="sans-serif" font-size="13" font-weight="bold" lengthAdjust="spacing" textLength="14" x="839.5" y="624.6748">15</text><text fill="#000000" font-family="sans-serif" font-size="13" lengthAdjust="spacing" textLength="81" x="857.5" y="624.6748">logged in user</text><polygon fill="#181818" points="542.5,665.2285,532.5,669.2285,542.5,673.2285,538.5,669.2285" style="stroke:#181818;stroke-width:1.0;"/><line style="stroke:#181818;stroke-width:1.0;stroke-dasharray:2.0,2.0;" x1="536.5" x2="821.5" y1="669.2285" y2="669.2285"/><text fill="#000000" font-family="sans-serif" font-size="13" font-weight="bold" lengthAdjust="spacing" textLength="14" x="548.5" y="663.9658">16</text><text fill="#000000" font-family="sans-serif" font-size="13" lengthAdjust="spacing" textLength="244" x="566.5" y="663.9658">customers assigned to customer manager</text><polygon fill="#181818" points="84.5,696.5195,74.5,700.5195,84.5,704.5195,80.5,700.5195" style="stroke:#181818;stroke-width:1.0;"/><line style="stroke:#181818;stroke-width:1.0;stroke-dasharray:2.0,2.0;" x1="78.5" x2="525.5" y1="700.5195" y2="700.5195"/><text fill="#000000" font-family="sans-serif" font-size="13" font-weight="bold" lengthAdjust="spacing" textLength="14" x="90.5" y="695.2568">17</text><text fill="#000000" font-family="sans-serif" font-size="13" lengthAdjust="spacing" textLength="406" x="108.5" y="695.2568">Requests to select customer assigned to logged in customer manager</text><polygon fill="#181818" points="509.5,727.8105,519.5,731.8105,509.5,735.8105,513.5,731.8105" style="stroke:#181818;stroke-width:1.0;"/><line style="stroke:#181818;stroke-width:1.0;" x1="73.5" x2="515.5" y1="731.8105" y2="731.8105"/><text fill="#000000" font-family="sans-serif" font-size="13" font-weight="bold" lengthAdjust="spacing" textLength="14" x="80.5" y="726.5479">18</text><text fill="#000000" font-family="sans-serif" font-size="13" lengthAdjust="spacing" textLength="153" x="98.5" y="726.5479">chooses desired customer</text><polygon fill="#181818" points="805.5,759.1016,815.5,763.1016,805.5,767.1016,809.5,763.1016" style="stroke:#181818;stroke-width:1.0;"/><line style="stroke:#181818;stroke-width:1.0;" x1="531.5" x2="811.5" y1="763.1016" y2="763.1016"/><text fill="#000000" font-family="sans-serif" font-size="13" font-weight="bold" lengthAdjust="spacing" textLength="14" x="538.5" y="757.8389">19</text><text fill="#000000" font-family="sans-serif" font-size="13" lengthAdjust="spacing" textLength="171" x="556.5" y="757.8389">showJobOpenings(clientUser)</text><line style="stroke:#181818;stroke-width:1.0;" x1="827.5" x2="874.5" y1="789.3926" y2="789.3926"/><line style="stroke:#181818;stroke-width:1.0;" x1="874.5" x2="874.5" y1="789.3926" y2="802.3926"/><line style="stroke:#181818;stroke-width:1.0;" x1="833.5" x2="874.5" y1="802.3926" y2="802.3926"/><polygon fill="#181818" points="843.5,798.3926,833.5,802.3926,843.5,806.3926,839.5,802.3926" style="stroke:#181818;stroke-width:1.0;"/><text fill="#000000" font-family="sans-serif" font-size="13" font-weight="bold" lengthAdjust="spacing" textLength="14" x="839.5" y="784.1299">20</text><text fill="#000000" font-family="sans-serif" font-size="13" lengthAdjust="spacing" textLength="48" x="857.5" y="784.1299">allJobs()</text><polygon fill="#181818" points="1994.5,834.6836,2004.5,838.6836,1994.5,842.6836,1998.5,838.6836" style="stroke:#181818;stroke-width:1.0;"/><line style="stroke:#181818;stroke-width:1.0;" x1="832.5" x2="2000.5" y1="838.6836" y2="838.6836"/><text fill="#000000" font-family="sans-serif" font-size="13" font-weight="bold" lengthAdjust="spacing" textLength="14" x="839.5" y="833.4209">21</text><text fill="#000000" font-family="sans-serif" font-size="13" lengthAdjust="spacing" textLength="48" x="857.5" y="833.4209">allJobs()</text><path d="M714,853.6836 L787,853.6836 L787,862.9746 L777,872.9746 L714,872.9746 L714,853.6836 " fill="#EEEEEE" style="stroke:#000000;stroke-width:1.5;"/><rect fill="none" height="113.1641" style="stroke:#000000;stroke-width:1.5;" width="1376" x="714" y="853.6836"/><text fill="#000000" font-family="sans-serif" font-size="13" font-weight="bold" lengthAdjust="spacing" textLength="28" x="729" y="868.7119">loop</text><text fill="#000000" font-family="sans-serif" font-size="11" font-weight="bold" lengthAdjust="spacing" textLength="94" x="802" y="867.5537">[through all jobs]</text><polygon fill="#181818" points="1452,892.2656,1442,896.2656,1452,900.2656,1448,896.2656" style="stroke:#181818;stroke-width:1.0;"/><line style="stroke:#181818;stroke-width:1.0;" x1="1446" x2="2005.5" y1="896.2656" y2="896.2656"/><text fill="#000000" font-family="sans-serif" font-size="13" font-weight="bold" lengthAdjust="spacing" textLength="14" x="1458" y="891.0029">22</text><text fill="#000000" font-family="sans-serif" font-size="13" lengthAdjust="spacing" textLength="56" x="1476" y="891.0029">toDto(job)</text><polygon fill="#181818" points="1994.5,923.5566,2004.5,927.5566,1994.5,931.5566,1998.5,927.5566" style="stroke:#181818;stroke-width:1.0;"/><line style="stroke:#181818;stroke-width:1.0;stroke-dasharray:2.0,2.0;" x1="1436" x2="2000.5" y1="927.5566" y2="927.5566"/><text fill="#000000" font-family="sans-serif" font-size="13" font-weight="bold" lengthAdjust="spacing" textLength="14" x="1443" y="922.2939">23</text><text fill="#000000" font-family="sans-serif" font-size="13" lengthAdjust="spacing" textLength="39" x="1461" y="922.2939">job dto</text><polygon fill="#181818" points="843.5,954.8477,833.5,958.8477,843.5,962.8477,839.5,958.8477" style="stroke:#181818;stroke-width:1.0;"/><line style="stroke:#181818;stroke-width:1.0;stroke-dasharray:2.0,2.0;" x1="837.5" x2="2010.5" y1="958.8477" y2="958.8477"/><text fill="#000000" font-family="sans-serif" font-size="13" font-weight="bold" lengthAdjust="spacing" textLength="14" x="849.5" y="953.585">24</text><text fill="#000000" font-family="sans-serif" font-size="13" lengthAdjust="spacing" textLength="41" x="867.5" y="953.585">all jobs</text><line style="stroke:#181818;stroke-width:1.0;stroke-dasharray:2.0,2.0;" x1="832.5" x2="874.5" y1="1002.1387" y2="1002.1387"/><line style="stroke:#181818;stroke-width:1.0;stroke-dasharray:2.0,2.0;" x1="874.5" x2="874.5" y1="1002.1387" y2="1015.1387"/><line style="stroke:#181818;stroke-width:1.0;stroke-dasharray:2.0,2.0;" x1="827.5" x2="874.5" y1="1015.1387" y2="1015.1387"/><polygon fill="#181818" points="837.5,1011.1387,827.5,1015.1387,837.5,1019.1387,833.5,1015.1387" style="stroke:#181818;stroke-width:1.0;"/><text fill="#000000" font-family="sans-serif" font-size="13" font-weight="bold" lengthAdjust="spacing" textLength="14" x="839.5" y="996.876">25</text><text fill="#000000" font-family="sans-serif" font-size="13" lengthAdjust="spacing" textLength="41" x="857.5" y="996.876">all jobs</text><polygon fill="#181818" points="542.5,1037.4297,532.5,1041.4297,542.5,1045.4297,538.5,1041.4297" style="stroke:#181818;stroke-width:1.0;"/><line style="stroke:#181818;stroke-width:1.0;stroke-dasharray:2.0,2.0;" x1="536.5" x2="821.5" y1="1041.4297" y2="1041.4297"/><text fill="#000000" font-family="sans-serif" font-size="13" font-weight="bold" lengthAdjust="spacing" textLength="14" x="548.5" y="1036.167">26</text><text fill="#000000" font-family="sans-serif" font-size="13" lengthAdjust="spacing" textLength="41" x="566.5" y="1036.167">all jobs</text><polygon fill="#181818" points="84.5,1068.7207,74.5,1072.7207,84.5,1076.7207,80.5,1072.7207" style="stroke:#181818;stroke-width:1.0;"/><line style="stroke:#181818;stroke-width:1.0;stroke-dasharray:2.0,2.0;" x1="78.5" x2="525.5" y1="1072.7207" y2="1072.7207"/><text fill="#000000" font-family="sans-serif" font-size="13" font-weight="bold" lengthAdjust="spacing" textLength="14" x="90.5" y="1067.458">27</text><text fill="#000000" font-family="sans-serif" font-size="13" lengthAdjust="spacing" textLength="361" x="108.5" y="1067.458">requests to select job opening to update for selected customer</text><polygon fill="#181818" points="509.5,1100.0117,519.5,1104.0117,509.5,1108.0117,513.5,1104.0117" style="stroke:#181818;stroke-width:1.0;"/><line style="stroke:#181818;stroke-width:1.0;" x1="73.5" x2="515.5" y1="1104.0117" y2="1104.0117"/><text fill="#000000" font-family="sans-serif" font-size="13" font-weight="bold" lengthAdjust="spacing" textLength="14" x="80.5" y="1098.749">28</text><text fill="#000000" font-family="sans-serif" font-size="13" lengthAdjust="spacing" textLength="165" x="98.5" y="1098.749">chooses desired job opening</text><polygon fill="#181818" points="84.5,1131.3027,74.5,1135.3027,84.5,1139.3027,80.5,1135.3027" style="stroke:#181818;stroke-width:1.0;"/><line style="stroke:#181818;stroke-width:1.0;stroke-dasharray:2.0,2.0;" x1="78.5" x2="525.5" y1="1135.3027" y2="1135.3027"/><text fill="#000000" font-family="sans-serif" font-size="13" font-weight="bold" lengthAdjust="spacing" textLength="14" x="90.5" y="1130.04">29</text><text fill="#000000" font-family="sans-serif" font-size="13" lengthAdjust="spacing" textLength="334" x="108.5" y="1130.04">requests to select what to update for selected job opening</text><polygon fill="#181818" points="509.5,1162.5938,519.5,1166.5938,509.5,1170.5938,513.5,1166.5938" style="stroke:#181818;stroke-width:1.0;"/><line style="stroke:#181818;stroke-width:1.0;" x1="73.5" x2="515.5" y1="1166.5938" y2="1166.5938"/><text fill="#000000" font-family="sans-serif" font-size="13" font-weight="bold" lengthAdjust="spacing" textLength="14" x="80.5" y="1161.3311">30</text><text fill="#000000" font-family="sans-serif" font-size="13" lengthAdjust="spacing" textLength="194" x="98.5" y="1161.3311">chooses parameter to be updated</text><polygon fill="#181818" points="84.5,1193.8848,74.5,1197.8848,84.5,1201.8848,80.5,1197.8848" style="stroke:#181818;stroke-width:1.0;"/><line style="stroke:#181818;stroke-width:1.0;stroke-dasharray:2.0,2.0;" x1="78.5" x2="525.5" y1="1197.8848" y2="1197.8848"/><text fill="#000000" font-family="sans-serif" font-size="13" font-weight="bold" lengthAdjust="spacing" textLength="14" x="90.5" y="1192.6221">31</text><text fill="#000000" font-family="sans-serif" font-size="13" lengthAdjust="spacing" textLength="290" x="108.5" y="1192.6221">requests to select new value for chosen parameter</text><polygon fill="#181818" points="509.5,1225.1758,519.5,1229.1758,509.5,1233.1758,513.5,1229.1758" style="stroke:#181818;stroke-width:1.0;"/><line style="stroke:#181818;stroke-width:1.0;" x1="73.5" x2="515.5" y1="1229.1758" y2="1229.1758"/><text fill="#000000" font-family="sans-serif" font-size="13" font-weight="bold" lengthAdjust="spacing" textLength="14" x="80.5" y="1223.9131">32</text><text fill="#000000" font-family="sans-serif" font-size="13" lengthAdjust="spacing" textLength="109" x="98.5" y="1223.9131">chooses new value</text><polygon fill="#181818" points="805.5,1256.4668,815.5,1260.4668,805.5,1264.4668,809.5,1260.4668" style="stroke:#181818;stroke-width:1.0;"/><line style="stroke:#181818;stroke-width:1.0;" x1="531.5" x2="811.5" y1="1260.4668" y2="1260.4668"/><text fill="#000000" font-family="sans-serif" font-size="13" font-weight="bold" lengthAdjust="spacing" textLength="14" x="538.5" y="1255.2041">33</text><text fill="#000000" font-family="sans-serif" font-size="13" lengthAdjust="spacing" textLength="177" x="556.5" y="1255.2041">interviewModel(jobOpeningDto)</text><polygon fill="#181818" points="1994.5,1287.7578,2004.5,1291.7578,1994.5,1295.7578,1998.5,1291.7578" style="stroke:#181818;stroke-width:1.0;"/><line style="stroke:#181818;stroke-width:1.0;" x1="827.5" x2="2000.5" y1="1291.7578" y2="1291.7578"/><text fill="#000000" font-family="sans-serif" font-size="13" font-weight="bold" lengthAdjust="spacing" textLength="14" x="834.5" y="1286.4951">34</text><text fill="#000000" font-family="sans-serif" font-size="13" lengthAdjust="spacing" textLength="308" x="852.5" y="1286.4951">updateinterviewModel(jobOpeningDto, interviewModel)</text><polygon fill="#181818" points="1452,1319.0488,1442,1323.0488,1452,1327.0488,1448,1323.0488" style="stroke:#181818;stroke-width:1.0;"/><line style="stroke:#181818;stroke-width:1.0;" x1="1446" x2="2005.5" y1="1323.0488" y2="1323.0488"/><text fill="#000000" font-family="sans-serif" font-size="13" font-weight="bold" lengthAdjust="spacing" textLength="14" x="1458" y="1317.7861">35</text><text fill="#000000" font-family="sans-serif" font-size="13" lengthAdjust="spacing" textLength="148" x="1476" y="1317.7861">toDomain(jobOpeningDto)</text><polygon fill="#181818" points="1994.5,1350.3398,2004.5,1354.3398,1994.5,1358.3398,1998.5,1354.3398" style="stroke:#181818;stroke-width:1.0;"/><line style="stroke:#181818;stroke-width:1.0;stroke-dasharray:2.0,2.0;" x1="1436" x2="2000.5" y1="1354.3398" y2="1354.3398"/><text fill="#000000" font-family="sans-serif" font-size="13" font-weight="bold" lengthAdjust="spacing" textLength="14" x="1443" y="1349.0771">36</text><text fill="#000000" font-family="sans-serif" font-size="13" lengthAdjust="spacing" textLength="65" x="1461" y="1349.0771">jobOpening</text><polygon fill="#181818" points="1767,1381.6309,1757,1385.6309,1767,1389.6309,1763,1385.6309" style="stroke:#181818;stroke-width:1.0;"/><line style="stroke:#181818;stroke-width:1.0;" x1="1761" x2="2005.5" y1="1385.6309" y2="1385.6309"/><text fill="#000000" font-family="sans-serif" font-size="13" font-weight="bold" lengthAdjust="spacing" textLength="14" x="1773" y="1380.3682">37</text><text fill="#000000" font-family="sans-serif" font-size="13" lengthAdjust="spacing" textLength="99" x="1791" y="1380.3682">save(jobOpening)</text><polygon fill="#181818" points="1994.5,1412.9219,2004.5,1416.9219,1994.5,1420.9219,1998.5,1416.9219" style="stroke:#181818;stroke-width:1.0;"/><line style="stroke:#181818;stroke-width:1.0;stroke-dasharray:2.0,2.0;" x1="1751" x2="2000.5" y1="1416.9219" y2="1416.9219"/><text fill="#000000" font-family="sans-serif" font-size="13" font-weight="bold" lengthAdjust="spacing" textLength="14" x="1758" y="1411.6592">38</text><text fill="#000000" font-family="sans-serif" font-size="13" lengthAdjust="spacing" textLength="102" x="1776" y="1411.6592">saved jobOpening</text><polygon fill="#181818" points="1452,1444.2129,1442,1448.2129,1452,1452.2129,1448,1448.2129" style="stroke:#181818;stroke-width:1.0;"/><line style="stroke:#181818;stroke-width:1.0;" x1="1446" x2="2005.5" y1="1448.2129" y2="1448.2129"/><text fill="#000000" font-family="sans-serif" font-size="13" font-weight="bold" lengthAdjust="spacing" textLength="14" x="1458" y="1442.9502">39</text><text fill="#000000" font-family="sans-serif" font-size="13" lengthAdjust="spacing" textLength="104" x="1476" y="1442.9502">toDto(jobOpening)</text><polygon fill="#181818" points="1994.5,1475.5039,2004.5,1479.5039,1994.5,1483.5039,1998.5,1479.5039" style="stroke:#181818;stroke-width:1.0;"/><line style="stroke:#181818;stroke-width:1.0;stroke-dasharray:2.0,2.0;" x1="1436" x2="2000.5" y1="1479.5039" y2="1479.5039"/><text fill="#000000" font-family="sans-serif" font-size="13" font-weight="bold" lengthAdjust="spacing" textLength="14" x="1443" y="1474.2412">40</text><text fill="#000000" font-family="sans-serif" font-size="13" lengthAdjust="spacing" textLength="85" x="1461" y="1474.2412">jobOpeningDto</text><polygon fill="#181818" points="838.5,1506.7949,828.5,1510.7949,838.5,1514.7949,834.5,1510.7949" style="stroke:#181818;stroke-width:1.0;"/><line style="stroke:#181818;stroke-width:1.0;stroke-dasharray:2.0,2.0;" x1="832.5" x2="2010.5" y1="1510.7949" y2="1510.7949"/><text fill="#000000" font-family="sans-serif" font-size="13" font-weight="bold" lengthAdjust="spacing" textLength="14" x="844.5" y="1505.5322">41</text><text fill="#000000" font-family="sans-serif" font-size="13" lengthAdjust="spacing" textLength="135" x="862.5" y="1505.5322">updated jobOpeningDto</text><polygon fill="#181818" points="542.5,1538.0859,532.5,1542.0859,542.5,1546.0859,538.5,1542.0859" style="stroke:#181818;stroke-width:1.0;"/><line style="stroke:#181818;stroke-width:1.0;stroke-dasharray:2.0,2.0;" x1="536.5" x2="821.5" y1="1542.0859" y2="1542.0859"/><text fill="#000000" font-family="sans-serif" font-size="13" font-weight="bold" lengthAdjust="spacing" textLength="14" x="548.5" y="1536.8232">42</text><text fill="#000000" font-family="sans-serif" font-size="13" lengthAdjust="spacing" textLength="135" x="566.5" y="1536.8232">updated jobOpeningDto</text><polygon fill="#181818" points="79.5,1569.377,69.5,1573.377,79.5,1577.377,75.5,1573.377" style="stroke:#181818;stroke-width:1.0;"/><line style="stroke:#181818;stroke-width:1.0;stroke-dasharray:2.0,2.0;" x1="73.5" x2="525.5" y1="1573.377" y2="1573.377"/><text fill="#000000" font-family="sans-serif" font-size="13" font-weight="bold" lengthAdjust="spacing" textLength="14" x="85.5" y="1568.1143">43</text><text fill="#000000" font-family="sans-serif" font-size="13" lengthAdjust="spacing" textLength="106" x="103.5" y="1568.1143">operation success</text><!--SRC=[hLV1Rjim3BtdAuIUkcAzx1WK1OBsuc95Xmxv0CLc7NMEv4boW-thHybk9SkIOcVDAR6fzqYAV6HefmNl3ZkGgnKjjP3augvJMXn0aaVAQGtoWb15jWejMYerArbBkIONsxQY6Xx4xga5pdYzBNh3WjpSR8lRsxprdU1QYgOPuDrFFBrfsuQLL3F1GvYxXW7NnfcV8DzO2Vtfy2c23Dz2W4sdzqAolnRTnuYzICEuG7oCXs_Xupa8ZxHjXpI43_7ulJXGbid3CxH2CRouFq4gt0j4-G5ICQM1vnm9e68l9b2sQjWRtcrV8Yk27_EDND-QMbYJZVgbY1QainL0A7aLEo9wO6lj08hXU64EkvAukaAOKWBQn0tMHEt5iGzTNNuPepgp_h1NQYCGvA1DCmP90H7l4-25fMXHpMyVSumR7XcPMOf9VO-OtFMioGlZrQPfDWOS0iO4gpkU8VPAu3eP9Ydxx4rmAZYNzoFWuC9JR56cM5xzQvk1xUC61PKhgZMfGNyNTGrLmOqhoIAOKrmnZSBQ1wNmTmevTcXa6LK-qxqsSnORSu96c10Zor3b0l5EZGoyvpRXyLWaw4voHHgRCi8uwLIG4kycKbpnY8ABMKPrCeidQYh1ig2ih9wY3WxJMQ54ArPp14LnVNzA3ltCFaNWT7IuQ5I_P_ZTWT9Mh1KqK6e7wtEvKAAi_lqKgt0WO01x8R1aqKunYJZl8DDPaD5wDvlKPVdHvsdbFzMdlVWZwldAFra9Of0ZsCc9rSYk4Q8bUYz5L- -j9k7Wd4hh16JiIxz7hF7UxhMuH8JCI0XFPRY6zUGw7hUPy9KMkJ6mW2it0g8fYTB4UXPujPet54Y4xaJl9letwdMsIrClfnqifntiBLlU4lQ2Utvl43PWqBsdcdVMBZSu6FNlkASwvLW8FjCtt6xf0JI-GDmT3D3LUVvnE98tsdIzQqYXW3k69Mvz8CKT6StAYUOnhatzml5HLD2OFXxA6hiwj-GbwdAMUlLvop5_3VoQfIsfuJbVoEm_ejav-4nLU_AgSQwmBGtKt-OLnINUySwAChDMH__H9Q8rrDNYc3to_vvKIuB-jAkzNpYspfXRWnwTGpfpyJIoivWbknwkZH1Bk_mIrPKbBjqnxGjsyty0]--></g></svg>