<?xml version="1.0" encoding="us-ascii" standalone="no"?><svg xmlns="http://www.w3.org/2000/svg" xmlns:xlink="http://www.w3.org/1999/xlink" contentStyleType="text/css" height="635px" preserveAspectRatio="none" style="width:1099px;height:635px;background:#FFFFFF;" version="1.1" viewBox="0 0 1099 635" width="1099px" zoomAndPan="magnify"><defs/><g><text fill="#000000" font-family="sans-serif" font-size="14" font-weight="bold" lengthAdjust="spacing" textLength="898" x="102" y="30.1074">Sequence Diagram (US 2003 - Generate and export a template text file to help collect data fields for candidates of a job opening)</text><rect fill="#FFFFFF" height="389.1523" style="stroke:#181818;stroke-width:1.0;" width="10" x="31.5" y="137.8633"/><rect fill="#FFFFFF" height="380.1523" style="stroke:#181818;stroke-width:1.0;" width="10" x="355.5" y="137.8633"/><rect fill="#FFFFFF" height="146.1152" style="stroke:#181818;stroke-width:1.0;" width="10" x="535.5" y="202.4453"/><rect fill="#FFFFFF" height="31.291" style="stroke:#181818;stroke-width:1.0;" width="10" x="535.5" y="424.1426"/><rect fill="#FFFFFF" height="31.291" style="stroke:#181818;stroke-width:1.0;" width="10" x="714.5" y="254.6875"/><rect fill="#FFFFFF" height="106.873" style="stroke:#181818;stroke-width:1.0;" width="10" x="864.5" y="317.2695"/><line style="stroke:#181818;stroke-width:0.5;stroke-dasharray:5.0,5.0;" x1="36" x2="36" y1="127.8633" y2="536.0156"/><line style="stroke:#181818;stroke-width:0.5;stroke-dasharray:5.0,5.0;" x1="360" x2="360" y1="127.8633" y2="536.0156"/><line style="stroke:#181818;stroke-width:0.5;stroke-dasharray:5.0,5.0;" x1="540" x2="540" y1="210.2754" y2="536.0156"/><line style="stroke:#181818;stroke-width:0.5;stroke-dasharray:5.0,5.0;" x1="719" x2="719" y1="127.8633" y2="536.0156"/><line style="stroke:#181818;stroke-width:0.5;stroke-dasharray:5.0,5.0;" x1="869" x2="869" y1="127.8633" y2="536.0156"/><line style="stroke:#181818;stroke-width:0.5;stroke-dasharray:5.0,5.0;" x1="1023" x2="1023" y1="127.8633" y2="536.0156"/><text fill="#000000" font-family="sans-serif" font-size="14" lengthAdjust="spacing" textLength="57" x="5" y="124.3496">Operator</text><ellipse cx="36.5" cy="57.7422" fill="#E2E2F0" rx="8" ry="8" style="stroke:#181818;stroke-width:0.5;"/><path d="M36.5,65.7422 L36.5,92.7422 M23.5,73.7422 L49.5,73.7422 M36.5,92.7422 L23.5,107.7422 M36.5,92.7422 L49.5,107.7422 " fill="none" style="stroke:#181818;stroke-width:0.5;"/><text fill="#000000" font-family="sans-serif" font-size="14" lengthAdjust="spacing" textLength="57" x="5" y="550.123">Operator</text><ellipse cx="36.5" cy="562.1367" fill="#E2E2F0" rx="8" ry="8" style="stroke:#181818;stroke-width:0.5;"/><path d="M36.5,570.1367 L36.5,597.1367 M23.5,578.1367 L49.5,578.1367 M36.5,597.1367 L23.5,612.1367 M36.5,597.1367 L49.5,612.1367 " fill="none" style="stroke:#181818;stroke-width:0.5;"/><rect fill="#E2E2F0" height="51.2422" rx="2.5" ry="2.5" style="stroke:#181818;stroke-width:0.5;" width="145" x="288" y="75.6211"/><text fill="#000000" font-family="sans-serif" font-size="14" font-style="italic" lengthAdjust="spacing" textLength="30" x="345.5" y="97.7285">&#171;UI&#187;</text><text fill="#000000" font-family="sans-serif" font-size="14" lengthAdjust="spacing" textLength="131" x="295" y="116.3496">GenerateTemplateUI</text><rect fill="#E2E2F0" height="51.2422" rx="2.5" ry="2.5" style="stroke:#181818;stroke-width:0.5;" width="145" x="288" y="535.0156"/><text fill="#000000" font-family="sans-serif" font-size="14" font-style="italic" lengthAdjust="spacing" textLength="30" x="345.5" y="557.123">&#171;UI&#187;</text><text fill="#000000" font-family="sans-serif" font-size="14" lengthAdjust="spacing" textLength="131" x="295" y="575.7441">GenerateTemplateUI</text><rect fill="#E2E2F0" height="51.2422" rx="2.5" ry="2.5" style="stroke:#181818;stroke-width:0.5;" width="195" x="443" y="535.0156"/><text fill="#000000" font-family="sans-serif" font-size="14" font-style="italic" lengthAdjust="spacing" textLength="85" x="498" y="557.123">&#171;Application&#187;</text><text fill="#000000" font-family="sans-serif" font-size="14" lengthAdjust="spacing" textLength="181" x="450" y="575.7441">GenerateTemplateController</text><rect fill="#E2E2F0" height="51.2422" rx="2.5" ry="2.5" style="stroke:#181818;stroke-width:0.5;" width="143" x="648" y="75.6211"/><text fill="#000000" font-family="sans-serif" font-size="14" font-style="italic" lengthAdjust="spacing" textLength="64" x="687.5" y="97.7285">&#171;Domain&#187;</text><text fill="#000000" font-family="sans-serif" font-size="14" lengthAdjust="spacing" textLength="129" x="655" y="116.3496">AuthorizationService</text><rect fill="#E2E2F0" height="51.2422" rx="2.5" ry="2.5" style="stroke:#181818;stroke-width:0.5;" width="143" x="648" y="535.0156"/><text fill="#000000" font-family="sans-serif" font-size="14" font-style="italic" lengthAdjust="spacing" textLength="64" x="687.5" y="557.123">&#171;Domain&#187;</text><text fill="#000000" font-family="sans-serif" font-size="14" lengthAdjust="spacing" textLength="129" x="655" y="575.7441">AuthorizationService</text><rect fill="#E2E2F0" height="51.2422" rx="2.5" ry="2.5" style="stroke:#181818;stroke-width:0.5;" width="137" x="801" y="75.6211"/><text fill="#000000" font-family="sans-serif" font-size="14" font-style="italic" lengthAdjust="spacing" textLength="64" x="837.5" y="97.7285">&#171;Domain&#187;</text><text fill="#000000" font-family="sans-serif" font-size="14" lengthAdjust="spacing" textLength="123" x="808" y="116.3496">JobOpeningService</text><rect fill="#E2E2F0" height="51.2422" rx="2.5" ry="2.5" style="stroke:#181818;stroke-width:0.5;" width="137" x="801" y="535.0156"/><text fill="#000000" font-family="sans-serif" font-size="14" font-style="italic" lengthAdjust="spacing" textLength="64" x="837.5" y="557.123">&#171;Domain&#187;</text><text fill="#000000" font-family="sans-serif" font-size="14" lengthAdjust="spacing" textLength="123" x="808" y="575.7441">JobOpeningService</text><text fill="#000000" font-family="sans-serif" font-size="14" font-style="italic" lengthAdjust="spacing" textLength="90" x="975" y="105.7285">&#171;Persistence&#187;</text><text fill="#000000" font-family="sans-serif" font-size="14" lengthAdjust="spacing" textLength="144" x="948" y="124.3496">JobOpeningRepository</text><path d="M1005,54.6211 C1005,44.6211 1023,44.6211 1023,44.6211 C1023,44.6211 1041,44.6211 1041,54.6211 L1041,80.6211 C1041,90.6211 1023,90.6211 1023,90.6211 C1023,90.6211 1005,90.6211 1005,80.6211 L1005,54.6211 " fill="#E2E2F0" style="stroke:#181818;stroke-width:1.5;"/><path d="M1005,54.6211 C1005,64.6211 1023,64.6211 1023,64.6211 C1023,64.6211 1041,64.6211 1041,54.6211 " fill="none" style="stroke:#181818;stroke-width:1.5;"/><text fill="#000000" font-family="sans-serif" font-size="14" font-style="italic" lengthAdjust="spacing" textLength="90" x="975" y="550.123">&#171;Persistence&#187;</text><text fill="#000000" font-family="sans-serif" font-size="14" lengthAdjust="spacing" textLength="144" x="948" y="568.7441">JobOpeningRepository</text><path d="M1005,582.2578 C1005,572.2578 1023,572.2578 1023,572.2578 C1023,572.2578 1041,572.2578 1041,582.2578 L1041,608.2578 C1041,618.2578 1023,618.2578 1023,618.2578 C1023,618.2578 1005,618.2578 1005,608.2578 L1005,582.2578 " fill="#E2E2F0" style="stroke:#181818;stroke-width:1.5;"/><path d="M1005,582.2578 C1005,592.2578 1023,592.2578 1023,592.2578 C1023,592.2578 1041,592.2578 1041,582.2578 " fill="none" style="stroke:#181818;stroke-width:1.5;"/><rect fill="#FFFFFF" height="389.1523" style="stroke:#181818;stroke-width:1.0;" width="10" x="31.5" y="137.8633"/><rect fill="#FFFFFF" height="380.1523" style="stroke:#181818;stroke-width:1.0;" width="10" x="355.5" y="137.8633"/><rect fill="#FFFFFF" height="146.1152" style="stroke:#181818;stroke-width:1.0;" width="10" x="535.5" y="202.4453"/><rect fill="#FFFFFF" height="31.291" style="stroke:#181818;stroke-width:1.0;" width="10" x="535.5" y="424.1426"/><rect fill="#FFFFFF" height="31.291" style="stroke:#181818;stroke-width:1.0;" width="10" x="714.5" y="254.6875"/><rect fill="#FFFFFF" height="106.873" style="stroke:#181818;stroke-width:1.0;" width="10" x="864.5" y="317.2695"/><polygon fill="#181818" points="343.5,157.1543,353.5,161.1543,343.5,165.1543,347.5,161.1543" style="stroke:#181818;stroke-width:1.0;"/><line style="stroke:#181818;stroke-width:1.0;" x1="41.5" x2="349.5" y1="161.1543" y2="161.1543"/><text fill="#000000" font-family="sans-serif" font-size="13" font-weight="bold" lengthAdjust="spacing" textLength="7" x="48.5" y="155.8916">1</text><text fill="#000000" font-family="sans-serif" font-size="13" lengthAdjust="spacing" textLength="279" x="59.5" y="155.8916">Request to generate template file for job opening</text><polygon fill="#181818" points="431,188.4453,441,192.4453,431,196.4453,435,192.4453" style="stroke:#181818;stroke-width:1.0;"/><line style="stroke:#181818;stroke-width:1.0;" x1="365.5" x2="437" y1="192.4453" y2="192.4453"/><text fill="#000000" font-family="sans-serif" font-size="13" font-weight="bold" lengthAdjust="spacing" textLength="7" x="372.5" y="187.1826">2</text><text fill="#000000" font-family="sans-serif" font-size="13" lengthAdjust="spacing" textLength="36" x="383.5" y="187.1826">create</text><rect fill="#E2E2F0" height="51.2422" rx="2.5" ry="2.5" style="stroke:#181818;stroke-width:0.5;" width="195" x="443" y="169.1543"/><text fill="#000000" font-family="sans-serif" font-size="14" font-style="italic" lengthAdjust="spacing" textLength="85" x="498" y="191.2617">&#171;Application&#187;</text><text fill="#000000" font-family="sans-serif" font-size="14" lengthAdjust="spacing" textLength="181" x="450" y="209.8828">GenerateTemplateController</text><polygon fill="#181818" points="702.5,250.6875,712.5,254.6875,702.5,258.6875,706.5,254.6875" style="stroke:#181818;stroke-width:1.0;"/><line style="stroke:#181818;stroke-width:1.0;" x1="545.5" x2="708.5" y1="254.6875" y2="254.6875"/><text fill="#000000" font-family="sans-serif" font-size="13" font-weight="bold" lengthAdjust="spacing" textLength="7" x="552.5" y="249.4248">3</text><text fill="#000000" font-family="sans-serif" font-size="13" lengthAdjust="spacing" textLength="124" x="563.5" y="249.4248">authorizationService()</text><polygon fill="#181818" points="556.5,281.9785,546.5,285.9785,556.5,289.9785,552.5,285.9785" style="stroke:#181818;stroke-width:1.0;"/><line style="stroke:#181818;stroke-width:1.0;stroke-dasharray:2.0,2.0;" x1="550.5" x2="718.5" y1="285.9785" y2="285.9785"/><text fill="#000000" font-family="sans-serif" font-size="13" font-weight="bold" lengthAdjust="spacing" textLength="7" x="562.5" y="280.7158">4</text><text fill="#000000" font-family="sans-serif" font-size="13" lengthAdjust="spacing" textLength="32" x="573.5" y="280.7158">authz</text><polygon fill="#181818" points="852.5,313.2695,862.5,317.2695,852.5,321.2695,856.5,317.2695" style="stroke:#181818;stroke-width:1.0;"/><line style="stroke:#181818;stroke-width:1.0;" x1="545.5" x2="858.5" y1="317.2695" y2="317.2695"/><text fill="#000000" font-family="sans-serif" font-size="13" font-weight="bold" lengthAdjust="spacing" textLength="7" x="552.5" y="312.0068">5</text><text fill="#000000" font-family="sans-serif" font-size="13" lengthAdjust="spacing" textLength="115" x="563.5" y="312.0068">jobOpeningService()</text><polygon fill="#181818" points="551.5,344.5605,541.5,348.5605,551.5,352.5605,547.5,348.5605" style="stroke:#181818;stroke-width:1.0;"/><line style="stroke:#181818;stroke-width:1.0;stroke-dasharray:2.0,2.0;" x1="545.5" x2="863.5" y1="348.5605" y2="348.5605"/><text fill="#000000" font-family="sans-serif" font-size="13" font-weight="bold" lengthAdjust="spacing" textLength="7" x="557.5" y="343.2979">6</text><text fill="#000000" font-family="sans-serif" font-size="13" lengthAdjust="spacing" textLength="107" x="568.5" y="343.2979">jobOpeningService</text><line style="stroke:#181818;stroke-width:1.0;stroke-dasharray:2.0,2.0;" x1="874.5" x2="916.5" y1="379.8516" y2="379.8516"/><line style="stroke:#181818;stroke-width:1.0;stroke-dasharray:2.0,2.0;" x1="916.5" x2="916.5" y1="379.8516" y2="392.8516"/><line style="stroke:#181818;stroke-width:1.0;stroke-dasharray:2.0,2.0;" x1="875.5" x2="916.5" y1="392.8516" y2="392.8516"/><polygon fill="#181818" points="885.5,388.8516,875.5,392.8516,885.5,396.8516,881.5,392.8516" style="stroke:#181818;stroke-width:1.0;"/><text fill="#000000" font-family="sans-serif" font-size="13" font-weight="bold" lengthAdjust="spacing" textLength="7" x="881.5" y="374.5889">7</text><text fill="#000000" font-family="sans-serif" font-size="13" lengthAdjust="spacing" textLength="101" x="892.5" y="374.5889">getJobOpenings()</text><polygon fill="#181818" points="556.5,420.1426,546.5,424.1426,556.5,428.1426,552.5,424.1426" style="stroke:#181818;stroke-width:1.0;"/><line style="stroke:#181818;stroke-width:1.0;stroke-dasharray:2.0,2.0;" x1="550.5" x2="868.5" y1="424.1426" y2="424.1426"/><text fill="#000000" font-family="sans-serif" font-size="13" font-weight="bold" lengthAdjust="spacing" textLength="7" x="562.5" y="418.8799">8</text><text fill="#000000" font-family="sans-serif" font-size="13" lengthAdjust="spacing" textLength="72" x="573.5" y="418.8799">jobOpenings</text><polygon fill="#181818" points="376.5,451.4336,366.5,455.4336,376.5,459.4336,372.5,455.4336" style="stroke:#181818;stroke-width:1.0;"/><line style="stroke:#181818;stroke-width:1.0;stroke-dasharray:2.0,2.0;" x1="370.5" x2="539.5" y1="455.4336" y2="455.4336"/><text fill="#000000" font-family="sans-serif" font-size="13" font-weight="bold" lengthAdjust="spacing" textLength="7" x="382.5" y="450.1709">9</text><text fill="#000000" font-family="sans-serif" font-size="13" lengthAdjust="spacing" textLength="72" x="393.5" y="450.1709">jobOpenings</text><polygon fill="#181818" points="52.5,482.7246,42.5,486.7246,52.5,490.7246,48.5,486.7246" style="stroke:#181818;stroke-width:1.0;"/><line style="stroke:#181818;stroke-width:1.0;stroke-dasharray:2.0,2.0;" x1="46.5" x2="354.5" y1="486.7246" y2="486.7246"/><text fill="#000000" font-family="sans-serif" font-size="13" font-weight="bold" lengthAdjust="spacing" textLength="14" x="58.5" y="481.4619">10</text><text fill="#000000" font-family="sans-serif" font-size="13" lengthAdjust="spacing" textLength="159" x="76.5" y="481.4619">Generating the template file</text><polygon fill="#181818" points="52.5,514.0156,42.5,518.0156,52.5,522.0156,48.5,518.0156" style="stroke:#181818;stroke-width:1.0;"/><line style="stroke:#181818;stroke-width:1.0;stroke-dasharray:2.0,2.0;" x1="46.5" x2="359.5" y1="518.0156" y2="518.0156"/><text fill="#000000" font-family="sans-serif" font-size="13" font-weight="bold" lengthAdjust="spacing" textLength="14" x="58.5" y="512.7529">11</text><text fill="#000000" font-family="sans-serif" font-size="13" lengthAdjust="spacing" textLength="167" x="76.5" y="512.7529">Template file ready for export</text><!--SRC=[VLDTQy9047o_Nx6FhH0exLiG8RHGKbeinlo0Crdr9DvTxrPf- -kxcsYCsZQGupvcPlTc4ZBK81JuiKDR8JmPlGfw2pTb0VTtTm-Gm3DQ39eGjAq1FxqB11e8jxwHNS9FWgLX4NAmniP3vPe6Au9Qa-OJREe8InUWOW73cnZ1BLbYunRWF5fZLxTAwHqvkzikC2XT4SEdNihoHCT-hhmEP2hZjQM-iVcXbJ8NA8_ZSPbF9lzY7vsb87ssye_psIkpCkyRKsaopbxGinsjNJ3VxLc1OM_OAoPc1TEUt5QRIyQBMqoxkmtWvTiPNWnQw8W3y0ozYuPl-jNYPScCTmpHH9A4cCOFEsJsudvlJBzJvgftBfdmCeMPf1j90beTm-ppQwEJU0PnACKkCbby6OtIAY0ZJoLaMxMUCOOjI47_ui_DxOcH5OfnoK6omt-h6eS0EP66tqHmSsdVK8qXYb-MwzIkm4FbjjaEpMFA3j39xiYo9wMpkd4e8XMlhvyS_Fs3r5NEssiV8qcFNoA3WTONELoZvsSnSGxrLnjMzn-UjPWhzGC0]--></g></svg>