<?xml version="1.0" encoding="us-ascii" standalone="no"?><svg xmlns="http://www.w3.org/2000/svg" xmlns:xlink="http://www.w3.org/1999/xlink" contentStyleType="text/css" height="420px" preserveAspectRatio="none" style="width:918px;height:420px;background:#FFFFFF;" version="1.1" viewBox="0 0 918 420" width="918px" zoomAndPan="magnify"><defs/><g><!--cluster ui--><g id="cluster_ui"><path d="M238.5,6.0137 L252.5,6.0137 A3.75,3.75 0 0 1 255,8.5137 L262,30.6348 L429.5,30.6348 A2.5,2.5 0 0 1 432,33.1348 L432,104.5137 A2.5,2.5 0 0 1 429.5,107.0137 L238.5,107.0137 A2.5,2.5 0 0 1 236,104.5137 L236,8.5137 A2.5,2.5 0 0 1 238.5,6.0137 " fill="none" style="stroke:#000000;stroke-width:1.5;"/><line style="stroke:#000000;stroke-width:1.5;" x1="236" x2="262" y1="30.6348" y2="30.6348"/><text fill="#000000" font-family="sans-serif" font-size="14" font-weight="bold" lengthAdjust="spacing" textLength="13" x="240" y="23.1211">ui</text></g><!--cluster application--><g id="cluster_application"><path d="M213.5,131.0137 L291.5,131.0137 A3.75,3.75 0 0 1 294,133.5137 L301,155.6348 L454.5,155.6348 A2.5,2.5 0 0 1 457,158.1348 L457,248.5137 A2.5,2.5 0 0 1 454.5,251.0137 L213.5,251.0137 A2.5,2.5 0 0 1 211,248.5137 L211,133.5137 A2.5,2.5 0 0 1 213.5,131.0137 " fill="none" style="stroke:#000000;stroke-width:1.5;"/><line style="stroke:#000000;stroke-width:1.5;" x1="211" x2="301" y1="155.6348" y2="155.6348"/><text fill="#000000" font-family="sans-serif" font-size="14" font-weight="bold" lengthAdjust="spacing" textLength="77" x="215" y="148.1211">application</text></g><!--cluster repository--><g id="cluster_repository"><path d="M8.5,284.0137 L81.5,284.0137 A3.75,3.75 0 0 1 84,286.5137 L91,308.6348 L213.5,308.6348 A2.5,2.5 0 0 1 216,311.1348 L216,401.5137 A2.5,2.5 0 0 1 213.5,404.0137 L8.5,404.0137 A2.5,2.5 0 0 1 6,401.5137 L6,286.5137 A2.5,2.5 0 0 1 8.5,284.0137 " fill="none" style="stroke:#000000;stroke-width:1.5;"/><line style="stroke:#000000;stroke-width:1.5;" x1="6" x2="91" y1="308.6348" y2="308.6348"/><text fill="#000000" font-family="sans-serif" font-size="14" font-weight="bold" lengthAdjust="spacing" textLength="72" x="10" y="301.1211">repository</text></g><!--cluster domain--><g id="cluster_domain"><path d="M242.5,275.0137 L294.5,275.0137 A3.75,3.75 0 0 1 297,277.5137 L304,299.6348 L908.5,299.6348 A2.5,2.5 0 0 1 911,302.1348 L911,410.5137 A2.5,2.5 0 0 1 908.5,413.0137 L242.5,413.0137 A2.5,2.5 0 0 1 240,410.5137 L240,277.5137 A2.5,2.5 0 0 1 242.5,275.0137 " fill="none" style="stroke:#000000;stroke-width:1.5;"/><line style="stroke:#000000;stroke-width:1.5;" x1="240" x2="304" y1="299.6348" y2="299.6348"/><text fill="#000000" font-family="sans-serif" font-size="14" font-weight="bold" lengthAdjust="spacing" textLength="51" x="244" y="292.1211">domain</text></g><!--class GenerateTemplateUI--><g id="elem_GenerateTemplateUI"><rect codeLine="6" fill="#F1F1F1" height="48" id="GenerateTemplateUI" rx="2.5" ry="2.5" style="stroke:#181818;stroke-width:0.5;" width="163" x="252.5" y="43.0137"/><ellipse cx="267.5" cy="59.0137" fill="#ADD1B2" rx="11" ry="11" style="stroke:#181818;stroke-width:1.0;"/><path d="M270.2656,54.8887 Q270.4219,54.6699 270.6094,54.5605 Q270.7969,54.4512 271.0156,54.4512 Q271.3906,54.4512 271.625,54.7168 Q271.8594,54.9668 271.8594,55.5762 L271.8594,57.0293 Q271.8594,57.6387 271.625,57.9043 Q271.3906,58.1699 271.0156,58.1699 Q270.6719,58.1699 270.4688,57.9668 Q270.2656,57.7793 270.1563,57.2637 Q270.1094,56.9043 269.9219,56.7168 Q269.5938,56.3418 268.9844,56.123 Q268.375,55.9043 267.75,55.9043 Q266.9844,55.9043 266.3438,56.2324 Q265.7188,56.5605 265.2188,57.3105 Q264.7344,58.0605 264.7344,59.0918 L264.7344,60.1855 Q264.7344,61.4199 265.625,62.248 Q266.5156,63.0605 268.1094,63.0605 Q269.0469,63.0605 269.7031,62.8105 Q270.0938,62.6543 270.5156,62.2168 Q270.7813,61.9512 270.9219,61.873 Q271.0781,61.7949 271.2813,61.7949 Q271.6094,61.7949 271.8594,62.0605 Q272.125,62.3105 272.125,62.6543 Q272.125,62.998 271.7813,63.4043 Q271.2813,63.9824 270.4844,64.3105 Q269.4063,64.7637 268.1094,64.7637 Q266.5938,64.7637 265.3906,64.1387 Q264.4063,63.6387 263.7188,62.5762 Q263.0313,61.498 263.0313,60.2168 L263.0313,59.0605 Q263.0313,57.7324 263.6406,56.5918 Q264.2656,55.4355 265.3594,54.8262 Q266.4531,54.2012 267.6875,54.2012 Q268.4219,54.2012 269.0625,54.373 Q269.7188,54.5293 270.2656,54.8887 Z " fill="#000000"/><text fill="#000000" font-family="sans-serif" font-size="14" lengthAdjust="spacing" textLength="131" x="281.5" y="64.8105">GenerateTemplateUI</text><line style="stroke:#181818;stroke-width:0.5;" x1="253.5" x2="414.5" y1="75.0137" y2="75.0137"/><line style="stroke:#181818;stroke-width:0.5;" x1="253.5" x2="414.5" y1="83.0137" y2="83.0137"/></g><!--class GenerateTemplateController--><g id="elem_GenerateTemplateController"><rect codeLine="14" fill="#F1F1F1" height="66.6211" id="GenerateTemplateController" rx="2.5" ry="2.5" style="stroke:#181818;stroke-width:0.5;" width="213" x="227.5" y="168.0137"/><ellipse cx="242.5" cy="184.0137" fill="#ADD1B2" rx="11" ry="11" style="stroke:#181818;stroke-width:1.0;"/><path d="M245.2656,179.8887 Q245.4219,179.6699 245.6094,179.5605 Q245.7969,179.4512 246.0156,179.4512 Q246.3906,179.4512 246.625,179.7168 Q246.8594,179.9668 246.8594,180.5762 L246.8594,182.0293 Q246.8594,182.6387 246.625,182.9043 Q246.3906,183.1699 246.0156,183.1699 Q245.6719,183.1699 245.4688,182.9668 Q245.2656,182.7793 245.1563,182.2637 Q245.1094,181.9043 244.9219,181.7168 Q244.5938,181.3418 243.9844,181.123 Q243.375,180.9043 242.75,180.9043 Q241.9844,180.9043 241.3438,181.2324 Q240.7188,181.5605 240.2188,182.3105 Q239.7344,183.0605 239.7344,184.0918 L239.7344,185.1855 Q239.7344,186.4199 240.625,187.248 Q241.5156,188.0605 243.1094,188.0605 Q244.0469,188.0605 244.7031,187.8105 Q245.0938,187.6543 245.5156,187.2168 Q245.7813,186.9512 245.9219,186.873 Q246.0781,186.7949 246.2813,186.7949 Q246.6094,186.7949 246.8594,187.0605 Q247.125,187.3105 247.125,187.6543 Q247.125,187.998 246.7813,188.4043 Q246.2813,188.9824 245.4844,189.3105 Q244.4063,189.7637 243.1094,189.7637 Q241.5938,189.7637 240.3906,189.1387 Q239.4063,188.6387 238.7188,187.5762 Q238.0313,186.498 238.0313,185.2168 L238.0313,184.0605 Q238.0313,182.7324 238.6406,181.5918 Q239.2656,180.4355 240.3594,179.8262 Q241.4531,179.2012 242.6875,179.2012 Q243.4219,179.2012 244.0625,179.373 Q244.7188,179.5293 245.2656,179.8887 Z " fill="#000000"/><text fill="#000000" font-family="sans-serif" font-size="14" lengthAdjust="spacing" textLength="181" x="256.5" y="189.8105">GenerateTemplateController</text><line style="stroke:#181818;stroke-width:0.5;" x1="228.5" x2="439.5" y1="200.0137" y2="200.0137"/><line style="stroke:#181818;stroke-width:0.5;" x1="228.5" x2="439.5" y1="208.0137" y2="208.0137"/><ellipse cx="238.5" cy="222.8242" fill="#84BE84" rx="3" ry="3" style="stroke:#038048;stroke-width:1.0;"/><text fill="#000000" font-family="sans-serif" font-size="14" lengthAdjust="spacing" textLength="113" x="247.5" y="227.1211">getJobOpenings()</text></g><!--class JobOpeningRepository--><g id="elem_JobOpeningRepository"><rect codeLine="21" fill="#F1F1F1" height="66.6211" id="JobOpeningRepository" rx="2.5" ry="2.5" style="stroke:#181818;stroke-width:0.5;" width="177" x="22.5" y="321.0137"/><ellipse cx="37.5" cy="337.0137" fill="#B4A7E5" rx="11" ry="11" style="stroke:#181818;stroke-width:1.0;"/><path d="M38.4531,333.6543 L38.4531,340.3105 L40.1719,340.3105 Q40.7813,340.3105 41.0469,340.5449 Q41.3125,340.7793 41.3125,341.1699 Q41.3125,341.5449 41.0469,341.7793 Q40.7813,342.0137 40.1719,342.0137 L35.0313,342.0137 Q34.4219,342.0137 34.1563,341.7793 Q33.8906,341.5449 33.8906,341.1543 Q33.8906,340.7793 34.1563,340.5449 Q34.4219,340.3105 35.0313,340.3105 L36.75,340.3105 L36.75,333.6543 L35.0313,333.6543 Q34.4219,333.6543 34.1563,333.4199 Q33.8906,333.1855 33.8906,332.7949 Q33.8906,332.4199 34.1563,332.1855 Q34.4219,331.9512 35.0313,331.9512 L40.1719,331.9512 Q40.7813,331.9512 41.0469,332.1855 Q41.3125,332.4199 41.3125,332.7949 Q41.3125,333.1855 41.0469,333.4199 Q40.7813,333.6543 40.1719,333.6543 L38.4531,333.6543 Z " fill="#000000"/><text fill="#000000" font-family="sans-serif" font-size="14" font-style="italic" lengthAdjust="spacing" textLength="145" x="51.5" y="342.8105">JobOpeningRepository</text><line style="stroke:#181818;stroke-width:0.5;" x1="23.5" x2="198.5" y1="353.0137" y2="353.0137"/><line style="stroke:#181818;stroke-width:0.5;" x1="23.5" x2="198.5" y1="361.0137" y2="361.0137"/><ellipse cx="33.5" cy="375.8242" fill="#84BE84" rx="3" ry="3" style="stroke:#038048;stroke-width:1.0;"/><text fill="#000000" font-family="sans-serif" font-size="14" lengthAdjust="spacing" textLength="110" x="42.5" y="380.1211">listJobOpenings()</text></g><!--class AuthorizationService--><g id="elem_AuthorizationService"><rect codeLine="27" fill="#F1F1F1" height="85.2422" id="AuthorizationService" rx="2.5" ry="2.5" style="stroke:#181818;stroke-width:0.5;" width="305" x="446.5" y="312.0137"/><ellipse cx="530.25" cy="328.0137" fill="#ADD1B2" rx="11" ry="11" style="stroke:#181818;stroke-width:1.0;"/><path d="M533.0156,323.8887 Q533.1719,323.6699 533.3594,323.5605 Q533.5469,323.4512 533.7656,323.4512 Q534.1406,323.4512 534.375,323.7168 Q534.6094,323.9668 534.6094,324.5762 L534.6094,326.0293 Q534.6094,326.6387 534.375,326.9043 Q534.1406,327.1699 533.7656,327.1699 Q533.4219,327.1699 533.2188,326.9668 Q533.0156,326.7793 532.9063,326.2637 Q532.8594,325.9043 532.6719,325.7168 Q532.3438,325.3418 531.7344,325.123 Q531.125,324.9043 530.5,324.9043 Q529.7344,324.9043 529.0938,325.2324 Q528.4688,325.5605 527.9688,326.3105 Q527.4844,327.0605 527.4844,328.0918 L527.4844,329.1855 Q527.4844,330.4199 528.375,331.248 Q529.2656,332.0605 530.8594,332.0605 Q531.7969,332.0605 532.4531,331.8105 Q532.8438,331.6543 533.2656,331.2168 Q533.5313,330.9512 533.6719,330.873 Q533.8281,330.7949 534.0313,330.7949 Q534.3594,330.7949 534.6094,331.0605 Q534.875,331.3105 534.875,331.6543 Q534.875,331.998 534.5313,332.4043 Q534.0313,332.9824 533.2344,333.3105 Q532.1563,333.7637 530.8594,333.7637 Q529.3438,333.7637 528.1406,333.1387 Q527.1563,332.6387 526.4688,331.5762 Q525.7813,330.498 525.7813,329.2168 L525.7813,328.0605 Q525.7813,326.7324 526.3906,325.5918 Q527.0156,324.4355 528.1094,323.8262 Q529.2031,323.2012 530.4375,323.2012 Q531.1719,323.2012 531.8125,323.373 Q532.4688,323.5293 533.0156,323.8887 Z " fill="#000000"/><text fill="#000000" font-family="sans-serif" font-size="14" lengthAdjust="spacing" textLength="129" x="550.75" y="333.8105">AuthorizationService</text><line style="stroke:#181818;stroke-width:0.5;" x1="447.5" x2="750.5" y1="344.0137" y2="344.0137"/><line style="stroke:#181818;stroke-width:0.5;" x1="447.5" x2="750.5" y1="352.0137" y2="352.0137"/><ellipse cx="457.5" cy="366.8242" fill="#84BE84" rx="3" ry="3" style="stroke:#038048;stroke-width:1.0;"/><text fill="#000000" font-family="sans-serif" font-size="14" lengthAdjust="spacing" textLength="279" x="466.5" y="371.1211">authorizationService() : AuthorizationService</text><ellipse cx="457.5" cy="385.4453" fill="#84BE84" rx="3" ry="3" style="stroke:#038048;stroke-width:1.0;"/><text fill="#000000" font-family="sans-serif" font-size="14" lengthAdjust="spacing" textLength="233" x="466.5" y="389.7422">ensureAuthenticatedUserHasAnyOf()</text></g><!--class JobOpeningService--><g id="elem_JobOpeningService"><rect codeLine="32" fill="#F1F1F1" height="66.6211" id="JobOpeningService" rx="2.5" ry="2.5" style="stroke:#181818;stroke-width:0.5;" width="155" x="256.5" y="321.0137"/><ellipse cx="271.5" cy="337.0137" fill="#ADD1B2" rx="11" ry="11" style="stroke:#181818;stroke-width:1.0;"/><path d="M274.2656,332.8887 Q274.4219,332.6699 274.6094,332.5605 Q274.7969,332.4512 275.0156,332.4512 Q275.3906,332.4512 275.625,332.7168 Q275.8594,332.9668 275.8594,333.5762 L275.8594,335.0293 Q275.8594,335.6387 275.625,335.9043 Q275.3906,336.1699 275.0156,336.1699 Q274.6719,336.1699 274.4688,335.9668 Q274.2656,335.7793 274.1563,335.2637 Q274.1094,334.9043 273.9219,334.7168 Q273.5938,334.3418 272.9844,334.123 Q272.375,333.9043 271.75,333.9043 Q270.9844,333.9043 270.3438,334.2324 Q269.7188,334.5605 269.2188,335.3105 Q268.7344,336.0605 268.7344,337.0918 L268.7344,338.1855 Q268.7344,339.4199 269.625,340.248 Q270.5156,341.0605 272.1094,341.0605 Q273.0469,341.0605 273.7031,340.8105 Q274.0938,340.6543 274.5156,340.2168 Q274.7813,339.9512 274.9219,339.873 Q275.0781,339.7949 275.2813,339.7949 Q275.6094,339.7949 275.8594,340.0605 Q276.125,340.3105 276.125,340.6543 Q276.125,340.998 275.7813,341.4043 Q275.2813,341.9824 274.4844,342.3105 Q273.4063,342.7637 272.1094,342.7637 Q270.5938,342.7637 269.3906,342.1387 Q268.4063,341.6387 267.7188,340.5762 Q267.0313,339.498 267.0313,338.2168 L267.0313,337.0605 Q267.0313,335.7324 267.6406,334.5918 Q268.2656,333.4355 269.3594,332.8262 Q270.4531,332.2012 271.6875,332.2012 Q272.4219,332.2012 273.0625,332.373 Q273.7188,332.5293 274.2656,332.8887 Z " fill="#000000"/><text fill="#000000" font-family="sans-serif" font-size="14" lengthAdjust="spacing" textLength="123" x="285.5" y="342.8105">JobOpeningService</text><line style="stroke:#181818;stroke-width:0.5;" x1="257.5" x2="410.5" y1="353.0137" y2="353.0137"/><line style="stroke:#181818;stroke-width:0.5;" x1="257.5" x2="410.5" y1="361.0137" y2="361.0137"/><ellipse cx="267.5" cy="375.8242" fill="#84BE84" rx="3" ry="3" style="stroke:#038048;stroke-width:1.0;"/><text fill="#000000" font-family="sans-serif" font-size="14" lengthAdjust="spacing" textLength="113" x="276.5" y="380.1211">getJobOpenings()</text></g><!--class JobOpening--><g id="elem_JobOpening"><rect codeLine="36" fill="#F1F1F1" height="48" id="JobOpening" rx="2.5" ry="2.5" style="stroke:#181818;stroke-width:0.5;" width="108" x="787" y="330.5137"/><ellipse cx="802" cy="346.5137" fill="#ADD1B2" rx="11" ry="11" style="stroke:#181818;stroke-width:1.0;"/><path d="M804.7656,342.3887 Q804.9219,342.1699 805.1094,342.0605 Q805.2969,341.9512 805.5156,341.9512 Q805.8906,341.9512 806.125,342.2168 Q806.3594,342.4668 806.3594,343.0762 L806.3594,344.5293 Q806.3594,345.1387 806.125,345.4043 Q805.8906,345.6699 805.5156,345.6699 Q805.1719,345.6699 804.9688,345.4668 Q804.7656,345.2793 804.6563,344.7637 Q804.6094,344.4043 804.4219,344.2168 Q804.0938,343.8418 803.4844,343.623 Q802.875,343.4043 802.25,343.4043 Q801.4844,343.4043 800.8438,343.7324 Q800.2188,344.0605 799.7188,344.8105 Q799.2344,345.5605 799.2344,346.5918 L799.2344,347.6855 Q799.2344,348.9199 800.125,349.748 Q801.0156,350.5605 802.6094,350.5605 Q803.5469,350.5605 804.2031,350.3105 Q804.5938,350.1543 805.0156,349.7168 Q805.2813,349.4512 805.4219,349.373 Q805.5781,349.2949 805.7813,349.2949 Q806.1094,349.2949 806.3594,349.5605 Q806.625,349.8105 806.625,350.1543 Q806.625,350.498 806.2813,350.9043 Q805.7813,351.4824 804.9844,351.8105 Q803.9063,352.2637 802.6094,352.2637 Q801.0938,352.2637 799.8906,351.6387 Q798.9063,351.1387 798.2188,350.0762 Q797.5313,348.998 797.5313,347.7168 L797.5313,346.5605 Q797.5313,345.2324 798.1406,344.0918 Q798.7656,342.9355 799.8594,342.3262 Q800.9531,341.7012 802.1875,341.7012 Q802.9219,341.7012 803.5625,341.873 Q804.2188,342.0293 804.7656,342.3887 Z " fill="#000000"/><text fill="#000000" font-family="sans-serif" font-size="14" lengthAdjust="spacing" textLength="76" x="816" y="352.3105">JobOpening</text><line style="stroke:#181818;stroke-width:0.5;" x1="788" x2="894" y1="362.5137" y2="362.5137"/><line style="stroke:#181818;stroke-width:0.5;" x1="788" x2="894" y1="370.5137" y2="370.5137"/></g><!--link JobOpeningService to JobOpeningRepository--><g id="link_JobOpeningService_JobOpeningRepository"><path codeLine="42" d="M256.45,354.5137 C237.58,354.5137 224.72,354.5137 205.85,354.5137 " fill="none" id="JobOpeningService-to-JobOpeningRepository" style="stroke:#181818;stroke-width:1.0;"/><polygon fill="#181818" points="199.85,354.5137,208.85,358.5137,204.85,354.5137,208.85,350.5137,199.85,354.5137" style="stroke:#181818;stroke-width:1.0;"/></g><!--link GenerateTemplateUI to GenerateTemplateController--><g id="link_GenerateTemplateUI_GenerateTemplateController"><path codeLine="43" d="M334,91.0937 C334,112.3037 334,137.9537 334,161.7737 " fill="none" id="GenerateTemplateUI-to-GenerateTemplateController" style="stroke:#181818;stroke-width:1.0;"/><polygon fill="#181818" points="334,167.7737,338,158.7737,334,162.7737,330,158.7737,334,167.7737" style="stroke:#181818;stroke-width:1.0;"/></g><!--link GenerateTemplateController to JobOpeningService--><g id="link_GenerateTemplateController_JobOpeningService"><path codeLine="44" d="M334,235.2737 C334,260.6037 334,289.5037 334,314.8137 " fill="none" id="GenerateTemplateController-to-JobOpeningService" style="stroke:#181818;stroke-width:1.0;"/><polygon fill="#181818" points="334,320.8137,338,311.8137,334,315.8137,330,311.8137,334,320.8137" style="stroke:#181818;stroke-width:1.0;"/></g><!--link GenerateTemplateController to JobOpeningRepository--><g id="link_GenerateTemplateController_JobOpeningRepository"><path codeLine="45" d="M285.89,235.0937 C248.37,260.4937 201.4879,292.2392 163.9979,317.6292 " fill="none" id="GenerateTemplateController-to-JobOpeningRepository" style="stroke:#181818;stroke-width:1.0;"/><polygon fill="#181818" points="159.03,320.9937,168.7249,319.2589,163.1699,318.1899,164.2389,312.635,159.03,320.9937" style="stroke:#181818;stroke-width:1.0;"/></g><!--link JobOpeningRepository to JobOpening--><g id="link_JobOpeningRepository_JobOpening"><path codeLine="46" d="M145.09,320.8237 C172.75,296.7937 214.14,267.9037 257.5,263.0137 C284.77,259.9337 724.23,259.9337 751.5,263.0137 C759.43,263.9037 762.21,262.8237 769,267.0137 C794.27,282.6337 811.5929,305.1801 824.1629,325.2301 " fill="none" id="JobOpeningRepository-to-JobOpening" style="stroke:#181818;stroke-width:1.0;"/><polygon fill="#181818" points="827.35,330.3137,825.9585,320.5636,824.6941,326.0774,819.1804,324.813,827.35,330.3137" style="stroke:#181818;stroke-width:1.0;"/></g><!--link GenerateTemplateController to AuthorizationService--><g id="link_GenerateTemplateController_AuthorizationService"><path codeLine="47" d="M391.17,235.0937 C430.58,257.5437 478.0871,284.6128 520.5671,308.8228 " fill="none" id="GenerateTemplateController-to-AuthorizationService" style="stroke:#181818;stroke-width:1.0;"/><polygon fill="#181818" points="525.78,311.7937,519.9413,303.8621,521.436,309.3179,515.9801,310.8126,525.78,311.7937" style="stroke:#181818;stroke-width:1.0;"/></g><!--SRC=[bL91Ri8m4Bpx5Jw241_e0GbnW791WlA09InXLREsraubMl5tOaf9GXoWUuYjQ7PcPpqEia_8KHUaVvI-LcR0Upr5He607tXmfZpNxpN8IVr-OyMRk_A0SuOo26JvAU74SX1h34eD6ckGOvZRpS8X4-U-rs_BrZK5dVKKh1nBdXkKEA3i84DTKIrlo4fmOCZ_Hsrh3q1jS-CYxAtGzyNw2kMBIkKxMv30zFhwBTdSR4NsXM348OUuODokFSeC_9YFYrrZwBl9AcyTOptOTYTLCWbjfU5mb5o_IeGhOhiZeXwafwdojx-N6sfZfNxg1lWPRV8frHa0]--></g></svg>