<?xml version="1.0" encoding="us-ascii" standalone="no"?><svg xmlns="http://www.w3.org/2000/svg" xmlns:xlink="http://www.w3.org/1999/xlink" contentStyleType="text/css" height="959px" preserveAspectRatio="none" style="width:515px;height:959px;background:#FFFFFF;" version="1.1" viewBox="0 0 515 959" width="515px" zoomAndPan="magnify"><defs/><g><!--cluster Backoffice--><g id="cluster_Backoffice"><path d="M15.5,477.0137 L90.5,477.0137 A3.75,3.75 0 0 1 93,479.5137 L100,501.6348 L505.5,501.6348 A2.5,2.5 0 0 1 508,504.1348 L508,949.5137 A2.5,2.5 0 0 1 505.5,952.0137 L15.5,952.0137 A2.5,2.5 0 0 1 13,949.5137 L13,479.5137 A2.5,2.5 0 0 1 15.5,477.0137 " fill="none" style="stroke:#000000;stroke-width:1.5;"/><line style="stroke:#000000;stroke-width:1.5;" x1="13" x2="100" y1="501.6348" y2="501.6348"/><text fill="#000000" font-family="sans-serif" font-size="14" font-weight="bold" lengthAdjust="spacing" textLength="74" x="17" y="494.1211">Backoffice</text></g><!--cluster ApplicationsFileBot--><g id="cluster_ApplicationsFileBot"><path d="M8.5,320.0137 L145.5,320.0137 A3.75,3.75 0 0 1 148,322.5137 L155,344.6348 L468,344.6348 A2.5,2.5 0 0 1 470.5,347.1348 L470.5,450.5137 A2.5,2.5 0 0 1 468,453.0137 L8.5,453.0137 A2.5,2.5 0 0 1 6,450.5137 L6,322.5137 A2.5,2.5 0 0 1 8.5,320.0137 " fill="none" style="stroke:#000000;stroke-width:1.5;"/><line style="stroke:#000000;stroke-width:1.5;" x1="6" x2="155" y1="344.6348" y2="344.6348"/><text fill="#000000" font-family="sans-serif" font-size="14" font-weight="bold" lengthAdjust="spacing" textLength="136" x="10" y="337.1211">ApplicationsFileBot</text></g><!--cluster CandidateApp--><g id="cluster_CandidateApp"><path d="M45.5,163.0137 L144.5,163.0137 A3.75,3.75 0 0 1 147,165.5137 L154,187.6348 L454.5,187.6348 A2.5,2.5 0 0 1 457,190.1348 L457,293.5137 A2.5,2.5 0 0 1 454.5,296.0137 L45.5,296.0137 A2.5,2.5 0 0 1 43,293.5137 L43,165.5137 A2.5,2.5 0 0 1 45.5,163.0137 " fill="none" style="stroke:#000000;stroke-width:1.5;"/><line style="stroke:#000000;stroke-width:1.5;" x1="43" x2="154" y1="187.6348" y2="187.6348"/><text fill="#000000" font-family="sans-serif" font-size="14" font-weight="bold" lengthAdjust="spacing" textLength="98" x="47" y="180.1211">CandidateApp</text></g><!--cluster CustomerApp--><g id="cluster_CustomerApp"><path d="M47.5,6.0137 L143.5,6.0137 A3.75,3.75 0 0 1 146,8.5137 L153,30.6348 L459,30.6348 A2.5,2.5 0 0 1 461.5,33.1348 L461.5,136.5137 A2.5,2.5 0 0 1 459,139.0137 L47.5,139.0137 A2.5,2.5 0 0 1 45,136.5137 L45,8.5137 A2.5,2.5 0 0 1 47.5,6.0137 " fill="none" style="stroke:#000000;stroke-width:1.5;"/><line style="stroke:#000000;stroke-width:1.5;" x1="45" x2="153" y1="30.6348" y2="30.6348"/><text fill="#000000" font-family="sans-serif" font-size="14" font-weight="bold" lengthAdjust="spacing" textLength="95" x="49" y="23.1211">CustomerApp</text></g><!--entity ad--><g id="elem_ad"><ellipse cx="91.5" cy="523.0137" fill="#F1F1F1" rx="8" ry="8" style="stroke:#181818;stroke-width:0.5;"/><path d="M91.5,531.0137 L91.5,558.0137 M78.5,539.0137 L104.5,539.0137 M91.5,558.0137 L78.5,573.0137 M91.5,558.0137 L104.5,573.0137 " fill="none" style="stroke:#181818;stroke-width:0.5;"/><text fill="#000000" font-family="sans-serif" font-size="14" lengthAdjust="spacing" textLength="39" x="72" y="589.6211">Admin</text></g><g id="elem_ad1"><ellipse cx="356.4506" cy="554.0038" fill="#F1F1F1" rx="135.4506" ry="29.4901" style="stroke:#181818;stroke-width:0.5;"/><text fill="#000000" font-family="sans-serif" font-size="14" lengthAdjust="spacing" textLength="236" x="238.4506" y="557.8007">Manage Customers and its Managers</text></g><!--entity O--><g id="elem_O"><ellipse cx="91.5" cy="637.0137" fill="#F1F1F1" rx="8" ry="8" style="stroke:#181818;stroke-width:0.5;"/><path d="M91.5,645.0137 L91.5,672.0137 M78.5,653.0137 L104.5,653.0137 M91.5,672.0137 L78.5,687.0137 M91.5,672.0137 L104.5,687.0137 " fill="none" style="stroke:#181818;stroke-width:0.5;"/><text fill="#000000" font-family="sans-serif" font-size="14" lengthAdjust="spacing" textLength="57" x="63" y="703.6211">Operator</text></g><g id="elem_O1"><ellipse cx="356.2688" cy="667.7674" fill="#F1F1F1" rx="86.7688" ry="19.7538" style="stroke:#181818;stroke-width:0.5;"/><text fill="#000000" font-family="sans-serif" font-size="14" lengthAdjust="spacing" textLength="126" x="290.2688" y="672.5711">Register Application</text></g><!--entity le--><g id="elem_le"><ellipse cx="91.5" cy="751.0137" fill="#F1F1F1" rx="8" ry="8" style="stroke:#181818;stroke-width:0.5;"/><path d="M91.5,759.0137 L91.5,786.0137 M78.5,767.0137 L104.5,767.0137 M91.5,786.0137 L78.5,801.0137 M91.5,786.0137 L104.5,801.0137 " fill="none" style="stroke:#181818;stroke-width:0.5;"/><text fill="#000000" font-family="sans-serif" font-size="14" lengthAdjust="spacing" textLength="125" x="29" y="817.6211">Language Engineer</text></g><g id="elem_le1"><ellipse cx="356.6919" cy="781.852" fill="#F1F1F1" rx="109.6919" ry="24.3384" style="stroke:#181818;stroke-width:0.5;"/><text fill="#000000" font-family="sans-serif" font-size="14" lengthAdjust="spacing" textLength="180" x="266.6919" y="785.6489">Deploy and Configure plugin</text></g><!--entity cm--><g id="elem_cm"><ellipse cx="91.5" cy="865.0137" fill="#F1F1F1" rx="8" ry="8" style="stroke:#181818;stroke-width:0.5;"/><path d="M91.5,873.0137 L91.5,900.0137 M78.5,881.0137 L104.5,881.0137 M91.5,900.0137 L78.5,915.0137 M91.5,900.0137 L104.5,915.0137 " fill="none" style="stroke:#181818;stroke-width:0.5;"/><text fill="#000000" font-family="sans-serif" font-size="14" lengthAdjust="spacing" textLength="121" x="31" y="931.6211">Customer Manager</text></g><g id="elem_cm1"><ellipse cx="356.7065" cy="896.055" fill="#F1F1F1" rx="93.2065" ry="21.0413" style="stroke:#181818;stroke-width:0.5;"/><text fill="#000000" font-family="sans-serif" font-size="14" lengthAdjust="spacing" textLength="142" x="282.7065" y="900.8587">Manage Job Openings</text></g><!--entity afb--><g id="elem_afb"><ellipse cx="91.5" cy="366.0137" fill="#F1F1F1" rx="8" ry="8" style="stroke:#181818;stroke-width:0.5;"/><path d="M91.5,374.0137 L91.5,401.0137 M78.5,382.0137 L104.5,382.0137 M91.5,401.0137 L78.5,416.0137 M91.5,401.0137 L104.5,416.0137 " fill="none" style="stroke:#181818;stroke-width:0.5;"/><text fill="#000000" font-family="sans-serif" font-size="14" lengthAdjust="spacing" textLength="139" x="22" y="432.6211">Applications Email Bot</text></g><g id="elem_afb1"><ellipse cx="356.2971" cy="396.9731" fill="#F1F1F1" rx="97.7971" ry="21.9594" style="stroke:#181818;stroke-width:0.5;"/><text fill="#000000" font-family="sans-serif" font-size="14" lengthAdjust="spacing" textLength="153" x="278.019" y="401.4002">Import Applications Files</text></g><!--entity c--><g id="elem_c"><ellipse cx="91.5" cy="209.0137" fill="#F1F1F1" rx="8" ry="8" style="stroke:#181818;stroke-width:0.5;"/><path d="M91.5,217.0137 L91.5,244.0137 M78.5,225.0137 L104.5,225.0137 M91.5,244.0137 L78.5,259.0137 M91.5,244.0137 L104.5,259.0137 " fill="none" style="stroke:#181818;stroke-width:0.5;"/><text fill="#000000" font-family="sans-serif" font-size="14" lengthAdjust="spacing" textLength="65" x="59" y="275.6211">Candidate</text></g><g id="elem_c1"><ellipse cx="356.4261" cy="239.7989" fill="#F1F1F1" rx="84.4261" ry="19.2852" style="stroke:#181818;stroke-width:0.5;"/><text fill="#000000" font-family="sans-serif" font-size="14" lengthAdjust="spacing" textLength="120" x="293.4261" y="244.6026">Follow Applications</text></g><!--entity ct--><g id="elem_ct"><ellipse cx="91.5" cy="52.0137" fill="#F1F1F1" rx="8" ry="8" style="stroke:#181818;stroke-width:0.5;"/><path d="M91.5,60.0137 L91.5,87.0137 M78.5,68.0137 L104.5,68.0137 M91.5,87.0137 L78.5,102.0137 M91.5,87.0137 L104.5,102.0137 " fill="none" style="stroke:#181818;stroke-width:0.5;"/><text fill="#000000" font-family="sans-serif" font-size="14" lengthAdjust="spacing" textLength="61" x="61" y="118.6211">Customer</text></g><g id="elem_ct1"><ellipse cx="356.2523" cy="83.1641" fill="#F1F1F1" rx="88.7523" ry="20.1505" style="stroke:#181818;stroke-width:0.5;"/><text fill="#000000" font-family="sans-serif" font-size="14" lengthAdjust="spacing" textLength="131" x="287.7523" y="87.9678">Follow Job Openings</text></g><!--link ad to ad1--><g id="link_ad_ad1"><path d="M111.41,554.0137 C135.09,554.0137 171.79,554.0137 214.94,554.0137 " fill="none" id="ad-to-ad1" style="stroke:#181818;stroke-width:1.0;"/><polygon fill="#181818" points="220.94,554.0137,211.94,550.0137,215.94,554.0137,211.94,558.0137,220.94,554.0137" style="stroke:#181818;stroke-width:1.0;"/></g><!--link O to O1--><g id="link_O_O1"><path d="M120.15,668.0137 C155.3,668.0137 211.62,668.0137 263.3,668.0137 " fill="none" id="O-to-O1" style="stroke:#181818;stroke-width:1.0;"/><polygon fill="#181818" points="269.3,668.0137,260.3,664.0137,264.3,668.0137,260.3,672.0137,269.3,668.0137" style="stroke:#181818;stroke-width:1.0;"/></g><!--link le to le1--><g id="link_le_le1"><path d="M154.16,782.0137 C181.79,782.0137 209.22,782.0137 240.83,782.0137 " fill="none" id="le-to-le1" style="stroke:#181818;stroke-width:1.0;"/><polygon fill="#181818" points="246.83,782.0137,237.83,778.0137,241.83,782.0137,237.83,786.0137,246.83,782.0137" style="stroke:#181818;stroke-width:1.0;"/></g><!--link cm to cm1--><g id="link_cm_cm1"><path d="M152.18,896.0137 C184.99,896.0137 220.41,896.0137 257.29,896.0137 " fill="none" id="cm-to-cm1" style="stroke:#181818;stroke-width:1.0;"/><polygon fill="#181818" points="263.29,896.0137,254.29,892.0137,258.29,896.0137,254.29,900.0137,263.29,896.0137" style="stroke:#181818;stroke-width:1.0;"/></g><!--link afb to afb1--><g id="link_afb_afb1"><path d="M161.26,397.0137 C190.93,397.0137 220.18,397.0137 252.45,397.0137 " fill="none" id="afb-to-afb1" style="stroke:#181818;stroke-width:1.0;"/><polygon fill="#181818" points="258.45,397.0137,249.45,393.0137,253.45,397.0137,249.45,401.0137,258.45,397.0137" style="stroke:#181818;stroke-width:1.0;"/></g><!--link c to c1--><g id="link_c_c1"><path d="M124.22,240.0137 C160.57,240.0137 215.57,240.0137 265.8,240.0137 " fill="none" id="c-to-c1" style="stroke:#181818;stroke-width:1.0;"/><polygon fill="#181818" points="271.8,240.0137,262.8,236.0137,266.8,240.0137,262.8,244.0137,271.8,240.0137" style="stroke:#181818;stroke-width:1.0;"/></g><!--link ct to ct1--><g id="link_ct_ct1"><path d="M122.16,83.0137 C157.15,83.0137 210.94,83.0137 261.24,83.0137 " fill="none" id="ct-to-ct1" style="stroke:#181818;stroke-width:1.0;"/><polygon fill="#181818" points="267.24,83.0137,258.24,79.0137,262.24,83.0137,258.24,87.0137,267.24,83.0137" style="stroke:#181818;stroke-width:1.0;"/></g><!--SRC=[PP1DQiCm48NtEiMGVHRUPb58t0HQMWozWIAFrQ7wGv8ffUJk7KbEdP2DFF9elZVl6PmoP0-Hz6U6aIAgJDu94QJwaXhXm5y_JQJmL-pseoMt0vb0Zc9Eg6H2sBnBLrxsSyhUOkIc6u5oWjQ8QTCcEi47RBTFjHQx8M2KsSSA75RU1sfA6IFiGp2aP5ce8ePE37L-AEDlqkcv21-T9eVOE0PNq3C6ut_gEhrt4-av8WGpy_DDUzi9WvLOIcPUFLnNhqXb7xo- -ZFm-ewSRkwKxOIo5LLAkAm9thX89p9uyBb4UVCNZbQI0MwqRAVpAlXYWu_v3WA5ieGwdJl11-lMyaQsPziqoemyodh_rsPf5JXvO_ptdK1pn8OOg-wXIpuBSxarP7vWFgQK6PfhI5nT_W00]--></g></svg>