<?xml version="1.0" encoding="us-ascii" standalone="no"?><svg xmlns="http://www.w3.org/2000/svg" xmlns:xlink="http://www.w3.org/1999/xlink" contentStyleType="text/css" height="414px" preserveAspectRatio="none" style="width:628px;height:414px;background:#FFFFFF;" version="1.1" viewBox="0 0 628 414" width="628px" zoomAndPan="magnify"><defs/><g><text fill="#000000" font-family="sans-serif" font-size="14" font-weight="bold" lengthAdjust="spacing" textLength="362" x="132.25" y="30.1074">System Sequence Diagram (SSD) - List job openings</text><rect fill="#FFFFFF" height="179.7461" style="stroke:#181818;stroke-width:1.0;" width="10" x="63.5" y="133.2422"/><rect fill="#FFFFFF" height="31.291" style="stroke:#181818;stroke-width:1.0;" width="10" x="585.5" y="156.5332"/><rect fill="#FFFFFF" height="31.291" style="stroke:#181818;stroke-width:1.0;" width="10" x="585.5" y="219.1152"/><rect fill="#FFFFFF" height="31.291" style="stroke:#181818;stroke-width:1.0;" width="10" x="585.5" y="281.6973"/><line style="stroke:#181818;stroke-width:0.5;stroke-dasharray:5.0,5.0;" x1="68" x2="68" y1="123.2422" y2="330.9883"/><line style="stroke:#181818;stroke-width:0.5;stroke-dasharray:5.0,5.0;" x1="590.5" x2="590.5" y1="123.2422" y2="330.9883"/><text fill="#000000" font-family="sans-serif" font-size="14" lengthAdjust="spacing" textLength="121" x="5" y="119.7285">Customer Manager</text><ellipse cx="68.5" cy="53.1211" fill="#E2E2F0" rx="8" ry="8" style="stroke:#181818;stroke-width:0.5;"/><path d="M68.5,61.1211 L68.5,88.1211 M55.5,69.1211 L81.5,69.1211 M68.5,88.1211 L55.5,103.1211 M68.5,88.1211 L81.5,103.1211 " fill="none" style="stroke:#181818;stroke-width:0.5;"/><text fill="#000000" font-family="sans-serif" font-size="14" lengthAdjust="spacing" textLength="121" x="5" y="345.0957">Customer Manager</text><ellipse cx="68.5" cy="357.1094" fill="#E2E2F0" rx="8" ry="8" style="stroke:#181818;stroke-width:0.5;"/><path d="M68.5,365.1094 L68.5,392.1094 M55.5,373.1094 L81.5,373.1094 M68.5,392.1094 L55.5,407.1094 M68.5,392.1094 L81.5,407.1094 " fill="none" style="stroke:#181818;stroke-width:0.5;"/><rect fill="#E2E2F0" height="32.6211" rx="2.5" ry="2.5" style="stroke:#181818;stroke-width:0.5;" width="64" x="558.5" y="89.6211"/><text fill="#000000" font-family="sans-serif" font-size="14" lengthAdjust="spacing" textLength="50" x="565.5" y="111.7285">:System</text><rect fill="#E2E2F0" height="32.6211" rx="2.5" ry="2.5" style="stroke:#181818;stroke-width:0.5;" width="64" x="558.5" y="329.9883"/><text fill="#000000" font-family="sans-serif" font-size="14" lengthAdjust="spacing" textLength="50" x="565.5" y="352.0957">:System</text><rect fill="#FFFFFF" height="179.7461" style="stroke:#181818;stroke-width:1.0;" width="10" x="63.5" y="133.2422"/><rect fill="#FFFFFF" height="31.291" style="stroke:#181818;stroke-width:1.0;" width="10" x="585.5" y="156.5332"/><rect fill="#FFFFFF" height="31.291" style="stroke:#181818;stroke-width:1.0;" width="10" x="585.5" y="219.1152"/><rect fill="#FFFFFF" height="31.291" style="stroke:#181818;stroke-width:1.0;" width="10" x="585.5" y="281.6973"/><polygon fill="#181818" points="573.5,152.5332,583.5,156.5332,573.5,160.5332,577.5,156.5332" style="stroke:#181818;stroke-width:1.0;"/><line style="stroke:#181818;stroke-width:1.0;" x1="73.5" x2="579.5" y1="156.5332" y2="156.5332"/><text fill="#000000" font-family="sans-serif" font-size="13" font-weight="bold" lengthAdjust="spacing" textLength="7" x="80.5" y="151.2705">1</text><text fill="#000000" font-family="sans-serif" font-size="13" lengthAdjust="spacing" textLength="156" x="91.5" y="151.2705">request to list job openings</text><polygon fill="#181818" points="84.5,183.8242,74.5,187.8242,84.5,191.8242,80.5,187.8242" style="stroke:#181818;stroke-width:1.0;"/><line style="stroke:#181818;stroke-width:1.0;stroke-dasharray:2.0,2.0;" x1="78.5" x2="589.5" y1="187.8242" y2="187.8242"/><text fill="#000000" font-family="sans-serif" font-size="13" font-weight="bold" lengthAdjust="spacing" textLength="7" x="90.5" y="182.5615">2</text><text fill="#000000" font-family="sans-serif" font-size="13" lengthAdjust="spacing" textLength="477" x="101.5" y="182.5615">asks to select the filtering strategy (No filter, by Description, by Date and by Code)</text><polygon fill="#181818" points="573.5,215.1152,583.5,219.1152,573.5,223.1152,577.5,219.1152" style="stroke:#181818;stroke-width:1.0;"/><line style="stroke:#181818;stroke-width:1.0;" x1="73.5" x2="579.5" y1="219.1152" y2="219.1152"/><text fill="#000000" font-family="sans-serif" font-size="13" font-weight="bold" lengthAdjust="spacing" textLength="7" x="80.5" y="213.8525">3</text><text fill="#000000" font-family="sans-serif" font-size="13" lengthAdjust="spacing" textLength="93" x="91.5" y="213.8525">selects strategy</text><polygon fill="#181818" points="84.5,246.4063,74.5,250.4063,84.5,254.4063,80.5,250.4063" style="stroke:#181818;stroke-width:1.0;"/><line style="stroke:#181818;stroke-width:1.0;stroke-dasharray:2.0,2.0;" x1="78.5" x2="589.5" y1="250.4063" y2="250.4063"/><text fill="#000000" font-family="sans-serif" font-size="13" font-weight="bold" lengthAdjust="spacing" textLength="7" x="90.5" y="245.1436">4</text><text fill="#000000" font-family="sans-serif" font-size="13" lengthAdjust="spacing" textLength="185" x="101.5" y="245.1436">asks to input the filtering criteria</text><polygon fill="#181818" points="573.5,277.6973,583.5,281.6973,573.5,285.6973,577.5,281.6973" style="stroke:#181818;stroke-width:1.0;"/><line style="stroke:#181818;stroke-width:1.0;" x1="73.5" x2="579.5" y1="281.6973" y2="281.6973"/><text fill="#000000" font-family="sans-serif" font-size="13" font-weight="bold" lengthAdjust="spacing" textLength="7" x="80.5" y="276.4346">5</text><text fill="#000000" font-family="sans-serif" font-size="13" lengthAdjust="spacing" textLength="111" x="91.5" y="276.4346">submits the criteria</text><polygon fill="#181818" points="79.5,308.9883,69.5,312.9883,79.5,316.9883,75.5,312.9883" style="stroke:#181818;stroke-width:1.0;"/><line style="stroke:#181818;stroke-width:1.0;stroke-dasharray:2.0,2.0;" x1="73.5" x2="589.5" y1="312.9883" y2="312.9883"/><text fill="#000000" font-family="sans-serif" font-size="13" font-weight="bold" lengthAdjust="spacing" textLength="7" x="85.5" y="307.7256">6</text><text fill="#000000" font-family="sans-serif" font-size="13" lengthAdjust="spacing" textLength="226" x="96.5" y="307.7256">Displays the list of job openings filtered</text><!--SRC=[bP51SiCW34Ntd4AJJPAPvW9PTAOJBzjiV08PAmuD1XT4ExvzXN6Qfl6ctbY0_lyFj8uNumOCs4FldTVdu7i23edK-dOqeBvWHpMFbY2GPdITlUk8Pspzbt4TdD16KeeDIsyzHgOUQlf8v3H1PR3BxPkwhhQmWrSJ6Tvz0tuW9-ge52RsBlKD1Qar-m2hGueiM07Uq0b6M056UEd8iP9qDjeCw1XM-n8t7PToiZ2Vo3Jtg-a7k-Shsbxk8t22mHxi0ivLVpK4-MRjJcoAtruYBp5RHBBoFi1dWfEnJ26_IUGW5jq8cwEVjv-W6Q6Yg8CPs7XNrZa8NPlhWszfgrHB3mGBToYfyIVe_zmooFGNMzXoXOiK2n2fwOr0P9ERz15aWQ8oSR0u5kqq1N-w6yHCHUqIog-jCkLl]--></g></svg>