<?xml version="1.0" encoding="us-ascii" standalone="no"?><svg xmlns="http://www.w3.org/2000/svg" xmlns:xlink="http://www.w3.org/1999/xlink" contentStyleType="text/css" height="417px" preserveAspectRatio="none" style="width:660px;height:417px;background:#FFFFFF;" version="1.1" viewBox="0 0 660 417" width="660px" zoomAndPan="magnify"><defs/><g><!--cluster Job Opening--><g id="cluster_Job Opening"><rect fill="#ABBACC" height="404" rx="2.5" ry="2.5" style="stroke:#181818;stroke-width:1.0;" width="647" x="7" y="7"/><text fill="#000000" font-family="sans-serif" font-size="14" font-weight="bold" lengthAdjust="spacing" textLength="90" x="285.5" y="24.1074">Job Opening</text></g><!--class JobOpening--><g id="elem_JobOpening"><rect codeLine="8" fill="#F1F1F1" height="76.543" id="JobOpening" rx="2.5" ry="2.5" style="stroke:#181818;stroke-width:0.5;" width="128" x="265" y="181"/><ellipse cx="280" cy="211.2715" fill="#ADD1B2" rx="11" ry="11" style="stroke:#181818;stroke-width:1.0;"/><path d="M282.7656,207.1465 Q282.9219,206.9277 283.1094,206.8184 Q283.2969,206.709 283.5156,206.709 Q283.8906,206.709 284.125,206.9746 Q284.3594,207.2246 284.3594,207.834 L284.3594,209.2871 Q284.3594,209.8965 284.125,210.1621 Q283.8906,210.4277 283.5156,210.4277 Q283.1719,210.4277 282.9688,210.2246 Q282.7656,210.0371 282.6563,209.5215 Q282.6094,209.1621 282.4219,208.9746 Q282.0938,208.5996 281.4844,208.3809 Q280.875,208.1621 280.25,208.1621 Q279.4844,208.1621 278.8438,208.4902 Q278.2188,208.8184 277.7188,209.5684 Q277.2344,210.3184 277.2344,211.3496 L277.2344,212.4434 Q277.2344,213.6777 278.125,214.5059 Q279.0156,215.3184 280.6094,215.3184 Q281.5469,215.3184 282.2031,215.0684 Q282.5938,214.9121 283.0156,214.4746 Q283.2813,214.209 283.4219,214.1309 Q283.5781,214.0527 283.7813,214.0527 Q284.1094,214.0527 284.3594,214.3184 Q284.625,214.5684 284.625,214.9121 Q284.625,215.2559 284.2813,215.6621 Q283.7813,216.2402 282.9844,216.5684 Q281.9063,217.0215 280.6094,217.0215 Q279.0938,217.0215 277.8906,216.3965 Q276.9063,215.8965 276.2188,214.834 Q275.5313,213.7559 275.5313,212.4746 L275.5313,211.3184 Q275.5313,209.9902 276.1406,208.8496 Q276.7656,207.6934 277.8594,207.084 Q278.9531,206.459 280.1875,206.459 Q280.9219,206.459 281.5625,206.6309 Q282.2188,206.7871 282.7656,207.1465 Z " fill="#000000"/><text fill="#000000" font-family="sans-serif" font-size="12" font-style="italic" lengthAdjust="spacing" textLength="100" x="292" y="198.9492">&#171;Aggregate Root&#187;</text><text fill="#000000" font-family="sans-serif" font-size="12" font-style="italic" lengthAdjust="spacing" textLength="44" x="320" y="214.9102">&#171;Entity&#187;</text><text fill="#000000" font-family="sans-serif" font-size="14" lengthAdjust="spacing" textLength="76" x="304" y="233.0293">JobOpening</text><line style="stroke:#181818;stroke-width:0.5;" x1="266" x2="392" y1="241.543" y2="241.543"/><line style="stroke:#181818;stroke-width:0.5;" x1="266" x2="392" y1="249.543" y2="249.543"/></g><!--class JobReference--><g id="elem_JobReference"><rect codeLine="10" fill="#F1F1F1" height="76.543" id="JobReference" rx="2.5" ry="2.5" style="stroke:#181818;stroke-width:0.5;" width="120" x="23" y="318"/><ellipse cx="38" cy="348.2715" fill="#ADD1B2" rx="11" ry="11" style="stroke:#181818;stroke-width:1.0;"/><path d="M40.7656,344.1465 Q40.9219,343.9277 41.1094,343.8184 Q41.2969,343.709 41.5156,343.709 Q41.8906,343.709 42.125,343.9746 Q42.3594,344.2246 42.3594,344.834 L42.3594,346.2871 Q42.3594,346.8965 42.125,347.1621 Q41.8906,347.4277 41.5156,347.4277 Q41.1719,347.4277 40.9688,347.2246 Q40.7656,347.0371 40.6563,346.5215 Q40.6094,346.1621 40.4219,345.9746 Q40.0938,345.5996 39.4844,345.3809 Q38.875,345.1621 38.25,345.1621 Q37.4844,345.1621 36.8438,345.4902 Q36.2188,345.8184 35.7188,346.5684 Q35.2344,347.3184 35.2344,348.3496 L35.2344,349.4434 Q35.2344,350.6777 36.125,351.5059 Q37.0156,352.3184 38.6094,352.3184 Q39.5469,352.3184 40.2031,352.0684 Q40.5938,351.9121 41.0156,351.4746 Q41.2813,351.209 41.4219,351.1309 Q41.5781,351.0527 41.7813,351.0527 Q42.1094,351.0527 42.3594,351.3184 Q42.625,351.5684 42.625,351.9121 Q42.625,352.2559 42.2813,352.6621 Q41.7813,353.2402 40.9844,353.5684 Q39.9063,354.0215 38.6094,354.0215 Q37.0938,354.0215 35.8906,353.3965 Q34.9063,352.8965 34.2188,351.834 Q33.5313,350.7559 33.5313,349.4746 L33.5313,348.3184 Q33.5313,346.9902 34.1406,345.8496 Q34.7656,344.6934 35.8594,344.084 Q36.9531,343.459 38.1875,343.459 Q38.9219,343.459 39.5625,343.6309 Q40.2188,343.7871 40.7656,344.1465 Z " fill="#000000"/><text fill="#000000" font-family="sans-serif" font-size="12" font-style="italic" lengthAdjust="spacing" textLength="54" x="69" y="335.9492">&#171;Identity&#187;</text><text fill="#000000" font-family="sans-serif" font-size="12" font-style="italic" lengthAdjust="spacing" textLength="85" x="53.5" y="351.9102">&#171;Value Object&#187;</text><text fill="#000000" font-family="sans-serif" font-size="14" lengthAdjust="spacing" textLength="88" x="52" y="370.0293">JobReference</text><line style="stroke:#181818;stroke-width:0.5;" x1="24" x2="142" y1="378.543" y2="378.543"/><line style="stroke:#181818;stroke-width:0.5;" x1="24" x2="142" y1="386.543" y2="386.543"/></g><!--class TitleOrFunction--><g id="elem_TitleOrFunction"><rect codeLine="12" fill="#F1F1F1" height="60.582" id="TitleOrFunction" rx="2.5" ry="2.5" style="stroke:#181818;stroke-width:0.5;" width="130" x="178" y="326"/><ellipse cx="193" cy="348.291" fill="#ADD1B2" rx="11" ry="11" style="stroke:#181818;stroke-width:1.0;"/><path d="M195.7656,344.166 Q195.9219,343.9473 196.1094,343.8379 Q196.2969,343.7285 196.5156,343.7285 Q196.8906,343.7285 197.125,343.9941 Q197.3594,344.2441 197.3594,344.8535 L197.3594,346.3066 Q197.3594,346.916 197.125,347.1816 Q196.8906,347.4473 196.5156,347.4473 Q196.1719,347.4473 195.9688,347.2441 Q195.7656,347.0566 195.6563,346.541 Q195.6094,346.1816 195.4219,345.9941 Q195.0938,345.6191 194.4844,345.4004 Q193.875,345.1816 193.25,345.1816 Q192.4844,345.1816 191.8438,345.5098 Q191.2188,345.8379 190.7188,346.5879 Q190.2344,347.3379 190.2344,348.3691 L190.2344,349.4629 Q190.2344,350.6973 191.125,351.5254 Q192.0156,352.3379 193.6094,352.3379 Q194.5469,352.3379 195.2031,352.0879 Q195.5938,351.9316 196.0156,351.4941 Q196.2813,351.2285 196.4219,351.1504 Q196.5781,351.0723 196.7813,351.0723 Q197.1094,351.0723 197.3594,351.3379 Q197.625,351.5879 197.625,351.9316 Q197.625,352.2754 197.2813,352.6816 Q196.7813,353.2598 195.9844,353.5879 Q194.9063,354.041 193.6094,354.041 Q192.0938,354.041 190.8906,353.416 Q189.9063,352.916 189.2188,351.8535 Q188.5313,350.7754 188.5313,349.4941 L188.5313,348.3379 Q188.5313,347.0098 189.1406,345.8691 Q189.7656,344.7129 190.8594,344.1035 Q191.9531,343.4785 193.1875,343.4785 Q193.9219,343.4785 194.5625,343.6504 Q195.2188,343.8066 195.7656,344.166 Z " fill="#000000"/><text fill="#000000" font-family="sans-serif" font-size="12" font-style="italic" lengthAdjust="spacing" textLength="85" x="213.5" y="343.9492">&#171;Value Object&#187;</text><text fill="#000000" font-family="sans-serif" font-size="14" lengthAdjust="spacing" textLength="98" x="207" y="362.0684">TitleOrFunction</text><line style="stroke:#181818;stroke-width:0.5;" x1="179" x2="307" y1="370.582" y2="370.582"/><line style="stroke:#181818;stroke-width:0.5;" x1="179" x2="307" y1="378.582" y2="378.582"/></g><!--class ContractType--><g id="elem_ContractType"><rect codeLine="14" fill="#F1F1F1" height="76.543" id="ContractType" rx="2.5" ry="2.5" style="stroke:#181818;stroke-width:0.5;" width="118" x="345" y="44"/><ellipse cx="360" cy="74.2715" fill="#EB937F" rx="11" ry="11" style="stroke:#181818;stroke-width:1.0;"/><path d="M358.8594,75.0684 L358.8594,77.5684 L363.1875,77.5684 L363.1875,76.6465 Q363.1875,76.0371 363.4219,75.7715 Q363.6719,75.5059 364.0469,75.5059 Q364.4219,75.5059 364.6563,75.7715 Q364.8906,76.0371 364.8906,76.6465 L364.8906,79.2715 L356.8906,79.2715 Q356.2656,79.2715 356,79.0371 Q355.75,78.8027 355.75,78.4121 Q355.75,78.0371 356.0156,77.8027 Q356.2813,77.5684 356.8906,77.5684 L357.1563,77.5684 L357.1563,70.9121 L356.8906,70.9121 Q356.2656,70.9121 356,70.6777 Q355.75,70.4434 355.75,70.0527 Q355.75,69.6777 356,69.4434 Q356.2656,69.209 356.8906,69.209 L364.5156,69.209 L364.5156,71.8027 Q364.5156,72.4121 364.2813,72.6777 Q364.0625,72.9277 363.6719,72.9277 Q363.2969,72.9277 363.0625,72.6777 Q362.8281,72.4121 362.8281,71.8027 L362.8281,70.9121 L358.8594,70.9121 L358.8594,73.3652 L360.3438,73.3652 Q360.3438,72.709 360.4688,72.5215 Q360.7344,72.1152 361.2031,72.1152 Q361.5781,72.1152 361.8125,72.3809 Q362.0469,72.6309 362.0469,73.2402 L362.0469,75.209 Q362.0469,75.7559 361.9219,75.9434 Q361.6563,76.334 361.2031,76.334 Q360.7344,76.334 360.4688,75.9277 Q360.3438,75.7402 360.3438,75.0684 L358.8594,75.0684 Z " fill="#000000"/><text fill="#000000" font-family="sans-serif" font-size="12" font-style="italic" lengthAdjust="spacing" textLength="82" x="376" y="61.9492">&#171;Enumerated&#187;</text><text fill="#000000" font-family="sans-serif" font-size="12" font-style="italic" lengthAdjust="spacing" textLength="85" x="374.5" y="77.9102">&#171;Value Object&#187;</text><text fill="#000000" font-family="sans-serif" font-size="14" lengthAdjust="spacing" textLength="86" x="374" y="96.0293">ContractType</text><line style="stroke:#181818;stroke-width:0.5;" x1="346" x2="462" y1="104.543" y2="104.543"/><line style="stroke:#181818;stroke-width:0.5;" x1="346" x2="462" y1="112.543" y2="112.543"/></g><!--class Mode--><g id="elem_Mode"><rect codeLine="16" fill="#F1F1F1" height="76.543" id="Mode" rx="2.5" ry="2.5" style="stroke:#181818;stroke-width:0.5;" width="113" x="196.5" y="44"/><ellipse cx="211.5" cy="74.2715" fill="#ADD1B2" rx="11" ry="11" style="stroke:#181818;stroke-width:1.0;"/><path d="M214.2656,70.1465 Q214.4219,69.9277 214.6094,69.8184 Q214.7969,69.709 215.0156,69.709 Q215.3906,69.709 215.625,69.9746 Q215.8594,70.2246 215.8594,70.834 L215.8594,72.2871 Q215.8594,72.8965 215.625,73.1621 Q215.3906,73.4277 215.0156,73.4277 Q214.6719,73.4277 214.4688,73.2246 Q214.2656,73.0371 214.1563,72.5215 Q214.1094,72.1621 213.9219,71.9746 Q213.5938,71.5996 212.9844,71.3809 Q212.375,71.1621 211.75,71.1621 Q210.9844,71.1621 210.3438,71.4902 Q209.7188,71.8184 209.2188,72.5684 Q208.7344,73.3184 208.7344,74.3496 L208.7344,75.4434 Q208.7344,76.6777 209.625,77.5059 Q210.5156,78.3184 212.1094,78.3184 Q213.0469,78.3184 213.7031,78.0684 Q214.0938,77.9121 214.5156,77.4746 Q214.7813,77.209 214.9219,77.1309 Q215.0781,77.0527 215.2813,77.0527 Q215.6094,77.0527 215.8594,77.3184 Q216.125,77.5684 216.125,77.9121 Q216.125,78.2559 215.7813,78.6621 Q215.2813,79.2402 214.4844,79.5684 Q213.4063,80.0215 212.1094,80.0215 Q210.5938,80.0215 209.3906,79.3965 Q208.4063,78.8965 207.7188,77.834 Q207.0313,76.7559 207.0313,75.4746 L207.0313,74.3184 Q207.0313,72.9902 207.6406,71.8496 Q208.2656,70.6934 209.3594,70.084 Q210.4531,69.459 211.6875,69.459 Q212.4219,69.459 213.0625,69.6309 Q213.7188,69.7871 214.2656,70.1465 Z " fill="#000000"/><text fill="#000000" font-family="sans-serif" font-size="12" font-style="italic" lengthAdjust="spacing" textLength="82" x="225" y="61.9492">&#171;Enumerated&#187;</text><text fill="#000000" font-family="sans-serif" font-size="12" font-style="italic" lengthAdjust="spacing" textLength="85" x="223.5" y="77.9102">&#171;Value Object&#187;</text><text fill="#000000" font-family="sans-serif" font-size="14" lengthAdjust="spacing" textLength="35" x="248.5" y="96.0293">Mode</text><line style="stroke:#181818;stroke-width:0.5;" x1="197.5" x2="308.5" y1="104.543" y2="104.543"/><line style="stroke:#181818;stroke-width:0.5;" x1="197.5" x2="308.5" y1="112.543" y2="112.543"/></g><!--class VacanciesNumber--><g id="elem_VacanciesNumber"><rect codeLine="19" fill="#F1F1F1" height="60.582" id="VacanciesNumber" rx="2.5" ry="2.5" style="stroke:#181818;stroke-width:0.5;" width="146" x="343" y="326"/><ellipse cx="358" cy="348.291" fill="#ADD1B2" rx="11" ry="11" style="stroke:#181818;stroke-width:1.0;"/><path d="M360.7656,344.166 Q360.9219,343.9473 361.1094,343.8379 Q361.2969,343.7285 361.5156,343.7285 Q361.8906,343.7285 362.125,343.9941 Q362.3594,344.2441 362.3594,344.8535 L362.3594,346.3066 Q362.3594,346.916 362.125,347.1816 Q361.8906,347.4473 361.5156,347.4473 Q361.1719,347.4473 360.9688,347.2441 Q360.7656,347.0566 360.6563,346.541 Q360.6094,346.1816 360.4219,345.9941 Q360.0938,345.6191 359.4844,345.4004 Q358.875,345.1816 358.25,345.1816 Q357.4844,345.1816 356.8438,345.5098 Q356.2188,345.8379 355.7188,346.5879 Q355.2344,347.3379 355.2344,348.3691 L355.2344,349.4629 Q355.2344,350.6973 356.125,351.5254 Q357.0156,352.3379 358.6094,352.3379 Q359.5469,352.3379 360.2031,352.0879 Q360.5938,351.9316 361.0156,351.4941 Q361.2813,351.2285 361.4219,351.1504 Q361.5781,351.0723 361.7813,351.0723 Q362.1094,351.0723 362.3594,351.3379 Q362.625,351.5879 362.625,351.9316 Q362.625,352.2754 362.2813,352.6816 Q361.7813,353.2598 360.9844,353.5879 Q359.9063,354.041 358.6094,354.041 Q357.0938,354.041 355.8906,353.416 Q354.9063,352.916 354.2188,351.8535 Q353.5313,350.7754 353.5313,349.4941 L353.5313,348.3379 Q353.5313,347.0098 354.1406,345.8691 Q354.7656,344.7129 355.8594,344.1035 Q356.9531,343.4785 358.1875,343.4785 Q358.9219,343.4785 359.5625,343.6504 Q360.2188,343.8066 360.7656,344.166 Z " fill="#000000"/><text fill="#000000" font-family="sans-serif" font-size="12" font-style="italic" lengthAdjust="spacing" textLength="85" x="386.5" y="343.9492">&#171;Value Object&#187;</text><text fill="#000000" font-family="sans-serif" font-size="14" lengthAdjust="spacing" textLength="114" x="372" y="362.0684">VacanciesNumber</text><line style="stroke:#181818;stroke-width:0.5;" x1="344" x2="488" y1="370.582" y2="370.582"/><line style="stroke:#181818;stroke-width:0.5;" x1="344" x2="488" y1="378.582" y2="378.582"/></g><!--class Description--><g id="elem_Description"><rect codeLine="21" fill="#F1F1F1" height="60.582" id="Description" rx="2.5" ry="2.5" style="stroke:#181818;stroke-width:0.5;" width="113" x="524.5" y="326"/><ellipse cx="539.5" cy="348.291" fill="#ADD1B2" rx="11" ry="11" style="stroke:#181818;stroke-width:1.0;"/><path d="M542.2656,344.166 Q542.4219,343.9473 542.6094,343.8379 Q542.7969,343.7285 543.0156,343.7285 Q543.3906,343.7285 543.625,343.9941 Q543.8594,344.2441 543.8594,344.8535 L543.8594,346.3066 Q543.8594,346.916 543.625,347.1816 Q543.3906,347.4473 543.0156,347.4473 Q542.6719,347.4473 542.4688,347.2441 Q542.2656,347.0566 542.1563,346.541 Q542.1094,346.1816 541.9219,345.9941 Q541.5938,345.6191 540.9844,345.4004 Q540.375,345.1816 539.75,345.1816 Q538.9844,345.1816 538.3438,345.5098 Q537.7188,345.8379 537.2188,346.5879 Q536.7344,347.3379 536.7344,348.3691 L536.7344,349.4629 Q536.7344,350.6973 537.625,351.5254 Q538.5156,352.3379 540.1094,352.3379 Q541.0469,352.3379 541.7031,352.0879 Q542.0938,351.9316 542.5156,351.4941 Q542.7813,351.2285 542.9219,351.1504 Q543.0781,351.0723 543.2813,351.0723 Q543.6094,351.0723 543.8594,351.3379 Q544.125,351.5879 544.125,351.9316 Q544.125,352.2754 543.7813,352.6816 Q543.2813,353.2598 542.4844,353.5879 Q541.4063,354.041 540.1094,354.041 Q538.5938,354.041 537.3906,353.416 Q536.4063,352.916 535.7188,351.8535 Q535.0313,350.7754 535.0313,349.4941 L535.0313,348.3379 Q535.0313,347.0098 535.6406,345.8691 Q536.2656,344.7129 537.3594,344.1035 Q538.4531,343.4785 539.6875,343.4785 Q540.4219,343.4785 541.0625,343.6504 Q541.7188,343.8066 542.2656,344.166 Z " fill="#000000"/><text fill="#000000" font-family="sans-serif" font-size="12" font-style="italic" lengthAdjust="spacing" textLength="85" x="551.5" y="343.9492">&#171;Value Object&#187;</text><text fill="#000000" font-family="sans-serif" font-size="14" lengthAdjust="spacing" textLength="71" x="558.5" y="362.0684">Description</text><line style="stroke:#181818;stroke-width:0.5;" x1="525.5" x2="636.5" y1="370.582" y2="370.582"/><line style="stroke:#181818;stroke-width:0.5;" x1="525.5" x2="636.5" y1="378.582" y2="378.582"/></g><!--link JobOpening to JobReference--><g id="link_JobOpening_JobReference"><path codeLine="42" d="M264.69,255.79 C227.11,276.42 185.2298,299.3931 148.3898,319.6131 " fill="none" id="JobOpening-to-JobReference" style="stroke:#181818;stroke-width:1.0;"/><polygon fill="#181818" points="143.13,322.5,152.9443,321.6762,147.5132,320.0942,149.0951,314.6631,143.13,322.5" style="stroke:#181818;stroke-width:1.0;"/><text fill="#000000" font-family="sans-serif" font-size="13" lengthAdjust="spacing" textLength="7" x="249.8495" y="256.0748">1</text><text fill="#000000" font-family="sans-serif" font-size="13" lengthAdjust="spacing" textLength="7" x="150.8849" y="314.3942">1</text></g><!--link JobOpening to TitleOrFunction--><g id="link_JobOpening_TitleOrFunction"><path codeLine="43" d="M305.04,258.11 C291.43,279.48 277.8319,300.8084 265.1519,320.7284 " fill="none" id="JobOpening-to-TitleOrFunction" style="stroke:#181818;stroke-width:1.0;"/><polygon fill="#181818" points="261.93,325.79,270.1372,320.3456,264.6149,321.572,263.3885,316.0497,261.93,325.79" style="stroke:#181818;stroke-width:1.0;"/><text fill="#000000" font-family="sans-serif" font-size="13" lengthAdjust="spacing" textLength="7" x="293.6636" y="279.7061">1</text><text fill="#000000" font-family="sans-serif" font-size="13" lengthAdjust="spacing" textLength="7" x="258.1124" y="314.8044">1</text></g><!--reverse link ContractType to JobOpening--><g id="link_ContractType_JobOpening"><path codeLine="44" d="M380.1942,126.3539 C369.8742,144.9139 360.38,162.02 350.04,180.63 " fill="none" id="ContractType-backto-JobOpening" style="stroke:#181818;stroke-width:1.0;"/><polygon fill="#181818" points="383.11,121.11,375.2404,127.032,380.6802,125.4799,382.2323,130.9197,383.11,121.11" style="stroke:#181818;stroke-width:1.0;"/><text fill="#000000" font-family="sans-serif" font-size="13" lengthAdjust="spacing" textLength="7" x="372.2228" y="142.7061">1</text><text fill="#000000" font-family="sans-serif" font-size="13" lengthAdjust="spacing" textLength="7" x="345.9451" y="169.8746">1</text></g><!--reverse link Mode to JobOpening--><g id="link_Mode_JobOpening"><path codeLine="45" d="M277.1137,126.3382 C287.5637,144.8982 297.21,162.02 307.68,180.63 " fill="none" id="Mode-backto-JobOpening" style="stroke:#181818;stroke-width:1.0;"/><polygon fill="#181818" points="274.17,121.11,275.1001,130.9148,276.6231,125.4669,282.0711,126.9899,274.17,121.11" style="stroke:#181818;stroke-width:1.0;"/><text fill="#000000" font-family="sans-serif" font-size="13" lengthAdjust="spacing" textLength="7" x="269.9862" y="142.7061">1</text><text fill="#000000" font-family="sans-serif" font-size="13" lengthAdjust="spacing" textLength="7" x="296.5692" y="169.8746">1</text></g><!--link JobOpening to Description--><g id="link_JobOpening_Description"><path codeLine="46" d="M393.24,254.92 C434.22,276.87 481.4814,302.1862 520.5614,323.1262 " fill="none" id="JobOpening-to-Description" style="stroke:#181818;stroke-width:1.0;"/><polygon fill="#181818" points="525.85,325.96,519.8062,318.1836,521.4428,323.5985,516.0279,325.2351,525.85,325.96" style="stroke:#181818;stroke-width:1.0;"/><text fill="#000000" font-family="sans-serif" font-size="13" lengthAdjust="spacing" textLength="7" x="401.0724" y="255.1042">1</text><text fill="#000000" font-family="sans-serif" font-size="13" lengthAdjust="spacing" textLength="7" x="509.5027" y="316.8228">1</text></g><!--link JobOpening to VacanciesNumber--><g id="link_JobOpening_VacanciesNumber"><path codeLine="47" d="M353.23,258.11 C367.01,279.48 380.7711,300.8257 393.6011,320.7457 " fill="none" id="JobOpening-to-VacanciesNumber" style="stroke:#181818;stroke-width:1.0;"/><polygon fill="#181818" points="396.85,325.79,395.3395,316.0577,394.1426,321.5864,388.6138,320.3895,396.85,325.79" style="stroke:#181818;stroke-width:1.0;"/><text fill="#000000" font-family="sans-serif" font-size="13" lengthAdjust="spacing" textLength="7" x="349.5338" y="279.7061">1</text><text fill="#000000" font-family="sans-serif" font-size="13" lengthAdjust="spacing" textLength="7" x="385.1784" y="314.8044">1</text></g><!--SRC=[bP9HJy8m58NV-ojky64QmuFlpH95IJ114Y2yttMNKTdQfUl4XV3VRM78d0nqJrtlTtfFUsuG56kfSZIOGQQL5YkZCm9hIcAdIevYZGdDR9KI618MLP8sWMA5iTv8bS0Iqu8OOzyKz5vr19ESb2ltu0QZ28M0BMFWFf5YKO0ZQe3pnoGnbA0bc6fjmv3p5sMbhS9mksjffhGaGqeGvwEOQehp1QObmIHwTnRQghcqAKtCi5J2IgswO59b1WEjh45XvrLEtaMPaN6-uciznZh-0zyGB52W4fAAjpABo5m-_PaAOMH-oNqGZB6A218DLiD8MJ8VaZPxOobZEnQme97FKAQEyE7Dh3USL2ucbz8Xfa1w_H85mG4yGbj_Z6ztlzpltzxLlywUFm-F6xiZUBZ0e2x36Vi_m4ExfwfnOw1FIoeksbPsPtL-YFuZ6BZtwH20L_ZKccC7lOSUy7wPz_UhqnIprfXrWyqPgwbVZ8-jgzPycyuchVdg1bdm7OwlU2JShvelT1NoxtuTEXbdx0i0]--></g></svg>