<?xml version="1.0" encoding="us-ascii" standalone="no"?><svg xmlns="http://www.w3.org/2000/svg" xmlns:xlink="http://www.w3.org/1999/xlink" contentStyleType="text/css" height="639.8px" preserveAspectRatio="none" style="width:1115px;height:639px;background:#FFFFFF;" version="1.1" viewBox="0 0 1115 639" width="1115.1px" zoomAndPan="magnify"><defs/><g><text fill="#000000" font-family="sans-serif" font-size="9.8" font-weight="bold" lengthAdjust="spacing" textLength="190.4" x="461.825" y="21.0752">List Job Openings - Sequence Diagram</text><rect fill="#FFFFFF" height="482.5816" style="stroke:#181818;stroke-width:0.6999999999999998;" width="7" x="44.45" y="93.2695"/><rect fill="#FFFFFF" height="482.5816" style="stroke:#181818;stroke-width:0.6999999999999998;" width="7" x="409.85" y="93.2695"/><rect fill="#FFFFFF" height="21.9037" style="stroke:#181818;stroke-width:0.6999999999999998;" width="7" x="608.65" y="131.477"/><rect fill="#FFFFFF" height="21.9037" style="stroke:#181818;stroke-width:0.6999999999999998;" width="7" x="608.65" y="219.0918"/><rect fill="#FFFFFF" height="65.7111" style="stroke:#181818;stroke-width:0.6999999999999998;" width="7" x="608.65" y="262.8992"/><rect fill="#FFFFFF" height="153.326" style="stroke:#181818;stroke-width:0.6999999999999998;" width="7" x="608.65" y="394.3215"/><rect fill="#FFFFFF" height="109.5186" style="stroke:#181818;stroke-width:0.6999999999999998;" width="7" x="807.45" y="416.2252"/><rect fill="#FFFFFF" height="21.9037" style="stroke:#181818;stroke-width:0.6999999999999998;" width="7" x="948.85" y="284.8029"/><rect fill="#FFFFFF" height="21.9037" style="stroke:#181818;stroke-width:0.6999999999999998;" width="7" x="948.85" y="481.9363"/><rect fill="#FFFFFF" height="21.9037" style="stroke:#181818;stroke-width:0.6999999999999998;" width="7" x="1052.45" y="438.1289"/><line style="stroke:#181818;stroke-width:0.3499999999999999;stroke-dasharray:5.0,5.0;" x1="47.6" x2="47.6" y1="86.2695" y2="582.1512"/><line style="stroke:#181818;stroke-width:0.3499999999999999;stroke-dasharray:5.0,5.0;" x1="413.35" x2="413.35" y1="86.2695" y2="582.1512"/><line style="stroke:#181818;stroke-width:0.3499999999999999;stroke-dasharray:5.0,5.0;" x1="612.15" x2="612.15" y1="86.2695" y2="582.1512"/><line style="stroke:#181818;stroke-width:0.3499999999999999;stroke-dasharray:5.0,5.0;" x1="810.6" x2="810.6" y1="86.2695" y2="582.1512"/><line style="stroke:#181818;stroke-width:0.3499999999999999;stroke-dasharray:5.0,5.0;" x1="952.35" x2="952.35" y1="86.2695" y2="582.1512"/><line style="stroke:#181818;stroke-width:0.3499999999999999;stroke-dasharray:5.0,5.0;" x1="1055.95" x2="1055.95" y1="86.2695" y2="582.1512"/><text fill="#000000" font-family="sans-serif" font-size="9.8" lengthAdjust="spacing" textLength="84.7" x="3.5" y="83.81">Customer Manager</text><ellipse cx="47.95" cy="37.1848" fill="#E2E2F0" rx="5.6" ry="5.6" style="stroke:#181818;stroke-width:0.3499999999999999;"/><path d="M47.95,42.7848 L47.95,61.6848 M38.85,48.3848 L57.05,48.3848 M47.95,61.6848 L38.85,72.1848 M47.95,61.6848 L57.05,72.1848 " fill="none" style="stroke:#181818;stroke-width:0.3499999999999999;"/><text fill="#000000" font-family="sans-serif" font-size="9.8" lengthAdjust="spacing" textLength="84.7" x="3.5" y="592.0264">Customer Manager</text><ellipse cx="47.95" cy="600.4359" fill="#E2E2F0" rx="5.6" ry="5.6" style="stroke:#181818;stroke-width:0.3499999999999999;"/><path d="M47.95,606.0359 L47.95,624.9359 M38.85,611.6359 L57.05,611.6359 M47.95,624.9359 L38.85,635.4359 M47.95,624.9359 L57.05,635.4359 " fill="none" style="stroke:#181818;stroke-width:0.3499999999999999;"/><rect fill="#E2E2F0" height="35.8695" rx="1.75" ry="1.75" style="stroke:#181818;stroke-width:0.3499999999999999;" width="86.8" x="369.95" y="49.7"/><text fill="#000000" font-family="sans-serif" font-size="9.8" font-style="italic" lengthAdjust="spacing" textLength="21" x="402.85" y="65.1752">&#171;UI&#187;</text><text fill="#000000" font-family="sans-serif" font-size="9.8" lengthAdjust="spacing" textLength="77" x="374.85" y="78.21">ListJobOpeningUI</text><rect fill="#E2E2F0" height="35.8695" rx="1.75" ry="1.75" style="stroke:#181818;stroke-width:0.3499999999999999;" width="86.8" x="369.95" y="581.4512"/><text fill="#000000" font-family="sans-serif" font-size="9.8" font-style="italic" lengthAdjust="spacing" textLength="21" x="402.85" y="596.9264">&#171;UI&#187;</text><text fill="#000000" font-family="sans-serif" font-size="9.8" lengthAdjust="spacing" textLength="77" x="374.85" y="609.9611">ListJobOpeningUI</text><rect fill="#E2E2F0" height="35.8695" rx="1.75" ry="1.75" style="stroke:#181818;stroke-width:0.3499999999999999;" width="121.8" x="551.25" y="49.7"/><text fill="#000000" font-family="sans-serif" font-size="9.8" font-style="italic" lengthAdjust="spacing" textLength="59.5" x="582.4" y="65.1752">&#171;Application&#187;</text><text fill="#000000" font-family="sans-serif" font-size="9.8" lengthAdjust="spacing" textLength="112" x="556.15" y="78.21">ListJobOpeningController</text><rect fill="#E2E2F0" height="35.8695" rx="1.75" ry="1.75" style="stroke:#181818;stroke-width:0.3499999999999999;" width="121.8" x="551.25" y="581.4512"/><text fill="#000000" font-family="sans-serif" font-size="9.8" font-style="italic" lengthAdjust="spacing" textLength="59.5" x="582.4" y="596.9264">&#171;Application&#187;</text><text fill="#000000" font-family="sans-serif" font-size="9.8" lengthAdjust="spacing" textLength="112" x="556.15" y="609.9611">ListJobOpeningController</text><rect fill="#E2E2F0" height="35.8695" rx="1.75" ry="1.75" style="stroke:#181818;stroke-width:0.3499999999999999;" width="95.9" x="763" y="49.7"/><text fill="#000000" font-family="sans-serif" font-size="9.8" font-style="italic" lengthAdjust="spacing" textLength="43.4" x="789.25" y="65.1752">&#171;Service&#187;</text><text fill="#000000" font-family="sans-serif" font-size="9.8" lengthAdjust="spacing" textLength="86.1" x="767.9" y="78.21">JobOpeningService</text><rect fill="#E2E2F0" height="35.8695" rx="1.75" ry="1.75" style="stroke:#181818;stroke-width:0.3499999999999999;" width="95.9" x="763" y="581.4512"/><text fill="#000000" font-family="sans-serif" font-size="9.8" font-style="italic" lengthAdjust="spacing" textLength="43.4" x="789.25" y="596.9264">&#171;Service&#187;</text><text fill="#000000" font-family="sans-serif" font-size="9.8" lengthAdjust="spacing" textLength="86.1" x="767.9" y="609.9611">JobOpeningService</text><rect fill="#E2E2F0" height="35.8695" rx="1.75" ry="1.75" style="stroke:#181818;stroke-width:0.3499999999999999;" width="82.6" x="911.05" y="49.7"/><text fill="#000000" font-family="sans-serif" font-size="9.8" font-style="italic" lengthAdjust="spacing" textLength="48.3" x="928.2" y="65.1752">&#171;Strategy&#187;</text><text fill="#000000" font-family="sans-serif" font-size="9.8" lengthAdjust="spacing" textLength="72.8" x="915.95" y="78.21">FilteringStrategy</text><rect fill="#E2E2F0" height="35.8695" rx="1.75" ry="1.75" style="stroke:#181818;stroke-width:0.3499999999999999;" width="82.6" x="911.05" y="581.4512"/><text fill="#000000" font-family="sans-serif" font-size="9.8" font-style="italic" lengthAdjust="spacing" textLength="48.3" x="928.2" y="596.9264">&#171;Strategy&#187;</text><text fill="#000000" font-family="sans-serif" font-size="9.8" lengthAdjust="spacing" textLength="72.8" x="915.95" y="609.9611">FilteringStrategy</text><rect fill="#E2E2F0" height="35.8695" rx="1.75" ry="1.75" style="stroke:#181818;stroke-width:0.3499999999999999;" width="110.6" x="1000.65" y="49.7"/><text fill="#000000" font-family="sans-serif" font-size="9.8" font-style="italic" lengthAdjust="spacing" textLength="63" x="1024.45" y="65.1752">&#171;Persistence&#187;</text><text fill="#000000" font-family="sans-serif" font-size="9.8" lengthAdjust="spacing" textLength="100.8" x="1005.55" y="78.21">JobOpeningRepository</text><rect fill="#E2E2F0" height="35.8695" rx="1.75" ry="1.75" style="stroke:#181818;stroke-width:0.3499999999999999;" width="110.6" x="1000.65" y="581.4512"/><text fill="#000000" font-family="sans-serif" font-size="9.8" font-style="italic" lengthAdjust="spacing" textLength="63" x="1024.45" y="596.9264">&#171;Persistence&#187;</text><text fill="#000000" font-family="sans-serif" font-size="9.8" lengthAdjust="spacing" textLength="100.8" x="1005.55" y="609.9611">JobOpeningRepository</text><rect fill="#FFFFFF" height="482.5816" style="stroke:#181818;stroke-width:0.6999999999999998;" width="7" x="44.45" y="93.2695"/><rect fill="#FFFFFF" height="482.5816" style="stroke:#181818;stroke-width:0.6999999999999998;" width="7" x="409.85" y="93.2695"/><rect fill="#FFFFFF" height="21.9037" style="stroke:#181818;stroke-width:0.6999999999999998;" width="7" x="608.65" y="131.477"/><rect fill="#FFFFFF" height="21.9037" style="stroke:#181818;stroke-width:0.6999999999999998;" width="7" x="608.65" y="219.0918"/><rect fill="#FFFFFF" height="65.7111" style="stroke:#181818;stroke-width:0.6999999999999998;" width="7" x="608.65" y="262.8992"/><rect fill="#FFFFFF" height="153.326" style="stroke:#181818;stroke-width:0.6999999999999998;" width="7" x="608.65" y="394.3215"/><rect fill="#FFFFFF" height="109.5186" style="stroke:#181818;stroke-width:0.6999999999999998;" width="7" x="807.45" y="416.2252"/><rect fill="#FFFFFF" height="21.9037" style="stroke:#181818;stroke-width:0.6999999999999998;" width="7" x="948.85" y="284.8029"/><rect fill="#FFFFFF" height="21.9037" style="stroke:#181818;stroke-width:0.6999999999999998;" width="7" x="948.85" y="481.9363"/><rect fill="#FFFFFF" height="21.9037" style="stroke:#181818;stroke-width:0.6999999999999998;" width="7" x="1052.45" y="438.1289"/><polygon fill="#181818" points="401.45,106.7732,408.45,109.5732,401.45,112.3732,404.25,109.5732" style="stroke:#181818;stroke-width:0.6999999999999998;"/><line style="stroke:#181818;stroke-width:0.6999999999999998;" x1="51.45" x2="405.65" y1="109.5732" y2="109.5732"/><text fill="#000000" font-family="sans-serif" font-size="9.1" font-weight="bold" lengthAdjust="spacing" textLength="4.9" x="56.35" y="105.8894">1</text><text fill="#000000" font-family="sans-serif" font-size="9.1" lengthAdjust="spacing" textLength="114.1" x="64.05" y="105.8894">requests to list job openings</text><polygon fill="#181818" points="600.25,128.677,607.25,131.477,600.25,134.277,603.05,131.477" style="stroke:#181818;stroke-width:0.6999999999999998;"/><line style="stroke:#181818;stroke-width:0.6999999999999998;" x1="416.85" x2="604.45" y1="131.477" y2="131.477"/><text fill="#000000" font-family="sans-serif" font-size="9.1" font-weight="bold" lengthAdjust="spacing" textLength="4.9" x="421.75" y="127.7931">2</text><text fill="#000000" font-family="sans-serif" font-size="9.1" lengthAdjust="spacing" textLength="75.6" x="429.45" y="127.7931">filteringStrategies()</text><polygon fill="#181818" points="424.55,150.5807,417.55,153.3807,424.55,156.1807,421.75,153.3807" style="stroke:#181818;stroke-width:0.6999999999999998;"/><line style="stroke:#181818;stroke-width:0.6999999999999998;stroke-dasharray:2.0,2.0;" x1="420.35" x2="611.45" y1="153.3807" y2="153.3807"/><text fill="#000000" font-family="sans-serif" font-size="9.1" font-weight="bold" lengthAdjust="spacing" textLength="4.9" x="428.75" y="149.6968">3</text><text fill="#000000" font-family="sans-serif" font-size="9.1" lengthAdjust="spacing" textLength="102.2" x="436.45" y="149.6968">returns filtering strategies</text><polygon fill="#181818" points="59.15,172.4844,52.15,175.2844,59.15,178.0844,56.35,175.2844" style="stroke:#181818;stroke-width:0.6999999999999998;"/><line style="stroke:#181818;stroke-width:0.6999999999999998;stroke-dasharray:2.0,2.0;" x1="54.95" x2="409.15" y1="175.2844" y2="175.2844"/><text fill="#000000" font-family="sans-serif" font-size="9.1" font-weight="bold" lengthAdjust="spacing" textLength="4.9" x="63.35" y="171.6005">4</text><text fill="#000000" font-family="sans-serif" font-size="9.1" lengthAdjust="spacing" textLength="333.9" x="71.05" y="171.6005">asks to select the filtering strategy (No filter, by Description, by Date and by Code)</text><polygon fill="#181818" points="401.45,194.3881,408.45,197.1881,401.45,199.9881,404.25,197.1881" style="stroke:#181818;stroke-width:0.6999999999999998;"/><line style="stroke:#181818;stroke-width:0.6999999999999998;" x1="51.45" x2="405.65" y1="197.1881" y2="197.1881"/><text fill="#000000" font-family="sans-serif" font-size="9.1" font-weight="bold" lengthAdjust="spacing" textLength="4.9" x="56.35" y="193.5042">5</text><text fill="#000000" font-family="sans-serif" font-size="9.1" lengthAdjust="spacing" textLength="65.1" x="64.05" y="193.5042">selects strategy</text><polygon fill="#181818" points="600.25,216.2918,607.25,219.0918,600.25,221.8918,603.05,219.0918" style="stroke:#181818;stroke-width:0.6999999999999998;"/><line style="stroke:#181818;stroke-width:0.6999999999999998;" x1="416.85" x2="604.45" y1="219.0918" y2="219.0918"/><text fill="#000000" font-family="sans-serif" font-size="9.1" font-weight="bold" lengthAdjust="spacing" textLength="4.9" x="421.75" y="215.4079">6</text><text fill="#000000" font-family="sans-serif" font-size="9.1" lengthAdjust="spacing" textLength="123.2" x="429.45" y="215.4079">filteringStrategy(strategyIndex)</text><polygon fill="#181818" points="424.55,238.1955,417.55,240.9955,424.55,243.7955,421.75,240.9955" style="stroke:#181818;stroke-width:0.6999999999999998;"/><line style="stroke:#181818;stroke-width:0.6999999999999998;stroke-dasharray:2.0,2.0;" x1="420.35" x2="611.45" y1="240.9955" y2="240.9955"/><text fill="#000000" font-family="sans-serif" font-size="9.1" font-weight="bold" lengthAdjust="spacing" textLength="4.9" x="428.75" y="237.3116">7</text><text fill="#000000" font-family="sans-serif" font-size="9.1" lengthAdjust="spacing" textLength="32.9" x="436.45" y="237.3116">strategy</text><polygon fill="#181818" points="600.25,260.0992,607.25,262.8992,600.25,265.6992,603.05,262.8992" style="stroke:#181818;stroke-width:0.6999999999999998;"/><line style="stroke:#181818;stroke-width:0.6999999999999998;" x1="416.85" x2="604.45" y1="262.8992" y2="262.8992"/><text fill="#000000" font-family="sans-serif" font-size="9.1" font-weight="bold" lengthAdjust="spacing" textLength="4.9" x="421.75" y="259.2153">8</text><text fill="#000000" font-family="sans-serif" font-size="9.1" lengthAdjust="spacing" textLength="83.3" x="429.45" y="259.2153">newCriteria(strategy)</text><polygon fill="#181818" points="940.45,282.0029,947.45,284.8029,940.45,287.6029,943.25,284.8029" style="stroke:#181818;stroke-width:0.6999999999999998;"/><line style="stroke:#181818;stroke-width:0.6999999999999998;" x1="615.65" x2="944.65" y1="284.8029" y2="284.8029"/><text fill="#000000" font-family="sans-serif" font-size="9.1" font-weight="bold" lengthAdjust="spacing" textLength="4.9" x="620.55" y="281.119">9</text><text fill="#000000" font-family="sans-serif" font-size="9.1" lengthAdjust="spacing" textLength="50.4" x="628.25" y="281.119">newCriteria()</text><polygon fill="#181818" points="623.35,303.9066,616.35,306.7066,623.35,309.5066,620.55,306.7066" style="stroke:#181818;stroke-width:0.6999999999999998;"/><line style="stroke:#181818;stroke-width:0.6999999999999998;stroke-dasharray:2.0,2.0;" x1="619.15" x2="951.65" y1="306.7066" y2="306.7066"/><text fill="#000000" font-family="sans-serif" font-size="9.1" font-weight="bold" lengthAdjust="spacing" textLength="9.8" x="627.55" y="303.0228">10</text><text fill="#000000" font-family="sans-serif" font-size="9.1" lengthAdjust="spacing" textLength="89.6" x="640.15" y="303.0228">returns filtering criteria</text><polygon fill="#181818" points="424.55,325.8104,417.55,328.6104,424.55,331.4104,421.75,328.6104" style="stroke:#181818;stroke-width:0.6999999999999998;"/><line style="stroke:#181818;stroke-width:0.6999999999999998;stroke-dasharray:2.0,2.0;" x1="420.35" x2="611.45" y1="328.6104" y2="328.6104"/><text fill="#000000" font-family="sans-serif" font-size="9.1" font-weight="bold" lengthAdjust="spacing" textLength="9.8" x="428.75" y="324.9265">11</text><text fill="#000000" font-family="sans-serif" font-size="9.1" lengthAdjust="spacing" textLength="89.6" x="441.35" y="324.9265">returns filtering criteria</text><polygon fill="#181818" points="59.15,347.7141,52.15,350.5141,59.15,353.3141,56.35,350.5141" style="stroke:#181818;stroke-width:0.6999999999999998;"/><line style="stroke:#181818;stroke-width:0.6999999999999998;stroke-dasharray:2.0,2.0;" x1="54.95" x2="409.15" y1="350.5141" y2="350.5141"/><text fill="#000000" font-family="sans-serif" font-size="9.1" font-weight="bold" lengthAdjust="spacing" textLength="9.8" x="63.35" y="346.8302">12</text><text fill="#000000" font-family="sans-serif" font-size="9.1" lengthAdjust="spacing" textLength="129.5" x="75.95" y="346.8302">asks to input the filtering criteria</text><polygon fill="#181818" points="401.45,369.6178,408.45,372.4178,401.45,375.2178,404.25,372.4178" style="stroke:#181818;stroke-width:0.6999999999999998;"/><line style="stroke:#181818;stroke-width:0.6999999999999998;" x1="51.45" x2="405.65" y1="372.4178" y2="372.4178"/><text fill="#000000" font-family="sans-serif" font-size="9.1" font-weight="bold" lengthAdjust="spacing" textLength="9.8" x="56.35" y="368.7339">13</text><text fill="#000000" font-family="sans-serif" font-size="9.1" lengthAdjust="spacing" textLength="77.7" x="68.95" y="368.7339">submits the criteria</text><polygon fill="#181818" points="600.25,391.5215,607.25,394.3215,600.25,397.1215,603.05,394.3215" style="stroke:#181818;stroke-width:0.6999999999999998;"/><line style="stroke:#181818;stroke-width:0.6999999999999998;" x1="416.85" x2="604.45" y1="394.3215" y2="394.3215"/><text fill="#000000" font-family="sans-serif" font-size="9.1" font-weight="bold" lengthAdjust="spacing" textLength="9.8" x="421.75" y="390.6376">14</text><text fill="#000000" font-family="sans-serif" font-size="9.1" lengthAdjust="spacing" textLength="165.9" x="434.35" y="390.6376">listFilteredJobOpenings(strategy, criteria)</text><polygon fill="#181818" points="799.05,413.4252,806.05,416.2252,799.05,419.0252,801.85,416.2252" style="stroke:#181818;stroke-width:0.6999999999999998;"/><line style="stroke:#181818;stroke-width:0.6999999999999998;" x1="615.65" x2="803.25" y1="416.2252" y2="416.2252"/><text fill="#000000" font-family="sans-serif" font-size="9.1" font-weight="bold" lengthAdjust="spacing" textLength="9.8" x="620.55" y="412.5413">15</text><text fill="#000000" font-family="sans-serif" font-size="9.1" lengthAdjust="spacing" textLength="165.9" x="633.15" y="412.5413">listFilteredJobOpenings(strategy, criteria)</text><polygon fill="#181818" points="1044.05,435.3289,1051.05,438.1289,1044.05,440.9289,1046.85,438.1289" style="stroke:#181818;stroke-width:0.6999999999999998;"/><line style="stroke:#181818;stroke-width:0.6999999999999998;" x1="814.45" x2="1048.25" y1="438.1289" y2="438.1289"/><text fill="#000000" font-family="sans-serif" font-size="9.1" font-weight="bold" lengthAdjust="spacing" textLength="9.8" x="819.35" y="434.445">16</text><text fill="#000000" font-family="sans-serif" font-size="9.1" lengthAdjust="spacing" textLength="30.1" x="831.95" y="434.445">findAll()</text><polygon fill="#181818" points="822.15,457.2326,815.15,460.0326,822.15,462.8326,819.35,460.0326" style="stroke:#181818;stroke-width:0.6999999999999998;"/><line style="stroke:#181818;stroke-width:0.6999999999999998;stroke-dasharray:2.0,2.0;" x1="817.95" x2="1055.25" y1="460.0326" y2="460.0326"/><text fill="#000000" font-family="sans-serif" font-size="9.1" font-weight="bold" lengthAdjust="spacing" textLength="9.8" x="826.35" y="456.3487">17</text><text fill="#000000" font-family="sans-serif" font-size="9.1" lengthAdjust="spacing" textLength="75.6" x="838.95" y="456.3487">list of job openings</text><polygon fill="#181818" points="940.45,479.1363,947.45,481.9363,940.45,484.7363,943.25,481.9363" style="stroke:#181818;stroke-width:0.6999999999999998;"/><line style="stroke:#181818;stroke-width:0.6999999999999998;stroke-dasharray:2.0,2.0;" x1="814.45" x2="944.65" y1="481.9363" y2="481.9363"/><text fill="#000000" font-family="sans-serif" font-size="9.1" font-weight="bold" lengthAdjust="spacing" textLength="9.8" x="819.35" y="478.2524">18</text><text fill="#000000" font-family="sans-serif" font-size="9.1" lengthAdjust="spacing" textLength="83.3" x="831.95" y="478.2524">filter(criteria, toFilter)</text><polygon fill="#181818" points="822.15,501.04,815.15,503.84,822.15,506.64,819.35,503.84" style="stroke:#181818;stroke-width:0.6999999999999998;"/><line style="stroke:#181818;stroke-width:0.6999999999999998;stroke-dasharray:2.0,2.0;" x1="817.95" x2="951.65" y1="503.84" y2="503.84"/><text fill="#000000" font-family="sans-serif" font-size="9.1" font-weight="bold" lengthAdjust="spacing" textLength="9.8" x="826.35" y="500.1562">19</text><text fill="#000000" font-family="sans-serif" font-size="9.1" lengthAdjust="spacing" textLength="105" x="838.95" y="500.1562">list of job openings filtered</text><polygon fill="#181818" points="623.35,522.9437,616.35,525.7437,623.35,528.5437,620.55,525.7437" style="stroke:#181818;stroke-width:0.6999999999999998;"/><line style="stroke:#181818;stroke-width:0.6999999999999998;stroke-dasharray:2.0,2.0;" x1="619.15" x2="810.25" y1="525.7437" y2="525.7437"/><text fill="#000000" font-family="sans-serif" font-size="9.1" font-weight="bold" lengthAdjust="spacing" textLength="9.8" x="627.55" y="522.0599">20</text><text fill="#000000" font-family="sans-serif" font-size="9.1" lengthAdjust="spacing" textLength="105" x="640.15" y="522.0599">list of job openings filtered</text><polygon fill="#181818" points="424.55,544.8475,417.55,547.6475,424.55,550.4475,421.75,547.6475" style="stroke:#181818;stroke-width:0.6999999999999998;"/><line style="stroke:#181818;stroke-width:0.6999999999999998;stroke-dasharray:2.0,2.0;" x1="420.35" x2="611.45" y1="547.6475" y2="547.6475"/><text fill="#000000" font-family="sans-serif" font-size="9.1" font-weight="bold" lengthAdjust="spacing" textLength="9.8" x="428.75" y="543.9636">21</text><text fill="#000000" font-family="sans-serif" font-size="9.1" lengthAdjust="spacing" textLength="105" x="441.35" y="543.9636">list of job openings filtered</text><polygon fill="#181818" points="59.15,566.7512,52.15,569.5512,59.15,572.3512,56.35,569.5512" style="stroke:#181818;stroke-width:0.6999999999999998;"/><line style="stroke:#181818;stroke-width:0.6999999999999998;stroke-dasharray:2.0,2.0;" x1="54.95" x2="409.15" y1="569.5512" y2="569.5512"/><text fill="#000000" font-family="sans-serif" font-size="9.1" font-weight="bold" lengthAdjust="spacing" textLength="9.8" x="63.35" y="565.8673">22</text><text fill="#000000" font-family="sans-serif" font-size="9.1" lengthAdjust="spacing" textLength="158.2" x="75.95" y="565.8673">Displays the list of job openings filtered</text><!--SRC=[dLFjZjem4Fo_Jx6wNvn4Nk0K8Pr0IA3ILaKyW4dsgDjWfxPpRTw-k_acm97sLsndPsOzimuwP8IVj0-ujKVyafFHvkGnmZtzAiWaX2kjJawT0LGHh2dEHtAWac0TFYqB7-oP7EwKKIToJwWyxY1NBkX4vyg4YfgP6-B31gM4Ft5ys2mM7vGkhGdEPXcpCsAmY-FNFCzqeeAsPaJHm_VatZLtpzXjkuxZPZL2hNKMo0aeE1NeL0fglPVwvk2kp3VAhTTiHeNPofPXNybvlepOnqXnIxyp3rlJBGyRW1r62_7Y1PsOxOF7O36JC7vm6BO90u1hk7BWmGk-ZNhMv6VF0wc-6600Z7h5K3ZZUnxq7H50IZU9f0ycs36Uh_kpQjTJHad0y9skkKgSVRRDyHoF9Qx89qxdaboz5mLbKbalRKhFGrDgPj-HJVAXdBNb6vFIdt-nfDVvuFeZUKE_bqvB1weJdgAvaFcwX0zXwpq05qHZkUlKaWOESD6s44oBVK3mEFKsT6toOfnvJpI8i3YUjOmrL_R_R_WeGry_Gqhxr-KxJ-STV9gxtPl_N-gM0A2Z4jhgWSlKcVGroouog_vnULKINVU0zctqh0T-j-1EgvsGsjzPs-AStQylSsTS7eWsV9HUJSkbzbKuquXwrsxTxjP0JkU-Cv8hxVDCbVMCFM03-0i0]--></g></svg>