<?xml version="1.0" encoding="us-ascii" standalone="no"?><svg xmlns="http://www.w3.org/2000/svg" xmlns:xlink="http://www.w3.org/1999/xlink" contentStyleType="text/css" height="702px" preserveAspectRatio="none" style="width:804px;height:702px;background:#FFFFFF;" version="1.1" viewBox="0 0 804 702" width="804px" zoomAndPan="magnify"><defs/><g><!--cluster Job Opening--><g id="cluster_Job Opening"><rect fill="#BBCCAA" height="689" rx="2.5" ry="2.5" style="stroke:#181818;stroke-width:1.0;" width="791" x="7" y="7"/><text fill="#000000" font-family="sans-serif" font-size="14" font-weight="bold" lengthAdjust="spacing" textLength="90" x="357.5" y="24.1074">Job Opening</text></g><!--class JobOpening--><g id="elem_JobOpening"><rect codeLine="9" fill="#F1F1F1" height="76.543" id="JobOpening" rx="2.5" ry="2.5" style="stroke:#181818;stroke-width:0.5;" width="128" x="352" y="236"/><ellipse cx="367" cy="266.2715" fill="#ADD1B2" rx="11" ry="11" style="stroke:#181818;stroke-width:1.0;"/><path d="M369.7656,262.1465 Q369.9219,261.9277 370.1094,261.8184 Q370.2969,261.709 370.5156,261.709 Q370.8906,261.709 371.125,261.9746 Q371.3594,262.2246 371.3594,262.834 L371.3594,264.2871 Q371.3594,264.8965 371.125,265.1621 Q370.8906,265.4277 370.5156,265.4277 Q370.1719,265.4277 369.9688,265.2246 Q369.7656,265.0371 369.6563,264.5215 Q369.6094,264.1621 369.4219,263.9746 Q369.0938,263.5996 368.4844,263.3809 Q367.875,263.1621 367.25,263.1621 Q366.4844,263.1621 365.8438,263.4902 Q365.2188,263.8184 364.7188,264.5684 Q364.2344,265.3184 364.2344,266.3496 L364.2344,267.4434 Q364.2344,268.6777 365.125,269.5059 Q366.0156,270.3184 367.6094,270.3184 Q368.5469,270.3184 369.2031,270.0684 Q369.5938,269.9121 370.0156,269.4746 Q370.2813,269.209 370.4219,269.1309 Q370.5781,269.0527 370.7813,269.0527 Q371.1094,269.0527 371.3594,269.3184 Q371.625,269.5684 371.625,269.9121 Q371.625,270.2559 371.2813,270.6621 Q370.7813,271.2402 369.9844,271.5684 Q368.9063,272.0215 367.6094,272.0215 Q366.0938,272.0215 364.8906,271.3965 Q363.9063,270.8965 363.2188,269.834 Q362.5313,268.7559 362.5313,267.4746 L362.5313,266.3184 Q362.5313,264.9902 363.1406,263.8496 Q363.7656,262.6934 364.8594,262.084 Q365.9531,261.459 367.1875,261.459 Q367.9219,261.459 368.5625,261.6309 Q369.2188,261.7871 369.7656,262.1465 Z " fill="#000000"/><text fill="#000000" font-family="sans-serif" font-size="12" font-style="italic" lengthAdjust="spacing" textLength="100" x="379" y="253.9492">&#171;Aggregate Root&#187;</text><text fill="#000000" font-family="sans-serif" font-size="12" font-style="italic" lengthAdjust="spacing" textLength="44" x="407" y="269.9102">&#171;Entity&#187;</text><text fill="#000000" font-family="sans-serif" font-size="14" lengthAdjust="spacing" textLength="76" x="391" y="288.0293">JobOpening</text><line style="stroke:#181818;stroke-width:0.5;" x1="353" x2="479" y1="296.543" y2="296.543"/><line style="stroke:#181818;stroke-width:0.5;" x1="353" x2="479" y1="304.543" y2="304.543"/></g><!--class JobReference--><g id="elem_JobReference"><rect codeLine="11" fill="#F1F1F1" height="76.543" id="JobReference" rx="2.5" ry="2.5" style="stroke:#181818;stroke-width:0.5;" width="120" x="23" y="373"/><ellipse cx="38" cy="403.2715" fill="#ADD1B2" rx="11" ry="11" style="stroke:#181818;stroke-width:1.0;"/><path d="M40.7656,399.1465 Q40.9219,398.9277 41.1094,398.8184 Q41.2969,398.709 41.5156,398.709 Q41.8906,398.709 42.125,398.9746 Q42.3594,399.2246 42.3594,399.834 L42.3594,401.2871 Q42.3594,401.8965 42.125,402.1621 Q41.8906,402.4277 41.5156,402.4277 Q41.1719,402.4277 40.9688,402.2246 Q40.7656,402.0371 40.6563,401.5215 Q40.6094,401.1621 40.4219,400.9746 Q40.0938,400.5996 39.4844,400.3809 Q38.875,400.1621 38.25,400.1621 Q37.4844,400.1621 36.8438,400.4902 Q36.2188,400.8184 35.7188,401.5684 Q35.2344,402.3184 35.2344,403.3496 L35.2344,404.4434 Q35.2344,405.6777 36.125,406.5059 Q37.0156,407.3184 38.6094,407.3184 Q39.5469,407.3184 40.2031,407.0684 Q40.5938,406.9121 41.0156,406.4746 Q41.2813,406.209 41.4219,406.1309 Q41.5781,406.0527 41.7813,406.0527 Q42.1094,406.0527 42.3594,406.3184 Q42.625,406.5684 42.625,406.9121 Q42.625,407.2559 42.2813,407.6621 Q41.7813,408.2402 40.9844,408.5684 Q39.9063,409.0215 38.6094,409.0215 Q37.0938,409.0215 35.8906,408.3965 Q34.9063,407.8965 34.2188,406.834 Q33.5313,405.7559 33.5313,404.4746 L33.5313,403.3184 Q33.5313,401.9902 34.1406,400.8496 Q34.7656,399.6934 35.8594,399.084 Q36.9531,398.459 38.1875,398.459 Q38.9219,398.459 39.5625,398.6309 Q40.2188,398.7871 40.7656,399.1465 Z " fill="#000000"/><text fill="#000000" font-family="sans-serif" font-size="12" font-style="italic" lengthAdjust="spacing" textLength="54" x="69" y="390.9492">&#171;Identity&#187;</text><text fill="#000000" font-family="sans-serif" font-size="12" font-style="italic" lengthAdjust="spacing" textLength="85" x="53.5" y="406.9102">&#171;Value Object&#187;</text><text fill="#000000" font-family="sans-serif" font-size="14" lengthAdjust="spacing" textLength="88" x="52" y="425.0293">JobReference</text><line style="stroke:#181818;stroke-width:0.5;" x1="24" x2="142" y1="433.543" y2="433.543"/><line style="stroke:#181818;stroke-width:0.5;" x1="24" x2="142" y1="441.543" y2="441.543"/></g><!--class TitleOrFunction--><g id="elem_TitleOrFunction"><rect codeLine="13" fill="#F1F1F1" height="60.582" id="TitleOrFunction" rx="2.5" ry="2.5" style="stroke:#181818;stroke-width:0.5;" width="130" x="178" y="381"/><ellipse cx="193" cy="403.291" fill="#ADD1B2" rx="11" ry="11" style="stroke:#181818;stroke-width:1.0;"/><path d="M195.7656,399.166 Q195.9219,398.9473 196.1094,398.8379 Q196.2969,398.7285 196.5156,398.7285 Q196.8906,398.7285 197.125,398.9941 Q197.3594,399.2441 197.3594,399.8535 L197.3594,401.3066 Q197.3594,401.916 197.125,402.1816 Q196.8906,402.4473 196.5156,402.4473 Q196.1719,402.4473 195.9688,402.2441 Q195.7656,402.0566 195.6563,401.541 Q195.6094,401.1816 195.4219,400.9941 Q195.0938,400.6191 194.4844,400.4004 Q193.875,400.1816 193.25,400.1816 Q192.4844,400.1816 191.8438,400.5098 Q191.2188,400.8379 190.7188,401.5879 Q190.2344,402.3379 190.2344,403.3691 L190.2344,404.4629 Q190.2344,405.6973 191.125,406.5254 Q192.0156,407.3379 193.6094,407.3379 Q194.5469,407.3379 195.2031,407.0879 Q195.5938,406.9316 196.0156,406.4941 Q196.2813,406.2285 196.4219,406.1504 Q196.5781,406.0723 196.7813,406.0723 Q197.1094,406.0723 197.3594,406.3379 Q197.625,406.5879 197.625,406.9316 Q197.625,407.2754 197.2813,407.6816 Q196.7813,408.2598 195.9844,408.5879 Q194.9063,409.041 193.6094,409.041 Q192.0938,409.041 190.8906,408.416 Q189.9063,407.916 189.2188,406.8535 Q188.5313,405.7754 188.5313,404.4941 L188.5313,403.3379 Q188.5313,402.0098 189.1406,400.8691 Q189.7656,399.7129 190.8594,399.1035 Q191.9531,398.4785 193.1875,398.4785 Q193.9219,398.4785 194.5625,398.6504 Q195.2188,398.8066 195.7656,399.166 Z " fill="#000000"/><text fill="#000000" font-family="sans-serif" font-size="12" font-style="italic" lengthAdjust="spacing" textLength="85" x="213.5" y="398.9492">&#171;Value Object&#187;</text><text fill="#000000" font-family="sans-serif" font-size="14" lengthAdjust="spacing" textLength="98" x="207" y="417.0684">TitleOrFunction</text><line style="stroke:#181818;stroke-width:0.5;" x1="179" x2="307" y1="425.582" y2="425.582"/><line style="stroke:#181818;stroke-width:0.5;" x1="179" x2="307" y1="433.582" y2="433.582"/></g><!--class ContractType--><g id="elem_ContractType"><rect codeLine="15" fill="#F1F1F1" height="113.7852" id="ContractType" rx="2.5" ry="2.5" style="stroke:#181818;stroke-width:0.5;" width="118" x="432" y="53"/><ellipse cx="447" cy="83.2715" fill="#EB937F" rx="11" ry="11" style="stroke:#181818;stroke-width:1.0;"/><path d="M445.8594,84.0684 L445.8594,86.5684 L450.1875,86.5684 L450.1875,85.6465 Q450.1875,85.0371 450.4219,84.7715 Q450.6719,84.5059 451.0469,84.5059 Q451.4219,84.5059 451.6563,84.7715 Q451.8906,85.0371 451.8906,85.6465 L451.8906,88.2715 L443.8906,88.2715 Q443.2656,88.2715 443,88.0371 Q442.75,87.8027 442.75,87.4121 Q442.75,87.0371 443.0156,86.8027 Q443.2813,86.5684 443.8906,86.5684 L444.1563,86.5684 L444.1563,79.9121 L443.8906,79.9121 Q443.2656,79.9121 443,79.6777 Q442.75,79.4434 442.75,79.0527 Q442.75,78.6777 443,78.4434 Q443.2656,78.209 443.8906,78.209 L451.5156,78.209 L451.5156,80.8027 Q451.5156,81.4121 451.2813,81.6777 Q451.0625,81.9277 450.6719,81.9277 Q450.2969,81.9277 450.0625,81.6777 Q449.8281,81.4121 449.8281,80.8027 L449.8281,79.9121 L445.8594,79.9121 L445.8594,82.3652 L447.3438,82.3652 Q447.3438,81.709 447.4688,81.5215 Q447.7344,81.1152 448.2031,81.1152 Q448.5781,81.1152 448.8125,81.3809 Q449.0469,81.6309 449.0469,82.2402 L449.0469,84.209 Q449.0469,84.7559 448.9219,84.9434 Q448.6563,85.334 448.2031,85.334 Q447.7344,85.334 447.4688,84.9277 Q447.3438,84.7402 447.3438,84.0684 L445.8594,84.0684 Z " fill="#000000"/><text fill="#000000" font-family="sans-serif" font-size="12" font-style="italic" lengthAdjust="spacing" textLength="82" x="463" y="70.9492">&#171;Enumerated&#187;</text><text fill="#000000" font-family="sans-serif" font-size="12" font-style="italic" lengthAdjust="spacing" textLength="85" x="461.5" y="86.9102">&#171;Value Object&#187;</text><text fill="#000000" font-family="sans-serif" font-size="14" lengthAdjust="spacing" textLength="86" x="461" y="105.0293">ContractType</text><line style="stroke:#181818;stroke-width:0.5;" x1="433" x2="549" y1="113.543" y2="113.543"/><text fill="#000000" font-family="sans-serif" font-size="14" lengthAdjust="spacing" textLength="74" x="438" y="132.6504">FULL_TIME</text><text fill="#000000" font-family="sans-serif" font-size="14" lengthAdjust="spacing" textLength="77" x="438" y="151.2715">PART_TIME</text><line style="stroke:#181818;stroke-width:0.5;" x1="433" x2="549" y1="158.7852" y2="158.7852"/></g><!--class Mode--><g id="elem_Mode"><rect codeLine="20" fill="#F1F1F1" height="132.4063" id="Mode" rx="2.5" ry="2.5" style="stroke:#181818;stroke-width:0.5;" width="113" x="283.5" y="44"/><ellipse cx="298.5" cy="74.2715" fill="#EB937F" rx="11" ry="11" style="stroke:#181818;stroke-width:1.0;"/><path d="M297.3594,75.0684 L297.3594,77.5684 L301.6875,77.5684 L301.6875,76.6465 Q301.6875,76.0371 301.9219,75.7715 Q302.1719,75.5059 302.5469,75.5059 Q302.9219,75.5059 303.1563,75.7715 Q303.3906,76.0371 303.3906,76.6465 L303.3906,79.2715 L295.3906,79.2715 Q294.7656,79.2715 294.5,79.0371 Q294.25,78.8027 294.25,78.4121 Q294.25,78.0371 294.5156,77.8027 Q294.7813,77.5684 295.3906,77.5684 L295.6563,77.5684 L295.6563,70.9121 L295.3906,70.9121 Q294.7656,70.9121 294.5,70.6777 Q294.25,70.4434 294.25,70.0527 Q294.25,69.6777 294.5,69.4434 Q294.7656,69.209 295.3906,69.209 L303.0156,69.209 L303.0156,71.8027 Q303.0156,72.4121 302.7813,72.6777 Q302.5625,72.9277 302.1719,72.9277 Q301.7969,72.9277 301.5625,72.6777 Q301.3281,72.4121 301.3281,71.8027 L301.3281,70.9121 L297.3594,70.9121 L297.3594,73.3652 L298.8438,73.3652 Q298.8438,72.709 298.9688,72.5215 Q299.2344,72.1152 299.7031,72.1152 Q300.0781,72.1152 300.3125,72.3809 Q300.5469,72.6309 300.5469,73.2402 L300.5469,75.209 Q300.5469,75.7559 300.4219,75.9434 Q300.1563,76.334 299.7031,76.334 Q299.2344,76.334 298.9688,75.9277 Q298.8438,75.7402 298.8438,75.0684 L297.3594,75.0684 Z " fill="#000000"/><text fill="#000000" font-family="sans-serif" font-size="12" font-style="italic" lengthAdjust="spacing" textLength="82" x="312" y="61.9492">&#171;Enumerated&#187;</text><text fill="#000000" font-family="sans-serif" font-size="12" font-style="italic" lengthAdjust="spacing" textLength="85" x="310.5" y="77.9102">&#171;Value Object&#187;</text><text fill="#000000" font-family="sans-serif" font-size="14" lengthAdjust="spacing" textLength="35" x="335.5" y="96.0293">Mode</text><line style="stroke:#181818;stroke-width:0.5;" x1="284.5" x2="395.5" y1="104.543" y2="104.543"/><text fill="#000000" font-family="sans-serif" font-size="14" lengthAdjust="spacing" textLength="59" x="289.5" y="123.6504">REMOTE</text><text fill="#000000" font-family="sans-serif" font-size="14" lengthAdjust="spacing" textLength="55" x="289.5" y="142.2715">ON-SITE</text><text fill="#000000" font-family="sans-serif" font-size="14" lengthAdjust="spacing" textLength="50" x="289.5" y="160.8926">HYBRID</text><line style="stroke:#181818;stroke-width:0.5;" x1="284.5" x2="395.5" y1="168.4063" y2="168.4063"/></g><!--class VacanciesNumber--><g id="elem_VacanciesNumber"><rect codeLine="27" fill="#F1F1F1" height="60.582" id="VacanciesNumber" rx="2.5" ry="2.5" style="stroke:#181818;stroke-width:0.5;" width="146" x="343" y="381"/><ellipse cx="358" cy="403.291" fill="#ADD1B2" rx="11" ry="11" style="stroke:#181818;stroke-width:1.0;"/><path d="M360.7656,399.166 Q360.9219,398.9473 361.1094,398.8379 Q361.2969,398.7285 361.5156,398.7285 Q361.8906,398.7285 362.125,398.9941 Q362.3594,399.2441 362.3594,399.8535 L362.3594,401.3066 Q362.3594,401.916 362.125,402.1816 Q361.8906,402.4473 361.5156,402.4473 Q361.1719,402.4473 360.9688,402.2441 Q360.7656,402.0566 360.6563,401.541 Q360.6094,401.1816 360.4219,400.9941 Q360.0938,400.6191 359.4844,400.4004 Q358.875,400.1816 358.25,400.1816 Q357.4844,400.1816 356.8438,400.5098 Q356.2188,400.8379 355.7188,401.5879 Q355.2344,402.3379 355.2344,403.3691 L355.2344,404.4629 Q355.2344,405.6973 356.125,406.5254 Q357.0156,407.3379 358.6094,407.3379 Q359.5469,407.3379 360.2031,407.0879 Q360.5938,406.9316 361.0156,406.4941 Q361.2813,406.2285 361.4219,406.1504 Q361.5781,406.0723 361.7813,406.0723 Q362.1094,406.0723 362.3594,406.3379 Q362.625,406.5879 362.625,406.9316 Q362.625,407.2754 362.2813,407.6816 Q361.7813,408.2598 360.9844,408.5879 Q359.9063,409.041 358.6094,409.041 Q357.0938,409.041 355.8906,408.416 Q354.9063,407.916 354.2188,406.8535 Q353.5313,405.7754 353.5313,404.4941 L353.5313,403.3379 Q353.5313,402.0098 354.1406,400.8691 Q354.7656,399.7129 355.8594,399.1035 Q356.9531,398.4785 358.1875,398.4785 Q358.9219,398.4785 359.5625,398.6504 Q360.2188,398.8066 360.7656,399.166 Z " fill="#000000"/><text fill="#000000" font-family="sans-serif" font-size="12" font-style="italic" lengthAdjust="spacing" textLength="85" x="386.5" y="398.9492">&#171;Value Object&#187;</text><text fill="#000000" font-family="sans-serif" font-size="14" lengthAdjust="spacing" textLength="114" x="372" y="417.0684">VacanciesNumber</text><line style="stroke:#181818;stroke-width:0.5;" x1="344" x2="488" y1="425.582" y2="425.582"/><line style="stroke:#181818;stroke-width:0.5;" x1="344" x2="488" y1="433.582" y2="433.582"/></g><!--class Description--><g id="elem_Description"><rect codeLine="29" fill="#F1F1F1" height="60.582" id="Description" rx="2.5" ry="2.5" style="stroke:#181818;stroke-width:0.5;" width="113" x="524.5" y="381"/><ellipse cx="539.5" cy="403.291" fill="#ADD1B2" rx="11" ry="11" style="stroke:#181818;stroke-width:1.0;"/><path d="M542.2656,399.166 Q542.4219,398.9473 542.6094,398.8379 Q542.7969,398.7285 543.0156,398.7285 Q543.3906,398.7285 543.625,398.9941 Q543.8594,399.2441 543.8594,399.8535 L543.8594,401.3066 Q543.8594,401.916 543.625,402.1816 Q543.3906,402.4473 543.0156,402.4473 Q542.6719,402.4473 542.4688,402.2441 Q542.2656,402.0566 542.1563,401.541 Q542.1094,401.1816 541.9219,400.9941 Q541.5938,400.6191 540.9844,400.4004 Q540.375,400.1816 539.75,400.1816 Q538.9844,400.1816 538.3438,400.5098 Q537.7188,400.8379 537.2188,401.5879 Q536.7344,402.3379 536.7344,403.3691 L536.7344,404.4629 Q536.7344,405.6973 537.625,406.5254 Q538.5156,407.3379 540.1094,407.3379 Q541.0469,407.3379 541.7031,407.0879 Q542.0938,406.9316 542.5156,406.4941 Q542.7813,406.2285 542.9219,406.1504 Q543.0781,406.0723 543.2813,406.0723 Q543.6094,406.0723 543.8594,406.3379 Q544.125,406.5879 544.125,406.9316 Q544.125,407.2754 543.7813,407.6816 Q543.2813,408.2598 542.4844,408.5879 Q541.4063,409.041 540.1094,409.041 Q538.5938,409.041 537.3906,408.416 Q536.4063,407.916 535.7188,406.8535 Q535.0313,405.7754 535.0313,404.4941 L535.0313,403.3379 Q535.0313,402.0098 535.6406,400.8691 Q536.2656,399.7129 537.3594,399.1035 Q538.4531,398.4785 539.6875,398.4785 Q540.4219,398.4785 541.0625,398.6504 Q541.7188,398.8066 542.2656,399.166 Z " fill="#000000"/><text fill="#000000" font-family="sans-serif" font-size="12" font-style="italic" lengthAdjust="spacing" textLength="85" x="551.5" y="398.9492">&#171;Value Object&#187;</text><text fill="#000000" font-family="sans-serif" font-size="14" lengthAdjust="spacing" textLength="71" x="558.5" y="417.0684">Description</text><line style="stroke:#181818;stroke-width:0.5;" x1="525.5" x2="636.5" y1="425.582" y2="425.582"/><line style="stroke:#181818;stroke-width:0.5;" x1="525.5" x2="636.5" y1="433.582" y2="433.582"/></g><!--class PhaseDates--><g id="elem_PhaseDates"><rect codeLine="31" fill="#F1F1F1" height="60.582" id="PhaseDates" rx="2.5" ry="2.5" style="stroke:#181818;stroke-width:0.5;" width="109" x="672.5" y="381"/><ellipse cx="687.5" cy="403.291" fill="#ADD1B2" rx="11" ry="11" style="stroke:#181818;stroke-width:1.0;"/><path d="M690.2656,399.166 Q690.4219,398.9473 690.6094,398.8379 Q690.7969,398.7285 691.0156,398.7285 Q691.3906,398.7285 691.625,398.9941 Q691.8594,399.2441 691.8594,399.8535 L691.8594,401.3066 Q691.8594,401.916 691.625,402.1816 Q691.3906,402.4473 691.0156,402.4473 Q690.6719,402.4473 690.4688,402.2441 Q690.2656,402.0566 690.1563,401.541 Q690.1094,401.1816 689.9219,400.9941 Q689.5938,400.6191 688.9844,400.4004 Q688.375,400.1816 687.75,400.1816 Q686.9844,400.1816 686.3438,400.5098 Q685.7188,400.8379 685.2188,401.5879 Q684.7344,402.3379 684.7344,403.3691 L684.7344,404.4629 Q684.7344,405.6973 685.625,406.5254 Q686.5156,407.3379 688.1094,407.3379 Q689.0469,407.3379 689.7031,407.0879 Q690.0938,406.9316 690.5156,406.4941 Q690.7813,406.2285 690.9219,406.1504 Q691.0781,406.0723 691.2813,406.0723 Q691.6094,406.0723 691.8594,406.3379 Q692.125,406.5879 692.125,406.9316 Q692.125,407.2754 691.7813,407.6816 Q691.2813,408.2598 690.4844,408.5879 Q689.4063,409.041 688.1094,409.041 Q686.5938,409.041 685.3906,408.416 Q684.4063,407.916 683.7188,406.8535 Q683.0313,405.7754 683.0313,404.4941 L683.0313,403.3379 Q683.0313,402.0098 683.6406,400.8691 Q684.2656,399.7129 685.3594,399.1035 Q686.4531,398.4785 687.6875,398.4785 Q688.4219,398.4785 689.0625,398.6504 Q689.7188,398.8066 690.2656,399.166 Z " fill="#000000"/><text fill="#000000" font-family="sans-serif" font-size="12" font-style="italic" lengthAdjust="spacing" textLength="44" x="718" y="398.9492">&#171;Entity&#187;</text><text fill="#000000" font-family="sans-serif" font-size="14" lengthAdjust="spacing" textLength="77" x="701.5" y="417.0684">PhaseDates</text><line style="stroke:#181818;stroke-width:0.5;" x1="673.5" x2="780.5" y1="425.582" y2="425.582"/><line style="stroke:#181818;stroke-width:0.5;" x1="673.5" x2="780.5" y1="433.582" y2="433.582"/></g><!--class PhaseType--><g id="elem_PhaseType"><rect codeLine="32" fill="#F1F1F1" height="169.6484" id="PhaseType" rx="2.5" ry="2.5" style="stroke:#181818;stroke-width:0.5;" width="113" x="668.5" y="510"/><ellipse cx="683.5" cy="540.2715" fill="#EB937F" rx="11" ry="11" style="stroke:#181818;stroke-width:1.0;"/><path d="M682.3594,541.0684 L682.3594,543.5684 L686.6875,543.5684 L686.6875,542.6465 Q686.6875,542.0371 686.9219,541.7715 Q687.1719,541.5059 687.5469,541.5059 Q687.9219,541.5059 688.1563,541.7715 Q688.3906,542.0371 688.3906,542.6465 L688.3906,545.2715 L680.3906,545.2715 Q679.7656,545.2715 679.5,545.0371 Q679.25,544.8027 679.25,544.4121 Q679.25,544.0371 679.5156,543.8027 Q679.7813,543.5684 680.3906,543.5684 L680.6563,543.5684 L680.6563,536.9121 L680.3906,536.9121 Q679.7656,536.9121 679.5,536.6777 Q679.25,536.4434 679.25,536.0527 Q679.25,535.6777 679.5,535.4434 Q679.7656,535.209 680.3906,535.209 L688.0156,535.209 L688.0156,537.8027 Q688.0156,538.4121 687.7813,538.6777 Q687.5625,538.9277 687.1719,538.9277 Q686.7969,538.9277 686.5625,538.6777 Q686.3281,538.4121 686.3281,537.8027 L686.3281,536.9121 L682.3594,536.9121 L682.3594,539.3652 L683.8438,539.3652 Q683.8438,538.709 683.9688,538.5215 Q684.2344,538.1152 684.7031,538.1152 Q685.0781,538.1152 685.3125,538.3809 Q685.5469,538.6309 685.5469,539.2402 L685.5469,541.209 Q685.5469,541.7559 685.4219,541.9434 Q685.1563,542.334 684.7031,542.334 Q684.2344,542.334 683.9688,541.9277 Q683.8438,541.7402 683.8438,541.0684 L682.3594,541.0684 Z " fill="#000000"/><text fill="#000000" font-family="sans-serif" font-size="12" font-style="italic" lengthAdjust="spacing" textLength="82" x="697" y="527.9492">&#171;Enumerated&#187;</text><text fill="#000000" font-family="sans-serif" font-size="12" font-style="italic" lengthAdjust="spacing" textLength="85" x="695.5" y="543.9102">&#171;Value Object&#187;</text><text fill="#000000" font-family="sans-serif" font-size="14" lengthAdjust="spacing" textLength="72" x="702" y="562.0293">PhaseType</text><line style="stroke:#181818;stroke-width:0.5;" x1="669.5" x2="780.5" y1="570.543" y2="570.543"/><text fill="#000000" font-family="sans-serif" font-size="14" lengthAdjust="spacing" textLength="89" x="674.5" y="589.6504">APPLICATION</text><text fill="#000000" font-family="sans-serif" font-size="14" lengthAdjust="spacing" textLength="79" x="674.5" y="608.2715">SCREENING</text><text fill="#000000" font-family="sans-serif" font-size="14" lengthAdjust="spacing" textLength="83" x="674.5" y="626.8926">INTERVIEWS</text><text fill="#000000" font-family="sans-serif" font-size="14" lengthAdjust="spacing" textLength="65" x="674.5" y="645.5137">ANALYSIS</text><text fill="#000000" font-family="sans-serif" font-size="14" lengthAdjust="spacing" textLength="54" x="674.5" y="664.1348">RESULT</text><line style="stroke:#181818;stroke-width:0.5;" x1="669.5" x2="780.5" y1="671.6484" y2="671.6484"/></g><!--link JobOpening to PhaseDates--><g id="link_JobOpening_PhaseDates"><path codeLine="39" d="M480.09,299.78 C528.62,318.61 596.65,345.97 655,373 C660.63,375.61 661.0797,375.7442 666.8597,378.6242 " fill="none" id="JobOpening-to-PhaseDates" style="stroke:#181818;stroke-width:1.0;"/><polygon fill="#181818" points="672.23,381.3,665.9585,373.706,667.7548,379.0701,662.3907,380.8664,672.23,381.3" style="stroke:#181818;stroke-width:1.0;"/><text fill="#000000" font-family="sans-serif" font-size="13" lengthAdjust="spacing" textLength="7" x="487.9051" y="298.7918">1</text><text fill="#000000" font-family="sans-serif" font-size="13" lengthAdjust="spacing" textLength="7" x="657.4" y="373.1756">1</text></g><!--link PhaseDates to PhaseType--><g id="link_PhaseDates_PhaseType"><path codeLine="41" d="M726.67,442.07 C726.47,460.65 726.2541,479.6403 725.9941,503.9803 " fill="none" id="PhaseDates-to-PhaseType" style="stroke:#181818;stroke-width:1.0;"/><polygon fill="#181818" points="725.93,509.98,730.0259,501.0232,725.9834,504.9803,722.0264,500.9378,725.93,509.98" style="stroke:#181818;stroke-width:1.0;"/><text fill="#000000" font-family="sans-serif" font-size="13" lengthAdjust="spacing" textLength="7" x="718.9399" y="463.6136">1</text><text fill="#000000" font-family="sans-serif" font-size="13" lengthAdjust="spacing" textLength="7" x="718.7011" y="498.7078">1</text></g><!--link JobOpening to JobReference--><g id="link_JobOpening_JobReference"><path codeLine="59" d="M351.75,298.39 C299.83,317.29 225.1,345.39 161,373 C155.2,375.5 154.6596,375.6697 148.6896,378.4197 " fill="none" id="JobOpening-to-JobReference" style="stroke:#181818;stroke-width:1.0;"/><polygon fill="#181818" points="143.24,380.93,153.088,380.7976,147.7814,378.8381,149.7409,373.5315,143.24,380.93" style="stroke:#181818;stroke-width:1.0;"/><text fill="#000000" font-family="sans-serif" font-size="13" lengthAdjust="spacing" textLength="7" x="336.9164" y="297.241">1</text><text fill="#000000" font-family="sans-serif" font-size="13" lengthAdjust="spacing" textLength="7" x="151.0083" y="373.2422">1</text></g><!--link JobOpening to TitleOrFunction--><g id="link_JobOpening_TitleOrFunction"><path codeLine="60" d="M367.81,313.11 C340.42,334.48 311.3297,357.1782 285.8097,377.0982 " fill="none" id="JobOpening-to-TitleOrFunction" style="stroke:#181818;stroke-width:1.0;"/><polygon fill="#181818" points="281.08,380.79,290.6358,378.4054,285.0214,377.7135,285.7133,372.0991,281.08,380.79" style="stroke:#181818;stroke-width:1.0;"/><text fill="#000000" font-family="sans-serif" font-size="13" lengthAdjust="spacing" textLength="7" x="352.5719" y="334.7061">1</text><text fill="#000000" font-family="sans-serif" font-size="13" lengthAdjust="spacing" textLength="7" x="281.2121" y="369.8044">1</text></g><!--reverse link ContractType to JobOpening--><g id="link_ContractType_JobOpening"><path codeLine="61" d="M462.4652,172.8275 C452.0552,195.3775 442.86,215.31 433.5,235.59 " fill="none" id="ContractType-backto-JobOpening" style="stroke:#181818;stroke-width:1.0;"/><polygon fill="#181818" points="464.98,167.38,457.5761,173.8748,462.8843,171.9196,464.8395,177.2279,464.98,167.38" style="stroke:#181818;stroke-width:1.0;"/><text fill="#000000" font-family="sans-serif" font-size="13" lengthAdjust="spacing" textLength="7" x="454.7513" y="188.6416">1</text><text fill="#000000" font-family="sans-serif" font-size="13" lengthAdjust="spacing" textLength="7" x="428.8188" y="224.828">1</text></g><!--reverse link Mode to JobOpening--><g id="link_Mode_JobOpening"><path codeLine="62" d="M373.0121,181.5948 C382.5121,201.9048 390.12,218.17 398.43,235.92 " fill="none" id="Mode-backto-JobOpening" style="stroke:#181818;stroke-width:1.0;"/><polygon fill="#181818" points="370.47,176.16,370.66,186.007,372.5885,180.689,377.9064,182.6175,370.47,176.16" style="stroke:#181818;stroke-width:1.0;"/><text fill="#000000" font-family="sans-serif" font-size="13" lengthAdjust="spacing" textLength="7" x="366.4198" y="198.348">1</text><text fill="#000000" font-family="sans-serif" font-size="13" lengthAdjust="spacing" textLength="7" x="387.6769" y="224.6288">1</text></g><!--link JobOpening to Description--><g id="link_JobOpening_Description"><path codeLine="63" d="M461.96,313.11 C488.09,334.48 515.6968,357.0699 540.0368,376.9899 " fill="none" id="JobOpening-to-Description" style="stroke:#181818;stroke-width:1.0;"/><polygon fill="#181818" points="544.68,380.79,540.2485,371.9944,540.8106,377.6233,535.1818,378.1854,544.68,380.79" style="stroke:#181818;stroke-width:1.0;"/><text fill="#000000" font-family="sans-serif" font-size="13" lengthAdjust="spacing" textLength="7" x="461.7271" y="334.7061">1</text><text fill="#000000" font-family="sans-serif" font-size="13" lengthAdjust="spacing" textLength="7" x="529.4671" y="369.8044">1</text></g><!--link JobOpening to VacanciesNumber--><g id="link_JobOpening_VacanciesNumber"><path codeLine="64" d="M416,313.11 C416,334.48 416,354.87 416,374.79 " fill="none" id="JobOpening-to-VacanciesNumber" style="stroke:#181818;stroke-width:1.0;"/><polygon fill="#181818" points="416,380.79,420,371.79,416,375.79,412,371.79,416,380.79" style="stroke:#181818;stroke-width:1.0;"/><text fill="#000000" font-family="sans-serif" font-size="13" lengthAdjust="spacing" textLength="7" x="408.4422" y="334.7061">1</text><text fill="#000000" font-family="sans-serif" font-size="13" lengthAdjust="spacing" textLength="7" x="408.2781" y="369.8044">1</text></g><!--SRC=[bPDFRvim5C3l_XHMUc3JbCFkA5AQa9KfWGXegfucuxmGLZ3866rHbEy-6mWu4DhL5_1xl_VVpp2AjvZbX9CKfndBw95dAM31Iq2T9YVqZKJWYrC2c0CLX4M93XH7ii_-n2p21v8KWEHfCJpvcONOpO59_GG_X26bXE0pGbWUcf2Ym99e0DESHn67Y0Z0NfQ9sSmqBIPYSPhDpfUUZGS7uC0ecAQzXuOopHr9Ii1k-5kcqBSAOf60orSbeoBEs1WCh4pn8cE24og2KmugYp85BlFQtubH6QcpUbwlVmNsncebsxaNT1BT_oRR_xTVpzguGUVKTQQ-hTsVNXyzUzbUPHIjvXsXXD4O2gTCG-3lDsW91ULn_bvpQd1x90KiPTx5pOJQwYhzPrftFVFjTcqlve7jEWETl_0iox6T7mEDxGIMjxEj5t_eq9clNtrxgF0i_taTt8Zh0hG7YIVV9tWwdLNVhkQw4vfWoAdQqGKPoD1sOHKd0hZowmlLaUXKhGGXbCgLC68cjGT20TVW5JehDohWjqCb__ArkSfPAN_aAhXSmNf8YqQDxypo1gp3FPwqyMFuAu3jYtugbxjsQc4_Ox2GZt_402iBzOJr5Q_wQaxBV5hzTGD2lPKU1_LzRgW1etPoJAVtPZH8Rzd6GMIqmwcUZaJgnwDtw4D8zVrZg4iSeNy0]--></g></svg>