<?xml version="1.0" encoding="us-ascii" standalone="no"?><svg xmlns="http://www.w3.org/2000/svg" xmlns:xlink="http://www.w3.org/1999/xlink" contentStyleType="text/css" height="425px" preserveAspectRatio="none" style="width:1162px;height:425px;background:#FFFFFF;" version="1.1" viewBox="0 0 1162 425" width="1162px" zoomAndPan="magnify"><defs/><g><!--cluster Job Opening--><g id="cluster_Job Opening"><rect fill="#ABBACC" height="408" rx="2.5" ry="2.5" style="stroke:#181818;stroke-width:1.0;" width="647" x="7" y="11"/><text fill="#000000" font-family="sans-serif" font-size="14" font-weight="bold" lengthAdjust="spacing" textLength="90" x="285.5" y="28.1074">Job Opening</text></g><!--cluster Filtering Strategy--><g id="cluster_Filtering Strategy"><rect fill="#BBAACC" height="404" rx="2.5" ry="2.5" style="stroke:#181818;stroke-width:1.0;" width="478" x="678" y="7"/><text fill="#000000" font-family="sans-serif" font-size="14" font-weight="bold" lengthAdjust="spacing" textLength="121" x="856.5" y="24.1074">Filtering Strategy</text></g><!--class JobOpening--><g id="elem_JobOpening"><rect codeLine="8" fill="#F1F1F1" height="76.543" id="JobOpening" rx="2.5" ry="2.5" style="stroke:#181818;stroke-width:0.5;" width="128" x="265" y="189"/><ellipse cx="280" cy="219.2715" fill="#ADD1B2" rx="11" ry="11" style="stroke:#181818;stroke-width:1.0;"/><path d="M282.7656,215.1465 Q282.9219,214.9277 283.1094,214.8184 Q283.2969,214.709 283.5156,214.709 Q283.8906,214.709 284.125,214.9746 Q284.3594,215.2246 284.3594,215.834 L284.3594,217.2871 Q284.3594,217.8965 284.125,218.1621 Q283.8906,218.4277 283.5156,218.4277 Q283.1719,218.4277 282.9688,218.2246 Q282.7656,218.0371 282.6563,217.5215 Q282.6094,217.1621 282.4219,216.9746 Q282.0938,216.5996 281.4844,216.3809 Q280.875,216.1621 280.25,216.1621 Q279.4844,216.1621 278.8438,216.4902 Q278.2188,216.8184 277.7188,217.5684 Q277.2344,218.3184 277.2344,219.3496 L277.2344,220.4434 Q277.2344,221.6777 278.125,222.5059 Q279.0156,223.3184 280.6094,223.3184 Q281.5469,223.3184 282.2031,223.0684 Q282.5938,222.9121 283.0156,222.4746 Q283.2813,222.209 283.4219,222.1309 Q283.5781,222.0527 283.7813,222.0527 Q284.1094,222.0527 284.3594,222.3184 Q284.625,222.5684 284.625,222.9121 Q284.625,223.2559 284.2813,223.6621 Q283.7813,224.2402 282.9844,224.5684 Q281.9063,225.0215 280.6094,225.0215 Q279.0938,225.0215 277.8906,224.3965 Q276.9063,223.8965 276.2188,222.834 Q275.5313,221.7559 275.5313,220.4746 L275.5313,219.3184 Q275.5313,217.9902 276.1406,216.8496 Q276.7656,215.6934 277.8594,215.084 Q278.9531,214.459 280.1875,214.459 Q280.9219,214.459 281.5625,214.6309 Q282.2188,214.7871 282.7656,215.1465 Z " fill="#000000"/><text fill="#000000" font-family="sans-serif" font-size="12" font-style="italic" lengthAdjust="spacing" textLength="100" x="292" y="206.9492">&#171;Aggregate Root&#187;</text><text fill="#000000" font-family="sans-serif" font-size="12" font-style="italic" lengthAdjust="spacing" textLength="44" x="320" y="222.9102">&#171;Entity&#187;</text><text fill="#000000" font-family="sans-serif" font-size="14" lengthAdjust="spacing" textLength="76" x="304" y="241.0293">JobOpening</text><line style="stroke:#181818;stroke-width:0.5;" x1="266" x2="392" y1="249.543" y2="249.543"/><line style="stroke:#181818;stroke-width:0.5;" x1="266" x2="392" y1="257.543" y2="257.543"/></g><!--class JobReference--><g id="elem_JobReference"><rect codeLine="10" fill="#F1F1F1" height="76.543" id="JobReference" rx="2.5" ry="2.5" style="stroke:#181818;stroke-width:0.5;" width="120" x="23" y="326"/><ellipse cx="38" cy="356.2715" fill="#ADD1B2" rx="11" ry="11" style="stroke:#181818;stroke-width:1.0;"/><path d="M40.7656,352.1465 Q40.9219,351.9277 41.1094,351.8184 Q41.2969,351.709 41.5156,351.709 Q41.8906,351.709 42.125,351.9746 Q42.3594,352.2246 42.3594,352.834 L42.3594,354.2871 Q42.3594,354.8965 42.125,355.1621 Q41.8906,355.4277 41.5156,355.4277 Q41.1719,355.4277 40.9688,355.2246 Q40.7656,355.0371 40.6563,354.5215 Q40.6094,354.1621 40.4219,353.9746 Q40.0938,353.5996 39.4844,353.3809 Q38.875,353.1621 38.25,353.1621 Q37.4844,353.1621 36.8438,353.4902 Q36.2188,353.8184 35.7188,354.5684 Q35.2344,355.3184 35.2344,356.3496 L35.2344,357.4434 Q35.2344,358.6777 36.125,359.5059 Q37.0156,360.3184 38.6094,360.3184 Q39.5469,360.3184 40.2031,360.0684 Q40.5938,359.9121 41.0156,359.4746 Q41.2813,359.209 41.4219,359.1309 Q41.5781,359.0527 41.7813,359.0527 Q42.1094,359.0527 42.3594,359.3184 Q42.625,359.5684 42.625,359.9121 Q42.625,360.2559 42.2813,360.6621 Q41.7813,361.2402 40.9844,361.5684 Q39.9063,362.0215 38.6094,362.0215 Q37.0938,362.0215 35.8906,361.3965 Q34.9063,360.8965 34.2188,359.834 Q33.5313,358.7559 33.5313,357.4746 L33.5313,356.3184 Q33.5313,354.9902 34.1406,353.8496 Q34.7656,352.6934 35.8594,352.084 Q36.9531,351.459 38.1875,351.459 Q38.9219,351.459 39.5625,351.6309 Q40.2188,351.7871 40.7656,352.1465 Z " fill="#000000"/><text fill="#000000" font-family="sans-serif" font-size="12" font-style="italic" lengthAdjust="spacing" textLength="54" x="69" y="343.9492">&#171;Identity&#187;</text><text fill="#000000" font-family="sans-serif" font-size="12" font-style="italic" lengthAdjust="spacing" textLength="85" x="53.5" y="359.9102">&#171;Value Object&#187;</text><text fill="#000000" font-family="sans-serif" font-size="14" lengthAdjust="spacing" textLength="88" x="52" y="378.0293">JobReference</text><line style="stroke:#181818;stroke-width:0.5;" x1="24" x2="142" y1="386.543" y2="386.543"/><line style="stroke:#181818;stroke-width:0.5;" x1="24" x2="142" y1="394.543" y2="394.543"/></g><!--class TitleOrFunction--><g id="elem_TitleOrFunction"><rect codeLine="12" fill="#F1F1F1" height="60.582" id="TitleOrFunction" rx="2.5" ry="2.5" style="stroke:#181818;stroke-width:0.5;" width="130" x="178" y="334"/><ellipse cx="193" cy="356.291" fill="#ADD1B2" rx="11" ry="11" style="stroke:#181818;stroke-width:1.0;"/><path d="M195.7656,352.166 Q195.9219,351.9473 196.1094,351.8379 Q196.2969,351.7285 196.5156,351.7285 Q196.8906,351.7285 197.125,351.9941 Q197.3594,352.2441 197.3594,352.8535 L197.3594,354.3066 Q197.3594,354.916 197.125,355.1816 Q196.8906,355.4473 196.5156,355.4473 Q196.1719,355.4473 195.9688,355.2441 Q195.7656,355.0566 195.6563,354.541 Q195.6094,354.1816 195.4219,353.9941 Q195.0938,353.6191 194.4844,353.4004 Q193.875,353.1816 193.25,353.1816 Q192.4844,353.1816 191.8438,353.5098 Q191.2188,353.8379 190.7188,354.5879 Q190.2344,355.3379 190.2344,356.3691 L190.2344,357.4629 Q190.2344,358.6973 191.125,359.5254 Q192.0156,360.3379 193.6094,360.3379 Q194.5469,360.3379 195.2031,360.0879 Q195.5938,359.9316 196.0156,359.4941 Q196.2813,359.2285 196.4219,359.1504 Q196.5781,359.0723 196.7813,359.0723 Q197.1094,359.0723 197.3594,359.3379 Q197.625,359.5879 197.625,359.9316 Q197.625,360.2754 197.2813,360.6816 Q196.7813,361.2598 195.9844,361.5879 Q194.9063,362.041 193.6094,362.041 Q192.0938,362.041 190.8906,361.416 Q189.9063,360.916 189.2188,359.8535 Q188.5313,358.7754 188.5313,357.4941 L188.5313,356.3379 Q188.5313,355.0098 189.1406,353.8691 Q189.7656,352.7129 190.8594,352.1035 Q191.9531,351.4785 193.1875,351.4785 Q193.9219,351.4785 194.5625,351.6504 Q195.2188,351.8066 195.7656,352.166 Z " fill="#000000"/><text fill="#000000" font-family="sans-serif" font-size="12" font-style="italic" lengthAdjust="spacing" textLength="85" x="213.5" y="351.9492">&#171;Value Object&#187;</text><text fill="#000000" font-family="sans-serif" font-size="14" lengthAdjust="spacing" textLength="98" x="207" y="370.0684">TitleOrFunction</text><line style="stroke:#181818;stroke-width:0.5;" x1="179" x2="307" y1="378.582" y2="378.582"/><line style="stroke:#181818;stroke-width:0.5;" x1="179" x2="307" y1="386.582" y2="386.582"/></g><!--class ContractType--><g id="elem_ContractType"><rect codeLine="14" fill="#F1F1F1" height="76.543" id="ContractType" rx="2.5" ry="2.5" style="stroke:#181818;stroke-width:0.5;" width="118" x="345" y="48"/><ellipse cx="360" cy="78.2715" fill="#EB937F" rx="11" ry="11" style="stroke:#181818;stroke-width:1.0;"/><path d="M358.8594,79.0684 L358.8594,81.5684 L363.1875,81.5684 L363.1875,80.6465 Q363.1875,80.0371 363.4219,79.7715 Q363.6719,79.5059 364.0469,79.5059 Q364.4219,79.5059 364.6563,79.7715 Q364.8906,80.0371 364.8906,80.6465 L364.8906,83.2715 L356.8906,83.2715 Q356.2656,83.2715 356,83.0371 Q355.75,82.8027 355.75,82.4121 Q355.75,82.0371 356.0156,81.8027 Q356.2813,81.5684 356.8906,81.5684 L357.1563,81.5684 L357.1563,74.9121 L356.8906,74.9121 Q356.2656,74.9121 356,74.6777 Q355.75,74.4434 355.75,74.0527 Q355.75,73.6777 356,73.4434 Q356.2656,73.209 356.8906,73.209 L364.5156,73.209 L364.5156,75.8027 Q364.5156,76.4121 364.2813,76.6777 Q364.0625,76.9277 363.6719,76.9277 Q363.2969,76.9277 363.0625,76.6777 Q362.8281,76.4121 362.8281,75.8027 L362.8281,74.9121 L358.8594,74.9121 L358.8594,77.3652 L360.3438,77.3652 Q360.3438,76.709 360.4688,76.5215 Q360.7344,76.1152 361.2031,76.1152 Q361.5781,76.1152 361.8125,76.3809 Q362.0469,76.6309 362.0469,77.2402 L362.0469,79.209 Q362.0469,79.7559 361.9219,79.9434 Q361.6563,80.334 361.2031,80.334 Q360.7344,80.334 360.4688,79.9277 Q360.3438,79.7402 360.3438,79.0684 L358.8594,79.0684 Z " fill="#000000"/><text fill="#000000" font-family="sans-serif" font-size="12" font-style="italic" lengthAdjust="spacing" textLength="82" x="376" y="65.9492">&#171;Enumerated&#187;</text><text fill="#000000" font-family="sans-serif" font-size="12" font-style="italic" lengthAdjust="spacing" textLength="85" x="374.5" y="81.9102">&#171;Value Object&#187;</text><text fill="#000000" font-family="sans-serif" font-size="14" lengthAdjust="spacing" textLength="86" x="374" y="100.0293">ContractType</text><line style="stroke:#181818;stroke-width:0.5;" x1="346" x2="462" y1="108.543" y2="108.543"/><line style="stroke:#181818;stroke-width:0.5;" x1="346" x2="462" y1="116.543" y2="116.543"/></g><!--class Mode--><g id="elem_Mode"><rect codeLine="16" fill="#F1F1F1" height="76.543" id="Mode" rx="2.5" ry="2.5" style="stroke:#181818;stroke-width:0.5;" width="113" x="196.5" y="48"/><ellipse cx="211.5" cy="78.2715" fill="#ADD1B2" rx="11" ry="11" style="stroke:#181818;stroke-width:1.0;"/><path d="M214.2656,74.1465 Q214.4219,73.9277 214.6094,73.8184 Q214.7969,73.709 215.0156,73.709 Q215.3906,73.709 215.625,73.9746 Q215.8594,74.2246 215.8594,74.834 L215.8594,76.2871 Q215.8594,76.8965 215.625,77.1621 Q215.3906,77.4277 215.0156,77.4277 Q214.6719,77.4277 214.4688,77.2246 Q214.2656,77.0371 214.1563,76.5215 Q214.1094,76.1621 213.9219,75.9746 Q213.5938,75.5996 212.9844,75.3809 Q212.375,75.1621 211.75,75.1621 Q210.9844,75.1621 210.3438,75.4902 Q209.7188,75.8184 209.2188,76.5684 Q208.7344,77.3184 208.7344,78.3496 L208.7344,79.4434 Q208.7344,80.6777 209.625,81.5059 Q210.5156,82.3184 212.1094,82.3184 Q213.0469,82.3184 213.7031,82.0684 Q214.0938,81.9121 214.5156,81.4746 Q214.7813,81.209 214.9219,81.1309 Q215.0781,81.0527 215.2813,81.0527 Q215.6094,81.0527 215.8594,81.3184 Q216.125,81.5684 216.125,81.9121 Q216.125,82.2559 215.7813,82.6621 Q215.2813,83.2402 214.4844,83.5684 Q213.4063,84.0215 212.1094,84.0215 Q210.5938,84.0215 209.3906,83.3965 Q208.4063,82.8965 207.7188,81.834 Q207.0313,80.7559 207.0313,79.4746 L207.0313,78.3184 Q207.0313,76.9902 207.6406,75.8496 Q208.2656,74.6934 209.3594,74.084 Q210.4531,73.459 211.6875,73.459 Q212.4219,73.459 213.0625,73.6309 Q213.7188,73.7871 214.2656,74.1465 Z " fill="#000000"/><text fill="#000000" font-family="sans-serif" font-size="12" font-style="italic" lengthAdjust="spacing" textLength="82" x="225" y="65.9492">&#171;Enumerated&#187;</text><text fill="#000000" font-family="sans-serif" font-size="12" font-style="italic" lengthAdjust="spacing" textLength="85" x="223.5" y="81.9102">&#171;Value Object&#187;</text><text fill="#000000" font-family="sans-serif" font-size="14" lengthAdjust="spacing" textLength="35" x="248.5" y="100.0293">Mode</text><line style="stroke:#181818;stroke-width:0.5;" x1="197.5" x2="308.5" y1="108.543" y2="108.543"/><line style="stroke:#181818;stroke-width:0.5;" x1="197.5" x2="308.5" y1="116.543" y2="116.543"/></g><!--class VacanciesNumber--><g id="elem_VacanciesNumber"><rect codeLine="19" fill="#F1F1F1" height="60.582" id="VacanciesNumber" rx="2.5" ry="2.5" style="stroke:#181818;stroke-width:0.5;" width="146" x="343" y="334"/><ellipse cx="358" cy="356.291" fill="#ADD1B2" rx="11" ry="11" style="stroke:#181818;stroke-width:1.0;"/><path d="M360.7656,352.166 Q360.9219,351.9473 361.1094,351.8379 Q361.2969,351.7285 361.5156,351.7285 Q361.8906,351.7285 362.125,351.9941 Q362.3594,352.2441 362.3594,352.8535 L362.3594,354.3066 Q362.3594,354.916 362.125,355.1816 Q361.8906,355.4473 361.5156,355.4473 Q361.1719,355.4473 360.9688,355.2441 Q360.7656,355.0566 360.6563,354.541 Q360.6094,354.1816 360.4219,353.9941 Q360.0938,353.6191 359.4844,353.4004 Q358.875,353.1816 358.25,353.1816 Q357.4844,353.1816 356.8438,353.5098 Q356.2188,353.8379 355.7188,354.5879 Q355.2344,355.3379 355.2344,356.3691 L355.2344,357.4629 Q355.2344,358.6973 356.125,359.5254 Q357.0156,360.3379 358.6094,360.3379 Q359.5469,360.3379 360.2031,360.0879 Q360.5938,359.9316 361.0156,359.4941 Q361.2813,359.2285 361.4219,359.1504 Q361.5781,359.0723 361.7813,359.0723 Q362.1094,359.0723 362.3594,359.3379 Q362.625,359.5879 362.625,359.9316 Q362.625,360.2754 362.2813,360.6816 Q361.7813,361.2598 360.9844,361.5879 Q359.9063,362.041 358.6094,362.041 Q357.0938,362.041 355.8906,361.416 Q354.9063,360.916 354.2188,359.8535 Q353.5313,358.7754 353.5313,357.4941 L353.5313,356.3379 Q353.5313,355.0098 354.1406,353.8691 Q354.7656,352.7129 355.8594,352.1035 Q356.9531,351.4785 358.1875,351.4785 Q358.9219,351.4785 359.5625,351.6504 Q360.2188,351.8066 360.7656,352.166 Z " fill="#000000"/><text fill="#000000" font-family="sans-serif" font-size="12" font-style="italic" lengthAdjust="spacing" textLength="85" x="386.5" y="351.9492">&#171;Value Object&#187;</text><text fill="#000000" font-family="sans-serif" font-size="14" lengthAdjust="spacing" textLength="114" x="372" y="370.0684">VacanciesNumber</text><line style="stroke:#181818;stroke-width:0.5;" x1="344" x2="488" y1="378.582" y2="378.582"/><line style="stroke:#181818;stroke-width:0.5;" x1="344" x2="488" y1="386.582" y2="386.582"/></g><!--class Description--><g id="elem_Description"><rect codeLine="21" fill="#F1F1F1" height="60.582" id="Description" rx="2.5" ry="2.5" style="stroke:#181818;stroke-width:0.5;" width="113" x="524.5" y="334"/><ellipse cx="539.5" cy="356.291" fill="#ADD1B2" rx="11" ry="11" style="stroke:#181818;stroke-width:1.0;"/><path d="M542.2656,352.166 Q542.4219,351.9473 542.6094,351.8379 Q542.7969,351.7285 543.0156,351.7285 Q543.3906,351.7285 543.625,351.9941 Q543.8594,352.2441 543.8594,352.8535 L543.8594,354.3066 Q543.8594,354.916 543.625,355.1816 Q543.3906,355.4473 543.0156,355.4473 Q542.6719,355.4473 542.4688,355.2441 Q542.2656,355.0566 542.1563,354.541 Q542.1094,354.1816 541.9219,353.9941 Q541.5938,353.6191 540.9844,353.4004 Q540.375,353.1816 539.75,353.1816 Q538.9844,353.1816 538.3438,353.5098 Q537.7188,353.8379 537.2188,354.5879 Q536.7344,355.3379 536.7344,356.3691 L536.7344,357.4629 Q536.7344,358.6973 537.625,359.5254 Q538.5156,360.3379 540.1094,360.3379 Q541.0469,360.3379 541.7031,360.0879 Q542.0938,359.9316 542.5156,359.4941 Q542.7813,359.2285 542.9219,359.1504 Q543.0781,359.0723 543.2813,359.0723 Q543.6094,359.0723 543.8594,359.3379 Q544.125,359.5879 544.125,359.9316 Q544.125,360.2754 543.7813,360.6816 Q543.2813,361.2598 542.4844,361.5879 Q541.4063,362.041 540.1094,362.041 Q538.5938,362.041 537.3906,361.416 Q536.4063,360.916 535.7188,359.8535 Q535.0313,358.7754 535.0313,357.4941 L535.0313,356.3379 Q535.0313,355.0098 535.6406,353.8691 Q536.2656,352.7129 537.3594,352.1035 Q538.4531,351.4785 539.6875,351.4785 Q540.4219,351.4785 541.0625,351.6504 Q541.7188,351.8066 542.2656,352.166 Z " fill="#000000"/><text fill="#000000" font-family="sans-serif" font-size="12" font-style="italic" lengthAdjust="spacing" textLength="85" x="551.5" y="351.9492">&#171;Value Object&#187;</text><text fill="#000000" font-family="sans-serif" font-size="14" lengthAdjust="spacing" textLength="71" x="558.5" y="370.0684">Description</text><line style="stroke:#181818;stroke-width:0.5;" x1="525.5" x2="636.5" y1="378.582" y2="378.582"/><line style="stroke:#181818;stroke-width:0.5;" x1="525.5" x2="636.5" y1="386.582" y2="386.582"/></g><!--class FilterStrategy--><g id="elem_FilterStrategy"><rect codeLine="28" fill="#F1F1F1" height="85.2422" id="FilterStrategy" rx="2.5" ry="2.5" style="stroke:#181818;stroke-width:0.5;" width="117" x="877.5" y="44"/><ellipse cx="892.5" cy="60" fill="#B4A7E5" rx="11" ry="11" style="stroke:#181818;stroke-width:1.0;"/><path d="M893.4531,56.6406 L893.4531,63.2969 L895.1719,63.2969 Q895.7813,63.2969 896.0469,63.5313 Q896.3125,63.7656 896.3125,64.1563 Q896.3125,64.5313 896.0469,64.7656 Q895.7813,65 895.1719,65 L890.0313,65 Q889.4219,65 889.1563,64.7656 Q888.8906,64.5313 888.8906,64.1406 Q888.8906,63.7656 889.1563,63.5313 Q889.4219,63.2969 890.0313,63.2969 L891.75,63.2969 L891.75,56.6406 L890.0313,56.6406 Q889.4219,56.6406 889.1563,56.4063 Q888.8906,56.1719 888.8906,55.7813 Q888.8906,55.4063 889.1563,55.1719 Q889.4219,54.9375 890.0313,54.9375 L895.1719,54.9375 Q895.7813,54.9375 896.0469,55.1719 Q896.3125,55.4063 896.3125,55.7813 Q896.3125,56.1719 896.0469,56.4063 Q895.7813,56.6406 895.1719,56.6406 L893.4531,56.6406 Z " fill="#000000"/><text fill="#000000" font-family="sans-serif" font-size="14" font-style="italic" lengthAdjust="spacing" textLength="85" x="906.5" y="65.7969">FilterStrategy</text><line style="stroke:#181818;stroke-width:0.5;" x1="878.5" x2="993.5" y1="76" y2="76"/><line style="stroke:#181818;stroke-width:0.5;" x1="878.5" x2="993.5" y1="84" y2="84"/><ellipse cx="888.5" cy="98.8105" fill="#84BE84" rx="3" ry="3" style="stroke:#038048;stroke-width:1.0;"/><text fill="#000000" font-family="sans-serif" font-size="14" lengthAdjust="spacing" textLength="37" x="897.5" y="103.1074">filter()</text><ellipse cx="888.5" cy="117.4316" fill="#84BE84" rx="3" ry="3" style="stroke:#038048;stroke-width:1.0;"/><text fill="#000000" font-family="sans-serif" font-size="14" lengthAdjust="spacing" textLength="53" x="897.5" y="121.7285">criteria()</text></g><!--class Criteria--><g id="elem_Criteria"><rect codeLine="34" fill="#F1F1F1" height="60.582" id="Criteria" rx="2.5" ry="2.5" style="stroke:#181818;stroke-width:0.5;" width="113" x="879.5" y="334"/><ellipse cx="894.5" cy="356.291" fill="#ADD1B2" rx="11" ry="11" style="stroke:#181818;stroke-width:1.0;"/><path d="M897.2656,352.166 Q897.4219,351.9473 897.6094,351.8379 Q897.7969,351.7285 898.0156,351.7285 Q898.3906,351.7285 898.625,351.9941 Q898.8594,352.2441 898.8594,352.8535 L898.8594,354.3066 Q898.8594,354.916 898.625,355.1816 Q898.3906,355.4473 898.0156,355.4473 Q897.6719,355.4473 897.4688,355.2441 Q897.2656,355.0566 897.1563,354.541 Q897.1094,354.1816 896.9219,353.9941 Q896.5938,353.6191 895.9844,353.4004 Q895.375,353.1816 894.75,353.1816 Q893.9844,353.1816 893.3438,353.5098 Q892.7188,353.8379 892.2188,354.5879 Q891.7344,355.3379 891.7344,356.3691 L891.7344,357.4629 Q891.7344,358.6973 892.625,359.5254 Q893.5156,360.3379 895.1094,360.3379 Q896.0469,360.3379 896.7031,360.0879 Q897.0938,359.9316 897.5156,359.4941 Q897.7813,359.2285 897.9219,359.1504 Q898.0781,359.0723 898.2813,359.0723 Q898.6094,359.0723 898.8594,359.3379 Q899.125,359.5879 899.125,359.9316 Q899.125,360.2754 898.7813,360.6816 Q898.2813,361.2598 897.4844,361.5879 Q896.4063,362.041 895.1094,362.041 Q893.5938,362.041 892.3906,361.416 Q891.4063,360.916 890.7188,359.8535 Q890.0313,358.7754 890.0313,357.4941 L890.0313,356.3379 Q890.0313,355.0098 890.6406,353.8691 Q891.2656,352.7129 892.3594,352.1035 Q893.4531,351.4785 894.6875,351.4785 Q895.4219,351.4785 896.0625,351.6504 Q896.7188,351.8066 897.2656,352.166 Z " fill="#000000"/><text fill="#000000" font-family="sans-serif" font-size="12" font-style="italic" lengthAdjust="spacing" textLength="85" x="906.5" y="351.9492">&#171;Value Object&#187;</text><text fill="#000000" font-family="sans-serif" font-size="14" lengthAdjust="spacing" textLength="46" x="926" y="370.0684">Criteria</text><line style="stroke:#181818;stroke-width:0.5;" x1="880.5" x2="991.5" y1="378.582" y2="378.582"/><line style="stroke:#181818;stroke-width:0.5;" x1="880.5" x2="991.5" y1="386.582" y2="386.582"/></g><!--class FilterByDescription--><g id="elem_FilterByDescription"><rect codeLine="36" fill="#F1F1F1" height="48" id="FilterByDescription" rx="2.5" ry="2.5" style="stroke:#181818;stroke-width:0.5;" width="151" x="694.5" y="203.5"/><ellipse cx="709.5" cy="219.5" fill="#ADD1B2" rx="11" ry="11" style="stroke:#181818;stroke-width:1.0;"/><path d="M712.2656,215.375 Q712.4219,215.1563 712.6094,215.0469 Q712.7969,214.9375 713.0156,214.9375 Q713.3906,214.9375 713.625,215.2031 Q713.8594,215.4531 713.8594,216.0625 L713.8594,217.5156 Q713.8594,218.125 713.625,218.3906 Q713.3906,218.6563 713.0156,218.6563 Q712.6719,218.6563 712.4688,218.4531 Q712.2656,218.2656 712.1563,217.75 Q712.1094,217.3906 711.9219,217.2031 Q711.5938,216.8281 710.9844,216.6094 Q710.375,216.3906 709.75,216.3906 Q708.9844,216.3906 708.3438,216.7188 Q707.7188,217.0469 707.2188,217.7969 Q706.7344,218.5469 706.7344,219.5781 L706.7344,220.6719 Q706.7344,221.9063 707.625,222.7344 Q708.5156,223.5469 710.1094,223.5469 Q711.0469,223.5469 711.7031,223.2969 Q712.0938,223.1406 712.5156,222.7031 Q712.7813,222.4375 712.9219,222.3594 Q713.0781,222.2813 713.2813,222.2813 Q713.6094,222.2813 713.8594,222.5469 Q714.125,222.7969 714.125,223.1406 Q714.125,223.4844 713.7813,223.8906 Q713.2813,224.4688 712.4844,224.7969 Q711.4063,225.25 710.1094,225.25 Q708.5938,225.25 707.3906,224.625 Q706.4063,224.125 705.7188,223.0625 Q705.0313,221.9844 705.0313,220.7031 L705.0313,219.5469 Q705.0313,218.2188 705.6406,217.0781 Q706.2656,215.9219 707.3594,215.3125 Q708.4531,214.6875 709.6875,214.6875 Q710.4219,214.6875 711.0625,214.8594 Q711.7188,215.0156 712.2656,215.375 Z " fill="#000000"/><text fill="#000000" font-family="sans-serif" font-size="14" lengthAdjust="spacing" textLength="119" x="723.5" y="225.2969">FilterByDescription</text><line style="stroke:#181818;stroke-width:0.5;" x1="695.5" x2="844.5" y1="235.5" y2="235.5"/><line style="stroke:#181818;stroke-width:0.5;" x1="695.5" x2="844.5" y1="243.5" y2="243.5"/></g><!--class FilterByDate--><g id="elem_FilterByDate"><rect codeLine="37" fill="#F1F1F1" height="48" id="FilterByDate" rx="2.5" ry="2.5" style="stroke:#181818;stroke-width:0.5;" width="110" x="881" y="203.5"/><ellipse cx="896" cy="219.5" fill="#ADD1B2" rx="11" ry="11" style="stroke:#181818;stroke-width:1.0;"/><path d="M898.7656,215.375 Q898.9219,215.1563 899.1094,215.0469 Q899.2969,214.9375 899.5156,214.9375 Q899.8906,214.9375 900.125,215.2031 Q900.3594,215.4531 900.3594,216.0625 L900.3594,217.5156 Q900.3594,218.125 900.125,218.3906 Q899.8906,218.6563 899.5156,218.6563 Q899.1719,218.6563 898.9688,218.4531 Q898.7656,218.2656 898.6563,217.75 Q898.6094,217.3906 898.4219,217.2031 Q898.0938,216.8281 897.4844,216.6094 Q896.875,216.3906 896.25,216.3906 Q895.4844,216.3906 894.8438,216.7188 Q894.2188,217.0469 893.7188,217.7969 Q893.2344,218.5469 893.2344,219.5781 L893.2344,220.6719 Q893.2344,221.9063 894.125,222.7344 Q895.0156,223.5469 896.6094,223.5469 Q897.5469,223.5469 898.2031,223.2969 Q898.5938,223.1406 899.0156,222.7031 Q899.2813,222.4375 899.4219,222.3594 Q899.5781,222.2813 899.7813,222.2813 Q900.1094,222.2813 900.3594,222.5469 Q900.625,222.7969 900.625,223.1406 Q900.625,223.4844 900.2813,223.8906 Q899.7813,224.4688 898.9844,224.7969 Q897.9063,225.25 896.6094,225.25 Q895.0938,225.25 893.8906,224.625 Q892.9063,224.125 892.2188,223.0625 Q891.5313,221.9844 891.5313,220.7031 L891.5313,219.5469 Q891.5313,218.2188 892.1406,217.0781 Q892.7656,215.9219 893.8594,215.3125 Q894.9531,214.6875 896.1875,214.6875 Q896.9219,214.6875 897.5625,214.8594 Q898.2188,215.0156 898.7656,215.375 Z " fill="#000000"/><text fill="#000000" font-family="sans-serif" font-size="14" lengthAdjust="spacing" textLength="78" x="910" y="225.2969">FilterByDate</text><line style="stroke:#181818;stroke-width:0.5;" x1="882" x2="990" y1="235.5" y2="235.5"/><line style="stroke:#181818;stroke-width:0.5;" x1="882" x2="990" y1="243.5" y2="243.5"/></g><!--class FilterByCode--><g id="elem_FilterByCode"><rect codeLine="38" fill="#F1F1F1" height="48" id="FilterByCode" rx="2.5" ry="2.5" style="stroke:#181818;stroke-width:0.5;" width="114" x="1026" y="203.5"/><ellipse cx="1041" cy="219.5" fill="#ADD1B2" rx="11" ry="11" style="stroke:#181818;stroke-width:1.0;"/><path d="M1043.7656,215.375 Q1043.9219,215.1563 1044.1094,215.0469 Q1044.2969,214.9375 1044.5156,214.9375 Q1044.8906,214.9375 1045.125,215.2031 Q1045.3594,215.4531 1045.3594,216.0625 L1045.3594,217.5156 Q1045.3594,218.125 1045.125,218.3906 Q1044.8906,218.6563 1044.5156,218.6563 Q1044.1719,218.6563 1043.9688,218.4531 Q1043.7656,218.2656 1043.6563,217.75 Q1043.6094,217.3906 1043.4219,217.2031 Q1043.0938,216.8281 1042.4844,216.6094 Q1041.875,216.3906 1041.25,216.3906 Q1040.4844,216.3906 1039.8438,216.7188 Q1039.2188,217.0469 1038.7188,217.7969 Q1038.2344,218.5469 1038.2344,219.5781 L1038.2344,220.6719 Q1038.2344,221.9063 1039.125,222.7344 Q1040.0156,223.5469 1041.6094,223.5469 Q1042.5469,223.5469 1043.2031,223.2969 Q1043.5938,223.1406 1044.0156,222.7031 Q1044.2813,222.4375 1044.4219,222.3594 Q1044.5781,222.2813 1044.7813,222.2813 Q1045.1094,222.2813 1045.3594,222.5469 Q1045.625,222.7969 1045.625,223.1406 Q1045.625,223.4844 1045.2813,223.8906 Q1044.7813,224.4688 1043.9844,224.7969 Q1042.9063,225.25 1041.6094,225.25 Q1040.0938,225.25 1038.8906,224.625 Q1037.9063,224.125 1037.2188,223.0625 Q1036.5313,221.9844 1036.5313,220.7031 L1036.5313,219.5469 Q1036.5313,218.2188 1037.1406,217.0781 Q1037.7656,215.9219 1038.8594,215.3125 Q1039.9531,214.6875 1041.1875,214.6875 Q1041.9219,214.6875 1042.5625,214.8594 Q1043.2188,215.0156 1043.7656,215.375 Z " fill="#000000"/><text fill="#000000" font-family="sans-serif" font-size="14" lengthAdjust="spacing" textLength="82" x="1055" y="225.2969">FilterByCode</text><line style="stroke:#181818;stroke-width:0.5;" x1="1027" x2="1139" y1="235.5" y2="235.5"/><line style="stroke:#181818;stroke-width:0.5;" x1="1027" x2="1139" y1="243.5" y2="243.5"/></g><!--reverse link FilterStrategy to FilterByDescription--><g id="link_FilterStrategy_FilterByDescription"><path d="M872.3897,140.7565 C843.3597,165.0665 821.64,183.26 797.57,203.41 " fill="none" id="FilterStrategy-backto-FilterByDescription" style="stroke:#181818;stroke-width:1.0;"/><polygon fill="none" points="886.19,129.2,868.5376,136.1564,876.2419,145.3566,886.19,129.2" style="stroke:#181818;stroke-width:1.0;"/></g><!--reverse link FilterStrategy to FilterByDate--><g id="link_FilterStrategy_FilterByDate"><path d="M936,147.2 C936,171.51 936,183.26 936,203.41 " fill="none" id="FilterStrategy-backto-FilterByDate" style="stroke:#181818;stroke-width:1.0;"/><polygon fill="none" points="936,129.2,930,147.2,942,147.2,936,129.2" style="stroke:#181818;stroke-width:1.0;"/></g><!--reverse link FilterStrategy to FilterByCode--><g id="link_FilterStrategy_FilterByCode"><path d="M993.179,141.5668 C1018.889,165.8768 1037.27,183.26 1058.58,203.41 " fill="none" id="FilterStrategy-backto-FilterByCode" style="stroke:#181818;stroke-width:1.0;"/><polygon fill="none" points="980.1,129.2,989.0568,145.9265,997.3013,137.2072,980.1,129.2" style="stroke:#181818;stroke-width:1.0;"/></g><!--reverse link JobOpening to JobReference--><g id="link_JobOpening_JobReference"><path codeLine="42" d="M254.1708,269.5646 C216.5908,290.1946 179.97,310.28 143.13,330.5 " fill="none" id="JobOpening-backto-JobReference" style="stroke:#181818;stroke-width:1.0;"/><polygon fill="#181818" points="264.69,263.79,257.5055,263.1709,254.1708,269.5646,261.3553,270.1837,264.69,263.79" style="stroke:#181818;stroke-width:1.0;"/><text fill="#000000" font-family="sans-serif" font-size="13" lengthAdjust="spacing" textLength="7" x="249.8495" y="264.0748">1</text><text fill="#000000" font-family="sans-serif" font-size="13" lengthAdjust="spacing" textLength="7" x="150.8849" y="322.3942">1</text></g><!--reverse link JobOpening to TitleOrFunction--><g id="link_JobOpening_TitleOrFunction"><path codeLine="43" d="M298.5938,276.2316 C284.9838,297.6016 274.61,313.87 261.93,333.79 " fill="none" id="JobOpening-backto-TitleOrFunction" style="stroke:#181818;stroke-width:1.0;"/><polygon fill="#181818" points="305.04,266.11,298.443,269.0221,298.5938,276.2316,305.1908,273.3195,305.04,266.11" style="stroke:#181818;stroke-width:1.0;"/><text fill="#000000" font-family="sans-serif" font-size="13" lengthAdjust="spacing" textLength="7" x="293.6636" y="287.7061">1</text><text fill="#000000" font-family="sans-serif" font-size="13" lengthAdjust="spacing" textLength="7" x="258.1124" y="322.8044">1</text></g><!--link ContractType to JobOpening--><g id="link_ContractType_JobOpening"><path codeLine="44" d="M383.7,125.12 C373.03,144.89 365.6913,158.5109 355.0113,178.2909 " fill="none" id="ContractType-to-JobOpening" style="stroke:#181818;stroke-width:1.0;"/><polygon fill="#181818" points="349.31,188.85,355.6804,185.4709,355.0113,178.2909,348.6409,181.67,349.31,188.85" style="stroke:#181818;stroke-width:1.0;"/><text fill="#000000" font-family="sans-serif" font-size="13" lengthAdjust="spacing" textLength="7" x="372.9069" y="146.7177">1</text><text fill="#000000" font-family="sans-serif" font-size="13" lengthAdjust="spacing" textLength="7" x="345.1992" y="177.8387">1</text></g><!--link Mode to JobOpening--><g id="link_Mode_JobOpening"><path codeLine="45" d="M273.57,125.12 C284.38,144.89 291.8411,158.5422 302.6611,178.3222 " fill="none" id="Mode-to-JobOpening" style="stroke:#181818;stroke-width:1.0;"/><polygon fill="#181818" points="308.42,188.85,309.0498,181.6665,302.6611,178.3222,302.0313,185.5057,308.42,188.85" style="stroke:#181818;stroke-width:1.0;"/><text fill="#000000" font-family="sans-serif" font-size="13" lengthAdjust="spacing" textLength="7" x="269.2905" y="146.7177">1</text><text fill="#000000" font-family="sans-serif" font-size="13" lengthAdjust="spacing" textLength="7" x="297.2813" y="177.8387">1</text></g><!--reverse link JobOpening to Description--><g id="link_JobOpening_Description"><path codeLine="46" d="M403.8181,268.5859 C444.7981,290.5359 486.77,313.02 525.85,333.96 " fill="none" id="JobOpening-backto-Description" style="stroke:#181818;stroke-width:1.0;"/><polygon fill="#181818" points="393.24,262.92,396.6404,269.279,403.8181,268.5859,400.4177,262.2269,393.24,262.92" style="stroke:#181818;stroke-width:1.0;"/><text fill="#000000" font-family="sans-serif" font-size="13" lengthAdjust="spacing" textLength="7" x="401.0724" y="263.1042">1</text><text fill="#000000" font-family="sans-serif" font-size="13" lengthAdjust="spacing" textLength="7" x="509.5027" y="324.8228">1</text></g><!--reverse link JobOpening to VacanciesNumber--><g id="link_JobOpening_VacanciesNumber"><path codeLine="47" d="M359.7332,276.1951 C373.5132,297.5651 384.02,313.87 396.85,333.79 " fill="none" id="JobOpening-backto-VacanciesNumber" style="stroke:#181818;stroke-width:1.0;"/><polygon fill="#181818" points="353.23,266.11,353.1199,273.3203,359.7332,276.1951,359.8433,268.9848,353.23,266.11" style="stroke:#181818;stroke-width:1.0;"/><text fill="#000000" font-family="sans-serif" font-size="13" lengthAdjust="spacing" textLength="7" x="349.5338" y="287.7061">1</text><text fill="#000000" font-family="sans-serif" font-size="13" lengthAdjust="spacing" textLength="7" x="385.1784" y="322.8044">1</text></g><!--reverse link FilterByCode to Criteria--><g id="link_FilterByCode_Criteria"><path codeLine="49" d="M1053.3103,255.7678 C1028.5203,278.5278 995.04,309.28 968.12,334 " fill="none" id="FilterByCode-backto-Criteria" style="stroke:#181818;stroke-width:1.0;"/><polygon fill="#181818" points="1057.73,251.71,1048.3952,254.8502,1054.0469,255.0915,1053.8056,260.7432,1057.73,251.71" style="stroke:#181818;stroke-width:1.0;"/><text fill="#000000" font-family="sans-serif" font-size="13" lengthAdjust="spacing" textLength="7" x="1044.0769" y="273.3362">1</text><text fill="#000000" font-family="sans-serif" font-size="13" lengthAdjust="spacing" textLength="7" x="967.3806" y="322.5746">1</text></g><!--reverse link FilterByDate to Criteria--><g id="link_FilterByDate_Criteria"><path codeLine="50" d="M936,257.71 C936,280.47 936,309.28 936,334 " fill="none" id="FilterByDate-backto-Criteria" style="stroke:#181818;stroke-width:1.0;"/><polygon fill="#181818" points="936,251.71,932,260.71,936,256.71,940,260.71,936,251.71" style="stroke:#181818;stroke-width:1.0;"/><text fill="#000000" font-family="sans-serif" font-size="13" lengthAdjust="spacing" textLength="7" x="928.1906" y="273.3362">1</text><text fill="#000000" font-family="sans-serif" font-size="13" lengthAdjust="spacing" textLength="7" x="928.2344" y="322.5746">1</text></g><!--reverse link FilterByDescription to Criteria--><g id="link_FilterByDescription_Criteria"><path codeLine="51" d="M803.1952,255.4954 C831.1852,278.2554 869.33,309.28 899.72,334 " fill="none" id="FilterByDescription-backto-Criteria" style="stroke:#181818;stroke-width:1.0;"/><polygon fill="#181818" points="798.54,251.71,802.9992,260.4915,802.4193,254.8645,808.0464,254.2846,798.54,251.71" style="stroke:#181818;stroke-width:1.0;"/><text fill="#000000" font-family="sans-serif" font-size="13" lengthAdjust="spacing" textLength="7" x="797.3305" y="273.3362">1</text><text fill="#000000" font-family="sans-serif" font-size="13" lengthAdjust="spacing" textLength="7" x="884.0181" y="322.5746">1</text></g><!--SRC=[bPBDRi8m48JlVeeLFT0VSUWzYjJI8b698W7Yld4smIMn8ySfZH3lNfi426a3RKvszbjxl3FzVhuMCaEDAQHAAhxIAYKmkY1sgcJ8rnZJt9G9WIPkKCP94yXN6AgDa354cEJ463jIq7jJ0KmpahRSWniC0kGSjeo1_NY2UGwMg07FUufZJJ4QWfbInlSzxrKQOKhVt-vQFJEAI9Fav7dZa6hAyvQO50JJuCDAQ7SjX4begaU5v4OesGMJB58OAcaqShCeCt8gYfIqrHLUksEYmZ_mZOObSfHSKFvUf07fowU_KCwro2wfx_SdM0O4iGAZO2mDwKz1cxsmXB7TcJiZaTYwisvkdDouj2PPZogJX6kEa1DKt86fxNk8zdzlxwgT5UREmdf_fdjOr-3oywfhdil6Cu6-3CamRqlO_TRcWlCFVcX7qi63RN0-DOC6lSSU38fiSBzVdNBBMi7g1fkfggYVZ3EggzOSJESbhKHrW-neom7nzwlcVAunRkPNcPDgnhu1]--></g></svg>