<?xml version="1.0" encoding="us-ascii" standalone="no"?><svg xmlns="http://www.w3.org/2000/svg" xmlns:xlink="http://www.w3.org/1999/xlink" contentStyleType="text/css" height="747px" preserveAspectRatio="none" style="width:1252px;height:747px;background:#FFFFFF;" version="1.1" viewBox="0 0 1252 747" width="1252px" zoomAndPan="magnify"><defs/><g><text fill="#000000" font-family="sans-serif" font-size="14" font-weight="bold" lengthAdjust="spacing" textLength="299" x="478" y="30.1074">Register Job Opening - Sequence Diagram</text><rect fill="#FFFFFF" height="501.6563" style="stroke:#181818;stroke-width:1.0;" width="10" x="63.5" y="137.8633"/><rect fill="#FFFFFF" height="501.6563" style="stroke:#181818;stroke-width:1.0;" width="10" x="585.5" y="137.8633"/><rect fill="#FFFFFF" height="31.291" style="stroke:#181818;stroke-width:1.0;" width="10" x="869.5" y="192.4453"/><rect fill="#FFFFFF" height="31.291" style="stroke:#181818;stroke-width:1.0;" width="10" x="869.5" y="317.6094"/><rect fill="#FFFFFF" height="31.291" style="stroke:#181818;stroke-width:1.0;" width="10" x="869.5" y="380.1914"/><rect fill="#FFFFFF" height="93.873" style="stroke:#181818;stroke-width:1.0;" width="10" x="869.5" y="505.3555"/><rect fill="#FFFFFF" height="31.291" style="stroke:#181818;stroke-width:1.0;" width="10" x="1171" y="536.6465"/><line style="stroke:#181818;stroke-width:0.5;stroke-dasharray:5.0,5.0;" x1="68" x2="68" y1="127.8633" y2="648.5195"/><line style="stroke:#181818;stroke-width:0.5;stroke-dasharray:5.0,5.0;" x1="590" x2="590" y1="127.8633" y2="648.5195"/><line style="stroke:#181818;stroke-width:0.5;stroke-dasharray:5.0,5.0;" x1="874" x2="874" y1="127.8633" y2="648.5195"/><line style="stroke:#181818;stroke-width:0.5;stroke-dasharray:5.0,5.0;" x1="1032" x2="1032" y1="127.8633" y2="648.5195"/><line style="stroke:#181818;stroke-width:0.5;stroke-dasharray:5.0,5.0;" x1="1176" x2="1176" y1="127.8633" y2="648.5195"/><text fill="#000000" font-family="sans-serif" font-size="14" lengthAdjust="spacing" textLength="121" x="5" y="124.3496">Customer Manager</text><ellipse cx="68.5" cy="57.7422" fill="#E2E2F0" rx="8" ry="8" style="stroke:#181818;stroke-width:0.5;"/><path d="M68.5,65.7422 L68.5,92.7422 M55.5,73.7422 L81.5,73.7422 M68.5,92.7422 L55.5,107.7422 M68.5,92.7422 L81.5,107.7422 " fill="none" style="stroke:#181818;stroke-width:0.5;"/><text fill="#000000" font-family="sans-serif" font-size="14" lengthAdjust="spacing" textLength="121" x="5" y="662.627">Customer Manager</text><ellipse cx="68.5" cy="674.6406" fill="#E2E2F0" rx="8" ry="8" style="stroke:#181818;stroke-width:0.5;"/><path d="M68.5,682.6406 L68.5,709.6406 M55.5,690.6406 L81.5,690.6406 M68.5,709.6406 L55.5,724.6406 M68.5,709.6406 L81.5,724.6406 " fill="none" style="stroke:#181818;stroke-width:0.5;"/><rect fill="#E2E2F0" height="51.2422" rx="2.5" ry="2.5" style="stroke:#181818;stroke-width:0.5;" width="127" x="527" y="75.6211"/><text fill="#000000" font-family="sans-serif" font-size="14" font-style="italic" lengthAdjust="spacing" textLength="30" x="575.5" y="97.7285">&#171;UI&#187;</text><text fill="#000000" font-family="sans-serif" font-size="14" lengthAdjust="spacing" textLength="113" x="534" y="116.3496">AddJobOpeningUI</text><rect fill="#E2E2F0" height="51.2422" rx="2.5" ry="2.5" style="stroke:#181818;stroke-width:0.5;" width="127" x="527" y="647.5195"/><text fill="#000000" font-family="sans-serif" font-size="14" font-style="italic" lengthAdjust="spacing" textLength="30" x="575.5" y="669.627">&#171;UI&#187;</text><text fill="#000000" font-family="sans-serif" font-size="14" lengthAdjust="spacing" textLength="113" x="534" y="688.248">AddJobOpeningUI</text><rect fill="#E2E2F0" height="51.2422" rx="2.5" ry="2.5" style="stroke:#181818;stroke-width:0.5;" width="177" x="786" y="75.6211"/><text fill="#000000" font-family="sans-serif" font-size="14" font-style="italic" lengthAdjust="spacing" textLength="85" x="832" y="97.7285">&#171;Application&#187;</text><text fill="#000000" font-family="sans-serif" font-size="14" lengthAdjust="spacing" textLength="163" x="793" y="116.3496">AddJobOpeningController</text><rect fill="#E2E2F0" height="51.2422" rx="2.5" ry="2.5" style="stroke:#181818;stroke-width:0.5;" width="177" x="786" y="647.5195"/><text fill="#000000" font-family="sans-serif" font-size="14" font-style="italic" lengthAdjust="spacing" textLength="85" x="832" y="669.627">&#171;Application&#187;</text><text fill="#000000" font-family="sans-serif" font-size="14" lengthAdjust="spacing" textLength="163" x="793" y="688.248">AddJobOpeningController</text><rect fill="#E2E2F0" height="51.2422" rx="2.5" ry="2.5" style="stroke:#181818;stroke-width:0.5;" width="118" x="973" y="75.6211"/><text fill="#000000" font-family="sans-serif" font-size="14" font-style="italic" lengthAdjust="spacing" textLength="69" x="997.5" y="97.7285">&#171;Strategy&#187;</text><text fill="#000000" font-family="sans-serif" font-size="14" lengthAdjust="spacing" textLength="104" x="980" y="116.3496">FilteringStrategy</text><rect fill="#E2E2F0" height="51.2422" rx="2.5" ry="2.5" style="stroke:#181818;stroke-width:0.5;" width="118" x="973" y="647.5195"/><text fill="#000000" font-family="sans-serif" font-size="14" font-style="italic" lengthAdjust="spacing" textLength="69" x="997.5" y="669.627">&#171;Strategy&#187;</text><text fill="#000000" font-family="sans-serif" font-size="14" lengthAdjust="spacing" textLength="104" x="980" y="688.248">FilteringStrategy</text><text fill="#000000" font-family="sans-serif" font-size="14" font-style="italic" lengthAdjust="spacing" textLength="90" x="1128" y="105.7285">&#171;Persistence&#187;</text><text fill="#000000" font-family="sans-serif" font-size="14" lengthAdjust="spacing" textLength="144" x="1101" y="124.3496">JobOpeningRepository</text><path d="M1158,54.6211 C1158,44.6211 1176,44.6211 1176,44.6211 C1176,44.6211 1194,44.6211 1194,54.6211 L1194,80.6211 C1194,90.6211 1176,90.6211 1176,90.6211 C1176,90.6211 1158,90.6211 1158,80.6211 L1158,54.6211 " fill="#E2E2F0" style="stroke:#181818;stroke-width:1.5;"/><path d="M1158,54.6211 C1158,64.6211 1176,64.6211 1176,64.6211 C1176,64.6211 1194,64.6211 1194,54.6211 " fill="none" style="stroke:#181818;stroke-width:1.5;"/><text fill="#000000" font-family="sans-serif" font-size="14" font-style="italic" lengthAdjust="spacing" textLength="90" x="1128" y="662.627">&#171;Persistence&#187;</text><text fill="#000000" font-family="sans-serif" font-size="14" lengthAdjust="spacing" textLength="144" x="1101" y="681.248">JobOpeningRepository</text><path d="M1158,694.7617 C1158,684.7617 1176,684.7617 1176,684.7617 C1176,684.7617 1194,684.7617 1194,694.7617 L1194,720.7617 C1194,730.7617 1176,730.7617 1176,730.7617 C1176,730.7617 1158,730.7617 1158,720.7617 L1158,694.7617 " fill="#E2E2F0" style="stroke:#181818;stroke-width:1.5;"/><path d="M1158,694.7617 C1158,704.7617 1176,704.7617 1176,704.7617 C1176,704.7617 1194,704.7617 1194,694.7617 " fill="none" style="stroke:#181818;stroke-width:1.5;"/><rect fill="#FFFFFF" height="501.6563" style="stroke:#181818;stroke-width:1.0;" width="10" x="63.5" y="137.8633"/><rect fill="#FFFFFF" height="501.6563" style="stroke:#181818;stroke-width:1.0;" width="10" x="585.5" y="137.8633"/><rect fill="#FFFFFF" height="31.291" style="stroke:#181818;stroke-width:1.0;" width="10" x="869.5" y="192.4453"/><rect fill="#FFFFFF" height="31.291" style="stroke:#181818;stroke-width:1.0;" width="10" x="869.5" y="317.6094"/><rect fill="#FFFFFF" height="31.291" style="stroke:#181818;stroke-width:1.0;" width="10" x="869.5" y="380.1914"/><rect fill="#FFFFFF" height="93.873" style="stroke:#181818;stroke-width:1.0;" width="10" x="869.5" y="505.3555"/><rect fill="#FFFFFF" height="31.291" style="stroke:#181818;stroke-width:1.0;" width="10" x="1171" y="536.6465"/><polygon fill="#181818" points="573.5,157.1543,583.5,161.1543,573.5,165.1543,577.5,161.1543" style="stroke:#181818;stroke-width:1.0;"/><line style="stroke:#181818;stroke-width:1.0;" x1="73.5" x2="579.5" y1="161.1543" y2="161.1543"/><text fill="#000000" font-family="sans-serif" font-size="13" font-weight="bold" lengthAdjust="spacing" textLength="7" x="80.5" y="155.8916">1</text><text fill="#000000" font-family="sans-serif" font-size="13" lengthAdjust="spacing" textLength="163" x="91.5" y="155.8916">requests to list job openings</text><polygon fill="#181818" points="857.5,188.4453,867.5,192.4453,857.5,196.4453,861.5,192.4453" style="stroke:#181818;stroke-width:1.0;"/><line style="stroke:#181818;stroke-width:1.0;" x1="595.5" x2="863.5" y1="192.4453" y2="192.4453"/><text fill="#000000" font-family="sans-serif" font-size="13" font-weight="bold" lengthAdjust="spacing" textLength="7" x="602.5" y="187.1826">2</text><text fill="#000000" font-family="sans-serif" font-size="13" lengthAdjust="spacing" textLength="108" x="613.5" y="187.1826">filteringStrategies()</text><polygon fill="#181818" points="606.5,219.7363,596.5,223.7363,606.5,227.7363,602.5,223.7363" style="stroke:#181818;stroke-width:1.0;"/><line style="stroke:#181818;stroke-width:1.0;stroke-dasharray:2.0,2.0;" x1="600.5" x2="873.5" y1="223.7363" y2="223.7363"/><text fill="#000000" font-family="sans-serif" font-size="13" font-weight="bold" lengthAdjust="spacing" textLength="7" x="612.5" y="218.4736">3</text><text fill="#000000" font-family="sans-serif" font-size="13" lengthAdjust="spacing" textLength="146" x="623.5" y="218.4736">returns filtering strategies</text><polygon fill="#181818" points="84.5,251.0273,74.5,255.0273,84.5,259.0273,80.5,255.0273" style="stroke:#181818;stroke-width:1.0;"/><line style="stroke:#181818;stroke-width:1.0;stroke-dasharray:2.0,2.0;" x1="78.5" x2="584.5" y1="255.0273" y2="255.0273"/><text fill="#000000" font-family="sans-serif" font-size="13" font-weight="bold" lengthAdjust="spacing" textLength="7" x="90.5" y="249.7646">4</text><text fill="#000000" font-family="sans-serif" font-size="13" lengthAdjust="spacing" textLength="477" x="101.5" y="249.7646">asks to select the filtering strategy (No filter, by Description, by Date and by Code)</text><polygon fill="#181818" points="573.5,282.3184,583.5,286.3184,573.5,290.3184,577.5,286.3184" style="stroke:#181818;stroke-width:1.0;"/><line style="stroke:#181818;stroke-width:1.0;" x1="73.5" x2="579.5" y1="286.3184" y2="286.3184"/><text fill="#000000" font-family="sans-serif" font-size="13" font-weight="bold" lengthAdjust="spacing" textLength="7" x="80.5" y="281.0557">5</text><text fill="#000000" font-family="sans-serif" font-size="13" lengthAdjust="spacing" textLength="93" x="91.5" y="281.0557">selects strategy</text><polygon fill="#181818" points="857.5,313.6094,867.5,317.6094,857.5,321.6094,861.5,317.6094" style="stroke:#181818;stroke-width:1.0;"/><line style="stroke:#181818;stroke-width:1.0;" x1="595.5" x2="863.5" y1="317.6094" y2="317.6094"/><text fill="#000000" font-family="sans-serif" font-size="13" font-weight="bold" lengthAdjust="spacing" textLength="7" x="602.5" y="312.3467">6</text><text fill="#000000" font-family="sans-serif" font-size="13" lengthAdjust="spacing" textLength="176" x="613.5" y="312.3467">filteringStrategy(strategyIndex)</text><polygon fill="#181818" points="606.5,344.9004,596.5,348.9004,606.5,352.9004,602.5,348.9004" style="stroke:#181818;stroke-width:1.0;"/><line style="stroke:#181818;stroke-width:1.0;stroke-dasharray:2.0,2.0;" x1="600.5" x2="873.5" y1="348.9004" y2="348.9004"/><text fill="#000000" font-family="sans-serif" font-size="13" font-weight="bold" lengthAdjust="spacing" textLength="7" x="612.5" y="343.6377">7</text><text fill="#000000" font-family="sans-serif" font-size="13" lengthAdjust="spacing" textLength="47" x="623.5" y="343.6377">strategy</text><polygon fill="#181818" points="857.5,376.1914,867.5,380.1914,857.5,384.1914,861.5,380.1914" style="stroke:#181818;stroke-width:1.0;"/><line style="stroke:#181818;stroke-width:1.0;" x1="595.5" x2="863.5" y1="380.1914" y2="380.1914"/><text fill="#000000" font-family="sans-serif" font-size="13" font-weight="bold" lengthAdjust="spacing" textLength="7" x="602.5" y="374.9287">8</text><text fill="#000000" font-family="sans-serif" font-size="13" lengthAdjust="spacing" textLength="137" x="613.5" y="374.9287">filteringCriteria(strategy)</text><polygon fill="#181818" points="606.5,407.4824,596.5,411.4824,606.5,415.4824,602.5,411.4824" style="stroke:#181818;stroke-width:1.0;"/><line style="stroke:#181818;stroke-width:1.0;stroke-dasharray:2.0,2.0;" x1="600.5" x2="873.5" y1="411.4824" y2="411.4824"/><text fill="#000000" font-family="sans-serif" font-size="13" font-weight="bold" lengthAdjust="spacing" textLength="7" x="612.5" y="406.2197">9</text><text fill="#000000" font-family="sans-serif" font-size="13" lengthAdjust="spacing" textLength="128" x="623.5" y="406.2197">returns filtering criteria</text><polygon fill="#181818" points="84.5,438.7734,74.5,442.7734,84.5,446.7734,80.5,442.7734" style="stroke:#181818;stroke-width:1.0;"/><line style="stroke:#181818;stroke-width:1.0;stroke-dasharray:2.0,2.0;" x1="78.5" x2="584.5" y1="442.7734" y2="442.7734"/><text fill="#000000" font-family="sans-serif" font-size="13" font-weight="bold" lengthAdjust="spacing" textLength="14" x="90.5" y="437.5107">10</text><text fill="#000000" font-family="sans-serif" font-size="13" lengthAdjust="spacing" textLength="185" x="108.5" y="437.5107">asks to input the filtering criteria</text><polygon fill="#181818" points="573.5,470.0645,583.5,474.0645,573.5,478.0645,577.5,474.0645" style="stroke:#181818;stroke-width:1.0;"/><line style="stroke:#181818;stroke-width:1.0;" x1="73.5" x2="579.5" y1="474.0645" y2="474.0645"/><text fill="#000000" font-family="sans-serif" font-size="13" font-weight="bold" lengthAdjust="spacing" textLength="14" x="80.5" y="468.8018">11</text><text fill="#000000" font-family="sans-serif" font-size="13" lengthAdjust="spacing" textLength="111" x="98.5" y="468.8018">submits the criteria</text><polygon fill="#181818" points="857.5,501.3555,867.5,505.3555,857.5,509.3555,861.5,505.3555" style="stroke:#181818;stroke-width:1.0;"/><line style="stroke:#181818;stroke-width:1.0;" x1="595.5" x2="863.5" y1="505.3555" y2="505.3555"/><text fill="#000000" font-family="sans-serif" font-size="13" font-weight="bold" lengthAdjust="spacing" textLength="14" x="602.5" y="500.0928">12</text><text fill="#000000" font-family="sans-serif" font-size="13" lengthAdjust="spacing" textLength="237" x="620.5" y="500.0928">listFilteredJobOpenings(strategy, criteria)</text><polygon fill="#181818" points="1159,532.6465,1169,536.6465,1159,540.6465,1163,536.6465" style="stroke:#181818;stroke-width:1.0;"/><line style="stroke:#181818;stroke-width:1.0;" x1="879.5" x2="1165" y1="536.6465" y2="536.6465"/><text fill="#000000" font-family="sans-serif" font-size="13" font-weight="bold" lengthAdjust="spacing" textLength="14" x="886.5" y="531.3838">13</text><text fill="#000000" font-family="sans-serif" font-size="13" lengthAdjust="spacing" textLength="237" x="904.5" y="531.3838">listFilteredJobOpenings(strategy, criteria)</text><polygon fill="#181818" points="890.5,563.9375,880.5,567.9375,890.5,571.9375,886.5,567.9375" style="stroke:#181818;stroke-width:1.0;"/><line style="stroke:#181818;stroke-width:1.0;stroke-dasharray:2.0,2.0;" x1="884.5" x2="1175" y1="567.9375" y2="567.9375"/><text fill="#000000" font-family="sans-serif" font-size="13" font-weight="bold" lengthAdjust="spacing" textLength="14" x="896.5" y="562.6748">14</text><text fill="#000000" font-family="sans-serif" font-size="13" lengthAdjust="spacing" textLength="108" x="914.5" y="562.6748">list of job openings</text><polygon fill="#181818" points="606.5,595.2285,596.5,599.2285,606.5,603.2285,602.5,599.2285" style="stroke:#181818;stroke-width:1.0;"/><line style="stroke:#181818;stroke-width:1.0;stroke-dasharray:2.0,2.0;" x1="600.5" x2="873.5" y1="599.2285" y2="599.2285"/><text fill="#000000" font-family="sans-serif" font-size="13" font-weight="bold" lengthAdjust="spacing" textLength="14" x="612.5" y="593.9658">15</text><text fill="#000000" font-family="sans-serif" font-size="13" lengthAdjust="spacing" textLength="108" x="630.5" y="593.9658">list of job openings</text><polygon fill="#181818" points="84.5,626.5195,74.5,630.5195,84.5,634.5195,80.5,630.5195" style="stroke:#181818;stroke-width:1.0;"/><line style="stroke:#181818;stroke-width:1.0;stroke-dasharray:2.0,2.0;" x1="78.5" x2="584.5" y1="630.5195" y2="630.5195"/><text fill="#000000" font-family="sans-serif" font-size="13" font-weight="bold" lengthAdjust="spacing" textLength="14" x="90.5" y="625.2568">16</text><text fill="#000000" font-family="sans-serif" font-size="13" lengthAdjust="spacing" textLength="226" x="108.5" y="625.2568">Displays the list of job openings filtered</text><!--SRC=[fLFHJkD037pVhx1uAXBz0LHLGgsGYjJZHDKFS1AJMoxTNTREYVmztYPDebxAmV6KtSGpund7OgKYUABIib241v_1Oo1dNGbpsD5hJIudM5ii8nwCmLgygmyPHOEv-0XNgvh57nIwHOSbnIj0Xgq96CNcDg0Jk2iAvUreznj85VfOBFQRvV9ovSexYRwgb5i1ezjYSHT2PNCKwzqPmxsjr8UYTn9Hg6mIzdwdcDCB1HGec24J369F53nRTNG4FAIhOdvIv1ICPg2mPDd-KHBrrn_t6sEsC5ycHxSGKs8i3EAXKYIyQA2-bM1Zj4OhHrPkuVciOKiyknv93SN6Z83pGL7gw7ZW0Uw9Z2beakZOY39ibK3z_ZxsorHHBY2_w6-o1cO_VFVw1h86riHvj25DeBqd2NH5EgzyGTVZL5fcxia-5KGpEvLlN45lNybaqBdW_oFvLRJfWBtyzwQHTtGVzjADuZG9wq9zFeY1PvHhdHri-jcqSlW-OIxzYkrcq6Z1kBTuqyC_OtRPxSV_yXxHnhGaywbUmJ-VRSuel0u-5Vy_iHU2NriE5JPjabCatI2eqDqnxm00]--></g></svg>