<?xml version="1.0" encoding="us-ascii" standalone="no"?><svg xmlns="http://www.w3.org/2000/svg" xmlns:xlink="http://www.w3.org/1999/xlink" contentStyleType="text/css" height="950px" preserveAspectRatio="none" style="width:2059px;height:950px;background:#FFFFFF;" version="1.1" viewBox="0 0 2059 950" width="2059px" zoomAndPan="magnify"><defs/><g><text fill="#000000" font-family="sans-serif" font-size="14" font-weight="bold" lengthAdjust="spacing" textLength="244" x="906.5" y="30.1074">US 1006 - List All Data Of Candidate</text><rect fill="#FFFFFF" height="724.6934" style="stroke:#181818;stroke-width:1.0;" width="10" x="17.5" y="133.2422"/><rect fill="#FFFFFF" height="567.2383" style="stroke:#181818;stroke-width:1.0;" width="10" x="419.5" y="156.5332"/><rect fill="#FFFFFF" height="102.873" style="stroke:#181818;stroke-width:1.0;" width="10" x="419.5" y="755.0625"/><rect fill="#FFFFFF" height="254.3281" style="stroke:#181818;stroke-width:1.0;" width="10" x="732.5" y="187.8242"/><rect fill="#FFFFFF" height="219.0371" style="stroke:#181818;stroke-width:1.0;" width="10" x="732.5" y="473.4434"/><rect fill="#FFFFFF" height="31.291" style="stroke:#181818;stroke-width:1.0;" width="10" x="732.5" y="786.3535"/><rect fill="#FFFFFF" height="168.4551" style="stroke:#181818;stroke-width:1.0;" width="10" x="1533.5" y="250.4063"/><rect fill="#FFFFFF" height="31.291" style="stroke:#181818;stroke-width:1.0;" width="10" x="1683" y="504.7344"/><rect fill="#FFFFFF" height="31.291" style="stroke:#181818;stroke-width:1.0;" width="10" x="1826" y="567.3164"/><rect fill="#FFFFFF" height="62.582" style="stroke:#181818;stroke-width:1.0;" width="10" x="1974.5" y="598.6074"/><rect fill="none" height="50.582" style="stroke:#000000;stroke-width:1.5;" width="1004" x="616" y="296.6973"/><rect fill="none" height="50.582" style="stroke:#000000;stroke-width:1.5;" width="1004" x="616" y="361.2793"/><line style="stroke:#181818;stroke-width:0.5;stroke-dasharray:5.0,5.0;" x1="22" x2="22" y1="123.2422" y2="866.9355"/><line style="stroke:#181818;stroke-width:0.5;stroke-dasharray:5.0,5.0;" x1="424" x2="424" y1="123.2422" y2="866.9355"/><line style="stroke:#181818;stroke-width:0.5;stroke-dasharray:5.0,5.0;" x1="737" x2="737" y1="123.2422" y2="866.9355"/><line style="stroke:#181818;stroke-width:0.5;stroke-dasharray:5.0,5.0;" x1="1538" x2="1538" y1="123.2422" y2="866.9355"/><line style="stroke:#181818;stroke-width:0.5;stroke-dasharray:5.0,5.0;" x1="1688" x2="1688" y1="123.2422" y2="866.9355"/><line style="stroke:#181818;stroke-width:0.5;stroke-dasharray:5.0,5.0;" x1="1831" x2="1831" y1="123.2422" y2="866.9355"/><line style="stroke:#181818;stroke-width:0.5;stroke-dasharray:5.0,5.0;" x1="1979" x2="1979" y1="123.2422" y2="866.9355"/><text fill="#000000" font-family="sans-serif" font-size="14" lengthAdjust="spacing" textLength="29" x="5" y="119.7285">User</text><ellipse cx="22.5" cy="53.1211" fill="#E2E2F0" rx="8" ry="8" style="stroke:#181818;stroke-width:0.5;"/><path d="M22.5,61.1211 L22.5,88.1211 M9.5,69.1211 L35.5,69.1211 M22.5,88.1211 L9.5,103.1211 M22.5,88.1211 L35.5,103.1211 " fill="none" style="stroke:#181818;stroke-width:0.5;"/><text fill="#000000" font-family="sans-serif" font-size="14" lengthAdjust="spacing" textLength="29" x="5" y="881.043">User</text><ellipse cx="22.5" cy="893.0566" fill="#E2E2F0" rx="8" ry="8" style="stroke:#181818;stroke-width:0.5;"/><path d="M22.5,901.0566 L22.5,928.0566 M9.5,909.0566 L35.5,909.0566 M22.5,928.0566 L9.5,943.0566 M22.5,928.0566 L35.5,943.0566 " fill="none" style="stroke:#181818;stroke-width:0.5;"/><rect fill="#E2E2F0" height="51.2422" rx="2.5" ry="2.5" style="stroke:#181818;stroke-width:0.5;" width="173" x="338" y="71"/><text fill="#000000" font-family="sans-serif" font-size="14" font-style="italic" lengthAdjust="spacing" textLength="30" x="409.5" y="93.1074">&#171;UI&#187;</text><text fill="#000000" font-family="sans-serif" font-size="14" lengthAdjust="spacing" textLength="159" x="345" y="111.7285">ListAllDataOfCandidateUI</text><rect fill="#E2E2F0" height="51.2422" rx="2.5" ry="2.5" style="stroke:#181818;stroke-width:0.5;" width="173" x="338" y="865.9355"/><text fill="#000000" font-family="sans-serif" font-size="14" font-style="italic" lengthAdjust="spacing" textLength="30" x="409.5" y="888.043">&#171;UI&#187;</text><text fill="#000000" font-family="sans-serif" font-size="14" lengthAdjust="spacing" textLength="159" x="345" y="906.6641">ListAllDataOfCandidateUI</text><rect fill="#E2E2F0" height="51.2422" rx="2.5" ry="2.5" style="stroke:#181818;stroke-width:0.5;" width="223" x="626" y="71"/><text fill="#000000" font-family="sans-serif" font-size="14" font-style="italic" lengthAdjust="spacing" textLength="78" x="698.5" y="93.1074">&#171;Controller&#187;</text><text fill="#000000" font-family="sans-serif" font-size="14" lengthAdjust="spacing" textLength="209" x="633" y="111.7285">ListAllDataOfCandidateController</text><rect fill="#E2E2F0" height="51.2422" rx="2.5" ry="2.5" style="stroke:#181818;stroke-width:0.5;" width="223" x="626" y="865.9355"/><text fill="#000000" font-family="sans-serif" font-size="14" font-style="italic" lengthAdjust="spacing" textLength="78" x="698.5" y="888.043">&#171;Controller&#187;</text><text fill="#000000" font-family="sans-serif" font-size="14" lengthAdjust="spacing" textLength="209" x="633" y="906.6641">ListAllDataOfCandidateController</text><rect fill="#E2E2F0" height="51.2422" rx="2.5" ry="2.5" style="stroke:#181818;stroke-width:0.5;" width="143" x="1467" y="71"/><text fill="#000000" font-family="sans-serif" font-size="14" font-style="italic" lengthAdjust="spacing" textLength="62" x="1507.5" y="93.1074">&#171;Service&#187;</text><text fill="#000000" font-family="sans-serif" font-size="14" lengthAdjust="spacing" textLength="129" x="1474" y="111.7285">AuthorizationService</text><rect fill="#E2E2F0" height="51.2422" rx="2.5" ry="2.5" style="stroke:#181818;stroke-width:0.5;" width="143" x="1467" y="865.9355"/><text fill="#000000" font-family="sans-serif" font-size="14" font-style="italic" lengthAdjust="spacing" textLength="62" x="1507.5" y="888.043">&#171;Service&#187;</text><text fill="#000000" font-family="sans-serif" font-size="14" lengthAdjust="spacing" textLength="129" x="1474" y="906.6641">AuthorizationService</text><rect fill="#E2E2F0" height="51.2422" rx="2.5" ry="2.5" style="stroke:#181818;stroke-width:0.5;" width="136" x="1620" y="71"/><text fill="#000000" font-family="sans-serif" font-size="14" font-style="italic" lengthAdjust="spacing" textLength="62" x="1657" y="93.1074">&#171;Service&#187;</text><text fill="#000000" font-family="sans-serif" font-size="14" lengthAdjust="spacing" textLength="122" x="1627" y="111.7285">PersistenceContext</text><rect fill="#E2E2F0" height="51.2422" rx="2.5" ry="2.5" style="stroke:#181818;stroke-width:0.5;" width="136" x="1620" y="865.9355"/><text fill="#000000" font-family="sans-serif" font-size="14" font-style="italic" lengthAdjust="spacing" textLength="62" x="1657" y="888.043">&#171;Service&#187;</text><text fill="#000000" font-family="sans-serif" font-size="14" lengthAdjust="spacing" textLength="122" x="1627" y="906.6641">PersistenceContext</text><rect fill="#E2E2F0" height="51.2422" rx="2.5" ry="2.5" style="stroke:#181818;stroke-width:0.5;" width="130" x="1766" y="71"/><text fill="#000000" font-family="sans-serif" font-size="14" font-style="italic" lengthAdjust="spacing" textLength="64" x="1799" y="93.1074">&#171;Factory&#187;</text><text fill="#000000" font-family="sans-serif" font-size="14" lengthAdjust="spacing" textLength="116" x="1773" y="111.7285">RepositoryFactory</text><rect fill="#E2E2F0" height="51.2422" rx="2.5" ry="2.5" style="stroke:#181818;stroke-width:0.5;" width="130" x="1766" y="865.9355"/><text fill="#000000" font-family="sans-serif" font-size="14" font-style="italic" lengthAdjust="spacing" textLength="64" x="1799" y="888.043">&#171;Factory&#187;</text><text fill="#000000" font-family="sans-serif" font-size="14" lengthAdjust="spacing" textLength="116" x="1773" y="906.6641">RepositoryFactory</text><rect fill="#E2E2F0" height="51.2422" rx="2.5" ry="2.5" style="stroke:#181818;stroke-width:0.5;" width="147" x="1906" y="71"/><text fill="#000000" font-family="sans-serif" font-size="14" font-style="italic" lengthAdjust="spacing" textLength="84" x="1937.5" y="93.1074">&#171;Repository&#187;</text><text fill="#000000" font-family="sans-serif" font-size="14" lengthAdjust="spacing" textLength="133" x="1913" y="111.7285">CandidateRepository</text><rect fill="#E2E2F0" height="51.2422" rx="2.5" ry="2.5" style="stroke:#181818;stroke-width:0.5;" width="147" x="1906" y="865.9355"/><text fill="#000000" font-family="sans-serif" font-size="14" font-style="italic" lengthAdjust="spacing" textLength="84" x="1937.5" y="888.043">&#171;Repository&#187;</text><text fill="#000000" font-family="sans-serif" font-size="14" lengthAdjust="spacing" textLength="133" x="1913" y="906.6641">CandidateRepository</text><rect fill="#FFFFFF" height="724.6934" style="stroke:#181818;stroke-width:1.0;" width="10" x="17.5" y="133.2422"/><rect fill="#FFFFFF" height="567.2383" style="stroke:#181818;stroke-width:1.0;" width="10" x="419.5" y="156.5332"/><rect fill="#FFFFFF" height="102.873" style="stroke:#181818;stroke-width:1.0;" width="10" x="419.5" y="755.0625"/><rect fill="#FFFFFF" height="254.3281" style="stroke:#181818;stroke-width:1.0;" width="10" x="732.5" y="187.8242"/><rect fill="#FFFFFF" height="219.0371" style="stroke:#181818;stroke-width:1.0;" width="10" x="732.5" y="473.4434"/><rect fill="#FFFFFF" height="31.291" style="stroke:#181818;stroke-width:1.0;" width="10" x="732.5" y="786.3535"/><rect fill="#FFFFFF" height="168.4551" style="stroke:#181818;stroke-width:1.0;" width="10" x="1533.5" y="250.4063"/><rect fill="#FFFFFF" height="31.291" style="stroke:#181818;stroke-width:1.0;" width="10" x="1683" y="504.7344"/><rect fill="#FFFFFF" height="31.291" style="stroke:#181818;stroke-width:1.0;" width="10" x="1826" y="567.3164"/><rect fill="#FFFFFF" height="62.582" style="stroke:#181818;stroke-width:1.0;" width="10" x="1974.5" y="598.6074"/><polygon fill="#181818" points="407.5,152.5332,417.5,156.5332,407.5,160.5332,411.5,156.5332" style="stroke:#181818;stroke-width:1.0;"/><line style="stroke:#181818;stroke-width:1.0;" x1="27.5" x2="413.5" y1="156.5332" y2="156.5332"/><text fill="#000000" font-family="sans-serif" font-size="13" lengthAdjust="spacing" textLength="204" x="34.5" y="151.2705">Request to list all data of candidate</text><polygon fill="#181818" points="720.5,183.8242,730.5,187.8242,720.5,191.8242,724.5,187.8242" style="stroke:#181818;stroke-width:1.0;"/><line style="stroke:#181818;stroke-width:1.0;" x1="429.5" x2="726.5" y1="187.8242" y2="187.8242"/><text fill="#000000" font-family="sans-serif" font-size="13" lengthAdjust="spacing" textLength="224" x="436.5" y="182.5615">new ListAllDataOfCandidateController()</text><polygon fill="#181818" points="1526.5,215.1152,1536.5,219.1152,1526.5,223.1152,1530.5,219.1152" style="stroke:#181818;stroke-width:1.0;"/><line style="stroke:#181818;stroke-width:1.0;" x1="742.5" x2="1532.5" y1="219.1152" y2="219.1152"/><text fill="#000000" font-family="sans-serif" font-size="13" lengthAdjust="spacing" textLength="124" x="749.5" y="213.8525">authorizationService()</text><polygon fill="#181818" points="753.5,246.4063,743.5,250.4063,753.5,254.4063,749.5,250.4063" style="stroke:#181818;stroke-width:1.0;"/><line style="stroke:#181818;stroke-width:1.0;stroke-dasharray:2.0,2.0;" x1="747.5" x2="1532.5" y1="250.4063" y2="250.4063"/><text fill="#000000" font-family="sans-serif" font-size="13" lengthAdjust="spacing" textLength="208" x="759.5" y="245.1436">return AuthorizationService instance</text><polygon fill="#181818" points="1521.5,277.6973,1531.5,281.6973,1521.5,285.6973,1525.5,281.6973" style="stroke:#181818;stroke-width:1.0;"/><line style="stroke:#181818;stroke-width:1.0;" x1="742.5" x2="1527.5" y1="281.6973" y2="281.6973"/><text fill="#000000" font-family="sans-serif" font-size="13" lengthAdjust="spacing" textLength="767" x="749.5" y="276.4346">instance.ensureAuthenticatedUserHasAnyOf(BaseRoles.CUSTOMER_MANAGER, BaseRoles.POWER_USER, BaseRoles.ADMIN);</text><path d="M616,296.6973 L677,296.6973 L677,305.9883 L667,315.9883 L616,315.9883 L616,296.6973 " fill="#EEEEEE" style="stroke:#000000;stroke-width:1.5;"/><rect fill="none" height="50.582" style="stroke:#000000;stroke-width:1.5;" width="1004" x="616" y="296.6973"/><text fill="#000000" font-family="sans-serif" font-size="13" font-weight="bold" lengthAdjust="spacing" textLength="16" x="631" y="311.7256">alt</text><text fill="#000000" font-family="sans-serif" font-size="11" font-weight="bold" lengthAdjust="spacing" textLength="130" x="692" y="310.5674">[User is not authorized]</text><polygon fill="#181818" points="753.5,335.2793,743.5,339.2793,753.5,343.2793,749.5,339.2793" style="stroke:#181818;stroke-width:1.0;"/><line style="stroke:#181818;stroke-width:1.0;stroke-dasharray:2.0,2.0;" x1="747.5" x2="1532.5" y1="339.2793" y2="339.2793"/><text fill="#000000" font-family="sans-serif" font-size="13" lengthAdjust="spacing" textLength="169" x="759.5" y="334.0166">throw AuthorizationException</text><path d="M616,361.2793 L677,361.2793 L677,370.5703 L667,380.5703 L616,380.5703 L616,361.2793 " fill="#EEEEEE" style="stroke:#000000;stroke-width:1.5;"/><rect fill="none" height="50.582" style="stroke:#000000;stroke-width:1.5;" width="1004" x="616" y="361.2793"/><text fill="#000000" font-family="sans-serif" font-size="13" font-weight="bold" lengthAdjust="spacing" textLength="16" x="631" y="376.3076">alt</text><text fill="#000000" font-family="sans-serif" font-size="11" font-weight="bold" lengthAdjust="spacing" textLength="109" x="692" y="375.1494">[User is authorized]</text><polygon fill="#181818" points="753.5,399.8613,743.5,403.8613,753.5,407.8613,749.5,403.8613" style="stroke:#181818;stroke-width:1.0;"/><line style="stroke:#181818;stroke-width:1.0;stroke-dasharray:2.0,2.0;" x1="747.5" x2="1532.5" y1="403.8613" y2="403.8613"/><text fill="#000000" font-family="sans-serif" font-size="13" lengthAdjust="spacing" textLength="59" x="759.5" y="398.5986">return true</text><polygon fill="#181818" points="440.5,438.1523,430.5,442.1523,440.5,446.1523,436.5,442.1523" style="stroke:#181818;stroke-width:1.0;"/><line style="stroke:#181818;stroke-width:1.0;stroke-dasharray:2.0,2.0;" x1="434.5" x2="736.5" y1="442.1523" y2="442.1523"/><text fill="#000000" font-family="sans-serif" font-size="13" lengthAdjust="spacing" textLength="279" x="446.5" y="436.8896">return ListAllDataOfCandidateController instance</text><polygon fill="#181818" points="720.5,469.4434,730.5,473.4434,720.5,477.4434,724.5,473.4434" style="stroke:#181818;stroke-width:1.0;"/><line style="stroke:#181818;stroke-width:1.0;" x1="429.5" x2="726.5" y1="473.4434" y2="473.4434"/><text fill="#000000" font-family="sans-serif" font-size="13" lengthAdjust="spacing" textLength="86" x="436.5" y="468.1807">allCandidates()</text><polygon fill="#181818" points="1671,500.7344,1681,504.7344,1671,508.7344,1675,504.7344" style="stroke:#181818;stroke-width:1.0;"/><line style="stroke:#181818;stroke-width:1.0;" x1="742.5" x2="1677" y1="504.7344" y2="504.7344"/><text fill="#000000" font-family="sans-serif" font-size="13" lengthAdjust="spacing" textLength="75" x="749.5" y="499.4717">repositories()</text><polygon fill="#181818" points="753.5,532.0254,743.5,536.0254,753.5,540.0254,749.5,536.0254" style="stroke:#181818;stroke-width:1.0;"/><line style="stroke:#181818;stroke-width:1.0;stroke-dasharray:2.0,2.0;" x1="747.5" x2="1687" y1="536.0254" y2="536.0254"/><text fill="#000000" font-family="sans-serif" font-size="13" lengthAdjust="spacing" textLength="104" x="759.5" y="530.7627">return repositories</text><polygon fill="#181818" points="1814,563.3164,1824,567.3164,1814,571.3164,1818,567.3164" style="stroke:#181818;stroke-width:1.0;"/><line style="stroke:#181818;stroke-width:1.0;" x1="742.5" x2="1820" y1="567.3164" y2="567.3164"/><text fill="#000000" font-family="sans-serif" font-size="13" lengthAdjust="spacing" textLength="126" x="749.5" y="562.0537">candidateRepository()</text><polygon fill="#181818" points="753.5,594.6074,743.5,598.6074,753.5,602.6074,749.5,598.6074" style="stroke:#181818;stroke-width:1.0;"/><line style="stroke:#181818;stroke-width:1.0;stroke-dasharray:2.0,2.0;" x1="747.5" x2="1830" y1="598.6074" y2="598.6074"/><text fill="#000000" font-family="sans-serif" font-size="13" lengthAdjust="spacing" textLength="155" x="759.5" y="593.3447">return candidateRepository</text><polygon fill="#181818" points="1962.5,625.8984,1972.5,629.8984,1962.5,633.8984,1966.5,629.8984" style="stroke:#181818;stroke-width:1.0;"/><line style="stroke:#181818;stroke-width:1.0;" x1="742.5" x2="1968.5" y1="629.8984" y2="629.8984"/><text fill="#000000" font-family="sans-serif" font-size="13" lengthAdjust="spacing" textLength="108" x="749.5" y="624.6357">findAllCandidates()</text><polygon fill="#181818" points="753.5,657.1895,743.5,661.1895,753.5,665.1895,749.5,661.1895" style="stroke:#181818;stroke-width:1.0;"/><line style="stroke:#181818;stroke-width:1.0;stroke-dasharray:2.0,2.0;" x1="747.5" x2="1978.5" y1="661.1895" y2="661.1895"/><text fill="#000000" font-family="sans-serif" font-size="13" lengthAdjust="spacing" textLength="153" x="759.5" y="655.9268">return Iterable&lt;Candidate&gt;</text><polygon fill="#181818" points="440.5,688.4805,430.5,692.4805,440.5,696.4805,436.5,692.4805" style="stroke:#181818;stroke-width:1.0;"/><line style="stroke:#181818;stroke-width:1.0;stroke-dasharray:2.0,2.0;" x1="434.5" x2="736.5" y1="692.4805" y2="692.4805"/><text fill="#000000" font-family="sans-serif" font-size="13" lengthAdjust="spacing" textLength="153" x="446.5" y="687.2178">return Iterable&lt;Candidate&gt;</text><polygon fill="#181818" points="38.5,719.7715,28.5,723.7715,38.5,727.7715,34.5,723.7715" style="stroke:#181818;stroke-width:1.0;"/><line style="stroke:#181818;stroke-width:1.0;stroke-dasharray:2.0,2.0;" x1="32.5" x2="423.5" y1="723.7715" y2="723.7715"/><text fill="#000000" font-family="sans-serif" font-size="13" lengthAdjust="spacing" textLength="349" x="44.5" y="718.5088">Display Candidates Id's (emails) list and asks to choose one</text><polygon fill="#181818" points="407.5,751.0625,417.5,755.0625,407.5,759.0625,411.5,755.0625" style="stroke:#181818;stroke-width:1.0;"/><line style="stroke:#181818;stroke-width:1.0;" x1="27.5" x2="413.5" y1="755.0625" y2="755.0625"/><text fill="#000000" font-family="sans-serif" font-size="13" lengthAdjust="spacing" textLength="144" x="34.5" y="749.7998">Inputs index of candidate</text><polygon fill="#181818" points="720.5,782.3535,730.5,786.3535,720.5,790.3535,724.5,786.3535" style="stroke:#181818;stroke-width:1.0;"/><line style="stroke:#181818;stroke-width:1.0;" x1="429.5" x2="726.5" y1="786.3535" y2="786.3535"/><text fill="#000000" font-family="sans-serif" font-size="13" lengthAdjust="spacing" textLength="124" x="436.5" y="781.0908">candidates.get(index)</text><polygon fill="#181818" points="440.5,813.6445,430.5,817.6445,440.5,821.6445,436.5,817.6445" style="stroke:#181818;stroke-width:1.0;"/><line style="stroke:#181818;stroke-width:1.0;stroke-dasharray:2.0,2.0;" x1="434.5" x2="736.5" y1="817.6445" y2="817.6445"/><text fill="#000000" font-family="sans-serif" font-size="13" lengthAdjust="spacing" textLength="95" x="446.5" y="812.3818">return Candidate</text><polygon fill="#181818" points="38.5,844.9355,28.5,848.9355,38.5,852.9355,34.5,848.9355" style="stroke:#181818;stroke-width:1.0;"/><line style="stroke:#181818;stroke-width:1.0;stroke-dasharray:2.0,2.0;" x1="32.5" x2="418.5" y1="848.9355" y2="848.9355"/><text fill="#000000" font-family="sans-serif" font-size="13" lengthAdjust="spacing" textLength="368" x="44.5" y="843.6729">Display Candidate data and returns to Customer Manager Menu</text><!--SRC=[ZPH1ZzCm48Nl-HMZlT1Aj5ek7CAgKaXRY4ItKKh44PbakhN8si5sTbj-FMCdn4qeQa_RjUTxzhmtZk6cGiXtyEx-_ZtCu0lN1gAgWYKp3BPxY9aeUSaC1W4hZ5IGQrJ0DEH1pPJX1Q-PC71dGU8ijjttK9xSkTe47XxoPB6uXOcbC4fM5Ih7neJwfR54r9Y3LFmtCroA7QeNNg338iAw_yTCYahJoIWATnOUZIFI_nCPrb9pwlwqTYQS792jYUWMnaJVZKVRRZ9Y_1fXnFCNAYH3SvWjoAiGClpL80LX95Gs44Q1b3OGkOUY3yIJIK0E4nk78F0LhlawcNes3c9BHY6xu2GLHZ1hXHMQHWcuP3XmeGqZExriv6GZ2FkzEGhTABGy2ZAAgaexIv-PZiHfkvzyP1epMQ6Un_dkwtQpohvleiVeqofx2tultNwZZNmtN8sMc-Hn-Y5WbMa7b6iGaephRekbRyGSb7mTzh4w5bZR7m6ASY1oIQ1pmgW6NNs9mxQx4BkoQs5uyyvquh-1ae4KVe_f2z6bzgXkeFYm8WtIqQNFAyyFJ5kjR1tw0VDZUgwPhGCQ_A7g1UHSd11_wQmzASv2s7DHHgFkw84CjHE3YlseyA4lMmoSolwr_1hYpBL824kkwugT_6TEGrA-qJ31PyOhFUtUdoZfyVxKza4M1oarWXI3mEmJd2ti7H9HDqPJgYKURtYl_RQUFw6PE6oSyR0x_qM-jQVsss6RQ2LS7t6ZZNoc-TimmPxiNnHD4Fm1]--></g></svg>