<?xml version="1.0" encoding="us-ascii" standalone="no"?><svg xmlns="http://www.w3.org/2000/svg" xmlns:xlink="http://www.w3.org/1999/xlink" contentStyleType="text/css" height="280px" preserveAspectRatio="none" style="width:173px;height:280px;background:#FFFFFF;" version="1.1" viewBox="0 0 173 280" width="173px" zoomAndPan="magnify"><defs/><g><!--cluster candidate--><g id="cluster_candidate"><rect fill="#AABBCC" height="267" rx="2.5" ry="2.5" style="stroke:#181818;stroke-width:1.0;" width="160" x="7" y="7"/><text fill="#000000" font-family="sans-serif" font-size="14" font-weight="bold" lengthAdjust="spacing" textLength="69" x="52.5" y="24.1074">candidate</text></g><!--class Candidate--><g id="elem_Candidate"><rect codeLine="3" fill="#F1F1F1" height="76.543" id="Candidate" rx="2.5" ry="2.5" style="stroke:#181818;stroke-width:0.5;" width="128" x="23" y="44"/><ellipse cx="38" cy="74.2715" fill="#ADD1B2" rx="11" ry="11" style="stroke:#181818;stroke-width:1.0;"/><path d="M40.7656,70.1465 Q40.9219,69.9277 41.1094,69.8184 Q41.2969,69.709 41.5156,69.709 Q41.8906,69.709 42.125,69.9746 Q42.3594,70.2246 42.3594,70.834 L42.3594,72.2871 Q42.3594,72.8965 42.125,73.1621 Q41.8906,73.4277 41.5156,73.4277 Q41.1719,73.4277 40.9688,73.2246 Q40.7656,73.0371 40.6563,72.5215 Q40.6094,72.1621 40.4219,71.9746 Q40.0938,71.5996 39.4844,71.3809 Q38.875,71.1621 38.25,71.1621 Q37.4844,71.1621 36.8438,71.4902 Q36.2188,71.8184 35.7188,72.5684 Q35.2344,73.3184 35.2344,74.3496 L35.2344,75.4434 Q35.2344,76.6777 36.125,77.5059 Q37.0156,78.3184 38.6094,78.3184 Q39.5469,78.3184 40.2031,78.0684 Q40.5938,77.9121 41.0156,77.4746 Q41.2813,77.209 41.4219,77.1309 Q41.5781,77.0527 41.7813,77.0527 Q42.1094,77.0527 42.3594,77.3184 Q42.625,77.5684 42.625,77.9121 Q42.625,78.2559 42.2813,78.6621 Q41.7813,79.2402 40.9844,79.5684 Q39.9063,80.0215 38.6094,80.0215 Q37.0938,80.0215 35.8906,79.3965 Q34.9063,78.8965 34.2188,77.834 Q33.5313,76.7559 33.5313,75.4746 L33.5313,74.3184 Q33.5313,72.9902 34.1406,71.8496 Q34.7656,70.6934 35.8594,70.084 Q36.9531,69.459 38.1875,69.459 Q38.9219,69.459 39.5625,69.6309 Q40.2188,69.7871 40.7656,70.1465 Z " fill="#000000"/><text fill="#000000" font-family="sans-serif" font-size="12" font-style="italic" lengthAdjust="spacing" textLength="100" x="50" y="61.9492">&#171;Aggregate Root&#187;</text><text fill="#000000" font-family="sans-serif" font-size="12" font-style="italic" lengthAdjust="spacing" textLength="44" x="78" y="77.9102">&#171;Entity&#187;</text><text fill="#000000" font-family="sans-serif" font-size="14" lengthAdjust="spacing" textLength="65" x="67.5" y="96.0293">Candidate</text><line style="stroke:#181818;stroke-width:0.5;" x1="24" x2="150" y1="104.543" y2="104.543"/><line style="stroke:#181818;stroke-width:0.5;" x1="24" x2="150" y1="112.543" y2="112.543"/></g><!--class CandidateId--><g id="elem_CandidateId"><rect codeLine="4" fill="#F1F1F1" height="76.543" id="CandidateId" rx="2.5" ry="2.5" style="stroke:#181818;stroke-width:0.5;" width="113" x="30.5" y="181"/><ellipse cx="45.5" cy="211.2715" fill="#ADD1B2" rx="11" ry="11" style="stroke:#181818;stroke-width:1.0;"/><path d="M48.2656,207.1465 Q48.4219,206.9277 48.6094,206.8184 Q48.7969,206.709 49.0156,206.709 Q49.3906,206.709 49.625,206.9746 Q49.8594,207.2246 49.8594,207.834 L49.8594,209.2871 Q49.8594,209.8965 49.625,210.1621 Q49.3906,210.4277 49.0156,210.4277 Q48.6719,210.4277 48.4688,210.2246 Q48.2656,210.0371 48.1563,209.5215 Q48.1094,209.1621 47.9219,208.9746 Q47.5938,208.5996 46.9844,208.3809 Q46.375,208.1621 45.75,208.1621 Q44.9844,208.1621 44.3438,208.4902 Q43.7188,208.8184 43.2188,209.5684 Q42.7344,210.3184 42.7344,211.3496 L42.7344,212.4434 Q42.7344,213.6777 43.625,214.5059 Q44.5156,215.3184 46.1094,215.3184 Q47.0469,215.3184 47.7031,215.0684 Q48.0938,214.9121 48.5156,214.4746 Q48.7813,214.209 48.9219,214.1309 Q49.0781,214.0527 49.2813,214.0527 Q49.6094,214.0527 49.8594,214.3184 Q50.125,214.5684 50.125,214.9121 Q50.125,215.2559 49.7813,215.6621 Q49.2813,216.2402 48.4844,216.5684 Q47.4063,217.0215 46.1094,217.0215 Q44.5938,217.0215 43.3906,216.3965 Q42.4063,215.8965 41.7188,214.834 Q41.0313,213.7559 41.0313,212.4746 L41.0313,211.3184 Q41.0313,209.9902 41.6406,208.8496 Q42.2656,207.6934 43.3594,207.084 Q44.4531,206.459 45.6875,206.459 Q46.4219,206.459 47.0625,206.6309 Q47.7188,206.7871 48.2656,207.1465 Z " fill="#000000"/><text fill="#000000" font-family="sans-serif" font-size="12" font-style="italic" lengthAdjust="spacing" textLength="54" x="73" y="198.9492">&#171;Identity&#187;</text><text fill="#000000" font-family="sans-serif" font-size="12" font-style="italic" lengthAdjust="spacing" textLength="85" x="57.5" y="214.9102">&#171;Value Object&#187;</text><text fill="#000000" font-family="sans-serif" font-size="14" lengthAdjust="spacing" textLength="76" x="62" y="233.0293">CandidateId</text><line style="stroke:#181818;stroke-width:0.5;" x1="31.5" x2="142.5" y1="241.543" y2="241.543"/><line style="stroke:#181818;stroke-width:0.5;" x1="31.5" x2="142.5" y1="249.543" y2="249.543"/></g><!--reverse link Candidate to CandidateId--><g id="link_Candidate_CandidateId"><path codeLine="7" d="M87,133.11 C87,151.67 87,162.02 87,180.63 " fill="none" id="Candidate-backto-CandidateId" style="stroke:#181818;stroke-width:1.0;"/><polygon fill="#181818" points="87,121.11,83,127.11,87,133.11,91,127.11,87,121.11" style="stroke:#181818;stroke-width:1.0;"/><text fill="#000000" font-family="sans-serif" font-size="13" lengthAdjust="spacing" textLength="7" x="79.4422" y="142.7061">1</text><text fill="#000000" font-family="sans-serif" font-size="13" lengthAdjust="spacing" textLength="7" x="79.4203" y="169.8746">1</text></g><!--SRC=[AqfDBadCIyz9LKXEp4l9J4aiILLGJanCIafEhkPI08BadCJYOWLdcAIDZMDwUb5gEaXTK7v-YPsTZOrhNabcIQMTNNKjDXsUAJOsdYcfK3KsDc69EQMf2lv9MK2RmNfgkRZWYXMK39KKj7HrmJII4Lm0]--></g></svg>