<?xml version="1.0" encoding="us-ascii" standalone="no"?><svg xmlns="http://www.w3.org/2000/svg" xmlns:xlink="http://www.w3.org/1999/xlink" contentStyleType="text/css" height="520px" preserveAspectRatio="none" style="width:800px;height:520px;background:#FFFFFF;" version="1.1" viewBox="0 0 800 520" width="800px" zoomAndPan="magnify"><defs/><g><text fill="#000000" font-family="sans-serif" font-size="14" font-weight="bold" lengthAdjust="spacing" textLength="395" x="201.5" y="30.1074">UI Sequence Diagram (SSD) - List Users from Back Office</text><rect fill="#FFFFFF" height="294.9492" style="stroke:#181818;stroke-width:1.0;" width="10" x="22.5" y="133.2422"/><rect fill="#FFFFFF" height="262.6582" style="stroke:#181818;stroke-width:1.0;" width="10" x="263.5" y="156.5332"/><rect fill="#FFFFFF" height="156.4551" style="stroke:#181818;stroke-width:1.0;" width="10" x="467.5" y="231.4453"/><rect fill="#FFFFFF" height="93.873" style="stroke:#181818;stroke-width:1.0;" width="10" x="600.5" y="262.7363"/><rect fill="#FFFFFF" height="31.291" style="stroke:#181818;stroke-width:1.0;" width="10" x="733.5" y="294.0273"/><line style="stroke:#181818;stroke-width:0.5;stroke-dasharray:5.0,5.0;" x1="27" x2="27" y1="123.2422" y2="437.1914"/><line style="stroke:#181818;stroke-width:0.5;stroke-dasharray:5.0,5.0;" x1="268.5" x2="268.5" y1="123.2422" y2="437.1914"/><line style="stroke:#181818;stroke-width:0.5;stroke-dasharray:5.0,5.0;" x1="472.5" x2="472.5" y1="196.3438" y2="437.1914"/><line style="stroke:#181818;stroke-width:0.5;stroke-dasharray:5.0,5.0;" x1="605.5" x2="605.5" y1="123.2422" y2="437.1914"/><line style="stroke:#181818;stroke-width:0.5;stroke-dasharray:5.0,5.0;" x1="738" x2="738" y1="123.2422" y2="437.1914"/><text fill="#000000" font-family="sans-serif" font-size="14" lengthAdjust="spacing" textLength="39" x="5" y="119.7285">Admin</text><ellipse cx="27.5" cy="53.1211" fill="#E3E3E3" rx="8" ry="8" style="stroke:#181818;stroke-width:0.5;"/><path d="M27.5,61.1211 L27.5,88.1211 M14.5,69.1211 L40.5,69.1211 M27.5,88.1211 L14.5,103.1211 M27.5,88.1211 L40.5,103.1211 " fill="none" style="stroke:#181818;stroke-width:0.5;"/><text fill="#000000" font-family="sans-serif" font-size="14" lengthAdjust="spacing" textLength="39" x="5" y="451.2988">Admin</text><ellipse cx="27.5" cy="463.3125" fill="#E3E3E3" rx="8" ry="8" style="stroke:#181818;stroke-width:0.5;"/><path d="M27.5,471.3125 L27.5,498.3125 M14.5,479.3125 L40.5,479.3125 M27.5,498.3125 L14.5,513.3125 M27.5,498.3125 L40.5,513.3125 " fill="none" style="stroke:#181818;stroke-width:0.5;"/><rect fill="#E3E3E3" height="32.6211" rx="2.5" ry="2.5" style="stroke:#181818;stroke-width:0.5;" width="84" x="226.5" y="89.6211"/><text fill="#000000" font-family="sans-serif" font-size="14" lengthAdjust="spacing" textLength="70" x="233.5" y="111.7285">ListUsersUI</text><rect fill="#E3E3E3" height="32.6211" rx="2.5" ry="2.5" style="stroke:#181818;stroke-width:0.5;" width="84" x="226.5" y="436.1914"/><text fill="#000000" font-family="sans-serif" font-size="14" lengthAdjust="spacing" textLength="70" x="233.5" y="458.2988">ListUsersUI</text><rect fill="#E3E3E3" height="32.6211" rx="2.5" ry="2.5" style="stroke:#181818;stroke-width:0.5;" width="134" x="405.5" y="436.1914"/><text fill="#000000" font-family="sans-serif" font-size="14" lengthAdjust="spacing" textLength="120" x="412.5" y="458.2988">ListUsersController</text><rect fill="#E3E3E3" height="32.6211" rx="2.5" ry="2.5" style="stroke:#181818;stroke-width:0.5;" width="90" x="560.5" y="89.6211"/><text fill="#000000" font-family="sans-serif" font-size="14" lengthAdjust="spacing" textLength="76" x="567.5" y="111.7285">UserService</text><rect fill="#E3E3E3" height="32.6211" rx="2.5" ry="2.5" style="stroke:#181818;stroke-width:0.5;" width="90" x="560.5" y="436.1914"/><text fill="#000000" font-family="sans-serif" font-size="14" lengthAdjust="spacing" textLength="76" x="567.5" y="458.2988">UserService</text><rect fill="#E3E3E3" height="32.6211" rx="2.5" ry="2.5" style="stroke:#181818;stroke-width:0.5;" width="111" x="683" y="89.6211"/><text fill="#000000" font-family="sans-serif" font-size="14" lengthAdjust="spacing" textLength="97" x="690" y="111.7285">UserRepository</text><rect fill="#E3E3E3" height="32.6211" rx="2.5" ry="2.5" style="stroke:#181818;stroke-width:0.5;" width="111" x="683" y="436.1914"/><text fill="#000000" font-family="sans-serif" font-size="14" lengthAdjust="spacing" textLength="97" x="690" y="458.2988">UserRepository</text><rect fill="#FFFFFF" height="294.9492" style="stroke:#181818;stroke-width:1.0;" width="10" x="22.5" y="133.2422"/><rect fill="#FFFFFF" height="262.6582" style="stroke:#181818;stroke-width:1.0;" width="10" x="263.5" y="156.5332"/><rect fill="#FFFFFF" height="156.4551" style="stroke:#181818;stroke-width:1.0;" width="10" x="467.5" y="231.4453"/><rect fill="#FFFFFF" height="93.873" style="stroke:#181818;stroke-width:1.0;" width="10" x="600.5" y="262.7363"/><rect fill="#FFFFFF" height="31.291" style="stroke:#181818;stroke-width:1.0;" width="10" x="733.5" y="294.0273"/><polygon fill="#181818" points="251.5,152.5332,261.5,156.5332,251.5,160.5332,255.5,156.5332" style="stroke:#181818;stroke-width:1.0;"/><line style="stroke:#181818;stroke-width:1.0;" x1="32.5" x2="257.5" y1="156.5332" y2="156.5332"/><text fill="#000000" font-family="sans-serif" font-size="13" font-weight="bold" lengthAdjust="spacing" textLength="7" x="39.5" y="151.2705">1</text><text fill="#000000" font-family="sans-serif" font-size="13" lengthAdjust="spacing" textLength="185" x="50.5" y="151.2705">Asks to list all back office users</text><polygon fill="#181818" points="393.5,183.8242,403.5,187.8242,393.5,191.8242,397.5,187.8242" style="stroke:#181818;stroke-width:1.0;"/><line style="stroke:#181818;stroke-width:1.0;" x1="273.5" x2="399.5" y1="187.8242" y2="187.8242"/><text fill="#000000" font-family="sans-serif" font-size="13" font-weight="bold" lengthAdjust="spacing" textLength="7" x="280.5" y="182.5615">2</text><text fill="#000000" font-family="sans-serif" font-size="13" lengthAdjust="spacing" textLength="36" x="291.5" y="182.5615">create</text><rect fill="#E3E3E3" height="32.6211" rx="2.5" ry="2.5" style="stroke:#181818;stroke-width:0.5;" width="134" x="405.5" y="164.5332"/><text fill="#000000" font-family="sans-serif" font-size="14" lengthAdjust="spacing" textLength="120" x="412.5" y="186.6406">ListUsersController</text><polygon fill="#181818" points="455.5,227.4453,465.5,231.4453,455.5,235.4453,459.5,231.4453" style="stroke:#181818;stroke-width:1.0;"/><line style="stroke:#181818;stroke-width:1.0;" x1="273.5" x2="461.5" y1="231.4453" y2="231.4453"/><text fill="#000000" font-family="sans-serif" font-size="13" font-weight="bold" lengthAdjust="spacing" textLength="7" x="280.5" y="226.1826">3</text><text fill="#000000" font-family="sans-serif" font-size="13" lengthAdjust="spacing" textLength="118" x="291.5" y="226.1826">allBackOfficeUsers()</text><polygon fill="#181818" points="588.5,258.7363,598.5,262.7363,588.5,266.7363,592.5,262.7363" style="stroke:#181818;stroke-width:1.0;"/><line style="stroke:#181818;stroke-width:1.0;" x1="477.5" x2="594.5" y1="262.7363" y2="262.7363"/><text fill="#000000" font-family="sans-serif" font-size="13" font-weight="bold" lengthAdjust="spacing" textLength="7" x="484.5" y="257.4736">4</text><text fill="#000000" font-family="sans-serif" font-size="13" lengthAdjust="spacing" textLength="55" x="495.5" y="257.4736">allUsers()</text><polygon fill="#181818" points="721.5,290.0273,731.5,294.0273,721.5,298.0273,725.5,294.0273" style="stroke:#181818;stroke-width:1.0;"/><line style="stroke:#181818;stroke-width:1.0;" x1="610.5" x2="727.5" y1="294.0273" y2="294.0273"/><text fill="#000000" font-family="sans-serif" font-size="13" font-weight="bold" lengthAdjust="spacing" textLength="7" x="617.5" y="288.7646">5</text><text fill="#000000" font-family="sans-serif" font-size="13" lengthAdjust="spacing" textLength="43" x="628.5" y="288.7646">findAll()</text><polygon fill="#181818" points="621.5,321.3184,611.5,325.3184,621.5,329.3184,617.5,325.3184" style="stroke:#181818;stroke-width:1.0;"/><line style="stroke:#181818;stroke-width:1.0;stroke-dasharray:2.0,2.0;" x1="615.5" x2="737.5" y1="325.3184" y2="325.3184"/><text fill="#000000" font-family="sans-serif" font-size="13" font-weight="bold" lengthAdjust="spacing" textLength="7" x="627.5" y="320.0557">6</text><text fill="#000000" font-family="sans-serif" font-size="13" lengthAdjust="spacing" textLength="88" x="638.5" y="320.0557">List of all users</text><polygon fill="#181818" points="488.5,352.6094,478.5,356.6094,488.5,360.6094,484.5,356.6094" style="stroke:#181818;stroke-width:1.0;"/><line style="stroke:#181818;stroke-width:1.0;stroke-dasharray:2.0,2.0;" x1="482.5" x2="604.5" y1="356.6094" y2="356.6094"/><text fill="#000000" font-family="sans-serif" font-size="13" font-weight="bold" lengthAdjust="spacing" textLength="7" x="494.5" y="351.3467">7</text><text fill="#000000" font-family="sans-serif" font-size="13" lengthAdjust="spacing" textLength="88" x="505.5" y="351.3467">List of all users</text><polygon fill="#181818" points="284.5,383.9004,274.5,387.9004,284.5,391.9004,280.5,387.9004" style="stroke:#181818;stroke-width:1.0;"/><line style="stroke:#181818;stroke-width:1.0;stroke-dasharray:2.0,2.0;" x1="278.5" x2="471.5" y1="387.9004" y2="387.9004"/><text fill="#000000" font-family="sans-serif" font-size="13" font-weight="bold" lengthAdjust="spacing" textLength="7" x="290.5" y="382.6377">8</text><text fill="#000000" font-family="sans-serif" font-size="13" lengthAdjust="spacing" textLength="159" x="301.5" y="382.6377">List of all Back Office users</text><polygon fill="#181818" points="43.5,415.1914,33.5,419.1914,43.5,423.1914,39.5,419.1914" style="stroke:#181818;stroke-width:1.0;"/><line style="stroke:#181818;stroke-width:1.0;stroke-dasharray:2.0,2.0;" x1="37.5" x2="267.5" y1="419.1914" y2="419.1914"/><text fill="#000000" font-family="sans-serif" font-size="13" font-weight="bold" lengthAdjust="spacing" textLength="7" x="49.5" y="413.9287">9</text><text fill="#000000" font-family="sans-serif" font-size="13" lengthAdjust="spacing" textLength="196" x="60.5" y="413.9287">Lists all enabled back office users</text><!--SRC=[ZP91RiCW44NtFiKegoHIBk15fRJPMAfKgLOECC5Z1mM32pXLRb_0Zi6fevOLC9_7dm_cmcM76bjebLJih5LBO7LFcPag7R8BDbJQco3Gn2pAHgG2SyPAVNFPG8t2K9PPRftqM419Npr9Hd3Ws7ZfkYmF6zZ1EpSMZeQqWThT2Q_k3lYeQyxSSUojadrx8ktcp2eDgttLSha2DE5GvkwrdF4EfOMLPmNKiHWKnPFwcv9MAo581rrSplLUMvA-EY_JZUFwj_2JEcMuytYRj74hsETNj3JOpi0DFuFTYuydXxsv6B0AXCy3XO2J3qA58A3tfiEPY2b6IE4HiOFjDWUcoKcMwxc7-v27Z4CSwysSdUGH2d4TxCOK0cmHaKOrDJjkt24ndXngBgkz44kODCKxAUx1xj5I-56g3Y76u2hw4phPUmZiNy1PisbWuO7daEIFBmFJ1vXUSUmJ1fO9999u4bGz-IofHVTT_FW1]--></g></svg>