<?xml version="1.0" encoding="us-ascii" standalone="no"?><svg xmlns="http://www.w3.org/2000/svg" xmlns:xlink="http://www.w3.org/1999/xlink" contentStyleType="text/css" height="471px" preserveAspectRatio="none" style="width:746px;height:471px;background:#FFFFFF;" version="1.1" viewBox="0 0 746 471" width="746px" zoomAndPan="magnify"><defs/><g><!--cluster authz--><g id="cluster_authz"><path d="M352.5,6.0137 L391.5,6.0137 A3.75,3.75 0 0 1 394,8.5137 L401,30.6348 L481.5,30.6348 A2.5,2.5 0 0 1 484,33.1348 L484,104.5137 A2.5,2.5 0 0 1 481.5,107.0137 L352.5,107.0137 A2.5,2.5 0 0 1 350,104.5137 L350,8.5137 A2.5,2.5 0 0 1 352.5,6.0137 " fill="none" style="stroke:#000000;stroke-width:1.5;"/><line style="stroke:#000000;stroke-width:1.5;" x1="350" x2="401" y1="30.6348" y2="30.6348"/><text fill="#000000" font-family="sans-serif" font-size="14" font-weight="bold" lengthAdjust="spacing" textLength="38" x="354" y="23.1211">authz</text></g><!--cluster Applicatioin--><g id="cluster_Applicatioin"><path d="M288.5,175.0137 L371.5,175.0137 A3.75,3.75 0 0 1 374,177.5137 L381,199.6348 L545.5,199.6348 A2.5,2.5 0 0 1 548,202.1348 L548,292.5137 A2.5,2.5 0 0 1 545.5,295.0137 L288.5,295.0137 A2.5,2.5 0 0 1 286,292.5137 L286,177.5137 A2.5,2.5 0 0 1 288.5,175.0137 " fill="none" style="stroke:#000000;stroke-width:1.5;"/><line style="stroke:#000000;stroke-width:1.5;" x1="286" x2="381" y1="199.6348" y2="199.6348"/><text fill="#000000" font-family="sans-serif" font-size="14" font-weight="bold" lengthAdjust="spacing" textLength="82" x="290" y="192.1211">Applicatioin</text></g><!--cluster Libraries--><g id="cluster_Libraries"><path d="M8.5,363.0137 L71.5,363.0137 A3.75,3.75 0 0 1 74,365.5137 L81,387.6348 L736.5,387.6348 A2.5,2.5 0 0 1 739,390.1348 L739,461.5137 A2.5,2.5 0 0 1 736.5,464.0137 L8.5,464.0137 A2.5,2.5 0 0 1 6,461.5137 L6,365.5137 A2.5,2.5 0 0 1 8.5,363.0137 " fill="none" style="stroke:#000000;stroke-width:1.5;"/><line style="stroke:#000000;stroke-width:1.5;" x1="6" x2="81" y1="387.6348" y2="387.6348"/><text fill="#000000" font-family="sans-serif" font-size="14" font-weight="bold" lengthAdjust="spacing" textLength="62" x="10" y="380.1211">Libraries</text></g><!--class ListUsersUI--><g id="elem_ListUsersUI"><rect codeLine="4" fill="#F1F1F1" height="48" id="ListUsersUI" rx="2.5" ry="2.5" style="stroke:#181818;stroke-width:0.5;" width="102" x="366" y="43.0137"/><ellipse cx="381" cy="59.0137" fill="#ADD1B2" rx="11" ry="11" style="stroke:#181818;stroke-width:1.0;"/><path d="M383.7656,54.8887 Q383.9219,54.6699 384.1094,54.5605 Q384.2969,54.4512 384.5156,54.4512 Q384.8906,54.4512 385.125,54.7168 Q385.3594,54.9668 385.3594,55.5762 L385.3594,57.0293 Q385.3594,57.6387 385.125,57.9043 Q384.8906,58.1699 384.5156,58.1699 Q384.1719,58.1699 383.9688,57.9668 Q383.7656,57.7793 383.6563,57.2637 Q383.6094,56.9043 383.4219,56.7168 Q383.0938,56.3418 382.4844,56.123 Q381.875,55.9043 381.25,55.9043 Q380.4844,55.9043 379.8438,56.2324 Q379.2188,56.5605 378.7188,57.3105 Q378.2344,58.0605 378.2344,59.0918 L378.2344,60.1855 Q378.2344,61.4199 379.125,62.248 Q380.0156,63.0605 381.6094,63.0605 Q382.5469,63.0605 383.2031,62.8105 Q383.5938,62.6543 384.0156,62.2168 Q384.2813,61.9512 384.4219,61.873 Q384.5781,61.7949 384.7813,61.7949 Q385.1094,61.7949 385.3594,62.0605 Q385.625,62.3105 385.625,62.6543 Q385.625,62.998 385.2813,63.4043 Q384.7813,63.9824 383.9844,64.3105 Q382.9063,64.7637 381.6094,64.7637 Q380.0938,64.7637 378.8906,64.1387 Q377.9063,63.6387 377.2188,62.5762 Q376.5313,61.498 376.5313,60.2168 L376.5313,59.0605 Q376.5313,57.7324 377.1406,56.5918 Q377.7656,55.4355 378.8594,54.8262 Q379.9531,54.2012 381.1875,54.2012 Q381.9219,54.2012 382.5625,54.373 Q383.2188,54.5293 383.7656,54.8887 Z " fill="#000000"/><text fill="#000000" font-family="sans-serif" font-size="14" lengthAdjust="spacing" textLength="70" x="395" y="64.8105">ListUsersUI</text><line style="stroke:#181818;stroke-width:0.5;" x1="367" x2="467" y1="75.0137" y2="75.0137"/><line style="stroke:#181818;stroke-width:0.5;" x1="367" x2="467" y1="83.0137" y2="83.0137"/></g><!--class ListUsersController--><g id="elem_ListUsersController"><rect codeLine="9" fill="#F1F1F1" height="66.6211" id="ListUsersController" rx="2.5" ry="2.5" style="stroke:#181818;stroke-width:0.5;" width="229" x="302.5" y="212.0137"/><ellipse cx="352.75" cy="228.0137" fill="#ADD1B2" rx="11" ry="11" style="stroke:#181818;stroke-width:1.0;"/><path d="M355.5156,223.8887 Q355.6719,223.6699 355.8594,223.5605 Q356.0469,223.4512 356.2656,223.4512 Q356.6406,223.4512 356.875,223.7168 Q357.1094,223.9668 357.1094,224.5762 L357.1094,226.0293 Q357.1094,226.6387 356.875,226.9043 Q356.6406,227.1699 356.2656,227.1699 Q355.9219,227.1699 355.7188,226.9668 Q355.5156,226.7793 355.4063,226.2637 Q355.3594,225.9043 355.1719,225.7168 Q354.8438,225.3418 354.2344,225.123 Q353.625,224.9043 353,224.9043 Q352.2344,224.9043 351.5938,225.2324 Q350.9688,225.5605 350.4688,226.3105 Q349.9844,227.0605 349.9844,228.0918 L349.9844,229.1855 Q349.9844,230.4199 350.875,231.248 Q351.7656,232.0605 353.3594,232.0605 Q354.2969,232.0605 354.9531,231.8105 Q355.3438,231.6543 355.7656,231.2168 Q356.0313,230.9512 356.1719,230.873 Q356.3281,230.7949 356.5313,230.7949 Q356.8594,230.7949 357.1094,231.0605 Q357.375,231.3105 357.375,231.6543 Q357.375,231.998 357.0313,232.4043 Q356.5313,232.9824 355.7344,233.3105 Q354.6563,233.7637 353.3594,233.7637 Q351.8438,233.7637 350.6406,233.1387 Q349.6563,232.6387 348.9688,231.5762 Q348.2813,230.498 348.2813,229.2168 L348.2813,228.0605 Q348.2813,226.7324 348.8906,225.5918 Q349.5156,224.4355 350.6094,223.8262 Q351.7031,223.2012 352.9375,223.2012 Q353.6719,223.2012 354.3125,223.373 Q354.9688,223.5293 355.5156,223.8887 Z " fill="#000000"/><text fill="#000000" font-family="sans-serif" font-size="14" lengthAdjust="spacing" textLength="120" x="373.25" y="233.8105">ListUsersController</text><line style="stroke:#181818;stroke-width:0.5;" x1="303.5" x2="530.5" y1="244.0137" y2="244.0137"/><line style="stroke:#181818;stroke-width:0.5;" x1="303.5" x2="530.5" y1="252.0137" y2="252.0137"/><ellipse cx="313.5" cy="266.8242" fill="#84BE84" rx="3" ry="3" style="stroke:#038048;stroke-width:1.0;"/><text fill="#000000" font-family="sans-serif" font-size="14" lengthAdjust="spacing" textLength="203" x="322.5" y="271.1211">allBackOfficeUsers(): List&lt;User&gt;</text></g><!--class UserManagementService--><g id="elem_UserManagementService"><rect codeLine="15" fill="#F1F1F1" height="48" id="UserManagementService" rx="2.5" ry="2.5" style="stroke:#181818;stroke-width:0.5;" width="190" x="22" y="400.0137"/><ellipse cx="37" cy="416.0137" fill="#ADD1B2" rx="11" ry="11" style="stroke:#181818;stroke-width:1.0;"/><path d="M39.7656,411.8887 Q39.9219,411.6699 40.1094,411.5605 Q40.2969,411.4512 40.5156,411.4512 Q40.8906,411.4512 41.125,411.7168 Q41.3594,411.9668 41.3594,412.5762 L41.3594,414.0293 Q41.3594,414.6387 41.125,414.9043 Q40.8906,415.1699 40.5156,415.1699 Q40.1719,415.1699 39.9688,414.9668 Q39.7656,414.7793 39.6563,414.2637 Q39.6094,413.9043 39.4219,413.7168 Q39.0938,413.3418 38.4844,413.123 Q37.875,412.9043 37.25,412.9043 Q36.4844,412.9043 35.8438,413.2324 Q35.2188,413.5605 34.7188,414.3105 Q34.2344,415.0605 34.2344,416.0918 L34.2344,417.1855 Q34.2344,418.4199 35.125,419.248 Q36.0156,420.0605 37.6094,420.0605 Q38.5469,420.0605 39.2031,419.8105 Q39.5938,419.6543 40.0156,419.2168 Q40.2813,418.9512 40.4219,418.873 Q40.5781,418.7949 40.7813,418.7949 Q41.1094,418.7949 41.3594,419.0605 Q41.625,419.3105 41.625,419.6543 Q41.625,419.998 41.2813,420.4043 Q40.7813,420.9824 39.9844,421.3105 Q38.9063,421.7637 37.6094,421.7637 Q36.0938,421.7637 34.8906,421.1387 Q33.9063,420.6387 33.2188,419.5762 Q32.5313,418.498 32.5313,417.2168 L32.5313,416.0605 Q32.5313,414.7324 33.1406,413.5918 Q33.7656,412.4355 34.8594,411.8262 Q35.9531,411.2012 37.1875,411.2012 Q37.9219,411.2012 38.5625,411.373 Q39.2188,411.5293 39.7656,411.8887 Z " fill="#000000"/><text fill="#000000" font-family="sans-serif" font-size="14" lengthAdjust="spacing" textLength="158" x="51" y="421.8105">UserManagementService</text><line style="stroke:#181818;stroke-width:0.5;" x1="23" x2="211" y1="432.0137" y2="432.0137"/><line style="stroke:#181818;stroke-width:0.5;" x1="23" x2="211" y1="440.0137" y2="440.0137"/></g><!--class AuthorizationService--><g id="elem_AuthorizationService"><rect codeLine="16" fill="#F1F1F1" height="48" id="AuthorizationService" rx="2.5" ry="2.5" style="stroke:#181818;stroke-width:0.5;" width="161" x="247.5" y="400.0137"/><ellipse cx="262.5" cy="416.0137" fill="#ADD1B2" rx="11" ry="11" style="stroke:#181818;stroke-width:1.0;"/><path d="M265.2656,411.8887 Q265.4219,411.6699 265.6094,411.5605 Q265.7969,411.4512 266.0156,411.4512 Q266.3906,411.4512 266.625,411.7168 Q266.8594,411.9668 266.8594,412.5762 L266.8594,414.0293 Q266.8594,414.6387 266.625,414.9043 Q266.3906,415.1699 266.0156,415.1699 Q265.6719,415.1699 265.4688,414.9668 Q265.2656,414.7793 265.1563,414.2637 Q265.1094,413.9043 264.9219,413.7168 Q264.5938,413.3418 263.9844,413.123 Q263.375,412.9043 262.75,412.9043 Q261.9844,412.9043 261.3438,413.2324 Q260.7188,413.5605 260.2188,414.3105 Q259.7344,415.0605 259.7344,416.0918 L259.7344,417.1855 Q259.7344,418.4199 260.625,419.248 Q261.5156,420.0605 263.1094,420.0605 Q264.0469,420.0605 264.7031,419.8105 Q265.0938,419.6543 265.5156,419.2168 Q265.7813,418.9512 265.9219,418.873 Q266.0781,418.7949 266.2813,418.7949 Q266.6094,418.7949 266.8594,419.0605 Q267.125,419.3105 267.125,419.6543 Q267.125,419.998 266.7813,420.4043 Q266.2813,420.9824 265.4844,421.3105 Q264.4063,421.7637 263.1094,421.7637 Q261.5938,421.7637 260.3906,421.1387 Q259.4063,420.6387 258.7188,419.5762 Q258.0313,418.498 258.0313,417.2168 L258.0313,416.0605 Q258.0313,414.7324 258.6406,413.5918 Q259.2656,412.4355 260.3594,411.8262 Q261.4531,411.2012 262.6875,411.2012 Q263.4219,411.2012 264.0625,411.373 Q264.7188,411.5293 265.2656,411.8887 Z " fill="#000000"/><text fill="#000000" font-family="sans-serif" font-size="14" lengthAdjust="spacing" textLength="129" x="276.5" y="421.8105">AuthorizationService</text><line style="stroke:#181818;stroke-width:0.5;" x1="248.5" x2="407.5" y1="432.0137" y2="432.0137"/><line style="stroke:#181818;stroke-width:0.5;" x1="248.5" x2="407.5" y1="440.0137" y2="440.0137"/></g><!--class LoggerFactory--><g id="elem_LoggerFactory"><rect codeLine="17" fill="#F1F1F1" height="48" id="LoggerFactory" rx="2.5" ry="2.5" style="stroke:#181818;stroke-width:0.5;" width="125" x="443.5" y="400.0137"/><ellipse cx="458.5" cy="416.0137" fill="#ADD1B2" rx="11" ry="11" style="stroke:#181818;stroke-width:1.0;"/><path d="M461.2656,411.8887 Q461.4219,411.6699 461.6094,411.5605 Q461.7969,411.4512 462.0156,411.4512 Q462.3906,411.4512 462.625,411.7168 Q462.8594,411.9668 462.8594,412.5762 L462.8594,414.0293 Q462.8594,414.6387 462.625,414.9043 Q462.3906,415.1699 462.0156,415.1699 Q461.6719,415.1699 461.4688,414.9668 Q461.2656,414.7793 461.1563,414.2637 Q461.1094,413.9043 460.9219,413.7168 Q460.5938,413.3418 459.9844,413.123 Q459.375,412.9043 458.75,412.9043 Q457.9844,412.9043 457.3438,413.2324 Q456.7188,413.5605 456.2188,414.3105 Q455.7344,415.0605 455.7344,416.0918 L455.7344,417.1855 Q455.7344,418.4199 456.625,419.248 Q457.5156,420.0605 459.1094,420.0605 Q460.0469,420.0605 460.7031,419.8105 Q461.0938,419.6543 461.5156,419.2168 Q461.7813,418.9512 461.9219,418.873 Q462.0781,418.7949 462.2813,418.7949 Q462.6094,418.7949 462.8594,419.0605 Q463.125,419.3105 463.125,419.6543 Q463.125,419.998 462.7813,420.4043 Q462.2813,420.9824 461.4844,421.3105 Q460.4063,421.7637 459.1094,421.7637 Q457.5938,421.7637 456.3906,421.1387 Q455.4063,420.6387 454.7188,419.5762 Q454.0313,418.498 454.0313,417.2168 L454.0313,416.0605 Q454.0313,414.7324 454.6406,413.5918 Q455.2656,412.4355 456.3594,411.8262 Q457.4531,411.2012 458.6875,411.2012 Q459.4219,411.2012 460.0625,411.373 Q460.7188,411.5293 461.2656,411.8887 Z " fill="#000000"/><text fill="#000000" font-family="sans-serif" font-size="14" lengthAdjust="spacing" textLength="93" x="472.5" y="421.8105">LoggerFactory</text><line style="stroke:#181818;stroke-width:0.5;" x1="444.5" x2="567.5" y1="432.0137" y2="432.0137"/><line style="stroke:#181818;stroke-width:0.5;" x1="444.5" x2="567.5" y1="440.0137" y2="440.0137"/></g><!--class AuthzRegistry--><g id="elem_AuthzRegistry"><rect codeLine="18" fill="#F1F1F1" height="48" id="AuthzRegistry" rx="2.5" ry="2.5" style="stroke:#181818;stroke-width:0.5;" width="119" x="603.5" y="400.0137"/><ellipse cx="618.5" cy="416.0137" fill="#ADD1B2" rx="11" ry="11" style="stroke:#181818;stroke-width:1.0;"/><path d="M621.2656,411.8887 Q621.4219,411.6699 621.6094,411.5605 Q621.7969,411.4512 622.0156,411.4512 Q622.3906,411.4512 622.625,411.7168 Q622.8594,411.9668 622.8594,412.5762 L622.8594,414.0293 Q622.8594,414.6387 622.625,414.9043 Q622.3906,415.1699 622.0156,415.1699 Q621.6719,415.1699 621.4688,414.9668 Q621.2656,414.7793 621.1563,414.2637 Q621.1094,413.9043 620.9219,413.7168 Q620.5938,413.3418 619.9844,413.123 Q619.375,412.9043 618.75,412.9043 Q617.9844,412.9043 617.3438,413.2324 Q616.7188,413.5605 616.2188,414.3105 Q615.7344,415.0605 615.7344,416.0918 L615.7344,417.1855 Q615.7344,418.4199 616.625,419.248 Q617.5156,420.0605 619.1094,420.0605 Q620.0469,420.0605 620.7031,419.8105 Q621.0938,419.6543 621.5156,419.2168 Q621.7813,418.9512 621.9219,418.873 Q622.0781,418.7949 622.2813,418.7949 Q622.6094,418.7949 622.8594,419.0605 Q623.125,419.3105 623.125,419.6543 Q623.125,419.998 622.7813,420.4043 Q622.2813,420.9824 621.4844,421.3105 Q620.4063,421.7637 619.1094,421.7637 Q617.5938,421.7637 616.3906,421.1387 Q615.4063,420.6387 614.7188,419.5762 Q614.0313,418.498 614.0313,417.2168 L614.0313,416.0605 Q614.0313,414.7324 614.6406,413.5918 Q615.2656,412.4355 616.3594,411.8262 Q617.4531,411.2012 618.6875,411.2012 Q619.4219,411.2012 620.0625,411.373 Q620.7188,411.5293 621.2656,411.8887 Z " fill="#000000"/><text fill="#000000" font-family="sans-serif" font-size="14" lengthAdjust="spacing" textLength="87" x="632.5" y="421.8105">AuthzRegistry</text><line style="stroke:#181818;stroke-width:0.5;" x1="604.5" x2="721.5" y1="432.0137" y2="432.0137"/><line style="stroke:#181818;stroke-width:0.5;" x1="604.5" x2="721.5" y1="440.0137" y2="440.0137"/></g><!--link ListUsersUI to ListUsersController--><g id="link_ListUsersUI_ListUsersController"><path codeLine="21" d="M417,91.0837 C417,121.9237 417,170.7437 417,205.8237 " fill="none" id="ListUsersUI-to-ListUsersController" style="stroke:#181818;stroke-width:1.0;stroke-dasharray:7.0,7.0;"/><polygon fill="#181818" points="417,211.8237,421,202.8237,417,206.8237,413,202.8237,417,211.8237" style="stroke:#181818;stroke-width:1.0;"/></g><!--link ListUsersController to UserManagementService--><g id="link_ListUsersController_UserManagementService"><path codeLine="22" d="M360.4,279.0437 C323.24,300.4737 273.62,329.2337 230,355.0137 C204.97,369.8037 182.0937,383.5481 160.2237,396.7781 " fill="none" id="ListUsersController-to-UserManagementService" style="stroke:#181818;stroke-width:1.0;stroke-dasharray:7.0,7.0;"/><polygon fill="#181818" points="155.09,399.8837,164.861,398.6478,159.3681,397.2957,160.7202,391.8028,155.09,399.8837" style="stroke:#181818;stroke-width:1.0;"/></g><!--link ListUsersController to AuthorizationService--><g id="link_ListUsersController_AuthorizationService"><path codeLine="23" d="M400.47,279.2937 C382.77,314.3937 357.862,363.7965 342.322,394.6065 " fill="none" id="ListUsersController-to-AuthorizationService" style="stroke:#181818;stroke-width:1.0;stroke-dasharray:7.0,7.0;"/><polygon fill="#181818" points="339.62,399.9637,347.2445,393.7293,341.8717,395.4994,340.1016,390.1266,339.62,399.9637" style="stroke:#181818;stroke-width:1.0;"/></g><!--link ListUsersController to LoggerFactory--><g id="link_ListUsersController_LoggerFactory"><path codeLine="24" d="M433.53,279.2937 C451.23,314.3937 476.138,363.7965 491.678,394.6065 " fill="none" id="ListUsersController-to-LoggerFactory" style="stroke:#181818;stroke-width:1.0;stroke-dasharray:7.0,7.0;"/><polygon fill="#181818" points="494.38,399.9637,493.8984,390.1266,492.1283,395.4994,486.7555,393.7293,494.38,399.9637" style="stroke:#181818;stroke-width:1.0;"/></g><!--link ListUsersController to AuthzRegistry--><g id="link_ListUsersController_AuthzRegistry"><path codeLine="25" d="M472.46,279.1637 C506.16,299.7137 549.56,327.4737 586,355.0137 C604.5,368.9937 619.6637,382.2313 634.4437,395.8913 " fill="none" id="ListUsersController-to-AuthzRegistry" style="stroke:#181818;stroke-width:1.0;stroke-dasharray:7.0,7.0;"/><polygon fill="#181818" points="638.85,399.9637,634.9555,390.9175,635.1781,396.57,629.5256,396.7926,638.85,399.9637" style="stroke:#181818;stroke-width:1.0;"/></g><!--SRC=[TP3HQiCm34NV_HLvsyf8ybv6e1iC1Xc3ZNw0wggkc6CRMHaie_zU9nIQjgxUh7iatUk7lKY8oxeE5fpqdQsqxsfj8SPoIs0OEgK2w1ymM40l-w7uLqMg2IbQYhAEo77zVkeVrE4yi0h1aWOXJou_z-gTiBSM-QIFzGJMlgGLdxiTQPounyLo6deUNytjfPOs34mOvrT6zWDSqZjqyetyczRDz5NAuvc6qQ2xbLjl3F8RQF7yTpKsVA59Tb8_cPZ_GbbMJIwUoaMUuBpBktZMT9QkokOgmrtiCf8w0W00]--></g></svg>