<?xml version="1.0" encoding="us-ascii" standalone="no"?><svg xmlns="http://www.w3.org/2000/svg" xmlns:xlink="http://www.w3.org/1999/xlink" contentStyleType="text/css" height="2129.4px" preserveAspectRatio="none" style="width:1782px;height:2129px;background:#FFFFFF;" version="1.1" viewBox="0 0 1782 2129" width="1782.9px" zoomAndPan="magnify"><defs/><g><rect fill="#FFFFFF" height="1943.7838" style="stroke:#181818;stroke-width:0.9;" width="9" x="79.65" y="88.418"/><rect fill="#FFFFFF" height="761.2453" style="stroke:#181818;stroke-width:0.9;" width="9" x="348.75" y="109.3799"/><rect fill="#FFFFFF" height="1125.3146" style="stroke:#181818;stroke-width:0.9;" width="9" x="348.75" y="898.7871"/><rect fill="#FFFFFF" height="168.9715" style="stroke:#181818;stroke-width:0.9;" width="9" x="570.15" y="137.5418"/><rect fill="#FFFFFF" height="293.8869" style="stroke:#181818;stroke-width:0.9;" width="9" x="570.15" y="414.6609"/><rect fill="#FFFFFF" height="71.2916" style="stroke:#181818;stroke-width:0.9;" width="9" x="570.15" y="736.7098"/><rect fill="#FFFFFF" height="28.1619" style="stroke:#181818;stroke-width:0.9;" width="9" x="570.15" y="933.249"/><rect fill="#FFFFFF" height="880.2193" style="stroke:#181818;stroke-width:0.9;" width="9" x="570.15" y="1115.7205"/><rect fill="#FFFFFF" height="237.5631" style="stroke:#181818;stroke-width:0.9;" width="9" x="835.65" y="442.8229"/><rect fill="#FFFFFF" height="43.1297" style="stroke:#181818;stroke-width:0.9;" width="9" x="835.65" y="736.7098"/><rect fill="#FFFFFF" height="84.4857" style="stroke:#181818;stroke-width:0.9;" width="9" x="835.65" y="1143.8824"/><rect fill="#FFFFFF" height="28.1619" style="stroke:#181818;stroke-width:0.9;" width="9" x="835.65" y="1708.0207"/><rect fill="#FFFFFF" height="140.8096" style="stroke:#181818;stroke-width:0.9;" width="9" x="835.65" y="1826.9684"/><rect fill="#FFFFFF" height="28.1619" style="stroke:#181818;stroke-width:0.9;" width="9" x="1235.25" y="165.7037"/><rect fill="#FFFFFF" height="84.4857" style="stroke:#181818;stroke-width:0.9;" width="9" x="1354.95" y="222.0275"/><rect fill="#FFFFFF" height="28.1619" style="stroke:#181818;stroke-width:0.9;" width="9" x="1450.35" y="250.1895"/><rect fill="#FFFFFF" height="28.1619" style="stroke:#181818;stroke-width:0.9;" width="9" x="1568.7" y="470.9848"/><rect fill="#FFFFFF" height="94.9535" style="stroke:#181818;stroke-width:0.9;" width="9" x="1568.7" y="527.3086"/><rect fill="#FFFFFF" height="28.1619" style="stroke:#181818;stroke-width:0.9;" width="9" x="1568.7" y="1911.4541"/><rect fill="#FFFFFF" height="28.1619" style="stroke:#181818;stroke-width:0.9;" width="9" x="1709.1" y="1172.0443"/><rect fill="#FFFFFF" height="28.1619" style="stroke:#181818;stroke-width:0.9;" width="9" x="1709.1" y="1855.1303"/><rect fill="none" height="585.9738" style="stroke:#000000;stroke-width:1.35;" width="1649.7" x="9" y="320.0133"/><rect fill="none" height="88.6535" style="stroke:#000000;stroke-width:1.35;" width="882" x="767.7" y="540.8086"/><rect fill="none" height="201.3012" style="stroke:#000000;stroke-width:1.35;" width="894.6" x="18" y="642.0621"/><rect fill="none" height="113.5477" style="stroke:#000000;stroke-width:1.35;" width="466.65" x="18" y="974.9109"/><rect fill="none" height="501.5145" style="stroke:#000000;stroke-width:1.35;" width="903.6" x="9" y="1241.8682"/><rect fill="none" height="130.0096" style="stroke:#000000;stroke-width:1.35;" width="646.65" x="18" y="1265.5301"/><rect fill="none" height="130.0096" style="stroke:#000000;stroke-width:1.35;" width="646.65" x="18" y="1408.1396"/><rect fill="none" height="130.0096" style="stroke:#000000;stroke-width:1.35;" width="646.65" x="18" y="1550.7492"/><line style="stroke:#181818;stroke-width:0.45;stroke-dasharray:5.0,5.0;" x1="83.7" x2="83.7" y1="79.418" y2="2040.3018"/><line style="stroke:#181818;stroke-width:0.45;stroke-dasharray:5.0,5.0;" x1="352.8" x2="352.8" y1="79.418" y2="2040.3018"/><line style="stroke:#181818;stroke-width:0.45;stroke-dasharray:5.0,5.0;" x1="574.65" x2="574.65" y1="79.418" y2="2040.3018"/><line style="stroke:#181818;stroke-width:0.45;stroke-dasharray:5.0,5.0;" x1="839.7" x2="839.7" y1="79.418" y2="2040.3018"/><line style="stroke:#181818;stroke-width:0.45;stroke-dasharray:5.0,5.0;" x1="1239.3" x2="1239.3" y1="79.418" y2="2040.3018"/><line style="stroke:#181818;stroke-width:0.45;stroke-dasharray:5.0,5.0;" x1="1359" x2="1359" y1="79.418" y2="2040.3018"/><line style="stroke:#181818;stroke-width:0.45;stroke-dasharray:5.0,5.0;" x1="1454.4" x2="1454.4" y1="79.418" y2="2040.3018"/><line style="stroke:#181818;stroke-width:0.45;stroke-dasharray:5.0,5.0;" x1="1573.2" x2="1573.2" y1="79.418" y2="2040.3018"/><line style="stroke:#181818;stroke-width:0.45;stroke-dasharray:5.0,5.0;" x1="1713.6" x2="1713.6" y1="79.418" y2="2040.3018"/><text fill="#000000" font-family="sans-serif" font-size="12.6" lengthAdjust="spacing" textLength="108.9" x="27" y="76.2557">Customer Manager</text><ellipse cx="84.15" cy="16.309" fill="#E2E2F0" rx="7.2" ry="7.2" style="stroke:#181818;stroke-width:0.45;"/><path d="M84.15,23.509 L84.15,47.809 M72.45,30.709 L95.85,30.709 M84.15,47.809 L72.45,61.309 M84.15,47.809 L95.85,61.309 " fill="none" style="stroke:#181818;stroke-width:0.45;"/><text fill="#000000" font-family="sans-serif" font-size="12.6" lengthAdjust="spacing" textLength="108.9" x="27" y="2052.9984">Customer Manager</text><ellipse cx="84.15" cy="2063.8107" fill="#E2E2F0" rx="7.2" ry="7.2" style="stroke:#181818;stroke-width:0.45;"/><path d="M84.15,2071.0107 L84.15,2095.3107 M72.45,2078.2107 L95.85,2078.2107 M84.15,2095.3107 L72.45,2108.8107 M84.15,2095.3107 L95.85,2108.8107 " fill="none" style="stroke:#181818;stroke-width:0.45;"/><rect fill="#E2E2F0" height="46.118" rx="2.25" ry="2.25" style="stroke:#181818;stroke-width:0.45;" width="135.9" x="285.3" y="32.4"/><text fill="#000000" font-family="sans-serif" font-size="12.6" font-style="italic" lengthAdjust="spacing" textLength="27" x="339.75" y="52.2967">&#171;UI&#187;</text><text fill="#000000" font-family="sans-serif" font-size="12.6" lengthAdjust="spacing" textLength="123.3" x="291.6" y="69.0557">:UpdateJobOpeningUI</text><rect fill="#E2E2F0" height="46.118" rx="2.25" ry="2.25" style="stroke:#181818;stroke-width:0.45;" width="135.9" x="285.3" y="2039.4018"/><text fill="#000000" font-family="sans-serif" font-size="12.6" font-style="italic" lengthAdjust="spacing" textLength="27" x="339.75" y="2059.2984">&#171;UI&#187;</text><text fill="#000000" font-family="sans-serif" font-size="12.6" lengthAdjust="spacing" textLength="123.3" x="291.6" y="2076.0574">:UpdateJobOpeningUI</text><rect fill="#E2E2F0" height="46.118" rx="2.25" ry="2.25" style="stroke:#181818;stroke-width:0.45;" width="162" x="493.65" y="32.4"/><text fill="#000000" font-family="sans-serif" font-size="12.6" font-style="italic" lengthAdjust="spacing" textLength="76.5" x="536.4" y="52.2967">&#171;Application&#187;</text><text fill="#000000" font-family="sans-serif" font-size="12.6" lengthAdjust="spacing" textLength="149.4" x="499.95" y="69.0557">:EditJobOpeningController</text><rect fill="#E2E2F0" height="46.118" rx="2.25" ry="2.25" style="stroke:#181818;stroke-width:0.45;" width="162" x="493.65" y="2039.4018"/><text fill="#000000" font-family="sans-serif" font-size="12.6" font-style="italic" lengthAdjust="spacing" textLength="76.5" x="536.4" y="2059.2984">&#171;Application&#187;</text><text fill="#000000" font-family="sans-serif" font-size="12.6" lengthAdjust="spacing" textLength="149.4" x="499.95" y="2076.0574">:EditJobOpeningController</text><rect fill="#E2E2F0" height="46.118" rx="2.25" ry="2.25" style="stroke:#181818;stroke-width:0.45;" width="126.9" x="776.7" y="32.4"/><text fill="#000000" font-family="sans-serif" font-size="12.6" font-style="italic" lengthAdjust="spacing" textLength="76.5" x="801.9" y="52.2967">&#171;Application&#187;</text><text fill="#000000" font-family="sans-serif" font-size="12.6" lengthAdjust="spacing" textLength="114.3" x="783" y="69.0557">:JobOpeningService</text><rect fill="#E2E2F0" height="46.118" rx="2.25" ry="2.25" style="stroke:#181818;stroke-width:0.45;" width="126.9" x="776.7" y="2039.4018"/><text fill="#000000" font-family="sans-serif" font-size="12.6" font-style="italic" lengthAdjust="spacing" textLength="76.5" x="801.9" y="2059.2984">&#171;Application&#187;</text><text fill="#000000" font-family="sans-serif" font-size="12.6" lengthAdjust="spacing" textLength="114.3" x="783" y="2076.0574">:JobOpeningService</text><rect fill="#E2E2F0" height="46.118" rx="2.25" ry="2.25" style="stroke:#181818;stroke-width:0.45;" width="132.3" x="1173.6" y="32.4"/><text fill="#000000" font-family="sans-serif" font-size="12.6" font-style="italic" lengthAdjust="spacing" textLength="76.5" x="1201.5" y="52.2967">&#171;Application&#187;</text><text fill="#000000" font-family="sans-serif" font-size="12.6" lengthAdjust="spacing" textLength="119.7" x="1179.9" y="69.0557">:AuthorizationService</text><rect fill="#E2E2F0" height="46.118" rx="2.25" ry="2.25" style="stroke:#181818;stroke-width:0.45;" width="132.3" x="1173.6" y="2039.4018"/><text fill="#000000" font-family="sans-serif" font-size="12.6" font-style="italic" lengthAdjust="spacing" textLength="76.5" x="1201.5" y="2059.2984">&#171;Application&#187;</text><text fill="#000000" font-family="sans-serif" font-size="12.6" lengthAdjust="spacing" textLength="119.7" x="1179.9" y="2076.0574">:AuthorizationService</text><rect fill="#E2E2F0" height="46.118" rx="2.25" ry="2.25" style="stroke:#181818;stroke-width:0.45;" width="89.1" x="1314.9" y="32.4"/><text fill="#000000" font-family="sans-serif" font-size="12.6" font-style="italic" lengthAdjust="spacing" textLength="76.5" x="1321.2" y="52.2967">&#171;Application&#187;</text><text fill="#000000" font-family="sans-serif" font-size="12.6" lengthAdjust="spacing" textLength="74.7" x="1322.1" y="69.0557">:UserSession</text><rect fill="#E2E2F0" height="46.118" rx="2.25" ry="2.25" style="stroke:#181818;stroke-width:0.45;" width="89.1" x="1314.9" y="2039.4018"/><text fill="#000000" font-family="sans-serif" font-size="12.6" font-style="italic" lengthAdjust="spacing" textLength="76.5" x="1321.2" y="2059.2984">&#171;Application&#187;</text><text fill="#000000" font-family="sans-serif" font-size="12.6" lengthAdjust="spacing" textLength="74.7" x="1322.1" y="2076.0574">:UserSession</text><rect fill="#E2E2F0" height="46.118" rx="2.25" ry="2.25" style="stroke:#181818;stroke-width:0.45;" width="83.7" x="1413" y="32.4"/><text fill="#000000" font-family="sans-serif" font-size="12.6" font-style="italic" lengthAdjust="spacing" textLength="57.6" x="1426.05" y="52.2967">&#171;Domain&#187;</text><text fill="#000000" font-family="sans-serif" font-size="12.6" lengthAdjust="spacing" textLength="71.1" x="1419.3" y="69.0557">:SystemUser</text><rect fill="#E2E2F0" height="46.118" rx="2.25" ry="2.25" style="stroke:#181818;stroke-width:0.45;" width="83.7" x="1413" y="2039.4018"/><text fill="#000000" font-family="sans-serif" font-size="12.6" font-style="italic" lengthAdjust="spacing" textLength="57.6" x="1426.05" y="2059.2984">&#171;Domain&#187;</text><text fill="#000000" font-family="sans-serif" font-size="12.6" lengthAdjust="spacing" textLength="71.1" x="1419.3" y="2076.0574">:SystemUser</text><text fill="#000000" font-family="sans-serif" font-size="12.6" font-style="italic" lengthAdjust="spacing" textLength="75.6" x="1532.7" y="59.4967">&#171;Repository&#187;</text><text fill="#000000" font-family="sans-serif" font-size="12.6" lengthAdjust="spacing" textLength="129.6" x="1505.7" y="76.2557">JobOpeningRepository</text><path d="M1557,13.5 C1557,4.5 1573.2,4.5 1573.2,4.5 C1573.2,4.5 1589.4,4.5 1589.4,13.5 L1589.4,36.9 C1589.4,45.9 1573.2,45.9 1573.2,45.9 C1573.2,45.9 1557,45.9 1557,36.9 L1557,13.5 " fill="#E2E2F0" style="stroke:#181818;stroke-width:1.35;"/><path d="M1557,13.5 C1557,22.5 1573.2,22.5 1573.2,22.5 C1573.2,22.5 1589.4,22.5 1589.4,13.5 " fill="none" style="stroke:#181818;stroke-width:1.35;"/><text fill="#000000" font-family="sans-serif" font-size="12.6" font-style="italic" lengthAdjust="spacing" textLength="75.6" x="1532.7" y="2052.9984">&#171;Repository&#187;</text><text fill="#000000" font-family="sans-serif" font-size="12.6" lengthAdjust="spacing" textLength="129.6" x="1505.7" y="2069.7574">JobOpeningRepository</text><path d="M1557,2081.9197 C1557,2072.9197 1573.2,2072.9197 1573.2,2072.9197 C1573.2,2072.9197 1589.4,2072.9197 1589.4,2081.9197 L1589.4,2105.3197 C1589.4,2114.3197 1573.2,2114.3197 1573.2,2114.3197 C1573.2,2114.3197 1557,2114.3197 1557,2105.3197 L1557,2081.9197 " fill="#E2E2F0" style="stroke:#181818;stroke-width:1.35;"/><path d="M1557,2081.9197 C1557,2090.9197 1573.2,2090.9197 1573.2,2090.9197 C1573.2,2090.9197 1589.4,2090.9197 1589.4,2081.9197 " fill="none" style="stroke:#181818;stroke-width:1.35;"/><rect fill="#E2E2F0" height="46.118" rx="2.25" ry="2.25" style="stroke:#181818;stroke-width:0.45;" width="127.8" x="1649.7" y="32.4"/><text fill="#000000" font-family="sans-serif" font-size="12.6" font-style="italic" lengthAdjust="spacing" textLength="57.6" x="1684.8" y="52.2967">&#171;Domain&#187;</text><text fill="#000000" font-family="sans-serif" font-size="12.6" lengthAdjust="spacing" textLength="115.2" x="1656" y="69.0557">:JobOpeningMapper</text><rect fill="#E2E2F0" height="46.118" rx="2.25" ry="2.25" style="stroke:#181818;stroke-width:0.45;" width="127.8" x="1649.7" y="2039.4018"/><text fill="#000000" font-family="sans-serif" font-size="12.6" font-style="italic" lengthAdjust="spacing" textLength="57.6" x="1684.8" y="2059.2984">&#171;Domain&#187;</text><text fill="#000000" font-family="sans-serif" font-size="12.6" lengthAdjust="spacing" textLength="115.2" x="1656" y="2076.0574">:JobOpeningMapper</text><rect fill="#FFFFFF" height="1943.7838" style="stroke:#181818;stroke-width:0.9;" width="9" x="79.65" y="88.418"/><rect fill="#FFFFFF" height="761.2453" style="stroke:#181818;stroke-width:0.9;" width="9" x="348.75" y="109.3799"/><rect fill="#FFFFFF" height="1125.3146" style="stroke:#181818;stroke-width:0.9;" width="9" x="348.75" y="898.7871"/><rect fill="#FFFFFF" height="168.9715" style="stroke:#181818;stroke-width:0.9;" width="9" x="570.15" y="137.5418"/><rect fill="#FFFFFF" height="293.8869" style="stroke:#181818;stroke-width:0.9;" width="9" x="570.15" y="414.6609"/><rect fill="#FFFFFF" height="71.2916" style="stroke:#181818;stroke-width:0.9;" width="9" x="570.15" y="736.7098"/><rect fill="#FFFFFF" height="28.1619" style="stroke:#181818;stroke-width:0.9;" width="9" x="570.15" y="933.249"/><rect fill="#FFFFFF" height="880.2193" style="stroke:#181818;stroke-width:0.9;" width="9" x="570.15" y="1115.7205"/><rect fill="#FFFFFF" height="237.5631" style="stroke:#181818;stroke-width:0.9;" width="9" x="835.65" y="442.8229"/><rect fill="#FFFFFF" height="43.1297" style="stroke:#181818;stroke-width:0.9;" width="9" x="835.65" y="736.7098"/><rect fill="#FFFFFF" height="84.4857" style="stroke:#181818;stroke-width:0.9;" width="9" x="835.65" y="1143.8824"/><rect fill="#FFFFFF" height="28.1619" style="stroke:#181818;stroke-width:0.9;" width="9" x="835.65" y="1708.0207"/><rect fill="#FFFFFF" height="140.8096" style="stroke:#181818;stroke-width:0.9;" width="9" x="835.65" y="1826.9684"/><rect fill="#FFFFFF" height="28.1619" style="stroke:#181818;stroke-width:0.9;" width="9" x="1235.25" y="165.7037"/><rect fill="#FFFFFF" height="84.4857" style="stroke:#181818;stroke-width:0.9;" width="9" x="1354.95" y="222.0275"/><rect fill="#FFFFFF" height="28.1619" style="stroke:#181818;stroke-width:0.9;" width="9" x="1450.35" y="250.1895"/><rect fill="#FFFFFF" height="28.1619" style="stroke:#181818;stroke-width:0.9;" width="9" x="1568.7" y="470.9848"/><rect fill="#FFFFFF" height="94.9535" style="stroke:#181818;stroke-width:0.9;" width="9" x="1568.7" y="527.3086"/><rect fill="#FFFFFF" height="28.1619" style="stroke:#181818;stroke-width:0.9;" width="9" x="1568.7" y="1911.4541"/><rect fill="#FFFFFF" height="28.1619" style="stroke:#181818;stroke-width:0.9;" width="9" x="1709.1" y="1172.0443"/><rect fill="#FFFFFF" height="28.1619" style="stroke:#181818;stroke-width:0.9;" width="9" x="1709.1" y="1855.1303"/><polygon fill="#181818" points="337.95,105.7799,346.95,109.3799,337.95,112.9799,341.55,109.3799" style="stroke:#181818;stroke-width:0.9;"/><line style="stroke:#181818;stroke-width:0.9;" x1="88.65" x2="343.35" y1="109.3799" y2="109.3799"/><text fill="#000000" font-family="sans-serif" font-size="11.7" lengthAdjust="spacing" textLength="154.8" x="94.95" y="104.6435">Chooses to edit a job opening</text><polygon fill="#181818" points="559.35,133.9418,568.35,137.5418,559.35,141.1418,562.95,137.5418" style="stroke:#181818;stroke-width:0.9;"/><line style="stroke:#181818;stroke-width:0.9;" x1="357.75" x2="564.75" y1="137.5418" y2="137.5418"/><text fill="#000000" font-family="sans-serif" font-size="11.7" lengthAdjust="spacing" textLength="142.2" x="364.05" y="132.8054">Request to edit job opening</text><polygon fill="#181818" points="1224.45,162.1037,1233.45,165.7037,1224.45,169.3037,1228.05,165.7037" style="stroke:#181818;stroke-width:0.9;"/><line style="stroke:#181818;stroke-width:0.9;" x1="579.15" x2="1229.85" y1="165.7037" y2="165.7037"/><text fill="#000000" font-family="sans-serif" font-size="11.7" lengthAdjust="spacing" textLength="639" x="585.45" y="160.9673">ensureAuthenticatedUserHasAnyOf(BaseRoles.CUSTOMER_MANAGER, BaseRoles.ADMIN, BaseRoles.POWER_USER)</text><polygon fill="#181818" points="589.05,190.2656,580.05,193.8656,589.05,197.4656,585.45,193.8656" style="stroke:#181818;stroke-width:0.9;"/><line style="stroke:#181818;stroke-width:0.9;stroke-dasharray:2.0,2.0;" x1="583.65" x2="1238.85" y1="193.8656" y2="193.8656"/><text fill="#000000" font-family="sans-serif" font-size="11.7" lengthAdjust="spacing" textLength="94.5" x="594.45" y="189.1292">User is authorized</text><polygon fill="#181818" points="1344.15,218.4275,1353.15,222.0275,1344.15,225.6275,1347.75,222.0275" style="stroke:#181818;stroke-width:0.9;"/><line style="stroke:#181818;stroke-width:0.9;" x1="579.15" x2="1349.55" y1="222.0275" y2="222.0275"/><text fill="#000000" font-family="sans-serif" font-size="11.7" lengthAdjust="spacing" textLength="47.7" x="585.45" y="217.2911">getUser()</text><polygon fill="#181818" points="1439.55,246.5895,1448.55,250.1895,1439.55,253.7895,1443.15,250.1895" style="stroke:#181818;stroke-width:0.9;"/><line style="stroke:#181818;stroke-width:0.9;" x1="1363.95" x2="1444.95" y1="250.1895" y2="250.1895"/><text fill="#000000" font-family="sans-serif" font-size="11.7" lengthAdjust="spacing" textLength="29.7" x="1370.25" y="245.453">user()</text><polygon fill="#181818" points="1373.85,274.7514,1364.85,278.3514,1373.85,281.9514,1370.25,278.3514" style="stroke:#181818;stroke-width:0.9;"/><line style="stroke:#181818;stroke-width:0.9;stroke-dasharray:2.0,2.0;" x1="1368.45" x2="1453.95" y1="278.3514" y2="278.3514"/><text fill="#000000" font-family="sans-serif" font-size="11.7" lengthAdjust="spacing" textLength="62.1" x="1379.25" y="273.6149">returns user</text><polygon fill="#181818" points="584.55,302.9133,575.55,306.5133,584.55,310.1133,580.95,306.5133" style="stroke:#181818;stroke-width:0.9;"/><line style="stroke:#181818;stroke-width:0.9;stroke-dasharray:2.0,2.0;" x1="579.15" x2="1358.55" y1="306.5133" y2="306.5133"/><text fill="#000000" font-family="sans-serif" font-size="11.7" lengthAdjust="spacing" textLength="62.1" x="589.95" y="301.7769">returns user</text><path d="M9,320.0133 L74.7,320.0133 L74.7,328.3752 L65.7,337.3752 L9,337.3752 L9,320.0133 " fill="#EEEEEE" style="stroke:#000000;stroke-width:1.35;"/><rect fill="none" height="585.9738" style="stroke:#000000;stroke-width:1.35;" width="1649.7" x="9" y="320.0133"/><text fill="#000000" font-family="sans-serif" font-size="11.7" font-weight="bold" lengthAdjust="spacing" textLength="25.2" x="22.5" y="333.5388">loop</text><text fill="#000000" font-family="sans-serif" font-size="9.9" font-weight="bold" lengthAdjust="spacing" textLength="140.4" x="88.2" y="332.4964">[while confirmation == false]</text><polygon fill="#181818" points="98.55,354.7371,89.55,358.3371,98.55,361.9371,94.95,358.3371" style="stroke:#181818;stroke-width:0.9;"/><line style="stroke:#181818;stroke-width:0.9;" x1="93.15" x2="347.85" y1="358.3371" y2="358.3371"/><text fill="#000000" font-family="sans-serif" font-size="11.7" lengthAdjust="spacing" textLength="115.2" x="103.95" y="353.6007">asks for JobReference</text><polygon fill="#181818" points="337.95,382.899,346.95,386.499,337.95,390.099,341.55,386.499" style="stroke:#181818;stroke-width:0.9;"/><line style="stroke:#181818;stroke-width:0.9;stroke-dasharray:2.0,2.0;" x1="88.65" x2="343.35" y1="386.499" y2="386.499"/><text fill="#000000" font-family="sans-serif" font-size="11.7" lengthAdjust="spacing" textLength="106.2" x="94.95" y="381.7626">enters JobReference</text><polygon fill="#181818" points="559.35,411.0609,568.35,414.6609,559.35,418.2609,562.95,414.6609" style="stroke:#181818;stroke-width:0.9;"/><line style="stroke:#181818;stroke-width:0.9;" x1="357.75" x2="564.75" y1="414.6609" y2="414.6609"/><text fill="#000000" font-family="sans-serif" font-size="11.7" lengthAdjust="spacing" textLength="183.6" x="364.05" y="409.9245">validateJobReference(jobReference)</text><polygon fill="#181818" points="824.85,439.2229,833.85,442.8229,824.85,446.4229,828.45,442.8229" style="stroke:#181818;stroke-width:0.9;"/><line style="stroke:#181818;stroke-width:0.9;" x1="579.15" x2="830.25" y1="442.8229" y2="442.8229"/><text fill="#000000" font-family="sans-serif" font-size="11.7" lengthAdjust="spacing" textLength="171" x="585.45" y="438.0864">verifyJobReference(jobReference)</text><polygon fill="#181818" points="1557.9,467.3848,1566.9,470.9848,1557.9,474.5848,1561.5,470.9848" style="stroke:#181818;stroke-width:0.9;"/><line style="stroke:#181818;stroke-width:0.9;" x1="844.65" x2="1563.3" y1="470.9848" y2="470.9848"/><text fill="#000000" font-family="sans-serif" font-size="11.7" lengthAdjust="spacing" textLength="177.3" x="850.95" y="466.2483">findByJobReference(jobReference)</text><polygon fill="#181818" points="854.55,495.5467,845.55,499.1467,854.55,502.7467,850.95,499.1467" style="stroke:#181818;stroke-width:0.9;"/><line style="stroke:#181818;stroke-width:0.9;stroke-dasharray:2.0,2.0;" x1="849.15" x2="1572.3" y1="499.1467" y2="499.1467"/><text fill="#000000" font-family="sans-serif" font-size="11.7" lengthAdjust="spacing" textLength="58.5" x="859.95" y="494.4103">jobOpening</text><polygon fill="#181818" points="1557.9,523.7086,1566.9,527.3086,1557.9,530.9086,1561.5,527.3086" style="stroke:#181818;stroke-width:0.9;"/><line style="stroke:#181818;stroke-width:0.9;" x1="844.65" x2="1563.3" y1="527.3086" y2="527.3086"/><text fill="#000000" font-family="sans-serif" font-size="11.7" lengthAdjust="spacing" textLength="221.4" x="850.95" y="522.5722">isCreatedByCurrentUser(jobOpening, user)</text><path d="M767.7,540.8086 L822.6,540.8086 L822.6,549.1705 L813.6,558.1705 L767.7,558.1705 L767.7,540.8086 " fill="#EEEEEE" style="stroke:#000000;stroke-width:1.35;"/><rect fill="none" height="88.6535" style="stroke:#000000;stroke-width:1.35;" width="882" x="767.7" y="540.8086"/><text fill="#000000" font-family="sans-serif" font-size="11.7" font-weight="bold" lengthAdjust="spacing" textLength="14.4" x="781.2" y="554.3341">alt</text><text fill="#000000" font-family="sans-serif" font-size="9.9" font-weight="bold" lengthAdjust="spacing" textLength="68.4" x="836.1" y="553.2917">[returns true]</text><polygon fill="#181818" points="854.55,575.5324,845.55,579.1324,854.55,582.7324,850.95,579.1324" style="stroke:#181818;stroke-width:0.9;"/><line style="stroke:#181818;stroke-width:0.9;stroke-dasharray:2.0,2.0;" x1="849.15" x2="1567.8" y1="579.1324" y2="579.1324"/><text fill="#000000" font-family="sans-serif" font-size="11.7" lengthAdjust="spacing" textLength="91.8" x="859.95" y="574.396">return jobOpening</text><line style="stroke:#000000;stroke-width:0.9;stroke-dasharray:2.0,2.0;" x1="767.7" x2="1649.7" y1="587.2324" y2="587.2324"/><text fill="#000000" font-family="sans-serif" font-size="9.9" font-weight="bold" lengthAdjust="spacing" textLength="72" x="772.2" y="597.9155">[returns false]</text><polygon fill="#181818" points="854.55,618.6621,845.55,622.2621,854.55,625.8621,850.95,622.2621" style="stroke:#181818;stroke-width:0.9;"/><line style="stroke:#181818;stroke-width:0.9;stroke-dasharray:2.0,2.0;" x1="849.15" x2="1572.3" y1="622.2621" y2="622.2621"/><text fill="#000000" font-family="sans-serif" font-size="11.7" lengthAdjust="spacing" textLength="51.3" x="859.95" y="617.5257">return null</text><path d="M18,642.0621 L72.9,642.0621 L72.9,650.424 L63.9,659.424 L18,659.424 L18,642.0621 " fill="#EEEEEE" style="stroke:#000000;stroke-width:1.35;"/><rect fill="none" height="201.3012" style="stroke:#000000;stroke-width:1.35;" width="894.6" x="18" y="642.0621"/><text fill="#000000" font-family="sans-serif" font-size="11.7" font-weight="bold" lengthAdjust="spacing" textLength="14.4" x="31.5" y="655.5876">alt</text><text fill="#000000" font-family="sans-serif" font-size="9.9" font-weight="bold" lengthAdjust="spacing" textLength="96.3" x="86.4" y="654.5452">[jobOpening is null]</text><polygon fill="#181818" points="589.05,676.7859,580.05,680.3859,589.05,683.9859,585.45,680.3859" style="stroke:#181818;stroke-width:0.9;"/><line style="stroke:#181818;stroke-width:0.9;stroke-dasharray:2.0,2.0;" x1="583.65" x2="839.25" y1="680.3859" y2="680.3859"/><text fill="#000000" font-family="sans-serif" font-size="11.7" lengthAdjust="spacing" textLength="92.7" x="594.45" y="675.6495">jobOpening is null</text><polygon fill="#181818" points="367.65,704.9479,358.65,708.5479,367.65,712.1479,364.05,708.5479" style="stroke:#181818;stroke-width:0.9;"/><line style="stroke:#181818;stroke-width:0.9;stroke-dasharray:2.0,2.0;" x1="362.25" x2="573.75" y1="708.5479" y2="708.5479"/><text fill="#000000" font-family="sans-serif" font-size="11.7" lengthAdjust="spacing" textLength="190.8" x="373.05" y="703.8114">displayError("JobOpening not found")</text><polygon fill="#181818" points="98.55,733.1098,89.55,736.7098,98.55,740.3098,94.95,736.7098" style="stroke:#181818;stroke-width:0.9;"/><line style="stroke:#181818;stroke-width:0.9;stroke-dasharray:2.0,2.0;" x1="93.15" x2="347.85" y1="736.7098" y2="736.7098"/><text fill="#000000" font-family="sans-serif" font-size="11.7" lengthAdjust="spacing" textLength="121.5" x="103.95" y="731.9733">displays error message</text><line style="stroke:#000000;stroke-width:0.9;stroke-dasharray:2.0,2.0;" x1="18" x2="912.6" y1="744.8098" y2="744.8098"/><text fill="#000000" font-family="sans-serif" font-size="9.9" font-weight="bold" lengthAdjust="spacing" textLength="115.2" x="22.5" y="755.4929">[jobOpening is not null]</text><polygon fill="#181818" points="589.05,776.2395,580.05,779.8395,589.05,783.4395,585.45,779.8395" style="stroke:#181818;stroke-width:0.9;"/><line style="stroke:#181818;stroke-width:0.9;stroke-dasharray:2.0,2.0;" x1="583.65" x2="839.25" y1="779.8395" y2="779.8395"/><text fill="#000000" font-family="sans-serif" font-size="11.7" lengthAdjust="spacing" textLength="58.5" x="594.45" y="775.103">jobOpening</text><polygon fill="#181818" points="367.65,804.4014,358.65,808.0014,367.65,811.6014,364.05,808.0014" style="stroke:#181818;stroke-width:0.9;"/><line style="stroke:#181818;stroke-width:0.9;stroke-dasharray:2.0,2.0;" x1="362.25" x2="573.75" y1="808.0014" y2="808.0014"/><text fill="#000000" font-family="sans-serif" font-size="11.7" lengthAdjust="spacing" textLength="163.8" x="373.05" y="803.2649">displayJobOpening(jobOpening)</text><polygon fill="#181818" points="98.55,832.5633,89.55,836.1633,98.55,839.7633,94.95,836.1633" style="stroke:#181818;stroke-width:0.9;"/><line style="stroke:#181818;stroke-width:0.9;stroke-dasharray:2.0,2.0;" x1="93.15" x2="347.85" y1="836.1633" y2="836.1633"/><text fill="#000000" font-family="sans-serif" font-size="11.7" lengthAdjust="spacing" textLength="105.3" x="103.95" y="831.4269">displays jobOpening</text><polygon fill="#181818" points="98.55,867.0252,89.55,870.6252,98.55,874.2252,94.95,870.6252" style="stroke:#181818;stroke-width:0.9;"/><line style="stroke:#181818;stroke-width:0.9;" x1="93.15" x2="352.35" y1="870.6252" y2="870.6252"/><text fill="#000000" font-family="sans-serif" font-size="11.7" lengthAdjust="spacing" textLength="105.3" x="103.95" y="865.8888">request confirmation</text><polygon fill="#181818" points="337.95,895.1871,346.95,898.7871,337.95,902.3871,341.55,898.7871" style="stroke:#181818;stroke-width:0.9;"/><line style="stroke:#181818;stroke-width:0.9;" x1="88.65" x2="343.35" y1="898.7871" y2="898.7871"/><text fill="#000000" font-family="sans-serif" font-size="11.7" lengthAdjust="spacing" textLength="98.1" x="94.95" y="894.0507">inputs confirmation</text><polygon fill="#181818" points="559.35,929.649,568.35,933.249,559.35,936.849,562.95,933.249" style="stroke:#181818;stroke-width:0.9;"/><line style="stroke:#181818;stroke-width:0.9;" x1="357.75" x2="564.75" y1="933.249" y2="933.249"/><text fill="#000000" font-family="sans-serif" font-size="11.7" lengthAdjust="spacing" textLength="120.6" x="364.05" y="928.5126">displayEditingOptions()</text><polygon fill="#181818" points="367.65,957.8109,358.65,961.4109,367.65,965.0109,364.05,961.4109" style="stroke:#181818;stroke-width:0.9;"/><line style="stroke:#181818;stroke-width:0.9;" x1="362.25" x2="573.75" y1="961.4109" y2="961.4109"/><text fill="#000000" font-family="sans-serif" font-size="11.7" lengthAdjust="spacing" textLength="125.1" x="373.05" y="956.6745">updateList(Edit.values())</text><path d="M18,974.9109 L83.7,974.9109 L83.7,983.2729 L74.7,992.2729 L18,992.2729 L18,974.9109 " fill="#EEEEEE" style="stroke:#000000;stroke-width:1.35;"/><rect fill="none" height="113.5477" style="stroke:#000000;stroke-width:1.35;" width="466.65" x="18" y="974.9109"/><text fill="#000000" font-family="sans-serif" font-size="11.7" font-weight="bold" lengthAdjust="spacing" textLength="25.2" x="31.5" y="988.4364">loop</text><text fill="#000000" font-family="sans-serif" font-size="9.9" font-weight="bold" lengthAdjust="spacing" textLength="138.6" x="97.2" y="987.394">[until user chooses to stop]</text><polygon fill="#181818" points="98.55,1009.6348,89.55,1013.2348,98.55,1016.8348,94.95,1013.2348" style="stroke:#181818;stroke-width:0.9;"/><line style="stroke:#181818;stroke-width:0.9;" x1="93.15" x2="347.85" y1="1013.2348" y2="1013.2348"/><text fill="#000000" font-family="sans-serif" font-size="11.7" lengthAdjust="spacing" textLength="238.5" x="103.95" y="1008.4983">displays parameters to edit and option to stop</text><polygon fill="#181818" points="337.95,1037.7967,346.95,1041.3967,337.95,1044.9967,341.55,1041.3967" style="stroke:#181818;stroke-width:0.9;"/><line style="stroke:#181818;stroke-width:0.9;stroke-dasharray:2.0,2.0;" x1="88.65" x2="343.35" y1="1041.3967" y2="1041.3967"/><text fill="#000000" font-family="sans-serif" font-size="11.7" lengthAdjust="spacing" textLength="137.7" x="94.95" y="1036.6603">Chooses parameter to edit</text><line style="stroke:#181818;stroke-width:0.9;" x1="357.75" x2="395.55" y1="1069.5586" y2="1069.5586"/><line style="stroke:#181818;stroke-width:0.9;" x1="395.55" x2="395.55" y1="1069.5586" y2="1081.2586"/><line style="stroke:#181818;stroke-width:0.9;" x1="358.65" x2="395.55" y1="1081.2586" y2="1081.2586"/><polygon fill="#181818" points="367.65,1077.6586,358.65,1081.2586,367.65,1084.8586,364.05,1081.2586" style="stroke:#181818;stroke-width:0.9;"/><text fill="#000000" font-family="sans-serif" font-size="11.7" lengthAdjust="spacing" textLength="109.8" x="364.05" y="1064.8222">return list add(option)</text><polygon fill="#181818" points="559.35,1112.1205,568.35,1115.7205,559.35,1119.3205,562.95,1115.7205" style="stroke:#181818;stroke-width:0.9;"/><line style="stroke:#181818;stroke-width:0.9;stroke-dasharray:2.0,2.0;" x1="357.75" x2="564.75" y1="1115.7205" y2="1115.7205"/><text fill="#000000" font-family="sans-serif" font-size="11.7" lengthAdjust="spacing" textLength="126" x="364.05" y="1110.9841">returns List &lt;Edit&gt; edits</text><polygon fill="#181818" points="824.85,1140.2824,833.85,1143.8824,824.85,1147.4824,828.45,1143.8824" style="stroke:#181818;stroke-width:0.9;"/><line style="stroke:#181818;stroke-width:0.9;" x1="579.15" x2="830.25" y1="1143.8824" y2="1143.8824"/><text fill="#000000" font-family="sans-serif" font-size="11.7" lengthAdjust="spacing" textLength="93.6" x="585.45" y="1139.146">toDto(jobOpening)</text><polygon fill="#181818" points="1698.3,1168.4443,1707.3,1172.0443,1698.3,1175.6443,1701.9,1172.0443" style="stroke:#181818;stroke-width:0.9;"/><line style="stroke:#181818;stroke-width:0.9;" x1="844.65" x2="1703.7" y1="1172.0443" y2="1172.0443"/><text fill="#000000" font-family="sans-serif" font-size="11.7" lengthAdjust="spacing" textLength="93.6" x="850.95" y="1167.3079">toDto(jobOpening)</text><polygon fill="#181818" points="854.55,1196.6063,845.55,1200.2063,854.55,1203.8063,850.95,1200.2063" style="stroke:#181818;stroke-width:0.9;"/><line style="stroke:#181818;stroke-width:0.9;stroke-dasharray:2.0,2.0;" x1="849.15" x2="1712.7" y1="1200.2063" y2="1200.2063"/><text fill="#000000" font-family="sans-serif" font-size="11.7" lengthAdjust="spacing" textLength="76.5" x="859.95" y="1195.4698">jobOpeningDto</text><polygon fill="#181818" points="589.05,1224.7682,580.05,1228.3682,589.05,1231.9682,585.45,1228.3682" style="stroke:#181818;stroke-width:0.9;"/><line style="stroke:#181818;stroke-width:0.9;stroke-dasharray:2.0,2.0;" x1="583.65" x2="839.25" y1="1228.3682" y2="1228.3682"/><text fill="#000000" font-family="sans-serif" font-size="11.7" lengthAdjust="spacing" textLength="76.5" x="594.45" y="1223.6317">jobOpeningDto</text><path d="M9,1241.8682 L74.7,1241.8682 L74.7,1250.2301 L65.7,1259.2301 L9,1259.2301 L9,1241.8682 " fill="#EEEEEE" style="stroke:#000000;stroke-width:1.35;"/><rect fill="none" height="501.5145" style="stroke:#000000;stroke-width:1.35;" width="903.6" x="9" y="1241.8682"/><text fill="#000000" font-family="sans-serif" font-size="11.7" font-weight="bold" lengthAdjust="spacing" textLength="25.2" x="22.5" y="1255.3937">loop</text><text fill="#000000" font-family="sans-serif" font-size="9.9" font-weight="bold" lengthAdjust="spacing" textLength="69.3" x="88.2" y="1254.3513">[for each edit]</text><path d="M18,1265.5301 L72.9,1265.5301 L72.9,1273.892 L63.9,1282.892 L18,1282.892 L18,1265.5301 " fill="#EEEEEE" style="stroke:#000000;stroke-width:1.35;"/><rect fill="none" height="130.0096" style="stroke:#000000;stroke-width:1.35;" width="646.65" x="18" y="1265.5301"/><text fill="#000000" font-family="sans-serif" font-size="11.7" font-weight="bold" lengthAdjust="spacing" textLength="14.4" x="31.5" y="1279.0556">alt</text><text fill="#000000" font-family="sans-serif" font-size="9.9" font-weight="bold" lengthAdjust="spacing" textLength="78.3" x="86.4" y="1278.0132">[edit is a string]</text><polygon fill="#181818" points="367.65,1300.2539,358.65,1303.8539,367.65,1307.4539,364.05,1303.8539" style="stroke:#181818;stroke-width:0.9;"/><line style="stroke:#181818;stroke-width:0.9;" x1="362.25" x2="569.25" y1="1303.8539" y2="1303.8539"/><text fill="#000000" font-family="sans-serif" font-size="11.7" lengthAdjust="spacing" textLength="153" x="373.05" y="1299.1175">updateString(Edit.StringField)</text><polygon fill="#181818" points="98.55,1328.4158,89.55,1332.0158,98.55,1335.6158,94.95,1332.0158" style="stroke:#181818;stroke-width:0.9;"/><line style="stroke:#181818;stroke-width:0.9;" x1="93.15" x2="347.85" y1="1332.0158" y2="1332.0158"/><text fill="#000000" font-family="sans-serif" font-size="11.7" lengthAdjust="spacing" textLength="147.6" x="103.95" y="1327.2794">request to update string field</text><polygon fill="#181818" points="337.95,1356.5777,346.95,1360.1777,337.95,1363.7777,341.55,1360.1777" style="stroke:#181818;stroke-width:0.9;"/><line style="stroke:#181818;stroke-width:0.9;stroke-dasharray:2.0,2.0;" x1="88.65" x2="343.35" y1="1360.1777" y2="1360.1777"/><text fill="#000000" font-family="sans-serif" font-size="11.7" lengthAdjust="spacing" textLength="86.4" x="94.95" y="1355.4413">enters new value</text><polygon fill="#181818" points="559.35,1384.7396,568.35,1388.3396,559.35,1391.9396,562.95,1388.3396" style="stroke:#181818;stroke-width:0.9;"/><line style="stroke:#181818;stroke-width:0.9;stroke-dasharray:2.0,2.0;" x1="357.75" x2="564.75" y1="1388.3396" y2="1388.3396"/><text fill="#000000" font-family="sans-serif" font-size="11.7" lengthAdjust="spacing" textLength="90" x="364.05" y="1383.6032">returns new value</text><path d="M18,1408.1396 L72.9,1408.1396 L72.9,1416.5016 L63.9,1425.5016 L18,1425.5016 L18,1408.1396 " fill="#EEEEEE" style="stroke:#000000;stroke-width:1.35;"/><rect fill="none" height="130.0096" style="stroke:#000000;stroke-width:1.35;" width="646.65" x="18" y="1408.1396"/><text fill="#000000" font-family="sans-serif" font-size="11.7" font-weight="bold" lengthAdjust="spacing" textLength="14.4" x="31.5" y="1421.6651">alt</text><text fill="#000000" font-family="sans-serif" font-size="9.9" font-weight="bold" lengthAdjust="spacing" textLength="88.2" x="86.4" y="1420.6228">[edit is a number]</text><polygon fill="#181818" points="367.65,1442.8635,358.65,1446.4635,367.65,1450.0635,364.05,1446.4635" style="stroke:#181818;stroke-width:0.9;"/><line style="stroke:#181818;stroke-width:0.9;" x1="362.25" x2="569.25" y1="1446.4635" y2="1446.4635"/><text fill="#000000" font-family="sans-serif" font-size="11.7" lengthAdjust="spacing" textLength="172.8" x="373.05" y="1441.7271">updateNumber(Edit.NumberField)</text><polygon fill="#181818" points="98.55,1471.0254,89.55,1474.6254,98.55,1478.2254,94.95,1474.6254" style="stroke:#181818;stroke-width:0.9;"/><line style="stroke:#181818;stroke-width:0.9;" x1="93.15" x2="347.85" y1="1474.6254" y2="1474.6254"/><text fill="#000000" font-family="sans-serif" font-size="11.7" lengthAdjust="spacing" textLength="147.6" x="103.95" y="1469.889">request to update string field</text><polygon fill="#181818" points="337.95,1499.1873,346.95,1502.7873,337.95,1506.3873,341.55,1502.7873" style="stroke:#181818;stroke-width:0.9;"/><line style="stroke:#181818;stroke-width:0.9;stroke-dasharray:2.0,2.0;" x1="88.65" x2="343.35" y1="1502.7873" y2="1502.7873"/><text fill="#000000" font-family="sans-serif" font-size="11.7" lengthAdjust="spacing" textLength="86.4" x="94.95" y="1498.0509">enters new value</text><polygon fill="#181818" points="559.35,1527.3492,568.35,1530.9492,559.35,1534.5492,562.95,1530.9492" style="stroke:#181818;stroke-width:0.9;"/><line style="stroke:#181818;stroke-width:0.9;stroke-dasharray:2.0,2.0;" x1="357.75" x2="564.75" y1="1530.9492" y2="1530.9492"/><text fill="#000000" font-family="sans-serif" font-size="11.7" lengthAdjust="spacing" textLength="90" x="364.05" y="1526.2128">returns new value</text><path d="M18,1550.7492 L72.9,1550.7492 L72.9,1559.1111 L63.9,1568.1111 L18,1568.1111 L18,1550.7492 " fill="#EEEEEE" style="stroke:#000000;stroke-width:1.35;"/><rect fill="none" height="130.0096" style="stroke:#000000;stroke-width:1.35;" width="646.65" x="18" y="1550.7492"/><text fill="#000000" font-family="sans-serif" font-size="11.7" font-weight="bold" lengthAdjust="spacing" textLength="14.4" x="31.5" y="1564.2747">alt</text><text fill="#000000" font-family="sans-serif" font-size="9.9" font-weight="bold" lengthAdjust="spacing" textLength="76.5" x="86.4" y="1563.2323">[edit is a Enum]</text><polygon fill="#181818" points="367.65,1585.473,358.65,1589.073,367.65,1592.673,364.05,1589.073" style="stroke:#181818;stroke-width:0.9;"/><line style="stroke:#181818;stroke-width:0.9;" x1="362.25" x2="569.25" y1="1589.073" y2="1589.073"/><text fill="#000000" font-family="sans-serif" font-size="11.7" lengthAdjust="spacing" textLength="153" x="373.05" y="1584.3366">updateEnum(Edit.EnumField)</text><polygon fill="#181818" points="98.55,1613.635,89.55,1617.235,98.55,1620.835,94.95,1617.235" style="stroke:#181818;stroke-width:0.9;"/><line style="stroke:#181818;stroke-width:0.9;" x1="93.15" x2="347.85" y1="1617.235" y2="1617.235"/><text fill="#000000" font-family="sans-serif" font-size="11.7" lengthAdjust="spacing" textLength="147.6" x="103.95" y="1612.4985">request to update string field</text><polygon fill="#181818" points="337.95,1641.7969,346.95,1645.3969,337.95,1648.9969,341.55,1645.3969" style="stroke:#181818;stroke-width:0.9;"/><line style="stroke:#181818;stroke-width:0.9;stroke-dasharray:2.0,2.0;" x1="88.65" x2="343.35" y1="1645.3969" y2="1645.3969"/><text fill="#000000" font-family="sans-serif" font-size="11.7" lengthAdjust="spacing" textLength="86.4" x="94.95" y="1640.6604">enters new value</text><polygon fill="#181818" points="559.35,1669.9588,568.35,1673.5588,559.35,1677.1588,562.95,1673.5588" style="stroke:#181818;stroke-width:0.9;"/><line style="stroke:#181818;stroke-width:0.9;stroke-dasharray:2.0,2.0;" x1="357.75" x2="564.75" y1="1673.5588" y2="1673.5588"/><text fill="#000000" font-family="sans-serif" font-size="11.7" lengthAdjust="spacing" textLength="90" x="364.05" y="1668.8224">returns new value</text><polygon fill="#181818" points="824.85,1704.4207,833.85,1708.0207,824.85,1711.6207,828.45,1708.0207" style="stroke:#181818;stroke-width:0.9;"/><line style="stroke:#181818;stroke-width:0.9;" x1="579.15" x2="830.25" y1="1708.0207" y2="1708.0207"/><text fill="#000000" font-family="sans-serif" font-size="11.7" lengthAdjust="spacing" textLength="239.4" x="585.45" y="1703.2843">updateJobOpening(jobOpeningDto, edit, value)</text><polygon fill="#181818" points="589.05,1732.5826,580.05,1736.1826,589.05,1739.7826,585.45,1736.1826" style="stroke:#181818;stroke-width:0.9;"/><line style="stroke:#181818;stroke-width:0.9;stroke-dasharray:2.0,2.0;" x1="583.65" x2="839.25" y1="1736.1826" y2="1736.1826"/><text fill="#000000" font-family="sans-serif" font-size="11.7" lengthAdjust="spacing" textLength="116.1" x="594.45" y="1731.4462">returns jobOpeningDto</text><polygon fill="#181818" points="367.65,1767.0445,358.65,1770.6445,367.65,1774.2445,364.05,1770.6445" style="stroke:#181818;stroke-width:0.9;"/><line style="stroke:#181818;stroke-width:0.9;stroke-dasharray:2.0,2.0;" x1="362.25" x2="569.25" y1="1770.6445" y2="1770.6445"/><text fill="#000000" font-family="sans-serif" font-size="11.7" lengthAdjust="spacing" textLength="187.2" x="373.05" y="1765.9081">displayJobOpening(jobOpeningDTO)</text><polygon fill="#181818" points="98.55,1795.2064,89.55,1798.8064,98.55,1802.4064,94.95,1798.8064" style="stroke:#181818;stroke-width:0.9;"/><line style="stroke:#181818;stroke-width:0.9;" x1="93.15" x2="347.85" y1="1798.8064" y2="1798.8064"/><text fill="#000000" font-family="sans-serif" font-size="11.7" lengthAdjust="spacing" textLength="150.3" x="103.95" y="1794.07">displays updated jobOpening</text><polygon fill="#181818" points="824.85,1823.3684,833.85,1826.9684,824.85,1830.5684,828.45,1826.9684" style="stroke:#181818;stroke-width:0.9;"/><line style="stroke:#181818;stroke-width:0.9;" x1="579.15" x2="830.25" y1="1826.9684" y2="1826.9684"/><text fill="#000000" font-family="sans-serif" font-size="11.7" lengthAdjust="spacing" textLength="133.2" x="585.45" y="1822.2319">toDomain(jobOpeningDto)</text><polygon fill="#181818" points="1698.3,1851.5303,1707.3,1855.1303,1698.3,1858.7303,1701.9,1855.1303" style="stroke:#181818;stroke-width:0.9;"/><line style="stroke:#181818;stroke-width:0.9;" x1="844.65" x2="1703.7" y1="1855.1303" y2="1855.1303"/><text fill="#000000" font-family="sans-serif" font-size="11.7" lengthAdjust="spacing" textLength="133.2" x="850.95" y="1850.3938">toDomain(jobOpeningDto)</text><polygon fill="#181818" points="854.55,1879.6922,845.55,1883.2922,854.55,1886.8922,850.95,1883.2922" style="stroke:#181818;stroke-width:0.9;"/><line style="stroke:#181818;stroke-width:0.9;stroke-dasharray:2.0,2.0;" x1="849.15" x2="1712.7" y1="1883.2922" y2="1883.2922"/><text fill="#000000" font-family="sans-serif" font-size="11.7" lengthAdjust="spacing" textLength="58.5" x="859.95" y="1878.5558">jobOpening</text><polygon fill="#181818" points="1557.9,1907.8541,1566.9,1911.4541,1557.9,1915.0541,1561.5,1911.4541" style="stroke:#181818;stroke-width:0.9;"/><line style="stroke:#181818;stroke-width:0.9;" x1="844.65" x2="1563.3" y1="1911.4541" y2="1911.4541"/><text fill="#000000" font-family="sans-serif" font-size="11.7" lengthAdjust="spacing" textLength="89.1" x="850.95" y="1906.7177">save(jobOpening)</text><polygon fill="#181818" points="854.55,1936.016,845.55,1939.616,854.55,1943.216,850.95,1939.616" style="stroke:#181818;stroke-width:0.9;"/><line style="stroke:#181818;stroke-width:0.9;stroke-dasharray:2.0,2.0;" x1="849.15" x2="1572.3" y1="1939.616" y2="1939.616"/><text fill="#000000" font-family="sans-serif" font-size="11.7" lengthAdjust="spacing" textLength="91.8" x="859.95" y="1934.8796">saved jobOpening</text><polygon fill="#181818" points="589.05,1964.1779,580.05,1967.7779,589.05,1971.3779,585.45,1967.7779" style="stroke:#181818;stroke-width:0.9;"/><line style="stroke:#181818;stroke-width:0.9;stroke-dasharray:2.0,2.0;" x1="583.65" x2="839.25" y1="1967.7779" y2="1967.7779"/><text fill="#000000" font-family="sans-serif" font-size="11.7" lengthAdjust="spacing" textLength="59.4" x="594.45" y="1963.0415">returns true</text><polygon fill="#181818" points="367.65,1992.3398,358.65,1995.9398,367.65,1999.5398,364.05,1995.9398" style="stroke:#181818;stroke-width:0.9;"/><line style="stroke:#181818;stroke-width:0.9;stroke-dasharray:2.0,2.0;" x1="362.25" x2="573.75" y1="1995.9398" y2="1995.9398"/><text fill="#000000" font-family="sans-serif" font-size="11.7" lengthAdjust="spacing" textLength="59.4" x="373.05" y="1991.2034">returns true</text><polygon fill="#181818" points="98.55,2020.5018,89.55,2024.1018,98.55,2027.7018,94.95,2024.1018" style="stroke:#181818;stroke-width:0.9;"/><line style="stroke:#181818;stroke-width:0.9;stroke-dasharray:2.0,2.0;" x1="93.15" x2="352.35" y1="2024.1018" y2="2024.1018"/><text fill="#000000" font-family="sans-serif" font-size="11.7" lengthAdjust="spacing" textLength="142.2" x="103.95" y="2019.3653">displays success message</text><!--SRC=[pLVRRkCs47tNLmpyP079Ve2H3U0uRkkYZWjxZNqi66cSC9L9bQIoSB- -G-f2wcBPHX_QDukSEJmSdhbudXYfOB8ej957LB1cWhsXcW3JiDUeefmfmnEUCs5WCjldAJFugtpTv2YuUDklIiiLF3piLu-F7VDboeqtNaXXbCoo2jv_alCyppEUCCEbwA5uX1sgJvwWS- -jzb0wCFF2l4l5_tRR8PBTk431XcA7MjDU4vhg-uBdxgGD7gszS_IVvFSiZunR5megUsKQOU9ljSLSQawlStAE7_9LqGfv-OsHIArPdbT7TXV3WwE89OP_qfkMhnqvPlUFzA8pMBnBgL63aO3qaC0i2P0bLk2u8hULTGfUT0PR_Aj0RHhlGL_l4KM1Ds6vHva12bqej1yeZ8qnffRYBqpFnMbpc3vHrBOoG_rbiTzzswoNsp_MyvVvpylj7VYz-VDwzH8k_BxvJfRxtN8RUpBsb2Xo1zztR-FYmZMmIaIOHYbsFDiN22KoWpSqTc4QjmDU6KIXCVbwbSoWwBZvlIWGqttxn1aeD8KIshc7L0Ftrg6j2vzt3qa7oy4xPbBcyEETPmY950UkZYunuEjNEB1COosMydPC_wdXG2M8LBh50oeK2KR-IYih0ODAjms61FV9CbvLfyPm-X5yn8EwQxzQhweGBYf-E5s3sdEE-aMApgXIUGO7BjAdgv0hbwYk0lV3L3-QfV1nQkTnCbml5DhyUZej2aK4Ii5wo3idXW5IB3EDNemgy1BBqZOa6o49ey4ePN8TY2YoREYkA5B7onzYizTP3uIX8_u1f-28_Yk74gf4ctATP-oqL4ggQL3LGKX3UYz4EedF992LTfCV5Ou6j4XmfDIZ_bp6gqEJW1tL4Q93nzqIZl4mZCJ16mU2kYq00Glxk64HKLMh2UjDgsYjMdsDYxmmkcqTsdhuC0hrYr8l8mwRtBhfQNnDBoCmgkDkTFgDQpEr65-eN17fQHoFrT62cbxcyWuIturfLik3040G9Pe7s15TmMpQjaYfyReQtFZw-Wg-ppU-jMjzngf9jupe0qlJQGaODx7g5kCwb-rzuS5U-D51wclYrPVaZ2Wz6zaIpvWIOR3MTIUX8LGOW2sjMwZLA7Mn3XDy18DPCm1wEG4T78ndeHEERQbazLw-eok5JWnsX24DA9j6PqMwS_kbJClVFt7CqhYjEUK7lDAjmgMsHiOTZLLDNE0FSC8V5OstilBga1V5yRNNjWFoBsw_95_-_X-HNnBxyzJjRadS_lfFQLzEoABpLt3QKkcTk_HT2JcUgvVq7v1i9y9e6lHkKKTbh2CzVzl4qPdAMjutROqjLvKjzr-h7PsR0tAcTbqB_IyAM7HpyGfcIiq-yKnrhGSrk33dMOZqzi7spDyPDvxUDil1UU_XcIKKZIwIX4QsPcvh3IN_0000]--></g></svg>