<?xml version="1.0" encoding="us-ascii" standalone="no"?><svg xmlns="http://www.w3.org/2000/svg" xmlns:xlink="http://www.w3.org/1999/xlink" contentStyleType="text/css" height="749px" preserveAspectRatio="none" style="width:592px;height:749px;background:#FFFFFF;" version="1.1" viewBox="0 0 592 749" width="592px" zoomAndPan="magnify"><defs/><g><rect fill="#FFFFFF" height="564.2383" style="stroke:#181818;stroke-width:1.0;" width="10" x="63.5" y="93.6211"/><rect fill="#FFFFFF" height="540.9473" style="stroke:#181818;stroke-width:1.0;" width="10" x="551.5" y="116.9121"/><line style="stroke:#181818;stroke-width:0.5;stroke-dasharray:5.0,5.0;" x1="68" x2="68" y1="83.6211" y2="666.8594"/><line style="stroke:#181818;stroke-width:0.5;stroke-dasharray:5.0,5.0;" x1="556.5" x2="556.5" y1="83.6211" y2="666.8594"/><text fill="#000000" font-family="sans-serif" font-size="14" lengthAdjust="spacing" textLength="121" x="5" y="80.1074">Customer Manager</text><ellipse cx="68.5" cy="13.5" fill="#E2E2F0" rx="8" ry="8" style="stroke:#181818;stroke-width:0.5;"/><path d="M68.5,21.5 L68.5,48.5 M55.5,29.5 L81.5,29.5 M68.5,48.5 L55.5,63.5 M68.5,48.5 L81.5,63.5 " fill="none" style="stroke:#181818;stroke-width:0.5;"/><text fill="#000000" font-family="sans-serif" font-size="14" lengthAdjust="spacing" textLength="121" x="5" y="680.9668">Customer Manager</text><ellipse cx="68.5" cy="692.9805" fill="#E2E2F0" rx="8" ry="8" style="stroke:#181818;stroke-width:0.5;"/><path d="M68.5,700.9805 L68.5,727.9805 M55.5,708.9805 L81.5,708.9805 M68.5,727.9805 L55.5,742.9805 M68.5,727.9805 L81.5,742.9805 " fill="none" style="stroke:#181818;stroke-width:0.5;"/><rect fill="#E2E2F0" height="32.6211" rx="2.5" ry="2.5" style="stroke:#181818;stroke-width:0.5;" width="60" x="526.5" y="50"/><text fill="#000000" font-family="sans-serif" font-size="14" lengthAdjust="spacing" textLength="46" x="533.5" y="72.1074">System</text><rect fill="#E2E2F0" height="32.6211" rx="2.5" ry="2.5" style="stroke:#181818;stroke-width:0.5;" width="60" x="526.5" y="665.8594"/><text fill="#000000" font-family="sans-serif" font-size="14" lengthAdjust="spacing" textLength="46" x="533.5" y="687.9668">System</text><rect fill="#FFFFFF" height="564.2383" style="stroke:#181818;stroke-width:1.0;" width="10" x="63.5" y="93.6211"/><rect fill="#FFFFFF" height="540.9473" style="stroke:#181818;stroke-width:1.0;" width="10" x="551.5" y="116.9121"/><polygon fill="#181818" points="539.5,112.9121,549.5,116.9121,539.5,120.9121,543.5,116.9121" style="stroke:#181818;stroke-width:1.0;"/><line style="stroke:#181818;stroke-width:1.0;" x1="73.5" x2="545.5" y1="116.9121" y2="116.9121"/><text fill="#000000" font-family="sans-serif" font-size="13" lengthAdjust="spacing" textLength="202" x="80.5" y="111.6494">selects option to edit a job opening</text><polygon fill="#181818" points="84.5,144.2031,74.5,148.2031,84.5,152.2031,80.5,148.2031" style="stroke:#181818;stroke-width:1.0;"/><line style="stroke:#181818;stroke-width:1.0;stroke-dasharray:2.0,2.0;" x1="78.5" x2="550.5" y1="148.2031" y2="148.2031"/><text fill="#000000" font-family="sans-serif" font-size="13" lengthAdjust="spacing" textLength="191" x="90.5" y="142.9404">Requests to input a job reference</text><polygon fill="#181818" points="539.5,175.4941,549.5,179.4941,539.5,183.4941,543.5,179.4941" style="stroke:#181818;stroke-width:1.0;"/><line style="stroke:#181818;stroke-width:1.0;" x1="73.5" x2="545.5" y1="179.4941" y2="179.4941"/><text fill="#000000" font-family="sans-serif" font-size="13" lengthAdjust="spacing" textLength="121" x="80.5" y="174.2314">Inputs Job Reference</text><polygon fill="#181818" points="84.5,206.7852,74.5,210.7852,84.5,214.7852,80.5,210.7852" style="stroke:#181818;stroke-width:1.0;"/><line style="stroke:#181818;stroke-width:1.0;" x1="78.5" x2="550.5" y1="210.7852" y2="210.7852"/><text fill="#000000" font-family="sans-serif" font-size="13" lengthAdjust="spacing" textLength="454" x="90.5" y="205.5225">shows Job Opening details and asks user if he wants to update the description</text><polygon fill="#181818" points="539.5,238.0762,549.5,242.0762,539.5,246.0762,543.5,242.0762" style="stroke:#181818;stroke-width:1.0;"/><line style="stroke:#181818;stroke-width:1.0;stroke-dasharray:2.0,2.0;" x1="73.5" x2="545.5" y1="242.0762" y2="242.0762"/><text fill="#000000" font-family="sans-serif" font-size="13" lengthAdjust="spacing" textLength="125" x="80.5" y="236.8135">Inputs option (yes/no)</text><polygon fill="#181818" points="84.5,269.3672,74.5,273.3672,84.5,277.3672,80.5,273.3672" style="stroke:#181818;stroke-width:1.0;"/><line style="stroke:#181818;stroke-width:1.0;" x1="78.5" x2="550.5" y1="273.3672" y2="273.3672"/><text fill="#000000" font-family="sans-serif" font-size="13" lengthAdjust="spacing" textLength="215" x="90.5" y="268.1045">Asks if user wants to update address</text><polygon fill="#181818" points="539.5,300.6582,549.5,304.6582,539.5,308.6582,543.5,304.6582" style="stroke:#181818;stroke-width:1.0;"/><line style="stroke:#181818;stroke-width:1.0;stroke-dasharray:2.0,2.0;" x1="73.5" x2="545.5" y1="304.6582" y2="304.6582"/><text fill="#000000" font-family="sans-serif" font-size="13" lengthAdjust="spacing" textLength="125" x="80.5" y="299.3955">Inputs option (yes/no)</text><polygon fill="#181818" points="84.5,331.9492,74.5,335.9492,84.5,339.9492,80.5,335.9492" style="stroke:#181818;stroke-width:1.0;"/><line style="stroke:#181818;stroke-width:1.0;" x1="78.5" x2="550.5" y1="335.9492" y2="335.9492"/><text fill="#000000" font-family="sans-serif" font-size="13" lengthAdjust="spacing" textLength="223" x="90.5" y="330.6865">Asks if user wants to update the Mode</text><polygon fill="#181818" points="539.5,363.2402,549.5,367.2402,539.5,371.2402,543.5,367.2402" style="stroke:#181818;stroke-width:1.0;"/><line style="stroke:#181818;stroke-width:1.0;stroke-dasharray:2.0,2.0;" x1="73.5" x2="545.5" y1="367.2402" y2="367.2402"/><text fill="#000000" font-family="sans-serif" font-size="13" lengthAdjust="spacing" textLength="125" x="80.5" y="361.9775">Inputs option (yes/no)</text><polygon fill="#181818" points="84.5,394.5313,74.5,398.5313,84.5,402.5313,80.5,398.5313" style="stroke:#181818;stroke-width:1.0;"/><line style="stroke:#181818;stroke-width:1.0;" x1="78.5" x2="550.5" y1="398.5313" y2="398.5313"/><text fill="#000000" font-family="sans-serif" font-size="13" lengthAdjust="spacing" textLength="272" x="90.5" y="393.2686">Asks if user wants to update the Contract Type</text><polygon fill="#181818" points="539.5,425.8223,549.5,429.8223,539.5,433.8223,543.5,429.8223" style="stroke:#181818;stroke-width:1.0;"/><line style="stroke:#181818;stroke-width:1.0;stroke-dasharray:2.0,2.0;" x1="73.5" x2="545.5" y1="429.8223" y2="429.8223"/><text fill="#000000" font-family="sans-serif" font-size="13" lengthAdjust="spacing" textLength="125" x="80.5" y="424.5596">Inputs option (yes/no)</text><polygon fill="#181818" points="84.5,457.1133,74.5,461.1133,84.5,465.1133,80.5,461.1133" style="stroke:#181818;stroke-width:1.0;"/><line style="stroke:#181818;stroke-width:1.0;" x1="78.5" x2="550.5" y1="461.1133" y2="461.1133"/><text fill="#000000" font-family="sans-serif" font-size="13" lengthAdjust="spacing" textLength="233" x="90.5" y="455.8506">Asks if user wants to update the job title</text><polygon fill="#181818" points="539.5,488.4043,549.5,492.4043,539.5,496.4043,543.5,492.4043" style="stroke:#181818;stroke-width:1.0;"/><line style="stroke:#181818;stroke-width:1.0;stroke-dasharray:2.0,2.0;" x1="73.5" x2="545.5" y1="492.4043" y2="492.4043"/><text fill="#000000" font-family="sans-serif" font-size="13" lengthAdjust="spacing" textLength="125" x="80.5" y="487.1416">Inputs option (yes/no)</text><polygon fill="#181818" points="84.5,519.6953,74.5,523.6953,84.5,527.6953,80.5,523.6953" style="stroke:#181818;stroke-width:1.0;"/><line style="stroke:#181818;stroke-width:1.0;" x1="78.5" x2="550.5" y1="523.6953" y2="523.6953"/><text fill="#000000" font-family="sans-serif" font-size="13" lengthAdjust="spacing" textLength="309" x="90.5" y="518.4326">Asks if user wants to update the number of vacancies</text><polygon fill="#181818" points="539.5,550.9863,549.5,554.9863,539.5,558.9863,543.5,554.9863" style="stroke:#181818;stroke-width:1.0;"/><line style="stroke:#181818;stroke-width:1.0;stroke-dasharray:2.0,2.0;" x1="73.5" x2="545.5" y1="554.9863" y2="554.9863"/><text fill="#000000" font-family="sans-serif" font-size="13" lengthAdjust="spacing" textLength="125" x="80.5" y="549.7236">Inputs option (yes/no)</text><polygon fill="#181818" points="84.5,582.2773,74.5,586.2773,84.5,590.2773,80.5,586.2773" style="stroke:#181818;stroke-width:1.0;"/><line style="stroke:#181818;stroke-width:1.0;" x1="78.5" x2="550.5" y1="586.2773" y2="586.2773"/><text fill="#000000" font-family="sans-serif" font-size="13" lengthAdjust="spacing" textLength="227" x="90.5" y="581.0146">Requests user for new values to update</text><polygon fill="#181818" points="539.5,613.5684,549.5,617.5684,539.5,621.5684,543.5,617.5684" style="stroke:#181818;stroke-width:1.0;"/><line style="stroke:#181818;stroke-width:1.0;stroke-dasharray:2.0,2.0;" x1="73.5" x2="545.5" y1="617.5684" y2="617.5684"/><text fill="#000000" font-family="sans-serif" font-size="13" lengthAdjust="spacing" textLength="75" x="80.5" y="612.3057">Inputs values</text><polygon fill="#181818" points="84.5,644.8594,74.5,648.8594,84.5,652.8594,80.5,648.8594" style="stroke:#181818;stroke-width:1.0;"/><line style="stroke:#181818;stroke-width:1.0;" x1="78.5" x2="550.5" y1="648.8594" y2="648.8594"/><text fill="#000000" font-family="sans-serif" font-size="13" lengthAdjust="spacing" textLength="352" x="90.5" y="643.5967">Displays updated Job Opening and shows operation success</text><!--SRC=[hPB1JiCm38RlVGfh9pXCt7T0ciO5f0cqiWVm4dSBj4c9dKrzUvosh1eSnc5N__Rtsyc_D18Yp5Q99JGKOOqUznHdW0pRuWsZEEDQz0ApicEXfbVAea0ZxeX2sbLiOVu8vGAOQZB245fnmOC48Ei443x2JeladTzFWmefOQwJMrZ0XhuIiSxgaFDj-fcAL54aRsWqqTRdB3EygBevgoMC83w4qo2-3ePWIT3L3EYjxlx9a5WFTHKS24vwMU-PMfjt4grPOXDTVq8slNGTJxlhY1zyk9zybvciq1x-6ulMHcB-B-uABI-v3fPkjLtchOANg5y3xrrBDzmp_w4ugM_9zAdPgHGgEA91RnoTN_Og_9opdbvfzZsTb5DhTRBvWniQflTySjpMsF7ORoy2buCsn50p7x5VX9CnEG7V]--></g></svg>