<?xml version="1.0" encoding="us-ascii" standalone="no"?><svg xmlns="http://www.w3.org/2000/svg" xmlns:xlink="http://www.w3.org/1999/xlink" contentStyleType="text/css" height="1076px" preserveAspectRatio="none" style="width:577px;height:1076px;background:#FFFFFF;" version="1.1" viewBox="0 0 577 1076" width="577px" zoomAndPan="magnify"><defs/><g><rect fill="#FFFFFF" height="891.1484" style="stroke:#181818;stroke-width:1.0;" width="10" x="78.5" y="93.6211"/><rect fill="#FFFFFF" height="867.8574" style="stroke:#181818;stroke-width:1.0;" width="10" x="526.5" y="116.9121"/><rect fill="none" height="81.873" style="stroke:#000000;stroke-width:1.5;" width="561.5" x="10" y="257.0762"/><rect fill="none" height="50.582" style="stroke:#000000;stroke-width:1.5;" width="561.5" x="10" y="384.2402"/><rect fill="none" height="50.582" style="stroke:#000000;stroke-width:1.5;" width="561.5" x="10" y="480.1133"/><rect fill="none" height="50.582" style="stroke:#000000;stroke-width:1.5;" width="561.5" x="10" y="575.9863"/><rect fill="none" height="50.582" style="stroke:#000000;stroke-width:1.5;" width="561.5" x="10" y="671.8594"/><rect fill="none" height="50.582" style="stroke:#000000;stroke-width:1.5;" width="561.5" x="10" y="767.7324"/><rect fill="none" height="81.873" style="stroke:#000000;stroke-width:1.5;" width="561.5" x="10" y="863.6055"/><line style="stroke:#181818;stroke-width:0.5;stroke-dasharray:5.0,5.0;" x1="83" x2="83" y1="83.6211" y2="993.7695"/><line style="stroke:#181818;stroke-width:0.5;stroke-dasharray:5.0,5.0;" x1="531.5" x2="531.5" y1="83.6211" y2="993.7695"/><text fill="#000000" font-family="sans-serif" font-size="14" lengthAdjust="spacing" textLength="121" x="20" y="80.1074">Customer Manager</text><ellipse cx="83.5" cy="13.5" fill="#E2E2F0" rx="8" ry="8" style="stroke:#181818;stroke-width:0.5;"/><path d="M83.5,21.5 L83.5,48.5 M70.5,29.5 L96.5,29.5 M83.5,48.5 L70.5,63.5 M83.5,48.5 L96.5,63.5 " fill="none" style="stroke:#181818;stroke-width:0.5;"/><text fill="#000000" font-family="sans-serif" font-size="14" lengthAdjust="spacing" textLength="121" x="20" y="1007.877">Customer Manager</text><ellipse cx="83.5" cy="1019.8906" fill="#E2E2F0" rx="8" ry="8" style="stroke:#181818;stroke-width:0.5;"/><path d="M83.5,1027.8906 L83.5,1054.8906 M70.5,1035.8906 L96.5,1035.8906 M83.5,1054.8906 L70.5,1069.8906 M83.5,1054.8906 L96.5,1069.8906 " fill="none" style="stroke:#181818;stroke-width:0.5;"/><rect fill="#E2E2F0" height="32.6211" rx="2.5" ry="2.5" style="stroke:#181818;stroke-width:0.5;" width="60" x="501.5" y="50"/><text fill="#000000" font-family="sans-serif" font-size="14" lengthAdjust="spacing" textLength="46" x="508.5" y="72.1074">System</text><rect fill="#E2E2F0" height="32.6211" rx="2.5" ry="2.5" style="stroke:#181818;stroke-width:0.5;" width="60" x="501.5" y="992.7695"/><text fill="#000000" font-family="sans-serif" font-size="14" lengthAdjust="spacing" textLength="46" x="508.5" y="1014.877">System</text><rect fill="#FFFFFF" height="891.1484" style="stroke:#181818;stroke-width:1.0;" width="10" x="78.5" y="93.6211"/><rect fill="#FFFFFF" height="867.8574" style="stroke:#181818;stroke-width:1.0;" width="10" x="526.5" y="116.9121"/><polygon fill="#181818" points="514.5,112.9121,524.5,116.9121,514.5,120.9121,518.5,116.9121" style="stroke:#181818;stroke-width:1.0;"/><line style="stroke:#181818;stroke-width:1.0;" x1="88.5" x2="520.5" y1="116.9121" y2="116.9121"/><text fill="#000000" font-family="sans-serif" font-size="13" lengthAdjust="spacing" textLength="170" x="95.5" y="111.6494">chooses to edit a job opening</text><polygon fill="#181818" points="99.5,144.2031,89.5,148.2031,99.5,152.2031,95.5,148.2031" style="stroke:#181818;stroke-width:1.0;"/><line style="stroke:#181818;stroke-width:1.0;" x1="93.5" x2="525.5" y1="148.2031" y2="148.2031"/><text fill="#000000" font-family="sans-serif" font-size="13" lengthAdjust="spacing" textLength="355" x="105.5" y="142.9404">list all Job References and asks user to choose a job opening</text><polygon fill="#181818" points="514.5,175.4941,524.5,179.4941,514.5,183.4941,518.5,179.4941" style="stroke:#181818;stroke-width:1.0;"/><line style="stroke:#181818;stroke-width:1.0;" x1="88.5" x2="520.5" y1="179.4941" y2="179.4941"/><text fill="#000000" font-family="sans-serif" font-size="13" lengthAdjust="spacing" textLength="130" x="95.5" y="174.2314">chooses a job opening</text><polygon fill="#181818" points="99.5,206.7852,89.5,210.7852,99.5,214.7852,95.5,210.7852" style="stroke:#181818;stroke-width:1.0;"/><line style="stroke:#181818;stroke-width:1.0;" x1="93.5" x2="525.5" y1="210.7852" y2="210.7852"/><text fill="#000000" font-family="sans-serif" font-size="13" lengthAdjust="spacing" textLength="155" x="105.5" y="205.5225">shows Job Opening details</text><polygon fill="#181818" points="99.5,238.0762,89.5,242.0762,99.5,246.0762,95.5,242.0762" style="stroke:#181818;stroke-width:1.0;"/><line style="stroke:#181818;stroke-width:1.0;" x1="93.5" x2="525.5" y1="242.0762" y2="242.0762"/><text fill="#000000" font-family="sans-serif" font-size="13" lengthAdjust="spacing" textLength="254" x="105.5" y="236.8135">Asks if user wants to update the description</text><path d="M10,257.0762 L71,257.0762 L71,266.3672 L61,276.3672 L10,276.3672 L10,257.0762 " fill="#EEEEEE" style="stroke:#000000;stroke-width:1.5;"/><rect fill="none" height="81.873" style="stroke:#000000;stroke-width:1.5;" width="561.5" x="10" y="257.0762"/><text fill="#000000" font-family="sans-serif" font-size="13" font-weight="bold" lengthAdjust="spacing" textLength="16" x="25" y="272.1045">alt</text><text fill="#000000" font-family="sans-serif" font-size="11" font-weight="bold" lengthAdjust="spacing" textLength="213" x="86" y="270.9463">[User wants to update the description]</text><polygon fill="#181818" points="514.5,295.6582,524.5,299.6582,514.5,303.6582,518.5,299.6582" style="stroke:#181818;stroke-width:1.0;"/><line style="stroke:#181818;stroke-width:1.0;" x1="88.5" x2="520.5" y1="299.6582" y2="299.6582"/><text fill="#000000" font-family="sans-serif" font-size="13" lengthAdjust="spacing" textLength="130" x="95.5" y="294.3955">enters new description</text><polygon fill="#181818" points="99.5,326.9492,89.5,330.9492,99.5,334.9492,95.5,330.9492" style="stroke:#181818;stroke-width:1.0;"/><line style="stroke:#181818;stroke-width:1.0;" x1="93.5" x2="525.5" y1="330.9492" y2="330.9492"/><text fill="#000000" font-family="sans-serif" font-size="13" lengthAdjust="spacing" textLength="205" x="105.5" y="325.6865">shows updated Job Opening details</text><polygon fill="#181818" points="99.5,365.2402,89.5,369.2402,99.5,373.2402,95.5,369.2402" style="stroke:#181818;stroke-width:1.0;"/><line style="stroke:#181818;stroke-width:1.0;" x1="93.5" x2="525.5" y1="369.2402" y2="369.2402"/><text fill="#000000" font-family="sans-serif" font-size="13" lengthAdjust="spacing" textLength="237" x="105.5" y="363.9775">Asks if user wants to update the address</text><path d="M10,384.2402 L71,384.2402 L71,393.5313 L61,403.5313 L10,403.5313 L10,384.2402 " fill="#EEEEEE" style="stroke:#000000;stroke-width:1.5;"/><rect fill="none" height="50.582" style="stroke:#000000;stroke-width:1.5;" width="561.5" x="10" y="384.2402"/><text fill="#000000" font-family="sans-serif" font-size="13" font-weight="bold" lengthAdjust="spacing" textLength="16" x="25" y="399.2686">alt</text><text fill="#000000" font-family="sans-serif" font-size="11" font-weight="bold" lengthAdjust="spacing" textLength="196" x="86" y="398.1104">[User wants to update the address]</text><polygon fill="#181818" points="514.5,422.8223,524.5,426.8223,514.5,430.8223,518.5,426.8223" style="stroke:#181818;stroke-width:1.0;"/><line style="stroke:#181818;stroke-width:1.0;" x1="88.5" x2="520.5" y1="426.8223" y2="426.8223"/><text fill="#000000" font-family="sans-serif" font-size="13" lengthAdjust="spacing" textLength="113" x="95.5" y="421.5596">enters new address</text><polygon fill="#181818" points="99.5,461.1133,89.5,465.1133,99.5,469.1133,95.5,465.1133" style="stroke:#181818;stroke-width:1.0;"/><line style="stroke:#181818;stroke-width:1.0;" x1="93.5" x2="525.5" y1="465.1133" y2="465.1133"/><text fill="#000000" font-family="sans-serif" font-size="13" lengthAdjust="spacing" textLength="393" x="105.5" y="459.8506">Asks if user wants to update the Mode (e.g Remote, Onsite, Hybrid)</text><path d="M10,480.1133 L71,480.1133 L71,489.4043 L61,499.4043 L10,499.4043 L10,480.1133 " fill="#EEEEEE" style="stroke:#000000;stroke-width:1.5;"/><rect fill="none" height="50.582" style="stroke:#000000;stroke-width:1.5;" width="561.5" x="10" y="480.1133"/><text fill="#000000" font-family="sans-serif" font-size="13" font-weight="bold" lengthAdjust="spacing" textLength="16" x="25" y="495.1416">alt</text><text fill="#000000" font-family="sans-serif" font-size="11" font-weight="bold" lengthAdjust="spacing" textLength="181" x="86" y="493.9834">[User wants to update the Mode]</text><polygon fill="#181818" points="514.5,518.6953,524.5,522.6953,514.5,526.6953,518.5,522.6953" style="stroke:#181818;stroke-width:1.0;"/><line style="stroke:#181818;stroke-width:1.0;" x1="88.5" x2="520.5" y1="522.6953" y2="522.6953"/><text fill="#000000" font-family="sans-serif" font-size="13" lengthAdjust="spacing" textLength="99" x="95.5" y="517.4326">enters new Mode</text><polygon fill="#181818" points="99.5,556.9863,89.5,560.9863,99.5,564.9863,95.5,560.9863" style="stroke:#181818;stroke-width:1.0;"/><line style="stroke:#181818;stroke-width:1.0;" x1="93.5" x2="525.5" y1="560.9863" y2="560.9863"/><text fill="#000000" font-family="sans-serif" font-size="13" lengthAdjust="spacing" textLength="414" x="105.5" y="555.7236">Asks if user wants to update the contract type(e.g Full Time, Part Time)</text><path d="M10,575.9863 L71,575.9863 L71,585.2773 L61,595.2773 L10,595.2773 L10,575.9863 " fill="#EEEEEE" style="stroke:#000000;stroke-width:1.5;"/><rect fill="none" height="50.582" style="stroke:#000000;stroke-width:1.5;" width="561.5" x="10" y="575.9863"/><text fill="#000000" font-family="sans-serif" font-size="13" font-weight="bold" lengthAdjust="spacing" textLength="16" x="25" y="591.0146">alt</text><text fill="#000000" font-family="sans-serif" font-size="11" font-weight="bold" lengthAdjust="spacing" textLength="222" x="86" y="589.8564">[User wants to update the contract type]</text><polygon fill="#181818" points="514.5,614.5684,524.5,618.5684,514.5,622.5684,518.5,618.5684" style="stroke:#181818;stroke-width:1.0;"/><line style="stroke:#181818;stroke-width:1.0;" x1="88.5" x2="520.5" y1="618.5684" y2="618.5684"/><text fill="#000000" font-family="sans-serif" font-size="13" lengthAdjust="spacing" textLength="143" x="95.5" y="613.3057">enters new contract type</text><polygon fill="#181818" points="99.5,652.8594,89.5,656.8594,99.5,660.8594,95.5,656.8594" style="stroke:#181818;stroke-width:1.0;"/><line style="stroke:#181818;stroke-width:1.0;" x1="93.5" x2="525.5" y1="656.8594" y2="656.8594"/><text fill="#000000" font-family="sans-serif" font-size="13" lengthAdjust="spacing" textLength="212" x="105.5" y="651.5967">Asks if user wants to update the title</text><path d="M10,671.8594 L71,671.8594 L71,681.1504 L61,691.1504 L10,691.1504 L10,671.8594 " fill="#EEEEEE" style="stroke:#000000;stroke-width:1.5;"/><rect fill="none" height="50.582" style="stroke:#000000;stroke-width:1.5;" width="561.5" x="10" y="671.8594"/><text fill="#000000" font-family="sans-serif" font-size="13" font-weight="bold" lengthAdjust="spacing" textLength="16" x="25" y="686.8877">alt</text><text fill="#000000" font-family="sans-serif" font-size="11" font-weight="bold" lengthAdjust="spacing" textLength="171" x="86" y="685.7295">[User wants to update the title]</text><polygon fill="#181818" points="514.5,710.4414,524.5,714.4414,514.5,718.4414,518.5,714.4414" style="stroke:#181818;stroke-width:1.0;"/><line style="stroke:#181818;stroke-width:1.0;" x1="88.5" x2="520.5" y1="714.4414" y2="714.4414"/><text fill="#000000" font-family="sans-serif" font-size="13" lengthAdjust="spacing" textLength="88" x="95.5" y="709.1787">enters new title</text><polygon fill="#181818" points="99.5,748.7324,89.5,752.7324,99.5,756.7324,95.5,752.7324" style="stroke:#181818;stroke-width:1.0;"/><line style="stroke:#181818;stroke-width:1.0;" x1="93.5" x2="525.5" y1="752.7324" y2="752.7324"/><text fill="#000000" font-family="sans-serif" font-size="13" lengthAdjust="spacing" textLength="309" x="105.5" y="747.4697">Asks if user wants to update the number of vacancies</text><path d="M10,767.7324 L71,767.7324 L71,777.0234 L61,787.0234 L10,787.0234 L10,767.7324 " fill="#EEEEEE" style="stroke:#000000;stroke-width:1.5;"/><rect fill="none" height="50.582" style="stroke:#000000;stroke-width:1.5;" width="561.5" x="10" y="767.7324"/><text fill="#000000" font-family="sans-serif" font-size="13" font-weight="bold" lengthAdjust="spacing" textLength="16" x="25" y="782.7607">alt</text><text fill="#000000" font-family="sans-serif" font-size="11" font-weight="bold" lengthAdjust="spacing" textLength="265" x="86" y="781.6025">[User wants to update the number of vacancies]</text><polygon fill="#181818" points="514.5,806.3145,524.5,810.3145,514.5,814.3145,518.5,810.3145" style="stroke:#181818;stroke-width:1.0;"/><line style="stroke:#181818;stroke-width:1.0;" x1="88.5" x2="520.5" y1="810.3145" y2="810.3145"/><text fill="#000000" font-family="sans-serif" font-size="13" lengthAdjust="spacing" textLength="185" x="95.5" y="805.0518">enters new number of vacancies</text><polygon fill="#181818" points="99.5,844.6055,89.5,848.6055,99.5,852.6055,95.5,848.6055" style="stroke:#181818;stroke-width:1.0;"/><line style="stroke:#181818;stroke-width:1.0;" x1="93.5" x2="525.5" y1="848.6055" y2="848.6055"/><text fill="#000000" font-family="sans-serif" font-size="13" lengthAdjust="spacing" textLength="244" x="105.5" y="843.3428">Asks if user wants to update the company</text><path d="M10,863.6055 L71,863.6055 L71,872.8965 L61,882.8965 L10,882.8965 L10,863.6055 " fill="#EEEEEE" style="stroke:#000000;stroke-width:1.5;"/><rect fill="none" height="81.873" style="stroke:#000000;stroke-width:1.5;" width="561.5" x="10" y="863.6055"/><text fill="#000000" font-family="sans-serif" font-size="13" font-weight="bold" lengthAdjust="spacing" textLength="16" x="25" y="878.6338">alt</text><text fill="#000000" font-family="sans-serif" font-size="11" font-weight="bold" lengthAdjust="spacing" textLength="200" x="86" y="877.4756">[User wants to update the company]</text><polygon fill="#181818" points="99.5,902.1875,89.5,906.1875,99.5,910.1875,95.5,906.1875" style="stroke:#181818;stroke-width:1.0;"/><line style="stroke:#181818;stroke-width:1.0;" x1="93.5" x2="525.5" y1="906.1875" y2="906.1875"/><text fill="#000000" font-family="sans-serif" font-size="13" lengthAdjust="spacing" textLength="354" x="105.5" y="900.9248">shows list of companies and asks user to choose a company</text><polygon fill="#181818" points="514.5,933.4785,524.5,937.4785,514.5,941.4785,518.5,937.4785" style="stroke:#181818;stroke-width:1.0;"/><line style="stroke:#181818;stroke-width:1.0;" x1="88.5" x2="520.5" y1="937.4785" y2="937.4785"/><text fill="#000000" font-family="sans-serif" font-size="13" lengthAdjust="spacing" textLength="156" x="95.5" y="932.2158">chooses updated company</text><polygon fill="#181818" points="99.5,971.7695,89.5,975.7695,99.5,979.7695,95.5,975.7695" style="stroke:#181818;stroke-width:1.0;"/><line style="stroke:#181818;stroke-width:1.0;" x1="93.5" x2="525.5" y1="975.7695" y2="975.7695"/><text fill="#000000" font-family="sans-serif" font-size="13" lengthAdjust="spacing" textLength="413" x="105.5" y="970.5068">Shows job opening with updated details and sends a success message</text><!--SRC=[bPJTJiCm38Nl-nJMha027e0B98I44D8qHDa3P8ct6TgaYbsclJrkmdvPDzgBjfAFVRueoNcq4YACdbgMK6E4iV5cWN44Xc5Ql9aePAanNc1KhbcmJfMoA8mL-ZQ2gYgcSFi0vJtOPGYC31807GaO-0mp20rwyejTHrcKNSCKxg4YLbbLmQiAtt6E4RtL2SOxzVbYQ5cXT5uUVJGn-yBE-B2yTU5bM76ocEGIE1H35UyaZvqPpRFVIjURLj4shWEM9Me7sqYDKF25gGIc_n62Fbj8z8AHmUFgZ-Q8D4zp9udHkm7Knhc8pEU9Dw8-saszinxWFGuEuGhl5hgnTH2yWObdwhulwraaTtsUgcllHKh5WJmsU8bw247M3IQkvrPFtWVLYjITzFHxNPp7EfZIotUe6WWg91LUmCYQFljS7MZhstgcfJ27RsEDjuHy0U9KHn_IAUtW3QmrYTONDoYhJjohb3PAa2LqDcVsn_p9cSq5tOWE5r8cixqaWXN9SjlqUvEJDsjd5rlSMeqzXbfVch_53m00]--></g></svg>