<?xml version="1.0" encoding="us-ascii" standalone="no"?><svg xmlns="http://www.w3.org/2000/svg" xmlns:xlink="http://www.w3.org/1999/xlink" contentStyleType="text/css" height="547px" preserveAspectRatio="none" style="width:651px;height:547px;background:#FFFFFF;" version="1.1" viewBox="0 0 651 547" width="651px" zoomAndPan="magnify"><defs/><g><rect fill="#FFFFFF" height="362.2012" style="stroke:#181818;stroke-width:1.0;" width="10" x="78.5" y="93.6211"/><rect fill="#FFFFFF" height="338.9102" style="stroke:#181818;stroke-width:1.0;" width="10" x="477.5" y="116.9121"/><rect fill="none" height="94.873" style="stroke:#000000;stroke-width:1.5;" width="635.5" x="10" y="225.7852"/><rect fill="none" height="81.873" style="stroke:#000000;stroke-width:1.5;" width="512.5" x="10" y="334.6582"/><line style="stroke:#181818;stroke-width:0.5;stroke-dasharray:5.0,5.0;" x1="83" x2="83" y1="83.6211" y2="464.8223"/><line style="stroke:#181818;stroke-width:0.5;stroke-dasharray:5.0,5.0;" x1="482.5" x2="482.5" y1="83.6211" y2="464.8223"/><text fill="#000000" font-family="sans-serif" font-size="14" lengthAdjust="spacing" textLength="121" x="20" y="80.1074">Customer Manager</text><ellipse cx="83.5" cy="13.5" fill="#E2E2F0" rx="8" ry="8" style="stroke:#181818;stroke-width:0.5;"/><path d="M83.5,21.5 L83.5,48.5 M70.5,29.5 L96.5,29.5 M83.5,48.5 L70.5,63.5 M83.5,48.5 L96.5,63.5 " fill="none" style="stroke:#181818;stroke-width:0.5;"/><text fill="#000000" font-family="sans-serif" font-size="14" lengthAdjust="spacing" textLength="121" x="20" y="478.9297">Customer Manager</text><ellipse cx="83.5" cy="490.9434" fill="#E2E2F0" rx="8" ry="8" style="stroke:#181818;stroke-width:0.5;"/><path d="M83.5,498.9434 L83.5,525.9434 M70.5,506.9434 L96.5,506.9434 M83.5,525.9434 L70.5,540.9434 M83.5,525.9434 L96.5,540.9434 " fill="none" style="stroke:#181818;stroke-width:0.5;"/><rect fill="#E2E2F0" height="32.6211" rx="2.5" ry="2.5" style="stroke:#181818;stroke-width:0.5;" width="60" x="452.5" y="50"/><text fill="#000000" font-family="sans-serif" font-size="14" lengthAdjust="spacing" textLength="46" x="459.5" y="72.1074">System</text><rect fill="#E2E2F0" height="32.6211" rx="2.5" ry="2.5" style="stroke:#181818;stroke-width:0.5;" width="60" x="452.5" y="463.8223"/><text fill="#000000" font-family="sans-serif" font-size="14" lengthAdjust="spacing" textLength="46" x="459.5" y="485.9297">System</text><rect fill="#FFFFFF" height="362.2012" style="stroke:#181818;stroke-width:1.0;" width="10" x="78.5" y="93.6211"/><rect fill="#FFFFFF" height="338.9102" style="stroke:#181818;stroke-width:1.0;" width="10" x="477.5" y="116.9121"/><polygon fill="#181818" points="465.5,112.9121,475.5,116.9121,465.5,120.9121,469.5,116.9121" style="stroke:#181818;stroke-width:1.0;"/><line style="stroke:#181818;stroke-width:1.0;" x1="88.5" x2="471.5" y1="116.9121" y2="116.9121"/><text fill="#000000" font-family="sans-serif" font-size="13" lengthAdjust="spacing" textLength="202" x="95.5" y="111.6494">selects option to edit a job opening</text><polygon fill="#181818" points="99.5,144.2031,89.5,148.2031,99.5,152.2031,95.5,148.2031" style="stroke:#181818;stroke-width:1.0;"/><line style="stroke:#181818;stroke-width:1.0;" x1="93.5" x2="476.5" y1="148.2031" y2="148.2031"/><text fill="#000000" font-family="sans-serif" font-size="13" lengthAdjust="spacing" textLength="355" x="105.5" y="142.9404">list all Job References and asks user to choose a job opening</text><polygon fill="#181818" points="465.5,175.4941,475.5,179.4941,465.5,183.4941,469.5,179.4941" style="stroke:#181818;stroke-width:1.0;"/><line style="stroke:#181818;stroke-width:1.0;" x1="88.5" x2="471.5" y1="179.4941" y2="179.4941"/><text fill="#000000" font-family="sans-serif" font-size="13" lengthAdjust="spacing" textLength="130" x="95.5" y="174.2314">chooses a job opening</text><polygon fill="#181818" points="99.5,206.7852,89.5,210.7852,99.5,214.7852,95.5,210.7852" style="stroke:#181818;stroke-width:1.0;"/><line style="stroke:#181818;stroke-width:1.0;" x1="93.5" x2="476.5" y1="210.7852" y2="210.7852"/><text fill="#000000" font-family="sans-serif" font-size="13" lengthAdjust="spacing" textLength="155" x="105.5" y="205.5225">shows Job Opening details</text><path d="M10,225.7852 L83,225.7852 L83,235.0762 L73,245.0762 L10,245.0762 L10,225.7852 " fill="#EEEEEE" style="stroke:#000000;stroke-width:1.5;"/><rect fill="none" height="94.873" style="stroke:#000000;stroke-width:1.5;" width="635.5" x="10" y="225.7852"/><text fill="#000000" font-family="sans-serif" font-size="13" font-weight="bold" lengthAdjust="spacing" textLength="28" x="25" y="240.8135">loop</text><text fill="#000000" font-family="sans-serif" font-size="11" font-weight="bold" lengthAdjust="spacing" textLength="154" x="98" y="239.6553">[until user chooses to stop]</text><polygon fill="#181818" points="99.5,264.3672,89.5,268.3672,99.5,272.3672,95.5,268.3672" style="stroke:#181818;stroke-width:1.0;"/><line style="stroke:#181818;stroke-width:1.0;" x1="93.5" x2="476.5" y1="268.3672" y2="268.3672"/><text fill="#000000" font-family="sans-serif" font-size="13" lengthAdjust="spacing" textLength="247" x="105.5" y="263.1045">Asks to choose what user wants to update</text><line style="stroke:#181818;stroke-width:1.0;" x1="487.5" x2="529.5" y1="299.6582" y2="299.6582"/><line style="stroke:#181818;stroke-width:1.0;" x1="529.5" x2="529.5" y1="299.6582" y2="312.6582"/><line style="stroke:#181818;stroke-width:1.0;" x1="488.5" x2="529.5" y1="312.6582" y2="312.6582"/><polygon fill="#181818" points="498.5,308.6582,488.5,312.6582,498.5,316.6582,494.5,312.6582" style="stroke:#181818;stroke-width:1.0;"/><text fill="#000000" font-family="sans-serif" font-size="13" lengthAdjust="spacing" textLength="139" x="494.5" y="294.3955">Saves options to update</text><path d="M10,334.6582 L83,334.6582 L83,343.9492 L73,353.9492 L10,353.9492 L10,334.6582 " fill="#EEEEEE" style="stroke:#000000;stroke-width:1.5;"/><rect fill="none" height="81.873" style="stroke:#000000;stroke-width:1.5;" width="512.5" x="10" y="334.6582"/><text fill="#000000" font-family="sans-serif" font-size="13" font-weight="bold" lengthAdjust="spacing" textLength="28" x="25" y="349.6865">loop</text><text fill="#000000" font-family="sans-serif" font-size="11" font-weight="bold" lengthAdjust="spacing" textLength="134" x="98" y="348.5283">[for every single choice]</text><polygon fill="#181818" points="99.5,373.2402,89.5,377.2402,99.5,381.2402,95.5,377.2402" style="stroke:#181818;stroke-width:1.0;"/><line style="stroke:#181818;stroke-width:1.0;" x1="93.5" x2="476.5" y1="377.2402" y2="377.2402"/><text fill="#000000" font-family="sans-serif" font-size="13" lengthAdjust="spacing" textLength="108" x="105.5" y="371.9775">Asks for new value</text><polygon fill="#181818" points="465.5,404.5313,475.5,408.5313,465.5,412.5313,469.5,408.5313" style="stroke:#181818;stroke-width:1.0;"/><line style="stroke:#181818;stroke-width:1.0;" x1="88.5" x2="471.5" y1="408.5313" y2="408.5313"/><text fill="#000000" font-family="sans-serif" font-size="13" lengthAdjust="spacing" textLength="98" x="95.5" y="403.2686">Enters new value</text><polygon fill="#181818" points="99.5,442.8223,89.5,446.8223,99.5,450.8223,95.5,446.8223" style="stroke:#181818;stroke-width:1.0;"/><line style="stroke:#181818;stroke-width:1.0;" x1="93.5" x2="476.5" y1="446.8223" y2="446.8223"/><text fill="#000000" font-family="sans-serif" font-size="13" lengthAdjust="spacing" textLength="365" x="105.5" y="441.5596">Shows updated Job Opening details with confirmation message</text><!--SRC=[RP91ReGm34NtEON5lXUOHQLHrKsbgbKZ3k0cPaWR4XGRqDo-XcY64UgMx_-V_SFPIIxGl4miUQ02xvZmGgK1P6ZD9nO9BeoO11fxPQ5XKwmnw2JCAAHJfeMdPx0dO8haX26F4d82oK0-223yv6_zI2caoswqngw-5auG0-jOZF2cWr_KKQ7aY06JLzmlmyIwc-QvFcUcGsB5QqnL-I3VATpdXJV4HvN0as28R6BE8qn9GgoaMv0IjPTnZpYlo-nxB3rATInQqQPCezVZgaChiJZJhP17dPAlr4xhfvdA5LWtYhH61qS7v3gLQ84PuqJxmQz9gF23iiRUdNQxjmBzVtV34gG7brCNoe3Rcmt4h3-0-GC0]--></g></svg>