<?xml version="1.0" encoding="us-ascii" standalone="no"?><svg xmlns="http://www.w3.org/2000/svg" xmlns:xlink="http://www.w3.org/1999/xlink" contentStyleType="text/css" height="1741.6px" preserveAspectRatio="none" style="width:1648px;height:1741px;background:#FFFFFF;" version="1.1" viewBox="0 0 1648 1741" width="1648px" zoomAndPan="magnify"><defs/><g><rect fill="#FFFFFF" height="1576.5719" style="stroke:#181818;stroke-width:0.8000000000000002;" width="8" x="62.8" y="78.5938"/><rect fill="#FFFFFF" height="224.2625" style="stroke:#181818;stroke-width:0.8000000000000002;" width="8" x="355.6" y="97.2266"/><rect fill="#FFFFFF" height="1301.4438" style="stroke:#181818;stroke-width:0.8000000000000002;" width="8" x="355.6" y="346.5219"/><rect fill="#FFFFFF" height="1101.1813" style="stroke:#181818;stroke-width:0.8000000000000002;" width="8" x="359.6" y="377.9547"/><rect fill="#FFFFFF" height="179.2297" style="stroke:#181818;stroke-width:0.8000000000000002;" width="8" x="363.6" y="1213.8406"/><rect fill="#FFFFFF" height="174.1969" style="stroke:#181818;stroke-width:0.8000000000000002;" width="8" x="527.6" y="122.2594"/><rect fill="#FFFFFF" height="125.1641" style="stroke:#181818;stroke-width:0.8000000000000002;" width="8" x="527.6" y="1242.8734"/><rect fill="#FFFFFF" height="125.1641" style="stroke:#181818;stroke-width:0.8000000000000002;" width="8" x="527.6" y="1497.7688"/><rect fill="#FFFFFF" height="24" style="stroke:#181818;stroke-width:0.8000000000000002;" width="8" x="1118.8" y="147.2922"/><rect fill="#FFFFFF" height="75.0984" style="stroke:#181818;stroke-width:0.8000000000000002;" width="8" x="1242" y="196.325"/><rect fill="#FFFFFF" height="75.0984" style="stroke:#181818;stroke-width:0.8000000000000002;" width="8" x="1242" y="1267.9063"/><rect fill="#FFFFFF" height="75.0984" style="stroke:#181818;stroke-width:0.8000000000000002;" width="8" x="1242" y="1522.8016"/><rect fill="#FFFFFF" height="25.0328" style="stroke:#181818;stroke-width:0.8000000000000002;" width="8" x="1370" y="221.3578"/><rect fill="#FFFFFF" height="25.0328" style="stroke:#181818;stroke-width:0.8000000000000002;" width="8" x="1370" y="1547.8344"/><rect fill="#FFFFFF" height="24" style="stroke:#181818;stroke-width:0.8000000000000002;" width="8" x="1475.6" y="478.0859"/><rect fill="#FFFFFF" height="24" style="stroke:#181818;stroke-width:0.8000000000000002;" width="8" x="1475.6" y="603.8172"/><rect fill="#FFFFFF" height="24" style="stroke:#181818;stroke-width:0.8000000000000002;" width="8" x="1475.6" y="729.5484"/><rect fill="#FFFFFF" height="24" style="stroke:#181818;stroke-width:0.8000000000000002;" width="8" x="1475.6" y="855.2797"/><rect fill="#FFFFFF" height="24" style="stroke:#181818;stroke-width:0.8000000000000002;" width="8" x="1475.6" y="981.0109"/><rect fill="#FFFFFF" height="24" style="stroke:#181818;stroke-width:0.8000000000000002;" width="8" x="1475.6" y="1106.7422"/><rect fill="#FFFFFF" height="24" style="stroke:#181818;stroke-width:0.8000000000000002;" width="8" x="1475.6" y="1443.1359"/><rect fill="#FFFFFF" height="25.0328" style="stroke:#181818;stroke-width:0.8000000000000002;" width="8" x="1576.4" y="1292.9391"/><rect fill="none" height="89.4984" style="stroke:#000000;stroke-width:1.2000000000000002;" width="1517.2" x="8" y="418.9875"/><rect fill="none" height="89.4984" style="stroke:#000000;stroke-width:1.2000000000000002;" width="1517.2" x="8" y="544.7188"/><rect fill="none" height="89.4984" style="stroke:#000000;stroke-width:1.2000000000000002;" width="1517.2" x="8" y="670.45"/><rect fill="none" height="89.4984" style="stroke:#000000;stroke-width:1.2000000000000002;" width="1517.2" x="8" y="796.1813"/><rect fill="none" height="89.4984" style="stroke:#000000;stroke-width:1.2000000000000002;" width="1517.2" x="8" y="921.9125"/><rect fill="none" height="89.4984" style="stroke:#000000;stroke-width:1.2000000000000002;" width="1517.2" x="8" y="1047.6438"/><rect fill="none" height="300.1609" style="stroke:#000000;stroke-width:1.2000000000000002;" width="1635.6" x="8" y="1173.375"/><line style="stroke:#181818;stroke-width:0.4000000000000001;stroke-dasharray:5.0,5.0;" x1="66.4" x2="66.4" y1="70.5938" y2="1662.3656"/><line style="stroke:#181818;stroke-width:0.4000000000000001;stroke-dasharray:5.0,5.0;" x1="359.2" x2="359.2" y1="70.5938" y2="1662.3656"/><line style="stroke:#181818;stroke-width:0.4000000000000001;stroke-dasharray:5.0,5.0;" x1="531.2" x2="531.2" y1="70.5938" y2="1662.3656"/><line style="stroke:#181818;stroke-width:0.4000000000000001;stroke-dasharray:5.0,5.0;" x1="1122.4" x2="1122.4" y1="70.5938" y2="1662.3656"/><line style="stroke:#181818;stroke-width:0.4000000000000001;stroke-dasharray:5.0,5.0;" x1="1245.6" x2="1245.6" y1="70.5938" y2="1662.3656"/><line style="stroke:#181818;stroke-width:0.4000000000000001;stroke-dasharray:5.0,5.0;" x1="1374" x2="1374" y1="70.5938" y2="1662.3656"/><line style="stroke:#181818;stroke-width:0.4000000000000001;stroke-dasharray:5.0,5.0;" x1="1479.6" x2="1479.6" y1="70.5938" y2="1662.3656"/><line style="stroke:#181818;stroke-width:0.4000000000000001;stroke-dasharray:5.0,5.0;" x1="1580.4" x2="1580.4" y1="70.5938" y2="1662.3656"/><text fill="#000000" font-family="sans-serif" font-size="11.2" lengthAdjust="spacing" textLength="96.8" x="16" y="67.7828">Customer Manager</text><ellipse cx="66.8" cy="14.4969" fill="#E2E2F0" rx="6.4" ry="6.4" style="stroke:#181818;stroke-width:0.4000000000000001;"/><path d="M66.8,20.8969 L66.8,42.4969 M56.4,27.2969 L77.2,27.2969 M66.8,42.4969 L56.4,54.4969 M66.8,42.4969 L77.2,54.4969 " fill="none" style="stroke:#181818;stroke-width:0.4000000000000001;"/><text fill="#000000" font-family="sans-serif" font-size="11.2" lengthAdjust="spacing" textLength="96.8" x="16" y="1673.6516">Customer Manager</text><ellipse cx="66.8" cy="1683.2625" fill="#E2E2F0" rx="6.4" ry="6.4" style="stroke:#181818;stroke-width:0.4000000000000001;"/><path d="M66.8,1689.6625 L66.8,1711.2625 M56.4,1696.0625 L77.2,1696.0625 M66.8,1711.2625 L56.4,1723.2625 M66.8,1711.2625 L77.2,1723.2625 " fill="none" style="stroke:#181818;stroke-width:0.4000000000000001;"/><rect fill="#E2E2F0" height="40.9938" rx="2" ry="2" style="stroke:#181818;stroke-width:0.4000000000000001;" width="120.8" x="299.2" y="28.8"/><text fill="#000000" font-family="sans-serif" font-size="11.2" font-style="italic" lengthAdjust="spacing" textLength="24" x="347.6" y="46.4859">&#171;UI&#187;</text><text fill="#000000" font-family="sans-serif" font-size="11.2" lengthAdjust="spacing" textLength="109.6" x="304.8" y="61.3828">:UpdateJobOpeningUI</text><rect fill="#E2E2F0" height="40.9938" rx="2" ry="2" style="stroke:#181818;stroke-width:0.4000000000000001;" width="120.8" x="299.2" y="1661.5656"/><text fill="#000000" font-family="sans-serif" font-size="11.2" font-style="italic" lengthAdjust="spacing" textLength="24" x="347.6" y="1679.2516">&#171;UI&#187;</text><text fill="#000000" font-family="sans-serif" font-size="11.2" lengthAdjust="spacing" textLength="109.6" x="304.8" y="1694.1484">:UpdateJobOpeningUI</text><rect fill="#E2E2F0" height="40.9938" rx="2" ry="2" style="stroke:#181818;stroke-width:0.4000000000000001;" width="160.8" x="451.2" y="28.8"/><text fill="#000000" font-family="sans-serif" font-size="11.2" font-style="italic" lengthAdjust="spacing" textLength="68" x="497.6" y="46.4859">&#171;Application&#187;</text><text fill="#000000" font-family="sans-serif" font-size="11.2" lengthAdjust="spacing" textLength="149.6" x="456.8" y="61.3828">:UpdateJobOpeningController</text><rect fill="#E2E2F0" height="40.9938" rx="2" ry="2" style="stroke:#181818;stroke-width:0.4000000000000001;" width="160.8" x="451.2" y="1661.5656"/><text fill="#000000" font-family="sans-serif" font-size="11.2" font-style="italic" lengthAdjust="spacing" textLength="68" x="497.6" y="1679.2516">&#171;Application&#187;</text><text fill="#000000" font-family="sans-serif" font-size="11.2" lengthAdjust="spacing" textLength="149.6" x="456.8" y="1694.1484">:UpdateJobOpeningController</text><rect fill="#E2E2F0" height="40.9938" rx="2" ry="2" style="stroke:#181818;stroke-width:0.4000000000000001;" width="117.6" x="1064" y="28.8"/><text fill="#000000" font-family="sans-serif" font-size="11.2" font-style="italic" lengthAdjust="spacing" textLength="49.6" x="1098" y="46.4859">&#171;Service&#187;</text><text fill="#000000" font-family="sans-serif" font-size="11.2" lengthAdjust="spacing" textLength="106.4" x="1069.6" y="61.3828">:AuthorizationService</text><rect fill="#E2E2F0" height="40.9938" rx="2" ry="2" style="stroke:#181818;stroke-width:0.4000000000000001;" width="117.6" x="1064" y="1661.5656"/><text fill="#000000" font-family="sans-serif" font-size="11.2" font-style="italic" lengthAdjust="spacing" textLength="49.6" x="1098" y="1679.2516">&#171;Service&#187;</text><text fill="#000000" font-family="sans-serif" font-size="11.2" lengthAdjust="spacing" textLength="106.4" x="1069.6" y="1694.1484">:AuthorizationService</text><rect fill="#E2E2F0" height="40.9938" rx="2" ry="2" style="stroke:#181818;stroke-width:0.4000000000000001;" width="112.8" x="1189.6" y="28.8"/><text fill="#000000" font-family="sans-serif" font-size="11.2" font-style="italic" lengthAdjust="spacing" textLength="49.6" x="1221.2" y="46.4859">&#171;Service&#187;</text><text fill="#000000" font-family="sans-serif" font-size="11.2" lengthAdjust="spacing" textLength="101.6" x="1195.2" y="61.3828">:JobOpeningService</text><rect fill="#E2E2F0" height="40.9938" rx="2" ry="2" style="stroke:#181818;stroke-width:0.4000000000000001;" width="112.8" x="1189.6" y="1661.5656"/><text fill="#000000" font-family="sans-serif" font-size="11.2" font-style="italic" lengthAdjust="spacing" textLength="49.6" x="1221.2" y="1679.2516">&#171;Service&#187;</text><text fill="#000000" font-family="sans-serif" font-size="11.2" lengthAdjust="spacing" textLength="101.6" x="1195.2" y="1694.1484">:JobOpeningService</text><text fill="#000000" font-family="sans-serif" font-size="11.2" font-style="italic" lengthAdjust="spacing" textLength="67.2" x="1338" y="52.8859">&#171;Repository&#187;</text><text fill="#000000" font-family="sans-serif" font-size="11.2" lengthAdjust="spacing" textLength="115.2" x="1314" y="67.7828">JobOpeningRepository</text><path d="M1359.6,12 C1359.6,4 1374,4 1374,4 C1374,4 1388.4,4 1388.4,12 L1388.4,32.8 C1388.4,40.8 1374,40.8 1374,40.8 C1374,40.8 1359.6,40.8 1359.6,32.8 L1359.6,12 " fill="#E2E2F0" style="stroke:#181818;stroke-width:1.2000000000000002;"/><path d="M1359.6,12 C1359.6,20 1374,20 1374,20 C1374,20 1388.4,20 1388.4,12 " fill="none" style="stroke:#181818;stroke-width:1.2000000000000002;"/><text fill="#000000" font-family="sans-serif" font-size="11.2" font-style="italic" lengthAdjust="spacing" textLength="67.2" x="1338" y="1673.6516">&#171;Repository&#187;</text><text fill="#000000" font-family="sans-serif" font-size="11.2" lengthAdjust="spacing" textLength="115.2" x="1314" y="1688.5484">JobOpeningRepository</text><path d="M1359.6,1699.3594 C1359.6,1691.3594 1374,1691.3594 1374,1691.3594 C1374,1691.3594 1388.4,1691.3594 1388.4,1699.3594 L1388.4,1720.1594 C1388.4,1728.1594 1374,1728.1594 1374,1728.1594 C1374,1728.1594 1359.6,1728.1594 1359.6,1720.1594 L1359.6,1699.3594 " fill="#E2E2F0" style="stroke:#181818;stroke-width:1.2000000000000002;"/><path d="M1359.6,1699.3594 C1359.6,1707.3594 1374,1707.3594 1374,1707.3594 C1374,1707.3594 1388.4,1707.3594 1388.4,1699.3594 " fill="none" style="stroke:#181818;stroke-width:1.2000000000000002;"/><rect fill="#E2E2F0" height="40.9938" rx="2" ry="2" style="stroke:#181818;stroke-width:0.4000000000000001;" width="75.2" x="1442" y="28.8"/><text fill="#000000" font-family="sans-serif" font-size="11.2" font-style="italic" lengthAdjust="spacing" textLength="51.2" x="1454" y="46.4859">&#171;Domain&#187;</text><text fill="#000000" font-family="sans-serif" font-size="11.2" lengthAdjust="spacing" textLength="64" x="1447.6" y="61.3828">:JobOpening</text><rect fill="#E2E2F0" height="40.9938" rx="2" ry="2" style="stroke:#181818;stroke-width:0.4000000000000001;" width="75.2" x="1442" y="1661.5656"/><text fill="#000000" font-family="sans-serif" font-size="11.2" font-style="italic" lengthAdjust="spacing" textLength="51.2" x="1454" y="1679.2516">&#171;Domain&#187;</text><text fill="#000000" font-family="sans-serif" font-size="11.2" lengthAdjust="spacing" textLength="64" x="1447.6" y="1694.1484">:JobOpening</text><text fill="#000000" font-family="sans-serif" font-size="11.2" font-style="italic" lengthAdjust="spacing" textLength="67.2" x="1544.4" y="52.8859">&#171;Repository&#187;</text><text fill="#000000" font-family="sans-serif" font-size="11.2" lengthAdjust="spacing" textLength="105.6" x="1525.2" y="67.7828">:CompanyRepository</text><path d="M1566,12 C1566,4 1580.4,4 1580.4,4 C1580.4,4 1594.8,4 1594.8,12 L1594.8,32.8 C1594.8,40.8 1580.4,40.8 1580.4,40.8 C1580.4,40.8 1566,40.8 1566,32.8 L1566,12 " fill="#E2E2F0" style="stroke:#181818;stroke-width:1.2000000000000002;"/><path d="M1566,12 C1566,20 1580.4,20 1580.4,20 C1580.4,20 1594.8,20 1594.8,12 " fill="none" style="stroke:#181818;stroke-width:1.2000000000000002;"/><text fill="#000000" font-family="sans-serif" font-size="11.2" font-style="italic" lengthAdjust="spacing" textLength="67.2" x="1544.4" y="1673.6516">&#171;Repository&#187;</text><text fill="#000000" font-family="sans-serif" font-size="11.2" lengthAdjust="spacing" textLength="105.6" x="1525.2" y="1688.5484">:CompanyRepository</text><path d="M1566,1699.3594 C1566,1691.3594 1580.4,1691.3594 1580.4,1691.3594 C1580.4,1691.3594 1594.8,1691.3594 1594.8,1699.3594 L1594.8,1720.1594 C1594.8,1728.1594 1580.4,1728.1594 1580.4,1728.1594 C1580.4,1728.1594 1566,1728.1594 1566,1720.1594 L1566,1699.3594 " fill="#E2E2F0" style="stroke:#181818;stroke-width:1.2000000000000002;"/><path d="M1566,1699.3594 C1566,1707.3594 1580.4,1707.3594 1580.4,1707.3594 C1580.4,1707.3594 1594.8,1707.3594 1594.8,1699.3594 " fill="none" style="stroke:#181818;stroke-width:1.2000000000000002;"/><rect fill="#FFFFFF" height="1576.5719" style="stroke:#181818;stroke-width:0.8000000000000002;" width="8" x="62.8" y="78.5938"/><rect fill="#FFFFFF" height="224.2625" style="stroke:#181818;stroke-width:0.8000000000000002;" width="8" x="355.6" y="97.2266"/><rect fill="#FFFFFF" height="1301.4438" style="stroke:#181818;stroke-width:0.8000000000000002;" width="8" x="355.6" y="346.5219"/><rect fill="#FFFFFF" height="1101.1813" style="stroke:#181818;stroke-width:0.8000000000000002;" width="8" x="359.6" y="377.9547"/><rect fill="#FFFFFF" height="179.2297" style="stroke:#181818;stroke-width:0.8000000000000002;" width="8" x="363.6" y="1213.8406"/><rect fill="#FFFFFF" height="174.1969" style="stroke:#181818;stroke-width:0.8000000000000002;" width="8" x="527.6" y="122.2594"/><rect fill="#FFFFFF" height="125.1641" style="stroke:#181818;stroke-width:0.8000000000000002;" width="8" x="527.6" y="1242.8734"/><rect fill="#FFFFFF" height="125.1641" style="stroke:#181818;stroke-width:0.8000000000000002;" width="8" x="527.6" y="1497.7688"/><rect fill="#FFFFFF" height="24" style="stroke:#181818;stroke-width:0.8000000000000002;" width="8" x="1118.8" y="147.2922"/><rect fill="#FFFFFF" height="75.0984" style="stroke:#181818;stroke-width:0.8000000000000002;" width="8" x="1242" y="196.325"/><rect fill="#FFFFFF" height="75.0984" style="stroke:#181818;stroke-width:0.8000000000000002;" width="8" x="1242" y="1267.9063"/><rect fill="#FFFFFF" height="75.0984" style="stroke:#181818;stroke-width:0.8000000000000002;" width="8" x="1242" y="1522.8016"/><rect fill="#FFFFFF" height="25.0328" style="stroke:#181818;stroke-width:0.8000000000000002;" width="8" x="1370" y="221.3578"/><rect fill="#FFFFFF" height="25.0328" style="stroke:#181818;stroke-width:0.8000000000000002;" width="8" x="1370" y="1547.8344"/><rect fill="#FFFFFF" height="24" style="stroke:#181818;stroke-width:0.8000000000000002;" width="8" x="1475.6" y="478.0859"/><rect fill="#FFFFFF" height="24" style="stroke:#181818;stroke-width:0.8000000000000002;" width="8" x="1475.6" y="603.8172"/><rect fill="#FFFFFF" height="24" style="stroke:#181818;stroke-width:0.8000000000000002;" width="8" x="1475.6" y="729.5484"/><rect fill="#FFFFFF" height="24" style="stroke:#181818;stroke-width:0.8000000000000002;" width="8" x="1475.6" y="855.2797"/><rect fill="#FFFFFF" height="24" style="stroke:#181818;stroke-width:0.8000000000000002;" width="8" x="1475.6" y="981.0109"/><rect fill="#FFFFFF" height="24" style="stroke:#181818;stroke-width:0.8000000000000002;" width="8" x="1475.6" y="1106.7422"/><rect fill="#FFFFFF" height="24" style="stroke:#181818;stroke-width:0.8000000000000002;" width="8" x="1475.6" y="1443.1359"/><rect fill="#FFFFFF" height="25.0328" style="stroke:#181818;stroke-width:0.8000000000000002;" width="8" x="1576.4" y="1292.9391"/><polygon fill="#181818" points="346,94.0266,354,97.2266,346,100.4266,349.2,97.2266" style="stroke:#181818;stroke-width:0.8000000000000002;"/><line style="stroke:#181818;stroke-width:0.8000000000000002;" x1="70.8" x2="350.8" y1="97.2266" y2="97.2266"/><text fill="#000000" font-family="sans-serif" font-size="10.4" lengthAdjust="spacing" textLength="166.4" x="76.4" y="93.0164">selects option to edit a Job Opening</text><polygon fill="#181818" points="518,119.0594,526,122.2594,518,125.4594,521.2,122.2594" style="stroke:#181818;stroke-width:0.8000000000000002;"/><line style="stroke:#181818;stroke-width:0.8000000000000002;" x1="363.6" x2="522.8" y1="122.2594" y2="122.2594"/><text fill="#000000" font-family="sans-serif" font-size="10.4" lengthAdjust="spacing" textLength="38.4" x="369.2" y="118.0492">allJobs()</text><polygon fill="#181818" points="1109.2,144.0922,1117.2,147.2922,1109.2,150.4922,1112.4,147.2922" style="stroke:#181818;stroke-width:0.8000000000000002;"/><line style="stroke:#181818;stroke-width:0.8000000000000002;" x1="535.6" x2="1114" y1="147.2922" y2="147.2922"/><text fill="#000000" font-family="sans-serif" font-size="10.4" lengthAdjust="spacing" textLength="568" x="541.2" y="143.082">ensureAuthenticatedUserHasAnyOf(BaseRoles.CUSTOMER_MANAGER, BaseRoles.ADMIN, BaseRoles.POWER_USER)</text><polygon fill="#181818" points="1232.4,193.125,1240.4,196.325,1232.4,199.525,1235.6,196.325" style="stroke:#181818;stroke-width:0.8000000000000002;"/><line style="stroke:#181818;stroke-width:0.8000000000000002;" x1="535.6" x2="1237.2" y1="196.325" y2="196.325"/><text fill="#000000" font-family="sans-serif" font-size="10.4" lengthAdjust="spacing" textLength="38.4" x="541.2" y="192.1148">allJobs()</text><polygon fill="#181818" points="1360.4,218.1578,1368.4,221.3578,1360.4,224.5578,1363.6,221.3578" style="stroke:#181818;stroke-width:0.8000000000000002;"/><line style="stroke:#181818;stroke-width:0.8000000000000002;" x1="1250" x2="1365.2" y1="221.3578" y2="221.3578"/><text fill="#000000" font-family="sans-serif" font-size="10.4" lengthAdjust="spacing" textLength="34.4" x="1255.6" y="217.1477">findAll()</text><polygon fill="#181818" points="1258.8,243.1906,1250.8,246.3906,1258.8,249.5906,1255.6,246.3906" style="stroke:#181818;stroke-width:0.8000000000000002;"/><line style="stroke:#181818;stroke-width:0.8000000000000002;stroke-dasharray:2.0,2.0;" x1="1254" x2="1373.2" y1="246.3906" y2="246.3906"/><text fill="#000000" font-family="sans-serif" font-size="10.4" lengthAdjust="spacing" textLength="100.8" x="1263.6" y="242.1805">Iterable&lt;JobOpening&gt;</text><polygon fill="#181818" points="544.4,268.2234,536.4,271.4234,544.4,274.6234,541.2,271.4234" style="stroke:#181818;stroke-width:0.8000000000000002;"/><line style="stroke:#181818;stroke-width:0.8000000000000002;stroke-dasharray:2.0,2.0;" x1="539.6" x2="1245.2" y1="271.4234" y2="271.4234"/><text fill="#000000" font-family="sans-serif" font-size="10.4" lengthAdjust="spacing" textLength="144.8" x="549.2" y="267.2133">List&lt;JobOpening&gt; jobOpenings</text><polygon fill="#181818" points="372.4,293.2563,364.4,296.4563,372.4,299.6563,369.2,296.4563" style="stroke:#181818;stroke-width:0.8000000000000002;"/><line style="stroke:#181818;stroke-width:0.8000000000000002;stroke-dasharray:2.0,2.0;" x1="367.6" x2="530.8" y1="296.4563" y2="296.4563"/><text fill="#000000" font-family="sans-serif" font-size="10.4" lengthAdjust="spacing" textLength="144.8" x="377.2" y="292.2461">List&lt;JobOpening&gt; jobOpenings</text><polygon fill="#181818" points="79.6,318.2891,71.6,321.4891,79.6,324.6891,76.4,321.4891" style="stroke:#181818;stroke-width:0.8000000000000002;"/><line style="stroke:#181818;stroke-width:0.8000000000000002;stroke-dasharray:2.0,2.0;" x1="74.8" x2="358.8" y1="321.4891" y2="321.4891"/><text fill="#000000" font-family="sans-serif" font-size="10.4" lengthAdjust="spacing" textLength="192.8" x="84.4" y="317.2789">Display list of Job Openings with an index</text><polygon fill="#181818" points="346,343.3219,354,346.5219,346,349.7219,349.2,346.5219" style="stroke:#181818;stroke-width:0.8000000000000002;"/><line style="stroke:#181818;stroke-width:0.8000000000000002;" x1="70.8" x2="350.8" y1="346.5219" y2="346.5219"/><text fill="#000000" font-family="sans-serif" font-size="10.4" lengthAdjust="spacing" textLength="135.2" x="76.4" y="342.3117">selects a Job Opening to edit</text><line style="stroke:#181818;stroke-width:0.8000000000000002;" x1="363.6" x2="401.2" y1="367.5547" y2="367.5547"/><line style="stroke:#181818;stroke-width:0.8000000000000002;" x1="401.2" x2="401.2" y1="367.5547" y2="377.9547"/><line style="stroke:#181818;stroke-width:0.8000000000000002;" x1="368.4" x2="401.2" y1="377.9547" y2="377.9547"/><polygon fill="#181818" points="376.4,374.7547,368.4,377.9547,376.4,381.1547,373.2,377.9547" style="stroke:#181818;stroke-width:0.8000000000000002;"/><text fill="#000000" font-family="sans-serif" font-size="10.4" lengthAdjust="spacing" textLength="129.6" x="373.2" y="363.3445">editJobOpening(jobOpening)</text><polygon fill="#181818" points="79.6,403.7875,71.6,406.9875,79.6,410.1875,76.4,406.9875" style="stroke:#181818;stroke-width:0.8000000000000002;"/><line style="stroke:#181818;stroke-width:0.8000000000000002;" x1="74.8" x2="358.8" y1="406.9875" y2="406.9875"/><text fill="#000000" font-family="sans-serif" font-size="10.4" lengthAdjust="spacing" textLength="118.4" x="84.4" y="402.7773">isToUpdate("Description")</text><path d="M8,418.9875 L56.8,418.9875 L56.8,426.4203 L48.8,434.4203 L8,434.4203 L8,418.9875 " fill="#EEEEEE" style="stroke:#000000;stroke-width:1.2000000000000002;"/><rect fill="none" height="89.4984" style="stroke:#000000;stroke-width:1.2000000000000002;" width="1517.2" x="8" y="418.9875"/><text fill="#000000" font-family="sans-serif" font-size="10.4" font-weight="bold" lengthAdjust="spacing" textLength="12.8" x="20" y="431.0102">alt</text><text fill="#000000" font-family="sans-serif" font-size="8.8" font-weight="bold" lengthAdjust="spacing" textLength="153.6" x="68.8" y="430.0836">[isToUpdate("Description") == true]</text><polygon fill="#181818" points="350,449.8531,358,453.0531,350,456.2531,353.2,453.0531" style="stroke:#181818;stroke-width:0.8000000000000002;"/><line style="stroke:#181818;stroke-width:0.8000000000000002;stroke-dasharray:2.0,2.0;" x1="70.8" x2="354.8" y1="453.0531" y2="453.0531"/><text fill="#000000" font-family="sans-serif" font-size="10.4" lengthAdjust="spacing" textLength="104" x="76.4" y="448.843">enters new description</text><polygon fill="#181818" points="1466,474.8859,1474,478.0859,1466,481.2859,1469.2,478.0859" style="stroke:#181818;stroke-width:0.8000000000000002;"/><line style="stroke:#181818;stroke-width:0.8000000000000002;" x1="367.6" x2="1470.8" y1="478.0859" y2="478.0859"/><text fill="#000000" font-family="sans-serif" font-size="10.4" lengthAdjust="spacing" textLength="143.2" x="373.2" y="473.8758">setDescription(newDescription)</text><polygon fill="#181818" points="79.6,529.5188,71.6,532.7188,79.6,535.9188,76.4,532.7188" style="stroke:#181818;stroke-width:0.8000000000000002;"/><line style="stroke:#181818;stroke-width:0.8000000000000002;" x1="74.8" x2="358.8" y1="532.7188" y2="532.7188"/><text fill="#000000" font-family="sans-serif" font-size="10.4" lengthAdjust="spacing" textLength="104.8" x="84.4" y="528.5086">isToUpdate("Address")</text><path d="M8,544.7188 L56.8,544.7188 L56.8,552.1516 L48.8,560.1516 L8,560.1516 L8,544.7188 " fill="#EEEEEE" style="stroke:#000000;stroke-width:1.2000000000000002;"/><rect fill="none" height="89.4984" style="stroke:#000000;stroke-width:1.2000000000000002;" width="1517.2" x="8" y="544.7188"/><text fill="#000000" font-family="sans-serif" font-size="10.4" font-weight="bold" lengthAdjust="spacing" textLength="12.8" x="20" y="556.7414">alt</text><text fill="#000000" font-family="sans-serif" font-size="8.8" font-weight="bold" lengthAdjust="spacing" textLength="141.6" x="68.8" y="555.8148">[isToUpdate("Address") == true]</text><polygon fill="#181818" points="350,575.5844,358,578.7844,350,581.9844,353.2,578.7844" style="stroke:#181818;stroke-width:0.8000000000000002;"/><line style="stroke:#181818;stroke-width:0.8000000000000002;stroke-dasharray:2.0,2.0;" x1="70.8" x2="354.8" y1="578.7844" y2="578.7844"/><text fill="#000000" font-family="sans-serif" font-size="10.4" lengthAdjust="spacing" textLength="90.4" x="76.4" y="574.5742">enters new address</text><polygon fill="#181818" points="1466,600.6172,1474,603.8172,1466,607.0172,1469.2,603.8172" style="stroke:#181818;stroke-width:0.8000000000000002;"/><line style="stroke:#181818;stroke-width:0.8000000000000002;" x1="367.6" x2="1470.8" y1="603.8172" y2="603.8172"/><text fill="#000000" font-family="sans-serif" font-size="10.4" lengthAdjust="spacing" textLength="116" x="373.2" y="599.607">setAddress(newAddress)</text><polygon fill="#181818" points="79.6,655.25,71.6,658.45,79.6,661.65,76.4,658.45" style="stroke:#181818;stroke-width:0.8000000000000002;"/><line style="stroke:#181818;stroke-width:0.8000000000000002;" x1="74.8" x2="358.8" y1="658.45" y2="658.45"/><text fill="#000000" font-family="sans-serif" font-size="10.4" lengthAdjust="spacing" textLength="92" x="84.4" y="654.2398">isToUpdate("Mode")</text><path d="M8,670.45 L56.8,670.45 L56.8,677.8828 L48.8,685.8828 L8,685.8828 L8,670.45 " fill="#EEEEEE" style="stroke:#000000;stroke-width:1.2000000000000002;"/><rect fill="none" height="89.4984" style="stroke:#000000;stroke-width:1.2000000000000002;" width="1517.2" x="8" y="670.45"/><text fill="#000000" font-family="sans-serif" font-size="10.4" font-weight="bold" lengthAdjust="spacing" textLength="12.8" x="20" y="682.4727">alt</text><text fill="#000000" font-family="sans-serif" font-size="8.8" font-weight="bold" lengthAdjust="spacing" textLength="128" x="68.8" y="681.5461">[isToUpdate("Mode") == true]</text><polygon fill="#181818" points="350,701.3156,358,704.5156,350,707.7156,353.2,704.5156" style="stroke:#181818;stroke-width:0.8000000000000002;"/><line style="stroke:#181818;stroke-width:0.8000000000000002;stroke-dasharray:2.0,2.0;" x1="70.8" x2="354.8" y1="704.5156" y2="704.5156"/><text fill="#000000" font-family="sans-serif" font-size="10.4" lengthAdjust="spacing" textLength="84" x="76.4" y="700.3055">selects new mode</text><polygon fill="#181818" points="1466,726.3484,1474,729.5484,1466,732.7484,1469.2,729.5484" style="stroke:#181818;stroke-width:0.8000000000000002;"/><line style="stroke:#181818;stroke-width:0.8000000000000002;" x1="367.6" x2="1470.8" y1="729.5484" y2="729.5484"/><text fill="#000000" font-family="sans-serif" font-size="10.4" lengthAdjust="spacing" textLength="90.4" x="373.2" y="725.3383">setMode(newMode)</text><polygon fill="#181818" points="79.6,780.9813,71.6,784.1813,79.6,787.3813,76.4,784.1813" style="stroke:#181818;stroke-width:0.8000000000000002;"/><line style="stroke:#181818;stroke-width:0.8000000000000002;" x1="74.8" x2="358.8" y1="784.1813" y2="784.1813"/><text fill="#000000" font-family="sans-serif" font-size="10.4" lengthAdjust="spacing" textLength="131.2" x="84.4" y="779.9711">isToUpdate("Contract Type")</text><path d="M8,796.1813 L56.8,796.1813 L56.8,803.6141 L48.8,811.6141 L8,811.6141 L8,796.1813 " fill="#EEEEEE" style="stroke:#000000;stroke-width:1.2000000000000002;"/><rect fill="none" height="89.4984" style="stroke:#000000;stroke-width:1.2000000000000002;" width="1517.2" x="8" y="796.1813"/><text fill="#000000" font-family="sans-serif" font-size="10.4" font-weight="bold" lengthAdjust="spacing" textLength="12.8" x="20" y="808.2039">alt</text><text fill="#000000" font-family="sans-serif" font-size="8.8" font-weight="bold" lengthAdjust="spacing" textLength="164.8" x="68.8" y="807.2773">[isToUpdate("Contract Type") == true]</text><polygon fill="#181818" points="350,827.0469,358,830.2469,350,833.4469,353.2,830.2469" style="stroke:#181818;stroke-width:0.8000000000000002;"/><line style="stroke:#181818;stroke-width:0.8000000000000002;stroke-dasharray:2.0,2.0;" x1="70.8" x2="354.8" y1="830.2469" y2="830.2469"/><text fill="#000000" font-family="sans-serif" font-size="10.4" lengthAdjust="spacing" textLength="119.2" x="76.4" y="826.0367">selects new contract type</text><polygon fill="#181818" points="1466,852.0797,1474,855.2797,1466,858.4797,1469.2,855.2797" style="stroke:#181818;stroke-width:0.8000000000000002;"/><line style="stroke:#181818;stroke-width:0.8000000000000002;" x1="367.6" x2="1470.8" y1="855.2797" y2="855.2797"/><text fill="#000000" font-family="sans-serif" font-size="10.4" lengthAdjust="spacing" textLength="162.4" x="373.2" y="851.0695">setContractType(newContractType)</text><polygon fill="#181818" points="79.6,906.7125,71.6,909.9125,79.6,913.1125,76.4,909.9125" style="stroke:#181818;stroke-width:0.8000000000000002;"/><line style="stroke:#181818;stroke-width:0.8000000000000002;" x1="74.8" x2="358.8" y1="909.9125" y2="909.9125"/><text fill="#000000" font-family="sans-serif" font-size="10.4" lengthAdjust="spacing" textLength="104.8" x="84.4" y="905.7023">isToUpdate("Job Title")</text><path d="M8,921.9125 L56.8,921.9125 L56.8,929.3453 L48.8,937.3453 L8,937.3453 L8,921.9125 " fill="#EEEEEE" style="stroke:#000000;stroke-width:1.2000000000000002;"/><rect fill="none" height="89.4984" style="stroke:#000000;stroke-width:1.2000000000000002;" width="1517.2" x="8" y="921.9125"/><text fill="#000000" font-family="sans-serif" font-size="10.4" font-weight="bold" lengthAdjust="spacing" textLength="12.8" x="20" y="933.9352">alt</text><text fill="#000000" font-family="sans-serif" font-size="8.8" font-weight="bold" lengthAdjust="spacing" textLength="140.8" x="68.8" y="933.0086">[isToUpdate("Job Title") == true]</text><polygon fill="#181818" points="350,952.7781,358,955.9781,350,959.1781,353.2,955.9781" style="stroke:#181818;stroke-width:0.8000000000000002;"/><line style="stroke:#181818;stroke-width:0.8000000000000002;stroke-dasharray:2.0,2.0;" x1="70.8" x2="354.8" y1="955.9781" y2="955.9781"/><text fill="#000000" font-family="sans-serif" font-size="10.4" lengthAdjust="spacing" textLength="87.2" x="76.4" y="951.768">enters new job title</text><polygon fill="#181818" points="1466,977.8109,1474,981.0109,1466,984.2109,1469.2,981.0109" style="stroke:#181818;stroke-width:0.8000000000000002;"/><line style="stroke:#181818;stroke-width:0.8000000000000002;" x1="367.6" x2="1470.8" y1="981.0109" y2="981.0109"/><text fill="#000000" font-family="sans-serif" font-size="10.4" lengthAdjust="spacing" textLength="109.6" x="373.2" y="976.8008">setJobTitle(newJobTitle)</text><polygon fill="#181818" points="79.6,1032.4438,71.6,1035.6438,79.6,1038.8438,76.4,1035.6438" style="stroke:#181818;stroke-width:0.8000000000000002;"/><line style="stroke:#181818;stroke-width:0.8000000000000002;" x1="74.8" x2="358.8" y1="1035.6438" y2="1035.6438"/><text fill="#000000" font-family="sans-serif" font-size="10.4" lengthAdjust="spacing" textLength="154.4" x="84.4" y="1031.4336">isToUpdate("Vacancies Number")</text><path d="M8,1047.6438 L56.8,1047.6438 L56.8,1055.0766 L48.8,1063.0766 L8,1063.0766 L8,1047.6438 " fill="#EEEEEE" style="stroke:#000000;stroke-width:1.2000000000000002;"/><rect fill="none" height="89.4984" style="stroke:#000000;stroke-width:1.2000000000000002;" width="1517.2" x="8" y="1047.6438"/><text fill="#000000" font-family="sans-serif" font-size="10.4" font-weight="bold" lengthAdjust="spacing" textLength="12.8" x="20" y="1059.6664">alt</text><text fill="#000000" font-family="sans-serif" font-size="8.8" font-weight="bold" lengthAdjust="spacing" textLength="185.6" x="68.8" y="1058.7398">[isToUpdate("Vacancies Number") == true]</text><polygon fill="#181818" points="350,1078.5094,358,1081.7094,350,1084.9094,353.2,1081.7094" style="stroke:#181818;stroke-width:0.8000000000000002;"/><line style="stroke:#181818;stroke-width:0.8000000000000002;stroke-dasharray:2.0,2.0;" x1="70.8" x2="354.8" y1="1081.7094" y2="1081.7094"/><text fill="#000000" font-family="sans-serif" font-size="10.4" lengthAdjust="spacing" textLength="136.8" x="76.4" y="1077.4992">enters new vacancies number</text><polygon fill="#181818" points="1466,1103.5422,1474,1106.7422,1466,1109.9422,1469.2,1106.7422" style="stroke:#181818;stroke-width:0.8000000000000002;"/><line style="stroke:#181818;stroke-width:0.8000000000000002;" x1="367.6" x2="1470.8" y1="1106.7422" y2="1106.7422"/><text fill="#000000" font-family="sans-serif" font-size="10.4" lengthAdjust="spacing" textLength="208.8" x="373.2" y="1102.532">setVacanciesNumber(newVacanciesNumber)</text><polygon fill="#181818" points="79.6,1158.175,71.6,1161.375,79.6,1164.575,76.4,1161.375" style="stroke:#181818;stroke-width:0.8000000000000002;"/><line style="stroke:#181818;stroke-width:0.8000000000000002;" x1="74.8" x2="358.8" y1="1161.375" y2="1161.375"/><text fill="#000000" font-family="sans-serif" font-size="10.4" lengthAdjust="spacing" textLength="140.8" x="84.4" y="1157.1648">isToUpdate("Company Name")</text><path d="M8,1173.375 L56.8,1173.375 L56.8,1180.8078 L48.8,1188.8078 L8,1188.8078 L8,1173.375 " fill="#EEEEEE" style="stroke:#000000;stroke-width:1.2000000000000002;"/><rect fill="none" height="300.1609" style="stroke:#000000;stroke-width:1.2000000000000002;" width="1635.6" x="8" y="1173.375"/><text fill="#000000" font-family="sans-serif" font-size="10.4" font-weight="bold" lengthAdjust="spacing" textLength="12.8" x="20" y="1185.3977">alt</text><text fill="#000000" font-family="sans-serif" font-size="8.8" font-weight="bold" lengthAdjust="spacing" textLength="172" x="68.8" y="1184.4711">[isToUpdate("Company Name") == true]</text><line style="stroke:#181818;stroke-width:0.8000000000000002;" x1="367.6" x2="405.2" y1="1203.4406" y2="1203.4406"/><line style="stroke:#181818;stroke-width:0.8000000000000002;" x1="405.2" x2="405.2" y1="1203.4406" y2="1213.8406"/><line style="stroke:#181818;stroke-width:0.8000000000000002;" x1="372.4" x2="405.2" y1="1213.8406" y2="1213.8406"/><polygon fill="#181818" points="380.4,1210.6406,372.4,1213.8406,380.4,1217.0406,377.2,1213.8406" style="stroke:#181818;stroke-width:0.8000000000000002;"/><text fill="#000000" font-family="sans-serif" font-size="10.4" lengthAdjust="spacing" textLength="78.4" x="377.2" y="1199.2305">selectCompany()</text><polygon fill="#181818" points="518,1239.6734,526,1242.8734,518,1246.0734,521.2,1242.8734" style="stroke:#181818;stroke-width:0.8000000000000002;"/><line style="stroke:#181818;stroke-width:0.8000000000000002;" x1="371.6" x2="522.8" y1="1242.8734" y2="1242.8734"/><text fill="#000000" font-family="sans-serif" font-size="10.4" lengthAdjust="spacing" textLength="68.8" x="377.2" y="1238.6633">allCompanies()</text><polygon fill="#181818" points="1232.4,1264.7063,1240.4,1267.9063,1232.4,1271.1063,1235.6,1267.9063" style="stroke:#181818;stroke-width:0.8000000000000002;"/><line style="stroke:#181818;stroke-width:0.8000000000000002;" x1="535.6" x2="1237.2" y1="1267.9063" y2="1267.9063"/><text fill="#000000" font-family="sans-serif" font-size="10.4" lengthAdjust="spacing" textLength="68.8" x="541.2" y="1263.6961">allCompanies()</text><polygon fill="#181818" points="1566.8,1289.7391,1574.8,1292.9391,1566.8,1296.1391,1570,1292.9391" style="stroke:#181818;stroke-width:0.8000000000000002;"/><line style="stroke:#181818;stroke-width:0.8000000000000002;" x1="1250" x2="1571.6" y1="1292.9391" y2="1292.9391"/><text fill="#000000" font-family="sans-serif" font-size="10.4" lengthAdjust="spacing" textLength="34.4" x="1255.6" y="1288.7289">findAll()</text><polygon fill="#181818" points="1258.8,1314.7719,1250.8,1317.9719,1258.8,1321.1719,1255.6,1317.9719" style="stroke:#181818;stroke-width:0.8000000000000002;"/><line style="stroke:#181818;stroke-width:0.8000000000000002;stroke-dasharray:2.0,2.0;" x1="1254" x2="1579.6" y1="1317.9719" y2="1317.9719"/><text fill="#000000" font-family="sans-serif" font-size="10.4" lengthAdjust="spacing" textLength="90.4" x="1263.6" y="1313.7617">Iterable&lt;Company&gt;</text><polygon fill="#181818" points="544.4,1339.8047,536.4,1343.0047,544.4,1346.2047,541.2,1343.0047" style="stroke:#181818;stroke-width:0.8000000000000002;"/><line style="stroke:#181818;stroke-width:0.8000000000000002;stroke-dasharray:2.0,2.0;" x1="539.6" x2="1245.2" y1="1343.0047" y2="1343.0047"/><text fill="#000000" font-family="sans-serif" font-size="10.4" lengthAdjust="spacing" textLength="127.2" x="549.2" y="1338.7945">List&lt;Company&gt; companies</text><polygon fill="#181818" points="380.4,1364.8375,372.4,1368.0375,380.4,1371.2375,377.2,1368.0375" style="stroke:#181818;stroke-width:0.8000000000000002;"/><line style="stroke:#181818;stroke-width:0.8000000000000002;stroke-dasharray:2.0,2.0;" x1="375.6" x2="530.8" y1="1368.0375" y2="1368.0375"/><text fill="#000000" font-family="sans-serif" font-size="10.4" lengthAdjust="spacing" textLength="127.2" x="385.2" y="1363.8273">List&lt;Company&gt; companies</text><polygon fill="#181818" points="79.6,1389.8703,71.6,1393.0703,79.6,1396.2703,76.4,1393.0703" style="stroke:#181818;stroke-width:0.8000000000000002;"/><line style="stroke:#181818;stroke-width:0.8000000000000002;stroke-dasharray:2.0,2.0;" x1="74.8" x2="358.8" y1="1393.0703" y2="1393.0703"/><text fill="#000000" font-family="sans-serif" font-size="10.4" lengthAdjust="spacing" textLength="181.6" x="84.4" y="1388.8602">Display list of Companies with an index</text><polygon fill="#181818" points="350,1414.9031,358,1418.1031,350,1421.3031,353.2,1418.1031" style="stroke:#181818;stroke-width:0.8000000000000002;"/><line style="stroke:#181818;stroke-width:0.8000000000000002;" x1="70.8" x2="354.8" y1="1418.1031" y2="1418.1031"/><text fill="#000000" font-family="sans-serif" font-size="10.4" lengthAdjust="spacing" textLength="89.6" x="76.4" y="1413.893">selects a Company</text><polygon fill="#181818" points="1466,1439.9359,1474,1443.1359,1466,1446.3359,1469.2,1443.1359" style="stroke:#181818;stroke-width:0.8000000000000002;"/><line style="stroke:#181818;stroke-width:0.8000000000000002;" x1="367.6" x2="1470.8" y1="1443.1359" y2="1443.1359"/><text fill="#000000" font-family="sans-serif" font-size="10.4" lengthAdjust="spacing" textLength="107.2" x="373.2" y="1438.9258">setCompany(company)</text><polygon fill="#181818" points="518,1494.5688,526,1497.7688,518,1500.9688,521.2,1497.7688" style="stroke:#181818;stroke-width:0.8000000000000002;"/><line style="stroke:#181818;stroke-width:0.8000000000000002;" x1="363.6" x2="522.8" y1="1497.7688" y2="1497.7688"/><text fill="#000000" font-family="sans-serif" font-size="10.4" lengthAdjust="spacing" textLength="129.6" x="369.2" y="1493.5586">editJobOpening(jobOpening)</text><polygon fill="#181818" points="1232.4,1519.6016,1240.4,1522.8016,1232.4,1526.0016,1235.6,1522.8016" style="stroke:#181818;stroke-width:0.8000000000000002;"/><line style="stroke:#181818;stroke-width:0.8000000000000002;" x1="535.6" x2="1237.2" y1="1522.8016" y2="1522.8016"/><text fill="#000000" font-family="sans-serif" font-size="10.4" lengthAdjust="spacing" textLength="129.6" x="541.2" y="1518.5914">editJobOpening(jobOpening)</text><polygon fill="#181818" points="1360.4,1544.6344,1368.4,1547.8344,1360.4,1551.0344,1363.6,1547.8344" style="stroke:#181818;stroke-width:0.8000000000000002;"/><line style="stroke:#181818;stroke-width:0.8000000000000002;" x1="1250" x2="1365.2" y1="1547.8344" y2="1547.8344"/><text fill="#000000" font-family="sans-serif" font-size="10.4" lengthAdjust="spacing" textLength="79.2" x="1255.6" y="1543.6242">save(jobOpening)</text><polygon fill="#181818" points="1258.8,1569.6672,1250.8,1572.8672,1258.8,1576.0672,1255.6,1572.8672" style="stroke:#181818;stroke-width:0.8000000000000002;"/><line style="stroke:#181818;stroke-width:0.8000000000000002;stroke-dasharray:2.0,2.0;" x1="1254" x2="1373.2" y1="1572.8672" y2="1572.8672"/><text fill="#000000" font-family="sans-serif" font-size="10.4" lengthAdjust="spacing" textLength="54.4" x="1263.6" y="1568.657">JobOpening</text><polygon fill="#181818" points="544.4,1594.7,536.4,1597.9,544.4,1601.1,541.2,1597.9" style="stroke:#181818;stroke-width:0.8000000000000002;"/><line style="stroke:#181818;stroke-width:0.8000000000000002;stroke-dasharray:2.0,2.0;" x1="539.6" x2="1245.2" y1="1597.9" y2="1597.9"/><text fill="#000000" font-family="sans-serif" font-size="10.4" lengthAdjust="spacing" textLength="54.4" x="549.2" y="1593.6898">JobOpening</text><polygon fill="#181818" points="372.4,1619.7328,364.4,1622.9328,372.4,1626.1328,369.2,1622.9328" style="stroke:#181818;stroke-width:0.8000000000000002;"/><line style="stroke:#181818;stroke-width:0.8000000000000002;stroke-dasharray:2.0,2.0;" x1="367.6" x2="530.8" y1="1622.9328" y2="1622.9328"/><text fill="#000000" font-family="sans-serif" font-size="10.4" lengthAdjust="spacing" textLength="54.4" x="377.2" y="1618.7227">JobOpening</text><polygon fill="#181818" points="79.6,1644.7656,71.6,1647.9656,79.6,1651.1656,76.4,1647.9656" style="stroke:#181818;stroke-width:0.8000000000000002;"/><line style="stroke:#181818;stroke-width:0.8000000000000002;stroke-dasharray:2.0,2.0;" x1="74.8" x2="358.8" y1="1647.9656" y2="1647.9656"/><text fill="#000000" font-family="sans-serif" font-size="10.4" lengthAdjust="spacing" textLength="265.6" x="84.4" y="1643.7555">displays new updated JobOpening and success message</text><!--SRC=[hLVHRjem57tFLrpnHALr7n2rI1cWZMd0H65xd4nostaATXGRElRrkquSuYIcX8e-f8dllSVd-9x49egrp64mtYijTvZ3d0dsWla0c8ADmZp8MAvvp3CcD0p2JPOmZL_bTfcXuE9bCoipP_3mi9cDHXVInrBeNAQfdQ1-fF8eor8UCysbwE14U_rRvlnV4Nt2_C1ZB11CW6hjKAUkdjajwems48WnspA5CAZpLfX9nMcbZWN07xdDQOJAwi0RSxScfRA9t34k6fE5OxcZocDhghWSzKqN12pM_40BN7OgC5Uu7r4tGb2OOgmLoCmi6MW9c70DpF00IyIfdmNKGYgjEn82IrDALiExEgyE1qxlgCxq8GGKQf-ZkKUXJIynCPo-C1M9u_9v-8cKhcIAwkDuyxHUpgUhN_De4NsUhZv07Oicyzd27VY-_4cPcwVfog5YPWaIR3utINNwxDNKoGgw_Y0ms_CGdhb8eZHr8Mmig7nnxvzyfZ5dsnGVwjZ8bL31UEPljUORLzf5CQNsNhc8NMtk2bchz0Lpcc_COggL8JFXAalP4LB20VdiEap1AwSNb0cWHSE_BfgndCUl3ODMjcqOrJgLhc4Hh9aFQ-9t7cyNquN0rLgMtwNXO88gpddnYWoe9DNde_3u23hVesLzOY2egGe4la9IfziPQsf6e7RmXbJWF7hjw6zaW29n13NrH4cIer8UBQV8PHsiJFLhi3Y6lxsz5VUvJD13l1m-mxfoZQ6zeqG_PmDX29l_rx8zIxTu6wWAriVCnxiLxo4WhYeqLVYLLA06qoXods_L1_F-hRbEVQASs6KVqTi8sYJxjT1Z0MLqLFUtql23nKp471KizhijdJQwKhefbnKTJZMYgF4BEo6Nm4PVQ-XMCksH0HPivxUW6wxbpPeVNPislBjy7YXJIKUlGu5___LYzDo4dTEGToDsue5xShgq8TibQEp6BbRF7Rc2iRMayNsRyTiuVVVXqqA_OnEs389pdw7ICNQ9hh5puUSMWuxJ-cphrxYk3zwrnq353kX7wdaQz2zL_pFWfQL-msJ-qdE-IafVbP_0VV5jIToVCqmaeFPnJ6S1sD65VZ-sEbpy_GS0]--></g></svg>