<?xml version="1.0" encoding="us-ascii" standalone="no"?><svg xmlns="http://www.w3.org/2000/svg" xmlns:xlink="http://www.w3.org/1999/xlink" contentStyleType="text/css" height="472px" preserveAspectRatio="none" style="width:660px;height:472px;background:#FFFFFF;" version="1.1" viewBox="0 0 660 472" width="660px" zoomAndPan="magnify"><defs/><g><!--cluster Job Opening--><g id="cluster_Job Opening"><rect fill="#BBCCAA" height="459" rx="2.5" ry="2.5" style="stroke:#181818;stroke-width:1.0;" width="647" x="7" y="7"/><text fill="#000000" font-family="sans-serif" font-size="14" font-weight="bold" lengthAdjust="spacing" textLength="90" x="285.5" y="24.1074">Job Opening</text></g><!--class JobOpening--><g id="elem_JobOpening"><rect codeLine="3" fill="#F1F1F1" height="76.543" id="JobOpening" rx="2.5" ry="2.5" style="stroke:#181818;stroke-width:0.5;" width="128" x="265" y="236"/><ellipse cx="280" cy="266.2715" fill="#ADD1B2" rx="11" ry="11" style="stroke:#181818;stroke-width:1.0;"/><path d="M282.7656,262.1465 Q282.9219,261.9277 283.1094,261.8184 Q283.2969,261.709 283.5156,261.709 Q283.8906,261.709 284.125,261.9746 Q284.3594,262.2246 284.3594,262.834 L284.3594,264.2871 Q284.3594,264.8965 284.125,265.1621 Q283.8906,265.4277 283.5156,265.4277 Q283.1719,265.4277 282.9688,265.2246 Q282.7656,265.0371 282.6563,264.5215 Q282.6094,264.1621 282.4219,263.9746 Q282.0938,263.5996 281.4844,263.3809 Q280.875,263.1621 280.25,263.1621 Q279.4844,263.1621 278.8438,263.4902 Q278.2188,263.8184 277.7188,264.5684 Q277.2344,265.3184 277.2344,266.3496 L277.2344,267.4434 Q277.2344,268.6777 278.125,269.5059 Q279.0156,270.3184 280.6094,270.3184 Q281.5469,270.3184 282.2031,270.0684 Q282.5938,269.9121 283.0156,269.4746 Q283.2813,269.209 283.4219,269.1309 Q283.5781,269.0527 283.7813,269.0527 Q284.1094,269.0527 284.3594,269.3184 Q284.625,269.5684 284.625,269.9121 Q284.625,270.2559 284.2813,270.6621 Q283.7813,271.2402 282.9844,271.5684 Q281.9063,272.0215 280.6094,272.0215 Q279.0938,272.0215 277.8906,271.3965 Q276.9063,270.8965 276.2188,269.834 Q275.5313,268.7559 275.5313,267.4746 L275.5313,266.3184 Q275.5313,264.9902 276.1406,263.8496 Q276.7656,262.6934 277.8594,262.084 Q278.9531,261.459 280.1875,261.459 Q280.9219,261.459 281.5625,261.6309 Q282.2188,261.7871 282.7656,262.1465 Z " fill="#000000"/><text fill="#000000" font-family="sans-serif" font-size="12" font-style="italic" lengthAdjust="spacing" textLength="100" x="292" y="253.9492">&#171;Aggregate Root&#187;</text><text fill="#000000" font-family="sans-serif" font-size="12" font-style="italic" lengthAdjust="spacing" textLength="44" x="320" y="269.9102">&#171;Entity&#187;</text><text fill="#000000" font-family="sans-serif" font-size="14" lengthAdjust="spacing" textLength="76" x="304" y="288.0293">JobOpening</text><line style="stroke:#181818;stroke-width:0.5;" x1="266" x2="392" y1="296.543" y2="296.543"/><line style="stroke:#181818;stroke-width:0.5;" x1="266" x2="392" y1="304.543" y2="304.543"/></g><!--class JobReference--><g id="elem_JobReference"><rect codeLine="5" fill="#F1F1F1" height="76.543" id="JobReference" rx="2.5" ry="2.5" style="stroke:#181818;stroke-width:0.5;" width="120" x="23" y="373"/><ellipse cx="38" cy="403.2715" fill="#ADD1B2" rx="11" ry="11" style="stroke:#181818;stroke-width:1.0;"/><path d="M40.7656,399.1465 Q40.9219,398.9277 41.1094,398.8184 Q41.2969,398.709 41.5156,398.709 Q41.8906,398.709 42.125,398.9746 Q42.3594,399.2246 42.3594,399.834 L42.3594,401.2871 Q42.3594,401.8965 42.125,402.1621 Q41.8906,402.4277 41.5156,402.4277 Q41.1719,402.4277 40.9688,402.2246 Q40.7656,402.0371 40.6563,401.5215 Q40.6094,401.1621 40.4219,400.9746 Q40.0938,400.5996 39.4844,400.3809 Q38.875,400.1621 38.25,400.1621 Q37.4844,400.1621 36.8438,400.4902 Q36.2188,400.8184 35.7188,401.5684 Q35.2344,402.3184 35.2344,403.3496 L35.2344,404.4434 Q35.2344,405.6777 36.125,406.5059 Q37.0156,407.3184 38.6094,407.3184 Q39.5469,407.3184 40.2031,407.0684 Q40.5938,406.9121 41.0156,406.4746 Q41.2813,406.209 41.4219,406.1309 Q41.5781,406.0527 41.7813,406.0527 Q42.1094,406.0527 42.3594,406.3184 Q42.625,406.5684 42.625,406.9121 Q42.625,407.2559 42.2813,407.6621 Q41.7813,408.2402 40.9844,408.5684 Q39.9063,409.0215 38.6094,409.0215 Q37.0938,409.0215 35.8906,408.3965 Q34.9063,407.8965 34.2188,406.834 Q33.5313,405.7559 33.5313,404.4746 L33.5313,403.3184 Q33.5313,401.9902 34.1406,400.8496 Q34.7656,399.6934 35.8594,399.084 Q36.9531,398.459 38.1875,398.459 Q38.9219,398.459 39.5625,398.6309 Q40.2188,398.7871 40.7656,399.1465 Z " fill="#000000"/><text fill="#000000" font-family="sans-serif" font-size="12" font-style="italic" lengthAdjust="spacing" textLength="54" x="69" y="390.9492">&#171;Identity&#187;</text><text fill="#000000" font-family="sans-serif" font-size="12" font-style="italic" lengthAdjust="spacing" textLength="85" x="53.5" y="406.9102">&#171;Value Object&#187;</text><text fill="#000000" font-family="sans-serif" font-size="14" lengthAdjust="spacing" textLength="88" x="52" y="425.0293">JobReference</text><line style="stroke:#181818;stroke-width:0.5;" x1="24" x2="142" y1="433.543" y2="433.543"/><line style="stroke:#181818;stroke-width:0.5;" x1="24" x2="142" y1="441.543" y2="441.543"/></g><!--class TitleOrFunction--><g id="elem_TitleOrFunction"><rect codeLine="7" fill="#F1F1F1" height="60.582" id="TitleOrFunction" rx="2.5" ry="2.5" style="stroke:#181818;stroke-width:0.5;" width="130" x="178" y="381"/><ellipse cx="193" cy="403.291" fill="#ADD1B2" rx="11" ry="11" style="stroke:#181818;stroke-width:1.0;"/><path d="M195.7656,399.166 Q195.9219,398.9473 196.1094,398.8379 Q196.2969,398.7285 196.5156,398.7285 Q196.8906,398.7285 197.125,398.9941 Q197.3594,399.2441 197.3594,399.8535 L197.3594,401.3066 Q197.3594,401.916 197.125,402.1816 Q196.8906,402.4473 196.5156,402.4473 Q196.1719,402.4473 195.9688,402.2441 Q195.7656,402.0566 195.6563,401.541 Q195.6094,401.1816 195.4219,400.9941 Q195.0938,400.6191 194.4844,400.4004 Q193.875,400.1816 193.25,400.1816 Q192.4844,400.1816 191.8438,400.5098 Q191.2188,400.8379 190.7188,401.5879 Q190.2344,402.3379 190.2344,403.3691 L190.2344,404.4629 Q190.2344,405.6973 191.125,406.5254 Q192.0156,407.3379 193.6094,407.3379 Q194.5469,407.3379 195.2031,407.0879 Q195.5938,406.9316 196.0156,406.4941 Q196.2813,406.2285 196.4219,406.1504 Q196.5781,406.0723 196.7813,406.0723 Q197.1094,406.0723 197.3594,406.3379 Q197.625,406.5879 197.625,406.9316 Q197.625,407.2754 197.2813,407.6816 Q196.7813,408.2598 195.9844,408.5879 Q194.9063,409.041 193.6094,409.041 Q192.0938,409.041 190.8906,408.416 Q189.9063,407.916 189.2188,406.8535 Q188.5313,405.7754 188.5313,404.4941 L188.5313,403.3379 Q188.5313,402.0098 189.1406,400.8691 Q189.7656,399.7129 190.8594,399.1035 Q191.9531,398.4785 193.1875,398.4785 Q193.9219,398.4785 194.5625,398.6504 Q195.2188,398.8066 195.7656,399.166 Z " fill="#000000"/><text fill="#000000" font-family="sans-serif" font-size="12" font-style="italic" lengthAdjust="spacing" textLength="85" x="213.5" y="398.9492">&#171;Value Object&#187;</text><text fill="#000000" font-family="sans-serif" font-size="14" lengthAdjust="spacing" textLength="98" x="207" y="417.0684">TitleOrFunction</text><line style="stroke:#181818;stroke-width:0.5;" x1="179" x2="307" y1="425.582" y2="425.582"/><line style="stroke:#181818;stroke-width:0.5;" x1="179" x2="307" y1="433.582" y2="433.582"/></g><!--class ContractType--><g id="elem_ContractType"><rect codeLine="9" fill="#F1F1F1" height="113.7852" id="ContractType" rx="2.5" ry="2.5" style="stroke:#181818;stroke-width:0.5;" width="118" x="345" y="53"/><ellipse cx="360" cy="83.2715" fill="#EB937F" rx="11" ry="11" style="stroke:#181818;stroke-width:1.0;"/><path d="M358.8594,84.0684 L358.8594,86.5684 L363.1875,86.5684 L363.1875,85.6465 Q363.1875,85.0371 363.4219,84.7715 Q363.6719,84.5059 364.0469,84.5059 Q364.4219,84.5059 364.6563,84.7715 Q364.8906,85.0371 364.8906,85.6465 L364.8906,88.2715 L356.8906,88.2715 Q356.2656,88.2715 356,88.0371 Q355.75,87.8027 355.75,87.4121 Q355.75,87.0371 356.0156,86.8027 Q356.2813,86.5684 356.8906,86.5684 L357.1563,86.5684 L357.1563,79.9121 L356.8906,79.9121 Q356.2656,79.9121 356,79.6777 Q355.75,79.4434 355.75,79.0527 Q355.75,78.6777 356,78.4434 Q356.2656,78.209 356.8906,78.209 L364.5156,78.209 L364.5156,80.8027 Q364.5156,81.4121 364.2813,81.6777 Q364.0625,81.9277 363.6719,81.9277 Q363.2969,81.9277 363.0625,81.6777 Q362.8281,81.4121 362.8281,80.8027 L362.8281,79.9121 L358.8594,79.9121 L358.8594,82.3652 L360.3438,82.3652 Q360.3438,81.709 360.4688,81.5215 Q360.7344,81.1152 361.2031,81.1152 Q361.5781,81.1152 361.8125,81.3809 Q362.0469,81.6309 362.0469,82.2402 L362.0469,84.209 Q362.0469,84.7559 361.9219,84.9434 Q361.6563,85.334 361.2031,85.334 Q360.7344,85.334 360.4688,84.9277 Q360.3438,84.7402 360.3438,84.0684 L358.8594,84.0684 Z " fill="#000000"/><text fill="#000000" font-family="sans-serif" font-size="12" font-style="italic" lengthAdjust="spacing" textLength="82" x="376" y="70.9492">&#171;Enumerated&#187;</text><text fill="#000000" font-family="sans-serif" font-size="12" font-style="italic" lengthAdjust="spacing" textLength="85" x="374.5" y="86.9102">&#171;Value Object&#187;</text><text fill="#000000" font-family="sans-serif" font-size="14" lengthAdjust="spacing" textLength="86" x="374" y="105.0293">ContractType</text><line style="stroke:#181818;stroke-width:0.5;" x1="346" x2="462" y1="113.543" y2="113.543"/><text fill="#000000" font-family="sans-serif" font-size="14" lengthAdjust="spacing" textLength="74" x="351" y="132.6504">FULL_TIME</text><text fill="#000000" font-family="sans-serif" font-size="14" lengthAdjust="spacing" textLength="77" x="351" y="151.2715">PART_TIME</text><line style="stroke:#181818;stroke-width:0.5;" x1="346" x2="462" y1="158.7852" y2="158.7852"/></g><!--class Mode--><g id="elem_Mode"><rect codeLine="14" fill="#F1F1F1" height="132.4063" id="Mode" rx="2.5" ry="2.5" style="stroke:#181818;stroke-width:0.5;" width="113" x="196.5" y="44"/><ellipse cx="211.5" cy="74.2715" fill="#EB937F" rx="11" ry="11" style="stroke:#181818;stroke-width:1.0;"/><path d="M210.3594,75.0684 L210.3594,77.5684 L214.6875,77.5684 L214.6875,76.6465 Q214.6875,76.0371 214.9219,75.7715 Q215.1719,75.5059 215.5469,75.5059 Q215.9219,75.5059 216.1563,75.7715 Q216.3906,76.0371 216.3906,76.6465 L216.3906,79.2715 L208.3906,79.2715 Q207.7656,79.2715 207.5,79.0371 Q207.25,78.8027 207.25,78.4121 Q207.25,78.0371 207.5156,77.8027 Q207.7813,77.5684 208.3906,77.5684 L208.6563,77.5684 L208.6563,70.9121 L208.3906,70.9121 Q207.7656,70.9121 207.5,70.6777 Q207.25,70.4434 207.25,70.0527 Q207.25,69.6777 207.5,69.4434 Q207.7656,69.209 208.3906,69.209 L216.0156,69.209 L216.0156,71.8027 Q216.0156,72.4121 215.7813,72.6777 Q215.5625,72.9277 215.1719,72.9277 Q214.7969,72.9277 214.5625,72.6777 Q214.3281,72.4121 214.3281,71.8027 L214.3281,70.9121 L210.3594,70.9121 L210.3594,73.3652 L211.8438,73.3652 Q211.8438,72.709 211.9688,72.5215 Q212.2344,72.1152 212.7031,72.1152 Q213.0781,72.1152 213.3125,72.3809 Q213.5469,72.6309 213.5469,73.2402 L213.5469,75.209 Q213.5469,75.7559 213.4219,75.9434 Q213.1563,76.334 212.7031,76.334 Q212.2344,76.334 211.9688,75.9277 Q211.8438,75.7402 211.8438,75.0684 L210.3594,75.0684 Z " fill="#000000"/><text fill="#000000" font-family="sans-serif" font-size="12" font-style="italic" lengthAdjust="spacing" textLength="82" x="225" y="61.9492">&#171;Enumerated&#187;</text><text fill="#000000" font-family="sans-serif" font-size="12" font-style="italic" lengthAdjust="spacing" textLength="85" x="223.5" y="77.9102">&#171;Value Object&#187;</text><text fill="#000000" font-family="sans-serif" font-size="14" lengthAdjust="spacing" textLength="35" x="248.5" y="96.0293">Mode</text><line style="stroke:#181818;stroke-width:0.5;" x1="197.5" x2="308.5" y1="104.543" y2="104.543"/><text fill="#000000" font-family="sans-serif" font-size="14" lengthAdjust="spacing" textLength="59" x="202.5" y="123.6504">REMOTE</text><text fill="#000000" font-family="sans-serif" font-size="14" lengthAdjust="spacing" textLength="55" x="202.5" y="142.2715">ON-SITE</text><text fill="#000000" font-family="sans-serif" font-size="14" lengthAdjust="spacing" textLength="50" x="202.5" y="160.8926">HYBRID</text><line style="stroke:#181818;stroke-width:0.5;" x1="197.5" x2="308.5" y1="168.4063" y2="168.4063"/></g><!--class VacanciesNumber--><g id="elem_VacanciesNumber"><rect codeLine="21" fill="#F1F1F1" height="60.582" id="VacanciesNumber" rx="2.5" ry="2.5" style="stroke:#181818;stroke-width:0.5;" width="146" x="343" y="381"/><ellipse cx="358" cy="403.291" fill="#ADD1B2" rx="11" ry="11" style="stroke:#181818;stroke-width:1.0;"/><path d="M360.7656,399.166 Q360.9219,398.9473 361.1094,398.8379 Q361.2969,398.7285 361.5156,398.7285 Q361.8906,398.7285 362.125,398.9941 Q362.3594,399.2441 362.3594,399.8535 L362.3594,401.3066 Q362.3594,401.916 362.125,402.1816 Q361.8906,402.4473 361.5156,402.4473 Q361.1719,402.4473 360.9688,402.2441 Q360.7656,402.0566 360.6563,401.541 Q360.6094,401.1816 360.4219,400.9941 Q360.0938,400.6191 359.4844,400.4004 Q358.875,400.1816 358.25,400.1816 Q357.4844,400.1816 356.8438,400.5098 Q356.2188,400.8379 355.7188,401.5879 Q355.2344,402.3379 355.2344,403.3691 L355.2344,404.4629 Q355.2344,405.6973 356.125,406.5254 Q357.0156,407.3379 358.6094,407.3379 Q359.5469,407.3379 360.2031,407.0879 Q360.5938,406.9316 361.0156,406.4941 Q361.2813,406.2285 361.4219,406.1504 Q361.5781,406.0723 361.7813,406.0723 Q362.1094,406.0723 362.3594,406.3379 Q362.625,406.5879 362.625,406.9316 Q362.625,407.2754 362.2813,407.6816 Q361.7813,408.2598 360.9844,408.5879 Q359.9063,409.041 358.6094,409.041 Q357.0938,409.041 355.8906,408.416 Q354.9063,407.916 354.2188,406.8535 Q353.5313,405.7754 353.5313,404.4941 L353.5313,403.3379 Q353.5313,402.0098 354.1406,400.8691 Q354.7656,399.7129 355.8594,399.1035 Q356.9531,398.4785 358.1875,398.4785 Q358.9219,398.4785 359.5625,398.6504 Q360.2188,398.8066 360.7656,399.166 Z " fill="#000000"/><text fill="#000000" font-family="sans-serif" font-size="12" font-style="italic" lengthAdjust="spacing" textLength="85" x="386.5" y="398.9492">&#171;Value Object&#187;</text><text fill="#000000" font-family="sans-serif" font-size="14" lengthAdjust="spacing" textLength="114" x="372" y="417.0684">VacanciesNumber</text><line style="stroke:#181818;stroke-width:0.5;" x1="344" x2="488" y1="425.582" y2="425.582"/><line style="stroke:#181818;stroke-width:0.5;" x1="344" x2="488" y1="433.582" y2="433.582"/></g><!--class Description--><g id="elem_Description"><rect codeLine="23" fill="#F1F1F1" height="60.582" id="Description" rx="2.5" ry="2.5" style="stroke:#181818;stroke-width:0.5;" width="113" x="524.5" y="381"/><ellipse cx="539.5" cy="403.291" fill="#ADD1B2" rx="11" ry="11" style="stroke:#181818;stroke-width:1.0;"/><path d="M542.2656,399.166 Q542.4219,398.9473 542.6094,398.8379 Q542.7969,398.7285 543.0156,398.7285 Q543.3906,398.7285 543.625,398.9941 Q543.8594,399.2441 543.8594,399.8535 L543.8594,401.3066 Q543.8594,401.916 543.625,402.1816 Q543.3906,402.4473 543.0156,402.4473 Q542.6719,402.4473 542.4688,402.2441 Q542.2656,402.0566 542.1563,401.541 Q542.1094,401.1816 541.9219,400.9941 Q541.5938,400.6191 540.9844,400.4004 Q540.375,400.1816 539.75,400.1816 Q538.9844,400.1816 538.3438,400.5098 Q537.7188,400.8379 537.2188,401.5879 Q536.7344,402.3379 536.7344,403.3691 L536.7344,404.4629 Q536.7344,405.6973 537.625,406.5254 Q538.5156,407.3379 540.1094,407.3379 Q541.0469,407.3379 541.7031,407.0879 Q542.0938,406.9316 542.5156,406.4941 Q542.7813,406.2285 542.9219,406.1504 Q543.0781,406.0723 543.2813,406.0723 Q543.6094,406.0723 543.8594,406.3379 Q544.125,406.5879 544.125,406.9316 Q544.125,407.2754 543.7813,407.6816 Q543.2813,408.2598 542.4844,408.5879 Q541.4063,409.041 540.1094,409.041 Q538.5938,409.041 537.3906,408.416 Q536.4063,407.916 535.7188,406.8535 Q535.0313,405.7754 535.0313,404.4941 L535.0313,403.3379 Q535.0313,402.0098 535.6406,400.8691 Q536.2656,399.7129 537.3594,399.1035 Q538.4531,398.4785 539.6875,398.4785 Q540.4219,398.4785 541.0625,398.6504 Q541.7188,398.8066 542.2656,399.166 Z " fill="#000000"/><text fill="#000000" font-family="sans-serif" font-size="12" font-style="italic" lengthAdjust="spacing" textLength="85" x="551.5" y="398.9492">&#171;Value Object&#187;</text><text fill="#000000" font-family="sans-serif" font-size="14" lengthAdjust="spacing" textLength="71" x="558.5" y="417.0684">Description</text><line style="stroke:#181818;stroke-width:0.5;" x1="525.5" x2="636.5" y1="425.582" y2="425.582"/><line style="stroke:#181818;stroke-width:0.5;" x1="525.5" x2="636.5" y1="433.582" y2="433.582"/></g><!--link JobOpening to JobReference--><g id="link_JobOpening_JobReference"><path codeLine="37" d="M264.69,310.79 C227.11,331.42 185.2298,354.3931 148.3898,374.6131 " fill="none" id="JobOpening-to-JobReference" style="stroke:#181818;stroke-width:1.0;"/><polygon fill="#181818" points="143.13,377.5,152.9443,376.6762,147.5132,375.0942,149.0951,369.6631,143.13,377.5" style="stroke:#181818;stroke-width:1.0;"/><text fill="#000000" font-family="sans-serif" font-size="13" lengthAdjust="spacing" textLength="7" x="249.8495" y="311.0748">1</text><text fill="#000000" font-family="sans-serif" font-size="13" lengthAdjust="spacing" textLength="7" x="150.8849" y="369.3942">1</text></g><!--link JobOpening to TitleOrFunction--><g id="link_JobOpening_TitleOrFunction"><path codeLine="38" d="M305.04,313.11 C291.43,334.48 277.8319,355.8084 265.1519,375.7284 " fill="none" id="JobOpening-to-TitleOrFunction" style="stroke:#181818;stroke-width:1.0;"/><polygon fill="#181818" points="261.93,380.79,270.1372,375.3456,264.6149,376.572,263.3885,371.0497,261.93,380.79" style="stroke:#181818;stroke-width:1.0;"/><text fill="#000000" font-family="sans-serif" font-size="13" lengthAdjust="spacing" textLength="7" x="293.6636" y="334.7061">1</text><text fill="#000000" font-family="sans-serif" font-size="13" lengthAdjust="spacing" textLength="7" x="258.1124" y="369.8044">1</text></g><!--reverse link ContractType to JobOpening--><g id="link_ContractType_JobOpening"><path codeLine="39" d="M375.4652,172.8275 C365.0552,195.3775 355.86,215.31 346.5,235.59 " fill="none" id="ContractType-backto-JobOpening" style="stroke:#181818;stroke-width:1.0;"/><polygon fill="#181818" points="377.98,167.38,370.5761,173.8748,375.8843,171.9196,377.8395,177.2279,377.98,167.38" style="stroke:#181818;stroke-width:1.0;"/><text fill="#000000" font-family="sans-serif" font-size="13" lengthAdjust="spacing" textLength="7" x="367.7513" y="188.6416">1</text><text fill="#000000" font-family="sans-serif" font-size="13" lengthAdjust="spacing" textLength="7" x="341.8188" y="224.828">1</text></g><!--reverse link Mode to JobOpening--><g id="link_Mode_JobOpening"><path codeLine="40" d="M286.0121,181.5948 C295.5121,201.9048 303.12,218.17 311.43,235.92 " fill="none" id="Mode-backto-JobOpening" style="stroke:#181818;stroke-width:1.0;"/><polygon fill="#181818" points="283.47,176.16,283.66,186.007,285.5885,180.689,290.9064,182.6175,283.47,176.16" style="stroke:#181818;stroke-width:1.0;"/><text fill="#000000" font-family="sans-serif" font-size="13" lengthAdjust="spacing" textLength="7" x="279.4198" y="198.348">1</text><text fill="#000000" font-family="sans-serif" font-size="13" lengthAdjust="spacing" textLength="7" x="300.6769" y="224.6288">1</text></g><!--link JobOpening to Description--><g id="link_JobOpening_Description"><path codeLine="41" d="M393.24,309.92 C434.22,331.87 481.4814,357.1862 520.5614,378.1262 " fill="none" id="JobOpening-to-Description" style="stroke:#181818;stroke-width:1.0;"/><polygon fill="#181818" points="525.85,380.96,519.8062,373.1836,521.4428,378.5985,516.0279,380.2351,525.85,380.96" style="stroke:#181818;stroke-width:1.0;"/><text fill="#000000" font-family="sans-serif" font-size="13" lengthAdjust="spacing" textLength="7" x="401.0724" y="310.1042">1</text><text fill="#000000" font-family="sans-serif" font-size="13" lengthAdjust="spacing" textLength="7" x="509.5027" y="371.8228">1</text></g><!--link JobOpening to VacanciesNumber--><g id="link_JobOpening_VacanciesNumber"><path codeLine="42" d="M353.23,313.11 C367.01,334.48 380.7711,355.8257 393.6011,375.7457 " fill="none" id="JobOpening-to-VacanciesNumber" style="stroke:#181818;stroke-width:1.0;"/><polygon fill="#181818" points="396.85,380.79,395.3395,371.0577,394.1426,376.5864,388.6138,375.3895,396.85,380.79" style="stroke:#181818;stroke-width:1.0;"/><text fill="#000000" font-family="sans-serif" font-size="13" lengthAdjust="spacing" textLength="7" x="349.5338" y="334.7061">1</text><text fill="#000000" font-family="sans-serif" font-size="13" lengthAdjust="spacing" textLength="7" x="385.1784" y="369.8044">1</text></g><!--SRC=[ZPBFRu8m5CVl_1KDEt32RFU6X2bkNH18gIwUbbBV60iM0kLWpFxt5SC4KHRVgNtlq_Uhtmg4uZBD0PblHOB24cGcKnCz98aGdAEZOI1j8kTrZJJH0HYxQLf1oXKWMXJASJ3sfChKmN6EFwCt53wX0Ya0OxA3Zi9um_C6K9XywnR6hrYcSWYhPIE5oWev1ODizcXUI5LneTYXXBQBPW-LxcjteyRfKMlBjUz_CBBopfx8fQpt3FElYjtTUQct2bcVD0pic0pkhzjdIXRdgwuoc7d31PSYWpfezWbK_oze0RMeid9YEPPXzMZqnMjOwCxhYp-opWEUW7ksPw6HkL7aaxdBI1XS1-CvzRo012_N8H8mZsw8znxVo1cu_ZOcDoBKYzS-k_HtSmoaYSmd4zcsWyp7sKmV-_4xj7Vqw1_NRi7GYnwgzXJ5TbFQfrDVoHYfT1eSIhIZhfXMPbEnmMzF5ndfPnBy1G00]--></g></svg>