<?xml version="1.0" encoding="us-ascii" standalone="no"?><svg xmlns="http://www.w3.org/2000/svg" xmlns:xlink="http://www.w3.org/1999/xlink" contentStyleType="text/css" height="526px" preserveAspectRatio="none" style="width:746px;height:526px;background:#FFFFFF;" version="1.1" viewBox="0 0 746 526" width="746px" zoomAndPan="magnify"><defs/><g><!--cluster authz--><g id="cluster_authz"><path d="M328.5,6.0137 L367.5,6.0137 A3.75,3.75 0 0 1 370,8.5137 L377,30.6348 L505.5,30.6348 A2.5,2.5 0 0 1 508,33.1348 L508,141.5137 A2.5,2.5 0 0 1 505.5,144.0137 L328.5,144.0137 A2.5,2.5 0 0 1 326,141.5137 L326,8.5137 A2.5,2.5 0 0 1 328.5,6.0137 " fill="none" style="stroke:#000000;stroke-width:1.5;"/><line style="stroke:#000000;stroke-width:1.5;" x1="326" x2="377" y1="30.6348" y2="30.6348"/><text fill="#000000" font-family="sans-serif" font-size="14" font-weight="bold" lengthAdjust="spacing" textLength="38" x="330" y="23.1211">authz</text></g><!--cluster Appplication--><g id="cluster_Appplication"><path d="M239.5,212.0137 L327.5,212.0137 A3.75,3.75 0 0 1 330,214.5137 L337,236.6348 L594.5,236.6348 A2.5,2.5 0 0 1 597,239.1348 L597,347.5137 A2.5,2.5 0 0 1 594.5,350.0137 L239.5,350.0137 A2.5,2.5 0 0 1 237,347.5137 L237,214.5137 A2.5,2.5 0 0 1 239.5,212.0137 " fill="none" style="stroke:#000000;stroke-width:1.5;"/><line style="stroke:#000000;stroke-width:1.5;" x1="237" x2="337" y1="236.6348" y2="236.6348"/><text fill="#000000" font-family="sans-serif" font-size="14" font-weight="bold" lengthAdjust="spacing" textLength="87" x="241" y="229.1211">Appplication</text></g><!--cluster Libraries--><g id="cluster_Libraries"><path d="M8.5,418.0137 L71.5,418.0137 A3.75,3.75 0 0 1 74,420.5137 L81,442.6348 L736.5,442.6348 A2.5,2.5 0 0 1 739,445.1348 L739,516.5137 A2.5,2.5 0 0 1 736.5,519.0137 L8.5,519.0137 A2.5,2.5 0 0 1 6,516.5137 L6,420.5137 A2.5,2.5 0 0 1 8.5,418.0137 " fill="none" style="stroke:#000000;stroke-width:1.5;"/><line style="stroke:#000000;stroke-width:1.5;" x1="6" x2="81" y1="442.6348" y2="442.6348"/><text fill="#000000" font-family="sans-serif" font-size="14" font-weight="bold" lengthAdjust="spacing" textLength="62" x="10" y="435.1211">Libraries</text></g><!--class ActivateUserUI--><g id="elem_ActivateUserUI"><rect codeLine="5" fill="#F1F1F1" height="85.2422" id="ActivateUserUI" rx="2.5" ry="2.5" style="stroke:#181818;stroke-width:0.5;" width="149" x="342.5" y="43.0137"/><ellipse cx="369.2" cy="59.0137" fill="#ADD1B2" rx="11" ry="11" style="stroke:#181818;stroke-width:1.0;"/><path d="M371.9656,54.8887 Q372.1219,54.6699 372.3094,54.5605 Q372.4969,54.4512 372.7156,54.4512 Q373.0906,54.4512 373.325,54.7168 Q373.5594,54.9668 373.5594,55.5762 L373.5594,57.0293 Q373.5594,57.6387 373.325,57.9043 Q373.0906,58.1699 372.7156,58.1699 Q372.3719,58.1699 372.1688,57.9668 Q371.9656,57.7793 371.8563,57.2637 Q371.8094,56.9043 371.6219,56.7168 Q371.2938,56.3418 370.6844,56.123 Q370.075,55.9043 369.45,55.9043 Q368.6844,55.9043 368.0438,56.2324 Q367.4188,56.5605 366.9188,57.3105 Q366.4344,58.0605 366.4344,59.0918 L366.4344,60.1855 Q366.4344,61.4199 367.325,62.248 Q368.2156,63.0605 369.8094,63.0605 Q370.7469,63.0605 371.4031,62.8105 Q371.7938,62.6543 372.2156,62.2168 Q372.4813,61.9512 372.6219,61.873 Q372.7781,61.7949 372.9813,61.7949 Q373.3094,61.7949 373.5594,62.0605 Q373.825,62.3105 373.825,62.6543 Q373.825,62.998 373.4813,63.4043 Q372.9813,63.9824 372.1844,64.3105 Q371.1063,64.7637 369.8094,64.7637 Q368.2938,64.7637 367.0906,64.1387 Q366.1063,63.6387 365.4188,62.5762 Q364.7313,61.498 364.7313,60.2168 L364.7313,59.0605 Q364.7313,57.7324 365.3406,56.5918 Q365.9656,55.4355 367.0594,54.8262 Q368.1531,54.2012 369.3875,54.2012 Q370.1219,54.2012 370.7625,54.373 Q371.4188,54.5293 371.9656,54.8887 Z " fill="#000000"/><text fill="#000000" font-family="sans-serif" font-size="14" lengthAdjust="spacing" textLength="91" x="385.8" y="64.8105">ActivateUserUI</text><line style="stroke:#181818;stroke-width:0.5;" x1="343.5" x2="490.5" y1="75.0137" y2="75.0137"/><line style="stroke:#181818;stroke-width:0.5;" x1="343.5" x2="490.5" y1="83.0137" y2="83.0137"/><polygon fill="#FFFF44" points="353.5,92.8242,357.5,96.8242,353.5,100.8242,349.5,96.8242" style="stroke:#B38D22;stroke-width:1.0;"/><text fill="#000000" font-family="sans-serif" font-size="14" lengthAdjust="spacing" textLength="123" x="362.5" y="102.1211">doShow() : boolean</text><ellipse cx="353.5" cy="116.4453" fill="#84BE84" rx="3" ry="3" style="stroke:#038048;stroke-width:1.0;"/><text fill="#000000" font-family="sans-serif" font-size="14" lengthAdjust="spacing" textLength="118" x="362.5" y="120.7422">headLine() : String</text></g><!--class ActivateUserController--><g id="elem_ActivateUserController"><rect codeLine="12" fill="#F1F1F1" height="85.2422" id="ActivateUserController" rx="2.5" ry="2.5" style="stroke:#181818;stroke-width:0.5;" width="327" x="253.5" y="249.0137"/><ellipse cx="342.25" cy="265.0137" fill="#ADD1B2" rx="11" ry="11" style="stroke:#181818;stroke-width:1.0;"/><path d="M345.0156,260.8887 Q345.1719,260.6699 345.3594,260.5605 Q345.5469,260.4512 345.7656,260.4512 Q346.1406,260.4512 346.375,260.7168 Q346.6094,260.9668 346.6094,261.5762 L346.6094,263.0293 Q346.6094,263.6387 346.375,263.9043 Q346.1406,264.1699 345.7656,264.1699 Q345.4219,264.1699 345.2188,263.9668 Q345.0156,263.7793 344.9063,263.2637 Q344.8594,262.9043 344.6719,262.7168 Q344.3438,262.3418 343.7344,262.123 Q343.125,261.9043 342.5,261.9043 Q341.7344,261.9043 341.0938,262.2324 Q340.4688,262.5605 339.9688,263.3105 Q339.4844,264.0605 339.4844,265.0918 L339.4844,266.1855 Q339.4844,267.4199 340.375,268.248 Q341.2656,269.0605 342.8594,269.0605 Q343.7969,269.0605 344.4531,268.8105 Q344.8438,268.6543 345.2656,268.2168 Q345.5313,267.9512 345.6719,267.873 Q345.8281,267.7949 346.0313,267.7949 Q346.3594,267.7949 346.6094,268.0605 Q346.875,268.3105 346.875,268.6543 Q346.875,268.998 346.5313,269.4043 Q346.0313,269.9824 345.2344,270.3105 Q344.1563,270.7637 342.8594,270.7637 Q341.3438,270.7637 340.1406,270.1387 Q339.1563,269.6387 338.4688,268.5762 Q337.7813,267.498 337.7813,266.2168 L337.7813,265.0605 Q337.7813,263.7324 338.3906,262.5918 Q339.0156,261.4355 340.1094,260.8262 Q341.2031,260.2012 342.4375,260.2012 Q343.1719,260.2012 343.8125,260.373 Q344.4688,260.5293 345.0156,260.8887 Z " fill="#000000"/><text fill="#000000" font-family="sans-serif" font-size="14" lengthAdjust="spacing" textLength="141" x="362.75" y="270.8105">ActivateUserController</text><line style="stroke:#181818;stroke-width:0.5;" x1="254.5" x2="579.5" y1="281.0137" y2="281.0137"/><line style="stroke:#181818;stroke-width:0.5;" x1="254.5" x2="579.5" y1="289.0137" y2="289.0137"/><ellipse cx="264.5" cy="303.8242" fill="#84BE84" rx="3" ry="3" style="stroke:#038048;stroke-width:1.0;"/><text fill="#000000" font-family="sans-serif" font-size="14" lengthAdjust="spacing" textLength="269" x="273.5" y="308.1211">deactivatedUsers() : Iterable&lt;SystemUser&gt;</text><ellipse cx="264.5" cy="322.4453" fill="#84BE84" rx="3" ry="3" style="stroke:#038048;stroke-width:1.0;"/><text fill="#000000" font-family="sans-serif" font-size="14" lengthAdjust="spacing" textLength="301" x="273.5" y="326.7422">activateUser(final SysteUser user) : SystemUser</text></g><!--class UserManagementService--><g id="elem_UserManagementService"><rect codeLine="19" fill="#F1F1F1" height="48" id="UserManagementService" rx="2.5" ry="2.5" style="stroke:#181818;stroke-width:0.5;" width="190" x="22" y="455.0137"/><ellipse cx="37" cy="471.0137" fill="#ADD1B2" rx="11" ry="11" style="stroke:#181818;stroke-width:1.0;"/><path d="M39.7656,466.8887 Q39.9219,466.6699 40.1094,466.5605 Q40.2969,466.4512 40.5156,466.4512 Q40.8906,466.4512 41.125,466.7168 Q41.3594,466.9668 41.3594,467.5762 L41.3594,469.0293 Q41.3594,469.6387 41.125,469.9043 Q40.8906,470.1699 40.5156,470.1699 Q40.1719,470.1699 39.9688,469.9668 Q39.7656,469.7793 39.6563,469.2637 Q39.6094,468.9043 39.4219,468.7168 Q39.0938,468.3418 38.4844,468.123 Q37.875,467.9043 37.25,467.9043 Q36.4844,467.9043 35.8438,468.2324 Q35.2188,468.5605 34.7188,469.3105 Q34.2344,470.0605 34.2344,471.0918 L34.2344,472.1855 Q34.2344,473.4199 35.125,474.248 Q36.0156,475.0605 37.6094,475.0605 Q38.5469,475.0605 39.2031,474.8105 Q39.5938,474.6543 40.0156,474.2168 Q40.2813,473.9512 40.4219,473.873 Q40.5781,473.7949 40.7813,473.7949 Q41.1094,473.7949 41.3594,474.0605 Q41.625,474.3105 41.625,474.6543 Q41.625,474.998 41.2813,475.4043 Q40.7813,475.9824 39.9844,476.3105 Q38.9063,476.7637 37.6094,476.7637 Q36.0938,476.7637 34.8906,476.1387 Q33.9063,475.6387 33.2188,474.5762 Q32.5313,473.498 32.5313,472.2168 L32.5313,471.0605 Q32.5313,469.7324 33.1406,468.5918 Q33.7656,467.4355 34.8594,466.8262 Q35.9531,466.2012 37.1875,466.2012 Q37.9219,466.2012 38.5625,466.373 Q39.2188,466.5293 39.7656,466.8887 Z " fill="#000000"/><text fill="#000000" font-family="sans-serif" font-size="14" lengthAdjust="spacing" textLength="158" x="51" y="476.8105">UserManagementService</text><line style="stroke:#181818;stroke-width:0.5;" x1="23" x2="211" y1="487.0137" y2="487.0137"/><line style="stroke:#181818;stroke-width:0.5;" x1="23" x2="211" y1="495.0137" y2="495.0137"/></g><!--class AuthorizationService--><g id="elem_AuthorizationService"><rect codeLine="20" fill="#F1F1F1" height="48" id="AuthorizationService" rx="2.5" ry="2.5" style="stroke:#181818;stroke-width:0.5;" width="161" x="247.5" y="455.0137"/><ellipse cx="262.5" cy="471.0137" fill="#ADD1B2" rx="11" ry="11" style="stroke:#181818;stroke-width:1.0;"/><path d="M265.2656,466.8887 Q265.4219,466.6699 265.6094,466.5605 Q265.7969,466.4512 266.0156,466.4512 Q266.3906,466.4512 266.625,466.7168 Q266.8594,466.9668 266.8594,467.5762 L266.8594,469.0293 Q266.8594,469.6387 266.625,469.9043 Q266.3906,470.1699 266.0156,470.1699 Q265.6719,470.1699 265.4688,469.9668 Q265.2656,469.7793 265.1563,469.2637 Q265.1094,468.9043 264.9219,468.7168 Q264.5938,468.3418 263.9844,468.123 Q263.375,467.9043 262.75,467.9043 Q261.9844,467.9043 261.3438,468.2324 Q260.7188,468.5605 260.2188,469.3105 Q259.7344,470.0605 259.7344,471.0918 L259.7344,472.1855 Q259.7344,473.4199 260.625,474.248 Q261.5156,475.0605 263.1094,475.0605 Q264.0469,475.0605 264.7031,474.8105 Q265.0938,474.6543 265.5156,474.2168 Q265.7813,473.9512 265.9219,473.873 Q266.0781,473.7949 266.2813,473.7949 Q266.6094,473.7949 266.8594,474.0605 Q267.125,474.3105 267.125,474.6543 Q267.125,474.998 266.7813,475.4043 Q266.2813,475.9824 265.4844,476.3105 Q264.4063,476.7637 263.1094,476.7637 Q261.5938,476.7637 260.3906,476.1387 Q259.4063,475.6387 258.7188,474.5762 Q258.0313,473.498 258.0313,472.2168 L258.0313,471.0605 Q258.0313,469.7324 258.6406,468.5918 Q259.2656,467.4355 260.3594,466.8262 Q261.4531,466.2012 262.6875,466.2012 Q263.4219,466.2012 264.0625,466.373 Q264.7188,466.5293 265.2656,466.8887 Z " fill="#000000"/><text fill="#000000" font-family="sans-serif" font-size="14" lengthAdjust="spacing" textLength="129" x="276.5" y="476.8105">AuthorizationService</text><line style="stroke:#181818;stroke-width:0.5;" x1="248.5" x2="407.5" y1="487.0137" y2="487.0137"/><line style="stroke:#181818;stroke-width:0.5;" x1="248.5" x2="407.5" y1="495.0137" y2="495.0137"/></g><!--class LoggerFactory--><g id="elem_LoggerFactory"><rect codeLine="21" fill="#F1F1F1" height="48" id="LoggerFactory" rx="2.5" ry="2.5" style="stroke:#181818;stroke-width:0.5;" width="125" x="443.5" y="455.0137"/><ellipse cx="458.5" cy="471.0137" fill="#ADD1B2" rx="11" ry="11" style="stroke:#181818;stroke-width:1.0;"/><path d="M461.2656,466.8887 Q461.4219,466.6699 461.6094,466.5605 Q461.7969,466.4512 462.0156,466.4512 Q462.3906,466.4512 462.625,466.7168 Q462.8594,466.9668 462.8594,467.5762 L462.8594,469.0293 Q462.8594,469.6387 462.625,469.9043 Q462.3906,470.1699 462.0156,470.1699 Q461.6719,470.1699 461.4688,469.9668 Q461.2656,469.7793 461.1563,469.2637 Q461.1094,468.9043 460.9219,468.7168 Q460.5938,468.3418 459.9844,468.123 Q459.375,467.9043 458.75,467.9043 Q457.9844,467.9043 457.3438,468.2324 Q456.7188,468.5605 456.2188,469.3105 Q455.7344,470.0605 455.7344,471.0918 L455.7344,472.1855 Q455.7344,473.4199 456.625,474.248 Q457.5156,475.0605 459.1094,475.0605 Q460.0469,475.0605 460.7031,474.8105 Q461.0938,474.6543 461.5156,474.2168 Q461.7813,473.9512 461.9219,473.873 Q462.0781,473.7949 462.2813,473.7949 Q462.6094,473.7949 462.8594,474.0605 Q463.125,474.3105 463.125,474.6543 Q463.125,474.998 462.7813,475.4043 Q462.2813,475.9824 461.4844,476.3105 Q460.4063,476.7637 459.1094,476.7637 Q457.5938,476.7637 456.3906,476.1387 Q455.4063,475.6387 454.7188,474.5762 Q454.0313,473.498 454.0313,472.2168 L454.0313,471.0605 Q454.0313,469.7324 454.6406,468.5918 Q455.2656,467.4355 456.3594,466.8262 Q457.4531,466.2012 458.6875,466.2012 Q459.4219,466.2012 460.0625,466.373 Q460.7188,466.5293 461.2656,466.8887 Z " fill="#000000"/><text fill="#000000" font-family="sans-serif" font-size="14" lengthAdjust="spacing" textLength="93" x="472.5" y="476.8105">LoggerFactory</text><line style="stroke:#181818;stroke-width:0.5;" x1="444.5" x2="567.5" y1="487.0137" y2="487.0137"/><line style="stroke:#181818;stroke-width:0.5;" x1="444.5" x2="567.5" y1="495.0137" y2="495.0137"/></g><!--class AuthzRegistry--><g id="elem_AuthzRegistry"><rect codeLine="22" fill="#F1F1F1" height="48" id="AuthzRegistry" rx="2.5" ry="2.5" style="stroke:#181818;stroke-width:0.5;" width="119" x="603.5" y="455.0137"/><ellipse cx="618.5" cy="471.0137" fill="#ADD1B2" rx="11" ry="11" style="stroke:#181818;stroke-width:1.0;"/><path d="M621.2656,466.8887 Q621.4219,466.6699 621.6094,466.5605 Q621.7969,466.4512 622.0156,466.4512 Q622.3906,466.4512 622.625,466.7168 Q622.8594,466.9668 622.8594,467.5762 L622.8594,469.0293 Q622.8594,469.6387 622.625,469.9043 Q622.3906,470.1699 622.0156,470.1699 Q621.6719,470.1699 621.4688,469.9668 Q621.2656,469.7793 621.1563,469.2637 Q621.1094,468.9043 620.9219,468.7168 Q620.5938,468.3418 619.9844,468.123 Q619.375,467.9043 618.75,467.9043 Q617.9844,467.9043 617.3438,468.2324 Q616.7188,468.5605 616.2188,469.3105 Q615.7344,470.0605 615.7344,471.0918 L615.7344,472.1855 Q615.7344,473.4199 616.625,474.248 Q617.5156,475.0605 619.1094,475.0605 Q620.0469,475.0605 620.7031,474.8105 Q621.0938,474.6543 621.5156,474.2168 Q621.7813,473.9512 621.9219,473.873 Q622.0781,473.7949 622.2813,473.7949 Q622.6094,473.7949 622.8594,474.0605 Q623.125,474.3105 623.125,474.6543 Q623.125,474.998 622.7813,475.4043 Q622.2813,475.9824 621.4844,476.3105 Q620.4063,476.7637 619.1094,476.7637 Q617.5938,476.7637 616.3906,476.1387 Q615.4063,475.6387 614.7188,474.5762 Q614.0313,473.498 614.0313,472.2168 L614.0313,471.0605 Q614.0313,469.7324 614.6406,468.5918 Q615.2656,467.4355 616.3594,466.8262 Q617.4531,466.2012 618.6875,466.2012 Q619.4219,466.2012 620.0625,466.373 Q620.7188,466.5293 621.2656,466.8887 Z " fill="#000000"/><text fill="#000000" font-family="sans-serif" font-size="14" lengthAdjust="spacing" textLength="87" x="632.5" y="476.8105">AuthzRegistry</text><line style="stroke:#181818;stroke-width:0.5;" x1="604.5" x2="721.5" y1="487.0137" y2="487.0137"/><line style="stroke:#181818;stroke-width:0.5;" x1="604.5" x2="721.5" y1="495.0137" y2="495.0137"/></g><!--link ActivateUserUI to ActivateUserController--><g id="link_ActivateUserUI_ActivateUserController"><path codeLine="25" d="M417,128.2837 C417,163.4937 417,207.6037 417,242.7937 " fill="none" id="ActivateUserUI-to-ActivateUserController" style="stroke:#181818;stroke-width:1.0;stroke-dasharray:7.0,7.0;"/><polygon fill="#181818" points="417,248.7937,421,239.7937,417,243.7937,413,239.7937,417,248.7937" style="stroke:#181818;stroke-width:1.0;"/></g><!--link ActivateUserController to UserManagementService--><g id="link_ActivateUserController_UserManagementService"><path codeLine="26" d="M349.67,334.1437 C289.38,371.4237 208.2833,421.5684 159.5033,451.7284 " fill="none" id="ActivateUserController-to-UserManagementService" style="stroke:#181818;stroke-width:1.0;stroke-dasharray:7.0,7.0;"/><polygon fill="#181818" points="154.4,454.8837,164.1585,453.5529,158.6528,452.2542,159.9514,446.7485,154.4,454.8837" style="stroke:#181818;stroke-width:1.0;"/></g><!--link ActivateUserController to AuthorizationService--><g id="link_ActivateUserController_AuthorizationService"><path codeLine="27" d="M397.03,334.1437 C379.14,371.4237 356.1654,419.3141 341.6954,449.4741 " fill="none" id="ActivateUserController-to-AuthorizationService" style="stroke:#181818;stroke-width:1.0;stroke-dasharray:7.0,7.0;"/><polygon fill="#181818" points="339.1,454.8837,346.5995,448.4995,341.2628,450.3757,339.3867,445.039,339.1,454.8837" style="stroke:#181818;stroke-width:1.0;"/></g><!--link ActivateUserController to LoggerFactory--><g id="link_ActivateUserController_LoggerFactory"><path codeLine="28" d="M436.97,334.1437 C454.86,371.4237 477.8346,419.3141 492.3046,449.4741 " fill="none" id="ActivateUserController-to-LoggerFactory" style="stroke:#181818;stroke-width:1.0;stroke-dasharray:7.0,7.0;"/><polygon fill="#181818" points="494.9,454.8837,494.6133,445.039,492.7372,450.3757,487.4005,448.4995,494.9,454.8837" style="stroke:#181818;stroke-width:1.0;"/></g><!--link ActivateUserController to AuthzRegistry--><g id="link_ActivateUserController_AuthzRegistry"><path codeLine="29" d="M480.45,334.0737 C512.7,355.8337 552.13,383.4237 586,410.0137 C604.1,424.2237 619.0816,437.3253 633.8816,450.8553 " fill="none" id="ActivateUserController-to-AuthzRegistry" style="stroke:#181818;stroke-width:1.0;stroke-dasharray:7.0,7.0;"/><polygon fill="#181818" points="638.31,454.9037,634.3663,445.8788,634.6197,451.53,628.9685,451.7834,638.31,454.9037" style="stroke:#181818;stroke-width:1.0;"/></g><!--SRC=[VL51QiCm4Bph5O8UcX9itqCnX48Xu5vgye2rlBL5PKb8wvIuvE-LrPAuJfmz6EIPqSoi7biYwpTPPXLewZkL2jDbGe7tIIsXST0nPa5yGeCSUce7ziruc4ZXMq7o08HxZsw_ux_GE0-rALlpjNhY6ruPen3q6Lkt27KXDKQq92Tr4y4JErtCjjPQ9GMGD9elURuOJSueXMxYlQuH_ZZrIFBHPqVee5BuN1uzOJS2-KK2aqjN7rA3uf4tddaVFZ7gMNaTjv2L0oVHJwEEr3VG0UzGKudk80LEguI56YU7MF8QBapJe7iDsOmxpcJ3EpRIK_WVGioU8KdIV65DR65xKN8xxZt5pG9BWZJ9PvNkCV-N3FC3]--></g></svg>