<?xml version="1.0" encoding="us-ascii" standalone="no"?><svg xmlns="http://www.w3.org/2000/svg" xmlns:xlink="http://www.w3.org/1999/xlink" contentStyleType="text/css" height="666px" preserveAspectRatio="none" style="width:1222px;height:666px;background:#FFFFFF;" version="1.1" viewBox="0 0 1222 666" width="1222px" zoomAndPan="magnify"><defs/><g><text fill="#000000" font-family="sans-serif" font-size="14" font-weight="bold" lengthAdjust="spacing" textLength="277" x="474.25" y="30.1074">US 1005 - List Job Opening Applications</text><rect fill="#FFFFFF" height="441.0742" style="stroke:#181818;stroke-width:1.0;" width="10" x="99.5" y="133.2422"/><rect fill="#FFFFFF" height="31.291" style="stroke:#181818;stroke-width:1.0;" width="10" x="404.5" y="182.8242"/><rect fill="#FFFFFF" height="319.9102" style="stroke:#181818;stroke-width:1.0;" width="10" x="404.5" y="245.4063"/><rect fill="#FFFFFF" height="156.4551" style="stroke:#181818;stroke-width:1.0;" width="10" x="718.5" y="276.6973"/><rect fill="#FFFFFF" height="31.291" style="stroke:#181818;stroke-width:1.0;" width="10" x="961.5" y="307.9883"/><rect fill="#FFFFFF" height="31.291" style="stroke:#181818;stroke-width:1.0;" width="10" x="1126" y="370.5703"/><rect fill="none" height="394.7832" style="stroke:#000000;stroke-width:1.5;" width="1206.5" x="10" y="140.2422"/><line style="stroke:#181818;stroke-width:0.5;stroke-dasharray:5.0,5.0;" x1="104" x2="104" y1="123.2422" y2="583.3164"/><line style="stroke:#181818;stroke-width:0.5;stroke-dasharray:5.0,5.0;" x1="409.5" x2="409.5" y1="123.2422" y2="583.3164"/><line style="stroke:#181818;stroke-width:0.5;stroke-dasharray:5.0,5.0;" x1="723.5" x2="723.5" y1="123.2422" y2="583.3164"/><line style="stroke:#181818;stroke-width:0.5;stroke-dasharray:5.0,5.0;" x1="966.5" x2="966.5" y1="123.2422" y2="583.3164"/><line style="stroke:#181818;stroke-width:0.5;stroke-dasharray:5.0,5.0;" x1="1130.5" x2="1130.5" y1="123.2422" y2="583.3164"/><text fill="#000000" font-family="sans-serif" font-size="14" lengthAdjust="spacing" textLength="163" x="20" y="119.7285">User - Customer Manager</text><ellipse cx="104.5" cy="53.1211" fill="#E2E2F0" rx="8" ry="8" style="stroke:#181818;stroke-width:0.5;"/><path d="M104.5,61.1211 L104.5,88.1211 M91.5,69.1211 L117.5,69.1211 M104.5,88.1211 L91.5,103.1211 M104.5,88.1211 L117.5,103.1211 " fill="none" style="stroke:#181818;stroke-width:0.5;"/><text fill="#000000" font-family="sans-serif" font-size="14" lengthAdjust="spacing" textLength="163" x="20" y="597.4238">User - Customer Manager</text><ellipse cx="104.5" cy="609.4375" fill="#E2E2F0" rx="8" ry="8" style="stroke:#181818;stroke-width:0.5;"/><path d="M104.5,617.4375 L104.5,644.4375 M91.5,625.4375 L117.5,625.4375 M104.5,644.4375 L91.5,659.4375 M104.5,644.4375 L117.5,659.4375 " fill="none" style="stroke:#181818;stroke-width:0.5;"/><rect fill="#E2E2F0" height="32.6211" rx="2.5" ry="2.5" style="stroke:#181818;stroke-width:0.5;" width="192" x="313.5" y="89.6211"/><text fill="#000000" font-family="sans-serif" font-size="14" lengthAdjust="spacing" textLength="178" x="320.5" y="111.7285">ListJobOpeningAplicationsUI</text><rect fill="#E2E2F0" height="32.6211" rx="2.5" ry="2.5" style="stroke:#181818;stroke-width:0.5;" width="192" x="313.5" y="582.3164"/><text fill="#000000" font-family="sans-serif" font-size="14" lengthAdjust="spacing" textLength="178" x="320.5" y="604.4238">ListJobOpeningAplicationsUI</text><rect fill="#E2E2F0" height="32.6211" rx="2.5" ry="2.5" style="stroke:#181818;stroke-width:0.5;" width="242" x="602.5" y="89.6211"/><text fill="#000000" font-family="sans-serif" font-size="14" lengthAdjust="spacing" textLength="228" x="609.5" y="111.7285">ListJobOpeningAplicationsController</text><rect fill="#E2E2F0" height="32.6211" rx="2.5" ry="2.5" style="stroke:#181818;stroke-width:0.5;" width="242" x="602.5" y="582.3164"/><text fill="#000000" font-family="sans-serif" font-size="14" lengthAdjust="spacing" textLength="228" x="609.5" y="604.4238">ListJobOpeningAplicationsController</text><rect fill="#E2E2F0" height="32.6211" rx="2.5" ry="2.5" style="stroke:#181818;stroke-width:0.5;" width="158" x="887.5" y="89.6211"/><text fill="#000000" font-family="sans-serif" font-size="14" lengthAdjust="spacing" textLength="144" x="894.5" y="111.7285">JobOpeningRepository</text><rect fill="#E2E2F0" height="32.6211" rx="2.5" ry="2.5" style="stroke:#181818;stroke-width:0.5;" width="158" x="887.5" y="582.3164"/><text fill="#000000" font-family="sans-serif" font-size="14" lengthAdjust="spacing" textLength="144" x="894.5" y="604.4238">JobOpeningRepository</text><rect fill="#E2E2F0" height="32.6211" rx="2.5" ry="2.5" style="stroke:#181818;stroke-width:0.5;" width="151" x="1055.5" y="89.6211"/><text fill="#000000" font-family="sans-serif" font-size="14" lengthAdjust="spacing" textLength="137" x="1062.5" y="111.7285">ApplicationRepository</text><rect fill="#E2E2F0" height="32.6211" rx="2.5" ry="2.5" style="stroke:#181818;stroke-width:0.5;" width="151" x="1055.5" y="582.3164"/><text fill="#000000" font-family="sans-serif" font-size="14" lengthAdjust="spacing" textLength="137" x="1062.5" y="604.4238">ApplicationRepository</text><rect fill="#FFFFFF" height="441.0742" style="stroke:#181818;stroke-width:1.0;" width="10" x="99.5" y="133.2422"/><rect fill="#FFFFFF" height="31.291" style="stroke:#181818;stroke-width:1.0;" width="10" x="404.5" y="182.8242"/><rect fill="#FFFFFF" height="319.9102" style="stroke:#181818;stroke-width:1.0;" width="10" x="404.5" y="245.4063"/><rect fill="#FFFFFF" height="156.4551" style="stroke:#181818;stroke-width:1.0;" width="10" x="718.5" y="276.6973"/><rect fill="#FFFFFF" height="31.291" style="stroke:#181818;stroke-width:1.0;" width="10" x="961.5" y="307.9883"/><rect fill="#FFFFFF" height="31.291" style="stroke:#181818;stroke-width:1.0;" width="10" x="1126" y="370.5703"/><path d="M10,140.2422 L83,140.2422 L83,149.5332 L73,159.5332 L10,159.5332 L10,140.2422 " fill="#EEEEEE" style="stroke:#000000;stroke-width:1.5;"/><rect fill="none" height="394.7832" style="stroke:#000000;stroke-width:1.5;" width="1206.5" x="10" y="140.2422"/><text fill="#000000" font-family="sans-serif" font-size="13" font-weight="bold" lengthAdjust="spacing" textLength="28" x="25" y="155.2705">loop</text><text fill="#000000" font-family="sans-serif" font-size="11" font-weight="bold" lengthAdjust="spacing" textLength="140" x="98" y="154.1123">[until user wants to stop]</text><polygon fill="#181818" points="392.5,178.8242,402.5,182.8242,392.5,186.8242,396.5,182.8242" style="stroke:#181818;stroke-width:1.0;"/><line style="stroke:#181818;stroke-width:1.0;" x1="109.5" x2="398.5" y1="182.8242" y2="182.8242"/><text fill="#000000" font-family="sans-serif" font-size="13" lengthAdjust="spacing" textLength="207" x="116.5" y="177.5615">asks to list job opening applications</text><polygon fill="#181818" points="120.5,210.1152,110.5,214.1152,120.5,218.1152,116.5,214.1152" style="stroke:#181818;stroke-width:1.0;"/><line style="stroke:#181818;stroke-width:1.0;" x1="114.5" x2="408.5" y1="214.1152" y2="214.1152"/><text fill="#000000" font-family="sans-serif" font-size="13" lengthAdjust="spacing" textLength="168" x="126.5" y="208.8525">request job reference number</text><polygon fill="#181818" points="392.5,241.4063,402.5,245.4063,392.5,249.4063,396.5,245.4063" style="stroke:#181818;stroke-width:1.0;"/><line style="stroke:#181818;stroke-width:1.0;" x1="109.5" x2="398.5" y1="245.4063" y2="245.4063"/><text fill="#000000" font-family="sans-serif" font-size="13" lengthAdjust="spacing" textLength="172" x="116.5" y="240.1436">provides job reference number</text><polygon fill="#181818" points="706.5,272.6973,716.5,276.6973,706.5,280.6973,710.5,276.6973" style="stroke:#181818;stroke-width:1.0;"/><line style="stroke:#181818;stroke-width:1.0;" x1="414.5" x2="712.5" y1="276.6973" y2="276.6973"/><text fill="#000000" font-family="sans-serif" font-size="13" lengthAdjust="spacing" textLength="285" x="421.5" y="271.4346">getJobOpeningApplications(jobReferenceNumber)</text><polygon fill="#181818" points="949.5,303.9883,959.5,307.9883,949.5,311.9883,953.5,307.9883" style="stroke:#181818;stroke-width:1.0;"/><line style="stroke:#181818;stroke-width:1.0;" x1="728.5" x2="955.5" y1="307.9883" y2="307.9883"/><text fill="#000000" font-family="sans-serif" font-size="13" lengthAdjust="spacing" textLength="214" x="735.5" y="302.7256">getJobOpening(jobReferenceNumber)</text><polygon fill="#181818" points="739.5,335.2793,729.5,339.2793,739.5,343.2793,735.5,339.2793" style="stroke:#181818;stroke-width:1.0;"/><line style="stroke:#181818;stroke-width:1.0;stroke-dasharray:2.0,2.0;" x1="733.5" x2="965.5" y1="339.2793" y2="339.2793"/><text fill="#000000" font-family="sans-serif" font-size="13" lengthAdjust="spacing" textLength="65" x="745.5" y="334.0166">jobOpening</text><polygon fill="#181818" points="1114,366.5703,1124,370.5703,1114,374.5703,1118,370.5703" style="stroke:#181818;stroke-width:1.0;"/><line style="stroke:#181818;stroke-width:1.0;" x1="728.5" x2="1120" y1="370.5703" y2="370.5703"/><text fill="#000000" font-family="sans-serif" font-size="13" lengthAdjust="spacing" textLength="248" x="735.5" y="365.3076">findApplicationsByJobOpening(jobOpening)</text><polygon fill="#181818" points="739.5,397.8613,729.5,401.8613,739.5,405.8613,735.5,401.8613" style="stroke:#181818;stroke-width:1.0;"/><line style="stroke:#181818;stroke-width:1.0;stroke-dasharray:2.0,2.0;" x1="733.5" x2="1130" y1="401.8613" y2="401.8613"/><text fill="#000000" font-family="sans-serif" font-size="13" lengthAdjust="spacing" textLength="335" x="745.5" y="396.5986">returns Map&lt;JobOpening, List&lt;Application&gt;&gt; applications</text><polygon fill="#181818" points="425.5,429.1523,415.5,433.1523,425.5,437.1523,421.5,433.1523" style="stroke:#181818;stroke-width:1.0;"/><line style="stroke:#181818;stroke-width:1.0;stroke-dasharray:2.0,2.0;" x1="419.5" x2="722.5" y1="433.1523" y2="433.1523"/><text fill="#000000" font-family="sans-serif" font-size="13" lengthAdjust="spacing" textLength="69" x="431.5" y="427.8896">applications</text><polygon fill="#181818" points="120.5,460.4434,110.5,464.4434,120.5,468.4434,116.5,464.4434" style="stroke:#181818;stroke-width:1.0;"/><line style="stroke:#181818;stroke-width:1.0;stroke-dasharray:2.0,2.0;" x1="114.5" x2="403.5" y1="464.4434" y2="464.4434"/><text fill="#000000" font-family="sans-serif" font-size="13" lengthAdjust="spacing" textLength="189" x="126.5" y="459.1807">displayApplications(applications)</text><polygon fill="#181818" points="120.5,491.7344,110.5,495.7344,120.5,499.7344,116.5,495.7344" style="stroke:#181818;stroke-width:1.0;"/><line style="stroke:#181818;stroke-width:1.0;" x1="114.5" x2="403.5" y1="495.7344" y2="495.7344"/><text fill="#000000" font-family="sans-serif" font-size="13" lengthAdjust="spacing" textLength="271" x="126.5" y="490.4717">asks User if they want to list more applications</text><polygon fill="#181818" points="392.5,523.0254,402.5,527.0254,392.5,531.0254,396.5,527.0254" style="stroke:#181818;stroke-width:1.0;"/><line style="stroke:#181818;stroke-width:1.0;" x1="109.5" x2="398.5" y1="527.0254" y2="527.0254"/><text fill="#000000" font-family="sans-serif" font-size="13" lengthAdjust="spacing" textLength="92" x="116.5" y="521.7627">provides answer</text><polygon fill="#181818" points="120.5,561.3164,110.5,565.3164,120.5,569.3164,116.5,565.3164" style="stroke:#181818;stroke-width:1.0;"/><line style="stroke:#181818;stroke-width:1.0;stroke-dasharray:2.0,2.0;" x1="114.5" x2="408.5" y1="565.3164" y2="565.3164"/><text fill="#000000" font-family="sans-serif" font-size="13" lengthAdjust="spacing" textLength="106" x="126.5" y="560.0537">goodbye message</text><!--SRC=[ZPJFRi8m3CRlVGgBqoODYHrsGGY9SUgqFn8J3n2eOM5jaYKfg6y_fmJYTaKQ9vVc-zd-xDHBNoAiF-5nCdc2CRnAv-55R-33e99g3mjZIhaLNchbianilROmMZkqT7XPEwyh2j-44dkq8n0EmhiiCy9wkPL6A0-Z02LcH2uIS9sV9Va_po-rybQNPKoL7hlwf5sXqKvIpKqhI8zT0MkofnXyaz6lrDf0hRmieGvkd0Zam6iWIqpmIHw5n-Z6sQyvDJebw7TxhWnE7yXf7PqMVQSZ8ITztgg9CWMBFpL6gSKTMbHR15LNcv2fmAwG9JPM7sM1xePo867oTmfxx8mabNf7kDM5zjx2xXcDpIXBSQ0dFtlqGU8LoCUGOXZtwZrSSTmJBkvMCpZeAUoaAdYtpqstpXYo-cvipE3VVwgckVZQAaStoinIfeVsNiuOOpxlxGjhShW2tkvb5Jc10VZCmYPSTw-GpfIYwOoVGsZmR5SXBdiRontuBspQUt9T_qfRxFKnkB52kLCe1bK1uUBrojfhNMmQX0gTe-zG_nRy0W00]--></g></svg>