<?xml version="1.0" encoding="us-ascii" standalone="no"?><svg xmlns="http://www.w3.org/2000/svg" xmlns:xlink="http://www.w3.org/1999/xlink" contentStyleType="text/css" height="626px" preserveAspectRatio="none" style="width:1222px;height:626px;background:#FFFFFF;" version="1.1" viewBox="0 0 1222 626" width="1222px" zoomAndPan="magnify"><defs/><g><rect fill="#FFFFFF" height="441.0742" style="stroke:#181818;stroke-width:1.0;" width="10" x="99.5" y="93.6211"/><rect fill="#FFFFFF" height="31.291" style="stroke:#181818;stroke-width:1.0;" width="10" x="404.5" y="143.2031"/><rect fill="#FFFFFF" height="319.9102" style="stroke:#181818;stroke-width:1.0;" width="10" x="404.5" y="205.7852"/><rect fill="#FFFFFF" height="156.4551" style="stroke:#181818;stroke-width:1.0;" width="10" x="718.5" y="237.0762"/><rect fill="#FFFFFF" height="31.291" style="stroke:#181818;stroke-width:1.0;" width="10" x="961.5" y="268.3672"/><rect fill="#FFFFFF" height="31.291" style="stroke:#181818;stroke-width:1.0;" width="10" x="1126" y="330.9492"/><rect fill="none" height="394.7832" style="stroke:#000000;stroke-width:1.5;" width="1206.5" x="10" y="100.6211"/><line style="stroke:#181818;stroke-width:0.5;stroke-dasharray:5.0,5.0;" x1="104" x2="104" y1="83.6211" y2="543.6953"/><line style="stroke:#181818;stroke-width:0.5;stroke-dasharray:5.0,5.0;" x1="409.5" x2="409.5" y1="83.6211" y2="543.6953"/><line style="stroke:#181818;stroke-width:0.5;stroke-dasharray:5.0,5.0;" x1="723.5" x2="723.5" y1="83.6211" y2="543.6953"/><line style="stroke:#181818;stroke-width:0.5;stroke-dasharray:5.0,5.0;" x1="966.5" x2="966.5" y1="83.6211" y2="543.6953"/><line style="stroke:#181818;stroke-width:0.5;stroke-dasharray:5.0,5.0;" x1="1130.5" x2="1130.5" y1="83.6211" y2="543.6953"/><text fill="#000000" font-family="sans-serif" font-size="14" lengthAdjust="spacing" textLength="163" x="20" y="80.1074">User - Customer Manager</text><ellipse cx="104.5" cy="13.5" fill="#E2E2F0" rx="8" ry="8" style="stroke:#181818;stroke-width:0.5;"/><path d="M104.5,21.5 L104.5,48.5 M91.5,29.5 L117.5,29.5 M104.5,48.5 L91.5,63.5 M104.5,48.5 L117.5,63.5 " fill="none" style="stroke:#181818;stroke-width:0.5;"/><text fill="#000000" font-family="sans-serif" font-size="14" lengthAdjust="spacing" textLength="163" x="20" y="557.8027">User - Customer Manager</text><ellipse cx="104.5" cy="569.8164" fill="#E2E2F0" rx="8" ry="8" style="stroke:#181818;stroke-width:0.5;"/><path d="M104.5,577.8164 L104.5,604.8164 M91.5,585.8164 L117.5,585.8164 M104.5,604.8164 L91.5,619.8164 M104.5,604.8164 L117.5,619.8164 " fill="none" style="stroke:#181818;stroke-width:0.5;"/><rect fill="#E2E2F0" height="32.6211" rx="2.5" ry="2.5" style="stroke:#181818;stroke-width:0.5;" width="192" x="313.5" y="50"/><text fill="#000000" font-family="sans-serif" font-size="14" lengthAdjust="spacing" textLength="178" x="320.5" y="72.1074">ListJobOpeningAplicationsUI</text><rect fill="#E2E2F0" height="32.6211" rx="2.5" ry="2.5" style="stroke:#181818;stroke-width:0.5;" width="192" x="313.5" y="542.6953"/><text fill="#000000" font-family="sans-serif" font-size="14" lengthAdjust="spacing" textLength="178" x="320.5" y="564.8027">ListJobOpeningAplicationsUI</text><rect fill="#E2E2F0" height="32.6211" rx="2.5" ry="2.5" style="stroke:#181818;stroke-width:0.5;" width="242" x="602.5" y="50"/><text fill="#000000" font-family="sans-serif" font-size="14" lengthAdjust="spacing" textLength="228" x="609.5" y="72.1074">ListJobOpeningAplicationsController</text><rect fill="#E2E2F0" height="32.6211" rx="2.5" ry="2.5" style="stroke:#181818;stroke-width:0.5;" width="242" x="602.5" y="542.6953"/><text fill="#000000" font-family="sans-serif" font-size="14" lengthAdjust="spacing" textLength="228" x="609.5" y="564.8027">ListJobOpeningAplicationsController</text><rect fill="#E2E2F0" height="32.6211" rx="2.5" ry="2.5" style="stroke:#181818;stroke-width:0.5;" width="158" x="887.5" y="50"/><text fill="#000000" font-family="sans-serif" font-size="14" lengthAdjust="spacing" textLength="144" x="894.5" y="72.1074">JobOpeningRepository</text><rect fill="#E2E2F0" height="32.6211" rx="2.5" ry="2.5" style="stroke:#181818;stroke-width:0.5;" width="158" x="887.5" y="542.6953"/><text fill="#000000" font-family="sans-serif" font-size="14" lengthAdjust="spacing" textLength="144" x="894.5" y="564.8027">JobOpeningRepository</text><rect fill="#E2E2F0" height="32.6211" rx="2.5" ry="2.5" style="stroke:#181818;stroke-width:0.5;" width="151" x="1055.5" y="50"/><text fill="#000000" font-family="sans-serif" font-size="14" lengthAdjust="spacing" textLength="137" x="1062.5" y="72.1074">ApplicationRepository</text><rect fill="#E2E2F0" height="32.6211" rx="2.5" ry="2.5" style="stroke:#181818;stroke-width:0.5;" width="151" x="1055.5" y="542.6953"/><text fill="#000000" font-family="sans-serif" font-size="14" lengthAdjust="spacing" textLength="137" x="1062.5" y="564.8027">ApplicationRepository</text><rect fill="#FFFFFF" height="441.0742" style="stroke:#181818;stroke-width:1.0;" width="10" x="99.5" y="93.6211"/><rect fill="#FFFFFF" height="31.291" style="stroke:#181818;stroke-width:1.0;" width="10" x="404.5" y="143.2031"/><rect fill="#FFFFFF" height="319.9102" style="stroke:#181818;stroke-width:1.0;" width="10" x="404.5" y="205.7852"/><rect fill="#FFFFFF" height="156.4551" style="stroke:#181818;stroke-width:1.0;" width="10" x="718.5" y="237.0762"/><rect fill="#FFFFFF" height="31.291" style="stroke:#181818;stroke-width:1.0;" width="10" x="961.5" y="268.3672"/><rect fill="#FFFFFF" height="31.291" style="stroke:#181818;stroke-width:1.0;" width="10" x="1126" y="330.9492"/><path d="M10,100.6211 L83,100.6211 L83,109.9121 L73,119.9121 L10,119.9121 L10,100.6211 " fill="#EEEEEE" style="stroke:#000000;stroke-width:1.5;"/><rect fill="none" height="394.7832" style="stroke:#000000;stroke-width:1.5;" width="1206.5" x="10" y="100.6211"/><text fill="#000000" font-family="sans-serif" font-size="13" font-weight="bold" lengthAdjust="spacing" textLength="28" x="25" y="115.6494">loop</text><text fill="#000000" font-family="sans-serif" font-size="11" font-weight="bold" lengthAdjust="spacing" textLength="140" x="98" y="114.4912">[until user wants to stop]</text><polygon fill="#181818" points="392.5,139.2031,402.5,143.2031,392.5,147.2031,396.5,143.2031" style="stroke:#181818;stroke-width:1.0;"/><line style="stroke:#181818;stroke-width:1.0;" x1="109.5" x2="398.5" y1="143.2031" y2="143.2031"/><text fill="#000000" font-family="sans-serif" font-size="13" lengthAdjust="spacing" textLength="207" x="116.5" y="137.9404">asks to list job opening applications</text><polygon fill="#181818" points="120.5,170.4941,110.5,174.4941,120.5,178.4941,116.5,174.4941" style="stroke:#181818;stroke-width:1.0;"/><line style="stroke:#181818;stroke-width:1.0;" x1="114.5" x2="408.5" y1="174.4941" y2="174.4941"/><text fill="#000000" font-family="sans-serif" font-size="13" lengthAdjust="spacing" textLength="168" x="126.5" y="169.2314">request job reference number</text><polygon fill="#181818" points="392.5,201.7852,402.5,205.7852,392.5,209.7852,396.5,205.7852" style="stroke:#181818;stroke-width:1.0;"/><line style="stroke:#181818;stroke-width:1.0;" x1="109.5" x2="398.5" y1="205.7852" y2="205.7852"/><text fill="#000000" font-family="sans-serif" font-size="13" lengthAdjust="spacing" textLength="172" x="116.5" y="200.5225">provides job reference number</text><polygon fill="#181818" points="706.5,233.0762,716.5,237.0762,706.5,241.0762,710.5,237.0762" style="stroke:#181818;stroke-width:1.0;"/><line style="stroke:#181818;stroke-width:1.0;" x1="414.5" x2="712.5" y1="237.0762" y2="237.0762"/><text fill="#000000" font-family="sans-serif" font-size="13" lengthAdjust="spacing" textLength="285" x="421.5" y="231.8135">getJobOpeningApplications(jobReferenceNumber)</text><polygon fill="#181818" points="949.5,264.3672,959.5,268.3672,949.5,272.3672,953.5,268.3672" style="stroke:#181818;stroke-width:1.0;"/><line style="stroke:#181818;stroke-width:1.0;" x1="728.5" x2="955.5" y1="268.3672" y2="268.3672"/><text fill="#000000" font-family="sans-serif" font-size="13" lengthAdjust="spacing" textLength="214" x="735.5" y="263.1045">getJobOpening(jobReferenceNumber)</text><polygon fill="#181818" points="739.5,295.6582,729.5,299.6582,739.5,303.6582,735.5,299.6582" style="stroke:#181818;stroke-width:1.0;"/><line style="stroke:#181818;stroke-width:1.0;stroke-dasharray:2.0,2.0;" x1="733.5" x2="965.5" y1="299.6582" y2="299.6582"/><text fill="#000000" font-family="sans-serif" font-size="13" lengthAdjust="spacing" textLength="65" x="745.5" y="294.3955">jobOpening</text><polygon fill="#181818" points="1114,326.9492,1124,330.9492,1114,334.9492,1118,330.9492" style="stroke:#181818;stroke-width:1.0;"/><line style="stroke:#181818;stroke-width:1.0;" x1="728.5" x2="1120" y1="330.9492" y2="330.9492"/><text fill="#000000" font-family="sans-serif" font-size="13" lengthAdjust="spacing" textLength="248" x="735.5" y="325.6865">findApplicationsByJobOpening(jobOpening)</text><polygon fill="#181818" points="739.5,358.2402,729.5,362.2402,739.5,366.2402,735.5,362.2402" style="stroke:#181818;stroke-width:1.0;"/><line style="stroke:#181818;stroke-width:1.0;stroke-dasharray:2.0,2.0;" x1="733.5" x2="1130" y1="362.2402" y2="362.2402"/><text fill="#000000" font-family="sans-serif" font-size="13" lengthAdjust="spacing" textLength="335" x="745.5" y="356.9775">returns Map&lt;JobOpening, List&lt;Application&gt;&gt; applications</text><polygon fill="#181818" points="425.5,389.5313,415.5,393.5313,425.5,397.5313,421.5,393.5313" style="stroke:#181818;stroke-width:1.0;"/><line style="stroke:#181818;stroke-width:1.0;stroke-dasharray:2.0,2.0;" x1="419.5" x2="722.5" y1="393.5313" y2="393.5313"/><text fill="#000000" font-family="sans-serif" font-size="13" lengthAdjust="spacing" textLength="69" x="431.5" y="388.2686">applications</text><polygon fill="#181818" points="120.5,420.8223,110.5,424.8223,120.5,428.8223,116.5,424.8223" style="stroke:#181818;stroke-width:1.0;"/><line style="stroke:#181818;stroke-width:1.0;stroke-dasharray:2.0,2.0;" x1="114.5" x2="403.5" y1="424.8223" y2="424.8223"/><text fill="#000000" font-family="sans-serif" font-size="13" lengthAdjust="spacing" textLength="189" x="126.5" y="419.5596">displayApplications(applications)</text><polygon fill="#181818" points="120.5,452.1133,110.5,456.1133,120.5,460.1133,116.5,456.1133" style="stroke:#181818;stroke-width:1.0;"/><line style="stroke:#181818;stroke-width:1.0;" x1="114.5" x2="403.5" y1="456.1133" y2="456.1133"/><text fill="#000000" font-family="sans-serif" font-size="13" lengthAdjust="spacing" textLength="271" x="126.5" y="450.8506">asks User if they want to list more applications</text><polygon fill="#181818" points="392.5,483.4043,402.5,487.4043,392.5,491.4043,396.5,487.4043" style="stroke:#181818;stroke-width:1.0;"/><line style="stroke:#181818;stroke-width:1.0;" x1="109.5" x2="398.5" y1="487.4043" y2="487.4043"/><text fill="#000000" font-family="sans-serif" font-size="13" lengthAdjust="spacing" textLength="92" x="116.5" y="482.1416">provides answer</text><polygon fill="#181818" points="120.5,521.6953,110.5,525.6953,120.5,529.6953,116.5,525.6953" style="stroke:#181818;stroke-width:1.0;"/><line style="stroke:#181818;stroke-width:1.0;stroke-dasharray:2.0,2.0;" x1="114.5" x2="408.5" y1="525.6953" y2="525.6953"/><text fill="#000000" font-family="sans-serif" font-size="13" lengthAdjust="spacing" textLength="106" x="126.5" y="520.4326">goodbye message</text><!--SRC=[ZLJRReCm37tdAwm-RTBw0wYgrFM9QHUfKZyWWCkoGPmbeHL_luHIOXYLnfCXESV7zZ6YS6HWTRHeO0txrZfgVFWcbAZGh41O26T9eeLnif1QA0UhLsdT2-KV6fLKrKxNiX1EahB7x0h9_db_JyePgkiXLNoTuYFsW9giz9gx7X1Vfu2T7dFC48idYNzg8WsjShA6DdJZueaiE0BV4fs8micpS3XquzglhIyqzQJV_RtQ5mbVb0DTfOA8gMp263AFptgqPqd1u4-B0zJW2Gsg0a6rJHuobJW5iiJQq5cMQEyW5nB6_gPGuMGaKUg3fplSsDvxiaV6ncQKn3YmntxEs1SPHq8-XXZ3UgRtQwJZFU7WgPh5GQTmagharJvtKvr3oFJTSSpYvp-g_LnSQvJr6wKtCTCJX9NOC8xjTkONLkIo0bxkpOgSWH7mcGKdZDuhfTMrw2RZvoH-yCohC9YzZ-K9t2Ts_PwCzc_8uAoEHSSAPIz13AeImkBDP5L4PTuXD6Yj_m_Dj-0N]--></g></svg>