<?xml version="1.0" encoding="us-ascii" standalone="no"?><svg xmlns="http://www.w3.org/2000/svg" xmlns:xlink="http://www.w3.org/1999/xlink" contentStyleType="text/css" height="511px" preserveAspectRatio="none" style="width:422px;height:511px;background:#FFFFFF;" version="1.1" viewBox="0 0 422 511" width="422px" zoomAndPan="magnify"><defs/><g><text fill="#000000" font-family="sans-serif" font-size="14" font-weight="bold" lengthAdjust="spacing" textLength="277" x="74.25" y="30.1074">US 1005 - List Job Opening Applications</text><rect fill="#FFFFFF" height="286.6191" style="stroke:#181818;stroke-width:1.0;" width="10" x="32.5" y="133.2422"/><rect fill="#FFFFFF" height="31.291" style="stroke:#181818;stroke-width:1.0;" width="10" x="371.5" y="182.8242"/><rect fill="#FFFFFF" height="62.582" style="stroke:#181818;stroke-width:1.0;" width="10" x="371.5" y="245.4063"/><rect fill="#FFFFFF" height="31.291" style="stroke:#181818;stroke-width:1.0;" width="10" x="371.5" y="372.5703"/><rect fill="none" height="175.7461" style="stroke:#000000;stroke-width:1.5;" width="406.5" x="10" y="140.2422"/><rect fill="none" height="81.873" style="stroke:#000000;stroke-width:1.5;" width="406.5" x="10" y="329.9883"/><line style="stroke:#181818;stroke-width:0.5;stroke-dasharray:5.0,5.0;" x1="37" x2="37" y1="123.2422" y2="428.8613"/><line style="stroke:#181818;stroke-width:0.5;stroke-dasharray:5.0,5.0;" x1="376.5" x2="376.5" y1="123.2422" y2="428.8613"/><text fill="#000000" font-family="sans-serif" font-size="14" lengthAdjust="spacing" textLength="29" x="20" y="119.7285">User</text><ellipse cx="37.5" cy="53.1211" fill="#E2E2F0" rx="8" ry="8" style="stroke:#181818;stroke-width:0.5;"/><path d="M37.5,61.1211 L37.5,88.1211 M24.5,69.1211 L50.5,69.1211 M37.5,88.1211 L24.5,103.1211 M37.5,88.1211 L50.5,103.1211 " fill="none" style="stroke:#181818;stroke-width:0.5;"/><text fill="#000000" font-family="sans-serif" font-size="14" lengthAdjust="spacing" textLength="29" x="20" y="442.9688">User</text><ellipse cx="37.5" cy="454.9824" fill="#E2E2F0" rx="8" ry="8" style="stroke:#181818;stroke-width:0.5;"/><path d="M37.5,462.9824 L37.5,489.9824 M24.5,470.9824 L50.5,470.9824 M37.5,489.9824 L24.5,504.9824 M37.5,489.9824 L50.5,504.9824 " fill="none" style="stroke:#181818;stroke-width:0.5;"/><rect fill="#E2E2F0" height="32.6211" rx="2.5" ry="2.5" style="stroke:#181818;stroke-width:0.5;" width="60" x="346.5" y="89.6211"/><text fill="#000000" font-family="sans-serif" font-size="14" lengthAdjust="spacing" textLength="46" x="353.5" y="111.7285">System</text><rect fill="#E2E2F0" height="32.6211" rx="2.5" ry="2.5" style="stroke:#181818;stroke-width:0.5;" width="60" x="346.5" y="427.8613"/><text fill="#000000" font-family="sans-serif" font-size="14" lengthAdjust="spacing" textLength="46" x="353.5" y="449.9688">System</text><rect fill="#FFFFFF" height="286.6191" style="stroke:#181818;stroke-width:1.0;" width="10" x="32.5" y="133.2422"/><rect fill="#FFFFFF" height="31.291" style="stroke:#181818;stroke-width:1.0;" width="10" x="371.5" y="182.8242"/><rect fill="#FFFFFF" height="62.582" style="stroke:#181818;stroke-width:1.0;" width="10" x="371.5" y="245.4063"/><rect fill="#FFFFFF" height="31.291" style="stroke:#181818;stroke-width:1.0;" width="10" x="371.5" y="372.5703"/><path d="M10,140.2422 L83,140.2422 L83,149.5332 L73,159.5332 L10,159.5332 L10,140.2422 " fill="#EEEEEE" style="stroke:#000000;stroke-width:1.5;"/><rect fill="none" height="175.7461" style="stroke:#000000;stroke-width:1.5;" width="406.5" x="10" y="140.2422"/><text fill="#000000" font-family="sans-serif" font-size="13" font-weight="bold" lengthAdjust="spacing" textLength="28" x="25" y="155.2705">loop</text><text fill="#000000" font-family="sans-serif" font-size="11" font-weight="bold" lengthAdjust="spacing" textLength="140" x="98" y="154.1123">[until User wants to stop]</text><polygon fill="#181818" points="359.5,178.8242,369.5,182.8242,359.5,186.8242,363.5,182.8242" style="stroke:#181818;stroke-width:1.0;"/><line style="stroke:#181818;stroke-width:1.0;" x1="42.5" x2="365.5" y1="182.8242" y2="182.8242"/><text fill="#000000" font-family="sans-serif" font-size="13" lengthAdjust="spacing" textLength="277" x="49.5" y="177.5615">Request to list job applications for a job opening</text><polygon fill="#181818" points="53.5,210.1152,43.5,214.1152,53.5,218.1152,49.5,214.1152" style="stroke:#181818;stroke-width:1.0;"/><line style="stroke:#181818;stroke-width:1.0;stroke-dasharray:2.0,2.0;" x1="47.5" x2="375.5" y1="214.1152" y2="214.1152"/><text fill="#000000" font-family="sans-serif" font-size="13" lengthAdjust="spacing" textLength="171" x="59.5" y="208.8525">asks for job reference number</text><polygon fill="#181818" points="359.5,241.4063,369.5,245.4063,359.5,249.4063,363.5,245.4063" style="stroke:#181818;stroke-width:1.0;"/><line style="stroke:#181818;stroke-width:1.0;" x1="42.5" x2="365.5" y1="245.4063" y2="245.4063"/><text fill="#000000" font-family="sans-serif" font-size="13" lengthAdjust="spacing" textLength="153" x="49.5" y="240.1436">Input job reference number</text><polygon fill="#181818" points="53.5,272.6973,43.5,276.6973,53.5,280.6973,49.5,276.6973" style="stroke:#181818;stroke-width:1.0;"/><line style="stroke:#181818;stroke-width:1.0;stroke-dasharray:2.0,2.0;" x1="47.5" x2="370.5" y1="276.6973" y2="276.6973"/><text fill="#000000" font-family="sans-serif" font-size="13" lengthAdjust="spacing" textLength="279" x="59.5" y="271.4346">returns list of job applications for the job opening</text><polygon fill="#181818" points="53.5,303.9883,43.5,307.9883,53.5,311.9883,49.5,307.9883" style="stroke:#181818;stroke-width:1.0;"/><line style="stroke:#181818;stroke-width:1.0;" x1="47.5" x2="375.5" y1="307.9883" y2="307.9883"/><text fill="#000000" font-family="sans-serif" font-size="13" lengthAdjust="spacing" textLength="305" x="59.5" y="302.7256">Ask if user wants to continue to view job applications</text><path d="M10,329.9883 L71,329.9883 L71,339.2793 L61,349.2793 L10,349.2793 L10,329.9883 " fill="#EEEEEE" style="stroke:#000000;stroke-width:1.5;"/><rect fill="none" height="81.873" style="stroke:#000000;stroke-width:1.5;" width="406.5" x="10" y="329.9883"/><text fill="#000000" font-family="sans-serif" font-size="13" font-weight="bold" lengthAdjust="spacing" textLength="16" x="25" y="345.0166">alt</text><text fill="#000000" font-family="sans-serif" font-size="11" font-weight="bold" lengthAdjust="spacing" textLength="113" x="86" y="343.8584">[User wants to stop]</text><polygon fill="#181818" points="359.5,368.5703,369.5,372.5703,359.5,376.5703,363.5,372.5703" style="stroke:#181818;stroke-width:1.0;"/><line style="stroke:#181818;stroke-width:1.0;stroke-dasharray:2.0,2.0;" x1="42.5" x2="365.5" y1="372.5703" y2="372.5703"/><text fill="#000000" font-family="sans-serif" font-size="13" lengthAdjust="spacing" textLength="92" x="49.5" y="367.3076">Request to stop</text><polygon fill="#181818" points="53.5,399.8613,43.5,403.8613,53.5,407.8613,49.5,403.8613" style="stroke:#181818;stroke-width:1.0;"/><line style="stroke:#181818;stroke-width:1.0;" x1="47.5" x2="375.5" y1="403.8613" y2="403.8613"/><text fill="#000000" font-family="sans-serif" font-size="13" lengthAdjust="spacing" textLength="106" x="59.5" y="398.5986">goodbye message</text><!--SRC=[VP31RiCW44JlVCKeTqlfeHSVAkNOgbAb8Zu0sskNnWOAIwByVS5M8xUsoWdOdPqtouP7Wf9uE1uVKU7LHCQBQ_3coHexuEJzQ5hDnjaeX6xP1QX80Jf22Qy3czPuRHa7UOjCqw5KvDngBfhpS34wvv4ict6HNdDx13j4TbuW7uNg2RB6EtqboWIvDXQIpqoYLmJeixsUlzq2ECllNjctl2MgF4-XpYpdHLGaWNeAP5k2JLD3OMdkQ2LVmpnRdtXV-Bzf84uXmyuHNB-VWZzeaqCMPrNZ5CymFTAlPRKkRz0cAlUBeUjcx3ODsKxeaVUsBfQWcxNVYt_Y_Q0DpdNDZJ1HZ7eWiMVv3G00]--></g></svg>