<?xml version="1.0" encoding="us-ascii" standalone="no"?><svg xmlns="http://www.w3.org/2000/svg" xmlns:xlink="http://www.w3.org/1999/xlink" contentStyleType="text/css" height="1422px" preserveAspectRatio="none" style="width:2384px;height:1422px;background:#FFFFFF;" version="1.1" viewBox="0 0 2384 1422" width="2384px" zoomAndPan="magnify"><defs/><g><text fill="#000000" font-family="sans-serif" font-size="14" font-weight="bold" lengthAdjust="spacing" textLength="688" x="847" y="30.1074">Sequence diagram - 2004 (Upload a text file with the requirements of a candidate for its validation)</text><rect fill="#FFFFFF" height="1197.4277" style="stroke:#181818;stroke-width:1.0;" width="10" x="31.5" y="133.2422"/><rect fill="#FFFFFF" height="388.1523" style="stroke:#181818;stroke-width:1.0;" width="10" x="546.5" y="156.5332"/><rect fill="#FFFFFF" height="745.6934" style="stroke:#181818;stroke-width:1.0;" width="10" x="546.5" y="575.9766"/><rect fill="#FFFFFF" height="219.0371" style="stroke:#181818;stroke-width:1.0;" width="10" x="844.5" y="250.0664"/><rect fill="#FFFFFF" height="93.873" style="stroke:#181818;stroke-width:1.0;" width="10" x="844.5" y="669.8496"/><rect fill="#FFFFFF" height="303.6191" style="stroke:#181818;stroke-width:1.0;" width="10" x="844.5" y="1027.0508"/><rect fill="#FFFFFF" height="31.291" style="stroke:#181818;stroke-width:1.0;" width="10" x="1001.5" y="607.2676"/><rect fill="#FFFFFF" height="31.291" style="stroke:#181818;stroke-width:1.0;" width="10" x="1520.5" y="281.3574"/><rect fill="#FFFFFF" height="31.291" style="stroke:#181818;stroke-width:1.0;" width="10" x="1520.5" y="1058.3418"/><rect fill="#FFFFFF" height="93.873" style="stroke:#181818;stroke-width:1.0;" width="10" x="1706" y="343.9395"/><rect fill="#FFFFFF" height="31.291" style="stroke:#181818;stroke-width:1.0;" width="10" x="1893.5" y="375.2305"/><rect fill="#FFFFFF" height="31.291" style="stroke:#181818;stroke-width:1.0;" width="10" x="2056.5" y="901.8867"/><rect fill="#FFFFFF" height="31.291" style="stroke:#181818;stroke-width:1.0;" width="10" x="2056.5" y="1165.2148"/><rect fill="#FFFFFF" height="31.291" style="stroke:#181818;stroke-width:1.0;" width="10" x="2259.5" y="701.1406"/><rect fill="#FFFFFF" height="31.291" style="stroke:#181818;stroke-width:1.0;" width="10" x="2259.5" y="1227.7969"/><line style="stroke:#181818;stroke-width:0.5;stroke-dasharray:5.0,5.0;" x1="36" x2="36" y1="123.2422" y2="1339.6699"/><line style="stroke:#181818;stroke-width:0.5;stroke-dasharray:5.0,5.0;" x1="551.5" x2="551.5" y1="123.2422" y2="1339.6699"/><line style="stroke:#181818;stroke-width:0.5;stroke-dasharray:5.0,5.0;" x1="849.5" x2="849.5" y1="205.6543" y2="1339.6699"/><line style="stroke:#181818;stroke-width:0.5;stroke-dasharray:5.0,5.0;" x1="1006" x2="1006" y1="123.2422" y2="1339.6699"/><line style="stroke:#181818;stroke-width:0.5;stroke-dasharray:5.0,5.0;" x1="1525" x2="1525" y1="123.2422" y2="1339.6699"/><line style="stroke:#181818;stroke-width:0.5;stroke-dasharray:5.0,5.0;" x1="1711" x2="1711" y1="123.2422" y2="1339.6699"/><line style="stroke:#181818;stroke-width:0.5;stroke-dasharray:5.0,5.0;" x1="1898" x2="1898" y1="123.2422" y2="1339.6699"/><line style="stroke:#181818;stroke-width:0.5;stroke-dasharray:5.0,5.0;" x1="2061" x2="2061" y1="123.2422" y2="1339.6699"/><line style="stroke:#181818;stroke-width:0.5;stroke-dasharray:5.0,5.0;" x1="2264" x2="2264" y1="123.2422" y2="1339.6699"/><text fill="#000000" font-family="sans-serif" font-size="14" lengthAdjust="spacing" textLength="57" x="5" y="119.7285">Operator</text><ellipse cx="36.5" cy="53.1211" fill="#E2E2F0" rx="8" ry="8" style="stroke:#181818;stroke-width:0.5;"/><path d="M36.5,61.1211 L36.5,88.1211 M23.5,69.1211 L49.5,69.1211 M36.5,88.1211 L23.5,103.1211 M36.5,88.1211 L49.5,103.1211 " fill="none" style="stroke:#181818;stroke-width:0.5;"/><text fill="#000000" font-family="sans-serif" font-size="14" lengthAdjust="spacing" textLength="57" x="5" y="1353.7773">Operator</text><ellipse cx="36.5" cy="1365.791" fill="#E2E2F0" rx="8" ry="8" style="stroke:#181818;stroke-width:0.5;"/><path d="M36.5,1373.791 L36.5,1400.791 M23.5,1381.791 L49.5,1381.791 M36.5,1400.791 L23.5,1415.791 M36.5,1400.791 L49.5,1415.791 " fill="none" style="stroke:#181818;stroke-width:0.5;"/><rect fill="#E2E2F0" height="51.2422" rx="2.5" ry="2.5" style="stroke:#181818;stroke-width:0.5;" width="120" x="491.5" y="71"/><text fill="#000000" font-family="sans-serif" font-size="14" font-style="italic" lengthAdjust="spacing" textLength="30" x="536.5" y="93.1074">&#171;UI&#187;</text><text fill="#000000" font-family="sans-serif" font-size="14" lengthAdjust="spacing" textLength="106" x="498.5" y="111.7285">UploadTextFileUI</text><rect fill="#E2E2F0" height="51.2422" rx="2.5" ry="2.5" style="stroke:#181818;stroke-width:0.5;" width="120" x="491.5" y="1338.6699"/><text fill="#000000" font-family="sans-serif" font-size="14" font-style="italic" lengthAdjust="spacing" textLength="30" x="536.5" y="1360.7773">&#171;UI&#187;</text><text fill="#000000" font-family="sans-serif" font-size="14" lengthAdjust="spacing" textLength="106" x="498.5" y="1379.3984">UploadTextFileUI</text><rect fill="#E2E2F0" height="51.2422" rx="2.5" ry="2.5" style="stroke:#181818;stroke-width:0.5;" width="170" x="764.5" y="1338.6699"/><text fill="#000000" font-family="sans-serif" font-size="14" font-style="italic" lengthAdjust="spacing" textLength="84" x="807.5" y="1360.7773">&#171;application&#187;</text><text fill="#000000" font-family="sans-serif" font-size="14" lengthAdjust="spacing" textLength="156" x="771.5" y="1379.3984">UploadTextFileController</text><rect fill="#E2E2F0" height="51.2422" rx="2.5" ry="2.5" style="stroke:#181818;stroke-width:0.5;" width="79" x="967" y="71"/><text fill="#000000" font-family="sans-serif" font-size="14" font-style="italic" lengthAdjust="spacing" textLength="64" x="974.5" y="93.1074">&#171;Domain&#187;</text><text fill="#000000" font-family="sans-serif" font-size="14" lengthAdjust="spacing" textLength="65" x="974" y="111.7285">Candidate</text><rect fill="#E2E2F0" height="51.2422" rx="2.5" ry="2.5" style="stroke:#181818;stroke-width:0.5;" width="79" x="967" y="1338.6699"/><text fill="#000000" font-family="sans-serif" font-size="14" font-style="italic" lengthAdjust="spacing" textLength="64" x="974.5" y="1360.7773">&#171;Domain&#187;</text><text fill="#000000" font-family="sans-serif" font-size="14" lengthAdjust="spacing" textLength="65" x="974" y="1379.3984">Candidate</text><rect fill="#E2E2F0" height="51.2422" rx="2.5" ry="2.5" style="stroke:#181818;stroke-width:0.5;" width="143" x="1454" y="71"/><text fill="#000000" font-family="sans-serif" font-size="14" font-style="italic" lengthAdjust="spacing" textLength="62" x="1494.5" y="93.1074">&#171;Service&#187;</text><text fill="#000000" font-family="sans-serif" font-size="14" lengthAdjust="spacing" textLength="129" x="1461" y="111.7285">AuthorizationService</text><rect fill="#E2E2F0" height="51.2422" rx="2.5" ry="2.5" style="stroke:#181818;stroke-width:0.5;" width="143" x="1454" y="1338.6699"/><text fill="#000000" font-family="sans-serif" font-size="14" font-style="italic" lengthAdjust="spacing" textLength="62" x="1494.5" y="1360.7773">&#171;Service&#187;</text><text fill="#000000" font-family="sans-serif" font-size="14" lengthAdjust="spacing" textLength="129" x="1461" y="1379.3984">AuthorizationService</text><rect fill="#E2E2F0" height="51.2422" rx="2.5" ry="2.5" style="stroke:#181818;stroke-width:0.5;" width="208" x="1607" y="71"/><text fill="#000000" font-family="sans-serif" font-size="14" font-style="italic" lengthAdjust="spacing" textLength="62" x="1680" y="93.1074">&#171;Service&#187;</text><text fill="#000000" font-family="sans-serif" font-size="14" lengthAdjust="spacing" textLength="194" x="1614" y="111.7285">CandidateManagementService</text><rect fill="#E2E2F0" height="51.2422" rx="2.5" ry="2.5" style="stroke:#181818;stroke-width:0.5;" width="208" x="1607" y="1338.6699"/><text fill="#000000" font-family="sans-serif" font-size="14" font-style="italic" lengthAdjust="spacing" textLength="62" x="1680" y="1360.7773">&#171;Service&#187;</text><text fill="#000000" font-family="sans-serif" font-size="14" lengthAdjust="spacing" textLength="194" x="1614" y="1379.3984">CandidateManagementService</text><rect fill="#E2E2F0" height="51.2422" rx="2.5" ry="2.5" style="stroke:#181818;stroke-width:0.5;" width="147" x="1825" y="71"/><text fill="#000000" font-family="sans-serif" font-size="14" font-style="italic" lengthAdjust="spacing" textLength="84" x="1856.5" y="93.1074">&#171;Repository&#187;</text><text fill="#000000" font-family="sans-serif" font-size="14" lengthAdjust="spacing" textLength="133" x="1832" y="111.7285">CandidateRepository</text><rect fill="#E2E2F0" height="51.2422" rx="2.5" ry="2.5" style="stroke:#181818;stroke-width:0.5;" width="147" x="1825" y="1338.6699"/><text fill="#000000" font-family="sans-serif" font-size="14" font-style="italic" lengthAdjust="spacing" textLength="84" x="1856.5" y="1360.7773">&#171;Repository&#187;</text><text fill="#000000" font-family="sans-serif" font-size="14" lengthAdjust="spacing" textLength="133" x="1832" y="1379.3984">CandidateRepository</text><rect fill="#E2E2F0" height="51.2422" rx="2.5" ry="2.5" style="stroke:#181818;stroke-width:0.5;" width="159" x="1982" y="71"/><text fill="#000000" font-family="sans-serif" font-size="14" font-style="italic" lengthAdjust="spacing" textLength="64" x="2029.5" y="93.1074">&#171;Domain&#187;</text><text fill="#000000" font-family="sans-serif" font-size="14" lengthAdjust="spacing" textLength="145" x="1989" y="111.7285">JobOpeningApplication</text><rect fill="#E2E2F0" height="51.2422" rx="2.5" ry="2.5" style="stroke:#181818;stroke-width:0.5;" width="159" x="1982" y="1338.6699"/><text fill="#000000" font-family="sans-serif" font-size="14" font-style="italic" lengthAdjust="spacing" textLength="64" x="2029.5" y="1360.7773">&#171;Domain&#187;</text><text fill="#000000" font-family="sans-serif" font-size="14" lengthAdjust="spacing" textLength="145" x="1989" y="1379.3984">JobOpeningApplication</text><rect fill="#E2E2F0" height="51.2422" rx="2.5" ry="2.5" style="stroke:#181818;stroke-width:0.5;" width="227" x="2151" y="71"/><text fill="#000000" font-family="sans-serif" font-size="14" font-style="italic" lengthAdjust="spacing" textLength="84" x="2222.5" y="93.1074">&#171;Repository&#187;</text><text fill="#000000" font-family="sans-serif" font-size="14" lengthAdjust="spacing" textLength="213" x="2158" y="111.7285">JobOpeningApplicationRepository</text><rect fill="#E2E2F0" height="51.2422" rx="2.5" ry="2.5" style="stroke:#181818;stroke-width:0.5;" width="227" x="2151" y="1338.6699"/><text fill="#000000" font-family="sans-serif" font-size="14" font-style="italic" lengthAdjust="spacing" textLength="84" x="2222.5" y="1360.7773">&#171;Repository&#187;</text><text fill="#000000" font-family="sans-serif" font-size="14" lengthAdjust="spacing" textLength="213" x="2158" y="1379.3984">JobOpeningApplicationRepository</text><rect fill="#FFFFFF" height="1197.4277" style="stroke:#181818;stroke-width:1.0;" width="10" x="31.5" y="133.2422"/><rect fill="#FFFFFF" height="388.1523" style="stroke:#181818;stroke-width:1.0;" width="10" x="546.5" y="156.5332"/><rect fill="#FFFFFF" height="745.6934" style="stroke:#181818;stroke-width:1.0;" width="10" x="546.5" y="575.9766"/><rect fill="#FFFFFF" height="219.0371" style="stroke:#181818;stroke-width:1.0;" width="10" x="844.5" y="250.0664"/><rect fill="#FFFFFF" height="93.873" style="stroke:#181818;stroke-width:1.0;" width="10" x="844.5" y="669.8496"/><rect fill="#FFFFFF" height="303.6191" style="stroke:#181818;stroke-width:1.0;" width="10" x="844.5" y="1027.0508"/><rect fill="#FFFFFF" height="31.291" style="stroke:#181818;stroke-width:1.0;" width="10" x="1001.5" y="607.2676"/><rect fill="#FFFFFF" height="31.291" style="stroke:#181818;stroke-width:1.0;" width="10" x="1520.5" y="281.3574"/><rect fill="#FFFFFF" height="31.291" style="stroke:#181818;stroke-width:1.0;" width="10" x="1520.5" y="1058.3418"/><rect fill="#FFFFFF" height="93.873" style="stroke:#181818;stroke-width:1.0;" width="10" x="1706" y="343.9395"/><rect fill="#FFFFFF" height="31.291" style="stroke:#181818;stroke-width:1.0;" width="10" x="1893.5" y="375.2305"/><rect fill="#FFFFFF" height="31.291" style="stroke:#181818;stroke-width:1.0;" width="10" x="2056.5" y="901.8867"/><rect fill="#FFFFFF" height="31.291" style="stroke:#181818;stroke-width:1.0;" width="10" x="2056.5" y="1165.2148"/><rect fill="#FFFFFF" height="31.291" style="stroke:#181818;stroke-width:1.0;" width="10" x="2259.5" y="701.1406"/><rect fill="#FFFFFF" height="31.291" style="stroke:#181818;stroke-width:1.0;" width="10" x="2259.5" y="1227.7969"/><polygon fill="#181818" points="534.5,152.5332,544.5,156.5332,534.5,160.5332,538.5,156.5332" style="stroke:#181818;stroke-width:1.0;"/><line style="stroke:#181818;stroke-width:1.0;" x1="41.5" x2="540.5" y1="156.5332" y2="156.5332"/><text fill="#000000" font-family="sans-serif" font-size="13" font-weight="bold" lengthAdjust="spacing" textLength="7" x="48.5" y="151.2705">1</text><text fill="#000000" font-family="sans-serif" font-size="13" lengthAdjust="spacing" textLength="375" x="59.5" y="151.2705">Request to upload a text file with the requirements of a candidate</text><polygon fill="#181818" points="752.5,183.8242,762.5,187.8242,752.5,191.8242,756.5,187.8242" style="stroke:#181818;stroke-width:1.0;"/><line style="stroke:#181818;stroke-width:1.0;" x1="556.5" x2="758.5" y1="187.8242" y2="187.8242"/><text fill="#000000" font-family="sans-serif" font-size="13" font-weight="bold" lengthAdjust="spacing" textLength="7" x="563.5" y="182.5615">2</text><text fill="#000000" font-family="sans-serif" font-size="13" lengthAdjust="spacing" textLength="36" x="574.5" y="182.5615">create</text><rect fill="#E2E2F0" height="51.2422" rx="2.5" ry="2.5" style="stroke:#181818;stroke-width:0.5;" width="170" x="764.5" y="164.5332"/><text fill="#000000" font-family="sans-serif" font-size="14" font-style="italic" lengthAdjust="spacing" textLength="84" x="807.5" y="186.6406">&#171;application&#187;</text><text fill="#000000" font-family="sans-serif" font-size="14" lengthAdjust="spacing" textLength="156" x="771.5" y="205.2617">UploadTextFileController</text><polygon fill="#181818" points="832.5,246.0664,842.5,250.0664,832.5,254.0664,836.5,250.0664" style="stroke:#181818;stroke-width:1.0;"/><line style="stroke:#181818;stroke-width:1.0;" x1="556.5" x2="838.5" y1="250.0664" y2="250.0664"/><text fill="#000000" font-family="sans-serif" font-size="13" font-weight="bold" lengthAdjust="spacing" textLength="7" x="563.5" y="244.8037">3</text><text fill="#000000" font-family="sans-serif" font-size="13" lengthAdjust="spacing" textLength="86" x="574.5" y="244.8037">allCandidates()</text><polygon fill="#181818" points="1508.5,277.3574,1518.5,281.3574,1508.5,285.3574,1512.5,281.3574" style="stroke:#181818;stroke-width:1.0;"/><line style="stroke:#181818;stroke-width:1.0;" x1="854.5" x2="1514.5" y1="281.3574" y2="281.3574"/><text fill="#000000" font-family="sans-serif" font-size="13" font-weight="bold" lengthAdjust="spacing" textLength="7" x="861.5" y="276.0947">4</text><text fill="#000000" font-family="sans-serif" font-size="13" lengthAdjust="spacing" textLength="629" x="872.5" y="276.0947">ensureAuthenticatedUserHasAnyOf(BaseRoles.OPERATOR, BaseRoles.ADMIN, BaseRoles.POWERUSER)</text><polygon fill="#181818" points="865.5,308.6484,855.5,312.6484,865.5,316.6484,861.5,312.6484" style="stroke:#181818;stroke-width:1.0;"/><line style="stroke:#181818;stroke-width:1.0;stroke-dasharray:2.0,2.0;" x1="859.5" x2="1524.5" y1="312.6484" y2="312.6484"/><text fill="#000000" font-family="sans-serif" font-size="13" font-weight="bold" lengthAdjust="spacing" textLength="7" x="871.5" y="307.3857">5</text><text fill="#000000" font-family="sans-serif" font-size="13" lengthAdjust="spacing" textLength="198" x="882.5" y="307.3857">ensures the user has operator role</text><polygon fill="#181818" points="1694,339.9395,1704,343.9395,1694,347.9395,1698,343.9395" style="stroke:#181818;stroke-width:1.0;"/><line style="stroke:#181818;stroke-width:1.0;" x1="854.5" x2="1700" y1="343.9395" y2="343.9395"/><text fill="#000000" font-family="sans-serif" font-size="13" font-weight="bold" lengthAdjust="spacing" textLength="7" x="861.5" y="338.6768">6</text><text fill="#000000" font-family="sans-serif" font-size="13" lengthAdjust="spacing" textLength="79" x="872.5" y="338.6768">allCandidate()</text><polygon fill="#181818" points="1881.5,371.2305,1891.5,375.2305,1881.5,379.2305,1885.5,375.2305" style="stroke:#181818;stroke-width:1.0;"/><line style="stroke:#181818;stroke-width:1.0;" x1="1716" x2="1887.5" y1="375.2305" y2="375.2305"/><text fill="#000000" font-family="sans-serif" font-size="13" font-weight="bold" lengthAdjust="spacing" textLength="7" x="1723" y="369.9678">7</text><text fill="#000000" font-family="sans-serif" font-size="13" lengthAdjust="spacing" textLength="108" x="1734" y="369.9678">findAllCandidates()</text><polygon fill="#181818" points="1727,402.5215,1717,406.5215,1727,410.5215,1723,406.5215" style="stroke:#181818;stroke-width:1.0;"/><line style="stroke:#181818;stroke-width:1.0;stroke-dasharray:2.0,2.0;" x1="1721" x2="1897.5" y1="406.5215" y2="406.5215"/><text fill="#000000" font-family="sans-serif" font-size="13" font-weight="bold" lengthAdjust="spacing" textLength="7" x="1733" y="401.2588">8</text><text fill="#000000" font-family="sans-serif" font-size="13" lengthAdjust="spacing" textLength="115" x="1744" y="401.2588">list of all candidates</text><polygon fill="#181818" points="865.5,433.8125,855.5,437.8125,865.5,441.8125,861.5,437.8125" style="stroke:#181818;stroke-width:1.0;"/><line style="stroke:#181818;stroke-width:1.0;stroke-dasharray:2.0,2.0;" x1="859.5" x2="1710" y1="437.8125" y2="437.8125"/><text fill="#000000" font-family="sans-serif" font-size="13" font-weight="bold" lengthAdjust="spacing" textLength="7" x="871.5" y="432.5498">9</text><text fill="#000000" font-family="sans-serif" font-size="13" lengthAdjust="spacing" textLength="115" x="882.5" y="432.5498">list of all candidates</text><polygon fill="#181818" points="567.5,465.1035,557.5,469.1035,567.5,473.1035,563.5,469.1035" style="stroke:#181818;stroke-width:1.0;"/><line style="stroke:#181818;stroke-width:1.0;stroke-dasharray:2.0,2.0;" x1="561.5" x2="848.5" y1="469.1035" y2="469.1035"/><text fill="#000000" font-family="sans-serif" font-size="13" font-weight="bold" lengthAdjust="spacing" textLength="14" x="573.5" y="463.8408">10</text><text fill="#000000" font-family="sans-serif" font-size="13" lengthAdjust="spacing" textLength="115" x="591.5" y="463.8408">list of all candidates</text><line style="stroke:#181818;stroke-width:1.0;stroke-dasharray:2.0,2.0;" x1="556.5" x2="598.5" y1="500.3945" y2="500.3945"/><line style="stroke:#181818;stroke-width:1.0;stroke-dasharray:2.0,2.0;" x1="598.5" x2="598.5" y1="500.3945" y2="513.3945"/><line style="stroke:#181818;stroke-width:1.0;stroke-dasharray:2.0,2.0;" x1="557.5" x2="598.5" y1="513.3945" y2="513.3945"/><polygon fill="#181818" points="567.5,509.3945,557.5,513.3945,567.5,517.3945,563.5,513.3945" style="stroke:#181818;stroke-width:1.0;"/><text fill="#000000" font-family="sans-serif" font-size="13" font-weight="bold" lengthAdjust="spacing" textLength="14" x="563.5" y="495.1318">11</text><text fill="#000000" font-family="sans-serif" font-size="13" lengthAdjust="spacing" textLength="233" x="581.5" y="495.1318">printNumeratedList(message, collection)</text><polygon fill="#181818" points="52.5,540.6855,42.5,544.6855,52.5,548.6855,48.5,544.6855" style="stroke:#181818;stroke-width:1.0;"/><line style="stroke:#181818;stroke-width:1.0;stroke-dasharray:2.0,2.0;" x1="46.5" x2="550.5" y1="544.6855" y2="544.6855"/><text fill="#000000" font-family="sans-serif" font-size="13" font-weight="bold" lengthAdjust="spacing" textLength="14" x="58.5" y="539.4229">12</text><text fill="#000000" font-family="sans-serif" font-size="13" lengthAdjust="spacing" textLength="315" x="76.5" y="539.4229">Retrieves list of all candidates and asks to choose one</text><polygon fill="#181818" points="534.5,571.9766,544.5,575.9766,534.5,579.9766,538.5,575.9766" style="stroke:#181818;stroke-width:1.0;"/><line style="stroke:#181818;stroke-width:1.0;" x1="41.5" x2="540.5" y1="575.9766" y2="575.9766"/><text fill="#000000" font-family="sans-serif" font-size="13" font-weight="bold" lengthAdjust="spacing" textLength="14" x="48.5" y="570.7139">13</text><text fill="#000000" font-family="sans-serif" font-size="13" lengthAdjust="spacing" textLength="126" x="66.5" y="570.7139">Selects the candidate</text><polygon fill="#181818" points="989.5,603.2676,999.5,607.2676,989.5,611.2676,993.5,607.2676" style="stroke:#181818;stroke-width:1.0;"/><line style="stroke:#181818;stroke-width:1.0;" x1="556.5" x2="995.5" y1="607.2676" y2="607.2676"/><text fill="#000000" font-family="sans-serif" font-size="13" font-weight="bold" lengthAdjust="spacing" textLength="14" x="563.5" y="602.0049">14</text><text fill="#000000" font-family="sans-serif" font-size="13" lengthAdjust="spacing" textLength="72" x="581.5" y="602.0049">get(option-1)</text><polygon fill="#181818" points="567.5,634.5586,557.5,638.5586,567.5,642.5586,563.5,638.5586" style="stroke:#181818;stroke-width:1.0;"/><line style="stroke:#181818;stroke-width:1.0;stroke-dasharray:2.0,2.0;" x1="561.5" x2="1005.5" y1="638.5586" y2="638.5586"/><text fill="#000000" font-family="sans-serif" font-size="13" font-weight="bold" lengthAdjust="spacing" textLength="14" x="573.5" y="633.2959">15</text><text fill="#000000" font-family="sans-serif" font-size="13" lengthAdjust="spacing" textLength="172" x="591.5" y="633.2959">gets the chosen candidate (c)</text><polygon fill="#181818" points="832.5,665.8496,842.5,669.8496,832.5,673.8496,836.5,669.8496" style="stroke:#181818;stroke-width:1.0;"/><line style="stroke:#181818;stroke-width:1.0;" x1="556.5" x2="838.5" y1="669.8496" y2="669.8496"/><text fill="#000000" font-family="sans-serif" font-size="13" font-weight="bold" lengthAdjust="spacing" textLength="14" x="563.5" y="664.5869">16</text><text fill="#000000" font-family="sans-serif" font-size="13" lengthAdjust="spacing" textLength="178" x="581.5" y="664.5869">getApplicationsByCandidate(c)</text><polygon fill="#181818" points="2247.5,697.1406,2257.5,701.1406,2247.5,705.1406,2251.5,701.1406" style="stroke:#181818;stroke-width:1.0;"/><line style="stroke:#181818;stroke-width:1.0;" x1="854.5" x2="2253.5" y1="701.1406" y2="701.1406"/><text fill="#000000" font-family="sans-serif" font-size="13" font-weight="bold" lengthAdjust="spacing" textLength="14" x="861.5" y="695.8779">17</text><text fill="#000000" font-family="sans-serif" font-size="13" lengthAdjust="spacing" textLength="173" x="879.5" y="695.8779">allApplicationsByCandidate(c)</text><polygon fill="#181818" points="865.5,728.4316,855.5,732.4316,865.5,736.4316,861.5,732.4316" style="stroke:#181818;stroke-width:1.0;"/><line style="stroke:#181818;stroke-width:1.0;stroke-dasharray:2.0,2.0;" x1="859.5" x2="2263.5" y1="732.4316" y2="732.4316"/><text fill="#000000" font-family="sans-serif" font-size="13" font-weight="bold" lengthAdjust="spacing" textLength="14" x="871.5" y="727.1689">18</text><text fill="#000000" font-family="sans-serif" font-size="13" lengthAdjust="spacing" textLength="104" x="889.5" y="727.1689">list of applications</text><polygon fill="#181818" points="567.5,759.7227,557.5,763.7227,567.5,767.7227,563.5,763.7227" style="stroke:#181818;stroke-width:1.0;"/><line style="stroke:#181818;stroke-width:1.0;stroke-dasharray:2.0,2.0;" x1="561.5" x2="848.5" y1="763.7227" y2="763.7227"/><text fill="#000000" font-family="sans-serif" font-size="13" font-weight="bold" lengthAdjust="spacing" textLength="14" x="573.5" y="758.46">19</text><text fill="#000000" font-family="sans-serif" font-size="13" lengthAdjust="spacing" textLength="104" x="591.5" y="758.46">list of applications</text><line style="stroke:#181818;stroke-width:1.0;stroke-dasharray:2.0,2.0;" x1="556.5" x2="598.5" y1="795.0137" y2="795.0137"/><line style="stroke:#181818;stroke-width:1.0;stroke-dasharray:2.0,2.0;" x1="598.5" x2="598.5" y1="795.0137" y2="808.0137"/><line style="stroke:#181818;stroke-width:1.0;stroke-dasharray:2.0,2.0;" x1="557.5" x2="598.5" y1="808.0137" y2="808.0137"/><polygon fill="#181818" points="567.5,804.0137,557.5,808.0137,567.5,812.0137,563.5,808.0137" style="stroke:#181818;stroke-width:1.0;"/><text fill="#000000" font-family="sans-serif" font-size="13" font-weight="bold" lengthAdjust="spacing" textLength="14" x="563.5" y="789.751">20</text><text fill="#000000" font-family="sans-serif" font-size="13" lengthAdjust="spacing" textLength="256" x="581.5" y="789.751">printNumeratedListApp(message, collection)</text><polygon fill="#181818" points="52.5,835.3047,42.5,839.3047,52.5,843.3047,48.5,839.3047" style="stroke:#181818;stroke-width:1.0;"/><line style="stroke:#181818;stroke-width:1.0;stroke-dasharray:2.0,2.0;" x1="46.5" x2="545.5" y1="839.3047" y2="839.3047"/><text fill="#000000" font-family="sans-serif" font-size="13" font-weight="bold" lengthAdjust="spacing" textLength="14" x="58.5" y="834.042">21</text><text fill="#000000" font-family="sans-serif" font-size="13" lengthAdjust="spacing" textLength="463" x="76.5" y="834.042">Retrieves list of all applications of the chosen candidate and asks to choose one</text><polygon fill="#181818" points="534.5,866.5957,544.5,870.5957,534.5,874.5957,538.5,870.5957" style="stroke:#181818;stroke-width:1.0;"/><line style="stroke:#181818;stroke-width:1.0;" x1="41.5" x2="540.5" y1="870.5957" y2="870.5957"/><text fill="#000000" font-family="sans-serif" font-size="13" font-weight="bold" lengthAdjust="spacing" textLength="14" x="48.5" y="865.333">22</text><text fill="#000000" font-family="sans-serif" font-size="13" lengthAdjust="spacing" textLength="132" x="66.5" y="865.333">Selects the application</text><polygon fill="#181818" points="2044.5,897.8867,2054.5,901.8867,2044.5,905.8867,2048.5,901.8867" style="stroke:#181818;stroke-width:1.0;"/><line style="stroke:#181818;stroke-width:1.0;" x1="556.5" x2="2050.5" y1="901.8867" y2="901.8867"/><text fill="#000000" font-family="sans-serif" font-size="13" font-weight="bold" lengthAdjust="spacing" textLength="14" x="563.5" y="896.624">23</text><text fill="#000000" font-family="sans-serif" font-size="13" lengthAdjust="spacing" textLength="103" x="581.5" y="896.624">get(optionApp - 1)</text><polygon fill="#181818" points="567.5,929.1777,557.5,933.1777,567.5,937.1777,563.5,933.1777" style="stroke:#181818;stroke-width:1.0;"/><line style="stroke:#181818;stroke-width:1.0;stroke-dasharray:2.0,2.0;" x1="561.5" x2="2060.5" y1="933.1777" y2="933.1777"/><text fill="#000000" font-family="sans-serif" font-size="13" font-weight="bold" lengthAdjust="spacing" textLength="14" x="573.5" y="927.915">24</text><text fill="#000000" font-family="sans-serif" font-size="13" lengthAdjust="spacing" textLength="192" x="591.5" y="927.915">gets the chosen application (app)</text><polygon fill="#181818" points="52.5,960.4688,42.5,964.4688,52.5,968.4688,48.5,964.4688" style="stroke:#181818;stroke-width:1.0;"/><line style="stroke:#181818;stroke-width:1.0;stroke-dasharray:2.0,2.0;" x1="46.5" x2="545.5" y1="964.4688" y2="964.4688"/><text fill="#000000" font-family="sans-serif" font-size="13" font-weight="bold" lengthAdjust="spacing" textLength="14" x="58.5" y="959.2061">25</text><text fill="#000000" font-family="sans-serif" font-size="13" lengthAdjust="spacing" textLength="185" x="76.5" y="959.2061">Asks to enter the path of the file</text><polygon fill="#181818" points="534.5,991.7598,544.5,995.7598,534.5,999.7598,538.5,995.7598" style="stroke:#181818;stroke-width:1.0;"/><line style="stroke:#181818;stroke-width:1.0;" x1="41.5" x2="540.5" y1="995.7598" y2="995.7598"/><text fill="#000000" font-family="sans-serif" font-size="13" font-weight="bold" lengthAdjust="spacing" textLength="14" x="48.5" y="990.4971">26</text><text fill="#000000" font-family="sans-serif" font-size="13" lengthAdjust="spacing" textLength="145" x="66.5" y="990.4971">Enters the path of the file</text><polygon fill="#181818" points="832.5,1023.0508,842.5,1027.0508,832.5,1031.0508,836.5,1027.0508" style="stroke:#181818;stroke-width:1.0;"/><line style="stroke:#181818;stroke-width:1.0;" x1="556.5" x2="838.5" y1="1027.0508" y2="1027.0508"/><text fill="#000000" font-family="sans-serif" font-size="13" font-weight="bold" lengthAdjust="spacing" textLength="14" x="563.5" y="1021.7881">27</text><text fill="#000000" font-family="sans-serif" font-size="13" lengthAdjust="spacing" textLength="121" x="581.5" y="1021.7881">uploadFile(app, path)</text><polygon fill="#181818" points="1508.5,1054.3418,1518.5,1058.3418,1508.5,1062.3418,1512.5,1058.3418" style="stroke:#181818;stroke-width:1.0;"/><line style="stroke:#181818;stroke-width:1.0;" x1="854.5" x2="1514.5" y1="1058.3418" y2="1058.3418"/><text fill="#000000" font-family="sans-serif" font-size="13" font-weight="bold" lengthAdjust="spacing" textLength="14" x="861.5" y="1053.0791">28</text><text fill="#000000" font-family="sans-serif" font-size="13" lengthAdjust="spacing" textLength="629" x="879.5" y="1053.0791">ensureAuthenticatedUserHasAnyOf(BaseRoles.OPERATOR, BaseRoles.ADMIN, BaseRoles.POWERUSER)</text><polygon fill="#181818" points="865.5,1085.6328,855.5,1089.6328,865.5,1093.6328,861.5,1089.6328" style="stroke:#181818;stroke-width:1.0;"/><line style="stroke:#181818;stroke-width:1.0;stroke-dasharray:2.0,2.0;" x1="859.5" x2="1524.5" y1="1089.6328" y2="1089.6328"/><text fill="#000000" font-family="sans-serif" font-size="13" font-weight="bold" lengthAdjust="spacing" textLength="14" x="871.5" y="1084.3701">29</text><text fill="#000000" font-family="sans-serif" font-size="13" lengthAdjust="spacing" textLength="198" x="889.5" y="1084.3701">ensures the user has operator role</text><line style="stroke:#181818;stroke-width:1.0;stroke-dasharray:2.0,2.0;" x1="854.5" x2="896.5" y1="1120.9238" y2="1120.9238"/><line style="stroke:#181818;stroke-width:1.0;stroke-dasharray:2.0,2.0;" x1="896.5" x2="896.5" y1="1120.9238" y2="1133.9238"/><line style="stroke:#181818;stroke-width:1.0;stroke-dasharray:2.0,2.0;" x1="855.5" x2="896.5" y1="1133.9238" y2="1133.9238"/><polygon fill="#181818" points="865.5,1129.9238,855.5,1133.9238,865.5,1137.9238,861.5,1133.9238" style="stroke:#181818;stroke-width:1.0;"/><text fill="#000000" font-family="sans-serif" font-size="13" font-weight="bold" lengthAdjust="spacing" textLength="14" x="861.5" y="1115.6611">30</text><text fill="#000000" font-family="sans-serif" font-size="13" lengthAdjust="spacing" textLength="115" x="879.5" y="1115.6611">passGrammar(path)</text><polygon fill="#181818" points="2044.5,1161.2148,2054.5,1165.2148,2044.5,1169.2148,2048.5,1165.2148" style="stroke:#181818;stroke-width:1.0;"/><line style="stroke:#181818;stroke-width:1.0;" x1="854.5" x2="2050.5" y1="1165.2148" y2="1165.2148"/><text fill="#000000" font-family="sans-serif" font-size="13" font-weight="bold" lengthAdjust="spacing" textLength="14" x="861.5" y="1159.9521">31</text><text fill="#000000" font-family="sans-serif" font-size="13" lengthAdjust="spacing" textLength="214" x="879.5" y="1159.9521">setCandidateRequirements(fileName)</text><polygon fill="#181818" points="865.5,1192.5059,855.5,1196.5059,865.5,1200.5059,861.5,1196.5059" style="stroke:#181818;stroke-width:1.0;"/><line style="stroke:#181818;stroke-width:1.0;stroke-dasharray:2.0,2.0;" x1="859.5" x2="2060.5" y1="1196.5059" y2="1196.5059"/><text fill="#000000" font-family="sans-serif" font-size="13" font-weight="bold" lengthAdjust="spacing" textLength="14" x="871.5" y="1191.2432">32</text><text fill="#000000" font-family="sans-serif" font-size="13" lengthAdjust="spacing" textLength="186" x="889.5" y="1191.2432">sets the candidate requirements</text><polygon fill="#181818" points="2247.5,1223.7969,2257.5,1227.7969,2247.5,1231.7969,2251.5,1227.7969" style="stroke:#181818;stroke-width:1.0;"/><line style="stroke:#181818;stroke-width:1.0;" x1="854.5" x2="2253.5" y1="1227.7969" y2="1227.7969"/><text fill="#000000" font-family="sans-serif" font-size="13" font-weight="bold" lengthAdjust="spacing" textLength="14" x="861.5" y="1222.5342">33</text><text fill="#000000" font-family="sans-serif" font-size="13" lengthAdjust="spacing" textLength="59" x="879.5" y="1222.5342">.save(app)</text><polygon fill="#181818" points="865.5,1255.0879,855.5,1259.0879,865.5,1263.0879,861.5,1259.0879" style="stroke:#181818;stroke-width:1.0;"/><line style="stroke:#181818;stroke-width:1.0;stroke-dasharray:2.0,2.0;" x1="859.5" x2="2263.5" y1="1259.0879" y2="1259.0879"/><text fill="#000000" font-family="sans-serif" font-size="13" font-weight="bold" lengthAdjust="spacing" textLength="14" x="871.5" y="1253.8252">34</text><text fill="#000000" font-family="sans-serif" font-size="13" lengthAdjust="spacing" textLength="234" x="889.5" y="1253.8252">saves the application file in the database</text><polygon fill="#181818" points="567.5,1286.3789,557.5,1290.3789,567.5,1294.3789,563.5,1290.3789" style="stroke:#181818;stroke-width:1.0;"/><line style="stroke:#181818;stroke-width:1.0;stroke-dasharray:2.0,2.0;" x1="561.5" x2="843.5" y1="1290.3789" y2="1290.3789"/><text fill="#000000" font-family="sans-serif" font-size="13" font-weight="bold" lengthAdjust="spacing" textLength="14" x="573.5" y="1285.1162">35</text><text fill="#000000" font-family="sans-serif" font-size="13" lengthAdjust="spacing" textLength="135" x="591.5" y="1285.1162">Confirms the file upload</text><polygon fill="#181818" points="52.5,1317.6699,42.5,1321.6699,52.5,1325.6699,48.5,1321.6699" style="stroke:#181818;stroke-width:1.0;"/><line style="stroke:#181818;stroke-width:1.0;stroke-dasharray:2.0,2.0;" x1="46.5" x2="550.5" y1="1321.6699" y2="1321.6699"/><text fill="#000000" font-family="sans-serif" font-size="13" font-weight="bold" lengthAdjust="spacing" textLength="14" x="58.5" y="1316.4072">36</text><text fill="#000000" font-family="sans-serif" font-size="13" lengthAdjust="spacing" textLength="135" x="76.5" y="1316.4072">Confirms the file upload</text><!--SRC=[lLPDRzf04BtxLwnoCb68agedgq9o26s9GXpPGJrlp02hshlkxfes_VMTiOsz1goWLkh5cE6z-Ngpi_3IAbdchw0zpmgR0Rj8u4S9CWMs4doZUSx6xCFDpKVcBujCyHNZpC8lozO2mJ-5tJAx1QQH93Ja8ArXQesWbCkLM74BRAqq4sZUyOmCGidHXSTJY-Qe0CtfXPlstIkujY8L1PUMrJ5VCE1dZBUS4n2VdpujvvD93tdHXqwLj5fb6UWBuanVuaTayQB8H5hbS4YVxlEjyGY-LpaNHxYmj5kbnU_AIG9w9zAQ4YR8QGo3pXTSyatL9fSwNPp3ZQ5GHc27tcfIF7kEaDQP3vaFwXMRAeNSX5tT5VSX2WSBFCawYFqGdGgEceeTATvAsUexdg1i0OjfjenbLh7oxwQf2xASUyiv-YLfBoy3bcgWtyb6fe1dMTiwuuyw8ltgqMCy2PC0f2araAeOZQg5rTA0_ifDAD-YjN_73SGg0tCTFS_Yy2MAhrXd2-yNyoVNy1nzcyNBP1Ox0SF42vDnash0weYcghJ4K6oB7LNxJk7GWhS2brpdYaFIgwbNqW9HYuH2a331MiXLE5W_GRpgMIM5VZE1eb2ZiwnhjN7JQ4WBggCwJ04xWxHeac_aFuD1sg24umdY2osaVIfpwWoi7f7ivs0C7g0hbjBPJgjbWdX64VR3HcDcjO0TzlXqH8PlECRV3GrYkbNA05EortQShiFXJO0YrheDp-CqO1kmlYeej_6jstTlkcy48Xe_MumjdMNffwDUFxfvHevp8CtTMpS9wUdfRevfGDMVGwtXNltHwEo8vdXmKsnO9tKUeBoZCkOw9FGvEhjHoNQopmCJiFTTPTPJtF5QxntSeQxKc3JUbBUzTeOUBTeXqHsFpCSletvNmxhShjgmIHVt52uDSbHmN9XDXRH1dVIhY3D2cjFGTgxgHKnt9YLnLI67jYNRRw__iY__PLqsx88RymN_nEHS-tLXxT480mFMkLoxAyUd1Ztn78x5RBCoSBW9UhVMePJz0tbj-0vgoTyvV0Gych_wjXIoicDe_ehj73wIk1u3Xl-7raBdfXs0vW8-Nfw3oFvs_0C0]--></g></svg>