<?xml version="1.0" encoding="us-ascii" standalone="no"?><svg xmlns="http://www.w3.org/2000/svg" xmlns:xlink="http://www.w3.org/1999/xlink" contentStyleType="text/css" height="751.5px" preserveAspectRatio="none" style="width:1300px;height:751px;background:#FFFFFF;" version="1.1" viewBox="0 0 1300 751" width="1300px" zoomAndPan="magnify"><defs/><g><text fill="#000000" font-family="sans-serif" font-size="7" font-weight="bold" lengthAdjust="spacing" textLength="344" x="477.5" y="15.0537">Sequence diagram - 2004 (Upload a text file with the requirements of a candidate for its validation)</text><rect fill="#FFFFFF" height="639.1504" style="stroke:#181818;stroke-width:0.5;" width="5" x="15.75" y="66.6211"/><rect fill="#FFFFFF" height="194.0762" style="stroke:#181818;stroke-width:0.5;" width="5" x="273.25" y="78.2666"/><rect fill="#FFFFFF" height="413.2832" style="stroke:#181818;stroke-width:0.5;" width="5" x="273.25" y="287.9883"/><rect fill="#FFFFFF" height="109.5186" style="stroke:#181818;stroke-width:0.5;" width="5" x="422.25" y="125.0332"/><rect fill="#FFFFFF" height="78.2275" style="stroke:#181818;stroke-width:0.5;" width="5" x="422.25" y="334.9248"/><rect fill="#FFFFFF" height="140.8096" style="stroke:#181818;stroke-width:0.5;" width="5" x="422.25" y="544.8164"/><rect fill="#FFFFFF" height="15.6455" style="stroke:#181818;stroke-width:0.5;" width="5" x="489.5" y="303.6338"/><rect fill="#FFFFFF" height="15.6455" style="stroke:#181818;stroke-width:0.5;" width="5" x="760.25" y="140.6787"/><rect fill="#FFFFFF" height="15.6455" style="stroke:#181818;stroke-width:0.5;" width="5" x="760.25" y="560.4619"/><rect fill="#FFFFFF" height="46.9365" style="stroke:#181818;stroke-width:0.5;" width="5" x="853" y="171.9697"/><rect fill="#FFFFFF" height="15.6455" style="stroke:#181818;stroke-width:0.5;" width="5" x="946.75" y="187.6152"/><rect fill="#FFFFFF" height="46.9365" style="stroke:#181818;stroke-width:0.5;" width="5" x="1040" y="350.5703"/><rect fill="#FFFFFF" height="15.6455" style="stroke:#181818;stroke-width:0.5;" width="5" x="1040" y="591.7529"/><rect fill="#FFFFFF" height="15.6455" style="stroke:#181818;stroke-width:0.5;" width="5" x="1136.25" y="482.2344"/><rect fill="#FFFFFF" height="15.6455" style="stroke:#181818;stroke-width:0.5;" width="5" x="1136.25" y="623.0439"/><rect fill="#FFFFFF" height="15.6455" style="stroke:#181818;stroke-width:0.5;" width="5" x="1237.75" y="366.2158"/><rect fill="#FFFFFF" height="15.6455" style="stroke:#181818;stroke-width:0.5;" width="5" x="1237.75" y="654.335"/><line style="stroke:#181818;stroke-width:0.25;stroke-dasharray:5.0,5.0;" x1="18" x2="18" y1="61.6211" y2="710.2715"/><line style="stroke:#181818;stroke-width:0.25;stroke-dasharray:5.0,5.0;" x1="275.75" x2="275.75" y1="61.6211" y2="710.2715"/><line style="stroke:#181818;stroke-width:0.25;stroke-dasharray:5.0,5.0;" x1="424.75" x2="424.75" y1="102.8271" y2="710.2715"/><line style="stroke:#181818;stroke-width:0.25;stroke-dasharray:5.0,5.0;" x1="491.75" x2="491.75" y1="61.6211" y2="710.2715"/><line style="stroke:#181818;stroke-width:0.25;stroke-dasharray:5.0,5.0;" x1="762.5" x2="762.5" y1="61.6211" y2="710.2715"/><line style="stroke:#181818;stroke-width:0.25;stroke-dasharray:5.0,5.0;" x1="855.5" x2="855.5" y1="61.6211" y2="710.2715"/><line style="stroke:#181818;stroke-width:0.25;stroke-dasharray:5.0,5.0;" x1="949" x2="949" y1="61.6211" y2="710.2715"/><line style="stroke:#181818;stroke-width:0.25;stroke-dasharray:5.0,5.0;" x1="1042.5" x2="1042.5" y1="61.6211" y2="710.2715"/><line style="stroke:#181818;stroke-width:0.25;stroke-dasharray:5.0,5.0;" x1="1138.5" x2="1138.5" y1="61.6211" y2="710.2715"/><line style="stroke:#181818;stroke-width:0.25;stroke-dasharray:5.0,5.0;" x1="1240" x2="1240" y1="61.6211" y2="710.2715"/><text fill="#000000" font-family="sans-serif" font-size="7" lengthAdjust="spacing" textLength="28.5" x="2.5" y="59.8643">Operator</text><ellipse cx="18.25" cy="26.5605" fill="#E2E2F0" rx="4" ry="4" style="stroke:#181818;stroke-width:0.25;"/><path d="M18.25,30.5605 L18.25,44.0605 M11.75,34.5605 L24.75,34.5605 M18.25,44.0605 L11.75,51.5605 M18.25,44.0605 L24.75,51.5605 " fill="none" style="stroke:#181818;stroke-width:0.25;"/><text fill="#000000" font-family="sans-serif" font-size="7" lengthAdjust="spacing" textLength="28.5" x="2.5" y="717.3252">Operator</text><ellipse cx="18.25" cy="723.332" fill="#E2E2F0" rx="4" ry="4" style="stroke:#181818;stroke-width:0.25;"/><path d="M18.25,727.332 L18.25,740.832 M11.75,731.332 L24.75,731.332 M18.25,740.832 L11.75,748.332 M18.25,740.832 L24.75,748.332 " fill="none" style="stroke:#181818;stroke-width:0.25;"/><rect fill="#E2E2F0" height="25.6211" rx="1.25" ry="1.25" style="stroke:#181818;stroke-width:0.25;" width="60" x="245.75" y="35.5"/><text fill="#000000" font-family="sans-serif" font-size="7" font-style="italic" lengthAdjust="spacing" textLength="15" x="268.25" y="46.5537">&#171;UI&#187;</text><text fill="#000000" font-family="sans-serif" font-size="7" lengthAdjust="spacing" textLength="53" x="249.25" y="55.8643">UploadTextFileUI</text><rect fill="#E2E2F0" height="25.6211" rx="1.25" ry="1.25" style="stroke:#181818;stroke-width:0.25;" width="60" x="245.75" y="709.7715"/><text fill="#000000" font-family="sans-serif" font-size="7" font-style="italic" lengthAdjust="spacing" textLength="15" x="268.25" y="720.8252">&#171;UI&#187;</text><text fill="#000000" font-family="sans-serif" font-size="7" lengthAdjust="spacing" textLength="53" x="249.25" y="730.1357">UploadTextFileUI</text><rect fill="#E2E2F0" height="25.6211" rx="1.25" ry="1.25" style="stroke:#181818;stroke-width:0.25;" width="85" x="382.25" y="709.7715"/><text fill="#000000" font-family="sans-serif" font-size="7" font-style="italic" lengthAdjust="spacing" textLength="42" x="403.75" y="720.8252">&#171;application&#187;</text><text fill="#000000" font-family="sans-serif" font-size="7" lengthAdjust="spacing" textLength="78" x="385.75" y="730.1357">UploadTextFileController</text><rect fill="#E2E2F0" height="25.6211" rx="1.25" ry="1.25" style="stroke:#181818;stroke-width:0.25;" width="39.5" x="472.25" y="35.5"/><text fill="#000000" font-family="sans-serif" font-size="7" font-style="italic" lengthAdjust="spacing" textLength="32" x="476" y="46.5537">&#171;Domain&#187;</text><text fill="#000000" font-family="sans-serif" font-size="7" lengthAdjust="spacing" textLength="32.5" x="475.75" y="55.8643">Candidate</text><rect fill="#E2E2F0" height="25.6211" rx="1.25" ry="1.25" style="stroke:#181818;stroke-width:0.25;" width="39.5" x="472.25" y="709.7715"/><text fill="#000000" font-family="sans-serif" font-size="7" font-style="italic" lengthAdjust="spacing" textLength="32" x="476" y="720.8252">&#171;Domain&#187;</text><text fill="#000000" font-family="sans-serif" font-size="7" lengthAdjust="spacing" textLength="32.5" x="475.75" y="730.1357">Candidate</text><rect fill="#E2E2F0" height="25.6211" rx="1.25" ry="1.25" style="stroke:#181818;stroke-width:0.25;" width="71.5" x="727" y="35.5"/><text fill="#000000" font-family="sans-serif" font-size="7" font-style="italic" lengthAdjust="spacing" textLength="31" x="747.25" y="46.5537">&#171;Service&#187;</text><text fill="#000000" font-family="sans-serif" font-size="7" lengthAdjust="spacing" textLength="64.5" x="730.5" y="55.8643">AuthorizationService</text><rect fill="#E2E2F0" height="25.6211" rx="1.25" ry="1.25" style="stroke:#181818;stroke-width:0.25;" width="71.5" x="727" y="709.7715"/><text fill="#000000" font-family="sans-serif" font-size="7" font-style="italic" lengthAdjust="spacing" textLength="31" x="747.25" y="720.8252">&#171;Service&#187;</text><text fill="#000000" font-family="sans-serif" font-size="7" lengthAdjust="spacing" textLength="64.5" x="730.5" y="730.1357">AuthorizationService</text><rect fill="#E2E2F0" height="25.6211" rx="1.25" ry="1.25" style="stroke:#181818;stroke-width:0.25;" width="104" x="803.5" y="35.5"/><text fill="#000000" font-family="sans-serif" font-size="7" font-style="italic" lengthAdjust="spacing" textLength="31" x="840" y="46.5537">&#171;Service&#187;</text><text fill="#000000" font-family="sans-serif" font-size="7" lengthAdjust="spacing" textLength="97" x="807" y="55.8643">CandidateManagementService</text><rect fill="#E2E2F0" height="25.6211" rx="1.25" ry="1.25" style="stroke:#181818;stroke-width:0.25;" width="104" x="803.5" y="709.7715"/><text fill="#000000" font-family="sans-serif" font-size="7" font-style="italic" lengthAdjust="spacing" textLength="31" x="840" y="720.8252">&#171;Service&#187;</text><text fill="#000000" font-family="sans-serif" font-size="7" lengthAdjust="spacing" textLength="97" x="807" y="730.1357">CandidateManagementService</text><rect fill="#E2E2F0" height="25.6211" rx="1.25" ry="1.25" style="stroke:#181818;stroke-width:0.25;" width="73.5" x="912.5" y="35.5"/><text fill="#000000" font-family="sans-serif" font-size="7" font-style="italic" lengthAdjust="spacing" textLength="42" x="928.25" y="46.5537">&#171;Repository&#187;</text><text fill="#000000" font-family="sans-serif" font-size="7" lengthAdjust="spacing" textLength="66.5" x="916" y="55.8643">CandidateRepository</text><rect fill="#E2E2F0" height="25.6211" rx="1.25" ry="1.25" style="stroke:#181818;stroke-width:0.25;" width="73.5" x="912.5" y="709.7715"/><text fill="#000000" font-family="sans-serif" font-size="7" font-style="italic" lengthAdjust="spacing" textLength="42" x="928.25" y="720.8252">&#171;Repository&#187;</text><text fill="#000000" font-family="sans-serif" font-size="7" lengthAdjust="spacing" textLength="66.5" x="916" y="730.1357">CandidateRepository</text><rect fill="#E2E2F0" height="25.6211" rx="1.25" ry="1.25" style="stroke:#181818;stroke-width:0.25;" width="103" x="991" y="35.5"/><text fill="#000000" font-family="sans-serif" font-size="7" font-style="italic" lengthAdjust="spacing" textLength="31" x="1027" y="46.5537">&#171;Service&#187;</text><text fill="#000000" font-family="sans-serif" font-size="7" lengthAdjust="spacing" textLength="96" x="994.5" y="55.8643">JobOpeningApplicationService</text><rect fill="#E2E2F0" height="25.6211" rx="1.25" ry="1.25" style="stroke:#181818;stroke-width:0.25;" width="103" x="991" y="709.7715"/><text fill="#000000" font-family="sans-serif" font-size="7" font-style="italic" lengthAdjust="spacing" textLength="31" x="1027" y="720.8252">&#171;Service&#187;</text><text fill="#000000" font-family="sans-serif" font-size="7" lengthAdjust="spacing" textLength="96" x="994.5" y="730.1357">JobOpeningApplicationService</text><rect fill="#E2E2F0" height="25.6211" rx="1.25" ry="1.25" style="stroke:#181818;stroke-width:0.25;" width="79.5" x="1099" y="35.5"/><text fill="#000000" font-family="sans-serif" font-size="7" font-style="italic" lengthAdjust="spacing" textLength="32" x="1122.75" y="46.5537">&#171;Domain&#187;</text><text fill="#000000" font-family="sans-serif" font-size="7" lengthAdjust="spacing" textLength="72.5" x="1102.5" y="55.8643">JobOpeningApplication</text><rect fill="#E2E2F0" height="25.6211" rx="1.25" ry="1.25" style="stroke:#181818;stroke-width:0.25;" width="79.5" x="1099" y="709.7715"/><text fill="#000000" font-family="sans-serif" font-size="7" font-style="italic" lengthAdjust="spacing" textLength="32" x="1122.75" y="720.8252">&#171;Domain&#187;</text><text fill="#000000" font-family="sans-serif" font-size="7" lengthAdjust="spacing" textLength="72.5" x="1102.5" y="730.1357">JobOpeningApplication</text><rect fill="#E2E2F0" height="25.6211" rx="1.25" ry="1.25" style="stroke:#181818;stroke-width:0.25;" width="113.5" x="1183.5" y="35.5"/><text fill="#000000" font-family="sans-serif" font-size="7" font-style="italic" lengthAdjust="spacing" textLength="42" x="1219.25" y="46.5537">&#171;Repository&#187;</text><text fill="#000000" font-family="sans-serif" font-size="7" lengthAdjust="spacing" textLength="106.5" x="1187" y="55.8643">JobOpeningApplicationRepository</text><rect fill="#E2E2F0" height="25.6211" rx="1.25" ry="1.25" style="stroke:#181818;stroke-width:0.25;" width="113.5" x="1183.5" y="709.7715"/><text fill="#000000" font-family="sans-serif" font-size="7" font-style="italic" lengthAdjust="spacing" textLength="42" x="1219.25" y="720.8252">&#171;Repository&#187;</text><text fill="#000000" font-family="sans-serif" font-size="7" lengthAdjust="spacing" textLength="106.5" x="1187" y="730.1357">JobOpeningApplicationRepository</text><rect fill="#FFFFFF" height="639.1504" style="stroke:#181818;stroke-width:0.5;" width="5" x="15.75" y="66.6211"/><rect fill="#FFFFFF" height="194.0762" style="stroke:#181818;stroke-width:0.5;" width="5" x="273.25" y="78.2666"/><rect fill="#FFFFFF" height="413.2832" style="stroke:#181818;stroke-width:0.5;" width="5" x="273.25" y="287.9883"/><rect fill="#FFFFFF" height="109.5186" style="stroke:#181818;stroke-width:0.5;" width="5" x="422.25" y="125.0332"/><rect fill="#FFFFFF" height="78.2275" style="stroke:#181818;stroke-width:0.5;" width="5" x="422.25" y="334.9248"/><rect fill="#FFFFFF" height="140.8096" style="stroke:#181818;stroke-width:0.5;" width="5" x="422.25" y="544.8164"/><rect fill="#FFFFFF" height="15.6455" style="stroke:#181818;stroke-width:0.5;" width="5" x="489.5" y="303.6338"/><rect fill="#FFFFFF" height="15.6455" style="stroke:#181818;stroke-width:0.5;" width="5" x="760.25" y="140.6787"/><rect fill="#FFFFFF" height="15.6455" style="stroke:#181818;stroke-width:0.5;" width="5" x="760.25" y="560.4619"/><rect fill="#FFFFFF" height="46.9365" style="stroke:#181818;stroke-width:0.5;" width="5" x="853" y="171.9697"/><rect fill="#FFFFFF" height="15.6455" style="stroke:#181818;stroke-width:0.5;" width="5" x="946.75" y="187.6152"/><rect fill="#FFFFFF" height="46.9365" style="stroke:#181818;stroke-width:0.5;" width="5" x="1040" y="350.5703"/><rect fill="#FFFFFF" height="15.6455" style="stroke:#181818;stroke-width:0.5;" width="5" x="1040" y="591.7529"/><rect fill="#FFFFFF" height="15.6455" style="stroke:#181818;stroke-width:0.5;" width="5" x="1136.25" y="482.2344"/><rect fill="#FFFFFF" height="15.6455" style="stroke:#181818;stroke-width:0.5;" width="5" x="1136.25" y="623.0439"/><rect fill="#FFFFFF" height="15.6455" style="stroke:#181818;stroke-width:0.5;" width="5" x="1237.75" y="366.2158"/><rect fill="#FFFFFF" height="15.6455" style="stroke:#181818;stroke-width:0.5;" width="5" x="1237.75" y="654.335"/><polygon fill="#181818" points="267.25,76.2666,272.25,78.2666,267.25,80.2666,269.25,78.2666" style="stroke:#181818;stroke-width:0.5;"/><line style="stroke:#181818;stroke-width:0.5;" x1="20.75" x2="270.25" y1="78.2666" y2="78.2666"/><text fill="#000000" font-family="sans-serif" font-size="6.5" font-weight="bold" lengthAdjust="spacing" textLength="3.5" x="24.25" y="75.6353">1</text><text fill="#000000" font-family="sans-serif" font-size="6.5" lengthAdjust="spacing" textLength="187.5" x="29.75" y="75.6353">Request to upload a text file with the requirements of a candidate</text><polygon fill="#181818" points="376.25,91.9121,381.25,93.9121,376.25,95.9121,378.25,93.9121" style="stroke:#181818;stroke-width:0.5;"/><line style="stroke:#181818;stroke-width:0.5;" x1="278.25" x2="379.25" y1="93.9121" y2="93.9121"/><text fill="#000000" font-family="sans-serif" font-size="6.5" font-weight="bold" lengthAdjust="spacing" textLength="3.5" x="281.75" y="91.2808">2</text><text fill="#000000" font-family="sans-serif" font-size="6.5" lengthAdjust="spacing" textLength="18" x="287.25" y="91.2808">create</text><rect fill="#E2E2F0" height="25.6211" rx="1.25" ry="1.25" style="stroke:#181818;stroke-width:0.25;" width="85" x="382.25" y="82.2666"/><text fill="#000000" font-family="sans-serif" font-size="7" font-style="italic" lengthAdjust="spacing" textLength="42" x="403.75" y="93.3203">&#171;application&#187;</text><text fill="#000000" font-family="sans-serif" font-size="7" lengthAdjust="spacing" textLength="78" x="385.75" y="102.6309">UploadTextFileController</text><polygon fill="#181818" points="416.25,123.0332,421.25,125.0332,416.25,127.0332,418.25,125.0332" style="stroke:#181818;stroke-width:0.5;"/><line style="stroke:#181818;stroke-width:0.5;" x1="278.25" x2="419.25" y1="125.0332" y2="125.0332"/><text fill="#000000" font-family="sans-serif" font-size="6.5" font-weight="bold" lengthAdjust="spacing" textLength="3.5" x="281.75" y="122.4019">3</text><text fill="#000000" font-family="sans-serif" font-size="6.5" lengthAdjust="spacing" textLength="43" x="287.25" y="122.4019">allCandidates()</text><polygon fill="#181818" points="754.25,138.6787,759.25,140.6787,754.25,142.6787,756.25,140.6787" style="stroke:#181818;stroke-width:0.5;"/><line style="stroke:#181818;stroke-width:0.5;" x1="427.25" x2="757.25" y1="140.6787" y2="140.6787"/><text fill="#000000" font-family="sans-serif" font-size="6.5" font-weight="bold" lengthAdjust="spacing" textLength="3.5" x="430.75" y="138.0474">4</text><text fill="#000000" font-family="sans-serif" font-size="6.5" lengthAdjust="spacing" textLength="314.5" x="436.25" y="138.0474">ensureAuthenticatedUserHasAnyOf(BaseRoles.OPERATOR, BaseRoles.ADMIN, BaseRoles.POWERUSER)</text><polygon fill="#181818" points="432.75,154.3242,427.75,156.3242,432.75,158.3242,430.75,156.3242" style="stroke:#181818;stroke-width:0.5;"/><line style="stroke:#181818;stroke-width:0.5;stroke-dasharray:2.0,2.0;" x1="429.75" x2="762.25" y1="156.3242" y2="156.3242"/><text fill="#000000" font-family="sans-serif" font-size="6.5" font-weight="bold" lengthAdjust="spacing" textLength="3.5" x="435.75" y="153.6929">5</text><text fill="#000000" font-family="sans-serif" font-size="6.5" lengthAdjust="spacing" textLength="99" x="441.25" y="153.6929">ensures the user has operator role</text><polygon fill="#181818" points="847,169.9697,852,171.9697,847,173.9697,849,171.9697" style="stroke:#181818;stroke-width:0.5;"/><line style="stroke:#181818;stroke-width:0.5;" x1="427.25" x2="850" y1="171.9697" y2="171.9697"/><text fill="#000000" font-family="sans-serif" font-size="6.5" font-weight="bold" lengthAdjust="spacing" textLength="3.5" x="430.75" y="169.3384">6</text><text fill="#000000" font-family="sans-serif" font-size="6.5" lengthAdjust="spacing" textLength="39.5" x="436.25" y="169.3384">allCandidate()</text><polygon fill="#181818" points="940.75,185.6152,945.75,187.6152,940.75,189.6152,942.75,187.6152" style="stroke:#181818;stroke-width:0.5;"/><line style="stroke:#181818;stroke-width:0.5;" x1="858" x2="943.75" y1="187.6152" y2="187.6152"/><text fill="#000000" font-family="sans-serif" font-size="6.5" font-weight="bold" lengthAdjust="spacing" textLength="3.5" x="861.5" y="184.9839">7</text><text fill="#000000" font-family="sans-serif" font-size="6.5" lengthAdjust="spacing" textLength="54" x="867" y="184.9839">findAllCandidates()</text><polygon fill="#181818" points="863.5,201.2607,858.5,203.2607,863.5,205.2607,861.5,203.2607" style="stroke:#181818;stroke-width:0.5;"/><line style="stroke:#181818;stroke-width:0.5;stroke-dasharray:2.0,2.0;" x1="860.5" x2="948.75" y1="203.2607" y2="203.2607"/><text fill="#000000" font-family="sans-serif" font-size="6.5" font-weight="bold" lengthAdjust="spacing" textLength="3.5" x="866.5" y="200.6294">8</text><text fill="#000000" font-family="sans-serif" font-size="6.5" lengthAdjust="spacing" textLength="57.5" x="872" y="200.6294">list of all candidates</text><polygon fill="#181818" points="432.75,216.9063,427.75,218.9063,432.75,220.9063,430.75,218.9063" style="stroke:#181818;stroke-width:0.5;"/><line style="stroke:#181818;stroke-width:0.5;stroke-dasharray:2.0,2.0;" x1="429.75" x2="855" y1="218.9063" y2="218.9063"/><text fill="#000000" font-family="sans-serif" font-size="6.5" font-weight="bold" lengthAdjust="spacing" textLength="3.5" x="435.75" y="216.2749">9</text><text fill="#000000" font-family="sans-serif" font-size="6.5" lengthAdjust="spacing" textLength="57.5" x="441.25" y="216.2749">list of all candidates</text><polygon fill="#181818" points="283.75,232.5518,278.75,234.5518,283.75,236.5518,281.75,234.5518" style="stroke:#181818;stroke-width:0.5;"/><line style="stroke:#181818;stroke-width:0.5;stroke-dasharray:2.0,2.0;" x1="280.75" x2="424.25" y1="234.5518" y2="234.5518"/><text fill="#000000" font-family="sans-serif" font-size="6.5" font-weight="bold" lengthAdjust="spacing" textLength="7" x="286.75" y="231.9204">10</text><text fill="#000000" font-family="sans-serif" font-size="6.5" lengthAdjust="spacing" textLength="57.5" x="295.75" y="231.9204">list of all candidates</text><line style="stroke:#181818;stroke-width:0.5;stroke-dasharray:2.0,2.0;" x1="278.25" x2="299.25" y1="250.1973" y2="250.1973"/><line style="stroke:#181818;stroke-width:0.5;stroke-dasharray:2.0,2.0;" x1="299.25" x2="299.25" y1="250.1973" y2="256.6973"/><line style="stroke:#181818;stroke-width:0.5;stroke-dasharray:2.0,2.0;" x1="278.75" x2="299.25" y1="256.6973" y2="256.6973"/><polygon fill="#181818" points="283.75,254.6973,278.75,256.6973,283.75,258.6973,281.75,256.6973" style="stroke:#181818;stroke-width:0.5;"/><text fill="#000000" font-family="sans-serif" font-size="6.5" font-weight="bold" lengthAdjust="spacing" textLength="7" x="281.75" y="247.5659">11</text><text fill="#000000" font-family="sans-serif" font-size="6.5" lengthAdjust="spacing" textLength="116.5" x="290.75" y="247.5659">printNumeratedList(message, collection)</text><polygon fill="#181818" points="26.25,270.3428,21.25,272.3428,26.25,274.3428,24.25,272.3428" style="stroke:#181818;stroke-width:0.5;"/><line style="stroke:#181818;stroke-width:0.5;stroke-dasharray:2.0,2.0;" x1="23.25" x2="275.25" y1="272.3428" y2="272.3428"/><text fill="#000000" font-family="sans-serif" font-size="6.5" font-weight="bold" lengthAdjust="spacing" textLength="7" x="29.25" y="269.7114">12</text><text fill="#000000" font-family="sans-serif" font-size="6.5" lengthAdjust="spacing" textLength="157.5" x="38.25" y="269.7114">Retrieves list of all candidates and asks to choose one</text><polygon fill="#181818" points="267.25,285.9883,272.25,287.9883,267.25,289.9883,269.25,287.9883" style="stroke:#181818;stroke-width:0.5;"/><line style="stroke:#181818;stroke-width:0.5;" x1="20.75" x2="270.25" y1="287.9883" y2="287.9883"/><text fill="#000000" font-family="sans-serif" font-size="6.5" font-weight="bold" lengthAdjust="spacing" textLength="7" x="24.25" y="285.3569">13</text><text fill="#000000" font-family="sans-serif" font-size="6.5" lengthAdjust="spacing" textLength="63" x="33.25" y="285.3569">Selects the candidate</text><polygon fill="#181818" points="483.5,301.6338,488.5,303.6338,483.5,305.6338,485.5,303.6338" style="stroke:#181818;stroke-width:0.5;"/><line style="stroke:#181818;stroke-width:0.5;" x1="278.25" x2="486.5" y1="303.6338" y2="303.6338"/><text fill="#000000" font-family="sans-serif" font-size="6.5" font-weight="bold" lengthAdjust="spacing" textLength="7" x="281.75" y="301.0024">14</text><text fill="#000000" font-family="sans-serif" font-size="6.5" lengthAdjust="spacing" textLength="36" x="290.75" y="301.0024">get(option-1)</text><polygon fill="#181818" points="283.75,317.2793,278.75,319.2793,283.75,321.2793,281.75,319.2793" style="stroke:#181818;stroke-width:0.5;"/><line style="stroke:#181818;stroke-width:0.5;stroke-dasharray:2.0,2.0;" x1="280.75" x2="491.5" y1="319.2793" y2="319.2793"/><text fill="#000000" font-family="sans-serif" font-size="6.5" font-weight="bold" lengthAdjust="spacing" textLength="7" x="286.75" y="316.6479">15</text><text fill="#000000" font-family="sans-serif" font-size="6.5" lengthAdjust="spacing" textLength="86" x="295.75" y="316.6479">gets the chosen candidate (c)</text><polygon fill="#181818" points="416.25,332.9248,421.25,334.9248,416.25,336.9248,418.25,334.9248" style="stroke:#181818;stroke-width:0.5;"/><line style="stroke:#181818;stroke-width:0.5;" x1="278.25" x2="419.25" y1="334.9248" y2="334.9248"/><text fill="#000000" font-family="sans-serif" font-size="6.5" font-weight="bold" lengthAdjust="spacing" textLength="7" x="281.75" y="332.2935">16</text><text fill="#000000" font-family="sans-serif" font-size="6.5" lengthAdjust="spacing" textLength="65" x="290.75" y="332.2935">getAppByCandidate(c)</text><polygon fill="#181818" points="1034,348.5703,1039,350.5703,1034,352.5703,1036,350.5703" style="stroke:#181818;stroke-width:0.5;"/><line style="stroke:#181818;stroke-width:0.5;" x1="427.25" x2="1037" y1="350.5703" y2="350.5703"/><text fill="#000000" font-family="sans-serif" font-size="6.5" font-weight="bold" lengthAdjust="spacing" textLength="7" x="430.75" y="347.939">17</text><text fill="#000000" font-family="sans-serif" font-size="6.5" lengthAdjust="spacing" textLength="89" x="439.75" y="347.939">getApplicationsByCandidate(c)</text><polygon fill="#181818" points="1231.75,364.2158,1236.75,366.2158,1231.75,368.2158,1233.75,366.2158" style="stroke:#181818;stroke-width:0.5;"/><line style="stroke:#181818;stroke-width:0.5;" x1="1045" x2="1234.75" y1="366.2158" y2="366.2158"/><text fill="#000000" font-family="sans-serif" font-size="6.5" font-weight="bold" lengthAdjust="spacing" textLength="7" x="1048.5" y="363.5845">18</text><text fill="#000000" font-family="sans-serif" font-size="6.5" lengthAdjust="spacing" textLength="86.5" x="1057.5" y="363.5845">allApplicationsByCandidate(c)</text><polygon fill="#181818" points="1050.5,379.8613,1045.5,381.8613,1050.5,383.8613,1048.5,381.8613" style="stroke:#181818;stroke-width:0.5;"/><line style="stroke:#181818;stroke-width:0.5;stroke-dasharray:2.0,2.0;" x1="1047.5" x2="1239.75" y1="381.8613" y2="381.8613"/><text fill="#000000" font-family="sans-serif" font-size="6.5" font-weight="bold" lengthAdjust="spacing" textLength="7" x="1053.5" y="379.23">19</text><text fill="#000000" font-family="sans-serif" font-size="6.5" lengthAdjust="spacing" textLength="52" x="1062.5" y="379.23">list of applications</text><polygon fill="#181818" points="432.75,395.5068,427.75,397.5068,432.75,399.5068,430.75,397.5068" style="stroke:#181818;stroke-width:0.5;"/><line style="stroke:#181818;stroke-width:0.5;stroke-dasharray:2.0,2.0;" x1="429.75" x2="1042" y1="397.5068" y2="397.5068"/><text fill="#000000" font-family="sans-serif" font-size="6.5" font-weight="bold" lengthAdjust="spacing" textLength="7" x="435.75" y="394.8755">20</text><text fill="#000000" font-family="sans-serif" font-size="6.5" lengthAdjust="spacing" textLength="52" x="444.75" y="394.8755">list of applications</text><polygon fill="#181818" points="283.75,411.1523,278.75,413.1523,283.75,415.1523,281.75,413.1523" style="stroke:#181818;stroke-width:0.5;"/><line style="stroke:#181818;stroke-width:0.5;stroke-dasharray:2.0,2.0;" x1="280.75" x2="424.25" y1="413.1523" y2="413.1523"/><text fill="#000000" font-family="sans-serif" font-size="6.5" font-weight="bold" lengthAdjust="spacing" textLength="7" x="286.75" y="410.521">21</text><text fill="#000000" font-family="sans-serif" font-size="6.5" lengthAdjust="spacing" textLength="52" x="295.75" y="410.521">list of applications</text><line style="stroke:#181818;stroke-width:0.5;stroke-dasharray:2.0,2.0;" x1="278.25" x2="299.25" y1="428.7979" y2="428.7979"/><line style="stroke:#181818;stroke-width:0.5;stroke-dasharray:2.0,2.0;" x1="299.25" x2="299.25" y1="428.7979" y2="435.2979"/><line style="stroke:#181818;stroke-width:0.5;stroke-dasharray:2.0,2.0;" x1="278.75" x2="299.25" y1="435.2979" y2="435.2979"/><polygon fill="#181818" points="283.75,433.2979,278.75,435.2979,283.75,437.2979,281.75,435.2979" style="stroke:#181818;stroke-width:0.5;"/><text fill="#000000" font-family="sans-serif" font-size="6.5" font-weight="bold" lengthAdjust="spacing" textLength="7" x="281.75" y="426.1665">22</text><text fill="#000000" font-family="sans-serif" font-size="6.5" lengthAdjust="spacing" textLength="128" x="290.75" y="426.1665">printNumeratedListApp(message, collection)</text><polygon fill="#181818" points="26.25,448.9434,21.25,450.9434,26.25,452.9434,24.25,450.9434" style="stroke:#181818;stroke-width:0.5;"/><line style="stroke:#181818;stroke-width:0.5;stroke-dasharray:2.0,2.0;" x1="23.25" x2="272.75" y1="450.9434" y2="450.9434"/><text fill="#000000" font-family="sans-serif" font-size="6.5" font-weight="bold" lengthAdjust="spacing" textLength="7" x="29.25" y="448.312">23</text><text fill="#000000" font-family="sans-serif" font-size="6.5" lengthAdjust="spacing" textLength="231.5" x="38.25" y="448.312">Retrieves list of all applications of the chosen candidate and asks to choose one</text><polygon fill="#181818" points="267.25,464.5889,272.25,466.5889,267.25,468.5889,269.25,466.5889" style="stroke:#181818;stroke-width:0.5;"/><line style="stroke:#181818;stroke-width:0.5;" x1="20.75" x2="270.25" y1="466.5889" y2="466.5889"/><text fill="#000000" font-family="sans-serif" font-size="6.5" font-weight="bold" lengthAdjust="spacing" textLength="7" x="24.25" y="463.9575">24</text><text fill="#000000" font-family="sans-serif" font-size="6.5" lengthAdjust="spacing" textLength="66" x="33.25" y="463.9575">Selects the application</text><polygon fill="#181818" points="1130.25,480.2344,1135.25,482.2344,1130.25,484.2344,1132.25,482.2344" style="stroke:#181818;stroke-width:0.5;"/><line style="stroke:#181818;stroke-width:0.5;" x1="278.25" x2="1133.25" y1="482.2344" y2="482.2344"/><text fill="#000000" font-family="sans-serif" font-size="6.5" font-weight="bold" lengthAdjust="spacing" textLength="7" x="281.75" y="479.603">25</text><text fill="#000000" font-family="sans-serif" font-size="6.5" lengthAdjust="spacing" textLength="51.5" x="290.75" y="479.603">get(optionApp - 1)</text><polygon fill="#181818" points="283.75,495.8799,278.75,497.8799,283.75,499.8799,281.75,497.8799" style="stroke:#181818;stroke-width:0.5;"/><line style="stroke:#181818;stroke-width:0.5;stroke-dasharray:2.0,2.0;" x1="280.75" x2="1138.25" y1="497.8799" y2="497.8799"/><text fill="#000000" font-family="sans-serif" font-size="6.5" font-weight="bold" lengthAdjust="spacing" textLength="7" x="286.75" y="495.2485">26</text><text fill="#000000" font-family="sans-serif" font-size="6.5" lengthAdjust="spacing" textLength="96" x="295.75" y="495.2485">gets the chosen application (app)</text><polygon fill="#181818" points="26.25,511.5254,21.25,513.5254,26.25,515.5254,24.25,513.5254" style="stroke:#181818;stroke-width:0.5;"/><line style="stroke:#181818;stroke-width:0.5;stroke-dasharray:2.0,2.0;" x1="23.25" x2="272.75" y1="513.5254" y2="513.5254"/><text fill="#000000" font-family="sans-serif" font-size="6.5" font-weight="bold" lengthAdjust="spacing" textLength="7" x="29.25" y="510.894">27</text><text fill="#000000" font-family="sans-serif" font-size="6.5" lengthAdjust="spacing" textLength="92.5" x="38.25" y="510.894">Asks to enter the path of the file</text><polygon fill="#181818" points="267.25,527.1709,272.25,529.1709,267.25,531.1709,269.25,529.1709" style="stroke:#181818;stroke-width:0.5;"/><line style="stroke:#181818;stroke-width:0.5;" x1="20.75" x2="270.25" y1="529.1709" y2="529.1709"/><text fill="#000000" font-family="sans-serif" font-size="6.5" font-weight="bold" lengthAdjust="spacing" textLength="7" x="24.25" y="526.5396">28</text><text fill="#000000" font-family="sans-serif" font-size="6.5" lengthAdjust="spacing" textLength="72.5" x="33.25" y="526.5396">Enters the path of the file</text><polygon fill="#181818" points="416.25,542.8164,421.25,544.8164,416.25,546.8164,418.25,544.8164" style="stroke:#181818;stroke-width:0.5;"/><line style="stroke:#181818;stroke-width:0.5;" x1="278.25" x2="419.25" y1="544.8164" y2="544.8164"/><text fill="#000000" font-family="sans-serif" font-size="6.5" font-weight="bold" lengthAdjust="spacing" textLength="7" x="281.75" y="542.1851">29</text><text fill="#000000" font-family="sans-serif" font-size="6.5" lengthAdjust="spacing" textLength="60.5" x="290.75" y="542.1851">uploadFile(app, path)</text><polygon fill="#181818" points="754.25,558.4619,759.25,560.4619,754.25,562.4619,756.25,560.4619" style="stroke:#181818;stroke-width:0.5;"/><line style="stroke:#181818;stroke-width:0.5;" x1="427.25" x2="757.25" y1="560.4619" y2="560.4619"/><text fill="#000000" font-family="sans-serif" font-size="6.5" font-weight="bold" lengthAdjust="spacing" textLength="7" x="430.75" y="557.8306">30</text><text fill="#000000" font-family="sans-serif" font-size="6.5" lengthAdjust="spacing" textLength="314.5" x="439.75" y="557.8306">ensureAuthenticatedUserHasAnyOf(BaseRoles.OPERATOR, BaseRoles.ADMIN, BaseRoles.POWERUSER)</text><polygon fill="#181818" points="432.75,574.1074,427.75,576.1074,432.75,578.1074,430.75,576.1074" style="stroke:#181818;stroke-width:0.5;"/><line style="stroke:#181818;stroke-width:0.5;stroke-dasharray:2.0,2.0;" x1="429.75" x2="762.25" y1="576.1074" y2="576.1074"/><text fill="#000000" font-family="sans-serif" font-size="6.5" font-weight="bold" lengthAdjust="spacing" textLength="7" x="435.75" y="573.4761">31</text><text fill="#000000" font-family="sans-serif" font-size="6.5" lengthAdjust="spacing" textLength="99" x="444.75" y="573.4761">ensures the user has operator role</text><polygon fill="#181818" points="1034,589.7529,1039,591.7529,1034,593.7529,1036,591.7529" style="stroke:#181818;stroke-width:0.5;"/><line style="stroke:#181818;stroke-width:0.5;stroke-dasharray:2.0,2.0;" x1="427.25" x2="1037" y1="591.7529" y2="591.7529"/><text fill="#000000" font-family="sans-serif" font-size="6.5" font-weight="bold" lengthAdjust="spacing" textLength="7" x="430.75" y="589.1216">32</text><text fill="#000000" font-family="sans-serif" font-size="6.5" lengthAdjust="spacing" textLength="57.5" x="439.75" y="589.1216">passGrammar(path)</text><polygon fill="#181818" points="432.75,605.3984,427.75,607.3984,432.75,609.3984,430.75,607.3984" style="stroke:#181818;stroke-width:0.5;"/><line style="stroke:#181818;stroke-width:0.5;stroke-dasharray:2.0,2.0;" x1="429.75" x2="1042" y1="607.3984" y2="607.3984"/><text fill="#000000" font-family="sans-serif" font-size="6.5" font-weight="bold" lengthAdjust="spacing" textLength="7" x="435.75" y="604.7671">33</text><text fill="#000000" font-family="sans-serif" font-size="6.5" lengthAdjust="spacing" textLength="87.5" x="444.75" y="604.7671">checks the grammar of the file</text><polygon fill="#181818" points="1130.25,621.0439,1135.25,623.0439,1130.25,625.0439,1132.25,623.0439" style="stroke:#181818;stroke-width:0.5;"/><line style="stroke:#181818;stroke-width:0.5;" x1="427.25" x2="1133.25" y1="623.0439" y2="623.0439"/><text fill="#000000" font-family="sans-serif" font-size="6.5" font-weight="bold" lengthAdjust="spacing" textLength="7" x="430.75" y="620.4126">34</text><text fill="#000000" font-family="sans-serif" font-size="6.5" lengthAdjust="spacing" textLength="107" x="439.75" y="620.4126">setCandidateRequirements(fileName)</text><polygon fill="#181818" points="432.75,636.6895,427.75,638.6895,432.75,640.6895,430.75,638.6895" style="stroke:#181818;stroke-width:0.5;"/><line style="stroke:#181818;stroke-width:0.5;stroke-dasharray:2.0,2.0;" x1="429.75" x2="1138.25" y1="638.6895" y2="638.6895"/><text fill="#000000" font-family="sans-serif" font-size="6.5" font-weight="bold" lengthAdjust="spacing" textLength="7" x="435.75" y="636.0581">35</text><text fill="#000000" font-family="sans-serif" font-size="6.5" lengthAdjust="spacing" textLength="93" x="444.75" y="636.0581">sets the candidate requirements</text><polygon fill="#181818" points="1231.75,652.335,1236.75,654.335,1231.75,656.335,1233.75,654.335" style="stroke:#181818;stroke-width:0.5;"/><line style="stroke:#181818;stroke-width:0.5;" x1="427.25" x2="1234.75" y1="654.335" y2="654.335"/><text fill="#000000" font-family="sans-serif" font-size="6.5" font-weight="bold" lengthAdjust="spacing" textLength="7" x="430.75" y="651.7036">36</text><text fill="#000000" font-family="sans-serif" font-size="6.5" lengthAdjust="spacing" textLength="29.5" x="439.75" y="651.7036">.save(app)</text><polygon fill="#181818" points="432.75,667.9805,427.75,669.9805,432.75,671.9805,430.75,669.9805" style="stroke:#181818;stroke-width:0.5;"/><line style="stroke:#181818;stroke-width:0.5;stroke-dasharray:2.0,2.0;" x1="429.75" x2="1239.75" y1="669.9805" y2="669.9805"/><text fill="#000000" font-family="sans-serif" font-size="6.5" font-weight="bold" lengthAdjust="spacing" textLength="7" x="435.75" y="667.3491">37</text><text fill="#000000" font-family="sans-serif" font-size="6.5" lengthAdjust="spacing" textLength="117" x="444.75" y="667.3491">saves the application file in the database</text><polygon fill="#181818" points="283.75,683.626,278.75,685.626,283.75,687.626,281.75,685.626" style="stroke:#181818;stroke-width:0.5;"/><line style="stroke:#181818;stroke-width:0.5;stroke-dasharray:2.0,2.0;" x1="280.75" x2="424.25" y1="685.626" y2="685.626"/><text fill="#000000" font-family="sans-serif" font-size="6.5" font-weight="bold" lengthAdjust="spacing" textLength="7" x="286.75" y="682.9946">38</text><text fill="#000000" font-family="sans-serif" font-size="6.5" lengthAdjust="spacing" textLength="67.5" x="295.75" y="682.9946">Confirms the file upload</text><polygon fill="#181818" points="26.25,699.2715,21.25,701.2715,26.25,703.2715,24.25,701.2715" style="stroke:#181818;stroke-width:0.5;"/><line style="stroke:#181818;stroke-width:0.5;stroke-dasharray:2.0,2.0;" x1="23.25" x2="275.25" y1="701.2715" y2="701.2715"/><text fill="#000000" font-family="sans-serif" font-size="6.5" font-weight="bold" lengthAdjust="spacing" textLength="7" x="29.25" y="698.6401">39</text><text fill="#000000" font-family="sans-serif" font-size="6.5" lengthAdjust="spacing" textLength="67.5" x="38.25" y="698.6401">Confirms the file upload</text><!--SRC=[lLRBRjiw4DthAuYib28kskAkXCA0uhgjWpeEf1XtpSXZcwX4wfAqs_JhEoFgGIdIhT42tIZAUCwSUHmEnKzMoLFn13e8hB0viAiK_Zk1p83j13zeNh0PU_VcpJyit9QvuZl6cONlbkq5EdyJziZi4PX6aD1GWBI6gJqwPLpkn8vRO7kbcK3pcUTa44fUNmKyisZUbA0vlN3JlWSbrrPaekJICiVvY8GVaM-x8aTyld-_NStdFS-hlkj2IQjLdeE-8ipYCVc2A5wMkSYg78RmHPElyqVd3whWueLVVB97fSMFAaWA-Ymo1ubJnDI6oU1hBlcXQfCFNQmlmIPGAYEmGyyEb2mVDWZhp4FadNh2faeX3t5Njyzxj_c_f4VX3MwoFwEeGUftcx7SKHBYJ89fbT3AOpR7gKSi8MaQownYfzyJOqUoNGNR5SObPRnw5R5C0_rEDZ95FC_RpflmkWFIhm4zPlCuZK2QamOI1R9HjR3R6j2VkOdbysOVtd83YSh1lDuyB9FuSPFSiCuMVrYlxdt3m-RVPR9Dbub76AT1dCxgL2Fc64rLwGcfs14xgffEeUOXs84FThcYnderzKfQezSw9GeQJBGNSXTFraykGVMiaiAukS2XKAFpl6kryTEeGMkgepgB4Ri0jAwJhyT_0O9cWoESpT6_r4BQ-rD1dO7T5mI71HY3v- -6PRGQiceNeJyZXaPi93Eh1Ponn-EC3DzGnbyD2J4xAcM0ATbhEwfhADuKYD7DRLgFYuWTm8QgfDncR_s-1ukc4UXHnpaYj_HsRPXTz_hHwHanU21ldpi1PEEYhfP2xTwSNpE58-U07eIhj8EjkWnOASBzcJbMRy9U1B-U5XKtGhe44q_8Q0Bm2n5XTLCwkaH6FYlPHiSu8R0cTfLPJr1ULBVMi6fVIPWqtkDl-vEZFh8fJNaHMOZ_N0zwwihjgethT74DuawYG2N7VLnNI0lQIxzYN9Ad6NTjPUlsFDtebCHDvJcrZ5cp7F_AElwJRLphlUJ6VC9Fh8BhS51OTx0Qfkm8sLT7T72ONiT65UzqOC1w7n7TtHWIy9uNy58MBQk1uShgNQz3KRIirIvuRVWPd7Wc3tvDmy_mGidkMXUoiYCrVyB1ZAo3kgMunoE6ttrxeGlJDgR-KXWvu8EjVmaIb_HF]--></g></svg>