<?xml version="1.0" encoding="us-ascii" standalone="no"?><svg xmlns="http://www.w3.org/2000/svg" xmlns:xlink="http://www.w3.org/1999/xlink" contentStyleType="text/css" height="457px" preserveAspectRatio="none" style="width:783px;height:457px;background:#FFFFFF;" version="1.1" viewBox="0 0 783 457" width="783px" zoomAndPan="magnify"><defs/><g><!--cluster ui--><g id="cluster_ui"><path d="M375.5,6.0137 L389.5,6.0137 A3.75,3.75 0 0 1 392,8.5137 L399,30.6348 L558.5,30.6348 A2.5,2.5 0 0 1 561,33.1348 L561,123.5137 A2.5,2.5 0 0 1 558.5,126.0137 L375.5,126.0137 A2.5,2.5 0 0 1 373,123.5137 L373,8.5137 A2.5,2.5 0 0 1 375.5,6.0137 " fill="none" style="stroke:#000000;stroke-width:1.5;"/><line style="stroke:#000000;stroke-width:1.5;" x1="373" x2="399" y1="30.6348" y2="30.6348"/><text fill="#000000" font-family="sans-serif" font-size="14" font-weight="bold" lengthAdjust="spacing" textLength="13" x="377" y="23.1211">ui</text></g><!--cluster application--><g id="cluster_application"><path d="M286.5,150.0137 L364.5,150.0137 A3.75,3.75 0 0 1 367,152.5137 L374,174.6348 L501.5,174.6348 A2.5,2.5 0 0 1 504,177.1348 L504,285.5137 A2.5,2.5 0 0 1 501.5,288.0137 L286.5,288.0137 A2.5,2.5 0 0 1 284,285.5137 L284,152.5137 A2.5,2.5 0 0 1 286.5,150.0137 " fill="none" style="stroke:#000000;stroke-width:1.5;"/><line style="stroke:#000000;stroke-width:1.5;" x1="284" x2="374" y1="174.6348" y2="174.6348"/><text fill="#000000" font-family="sans-serif" font-size="14" font-weight="bold" lengthAdjust="spacing" textLength="77" x="288" y="167.1211">application</text></g><!--cluster repository--><g id="cluster_repository"><path d="M580.5,159.0137 L653.5,159.0137 A3.75,3.75 0 0 1 656,161.5137 L663,183.6348 L773.5,183.6348 A2.5,2.5 0 0 1 776,186.1348 L776,276.5137 A2.5,2.5 0 0 1 773.5,279.0137 L580.5,279.0137 A2.5,2.5 0 0 1 578,276.5137 L578,161.5137 A2.5,2.5 0 0 1 580.5,159.0137 " fill="none" style="stroke:#000000;stroke-width:1.5;"/><line style="stroke:#000000;stroke-width:1.5;" x1="578" x2="663" y1="183.6348" y2="183.6348"/><text fill="#000000" font-family="sans-serif" font-size="14" font-weight="bold" lengthAdjust="spacing" textLength="72" x="582" y="176.1211">repository</text></g><!--cluster domain--><g id="cluster_domain"><path d="M8.5,312.0137 L60.5,312.0137 A3.75,3.75 0 0 1 63,314.5137 L70,336.6348 L743.5,336.6348 A2.5,2.5 0 0 1 746,339.1348 L746,447.5137 A2.5,2.5 0 0 1 743.5,450.0137 L8.5,450.0137 A2.5,2.5 0 0 1 6,447.5137 L6,314.5137 A2.5,2.5 0 0 1 8.5,312.0137 " fill="none" style="stroke:#000000;stroke-width:1.5;"/><line style="stroke:#000000;stroke-width:1.5;" x1="6" x2="70" y1="336.6348" y2="336.6348"/><text fill="#000000" font-family="sans-serif" font-size="14" font-weight="bold" lengthAdjust="spacing" textLength="51" x="10" y="329.1211">domain</text></g><!--class UploadTextFileUI--><g id="elem_UploadTextFileUI"><rect codeLine="6" fill="#F1F1F1" height="66.6211" id="UploadTextFileUI" rx="2.5" ry="2.5" style="stroke:#181818;stroke-width:0.5;" width="155" x="389.5" y="43.0137"/><ellipse cx="412.15" cy="59.0137" fill="#ADD1B2" rx="11" ry="11" style="stroke:#181818;stroke-width:1.0;"/><path d="M414.9156,54.8887 Q415.0719,54.6699 415.2594,54.5605 Q415.4469,54.4512 415.6656,54.4512 Q416.0406,54.4512 416.275,54.7168 Q416.5094,54.9668 416.5094,55.5762 L416.5094,57.0293 Q416.5094,57.6387 416.275,57.9043 Q416.0406,58.1699 415.6656,58.1699 Q415.3219,58.1699 415.1188,57.9668 Q414.9156,57.7793 414.8063,57.2637 Q414.7594,56.9043 414.5719,56.7168 Q414.2438,56.3418 413.6344,56.123 Q413.025,55.9043 412.4,55.9043 Q411.6344,55.9043 410.9938,56.2324 Q410.3688,56.5605 409.8688,57.3105 Q409.3844,58.0605 409.3844,59.0918 L409.3844,60.1855 Q409.3844,61.4199 410.275,62.248 Q411.1656,63.0605 412.7594,63.0605 Q413.6969,63.0605 414.3531,62.8105 Q414.7438,62.6543 415.1656,62.2168 Q415.4313,61.9512 415.5719,61.873 Q415.7281,61.7949 415.9313,61.7949 Q416.2594,61.7949 416.5094,62.0605 Q416.775,62.3105 416.775,62.6543 Q416.775,62.998 416.4313,63.4043 Q415.9313,63.9824 415.1344,64.3105 Q414.0563,64.7637 412.7594,64.7637 Q411.2438,64.7637 410.0406,64.1387 Q409.0563,63.6387 408.3688,62.5762 Q407.6813,61.498 407.6813,60.2168 L407.6813,59.0605 Q407.6813,57.7324 408.2906,56.5918 Q408.9156,55.4355 410.0094,54.8262 Q411.1031,54.2012 412.3375,54.2012 Q413.0719,54.2012 413.7125,54.373 Q414.3688,54.5293 414.9156,54.8887 Z " fill="#000000"/><text fill="#000000" font-family="sans-serif" font-size="14" lengthAdjust="spacing" textLength="106" x="427.85" y="64.8105">UploadTextFileUI</text><line style="stroke:#181818;stroke-width:0.5;" x1="390.5" x2="543.5" y1="75.0137" y2="75.0137"/><line style="stroke:#181818;stroke-width:0.5;" x1="390.5" x2="543.5" y1="83.0137" y2="83.0137"/><ellipse cx="400.5" cy="97.8242" fill="#84BE84" rx="3" ry="3" style="stroke:#038048;stroke-width:1.0;"/><text fill="#000000" font-family="sans-serif" font-size="14" lengthAdjust="spacing" textLength="129" x="409.5" y="102.1211">printNumeratedList()</text></g><!--class UploadTextFileController--><g id="elem_UploadTextFileController"><rect codeLine="15" fill="#F1F1F1" height="85.2422" id="UploadTextFileController" rx="2.5" ry="2.5" style="stroke:#181818;stroke-width:0.5;" width="188" x="300" y="187.0137"/><ellipse cx="315" cy="203.0137" fill="#ADD1B2" rx="11" ry="11" style="stroke:#181818;stroke-width:1.0;"/><path d="M317.7656,198.8887 Q317.9219,198.6699 318.1094,198.5605 Q318.2969,198.4512 318.5156,198.4512 Q318.8906,198.4512 319.125,198.7168 Q319.3594,198.9668 319.3594,199.5762 L319.3594,201.0293 Q319.3594,201.6387 319.125,201.9043 Q318.8906,202.1699 318.5156,202.1699 Q318.1719,202.1699 317.9688,201.9668 Q317.7656,201.7793 317.6563,201.2637 Q317.6094,200.9043 317.4219,200.7168 Q317.0938,200.3418 316.4844,200.123 Q315.875,199.9043 315.25,199.9043 Q314.4844,199.9043 313.8438,200.2324 Q313.2188,200.5605 312.7188,201.3105 Q312.2344,202.0605 312.2344,203.0918 L312.2344,204.1855 Q312.2344,205.4199 313.125,206.248 Q314.0156,207.0605 315.6094,207.0605 Q316.5469,207.0605 317.2031,206.8105 Q317.5938,206.6543 318.0156,206.2168 Q318.2813,205.9512 318.4219,205.873 Q318.5781,205.7949 318.7813,205.7949 Q319.1094,205.7949 319.3594,206.0605 Q319.625,206.3105 319.625,206.6543 Q319.625,206.998 319.2813,207.4043 Q318.7813,207.9824 317.9844,208.3105 Q316.9063,208.7637 315.6094,208.7637 Q314.0938,208.7637 312.8906,208.1387 Q311.9063,207.6387 311.2188,206.5762 Q310.5313,205.498 310.5313,204.2168 L310.5313,203.0605 Q310.5313,201.7324 311.1406,200.5918 Q311.7656,199.4355 312.8594,198.8262 Q313.9531,198.2012 315.1875,198.2012 Q315.9219,198.2012 316.5625,198.373 Q317.2188,198.5293 317.7656,198.8887 Z " fill="#000000"/><text fill="#000000" font-family="sans-serif" font-size="14" lengthAdjust="spacing" textLength="156" x="329" y="208.8105">UploadTextFileController</text><line style="stroke:#181818;stroke-width:0.5;" x1="301" x2="487" y1="219.0137" y2="219.0137"/><line style="stroke:#181818;stroke-width:0.5;" x1="301" x2="487" y1="227.0137" y2="227.0137"/><ellipse cx="311" cy="241.8242" fill="#84BE84" rx="3" ry="3" style="stroke:#038048;stroke-width:1.0;"/><text fill="#000000" font-family="sans-serif" font-size="14" lengthAdjust="spacing" textLength="96" x="320" y="246.1211">allCandidates()</text><ellipse cx="311" cy="260.4453" fill="#84BE84" rx="3" ry="3" style="stroke:#038048;stroke-width:1.0;"/><text fill="#000000" font-family="sans-serif" font-size="14" lengthAdjust="spacing" textLength="76" x="320" y="264.7422">uploadFile()</text></g><!--class CandidateRepository--><g id="elem_CandidateRepository"><rect codeLine="23" fill="#F1F1F1" height="66.6211" id="CandidateRepository" rx="2.5" ry="2.5" style="stroke:#181818;stroke-width:0.5;" width="165" x="594.5" y="196.0137"/><ellipse cx="609.5" cy="212.0137" fill="#B4A7E5" rx="11" ry="11" style="stroke:#181818;stroke-width:1.0;"/><path d="M610.4531,208.6543 L610.4531,215.3105 L612.1719,215.3105 Q612.7813,215.3105 613.0469,215.5449 Q613.3125,215.7793 613.3125,216.1699 Q613.3125,216.5449 613.0469,216.7793 Q612.7813,217.0137 612.1719,217.0137 L607.0313,217.0137 Q606.4219,217.0137 606.1563,216.7793 Q605.8906,216.5449 605.8906,216.1543 Q605.8906,215.7793 606.1563,215.5449 Q606.4219,215.3105 607.0313,215.3105 L608.75,215.3105 L608.75,208.6543 L607.0313,208.6543 Q606.4219,208.6543 606.1563,208.4199 Q605.8906,208.1855 605.8906,207.7949 Q605.8906,207.4199 606.1563,207.1855 Q606.4219,206.9512 607.0313,206.9512 L612.1719,206.9512 Q612.7813,206.9512 613.0469,207.1855 Q613.3125,207.4199 613.3125,207.7949 Q613.3125,208.1855 613.0469,208.4199 Q612.7813,208.6543 612.1719,208.6543 L610.4531,208.6543 Z " fill="#000000"/><text fill="#000000" font-family="sans-serif" font-size="14" font-style="italic" lengthAdjust="spacing" textLength="133" x="623.5" y="217.8105">CandidateRepository</text><line style="stroke:#181818;stroke-width:0.5;" x1="595.5" x2="758.5" y1="228.0137" y2="228.0137"/><line style="stroke:#181818;stroke-width:0.5;" x1="595.5" x2="758.5" y1="236.0137" y2="236.0137"/><ellipse cx="605.5" cy="250.8242" fill="#84BE84" rx="3" ry="3" style="stroke:#038048;stroke-width:1.0;"/><text fill="#000000" font-family="sans-serif" font-size="14" lengthAdjust="spacing" textLength="120" x="614.5" y="255.1211">findAllCandidates()</text></g><!--class AuthorizationService--><g id="elem_AuthorizationService"><rect codeLine="30" fill="#F1F1F1" height="85.2422" id="AuthorizationService" rx="2.5" ry="2.5" style="stroke:#181818;stroke-width:0.5;" width="305" x="22.5" y="349.0137"/><ellipse cx="106.25" cy="365.0137" fill="#ADD1B2" rx="11" ry="11" style="stroke:#181818;stroke-width:1.0;"/><path d="M109.0156,360.8887 Q109.1719,360.6699 109.3594,360.5605 Q109.5469,360.4512 109.7656,360.4512 Q110.1406,360.4512 110.375,360.7168 Q110.6094,360.9668 110.6094,361.5762 L110.6094,363.0293 Q110.6094,363.6387 110.375,363.9043 Q110.1406,364.1699 109.7656,364.1699 Q109.4219,364.1699 109.2188,363.9668 Q109.0156,363.7793 108.9063,363.2637 Q108.8594,362.9043 108.6719,362.7168 Q108.3438,362.3418 107.7344,362.123 Q107.125,361.9043 106.5,361.9043 Q105.7344,361.9043 105.0938,362.2324 Q104.4688,362.5605 103.9688,363.3105 Q103.4844,364.0605 103.4844,365.0918 L103.4844,366.1855 Q103.4844,367.4199 104.375,368.248 Q105.2656,369.0605 106.8594,369.0605 Q107.7969,369.0605 108.4531,368.8105 Q108.8438,368.6543 109.2656,368.2168 Q109.5313,367.9512 109.6719,367.873 Q109.8281,367.7949 110.0313,367.7949 Q110.3594,367.7949 110.6094,368.0605 Q110.875,368.3105 110.875,368.6543 Q110.875,368.998 110.5313,369.4043 Q110.0313,369.9824 109.2344,370.3105 Q108.1563,370.7637 106.8594,370.7637 Q105.3438,370.7637 104.1406,370.1387 Q103.1563,369.6387 102.4688,368.5762 Q101.7813,367.498 101.7813,366.2168 L101.7813,365.0605 Q101.7813,363.7324 102.3906,362.5918 Q103.0156,361.4355 104.1094,360.8262 Q105.2031,360.2012 106.4375,360.2012 Q107.1719,360.2012 107.8125,360.373 Q108.4688,360.5293 109.0156,360.8887 Z " fill="#000000"/><text fill="#000000" font-family="sans-serif" font-size="14" lengthAdjust="spacing" textLength="129" x="126.75" y="370.8105">AuthorizationService</text><line style="stroke:#181818;stroke-width:0.5;" x1="23.5" x2="326.5" y1="381.0137" y2="381.0137"/><line style="stroke:#181818;stroke-width:0.5;" x1="23.5" x2="326.5" y1="389.0137" y2="389.0137"/><ellipse cx="33.5" cy="403.8242" fill="#84BE84" rx="3" ry="3" style="stroke:#038048;stroke-width:1.0;"/><text fill="#000000" font-family="sans-serif" font-size="14" lengthAdjust="spacing" textLength="279" x="42.5" y="408.1211">authorizationService() : AuthorizationService</text><ellipse cx="33.5" cy="422.4453" fill="#84BE84" rx="3" ry="3" style="stroke:#038048;stroke-width:1.0;"/><text fill="#000000" font-family="sans-serif" font-size="14" lengthAdjust="spacing" textLength="233" x="42.5" y="426.7422">ensureAuthenticatedUserHasAnyOf()</text></g><!--class CandidateManagementService--><g id="elem_CandidateManagementService"><rect codeLine="35" fill="#F1F1F1" height="66.6211" id="CandidateManagementService" rx="2.5" ry="2.5" style="stroke:#181818;stroke-width:0.5;" width="226" x="363" y="358.0137"/><ellipse cx="378" cy="374.0137" fill="#ADD1B2" rx="11" ry="11" style="stroke:#181818;stroke-width:1.0;"/><path d="M380.7656,369.8887 Q380.9219,369.6699 381.1094,369.5605 Q381.2969,369.4512 381.5156,369.4512 Q381.8906,369.4512 382.125,369.7168 Q382.3594,369.9668 382.3594,370.5762 L382.3594,372.0293 Q382.3594,372.6387 382.125,372.9043 Q381.8906,373.1699 381.5156,373.1699 Q381.1719,373.1699 380.9688,372.9668 Q380.7656,372.7793 380.6563,372.2637 Q380.6094,371.9043 380.4219,371.7168 Q380.0938,371.3418 379.4844,371.123 Q378.875,370.9043 378.25,370.9043 Q377.4844,370.9043 376.8438,371.2324 Q376.2188,371.5605 375.7188,372.3105 Q375.2344,373.0605 375.2344,374.0918 L375.2344,375.1855 Q375.2344,376.4199 376.125,377.248 Q377.0156,378.0605 378.6094,378.0605 Q379.5469,378.0605 380.2031,377.8105 Q380.5938,377.6543 381.0156,377.2168 Q381.2813,376.9512 381.4219,376.873 Q381.5781,376.7949 381.7813,376.7949 Q382.1094,376.7949 382.3594,377.0605 Q382.625,377.3105 382.625,377.6543 Q382.625,377.998 382.2813,378.4043 Q381.7813,378.9824 380.9844,379.3105 Q379.9063,379.7637 378.6094,379.7637 Q377.0938,379.7637 375.8906,379.1387 Q374.9063,378.6387 374.2188,377.5762 Q373.5313,376.498 373.5313,375.2168 L373.5313,374.0605 Q373.5313,372.7324 374.1406,371.5918 Q374.7656,370.4355 375.8594,369.8262 Q376.9531,369.2012 378.1875,369.2012 Q378.9219,369.2012 379.5625,369.373 Q380.2188,369.5293 380.7656,369.8887 Z " fill="#000000"/><text fill="#000000" font-family="sans-serif" font-size="14" lengthAdjust="spacing" textLength="194" x="392" y="379.8105">CandidateManagementService</text><line style="stroke:#181818;stroke-width:0.5;" x1="364" x2="588" y1="390.0137" y2="390.0137"/><line style="stroke:#181818;stroke-width:0.5;" x1="364" x2="588" y1="398.0137" y2="398.0137"/><ellipse cx="374" cy="412.8242" fill="#84BE84" rx="3" ry="3" style="stroke:#038048;stroke-width:1.0;"/><text fill="#000000" font-family="sans-serif" font-size="14" lengthAdjust="spacing" textLength="89" x="383" y="417.1211">allCandidate()</text></g><!--class Candidate--><g id="elem_Candidate"><rect codeLine="39" fill="#F1F1F1" height="66.6211" id="Candidate" rx="2.5" ry="2.5" style="stroke:#181818;stroke-width:0.5;" width="105" x="624.5" y="358.0137"/><ellipse cx="643.1" cy="374.0137" fill="#ADD1B2" rx="11" ry="11" style="stroke:#181818;stroke-width:1.0;"/><path d="M645.8656,369.8887 Q646.0219,369.6699 646.2094,369.5605 Q646.3969,369.4512 646.6156,369.4512 Q646.9906,369.4512 647.225,369.7168 Q647.4594,369.9668 647.4594,370.5762 L647.4594,372.0293 Q647.4594,372.6387 647.225,372.9043 Q646.9906,373.1699 646.6156,373.1699 Q646.2719,373.1699 646.0688,372.9668 Q645.8656,372.7793 645.7563,372.2637 Q645.7094,371.9043 645.5219,371.7168 Q645.1938,371.3418 644.5844,371.123 Q643.975,370.9043 643.35,370.9043 Q642.5844,370.9043 641.9438,371.2324 Q641.3188,371.5605 640.8188,372.3105 Q640.3344,373.0605 640.3344,374.0918 L640.3344,375.1855 Q640.3344,376.4199 641.225,377.248 Q642.1156,378.0605 643.7094,378.0605 Q644.6469,378.0605 645.3031,377.8105 Q645.6938,377.6543 646.1156,377.2168 Q646.3813,376.9512 646.5219,376.873 Q646.6781,376.7949 646.8813,376.7949 Q647.2094,376.7949 647.4594,377.0605 Q647.725,377.3105 647.725,377.6543 Q647.725,377.998 647.3813,378.4043 Q646.8813,378.9824 646.0844,379.3105 Q645.0063,379.7637 643.7094,379.7637 Q642.1938,379.7637 640.9906,379.1387 Q640.0063,378.6387 639.3188,377.5762 Q638.6313,376.498 638.6313,375.2168 L638.6313,374.0605 Q638.6313,372.7324 639.2406,371.5918 Q639.8656,370.4355 640.9594,369.8262 Q642.0531,369.2012 643.2875,369.2012 Q644.0219,369.2012 644.6625,369.373 Q645.3188,369.5293 645.8656,369.8887 Z " fill="#000000"/><text fill="#000000" font-family="sans-serif" font-size="14" lengthAdjust="spacing" textLength="65" x="657.9" y="379.8105">Candidate</text><line style="stroke:#181818;stroke-width:0.5;" x1="625.5" x2="728.5" y1="390.0137" y2="390.0137"/><line style="stroke:#181818;stroke-width:0.5;" x1="625.5" x2="728.5" y1="398.0137" y2="398.0137"/><ellipse cx="635.5" cy="412.8242" fill="#84BE84" rx="3" ry="3" style="stroke:#038048;stroke-width:1.0;"/><text fill="#000000" font-family="sans-serif" font-size="14" lengthAdjust="spacing" textLength="79" x="644.5" y="417.1211">.curriculum()</text></g><!--link UploadTextFileUI to UploadTextFileController--><g id="link_UploadTextFileUI_UploadTextFileController"><path codeLine="44" d="M451.16,110.2737 C440.3,132.7437 428.4115,157.3318 416.7315,181.4918 " fill="none" id="UploadTextFileUI-to-UploadTextFileController" style="stroke:#181818;stroke-width:1.0;"/><polygon fill="#181818" points="414.12,186.8937,421.6385,180.5319,416.2962,182.3921,414.436,177.0499,414.12,186.8937" style="stroke:#181818;stroke-width:1.0;"/></g><!--link UploadTextFileUI to Candidate--><g id="link_UploadTextFileUI_Candidate"><path codeLine="45" d="M486.29,110.0737 C492.14,120.2137 498.47,131.5037 504,142.0137 C539.36,209.2137 519.73,247.3237 578,296.0137 C588.26,304.5837 595.81,296.6837 607,304.0137 C627.85,317.6637 642.1093,334.5465 654.4493,352.8765 " fill="none" id="UploadTextFileUI-to-Candidate" style="stroke:#181818;stroke-width:1.0;"/><polygon fill="#181818" points="657.8,357.8537,656.0921,348.154,655.0077,353.706,649.4558,352.6217,657.8,357.8537" style="stroke:#181818;stroke-width:1.0;"/></g><!--link UploadTextFileController to AuthorizationService--><g id="link_UploadTextFileController_AuthorizationService"><path codeLine="46" d="M337.03,272.1337 C304.71,295.7437 269.2453,321.6648 236.9053,345.2848 " fill="none" id="UploadTextFileController-to-AuthorizationService" style="stroke:#181818;stroke-width:1.0;"/><polygon fill="#181818" points="232.06,348.8237,241.6871,346.7456,236.0977,345.8747,236.9687,340.2853,232.06,348.8237" style="stroke:#181818;stroke-width:1.0;"/></g><!--link UploadTextFileController to CandidateManagementService--><g id="link_UploadTextFileController_CandidateManagementService"><path codeLine="47" d="M415.33,272.1337 C429.04,298.8937 443.8742,327.8237 456.5642,352.5937 " fill="none" id="UploadTextFileController-to-CandidateManagementService" style="stroke:#181818;stroke-width:1.0;"/><polygon fill="#181818" points="459.3,357.9337,458.7564,348.0998,457.0202,353.4837,451.6364,351.7475,459.3,357.9337" style="stroke:#181818;stroke-width:1.0;"/></g><!--link CandidateManagementService to CandidateRepository--><g id="link_CandidateManagementService_CandidateRepository"><path codeLine="48" d="M517.11,357.7937 C551.78,330.1937 596.4561,294.6309 631.1461,267.0109 " fill="none" id="CandidateManagementService-to-CandidateRepository" style="stroke:#181818;stroke-width:1.0;"/><polygon fill="#181818" points="635.84,263.2737,626.3076,265.7503,631.9284,266.3881,631.2906,272.0089,635.84,263.2737" style="stroke:#181818;stroke-width:1.0;"/></g><!--link CandidateRepository to Candidate--><g id="link_CandidateRepository_Candidate"><path codeLine="49" d="M677,263.2737 C677,290.8937 677,324.1937 677,351.7937 " fill="none" id="CandidateRepository-to-Candidate" style="stroke:#181818;stroke-width:1.0;"/><polygon fill="#181818" points="677,357.7937,681,348.7937,677,352.7937,673,348.7937,677,357.7937" style="stroke:#181818;stroke-width:1.0;"/></g><!--SRC=[ZPBHIiGm44NV-nLvt4NM3_11A0kYu2ge_O2XcUfWceH98gxYlzjqI-p6T3KFfJHtvjmx7GljApoZ22G-Ap6TLe5peh7AW7p2Ttz52fkRcI2UCyka_LteaS6Zl2NdL-ka-AeEptZYcvquOAsY5ZmP_GTmQxHdenHo3WQbjg0boO7hPipnCenDOeEIcxaLHciSUSFx0P2aGoRa3beKYV6GX9cHZhIi5ymKaTBqG7gEEoIlWtynJ1_ZN1wHtsZWvwaBcjLQN1IBZqjHky0OTQXzd3xAnY5VWwlr_huxSfqvIzbse8S4_T1WGfpuAVzgcESxRmCpjK65lZJ6V1itcyl5XVab5b6ToDNYeaLPSPmdAvPdL2rV7LV-h5XL-9RP_mO0]--></g></svg>