<?xml version="1.0" encoding="us-ascii" standalone="no"?><svg xmlns="http://www.w3.org/2000/svg" xmlns:xlink="http://www.w3.org/1999/xlink" contentStyleType="text/css" height="656px" preserveAspectRatio="none" style="width:995px;height:656px;background:#FFFFFF;" version="1.1" viewBox="0 0 995 656" width="995px" zoomAndPan="magnify"><defs/><g><!--cluster ui--><g id="cluster_ui"><path d="M569.5,6.0137 L583.5,6.0137 A3.75,3.75 0 0 1 586,8.5137 L593,30.6348 L776.5,30.6348 A2.5,2.5 0 0 1 779,33.1348 L779,141.5137 A2.5,2.5 0 0 1 776.5,144.0137 L569.5,144.0137 A2.5,2.5 0 0 1 567,141.5137 L567,8.5137 A2.5,2.5 0 0 1 569.5,6.0137 " fill="none" style="stroke:#000000;stroke-width:1.5;"/><line style="stroke:#000000;stroke-width:1.5;" x1="567" x2="593" y1="30.6348" y2="30.6348"/><text fill="#000000" font-family="sans-serif" font-size="14" font-weight="bold" lengthAdjust="spacing" textLength="13" x="571" y="23.1211">ui</text></g><!--cluster application--><g id="cluster_application"><path d="M472.5,168.0137 L550.5,168.0137 A3.75,3.75 0 0 1 553,170.5137 L560,192.6348 L713.5,192.6348 A2.5,2.5 0 0 1 716,195.1348 L716,322.5137 A2.5,2.5 0 0 1 713.5,325.0137 L472.5,325.0137 A2.5,2.5 0 0 1 470,322.5137 L470,170.5137 A2.5,2.5 0 0 1 472.5,168.0137 " fill="none" style="stroke:#000000;stroke-width:1.5;"/><line style="stroke:#000000;stroke-width:1.5;" x1="470" x2="560" y1="192.6348" y2="192.6348"/><text fill="#000000" font-family="sans-serif" font-size="14" font-weight="bold" lengthAdjust="spacing" textLength="77" x="474" y="185.1211">application</text></g><!--cluster repository--><g id="cluster_repository"><path d="M8.5,349.0137 L81.5,349.0137 A3.75,3.75 0 0 1 84,351.5137 L91,373.6348 L482.5,373.6348 A2.5,2.5 0 0 1 485,376.1348 L485,484.5137 A2.5,2.5 0 0 1 482.5,487.0137 L8.5,487.0137 A2.5,2.5 0 0 1 6,484.5137 L6,351.5137 A2.5,2.5 0 0 1 8.5,349.0137 " fill="none" style="stroke:#000000;stroke-width:1.5;"/><line style="stroke:#000000;stroke-width:1.5;" x1="6" x2="91" y1="373.6348" y2="373.6348"/><text fill="#000000" font-family="sans-serif" font-size="14" font-weight="bold" lengthAdjust="spacing" textLength="72" x="10" y="366.1211">repository</text></g><!--cluster domain--><g id="cluster_domain"><path d="M16.5,511.0137 L68.5,511.0137 A3.75,3.75 0 0 1 71,513.5137 L78,535.6348 L985.5,535.6348 A2.5,2.5 0 0 1 988,538.1348 L988,646.5137 A2.5,2.5 0 0 1 985.5,649.0137 L16.5,649.0137 A2.5,2.5 0 0 1 14,646.5137 L14,513.5137 A2.5,2.5 0 0 1 16.5,511.0137 " fill="none" style="stroke:#000000;stroke-width:1.5;"/><line style="stroke:#000000;stroke-width:1.5;" x1="14" x2="78" y1="535.6348" y2="535.6348"/><text fill="#000000" font-family="sans-serif" font-size="14" font-weight="bold" lengthAdjust="spacing" textLength="51" x="18" y="528.1211">domain</text></g><!--class UploadTextFileUI--><g id="elem_UploadTextFileUI"><rect codeLine="6" fill="#F1F1F1" height="85.2422" id="UploadTextFileUI" rx="2.5" ry="2.5" style="stroke:#181818;stroke-width:0.5;" width="180" x="583" y="43.0137"/><ellipse cx="616.9" cy="59.0137" fill="#ADD1B2" rx="11" ry="11" style="stroke:#181818;stroke-width:1.0;"/><path d="M619.6656,54.8887 Q619.8219,54.6699 620.0094,54.5605 Q620.1969,54.4512 620.4156,54.4512 Q620.7906,54.4512 621.025,54.7168 Q621.2594,54.9668 621.2594,55.5762 L621.2594,57.0293 Q621.2594,57.6387 621.025,57.9043 Q620.7906,58.1699 620.4156,58.1699 Q620.0719,58.1699 619.8688,57.9668 Q619.6656,57.7793 619.5563,57.2637 Q619.5094,56.9043 619.3219,56.7168 Q618.9938,56.3418 618.3844,56.123 Q617.775,55.9043 617.15,55.9043 Q616.3844,55.9043 615.7438,56.2324 Q615.1188,56.5605 614.6188,57.3105 Q614.1344,58.0605 614.1344,59.0918 L614.1344,60.1855 Q614.1344,61.4199 615.025,62.248 Q615.9156,63.0605 617.5094,63.0605 Q618.4469,63.0605 619.1031,62.8105 Q619.4938,62.6543 619.9156,62.2168 Q620.1813,61.9512 620.3219,61.873 Q620.4781,61.7949 620.6813,61.7949 Q621.0094,61.7949 621.2594,62.0605 Q621.525,62.3105 621.525,62.6543 Q621.525,62.998 621.1813,63.4043 Q620.6813,63.9824 619.8844,64.3105 Q618.8063,64.7637 617.5094,64.7637 Q615.9938,64.7637 614.7906,64.1387 Q613.8063,63.6387 613.1188,62.5762 Q612.4313,61.498 612.4313,60.2168 L612.4313,59.0605 Q612.4313,57.7324 613.0406,56.5918 Q613.6656,55.4355 614.7594,54.8262 Q615.8531,54.2012 617.0875,54.2012 Q617.8219,54.2012 618.4625,54.373 Q619.1188,54.5293 619.6656,54.8887 Z " fill="#000000"/><text fill="#000000" font-family="sans-serif" font-size="14" lengthAdjust="spacing" textLength="106" x="635.1" y="64.8105">UploadTextFileUI</text><line style="stroke:#181818;stroke-width:0.5;" x1="584" x2="762" y1="75.0137" y2="75.0137"/><line style="stroke:#181818;stroke-width:0.5;" x1="584" x2="762" y1="83.0137" y2="83.0137"/><ellipse cx="594" cy="97.8242" fill="#84BE84" rx="3" ry="3" style="stroke:#038048;stroke-width:1.0;"/><text fill="#000000" font-family="sans-serif" font-size="14" lengthAdjust="spacing" textLength="129" x="603" y="102.1211">printNumeratedList()</text><ellipse cx="594" cy="116.4453" fill="#84BE84" rx="3" ry="3" style="stroke:#038048;stroke-width:1.0;"/><text fill="#000000" font-family="sans-serif" font-size="14" lengthAdjust="spacing" textLength="154" x="603" y="120.7422">printNumeratedListApp()</text></g><!--class UploadTextFileController--><g id="elem_UploadTextFileController"><rect codeLine="16" fill="#F1F1F1" height="103.8633" id="UploadTextFileController" rx="2.5" ry="2.5" style="stroke:#181818;stroke-width:0.5;" width="213" x="486.5" y="205.0137"/><ellipse cx="512.75" cy="221.0137" fill="#ADD1B2" rx="11" ry="11" style="stroke:#181818;stroke-width:1.0;"/><path d="M515.5156,216.8887 Q515.6719,216.6699 515.8594,216.5605 Q516.0469,216.4512 516.2656,216.4512 Q516.6406,216.4512 516.875,216.7168 Q517.1094,216.9668 517.1094,217.5762 L517.1094,219.0293 Q517.1094,219.6387 516.875,219.9043 Q516.6406,220.1699 516.2656,220.1699 Q515.9219,220.1699 515.7188,219.9668 Q515.5156,219.7793 515.4063,219.2637 Q515.3594,218.9043 515.1719,218.7168 Q514.8438,218.3418 514.2344,218.123 Q513.625,217.9043 513,217.9043 Q512.2344,217.9043 511.5938,218.2324 Q510.9688,218.5605 510.4688,219.3105 Q509.9844,220.0605 509.9844,221.0918 L509.9844,222.1855 Q509.9844,223.4199 510.875,224.248 Q511.7656,225.0605 513.3594,225.0605 Q514.2969,225.0605 514.9531,224.8105 Q515.3438,224.6543 515.7656,224.2168 Q516.0313,223.9512 516.1719,223.873 Q516.3281,223.7949 516.5313,223.7949 Q516.8594,223.7949 517.1094,224.0605 Q517.375,224.3105 517.375,224.6543 Q517.375,224.998 517.0313,225.4043 Q516.5313,225.9824 515.7344,226.3105 Q514.6563,226.7637 513.3594,226.7637 Q511.8438,226.7637 510.6406,226.1387 Q509.6563,225.6387 508.9688,224.5762 Q508.2813,223.498 508.2813,222.2168 L508.2813,221.0605 Q508.2813,219.7324 508.8906,218.5918 Q509.5156,217.4355 510.6094,216.8262 Q511.7031,216.2012 512.9375,216.2012 Q513.6719,216.2012 514.3125,216.373 Q514.9688,216.5293 515.5156,216.8887 Z " fill="#000000"/><text fill="#000000" font-family="sans-serif" font-size="14" lengthAdjust="spacing" textLength="156" x="529.25" y="226.8105">UploadTextFileController</text><line style="stroke:#181818;stroke-width:0.5;" x1="487.5" x2="698.5" y1="237.0137" y2="237.0137"/><line style="stroke:#181818;stroke-width:0.5;" x1="487.5" x2="698.5" y1="245.0137" y2="245.0137"/><ellipse cx="497.5" cy="259.8242" fill="#84BE84" rx="3" ry="3" style="stroke:#038048;stroke-width:1.0;"/><text fill="#000000" font-family="sans-serif" font-size="14" lengthAdjust="spacing" textLength="96" x="506.5" y="264.1211">allCandidates()</text><ellipse cx="497.5" cy="278.4453" fill="#84BE84" rx="3" ry="3" style="stroke:#038048;stroke-width:1.0;"/><text fill="#000000" font-family="sans-serif" font-size="14" lengthAdjust="spacing" textLength="76" x="506.5" y="282.7422">uploadFile()</text><ellipse cx="497.5" cy="297.0664" fill="#84BE84" rx="3" ry="3" style="stroke:#038048;stroke-width:1.0;"/><text fill="#000000" font-family="sans-serif" font-size="14" lengthAdjust="spacing" textLength="187" x="506.5" y="301.3633">getApplicationsByCandidate()</text></g><!--class CandidateRepository--><g id="elem_CandidateRepository"><rect codeLine="25" fill="#F1F1F1" height="66.6211" id="CandidateRepository" rx="2.5" ry="2.5" style="stroke:#181818;stroke-width:0.5;" width="165" x="303.5" y="395.0137"/><ellipse cx="318.5" cy="411.0137" fill="#B4A7E5" rx="11" ry="11" style="stroke:#181818;stroke-width:1.0;"/><path d="M319.4531,407.6543 L319.4531,414.3105 L321.1719,414.3105 Q321.7813,414.3105 322.0469,414.5449 Q322.3125,414.7793 322.3125,415.1699 Q322.3125,415.5449 322.0469,415.7793 Q321.7813,416.0137 321.1719,416.0137 L316.0313,416.0137 Q315.4219,416.0137 315.1563,415.7793 Q314.8906,415.5449 314.8906,415.1543 Q314.8906,414.7793 315.1563,414.5449 Q315.4219,414.3105 316.0313,414.3105 L317.75,414.3105 L317.75,407.6543 L316.0313,407.6543 Q315.4219,407.6543 315.1563,407.4199 Q314.8906,407.1855 314.8906,406.7949 Q314.8906,406.4199 315.1563,406.1855 Q315.4219,405.9512 316.0313,405.9512 L321.1719,405.9512 Q321.7813,405.9512 322.0469,406.1855 Q322.3125,406.4199 322.3125,406.7949 Q322.3125,407.1855 322.0469,407.4199 Q321.7813,407.6543 321.1719,407.6543 L319.4531,407.6543 Z " fill="#000000"/><text fill="#000000" font-family="sans-serif" font-size="14" font-style="italic" lengthAdjust="spacing" textLength="133" x="332.5" y="416.8105">CandidateRepository</text><line style="stroke:#181818;stroke-width:0.5;" x1="304.5" x2="467.5" y1="427.0137" y2="427.0137"/><line style="stroke:#181818;stroke-width:0.5;" x1="304.5" x2="467.5" y1="435.0137" y2="435.0137"/><ellipse cx="314.5" cy="449.8242" fill="#84BE84" rx="3" ry="3" style="stroke:#038048;stroke-width:1.0;"/><text fill="#000000" font-family="sans-serif" font-size="14" lengthAdjust="spacing" textLength="120" x="323.5" y="454.1211">findAllCandidates()</text></g><!--class JobOpeningApplicationRepository--><g id="elem_JobOpeningApplicationRepository"><rect codeLine="29" fill="#F1F1F1" height="85.2422" id="JobOpeningApplicationRepository" rx="2.5" ry="2.5" style="stroke:#181818;stroke-width:0.5;" width="246" x="22" y="386.0137"/><ellipse cx="37" cy="402.0137" fill="#B4A7E5" rx="11" ry="11" style="stroke:#181818;stroke-width:1.0;"/><path d="M37.9531,398.6543 L37.9531,405.3105 L39.6719,405.3105 Q40.2813,405.3105 40.5469,405.5449 Q40.8125,405.7793 40.8125,406.1699 Q40.8125,406.5449 40.5469,406.7793 Q40.2813,407.0137 39.6719,407.0137 L34.5313,407.0137 Q33.9219,407.0137 33.6563,406.7793 Q33.3906,406.5449 33.3906,406.1543 Q33.3906,405.7793 33.6563,405.5449 Q33.9219,405.3105 34.5313,405.3105 L36.25,405.3105 L36.25,398.6543 L34.5313,398.6543 Q33.9219,398.6543 33.6563,398.4199 Q33.3906,398.1855 33.3906,397.7949 Q33.3906,397.4199 33.6563,397.1855 Q33.9219,396.9512 34.5313,396.9512 L39.6719,396.9512 Q40.2813,396.9512 40.5469,397.1855 Q40.8125,397.4199 40.8125,397.7949 Q40.8125,398.1855 40.5469,398.4199 Q40.2813,398.6543 39.6719,398.6543 L37.9531,398.6543 Z " fill="#000000"/><text fill="#000000" font-family="sans-serif" font-size="14" font-style="italic" lengthAdjust="spacing" textLength="214" x="51" y="407.8105">JobOpeningApplicationRepository</text><line style="stroke:#181818;stroke-width:0.5;" x1="23" x2="267" y1="418.0137" y2="418.0137"/><line style="stroke:#181818;stroke-width:0.5;" x1="23" x2="267" y1="426.0137" y2="426.0137"/><ellipse cx="33" cy="440.8242" fill="#84BE84" rx="3" ry="3" style="stroke:#038048;stroke-width:1.0;"/><text fill="#000000" font-family="sans-serif" font-size="14" lengthAdjust="spacing" textLength="181" x="42" y="445.1211">allApplicationsByCandidate()</text><ellipse cx="33" cy="459.4453" fill="#84BE84" rx="3" ry="3" style="stroke:#038048;stroke-width:1.0;"/><text fill="#000000" font-family="sans-serif" font-size="14" lengthAdjust="spacing" textLength="40" x="42" y="463.7422">save()</text></g><!--class AuthorizationService--><g id="elem_AuthorizationService"><rect codeLine="37" fill="#F1F1F1" height="85.2422" id="AuthorizationService" rx="2.5" ry="2.5" style="stroke:#181818;stroke-width:0.5;" width="305" x="534.5" y="548.0137"/><ellipse cx="618.25" cy="564.0137" fill="#ADD1B2" rx="11" ry="11" style="stroke:#181818;stroke-width:1.0;"/><path d="M621.0156,559.8887 Q621.1719,559.6699 621.3594,559.5605 Q621.5469,559.4512 621.7656,559.4512 Q622.1406,559.4512 622.375,559.7168 Q622.6094,559.9668 622.6094,560.5762 L622.6094,562.0293 Q622.6094,562.6387 622.375,562.9043 Q622.1406,563.1699 621.7656,563.1699 Q621.4219,563.1699 621.2188,562.9668 Q621.0156,562.7793 620.9063,562.2637 Q620.8594,561.9043 620.6719,561.7168 Q620.3438,561.3418 619.7344,561.123 Q619.125,560.9043 618.5,560.9043 Q617.7344,560.9043 617.0938,561.2324 Q616.4688,561.5605 615.9688,562.3105 Q615.4844,563.0605 615.4844,564.0918 L615.4844,565.1855 Q615.4844,566.4199 616.375,567.248 Q617.2656,568.0605 618.8594,568.0605 Q619.7969,568.0605 620.4531,567.8105 Q620.8438,567.6543 621.2656,567.2168 Q621.5313,566.9512 621.6719,566.873 Q621.8281,566.7949 622.0313,566.7949 Q622.3594,566.7949 622.6094,567.0605 Q622.875,567.3105 622.875,567.6543 Q622.875,567.998 622.5313,568.4043 Q622.0313,568.9824 621.2344,569.3105 Q620.1563,569.7637 618.8594,569.7637 Q617.3438,569.7637 616.1406,569.1387 Q615.1563,568.6387 614.4688,567.5762 Q613.7813,566.498 613.7813,565.2168 L613.7813,564.0605 Q613.7813,562.7324 614.3906,561.5918 Q615.0156,560.4355 616.1094,559.8262 Q617.2031,559.2012 618.4375,559.2012 Q619.1719,559.2012 619.8125,559.373 Q620.4688,559.5293 621.0156,559.8887 Z " fill="#000000"/><text fill="#000000" font-family="sans-serif" font-size="14" lengthAdjust="spacing" textLength="129" x="638.75" y="569.8105">AuthorizationService</text><line style="stroke:#181818;stroke-width:0.5;" x1="535.5" x2="838.5" y1="580.0137" y2="580.0137"/><line style="stroke:#181818;stroke-width:0.5;" x1="535.5" x2="838.5" y1="588.0137" y2="588.0137"/><ellipse cx="545.5" cy="602.8242" fill="#84BE84" rx="3" ry="3" style="stroke:#038048;stroke-width:1.0;"/><text fill="#000000" font-family="sans-serif" font-size="14" lengthAdjust="spacing" textLength="279" x="554.5" y="607.1211">authorizationService() : AuthorizationService</text><ellipse cx="545.5" cy="621.4453" fill="#84BE84" rx="3" ry="3" style="stroke:#038048;stroke-width:1.0;"/><text fill="#000000" font-family="sans-serif" font-size="14" lengthAdjust="spacing" textLength="233" x="554.5" y="625.7422">ensureAuthenticatedUserHasAnyOf()</text></g><!--class JobOpeningApplication--><g id="elem_JobOpeningApplication"><rect codeLine="41" fill="#F1F1F1" height="66.6211" id="JobOpeningApplication" rx="2.5" ry="2.5" style="stroke:#181818;stroke-width:0.5;" width="208" x="30" y="557.0137"/><ellipse cx="58.95" cy="573.0137" fill="#ADD1B2" rx="11" ry="11" style="stroke:#181818;stroke-width:1.0;"/><path d="M61.7156,568.8887 Q61.8719,568.6699 62.0594,568.5605 Q62.2469,568.4512 62.4656,568.4512 Q62.8406,568.4512 63.075,568.7168 Q63.3094,568.9668 63.3094,569.5762 L63.3094,571.0293 Q63.3094,571.6387 63.075,571.9043 Q62.8406,572.1699 62.4656,572.1699 Q62.1219,572.1699 61.9188,571.9668 Q61.7156,571.7793 61.6063,571.2637 Q61.5594,570.9043 61.3719,570.7168 Q61.0438,570.3418 60.4344,570.123 Q59.825,569.9043 59.2,569.9043 Q58.4344,569.9043 57.7938,570.2324 Q57.1688,570.5605 56.6688,571.3105 Q56.1844,572.0605 56.1844,573.0918 L56.1844,574.1855 Q56.1844,575.4199 57.075,576.248 Q57.9656,577.0605 59.5594,577.0605 Q60.4969,577.0605 61.1531,576.8105 Q61.5438,576.6543 61.9656,576.2168 Q62.2313,575.9512 62.3719,575.873 Q62.5281,575.7949 62.7313,575.7949 Q63.0594,575.7949 63.3094,576.0605 Q63.575,576.3105 63.575,576.6543 Q63.575,576.998 63.2313,577.4043 Q62.7313,577.9824 61.9344,578.3105 Q60.8563,578.7637 59.5594,578.7637 Q58.0438,578.7637 56.8406,578.1387 Q55.8563,577.6387 55.1688,576.5762 Q54.4813,575.498 54.4813,574.2168 L54.4813,573.0605 Q54.4813,571.7324 55.0906,570.5918 Q55.7156,569.4355 56.8094,568.8262 Q57.9031,568.2012 59.1375,568.2012 Q59.8719,568.2012 60.5125,568.373 Q61.1688,568.5293 61.7156,568.8887 Z " fill="#000000"/><text fill="#000000" font-family="sans-serif" font-size="14" lengthAdjust="spacing" textLength="145" x="76.05" y="578.8105">JobOpeningApplication</text><line style="stroke:#181818;stroke-width:0.5;" x1="31" x2="237" y1="589.0137" y2="589.0137"/><line style="stroke:#181818;stroke-width:0.5;" x1="31" x2="237" y1="597.0137" y2="597.0137"/><ellipse cx="41" cy="611.8242" fill="#84BE84" rx="3" ry="3" style="stroke:#038048;stroke-width:1.0;"/><text fill="#000000" font-family="sans-serif" font-size="14" lengthAdjust="spacing" textLength="182" x="50" y="616.1211">setCandidateRequirements()</text></g><!--class CandidateManagementService--><g id="elem_CandidateManagementService"><rect codeLine="45" fill="#F1F1F1" height="66.6211" id="CandidateManagementService" rx="2.5" ry="2.5" style="stroke:#181818;stroke-width:0.5;" width="226" x="273" y="557.0137"/><ellipse cx="288" cy="573.0137" fill="#ADD1B2" rx="11" ry="11" style="stroke:#181818;stroke-width:1.0;"/><path d="M290.7656,568.8887 Q290.9219,568.6699 291.1094,568.5605 Q291.2969,568.4512 291.5156,568.4512 Q291.8906,568.4512 292.125,568.7168 Q292.3594,568.9668 292.3594,569.5762 L292.3594,571.0293 Q292.3594,571.6387 292.125,571.9043 Q291.8906,572.1699 291.5156,572.1699 Q291.1719,572.1699 290.9688,571.9668 Q290.7656,571.7793 290.6563,571.2637 Q290.6094,570.9043 290.4219,570.7168 Q290.0938,570.3418 289.4844,570.123 Q288.875,569.9043 288.25,569.9043 Q287.4844,569.9043 286.8438,570.2324 Q286.2188,570.5605 285.7188,571.3105 Q285.2344,572.0605 285.2344,573.0918 L285.2344,574.1855 Q285.2344,575.4199 286.125,576.248 Q287.0156,577.0605 288.6094,577.0605 Q289.5469,577.0605 290.2031,576.8105 Q290.5938,576.6543 291.0156,576.2168 Q291.2813,575.9512 291.4219,575.873 Q291.5781,575.7949 291.7813,575.7949 Q292.1094,575.7949 292.3594,576.0605 Q292.625,576.3105 292.625,576.6543 Q292.625,576.998 292.2813,577.4043 Q291.7813,577.9824 290.9844,578.3105 Q289.9063,578.7637 288.6094,578.7637 Q287.0938,578.7637 285.8906,578.1387 Q284.9063,577.6387 284.2188,576.5762 Q283.5313,575.498 283.5313,574.2168 L283.5313,573.0605 Q283.5313,571.7324 284.1406,570.5918 Q284.7656,569.4355 285.8594,568.8262 Q286.9531,568.2012 288.1875,568.2012 Q288.9219,568.2012 289.5625,568.373 Q290.2188,568.5293 290.7656,568.8887 Z " fill="#000000"/><text fill="#000000" font-family="sans-serif" font-size="14" lengthAdjust="spacing" textLength="194" x="302" y="578.8105">CandidateManagementService</text><line style="stroke:#181818;stroke-width:0.5;" x1="274" x2="498" y1="589.0137" y2="589.0137"/><line style="stroke:#181818;stroke-width:0.5;" x1="274" x2="498" y1="597.0137" y2="597.0137"/><ellipse cx="284" cy="611.8242" fill="#84BE84" rx="3" ry="3" style="stroke:#038048;stroke-width:1.0;"/><text fill="#000000" font-family="sans-serif" font-size="14" lengthAdjust="spacing" textLength="89" x="293" y="616.1211">allCandidate()</text></g><!--class Candidate--><g id="elem_Candidate"><rect codeLine="49" fill="#F1F1F1" height="48" id="Candidate" rx="2.5" ry="2.5" style="stroke:#181818;stroke-width:0.5;" width="97" x="874.5" y="566.5137"/><ellipse cx="889.5" cy="582.5137" fill="#ADD1B2" rx="11" ry="11" style="stroke:#181818;stroke-width:1.0;"/><path d="M892.2656,578.3887 Q892.4219,578.1699 892.6094,578.0605 Q892.7969,577.9512 893.0156,577.9512 Q893.3906,577.9512 893.625,578.2168 Q893.8594,578.4668 893.8594,579.0762 L893.8594,580.5293 Q893.8594,581.1387 893.625,581.4043 Q893.3906,581.6699 893.0156,581.6699 Q892.6719,581.6699 892.4688,581.4668 Q892.2656,581.2793 892.1563,580.7637 Q892.1094,580.4043 891.9219,580.2168 Q891.5938,579.8418 890.9844,579.623 Q890.375,579.4043 889.75,579.4043 Q888.9844,579.4043 888.3438,579.7324 Q887.7188,580.0605 887.2188,580.8105 Q886.7344,581.5605 886.7344,582.5918 L886.7344,583.6855 Q886.7344,584.9199 887.625,585.748 Q888.5156,586.5605 890.1094,586.5605 Q891.0469,586.5605 891.7031,586.3105 Q892.0938,586.1543 892.5156,585.7168 Q892.7813,585.4512 892.9219,585.373 Q893.0781,585.2949 893.2813,585.2949 Q893.6094,585.2949 893.8594,585.5605 Q894.125,585.8105 894.125,586.1543 Q894.125,586.498 893.7813,586.9043 Q893.2813,587.4824 892.4844,587.8105 Q891.4063,588.2637 890.1094,588.2637 Q888.5938,588.2637 887.3906,587.6387 Q886.4063,587.1387 885.7188,586.0762 Q885.0313,584.998 885.0313,583.7168 L885.0313,582.5605 Q885.0313,581.2324 885.6406,580.0918 Q886.2656,578.9355 887.3594,578.3262 Q888.4531,577.7012 889.6875,577.7012 Q890.4219,577.7012 891.0625,577.873 Q891.7188,578.0293 892.2656,578.3887 Z " fill="#000000"/><text fill="#000000" font-family="sans-serif" font-size="14" lengthAdjust="spacing" textLength="65" x="903.5" y="588.3105">Candidate</text><line style="stroke:#181818;stroke-width:0.5;" x1="875.5" x2="970.5" y1="598.5137" y2="598.5137"/><line style="stroke:#181818;stroke-width:0.5;" x1="875.5" x2="970.5" y1="606.5137" y2="606.5137"/></g><!--link UploadTextFileUI to UploadTextFileController--><g id="link_UploadTextFileUI_UploadTextFileController"><path codeLine="53" d="M653.22,128.4137 C642.3,151.5537 631.2219,175.0381 619.6719,199.4981 " fill="none" id="UploadTextFileUI-to-UploadTextFileController" style="stroke:#181818;stroke-width:1.0;"/><polygon fill="#181818" points="617.11,204.9237,624.5699,198.4933,619.2449,200.4024,617.3359,195.0774,617.11,204.9237" style="stroke:#181818;stroke-width:1.0;"/></g><!--link UploadTextFileUI to Candidate--><g id="link_UploadTextFileUI_Candidate"><path codeLine="54" d="M698.15,128.1637 C704.16,138.4837 710.44,149.5737 716,160.0137 C797.1,312.3537 880.947,495.9725 910.177,560.9025 " fill="none" id="UploadTextFileUI-to-Candidate" style="stroke:#181818;stroke-width:1.0;"/><polygon fill="#181818" points="912.64,566.3737,912.593,556.5249,910.5875,561.8144,905.2981,559.8089,912.64,566.3737" style="stroke:#181818;stroke-width:1.0;"/></g><!--link UploadTextFileController to AuthorizationService--><g id="link_UploadTextFileController_AuthorizationService"><path codeLine="55" d="M609.38,309.2837 C612.64,319.7637 615.98,330.7237 619,341.0137 C640.21,413.3337 661.4283,492.3125 674.4983,541.8125 " fill="none" id="UploadTextFileController-to-AuthorizationService" style="stroke:#181818;stroke-width:1.0;"/><polygon fill="#181818" points="676.03,547.6137,677.5998,537.8907,674.7535,542.7794,669.8649,539.9331,676.03,547.6137" style="stroke:#181818;stroke-width:1.0;"/></g><!--link UploadTextFileController to CandidateManagementService--><g id="link_UploadTextFileController_CandidateManagementService"><path codeLine="56" d="M597.98,309.4037 C600.16,362.7437 594.68,445.2037 548,495.0137 C538.27,505.3937 530,497.2337 517,503.0137 C485.12,517.1737 457.217,535.2672 432.437,553.3472 " fill="none" id="UploadTextFileController-to-CandidateManagementService" style="stroke:#181818;stroke-width:1.0;"/><polygon fill="#181818" points="427.59,556.8837,437.2181,554.8103,431.6292,553.9366,432.5028,548.3476,427.59,556.8837" style="stroke:#181818;stroke-width:1.0;"/></g><!--link UploadTextFileController to JobOpeningApplicationRepository--><g id="link_UploadTextFileController_JobOpeningApplicationRepository"><path codeLine="57" d="M486.39,278.9337 C426.15,292.6837 350.26,313.3037 286,341.0137 C257.92,353.1237 233.8453,366.8864 209.4053,382.6164 " fill="none" id="UploadTextFileController-to-JobOpeningApplicationRepository" style="stroke:#181818;stroke-width:1.0;"/><polygon fill="#181818" points="204.36,385.8637,214.0928,384.3563,208.5644,383.1576,209.7632,377.6292,204.36,385.8637" style="stroke:#181818;stroke-width:1.0;"/></g><!--link UploadTextFileController to JobOpeningApplication--><g id="link_UploadTextFileController_JobOpeningApplication"><path codeLine="58" d="M561.05,309.0837 C555.06,319.4737 549.09,330.4637 544,341.0137 C512.15,407.0237 544.66,452.4337 485,495.0137 C464.19,509.8637 279.21,494.7837 255,503.0137 C222.24,514.1537 195.1645,533.4161 172.4745,552.9761 " fill="none" id="UploadTextFileController-to-JobOpeningApplication" style="stroke:#181818;stroke-width:1.0;"/><polygon fill="#181818" points="167.93,556.8937,177.3585,554.0469,171.7171,553.629,172.135,547.9876,167.93,556.8937" style="stroke:#181818;stroke-width:1.0;"/></g><!--link CandidateManagementService to CandidateRepository--><g id="link_CandidateManagementService_CandidateRepository"><path codeLine="59" d="M386,556.7937 C386,529.1937 386,495.8937 386,468.2737 " fill="none" id="CandidateManagementService-to-CandidateRepository" style="stroke:#181818;stroke-width:1.0;"/><polygon fill="#181818" points="386,462.2737,382,471.2737,386,467.2737,390,471.2737,386,462.2737" style="stroke:#181818;stroke-width:1.0;"/></g><!--link CandidateRepository to Candidate--><g id="link_CandidateRepository_Candidate"><path codeLine="60" d="M468.52,447.9637 C538.76,462.9637 642.51,483.4737 734,495.0137 C761.18,498.4437 832.86,490.0737 857,503.0137 C882.81,516.8437 898.7749,540.3192 909.5549,560.8892 " fill="none" id="CandidateRepository-to-Candidate" style="stroke:#181818;stroke-width:1.0;"/><polygon fill="#181818" points="912.34,566.2037,911.7053,556.3753,910.0191,561.775,904.6194,560.0888,912.34,566.2037" style="stroke:#181818;stroke-width:1.0;"/></g><!--link JobOpeningApplicationRepository to JobOpeningApplication--><g id="link_JobOpeningApplicationRepository_JobOpeningApplication"><path codeLine="61" d="M142.14,471.1337 C140.3,497.8937 138.3508,526.1778 136.6508,550.9478 " fill="none" id="JobOpeningApplicationRepository-to-JobOpeningApplication" style="stroke:#181818;stroke-width:1.0;"/><polygon fill="#181818" points="136.24,556.9337,140.8468,548.2287,136.5824,551.9454,132.8656,547.6809,136.24,556.9337" style="stroke:#181818;stroke-width:1.0;"/></g><!--SRC=[dPF1JiCm38RlVOeSDw6z00UaCWa10YO1Um3JUiCYIqAIJWoqToVPHiYof4NaK5Njxz-VxLX1ymPBP1snhueTJiF163PNN4BxZ1_sYZZERoA1FsTAax0FtGerM6ploDZHU4XHAnM9jjN-wOz_KmSOK8fJ0vQa6A2QIc6rv1nrIWUSJq6qrBhK9WNhTYRU8FspHC_uazrSRe99ZZk6rgYa8Ilrng44gMi0wWKqo8BHOn0co0iIRLt0tkOiR-NBJA4WiOoOY_Qk8yEbxPG6reFbjd859E9Iz_EfE_igDNtkaZoXNfC3JKaocj6OdMU3ZqDHc4wZrw6mlXHivmRrDPXQR6QB4-fVi6op4Z23DXhJUqSQLovFOH1xtn1m3y8rnkiFv3qtya-6KTl22DAbd4mkYYjn8cPU7UohuYfvMNOKlH7bHlJ73TpYVmHNPPHZqYXBvblIhW7E7fnl]--></g></svg>