<?xml version="1.0" encoding="us-ascii" standalone="no"?><svg xmlns="http://www.w3.org/2000/svg" xmlns:xlink="http://www.w3.org/1999/xlink" contentStyleType="text/css" height="494px" preserveAspectRatio="none" style="width:1749px;height:494px;background:#FFFFFF;" version="1.1" viewBox="0 0 1749 494" width="1749px" zoomAndPan="magnify"><defs/><g><!--cluster ui--><g id="cluster_ui"><path d="M1150.5,6.0137 L1164.5,6.0137 A3.75,3.75 0 0 1 1167,8.5137 L1174,30.6348 L1357.5,30.6348 A2.5,2.5 0 0 1 1360,33.1348 L1360,141.5137 A2.5,2.5 0 0 1 1357.5,144.0137 L1150.5,144.0137 A2.5,2.5 0 0 1 1148,141.5137 L1148,8.5137 A2.5,2.5 0 0 1 1150.5,6.0137 " fill="none" style="stroke:#000000;stroke-width:1.5;"/><line style="stroke:#000000;stroke-width:1.5;" x1="1148" x2="1174" y1="30.6348" y2="30.6348"/><text fill="#000000" font-family="sans-serif" font-size="14" font-weight="bold" lengthAdjust="spacing" textLength="13" x="1152" y="23.1211">ui</text></g><!--cluster application--><g id="cluster_application"><path d="M915.5,168.0137 L993.5,168.0137 A3.75,3.75 0 0 1 996,170.5137 L1003,192.6348 L1130.5,192.6348 A2.5,2.5 0 0 1 1133,195.1348 L1133,322.5137 A2.5,2.5 0 0 1 1130.5,325.0137 L915.5,325.0137 A2.5,2.5 0 0 1 913,322.5137 L913,170.5137 A2.5,2.5 0 0 1 915.5,168.0137 " fill="none" style="stroke:#000000;stroke-width:1.5;"/><line style="stroke:#000000;stroke-width:1.5;" x1="913" x2="1003" y1="192.6348" y2="192.6348"/><text fill="#000000" font-family="sans-serif" font-size="14" font-weight="bold" lengthAdjust="spacing" textLength="77" x="917" y="185.1211">application</text></g><!--cluster repository--><g id="cluster_repository"><path d="M8.5,349.0137 L81.5,349.0137 A3.75,3.75 0 0 1 84,351.5137 L91,373.6348 L482.5,373.6348 A2.5,2.5 0 0 1 485,376.1348 L485,484.5137 A2.5,2.5 0 0 1 482.5,487.0137 L8.5,487.0137 A2.5,2.5 0 0 1 6,484.5137 L6,351.5137 A2.5,2.5 0 0 1 8.5,349.0137 " fill="none" style="stroke:#000000;stroke-width:1.5;"/><line style="stroke:#000000;stroke-width:1.5;" x1="6" x2="91" y1="373.6348" y2="373.6348"/><text fill="#000000" font-family="sans-serif" font-size="14" font-weight="bold" lengthAdjust="spacing" textLength="72" x="10" y="366.1211">repository</text></g><!--cluster domain--><g id="cluster_domain"><path d="M511.5,349.0137 L563.5,349.0137 A3.75,3.75 0 0 1 566,351.5137 L573,373.6348 L1739.5,373.6348 A2.5,2.5 0 0 1 1742,376.1348 L1742,484.5137 A2.5,2.5 0 0 1 1739.5,487.0137 L511.5,487.0137 A2.5,2.5 0 0 1 509,484.5137 L509,351.5137 A2.5,2.5 0 0 1 511.5,349.0137 " fill="none" style="stroke:#000000;stroke-width:1.5;"/><line style="stroke:#000000;stroke-width:1.5;" x1="509" x2="573" y1="373.6348" y2="373.6348"/><text fill="#000000" font-family="sans-serif" font-size="14" font-weight="bold" lengthAdjust="spacing" textLength="51" x="513" y="366.1211">domain</text></g><!--class UploadTextFileUI--><g id="elem_UploadTextFileUI"><rect codeLine="6" fill="#F1F1F1" height="85.2422" id="UploadTextFileUI" rx="2.5" ry="2.5" style="stroke:#181818;stroke-width:0.5;" width="180" x="1164" y="43.0137"/><ellipse cx="1197.9" cy="59.0137" fill="#ADD1B2" rx="11" ry="11" style="stroke:#181818;stroke-width:1.0;"/><path d="M1200.6656,54.8887 Q1200.8219,54.6699 1201.0094,54.5605 Q1201.1969,54.4512 1201.4156,54.4512 Q1201.7906,54.4512 1202.025,54.7168 Q1202.2594,54.9668 1202.2594,55.5762 L1202.2594,57.0293 Q1202.2594,57.6387 1202.025,57.9043 Q1201.7906,58.1699 1201.4156,58.1699 Q1201.0719,58.1699 1200.8688,57.9668 Q1200.6656,57.7793 1200.5563,57.2637 Q1200.5094,56.9043 1200.3219,56.7168 Q1199.9938,56.3418 1199.3844,56.123 Q1198.775,55.9043 1198.15,55.9043 Q1197.3844,55.9043 1196.7438,56.2324 Q1196.1188,56.5605 1195.6188,57.3105 Q1195.1344,58.0605 1195.1344,59.0918 L1195.1344,60.1855 Q1195.1344,61.4199 1196.025,62.248 Q1196.9156,63.0605 1198.5094,63.0605 Q1199.4469,63.0605 1200.1031,62.8105 Q1200.4938,62.6543 1200.9156,62.2168 Q1201.1813,61.9512 1201.3219,61.873 Q1201.4781,61.7949 1201.6813,61.7949 Q1202.0094,61.7949 1202.2594,62.0605 Q1202.525,62.3105 1202.525,62.6543 Q1202.525,62.998 1202.1813,63.4043 Q1201.6813,63.9824 1200.8844,64.3105 Q1199.8063,64.7637 1198.5094,64.7637 Q1196.9938,64.7637 1195.7906,64.1387 Q1194.8063,63.6387 1194.1188,62.5762 Q1193.4313,61.498 1193.4313,60.2168 L1193.4313,59.0605 Q1193.4313,57.7324 1194.0406,56.5918 Q1194.6656,55.4355 1195.7594,54.8262 Q1196.8531,54.2012 1198.0875,54.2012 Q1198.8219,54.2012 1199.4625,54.373 Q1200.1188,54.5293 1200.6656,54.8887 Z " fill="#000000"/><text fill="#000000" font-family="sans-serif" font-size="14" lengthAdjust="spacing" textLength="106" x="1216.1" y="64.8105">UploadTextFileUI</text><line style="stroke:#181818;stroke-width:0.5;" x1="1165" x2="1343" y1="75.0137" y2="75.0137"/><line style="stroke:#181818;stroke-width:0.5;" x1="1165" x2="1343" y1="83.0137" y2="83.0137"/><ellipse cx="1175" cy="97.8242" fill="#84BE84" rx="3" ry="3" style="stroke:#038048;stroke-width:1.0;"/><text fill="#000000" font-family="sans-serif" font-size="14" lengthAdjust="spacing" textLength="129" x="1184" y="102.1211">printNumeratedList()</text><ellipse cx="1175" cy="116.4453" fill="#84BE84" rx="3" ry="3" style="stroke:#038048;stroke-width:1.0;"/><text fill="#000000" font-family="sans-serif" font-size="14" lengthAdjust="spacing" textLength="154" x="1184" y="120.7422">printNumeratedListApp()</text></g><!--class UploadTextFileController--><g id="elem_UploadTextFileController"><rect codeLine="16" fill="#F1F1F1" height="103.8633" id="UploadTextFileController" rx="2.5" ry="2.5" style="stroke:#181818;stroke-width:0.5;" width="188" x="929" y="205.0137"/><ellipse cx="944" cy="221.0137" fill="#ADD1B2" rx="11" ry="11" style="stroke:#181818;stroke-width:1.0;"/><path d="M946.7656,216.8887 Q946.9219,216.6699 947.1094,216.5605 Q947.2969,216.4512 947.5156,216.4512 Q947.8906,216.4512 948.125,216.7168 Q948.3594,216.9668 948.3594,217.5762 L948.3594,219.0293 Q948.3594,219.6387 948.125,219.9043 Q947.8906,220.1699 947.5156,220.1699 Q947.1719,220.1699 946.9688,219.9668 Q946.7656,219.7793 946.6563,219.2637 Q946.6094,218.9043 946.4219,218.7168 Q946.0938,218.3418 945.4844,218.123 Q944.875,217.9043 944.25,217.9043 Q943.4844,217.9043 942.8438,218.2324 Q942.2188,218.5605 941.7188,219.3105 Q941.2344,220.0605 941.2344,221.0918 L941.2344,222.1855 Q941.2344,223.4199 942.125,224.248 Q943.0156,225.0605 944.6094,225.0605 Q945.5469,225.0605 946.2031,224.8105 Q946.5938,224.6543 947.0156,224.2168 Q947.2813,223.9512 947.4219,223.873 Q947.5781,223.7949 947.7813,223.7949 Q948.1094,223.7949 948.3594,224.0605 Q948.625,224.3105 948.625,224.6543 Q948.625,224.998 948.2813,225.4043 Q947.7813,225.9824 946.9844,226.3105 Q945.9063,226.7637 944.6094,226.7637 Q943.0938,226.7637 941.8906,226.1387 Q940.9063,225.6387 940.2188,224.5762 Q939.5313,223.498 939.5313,222.2168 L939.5313,221.0605 Q939.5313,219.7324 940.1406,218.5918 Q940.7656,217.4355 941.8594,216.8262 Q942.9531,216.2012 944.1875,216.2012 Q944.9219,216.2012 945.5625,216.373 Q946.2188,216.5293 946.7656,216.8887 Z " fill="#000000"/><text fill="#000000" font-family="sans-serif" font-size="14" lengthAdjust="spacing" textLength="156" x="958" y="226.8105">UploadTextFileController</text><line style="stroke:#181818;stroke-width:0.5;" x1="930" x2="1116" y1="237.0137" y2="237.0137"/><line style="stroke:#181818;stroke-width:0.5;" x1="930" x2="1116" y1="245.0137" y2="245.0137"/><ellipse cx="940" cy="259.8242" fill="#84BE84" rx="3" ry="3" style="stroke:#038048;stroke-width:1.0;"/><text fill="#000000" font-family="sans-serif" font-size="14" lengthAdjust="spacing" textLength="96" x="949" y="264.1211">allCandidates()</text><ellipse cx="940" cy="278.4453" fill="#84BE84" rx="3" ry="3" style="stroke:#038048;stroke-width:1.0;"/><text fill="#000000" font-family="sans-serif" font-size="14" lengthAdjust="spacing" textLength="76" x="949" y="282.7422">uploadFile()</text><ellipse cx="940" cy="297.0664" fill="#84BE84" rx="3" ry="3" style="stroke:#038048;stroke-width:1.0;"/><text fill="#000000" font-family="sans-serif" font-size="14" lengthAdjust="spacing" textLength="136" x="949" y="301.3633">getAppByCandidate()</text></g><!--class CandidateRepository--><g id="elem_CandidateRepository"><rect codeLine="25" fill="#F1F1F1" height="66.6211" id="CandidateRepository" rx="2.5" ry="2.5" style="stroke:#181818;stroke-width:0.5;" width="165" x="303.5" y="395.0137"/><ellipse cx="318.5" cy="411.0137" fill="#B4A7E5" rx="11" ry="11" style="stroke:#181818;stroke-width:1.0;"/><path d="M319.4531,407.6543 L319.4531,414.3105 L321.1719,414.3105 Q321.7813,414.3105 322.0469,414.5449 Q322.3125,414.7793 322.3125,415.1699 Q322.3125,415.5449 322.0469,415.7793 Q321.7813,416.0137 321.1719,416.0137 L316.0313,416.0137 Q315.4219,416.0137 315.1563,415.7793 Q314.8906,415.5449 314.8906,415.1543 Q314.8906,414.7793 315.1563,414.5449 Q315.4219,414.3105 316.0313,414.3105 L317.75,414.3105 L317.75,407.6543 L316.0313,407.6543 Q315.4219,407.6543 315.1563,407.4199 Q314.8906,407.1855 314.8906,406.7949 Q314.8906,406.4199 315.1563,406.1855 Q315.4219,405.9512 316.0313,405.9512 L321.1719,405.9512 Q321.7813,405.9512 322.0469,406.1855 Q322.3125,406.4199 322.3125,406.7949 Q322.3125,407.1855 322.0469,407.4199 Q321.7813,407.6543 321.1719,407.6543 L319.4531,407.6543 Z " fill="#000000"/><text fill="#000000" font-family="sans-serif" font-size="14" font-style="italic" lengthAdjust="spacing" textLength="133" x="332.5" y="416.8105">CandidateRepository</text><line style="stroke:#181818;stroke-width:0.5;" x1="304.5" x2="467.5" y1="427.0137" y2="427.0137"/><line style="stroke:#181818;stroke-width:0.5;" x1="304.5" x2="467.5" y1="435.0137" y2="435.0137"/><ellipse cx="314.5" cy="449.8242" fill="#84BE84" rx="3" ry="3" style="stroke:#038048;stroke-width:1.0;"/><text fill="#000000" font-family="sans-serif" font-size="14" lengthAdjust="spacing" textLength="120" x="323.5" y="454.1211">findAllCandidates()</text></g><!--class JobOpeningApplicationRepository--><g id="elem_JobOpeningApplicationRepository"><rect codeLine="29" fill="#F1F1F1" height="85.2422" id="JobOpeningApplicationRepository" rx="2.5" ry="2.5" style="stroke:#181818;stroke-width:0.5;" width="246" x="22" y="386.0137"/><ellipse cx="37" cy="402.0137" fill="#B4A7E5" rx="11" ry="11" style="stroke:#181818;stroke-width:1.0;"/><path d="M37.9531,398.6543 L37.9531,405.3105 L39.6719,405.3105 Q40.2813,405.3105 40.5469,405.5449 Q40.8125,405.7793 40.8125,406.1699 Q40.8125,406.5449 40.5469,406.7793 Q40.2813,407.0137 39.6719,407.0137 L34.5313,407.0137 Q33.9219,407.0137 33.6563,406.7793 Q33.3906,406.5449 33.3906,406.1543 Q33.3906,405.7793 33.6563,405.5449 Q33.9219,405.3105 34.5313,405.3105 L36.25,405.3105 L36.25,398.6543 L34.5313,398.6543 Q33.9219,398.6543 33.6563,398.4199 Q33.3906,398.1855 33.3906,397.7949 Q33.3906,397.4199 33.6563,397.1855 Q33.9219,396.9512 34.5313,396.9512 L39.6719,396.9512 Q40.2813,396.9512 40.5469,397.1855 Q40.8125,397.4199 40.8125,397.7949 Q40.8125,398.1855 40.5469,398.4199 Q40.2813,398.6543 39.6719,398.6543 L37.9531,398.6543 Z " fill="#000000"/><text fill="#000000" font-family="sans-serif" font-size="14" font-style="italic" lengthAdjust="spacing" textLength="214" x="51" y="407.8105">JobOpeningApplicationRepository</text><line style="stroke:#181818;stroke-width:0.5;" x1="23" x2="267" y1="418.0137" y2="418.0137"/><line style="stroke:#181818;stroke-width:0.5;" x1="23" x2="267" y1="426.0137" y2="426.0137"/><ellipse cx="33" cy="440.8242" fill="#84BE84" rx="3" ry="3" style="stroke:#038048;stroke-width:1.0;"/><text fill="#000000" font-family="sans-serif" font-size="14" lengthAdjust="spacing" textLength="181" x="42" y="445.1211">allApplicationsByCandidate()</text><ellipse cx="33" cy="459.4453" fill="#84BE84" rx="3" ry="3" style="stroke:#038048;stroke-width:1.0;"/><text fill="#000000" font-family="sans-serif" font-size="14" lengthAdjust="spacing" textLength="40" x="42" y="463.7422">save()</text></g><!--class AuthorizationService--><g id="elem_AuthorizationService"><rect codeLine="37" fill="#F1F1F1" height="85.2422" id="AuthorizationService" rx="2.5" ry="2.5" style="stroke:#181818;stroke-width:0.5;" width="305" x="1288.5" y="386.0137"/><ellipse cx="1372.25" cy="402.0137" fill="#ADD1B2" rx="11" ry="11" style="stroke:#181818;stroke-width:1.0;"/><path d="M1375.0156,397.8887 Q1375.1719,397.6699 1375.3594,397.5605 Q1375.5469,397.4512 1375.7656,397.4512 Q1376.1406,397.4512 1376.375,397.7168 Q1376.6094,397.9668 1376.6094,398.5762 L1376.6094,400.0293 Q1376.6094,400.6387 1376.375,400.9043 Q1376.1406,401.1699 1375.7656,401.1699 Q1375.4219,401.1699 1375.2188,400.9668 Q1375.0156,400.7793 1374.9063,400.2637 Q1374.8594,399.9043 1374.6719,399.7168 Q1374.3438,399.3418 1373.7344,399.123 Q1373.125,398.9043 1372.5,398.9043 Q1371.7344,398.9043 1371.0938,399.2324 Q1370.4688,399.5605 1369.9688,400.3105 Q1369.4844,401.0605 1369.4844,402.0918 L1369.4844,403.1855 Q1369.4844,404.4199 1370.375,405.248 Q1371.2656,406.0605 1372.8594,406.0605 Q1373.7969,406.0605 1374.4531,405.8105 Q1374.8438,405.6543 1375.2656,405.2168 Q1375.5313,404.9512 1375.6719,404.873 Q1375.8281,404.7949 1376.0313,404.7949 Q1376.3594,404.7949 1376.6094,405.0605 Q1376.875,405.3105 1376.875,405.6543 Q1376.875,405.998 1376.5313,406.4043 Q1376.0313,406.9824 1375.2344,407.3105 Q1374.1563,407.7637 1372.8594,407.7637 Q1371.3438,407.7637 1370.1406,407.1387 Q1369.1563,406.6387 1368.4688,405.5762 Q1367.7813,404.498 1367.7813,403.2168 L1367.7813,402.0605 Q1367.7813,400.7324 1368.3906,399.5918 Q1369.0156,398.4355 1370.1094,397.8262 Q1371.2031,397.2012 1372.4375,397.2012 Q1373.1719,397.2012 1373.8125,397.373 Q1374.4688,397.5293 1375.0156,397.8887 Z " fill="#000000"/><text fill="#000000" font-family="sans-serif" font-size="14" lengthAdjust="spacing" textLength="129" x="1392.75" y="407.8105">AuthorizationService</text><line style="stroke:#181818;stroke-width:0.5;" x1="1289.5" x2="1592.5" y1="418.0137" y2="418.0137"/><line style="stroke:#181818;stroke-width:0.5;" x1="1289.5" x2="1592.5" y1="426.0137" y2="426.0137"/><ellipse cx="1299.5" cy="440.8242" fill="#84BE84" rx="3" ry="3" style="stroke:#038048;stroke-width:1.0;"/><text fill="#000000" font-family="sans-serif" font-size="14" lengthAdjust="spacing" textLength="279" x="1308.5" y="445.1211">authorizationService() : AuthorizationService</text><ellipse cx="1299.5" cy="459.4453" fill="#84BE84" rx="3" ry="3" style="stroke:#038048;stroke-width:1.0;"/><text fill="#000000" font-family="sans-serif" font-size="14" lengthAdjust="spacing" textLength="233" x="1308.5" y="463.7422">ensureAuthenticatedUserHasAnyOf()</text></g><!--class JobOpeningApplication--><g id="elem_JobOpeningApplication"><rect codeLine="41" fill="#F1F1F1" height="66.6211" id="JobOpeningApplication" rx="2.5" ry="2.5" style="stroke:#181818;stroke-width:0.5;" width="208" x="1045" y="395.0137"/><ellipse cx="1073.95" cy="411.0137" fill="#ADD1B2" rx="11" ry="11" style="stroke:#181818;stroke-width:1.0;"/><path d="M1076.7156,406.8887 Q1076.8719,406.6699 1077.0594,406.5605 Q1077.2469,406.4512 1077.4656,406.4512 Q1077.8406,406.4512 1078.075,406.7168 Q1078.3094,406.9668 1078.3094,407.5762 L1078.3094,409.0293 Q1078.3094,409.6387 1078.075,409.9043 Q1077.8406,410.1699 1077.4656,410.1699 Q1077.1219,410.1699 1076.9188,409.9668 Q1076.7156,409.7793 1076.6063,409.2637 Q1076.5594,408.9043 1076.3719,408.7168 Q1076.0438,408.3418 1075.4344,408.123 Q1074.825,407.9043 1074.2,407.9043 Q1073.4344,407.9043 1072.7938,408.2324 Q1072.1688,408.5605 1071.6688,409.3105 Q1071.1844,410.0605 1071.1844,411.0918 L1071.1844,412.1855 Q1071.1844,413.4199 1072.075,414.248 Q1072.9656,415.0605 1074.5594,415.0605 Q1075.4969,415.0605 1076.1531,414.8105 Q1076.5438,414.6543 1076.9656,414.2168 Q1077.2313,413.9512 1077.3719,413.873 Q1077.5281,413.7949 1077.7313,413.7949 Q1078.0594,413.7949 1078.3094,414.0605 Q1078.575,414.3105 1078.575,414.6543 Q1078.575,414.998 1078.2313,415.4043 Q1077.7313,415.9824 1076.9344,416.3105 Q1075.8563,416.7637 1074.5594,416.7637 Q1073.0438,416.7637 1071.8406,416.1387 Q1070.8563,415.6387 1070.1688,414.5762 Q1069.4813,413.498 1069.4813,412.2168 L1069.4813,411.0605 Q1069.4813,409.7324 1070.0906,408.5918 Q1070.7156,407.4355 1071.8094,406.8262 Q1072.9031,406.2012 1074.1375,406.2012 Q1074.8719,406.2012 1075.5125,406.373 Q1076.1688,406.5293 1076.7156,406.8887 Z " fill="#000000"/><text fill="#000000" font-family="sans-serif" font-size="14" lengthAdjust="spacing" textLength="145" x="1091.05" y="416.8105">JobOpeningApplication</text><line style="stroke:#181818;stroke-width:0.5;" x1="1046" x2="1252" y1="427.0137" y2="427.0137"/><line style="stroke:#181818;stroke-width:0.5;" x1="1046" x2="1252" y1="435.0137" y2="435.0137"/><ellipse cx="1056" cy="449.8242" fill="#84BE84" rx="3" ry="3" style="stroke:#038048;stroke-width:1.0;"/><text fill="#000000" font-family="sans-serif" font-size="14" lengthAdjust="spacing" textLength="182" x="1065" y="454.1211">setCandidateRequirements()</text></g><!--class CandidateManagementService--><g id="elem_CandidateManagementService"><rect codeLine="45" fill="#F1F1F1" height="66.6211" id="CandidateManagementService" rx="2.5" ry="2.5" style="stroke:#181818;stroke-width:0.5;" width="226" x="784" y="395.0137"/><ellipse cx="799" cy="411.0137" fill="#ADD1B2" rx="11" ry="11" style="stroke:#181818;stroke-width:1.0;"/><path d="M801.7656,406.8887 Q801.9219,406.6699 802.1094,406.5605 Q802.2969,406.4512 802.5156,406.4512 Q802.8906,406.4512 803.125,406.7168 Q803.3594,406.9668 803.3594,407.5762 L803.3594,409.0293 Q803.3594,409.6387 803.125,409.9043 Q802.8906,410.1699 802.5156,410.1699 Q802.1719,410.1699 801.9688,409.9668 Q801.7656,409.7793 801.6563,409.2637 Q801.6094,408.9043 801.4219,408.7168 Q801.0938,408.3418 800.4844,408.123 Q799.875,407.9043 799.25,407.9043 Q798.4844,407.9043 797.8438,408.2324 Q797.2188,408.5605 796.7188,409.3105 Q796.2344,410.0605 796.2344,411.0918 L796.2344,412.1855 Q796.2344,413.4199 797.125,414.248 Q798.0156,415.0605 799.6094,415.0605 Q800.5469,415.0605 801.2031,414.8105 Q801.5938,414.6543 802.0156,414.2168 Q802.2813,413.9512 802.4219,413.873 Q802.5781,413.7949 802.7813,413.7949 Q803.1094,413.7949 803.3594,414.0605 Q803.625,414.3105 803.625,414.6543 Q803.625,414.998 803.2813,415.4043 Q802.7813,415.9824 801.9844,416.3105 Q800.9063,416.7637 799.6094,416.7637 Q798.0938,416.7637 796.8906,416.1387 Q795.9063,415.6387 795.2188,414.5762 Q794.5313,413.498 794.5313,412.2168 L794.5313,411.0605 Q794.5313,409.7324 795.1406,408.5918 Q795.7656,407.4355 796.8594,406.8262 Q797.9531,406.2012 799.1875,406.2012 Q799.9219,406.2012 800.5625,406.373 Q801.2188,406.5293 801.7656,406.8887 Z " fill="#000000"/><text fill="#000000" font-family="sans-serif" font-size="14" lengthAdjust="spacing" textLength="194" x="813" y="416.8105">CandidateManagementService</text><line style="stroke:#181818;stroke-width:0.5;" x1="785" x2="1009" y1="427.0137" y2="427.0137"/><line style="stroke:#181818;stroke-width:0.5;" x1="785" x2="1009" y1="435.0137" y2="435.0137"/><ellipse cx="795" cy="449.8242" fill="#84BE84" rx="3" ry="3" style="stroke:#038048;stroke-width:1.0;"/><text fill="#000000" font-family="sans-serif" font-size="14" lengthAdjust="spacing" textLength="89" x="804" y="454.1211">allCandidate()</text></g><!--class Candidate--><g id="elem_Candidate"><rect codeLine="49" fill="#F1F1F1" height="48" id="Candidate" rx="2.5" ry="2.5" style="stroke:#181818;stroke-width:0.5;" width="97" x="1628.5" y="404.5137"/><ellipse cx="1643.5" cy="420.5137" fill="#ADD1B2" rx="11" ry="11" style="stroke:#181818;stroke-width:1.0;"/><path d="M1646.2656,416.3887 Q1646.4219,416.1699 1646.6094,416.0605 Q1646.7969,415.9512 1647.0156,415.9512 Q1647.3906,415.9512 1647.625,416.2168 Q1647.8594,416.4668 1647.8594,417.0762 L1647.8594,418.5293 Q1647.8594,419.1387 1647.625,419.4043 Q1647.3906,419.6699 1647.0156,419.6699 Q1646.6719,419.6699 1646.4688,419.4668 Q1646.2656,419.2793 1646.1563,418.7637 Q1646.1094,418.4043 1645.9219,418.2168 Q1645.5938,417.8418 1644.9844,417.623 Q1644.375,417.4043 1643.75,417.4043 Q1642.9844,417.4043 1642.3438,417.7324 Q1641.7188,418.0605 1641.2188,418.8105 Q1640.7344,419.5605 1640.7344,420.5918 L1640.7344,421.6855 Q1640.7344,422.9199 1641.625,423.748 Q1642.5156,424.5605 1644.1094,424.5605 Q1645.0469,424.5605 1645.7031,424.3105 Q1646.0938,424.1543 1646.5156,423.7168 Q1646.7813,423.4512 1646.9219,423.373 Q1647.0781,423.2949 1647.2813,423.2949 Q1647.6094,423.2949 1647.8594,423.5605 Q1648.125,423.8105 1648.125,424.1543 Q1648.125,424.498 1647.7813,424.9043 Q1647.2813,425.4824 1646.4844,425.8105 Q1645.4063,426.2637 1644.1094,426.2637 Q1642.5938,426.2637 1641.3906,425.6387 Q1640.4063,425.1387 1639.7188,424.0762 Q1639.0313,422.998 1639.0313,421.7168 L1639.0313,420.5605 Q1639.0313,419.2324 1639.6406,418.0918 Q1640.2656,416.9355 1641.3594,416.3262 Q1642.4531,415.7012 1643.6875,415.7012 Q1644.4219,415.7012 1645.0625,415.873 Q1645.7188,416.0293 1646.2656,416.3887 Z " fill="#000000"/><text fill="#000000" font-family="sans-serif" font-size="14" lengthAdjust="spacing" textLength="65" x="1657.5" y="426.3105">Candidate</text><line style="stroke:#181818;stroke-width:0.5;" x1="1629.5" x2="1724.5" y1="436.5137" y2="436.5137"/><line style="stroke:#181818;stroke-width:0.5;" x1="1629.5" x2="1724.5" y1="444.5137" y2="444.5137"/></g><!--class JobOpeningApplicationService--><g id="elem_JobOpeningApplicationService"><rect codeLine="52" fill="#F1F1F1" height="85.2422" id="JobOpeningApplicationService" rx="2.5" ry="2.5" style="stroke:#181818;stroke-width:0.5;" width="224" x="525" y="386.0137"/><ellipse cx="540" cy="402.0137" fill="#ADD1B2" rx="11" ry="11" style="stroke:#181818;stroke-width:1.0;"/><path d="M542.7656,397.8887 Q542.9219,397.6699 543.1094,397.5605 Q543.2969,397.4512 543.5156,397.4512 Q543.8906,397.4512 544.125,397.7168 Q544.3594,397.9668 544.3594,398.5762 L544.3594,400.0293 Q544.3594,400.6387 544.125,400.9043 Q543.8906,401.1699 543.5156,401.1699 Q543.1719,401.1699 542.9688,400.9668 Q542.7656,400.7793 542.6563,400.2637 Q542.6094,399.9043 542.4219,399.7168 Q542.0938,399.3418 541.4844,399.123 Q540.875,398.9043 540.25,398.9043 Q539.4844,398.9043 538.8438,399.2324 Q538.2188,399.5605 537.7188,400.3105 Q537.2344,401.0605 537.2344,402.0918 L537.2344,403.1855 Q537.2344,404.4199 538.125,405.248 Q539.0156,406.0605 540.6094,406.0605 Q541.5469,406.0605 542.2031,405.8105 Q542.5938,405.6543 543.0156,405.2168 Q543.2813,404.9512 543.4219,404.873 Q543.5781,404.7949 543.7813,404.7949 Q544.1094,404.7949 544.3594,405.0605 Q544.625,405.3105 544.625,405.6543 Q544.625,405.998 544.2813,406.4043 Q543.7813,406.9824 542.9844,407.3105 Q541.9063,407.7637 540.6094,407.7637 Q539.0938,407.7637 537.8906,407.1387 Q536.9063,406.6387 536.2188,405.5762 Q535.5313,404.498 535.5313,403.2168 L535.5313,402.0605 Q535.5313,400.7324 536.1406,399.5918 Q536.7656,398.4355 537.8594,397.8262 Q538.9531,397.2012 540.1875,397.2012 Q540.9219,397.2012 541.5625,397.373 Q542.2188,397.5293 542.7656,397.8887 Z " fill="#000000"/><text fill="#000000" font-family="sans-serif" font-size="14" lengthAdjust="spacing" textLength="192" x="554" y="407.8105">JobOpeningApplicationService</text><line style="stroke:#181818;stroke-width:0.5;" x1="526" x2="748" y1="418.0137" y2="418.0137"/><line style="stroke:#181818;stroke-width:0.5;" x1="526" x2="748" y1="426.0137" y2="426.0137"/><ellipse cx="536" cy="440.8242" fill="#84BE84" rx="3" ry="3" style="stroke:#038048;stroke-width:1.0;"/><text fill="#000000" font-family="sans-serif" font-size="14" lengthAdjust="spacing" textLength="99" x="545" y="445.1211">passGrammar()</text><ellipse cx="536" cy="459.4453" fill="#84BE84" rx="3" ry="3" style="stroke:#038048;stroke-width:1.0;"/><text fill="#000000" font-family="sans-serif" font-size="14" lengthAdjust="spacing" textLength="187" x="545" y="463.7422">getApplicationsByCandidate()</text></g><!--link UploadTextFileUI to UploadTextFileController--><g id="link_UploadTextFileUI_UploadTextFileController"><path codeLine="58" d="M1197.2,128.1937 C1165.67,151.3237 1131.038,176.7449 1097.638,201.2449 " fill="none" id="UploadTextFileUI-to-UploadTextFileController" style="stroke:#181818;stroke-width:1.0;"/><polygon fill="#181818" points="1092.8,204.7937,1102.4228,202.6958,1096.8316,201.8363,1097.6911,196.2451,1092.8,204.7937" style="stroke:#181818;stroke-width:1.0;"/></g><!--link UploadTextFileUI to Candidate--><g id="link_UploadTextFileUI_Candidate"><path codeLine="59" d="M1324.78,128.0637 C1400.39,174.4037 1521.45,254.3237 1611,341.0137 C1630.95,360.3237 1646.3912,381.0119 1658.7812,399.3519 " fill="none" id="UploadTextFileUI-to-Candidate" style="stroke:#181818;stroke-width:1.0;"/><polygon fill="#181818" points="1662.14,404.3237,1660.4163,394.6268,1659.341,400.1805,1653.7873,399.1052,1662.14,404.3237" style="stroke:#181818;stroke-width:1.0;"/></g><!--link UploadTextFileController to AuthorizationService--><g id="link_UploadTextFileController_AuthorizationService"><path codeLine="60" d="M1117.24,285.9437 C1164.08,300.7337 1221.17,320.1337 1271,341.0137 C1302.46,354.1937 1330.799,368.0012 1359.799,383.1112 " fill="none" id="UploadTextFileController-to-AuthorizationService" style="stroke:#181818;stroke-width:1.0;"/><polygon fill="#181818" points="1365.12,385.8837,1358.9867,378.1776,1360.6858,383.5733,1355.2901,385.2724,1365.12,385.8837" style="stroke:#181818;stroke-width:1.0;"/></g><!--link UploadTextFileController to CandidateManagementService--><g id="link_UploadTextFileController_CandidateManagementService"><path codeLine="61" d="M984.85,309.3337 C964.21,337.1037 942.9102,365.7589 924.9002,389.9789 " fill="none" id="UploadTextFileController-to-CandidateManagementService" style="stroke:#181818;stroke-width:1.0;"/><polygon fill="#181818" points="921.32,394.7937,929.9002,389.9584,924.3035,390.7814,923.4805,385.1847,921.32,394.7937" style="stroke:#181818;stroke-width:1.0;"/></g><!--link UploadTextFileController to JobOpeningApplicationService--><g id="link_UploadTextFileController_JobOpeningApplicationService"><path codeLine="62" d="M928.79,281.8637 C879.36,296.0237 818.53,316.1037 767,341.0137 C741.25,353.4637 719.5791,366.9226 697.1891,382.4626 " fill="none" id="UploadTextFileController-to-JobOpeningApplicationService" style="stroke:#181818;stroke-width:1.0;"/><polygon fill="#181818" points="692.26,385.8837,701.9344,384.0381,696.3676,383.0328,697.3729,377.466,692.26,385.8837" style="stroke:#181818;stroke-width:1.0;"/></g><!--link UploadTextFileController to JobOpeningApplicationRepository--><g id="link_UploadTextFileController_JobOpeningApplicationRepository"><path codeLine="63" d="M928.76,263.5137 C757.62,274.3337 402.66,300.8937 286,341.0137 C255.72,351.4237 230.054,365.833 205.094,382.563 " fill="none" id="UploadTextFileController-to-JobOpeningApplicationRepository" style="stroke:#181818;stroke-width:1.0;"/><polygon fill="#181818" points="200.11,385.9037,209.8131,384.2154,204.2633,383.1198,205.3589,377.5701,200.11,385.9037" style="stroke:#181818;stroke-width:1.0;"/></g><!--link UploadTextFileController to JobOpeningApplication--><g id="link_UploadTextFileController_JobOpeningApplication"><path codeLine="64" d="M1061.15,309.3337 C1081.79,337.1037 1103.0898,365.7589 1121.0998,389.9789 " fill="none" id="UploadTextFileController-to-JobOpeningApplication" style="stroke:#181818;stroke-width:1.0;"/><polygon fill="#181818" points="1124.68,394.7937,1122.5195,385.1847,1121.6965,390.7814,1116.0998,389.9584,1124.68,394.7937" style="stroke:#181818;stroke-width:1.0;"/></g><!--link CandidateManagementService to CandidateRepository--><g id="link_CandidateManagementService_CandidateRepository"><path codeLine="65" d="M862.63,394.8337 C834.76,370.8137 793.07,341.9337 749.5,337.0137 C724.88,334.2337 551.12,334.2337 526.5,337.0137 C518.57,337.9037 516.28,337.7537 509,341.0137 C478.51,354.6837 452.57,372.7015 429.51,391.1015 " fill="none" id="CandidateManagementService-to-CandidateRepository" style="stroke:#181818;stroke-width:1.0;"/><polygon fill="#181818" points="424.82,394.8437,434.3498,392.357,428.7283,391.7252,429.3601,386.1037,424.82,394.8437" style="stroke:#181818;stroke-width:1.0;"/></g><!--link CandidateRepository to Candidate--><g id="link_CandidateRepository_Candidate"><path codeLine="66" d="M418.14,394.9937 C444.51,370.8737 484.27,341.7737 526.5,337.0137 C555.95,333.6937 1564.05,333.6937 1593.5,337.0137 C1601.43,337.9037 1604.3,336.6737 1611,341.0137 C1635.12,356.6337 1650.82,379.0277 1662.04,399.0777 " fill="none" id="CandidateRepository-to-Candidate" style="stroke:#181818;stroke-width:1.0;"/><polygon fill="#181818" points="1664.97,404.3137,1664.0656,394.5064,1662.5283,399.9504,1657.0843,398.4131,1664.97,404.3137" style="stroke:#181818;stroke-width:1.0;"/></g><!--link JobOpeningApplicationRepository to JobOpeningApplication--><g id="link_JobOpeningApplicationRepository_JobOpeningApplication"><path codeLine="67" d="M194.29,385.9337 C223.77,364.2737 263.24,341.5537 303.5,337.0137 C342.53,332.6137 971.47,332.6137 1010.5,337.0137 C1052.31,341.7337 1087.0869,366.7471 1113.0269,390.8771 " fill="none" id="JobOpeningApplicationRepository-to-JobOpeningApplication" style="stroke:#181818;stroke-width:1.0;"/><polygon fill="#181818" points="1117.42,394.9637,1113.5547,385.905,1113.759,391.5582,1108.1059,391.7625,1117.42,394.9637" style="stroke:#181818;stroke-width:1.0;"/></g><!--link JobOpeningApplicationService to JobOpeningApplicationRepository--><g id="link_JobOpeningApplicationService_JobOpeningApplicationRepository"><path codeLine="68" d="M572.92,385.9537 C546.57,369.9737 515.19,352.8437 485,341.0137 C477.57,338.1037 475.43,337.9037 467.5,337.0137 C431.29,332.9237 339.71,332.9237 303.5,337.0137 C263.24,341.5537 228.6052,360.7211 199.1252,382.3811 " fill="none" id="JobOpeningApplicationService-to-JobOpeningApplicationRepository" style="stroke:#181818;stroke-width:1.0;"/><polygon fill="#181818" points="194.29,385.9337,203.9112,383.8283,198.3193,382.9732,199.1744,377.3813,194.29,385.9337" style="stroke:#181818;stroke-width:1.0;"/></g><!--SRC=[dPJTJWCX48NlzocuR6Fw0bwOh4tyYzf4xGECoxGIMK1W6wlfkmjjGoc5tKOkDflsdE6RCx0AcazO8kaO-Qt8VZKSZ25pnINGD_osDupZ_3uI-7MXD1FskMjHWqNwo8mTZOSKjLAHQ5FjddxvDxM70QKuQy0oAGQefb9OBJb7dT81vrCGb56tjKd1kcqHNo3zPucUyNeTl3dSc5MZaePPgTUE84XTtwWNq209XLw2C25TC47h0kqcL_91liyK2YQMzI6eOdaNH2Gp-TQsIWEhmNQfR869kDNTMEhEVaZDVhQRlA9UCGUQacGqep6vp9gFhIXCfz7hK5ZV2jAvGNq7fXRhsUA4-W2M3Ii1CsYZCNrrJ6FhzYaCObSt69v0k62yVa_USn3FAXZ5TYBATbE8Mpd3hOQs1Pq_vGDd8im__H1C9bV5QtWY9buTobV5w-jbsNFGwoXFeT_Nb-C_d8VBzmzpLMxYkCTebynlIT03d3quVTcSay0V]--></g></svg>