<?xml version="1.0" encoding="us-ascii" standalone="no"?><svg xmlns="http://www.w3.org/2000/svg" xmlns:xlink="http://www.w3.org/1999/xlink" contentStyleType="text/css" height="833px" preserveAspectRatio="none" style="width:1885px;height:833px;background:#FFFFFF;" version="1.1" viewBox="0 0 1885 833" width="1885px" zoomAndPan="magnify"><defs/><g><text fill="#000000" font-family="sans-serif" font-size="14" font-weight="bold" lengthAdjust="spacing" textLength="688" x="597.5" y="30.1074">Sequence diagram - 2004 (Upload a text file with the requirements of a candidate for its validation)</text><rect fill="#FFFFFF" height="608.1895" style="stroke:#181818;stroke-width:1.0;" width="10" x="31.5" y="133.2422"/><rect fill="#FFFFFF" height="388.1523" style="stroke:#181818;stroke-width:1.0;" width="10" x="483.5" y="156.5332"/><rect fill="#FFFFFF" height="156.4551" style="stroke:#181818;stroke-width:1.0;" width="10" x="483.5" y="575.9766"/><rect fill="#FFFFFF" height="219.0371" style="stroke:#181818;stroke-width:1.0;" width="10" x="758.5" y="250.0664"/><rect fill="#FFFFFF" height="31.291" style="stroke:#181818;stroke-width:1.0;" width="10" x="758.5" y="669.8496"/><rect fill="#FFFFFF" height="31.291" style="stroke:#181818;stroke-width:1.0;" width="10" x="893" y="607.2676"/><rect fill="#FFFFFF" height="31.291" style="stroke:#181818;stroke-width:1.0;" width="10" x="1427.5" y="281.3574"/><rect fill="#FFFFFF" height="93.873" style="stroke:#181818;stroke-width:1.0;" width="10" x="1613" y="343.9395"/><rect fill="#FFFFFF" height="31.291" style="stroke:#181818;stroke-width:1.0;" width="10" x="1800.5" y="375.2305"/><line style="stroke:#181818;stroke-width:0.5;stroke-dasharray:5.0,5.0;" x1="36" x2="36" y1="123.2422" y2="750.4316"/><line style="stroke:#181818;stroke-width:0.5;stroke-dasharray:5.0,5.0;" x1="488.5" x2="488.5" y1="123.2422" y2="750.4316"/><line style="stroke:#181818;stroke-width:0.5;stroke-dasharray:5.0,5.0;" x1="763.5" x2="763.5" y1="205.6543" y2="750.4316"/><line style="stroke:#181818;stroke-width:0.5;stroke-dasharray:5.0,5.0;" x1="897.5" x2="897.5" y1="123.2422" y2="750.4316"/><line style="stroke:#181818;stroke-width:0.5;stroke-dasharray:5.0,5.0;" x1="1432" x2="1432" y1="123.2422" y2="750.4316"/><line style="stroke:#181818;stroke-width:0.5;stroke-dasharray:5.0,5.0;" x1="1618" x2="1618" y1="123.2422" y2="750.4316"/><line style="stroke:#181818;stroke-width:0.5;stroke-dasharray:5.0,5.0;" x1="1805" x2="1805" y1="123.2422" y2="750.4316"/><text fill="#000000" font-family="sans-serif" font-size="14" lengthAdjust="spacing" textLength="57" x="5" y="119.7285">Operator</text><ellipse cx="36.5" cy="53.1211" fill="#E2E2F0" rx="8" ry="8" style="stroke:#181818;stroke-width:0.5;"/><path d="M36.5,61.1211 L36.5,88.1211 M23.5,69.1211 L49.5,69.1211 M36.5,88.1211 L23.5,103.1211 M36.5,88.1211 L49.5,103.1211 " fill="none" style="stroke:#181818;stroke-width:0.5;"/><text fill="#000000" font-family="sans-serif" font-size="14" lengthAdjust="spacing" textLength="57" x="5" y="764.5391">Operator</text><ellipse cx="36.5" cy="776.5527" fill="#E2E2F0" rx="8" ry="8" style="stroke:#181818;stroke-width:0.5;"/><path d="M36.5,784.5527 L36.5,811.5527 M23.5,792.5527 L49.5,792.5527 M36.5,811.5527 L23.5,826.5527 M36.5,811.5527 L49.5,826.5527 " fill="none" style="stroke:#181818;stroke-width:0.5;"/><rect fill="#E2E2F0" height="51.2422" rx="2.5" ry="2.5" style="stroke:#181818;stroke-width:0.5;" width="120" x="428.5" y="71"/><text fill="#000000" font-family="sans-serif" font-size="14" font-style="italic" lengthAdjust="spacing" textLength="30" x="473.5" y="93.1074">&#171;UI&#187;</text><text fill="#000000" font-family="sans-serif" font-size="14" lengthAdjust="spacing" textLength="106" x="435.5" y="111.7285">UploadTextFileUI</text><rect fill="#E2E2F0" height="51.2422" rx="2.5" ry="2.5" style="stroke:#181818;stroke-width:0.5;" width="120" x="428.5" y="749.4316"/><text fill="#000000" font-family="sans-serif" font-size="14" font-style="italic" lengthAdjust="spacing" textLength="30" x="473.5" y="771.5391">&#171;UI&#187;</text><text fill="#000000" font-family="sans-serif" font-size="14" lengthAdjust="spacing" textLength="106" x="435.5" y="790.1602">UploadTextFileUI</text><rect fill="#E2E2F0" height="51.2422" rx="2.5" ry="2.5" style="stroke:#181818;stroke-width:0.5;" width="170" x="678.5" y="749.4316"/><text fill="#000000" font-family="sans-serif" font-size="14" font-style="italic" lengthAdjust="spacing" textLength="84" x="721.5" y="771.5391">&#171;application&#187;</text><text fill="#000000" font-family="sans-serif" font-size="14" lengthAdjust="spacing" textLength="156" x="685.5" y="790.1602">UploadTextFileController</text><rect fill="#E2E2F0" height="51.2422" rx="2.5" ry="2.5" style="stroke:#181818;stroke-width:0.5;" width="79" x="858.5" y="71"/><text fill="#000000" font-family="sans-serif" font-size="14" font-style="italic" lengthAdjust="spacing" textLength="64" x="866" y="93.1074">&#171;Domain&#187;</text><text fill="#000000" font-family="sans-serif" font-size="14" lengthAdjust="spacing" textLength="65" x="865.5" y="111.7285">Candidate</text><rect fill="#E2E2F0" height="51.2422" rx="2.5" ry="2.5" style="stroke:#181818;stroke-width:0.5;" width="79" x="858.5" y="749.4316"/><text fill="#000000" font-family="sans-serif" font-size="14" font-style="italic" lengthAdjust="spacing" textLength="64" x="866" y="771.5391">&#171;Domain&#187;</text><text fill="#000000" font-family="sans-serif" font-size="14" lengthAdjust="spacing" textLength="65" x="865.5" y="790.1602">Candidate</text><rect fill="#E2E2F0" height="51.2422" rx="2.5" ry="2.5" style="stroke:#181818;stroke-width:0.5;" width="143" x="1361" y="71"/><text fill="#000000" font-family="sans-serif" font-size="14" font-style="italic" lengthAdjust="spacing" textLength="62" x="1401.5" y="93.1074">&#171;Service&#187;</text><text fill="#000000" font-family="sans-serif" font-size="14" lengthAdjust="spacing" textLength="129" x="1368" y="111.7285">AuthorizationService</text><rect fill="#E2E2F0" height="51.2422" rx="2.5" ry="2.5" style="stroke:#181818;stroke-width:0.5;" width="143" x="1361" y="749.4316"/><text fill="#000000" font-family="sans-serif" font-size="14" font-style="italic" lengthAdjust="spacing" textLength="62" x="1401.5" y="771.5391">&#171;Service&#187;</text><text fill="#000000" font-family="sans-serif" font-size="14" lengthAdjust="spacing" textLength="129" x="1368" y="790.1602">AuthorizationService</text><rect fill="#E2E2F0" height="51.2422" rx="2.5" ry="2.5" style="stroke:#181818;stroke-width:0.5;" width="208" x="1514" y="71"/><text fill="#000000" font-family="sans-serif" font-size="14" font-style="italic" lengthAdjust="spacing" textLength="62" x="1587" y="93.1074">&#171;Service&#187;</text><text fill="#000000" font-family="sans-serif" font-size="14" lengthAdjust="spacing" textLength="194" x="1521" y="111.7285">CandidateManagementService</text><rect fill="#E2E2F0" height="51.2422" rx="2.5" ry="2.5" style="stroke:#181818;stroke-width:0.5;" width="208" x="1514" y="749.4316"/><text fill="#000000" font-family="sans-serif" font-size="14" font-style="italic" lengthAdjust="spacing" textLength="62" x="1587" y="771.5391">&#171;Service&#187;</text><text fill="#000000" font-family="sans-serif" font-size="14" lengthAdjust="spacing" textLength="194" x="1521" y="790.1602">CandidateManagementService</text><rect fill="#E2E2F0" height="51.2422" rx="2.5" ry="2.5" style="stroke:#181818;stroke-width:0.5;" width="147" x="1732" y="71"/><text fill="#000000" font-family="sans-serif" font-size="14" font-style="italic" lengthAdjust="spacing" textLength="84" x="1763.5" y="93.1074">&#171;Repository&#187;</text><text fill="#000000" font-family="sans-serif" font-size="14" lengthAdjust="spacing" textLength="133" x="1739" y="111.7285">CandidateRepository</text><rect fill="#E2E2F0" height="51.2422" rx="2.5" ry="2.5" style="stroke:#181818;stroke-width:0.5;" width="147" x="1732" y="749.4316"/><text fill="#000000" font-family="sans-serif" font-size="14" font-style="italic" lengthAdjust="spacing" textLength="84" x="1763.5" y="771.5391">&#171;Repository&#187;</text><text fill="#000000" font-family="sans-serif" font-size="14" lengthAdjust="spacing" textLength="133" x="1739" y="790.1602">CandidateRepository</text><rect fill="#FFFFFF" height="608.1895" style="stroke:#181818;stroke-width:1.0;" width="10" x="31.5" y="133.2422"/><rect fill="#FFFFFF" height="388.1523" style="stroke:#181818;stroke-width:1.0;" width="10" x="483.5" y="156.5332"/><rect fill="#FFFFFF" height="156.4551" style="stroke:#181818;stroke-width:1.0;" width="10" x="483.5" y="575.9766"/><rect fill="#FFFFFF" height="219.0371" style="stroke:#181818;stroke-width:1.0;" width="10" x="758.5" y="250.0664"/><rect fill="#FFFFFF" height="31.291" style="stroke:#181818;stroke-width:1.0;" width="10" x="758.5" y="669.8496"/><rect fill="#FFFFFF" height="31.291" style="stroke:#181818;stroke-width:1.0;" width="10" x="893" y="607.2676"/><rect fill="#FFFFFF" height="31.291" style="stroke:#181818;stroke-width:1.0;" width="10" x="1427.5" y="281.3574"/><rect fill="#FFFFFF" height="93.873" style="stroke:#181818;stroke-width:1.0;" width="10" x="1613" y="343.9395"/><rect fill="#FFFFFF" height="31.291" style="stroke:#181818;stroke-width:1.0;" width="10" x="1800.5" y="375.2305"/><polygon fill="#181818" points="471.5,152.5332,481.5,156.5332,471.5,160.5332,475.5,156.5332" style="stroke:#181818;stroke-width:1.0;"/><line style="stroke:#181818;stroke-width:1.0;" x1="41.5" x2="477.5" y1="156.5332" y2="156.5332"/><text fill="#000000" font-family="sans-serif" font-size="13" font-weight="bold" lengthAdjust="spacing" textLength="7" x="48.5" y="151.2705">1</text><text fill="#000000" font-family="sans-serif" font-size="13" lengthAdjust="spacing" textLength="375" x="59.5" y="151.2705">Request to upload a text file with the requirements of a candidate</text><polygon fill="#181818" points="666.5,183.8242,676.5,187.8242,666.5,191.8242,670.5,187.8242" style="stroke:#181818;stroke-width:1.0;"/><line style="stroke:#181818;stroke-width:1.0;" x1="493.5" x2="672.5" y1="187.8242" y2="187.8242"/><text fill="#000000" font-family="sans-serif" font-size="13" font-weight="bold" lengthAdjust="spacing" textLength="7" x="500.5" y="182.5615">2</text><text fill="#000000" font-family="sans-serif" font-size="13" lengthAdjust="spacing" textLength="36" x="511.5" y="182.5615">create</text><rect fill="#E2E2F0" height="51.2422" rx="2.5" ry="2.5" style="stroke:#181818;stroke-width:0.5;" width="170" x="678.5" y="164.5332"/><text fill="#000000" font-family="sans-serif" font-size="14" font-style="italic" lengthAdjust="spacing" textLength="84" x="721.5" y="186.6406">&#171;application&#187;</text><text fill="#000000" font-family="sans-serif" font-size="14" lengthAdjust="spacing" textLength="156" x="685.5" y="205.2617">UploadTextFileController</text><polygon fill="#181818" points="746.5,246.0664,756.5,250.0664,746.5,254.0664,750.5,250.0664" style="stroke:#181818;stroke-width:1.0;"/><line style="stroke:#181818;stroke-width:1.0;" x1="493.5" x2="752.5" y1="250.0664" y2="250.0664"/><text fill="#000000" font-family="sans-serif" font-size="13" font-weight="bold" lengthAdjust="spacing" textLength="7" x="500.5" y="244.8037">3</text><text fill="#000000" font-family="sans-serif" font-size="13" lengthAdjust="spacing" textLength="86" x="511.5" y="244.8037">allCandidates()</text><polygon fill="#181818" points="1415.5,277.3574,1425.5,281.3574,1415.5,285.3574,1419.5,281.3574" style="stroke:#181818;stroke-width:1.0;"/><line style="stroke:#181818;stroke-width:1.0;" x1="768.5" x2="1421.5" y1="281.3574" y2="281.3574"/><text fill="#000000" font-family="sans-serif" font-size="13" font-weight="bold" lengthAdjust="spacing" textLength="7" x="775.5" y="276.0947">4</text><text fill="#000000" font-family="sans-serif" font-size="13" lengthAdjust="spacing" textLength="629" x="786.5" y="276.0947">ensureAuthenticatedUserHasAnyOf(BaseRoles.OPERATOR, BaseRoles.ADMIN, BaseRoles.POWERUSER)</text><polygon fill="#181818" points="779.5,308.6484,769.5,312.6484,779.5,316.6484,775.5,312.6484" style="stroke:#181818;stroke-width:1.0;"/><line style="stroke:#181818;stroke-width:1.0;stroke-dasharray:2.0,2.0;" x1="773.5" x2="1431.5" y1="312.6484" y2="312.6484"/><text fill="#000000" font-family="sans-serif" font-size="13" font-weight="bold" lengthAdjust="spacing" textLength="7" x="785.5" y="307.3857">5</text><text fill="#000000" font-family="sans-serif" font-size="13" lengthAdjust="spacing" textLength="198" x="796.5" y="307.3857">ensures the user has operator role</text><polygon fill="#181818" points="1601,339.9395,1611,343.9395,1601,347.9395,1605,343.9395" style="stroke:#181818;stroke-width:1.0;"/><line style="stroke:#181818;stroke-width:1.0;" x1="768.5" x2="1607" y1="343.9395" y2="343.9395"/><text fill="#000000" font-family="sans-serif" font-size="13" font-weight="bold" lengthAdjust="spacing" textLength="7" x="775.5" y="338.6768">6</text><text fill="#000000" font-family="sans-serif" font-size="13" lengthAdjust="spacing" textLength="79" x="786.5" y="338.6768">allCandidate()</text><polygon fill="#181818" points="1788.5,371.2305,1798.5,375.2305,1788.5,379.2305,1792.5,375.2305" style="stroke:#181818;stroke-width:1.0;"/><line style="stroke:#181818;stroke-width:1.0;" x1="1623" x2="1794.5" y1="375.2305" y2="375.2305"/><text fill="#000000" font-family="sans-serif" font-size="13" font-weight="bold" lengthAdjust="spacing" textLength="7" x="1630" y="369.9678">7</text><text fill="#000000" font-family="sans-serif" font-size="13" lengthAdjust="spacing" textLength="108" x="1641" y="369.9678">findAllCandidates()</text><polygon fill="#181818" points="1634,402.5215,1624,406.5215,1634,410.5215,1630,406.5215" style="stroke:#181818;stroke-width:1.0;"/><line style="stroke:#181818;stroke-width:1.0;stroke-dasharray:2.0,2.0;" x1="1628" x2="1804.5" y1="406.5215" y2="406.5215"/><text fill="#000000" font-family="sans-serif" font-size="13" font-weight="bold" lengthAdjust="spacing" textLength="7" x="1640" y="401.2588">8</text><text fill="#000000" font-family="sans-serif" font-size="13" lengthAdjust="spacing" textLength="115" x="1651" y="401.2588">list of all candidates</text><polygon fill="#181818" points="779.5,433.8125,769.5,437.8125,779.5,441.8125,775.5,437.8125" style="stroke:#181818;stroke-width:1.0;"/><line style="stroke:#181818;stroke-width:1.0;stroke-dasharray:2.0,2.0;" x1="773.5" x2="1617" y1="437.8125" y2="437.8125"/><text fill="#000000" font-family="sans-serif" font-size="13" font-weight="bold" lengthAdjust="spacing" textLength="7" x="785.5" y="432.5498">9</text><text fill="#000000" font-family="sans-serif" font-size="13" lengthAdjust="spacing" textLength="115" x="796.5" y="432.5498">list of all candidates</text><polygon fill="#181818" points="504.5,465.1035,494.5,469.1035,504.5,473.1035,500.5,469.1035" style="stroke:#181818;stroke-width:1.0;"/><line style="stroke:#181818;stroke-width:1.0;stroke-dasharray:2.0,2.0;" x1="498.5" x2="762.5" y1="469.1035" y2="469.1035"/><text fill="#000000" font-family="sans-serif" font-size="13" font-weight="bold" lengthAdjust="spacing" textLength="14" x="510.5" y="463.8408">10</text><text fill="#000000" font-family="sans-serif" font-size="13" lengthAdjust="spacing" textLength="115" x="528.5" y="463.8408">list of all candidates</text><line style="stroke:#181818;stroke-width:1.0;stroke-dasharray:2.0,2.0;" x1="493.5" x2="535.5" y1="500.3945" y2="500.3945"/><line style="stroke:#181818;stroke-width:1.0;stroke-dasharray:2.0,2.0;" x1="535.5" x2="535.5" y1="500.3945" y2="513.3945"/><line style="stroke:#181818;stroke-width:1.0;stroke-dasharray:2.0,2.0;" x1="494.5" x2="535.5" y1="513.3945" y2="513.3945"/><polygon fill="#181818" points="504.5,509.3945,494.5,513.3945,504.5,517.3945,500.5,513.3945" style="stroke:#181818;stroke-width:1.0;"/><text fill="#000000" font-family="sans-serif" font-size="13" font-weight="bold" lengthAdjust="spacing" textLength="14" x="500.5" y="495.1318">11</text><text fill="#000000" font-family="sans-serif" font-size="13" lengthAdjust="spacing" textLength="233" x="518.5" y="495.1318">printNumeratedList(message, collection)</text><polygon fill="#181818" points="52.5,540.6855,42.5,544.6855,52.5,548.6855,48.5,544.6855" style="stroke:#181818;stroke-width:1.0;"/><line style="stroke:#181818;stroke-width:1.0;stroke-dasharray:2.0,2.0;" x1="46.5" x2="487.5" y1="544.6855" y2="544.6855"/><text fill="#000000" font-family="sans-serif" font-size="13" font-weight="bold" lengthAdjust="spacing" textLength="14" x="58.5" y="539.4229">12</text><text fill="#000000" font-family="sans-serif" font-size="13" lengthAdjust="spacing" textLength="315" x="76.5" y="539.4229">Retrieves list of all candidates and asks to choose one</text><polygon fill="#181818" points="471.5,571.9766,481.5,575.9766,471.5,579.9766,475.5,575.9766" style="stroke:#181818;stroke-width:1.0;"/><line style="stroke:#181818;stroke-width:1.0;" x1="41.5" x2="477.5" y1="575.9766" y2="575.9766"/><text fill="#000000" font-family="sans-serif" font-size="13" font-weight="bold" lengthAdjust="spacing" textLength="14" x="48.5" y="570.7139">13</text><text fill="#000000" font-family="sans-serif" font-size="13" lengthAdjust="spacing" textLength="126" x="66.5" y="570.7139">Selects the candidate</text><polygon fill="#181818" points="881,603.2676,891,607.2676,881,611.2676,885,607.2676" style="stroke:#181818;stroke-width:1.0;"/><line style="stroke:#181818;stroke-width:1.0;" x1="493.5" x2="887" y1="607.2676" y2="607.2676"/><text fill="#000000" font-family="sans-serif" font-size="13" font-weight="bold" lengthAdjust="spacing" textLength="14" x="500.5" y="602.0049">14</text><text fill="#000000" font-family="sans-serif" font-size="13" lengthAdjust="spacing" textLength="72" x="518.5" y="602.0049">get(option-1)</text><polygon fill="#181818" points="504.5,634.5586,494.5,638.5586,504.5,642.5586,500.5,638.5586" style="stroke:#181818;stroke-width:1.0;"/><line style="stroke:#181818;stroke-width:1.0;stroke-dasharray:2.0,2.0;" x1="498.5" x2="897" y1="638.5586" y2="638.5586"/><text fill="#000000" font-family="sans-serif" font-size="13" font-weight="bold" lengthAdjust="spacing" textLength="14" x="510.5" y="633.2959">15</text><text fill="#000000" font-family="sans-serif" font-size="13" lengthAdjust="spacing" textLength="172" x="528.5" y="633.2959">gets the chosen candidate (c)</text><polygon fill="#181818" points="746.5,665.8496,756.5,669.8496,746.5,673.8496,750.5,669.8496" style="stroke:#181818;stroke-width:1.0;"/><line style="stroke:#181818;stroke-width:1.0;" x1="493.5" x2="752.5" y1="669.8496" y2="669.8496"/><text fill="#000000" font-family="sans-serif" font-size="13" font-weight="bold" lengthAdjust="spacing" textLength="14" x="500.5" y="664.5869">16</text><text fill="#000000" font-family="sans-serif" font-size="13" lengthAdjust="spacing" textLength="150" x="518.5" y="664.5869">.uploadFile(c.curriculum())</text><polygon fill="#181818" points="504.5,697.1406,494.5,701.1406,504.5,705.1406,500.5,701.1406" style="stroke:#181818;stroke-width:1.0;"/><line style="stroke:#181818;stroke-width:1.0;stroke-dasharray:2.0,2.0;" x1="498.5" x2="762.5" y1="701.1406" y2="701.1406"/><text fill="#000000" font-family="sans-serif" font-size="13" font-weight="bold" lengthAdjust="spacing" textLength="14" x="510.5" y="695.8779">17</text><text fill="#000000" font-family="sans-serif" font-size="13" lengthAdjust="spacing" textLength="99" x="528.5" y="695.8779">the file is created</text><polygon fill="#181818" points="52.5,728.4316,42.5,732.4316,52.5,736.4316,48.5,732.4316" style="stroke:#181818;stroke-width:1.0;"/><line style="stroke:#181818;stroke-width:1.0;stroke-dasharray:2.0,2.0;" x1="46.5" x2="487.5" y1="732.4316" y2="732.4316"/><text fill="#000000" font-family="sans-serif" font-size="13" font-weight="bold" lengthAdjust="spacing" textLength="14" x="58.5" y="727.1689">18</text><text fill="#000000" font-family="sans-serif" font-size="13" lengthAdjust="spacing" textLength="400" x="76.5" y="727.1689">Verifies the candidate's requirements and displays success message</text><!--SRC=[dLJ1Rjim3BtxAuXSvXHDqGqx6KK0Bysm04rJsFLsrcIc4IPBdYHdwxv-fEqaTjO2nIw2GB-dHpwI5asmfgc-eukYe896cEJuiq4Z4KebdfoeO0OVhgy_GbpKseeI10Jy7M2h2FnBXHs47O8Zad9OeGaUx9P0KfXIbI8WRAq3HU6zq1nGramdaP21mfiQdU2ByCTxL0iNb5IrC04wpKSI_4nwnOg1TDxS5AlvV8ISZA4BQuApMgERC6VncDqHIzIrLhBDuPo-EEJRuGbyQokX_i6bJTXPf_wqZ-Jezafsb3GdJXzuzV6rCEAfjMb8NQpVmismjbwHGyyTALi-R8Xs2XEJVLLxTlrevz7ZsPoiIo3Z_le0mKBpVnqzYHIhg5ZHksplnKK2qY5_vnY74g7rCNqVJqz4_XhnCPkdUOB6DmxPMLBZ_c1PU7HVX4_DysORVn8UCwlHNsqUbbdwkCakuHHBRzUh-s7WOVDjcHNvCXi8fdcKvhC-rGGwHTzMsf0KxCXHUt2A1WUZ4eVaBbTgrAYcKKbhGgrpbk3E95jbolJL-XaIjMUR5Bsh5JM5ZTRwPBKVfj6Jrbn7Ez09l86qxfFls_y61lU6MZYR4xvsoeJxfc9diBmZSboXzpJ4bo1vlsIxq8G7LZWC6uzPS0htvF7BYa0t6kCVdWTHxgpr2DQCRAVfEX_U75cnwzlhyxX8u0b3R6lERVP-w7kqE1X1YFwT7McRmGyhbjEH7wTvlkesXdymiRoIZNDADhgfukcBizqhiKYxNCht6rA-uFUPVr_HgQt2irBV-V5YiecbyhKMpnvy8oNr1le6dLdv5m00]--></g></svg>