<?xml version="1.0" encoding="us-ascii" standalone="no"?><svg xmlns="http://www.w3.org/2000/svg" xmlns:xlink="http://www.w3.org/1999/xlink" contentStyleType="text/css" height="476px" preserveAspectRatio="none" style="width:1046px;height:476px;background:#FFFFFF;" version="1.1" viewBox="0 0 1046 476" width="1046px" zoomAndPan="magnify"><defs/><g><text fill="#000000" font-family="sans-serif" font-size="14" font-weight="bold" lengthAdjust="spacing" textLength="1018" x="10" y="30.1074">System Sequence Diagram (US 2004 - As Operator, I want to upload a text file with the data fields (requirements) of a candidate for its verification)</text><rect fill="#FFFFFF" height="251.3281" style="stroke:#181818;stroke-width:1.0;" width="10" x="266.75" y="133.2422"/><rect fill="#FFFFFF" height="31.291" style="stroke:#181818;stroke-width:1.0;" width="10" x="763.75" y="156.5332"/><rect fill="#FFFFFF" height="31.291" style="stroke:#181818;stroke-width:1.0;" width="10" x="763.75" y="219.1152"/><rect fill="#FFFFFF" height="31.291" style="stroke:#181818;stroke-width:1.0;" width="10" x="763.75" y="281.6973"/><rect fill="#FFFFFF" height="31.291" style="stroke:#181818;stroke-width:1.0;" width="10" x="763.75" y="344.2793"/><line style="stroke:#181818;stroke-width:0.5;stroke-dasharray:5.0,5.0;" x1="271.25" x2="271.25" y1="123.2422" y2="393.5703"/><line style="stroke:#181818;stroke-width:0.5;stroke-dasharray:5.0,5.0;" x1="768.75" x2="768.75" y1="123.2422" y2="393.5703"/><text fill="#000000" font-family="sans-serif" font-size="14" lengthAdjust="spacing" textLength="57" x="240.25" y="119.7285">Operator</text><ellipse cx="271.75" cy="53.1211" fill="#E2E2F0" rx="8" ry="8" style="stroke:#181818;stroke-width:0.5;"/><path d="M271.75,61.1211 L271.75,88.1211 M258.75,69.1211 L284.75,69.1211 M271.75,88.1211 L258.75,103.1211 M271.75,88.1211 L284.75,103.1211 " fill="none" style="stroke:#181818;stroke-width:0.5;"/><text fill="#000000" font-family="sans-serif" font-size="14" lengthAdjust="spacing" textLength="57" x="240.25" y="407.6777">Operator</text><ellipse cx="271.75" cy="419.6914" fill="#E2E2F0" rx="8" ry="8" style="stroke:#181818;stroke-width:0.5;"/><path d="M271.75,427.6914 L271.75,454.6914 M258.75,435.6914 L284.75,435.6914 M271.75,454.6914 L258.75,469.6914 M271.75,454.6914 L284.75,469.6914 " fill="none" style="stroke:#181818;stroke-width:0.5;"/><rect fill="#E2E2F0" height="32.6211" rx="2.5" ry="2.5" style="stroke:#181818;stroke-width:0.5;" width="60" x="738.75" y="89.6211"/><text fill="#000000" font-family="sans-serif" font-size="14" lengthAdjust="spacing" textLength="46" x="745.75" y="111.7285">System</text><rect fill="#E2E2F0" height="32.6211" rx="2.5" ry="2.5" style="stroke:#181818;stroke-width:0.5;" width="60" x="738.75" y="392.5703"/><text fill="#000000" font-family="sans-serif" font-size="14" lengthAdjust="spacing" textLength="46" x="745.75" y="414.6777">System</text><rect fill="#FFFFFF" height="251.3281" style="stroke:#181818;stroke-width:1.0;" width="10" x="266.75" y="133.2422"/><rect fill="#FFFFFF" height="31.291" style="stroke:#181818;stroke-width:1.0;" width="10" x="763.75" y="156.5332"/><rect fill="#FFFFFF" height="31.291" style="stroke:#181818;stroke-width:1.0;" width="10" x="763.75" y="219.1152"/><rect fill="#FFFFFF" height="31.291" style="stroke:#181818;stroke-width:1.0;" width="10" x="763.75" y="281.6973"/><rect fill="#FFFFFF" height="31.291" style="stroke:#181818;stroke-width:1.0;" width="10" x="763.75" y="344.2793"/><polygon fill="#181818" points="751.75,152.5332,761.75,156.5332,751.75,160.5332,755.75,156.5332" style="stroke:#181818;stroke-width:1.0;"/><line style="stroke:#181818;stroke-width:1.0;" x1="276.75" x2="757.75" y1="156.5332" y2="156.5332"/><text fill="#000000" font-family="sans-serif" font-size="13" lengthAdjust="spacing" textLength="375" x="283.75" y="151.2705">Request to upload a text file with the requirements of a candidate</text><polygon fill="#181818" points="287.75,183.8242,277.75,187.8242,287.75,191.8242,283.75,187.8242" style="stroke:#181818;stroke-width:1.0;"/><line style="stroke:#181818;stroke-width:1.0;stroke-dasharray:2.0,2.0;" x1="281.75" x2="767.75" y1="187.8242" y2="187.8242"/><text fill="#000000" font-family="sans-serif" font-size="13" lengthAdjust="spacing" textLength="315" x="293.75" y="182.5615">Retrieves list of all candidates and asks to choose one</text><polygon fill="#181818" points="751.75,215.1152,761.75,219.1152,751.75,223.1152,755.75,219.1152" style="stroke:#181818;stroke-width:1.0;"/><line style="stroke:#181818;stroke-width:1.0;" x1="276.75" x2="757.75" y1="219.1152" y2="219.1152"/><text fill="#000000" font-family="sans-serif" font-size="13" lengthAdjust="spacing" textLength="126" x="283.75" y="213.8525">Selects the candidate</text><polygon fill="#181818" points="287.75,246.4063,277.75,250.4063,287.75,254.4063,283.75,250.4063" style="stroke:#181818;stroke-width:1.0;"/><line style="stroke:#181818;stroke-width:1.0;stroke-dasharray:2.0,2.0;" x1="281.75" x2="767.75" y1="250.4063" y2="250.4063"/><text fill="#000000" font-family="sans-serif" font-size="13" lengthAdjust="spacing" textLength="463" x="293.75" y="245.1436">Retrieves list of all applications of the chosen candidate and asks to choose one</text><polygon fill="#181818" points="751.75,277.6973,761.75,281.6973,751.75,285.6973,755.75,281.6973" style="stroke:#181818;stroke-width:1.0;"/><line style="stroke:#181818;stroke-width:1.0;" x1="276.75" x2="757.75" y1="281.6973" y2="281.6973"/><text fill="#000000" font-family="sans-serif" font-size="13" lengthAdjust="spacing" textLength="132" x="283.75" y="276.4346">Selects the application</text><polygon fill="#181818" points="287.75,308.9883,277.75,312.9883,287.75,316.9883,283.75,312.9883" style="stroke:#181818;stroke-width:1.0;"/><line style="stroke:#181818;stroke-width:1.0;stroke-dasharray:2.0,2.0;" x1="281.75" x2="767.75" y1="312.9883" y2="312.9883"/><text fill="#000000" font-family="sans-serif" font-size="13" lengthAdjust="spacing" textLength="185" x="293.75" y="307.7256">Asks to enter the path of the file</text><polygon fill="#181818" points="751.75,340.2793,761.75,344.2793,751.75,348.2793,755.75,344.2793" style="stroke:#181818;stroke-width:1.0;"/><line style="stroke:#181818;stroke-width:1.0;" x1="276.75" x2="757.75" y1="344.2793" y2="344.2793"/><text fill="#000000" font-family="sans-serif" font-size="13" lengthAdjust="spacing" textLength="145" x="283.75" y="339.0166">Enters the path of the file</text><polygon fill="#181818" points="287.75,371.5703,277.75,375.5703,287.75,379.5703,283.75,375.5703" style="stroke:#181818;stroke-width:1.0;"/><line style="stroke:#181818;stroke-width:1.0;stroke-dasharray:2.0,2.0;" x1="281.75" x2="767.75" y1="375.5703" y2="375.5703"/><text fill="#000000" font-family="sans-serif" font-size="13" lengthAdjust="spacing" textLength="135" x="293.75" y="370.3076">Confirms the file upload</text><!--SRC=[hPB1IWCn48Rl-nH3JosuKCIJXq9H3vu45nzWoCwwWzaa9jDMtzx9DcvBBLZ1MqZs_xzlc1KMIz1y9g416dhVa3C4zuol4GUOlpHmlLpUG0th14-18egFL_08EtG2uc4JhCSM48G-13hMiXrB3z8Jj2YeLsJR1FEetHnf82Tf0RxJY47Nidv4qFa8B0cs5BbZWyBUBQeAZT8cBE11eGeOXGs7h57izNcsFyx6A6zpzPIOQkfLITp2Snuu_Jh8iVk9-W6qxwoAJAsKRsBcI6JQKWBBYiiLrXvA4kX9_TzIDZ6zzud0EwfQEgq_DqL3beoQPTL_4SCGRDd2EEzOtAkKEzhPdvNhrJdX8zPbokl2r6LG72i2wfwAPbxSHGuFEPxEvo_okFEkupYaALP-eP_qBm00]--></g></svg>