<?xml version="1.0" encoding="us-ascii" standalone="no"?><svg xmlns="http://www.w3.org/2000/svg" xmlns:xlink="http://www.w3.org/1999/xlink" contentStyleType="text/css" height="519px" preserveAspectRatio="none" style="width:1032px;height:519px;background:#FFFFFF;" version="1.1" viewBox="0 0 1032 519" width="1032px" zoomAndPan="magnify"><defs/><g><!--cluster candidate--><g id="cluster_candidate"><rect fill="#AABBCC" height="268" rx="2.5" ry="2.5" style="stroke:#181818;stroke-width:1.0;" width="160" x="866" y="7"/><text fill="#000000" font-family="sans-serif" font-size="14" font-weight="bold" lengthAdjust="spacing" textLength="69" x="911.5" y="24.1074">candidate</text></g><!--cluster Job Opening Application--><g id="cluster_Job Opening Application"><rect fill="#AACCBB" height="268" rx="2.5" ry="2.5" style="stroke:#181818;stroke-width:1.0;" width="788" x="7" y="7"/><text fill="#000000" font-family="sans-serif" font-size="14" font-weight="bold" lengthAdjust="spacing" textLength="172" x="315" y="24.1074">Job Opening Application</text></g><!--class Candidate--><g id="elem_Candidate"><rect codeLine="2" fill="#F1F1F1" height="76.543" id="Candidate" rx="2.5" ry="2.5" style="stroke:#181818;stroke-width:0.5;" width="128" x="882" y="44"/><ellipse cx="897" cy="74.2715" fill="#ADD1B2" rx="11" ry="11" style="stroke:#181818;stroke-width:1.0;"/><path d="M899.7656,70.1465 Q899.9219,69.9277 900.1094,69.8184 Q900.2969,69.709 900.5156,69.709 Q900.8906,69.709 901.125,69.9746 Q901.3594,70.2246 901.3594,70.834 L901.3594,72.2871 Q901.3594,72.8965 901.125,73.1621 Q900.8906,73.4277 900.5156,73.4277 Q900.1719,73.4277 899.9688,73.2246 Q899.7656,73.0371 899.6563,72.5215 Q899.6094,72.1621 899.4219,71.9746 Q899.0938,71.5996 898.4844,71.3809 Q897.875,71.1621 897.25,71.1621 Q896.4844,71.1621 895.8438,71.4902 Q895.2188,71.8184 894.7188,72.5684 Q894.2344,73.3184 894.2344,74.3496 L894.2344,75.4434 Q894.2344,76.6777 895.125,77.5059 Q896.0156,78.3184 897.6094,78.3184 Q898.5469,78.3184 899.2031,78.0684 Q899.5938,77.9121 900.0156,77.4746 Q900.2813,77.209 900.4219,77.1309 Q900.5781,77.0527 900.7813,77.0527 Q901.1094,77.0527 901.3594,77.3184 Q901.625,77.5684 901.625,77.9121 Q901.625,78.2559 901.2813,78.6621 Q900.7813,79.2402 899.9844,79.5684 Q898.9063,80.0215 897.6094,80.0215 Q896.0938,80.0215 894.8906,79.3965 Q893.9063,78.8965 893.2188,77.834 Q892.5313,76.7559 892.5313,75.4746 L892.5313,74.3184 Q892.5313,72.9902 893.1406,71.8496 Q893.7656,70.6934 894.8594,70.084 Q895.9531,69.459 897.1875,69.459 Q897.9219,69.459 898.5625,69.6309 Q899.2188,69.7871 899.7656,70.1465 Z " fill="#000000"/><text fill="#000000" font-family="sans-serif" font-size="12" font-style="italic" lengthAdjust="spacing" textLength="100" x="909" y="61.9492">&#171;Aggregate Root&#187;</text><text fill="#000000" font-family="sans-serif" font-size="12" font-style="italic" lengthAdjust="spacing" textLength="44" x="937" y="77.9102">&#171;Entity&#187;</text><text fill="#000000" font-family="sans-serif" font-size="14" lengthAdjust="spacing" textLength="65" x="926.5" y="96.0293">Candidate</text><line style="stroke:#181818;stroke-width:0.5;" x1="883" x2="1009" y1="104.543" y2="104.543"/><line style="stroke:#181818;stroke-width:0.5;" x1="883" x2="1009" y1="112.543" y2="112.543"/></g><!--class CandidateId--><g id="elem_CandidateId"><rect codeLine="3" fill="#F1F1F1" height="76.543" id="CandidateId" rx="2.5" ry="2.5" style="stroke:#181818;stroke-width:0.5;" width="113" x="889.5" y="182"/><ellipse cx="904.5" cy="212.2715" fill="#ADD1B2" rx="11" ry="11" style="stroke:#181818;stroke-width:1.0;"/><path d="M907.2656,208.1465 Q907.4219,207.9277 907.6094,207.8184 Q907.7969,207.709 908.0156,207.709 Q908.3906,207.709 908.625,207.9746 Q908.8594,208.2246 908.8594,208.834 L908.8594,210.2871 Q908.8594,210.8965 908.625,211.1621 Q908.3906,211.4277 908.0156,211.4277 Q907.6719,211.4277 907.4688,211.2246 Q907.2656,211.0371 907.1563,210.5215 Q907.1094,210.1621 906.9219,209.9746 Q906.5938,209.5996 905.9844,209.3809 Q905.375,209.1621 904.75,209.1621 Q903.9844,209.1621 903.3438,209.4902 Q902.7188,209.8184 902.2188,210.5684 Q901.7344,211.3184 901.7344,212.3496 L901.7344,213.4434 Q901.7344,214.6777 902.625,215.5059 Q903.5156,216.3184 905.1094,216.3184 Q906.0469,216.3184 906.7031,216.0684 Q907.0938,215.9121 907.5156,215.4746 Q907.7813,215.209 907.9219,215.1309 Q908.0781,215.0527 908.2813,215.0527 Q908.6094,215.0527 908.8594,215.3184 Q909.125,215.5684 909.125,215.9121 Q909.125,216.2559 908.7813,216.6621 Q908.2813,217.2402 907.4844,217.5684 Q906.4063,218.0215 905.1094,218.0215 Q903.5938,218.0215 902.3906,217.3965 Q901.4063,216.8965 900.7188,215.834 Q900.0313,214.7559 900.0313,213.4746 L900.0313,212.3184 Q900.0313,210.9902 900.6406,209.8496 Q901.2656,208.6934 902.3594,208.084 Q903.4531,207.459 904.6875,207.459 Q905.4219,207.459 906.0625,207.6309 Q906.7188,207.7871 907.2656,208.1465 Z " fill="#000000"/><text fill="#000000" font-family="sans-serif" font-size="12" font-style="italic" lengthAdjust="spacing" textLength="54" x="932" y="199.9492">&#171;Identity&#187;</text><text fill="#000000" font-family="sans-serif" font-size="12" font-style="italic" lengthAdjust="spacing" textLength="85" x="916.5" y="215.9102">&#171;Value Object&#187;</text><text fill="#000000" font-family="sans-serif" font-size="14" lengthAdjust="spacing" textLength="76" x="921" y="234.0293">CandidateId</text><line style="stroke:#181818;stroke-width:0.5;" x1="890.5" x2="1001.5" y1="242.543" y2="242.543"/><line style="stroke:#181818;stroke-width:0.5;" x1="890.5" x2="1001.5" y1="250.543" y2="250.543"/></g><!--class Application--><g id="elem_Application"><rect codeLine="7" fill="#F1F1F1" height="76.543" id="Application" rx="2.5" ry="2.5" style="stroke:#181818;stroke-width:0.5;" width="128" x="476" y="44"/><ellipse cx="491" cy="74.2715" fill="#ADD1B2" rx="11" ry="11" style="stroke:#181818;stroke-width:1.0;"/><path d="M493.7656,70.1465 Q493.9219,69.9277 494.1094,69.8184 Q494.2969,69.709 494.5156,69.709 Q494.8906,69.709 495.125,69.9746 Q495.3594,70.2246 495.3594,70.834 L495.3594,72.2871 Q495.3594,72.8965 495.125,73.1621 Q494.8906,73.4277 494.5156,73.4277 Q494.1719,73.4277 493.9688,73.2246 Q493.7656,73.0371 493.6563,72.5215 Q493.6094,72.1621 493.4219,71.9746 Q493.0938,71.5996 492.4844,71.3809 Q491.875,71.1621 491.25,71.1621 Q490.4844,71.1621 489.8438,71.4902 Q489.2188,71.8184 488.7188,72.5684 Q488.2344,73.3184 488.2344,74.3496 L488.2344,75.4434 Q488.2344,76.6777 489.125,77.5059 Q490.0156,78.3184 491.6094,78.3184 Q492.5469,78.3184 493.2031,78.0684 Q493.5938,77.9121 494.0156,77.4746 Q494.2813,77.209 494.4219,77.1309 Q494.5781,77.0527 494.7813,77.0527 Q495.1094,77.0527 495.3594,77.3184 Q495.625,77.5684 495.625,77.9121 Q495.625,78.2559 495.2813,78.6621 Q494.7813,79.2402 493.9844,79.5684 Q492.9063,80.0215 491.6094,80.0215 Q490.0938,80.0215 488.8906,79.3965 Q487.9063,78.8965 487.2188,77.834 Q486.5313,76.7559 486.5313,75.4746 L486.5313,74.3184 Q486.5313,72.9902 487.1406,71.8496 Q487.7656,70.6934 488.8594,70.084 Q489.9531,69.459 491.1875,69.459 Q491.9219,69.459 492.5625,69.6309 Q493.2188,69.7871 493.7656,70.1465 Z " fill="#000000"/><text fill="#000000" font-family="sans-serif" font-size="12" font-style="italic" lengthAdjust="spacing" textLength="100" x="503" y="61.9492">&#171;Aggregate Root&#187;</text><text fill="#000000" font-family="sans-serif" font-size="12" font-style="italic" lengthAdjust="spacing" textLength="44" x="531" y="77.9102">&#171;Entity&#187;</text><text fill="#000000" font-family="sans-serif" font-size="14" lengthAdjust="spacing" textLength="69" x="518.5" y="96.0293">Application</text><line style="stroke:#181818;stroke-width:0.5;" x1="477" x2="603" y1="104.543" y2="104.543"/><line style="stroke:#181818;stroke-width:0.5;" x1="477" x2="603" y1="112.543" y2="112.543"/></g><!--class ApplicationId--><g id="elem_ApplicationId"><rect codeLine="9" fill="#F1F1F1" height="76.543" id="ApplicationId" rx="2.5" ry="2.5" style="stroke:#181818;stroke-width:0.5;" width="113" x="23.5" y="182"/><ellipse cx="38.5" cy="212.2715" fill="#ADD1B2" rx="11" ry="11" style="stroke:#181818;stroke-width:1.0;"/><path d="M41.2656,208.1465 Q41.4219,207.9277 41.6094,207.8184 Q41.7969,207.709 42.0156,207.709 Q42.3906,207.709 42.625,207.9746 Q42.8594,208.2246 42.8594,208.834 L42.8594,210.2871 Q42.8594,210.8965 42.625,211.1621 Q42.3906,211.4277 42.0156,211.4277 Q41.6719,211.4277 41.4688,211.2246 Q41.2656,211.0371 41.1563,210.5215 Q41.1094,210.1621 40.9219,209.9746 Q40.5938,209.5996 39.9844,209.3809 Q39.375,209.1621 38.75,209.1621 Q37.9844,209.1621 37.3438,209.4902 Q36.7188,209.8184 36.2188,210.5684 Q35.7344,211.3184 35.7344,212.3496 L35.7344,213.4434 Q35.7344,214.6777 36.625,215.5059 Q37.5156,216.3184 39.1094,216.3184 Q40.0469,216.3184 40.7031,216.0684 Q41.0938,215.9121 41.5156,215.4746 Q41.7813,215.209 41.9219,215.1309 Q42.0781,215.0527 42.2813,215.0527 Q42.6094,215.0527 42.8594,215.3184 Q43.125,215.5684 43.125,215.9121 Q43.125,216.2559 42.7813,216.6621 Q42.2813,217.2402 41.4844,217.5684 Q40.4063,218.0215 39.1094,218.0215 Q37.5938,218.0215 36.3906,217.3965 Q35.4063,216.8965 34.7188,215.834 Q34.0313,214.7559 34.0313,213.4746 L34.0313,212.3184 Q34.0313,210.9902 34.6406,209.8496 Q35.2656,208.6934 36.3594,208.084 Q37.4531,207.459 38.6875,207.459 Q39.4219,207.459 40.0625,207.6309 Q40.7188,207.7871 41.2656,208.1465 Z " fill="#000000"/><text fill="#000000" font-family="sans-serif" font-size="12" font-style="italic" lengthAdjust="spacing" textLength="54" x="66" y="199.9492">&#171;Identity&#187;</text><text fill="#000000" font-family="sans-serif" font-size="12" font-style="italic" lengthAdjust="spacing" textLength="85" x="50.5" y="215.9102">&#171;Value Object&#187;</text><text fill="#000000" font-family="sans-serif" font-size="14" lengthAdjust="spacing" textLength="80" x="53" y="234.0293">ApplicationId</text><line style="stroke:#181818;stroke-width:0.5;" x1="24.5" x2="135.5" y1="242.543" y2="242.543"/><line style="stroke:#181818;stroke-width:0.5;" x1="24.5" x2="135.5" y1="250.543" y2="250.543"/></g><!--class AttachedEmail--><g id="elem_AttachedEmail"><rect codeLine="11" fill="#F1F1F1" height="60.582" id="AttachedEmail" rx="2.5" ry="2.5" style="stroke:#181818;stroke-width:0.5;" width="122" x="172" y="190"/><ellipse cx="187" cy="212.291" fill="#ADD1B2" rx="11" ry="11" style="stroke:#181818;stroke-width:1.0;"/><path d="M189.7656,208.166 Q189.9219,207.9473 190.1094,207.8379 Q190.2969,207.7285 190.5156,207.7285 Q190.8906,207.7285 191.125,207.9941 Q191.3594,208.2441 191.3594,208.8535 L191.3594,210.3066 Q191.3594,210.916 191.125,211.1816 Q190.8906,211.4473 190.5156,211.4473 Q190.1719,211.4473 189.9688,211.2441 Q189.7656,211.0566 189.6563,210.541 Q189.6094,210.1816 189.4219,209.9941 Q189.0938,209.6191 188.4844,209.4004 Q187.875,209.1816 187.25,209.1816 Q186.4844,209.1816 185.8438,209.5098 Q185.2188,209.8379 184.7188,210.5879 Q184.2344,211.3379 184.2344,212.3691 L184.2344,213.4629 Q184.2344,214.6973 185.125,215.5254 Q186.0156,216.3379 187.6094,216.3379 Q188.5469,216.3379 189.2031,216.0879 Q189.5938,215.9316 190.0156,215.4941 Q190.2813,215.2285 190.4219,215.1504 Q190.5781,215.0723 190.7813,215.0723 Q191.1094,215.0723 191.3594,215.3379 Q191.625,215.5879 191.625,215.9316 Q191.625,216.2754 191.2813,216.6816 Q190.7813,217.2598 189.9844,217.5879 Q188.9063,218.041 187.6094,218.041 Q186.0938,218.041 184.8906,217.416 Q183.9063,216.916 183.2188,215.8535 Q182.5313,214.7754 182.5313,213.4941 L182.5313,212.3379 Q182.5313,211.0098 183.1406,209.8691 Q183.7656,208.7129 184.8594,208.1035 Q185.9531,207.4785 187.1875,207.4785 Q187.9219,207.4785 188.5625,207.6504 Q189.2188,207.8066 189.7656,208.166 Z " fill="#000000"/><text fill="#000000" font-family="sans-serif" font-size="12" font-style="italic" lengthAdjust="spacing" textLength="85" x="203.5" y="207.9492">&#171;Value Object&#187;</text><text fill="#000000" font-family="sans-serif" font-size="14" lengthAdjust="spacing" textLength="90" x="201" y="226.0684">AttachedEmail</text><line style="stroke:#181818;stroke-width:0.5;" x1="173" x2="293" y1="234.582" y2="234.582"/><line style="stroke:#181818;stroke-width:0.5;" x1="173" x2="293" y1="242.582" y2="242.582"/></g><!--class AttachedFile--><g id="elem_AttachedFile"><rect codeLine="13" fill="#F1F1F1" height="60.582" id="AttachedFile" rx="2.5" ry="2.5" style="stroke:#181818;stroke-width:0.5;" width="113" x="329.5" y="190"/><ellipse cx="344.5" cy="212.291" fill="#ADD1B2" rx="11" ry="11" style="stroke:#181818;stroke-width:1.0;"/><path d="M347.2656,208.166 Q347.4219,207.9473 347.6094,207.8379 Q347.7969,207.7285 348.0156,207.7285 Q348.3906,207.7285 348.625,207.9941 Q348.8594,208.2441 348.8594,208.8535 L348.8594,210.3066 Q348.8594,210.916 348.625,211.1816 Q348.3906,211.4473 348.0156,211.4473 Q347.6719,211.4473 347.4688,211.2441 Q347.2656,211.0566 347.1563,210.541 Q347.1094,210.1816 346.9219,209.9941 Q346.5938,209.6191 345.9844,209.4004 Q345.375,209.1816 344.75,209.1816 Q343.9844,209.1816 343.3438,209.5098 Q342.7188,209.8379 342.2188,210.5879 Q341.7344,211.3379 341.7344,212.3691 L341.7344,213.4629 Q341.7344,214.6973 342.625,215.5254 Q343.5156,216.3379 345.1094,216.3379 Q346.0469,216.3379 346.7031,216.0879 Q347.0938,215.9316 347.5156,215.4941 Q347.7813,215.2285 347.9219,215.1504 Q348.0781,215.0723 348.2813,215.0723 Q348.6094,215.0723 348.8594,215.3379 Q349.125,215.5879 349.125,215.9316 Q349.125,216.2754 348.7813,216.6816 Q348.2813,217.2598 347.4844,217.5879 Q346.4063,218.041 345.1094,218.041 Q343.5938,218.041 342.3906,217.416 Q341.4063,216.916 340.7188,215.8535 Q340.0313,214.7754 340.0313,213.4941 L340.0313,212.3379 Q340.0313,211.0098 340.6406,209.8691 Q341.2656,208.7129 342.3594,208.1035 Q343.4531,207.4785 344.6875,207.4785 Q345.4219,207.4785 346.0625,207.6504 Q346.7188,207.8066 347.2656,208.166 Z " fill="#000000"/><text fill="#000000" font-family="sans-serif" font-size="12" font-style="italic" lengthAdjust="spacing" textLength="85" x="356.5" y="207.9492">&#171;Value Object&#187;</text><text fill="#000000" font-family="sans-serif" font-size="14" lengthAdjust="spacing" textLength="79" x="359.5" y="226.0684">AttachedFile</text><line style="stroke:#181818;stroke-width:0.5;" x1="330.5" x2="441.5" y1="234.582" y2="234.582"/><line style="stroke:#181818;stroke-width:0.5;" x1="330.5" x2="441.5" y1="242.582" y2="242.582"/></g><!--class ApplicatorData--><g id="elem_ApplicatorData"><rect codeLine="15" fill="#F1F1F1" height="60.582" id="ApplicatorData" rx="2.5" ry="2.5" style="stroke:#181818;stroke-width:0.5;" width="125" x="477.5" y="190"/><ellipse cx="492.5" cy="212.291" fill="#ADD1B2" rx="11" ry="11" style="stroke:#181818;stroke-width:1.0;"/><path d="M495.2656,208.166 Q495.4219,207.9473 495.6094,207.8379 Q495.7969,207.7285 496.0156,207.7285 Q496.3906,207.7285 496.625,207.9941 Q496.8594,208.2441 496.8594,208.8535 L496.8594,210.3066 Q496.8594,210.916 496.625,211.1816 Q496.3906,211.4473 496.0156,211.4473 Q495.6719,211.4473 495.4688,211.2441 Q495.2656,211.0566 495.1563,210.541 Q495.1094,210.1816 494.9219,209.9941 Q494.5938,209.6191 493.9844,209.4004 Q493.375,209.1816 492.75,209.1816 Q491.9844,209.1816 491.3438,209.5098 Q490.7188,209.8379 490.2188,210.5879 Q489.7344,211.3379 489.7344,212.3691 L489.7344,213.4629 Q489.7344,214.6973 490.625,215.5254 Q491.5156,216.3379 493.1094,216.3379 Q494.0469,216.3379 494.7031,216.0879 Q495.0938,215.9316 495.5156,215.4941 Q495.7813,215.2285 495.9219,215.1504 Q496.0781,215.0723 496.2813,215.0723 Q496.6094,215.0723 496.8594,215.3379 Q497.125,215.5879 497.125,215.9316 Q497.125,216.2754 496.7813,216.6816 Q496.2813,217.2598 495.4844,217.5879 Q494.4063,218.041 493.1094,218.041 Q491.5938,218.041 490.3906,217.416 Q489.4063,216.916 488.7188,215.8535 Q488.0313,214.7754 488.0313,213.4941 L488.0313,212.3379 Q488.0313,211.0098 488.6406,209.8691 Q489.2656,208.7129 490.3594,208.1035 Q491.4531,207.4785 492.6875,207.4785 Q493.4219,207.4785 494.0625,207.6504 Q494.7188,207.8066 495.2656,208.166 Z " fill="#000000"/><text fill="#000000" font-family="sans-serif" font-size="12" font-style="italic" lengthAdjust="spacing" textLength="85" x="510.5" y="207.9492">&#171;Value Object&#187;</text><text fill="#000000" font-family="sans-serif" font-size="14" lengthAdjust="spacing" textLength="93" x="506.5" y="226.0684">ApplicatorData</text><line style="stroke:#181818;stroke-width:0.5;" x1="478.5" x2="601.5" y1="234.582" y2="234.582"/><line style="stroke:#181818;stroke-width:0.5;" x1="478.5" x2="601.5" y1="242.582" y2="242.582"/></g><!--class ApplicationStatus--><g id="elem_ApplicationStatus"><rect codeLine="17" fill="#F1F1F1" height="60.582" id="ApplicationStatus" rx="2.5" ry="2.5" style="stroke:#181818;stroke-width:0.5;" width="141" x="637.5" y="190"/><ellipse cx="652.5" cy="212.291" fill="#ADD1B2" rx="11" ry="11" style="stroke:#181818;stroke-width:1.0;"/><path d="M655.2656,208.166 Q655.4219,207.9473 655.6094,207.8379 Q655.7969,207.7285 656.0156,207.7285 Q656.3906,207.7285 656.625,207.9941 Q656.8594,208.2441 656.8594,208.8535 L656.8594,210.3066 Q656.8594,210.916 656.625,211.1816 Q656.3906,211.4473 656.0156,211.4473 Q655.6719,211.4473 655.4688,211.2441 Q655.2656,211.0566 655.1563,210.541 Q655.1094,210.1816 654.9219,209.9941 Q654.5938,209.6191 653.9844,209.4004 Q653.375,209.1816 652.75,209.1816 Q651.9844,209.1816 651.3438,209.5098 Q650.7188,209.8379 650.2188,210.5879 Q649.7344,211.3379 649.7344,212.3691 L649.7344,213.4629 Q649.7344,214.6973 650.625,215.5254 Q651.5156,216.3379 653.1094,216.3379 Q654.0469,216.3379 654.7031,216.0879 Q655.0938,215.9316 655.5156,215.4941 Q655.7813,215.2285 655.9219,215.1504 Q656.0781,215.0723 656.2813,215.0723 Q656.6094,215.0723 656.8594,215.3379 Q657.125,215.5879 657.125,215.9316 Q657.125,216.2754 656.7813,216.6816 Q656.2813,217.2598 655.4844,217.5879 Q654.4063,218.041 653.1094,218.041 Q651.5938,218.041 650.3906,217.416 Q649.4063,216.916 648.7188,215.8535 Q648.0313,214.7754 648.0313,213.4941 L648.0313,212.3379 Q648.0313,211.0098 648.6406,209.8691 Q649.2656,208.7129 650.3594,208.1035 Q651.4531,207.4785 652.6875,207.4785 Q653.4219,207.4785 654.0625,207.6504 Q654.7188,207.8066 655.2656,208.166 Z " fill="#000000"/><text fill="#000000" font-family="sans-serif" font-size="12" font-style="italic" lengthAdjust="spacing" textLength="85" x="678.5" y="207.9492">&#171;Value Object&#187;</text><text fill="#000000" font-family="sans-serif" font-size="14" lengthAdjust="spacing" textLength="109" x="666.5" y="226.0684">ApplicationStatus</text><line style="stroke:#181818;stroke-width:0.5;" x1="638.5" x2="777.5" y1="234.582" y2="234.582"/><line style="stroke:#181818;stroke-width:0.5;" x1="638.5" x2="777.5" y1="242.582" y2="242.582"/></g><!--class JobOpening--><g id="elem_JobOpening"><rect fill="#F1F1F1" height="48" id="JobOpening" rx="2.5" ry="2.5" style="stroke:#181818;stroke-width:0.5;" width="108" x="778" y="464"/><ellipse cx="793" cy="480" fill="#ADD1B2" rx="11" ry="11" style="stroke:#181818;stroke-width:1.0;"/><path d="M795.7656,475.875 Q795.9219,475.6563 796.1094,475.5469 Q796.2969,475.4375 796.5156,475.4375 Q796.8906,475.4375 797.125,475.7031 Q797.3594,475.9531 797.3594,476.5625 L797.3594,478.0156 Q797.3594,478.625 797.125,478.8906 Q796.8906,479.1563 796.5156,479.1563 Q796.1719,479.1563 795.9688,478.9531 Q795.7656,478.7656 795.6563,478.25 Q795.6094,477.8906 795.4219,477.7031 Q795.0938,477.3281 794.4844,477.1094 Q793.875,476.8906 793.25,476.8906 Q792.4844,476.8906 791.8438,477.2188 Q791.2188,477.5469 790.7188,478.2969 Q790.2344,479.0469 790.2344,480.0781 L790.2344,481.1719 Q790.2344,482.4063 791.125,483.2344 Q792.0156,484.0469 793.6094,484.0469 Q794.5469,484.0469 795.2031,483.7969 Q795.5938,483.6406 796.0156,483.2031 Q796.2813,482.9375 796.4219,482.8594 Q796.5781,482.7813 796.7813,482.7813 Q797.1094,482.7813 797.3594,483.0469 Q797.625,483.2969 797.625,483.6406 Q797.625,483.9844 797.2813,484.3906 Q796.7813,484.9688 795.9844,485.2969 Q794.9063,485.75 793.6094,485.75 Q792.0938,485.75 790.8906,485.125 Q789.9063,484.625 789.2188,483.5625 Q788.5313,482.4844 788.5313,481.2031 L788.5313,480.0469 Q788.5313,478.7188 789.1406,477.5781 Q789.7656,476.4219 790.8594,475.8125 Q791.9531,475.1875 793.1875,475.1875 Q793.9219,475.1875 794.5625,475.3594 Q795.2188,475.5156 795.7656,475.875 Z " fill="#000000"/><text fill="#000000" font-family="sans-serif" font-size="14" lengthAdjust="spacing" textLength="76" x="807" y="485.7969">JobOpening</text><line style="stroke:#181818;stroke-width:0.5;" x1="779" x2="885" y1="496" y2="496"/><line style="stroke:#181818;stroke-width:0.5;" x1="779" x2="885" y1="504" y2="504"/></g><!--link Candidate to CandidateId--><g id="link_Candidate_CandidateId"><path codeLine="21" d="M946,121.02 C946,139.89 946,156.71 946,175.63 " fill="none" id="Candidate-to-CandidateId" style="stroke:#181818;stroke-width:1.0;"/><polygon fill="#181818" points="946,181.63,950,172.63,946,176.63,942,172.63,946,181.63" style="stroke:#181818;stroke-width:1.0;"/><text fill="#000000" font-family="sans-serif" font-size="13" lengthAdjust="spacing" textLength="7" x="938.4422" y="142.6017">1</text><text fill="#000000" font-family="sans-serif" font-size="13" lengthAdjust="spacing" textLength="7" x="938.4203" y="170.8746">1</text></g><!--link Application to ApplicationId--><g id="link_Application_ApplicationId"><path codeLine="24" d="M475.85,95.38 C398.16,110.78 264.06,140.64 154,182 C148.34,184.13 148.0074,184.0987 142.2774,186.6887 " fill="none" id="Application-to-ApplicationId" style="stroke:#181818;stroke-width:1.0;"/><polygon fill="#181818" points="136.81,189.16,146.6587,189.098,141.3662,187.1006,143.3636,181.8081,136.81,189.16" style="stroke:#181818;stroke-width:1.0;"/><text fill="#000000" font-family="sans-serif" font-size="13" lengthAdjust="spacing" textLength="7" x="461.028" y="92.958">1</text><text fill="#000000" font-family="sans-serif" font-size="13" lengthAdjust="spacing" textLength="7" x="144.5372" y="181.1317">1</text></g><!--link Application to AttachedEmail--><g id="link_Application_AttachedEmail"><path codeLine="25" d="M475.85,110.5 C430.02,129.96 366.98,157.08 312,182 C306.19,184.63 305.6003,184.8796 299.5803,187.6796 " fill="none" id="Application-to-AttachedEmail" style="stroke:#181818;stroke-width:1.0;"/><polygon fill="#181818" points="294.14,190.21,303.9874,190.0413,298.6736,188.1013,300.6136,182.7875,294.14,190.21" style="stroke:#181818;stroke-width:1.0;"/><text fill="#000000" font-family="sans-serif" font-size="13" lengthAdjust="spacing" textLength="7" x="461.028" y="128.7919">1</text><text fill="#000000" font-family="sans-serif" font-size="13" lengthAdjust="spacing" textLength="7" x="302.018" y="182.554">1</text></g><!--link Application to AttachedFile--><g id="link_Application_AttachedFile"><path codeLine="26" d="M497.51,121.02 C472.94,142.72 446.9469,165.6679 424.0669,185.8779 " fill="none" id="Application-to-AttachedFile" style="stroke:#181818;stroke-width:1.0;"/><polygon fill="#181818" points="419.57,189.85,428.9634,186.8897,423.3174,186.5399,423.6673,180.8939,419.57,189.85" style="stroke:#181818;stroke-width:1.0;"/><text fill="#000000" font-family="sans-serif" font-size="13" lengthAdjust="spacing" textLength="7" x="483.1803" y="142.6017">1</text><text fill="#000000" font-family="sans-serif" font-size="13" lengthAdjust="spacing" textLength="7" x="418.7719" y="178.8767">1</text></g><!--link Application to ApplicatorData--><g id="link_Application_ApplicatorData"><path codeLine="27" d="M540,121.02 C540,142.72 540,163.64 540,183.85 " fill="none" id="Application-to-ApplicatorData" style="stroke:#181818;stroke-width:1.0;"/><polygon fill="#181818" points="540,189.85,544,180.85,540,184.85,536,180.85,540,189.85" style="stroke:#181818;stroke-width:1.0;"/><text fill="#000000" font-family="sans-serif" font-size="13" lengthAdjust="spacing" textLength="7" x="532.4422" y="142.6017">1</text><text fill="#000000" font-family="sans-serif" font-size="13" lengthAdjust="spacing" textLength="7" x="532.2781" y="178.8767">1</text></g><!--link Application to JobOpening--><g id="link_Application_JobOpening"><path codeLine="28" d="M604.08,85.9 C690.04,92.94 832,119.68 832,219.5 C832,219.5 832,219.5 832,403 C832,423.56 832,440.96 832,457.82 " fill="none" id="Application-to-JobOpening" style="stroke:#181818;stroke-width:1.0;"/><polygon fill="#181818" points="832,463.82,836,454.82,832,458.82,828,454.82,832,463.82" style="stroke:#181818;stroke-width:1.0;"/><text fill="#000000" font-family="sans-serif" font-size="13" lengthAdjust="spacing" textLength="75" x="833" y="337.0283">submitted for</text><text fill="#000000" font-family="sans-serif" font-size="13" lengthAdjust="spacing" textLength="5" x="612.1944" y="101.4242">*</text><text fill="#000000" font-family="sans-serif" font-size="13" lengthAdjust="spacing" textLength="7" x="824.1469" y="452.918">1</text></g><!--link Application to Candidate--><g id="link_Application_Candidate"><path codeLine="29" d="M604.33,82.5 C680.35,82.5 800.08,82.5 875.97,82.5 " fill="none" id="Application-to-Candidate" style="stroke:#181818;stroke-width:1.0;"/><polygon fill="#181818" points="881.97,82.5,872.97,78.5,876.97,82.5,872.97,86.5,881.97,82.5" style="stroke:#181818;stroke-width:1.0;"/><text fill="#000000" font-family="sans-serif" font-size="13" lengthAdjust="spacing" textLength="75" x="705.5" y="75.5283">submitted by</text><text fill="#000000" font-family="sans-serif" font-size="13" lengthAdjust="spacing" textLength="5" x="612.0572" y="78.5888">*</text><text fill="#000000" font-family="sans-serif" font-size="13" lengthAdjust="spacing" textLength="7" x="867.1618" y="78.5888">1</text></g><!--link Application to ApplicationStatus--><g id="link_Application_ApplicationStatus"><path codeLine="30" d="M586.35,121.02 C613.16,142.72 641.7469,165.8643 666.7069,186.0743 " fill="none" id="Application-to-ApplicationStatus" style="stroke:#181818;stroke-width:1.0;"/><polygon fill="#181818" points="671.37,189.85,666.8925,181.0778,667.4841,186.7036,661.8583,187.2952,671.37,189.85" style="stroke:#181818;stroke-width:1.0;"/><text fill="#000000" font-family="sans-serif" font-size="13" lengthAdjust="spacing" textLength="7" x="586.1792" y="142.6017">1</text><text fill="#000000" font-family="sans-serif" font-size="13" lengthAdjust="spacing" textLength="7" x="656.0932" y="178.8767">1</text></g><!--SRC=[ZP8_QyCm4CLtVOh3tGeUkXPX26qAwH9eeVlfJrKLHJBoUGWctxro4WUvTP6rQD3lwTwzkwWbeJTEWqIlh4BIS8SeX9G3WtIamww3f-cHyuqnKPkHUmk1ceRphITBnwOPJakAdU9yf_ILuVm3NQzXBxvJvRFcnEBDHFKQ1EnRxQqti6bRPoMI3RuQJKaf10miAv8H1MFBegAtN4Q4yakhxG6jMuU-MASBvDLBYCz8k8vDljy9gUyMisJibZnK3nNKTNE-itaa9ljhHiso-P_AeoXIOmh5WfS0vjZzYDKJcJPZMen7w7fni4HQmMU8VrM_Mfu9n75DzvU46Vi1]--></g></svg>