<?xml version="1.0" encoding="us-ascii" standalone="no"?><svg xmlns="http://www.w3.org/2000/svg" xmlns:xlink="http://www.w3.org/1999/xlink" contentStyleType="text/css" height="1137px" preserveAspectRatio="none" style="width:2430px;height:1137px;background:#FFFFFF;" version="1.1" viewBox="0 0 2430 1137" width="2430px" zoomAndPan="magnify"><defs/><g><text fill="#000000" font-family="sans-serif" font-size="14" font-weight="bold" lengthAdjust="spacing" textLength="244" x="1092" y="30.1074">US 1006 - List All Data Of Candidate</text><rect fill="#FFFFFF" height="912.4395" style="stroke:#181818;stroke-width:1.0;" width="10" x="17.5" y="133.2422"/><rect fill="#FFFFFF" height="567.2383" style="stroke:#181818;stroke-width:1.0;" width="10" x="553.5" y="156.5332"/><rect fill="#FFFFFF" height="281.6191" style="stroke:#181818;stroke-width:1.0;" width="10" x="553.5" y="755.0625"/><rect fill="#FFFFFF" height="254.3281" style="stroke:#181818;stroke-width:1.0;" width="10" x="866.5" y="187.8242"/><rect fill="#FFFFFF" height="219.0371" style="stroke:#181818;stroke-width:1.0;" width="10" x="866.5" y="473.4434"/><rect fill="#FFFFFF" height="219.0371" style="stroke:#181818;stroke-width:1.0;" width="10" x="866.5" y="786.3535"/><rect fill="#FFFFFF" height="168.4551" style="stroke:#181818;stroke-width:1.0;" width="10" x="1667.5" y="250.4063"/><rect fill="#FFFFFF" height="31.291" style="stroke:#181818;stroke-width:1.0;" width="10" x="1817" y="504.7344"/><rect fill="#FFFFFF" height="31.291" style="stroke:#181818;stroke-width:1.0;" width="10" x="1817" y="817.6445"/><rect fill="#FFFFFF" height="31.291" style="stroke:#181818;stroke-width:1.0;" width="10" x="1960" y="567.3164"/><rect fill="#FFFFFF" height="31.291" style="stroke:#181818;stroke-width:1.0;" width="10" x="1960" y="880.2266"/><rect fill="#FFFFFF" height="62.582" style="stroke:#181818;stroke-width:1.0;" width="10" x="2108.5" y="598.6074"/><rect fill="#FFFFFF" height="62.582" style="stroke:#181818;stroke-width:1.0;" width="10" x="2305.5" y="911.5176"/><rect fill="none" height="50.582" style="stroke:#000000;stroke-width:1.5;" width="1004" x="750" y="296.6973"/><rect fill="none" height="50.582" style="stroke:#000000;stroke-width:1.5;" width="1004" x="750" y="361.2793"/><line style="stroke:#181818;stroke-width:0.5;stroke-dasharray:5.0,5.0;" x1="22" x2="22" y1="123.2422" y2="1054.6816"/><line style="stroke:#181818;stroke-width:0.5;stroke-dasharray:5.0,5.0;" x1="558" x2="558" y1="123.2422" y2="1054.6816"/><line style="stroke:#181818;stroke-width:0.5;stroke-dasharray:5.0,5.0;" x1="871" x2="871" y1="123.2422" y2="1054.6816"/><line style="stroke:#181818;stroke-width:0.5;stroke-dasharray:5.0,5.0;" x1="1672" x2="1672" y1="123.2422" y2="1054.6816"/><line style="stroke:#181818;stroke-width:0.5;stroke-dasharray:5.0,5.0;" x1="1822" x2="1822" y1="123.2422" y2="1054.6816"/><line style="stroke:#181818;stroke-width:0.5;stroke-dasharray:5.0,5.0;" x1="1965" x2="1965" y1="123.2422" y2="1054.6816"/><line style="stroke:#181818;stroke-width:0.5;stroke-dasharray:5.0,5.0;" x1="2113" x2="2113" y1="123.2422" y2="1054.6816"/><line style="stroke:#181818;stroke-width:0.5;stroke-dasharray:5.0,5.0;" x1="2310" x2="2310" y1="123.2422" y2="1054.6816"/><text fill="#000000" font-family="sans-serif" font-size="14" lengthAdjust="spacing" textLength="29" x="5" y="119.7285">User</text><ellipse cx="22.5" cy="53.1211" fill="#E2E2F0" rx="8" ry="8" style="stroke:#181818;stroke-width:0.5;"/><path d="M22.5,61.1211 L22.5,88.1211 M9.5,69.1211 L35.5,69.1211 M22.5,88.1211 L9.5,103.1211 M22.5,88.1211 L35.5,103.1211 " fill="none" style="stroke:#181818;stroke-width:0.5;"/><text fill="#000000" font-family="sans-serif" font-size="14" lengthAdjust="spacing" textLength="29" x="5" y="1068.7891">User</text><ellipse cx="22.5" cy="1080.8027" fill="#E2E2F0" rx="8" ry="8" style="stroke:#181818;stroke-width:0.5;"/><path d="M22.5,1088.8027 L22.5,1115.8027 M9.5,1096.8027 L35.5,1096.8027 M22.5,1115.8027 L9.5,1130.8027 M22.5,1115.8027 L35.5,1130.8027 " fill="none" style="stroke:#181818;stroke-width:0.5;"/><rect fill="#E2E2F0" height="51.2422" rx="2.5" ry="2.5" style="stroke:#181818;stroke-width:0.5;" width="219" x="449" y="71"/><text fill="#000000" font-family="sans-serif" font-size="14" font-style="italic" lengthAdjust="spacing" textLength="30" x="543.5" y="93.1074">&#171;UI&#187;</text><text fill="#000000" font-family="sans-serif" font-size="14" lengthAdjust="spacing" textLength="205" x="456" y="111.7285">ListAllApplicationsOfCandidateUI</text><rect fill="#E2E2F0" height="51.2422" rx="2.5" ry="2.5" style="stroke:#181818;stroke-width:0.5;" width="219" x="449" y="1053.6816"/><text fill="#000000" font-family="sans-serif" font-size="14" font-style="italic" lengthAdjust="spacing" textLength="30" x="543.5" y="1075.7891">&#171;UI&#187;</text><text fill="#000000" font-family="sans-serif" font-size="14" lengthAdjust="spacing" textLength="205" x="456" y="1094.4102">ListAllApplicationsOfCandidateUI</text><rect fill="#E2E2F0" height="51.2422" rx="2.5" ry="2.5" style="stroke:#181818;stroke-width:0.5;" width="223" x="760" y="71"/><text fill="#000000" font-family="sans-serif" font-size="14" font-style="italic" lengthAdjust="spacing" textLength="78" x="832.5" y="93.1074">&#171;Controller&#187;</text><text fill="#000000" font-family="sans-serif" font-size="14" lengthAdjust="spacing" textLength="209" x="767" y="111.7285">ListAllDataOfCandidateController</text><rect fill="#E2E2F0" height="51.2422" rx="2.5" ry="2.5" style="stroke:#181818;stroke-width:0.5;" width="223" x="760" y="1053.6816"/><text fill="#000000" font-family="sans-serif" font-size="14" font-style="italic" lengthAdjust="spacing" textLength="78" x="832.5" y="1075.7891">&#171;Controller&#187;</text><text fill="#000000" font-family="sans-serif" font-size="14" lengthAdjust="spacing" textLength="209" x="767" y="1094.4102">ListAllDataOfCandidateController</text><rect fill="#E2E2F0" height="51.2422" rx="2.5" ry="2.5" style="stroke:#181818;stroke-width:0.5;" width="143" x="1601" y="71"/><text fill="#000000" font-family="sans-serif" font-size="14" font-style="italic" lengthAdjust="spacing" textLength="62" x="1641.5" y="93.1074">&#171;Service&#187;</text><text fill="#000000" font-family="sans-serif" font-size="14" lengthAdjust="spacing" textLength="129" x="1608" y="111.7285">AuthorizationService</text><rect fill="#E2E2F0" height="51.2422" rx="2.5" ry="2.5" style="stroke:#181818;stroke-width:0.5;" width="143" x="1601" y="1053.6816"/><text fill="#000000" font-family="sans-serif" font-size="14" font-style="italic" lengthAdjust="spacing" textLength="62" x="1641.5" y="1075.7891">&#171;Service&#187;</text><text fill="#000000" font-family="sans-serif" font-size="14" lengthAdjust="spacing" textLength="129" x="1608" y="1094.4102">AuthorizationService</text><rect fill="#E2E2F0" height="51.2422" rx="2.5" ry="2.5" style="stroke:#181818;stroke-width:0.5;" width="136" x="1754" y="71"/><text fill="#000000" font-family="sans-serif" font-size="14" font-style="italic" lengthAdjust="spacing" textLength="62" x="1791" y="93.1074">&#171;Service&#187;</text><text fill="#000000" font-family="sans-serif" font-size="14" lengthAdjust="spacing" textLength="122" x="1761" y="111.7285">PersistenceContext</text><rect fill="#E2E2F0" height="51.2422" rx="2.5" ry="2.5" style="stroke:#181818;stroke-width:0.5;" width="136" x="1754" y="1053.6816"/><text fill="#000000" font-family="sans-serif" font-size="14" font-style="italic" lengthAdjust="spacing" textLength="62" x="1791" y="1075.7891">&#171;Service&#187;</text><text fill="#000000" font-family="sans-serif" font-size="14" lengthAdjust="spacing" textLength="122" x="1761" y="1094.4102">PersistenceContext</text><rect fill="#E2E2F0" height="51.2422" rx="2.5" ry="2.5" style="stroke:#181818;stroke-width:0.5;" width="130" x="1900" y="71"/><text fill="#000000" font-family="sans-serif" font-size="14" font-style="italic" lengthAdjust="spacing" textLength="64" x="1933" y="93.1074">&#171;Factory&#187;</text><text fill="#000000" font-family="sans-serif" font-size="14" lengthAdjust="spacing" textLength="116" x="1907" y="111.7285">RepositoryFactory</text><rect fill="#E2E2F0" height="51.2422" rx="2.5" ry="2.5" style="stroke:#181818;stroke-width:0.5;" width="130" x="1900" y="1053.6816"/><text fill="#000000" font-family="sans-serif" font-size="14" font-style="italic" lengthAdjust="spacing" textLength="64" x="1933" y="1075.7891">&#171;Factory&#187;</text><text fill="#000000" font-family="sans-serif" font-size="14" lengthAdjust="spacing" textLength="116" x="1907" y="1094.4102">RepositoryFactory</text><rect fill="#E2E2F0" height="51.2422" rx="2.5" ry="2.5" style="stroke:#181818;stroke-width:0.5;" width="147" x="2040" y="71"/><text fill="#000000" font-family="sans-serif" font-size="14" font-style="italic" lengthAdjust="spacing" textLength="84" x="2071.5" y="93.1074">&#171;Repository&#187;</text><text fill="#000000" font-family="sans-serif" font-size="14" lengthAdjust="spacing" textLength="133" x="2047" y="111.7285">CandidateRepository</text><rect fill="#E2E2F0" height="51.2422" rx="2.5" ry="2.5" style="stroke:#181818;stroke-width:0.5;" width="147" x="2040" y="1053.6816"/><text fill="#000000" font-family="sans-serif" font-size="14" font-style="italic" lengthAdjust="spacing" textLength="84" x="2071.5" y="1075.7891">&#171;Repository&#187;</text><text fill="#000000" font-family="sans-serif" font-size="14" lengthAdjust="spacing" textLength="133" x="2047" y="1094.4102">CandidateRepository</text><rect fill="#E2E2F0" height="51.2422" rx="2.5" ry="2.5" style="stroke:#181818;stroke-width:0.5;" width="227" x="2197" y="71"/><text fill="#000000" font-family="sans-serif" font-size="14" font-style="italic" lengthAdjust="spacing" textLength="84" x="2268.5" y="93.1074">&#171;Repository&#187;</text><text fill="#000000" font-family="sans-serif" font-size="14" lengthAdjust="spacing" textLength="213" x="2204" y="111.7285">JobOpeningApplicationRepository</text><rect fill="#E2E2F0" height="51.2422" rx="2.5" ry="2.5" style="stroke:#181818;stroke-width:0.5;" width="227" x="2197" y="1053.6816"/><text fill="#000000" font-family="sans-serif" font-size="14" font-style="italic" lengthAdjust="spacing" textLength="84" x="2268.5" y="1075.7891">&#171;Repository&#187;</text><text fill="#000000" font-family="sans-serif" font-size="14" lengthAdjust="spacing" textLength="213" x="2204" y="1094.4102">JobOpeningApplicationRepository</text><rect fill="#FFFFFF" height="912.4395" style="stroke:#181818;stroke-width:1.0;" width="10" x="17.5" y="133.2422"/><rect fill="#FFFFFF" height="567.2383" style="stroke:#181818;stroke-width:1.0;" width="10" x="553.5" y="156.5332"/><rect fill="#FFFFFF" height="281.6191" style="stroke:#181818;stroke-width:1.0;" width="10" x="553.5" y="755.0625"/><rect fill="#FFFFFF" height="254.3281" style="stroke:#181818;stroke-width:1.0;" width="10" x="866.5" y="187.8242"/><rect fill="#FFFFFF" height="219.0371" style="stroke:#181818;stroke-width:1.0;" width="10" x="866.5" y="473.4434"/><rect fill="#FFFFFF" height="219.0371" style="stroke:#181818;stroke-width:1.0;" width="10" x="866.5" y="786.3535"/><rect fill="#FFFFFF" height="168.4551" style="stroke:#181818;stroke-width:1.0;" width="10" x="1667.5" y="250.4063"/><rect fill="#FFFFFF" height="31.291" style="stroke:#181818;stroke-width:1.0;" width="10" x="1817" y="504.7344"/><rect fill="#FFFFFF" height="31.291" style="stroke:#181818;stroke-width:1.0;" width="10" x="1817" y="817.6445"/><rect fill="#FFFFFF" height="31.291" style="stroke:#181818;stroke-width:1.0;" width="10" x="1960" y="567.3164"/><rect fill="#FFFFFF" height="31.291" style="stroke:#181818;stroke-width:1.0;" width="10" x="1960" y="880.2266"/><rect fill="#FFFFFF" height="62.582" style="stroke:#181818;stroke-width:1.0;" width="10" x="2108.5" y="598.6074"/><rect fill="#FFFFFF" height="62.582" style="stroke:#181818;stroke-width:1.0;" width="10" x="2305.5" y="911.5176"/><polygon fill="#181818" points="541.5,152.5332,551.5,156.5332,541.5,160.5332,545.5,156.5332" style="stroke:#181818;stroke-width:1.0;"/><line style="stroke:#181818;stroke-width:1.0;" x1="27.5" x2="547.5" y1="156.5332" y2="156.5332"/><text fill="#000000" font-family="sans-serif" font-size="13" lengthAdjust="spacing" textLength="204" x="34.5" y="151.2705">Request to list all data of candidate</text><polygon fill="#181818" points="854.5,183.8242,864.5,187.8242,854.5,191.8242,858.5,187.8242" style="stroke:#181818;stroke-width:1.0;"/><line style="stroke:#181818;stroke-width:1.0;" x1="563.5" x2="860.5" y1="187.8242" y2="187.8242"/><text fill="#000000" font-family="sans-serif" font-size="13" lengthAdjust="spacing" textLength="224" x="570.5" y="182.5615">new ListAllDataOfCandidateController()</text><polygon fill="#181818" points="1660.5,215.1152,1670.5,219.1152,1660.5,223.1152,1664.5,219.1152" style="stroke:#181818;stroke-width:1.0;"/><line style="stroke:#181818;stroke-width:1.0;" x1="876.5" x2="1666.5" y1="219.1152" y2="219.1152"/><text fill="#000000" font-family="sans-serif" font-size="13" lengthAdjust="spacing" textLength="124" x="883.5" y="213.8525">authorizationService()</text><polygon fill="#181818" points="887.5,246.4063,877.5,250.4063,887.5,254.4063,883.5,250.4063" style="stroke:#181818;stroke-width:1.0;"/><line style="stroke:#181818;stroke-width:1.0;stroke-dasharray:2.0,2.0;" x1="881.5" x2="1666.5" y1="250.4063" y2="250.4063"/><text fill="#000000" font-family="sans-serif" font-size="13" lengthAdjust="spacing" textLength="208" x="893.5" y="245.1436">return AuthorizationService instance</text><polygon fill="#181818" points="1655.5,277.6973,1665.5,281.6973,1655.5,285.6973,1659.5,281.6973" style="stroke:#181818;stroke-width:1.0;"/><line style="stroke:#181818;stroke-width:1.0;" x1="876.5" x2="1661.5" y1="281.6973" y2="281.6973"/><text fill="#000000" font-family="sans-serif" font-size="13" lengthAdjust="spacing" textLength="767" x="883.5" y="276.4346">instance.ensureAuthenticatedUserHasAnyOf(BaseRoles.CUSTOMER_MANAGER, BaseRoles.POWER_USER, BaseRoles.ADMIN);</text><path d="M750,296.6973 L811,296.6973 L811,305.9883 L801,315.9883 L750,315.9883 L750,296.6973 " fill="#EEEEEE" style="stroke:#000000;stroke-width:1.5;"/><rect fill="none" height="50.582" style="stroke:#000000;stroke-width:1.5;" width="1004" x="750" y="296.6973"/><text fill="#000000" font-family="sans-serif" font-size="13" font-weight="bold" lengthAdjust="spacing" textLength="16" x="765" y="311.7256">alt</text><text fill="#000000" font-family="sans-serif" font-size="11" font-weight="bold" lengthAdjust="spacing" textLength="130" x="826" y="310.5674">[User is not authorized]</text><polygon fill="#181818" points="887.5,335.2793,877.5,339.2793,887.5,343.2793,883.5,339.2793" style="stroke:#181818;stroke-width:1.0;"/><line style="stroke:#181818;stroke-width:1.0;stroke-dasharray:2.0,2.0;" x1="881.5" x2="1666.5" y1="339.2793" y2="339.2793"/><text fill="#000000" font-family="sans-serif" font-size="13" lengthAdjust="spacing" textLength="169" x="893.5" y="334.0166">throw AuthorizationException</text><path d="M750,361.2793 L811,361.2793 L811,370.5703 L801,380.5703 L750,380.5703 L750,361.2793 " fill="#EEEEEE" style="stroke:#000000;stroke-width:1.5;"/><rect fill="none" height="50.582" style="stroke:#000000;stroke-width:1.5;" width="1004" x="750" y="361.2793"/><text fill="#000000" font-family="sans-serif" font-size="13" font-weight="bold" lengthAdjust="spacing" textLength="16" x="765" y="376.3076">alt</text><text fill="#000000" font-family="sans-serif" font-size="11" font-weight="bold" lengthAdjust="spacing" textLength="109" x="826" y="375.1494">[User is authorized]</text><polygon fill="#181818" points="887.5,399.8613,877.5,403.8613,887.5,407.8613,883.5,403.8613" style="stroke:#181818;stroke-width:1.0;"/><line style="stroke:#181818;stroke-width:1.0;stroke-dasharray:2.0,2.0;" x1="881.5" x2="1666.5" y1="403.8613" y2="403.8613"/><text fill="#000000" font-family="sans-serif" font-size="13" lengthAdjust="spacing" textLength="59" x="893.5" y="398.5986">return true</text><polygon fill="#181818" points="574.5,438.1523,564.5,442.1523,574.5,446.1523,570.5,442.1523" style="stroke:#181818;stroke-width:1.0;"/><line style="stroke:#181818;stroke-width:1.0;stroke-dasharray:2.0,2.0;" x1="568.5" x2="870.5" y1="442.1523" y2="442.1523"/><text fill="#000000" font-family="sans-serif" font-size="13" lengthAdjust="spacing" textLength="279" x="580.5" y="436.8896">return ListAllDataOfCandidateController instance</text><polygon fill="#181818" points="854.5,469.4434,864.5,473.4434,854.5,477.4434,858.5,473.4434" style="stroke:#181818;stroke-width:1.0;"/><line style="stroke:#181818;stroke-width:1.0;" x1="563.5" x2="860.5" y1="473.4434" y2="473.4434"/><text fill="#000000" font-family="sans-serif" font-size="13" lengthAdjust="spacing" textLength="86" x="570.5" y="468.1807">allCandidates()</text><polygon fill="#181818" points="1805,500.7344,1815,504.7344,1805,508.7344,1809,504.7344" style="stroke:#181818;stroke-width:1.0;"/><line style="stroke:#181818;stroke-width:1.0;" x1="876.5" x2="1811" y1="504.7344" y2="504.7344"/><text fill="#000000" font-family="sans-serif" font-size="13" lengthAdjust="spacing" textLength="75" x="883.5" y="499.4717">repositories()</text><polygon fill="#181818" points="887.5,532.0254,877.5,536.0254,887.5,540.0254,883.5,536.0254" style="stroke:#181818;stroke-width:1.0;"/><line style="stroke:#181818;stroke-width:1.0;stroke-dasharray:2.0,2.0;" x1="881.5" x2="1821" y1="536.0254" y2="536.0254"/><text fill="#000000" font-family="sans-serif" font-size="13" lengthAdjust="spacing" textLength="104" x="893.5" y="530.7627">return repositories</text><polygon fill="#181818" points="1948,563.3164,1958,567.3164,1948,571.3164,1952,567.3164" style="stroke:#181818;stroke-width:1.0;"/><line style="stroke:#181818;stroke-width:1.0;" x1="876.5" x2="1954" y1="567.3164" y2="567.3164"/><text fill="#000000" font-family="sans-serif" font-size="13" lengthAdjust="spacing" textLength="126" x="883.5" y="562.0537">candidateRepository()</text><polygon fill="#181818" points="887.5,594.6074,877.5,598.6074,887.5,602.6074,883.5,598.6074" style="stroke:#181818;stroke-width:1.0;"/><line style="stroke:#181818;stroke-width:1.0;stroke-dasharray:2.0,2.0;" x1="881.5" x2="1964" y1="598.6074" y2="598.6074"/><text fill="#000000" font-family="sans-serif" font-size="13" lengthAdjust="spacing" textLength="155" x="893.5" y="593.3447">return candidateRepository</text><polygon fill="#181818" points="2096.5,625.8984,2106.5,629.8984,2096.5,633.8984,2100.5,629.8984" style="stroke:#181818;stroke-width:1.0;"/><line style="stroke:#181818;stroke-width:1.0;" x1="876.5" x2="2102.5" y1="629.8984" y2="629.8984"/><text fill="#000000" font-family="sans-serif" font-size="13" lengthAdjust="spacing" textLength="108" x="883.5" y="624.6357">findAllCandidates()</text><polygon fill="#181818" points="887.5,657.1895,877.5,661.1895,887.5,665.1895,883.5,661.1895" style="stroke:#181818;stroke-width:1.0;"/><line style="stroke:#181818;stroke-width:1.0;stroke-dasharray:2.0,2.0;" x1="881.5" x2="2112.5" y1="661.1895" y2="661.1895"/><text fill="#000000" font-family="sans-serif" font-size="13" lengthAdjust="spacing" textLength="153" x="893.5" y="655.9268">return Iterable&lt;Candidate&gt;</text><polygon fill="#181818" points="574.5,688.4805,564.5,692.4805,574.5,696.4805,570.5,692.4805" style="stroke:#181818;stroke-width:1.0;"/><line style="stroke:#181818;stroke-width:1.0;stroke-dasharray:2.0,2.0;" x1="568.5" x2="870.5" y1="692.4805" y2="692.4805"/><text fill="#000000" font-family="sans-serif" font-size="13" lengthAdjust="spacing" textLength="153" x="580.5" y="687.2178">return Iterable&lt;Candidate&gt;</text><polygon fill="#181818" points="38.5,719.7715,28.5,723.7715,38.5,727.7715,34.5,723.7715" style="stroke:#181818;stroke-width:1.0;"/><line style="stroke:#181818;stroke-width:1.0;stroke-dasharray:2.0,2.0;" x1="32.5" x2="557.5" y1="723.7715" y2="723.7715"/><text fill="#000000" font-family="sans-serif" font-size="13" lengthAdjust="spacing" textLength="349" x="44.5" y="718.5088">Display Candidates Id's (emails) list and asks to choose one</text><polygon fill="#181818" points="541.5,751.0625,551.5,755.0625,541.5,759.0625,545.5,755.0625" style="stroke:#181818;stroke-width:1.0;"/><line style="stroke:#181818;stroke-width:1.0;" x1="27.5" x2="547.5" y1="755.0625" y2="755.0625"/><text fill="#000000" font-family="sans-serif" font-size="13" lengthAdjust="spacing" textLength="144" x="34.5" y="749.7998">Inputs index of candidate</text><polygon fill="#181818" points="854.5,782.3535,864.5,786.3535,854.5,790.3535,858.5,786.3535" style="stroke:#181818;stroke-width:1.0;"/><line style="stroke:#181818;stroke-width:1.0;" x1="563.5" x2="860.5" y1="786.3535" y2="786.3535"/><text fill="#000000" font-family="sans-serif" font-size="13" lengthAdjust="spacing" textLength="262" x="570.5" y="781.0908">allApplicationsById (candidates.get ( index ) )</text><polygon fill="#181818" points="1805,813.6445,1815,817.6445,1805,821.6445,1809,817.6445" style="stroke:#181818;stroke-width:1.0;"/><line style="stroke:#181818;stroke-width:1.0;" x1="876.5" x2="1811" y1="817.6445" y2="817.6445"/><text fill="#000000" font-family="sans-serif" font-size="13" lengthAdjust="spacing" textLength="75" x="883.5" y="812.3818">repositories()</text><polygon fill="#181818" points="887.5,844.9355,877.5,848.9355,887.5,852.9355,883.5,848.9355" style="stroke:#181818;stroke-width:1.0;"/><line style="stroke:#181818;stroke-width:1.0;stroke-dasharray:2.0,2.0;" x1="881.5" x2="1821" y1="848.9355" y2="848.9355"/><text fill="#000000" font-family="sans-serif" font-size="13" lengthAdjust="spacing" textLength="104" x="893.5" y="843.6729">return repositories</text><polygon fill="#181818" points="1948,876.2266,1958,880.2266,1948,884.2266,1952,880.2266" style="stroke:#181818;stroke-width:1.0;"/><line style="stroke:#181818;stroke-width:1.0;" x1="876.5" x2="1954" y1="880.2266" y2="880.2266"/><text fill="#000000" font-family="sans-serif" font-size="13" lengthAdjust="spacing" textLength="199" x="883.5" y="874.9639">jobOpeningApplicationRepository()</text><polygon fill="#181818" points="887.5,907.5176,877.5,911.5176,887.5,915.5176,883.5,911.5176" style="stroke:#181818;stroke-width:1.0;"/><line style="stroke:#181818;stroke-width:1.0;stroke-dasharray:2.0,2.0;" x1="881.5" x2="1964" y1="911.5176" y2="911.5176"/><text fill="#000000" font-family="sans-serif" font-size="13" lengthAdjust="spacing" textLength="228" x="893.5" y="906.2549">return jobOpeningApplicationRepository</text><polygon fill="#181818" points="2293.5,938.8086,2303.5,942.8086,2293.5,946.8086,2297.5,942.8086" style="stroke:#181818;stroke-width:1.0;"/><line style="stroke:#181818;stroke-width:1.0;" x1="876.5" x2="2299.5" y1="942.8086" y2="942.8086"/><text fill="#000000" font-family="sans-serif" font-size="13" lengthAdjust="spacing" textLength="374" x="883.5" y="937.5459">findAllApplicationsByCandidateId(candidates.get ( index ).getId())</text><polygon fill="#181818" points="887.5,970.0996,877.5,974.0996,887.5,978.0996,883.5,974.0996" style="stroke:#181818;stroke-width:1.0;"/><line style="stroke:#181818;stroke-width:1.0;stroke-dasharray:2.0,2.0;" x1="881.5" x2="2309.5" y1="974.0996" y2="974.0996"/><text fill="#000000" font-family="sans-serif" font-size="13" lengthAdjust="spacing" textLength="227" x="893.5" y="968.8369">return Iterable&lt;JobOpeningApplication&gt;</text><polygon fill="#181818" points="574.5,1001.3906,564.5,1005.3906,574.5,1009.3906,570.5,1005.3906" style="stroke:#181818;stroke-width:1.0;"/><line style="stroke:#181818;stroke-width:1.0;stroke-dasharray:2.0,2.0;" x1="568.5" x2="870.5" y1="1005.3906" y2="1005.3906"/><text fill="#000000" font-family="sans-serif" font-size="13" lengthAdjust="spacing" textLength="227" x="580.5" y="1000.1279">return Iterable&lt;JobOpeningApplication&gt;</text><polygon fill="#181818" points="38.5,1032.6816,28.5,1036.6816,38.5,1040.6816,34.5,1036.6816" style="stroke:#181818;stroke-width:1.0;"/><line style="stroke:#181818;stroke-width:1.0;stroke-dasharray:2.0,2.0;" x1="32.5" x2="557.5" y1="1036.6816" y2="1036.6816"/><text fill="#000000" font-family="sans-serif" font-size="13" lengthAdjust="spacing" textLength="502" x="44.5" y="1031.4189">Display Job Opening Applications of candidate and returns to Customer Manager Menu</text><!--SRC=[jPHFSzCm4CNl_XGxlP3Ca4ovS32TpAXk0-wGnkFWuSYezgOLk9AHvBRXqxEoZV_L8Lp89RQitrjftvEii3b2ieDtv-VlOG6VXR70yXokkEMmtKF0PIOoRj7pU6gLXiIW1cuWyGgkhKX5mQM5CmSInueY5octGacptRTm4fvLJ0WN5qcuMasohcIF2PIqMkKvweeD2Es6nXAij0zAYrzLvHtg9v5YXJ72clSn4w4sL1bbMjN25riHqN4Yna8PGLquhAjc72eWNXFH38o9TZSTMkyc9gOR6sCtwcvRe1JoljVGaSGDUwNXB19FL8tSIM2neeRx4EFF4ibLgo1txd9oDtFkgZsahRiT6Nfa4x613nAVuPGvitd71bxWIERp2Jje8eD5BQpHbbh2b6iWfB6SFEbaMINBm6-_BL6QKgFZKLhN7ynSC3znm-HXkvzTSeEnoj4iWsJtPRkvZhzjs2txU1s_XUvRjFrA7vBTS9HTRSBR-GUFvxPEkp0W5JMkMIrctKRiWrRFmtrSlwHOk0SFPJOGcH9eEc5rYTNy38VRRaniffqoesjUJoVuOoWraCnlCJDXNUHADOaImncH5uqMtP_PBnZLMl7QxmBMvRIl6QyzEZr3rGcaBqv8j-YuhXJ4Fko5pDXeTtJAXjgXHStlShnefwq6dOfVj_mKKZNN8JvS2LFa_D3TcGR2x8s16JvoaPjvS_vaHiVtXt47CdrGoY0eEJ3C7S75ogqXb4Lf3RcQuSi_d5S-l80l3s46ivOnotkqC6lKvl3_tV_-zsliL19EuCTIGHTZlGHwQ7Cnx4lhK9WTxOzxey_pkUTksYCvchoe1m5fLdCaLAVvgO0H1Gq6_OqD8b85hQvNPIqeZLMFT4TikEJtxXzbEOfTy_iD]--></g></svg>