<?xml version="1.0" encoding="us-ascii" standalone="no"?><svg xmlns="http://www.w3.org/2000/svg" xmlns:xlink="http://www.w3.org/1999/xlink" contentStyleType="text/css" height="632.8px" preserveAspectRatio="none" style="width:628px;height:632px;background:#FFFFFF;" version="1.1" viewBox="0 0 628 632" width="628.8px" zoomAndPan="magnify"><defs/><g><!--class UpdateJobOpeningUI--><g id="elem_UpdateJobOpeningUI"><rect codeLine="1" fill="#F1F1F1" height="68.1938" id="UpdateJobOpeningUI" rx="2" ry="2" style="stroke:#181818;stroke-width:0.4000000000000001;" width="220.8" x="275.2" y="5.6"/><ellipse cx="329" cy="18.4" fill="#ADD1B2" rx="8.8" ry="8.8" style="stroke:#181818;stroke-width:0.8000000000000002;"/><path d="M331.2125,15.1 Q331.3375,14.925 331.4875,14.8375 Q331.6375,14.75 331.8125,14.75 Q332.1125,14.75 332.3,14.9625 Q332.4875,15.1625 332.4875,15.65 L332.4875,16.8125 Q332.4875,17.3 332.3,17.5125 Q332.1125,17.725 331.8125,17.725 Q331.5375,17.725 331.375,17.5625 Q331.2125,17.4125 331.125,17 Q331.0875,16.7125 330.9375,16.5625 Q330.675,16.2625 330.1875,16.0875 Q329.7,15.9125 329.2,15.9125 Q328.5875,15.9125 328.075,16.175 Q327.575,16.4375 327.175,17.0375 Q326.7875,17.6375 326.7875,18.4625 L326.7875,19.3375 Q326.7875,20.325 327.5,20.9875 Q328.2125,21.6375 329.4875,21.6375 Q330.2375,21.6375 330.7625,21.4375 Q331.075,21.3125 331.4125,20.9625 Q331.625,20.75 331.7375,20.6875 Q331.8625,20.625 332.025,20.625 Q332.2875,20.625 332.4875,20.8375 Q332.7,21.0375 332.7,21.3125 Q332.7,21.5875 332.425,21.9125 Q332.025,22.375 331.3875,22.6375 Q330.525,23 329.4875,23 Q328.275,23 327.3125,22.5 Q326.525,22.1 325.975,21.25 Q325.425,20.3875 325.425,19.3625 L325.425,18.4375 Q325.425,17.375 325.9125,16.4625 Q326.4125,15.5375 327.2875,15.05 Q328.1625,14.55 329.15,14.55 Q329.7375,14.55 330.25,14.6875 Q330.775,14.8125 331.2125,15.1 Z " fill="#000000"/><text fill="#000000" font-family="sans-serif" font-size="11.2" lengthAdjust="spacing" textLength="106.4" x="345.4" y="23.0375">UpdateJobOpeningUI</text><line style="stroke:#181818;stroke-width:0.4000000000000001;" x1="276" x2="495.2" y1="31.2" y2="31.2"/><rect fill="none" height="4.8" style="stroke:#C82930;stroke-width:0.8000000000000002;" width="4.8" x="281.6" y="40.6484"/><text fill="#000000" font-family="sans-serif" font-size="11.2" lengthAdjust="spacing" textLength="200" x="291.2" y="46.4859">controller: UpdateJobOpeningController</text><line style="stroke:#181818;stroke-width:0.4000000000000001;" x1="276" x2="495.2" y1="52.4969" y2="52.4969"/><ellipse cx="284" cy="64.3453" fill="#84BE84" rx="2.4" ry="2.4" style="stroke:#038048;stroke-width:0.8000000000000002;"/><text fill="#000000" font-family="sans-serif" font-size="11.2" lengthAdjust="spacing" textLength="95.2" x="291.2" y="67.7828">doShow(): boolean</text></g><!--class UpdateJobOpeningController--><g id="elem_UpdateJobOpeningController"><rect codeLine="6" fill="#F1F1F1" height="112.8844" id="UpdateJobOpeningController" rx="2" ry="2" style="stroke:#181818;stroke-width:0.4000000000000001;" width="476" x="147.6" y="121.6"/><ellipse cx="309" cy="134.4" fill="#ADD1B2" rx="8.8" ry="8.8" style="stroke:#181818;stroke-width:0.8000000000000002;"/><path d="M311.2125,131.1 Q311.3375,130.925 311.4875,130.8375 Q311.6375,130.75 311.8125,130.75 Q312.1125,130.75 312.3,130.9625 Q312.4875,131.1625 312.4875,131.65 L312.4875,132.8125 Q312.4875,133.3 312.3,133.5125 Q312.1125,133.725 311.8125,133.725 Q311.5375,133.725 311.375,133.5625 Q311.2125,133.4125 311.125,133 Q311.0875,132.7125 310.9375,132.5625 Q310.675,132.2625 310.1875,132.0875 Q309.7,131.9125 309.2,131.9125 Q308.5875,131.9125 308.075,132.175 Q307.575,132.4375 307.175,133.0375 Q306.7875,133.6375 306.7875,134.4625 L306.7875,135.3375 Q306.7875,136.325 307.5,136.9875 Q308.2125,137.6375 309.4875,137.6375 Q310.2375,137.6375 310.7625,137.4375 Q311.075,137.3125 311.4125,136.9625 Q311.625,136.75 311.7375,136.6875 Q311.8625,136.625 312.025,136.625 Q312.2875,136.625 312.4875,136.8375 Q312.7,137.0375 312.7,137.3125 Q312.7,137.5875 312.425,137.9125 Q312.025,138.375 311.3875,138.6375 Q310.525,139 309.4875,139 Q308.275,139 307.3125,138.5 Q306.525,138.1 305.975,137.25 Q305.425,136.3875 305.425,135.3625 L305.425,134.4375 Q305.425,133.375 305.9125,132.4625 Q306.4125,131.5375 307.2875,131.05 Q308.1625,130.55 309.15,130.55 Q309.7375,130.55 310.25,130.6875 Q310.775,130.8125 311.2125,131.1 Z " fill="#000000"/><text fill="#000000" font-family="sans-serif" font-size="11.2" lengthAdjust="spacing" textLength="146.4" x="325.4" y="139.0375">UpdateJobOpeningController</text><line style="stroke:#181818;stroke-width:0.4000000000000001;" x1="148.4" x2="622.8" y1="147.2" y2="147.2"/><rect fill="none" height="4.8" style="stroke:#C82930;stroke-width:0.8000000000000002;" width="4.8" x="154" y="156.6484"/><text fill="#000000" font-family="sans-serif" font-size="11.2" lengthAdjust="spacing" textLength="140.8" x="163.6" y="162.4859">service: JobOpeningService</text><rect fill="none" height="4.8" style="stroke:#C82930;stroke-width:0.8000000000000002;" width="4.8" x="154" y="171.5453"/><text fill="#000000" font-family="sans-serif" font-size="11.2" lengthAdjust="spacing" textLength="168" x="163.6" y="177.3828">autzService: AuthorizationService</text><line style="stroke:#181818;stroke-width:0.4000000000000001;" x1="148.4" x2="622.8" y1="183.3938" y2="183.3938"/><ellipse cx="156.4" cy="195.2422" fill="#84BE84" rx="2.4" ry="2.4" style="stroke:#038048;stroke-width:0.8000000000000002;"/><text fill="#000000" font-family="sans-serif" font-size="11.2" lengthAdjust="spacing" textLength="455.2" x="163.6" y="198.6797">updatePhase(jobOpening: JobOpening, choice: int, interviewPhase: boolean): JobOpening</text><ellipse cx="156.4" cy="210.1391" fill="#84BE84" rx="2.4" ry="2.4" style="stroke:#038048;stroke-width:0.8000000000000002;"/><text fill="#000000" font-family="sans-serif" font-size="11.2" lengthAdjust="spacing" textLength="361.6" x="163.6" y="213.5766">checkForInterviewPhase(choice: int, jobOpening: JobOpening): boolean</text><ellipse cx="156.4" cy="225.0359" fill="#84BE84" rx="2.4" ry="2.4" style="stroke:#038048;stroke-width:0.8000000000000002;"/><text fill="#000000" font-family="sans-serif" font-size="11.2" lengthAdjust="spacing" textLength="241.6" x="163.6" y="228.4734">showJobPhases(jobOpening: JobOpening): void</text></g><!--class JobOpeningService--><g id="elem_JobOpeningService"><rect codeLine="14" fill="#F1F1F1" height="68.1938" id="JobOpeningService" rx="2" ry="2" style="stroke:#181818;stroke-width:0.4000000000000001;" width="478.4" x="5.6" y="282.4"/><ellipse cx="192.2" cy="295.2" fill="#ADD1B2" rx="8.8" ry="8.8" style="stroke:#181818;stroke-width:0.8000000000000002;"/><path d="M194.4125,291.9 Q194.5375,291.725 194.6875,291.6375 Q194.8375,291.55 195.0125,291.55 Q195.3125,291.55 195.5,291.7625 Q195.6875,291.9625 195.6875,292.45 L195.6875,293.6125 Q195.6875,294.1 195.5,294.3125 Q195.3125,294.525 195.0125,294.525 Q194.7375,294.525 194.575,294.3625 Q194.4125,294.2125 194.325,293.8 Q194.2875,293.5125 194.1375,293.3625 Q193.875,293.0625 193.3875,292.8875 Q192.9,292.7125 192.4,292.7125 Q191.7875,292.7125 191.275,292.975 Q190.775,293.2375 190.375,293.8375 Q189.9875,294.4375 189.9875,295.2625 L189.9875,296.1375 Q189.9875,297.125 190.7,297.7875 Q191.4125,298.4375 192.6875,298.4375 Q193.4375,298.4375 193.9625,298.2375 Q194.275,298.1125 194.6125,297.7625 Q194.825,297.55 194.9375,297.4875 Q195.0625,297.425 195.225,297.425 Q195.4875,297.425 195.6875,297.6375 Q195.9,297.8375 195.9,298.1125 Q195.9,298.3875 195.625,298.7125 Q195.225,299.175 194.5875,299.4375 Q193.725,299.8 192.6875,299.8 Q191.475,299.8 190.5125,299.3 Q189.725,298.9 189.175,298.05 Q188.625,297.1875 188.625,296.1625 L188.625,295.2375 Q188.625,294.175 189.1125,293.2625 Q189.6125,292.3375 190.4875,291.85 Q191.3625,291.35 192.35,291.35 Q192.9375,291.35 193.45,291.4875 Q193.975,291.6125 194.4125,291.9 Z " fill="#000000"/><text fill="#000000" font-family="sans-serif" font-size="11.2" lengthAdjust="spacing" textLength="98.4" x="208.6" y="299.8375">JobOpeningService</text><line style="stroke:#181818;stroke-width:0.4000000000000001;" x1="6.4" x2="483.2" y1="308" y2="308"/><line style="stroke:#181818;stroke-width:0.4000000000000001;" x1="6.4" x2="483.2" y1="314.4" y2="314.4"/><ellipse cx="14.4" cy="326.2484" fill="#84BE84" rx="2.4" ry="2.4" style="stroke:#038048;stroke-width:0.8000000000000002;"/><text fill="#000000" font-family="sans-serif" font-size="11.2" lengthAdjust="spacing" textLength="440.8" x="21.6" y="329.6859">advanceToNextPhase(jobOpening: JobOpening, interviewPhase: boolean): JobOpening</text><ellipse cx="14.4" cy="341.1453" fill="#84BE84" rx="2.4" ry="2.4" style="stroke:#038048;stroke-width:0.8000000000000002;"/><text fill="#000000" font-family="sans-serif" font-size="11.2" lengthAdjust="spacing" textLength="457.6" x="21.6" y="344.5828">goBackToPreviousPhase(jobOpening: JobOpening, interviewPhase: boolean): JobOpening</text></g><!--class JobOpening--><g id="elem_JobOpening"><rect codeLine="19" fill="#F1F1F1" height="68.1938" id="JobOpening" rx="2" ry="2" style="stroke:#181818;stroke-width:0.4000000000000001;" width="196.8" x="287.2" y="398.4"/><ellipse cx="351.8" cy="411.2" fill="#ADD1B2" rx="8.8" ry="8.8" style="stroke:#181818;stroke-width:0.8000000000000002;"/><path d="M354.0125,407.9 Q354.1375,407.725 354.2875,407.6375 Q354.4375,407.55 354.6125,407.55 Q354.9125,407.55 355.1,407.7625 Q355.2875,407.9625 355.2875,408.45 L355.2875,409.6125 Q355.2875,410.1 355.1,410.3125 Q354.9125,410.525 354.6125,410.525 Q354.3375,410.525 354.175,410.3625 Q354.0125,410.2125 353.925,409.8 Q353.8875,409.5125 353.7375,409.3625 Q353.475,409.0625 352.9875,408.8875 Q352.5,408.7125 352,408.7125 Q351.3875,408.7125 350.875,408.975 Q350.375,409.2375 349.975,409.8375 Q349.5875,410.4375 349.5875,411.2625 L349.5875,412.1375 Q349.5875,413.125 350.3,413.7875 Q351.0125,414.4375 352.2875,414.4375 Q353.0375,414.4375 353.5625,414.2375 Q353.875,414.1125 354.2125,413.7625 Q354.425,413.55 354.5375,413.4875 Q354.6625,413.425 354.825,413.425 Q355.0875,413.425 355.2875,413.6375 Q355.5,413.8375 355.5,414.1125 Q355.5,414.3875 355.225,414.7125 Q354.825,415.175 354.1875,415.4375 Q353.325,415.8 352.2875,415.8 Q351.075,415.8 350.1125,415.3 Q349.325,414.9 348.775,414.05 Q348.225,413.1875 348.225,412.1625 L348.225,411.2375 Q348.225,410.175 348.7125,409.2625 Q349.2125,408.3375 350.0875,407.85 Q350.9625,407.35 351.95,407.35 Q352.5375,407.35 353.05,407.4875 Q353.575,407.6125 354.0125,407.9 Z " fill="#000000"/><text fill="#000000" font-family="sans-serif" font-size="11.2" lengthAdjust="spacing" textLength="60.8" x="368.2" y="415.8375">JobOpening</text><line style="stroke:#181818;stroke-width:0.4000000000000001;" x1="288" x2="483.2" y1="424" y2="424"/><rect fill="none" height="4.8" style="stroke:#C82930;stroke-width:0.8000000000000002;" width="4.8" x="293.6" y="433.4484"/><text fill="#000000" font-family="sans-serif" font-size="11.2" lengthAdjust="spacing" textLength="149.6" x="303.2" y="439.2859">currentJobPhase: PhaseType</text><line style="stroke:#181818;stroke-width:0.4000000000000001;" x1="288" x2="483.2" y1="445.2969" y2="445.2969"/><ellipse cx="296" cy="457.1453" fill="#84BE84" rx="2.4" ry="2.4" style="stroke:#038048;stroke-width:0.8000000000000002;"/><text fill="#000000" font-family="sans-serif" font-size="11.2" lengthAdjust="spacing" textLength="176" x="303.2" y="460.5828">getCurrentJobPhase(): PhaseType</text></g><!--class PhaseType--><g id="elem_PhaseType"><rect codeLine="24" fill="#F1F1F1" height="112.8844" id="PhaseType" rx="2" ry="2" style="stroke:#181818;stroke-width:0.4000000000000001;" width="84" x="343.6" y="514.4"/><ellipse cx="355.96" cy="527.2" fill="#EB937F" rx="8.8" ry="8.8" style="stroke:#181818;stroke-width:0.8000000000000002;"/><path d="M355.0475,527.8375 L355.0475,529.8375 L358.51,529.8375 L358.51,529.1 Q358.51,528.6125 358.6975,528.4 Q358.8975,528.1875 359.1975,528.1875 Q359.4975,528.1875 359.685,528.4 Q359.8725,528.6125 359.8725,529.1 L359.8725,531.2 L353.4725,531.2 Q352.9725,531.2 352.76,531.0125 Q352.56,530.825 352.56,530.5125 Q352.56,530.2125 352.7725,530.025 Q352.985,529.8375 353.4725,529.8375 L353.685,529.8375 L353.685,524.5125 L353.4725,524.5125 Q352.9725,524.5125 352.76,524.325 Q352.56,524.1375 352.56,523.825 Q352.56,523.525 352.76,523.3375 Q352.9725,523.15 353.4725,523.15 L359.5725,523.15 L359.5725,525.225 Q359.5725,525.7125 359.385,525.925 Q359.21,526.125 358.8975,526.125 Q358.5975,526.125 358.41,525.925 Q358.2225,525.7125 358.2225,525.225 L358.2225,524.5125 L355.0475,524.5125 L355.0475,526.475 L356.235,526.475 Q356.235,525.95 356.335,525.8 Q356.5475,525.475 356.9225,525.475 Q357.2225,525.475 357.41,525.6875 Q357.5975,525.8875 357.5975,526.375 L357.5975,527.95 Q357.5975,528.3875 357.4975,528.5375 Q357.285,528.85 356.9225,528.85 Q356.5475,528.85 356.335,528.525 Q356.235,528.375 356.235,527.8375 L355.0475,527.8375 Z " fill="#000000"/><text fill="#000000" font-family="sans-serif" font-size="11.2" lengthAdjust="spacing" textLength="57.6" x="367.24" y="531.8375">PhaseType</text><line style="stroke:#181818;stroke-width:0.4000000000000001;" x1="344.4" x2="426.8" y1="540" y2="540"/><text fill="#000000" font-family="sans-serif" font-size="11.2" lengthAdjust="spacing" textLength="74.4" x="348.4" y="555.2859">APPLICATION,</text><text fill="#000000" font-family="sans-serif" font-size="11.2" lengthAdjust="spacing" textLength="66.4" x="348.4" y="570.1828">SCREENING,</text><text fill="#000000" font-family="sans-serif" font-size="11.2" lengthAdjust="spacing" textLength="69.6" x="348.4" y="585.0797">INTERVIEWS,</text><text fill="#000000" font-family="sans-serif" font-size="11.2" lengthAdjust="spacing" textLength="55.2" x="348.4" y="599.9766">ANALYSIS,</text><text fill="#000000" font-family="sans-serif" font-size="11.2" lengthAdjust="spacing" textLength="43.2" x="348.4" y="614.8734">RESULT</text><line style="stroke:#181818;stroke-width:0.4000000000000001;" x1="344.4" x2="426.8" y1="620.8844" y2="620.8844"/></g><!--link UpdateJobOpeningUI to UpdateJobOpeningController--><g id="link_UpdateJobOpeningUI_UpdateJobOpeningController"><path codeLine="32" d="M385.6,73.864 C385.6,88.184 385.6,100.488 385.6,116.624 " fill="none" id="UpdateJobOpeningUI-to-UpdateJobOpeningController" style="stroke:#181818;stroke-width:0.8000000000000002;"/><polygon fill="#181818" points="385.6,121.424,388.8,114.224,385.6,117.424,382.4,114.224,385.6,121.424" style="stroke:#181818;stroke-width:0.8000000000000002;"/></g><!--link UpdateJobOpeningController to JobOpeningService--><g id="link_UpdateJobOpeningController_JobOpeningService"><path codeLine="33" d="M328.328,234.44 C311.584,250.712 297.2421,264.6465 282.4181,279.0545 " fill="none" id="UpdateJobOpeningController-to-JobOpeningService" style="stroke:#181818;stroke-width:0.8000000000000002;"/><polygon fill="#181818" points="278.976,282.4,286.3694,279.6765,281.8444,279.6121,281.9088,275.0871,278.976,282.4" style="stroke:#181818;stroke-width:0.8000000000000002;"/></g><!--link UpdateJobOpeningController to JobOpening--><g id="link_UpdateJobOpeningController_JobOpening"><path codeLine="34" d="M463.856,234.4 C477.896,248.352 490.536,264.504 498.4,282.4 C510.56,310.072 512.176,323.504 498.4,350.4 C488.392,369.944 475.1905,383.1296 457.2465,395.5136 " fill="none" id="UpdateJobOpeningController-to-JobOpening" style="stroke:#181818;stroke-width:0.8000000000000002;"/><polygon fill="#181818" points="453.296,398.24,461.0394,396.784,456.5881,395.968,457.4041,391.5167,453.296,398.24" style="stroke:#181818;stroke-width:0.8000000000000002;"/></g><!--link JobOpeningService to JobOpening--><g id="link_JobOpeningService_JobOpening"><path codeLine="35" d="M285.904,350.6 C304.408,365.632 322.4828,380.317 340.9628,395.333 " fill="none" id="JobOpeningService-to-JobOpening" style="stroke:#181818;stroke-width:0.8000000000000002;"/><polygon fill="#181818" points="344.688,398.36,341.1181,391.3361,341.5836,395.8375,337.0821,396.303,344.688,398.36" style="stroke:#181818;stroke-width:0.8000000000000002;"/></g><!--link JobOpening to PhaseType--><g id="link_JobOpening_PhaseType"><path codeLine="36" d="M385.6,466.664 C385.6,480.984 385.6,493.288 385.6,509.424 " fill="none" id="JobOpening-to-PhaseType" style="stroke:#181818;stroke-width:0.8000000000000002;"/><polygon fill="#181818" points="385.6,514.224,388.8,507.024,385.6,510.224,382.4,507.024,385.6,514.224" style="stroke:#181818;stroke-width:0.8000000000000002;"/></g><!--SRC=[hLFBReCm4Bpp5JuI9Va13fKeefMhYA10MlNec5MWeTx86DAcwhyN3E4XIDHAvG3QtPbPxx3cASioiZr6JC4JxjP748dORodvCaZvB0b7eIIcAKXh17FQcWRFIOH1Z2TpPf4TOWfC6D-6mITRTDosLGQoI3XOf4C5TQe1i5oTWml8pbMCCZapbQ3eu-Oarxtyc6LWlhLQVTq5uJ5gcKIeHVMg1E2aEUtfPtrAeyrZu8S7b7H0CGToqprxhjHIMUbLMTO2cNcLL60ITJwEl6dicnCM5Knm2D633tLx-3_CkyTxnWyX-XAA1FFi7uGdPkdMBPSIXBhOOX7z2J-Fbt-x1-KCCTMwTQXI74J-tcKQQTltLzInGxhs5ZeHE1lNzQZtM8VK2ztDCtLVWZgsFNlr6j0cshZ1TXLMuXDNPRcyktKrRcn-nHml-wy9ndWPhW9qfRFf1m00]--></g></svg>