<?xml version="1.0" encoding="us-ascii" standalone="no"?><svg xmlns="http://www.w3.org/2000/svg" xmlns:xlink="http://www.w3.org/1999/xlink" contentStyleType="text/css" height="311px" preserveAspectRatio="none" style="width:628px;height:311px;background:#FFFFFF;" version="1.1" viewBox="0 0 628 311" width="628px" zoomAndPan="magnify"><defs/><g><rect fill="#FFFFFF" height="126.1641" style="stroke:#181818;stroke-width:1.0;" width="10" x="63.5" y="93.6211"/><rect fill="#FFFFFF" height="31.291" style="stroke:#181818;stroke-width:1.0;" width="10" x="587.5" y="116.9121"/><rect fill="#FFFFFF" height="31.291" style="stroke:#181818;stroke-width:1.0;" width="10" x="587.5" y="179.4941"/><line style="stroke:#181818;stroke-width:0.5;stroke-dasharray:5.0,5.0;" x1="68" x2="68" y1="83.6211" y2="228.7852"/><line style="stroke:#181818;stroke-width:0.5;stroke-dasharray:5.0,5.0;" x1="592.5" x2="592.5" y1="83.6211" y2="228.7852"/><text fill="#000000" font-family="sans-serif" font-size="14" lengthAdjust="spacing" textLength="121" x="5" y="80.1074">Customer Manager</text><ellipse cx="68.5" cy="13.5" fill="#E2E2F0" rx="8" ry="8" style="stroke:#181818;stroke-width:0.5;"/><path d="M68.5,21.5 L68.5,48.5 M55.5,29.5 L81.5,29.5 M68.5,48.5 L55.5,63.5 M68.5,48.5 L81.5,63.5 " fill="none" style="stroke:#181818;stroke-width:0.5;"/><text fill="#000000" font-family="sans-serif" font-size="14" lengthAdjust="spacing" textLength="121" x="5" y="242.8926">Customer Manager</text><ellipse cx="68.5" cy="254.9063" fill="#E2E2F0" rx="8" ry="8" style="stroke:#181818;stroke-width:0.5;"/><path d="M68.5,262.9063 L68.5,289.9063 M55.5,270.9063 L81.5,270.9063 M68.5,289.9063 L55.5,304.9063 M68.5,289.9063 L81.5,304.9063 " fill="none" style="stroke:#181818;stroke-width:0.5;"/><rect fill="#E2E2F0" height="32.6211" rx="2.5" ry="2.5" style="stroke:#181818;stroke-width:0.5;" width="60" x="562.5" y="50"/><text fill="#000000" font-family="sans-serif" font-size="14" lengthAdjust="spacing" textLength="46" x="569.5" y="72.1074">System</text><rect fill="#E2E2F0" height="32.6211" rx="2.5" ry="2.5" style="stroke:#181818;stroke-width:0.5;" width="60" x="562.5" y="227.7852"/><text fill="#000000" font-family="sans-serif" font-size="14" lengthAdjust="spacing" textLength="46" x="569.5" y="249.8926">System</text><rect fill="#FFFFFF" height="126.1641" style="stroke:#181818;stroke-width:1.0;" width="10" x="63.5" y="93.6211"/><rect fill="#FFFFFF" height="31.291" style="stroke:#181818;stroke-width:1.0;" width="10" x="587.5" y="116.9121"/><rect fill="#FFFFFF" height="31.291" style="stroke:#181818;stroke-width:1.0;" width="10" x="587.5" y="179.4941"/><polygon fill="#181818" points="575.5,112.9121,585.5,116.9121,575.5,120.9121,579.5,116.9121" style="stroke:#181818;stroke-width:1.0;"/><line style="stroke:#181818;stroke-width:1.0;" x1="73.5" x2="581.5" y1="116.9121" y2="116.9121"/><text fill="#000000" font-family="sans-serif" font-size="13" lengthAdjust="spacing" textLength="280" x="80.5" y="111.6494">Requests to update current phase of job opening</text><polygon fill="#181818" points="84.5,144.2031,74.5,148.2031,84.5,152.2031,80.5,148.2031" style="stroke:#181818;stroke-width:1.0;"/><line style="stroke:#181818;stroke-width:1.0;" x1="78.5" x2="591.5" y1="148.2031" y2="148.2031"/><text fill="#000000" font-family="sans-serif" font-size="13" lengthAdjust="spacing" textLength="490" x="90.5" y="142.9404">Asks User if he wants to advance to the next phase or go back to the previous phase</text><polygon fill="#181818" points="575.5,175.4941,585.5,179.4941,575.5,183.4941,579.5,179.4941" style="stroke:#181818;stroke-width:1.0;"/><line style="stroke:#181818;stroke-width:1.0;" x1="73.5" x2="581.5" y1="179.4941" y2="179.4941"/><text fill="#000000" font-family="sans-serif" font-size="13" lengthAdjust="spacing" textLength="74" x="80.5" y="174.2314">inputs option</text><polygon fill="#181818" points="84.5,206.7852,74.5,210.7852,84.5,214.7852,80.5,210.7852" style="stroke:#181818;stroke-width:1.0;"/><line style="stroke:#181818;stroke-width:1.0;" x1="78.5" x2="591.5" y1="210.7852" y2="210.7852"/><text fill="#000000" font-family="sans-serif" font-size="13" lengthAdjust="spacing" textLength="232" x="90.5" y="205.5225">Shows job openings with updated phase</text><!--SRC=[ROzBRiCm34JtEiN0-rmWYm91rWM22Zu08pEs6aHKHSfkRryvdpQBx0ZEyCrm5qmAkdrLamiNl5EYaKi7KlJkGCLYY9cIeVC_QdovAjuv2XPdCcwk7fit-2q- -Akoci84DG-h66eft8xpHCgG4pxb2CcSOXh_4Txv5T5liTDpozLM99umCPQMVENHC5CAl8xMzec__w05e-18uVmGS-4vIjMRmGty5FJe6bEkZIpPegHNJVmaYpxNLIpHfljZmolsBm00]--></g></svg>