<?xml version="1.0" encoding="us-ascii" standalone="no"?><svg xmlns="http://www.w3.org/2000/svg" xmlns:xlink="http://www.w3.org/1999/xlink" contentStyleType="text/css" height="1728.8px" preserveAspectRatio="none" style="width:2104px;height:1728px;background:#FFFFFF;" version="1.1" viewBox="0 0 2104 1728" width="2104.8px" zoomAndPan="magnify"><defs/><g><text fill="#000000" font-family="sans-serif" font-size="11.2" font-weight="bold" lengthAdjust="spacing" textLength="180.8" x="967" y="24.0859">US 1010 - Open or close a phase</text><rect fill="#FFFFFF" height="1532.6172" style="stroke:#181818;stroke-width:0.8000000000000002;" width="8" x="77.2" y="110.2906"/><rect fill="#FFFFFF" height="225.2953" style="stroke:#181818;stroke-width:0.8000000000000002;" width="8" x="545.2" y="128.9234"/><rect fill="#FFFFFF" height="124.8922" style="stroke:#181818;stroke-width:0.8000000000000002;" width="8" x="545.2" y="379.2516"/><rect fill="#FFFFFF" height="1106.5313" style="stroke:#181818;stroke-width:0.8000000000000002;" width="8" x="545.2" y="529.1766"/><rect fill="#FFFFFF" height="175.2297" style="stroke:#181818;stroke-width:0.8000000000000002;" width="8" x="798.8" y="153.9563"/><rect fill="#FFFFFF" height="74.8266" style="stroke:#181818;stroke-width:0.8000000000000002;" width="8" x="798.8" y="404.2844"/><rect fill="#FFFFFF" height="251.6328" style="stroke:#181818;stroke-width:0.8000000000000002;" width="8" x="798.8" y="554.2094"/><rect fill="#FFFFFF" height="146.4688" style="stroke:#181818;stroke-width:0.8000000000000002;" width="8" x="798.8" y="917.1734"/><rect fill="#FFFFFF" height="413.3641" style="stroke:#181818;stroke-width:0.8000000000000002;" width="8" x="798.8" y="1197.3109"/><rect fill="#FFFFFF" height="25.0328" style="stroke:#181818;stroke-width:0.8000000000000002;" width="8" x="1258.8" y="178.9891"/><rect fill="#FFFFFF" height="75.0984" style="stroke:#181818;stroke-width:0.8000000000000002;" width="8" x="1385.2" y="229.0547"/><rect fill="#FFFFFF" height="149.1641" style="stroke:#181818;stroke-width:0.8000000000000002;" width="8" x="1385.2" y="1243.3766"/><rect fill="#FFFFFF" height="212.0297" style="stroke:#181818;stroke-width:0.8000000000000002;" width="8" x="1385.2" y="1430.8781"/><rect fill="#FFFFFF" height="25.0328" style="stroke:#181818;stroke-width:0.8000000000000002;" width="8" x="1604.4" y="254.0875"/><rect fill="#FFFFFF" height="25.0328" style="stroke:#181818;stroke-width:0.8000000000000002;" width="8" x="1604.4" y="1342.475"/><rect fill="#FFFFFF" height="25.0328" style="stroke:#181818;stroke-width:0.8000000000000002;" width="8" x="1604.4" y="1529.9766"/><rect fill="#FFFFFF" height="25.0328" style="stroke:#181818;stroke-width:0.8000000000000002;" width="8" x="1711.6" y="671.3734"/><rect fill="#FFFFFF" height="25.0328" style="stroke:#181818;stroke-width:0.8000000000000002;" width="8" x="1711.6" y="942.2063"/><rect fill="#FFFFFF" height="49.0328" style="stroke:#181818;stroke-width:0.8000000000000002;" width="8" x="1711.6" y="1268.4094"/><rect fill="#FFFFFF" height="49.0328" style="stroke:#181818;stroke-width:0.8000000000000002;" width="8" x="1711.6" y="1455.9109"/><rect fill="#FFFFFF" height="25.0328" style="stroke:#181818;stroke-width:0.8000000000000002;" width="8" x="2051.6" y="600.275"/><rect fill="#FFFFFF" height="24" style="stroke:#181818;stroke-width:0.8000000000000002;" width="8" x="2051.6" y="1293.4422"/><rect fill="#FFFFFF" height="24" style="stroke:#181818;stroke-width:0.8000000000000002;" width="8" x="2051.6" y="1480.9438"/><rect fill="none" height="205.5672" style="stroke:#000000;stroke-width:1.2000000000000002;" width="1745.2" x="16" y="637.3078"/><rect fill="none" height="128.8688" style="stroke:#000000;stroke-width:1.2000000000000002;" width="867.2" x="24" y="708.4063"/><rect fill="none" height="78.8031" style="stroke:#000000;stroke-width:1.2000000000000002;" width="410.4" x="480.8" y="979.2391"/><rect fill="none" height="78.8031" style="stroke:#000000;stroke-width:1.2000000000000002;" width="593.6" x="24" y="1094.275"/><rect fill="none" height="377.1313" style="stroke:#000000;stroke-width:1.2000000000000002;" width="1385.2" x="714.4" y="1209.3109"/><line style="stroke:#181818;stroke-width:0.4000000000000001;stroke-dasharray:5.0,5.0;" x1="80.8" x2="80.8" y1="102.2906" y2="1650.1078"/><line style="stroke:#181818;stroke-width:0.4000000000000001;stroke-dasharray:5.0,5.0;" x1="548.8" x2="548.8" y1="102.2906" y2="1650.1078"/><line style="stroke:#181818;stroke-width:0.4000000000000001;stroke-dasharray:5.0,5.0;" x1="802.4" x2="802.4" y1="102.2906" y2="1650.1078"/><line style="stroke:#181818;stroke-width:0.4000000000000001;stroke-dasharray:5.0,5.0;" x1="1262.4" x2="1262.4" y1="102.2906" y2="1650.1078"/><line style="stroke:#181818;stroke-width:0.4000000000000001;stroke-dasharray:5.0,5.0;" x1="1388.8" x2="1388.8" y1="102.2906" y2="1650.1078"/><line style="stroke:#181818;stroke-width:0.4000000000000001;stroke-dasharray:5.0,5.0;" x1="1608.4" x2="1608.4" y1="102.2906" y2="1650.1078"/><line style="stroke:#181818;stroke-width:0.4000000000000001;stroke-dasharray:5.0,5.0;" x1="1715.6" x2="1715.6" y1="443.5813" y2="1650.1078"/><line style="stroke:#181818;stroke-width:0.4000000000000001;stroke-dasharray:5.0,5.0;" x1="2055.6" x2="2055.6" y1="102.2906" y2="1650.1078"/><text fill="#000000" font-family="sans-serif" font-size="11.2" lengthAdjust="spacing" textLength="93.6" x="32" y="99.4797">CustomerManager</text><ellipse cx="81.2" cy="46.1938" fill="#E2E2F0" rx="6.4" ry="6.4" style="stroke:#181818;stroke-width:0.4000000000000001;"/><path d="M81.2,52.5938 L81.2,74.1938 M70.8,58.9938 L91.6,58.9938 M81.2,74.1938 L70.8,86.1938 M81.2,74.1938 L91.6,86.1938 " fill="none" style="stroke:#181818;stroke-width:0.4000000000000001;"/><text fill="#000000" font-family="sans-serif" font-size="11.2" lengthAdjust="spacing" textLength="93.6" x="32" y="1661.3938">CustomerManager</text><ellipse cx="81.2" cy="1671.0047" fill="#E2E2F0" rx="6.4" ry="6.4" style="stroke:#181818;stroke-width:0.4000000000000001;"/><path d="M81.2,1677.4047 L81.2,1699.0047 M70.8,1683.8047 L91.6,1683.8047 M81.2,1699.0047 L70.8,1711.0047 M81.2,1699.0047 L91.6,1711.0047 " fill="none" style="stroke:#181818;stroke-width:0.4000000000000001;"/><rect fill="#E2E2F0" height="40.9938" rx="2" ry="2" style="stroke:#181818;stroke-width:0.4000000000000001;" width="120.8" x="488.8" y="60.4969"/><text fill="#000000" font-family="sans-serif" font-size="11.2" font-style="italic" lengthAdjust="spacing" textLength="24" x="537.2" y="78.1828">&#171;UI&#187;</text><text fill="#000000" font-family="sans-serif" font-size="11.2" lengthAdjust="spacing" textLength="109.6" x="494.4" y="93.0797">:UpdateJobOpeningUI</text><rect fill="#E2E2F0" height="40.9938" rx="2" ry="2" style="stroke:#181818;stroke-width:0.4000000000000001;" width="120.8" x="488.8" y="1649.3078"/><text fill="#000000" font-family="sans-serif" font-size="11.2" font-style="italic" lengthAdjust="spacing" textLength="24" x="537.2" y="1666.9938">&#171;UI&#187;</text><text fill="#000000" font-family="sans-serif" font-size="11.2" lengthAdjust="spacing" textLength="109.6" x="494.4" y="1681.8906">:UpdateJobOpeningUI</text><rect fill="#E2E2F0" height="40.9938" rx="2" ry="2" style="stroke:#181818;stroke-width:0.4000000000000001;" width="160.8" x="722.4" y="60.4969"/><text fill="#000000" font-family="sans-serif" font-size="11.2" font-style="italic" lengthAdjust="spacing" textLength="68" x="768.8" y="78.1828">&#171;Application&#187;</text><text fill="#000000" font-family="sans-serif" font-size="11.2" lengthAdjust="spacing" textLength="149.6" x="728" y="93.0797">:UpdateJobOpeningController</text><rect fill="#E2E2F0" height="40.9938" rx="2" ry="2" style="stroke:#181818;stroke-width:0.4000000000000001;" width="160.8" x="722.4" y="1649.3078"/><text fill="#000000" font-family="sans-serif" font-size="11.2" font-style="italic" lengthAdjust="spacing" textLength="68" x="768.8" y="1666.9938">&#171;Application&#187;</text><text fill="#000000" font-family="sans-serif" font-size="11.2" lengthAdjust="spacing" textLength="149.6" x="728" y="1681.8906">:UpdateJobOpeningController</text><rect fill="#E2E2F0" height="40.9938" rx="2" ry="2" style="stroke:#181818;stroke-width:0.4000000000000001;" width="124" x="1200.8" y="60.4969"/><text fill="#000000" font-family="sans-serif" font-size="11.2" font-style="italic" lengthAdjust="spacing" textLength="49.6" x="1238" y="78.1828">&#171;Service&#187;</text><text fill="#000000" font-family="sans-serif" font-size="11.2" lengthAdjust="spacing" textLength="112.8" x="1206.4" y="93.0797">:AuthenticationService</text><rect fill="#E2E2F0" height="40.9938" rx="2" ry="2" style="stroke:#181818;stroke-width:0.4000000000000001;" width="124" x="1200.8" y="1649.3078"/><text fill="#000000" font-family="sans-serif" font-size="11.2" font-style="italic" lengthAdjust="spacing" textLength="49.6" x="1238" y="1666.9938">&#171;Service&#187;</text><text fill="#000000" font-family="sans-serif" font-size="11.2" lengthAdjust="spacing" textLength="112.8" x="1206.4" y="1681.8906">:AuthenticationService</text><rect fill="#E2E2F0" height="40.9938" rx="2" ry="2" style="stroke:#181818;stroke-width:0.4000000000000001;" width="112.8" x="1332.8" y="60.4969"/><text fill="#000000" font-family="sans-serif" font-size="11.2" font-style="italic" lengthAdjust="spacing" textLength="49.6" x="1364.4" y="78.1828">&#171;Service&#187;</text><text fill="#000000" font-family="sans-serif" font-size="11.2" lengthAdjust="spacing" textLength="101.6" x="1338.4" y="93.0797">:JobOpeningService</text><rect fill="#E2E2F0" height="40.9938" rx="2" ry="2" style="stroke:#181818;stroke-width:0.4000000000000001;" width="112.8" x="1332.8" y="1649.3078"/><text fill="#000000" font-family="sans-serif" font-size="11.2" font-style="italic" lengthAdjust="spacing" textLength="49.6" x="1364.4" y="1666.9938">&#171;Service&#187;</text><text fill="#000000" font-family="sans-serif" font-size="11.2" lengthAdjust="spacing" textLength="101.6" x="1338.4" y="1681.8906">:JobOpeningService</text><text fill="#000000" font-family="sans-serif" font-size="11.2" font-style="italic" lengthAdjust="spacing" textLength="72" x="1570" y="84.5828">&#171;Persistence&#187;</text><text fill="#000000" font-family="sans-serif" font-size="11.2" lengthAdjust="spacing" textLength="118.4" x="1546.8" y="99.4797">:JobOpeningRepository</text><path d="M1594,43.6969 C1594,35.6969 1608.4,35.6969 1608.4,35.6969 C1608.4,35.6969 1622.8,35.6969 1622.8,43.6969 L1622.8,64.4969 C1622.8,72.4969 1608.4,72.4969 1608.4,72.4969 C1608.4,72.4969 1594,72.4969 1594,64.4969 L1594,43.6969 " fill="#E2E2F0" style="stroke:#181818;stroke-width:1.2000000000000002;"/><path d="M1594,43.6969 C1594,51.6969 1608.4,51.6969 1608.4,51.6969 C1608.4,51.6969 1622.8,51.6969 1622.8,43.6969 " fill="none" style="stroke:#181818;stroke-width:1.2000000000000002;"/><text fill="#000000" font-family="sans-serif" font-size="11.2" font-style="italic" lengthAdjust="spacing" textLength="72" x="1570" y="1661.3938">&#171;Persistence&#187;</text><text fill="#000000" font-family="sans-serif" font-size="11.2" lengthAdjust="spacing" textLength="118.4" x="1546.8" y="1676.2906">:JobOpeningRepository</text><path d="M1594,1687.1016 C1594,1679.1016 1608.4,1679.1016 1608.4,1679.1016 C1608.4,1679.1016 1622.8,1679.1016 1622.8,1687.1016 L1622.8,1707.9016 C1622.8,1715.9016 1608.4,1715.9016 1608.4,1715.9016 C1608.4,1715.9016 1594,1715.9016 1594,1707.9016 L1594,1687.1016 " fill="#E2E2F0" style="stroke:#181818;stroke-width:1.2000000000000002;"/><path d="M1594,1687.1016 C1594,1695.1016 1608.4,1695.1016 1608.4,1695.1016 C1608.4,1695.1016 1622.8,1695.1016 1622.8,1687.1016 " fill="none" style="stroke:#181818;stroke-width:1.2000000000000002;"/><rect fill="#E2E2F0" height="40.9938" rx="2" ry="2" style="stroke:#181818;stroke-width:0.4000000000000001;" width="75.2" x="1678" y="1649.3078"/><text fill="#000000" font-family="sans-serif" font-size="11.2" font-style="italic" lengthAdjust="spacing" textLength="51.2" x="1690" y="1666.9938">&#171;Domain&#187;</text><text fill="#000000" font-family="sans-serif" font-size="11.2" lengthAdjust="spacing" textLength="64" x="1683.6" y="1681.8906">:JobOpening</text><rect fill="#E2E2F0" height="40.9938" rx="2" ry="2" style="stroke:#181818;stroke-width:0.4000000000000001;" width="72" x="2019.6" y="60.4969"/><text fill="#000000" font-family="sans-serif" font-size="11.2" font-style="italic" lengthAdjust="spacing" textLength="51.2" x="2030" y="78.1828">&#171;Domain&#187;</text><text fill="#000000" font-family="sans-serif" font-size="11.2" lengthAdjust="spacing" textLength="60.8" x="2025.2" y="93.0797">:PhaseType</text><rect fill="#E2E2F0" height="40.9938" rx="2" ry="2" style="stroke:#181818;stroke-width:0.4000000000000001;" width="72" x="2019.6" y="1649.3078"/><text fill="#000000" font-family="sans-serif" font-size="11.2" font-style="italic" lengthAdjust="spacing" textLength="51.2" x="2030" y="1666.9938">&#171;Domain&#187;</text><text fill="#000000" font-family="sans-serif" font-size="11.2" lengthAdjust="spacing" textLength="60.8" x="2025.2" y="1681.8906">:PhaseType</text><rect fill="#FFFFFF" height="1532.6172" style="stroke:#181818;stroke-width:0.8000000000000002;" width="8" x="77.2" y="110.2906"/><rect fill="#FFFFFF" height="225.2953" style="stroke:#181818;stroke-width:0.8000000000000002;" width="8" x="545.2" y="128.9234"/><rect fill="#FFFFFF" height="124.8922" style="stroke:#181818;stroke-width:0.8000000000000002;" width="8" x="545.2" y="379.2516"/><rect fill="#FFFFFF" height="1106.5313" style="stroke:#181818;stroke-width:0.8000000000000002;" width="8" x="545.2" y="529.1766"/><rect fill="#FFFFFF" height="175.2297" style="stroke:#181818;stroke-width:0.8000000000000002;" width="8" x="798.8" y="153.9563"/><rect fill="#FFFFFF" height="74.8266" style="stroke:#181818;stroke-width:0.8000000000000002;" width="8" x="798.8" y="404.2844"/><rect fill="#FFFFFF" height="251.6328" style="stroke:#181818;stroke-width:0.8000000000000002;" width="8" x="798.8" y="554.2094"/><rect fill="#FFFFFF" height="146.4688" style="stroke:#181818;stroke-width:0.8000000000000002;" width="8" x="798.8" y="917.1734"/><rect fill="#FFFFFF" height="413.3641" style="stroke:#181818;stroke-width:0.8000000000000002;" width="8" x="798.8" y="1197.3109"/><rect fill="#FFFFFF" height="25.0328" style="stroke:#181818;stroke-width:0.8000000000000002;" width="8" x="1258.8" y="178.9891"/><rect fill="#FFFFFF" height="75.0984" style="stroke:#181818;stroke-width:0.8000000000000002;" width="8" x="1385.2" y="229.0547"/><rect fill="#FFFFFF" height="149.1641" style="stroke:#181818;stroke-width:0.8000000000000002;" width="8" x="1385.2" y="1243.3766"/><rect fill="#FFFFFF" height="212.0297" style="stroke:#181818;stroke-width:0.8000000000000002;" width="8" x="1385.2" y="1430.8781"/><rect fill="#FFFFFF" height="25.0328" style="stroke:#181818;stroke-width:0.8000000000000002;" width="8" x="1604.4" y="254.0875"/><rect fill="#FFFFFF" height="25.0328" style="stroke:#181818;stroke-width:0.8000000000000002;" width="8" x="1604.4" y="1342.475"/><rect fill="#FFFFFF" height="25.0328" style="stroke:#181818;stroke-width:0.8000000000000002;" width="8" x="1604.4" y="1529.9766"/><rect fill="#FFFFFF" height="25.0328" style="stroke:#181818;stroke-width:0.8000000000000002;" width="8" x="1711.6" y="671.3734"/><rect fill="#FFFFFF" height="25.0328" style="stroke:#181818;stroke-width:0.8000000000000002;" width="8" x="1711.6" y="942.2063"/><rect fill="#FFFFFF" height="49.0328" style="stroke:#181818;stroke-width:0.8000000000000002;" width="8" x="1711.6" y="1268.4094"/><rect fill="#FFFFFF" height="49.0328" style="stroke:#181818;stroke-width:0.8000000000000002;" width="8" x="1711.6" y="1455.9109"/><rect fill="#FFFFFF" height="25.0328" style="stroke:#181818;stroke-width:0.8000000000000002;" width="8" x="2051.6" y="600.275"/><rect fill="#FFFFFF" height="24" style="stroke:#181818;stroke-width:0.8000000000000002;" width="8" x="2051.6" y="1293.4422"/><rect fill="#FFFFFF" height="24" style="stroke:#181818;stroke-width:0.8000000000000002;" width="8" x="2051.6" y="1480.9438"/><polygon fill="#181818" points="535.6,125.7234,543.6,128.9234,535.6,132.1234,538.8,128.9234" style="stroke:#181818;stroke-width:0.8000000000000002;"/><line style="stroke:#181818;stroke-width:0.8000000000000002;" x1="85.2" x2="540.4" y1="128.9234" y2="128.9234"/><text fill="#000000" font-family="sans-serif" font-size="10.4" lengthAdjust="spacing" textLength="92" x="90.8" y="124.7133">updateJobOpening()</text><polygon fill="#181818" points="789.2,150.7563,797.2,153.9563,789.2,157.1563,792.4,153.9563" style="stroke:#181818;stroke-width:0.8000000000000002;"/><line style="stroke:#181818;stroke-width:0.8000000000000002;" x1="553.2" x2="794" y1="153.9563" y2="153.9563"/><text fill="#000000" font-family="sans-serif" font-size="10.4" lengthAdjust="spacing" textLength="38.4" x="558.8" y="149.7461">allJobs()</text><polygon fill="#181818" points="1249.2,175.7891,1257.2,178.9891,1249.2,182.1891,1252.4,178.9891" style="stroke:#181818;stroke-width:0.8000000000000002;"/><line style="stroke:#181818;stroke-width:0.8000000000000002;" x1="806.8" x2="1254" y1="178.9891" y2="178.9891"/><text fill="#000000" font-family="sans-serif" font-size="10.4" lengthAdjust="spacing" textLength="436.8" x="812.4" y="174.7789">ensureAuthenticatedUserHasAnyOf(BaseRoles.CUSTOMER_MANAGER, BaseRoles.ADMIN);</text><polygon fill="#181818" points="815.6,200.8219,807.6,204.0219,815.6,207.2219,812.4,204.0219" style="stroke:#181818;stroke-width:0.8000000000000002;"/><line style="stroke:#181818;stroke-width:0.8000000000000002;stroke-dasharray:2.0,2.0;" x1="810.8" x2="1262" y1="204.0219" y2="204.0219"/><text fill="#000000" font-family="sans-serif" font-size="10.4" lengthAdjust="spacing" textLength="17.6" x="820.4" y="199.8117">true</text><polygon fill="#181818" points="1375.6,225.8547,1383.6,229.0547,1375.6,232.2547,1378.8,229.0547" style="stroke:#181818;stroke-width:0.8000000000000002;"/><line style="stroke:#181818;stroke-width:0.8000000000000002;" x1="806.8" x2="1380.4" y1="229.0547" y2="229.0547"/><text fill="#000000" font-family="sans-serif" font-size="10.4" lengthAdjust="spacing" textLength="32" x="812.4" y="224.8445">allJobs</text><polygon fill="#181818" points="1594.8,250.8875,1602.8,254.0875,1594.8,257.2875,1598,254.0875" style="stroke:#181818;stroke-width:0.8000000000000002;"/><line style="stroke:#181818;stroke-width:0.8000000000000002;" x1="1393.2" x2="1599.6" y1="254.0875" y2="254.0875"/><text fill="#000000" font-family="sans-serif" font-size="10.4" lengthAdjust="spacing" textLength="34.4" x="1398.8" y="249.8773">findAll()</text><polygon fill="#181818" points="1402,275.9203,1394,279.1203,1402,282.3203,1398.8,279.1203" style="stroke:#181818;stroke-width:0.8000000000000002;"/><line style="stroke:#181818;stroke-width:0.8000000000000002;stroke-dasharray:2.0,2.0;" x1="1397.2" x2="1607.6" y1="279.1203" y2="279.1203"/><text fill="#000000" font-family="sans-serif" font-size="10.4" lengthAdjust="spacing" textLength="100.8" x="1406.8" y="274.9102">Iterable&lt;JobOpening&gt;</text><polygon fill="#181818" points="815.6,300.9531,807.6,304.1531,815.6,307.3531,812.4,304.1531" style="stroke:#181818;stroke-width:0.8000000000000002;"/><line style="stroke:#181818;stroke-width:0.8000000000000002;stroke-dasharray:2.0,2.0;" x1="810.8" x2="1388.4" y1="304.1531" y2="304.1531"/><text fill="#000000" font-family="sans-serif" font-size="10.4" lengthAdjust="spacing" textLength="84" x="820.4" y="299.943">List&lt;JobOpening&gt;</text><polygon fill="#181818" points="562,325.9859,554,329.1859,562,332.3859,558.8,329.1859" style="stroke:#181818;stroke-width:0.8000000000000002;"/><line style="stroke:#181818;stroke-width:0.8000000000000002;stroke-dasharray:2.0,2.0;" x1="557.2" x2="802" y1="329.1859" y2="329.1859"/><text fill="#000000" font-family="sans-serif" font-size="10.4" lengthAdjust="spacing" textLength="84" x="566.8" y="324.9758">List&lt;JobOpening&gt;</text><polygon fill="#181818" points="94,351.0188,86,354.2188,94,357.4188,90.8,354.2188" style="stroke:#181818;stroke-width:0.8000000000000002;"/><line style="stroke:#181818;stroke-width:0.8000000000000002;stroke-dasharray:2.0,2.0;" x1="89.2" x2="548.4" y1="354.2188" y2="354.2188"/><text fill="#000000" font-family="sans-serif" font-size="10.4" lengthAdjust="spacing" textLength="440.8" x="98.8" y="350.0086">displays List&lt;JobOpening&gt; jobOpenings and request to input an index referring to a job opening</text><polygon fill="#181818" points="535.6,376.0516,543.6,379.2516,535.6,382.4516,538.8,379.2516" style="stroke:#181818;stroke-width:0.8000000000000002;"/><line style="stroke:#181818;stroke-width:0.8000000000000002;" x1="85.2" x2="540.4" y1="379.2516" y2="379.2516"/><text fill="#000000" font-family="sans-serif" font-size="10.4" lengthAdjust="spacing" textLength="56" x="90.8" y="375.0414">inputs index</text><polygon fill="#181818" points="789.2,401.0844,797.2,404.2844,789.2,407.4844,792.4,404.2844" style="stroke:#181818;stroke-width:0.8000000000000002;"/><line style="stroke:#181818;stroke-width:0.8000000000000002;" x1="553.2" x2="794" y1="404.2844" y2="404.2844"/><text fill="#000000" font-family="sans-serif" font-size="10.4" lengthAdjust="spacing" textLength="137.6" x="558.8" y="400.0742">getJobOpeningByIndex(index)</text><polygon fill="#181818" points="1668.4,426.1172,1676.4,429.3172,1668.4,432.5172,1671.6,429.3172" style="stroke:#181818;stroke-width:0.8000000000000002;"/><line style="stroke:#181818;stroke-width:0.8000000000000002;" x1="806.8" x2="1673.2" y1="429.3172" y2="429.3172"/><text fill="#000000" font-family="sans-serif" font-size="10.4" lengthAdjust="spacing" textLength="241.6" x="812.4" y="425.107">Job opening jobOpening = jobOpenings.get(index -1)</text><rect fill="#E2E2F0" height="40.9938" rx="2" ry="2" style="stroke:#181818;stroke-width:0.4000000000000001;" width="75.2" x="1678" y="410.6844"/><text fill="#000000" font-family="sans-serif" font-size="11.2" font-style="italic" lengthAdjust="spacing" textLength="51.2" x="1690" y="428.3703">&#171;Domain&#187;</text><text fill="#000000" font-family="sans-serif" font-size="11.2" lengthAdjust="spacing" textLength="64" x="1683.6" y="443.2672">:JobOpening</text><polygon fill="#181818" points="562,475.9109,554,479.1109,562,482.3109,558.8,479.1109" style="stroke:#181818;stroke-width:0.8000000000000002;"/><line style="stroke:#181818;stroke-width:0.8000000000000002;stroke-dasharray:2.0,2.0;" x1="557.2" x2="802" y1="479.1109" y2="479.1109"/><text fill="#000000" font-family="sans-serif" font-size="10.4" lengthAdjust="spacing" textLength="52" x="566.8" y="474.9008">jobOpening</text><polygon fill="#181818" points="94,500.9438,86,504.1438,94,507.3438,90.8,504.1438" style="stroke:#181818;stroke-width:0.8000000000000002;"/><line style="stroke:#181818;stroke-width:0.8000000000000002;stroke-dasharray:2.0,2.0;" x1="89.2" x2="548.4" y1="504.1438" y2="504.1438"/><text fill="#000000" font-family="sans-serif" font-size="10.4" lengthAdjust="spacing" textLength="219.2" x="98.8" y="499.9336">displays jobOpening and lists options to update</text><polygon fill="#181818" points="535.6,525.9766,543.6,529.1766,535.6,532.3766,538.8,529.1766" style="stroke:#181818;stroke-width:0.8000000000000002;"/><line style="stroke:#181818;stroke-width:0.8000000000000002;" x1="85.2" x2="540.4" y1="529.1766" y2="529.1766"/><text fill="#000000" font-family="sans-serif" font-size="10.4" lengthAdjust="spacing" textLength="192" x="90.8" y="524.9664">inputs option (update Job Opening phase)</text><polygon fill="#181818" points="789.2,551.0094,797.2,554.2094,789.2,557.4094,792.4,554.2094" style="stroke:#181818;stroke-width:0.8000000000000002;"/><line style="stroke:#181818;stroke-width:0.8000000000000002;" x1="553.2" x2="794" y1="554.2094" y2="554.2094"/><text fill="#000000" font-family="sans-serif" font-size="10.4" lengthAdjust="spacing" textLength="133.6" x="558.8" y="549.9992">showJobPhases(jobOpening)</text><polygon fill="#181818" points="2042,597.075,2050,600.275,2042,603.475,2045.2,600.275" style="stroke:#181818;stroke-width:0.8000000000000002;"/><line style="stroke:#181818;stroke-width:0.8000000000000002;" x1="806.8" x2="2046.8" y1="600.275" y2="600.275"/><text fill="#000000" font-family="sans-serif" font-size="10.4" lengthAdjust="spacing" textLength="90.4" x="812.4" y="596.0648">PhaseType.values()</text><polygon fill="#181818" points="815.6,622.1078,807.6,625.3078,815.6,628.5078,812.4,625.3078" style="stroke:#181818;stroke-width:0.8000000000000002;"/><line style="stroke:#181818;stroke-width:0.8000000000000002;stroke-dasharray:2.0,2.0;" x1="810.8" x2="2054.8" y1="625.3078" y2="625.3078"/><text fill="#000000" font-family="sans-serif" font-size="10.4" lengthAdjust="spacing" textLength="58.4" x="820.4" y="621.0977">PhaseType[]</text><path d="M16,637.3078 L74.4,637.3078 L74.4,644.7406 L66.4,652.7406 L16,652.7406 L16,637.3078 " fill="#EEEEEE" style="stroke:#000000;stroke-width:1.2000000000000002;"/><rect fill="none" height="205.5672" style="stroke:#000000;stroke-width:1.2000000000000002;" width="1745.2" x="16" y="637.3078"/><text fill="#000000" font-family="sans-serif" font-size="10.4" font-weight="bold" lengthAdjust="spacing" textLength="22.4" x="28" y="649.3305">loop</text><text fill="#000000" font-family="sans-serif" font-size="8.8" font-weight="bold" lengthAdjust="spacing" textLength="171.2" x="86.4" y="648.4039">[for each phase in PhaseType.values()]</text><polygon fill="#181818" points="1702,668.1734,1710,671.3734,1702,674.5734,1705.2,671.3734" style="stroke:#181818;stroke-width:0.8000000000000002;"/><line style="stroke:#181818;stroke-width:0.8000000000000002;" x1="806.8" x2="1706.8" y1="671.3734" y2="671.3734"/><text fill="#000000" font-family="sans-serif" font-size="10.4" lengthAdjust="spacing" textLength="123.2" x="812.4" y="667.1633">jobOpening.currentPhase()</text><polygon fill="#181818" points="815.6,693.2063,807.6,696.4063,815.6,699.6063,812.4,696.4063" style="stroke:#181818;stroke-width:0.8000000000000002;"/><line style="stroke:#181818;stroke-width:0.8000000000000002;stroke-dasharray:2.0,2.0;" x1="810.8" x2="1714.8" y1="696.4063" y2="696.4063"/><text fill="#000000" font-family="sans-serif" font-size="10.4" lengthAdjust="spacing" textLength="116.8" x="820.4" y="692.1961">PhaseType currentPhase</text><path d="M24,708.4063 L72.8,708.4063 L72.8,715.8391 L64.8,723.8391 L24,723.8391 L24,708.4063 " fill="#EEEEEE" style="stroke:#000000;stroke-width:1.2000000000000002;"/><rect fill="none" height="128.8688" style="stroke:#000000;stroke-width:1.2000000000000002;" width="867.2" x="24" y="708.4063"/><text fill="#000000" font-family="sans-serif" font-size="10.4" font-weight="bold" lengthAdjust="spacing" textLength="12.8" x="36" y="720.4289">alt</text><text fill="#000000" font-family="sans-serif" font-size="8.8" font-weight="bold" lengthAdjust="spacing" textLength="135.2" x="84.8" y="719.5023">[if PhaseType != currentPhase]</text><polygon fill="#181818" points="562,739.2719,554,742.4719,562,745.6719,558.8,742.4719" style="stroke:#181818;stroke-width:0.8000000000000002;"/><line style="stroke:#181818;stroke-width:0.8000000000000002;stroke-dasharray:2.0,2.0;" x1="557.2" x2="798" y1="742.4719" y2="742.4719"/><text fill="#000000" font-family="sans-serif" font-size="10.4" lengthAdjust="spacing" textLength="199.2" x="566.8" y="738.2617">displayPhase(PhaseType phaseType,false)</text><polygon fill="#181818" points="94,764.3047,86,767.5047,94,770.7047,90.8,767.5047" style="stroke:#181818;stroke-width:0.8000000000000002;"/><line style="stroke:#181818;stroke-width:0.8000000000000002;stroke-dasharray:2.0,2.0;" x1="89.2" x2="544.4" y1="767.5047" y2="767.5047"/><text fill="#000000" font-family="sans-serif" font-size="10.4" lengthAdjust="spacing" textLength="138.4" x="98.8" y="763.2945">displays PhaseType is closed</text><line style="stroke:#000000;stroke-width:0.8000000000000002;stroke-dasharray:2.0,2.0;" x1="24" x2="891.2" y1="774.7047" y2="774.7047"/><text fill="#000000" font-family="sans-serif" font-size="8.8" font-weight="bold" lengthAdjust="spacing" textLength="137.6" x="28" y="784.2008">[if PhaseType == currentPhase]</text><polygon fill="#181818" points="562,802.6422,554,805.8422,562,809.0422,558.8,805.8422" style="stroke:#181818;stroke-width:0.8000000000000002;"/><line style="stroke:#181818;stroke-width:0.8000000000000002;stroke-dasharray:2.0,2.0;" x1="557.2" x2="802" y1="805.8422" y2="805.8422"/><text fill="#000000" font-family="sans-serif" font-size="10.4" lengthAdjust="spacing" textLength="195.2" x="566.8" y="801.632">displayPhase(PhaseType phaseType,true)</text><polygon fill="#181818" points="94,827.675,86,830.875,94,834.075,90.8,830.875" style="stroke:#181818;stroke-width:0.8000000000000002;"/><line style="stroke:#181818;stroke-width:0.8000000000000002;stroke-dasharray:2.0,2.0;" x1="89.2" x2="544.4" y1="830.875" y2="830.875"/><text fill="#000000" font-family="sans-serif" font-size="10.4" lengthAdjust="spacing" textLength="130.4" x="98.8" y="826.6648">displays PhaseType is open</text><polygon fill="#181818" points="94,863.9078,86,867.1078,94,870.3078,90.8,867.1078" style="stroke:#181818;stroke-width:0.8000000000000002;"/><line style="stroke:#181818;stroke-width:0.8000000000000002;" x1="89.2" x2="544.4" y1="867.1078" y2="867.1078"/><text fill="#000000" font-family="sans-serif" font-size="10.4" lengthAdjust="spacing" textLength="320" x="98.8" y="862.8977">Requests option (Advance to next phase, Go back to previous phase)</text><polygon fill="#181818" points="535.6,888.9406,543.6,892.1406,535.6,895.3406,538.8,892.1406" style="stroke:#181818;stroke-width:0.8000000000000002;"/><line style="stroke:#181818;stroke-width:0.8000000000000002;stroke-dasharray:2.0,2.0;" x1="85.2" x2="540.4" y1="892.1406" y2="892.1406"/><text fill="#000000" font-family="sans-serif" font-size="10.4" lengthAdjust="spacing" textLength="59.2" x="90.8" y="887.9305">inputs option</text><polygon fill="#181818" points="789.2,913.9734,797.2,917.1734,789.2,920.3734,792.4,917.1734" style="stroke:#181818;stroke-width:0.8000000000000002;"/><line style="stroke:#181818;stroke-width:0.8000000000000002;" x1="553.2" x2="794" y1="917.1734" y2="917.1734"/><text fill="#000000" font-family="sans-serif" font-size="10.4" lengthAdjust="spacing" textLength="146.4" x="558.8" y="912.9633">checkForInterviewPhase(option)</text><polygon fill="#181818" points="1702,939.0063,1710,942.2063,1702,945.4063,1705.2,942.2063" style="stroke:#181818;stroke-width:0.8000000000000002;"/><line style="stroke:#181818;stroke-width:0.8000000000000002;" x1="806.8" x2="1706.8" y1="942.2063" y2="942.2063"/><text fill="#000000" font-family="sans-serif" font-size="10.4" lengthAdjust="spacing" textLength="123.2" x="812.4" y="937.9961">jobOpening.currentPhase()</text><polygon fill="#181818" points="815.6,964.0391,807.6,967.2391,815.6,970.4391,812.4,967.2391" style="stroke:#181818;stroke-width:0.8000000000000002;"/><line style="stroke:#181818;stroke-width:0.8000000000000002;stroke-dasharray:2.0,2.0;" x1="810.8" x2="1714.8" y1="967.2391" y2="967.2391"/><text fill="#000000" font-family="sans-serif" font-size="10.4" lengthAdjust="spacing" textLength="61.6" x="820.4" y="963.0289">currentPhase</text><path d="M480.8,979.2391 L529.6,979.2391 L529.6,986.6719 L521.6,994.6719 L480.8,994.6719 L480.8,979.2391 " fill="#EEEEEE" style="stroke:#000000;stroke-width:1.2000000000000002;"/><rect fill="none" height="78.8031" style="stroke:#000000;stroke-width:1.2000000000000002;" width="410.4" x="480.8" y="979.2391"/><text fill="#000000" font-family="sans-serif" font-size="10.4" font-weight="bold" lengthAdjust="spacing" textLength="12.8" x="492.8" y="991.2617">alt</text><text fill="#000000" font-family="sans-serif" font-size="8.8" font-weight="bold" lengthAdjust="spacing" textLength="96" x="541.6" y="990.3352">[Chooses to advance]</text><polygon fill="#181818" points="562,1010.1047,554,1013.3047,562,1016.5047,558.8,1013.3047" style="stroke:#181818;stroke-width:0.8000000000000002;"/><line style="stroke:#181818;stroke-width:0.8000000000000002;stroke-dasharray:2.0,2.0;" x1="557.2" x2="798" y1="1013.3047" y2="1013.3047"/><text fill="#000000" font-family="sans-serif" font-size="10.4" lengthAdjust="spacing" textLength="226.4" x="566.8" y="1009.0945">return currentPhase == PhaseType.SCREENING</text><line style="stroke:#000000;stroke-width:0.8000000000000002;stroke-dasharray:2.0,2.0;" x1="480.8" x2="891.2" y1="1020.5047" y2="1020.5047"/><text fill="#000000" font-family="sans-serif" font-size="8.8" font-weight="bold" lengthAdjust="spacing" textLength="94.4" x="484.8" y="1030.0008">[Chooses to go back]</text><polygon fill="#181818" points="562,1048.4422,554,1051.6422,562,1054.8422,558.8,1051.6422" style="stroke:#181818;stroke-width:0.8000000000000002;"/><line style="stroke:#181818;stroke-width:0.8000000000000002;stroke-dasharray:2.0,2.0;" x1="557.2" x2="798" y1="1051.6422" y2="1051.6422"/><text fill="#000000" font-family="sans-serif" font-size="10.4" lengthAdjust="spacing" textLength="216.8" x="566.8" y="1047.432">return currentPhase == PhaseType.ANALYSIS</text><polygon fill="#181818" points="94,1079.075,86,1082.275,94,1085.475,90.8,1082.275" style="stroke:#181818;stroke-width:0.8000000000000002;"/><line style="stroke:#181818;stroke-width:0.8000000000000002;" x1="89.2" x2="544.4" y1="1082.275" y2="1082.275"/><text fill="#000000" font-family="sans-serif" font-size="10.4" lengthAdjust="spacing" textLength="195.2" x="98.8" y="1078.0648">Asks if User wants to skip Interview phase</text><path d="M24,1094.275 L72.8,1094.275 L72.8,1101.7078 L64.8,1109.7078 L24,1109.7078 L24,1094.275 " fill="#EEEEEE" style="stroke:#000000;stroke-width:1.2000000000000002;"/><rect fill="none" height="78.8031" style="stroke:#000000;stroke-width:1.2000000000000002;" width="593.6" x="24" y="1094.275"/><text fill="#000000" font-family="sans-serif" font-size="10.4" font-weight="bold" lengthAdjust="spacing" textLength="12.8" x="36" y="1106.2977">alt</text><text fill="#000000" font-family="sans-serif" font-size="8.8" font-weight="bold" lengthAdjust="spacing" textLength="89.6" x="84.8" y="1105.3711">[User wants to skip]</text><polygon fill="#181818" points="535.6,1125.1406,543.6,1128.3406,535.6,1131.5406,538.8,1128.3406" style="stroke:#181818;stroke-width:0.8000000000000002;"/><line style="stroke:#181818;stroke-width:0.8000000000000002;stroke-dasharray:2.0,2.0;" x1="85.2" x2="540.4" y1="1128.3406" y2="1128.3406"/><text fill="#000000" font-family="sans-serif" font-size="10.4" lengthAdjust="spacing" textLength="163.2" x="90.8" y="1124.1305">types "yes", interviewPhase = false</text><line style="stroke:#000000;stroke-width:0.8000000000000002;stroke-dasharray:2.0,2.0;" x1="24" x2="617.6" y1="1135.5406" y2="1135.5406"/><text fill="#000000" font-family="sans-serif" font-size="8.8" font-weight="bold" lengthAdjust="spacing" textLength="120" x="28" y="1145.0367">[User doesn't want to skip]</text><polygon fill="#181818" points="535.6,1163.4781,543.6,1166.6781,535.6,1169.8781,538.8,1166.6781" style="stroke:#181818;stroke-width:0.8000000000000002;"/><line style="stroke:#181818;stroke-width:0.8000000000000002;stroke-dasharray:2.0,2.0;" x1="85.2" x2="540.4" y1="1166.6781" y2="1166.6781"/><text fill="#000000" font-family="sans-serif" font-size="10.4" lengthAdjust="spacing" textLength="153.6" x="90.8" y="1162.468">types "no", interviewPhase = true</text><polygon fill="#181818" points="789.2,1194.1109,797.2,1197.3109,789.2,1200.5109,792.4,1197.3109" style="stroke:#181818;stroke-width:0.8000000000000002;"/><line style="stroke:#181818;stroke-width:0.8000000000000002;" x1="553.2" x2="794" y1="1197.3109" y2="1197.3109"/><text fill="#000000" font-family="sans-serif" font-size="10.4" lengthAdjust="spacing" textLength="176" x="558.8" y="1193.1008">updatePhase(change, interviewPhase)</text><path d="M714.4,1209.3109 L763.2,1209.3109 L763.2,1216.7438 L755.2,1224.7438 L714.4,1224.7438 L714.4,1209.3109 " fill="#EEEEEE" style="stroke:#000000;stroke-width:1.2000000000000002;"/><rect fill="none" height="377.1313" style="stroke:#000000;stroke-width:1.2000000000000002;" width="1385.2" x="714.4" y="1209.3109"/><text fill="#000000" font-family="sans-serif" font-size="10.4" font-weight="bold" lengthAdjust="spacing" textLength="12.8" x="726.4" y="1221.3336">alt</text><text fill="#000000" font-family="sans-serif" font-size="8.8" font-weight="bold" lengthAdjust="spacing" textLength="121.6" x="775.2" y="1220.407">[change == advance to next]</text><polygon fill="#181818" points="1375.6,1240.1766,1383.6,1243.3766,1375.6,1246.5766,1378.8,1243.3766" style="stroke:#181818;stroke-width:0.8000000000000002;"/><line style="stroke:#181818;stroke-width:0.8000000000000002;" x1="806.8" x2="1380.4" y1="1243.3766" y2="1243.3766"/><text fill="#000000" font-family="sans-serif" font-size="10.4" lengthAdjust="spacing" textLength="330.4" x="812.4" y="1239.1664">advanceToNextPhase(JobOpening jobOpening, boolean interviewPhase)</text><polygon fill="#181818" points="1702,1265.2094,1710,1268.4094,1702,1271.6094,1705.2,1268.4094" style="stroke:#181818;stroke-width:0.8000000000000002;"/><line style="stroke:#181818;stroke-width:0.8000000000000002;" x1="1393.2" x2="1706.8" y1="1268.4094" y2="1268.4094"/><text fill="#000000" font-family="sans-serif" font-size="10.4" lengthAdjust="spacing" textLength="175.2" x="1398.8" y="1264.1992">advanceToNextPhase(interviewPhase)</text><polygon fill="#181818" points="2042,1290.2422,2050,1293.4422,2042,1296.6422,2045.2,1293.4422" style="stroke:#181818;stroke-width:0.8000000000000002;"/><line style="stroke:#181818;stroke-width:0.8000000000000002;" x1="1719.6" x2="2046.8" y1="1293.4422" y2="1293.4422"/><text fill="#000000" font-family="sans-serif" font-size="10.4" lengthAdjust="spacing" textLength="299.2" x="1725.2" y="1289.232">currentJobPhase = currentJobPhase.nextPhase(interviewPhase);</text><polygon fill="#181818" points="1594.8,1339.275,1602.8,1342.475,1594.8,1345.675,1598,1342.475" style="stroke:#181818;stroke-width:0.8000000000000002;"/><line style="stroke:#181818;stroke-width:0.8000000000000002;" x1="1393.2" x2="1599.6" y1="1342.475" y2="1342.475"/><text fill="#000000" font-family="sans-serif" font-size="10.4" lengthAdjust="spacing" textLength="196" x="1398.8" y="1338.2648">jobOpening = repository.save(jobOpening);</text><polygon fill="#181818" points="1402,1364.3078,1394,1367.5078,1402,1370.7078,1398.8,1367.5078" style="stroke:#181818;stroke-width:0.8000000000000002;"/><line style="stroke:#181818;stroke-width:0.8000000000000002;stroke-dasharray:2.0,2.0;" x1="1397.2" x2="1607.6" y1="1367.5078" y2="1367.5078"/><text fill="#000000" font-family="sans-serif" font-size="10.4" lengthAdjust="spacing" textLength="87.2" x="1406.8" y="1363.2977">returns jobOpening</text><polygon fill="#181818" points="815.6,1389.3406,807.6,1392.5406,815.6,1395.7406,812.4,1392.5406" style="stroke:#181818;stroke-width:0.8000000000000002;"/><line style="stroke:#181818;stroke-width:0.8000000000000002;stroke-dasharray:2.0,2.0;" x1="810.8" x2="1388.4" y1="1392.5406" y2="1392.5406"/><text fill="#000000" font-family="sans-serif" font-size="10.4" lengthAdjust="spacing" textLength="87.2" x="820.4" y="1388.3305">returns jobOpening</text><line style="stroke:#000000;stroke-width:0.8000000000000002;stroke-dasharray:2.0,2.0;" x1="714.4" x2="2099.6" y1="1399.7406" y2="1399.7406"/><text fill="#000000" font-family="sans-serif" font-size="8.8" font-weight="bold" lengthAdjust="spacing" textLength="146.4" x="718.4" y="1409.2367">[change == go to previous phase]</text><polygon fill="#181818" points="1375.6,1427.6781,1383.6,1430.8781,1375.6,1434.0781,1378.8,1430.8781" style="stroke:#181818;stroke-width:0.8000000000000002;"/><line style="stroke:#181818;stroke-width:0.8000000000000002;" x1="806.8" x2="1380.4" y1="1430.8781" y2="1430.8781"/><text fill="#000000" font-family="sans-serif" font-size="10.4" lengthAdjust="spacing" textLength="332.8" x="812.4" y="1426.668">backToPreviousPhase(JobOpening jobOpening, boolean interviewPhase)</text><polygon fill="#181818" points="1702,1452.7109,1710,1455.9109,1702,1459.1109,1705.2,1455.9109" style="stroke:#181818;stroke-width:0.8000000000000002;"/><line style="stroke:#181818;stroke-width:0.8000000000000002;" x1="1393.2" x2="1706.8" y1="1455.9109" y2="1455.9109"/><text fill="#000000" font-family="sans-serif" font-size="10.4" lengthAdjust="spacing" textLength="177.6" x="1398.8" y="1451.7008">backToPreviousPhase(interviewPhase)</text><polygon fill="#181818" points="2042,1477.7438,2050,1480.9438,2042,1484.1438,2045.2,1480.9438" style="stroke:#181818;stroke-width:0.8000000000000002;"/><line style="stroke:#181818;stroke-width:0.8000000000000002;" x1="1719.6" x2="2046.8" y1="1480.9438" y2="1480.9438"/><text fill="#000000" font-family="sans-serif" font-size="10.4" lengthAdjust="spacing" textLength="316.8" x="1725.2" y="1476.7336">currentJobPhase = currentJobPhase.previousPhase(interviewPhase);</text><polygon fill="#181818" points="1594.8,1526.7766,1602.8,1529.9766,1594.8,1533.1766,1598,1529.9766" style="stroke:#181818;stroke-width:0.8000000000000002;"/><line style="stroke:#181818;stroke-width:0.8000000000000002;" x1="1393.2" x2="1599.6" y1="1529.9766" y2="1529.9766"/><text fill="#000000" font-family="sans-serif" font-size="10.4" lengthAdjust="spacing" textLength="196" x="1398.8" y="1525.7664">jobOpening = repository.save(jobOpening);</text><polygon fill="#181818" points="1402,1551.8094,1394,1555.0094,1402,1558.2094,1398.8,1555.0094" style="stroke:#181818;stroke-width:0.8000000000000002;"/><line style="stroke:#181818;stroke-width:0.8000000000000002;stroke-dasharray:2.0,2.0;" x1="1397.2" x2="1607.6" y1="1555.0094" y2="1555.0094"/><text fill="#000000" font-family="sans-serif" font-size="10.4" lengthAdjust="spacing" textLength="87.2" x="1406.8" y="1550.7992">returns jobOpening</text><polygon fill="#181818" points="815.6,1576.8422,807.6,1580.0422,815.6,1583.2422,812.4,1580.0422" style="stroke:#181818;stroke-width:0.8000000000000002;"/><line style="stroke:#181818;stroke-width:0.8000000000000002;stroke-dasharray:2.0,2.0;" x1="810.8" x2="1384.4" y1="1580.0422" y2="1580.0422"/><text fill="#000000" font-family="sans-serif" font-size="10.4" lengthAdjust="spacing" textLength="87.2" x="820.4" y="1575.832">returns jobOpening</text><polygon fill="#181818" points="562,1607.475,554,1610.675,562,1613.875,558.8,1610.675" style="stroke:#181818;stroke-width:0.8000000000000002;"/><line style="stroke:#181818;stroke-width:0.8000000000000002;stroke-dasharray:2.0,2.0;" x1="557.2" x2="802" y1="1610.675" y2="1610.675"/><text fill="#000000" font-family="sans-serif" font-size="10.4" lengthAdjust="spacing" textLength="148" x="566.8" y="1606.4648">displayJobOpening(JobOpening)</text><polygon fill="#181818" points="94,1632.5078,86,1635.7078,94,1638.9078,90.8,1635.7078" style="stroke:#181818;stroke-width:0.8000000000000002;"/><line style="stroke:#181818;stroke-width:0.8000000000000002;stroke-dasharray:2.0,2.0;" x1="89.2" x2="548.4" y1="1635.7078" y2="1635.7078"/><text fill="#000000" font-family="sans-serif" font-size="10.4" lengthAdjust="spacing" textLength="135.2" x="98.8" y="1631.4977">Displays updated jobOpening</text><!--SRC=[vLVVZzeu47xFNp77ou44gFkQ_I5HTcylgxAxWkNXL5KdanZ8RMhdR8Sj_UjlR2Un0mcqLVjqByZOyysCPxuPJrIgCWhB1LoyktW78tZAAGCk8Cwuf40Wtn99Wu342ZTxqq8g_fcA6M5aGqKFY8JfBCY9K6cSveGfw8NBF26AFl2LrfMopJ8oSii8hgwMqStD6V4fPqhmBAlKrtyHFidpB8s9IZaxqZCfr9OoLHulgDYbCJKgzCdNSWELbAiZ1Su57_pmr8P4byaA8zE0pMdEPOg1sfT8lO6mPofaAXLb9urQJFqNSRVyCqcFB_giK_Aopwr_zJyV49YCfJiChCxFT0QZ6vs048g3QFS7Jd8P1IY3abxCGo1PXkBI5tJdWIUAm4QaGw1C5e9wYQ79KbBn9v4JjdzQzz-ZwtEUKJcUBXSlJxEx-T-poUFa_cu-17SskPr5ZuDBPzwt4ZHCZWwTLwAWGKBReKtVNQBhEpkJzM7Wn0p6f3Y4TSgIIPRvGR9dGIaoEh0GAIh8AgDNBXKtlgCrklDg7v1ItUYsErOSE8NqKgkve8tE49AaCi_8NXvXuPzwBO6m10Jzjw1IWUAGihnGk8cBX7x1apKLGbCRpuW60hT8tm4aeKTNeq9Q1GsYjZ5rGvNpxFq-qg2-WRPpDnRK1Al673AYFWZrklBMkp9S-_SVemFM7emk1gsXTzBV4tJFe0vnXZcGw8tkSr87qnRrsIXQ1FIjkBbIfTQq-REjG6xv6w9Cov5zvrLxU3FESrZZiu5kRQq5zCGrhF6EP4YL_k0WxBL0s2PRMwhFWi3rmACggOy-VlBZuy0_wgNNgVsqZkD22Ens1jze1oxpWOVjTXXyJOtYTff8fY1TUvZVhfkmDWwMjB8UEcXUhOPhacaoj5BHoQVI3Wb9G3CTCz-Dwv_XXkxTW-yfauPlkbW3ofB0_9Hark9psw1SEKoI7S6dMHSIer-KzM08znnM97xLsxcWkvGNiYeJNLgjjNLKD274Mng__i55n9HkoVJDNjZAjnVEYJRqiuWMVYkxfbkEEJPTXjWujIPJK5K8rb2gIU2gQ36TtzqzHe_tbYsUsesDyu-fnMdXmr-BQ66It4qLdVeG9l9LQfxg6GJUS9WozkLhcaETdNBWrLS_5dE9nya2pKlexQdi3P44VdBnLJ0bPAzgr2ISIlQxCkfEQ6EyJPaPOZmMUrcqhTno8DuIjg67-7QAwVjPUHrFqgo0hi4eh0HV-2EAMQiUnHmvXx3YEBkPfx_36JUY78nK7jjRp7Nhww1zupqfYLIzON1zk3DcNPOksrwUrXUbevhQ9iSGciE4gByWnfBigF_4NdxJP5cLZEoODCwCbUVXLT8CjHs3i8YF-YG4tKJI5V_2dqlvNy-aDdk_cahvAMl_NphfHdRKw-jNtFioVV3copDJG0YtrH1WEsBIuR3-SWY2_m00]--></g></svg>