<?xml version="1.0" encoding="us-ascii" standalone="no"?><svg xmlns="http://www.w3.org/2000/svg" xmlns:xlink="http://www.w3.org/1999/xlink" contentStyleType="text/css" height="1394px" preserveAspectRatio="none" style="width:1662px;height:1394px;background:#FFFFFF;" version="1.1" viewBox="0 0 1662 1394" width="1662px" zoomAndPan="magnify"><defs/><g><!--cluster Job Opening--><g id="cluster_Job Opening"><rect fill="#BBCCAA" height="382" rx="2.5" ry="2.5" style="stroke:#181818;stroke-width:1.0;" width="647" x="709" y="372"/><text fill="#000000" font-family="sans-serif" font-size="14" font-weight="bold" lengthAdjust="spacing" textLength="90" x="987.5" y="389.1074">Job Opening</text></g><!--cluster Job Opening Application--><g id="cluster_Job Opening Application"><rect fill="#AACCBB" height="252" rx="2.5" ry="2.5" style="stroke:#181818;stroke-width:1.0;" width="964" x="7" y="7"/><text fill="#000000" font-family="sans-serif" font-size="14" font-weight="bold" lengthAdjust="spacing" textLength="172" x="403" y="24.1074">Job Opening Application</text></g><!--cluster candidate--><g id="cluster_candidate"><rect fill="#AABBCC" height="252" rx="2.5" ry="2.5" style="stroke:#181818;stroke-width:1.0;" width="313" x="1045" y="7"/><text fill="#000000" font-family="sans-serif" font-size="14" font-weight="bold" lengthAdjust="spacing" textLength="69" x="1167" y="24.1074">candidate</text></g><!--cluster Job Opening Process--><g id="cluster_Job Opening Process"><rect fill="#CCBBCC" height="459" rx="2.5" ry="2.5" style="stroke:#181818;stroke-width:1.0;" width="612" x="1044" y="929"/><text fill="#000000" font-family="sans-serif" font-size="14" font-weight="bold" lengthAdjust="spacing" textLength="151" x="1274.5" y="946.1074">Job Opening Process</text></g><!--class JobOpening--><g id="elem_JobOpening"><rect codeLine="7" fill="#F1F1F1" height="68.543" id="JobOpening" rx="2.5" ry="2.5" style="stroke:#181818;stroke-width:0.5;" width="128" x="1054" y="539"/><ellipse cx="1069" cy="569.2715" fill="#ADD1B2" rx="11" ry="11" style="stroke:#181818;stroke-width:1.0;"/><path d="M1071.7656,565.1465 Q1071.9219,564.9277 1072.1094,564.8184 Q1072.2969,564.709 1072.5156,564.709 Q1072.8906,564.709 1073.125,564.9746 Q1073.3594,565.2246 1073.3594,565.834 L1073.3594,567.2871 Q1073.3594,567.8965 1073.125,568.1621 Q1072.8906,568.4277 1072.5156,568.4277 Q1072.1719,568.4277 1071.9688,568.2246 Q1071.7656,568.0371 1071.6563,567.5215 Q1071.6094,567.1621 1071.4219,566.9746 Q1071.0938,566.5996 1070.4844,566.3809 Q1069.875,566.1621 1069.25,566.1621 Q1068.4844,566.1621 1067.8438,566.4902 Q1067.2188,566.8184 1066.7188,567.5684 Q1066.2344,568.3184 1066.2344,569.3496 L1066.2344,570.4434 Q1066.2344,571.6777 1067.125,572.5059 Q1068.0156,573.3184 1069.6094,573.3184 Q1070.5469,573.3184 1071.2031,573.0684 Q1071.5938,572.9121 1072.0156,572.4746 Q1072.2813,572.209 1072.4219,572.1309 Q1072.5781,572.0527 1072.7813,572.0527 Q1073.1094,572.0527 1073.3594,572.3184 Q1073.625,572.5684 1073.625,572.9121 Q1073.625,573.2559 1073.2813,573.6621 Q1072.7813,574.2402 1071.9844,574.5684 Q1070.9063,575.0215 1069.6094,575.0215 Q1068.0938,575.0215 1066.8906,574.3965 Q1065.9063,573.8965 1065.2188,572.834 Q1064.5313,571.7559 1064.5313,570.4746 L1064.5313,569.3184 Q1064.5313,567.9902 1065.1406,566.8496 Q1065.7656,565.6934 1066.8594,565.084 Q1067.9531,564.459 1069.1875,564.459 Q1069.9219,564.459 1070.5625,564.6309 Q1071.2188,564.7871 1071.7656,565.1465 Z " fill="#000000"/><text fill="#000000" font-family="sans-serif" font-size="12" font-style="italic" lengthAdjust="spacing" textLength="100" x="1081" y="556.9492">&#171;Aggregate Root&#187;</text><text fill="#000000" font-family="sans-serif" font-size="12" font-style="italic" lengthAdjust="spacing" textLength="44" x="1109" y="572.9102">&#171;Entity&#187;</text><text fill="#000000" font-family="sans-serif" font-size="14" lengthAdjust="spacing" textLength="76" x="1093" y="591.0293">JobOpening</text><line style="stroke:#181818;stroke-width:0.5;" x1="1055" x2="1181" y1="599.543" y2="599.543"/></g><!--class JobReference--><g id="elem_JobReference"><rect codeLine="9" fill="#F1F1F1" height="68.543" id="JobReference" rx="2.5" ry="2.5" style="stroke:#181818;stroke-width:0.5;" width="120" x="725" y="669"/><ellipse cx="740" cy="699.2715" fill="#ADD1B2" rx="11" ry="11" style="stroke:#181818;stroke-width:1.0;"/><path d="M742.7656,695.1465 Q742.9219,694.9277 743.1094,694.8184 Q743.2969,694.709 743.5156,694.709 Q743.8906,694.709 744.125,694.9746 Q744.3594,695.2246 744.3594,695.834 L744.3594,697.2871 Q744.3594,697.8965 744.125,698.1621 Q743.8906,698.4277 743.5156,698.4277 Q743.1719,698.4277 742.9688,698.2246 Q742.7656,698.0371 742.6563,697.5215 Q742.6094,697.1621 742.4219,696.9746 Q742.0938,696.5996 741.4844,696.3809 Q740.875,696.1621 740.25,696.1621 Q739.4844,696.1621 738.8438,696.4902 Q738.2188,696.8184 737.7188,697.5684 Q737.2344,698.3184 737.2344,699.3496 L737.2344,700.4434 Q737.2344,701.6777 738.125,702.5059 Q739.0156,703.3184 740.6094,703.3184 Q741.5469,703.3184 742.2031,703.0684 Q742.5938,702.9121 743.0156,702.4746 Q743.2813,702.209 743.4219,702.1309 Q743.5781,702.0527 743.7813,702.0527 Q744.1094,702.0527 744.3594,702.3184 Q744.625,702.5684 744.625,702.9121 Q744.625,703.2559 744.2813,703.6621 Q743.7813,704.2402 742.9844,704.5684 Q741.9063,705.0215 740.6094,705.0215 Q739.0938,705.0215 737.8906,704.3965 Q736.9063,703.8965 736.2188,702.834 Q735.5313,701.7559 735.5313,700.4746 L735.5313,699.3184 Q735.5313,697.9902 736.1406,696.8496 Q736.7656,695.6934 737.8594,695.084 Q738.9531,694.459 740.1875,694.459 Q740.9219,694.459 741.5625,694.6309 Q742.2188,694.7871 742.7656,695.1465 Z " fill="#000000"/><text fill="#000000" font-family="sans-serif" font-size="12" font-style="italic" lengthAdjust="spacing" textLength="54" x="771" y="686.9492">&#171;Identity&#187;</text><text fill="#000000" font-family="sans-serif" font-size="12" font-style="italic" lengthAdjust="spacing" textLength="85" x="755.5" y="702.9102">&#171;Value Object&#187;</text><text fill="#000000" font-family="sans-serif" font-size="14" lengthAdjust="spacing" textLength="88" x="754" y="721.0293">JobReference</text><line style="stroke:#181818;stroke-width:0.5;" x1="726" x2="844" y1="729.543" y2="729.543"/></g><!--class TitleOrFunction--><g id="elem_TitleOrFunction"><rect codeLine="11" fill="#F1F1F1" height="52.582" id="TitleOrFunction" rx="2.5" ry="2.5" style="stroke:#181818;stroke-width:0.5;" width="130" x="880" y="677"/><ellipse cx="895" cy="699.291" fill="#ADD1B2" rx="11" ry="11" style="stroke:#181818;stroke-width:1.0;"/><path d="M897.7656,695.166 Q897.9219,694.9473 898.1094,694.8379 Q898.2969,694.7285 898.5156,694.7285 Q898.8906,694.7285 899.125,694.9941 Q899.3594,695.2441 899.3594,695.8535 L899.3594,697.3066 Q899.3594,697.916 899.125,698.1816 Q898.8906,698.4473 898.5156,698.4473 Q898.1719,698.4473 897.9688,698.2441 Q897.7656,698.0566 897.6563,697.541 Q897.6094,697.1816 897.4219,696.9941 Q897.0938,696.6191 896.4844,696.4004 Q895.875,696.1816 895.25,696.1816 Q894.4844,696.1816 893.8438,696.5098 Q893.2188,696.8379 892.7188,697.5879 Q892.2344,698.3379 892.2344,699.3691 L892.2344,700.4629 Q892.2344,701.6973 893.125,702.5254 Q894.0156,703.3379 895.6094,703.3379 Q896.5469,703.3379 897.2031,703.0879 Q897.5938,702.9316 898.0156,702.4941 Q898.2813,702.2285 898.4219,702.1504 Q898.5781,702.0723 898.7813,702.0723 Q899.1094,702.0723 899.3594,702.3379 Q899.625,702.5879 899.625,702.9316 Q899.625,703.2754 899.2813,703.6816 Q898.7813,704.2598 897.9844,704.5879 Q896.9063,705.041 895.6094,705.041 Q894.0938,705.041 892.8906,704.416 Q891.9063,703.916 891.2188,702.8535 Q890.5313,701.7754 890.5313,700.4941 L890.5313,699.3379 Q890.5313,698.0098 891.1406,696.8691 Q891.7656,695.7129 892.8594,695.1035 Q893.9531,694.4785 895.1875,694.4785 Q895.9219,694.4785 896.5625,694.6504 Q897.2188,694.8066 897.7656,695.166 Z " fill="#000000"/><text fill="#000000" font-family="sans-serif" font-size="12" font-style="italic" lengthAdjust="spacing" textLength="85" x="915.5" y="694.9492">&#171;Value Object&#187;</text><text fill="#000000" font-family="sans-serif" font-size="14" lengthAdjust="spacing" textLength="98" x="909" y="713.0684">TitleOrFunction</text><line style="stroke:#181818;stroke-width:0.5;" x1="881" x2="1009" y1="721.582" y2="721.582"/></g><!--class ContractType--><g id="elem_ContractType"><rect codeLine="13" fill="#F1F1F1" height="68.543" id="ContractType" rx="2.5" ry="2.5" style="stroke:#181818;stroke-width:0.5;" width="118" x="1210" y="409"/><ellipse cx="1225" cy="439.2715" fill="#EB937F" rx="11" ry="11" style="stroke:#181818;stroke-width:1.0;"/><path d="M1223.8594,440.0684 L1223.8594,442.5684 L1228.1875,442.5684 L1228.1875,441.6465 Q1228.1875,441.0371 1228.4219,440.7715 Q1228.6719,440.5059 1229.0469,440.5059 Q1229.4219,440.5059 1229.6563,440.7715 Q1229.8906,441.0371 1229.8906,441.6465 L1229.8906,444.2715 L1221.8906,444.2715 Q1221.2656,444.2715 1221,444.0371 Q1220.75,443.8027 1220.75,443.4121 Q1220.75,443.0371 1221.0156,442.8027 Q1221.2813,442.5684 1221.8906,442.5684 L1222.1563,442.5684 L1222.1563,435.9121 L1221.8906,435.9121 Q1221.2656,435.9121 1221,435.6777 Q1220.75,435.4434 1220.75,435.0527 Q1220.75,434.6777 1221,434.4434 Q1221.2656,434.209 1221.8906,434.209 L1229.5156,434.209 L1229.5156,436.8027 Q1229.5156,437.4121 1229.2813,437.6777 Q1229.0625,437.9277 1228.6719,437.9277 Q1228.2969,437.9277 1228.0625,437.6777 Q1227.8281,437.4121 1227.8281,436.8027 L1227.8281,435.9121 L1223.8594,435.9121 L1223.8594,438.3652 L1225.3438,438.3652 Q1225.3438,437.709 1225.4688,437.5215 Q1225.7344,437.1152 1226.2031,437.1152 Q1226.5781,437.1152 1226.8125,437.3809 Q1227.0469,437.6309 1227.0469,438.2402 L1227.0469,440.209 Q1227.0469,440.7559 1226.9219,440.9434 Q1226.6563,441.334 1226.2031,441.334 Q1225.7344,441.334 1225.4688,440.9277 Q1225.3438,440.7402 1225.3438,440.0684 L1223.8594,440.0684 Z " fill="#000000"/><text fill="#000000" font-family="sans-serif" font-size="12" font-style="italic" lengthAdjust="spacing" textLength="82" x="1241" y="426.9492">&#171;Enumerated&#187;</text><text fill="#000000" font-family="sans-serif" font-size="12" font-style="italic" lengthAdjust="spacing" textLength="85" x="1239.5" y="442.9102">&#171;Value Object&#187;</text><text fill="#000000" font-family="sans-serif" font-size="14" lengthAdjust="spacing" textLength="86" x="1239" y="461.0293">ContractType</text><line style="stroke:#181818;stroke-width:0.5;" x1="1211" x2="1327" y1="469.543" y2="469.543"/></g><!--class Mode--><g id="elem_Mode"><rect codeLine="15" fill="#F1F1F1" height="68.543" id="Mode" rx="2.5" ry="2.5" style="stroke:#181818;stroke-width:0.5;" width="113" x="1061.5" y="409"/><ellipse cx="1076.5" cy="439.2715" fill="#ADD1B2" rx="11" ry="11" style="stroke:#181818;stroke-width:1.0;"/><path d="M1079.2656,435.1465 Q1079.4219,434.9277 1079.6094,434.8184 Q1079.7969,434.709 1080.0156,434.709 Q1080.3906,434.709 1080.625,434.9746 Q1080.8594,435.2246 1080.8594,435.834 L1080.8594,437.2871 Q1080.8594,437.8965 1080.625,438.1621 Q1080.3906,438.4277 1080.0156,438.4277 Q1079.6719,438.4277 1079.4688,438.2246 Q1079.2656,438.0371 1079.1563,437.5215 Q1079.1094,437.1621 1078.9219,436.9746 Q1078.5938,436.5996 1077.9844,436.3809 Q1077.375,436.1621 1076.75,436.1621 Q1075.9844,436.1621 1075.3438,436.4902 Q1074.7188,436.8184 1074.2188,437.5684 Q1073.7344,438.3184 1073.7344,439.3496 L1073.7344,440.4434 Q1073.7344,441.6777 1074.625,442.5059 Q1075.5156,443.3184 1077.1094,443.3184 Q1078.0469,443.3184 1078.7031,443.0684 Q1079.0938,442.9121 1079.5156,442.4746 Q1079.7813,442.209 1079.9219,442.1309 Q1080.0781,442.0527 1080.2813,442.0527 Q1080.6094,442.0527 1080.8594,442.3184 Q1081.125,442.5684 1081.125,442.9121 Q1081.125,443.2559 1080.7813,443.6621 Q1080.2813,444.2402 1079.4844,444.5684 Q1078.4063,445.0215 1077.1094,445.0215 Q1075.5938,445.0215 1074.3906,444.3965 Q1073.4063,443.8965 1072.7188,442.834 Q1072.0313,441.7559 1072.0313,440.4746 L1072.0313,439.3184 Q1072.0313,437.9902 1072.6406,436.8496 Q1073.2656,435.6934 1074.3594,435.084 Q1075.4531,434.459 1076.6875,434.459 Q1077.4219,434.459 1078.0625,434.6309 Q1078.7188,434.7871 1079.2656,435.1465 Z " fill="#000000"/><text fill="#000000" font-family="sans-serif" font-size="12" font-style="italic" lengthAdjust="spacing" textLength="82" x="1090" y="426.9492">&#171;Enumerated&#187;</text><text fill="#000000" font-family="sans-serif" font-size="12" font-style="italic" lengthAdjust="spacing" textLength="85" x="1088.5" y="442.9102">&#171;Value Object&#187;</text><text fill="#000000" font-family="sans-serif" font-size="14" lengthAdjust="spacing" textLength="35" x="1113.5" y="461.0293">Mode</text><line style="stroke:#181818;stroke-width:0.5;" x1="1062.5" x2="1173.5" y1="469.543" y2="469.543"/></g><!--class VacanciesNumber--><g id="elem_VacanciesNumber"><rect codeLine="18" fill="#F1F1F1" height="52.582" id="VacanciesNumber" rx="2.5" ry="2.5" style="stroke:#181818;stroke-width:0.5;" width="146" x="1045" y="677"/><ellipse cx="1060" cy="699.291" fill="#ADD1B2" rx="11" ry="11" style="stroke:#181818;stroke-width:1.0;"/><path d="M1062.7656,695.166 Q1062.9219,694.9473 1063.1094,694.8379 Q1063.2969,694.7285 1063.5156,694.7285 Q1063.8906,694.7285 1064.125,694.9941 Q1064.3594,695.2441 1064.3594,695.8535 L1064.3594,697.3066 Q1064.3594,697.916 1064.125,698.1816 Q1063.8906,698.4473 1063.5156,698.4473 Q1063.1719,698.4473 1062.9688,698.2441 Q1062.7656,698.0566 1062.6563,697.541 Q1062.6094,697.1816 1062.4219,696.9941 Q1062.0938,696.6191 1061.4844,696.4004 Q1060.875,696.1816 1060.25,696.1816 Q1059.4844,696.1816 1058.8438,696.5098 Q1058.2188,696.8379 1057.7188,697.5879 Q1057.2344,698.3379 1057.2344,699.3691 L1057.2344,700.4629 Q1057.2344,701.6973 1058.125,702.5254 Q1059.0156,703.3379 1060.6094,703.3379 Q1061.5469,703.3379 1062.2031,703.0879 Q1062.5938,702.9316 1063.0156,702.4941 Q1063.2813,702.2285 1063.4219,702.1504 Q1063.5781,702.0723 1063.7813,702.0723 Q1064.1094,702.0723 1064.3594,702.3379 Q1064.625,702.5879 1064.625,702.9316 Q1064.625,703.2754 1064.2813,703.6816 Q1063.7813,704.2598 1062.9844,704.5879 Q1061.9063,705.041 1060.6094,705.041 Q1059.0938,705.041 1057.8906,704.416 Q1056.9063,703.916 1056.2188,702.8535 Q1055.5313,701.7754 1055.5313,700.4941 L1055.5313,699.3379 Q1055.5313,698.0098 1056.1406,696.8691 Q1056.7656,695.7129 1057.8594,695.1035 Q1058.9531,694.4785 1060.1875,694.4785 Q1060.9219,694.4785 1061.5625,694.6504 Q1062.2188,694.8066 1062.7656,695.166 Z " fill="#000000"/><text fill="#000000" font-family="sans-serif" font-size="12" font-style="italic" lengthAdjust="spacing" textLength="85" x="1088.5" y="694.9492">&#171;Value Object&#187;</text><text fill="#000000" font-family="sans-serif" font-size="14" lengthAdjust="spacing" textLength="114" x="1074" y="713.0684">VacanciesNumber</text><line style="stroke:#181818;stroke-width:0.5;" x1="1046" x2="1190" y1="721.582" y2="721.582"/></g><!--class Description--><g id="elem_Description"><rect codeLine="20" fill="#F1F1F1" height="52.582" id="Description" rx="2.5" ry="2.5" style="stroke:#181818;stroke-width:0.5;" width="113" x="1226.5" y="677"/><ellipse cx="1241.5" cy="699.291" fill="#ADD1B2" rx="11" ry="11" style="stroke:#181818;stroke-width:1.0;"/><path d="M1244.2656,695.166 Q1244.4219,694.9473 1244.6094,694.8379 Q1244.7969,694.7285 1245.0156,694.7285 Q1245.3906,694.7285 1245.625,694.9941 Q1245.8594,695.2441 1245.8594,695.8535 L1245.8594,697.3066 Q1245.8594,697.916 1245.625,698.1816 Q1245.3906,698.4473 1245.0156,698.4473 Q1244.6719,698.4473 1244.4688,698.2441 Q1244.2656,698.0566 1244.1563,697.541 Q1244.1094,697.1816 1243.9219,696.9941 Q1243.5938,696.6191 1242.9844,696.4004 Q1242.375,696.1816 1241.75,696.1816 Q1240.9844,696.1816 1240.3438,696.5098 Q1239.7188,696.8379 1239.2188,697.5879 Q1238.7344,698.3379 1238.7344,699.3691 L1238.7344,700.4629 Q1238.7344,701.6973 1239.625,702.5254 Q1240.5156,703.3379 1242.1094,703.3379 Q1243.0469,703.3379 1243.7031,703.0879 Q1244.0938,702.9316 1244.5156,702.4941 Q1244.7813,702.2285 1244.9219,702.1504 Q1245.0781,702.0723 1245.2813,702.0723 Q1245.6094,702.0723 1245.8594,702.3379 Q1246.125,702.5879 1246.125,702.9316 Q1246.125,703.2754 1245.7813,703.6816 Q1245.2813,704.2598 1244.4844,704.5879 Q1243.4063,705.041 1242.1094,705.041 Q1240.5938,705.041 1239.3906,704.416 Q1238.4063,703.916 1237.7188,702.8535 Q1237.0313,701.7754 1237.0313,700.4941 L1237.0313,699.3379 Q1237.0313,698.0098 1237.6406,696.8691 Q1238.2656,695.7129 1239.3594,695.1035 Q1240.4531,694.4785 1241.6875,694.4785 Q1242.4219,694.4785 1243.0625,694.6504 Q1243.7188,694.8066 1244.2656,695.166 Z " fill="#000000"/><text fill="#000000" font-family="sans-serif" font-size="12" font-style="italic" lengthAdjust="spacing" textLength="85" x="1253.5" y="694.9492">&#171;Value Object&#187;</text><text fill="#000000" font-family="sans-serif" font-size="14" lengthAdjust="spacing" textLength="71" x="1260.5" y="713.0684">Description</text><line style="stroke:#181818;stroke-width:0.5;" x1="1227.5" x2="1338.5" y1="721.582" y2="721.582"/></g><!--class Application--><g id="elem_Application"><rect codeLine="28" fill="#F1F1F1" height="68.543" id="Application" rx="2.5" ry="2.5" style="stroke:#181818;stroke-width:0.5;" width="128" x="540" y="44"/><ellipse cx="555" cy="74.2715" fill="#ADD1B2" rx="11" ry="11" style="stroke:#181818;stroke-width:1.0;"/><path d="M557.7656,70.1465 Q557.9219,69.9277 558.1094,69.8184 Q558.2969,69.709 558.5156,69.709 Q558.8906,69.709 559.125,69.9746 Q559.3594,70.2246 559.3594,70.834 L559.3594,72.2871 Q559.3594,72.8965 559.125,73.1621 Q558.8906,73.4277 558.5156,73.4277 Q558.1719,73.4277 557.9688,73.2246 Q557.7656,73.0371 557.6563,72.5215 Q557.6094,72.1621 557.4219,71.9746 Q557.0938,71.5996 556.4844,71.3809 Q555.875,71.1621 555.25,71.1621 Q554.4844,71.1621 553.8438,71.4902 Q553.2188,71.8184 552.7188,72.5684 Q552.2344,73.3184 552.2344,74.3496 L552.2344,75.4434 Q552.2344,76.6777 553.125,77.5059 Q554.0156,78.3184 555.6094,78.3184 Q556.5469,78.3184 557.2031,78.0684 Q557.5938,77.9121 558.0156,77.4746 Q558.2813,77.209 558.4219,77.1309 Q558.5781,77.0527 558.7813,77.0527 Q559.1094,77.0527 559.3594,77.3184 Q559.625,77.5684 559.625,77.9121 Q559.625,78.2559 559.2813,78.6621 Q558.7813,79.2402 557.9844,79.5684 Q556.9063,80.0215 555.6094,80.0215 Q554.0938,80.0215 552.8906,79.3965 Q551.9063,78.8965 551.2188,77.834 Q550.5313,76.7559 550.5313,75.4746 L550.5313,74.3184 Q550.5313,72.9902 551.1406,71.8496 Q551.7656,70.6934 552.8594,70.084 Q553.9531,69.459 555.1875,69.459 Q555.9219,69.459 556.5625,69.6309 Q557.2188,69.7871 557.7656,70.1465 Z " fill="#000000"/><text fill="#000000" font-family="sans-serif" font-size="12" font-style="italic" lengthAdjust="spacing" textLength="100" x="567" y="61.9492">&#171;Aggregate Root&#187;</text><text fill="#000000" font-family="sans-serif" font-size="12" font-style="italic" lengthAdjust="spacing" textLength="44" x="595" y="77.9102">&#171;Entity&#187;</text><text fill="#000000" font-family="sans-serif" font-size="14" lengthAdjust="spacing" textLength="69" x="582.5" y="96.0293">Application</text><line style="stroke:#181818;stroke-width:0.5;" x1="541" x2="667" y1="104.543" y2="104.543"/></g><!--class ApplicationId--><g id="elem_ApplicationId"><rect codeLine="30" fill="#F1F1F1" height="68.543" id="ApplicationId" rx="2.5" ry="2.5" style="stroke:#181818;stroke-width:0.5;" width="113" x="23.5" y="174"/><ellipse cx="38.5" cy="204.2715" fill="#ADD1B2" rx="11" ry="11" style="stroke:#181818;stroke-width:1.0;"/><path d="M41.2656,200.1465 Q41.4219,199.9277 41.6094,199.8184 Q41.7969,199.709 42.0156,199.709 Q42.3906,199.709 42.625,199.9746 Q42.8594,200.2246 42.8594,200.834 L42.8594,202.2871 Q42.8594,202.8965 42.625,203.1621 Q42.3906,203.4277 42.0156,203.4277 Q41.6719,203.4277 41.4688,203.2246 Q41.2656,203.0371 41.1563,202.5215 Q41.1094,202.1621 40.9219,201.9746 Q40.5938,201.5996 39.9844,201.3809 Q39.375,201.1621 38.75,201.1621 Q37.9844,201.1621 37.3438,201.4902 Q36.7188,201.8184 36.2188,202.5684 Q35.7344,203.3184 35.7344,204.3496 L35.7344,205.4434 Q35.7344,206.6777 36.625,207.5059 Q37.5156,208.3184 39.1094,208.3184 Q40.0469,208.3184 40.7031,208.0684 Q41.0938,207.9121 41.5156,207.4746 Q41.7813,207.209 41.9219,207.1309 Q42.0781,207.0527 42.2813,207.0527 Q42.6094,207.0527 42.8594,207.3184 Q43.125,207.5684 43.125,207.9121 Q43.125,208.2559 42.7813,208.6621 Q42.2813,209.2402 41.4844,209.5684 Q40.4063,210.0215 39.1094,210.0215 Q37.5938,210.0215 36.3906,209.3965 Q35.4063,208.8965 34.7188,207.834 Q34.0313,206.7559 34.0313,205.4746 L34.0313,204.3184 Q34.0313,202.9902 34.6406,201.8496 Q35.2656,200.6934 36.3594,200.084 Q37.4531,199.459 38.6875,199.459 Q39.4219,199.459 40.0625,199.6309 Q40.7188,199.7871 41.2656,200.1465 Z " fill="#000000"/><text fill="#000000" font-family="sans-serif" font-size="12" font-style="italic" lengthAdjust="spacing" textLength="54" x="66" y="191.9492">&#171;Identity&#187;</text><text fill="#000000" font-family="sans-serif" font-size="12" font-style="italic" lengthAdjust="spacing" textLength="85" x="50.5" y="207.9102">&#171;Value Object&#187;</text><text fill="#000000" font-family="sans-serif" font-size="14" lengthAdjust="spacing" textLength="80" x="53" y="226.0293">ApplicationId</text><line style="stroke:#181818;stroke-width:0.5;" x1="24.5" x2="135.5" y1="234.543" y2="234.543"/></g><!--class AttachedEmail--><g id="elem_AttachedEmail"><rect codeLine="32" fill="#F1F1F1" height="52.582" id="AttachedEmail" rx="2.5" ry="2.5" style="stroke:#181818;stroke-width:0.5;" width="122" x="172" y="182"/><ellipse cx="187" cy="204.291" fill="#ADD1B2" rx="11" ry="11" style="stroke:#181818;stroke-width:1.0;"/><path d="M189.7656,200.166 Q189.9219,199.9473 190.1094,199.8379 Q190.2969,199.7285 190.5156,199.7285 Q190.8906,199.7285 191.125,199.9941 Q191.3594,200.2441 191.3594,200.8535 L191.3594,202.3066 Q191.3594,202.916 191.125,203.1816 Q190.8906,203.4473 190.5156,203.4473 Q190.1719,203.4473 189.9688,203.2441 Q189.7656,203.0566 189.6563,202.541 Q189.6094,202.1816 189.4219,201.9941 Q189.0938,201.6191 188.4844,201.4004 Q187.875,201.1816 187.25,201.1816 Q186.4844,201.1816 185.8438,201.5098 Q185.2188,201.8379 184.7188,202.5879 Q184.2344,203.3379 184.2344,204.3691 L184.2344,205.4629 Q184.2344,206.6973 185.125,207.5254 Q186.0156,208.3379 187.6094,208.3379 Q188.5469,208.3379 189.2031,208.0879 Q189.5938,207.9316 190.0156,207.4941 Q190.2813,207.2285 190.4219,207.1504 Q190.5781,207.0723 190.7813,207.0723 Q191.1094,207.0723 191.3594,207.3379 Q191.625,207.5879 191.625,207.9316 Q191.625,208.2754 191.2813,208.6816 Q190.7813,209.2598 189.9844,209.5879 Q188.9063,210.041 187.6094,210.041 Q186.0938,210.041 184.8906,209.416 Q183.9063,208.916 183.2188,207.8535 Q182.5313,206.7754 182.5313,205.4941 L182.5313,204.3379 Q182.5313,203.0098 183.1406,201.8691 Q183.7656,200.7129 184.8594,200.1035 Q185.9531,199.4785 187.1875,199.4785 Q187.9219,199.4785 188.5625,199.6504 Q189.2188,199.8066 189.7656,200.166 Z " fill="#000000"/><text fill="#000000" font-family="sans-serif" font-size="12" font-style="italic" lengthAdjust="spacing" textLength="85" x="203.5" y="199.9492">&#171;Value Object&#187;</text><text fill="#000000" font-family="sans-serif" font-size="14" lengthAdjust="spacing" textLength="90" x="201" y="218.0684">AttachedEmail</text><line style="stroke:#181818;stroke-width:0.5;" x1="173" x2="293" y1="226.582" y2="226.582"/></g><!--class AttachedFile--><g id="elem_AttachedFile"><rect codeLine="34" fill="#F1F1F1" height="52.582" id="AttachedFile" rx="2.5" ry="2.5" style="stroke:#181818;stroke-width:0.5;" width="113" x="329.5" y="182"/><ellipse cx="344.5" cy="204.291" fill="#ADD1B2" rx="11" ry="11" style="stroke:#181818;stroke-width:1.0;"/><path d="M347.2656,200.166 Q347.4219,199.9473 347.6094,199.8379 Q347.7969,199.7285 348.0156,199.7285 Q348.3906,199.7285 348.625,199.9941 Q348.8594,200.2441 348.8594,200.8535 L348.8594,202.3066 Q348.8594,202.916 348.625,203.1816 Q348.3906,203.4473 348.0156,203.4473 Q347.6719,203.4473 347.4688,203.2441 Q347.2656,203.0566 347.1563,202.541 Q347.1094,202.1816 346.9219,201.9941 Q346.5938,201.6191 345.9844,201.4004 Q345.375,201.1816 344.75,201.1816 Q343.9844,201.1816 343.3438,201.5098 Q342.7188,201.8379 342.2188,202.5879 Q341.7344,203.3379 341.7344,204.3691 L341.7344,205.4629 Q341.7344,206.6973 342.625,207.5254 Q343.5156,208.3379 345.1094,208.3379 Q346.0469,208.3379 346.7031,208.0879 Q347.0938,207.9316 347.5156,207.4941 Q347.7813,207.2285 347.9219,207.1504 Q348.0781,207.0723 348.2813,207.0723 Q348.6094,207.0723 348.8594,207.3379 Q349.125,207.5879 349.125,207.9316 Q349.125,208.2754 348.7813,208.6816 Q348.2813,209.2598 347.4844,209.5879 Q346.4063,210.041 345.1094,210.041 Q343.5938,210.041 342.3906,209.416 Q341.4063,208.916 340.7188,207.8535 Q340.0313,206.7754 340.0313,205.4941 L340.0313,204.3379 Q340.0313,203.0098 340.6406,201.8691 Q341.2656,200.7129 342.3594,200.1035 Q343.4531,199.4785 344.6875,199.4785 Q345.4219,199.4785 346.0625,199.6504 Q346.7188,199.8066 347.2656,200.166 Z " fill="#000000"/><text fill="#000000" font-family="sans-serif" font-size="12" font-style="italic" lengthAdjust="spacing" textLength="85" x="356.5" y="199.9492">&#171;Value Object&#187;</text><text fill="#000000" font-family="sans-serif" font-size="14" lengthAdjust="spacing" textLength="79" x="359.5" y="218.0684">AttachedFile</text><line style="stroke:#181818;stroke-width:0.5;" x1="330.5" x2="441.5" y1="226.582" y2="226.582"/></g><!--class ApplicatorData--><g id="elem_ApplicatorData"><rect codeLine="36" fill="#F1F1F1" height="52.582" id="ApplicatorData" rx="2.5" ry="2.5" style="stroke:#181818;stroke-width:0.5;" width="125" x="477.5" y="182"/><ellipse cx="492.5" cy="204.291" fill="#ADD1B2" rx="11" ry="11" style="stroke:#181818;stroke-width:1.0;"/><path d="M495.2656,200.166 Q495.4219,199.9473 495.6094,199.8379 Q495.7969,199.7285 496.0156,199.7285 Q496.3906,199.7285 496.625,199.9941 Q496.8594,200.2441 496.8594,200.8535 L496.8594,202.3066 Q496.8594,202.916 496.625,203.1816 Q496.3906,203.4473 496.0156,203.4473 Q495.6719,203.4473 495.4688,203.2441 Q495.2656,203.0566 495.1563,202.541 Q495.1094,202.1816 494.9219,201.9941 Q494.5938,201.6191 493.9844,201.4004 Q493.375,201.1816 492.75,201.1816 Q491.9844,201.1816 491.3438,201.5098 Q490.7188,201.8379 490.2188,202.5879 Q489.7344,203.3379 489.7344,204.3691 L489.7344,205.4629 Q489.7344,206.6973 490.625,207.5254 Q491.5156,208.3379 493.1094,208.3379 Q494.0469,208.3379 494.7031,208.0879 Q495.0938,207.9316 495.5156,207.4941 Q495.7813,207.2285 495.9219,207.1504 Q496.0781,207.0723 496.2813,207.0723 Q496.6094,207.0723 496.8594,207.3379 Q497.125,207.5879 497.125,207.9316 Q497.125,208.2754 496.7813,208.6816 Q496.2813,209.2598 495.4844,209.5879 Q494.4063,210.041 493.1094,210.041 Q491.5938,210.041 490.3906,209.416 Q489.4063,208.916 488.7188,207.8535 Q488.0313,206.7754 488.0313,205.4941 L488.0313,204.3379 Q488.0313,203.0098 488.6406,201.8691 Q489.2656,200.7129 490.3594,200.1035 Q491.4531,199.4785 492.6875,199.4785 Q493.4219,199.4785 494.0625,199.6504 Q494.7188,199.8066 495.2656,200.166 Z " fill="#000000"/><text fill="#000000" font-family="sans-serif" font-size="12" font-style="italic" lengthAdjust="spacing" textLength="85" x="510.5" y="199.9492">&#171;Value Object&#187;</text><text fill="#000000" font-family="sans-serif" font-size="14" lengthAdjust="spacing" textLength="93" x="506.5" y="218.0684">ApplicatorData</text><line style="stroke:#181818;stroke-width:0.5;" x1="478.5" x2="601.5" y1="226.582" y2="226.582"/></g><!--class ApplicationStatus--><g id="elem_ApplicationStatus"><rect codeLine="38" fill="#F1F1F1" height="52.582" id="ApplicationStatus" rx="2.5" ry="2.5" style="stroke:#181818;stroke-width:0.5;" width="141" x="637.5" y="182"/><ellipse cx="652.5" cy="204.291" fill="#ADD1B2" rx="11" ry="11" style="stroke:#181818;stroke-width:1.0;"/><path d="M655.2656,200.166 Q655.4219,199.9473 655.6094,199.8379 Q655.7969,199.7285 656.0156,199.7285 Q656.3906,199.7285 656.625,199.9941 Q656.8594,200.2441 656.8594,200.8535 L656.8594,202.3066 Q656.8594,202.916 656.625,203.1816 Q656.3906,203.4473 656.0156,203.4473 Q655.6719,203.4473 655.4688,203.2441 Q655.2656,203.0566 655.1563,202.541 Q655.1094,202.1816 654.9219,201.9941 Q654.5938,201.6191 653.9844,201.4004 Q653.375,201.1816 652.75,201.1816 Q651.9844,201.1816 651.3438,201.5098 Q650.7188,201.8379 650.2188,202.5879 Q649.7344,203.3379 649.7344,204.3691 L649.7344,205.4629 Q649.7344,206.6973 650.625,207.5254 Q651.5156,208.3379 653.1094,208.3379 Q654.0469,208.3379 654.7031,208.0879 Q655.0938,207.9316 655.5156,207.4941 Q655.7813,207.2285 655.9219,207.1504 Q656.0781,207.0723 656.2813,207.0723 Q656.6094,207.0723 656.8594,207.3379 Q657.125,207.5879 657.125,207.9316 Q657.125,208.2754 656.7813,208.6816 Q656.2813,209.2598 655.4844,209.5879 Q654.4063,210.041 653.1094,210.041 Q651.5938,210.041 650.3906,209.416 Q649.4063,208.916 648.7188,207.8535 Q648.0313,206.7754 648.0313,205.4941 L648.0313,204.3379 Q648.0313,203.0098 648.6406,201.8691 Q649.2656,200.7129 650.3594,200.1035 Q651.4531,199.4785 652.6875,199.4785 Q653.4219,199.4785 654.0625,199.6504 Q654.7188,199.8066 655.2656,200.166 Z " fill="#000000"/><text fill="#000000" font-family="sans-serif" font-size="12" font-style="italic" lengthAdjust="spacing" textLength="85" x="678.5" y="199.9492">&#171;Value Object&#187;</text><text fill="#000000" font-family="sans-serif" font-size="14" lengthAdjust="spacing" textLength="109" x="666.5" y="218.0684">ApplicationStatus</text><line style="stroke:#181818;stroke-width:0.5;" x1="638.5" x2="777.5" y1="226.582" y2="226.582"/></g><!--class ApplicationGrade--><g id="elem_ApplicationGrade"><rect codeLine="40" fill="#F1F1F1" height="52.582" id="ApplicationGrade" rx="2.5" ry="2.5" style="stroke:#181818;stroke-width:0.5;" width="141" x="813.5" y="182"/><ellipse cx="828.5" cy="204.291" fill="#ADD1B2" rx="11" ry="11" style="stroke:#181818;stroke-width:1.0;"/><path d="M831.2656,200.166 Q831.4219,199.9473 831.6094,199.8379 Q831.7969,199.7285 832.0156,199.7285 Q832.3906,199.7285 832.625,199.9941 Q832.8594,200.2441 832.8594,200.8535 L832.8594,202.3066 Q832.8594,202.916 832.625,203.1816 Q832.3906,203.4473 832.0156,203.4473 Q831.6719,203.4473 831.4688,203.2441 Q831.2656,203.0566 831.1563,202.541 Q831.1094,202.1816 830.9219,201.9941 Q830.5938,201.6191 829.9844,201.4004 Q829.375,201.1816 828.75,201.1816 Q827.9844,201.1816 827.3438,201.5098 Q826.7188,201.8379 826.2188,202.5879 Q825.7344,203.3379 825.7344,204.3691 L825.7344,205.4629 Q825.7344,206.6973 826.625,207.5254 Q827.5156,208.3379 829.1094,208.3379 Q830.0469,208.3379 830.7031,208.0879 Q831.0938,207.9316 831.5156,207.4941 Q831.7813,207.2285 831.9219,207.1504 Q832.0781,207.0723 832.2813,207.0723 Q832.6094,207.0723 832.8594,207.3379 Q833.125,207.5879 833.125,207.9316 Q833.125,208.2754 832.7813,208.6816 Q832.2813,209.2598 831.4844,209.5879 Q830.4063,210.041 829.1094,210.041 Q827.5938,210.041 826.3906,209.416 Q825.4063,208.916 824.7188,207.8535 Q824.0313,206.7754 824.0313,205.4941 L824.0313,204.3379 Q824.0313,203.0098 824.6406,201.8691 Q825.2656,200.7129 826.3594,200.1035 Q827.4531,199.4785 828.6875,199.4785 Q829.4219,199.4785 830.0625,199.6504 Q830.7188,199.8066 831.2656,200.166 Z " fill="#000000"/><text fill="#000000" font-family="sans-serif" font-size="12" font-style="italic" lengthAdjust="spacing" textLength="85" x="854.5" y="199.9492">&#171;Value Object&#187;</text><text fill="#000000" font-family="sans-serif" font-size="14" lengthAdjust="spacing" textLength="109" x="842.5" y="218.0684">ApplicationGrade</text><line style="stroke:#181818;stroke-width:0.5;" x1="814.5" x2="953.5" y1="226.582" y2="226.582"/></g><!--class Candidate--><g id="elem_Candidate"><rect codeLine="45" fill="#F1F1F1" height="68.543" id="Candidate" rx="2.5" ry="2.5" style="stroke:#181818;stroke-width:0.5;" width="128" x="1061" y="44"/><ellipse cx="1076" cy="74.2715" fill="#ADD1B2" rx="11" ry="11" style="stroke:#181818;stroke-width:1.0;"/><path d="M1078.7656,70.1465 Q1078.9219,69.9277 1079.1094,69.8184 Q1079.2969,69.709 1079.5156,69.709 Q1079.8906,69.709 1080.125,69.9746 Q1080.3594,70.2246 1080.3594,70.834 L1080.3594,72.2871 Q1080.3594,72.8965 1080.125,73.1621 Q1079.8906,73.4277 1079.5156,73.4277 Q1079.1719,73.4277 1078.9688,73.2246 Q1078.7656,73.0371 1078.6563,72.5215 Q1078.6094,72.1621 1078.4219,71.9746 Q1078.0938,71.5996 1077.4844,71.3809 Q1076.875,71.1621 1076.25,71.1621 Q1075.4844,71.1621 1074.8438,71.4902 Q1074.2188,71.8184 1073.7188,72.5684 Q1073.2344,73.3184 1073.2344,74.3496 L1073.2344,75.4434 Q1073.2344,76.6777 1074.125,77.5059 Q1075.0156,78.3184 1076.6094,78.3184 Q1077.5469,78.3184 1078.2031,78.0684 Q1078.5938,77.9121 1079.0156,77.4746 Q1079.2813,77.209 1079.4219,77.1309 Q1079.5781,77.0527 1079.7813,77.0527 Q1080.1094,77.0527 1080.3594,77.3184 Q1080.625,77.5684 1080.625,77.9121 Q1080.625,78.2559 1080.2813,78.6621 Q1079.7813,79.2402 1078.9844,79.5684 Q1077.9063,80.0215 1076.6094,80.0215 Q1075.0938,80.0215 1073.8906,79.3965 Q1072.9063,78.8965 1072.2188,77.834 Q1071.5313,76.7559 1071.5313,75.4746 L1071.5313,74.3184 Q1071.5313,72.9902 1072.1406,71.8496 Q1072.7656,70.6934 1073.8594,70.084 Q1074.9531,69.459 1076.1875,69.459 Q1076.9219,69.459 1077.5625,69.6309 Q1078.2188,69.7871 1078.7656,70.1465 Z " fill="#000000"/><text fill="#000000" font-family="sans-serif" font-size="12" font-style="italic" lengthAdjust="spacing" textLength="100" x="1088" y="61.9492">&#171;Aggregate Root&#187;</text><text fill="#000000" font-family="sans-serif" font-size="12" font-style="italic" lengthAdjust="spacing" textLength="44" x="1116" y="77.9102">&#171;Entity&#187;</text><text fill="#000000" font-family="sans-serif" font-size="14" lengthAdjust="spacing" textLength="65" x="1105.5" y="96.0293">Candidate</text><line style="stroke:#181818;stroke-width:0.5;" x1="1062" x2="1188" y1="104.543" y2="104.543"/></g><!--class CandidateId--><g id="elem_CandidateId"><rect codeLine="46" fill="#F1F1F1" height="68.543" id="CandidateId" rx="2.5" ry="2.5" style="stroke:#181818;stroke-width:0.5;" width="113" x="1061.5" y="174"/><ellipse cx="1076.5" cy="204.2715" fill="#ADD1B2" rx="11" ry="11" style="stroke:#181818;stroke-width:1.0;"/><path d="M1079.2656,200.1465 Q1079.4219,199.9277 1079.6094,199.8184 Q1079.7969,199.709 1080.0156,199.709 Q1080.3906,199.709 1080.625,199.9746 Q1080.8594,200.2246 1080.8594,200.834 L1080.8594,202.2871 Q1080.8594,202.8965 1080.625,203.1621 Q1080.3906,203.4277 1080.0156,203.4277 Q1079.6719,203.4277 1079.4688,203.2246 Q1079.2656,203.0371 1079.1563,202.5215 Q1079.1094,202.1621 1078.9219,201.9746 Q1078.5938,201.5996 1077.9844,201.3809 Q1077.375,201.1621 1076.75,201.1621 Q1075.9844,201.1621 1075.3438,201.4902 Q1074.7188,201.8184 1074.2188,202.5684 Q1073.7344,203.3184 1073.7344,204.3496 L1073.7344,205.4434 Q1073.7344,206.6777 1074.625,207.5059 Q1075.5156,208.3184 1077.1094,208.3184 Q1078.0469,208.3184 1078.7031,208.0684 Q1079.0938,207.9121 1079.5156,207.4746 Q1079.7813,207.209 1079.9219,207.1309 Q1080.0781,207.0527 1080.2813,207.0527 Q1080.6094,207.0527 1080.8594,207.3184 Q1081.125,207.5684 1081.125,207.9121 Q1081.125,208.2559 1080.7813,208.6621 Q1080.2813,209.2402 1079.4844,209.5684 Q1078.4063,210.0215 1077.1094,210.0215 Q1075.5938,210.0215 1074.3906,209.3965 Q1073.4063,208.8965 1072.7188,207.834 Q1072.0313,206.7559 1072.0313,205.4746 L1072.0313,204.3184 Q1072.0313,202.9902 1072.6406,201.8496 Q1073.2656,200.6934 1074.3594,200.084 Q1075.4531,199.459 1076.6875,199.459 Q1077.4219,199.459 1078.0625,199.6309 Q1078.7188,199.7871 1079.2656,200.1465 Z " fill="#000000"/><text fill="#000000" font-family="sans-serif" font-size="12" font-style="italic" lengthAdjust="spacing" textLength="54" x="1104" y="191.9492">&#171;Identity&#187;</text><text fill="#000000" font-family="sans-serif" font-size="12" font-style="italic" lengthAdjust="spacing" textLength="85" x="1088.5" y="207.9102">&#171;Value Object&#187;</text><text fill="#000000" font-family="sans-serif" font-size="14" lengthAdjust="spacing" textLength="76" x="1093" y="226.0293">CandidateId</text><line style="stroke:#181818;stroke-width:0.5;" x1="1062.5" x2="1173.5" y1="234.543" y2="234.543"/></g><!--class CurriculumVitae--><g id="elem_CurriculumVitae"><rect codeLine="47" fill="#F1F1F1" height="52.582" id="CurriculumVitae" rx="2.5" ry="2.5" style="stroke:#181818;stroke-width:0.5;" width="132" x="1210" y="182"/><ellipse cx="1225" cy="204.291" fill="#ADD1B2" rx="11" ry="11" style="stroke:#181818;stroke-width:1.0;"/><path d="M1227.7656,200.166 Q1227.9219,199.9473 1228.1094,199.8379 Q1228.2969,199.7285 1228.5156,199.7285 Q1228.8906,199.7285 1229.125,199.9941 Q1229.3594,200.2441 1229.3594,200.8535 L1229.3594,202.3066 Q1229.3594,202.916 1229.125,203.1816 Q1228.8906,203.4473 1228.5156,203.4473 Q1228.1719,203.4473 1227.9688,203.2441 Q1227.7656,203.0566 1227.6563,202.541 Q1227.6094,202.1816 1227.4219,201.9941 Q1227.0938,201.6191 1226.4844,201.4004 Q1225.875,201.1816 1225.25,201.1816 Q1224.4844,201.1816 1223.8438,201.5098 Q1223.2188,201.8379 1222.7188,202.5879 Q1222.2344,203.3379 1222.2344,204.3691 L1222.2344,205.4629 Q1222.2344,206.6973 1223.125,207.5254 Q1224.0156,208.3379 1225.6094,208.3379 Q1226.5469,208.3379 1227.2031,208.0879 Q1227.5938,207.9316 1228.0156,207.4941 Q1228.2813,207.2285 1228.4219,207.1504 Q1228.5781,207.0723 1228.7813,207.0723 Q1229.1094,207.0723 1229.3594,207.3379 Q1229.625,207.5879 1229.625,207.9316 Q1229.625,208.2754 1229.2813,208.6816 Q1228.7813,209.2598 1227.9844,209.5879 Q1226.9063,210.041 1225.6094,210.041 Q1224.0938,210.041 1222.8906,209.416 Q1221.9063,208.916 1221.2188,207.8535 Q1220.5313,206.7754 1220.5313,205.4941 L1220.5313,204.3379 Q1220.5313,203.0098 1221.1406,201.8691 Q1221.7656,200.7129 1222.8594,200.1035 Q1223.9531,199.4785 1225.1875,199.4785 Q1225.9219,199.4785 1226.5625,199.6504 Q1227.2188,199.8066 1227.7656,200.166 Z " fill="#000000"/><text fill="#000000" font-family="sans-serif" font-size="12" font-style="italic" lengthAdjust="spacing" textLength="85" x="1246.5" y="199.9492">&#171;Value Object&#187;</text><text fill="#000000" font-family="sans-serif" font-size="14" lengthAdjust="spacing" textLength="100" x="1239" y="218.0684">CurriculumVitae</text><line style="stroke:#181818;stroke-width:0.5;" x1="1211" x2="1341" y1="226.582" y2="226.582"/></g><!--class JobOpeningProcess--><g id="elem_JobOpeningProcess"><rect codeLine="53" fill="#F1F1F1" height="68.543" id="JobOpeningProcess" rx="2.5" ry="2.5" style="stroke:#181818;stroke-width:0.5;" width="159" x="1313.5" y="966"/><ellipse cx="1328.5" cy="996.2715" fill="#ADD1B2" rx="11" ry="11" style="stroke:#181818;stroke-width:1.0;"/><path d="M1331.2656,992.1465 Q1331.4219,991.9277 1331.6094,991.8184 Q1331.7969,991.709 1332.0156,991.709 Q1332.3906,991.709 1332.625,991.9746 Q1332.8594,992.2246 1332.8594,992.834 L1332.8594,994.2871 Q1332.8594,994.8965 1332.625,995.1621 Q1332.3906,995.4277 1332.0156,995.4277 Q1331.6719,995.4277 1331.4688,995.2246 Q1331.2656,995.0371 1331.1563,994.5215 Q1331.1094,994.1621 1330.9219,993.9746 Q1330.5938,993.5996 1329.9844,993.3809 Q1329.375,993.1621 1328.75,993.1621 Q1327.9844,993.1621 1327.3438,993.4902 Q1326.7188,993.8184 1326.2188,994.5684 Q1325.7344,995.3184 1325.7344,996.3496 L1325.7344,997.4434 Q1325.7344,998.6777 1326.625,999.5059 Q1327.5156,1000.3184 1329.1094,1000.3184 Q1330.0469,1000.3184 1330.7031,1000.0684 Q1331.0938,999.9121 1331.5156,999.4746 Q1331.7813,999.209 1331.9219,999.1309 Q1332.0781,999.0527 1332.2813,999.0527 Q1332.6094,999.0527 1332.8594,999.3184 Q1333.125,999.5684 1333.125,999.9121 Q1333.125,1000.2559 1332.7813,1000.6621 Q1332.2813,1001.2402 1331.4844,1001.5684 Q1330.4063,1002.0215 1329.1094,1002.0215 Q1327.5938,1002.0215 1326.3906,1001.3965 Q1325.4063,1000.8965 1324.7188,999.834 Q1324.0313,998.7559 1324.0313,997.4746 L1324.0313,996.3184 Q1324.0313,994.9902 1324.6406,993.8496 Q1325.2656,992.6934 1326.3594,992.084 Q1327.4531,991.459 1328.6875,991.459 Q1329.4219,991.459 1330.0625,991.6309 Q1330.7188,991.7871 1331.2656,992.1465 Z " fill="#000000"/><text fill="#000000" font-family="sans-serif" font-size="12" font-style="italic" lengthAdjust="spacing" textLength="100" x="1356" y="983.9492">&#171;Aggregate Root&#187;</text><text fill="#000000" font-family="sans-serif" font-size="12" font-style="italic" lengthAdjust="spacing" textLength="44" x="1384" y="999.9102">&#171;Entity&#187;</text><text fill="#000000" font-family="sans-serif" font-size="14" lengthAdjust="spacing" textLength="127" x="1342.5" y="1018.0293">JobOpeningProcess</text><line style="stroke:#181818;stroke-width:0.5;" x1="1314.5" x2="1471.5" y1="1026.543" y2="1026.543"/></g><!--class JobOpeningProcessId--><g id="elem_JobOpeningProcessId"><rect codeLine="54" fill="#F1F1F1" height="68.543" id="JobOpeningProcessId" rx="2.5" ry="2.5" style="stroke:#181818;stroke-width:0.5;" width="170" x="1108" y="966"/><ellipse cx="1123" cy="996.2715" fill="#ADD1B2" rx="11" ry="11" style="stroke:#181818;stroke-width:1.0;"/><path d="M1125.7656,992.1465 Q1125.9219,991.9277 1126.1094,991.8184 Q1126.2969,991.709 1126.5156,991.709 Q1126.8906,991.709 1127.125,991.9746 Q1127.3594,992.2246 1127.3594,992.834 L1127.3594,994.2871 Q1127.3594,994.8965 1127.125,995.1621 Q1126.8906,995.4277 1126.5156,995.4277 Q1126.1719,995.4277 1125.9688,995.2246 Q1125.7656,995.0371 1125.6563,994.5215 Q1125.6094,994.1621 1125.4219,993.9746 Q1125.0938,993.5996 1124.4844,993.3809 Q1123.875,993.1621 1123.25,993.1621 Q1122.4844,993.1621 1121.8438,993.4902 Q1121.2188,993.8184 1120.7188,994.5684 Q1120.2344,995.3184 1120.2344,996.3496 L1120.2344,997.4434 Q1120.2344,998.6777 1121.125,999.5059 Q1122.0156,1000.3184 1123.6094,1000.3184 Q1124.5469,1000.3184 1125.2031,1000.0684 Q1125.5938,999.9121 1126.0156,999.4746 Q1126.2813,999.209 1126.4219,999.1309 Q1126.5781,999.0527 1126.7813,999.0527 Q1127.1094,999.0527 1127.3594,999.3184 Q1127.625,999.5684 1127.625,999.9121 Q1127.625,1000.2559 1127.2813,1000.6621 Q1126.7813,1001.2402 1125.9844,1001.5684 Q1124.9063,1002.0215 1123.6094,1002.0215 Q1122.0938,1002.0215 1120.8906,1001.3965 Q1119.9063,1000.8965 1119.2188,999.834 Q1118.5313,998.7559 1118.5313,997.4746 L1118.5313,996.3184 Q1118.5313,994.9902 1119.1406,993.8496 Q1119.7656,992.6934 1120.8594,992.084 Q1121.9531,991.459 1123.1875,991.459 Q1123.9219,991.459 1124.5625,991.6309 Q1125.2188,991.7871 1125.7656,992.1465 Z " fill="#000000"/><text fill="#000000" font-family="sans-serif" font-size="12" font-style="italic" lengthAdjust="spacing" textLength="54" x="1179" y="983.9492">&#171;Identity&#187;</text><text fill="#000000" font-family="sans-serif" font-size="12" font-style="italic" lengthAdjust="spacing" textLength="85" x="1163.5" y="999.9102">&#171;Value Object&#187;</text><text fill="#000000" font-family="sans-serif" font-size="14" lengthAdjust="spacing" textLength="138" x="1137" y="1018.0293">JobOpeningProcessId</text><line style="stroke:#181818;stroke-width:0.5;" x1="1109" x2="1277" y1="1026.543" y2="1026.543"/></g><!--class JobOpeningProcessStatus--><g id="elem_JobOpeningProcessStatus"><rect codeLine="55" fill="#F1F1F1" height="52.582" id="JobOpeningProcessStatus" rx="2.5" ry="2.5" style="stroke:#181818;stroke-width:0.5;" width="199" x="1060.5" y="1264.5"/><ellipse cx="1075.5" cy="1286.791" fill="#ADD1B2" rx="11" ry="11" style="stroke:#181818;stroke-width:1.0;"/><path d="M1078.2656,1282.666 Q1078.4219,1282.4473 1078.6094,1282.3379 Q1078.7969,1282.2285 1079.0156,1282.2285 Q1079.3906,1282.2285 1079.625,1282.4941 Q1079.8594,1282.7441 1079.8594,1283.3535 L1079.8594,1284.8066 Q1079.8594,1285.416 1079.625,1285.6816 Q1079.3906,1285.9473 1079.0156,1285.9473 Q1078.6719,1285.9473 1078.4688,1285.7441 Q1078.2656,1285.5566 1078.1563,1285.041 Q1078.1094,1284.6816 1077.9219,1284.4941 Q1077.5938,1284.1191 1076.9844,1283.9004 Q1076.375,1283.6816 1075.75,1283.6816 Q1074.9844,1283.6816 1074.3438,1284.0098 Q1073.7188,1284.3379 1073.2188,1285.0879 Q1072.7344,1285.8379 1072.7344,1286.8691 L1072.7344,1287.9629 Q1072.7344,1289.1973 1073.625,1290.0254 Q1074.5156,1290.8379 1076.1094,1290.8379 Q1077.0469,1290.8379 1077.7031,1290.5879 Q1078.0938,1290.4316 1078.5156,1289.9941 Q1078.7813,1289.7285 1078.9219,1289.6504 Q1079.0781,1289.5723 1079.2813,1289.5723 Q1079.6094,1289.5723 1079.8594,1289.8379 Q1080.125,1290.0879 1080.125,1290.4316 Q1080.125,1290.7754 1079.7813,1291.1816 Q1079.2813,1291.7598 1078.4844,1292.0879 Q1077.4063,1292.541 1076.1094,1292.541 Q1074.5938,1292.541 1073.3906,1291.916 Q1072.4063,1291.416 1071.7188,1290.3535 Q1071.0313,1289.2754 1071.0313,1287.9941 L1071.0313,1286.8379 Q1071.0313,1285.5098 1071.6406,1284.3691 Q1072.2656,1283.2129 1073.3594,1282.6035 Q1074.4531,1281.9785 1075.6875,1281.9785 Q1076.4219,1281.9785 1077.0625,1282.1504 Q1077.7188,1282.3066 1078.2656,1282.666 Z " fill="#000000"/><text fill="#000000" font-family="sans-serif" font-size="12" font-style="italic" lengthAdjust="spacing" textLength="85" x="1130.5" y="1282.4492">&#171;Value Object&#187;</text><text fill="#000000" font-family="sans-serif" font-size="14" lengthAdjust="spacing" textLength="167" x="1089.5" y="1300.5684">JobOpeningProcessStatus</text><line style="stroke:#181818;stroke-width:0.5;" x1="1061.5" x2="1258.5" y1="1309.082" y2="1309.082"/></g><!--class JobOpeningProcessStage--><g id="elem_JobOpeningProcessStage"><rect codeLine="56" fill="#F1F1F1" height="52.582" id="JobOpeningProcessStage" rx="2.5" ry="2.5" style="stroke:#181818;stroke-width:0.5;" width="196" x="1295" y="1264.5"/><ellipse cx="1310" cy="1286.791" fill="#ADD1B2" rx="11" ry="11" style="stroke:#181818;stroke-width:1.0;"/><path d="M1312.7656,1282.666 Q1312.9219,1282.4473 1313.1094,1282.3379 Q1313.2969,1282.2285 1313.5156,1282.2285 Q1313.8906,1282.2285 1314.125,1282.4941 Q1314.3594,1282.7441 1314.3594,1283.3535 L1314.3594,1284.8066 Q1314.3594,1285.416 1314.125,1285.6816 Q1313.8906,1285.9473 1313.5156,1285.9473 Q1313.1719,1285.9473 1312.9688,1285.7441 Q1312.7656,1285.5566 1312.6563,1285.041 Q1312.6094,1284.6816 1312.4219,1284.4941 Q1312.0938,1284.1191 1311.4844,1283.9004 Q1310.875,1283.6816 1310.25,1283.6816 Q1309.4844,1283.6816 1308.8438,1284.0098 Q1308.2188,1284.3379 1307.7188,1285.0879 Q1307.2344,1285.8379 1307.2344,1286.8691 L1307.2344,1287.9629 Q1307.2344,1289.1973 1308.125,1290.0254 Q1309.0156,1290.8379 1310.6094,1290.8379 Q1311.5469,1290.8379 1312.2031,1290.5879 Q1312.5938,1290.4316 1313.0156,1289.9941 Q1313.2813,1289.7285 1313.4219,1289.6504 Q1313.5781,1289.5723 1313.7813,1289.5723 Q1314.1094,1289.5723 1314.3594,1289.8379 Q1314.625,1290.0879 1314.625,1290.4316 Q1314.625,1290.7754 1314.2813,1291.1816 Q1313.7813,1291.7598 1312.9844,1292.0879 Q1311.9063,1292.541 1310.6094,1292.541 Q1309.0938,1292.541 1307.8906,1291.916 Q1306.9063,1291.416 1306.2188,1290.3535 Q1305.5313,1289.2754 1305.5313,1287.9941 L1305.5313,1286.8379 Q1305.5313,1285.5098 1306.1406,1284.3691 Q1306.7656,1283.2129 1307.8594,1282.6035 Q1308.9531,1281.9785 1310.1875,1281.9785 Q1310.9219,1281.9785 1311.5625,1282.1504 Q1312.2188,1282.3066 1312.7656,1282.666 Z " fill="#000000"/><text fill="#000000" font-family="sans-serif" font-size="12" font-style="italic" lengthAdjust="spacing" textLength="85" x="1363.5" y="1282.4492">&#171;Value Object&#187;</text><text fill="#000000" font-family="sans-serif" font-size="14" lengthAdjust="spacing" textLength="164" x="1324" y="1300.5684">JobOpeningProcessStage</text><line style="stroke:#181818;stroke-width:0.5;" x1="1296" x2="1490" y1="1309.082" y2="1309.082"/></g><!--class Phase--><g id="elem_Phase"><rect codeLine="57" fill="#F1F1F1" height="52.582" id="Phase" rx="2.5" ry="2.5" style="stroke:#181818;stroke-width:0.5;" width="72" x="1357" y="1096"/><ellipse cx="1372" cy="1118.291" fill="#ADD1B2" rx="11" ry="11" style="stroke:#181818;stroke-width:1.0;"/><path d="M1374.7656,1114.166 Q1374.9219,1113.9473 1375.1094,1113.8379 Q1375.2969,1113.7285 1375.5156,1113.7285 Q1375.8906,1113.7285 1376.125,1113.9941 Q1376.3594,1114.2441 1376.3594,1114.8535 L1376.3594,1116.3066 Q1376.3594,1116.916 1376.125,1117.1816 Q1375.8906,1117.4473 1375.5156,1117.4473 Q1375.1719,1117.4473 1374.9688,1117.2441 Q1374.7656,1117.0566 1374.6563,1116.541 Q1374.6094,1116.1816 1374.4219,1115.9941 Q1374.0938,1115.6191 1373.4844,1115.4004 Q1372.875,1115.1816 1372.25,1115.1816 Q1371.4844,1115.1816 1370.8438,1115.5098 Q1370.2188,1115.8379 1369.7188,1116.5879 Q1369.2344,1117.3379 1369.2344,1118.3691 L1369.2344,1119.4629 Q1369.2344,1120.6973 1370.125,1121.5254 Q1371.0156,1122.3379 1372.6094,1122.3379 Q1373.5469,1122.3379 1374.2031,1122.0879 Q1374.5938,1121.9316 1375.0156,1121.4941 Q1375.2813,1121.2285 1375.4219,1121.1504 Q1375.5781,1121.0723 1375.7813,1121.0723 Q1376.1094,1121.0723 1376.3594,1121.3379 Q1376.625,1121.5879 1376.625,1121.9316 Q1376.625,1122.2754 1376.2813,1122.6816 Q1375.7813,1123.2598 1374.9844,1123.5879 Q1373.9063,1124.041 1372.6094,1124.041 Q1371.0938,1124.041 1369.8906,1123.416 Q1368.9063,1122.916 1368.2188,1121.8535 Q1367.5313,1120.7754 1367.5313,1119.4941 L1367.5313,1118.3379 Q1367.5313,1117.0098 1368.1406,1115.8691 Q1368.7656,1114.7129 1369.8594,1114.1035 Q1370.9531,1113.4785 1372.1875,1113.4785 Q1372.9219,1113.4785 1373.5625,1113.6504 Q1374.2188,1113.8066 1374.7656,1114.166 Z " fill="#000000"/><text fill="#000000" font-family="sans-serif" font-size="12" font-style="italic" lengthAdjust="spacing" textLength="44" x="1384" y="1113.9492">&#171;Entity&#187;</text><text fill="#000000" font-family="sans-serif" font-size="14" lengthAdjust="spacing" textLength="40" x="1386" y="1132.0684">Phase</text><line style="stroke:#181818;stroke-width:0.5;" x1="1358" x2="1428" y1="1140.582" y2="1140.582"/></g><!--class PhaseType--><g id="elem_PhaseType"><rect codeLine="59" fill="#F1F1F1" height="161.6484" id="PhaseType" rx="2.5" ry="2.5" style="stroke:#181818;stroke-width:0.5;" width="113" x="1526.5" y="1210"/><ellipse cx="1541.5" cy="1240.2715" fill="#EB937F" rx="11" ry="11" style="stroke:#181818;stroke-width:1.0;"/><path d="M1540.3594,1241.0684 L1540.3594,1243.5684 L1544.6875,1243.5684 L1544.6875,1242.6465 Q1544.6875,1242.0371 1544.9219,1241.7715 Q1545.1719,1241.5059 1545.5469,1241.5059 Q1545.9219,1241.5059 1546.1563,1241.7715 Q1546.3906,1242.0371 1546.3906,1242.6465 L1546.3906,1245.2715 L1538.3906,1245.2715 Q1537.7656,1245.2715 1537.5,1245.0371 Q1537.25,1244.8027 1537.25,1244.4121 Q1537.25,1244.0371 1537.5156,1243.8027 Q1537.7813,1243.5684 1538.3906,1243.5684 L1538.6563,1243.5684 L1538.6563,1236.9121 L1538.3906,1236.9121 Q1537.7656,1236.9121 1537.5,1236.6777 Q1537.25,1236.4434 1537.25,1236.0527 Q1537.25,1235.6777 1537.5,1235.4434 Q1537.7656,1235.209 1538.3906,1235.209 L1546.0156,1235.209 L1546.0156,1237.8027 Q1546.0156,1238.4121 1545.7813,1238.6777 Q1545.5625,1238.9277 1545.1719,1238.9277 Q1544.7969,1238.9277 1544.5625,1238.6777 Q1544.3281,1238.4121 1544.3281,1237.8027 L1544.3281,1236.9121 L1540.3594,1236.9121 L1540.3594,1239.3652 L1541.8438,1239.3652 Q1541.8438,1238.709 1541.9688,1238.5215 Q1542.2344,1238.1152 1542.7031,1238.1152 Q1543.0781,1238.1152 1543.3125,1238.3809 Q1543.5469,1238.6309 1543.5469,1239.2402 L1543.5469,1241.209 Q1543.5469,1241.7559 1543.4219,1241.9434 Q1543.1563,1242.334 1542.7031,1242.334 Q1542.2344,1242.334 1541.9688,1241.9277 Q1541.8438,1241.7402 1541.8438,1241.0684 L1540.3594,1241.0684 Z " fill="#000000"/><text fill="#000000" font-family="sans-serif" font-size="12" font-style="italic" lengthAdjust="spacing" textLength="82" x="1555" y="1227.9492">&#171;Enumerated&#187;</text><text fill="#000000" font-family="sans-serif" font-size="12" font-style="italic" lengthAdjust="spacing" textLength="85" x="1553.5" y="1243.9102">&#171;Value Object&#187;</text><text fill="#000000" font-family="sans-serif" font-size="14" lengthAdjust="spacing" textLength="72" x="1560" y="1262.0293">PhaseType</text><line style="stroke:#181818;stroke-width:0.5;" x1="1527.5" x2="1638.5" y1="1270.543" y2="1270.543"/><text fill="#000000" font-family="sans-serif" font-size="14" lengthAdjust="spacing" textLength="89" x="1532.5" y="1289.6504">APPLICATION</text><text fill="#000000" font-family="sans-serif" font-size="14" lengthAdjust="spacing" textLength="79" x="1532.5" y="1308.2715">SCREENING</text><text fill="#000000" font-family="sans-serif" font-size="14" lengthAdjust="spacing" textLength="83" x="1532.5" y="1326.8926">INTERVIEWS</text><text fill="#000000" font-family="sans-serif" font-size="14" lengthAdjust="spacing" textLength="65" x="1532.5" y="1345.5137">ANALYSIS</text><text fill="#000000" font-family="sans-serif" font-size="14" lengthAdjust="spacing" textLength="54" x="1532.5" y="1364.1348">RESULT</text></g><!--link JobOpening to JobReference--><g id="link_JobOpening_JobReference"><path codeLine="70" d="M1053.99,597.2 C1002.21,615.81 927.55,643.2 863,669 C857.25,671.3 856.8249,671.4237 850.8749,673.9137 " fill="none" id="JobOpening-to-JobReference" style="stroke:#181818;stroke-width:1.0;"/><polygon fill="#181818" points="845.34,676.23,855.1865,676.4455,849.9524,674.2998,852.0981,669.0657,845.34,676.23" style="stroke:#181818;stroke-width:1.0;"/><text fill="#000000" font-family="sans-serif" font-size="13" lengthAdjust="spacing" textLength="7" x="1039.1842" y="596.0291">1</text><text fill="#000000" font-family="sans-serif" font-size="13" lengthAdjust="spacing" textLength="7" x="853.1205" y="668.9444">1</text></g><!--link JobOpening to TitleOrFunction--><g id="link_JobOpening_TitleOrFunction"><path codeLine="71" d="M1072.55,608.13 C1043.41,629.69 1011.0235,653.6516 984.3135,673.4116 " fill="none" id="JobOpening-to-TitleOrFunction" style="stroke:#181818;stroke-width:1.0;"/><polygon fill="#181818" points="979.49,676.98,989.1042,674.843,983.5096,674.0063,984.3463,668.4117,979.49,676.98" style="stroke:#181818;stroke-width:1.0;"/><text fill="#000000" font-family="sans-serif" font-size="13" lengthAdjust="spacing" textLength="7" x="1057.1367" y="629.6356">1</text><text fill="#000000" font-family="sans-serif" font-size="13" lengthAdjust="spacing" textLength="7" x="980.0438" y="665.5586">1</text></g><!--reverse link ContractType to JobOpening--><g id="link_ContractType_JobOpening"><path codeLine="72" d="M1224.7529,482.0095 C1202.6429,500.7495 1179.78,520.13 1157.67,538.87 " fill="none" id="ContractType-backto-JobOpening" style="stroke:#181818;stroke-width:1.0;"/><polygon fill="#181818" points="1229.33,478.13,1219.8781,480.8978,1225.5158,481.3629,1225.0507,487.0006,1229.33,478.13" style="stroke:#181818;stroke-width:1.0;"/><text fill="#000000" font-family="sans-serif" font-size="13" lengthAdjust="spacing" textLength="7" x="1214.9102" y="499.6356">1</text><text fill="#000000" font-family="sans-serif" font-size="13" lengthAdjust="spacing" textLength="7" x="1157.5649" y="527.748">1</text></g><!--reverse link Mode to JobOpening--><g id="link_Mode_JobOpening"><path codeLine="73" d="M1118,484.13 C1118,502.8 1118,519.95 1118,538.65 " fill="none" id="Mode-backto-JobOpening" style="stroke:#181818;stroke-width:1.0;"/><polygon fill="#181818" points="1118,478.13,1114,487.13,1118,483.13,1122,487.13,1118,478.13" style="stroke:#181818;stroke-width:1.0;"/><text fill="#000000" font-family="sans-serif" font-size="13" lengthAdjust="spacing" textLength="7" x="1110.3984" y="499.6356">1</text><text fill="#000000" font-family="sans-serif" font-size="13" lengthAdjust="spacing" textLength="7" x="1110.3547" y="527.7546">1</text></g><!--link JobOpening to Description--><g id="link_JobOpening_Description"><path codeLine="74" d="M1161.35,608.13 C1189.14,629.69 1219.8894,653.5422 1245.3594,673.3022 " fill="none" id="JobOpening-to-Description" style="stroke:#181818;stroke-width:1.0;"/><polygon fill="#181818" points="1250.1,676.98,1245.441,668.3028,1246.1495,673.9151,1240.5372,674.6236,1250.1,676.98" style="stroke:#181818;stroke-width:1.0;"/><text fill="#000000" font-family="sans-serif" font-size="13" lengthAdjust="spacing" textLength="7" x="1161.1992" y="629.6356">1</text><text fill="#000000" font-family="sans-serif" font-size="13" lengthAdjust="spacing" textLength="7" x="1234.2275" y="665.5586">1</text></g><!--link JobOpening to VacanciesNumber--><g id="link_JobOpening_VacanciesNumber"><path codeLine="75" d="M1118,608.13 C1118,629.61 1118,651.03 1118,670.78 " fill="none" id="JobOpening-to-VacanciesNumber" style="stroke:#181818;stroke-width:1.0;"/><polygon fill="#181818" points="1118,676.78,1122,667.78,1118,671.78,1114,667.78,1118,676.78" style="stroke:#181818;stroke-width:1.0;"/><text fill="#000000" font-family="sans-serif" font-size="13" lengthAdjust="spacing" textLength="7" x="1110.3984" y="629.6356">1</text><text fill="#000000" font-family="sans-serif" font-size="13" lengthAdjust="spacing" textLength="7" x="1110.1906" y="665.7457">1</text></g><!--link Candidate to CandidateId--><g id="link_Candidate_CandidateId"><path codeLine="77" d="M1123.16,113.13 C1122.14,131.8 1121.1968,148.9589 1120.1768,167.6589 " fill="none" id="Candidate-to-CandidateId" style="stroke:#181818;stroke-width:1.0;"/><polygon fill="#181818" points="1119.85,173.65,1124.3342,164.8812,1120.1223,168.6574,1116.3461,164.4455,1119.85,173.65" style="stroke:#181818;stroke-width:1.0;"/><text fill="#000000" font-family="sans-serif" font-size="13" lengthAdjust="spacing" textLength="7" x="1115.2422" y="134.6356">1</text><text fill="#000000" font-family="sans-serif" font-size="13" lengthAdjust="spacing" textLength="7" x="1112.5458" y="162.7546">1</text></g><!--link Candidate to CurriculumVitae--><g id="link_Candidate_CurriculumVitae"><path codeLine="78" d="M1164.67,113.13 C1190.01,134.61 1217.7839,158.1494 1241.0739,177.8994 " fill="none" id="Candidate-to-CurriculumVitae" style="stroke:#181818;stroke-width:1.0;"/><polygon fill="#181818" points="1245.65,181.78,1241.3728,172.9084,1241.8365,178.5462,1236.1987,179.0099,1245.65,181.78" style="stroke:#181818;stroke-width:1.0;"/><text fill="#000000" font-family="sans-serif" font-size="13" lengthAdjust="spacing" textLength="7" x="1163.8867" y="134.6356">1</text><text fill="#000000" font-family="sans-serif" font-size="13" lengthAdjust="spacing" textLength="7" x="1230.8222" y="170.7457">1</text></g><!--link Application to ApplicationId--><g id="link_Application_ApplicationId"><path codeLine="81" d="M539.88,88.45 C451.54,101.8 288.11,130.15 154,174 C148.37,175.84 148.1702,175.75 142.4502,178.04 " fill="none" id="Application-to-ApplicationId" style="stroke:#181818;stroke-width:1.0;"/><polygon fill="#181818" points="136.88,180.27,146.722,180.6384,141.5218,178.4116,143.7486,173.2115,136.88,180.27" style="stroke:#181818;stroke-width:1.0;"/><text fill="#000000" font-family="sans-serif" font-size="13" lengthAdjust="spacing" textLength="7" x="525.0614" y="85.6892">1</text><text fill="#000000" font-family="sans-serif" font-size="13" lengthAdjust="spacing" textLength="7" x="144.6162" y="172.6402">1</text></g><!--link Application to AttachedEmail--><g id="link_Application_AttachedEmail"><path codeLine="82" d="M539.93,98.46 C480.4,116.49 389.51,145.09 312,174 C305.44,176.45 304.1877,176.8591 297.4277,179.6091 " fill="none" id="Application-to-AttachedEmail" style="stroke:#181818;stroke-width:1.0;"/><polygon fill="#181818" points="291.87,181.87,301.7139,182.1838,296.5014,179.9859,298.6993,174.7735,291.87,181.87" style="stroke:#181818;stroke-width:1.0;"/><text fill="#000000" font-family="sans-serif" font-size="13" lengthAdjust="spacing" textLength="7" x="525.1172" y="115.8223">1</text><text fill="#000000" font-family="sans-serif" font-size="13" lengthAdjust="spacing" textLength="7" x="297.6743" y="170.8565">1</text></g><!--link Application to AttachedFile--><g id="link_Application_AttachedFile"><path codeLine="83" d="M546.72,113.13 C510.01,134.69 468.2835,159.1811 434.6435,178.9411 " fill="none" id="Application-to-AttachedFile" style="stroke:#181818;stroke-width:1.0;"/><polygon fill="#181818" points="429.47,181.98,439.2562,180.8707,433.7813,179.4476,435.2043,173.9727,429.47,181.98" style="stroke:#181818;stroke-width:1.0;"/><text fill="#000000" font-family="sans-serif" font-size="13" lengthAdjust="spacing" textLength="7" x="529.2734" y="134.6356">1</text><text fill="#000000" font-family="sans-serif" font-size="13" lengthAdjust="spacing" textLength="7" x="432.2127" y="170.5586">1</text></g><!--link Application to ApplicatorData--><g id="link_Application_ApplicatorData"><path codeLine="84" d="M587.18,113.13 C576.44,134.61 565.4122,156.6629 555.5422,176.4129 " fill="none" id="Application-to-ApplicatorData" style="stroke:#181818;stroke-width:1.0;"/><polygon fill="#181818" points="552.86,181.78,560.4614,175.5175,555.0952,177.3074,553.3052,171.9412,552.86,181.78" style="stroke:#181818;stroke-width:1.0;"/><text fill="#000000" font-family="sans-serif" font-size="13" lengthAdjust="spacing" textLength="7" x="576.6875" y="134.6356">1</text><text fill="#000000" font-family="sans-serif" font-size="13" lengthAdjust="spacing" textLength="7" x="548.0245" y="170.7457">1</text></g><!--link Application to JobOpening--><g id="link_Application_JobOpening"><path codeLine="85" d="M668.02,86.37 C781.93,100.38 1008,137.05 1008,207.5 C1008,207.5 1008,207.5 1008,444.5 C1008,483.32 1032.7837,512.5032 1061.2137,535.2332 " fill="none" id="Application-to-JobOpening" style="stroke:#181818;stroke-width:1.0;"/><polygon fill="#181818" points="1065.9,538.98,1061.3683,530.2356,1061.9947,535.8577,1056.3727,536.4841,1065.9,538.98" style="stroke:#181818;stroke-width:1.0;"/><text fill="#000000" font-family="sans-serif" font-size="13" lengthAdjust="spacing" textLength="75" x="1009" y="321.0283">submitted for</text><text fill="#000000" font-family="sans-serif" font-size="13" lengthAdjust="spacing" textLength="5" x="676.1271" y="102.439">*</text><text fill="#000000" font-family="sans-serif" font-size="13" lengthAdjust="spacing" textLength="7" x="1047.9538" y="527.6124">1</text></g><!--link Application to Candidate--><g id="link_Application_Candidate"><path codeLine="86" d="M668.15,78.5 C768.24,78.5 954.46,78.5 1054.67,78.5 " fill="none" id="Application-to-Candidate" style="stroke:#181818;stroke-width:1.0;"/><polygon fill="#181818" points="1060.67,78.5,1051.67,74.5,1055.67,78.5,1051.67,82.5,1060.67,78.5" style="stroke:#181818;stroke-width:1.0;"/><text fill="#000000" font-family="sans-serif" font-size="13" lengthAdjust="spacing" textLength="75" x="827" y="71.5283">submitted by</text><text fill="#000000" font-family="sans-serif" font-size="13" lengthAdjust="spacing" textLength="7" x="675.972" y="74.5888">1</text><text fill="#000000" font-family="sans-serif" font-size="13" lengthAdjust="spacing" textLength="7" x="1045.8272" y="74.5888">1</text></g><!--link Application to ApplicationStatus--><g id="link_Application_ApplicationStatus"><path codeLine="87" d="M631.32,113.13 C648.78,134.61 667.2774,157.3725 683.3174,177.1225 " fill="none" id="Application-to-ApplicationStatus" style="stroke:#181818;stroke-width:1.0;"/><polygon fill="#181818" points="687.1,181.78,684.5311,172.2721,683.9479,177.8988,678.3211,177.3155,687.1,181.78" style="stroke:#181818;stroke-width:1.0;"/><text fill="#000000" font-family="sans-serif" font-size="13" lengthAdjust="spacing" textLength="7" x="628.4141" y="134.6356">1</text><text fill="#000000" font-family="sans-serif" font-size="13" lengthAdjust="spacing" textLength="7" x="674.4575" y="170.7457">1</text></g><!--link Application to ApplicationGrade--><g id="link_Application_ApplicationGrade"><path codeLine="88" d="M668.24,108.87 C716.51,130.93 776.533,158.3758 822.653,179.4558 " fill="none" id="Application-to-ApplicationGrade" style="stroke:#181818;stroke-width:1.0;"/><polygon fill="#181818" points="828.11,181.95,821.5873,174.5707,823.5625,179.8715,818.2617,181.8467,828.11,181.95" style="stroke:#181818;stroke-width:1.0;"/><text fill="#000000" font-family="sans-serif" font-size="13" lengthAdjust="spacing" textLength="7" x="676.0724" y="127.4359">1</text><text fill="#000000" font-family="sans-serif" font-size="13" lengthAdjust="spacing" textLength="7" x="806.6337" y="170.5213">1</text></g><!--reverse link JobOpeningProcessId to JobOpeningProcess--><g id="link_JobOpeningProcessId_JobOpeningProcess"><path codeLine="90" d="M1284.16,1000.5 C1295.82,1000.5 1301.48,1000.5 1313.15,1000.5 " fill="none" id="JobOpeningProcessId-backto-JobOpeningProcess" style="stroke:#181818;stroke-width:1.0;"/><polygon fill="#181818" points="1278.16,1000.5,1287.16,1004.5,1283.16,1000.5,1287.16,996.5,1278.16,1000.5" style="stroke:#181818;stroke-width:1.0;"/><text fill="#000000" font-family="sans-serif" font-size="13" lengthAdjust="spacing" textLength="7" x="1286.0563" y="996.8046">1</text><text fill="#000000" font-family="sans-serif" font-size="13" lengthAdjust="spacing" textLength="7" x="1298.4662" y="996.7792">1</text></g><!--link JobOpening to JobOpeningProcess--><g id="link_JobOpening_JobOpeningProcess"><path codeLine="91" d="M1182.13,577.06 C1263.39,584.15 1393,609.95 1393,702.5 C1393,702.5 1393,702.5 1393,882 C1393,910.25 1393,936.33 1393,959.82 " fill="none" id="JobOpening-to-JobOpeningProcess" style="stroke:#181818;stroke-width:1.0;"/><polygon fill="#181818" points="1393,965.82,1397,956.82,1393,960.82,1389,956.82,1393,965.82" style="stroke:#181818;stroke-width:1.0;"/><text fill="#000000" font-family="sans-serif" font-size="13" lengthAdjust="spacing" textLength="21" x="1394" y="816.0283">has</text><text fill="#000000" font-family="sans-serif" font-size="13" lengthAdjust="spacing" textLength="7" x="1189.9497" y="573.5604">1</text><text fill="#000000" font-family="sans-serif" font-size="13" lengthAdjust="spacing" textLength="5" x="1387.5234" y="954.6884">*</text></g><!--link Phase to JobOpeningProcessStatus--><g id="link_Phase_JobOpeningProcessStatus"><path codeLine="92" d="M1357.1,1149.15 C1313.32,1180.44 1244.6216,1229.5315 1200.8216,1260.8315 " fill="none" id="Phase-to-JobOpeningProcessStatus" style="stroke:#181818;stroke-width:1.0;"/><polygon fill="#181818" points="1195.94,1264.32,1205.5881,1262.3417,1200.008,1261.4129,1200.9368,1255.8328,1195.94,1264.32" style="stroke:#181818;stroke-width:1.0;"/><text fill="#000000" font-family="sans-serif" font-size="13" lengthAdjust="spacing" textLength="7" x="1341.9737" y="1149.9949">1</text><text fill="#000000" font-family="sans-serif" font-size="13" lengthAdjust="spacing" textLength="7" x="1196.4418" y="1253.2949">1</text></g><!--link Phase to JobOpeningProcessStage--><g id="link_Phase_JobOpeningProcessStage"><path codeLine="93" d="M1393,1149.15 C1393,1180.44 1393,1227.02 1393,1258.32 " fill="none" id="Phase-to-JobOpeningProcessStage" style="stroke:#181818;stroke-width:1.0;"/><polygon fill="#181818" points="1393,1264.32,1397,1255.32,1393,1259.32,1389,1255.32,1393,1264.32" style="stroke:#181818;stroke-width:1.0;"/><text fill="#000000" font-family="sans-serif" font-size="13" lengthAdjust="spacing" textLength="7" x="1385.2781" y="1170.5011">1</text><text fill="#000000" font-family="sans-serif" font-size="13" lengthAdjust="spacing" textLength="7" x="1385.1906" y="1253.2949">1</text></g><!--link JobOpeningProcess to Phase--><g id="link_JobOpeningProcess_Phase"><path codeLine="94" d="M1393,1035.25 C1393,1054.52 1393,1072.29 1393,1089.99 " fill="none" id="JobOpeningProcess-to-Phase" style="stroke:#181818;stroke-width:1.0;"/><polygon fill="#181818" points="1393,1095.99,1397,1086.99,1393,1090.99,1389,1086.99,1393,1095.99" style="stroke:#181818;stroke-width:1.0;"/><text fill="#000000" font-family="sans-serif" font-size="13" lengthAdjust="spacing" textLength="7" x="1385.4203" y="1056.5035">1</text><text fill="#000000" font-family="sans-serif" font-size="13" lengthAdjust="spacing" textLength="7" x="1385.1469" y="1084.571">1</text></g><!--link Phase to PhaseType--><g id="link_Phase_PhaseType"><path codeLine="95" d="M1429.09,1147.82 C1452.68,1164.34 1483.69,1187.24 1509,1210 C1514.77,1215.19 1516.3511,1216.5236 1522.0511,1222.2336 " fill="none" id="Phase-to-PhaseType" style="stroke:#181818;stroke-width:1.0;"/><polygon fill="#181818" points="1526.29,1226.48,1522.7625,1217.2845,1522.7576,1222.9414,1517.1007,1222.9364,1526.29,1226.48" style="stroke:#181818;stroke-width:1.0;"/><text fill="#000000" font-family="sans-serif" font-size="13" lengthAdjust="spacing" textLength="7" x="1436.8843" y="1148.2295">1</text><text fill="#000000" font-family="sans-serif" font-size="13" lengthAdjust="spacing" textLength="7" x="1511.5756" y="1214.1938">1</text></g><!--SRC=[bPHTZw8m58Rl-oiQzy9a4jRixOIO68UPi77GgEjcBqivOZVGab9sOup_VGiY5BN2SaNeynxEHyyxFYYLvQ-JIPOGheeq-Kf5Eg49oNCdOYIM94Nem2B0AQY3Y7A49515U9m07dqN8Lvcm1cFH_XB659A23uXXFLJnS2Qg07NdSMnX9Wem6iXr7JgkXvNJ1sdqzFvHhE6FKZW55pNZw2cN7T7aWBmClojKxXLRPbAO2dV2quL4zm60ozIF1TSIKBLzfX1cKMHWjHvHNt_-1JH0DuGx0Wbd3B8Wo8DGJwF_WOvbInxblru_4cE8U1OO2MmpnN8Fmp-Leab29rjqy6pB4iO9MLiFIb2A0t3xgGCOlYe394V3P_LJ2b23n1vAM79CFIT9T13rha8-KOK6SRgl3UAg28VZ7z84ZrAf9nxstizzOX5PVzqhykzE1dHvjV3dZu_KFGssT0KKZ9Q94MwOuhOKhRTbvKK5F9StvNofdJpRtUwfWRNSQVyZthkjDR1FTV4y5IoEf0SZFIhe_8vj_PHCGEyez7ELgk5Fvzj_MNGVDlCrvuN-C57yyKFjjvwvti_Dwqmc2r-RVpsmzhR_5XiqIMXQe2cM-BHjn5sdI9pghUsV7JZZdRGjCQQkcDAjx6T6IPc_ycDBTf1rDpyyiHnfXLWh8C5wDvztILZWolYIdOCp4wPVjLBbLRL-yEBItMnbn9phcJR1loAyo9CcTBN3E-5l0z-qvUE83mEgVwoJKF8oW6hUzVThGkVm5xT5T1ikw6gmr_AVNb0woBqdg5gsJgvM9nW81c3BVLQL8Lv4ApPUlGF]--></g></svg>