<?xml version="1.0" encoding="us-ascii" standalone="no"?><svg xmlns="http://www.w3.org/2000/svg" xmlns:xlink="http://www.w3.org/1999/xlink" contentStyleType="text/css" height="436px" preserveAspectRatio="none" style="width:591px;height:436px;background:#FFFFFF;" version="1.1" viewBox="0 0 591 436" width="591px" zoomAndPan="magnify"><defs/><g><!--cluster application--><g id="cluster_application"><rect fill="none" height="269" rx="2.5" ry="2.5" style="stroke:#181818;stroke-width:1.0;" width="210" x="7" y="7"/><text fill="#000000" font-family="sans-serif" font-size="14" font-weight="bold" lengthAdjust="spacing" textLength="77" x="73.5" y="24.1074">application</text></g><!--cluster opening--><g id="cluster_opening"><rect fill="none" height="130" rx="2.5" ry="2.5" style="stroke:#181818;stroke-width:1.0;" width="160" x="241" y="145"/><text fill="#000000" font-family="sans-serif" font-size="14" font-weight="bold" lengthAdjust="spacing" textLength="58" x="292" y="162.1074">opening</text></g><!--cluster jobOpeningProcess--><g id="cluster_jobOpeningProcess"><rect fill="none" height="130" rx="2.5" ry="2.5" style="stroke:#181818;stroke-width:1.0;" width="192" x="225" y="300"/><text fill="#000000" font-family="sans-serif" font-size="14" font-weight="bold" lengthAdjust="spacing" textLength="139" x="251.5" y="317.1074">jobOpeningProcess</text></g><!--cluster candidate--><g id="cluster_candidate"><rect fill="none" height="130" rx="2.5" ry="2.5" style="stroke:#181818;stroke-width:1.0;" width="160" x="425" y="145"/><text fill="#000000" font-family="sans-serif" font-size="14" font-weight="bold" lengthAdjust="spacing" textLength="69" x="470.5" y="162.1074">candidate</text></g><!--class JobOpeningApplication--><g id="elem_JobOpeningApplication"><rect codeLine="3" fill="#F1F1F1" height="76.543" id="JobOpeningApplication" rx="2.5" ry="2.5" style="stroke:#181818;stroke-width:0.5;" width="177" x="23.5" y="44"/><ellipse cx="38.5" cy="74.2715" fill="#ADD1B2" rx="11" ry="11" style="stroke:#181818;stroke-width:1.0;"/><path d="M41.2656,70.1465 Q41.4219,69.9277 41.6094,69.8184 Q41.7969,69.709 42.0156,69.709 Q42.3906,69.709 42.625,69.9746 Q42.8594,70.2246 42.8594,70.834 L42.8594,72.2871 Q42.8594,72.8965 42.625,73.1621 Q42.3906,73.4277 42.0156,73.4277 Q41.6719,73.4277 41.4688,73.2246 Q41.2656,73.0371 41.1563,72.5215 Q41.1094,72.1621 40.9219,71.9746 Q40.5938,71.5996 39.9844,71.3809 Q39.375,71.1621 38.75,71.1621 Q37.9844,71.1621 37.3438,71.4902 Q36.7188,71.8184 36.2188,72.5684 Q35.7344,73.3184 35.7344,74.3496 L35.7344,75.4434 Q35.7344,76.6777 36.625,77.5059 Q37.5156,78.3184 39.1094,78.3184 Q40.0469,78.3184 40.7031,78.0684 Q41.0938,77.9121 41.5156,77.4746 Q41.7813,77.209 41.9219,77.1309 Q42.0781,77.0527 42.2813,77.0527 Q42.6094,77.0527 42.8594,77.3184 Q43.125,77.5684 43.125,77.9121 Q43.125,78.2559 42.7813,78.6621 Q42.2813,79.2402 41.4844,79.5684 Q40.4063,80.0215 39.1094,80.0215 Q37.5938,80.0215 36.3906,79.3965 Q35.4063,78.8965 34.7188,77.834 Q34.0313,76.7559 34.0313,75.4746 L34.0313,74.3184 Q34.0313,72.9902 34.6406,71.8496 Q35.2656,70.6934 36.3594,70.084 Q37.4531,69.459 38.6875,69.459 Q39.4219,69.459 40.0625,69.6309 Q40.7188,69.7871 41.2656,70.1465 Z " fill="#000000"/><text fill="#000000" font-family="sans-serif" font-size="12" font-style="italic" lengthAdjust="spacing" textLength="100" x="75" y="61.9492">&#171;Aggregate Root&#187;</text><text fill="#000000" font-family="sans-serif" font-size="12" font-style="italic" lengthAdjust="spacing" textLength="44" x="103" y="77.9102">&#171;Entity&#187;</text><text fill="#000000" font-family="sans-serif" font-size="14" lengthAdjust="spacing" textLength="145" x="52.5" y="96.0293">JobOpeningApplication</text><line style="stroke:#181818;stroke-width:0.5;" x1="24.5" x2="199.5" y1="104.543" y2="104.543"/><line style="stroke:#181818;stroke-width:0.5;" x1="24.5" x2="199.5" y1="112.543" y2="112.543"/></g><!--class Ranking--><g id="elem_Ranking"><rect codeLine="4" fill="#F1F1F1" height="79.2031" id="Ranking" rx="2.5" ry="2.5" style="stroke:#181818;stroke-width:0.5;" width="113" x="55.5" y="181"/><ellipse cx="70.5" cy="203.291" fill="#ADD1B2" rx="11" ry="11" style="stroke:#181818;stroke-width:1.0;"/><path d="M73.2656,199.166 Q73.4219,198.9473 73.6094,198.8379 Q73.7969,198.7285 74.0156,198.7285 Q74.3906,198.7285 74.625,198.9941 Q74.8594,199.2441 74.8594,199.8535 L74.8594,201.3066 Q74.8594,201.916 74.625,202.1816 Q74.3906,202.4473 74.0156,202.4473 Q73.6719,202.4473 73.4688,202.2441 Q73.2656,202.0566 73.1563,201.541 Q73.1094,201.1816 72.9219,200.9941 Q72.5938,200.6191 71.9844,200.4004 Q71.375,200.1816 70.75,200.1816 Q69.9844,200.1816 69.3438,200.5098 Q68.7188,200.8379 68.2188,201.5879 Q67.7344,202.3379 67.7344,203.3691 L67.7344,204.4629 Q67.7344,205.6973 68.625,206.5254 Q69.5156,207.3379 71.1094,207.3379 Q72.0469,207.3379 72.7031,207.0879 Q73.0938,206.9316 73.5156,206.4941 Q73.7813,206.2285 73.9219,206.1504 Q74.0781,206.0723 74.2813,206.0723 Q74.6094,206.0723 74.8594,206.3379 Q75.125,206.5879 75.125,206.9316 Q75.125,207.2754 74.7813,207.6816 Q74.2813,208.2598 73.4844,208.5879 Q72.4063,209.041 71.1094,209.041 Q69.5938,209.041 68.3906,208.416 Q67.4063,207.916 66.7188,206.8535 Q66.0313,205.7754 66.0313,204.4941 L66.0313,203.3379 Q66.0313,202.0098 66.6406,200.8691 Q67.2656,199.7129 68.3594,199.1035 Q69.4531,198.4785 70.6875,198.4785 Q71.4219,198.4785 72.0625,198.6504 Q72.7188,198.8066 73.2656,199.166 Z " fill="#000000"/><text fill="#000000" font-family="sans-serif" font-size="12" font-style="italic" lengthAdjust="spacing" textLength="85" x="82.5" y="198.9492">&#171;Value Object&#187;</text><text fill="#000000" font-family="sans-serif" font-size="14" lengthAdjust="spacing" textLength="52" x="99" y="217.0684">Ranking</text><line style="stroke:#181818;stroke-width:0.5;" x1="56.5" x2="167.5" y1="225.582" y2="225.582"/><rect fill="none" height="6" style="stroke:#C82930;stroke-width:1.0;" width="6" x="63.5" y="237.3926"/><text fill="#000000" font-family="sans-serif" font-size="14" lengthAdjust="spacing" textLength="55" x="75.5" y="244.6895">int rating</text><line style="stroke:#181818;stroke-width:0.5;" x1="56.5" x2="167.5" y1="252.2031" y2="252.2031"/></g><!--class JobOpening--><g id="elem_JobOpening"><rect codeLine="17" fill="#F1F1F1" height="76.543" id="JobOpening" rx="2.5" ry="2.5" style="stroke:#181818;stroke-width:0.5;" width="128" x="257" y="182"/><ellipse cx="272" cy="212.2715" fill="#ADD1B2" rx="11" ry="11" style="stroke:#181818;stroke-width:1.0;"/><path d="M274.7656,208.1465 Q274.9219,207.9277 275.1094,207.8184 Q275.2969,207.709 275.5156,207.709 Q275.8906,207.709 276.125,207.9746 Q276.3594,208.2246 276.3594,208.834 L276.3594,210.2871 Q276.3594,210.8965 276.125,211.1621 Q275.8906,211.4277 275.5156,211.4277 Q275.1719,211.4277 274.9688,211.2246 Q274.7656,211.0371 274.6563,210.5215 Q274.6094,210.1621 274.4219,209.9746 Q274.0938,209.5996 273.4844,209.3809 Q272.875,209.1621 272.25,209.1621 Q271.4844,209.1621 270.8438,209.4902 Q270.2188,209.8184 269.7188,210.5684 Q269.2344,211.3184 269.2344,212.3496 L269.2344,213.4434 Q269.2344,214.6777 270.125,215.5059 Q271.0156,216.3184 272.6094,216.3184 Q273.5469,216.3184 274.2031,216.0684 Q274.5938,215.9121 275.0156,215.4746 Q275.2813,215.209 275.4219,215.1309 Q275.5781,215.0527 275.7813,215.0527 Q276.1094,215.0527 276.3594,215.3184 Q276.625,215.5684 276.625,215.9121 Q276.625,216.2559 276.2813,216.6621 Q275.7813,217.2402 274.9844,217.5684 Q273.9063,218.0215 272.6094,218.0215 Q271.0938,218.0215 269.8906,217.3965 Q268.9063,216.8965 268.2188,215.834 Q267.5313,214.7559 267.5313,213.4746 L267.5313,212.3184 Q267.5313,210.9902 268.1406,209.8496 Q268.7656,208.6934 269.8594,208.084 Q270.9531,207.459 272.1875,207.459 Q272.9219,207.459 273.5625,207.6309 Q274.2188,207.7871 274.7656,208.1465 Z " fill="#000000"/><text fill="#000000" font-family="sans-serif" font-size="12" font-style="italic" lengthAdjust="spacing" textLength="100" x="284" y="199.9492">&#171;Aggregate Root&#187;</text><text fill="#000000" font-family="sans-serif" font-size="12" font-style="italic" lengthAdjust="spacing" textLength="44" x="312" y="215.9102">&#171;Entity&#187;</text><text fill="#000000" font-family="sans-serif" font-size="14" lengthAdjust="spacing" textLength="76" x="296" y="234.0293">JobOpening</text><line style="stroke:#181818;stroke-width:0.5;" x1="258" x2="384" y1="242.543" y2="242.543"/><line style="stroke:#181818;stroke-width:0.5;" x1="258" x2="384" y1="250.543" y2="250.543"/></g><!--class JobOpeningProcess--><g id="elem_JobOpeningProcess"><rect codeLine="23" fill="#F1F1F1" height="76.543" id="JobOpeningProcess" rx="2.5" ry="2.5" style="stroke:#181818;stroke-width:0.5;" width="159" x="241.5" y="337"/><ellipse cx="256.5" cy="367.2715" fill="#ADD1B2" rx="11" ry="11" style="stroke:#181818;stroke-width:1.0;"/><path d="M259.2656,363.1465 Q259.4219,362.9277 259.6094,362.8184 Q259.7969,362.709 260.0156,362.709 Q260.3906,362.709 260.625,362.9746 Q260.8594,363.2246 260.8594,363.834 L260.8594,365.2871 Q260.8594,365.8965 260.625,366.1621 Q260.3906,366.4277 260.0156,366.4277 Q259.6719,366.4277 259.4688,366.2246 Q259.2656,366.0371 259.1563,365.5215 Q259.1094,365.1621 258.9219,364.9746 Q258.5938,364.5996 257.9844,364.3809 Q257.375,364.1621 256.75,364.1621 Q255.9844,364.1621 255.3438,364.4902 Q254.7188,364.8184 254.2188,365.5684 Q253.7344,366.3184 253.7344,367.3496 L253.7344,368.4434 Q253.7344,369.6777 254.625,370.5059 Q255.5156,371.3184 257.1094,371.3184 Q258.0469,371.3184 258.7031,371.0684 Q259.0938,370.9121 259.5156,370.4746 Q259.7813,370.209 259.9219,370.1309 Q260.0781,370.0527 260.2813,370.0527 Q260.6094,370.0527 260.8594,370.3184 Q261.125,370.5684 261.125,370.9121 Q261.125,371.2559 260.7813,371.6621 Q260.2813,372.2402 259.4844,372.5684 Q258.4063,373.0215 257.1094,373.0215 Q255.5938,373.0215 254.3906,372.3965 Q253.4063,371.8965 252.7188,370.834 Q252.0313,369.7559 252.0313,368.4746 L252.0313,367.3184 Q252.0313,365.9902 252.6406,364.8496 Q253.2656,363.6934 254.3594,363.084 Q255.4531,362.459 256.6875,362.459 Q257.4219,362.459 258.0625,362.6309 Q258.7188,362.7871 259.2656,363.1465 Z " fill="#000000"/><text fill="#000000" font-family="sans-serif" font-size="12" font-style="italic" lengthAdjust="spacing" textLength="100" x="284" y="354.9492">&#171;Aggregate Root&#187;</text><text fill="#000000" font-family="sans-serif" font-size="12" font-style="italic" lengthAdjust="spacing" textLength="44" x="312" y="370.9102">&#171;Entity&#187;</text><text fill="#000000" font-family="sans-serif" font-size="14" lengthAdjust="spacing" textLength="127" x="270.5" y="389.0293">JobOpeningProcess</text><line style="stroke:#181818;stroke-width:0.5;" x1="242.5" x2="399.5" y1="397.543" y2="397.543"/><line style="stroke:#181818;stroke-width:0.5;" x1="242.5" x2="399.5" y1="405.543" y2="405.543"/></g><!--class Candidate--><g id="elem_Candidate"><rect codeLine="31" fill="#F1F1F1" height="76.543" id="Candidate" rx="2.5" ry="2.5" style="stroke:#181818;stroke-width:0.5;" width="128" x="441" y="182"/><ellipse cx="456" cy="212.2715" fill="#ADD1B2" rx="11" ry="11" style="stroke:#181818;stroke-width:1.0;"/><path d="M458.7656,208.1465 Q458.9219,207.9277 459.1094,207.8184 Q459.2969,207.709 459.5156,207.709 Q459.8906,207.709 460.125,207.9746 Q460.3594,208.2246 460.3594,208.834 L460.3594,210.2871 Q460.3594,210.8965 460.125,211.1621 Q459.8906,211.4277 459.5156,211.4277 Q459.1719,211.4277 458.9688,211.2246 Q458.7656,211.0371 458.6563,210.5215 Q458.6094,210.1621 458.4219,209.9746 Q458.0938,209.5996 457.4844,209.3809 Q456.875,209.1621 456.25,209.1621 Q455.4844,209.1621 454.8438,209.4902 Q454.2188,209.8184 453.7188,210.5684 Q453.2344,211.3184 453.2344,212.3496 L453.2344,213.4434 Q453.2344,214.6777 454.125,215.5059 Q455.0156,216.3184 456.6094,216.3184 Q457.5469,216.3184 458.2031,216.0684 Q458.5938,215.9121 459.0156,215.4746 Q459.2813,215.209 459.4219,215.1309 Q459.5781,215.0527 459.7813,215.0527 Q460.1094,215.0527 460.3594,215.3184 Q460.625,215.5684 460.625,215.9121 Q460.625,216.2559 460.2813,216.6621 Q459.7813,217.2402 458.9844,217.5684 Q457.9063,218.0215 456.6094,218.0215 Q455.0938,218.0215 453.8906,217.3965 Q452.9063,216.8965 452.2188,215.834 Q451.5313,214.7559 451.5313,213.4746 L451.5313,212.3184 Q451.5313,210.9902 452.1406,209.8496 Q452.7656,208.6934 453.8594,208.084 Q454.9531,207.459 456.1875,207.459 Q456.9219,207.459 457.5625,207.6309 Q458.2188,207.7871 458.7656,208.1465 Z " fill="#000000"/><text fill="#000000" font-family="sans-serif" font-size="12" font-style="italic" lengthAdjust="spacing" textLength="100" x="468" y="199.9492">&#171;Aggregate Root&#187;</text><text fill="#000000" font-family="sans-serif" font-size="12" font-style="italic" lengthAdjust="spacing" textLength="44" x="496" y="215.9102">&#171;Entity&#187;</text><text fill="#000000" font-family="sans-serif" font-size="14" lengthAdjust="spacing" textLength="65" x="485.5" y="234.0293">Candidate</text><line style="stroke:#181818;stroke-width:0.5;" x1="442" x2="568" y1="242.543" y2="242.543"/><line style="stroke:#181818;stroke-width:0.5;" x1="442" x2="568" y1="250.543" y2="250.543"/></g><!--link JobOpeningApplication to Ranking--><g id="link_JobOpeningApplication_Ranking"><path codeLine="9" d="M112,133.02 C112,151.58 112,155.95 112,174.68 " fill="none" id="JobOpeningApplication-Ranking" style="stroke:#181818;stroke-width:1.0;"/><polygon fill="#181818" points="112,121.02,108,127.02,112,133.02,116,127.02,112,121.02" style="stroke:#181818;stroke-width:1.0;"/><polygon fill="#181818" points="112,180.68,116,171.68,112,175.68,108,171.68,112,180.68" style="stroke:#181818;stroke-width:1.0;"/><text fill="#000000" font-family="sans-serif" font-size="13" lengthAdjust="spacing" textLength="7" x="104.4422" y="142.6017">1</text><text fill="#000000" font-family="sans-serif" font-size="13" lengthAdjust="spacing" textLength="22" x="88.1781" y="169.7126">0..1</text></g><!--link JobOpeningApplication to JobOpening--><g id="link_JobOpeningApplication_JobOpening"><path codeLine="18" d="M200.6203,126.8809 C209.8403,131.9609 208.48,131.53 217,137 C237.85,150.39 254.8785,163.2778 273.0185,178.1378 " fill="none" id="JobOpeningApplication-JobOpening" style="stroke:#181818;stroke-width:1.0;"/><polygon fill="none" points="190.11,121.09,193.4348,127.4889,200.6203,126.8809,197.2954,120.482,190.11,121.09" style="stroke:#181818;stroke-width:1.0;"/><polygon fill="#181818" points="277.66,181.94,273.2326,173.1424,273.7921,178.7715,268.163,179.331,277.66,181.94" style="stroke:#181818;stroke-width:1.0;"/><text fill="#000000" font-family="sans-serif" font-size="13" lengthAdjust="spacing" textLength="7" x="195.001" y="142.6829">1</text><text fill="#000000" font-family="sans-serif" font-size="13" lengthAdjust="spacing" textLength="7" x="262.3166" y="170.6524">1</text></g><!--link JobOpening to JobOpeningProcess--><g id="link_JobOpening_JobOpeningProcess"><path codeLine="24" d="M321,271.32 C321,294.95 321,307.25 321,330.85 " fill="none" id="JobOpening-JobOpeningProcess" style="stroke:#181818;stroke-width:1.0;"/><polygon fill="none" points="321,259.32,317,265.32,321,271.32,325,265.32,321,259.32" style="stroke:#181818;stroke-width:1.0;"/><polygon fill="#181818" points="321,336.85,325,327.85,321,331.85,317,327.85,321,336.85" style="stroke:#181818;stroke-width:1.0;"/><text fill="#000000" font-family="sans-serif" font-size="13" lengthAdjust="spacing" textLength="7" x="313.4641" y="280.6515">1</text><text fill="#000000" font-family="sans-serif" font-size="13" lengthAdjust="spacing" textLength="7" x="313.3984" y="325.8387">1</text></g><!--link JobOpeningApplication to Candidate--><g id="link_JobOpeningApplication_Candidate"><path codeLine="34" d="M212.6157,89.9809 C271.5757,96.1109 337.6,108.17 401,137 C425.13,147.97 444.0509,161.7717 462.5509,178.0117 " fill="none" id="JobOpeningApplication-Candidate" style="stroke:#181818;stroke-width:1.0;"/><polygon fill="none" points="200.68,88.74,206.2342,93.339,212.6157,89.9809,207.0615,85.3819,200.68,88.74" style="stroke:#181818;stroke-width:1.0;"/><polygon fill="#181818" points="467.06,181.97,462.9352,173.0265,463.3024,178.6714,457.6575,179.0387,467.06,181.97" style="stroke:#181818;stroke-width:1.0;"/><text fill="#000000" font-family="sans-serif" font-size="13" lengthAdjust="spacing" textLength="7" x="208.6017" y="85.6062">1</text><text fill="#000000" font-family="sans-serif" font-size="13" lengthAdjust="spacing" textLength="7" x="452.6785" y="170.6877">1</text></g><!--SRC=[bP0n2uCm48LtVqLmB2Xr3m4fNRgqE7IFCOHOkKYI3aNyxpsZLGUBxIq9btllUpahXUUW6abuspPQSAyDT1714WrtZbnCUMqbQ53vCa1fhfILYdj92cCyOvIUmMl_OgphL-g2mmEbbDvvyvJaMjR8mvamCbIYmHEBfg12hu-YS6vYuomcXoHX93wcATudTvH4WyxEVp6ZTFiVFuJ_IZU1diNBG40lv7f-k5aZf7FR6QR7lw9iyoUdSGEh8893fIiqNWSuVPexO3JRNS7iXTWt]--></g></svg>