<?xml version="1.0" encoding="us-ascii" standalone="no"?><svg xmlns="http://www.w3.org/2000/svg" xmlns:xlink="http://www.w3.org/1999/xlink" contentStyleType="text/css" height="1091px" preserveAspectRatio="none" style="width:1697px;height:1091px;background:#FFFFFF;" version="1.1" viewBox="0 0 1697 1091" width="1697px" zoomAndPan="magnify"><defs/><g><rect fill="#FFFFFF" height="904.4395" style="stroke:#181818;stroke-width:1.0;" width="10" x="88.5" y="93.6211"/><rect fill="#FFFFFF" height="219.0371" style="stroke:#181818;stroke-width:1.0;" width="10" x="443.5" y="116.9121"/><rect fill="#FFFFFF" height="631.8203" style="stroke:#181818;stroke-width:1.0;" width="10" x="443.5" y="367.2402"/><rect fill="#FFFFFF" height="156.4551" style="stroke:#181818;stroke-width:1.0;" width="10" x="714.5" y="148.2031"/><rect fill="#FFFFFF" height="156.4551" style="stroke:#181818;stroke-width:1.0;" width="10" x="714.5" y="398.5313"/><rect fill="#FFFFFF" height="219.0371" style="stroke:#181818;stroke-width:1.0;" width="10" x="714.5" y="732.7324"/><rect fill="#FFFFFF" height="93.873" style="stroke:#181818;stroke-width:1.0;" width="10" x="1048.5" y="179.4941"/><rect fill="#FFFFFF" height="93.873" style="stroke:#181818;stroke-width:1.0;" width="10" x="1048.5" y="429.8223"/><rect fill="#FFFFFF" height="156.4551" style="stroke:#181818;stroke-width:1.0;" width="10" x="1048.5" y="764.0234"/><rect fill="#FFFFFF" height="31.291" style="stroke:#181818;stroke-width:1.0;" width="10" x="1232" y="210.7852"/><rect fill="#FFFFFF" height="31.291" style="stroke:#181818;stroke-width:1.0;" width="10" x="1426" y="461.1133"/><rect fill="#FFFFFF" height="31.291" style="stroke:#181818;stroke-width:1.0;" width="10" x="1426" y="857.8965"/><rect fill="#FFFFFF" height="31.291" style="stroke:#181818;stroke-width:1.0;" width="10" x="1595" y="795.3145"/><rect fill="none" height="363.4922" style="stroke:#000000;stroke-width:1.5;" width="1671.5" x="20" y="627.5684"/><line style="stroke:#181818;stroke-width:0.5;stroke-dasharray:5.0,5.0;" x1="93" x2="93" y1="83.6211" y2="1008.0605"/><line style="stroke:#181818;stroke-width:0.5;stroke-dasharray:5.0,5.0;" x1="448.5" x2="448.5" y1="83.6211" y2="1008.0605"/><line style="stroke:#181818;stroke-width:0.5;stroke-dasharray:5.0,5.0;" x1="719.5" x2="719.5" y1="83.6211" y2="1008.0605"/><line style="stroke:#181818;stroke-width:0.5;stroke-dasharray:5.0,5.0;" x1="1053.5" x2="1053.5" y1="83.6211" y2="1008.0605"/><line style="stroke:#181818;stroke-width:0.5;stroke-dasharray:5.0,5.0;" x1="1236.5" x2="1236.5" y1="83.6211" y2="1008.0605"/><line style="stroke:#181818;stroke-width:0.5;stroke-dasharray:5.0,5.0;" x1="1430.5" x2="1430.5" y1="83.6211" y2="1008.0605"/><line style="stroke:#181818;stroke-width:0.5;stroke-dasharray:5.0,5.0;" x1="1599.5" x2="1599.5" y1="83.6211" y2="1008.0605"/><text fill="#000000" font-family="sans-serif" font-size="14" lengthAdjust="spacing" textLength="121" x="30" y="80.1074">Customer Manager</text><ellipse cx="93.5" cy="13.5" fill="#E2E2F0" rx="8" ry="8" style="stroke:#181818;stroke-width:0.5;"/><path d="M93.5,21.5 L93.5,48.5 M80.5,29.5 L106.5,29.5 M93.5,48.5 L80.5,63.5 M93.5,48.5 L106.5,63.5 " fill="none" style="stroke:#181818;stroke-width:0.5;"/><text fill="#000000" font-family="sans-serif" font-size="14" lengthAdjust="spacing" textLength="121" x="30" y="1022.168">Customer Manager</text><ellipse cx="93.5" cy="1034.1816" fill="#E2E2F0" rx="8" ry="8" style="stroke:#181818;stroke-width:0.5;"/><path d="M93.5,1042.1816 L93.5,1069.1816 M80.5,1050.1816 L106.5,1050.1816 M93.5,1069.1816 L80.5,1084.1816 M93.5,1069.1816 L106.5,1084.1816 " fill="none" style="stroke:#181818;stroke-width:0.5;"/><rect fill="#E2E2F0" height="51.2422" rx="2.5" ry="2.5" style="stroke:#181818;stroke-width:0.5;" width="132" x="382.5" y="31.3789"/><text fill="#000000" font-family="sans-serif" font-size="14" font-style="italic" lengthAdjust="spacing" textLength="30" x="433.5" y="53.4863">&#171;UI&#187;</text><text fill="#000000" font-family="sans-serif" font-size="14" lengthAdjust="spacing" textLength="118" x="389.5" y="72.1074">:RankApplicationUI</text><rect fill="#E2E2F0" height="51.2422" rx="2.5" ry="2.5" style="stroke:#181818;stroke-width:0.5;" width="132" x="382.5" y="1007.0605"/><text fill="#000000" font-family="sans-serif" font-size="14" font-style="italic" lengthAdjust="spacing" textLength="30" x="433.5" y="1029.168">&#171;UI&#187;</text><text fill="#000000" font-family="sans-serif" font-size="14" lengthAdjust="spacing" textLength="118" x="389.5" y="1047.7891">:RankApplicationUI</text><rect fill="#E2E2F0" height="51.2422" rx="2.5" ry="2.5" style="stroke:#181818;stroke-width:0.5;" width="182" x="628.5" y="31.3789"/><text fill="#000000" font-family="sans-serif" font-size="14" font-style="italic" lengthAdjust="spacing" textLength="85" x="677" y="53.4863">&#171;Application&#187;</text><text fill="#000000" font-family="sans-serif" font-size="14" lengthAdjust="spacing" textLength="168" x="635.5" y="72.1074">:RankApplicationController</text><rect fill="#E2E2F0" height="51.2422" rx="2.5" ry="2.5" style="stroke:#181818;stroke-width:0.5;" width="182" x="628.5" y="1007.0605"/><text fill="#000000" font-family="sans-serif" font-size="14" font-style="italic" lengthAdjust="spacing" textLength="85" x="677" y="1029.168">&#171;Application&#187;</text><text fill="#000000" font-family="sans-serif" font-size="14" lengthAdjust="spacing" textLength="168" x="635.5" y="1047.7891">:RankApplicationController</text><rect fill="#E2E2F0" height="51.2422" rx="2.5" ry="2.5" style="stroke:#181818;stroke-width:0.5;" width="134" x="986.5" y="31.3789"/><text fill="#000000" font-family="sans-serif" font-size="14" font-style="italic" lengthAdjust="spacing" textLength="62" x="1022.5" y="53.4863">&#171;Service&#187;</text><text fill="#000000" font-family="sans-serif" font-size="14" lengthAdjust="spacing" textLength="120" x="993.5" y="72.1074">:ApplicationService</text><rect fill="#E2E2F0" height="51.2422" rx="2.5" ry="2.5" style="stroke:#181818;stroke-width:0.5;" width="134" x="986.5" y="1007.0605"/><text fill="#000000" font-family="sans-serif" font-size="14" font-style="italic" lengthAdjust="spacing" textLength="62" x="1022.5" y="1029.168">&#171;Service&#187;</text><text fill="#000000" font-family="sans-serif" font-size="14" lengthAdjust="spacing" textLength="120" x="993.5" y="1047.7891">:ApplicationService</text><rect fill="#E2E2F0" height="51.2422" rx="2.5" ry="2.5" style="stroke:#181818;stroke-width:0.5;" width="213" x="1130.5" y="31.3789"/><text fill="#000000" font-family="sans-serif" font-size="14" font-style="italic" lengthAdjust="spacing" textLength="90" x="1192" y="53.4863">&#171;Persistence&#187;</text><text fill="#000000" font-family="sans-serif" font-size="14" lengthAdjust="spacing" textLength="199" x="1137.5" y="72.1074">:JobOpeningProcessRepository</text><rect fill="#E2E2F0" height="51.2422" rx="2.5" ry="2.5" style="stroke:#181818;stroke-width:0.5;" width="213" x="1130.5" y="1007.0605"/><text fill="#000000" font-family="sans-serif" font-size="14" font-style="italic" lengthAdjust="spacing" textLength="90" x="1192" y="1029.168">&#171;Persistence&#187;</text><text fill="#000000" font-family="sans-serif" font-size="14" lengthAdjust="spacing" textLength="199" x="1137.5" y="1047.7891">:JobOpeningProcessRepository</text><rect fill="#E2E2F0" height="51.2422" rx="2.5" ry="2.5" style="stroke:#181818;stroke-width:0.5;" width="155" x="1353.5" y="31.3789"/><text fill="#000000" font-family="sans-serif" font-size="14" font-style="italic" lengthAdjust="spacing" textLength="90" x="1386" y="53.4863">&#171;Persistence&#187;</text><text fill="#000000" font-family="sans-serif" font-size="14" lengthAdjust="spacing" textLength="141" x="1360.5" y="72.1074">:ApplicationRepository</text><rect fill="#E2E2F0" height="51.2422" rx="2.5" ry="2.5" style="stroke:#181818;stroke-width:0.5;" width="155" x="1353.5" y="1007.0605"/><text fill="#000000" font-family="sans-serif" font-size="14" font-style="italic" lengthAdjust="spacing" textLength="90" x="1386" y="1029.168">&#171;Persistence&#187;</text><text fill="#000000" font-family="sans-serif" font-size="14" lengthAdjust="spacing" textLength="141" x="1360.5" y="1047.7891">:ApplicationRepository</text><rect fill="#E2E2F0" height="51.2422" rx="2.5" ry="2.5" style="stroke:#181818;stroke-width:0.5;" width="163" x="1518.5" y="31.3789"/><text fill="#000000" font-family="sans-serif" font-size="14" font-style="italic" lengthAdjust="spacing" textLength="64" x="1568" y="53.4863">&#171;Domain&#187;</text><text fill="#000000" font-family="sans-serif" font-size="14" lengthAdjust="spacing" textLength="149" x="1525.5" y="72.1074">:JobOpeningApplication</text><rect fill="#E2E2F0" height="51.2422" rx="2.5" ry="2.5" style="stroke:#181818;stroke-width:0.5;" width="163" x="1518.5" y="1007.0605"/><text fill="#000000" font-family="sans-serif" font-size="14" font-style="italic" lengthAdjust="spacing" textLength="64" x="1568" y="1029.168">&#171;Domain&#187;</text><text fill="#000000" font-family="sans-serif" font-size="14" lengthAdjust="spacing" textLength="149" x="1525.5" y="1047.7891">:JobOpeningApplication</text><rect fill="#FFFFFF" height="904.4395" style="stroke:#181818;stroke-width:1.0;" width="10" x="88.5" y="93.6211"/><rect fill="#FFFFFF" height="219.0371" style="stroke:#181818;stroke-width:1.0;" width="10" x="443.5" y="116.9121"/><rect fill="#FFFFFF" height="631.8203" style="stroke:#181818;stroke-width:1.0;" width="10" x="443.5" y="367.2402"/><rect fill="#FFFFFF" height="156.4551" style="stroke:#181818;stroke-width:1.0;" width="10" x="714.5" y="148.2031"/><rect fill="#FFFFFF" height="156.4551" style="stroke:#181818;stroke-width:1.0;" width="10" x="714.5" y="398.5313"/><rect fill="#FFFFFF" height="219.0371" style="stroke:#181818;stroke-width:1.0;" width="10" x="714.5" y="732.7324"/><rect fill="#FFFFFF" height="93.873" style="stroke:#181818;stroke-width:1.0;" width="10" x="1048.5" y="179.4941"/><rect fill="#FFFFFF" height="93.873" style="stroke:#181818;stroke-width:1.0;" width="10" x="1048.5" y="429.8223"/><rect fill="#FFFFFF" height="156.4551" style="stroke:#181818;stroke-width:1.0;" width="10" x="1048.5" y="764.0234"/><rect fill="#FFFFFF" height="31.291" style="stroke:#181818;stroke-width:1.0;" width="10" x="1232" y="210.7852"/><rect fill="#FFFFFF" height="31.291" style="stroke:#181818;stroke-width:1.0;" width="10" x="1426" y="461.1133"/><rect fill="#FFFFFF" height="31.291" style="stroke:#181818;stroke-width:1.0;" width="10" x="1426" y="857.8965"/><rect fill="#FFFFFF" height="31.291" style="stroke:#181818;stroke-width:1.0;" width="10" x="1595" y="795.3145"/><polygon fill="#181818" points="431.5,112.9121,441.5,116.9121,431.5,120.9121,435.5,116.9121" style="stroke:#181818;stroke-width:1.0;"/><line style="stroke:#181818;stroke-width:1.0;" x1="98.5" x2="437.5" y1="116.9121" y2="116.9121"/><text fill="#000000" font-family="sans-serif" font-size="13" font-weight="bold" lengthAdjust="spacing" textLength="7" x="105.5" y="111.6494">1</text><text fill="#000000" font-family="sans-serif" font-size="13" lengthAdjust="spacing" textLength="258" x="116.5" y="111.6494">Request to rank candidates for a job opening</text><polygon fill="#181818" points="702.5,144.2031,712.5,148.2031,702.5,152.2031,706.5,148.2031" style="stroke:#181818;stroke-width:1.0;"/><line style="stroke:#181818;stroke-width:1.0;" x1="453.5" x2="708.5" y1="148.2031" y2="148.2031"/><text fill="#000000" font-family="sans-serif" font-size="13" font-weight="bold" lengthAdjust="spacing" textLength="7" x="460.5" y="142.9404">2</text><text fill="#000000" font-family="sans-serif" font-size="13" lengthAdjust="spacing" textLength="171" x="471.5" y="142.9404">findAllJobOpeningInAnalysis()</text><polygon fill="#181818" points="1036.5,175.4941,1046.5,179.4941,1036.5,183.4941,1040.5,179.4941" style="stroke:#181818;stroke-width:1.0;"/><line style="stroke:#181818;stroke-width:1.0;" x1="724.5" x2="1042.5" y1="179.4941" y2="179.4941"/><text fill="#000000" font-family="sans-serif" font-size="13" font-weight="bold" lengthAdjust="spacing" textLength="7" x="731.5" y="174.2314">3</text><text fill="#000000" font-family="sans-serif" font-size="13" lengthAdjust="spacing" textLength="171" x="742.5" y="174.2314">findAllJobOpeningInAnalysis()</text><polygon fill="#181818" points="1220,206.7852,1230,210.7852,1220,214.7852,1224,210.7852" style="stroke:#181818;stroke-width:1.0;"/><line style="stroke:#181818;stroke-width:1.0;" x1="1058.5" x2="1226" y1="210.7852" y2="210.7852"/><text fill="#000000" font-family="sans-serif" font-size="13" font-weight="bold" lengthAdjust="spacing" textLength="7" x="1065.5" y="205.5225">4</text><text fill="#000000" font-family="sans-serif" font-size="13" lengthAdjust="spacing" textLength="103" x="1076.5" y="205.5225">findAllInAnalysis()</text><polygon fill="#181818" points="1069.5,238.0762,1059.5,242.0762,1069.5,246.0762,1065.5,242.0762" style="stroke:#181818;stroke-width:1.0;"/><line style="stroke:#181818;stroke-width:1.0;stroke-dasharray:2.0,2.0;" x1="1063.5" x2="1236" y1="242.0762" y2="242.0762"/><text fill="#000000" font-family="sans-serif" font-size="13" font-weight="bold" lengthAdjust="spacing" textLength="7" x="1075.5" y="236.8135">5</text><text fill="#000000" font-family="sans-serif" font-size="13" lengthAdjust="spacing" textLength="52" x="1086.5" y="236.8135">openings</text><polygon fill="#181818" points="735.5,269.3672,725.5,273.3672,735.5,277.3672,731.5,273.3672" style="stroke:#181818;stroke-width:1.0;"/><line style="stroke:#181818;stroke-width:1.0;stroke-dasharray:2.0,2.0;" x1="729.5" x2="1052.5" y1="273.3672" y2="273.3672"/><text fill="#000000" font-family="sans-serif" font-size="13" font-weight="bold" lengthAdjust="spacing" textLength="7" x="741.5" y="268.1045">6</text><text fill="#000000" font-family="sans-serif" font-size="13" lengthAdjust="spacing" textLength="52" x="752.5" y="268.1045">openings</text><polygon fill="#181818" points="464.5,300.6582,454.5,304.6582,464.5,308.6582,460.5,304.6582" style="stroke:#181818;stroke-width:1.0;"/><line style="stroke:#181818;stroke-width:1.0;stroke-dasharray:2.0,2.0;" x1="458.5" x2="718.5" y1="304.6582" y2="304.6582"/><text fill="#000000" font-family="sans-serif" font-size="13" font-weight="bold" lengthAdjust="spacing" textLength="7" x="470.5" y="299.3955">7</text><text fill="#000000" font-family="sans-serif" font-size="13" lengthAdjust="spacing" textLength="52" x="481.5" y="299.3955">openings</text><polygon fill="#181818" points="109.5,331.9492,99.5,335.9492,109.5,339.9492,105.5,335.9492" style="stroke:#181818;stroke-width:1.0;"/><line style="stroke:#181818;stroke-width:1.0;stroke-dasharray:2.0,2.0;" x1="103.5" x2="447.5" y1="335.9492" y2="335.9492"/><text fill="#000000" font-family="sans-serif" font-size="13" font-weight="bold" lengthAdjust="spacing" textLength="7" x="115.5" y="330.6865">8</text><text fill="#000000" font-family="sans-serif" font-size="13" lengthAdjust="spacing" textLength="206" x="126.5" y="330.6865">Show list of applicable job openings</text><polygon fill="#181818" points="431.5,363.2402,441.5,367.2402,431.5,371.2402,435.5,367.2402" style="stroke:#181818;stroke-width:1.0;"/><line style="stroke:#181818;stroke-width:1.0;" x1="98.5" x2="437.5" y1="367.2402" y2="367.2402"/><text fill="#000000" font-family="sans-serif" font-size="13" font-weight="bold" lengthAdjust="spacing" textLength="7" x="105.5" y="361.9775">9</text><text fill="#000000" font-family="sans-serif" font-size="13" lengthAdjust="spacing" textLength="118" x="116.5" y="361.9775">Select a job opening</text><polygon fill="#181818" points="702.5,394.5313,712.5,398.5313,702.5,402.5313,706.5,398.5313" style="stroke:#181818;stroke-width:1.0;"/><line style="stroke:#181818;stroke-width:1.0;" x1="453.5" x2="708.5" y1="398.5313" y2="398.5313"/><text fill="#000000" font-family="sans-serif" font-size="13" font-weight="bold" lengthAdjust="spacing" textLength="14" x="460.5" y="393.2686">10</text><text fill="#000000" font-family="sans-serif" font-size="13" lengthAdjust="spacing" textLength="224" x="478.5" y="393.2686">allApplicationsForJobOpening(opening)</text><polygon fill="#181818" points="1036.5,425.8223,1046.5,429.8223,1036.5,433.8223,1040.5,429.8223" style="stroke:#181818;stroke-width:1.0;"/><line style="stroke:#181818;stroke-width:1.0;" x1="724.5" x2="1042.5" y1="429.8223" y2="429.8223"/><text fill="#000000" font-family="sans-serif" font-size="13" font-weight="bold" lengthAdjust="spacing" textLength="14" x="731.5" y="424.5596">11</text><text fill="#000000" font-family="sans-serif" font-size="13" lengthAdjust="spacing" textLength="287" x="749.5" y="424.5596">findAllJobOpeningApplicationsInAnalysis(opening)</text><polygon fill="#181818" points="1414,457.1133,1424,461.1133,1414,465.1133,1418,461.1133" style="stroke:#181818;stroke-width:1.0;"/><line style="stroke:#181818;stroke-width:1.0;" x1="1058.5" x2="1420" y1="461.1133" y2="461.1133"/><text fill="#000000" font-family="sans-serif" font-size="13" font-weight="bold" lengthAdjust="spacing" textLength="14" x="1065.5" y="455.8506">12</text><text fill="#000000" font-family="sans-serif" font-size="13" lengthAdjust="spacing" textLength="172" x="1083.5" y="455.8506">findAllByJobOpening(opening)</text><polygon fill="#181818" points="1069.5,488.4043,1059.5,492.4043,1069.5,496.4043,1065.5,492.4043" style="stroke:#181818;stroke-width:1.0;"/><line style="stroke:#181818;stroke-width:1.0;stroke-dasharray:2.0,2.0;" x1="1063.5" x2="1430" y1="492.4043" y2="492.4043"/><text fill="#000000" font-family="sans-serif" font-size="13" font-weight="bold" lengthAdjust="spacing" textLength="14" x="1075.5" y="487.1416">13</text><text fill="#000000" font-family="sans-serif" font-size="13" lengthAdjust="spacing" textLength="69" x="1093.5" y="487.1416">applications</text><polygon fill="#181818" points="735.5,519.6953,725.5,523.6953,735.5,527.6953,731.5,523.6953" style="stroke:#181818;stroke-width:1.0;"/><line style="stroke:#181818;stroke-width:1.0;stroke-dasharray:2.0,2.0;" x1="729.5" x2="1052.5" y1="523.6953" y2="523.6953"/><text fill="#000000" font-family="sans-serif" font-size="13" font-weight="bold" lengthAdjust="spacing" textLength="14" x="741.5" y="518.4326">14</text><text fill="#000000" font-family="sans-serif" font-size="13" lengthAdjust="spacing" textLength="69" x="759.5" y="518.4326">applications</text><polygon fill="#181818" points="464.5,550.9863,454.5,554.9863,464.5,558.9863,460.5,554.9863" style="stroke:#181818;stroke-width:1.0;"/><line style="stroke:#181818;stroke-width:1.0;stroke-dasharray:2.0,2.0;" x1="458.5" x2="718.5" y1="554.9863" y2="554.9863"/><text fill="#000000" font-family="sans-serif" font-size="13" font-weight="bold" lengthAdjust="spacing" textLength="14" x="470.5" y="549.7236">15</text><text fill="#000000" font-family="sans-serif" font-size="13" lengthAdjust="spacing" textLength="69" x="488.5" y="549.7236">applications</text><polygon fill="#181818" points="109.5,582.2773,99.5,586.2773,109.5,590.2773,105.5,586.2773" style="stroke:#181818;stroke-width:1.0;"/><line style="stroke:#181818;stroke-width:1.0;stroke-dasharray:2.0,2.0;" x1="103.5" x2="442.5" y1="586.2773" y2="586.2773"/><text fill="#000000" font-family="sans-serif" font-size="13" font-weight="bold" lengthAdjust="spacing" textLength="14" x="115.5" y="581.0146">16</text><text fill="#000000" font-family="sans-serif" font-size="13" lengthAdjust="spacing" textLength="303" x="133.5" y="581.0146">Show list of applications for the selected job opening</text><path d="M20,627.5684 L93,627.5684 L93,636.8594 L83,646.8594 L20,646.8594 L20,627.5684 " fill="#EEEEEE" style="stroke:#000000;stroke-width:1.5;"/><rect fill="none" height="363.4922" style="stroke:#000000;stroke-width:1.5;" width="1671.5" x="20" y="627.5684"/><text fill="#000000" font-family="sans-serif" font-size="13" font-weight="bold" lengthAdjust="spacing" textLength="28" x="35" y="642.5967">loop</text><text fill="#000000" font-family="sans-serif" font-size="11" font-weight="bold" lengthAdjust="spacing" textLength="167" x="108" y="641.4385">[while ranking all applications]</text><polygon fill="#181818" points="109.5,666.1504,99.5,670.1504,109.5,674.1504,105.5,670.1504" style="stroke:#181818;stroke-width:1.0;"/><line style="stroke:#181818;stroke-width:1.0;stroke-dasharray:2.0,2.0;" x1="103.5" x2="442.5" y1="670.1504" y2="670.1504"/><text fill="#000000" font-family="sans-serif" font-size="13" font-weight="bold" lengthAdjust="spacing" textLength="14" x="115.5" y="664.8877">17</text><text fill="#000000" font-family="sans-serif" font-size="13" lengthAdjust="spacing" textLength="128" x="133.5" y="664.8877">Requests new ranking</text><polygon fill="#181818" points="431.5,697.4414,441.5,701.4414,431.5,705.4414,435.5,701.4414" style="stroke:#181818;stroke-width:1.0;"/><line style="stroke:#181818;stroke-width:1.0;" x1="98.5" x2="437.5" y1="701.4414" y2="701.4414"/><text fill="#000000" font-family="sans-serif" font-size="13" font-weight="bold" lengthAdjust="spacing" textLength="14" x="105.5" y="696.1787">18</text><text fill="#000000" font-family="sans-serif" font-size="13" lengthAdjust="spacing" textLength="122" x="123.5" y="696.1787">Provides new ranking</text><polygon fill="#181818" points="702.5,728.7324,712.5,732.7324,702.5,736.7324,706.5,732.7324" style="stroke:#181818;stroke-width:1.0;"/><line style="stroke:#181818;stroke-width:1.0;" x1="453.5" x2="708.5" y1="732.7324" y2="732.7324"/><text fill="#000000" font-family="sans-serif" font-size="13" font-weight="bold" lengthAdjust="spacing" textLength="14" x="460.5" y="727.4697">19</text><text fill="#000000" font-family="sans-serif" font-size="13" lengthAdjust="spacing" textLength="168" x="478.5" y="727.4697">rankApplication(app, ranking)</text><polygon fill="#181818" points="1036.5,760.0234,1046.5,764.0234,1036.5,768.0234,1040.5,764.0234" style="stroke:#181818;stroke-width:1.0;"/><line style="stroke:#181818;stroke-width:1.0;" x1="724.5" x2="1042.5" y1="764.0234" y2="764.0234"/><text fill="#000000" font-family="sans-serif" font-size="13" font-weight="bold" lengthAdjust="spacing" textLength="14" x="731.5" y="758.7607">20</text><text fill="#000000" font-family="sans-serif" font-size="13" lengthAdjust="spacing" textLength="168" x="749.5" y="758.7607">rankApplication(app, ranking)</text><polygon fill="#181818" points="1583,791.3145,1593,795.3145,1583,799.3145,1587,795.3145" style="stroke:#181818;stroke-width:1.0;"/><line style="stroke:#181818;stroke-width:1.0;" x1="1058.5" x2="1589" y1="795.3145" y2="795.3145"/><text fill="#000000" font-family="sans-serif" font-size="13" font-weight="bold" lengthAdjust="spacing" textLength="14" x="1065.5" y="790.0518">21</text><text fill="#000000" font-family="sans-serif" font-size="13" lengthAdjust="spacing" textLength="122" x="1083.5" y="790.0518">rankApplication(rank)</text><polygon fill="#181818" points="1069.5,822.6055,1059.5,826.6055,1069.5,830.6055,1065.5,826.6055" style="stroke:#181818;stroke-width:1.0;"/><line style="stroke:#181818;stroke-width:1.0;stroke-dasharray:2.0,2.0;" x1="1063.5" x2="1599" y1="826.6055" y2="826.6055"/><text fill="#000000" font-family="sans-serif" font-size="13" font-weight="bold" lengthAdjust="spacing" textLength="14" x="1075.5" y="821.3428">22</text><text fill="#000000" font-family="sans-serif" font-size="13" lengthAdjust="spacing" textLength="22" x="1093.5" y="821.3428">void</text><polygon fill="#181818" points="1414,853.8965,1424,857.8965,1414,861.8965,1418,857.8965" style="stroke:#181818;stroke-width:1.0;"/><line style="stroke:#181818;stroke-width:1.0;" x1="1058.5" x2="1420" y1="857.8965" y2="857.8965"/><text fill="#000000" font-family="sans-serif" font-size="13" font-weight="bold" lengthAdjust="spacing" textLength="14" x="1065.5" y="852.6338">23</text><text fill="#000000" font-family="sans-serif" font-size="13" lengthAdjust="spacing" textLength="55" x="1083.5" y="852.6338">save(app)</text><polygon fill="#181818" points="1069.5,885.1875,1059.5,889.1875,1069.5,893.1875,1065.5,889.1875" style="stroke:#181818;stroke-width:1.0;"/><line style="stroke:#181818;stroke-width:1.0;stroke-dasharray:2.0,2.0;" x1="1063.5" x2="1430" y1="889.1875" y2="889.1875"/><text fill="#000000" font-family="sans-serif" font-size="13" font-weight="bold" lengthAdjust="spacing" textLength="14" x="1075.5" y="883.9248">24</text><text fill="#000000" font-family="sans-serif" font-size="13" lengthAdjust="spacing" textLength="21" x="1093.5" y="883.9248">app</text><polygon fill="#181818" points="735.5,916.4785,725.5,920.4785,735.5,924.4785,731.5,920.4785" style="stroke:#181818;stroke-width:1.0;"/><line style="stroke:#181818;stroke-width:1.0;stroke-dasharray:2.0,2.0;" x1="729.5" x2="1052.5" y1="920.4785" y2="920.4785"/><text fill="#000000" font-family="sans-serif" font-size="13" font-weight="bold" lengthAdjust="spacing" textLength="14" x="741.5" y="915.2158">25</text><text fill="#000000" font-family="sans-serif" font-size="13" lengthAdjust="spacing" textLength="21" x="759.5" y="915.2158">app</text><polygon fill="#181818" points="464.5,947.7695,454.5,951.7695,464.5,955.7695,460.5,951.7695" style="stroke:#181818;stroke-width:1.0;"/><line style="stroke:#181818;stroke-width:1.0;stroke-dasharray:2.0,2.0;" x1="458.5" x2="718.5" y1="951.7695" y2="951.7695"/><text fill="#000000" font-family="sans-serif" font-size="13" font-weight="bold" lengthAdjust="spacing" textLength="14" x="470.5" y="946.5068">26</text><text fill="#000000" font-family="sans-serif" font-size="13" lengthAdjust="spacing" textLength="21" x="488.5" y="946.5068">app</text><polygon fill="#181818" points="109.5,979.0605,99.5,983.0605,109.5,987.0605,105.5,983.0605" style="stroke:#181818;stroke-width:1.0;"/><line style="stroke:#181818;stroke-width:1.0;stroke-dasharray:2.0,2.0;" x1="103.5" x2="442.5" y1="983.0605" y2="983.0605"/><text fill="#000000" font-family="sans-serif" font-size="13" font-weight="bold" lengthAdjust="spacing" textLength="14" x="115.5" y="977.7979">27</text><text fill="#000000" font-family="sans-serif" font-size="13" lengthAdjust="spacing" textLength="124" x="133.5" y="977.7979">Confirms new ranking</text><!--SRC=[bLNjZjem4FplfrZn2wJo0kY4HA-gHANJdJZn04koW5jZfxO3uksxDWvnFWvH_a3YcV7kpjXWuOs5oMljl3cHXJVKU20x0NImEf3seaBhPI4hr1ucYmtgFwkgKh90ButUhYEobl3oibqlbu_HhqPxQvHA-eMtYdaPO22GhNsIFSk28XEhAZmoERqT47-PtNj5Mkh3XpK5ERUXoZZ9pLwZmc-p2szOuOEiaywJ7b79jk_nkO8d-6qLcLB3P-uFSq8PkXPOUwFhquui_owyFAEdP828Np1VyfWNiA6_DJaFte3bwKA1kfGbentisKaCdO6vRTegrLAmHomHPhw0lTJbIgcslBLUQLHNRcGwQra1BA9Bp4mpVvgSyABnYYNIqEyIuyI44er5ytppr9aJ9JM4TeTxVsEeMnzfYcE0C21UZjDUmEVHN42niM3sOVlWtavHFjuEEpC9c4sA2l_03VxaXg1IMKBSJsFRyKuJVoPwpZnXJIwQJRjL5EAXOodcT-Nlrx6wSeLeNNCwEjPXLai-kH7_leHsJFmIbJi9urP6KZmn_aZWebrKTkrI7hQExyGB7sON3npDuvb3dSi8PKm5bwFaT8HbvWO_k-NrQqh7s86cIyCIlH3npNMM9NKnRMeOORltwvIt_DOW1t7ffUK_w4qmUiaOKGZFirwc8YsF0lFEHfOYy-o64oFHOx33CuNQdWiQn60ykX-6Y2nMmyMESxpC_s9xQKyzwmJf4a8IEcsb6rpy0m00]--></g></svg>