<?xml version="1.0" encoding="us-ascii" standalone="no"?><svg xmlns="http://www.w3.org/2000/svg" xmlns:xlink="http://www.w3.org/1999/xlink" contentStyleType="text/css" height="869.4px" preserveAspectRatio="none" style="width:892px;height:869px;background:#FFFFFF;" version="1.1" viewBox="0 0 892 869" width="892.8px" zoomAndPan="magnify"><defs/><g><!--cluster Job Opening--><g id="cluster_Job Opening"><rect fill="#BBCCAA" height="262.2" rx="1.5" ry="1.5" style="stroke:#181818;stroke-width:0.6;" width="388.2" x="421.2" y="223.2"/><text fill="#000000" font-family="sans-serif" font-size="8.4" font-weight="bold" lengthAdjust="spacing" textLength="54" x="588.3" y="233.4645">Job Opening</text></g><!--cluster Job Opening Application--><g id="cluster_Job Opening Application"><rect fill="#AACCBB" height="151.2" rx="1.5" ry="1.5" style="stroke:#181818;stroke-width:0.6;" width="574.2" x="4.2" y="4.2"/><text fill="#000000" font-family="sans-serif" font-size="8.4" font-weight="bold" lengthAdjust="spacing" textLength="103.2" x="239.7" y="14.4645">Job Opening Application</text></g><!--cluster candidate--><g id="cluster_candidate"><rect fill="#AABBCC" height="151.2" rx="1.5" ry="1.5" style="stroke:#181818;stroke-width:0.6;" width="187.8" x="622.8" y="4.2"/><text fill="#000000" font-family="sans-serif" font-size="8.4" font-weight="bold" lengthAdjust="spacing" textLength="41.4" x="696" y="14.4645">candidate</text></g><!--cluster Job Opening Process--><g id="cluster_Job Opening Process"><rect fill="#CCBBCC" height="275.4" rx="1.5" ry="1.5" style="stroke:#181818;stroke-width:0.6;" width="238.2" x="651" y="590.4"/><text fill="#000000" font-family="sans-serif" font-size="8.4" font-weight="bold" lengthAdjust="spacing" textLength="90.6" x="724.8" y="600.6645">Job Opening Process</text></g><!--class JobOpening--><g id="elem_JobOpening"><rect codeLine="7" fill="#F1F1F1" height="41.1258" id="JobOpening" rx="1.5" ry="1.5" style="stroke:#181818;stroke-width:0.3;" width="76.8" x="628.2" y="356.4"/><ellipse cx="637.2" cy="374.5629" fill="#ADD1B2" rx="6.6" ry="6.6" style="stroke:#181818;stroke-width:0.6;"/><path d="M638.8594,372.0879 Q638.9531,371.9566 639.0656,371.891 Q639.1781,371.8254 639.3094,371.8254 Q639.5344,371.8254 639.675,371.9848 Q639.8156,372.1348 639.8156,372.5004 L639.8156,373.3723 Q639.8156,373.7379 639.675,373.8973 Q639.5344,374.0566 639.3094,374.0566 Q639.1031,374.0566 638.9812,373.9348 Q638.8594,373.8223 638.7937,373.5129 Q638.7656,373.2973 638.6531,373.1848 Q638.4563,372.9598 638.0906,372.8285 Q637.725,372.6973 637.35,372.6973 Q636.8906,372.6973 636.5063,372.8941 Q636.1313,373.091 635.8313,373.541 Q635.5406,373.991 635.5406,374.6098 L635.5406,375.266 Q635.5406,376.0066 636.075,376.5035 Q636.6094,376.991 637.5656,376.991 Q638.1281,376.991 638.5219,376.841 Q638.7563,376.7473 639.0094,376.4848 Q639.1687,376.3254 639.2531,376.2785 Q639.3469,376.2316 639.4688,376.2316 Q639.6656,376.2316 639.8156,376.391 Q639.975,376.541 639.975,376.7473 Q639.975,376.9535 639.7688,377.1973 Q639.4688,377.5441 638.9906,377.741 Q638.3438,378.0129 637.5656,378.0129 Q636.6563,378.0129 635.9344,377.6379 Q635.3438,377.3379 634.9313,376.7004 Q634.5188,376.0535 634.5188,375.2848 L634.5188,374.591 Q634.5188,373.7941 634.8844,373.1098 Q635.2594,372.416 635.9156,372.0504 Q636.5719,371.6754 637.3125,371.6754 Q637.7531,371.6754 638.1375,371.7785 Q638.5313,371.8723 638.8594,372.0879 Z " fill="#000000"/><text fill="#000000" font-family="sans-serif" font-size="7.2" font-style="italic" lengthAdjust="spacing" textLength="60" x="644.4" y="367.1695">&#171;Aggregate Root&#187;</text><text fill="#000000" font-family="sans-serif" font-size="7.2" font-style="italic" lengthAdjust="spacing" textLength="26.4" x="661.2" y="376.7461">&#171;Entity&#187;</text><text fill="#000000" font-family="sans-serif" font-size="8.4" lengthAdjust="spacing" textLength="45.6" x="651.6" y="387.6176">JobOpening</text><line style="stroke:#181818;stroke-width:0.3;" x1="628.8" x2="704.4" y1="392.7258" y2="392.7258"/></g><!--class JobReference--><g id="elem_JobReference"><rect codeLine="9" fill="#F1F1F1" height="41.1258" id="JobReference" rx="1.5" ry="1.5" style="stroke:#181818;stroke-width:0.3;" width="72" x="430.8" y="434.4"/><ellipse cx="439.8" cy="452.5629" fill="#ADD1B2" rx="6.6" ry="6.6" style="stroke:#181818;stroke-width:0.6;"/><path d="M441.4594,450.0879 Q441.5531,449.9566 441.6656,449.891 Q441.7781,449.8254 441.9094,449.8254 Q442.1344,449.8254 442.275,449.9848 Q442.4156,450.1348 442.4156,450.5004 L442.4156,451.3723 Q442.4156,451.7379 442.275,451.8973 Q442.1344,452.0566 441.9094,452.0566 Q441.7031,452.0566 441.5813,451.9348 Q441.4594,451.8223 441.3938,451.5129 Q441.3656,451.2973 441.2531,451.1848 Q441.0563,450.9598 440.6906,450.8285 Q440.325,450.6973 439.95,450.6973 Q439.4906,450.6973 439.1063,450.8941 Q438.7313,451.091 438.4313,451.541 Q438.1406,451.991 438.1406,452.6098 L438.1406,453.266 Q438.1406,454.0066 438.675,454.5035 Q439.2094,454.991 440.1656,454.991 Q440.7281,454.991 441.1219,454.841 Q441.3563,454.7473 441.6094,454.4848 Q441.7688,454.3254 441.8531,454.2785 Q441.9469,454.2316 442.0687,454.2316 Q442.2656,454.2316 442.4156,454.391 Q442.575,454.541 442.575,454.7473 Q442.575,454.9535 442.3688,455.1973 Q442.0687,455.5441 441.5906,455.741 Q440.9437,456.0129 440.1656,456.0129 Q439.2562,456.0129 438.5344,455.6379 Q437.9437,455.3379 437.5313,454.7004 Q437.1188,454.0535 437.1188,453.2848 L437.1188,452.591 Q437.1188,451.7941 437.4844,451.1098 Q437.8594,450.416 438.5156,450.0504 Q439.1719,449.6754 439.9125,449.6754 Q440.3531,449.6754 440.7375,449.7785 Q441.1312,449.8723 441.4594,450.0879 Z " fill="#000000"/><text fill="#000000" font-family="sans-serif" font-size="7.2" font-style="italic" lengthAdjust="spacing" textLength="32.4" x="458.4" y="445.1695">&#171;Identity&#187;</text><text fill="#000000" font-family="sans-serif" font-size="7.2" font-style="italic" lengthAdjust="spacing" textLength="51" x="449.1" y="454.7461">&#171;Value Object&#187;</text><text fill="#000000" font-family="sans-serif" font-size="8.4" lengthAdjust="spacing" textLength="52.8" x="448.2" y="465.6176">JobReference</text><line style="stroke:#181818;stroke-width:0.3;" x1="431.4" x2="502.2" y1="470.7258" y2="470.7258"/></g><!--class TitleOrFunction--><g id="elem_TitleOrFunction"><rect codeLine="11" fill="#F1F1F1" height="31.5492" id="TitleOrFunction" rx="1.5" ry="1.5" style="stroke:#181818;stroke-width:0.3;" width="78" x="523.8" y="439.2"/><ellipse cx="532.8" cy="452.5746" fill="#ADD1B2" rx="6.6" ry="6.6" style="stroke:#181818;stroke-width:0.6;"/><path d="M534.4594,450.0996 Q534.5531,449.9684 534.6656,449.9027 Q534.7781,449.8371 534.9094,449.8371 Q535.1344,449.8371 535.275,449.9965 Q535.4156,450.1465 535.4156,450.5121 L535.4156,451.384 Q535.4156,451.7496 535.275,451.909 Q535.1344,452.0684 534.9094,452.0684 Q534.7031,452.0684 534.5813,451.9465 Q534.4594,451.834 534.3938,451.5246 Q534.3656,451.309 534.2531,451.1965 Q534.0563,450.9715 533.6906,450.8402 Q533.325,450.709 532.95,450.709 Q532.4906,450.709 532.1062,450.9059 Q531.7312,451.1027 531.4313,451.5527 Q531.1406,452.0027 531.1406,452.6215 L531.1406,453.2777 Q531.1406,454.0184 531.675,454.5152 Q532.2094,455.0027 533.1656,455.0027 Q533.7281,455.0027 534.1219,454.8527 Q534.3562,454.759 534.6094,454.4965 Q534.7688,454.3371 534.8531,454.2902 Q534.9469,454.2434 535.0688,454.2434 Q535.2656,454.2434 535.4156,454.4027 Q535.575,454.5527 535.575,454.759 Q535.575,454.9652 535.3688,455.209 Q535.0688,455.5559 534.5906,455.7527 Q533.9438,456.0246 533.1656,456.0246 Q532.2563,456.0246 531.5344,455.6496 Q530.9438,455.3496 530.5313,454.7121 Q530.1188,454.0652 530.1188,453.2965 L530.1188,452.6027 Q530.1188,451.8059 530.4844,451.1215 Q530.8594,450.4277 531.5156,450.0621 Q532.1719,449.6871 532.9125,449.6871 Q533.3531,449.6871 533.7375,449.7902 Q534.1313,449.884 534.4594,450.0996 Z " fill="#000000"/><text fill="#000000" font-family="sans-serif" font-size="7.2" font-style="italic" lengthAdjust="spacing" textLength="51" x="545.1" y="449.9695">&#171;Value Object&#187;</text><text fill="#000000" font-family="sans-serif" font-size="8.4" lengthAdjust="spacing" textLength="58.8" x="541.2" y="460.841">TitleOrFunction</text><line style="stroke:#181818;stroke-width:0.3;" x1="524.4" x2="601.2" y1="465.9492" y2="465.9492"/></g><!--class ContractType--><g id="elem_ContractType"><rect codeLine="13" fill="#F1F1F1" height="63.4711" id="ContractType" rx="1.5" ry="1.5" style="stroke:#181818;stroke-width:0.3;" width="70.8" x="721.8" y="250.8"/><ellipse cx="730.8" cy="268.9629" fill="#EB937F" rx="6.6" ry="6.6" style="stroke:#181818;stroke-width:0.6;"/><path d="M730.1156,269.441 L730.1156,270.941 L732.7125,270.941 L732.7125,270.3879 Q732.7125,270.0223 732.8531,269.8629 Q733.0031,269.7035 733.2281,269.7035 Q733.4531,269.7035 733.5938,269.8629 Q733.7344,270.0223 733.7344,270.3879 L733.7344,271.9629 L728.9344,271.9629 Q728.5594,271.9629 728.4,271.8223 Q728.25,271.6816 728.25,271.4473 Q728.25,271.2223 728.4094,271.0816 Q728.5688,270.941 728.9344,270.941 L729.0938,270.941 L729.0938,266.9473 L728.9344,266.9473 Q728.5594,266.9473 728.4,266.8066 Q728.25,266.666 728.25,266.4316 Q728.25,266.2066 728.4,266.066 Q728.5594,265.9254 728.9344,265.9254 L733.5094,265.9254 L733.5094,267.4816 Q733.5094,267.8473 733.3688,268.0066 Q733.2375,268.1566 733.0031,268.1566 Q732.7781,268.1566 732.6375,268.0066 Q732.4969,267.8473 732.4969,267.4816 L732.4969,266.9473 L730.1156,266.9473 L730.1156,268.4191 L731.0063,268.4191 Q731.0063,268.0254 731.0813,267.9129 Q731.2406,267.6691 731.5219,267.6691 Q731.7469,267.6691 731.8875,267.8285 Q732.0281,267.9785 732.0281,268.3441 L732.0281,269.5254 Q732.0281,269.8535 731.9531,269.966 Q731.7937,270.2004 731.5219,270.2004 Q731.2406,270.2004 731.0813,269.9566 Q731.0063,269.8441 731.0063,269.441 L730.1156,269.441 Z " fill="#000000"/><text fill="#000000" font-family="sans-serif" font-size="7.2" font-style="italic" lengthAdjust="spacing" textLength="49.2" x="740.4" y="261.5695">&#171;Enumerated&#187;</text><text fill="#000000" font-family="sans-serif" font-size="7.2" font-style="italic" lengthAdjust="spacing" textLength="51" x="739.5" y="271.1461">&#171;Value Object&#187;</text><text fill="#000000" font-family="sans-serif" font-size="8.4" lengthAdjust="spacing" textLength="51.6" x="739.2" y="282.0176">ContractType</text><line style="stroke:#181818;stroke-width:0.3;" x1="722.4" x2="792" y1="287.1258" y2="287.1258"/><text fill="#000000" font-family="sans-serif" font-size="8.4" lengthAdjust="spacing" textLength="44.4" x="725.4" y="298.5902">FULL_TIME</text><text fill="#000000" font-family="sans-serif" font-size="8.4" lengthAdjust="spacing" textLength="46.2" x="725.4" y="309.7629">PART_TIME</text></g><!--class Mode--><g id="elem_Mode"><rect codeLine="18" fill="#F1F1F1" height="74.6438" id="Mode" rx="1.5" ry="1.5" style="stroke:#181818;stroke-width:0.3;" width="67.8" x="632.7" y="245.4"/><ellipse cx="641.7" cy="263.5629" fill="#EB937F" rx="6.6" ry="6.6" style="stroke:#181818;stroke-width:0.6;"/><path d="M641.0156,264.041 L641.0156,265.541 L643.6125,265.541 L643.6125,264.9879 Q643.6125,264.6223 643.7531,264.4629 Q643.9031,264.3035 644.1281,264.3035 Q644.3531,264.3035 644.4938,264.4629 Q644.6344,264.6223 644.6344,264.9879 L644.6344,266.5629 L639.8344,266.5629 Q639.4594,266.5629 639.3,266.4223 Q639.15,266.2816 639.15,266.0473 Q639.15,265.8223 639.3094,265.6816 Q639.4688,265.541 639.8344,265.541 L639.9938,265.541 L639.9938,261.5473 L639.8344,261.5473 Q639.4594,261.5473 639.3,261.4066 Q639.15,261.266 639.15,261.0316 Q639.15,260.8066 639.3,260.666 Q639.4594,260.5254 639.8344,260.5254 L644.4094,260.5254 L644.4094,262.0816 Q644.4094,262.4473 644.2688,262.6066 Q644.1375,262.7566 643.9031,262.7566 Q643.6781,262.7566 643.5375,262.6066 Q643.3969,262.4473 643.3969,262.0816 L643.3969,261.5473 L641.0156,261.5473 L641.0156,263.0191 L641.9063,263.0191 Q641.9063,262.6254 641.9812,262.5129 Q642.1406,262.2691 642.4219,262.2691 Q642.6469,262.2691 642.7875,262.4285 Q642.9281,262.5785 642.9281,262.9441 L642.9281,264.1254 Q642.9281,264.4535 642.8531,264.566 Q642.6938,264.8004 642.4219,264.8004 Q642.1406,264.8004 641.9812,264.5566 Q641.9063,264.4441 641.9063,264.041 L641.0156,264.041 Z " fill="#000000"/><text fill="#000000" font-family="sans-serif" font-size="7.2" font-style="italic" lengthAdjust="spacing" textLength="49.2" x="649.8" y="256.1695">&#171;Enumerated&#187;</text><text fill="#000000" font-family="sans-serif" font-size="7.2" font-style="italic" lengthAdjust="spacing" textLength="51" x="648.9" y="265.7461">&#171;Value Object&#187;</text><text fill="#000000" font-family="sans-serif" font-size="8.4" lengthAdjust="spacing" textLength="21" x="663.9" y="276.6176">Mode</text><line style="stroke:#181818;stroke-width:0.3;" x1="633.3" x2="699.9" y1="281.7258" y2="281.7258"/><text fill="#000000" font-family="sans-serif" font-size="8.4" lengthAdjust="spacing" textLength="35.4" x="636.3" y="293.1902">REMOTE</text><text fill="#000000" font-family="sans-serif" font-size="8.4" lengthAdjust="spacing" textLength="33" x="636.3" y="304.3629">ON-SITE</text><text fill="#000000" font-family="sans-serif" font-size="8.4" lengthAdjust="spacing" textLength="30" x="636.3" y="315.5355">HYBRID</text></g><!--class VacanciesNumber--><g id="elem_VacanciesNumber"><rect codeLine="25" fill="#F1F1F1" height="31.5492" id="VacanciesNumber" rx="1.5" ry="1.5" style="stroke:#181818;stroke-width:0.3;" width="87.6" x="622.8" y="439.2"/><ellipse cx="631.8" cy="452.5746" fill="#ADD1B2" rx="6.6" ry="6.6" style="stroke:#181818;stroke-width:0.6;"/><path d="M633.4594,450.0996 Q633.5531,449.9684 633.6656,449.9027 Q633.7781,449.8371 633.9094,449.8371 Q634.1344,449.8371 634.275,449.9965 Q634.4156,450.1465 634.4156,450.5121 L634.4156,451.384 Q634.4156,451.7496 634.275,451.909 Q634.1344,452.0684 633.9094,452.0684 Q633.7031,452.0684 633.5813,451.9465 Q633.4594,451.834 633.3938,451.5246 Q633.3656,451.309 633.2531,451.1965 Q633.0563,450.9715 632.6906,450.8402 Q632.325,450.709 631.95,450.709 Q631.4906,450.709 631.1062,450.9059 Q630.7312,451.1027 630.4313,451.5527 Q630.1406,452.0027 630.1406,452.6215 L630.1406,453.2777 Q630.1406,454.0184 630.675,454.5152 Q631.2094,455.0027 632.1656,455.0027 Q632.7281,455.0027 633.1219,454.8527 Q633.3562,454.759 633.6094,454.4965 Q633.7688,454.3371 633.8531,454.2902 Q633.9469,454.2434 634.0688,454.2434 Q634.2656,454.2434 634.4156,454.4027 Q634.575,454.5527 634.575,454.759 Q634.575,454.9652 634.3688,455.209 Q634.0688,455.5559 633.5906,455.7527 Q632.9438,456.0246 632.1656,456.0246 Q631.2563,456.0246 630.5344,455.6496 Q629.9438,455.3496 629.5313,454.7121 Q629.1188,454.0652 629.1188,453.2965 L629.1188,452.6027 Q629.1188,451.8059 629.4844,451.1215 Q629.8594,450.4277 630.5156,450.0621 Q631.1719,449.6871 631.9125,449.6871 Q632.3531,449.6871 632.7375,449.7902 Q633.1313,449.884 633.4594,450.0996 Z " fill="#000000"/><text fill="#000000" font-family="sans-serif" font-size="7.2" font-style="italic" lengthAdjust="spacing" textLength="51" x="648.9" y="449.9695">&#171;Value Object&#187;</text><text fill="#000000" font-family="sans-serif" font-size="8.4" lengthAdjust="spacing" textLength="68.4" x="640.2" y="460.841">VacanciesNumber</text><line style="stroke:#181818;stroke-width:0.3;" x1="623.4" x2="709.8" y1="465.9492" y2="465.9492"/></g><!--class Description--><g id="elem_Description"><rect codeLine="27" fill="#F1F1F1" height="31.5492" id="Description" rx="1.5" ry="1.5" style="stroke:#181818;stroke-width:0.3;" width="67.8" x="731.7" y="439.2"/><ellipse cx="740.7" cy="452.5746" fill="#ADD1B2" rx="6.6" ry="6.6" style="stroke:#181818;stroke-width:0.6;"/><path d="M742.3594,450.0996 Q742.4531,449.9684 742.5656,449.9027 Q742.6781,449.8371 742.8094,449.8371 Q743.0344,449.8371 743.175,449.9965 Q743.3156,450.1465 743.3156,450.5121 L743.3156,451.384 Q743.3156,451.7496 743.175,451.909 Q743.0344,452.0684 742.8094,452.0684 Q742.6031,452.0684 742.4812,451.9465 Q742.3594,451.834 742.2937,451.5246 Q742.2656,451.309 742.1531,451.1965 Q741.9563,450.9715 741.5906,450.8402 Q741.225,450.709 740.85,450.709 Q740.3906,450.709 740.0063,450.9059 Q739.6313,451.1027 739.3313,451.5527 Q739.0406,452.0027 739.0406,452.6215 L739.0406,453.2777 Q739.0406,454.0184 739.575,454.5152 Q740.1094,455.0027 741.0656,455.0027 Q741.6281,455.0027 742.0219,454.8527 Q742.2563,454.759 742.5094,454.4965 Q742.6687,454.3371 742.7531,454.2902 Q742.8469,454.2434 742.9688,454.2434 Q743.1656,454.2434 743.3156,454.4027 Q743.475,454.5527 743.475,454.759 Q743.475,454.9652 743.2688,455.209 Q742.9688,455.5559 742.4906,455.7527 Q741.8438,456.0246 741.0656,456.0246 Q740.1563,456.0246 739.4344,455.6496 Q738.8438,455.3496 738.4313,454.7121 Q738.0188,454.0652 738.0188,453.2965 L738.0188,452.6027 Q738.0188,451.8059 738.3844,451.1215 Q738.7594,450.4277 739.4156,450.0621 Q740.0719,449.6871 740.8125,449.6871 Q741.2531,449.6871 741.6375,449.7902 Q742.0313,449.884 742.3594,450.0996 Z " fill="#000000"/><text fill="#000000" font-family="sans-serif" font-size="7.2" font-style="italic" lengthAdjust="spacing" textLength="51" x="747.9" y="449.9695">&#171;Value Object&#187;</text><text fill="#000000" font-family="sans-serif" font-size="8.4" lengthAdjust="spacing" textLength="42.6" x="752.1" y="460.841">Description</text><line style="stroke:#181818;stroke-width:0.3;" x1="732.3" x2="798.9" y1="465.9492" y2="465.9492"/></g><!--class Application--><g id="elem_Application"><rect codeLine="44" fill="#F1F1F1" height="41.1258" id="Application" rx="1.5" ry="1.5" style="stroke:#181818;stroke-width:0.3;" width="76.8" x="324" y="26.4"/><ellipse cx="333" cy="44.5629" fill="#ADD1B2" rx="6.6" ry="6.6" style="stroke:#181818;stroke-width:0.6;"/><path d="M334.6594,42.0879 Q334.7531,41.9566 334.8656,41.891 Q334.9781,41.8254 335.1094,41.8254 Q335.3344,41.8254 335.475,41.9848 Q335.6156,42.1348 335.6156,42.5004 L335.6156,43.3723 Q335.6156,43.7379 335.475,43.8973 Q335.3344,44.0566 335.1094,44.0566 Q334.9031,44.0566 334.7813,43.9348 Q334.6594,43.8223 334.5938,43.5129 Q334.5656,43.2973 334.4531,43.1848 Q334.2562,42.9598 333.8906,42.8285 Q333.525,42.6973 333.15,42.6973 Q332.6906,42.6973 332.3063,42.8941 Q331.9313,43.091 331.6312,43.541 Q331.3406,43.991 331.3406,44.6098 L331.3406,45.266 Q331.3406,46.0066 331.875,46.5035 Q332.4094,46.991 333.3656,46.991 Q333.9281,46.991 334.3219,46.841 Q334.5563,46.7473 334.8094,46.4848 Q334.9688,46.3254 335.0531,46.2785 Q335.1469,46.2316 335.2688,46.2316 Q335.4656,46.2316 335.6156,46.391 Q335.775,46.541 335.775,46.7473 Q335.775,46.9535 335.5687,47.1973 Q335.2688,47.5441 334.7906,47.741 Q334.1438,48.0129 333.3656,48.0129 Q332.4563,48.0129 331.7344,47.6379 Q331.1438,47.3379 330.7313,46.7004 Q330.3187,46.0535 330.3187,45.2848 L330.3187,44.591 Q330.3187,43.7941 330.6844,43.1098 Q331.0594,42.416 331.7156,42.0504 Q332.3719,41.6754 333.1125,41.6754 Q333.5531,41.6754 333.9375,41.7785 Q334.3313,41.8723 334.6594,42.0879 Z " fill="#000000"/><text fill="#000000" font-family="sans-serif" font-size="7.2" font-style="italic" lengthAdjust="spacing" textLength="60" x="340.2" y="37.1695">&#171;Aggregate Root&#187;</text><text fill="#000000" font-family="sans-serif" font-size="7.2" font-style="italic" lengthAdjust="spacing" textLength="26.4" x="357" y="46.7461">&#171;Entity&#187;</text><text fill="#000000" font-family="sans-serif" font-size="8.4" lengthAdjust="spacing" textLength="41.4" x="349.5" y="57.6176">Application</text><line style="stroke:#181818;stroke-width:0.3;" x1="324.6" x2="400.2" y1="62.7258" y2="62.7258"/></g><!--class ApplicationId--><g id="elem_ApplicationId"><rect codeLine="46" fill="#F1F1F1" height="41.1258" id="ApplicationId" rx="1.5" ry="1.5" style="stroke:#181818;stroke-width:0.3;" width="67.8" x="14.1" y="104.4"/><ellipse cx="23.1" cy="122.5629" fill="#ADD1B2" rx="6.6" ry="6.6" style="stroke:#181818;stroke-width:0.6;"/><path d="M24.7594,120.0879 Q24.8531,119.9566 24.9656,119.891 Q25.0781,119.8254 25.2094,119.8254 Q25.4344,119.8254 25.575,119.9848 Q25.7156,120.1348 25.7156,120.5004 L25.7156,121.3723 Q25.7156,121.7379 25.575,121.8973 Q25.4344,122.0566 25.2094,122.0566 Q25.0031,122.0566 24.8812,121.9348 Q24.7594,121.8223 24.6937,121.5129 Q24.6656,121.2973 24.5531,121.1848 Q24.3563,120.9598 23.9906,120.8285 Q23.625,120.6973 23.25,120.6973 Q22.7906,120.6973 22.4063,120.8941 Q22.0313,121.091 21.7313,121.541 Q21.4406,121.991 21.4406,122.6098 L21.4406,123.266 Q21.4406,124.0066 21.975,124.5035 Q22.5094,124.991 23.4656,124.991 Q24.0281,124.991 24.4219,124.841 Q24.6563,124.7473 24.9094,124.4848 Q25.0687,124.3254 25.1531,124.2785 Q25.2469,124.2316 25.3688,124.2316 Q25.5656,124.2316 25.7156,124.391 Q25.875,124.541 25.875,124.7473 Q25.875,124.9535 25.6688,125.1973 Q25.3688,125.5441 24.8906,125.741 Q24.2438,126.0129 23.4656,126.0129 Q22.5563,126.0129 21.8344,125.6379 Q21.2438,125.3379 20.8313,124.7004 Q20.4188,124.0535 20.4188,123.2848 L20.4188,122.591 Q20.4188,121.7941 20.7844,121.1098 Q21.1594,120.416 21.8156,120.0504 Q22.4719,119.6754 23.2125,119.6754 Q23.6531,119.6754 24.0375,119.7785 Q24.4313,119.8723 24.7594,120.0879 Z " fill="#000000"/><text fill="#000000" font-family="sans-serif" font-size="7.2" font-style="italic" lengthAdjust="spacing" textLength="32.4" x="39.6" y="115.1695">&#171;Identity&#187;</text><text fill="#000000" font-family="sans-serif" font-size="7.2" font-style="italic" lengthAdjust="spacing" textLength="51" x="30.3" y="124.7461">&#171;Value Object&#187;</text><text fill="#000000" font-family="sans-serif" font-size="8.4" lengthAdjust="spacing" textLength="48" x="31.8" y="135.6176">ApplicationId</text><line style="stroke:#181818;stroke-width:0.3;" x1="14.7" x2="81.3" y1="140.7258" y2="140.7258"/></g><!--class AttachedEmail--><g id="elem_AttachedEmail"><rect codeLine="48" fill="#F1F1F1" height="31.5492" id="AttachedEmail" rx="1.5" ry="1.5" style="stroke:#181818;stroke-width:0.3;" width="73.2" x="103.2" y="109.2"/><ellipse cx="112.2" cy="122.5746" fill="#ADD1B2" rx="6.6" ry="6.6" style="stroke:#181818;stroke-width:0.6;"/><path d="M113.8594,120.0996 Q113.9531,119.9684 114.0656,119.9027 Q114.1781,119.8371 114.3094,119.8371 Q114.5344,119.8371 114.675,119.9965 Q114.8156,120.1465 114.8156,120.5121 L114.8156,121.384 Q114.8156,121.7496 114.675,121.909 Q114.5344,122.0684 114.3094,122.0684 Q114.1031,122.0684 113.9813,121.9465 Q113.8594,121.834 113.7938,121.5246 Q113.7656,121.309 113.6531,121.1965 Q113.4563,120.9715 113.0906,120.8402 Q112.725,120.709 112.35,120.709 Q111.8906,120.709 111.5063,120.9059 Q111.1313,121.1027 110.8313,121.5527 Q110.5406,122.0027 110.5406,122.6215 L110.5406,123.2777 Q110.5406,124.0184 111.075,124.5152 Q111.6094,125.0027 112.5656,125.0027 Q113.1281,125.0027 113.5219,124.8527 Q113.7563,124.759 114.0094,124.4965 Q114.1688,124.3371 114.2531,124.2902 Q114.3469,124.2434 114.4688,124.2434 Q114.6656,124.2434 114.8156,124.4027 Q114.975,124.5527 114.975,124.759 Q114.975,124.9652 114.7688,125.209 Q114.4688,125.5559 113.9906,125.7527 Q113.3438,126.0246 112.5656,126.0246 Q111.6563,126.0246 110.9344,125.6496 Q110.3438,125.3496 109.9312,124.7121 Q109.5188,124.0652 109.5188,123.2965 L109.5188,122.6027 Q109.5188,121.8059 109.8844,121.1215 Q110.2594,120.4277 110.9156,120.0621 Q111.5719,119.6871 112.3125,119.6871 Q112.7531,119.6871 113.1375,119.7902 Q113.5313,119.884 113.8594,120.0996 Z " fill="#000000"/><text fill="#000000" font-family="sans-serif" font-size="7.2" font-style="italic" lengthAdjust="spacing" textLength="51" x="122.1" y="119.9695">&#171;Value Object&#187;</text><text fill="#000000" font-family="sans-serif" font-size="8.4" lengthAdjust="spacing" textLength="54" x="120.6" y="130.841">AttachedEmail</text><line style="stroke:#181818;stroke-width:0.3;" x1="103.8" x2="175.8" y1="135.9492" y2="135.9492"/></g><!--class AttachedFile--><g id="elem_AttachedFile"><rect codeLine="50" fill="#F1F1F1" height="31.5492" id="AttachedFile" rx="1.5" ry="1.5" style="stroke:#181818;stroke-width:0.3;" width="67.8" x="197.7" y="109.2"/><ellipse cx="206.7" cy="122.5746" fill="#ADD1B2" rx="6.6" ry="6.6" style="stroke:#181818;stroke-width:0.6;"/><path d="M208.3594,120.0996 Q208.4531,119.9684 208.5656,119.9027 Q208.6781,119.8371 208.8094,119.8371 Q209.0344,119.8371 209.175,119.9965 Q209.3156,120.1465 209.3156,120.5121 L209.3156,121.384 Q209.3156,121.7496 209.175,121.909 Q209.0344,122.0684 208.8094,122.0684 Q208.6031,122.0684 208.4813,121.9465 Q208.3594,121.834 208.2938,121.5246 Q208.2656,121.309 208.1531,121.1965 Q207.9562,120.9715 207.5906,120.8402 Q207.225,120.709 206.85,120.709 Q206.3906,120.709 206.0063,120.9059 Q205.6313,121.1027 205.3312,121.5527 Q205.0406,122.0027 205.0406,122.6215 L205.0406,123.2777 Q205.0406,124.0184 205.575,124.5152 Q206.1094,125.0027 207.0656,125.0027 Q207.6281,125.0027 208.0219,124.8527 Q208.2563,124.759 208.5094,124.4965 Q208.6688,124.3371 208.7531,124.2902 Q208.8469,124.2434 208.9688,124.2434 Q209.1656,124.2434 209.3156,124.4027 Q209.475,124.5527 209.475,124.759 Q209.475,124.9652 209.2687,125.209 Q208.9688,125.5559 208.4906,125.7527 Q207.8438,126.0246 207.0656,126.0246 Q206.1563,126.0246 205.4344,125.6496 Q204.8438,125.3496 204.4313,124.7121 Q204.0187,124.0652 204.0187,123.2965 L204.0187,122.6027 Q204.0187,121.8059 204.3844,121.1215 Q204.7594,120.4277 205.4156,120.0621 Q206.0719,119.6871 206.8125,119.6871 Q207.2531,119.6871 207.6375,119.7902 Q208.0313,119.884 208.3594,120.0996 Z " fill="#000000"/><text fill="#000000" font-family="sans-serif" font-size="7.2" font-style="italic" lengthAdjust="spacing" textLength="51" x="213.9" y="119.9695">&#171;Value Object&#187;</text><text fill="#000000" font-family="sans-serif" font-size="8.4" lengthAdjust="spacing" textLength="47.4" x="215.7" y="130.841">AttachedFile</text><line style="stroke:#181818;stroke-width:0.3;" x1="198.3" x2="264.9" y1="135.9492" y2="135.9492"/></g><!--class ApplicatorData--><g id="elem_ApplicatorData"><rect codeLine="52" fill="#F1F1F1" height="31.5492" id="ApplicatorData" rx="1.5" ry="1.5" style="stroke:#181818;stroke-width:0.3;" width="75" x="286.5" y="109.2"/><ellipse cx="295.5" cy="122.5746" fill="#ADD1B2" rx="6.6" ry="6.6" style="stroke:#181818;stroke-width:0.6;"/><path d="M297.1594,120.0996 Q297.2531,119.9684 297.3656,119.9027 Q297.4781,119.8371 297.6094,119.8371 Q297.8344,119.8371 297.975,119.9965 Q298.1156,120.1465 298.1156,120.5121 L298.1156,121.384 Q298.1156,121.7496 297.975,121.909 Q297.8344,122.0684 297.6094,122.0684 Q297.4031,122.0684 297.2813,121.9465 Q297.1594,121.834 297.0938,121.5246 Q297.0656,121.309 296.9531,121.1965 Q296.7562,120.9715 296.3906,120.8402 Q296.025,120.709 295.65,120.709 Q295.1906,120.709 294.8063,120.9059 Q294.4313,121.1027 294.1312,121.5527 Q293.8406,122.0027 293.8406,122.6215 L293.8406,123.2777 Q293.8406,124.0184 294.375,124.5152 Q294.9094,125.0027 295.8656,125.0027 Q296.4281,125.0027 296.8219,124.8527 Q297.0563,124.759 297.3094,124.4965 Q297.4688,124.3371 297.5531,124.2902 Q297.6469,124.2434 297.7688,124.2434 Q297.9656,124.2434 298.1156,124.4027 Q298.275,124.5527 298.275,124.759 Q298.275,124.9652 298.0687,125.209 Q297.7688,125.5559 297.2906,125.7527 Q296.6438,126.0246 295.8656,126.0246 Q294.9563,126.0246 294.2344,125.6496 Q293.6438,125.3496 293.2313,124.7121 Q292.8187,124.0652 292.8187,123.2965 L292.8187,122.6027 Q292.8187,121.8059 293.1844,121.1215 Q293.5594,120.4277 294.2156,120.0621 Q294.8719,119.6871 295.6125,119.6871 Q296.0531,119.6871 296.4375,119.7902 Q296.8313,119.884 297.1594,120.0996 Z " fill="#000000"/><text fill="#000000" font-family="sans-serif" font-size="7.2" font-style="italic" lengthAdjust="spacing" textLength="51" x="306.3" y="119.9695">&#171;Value Object&#187;</text><text fill="#000000" font-family="sans-serif" font-size="8.4" lengthAdjust="spacing" textLength="55.8" x="303.9" y="130.841">ApplicatorData</text><line style="stroke:#181818;stroke-width:0.3;" x1="287.1" x2="360.9" y1="135.9492" y2="135.9492"/></g><!--class ApplicationStatus--><g id="elem_ApplicationStatus"><rect codeLine="54" fill="#F1F1F1" height="31.5492" id="ApplicationStatus" rx="1.5" ry="1.5" style="stroke:#181818;stroke-width:0.3;" width="84.6" x="382.5" y="109.2"/><ellipse cx="391.5" cy="122.5746" fill="#ADD1B2" rx="6.6" ry="6.6" style="stroke:#181818;stroke-width:0.6;"/><path d="M393.1594,120.0996 Q393.2531,119.9684 393.3656,119.9027 Q393.4781,119.8371 393.6094,119.8371 Q393.8344,119.8371 393.975,119.9965 Q394.1156,120.1465 394.1156,120.5121 L394.1156,121.384 Q394.1156,121.7496 393.975,121.909 Q393.8344,122.0684 393.6094,122.0684 Q393.4031,122.0684 393.2813,121.9465 Q393.1594,121.834 393.0938,121.5246 Q393.0656,121.309 392.9531,121.1965 Q392.7562,120.9715 392.3906,120.8402 Q392.025,120.709 391.65,120.709 Q391.1906,120.709 390.8063,120.9059 Q390.4313,121.1027 390.1312,121.5527 Q389.8406,122.0027 389.8406,122.6215 L389.8406,123.2777 Q389.8406,124.0184 390.375,124.5152 Q390.9094,125.0027 391.8656,125.0027 Q392.4281,125.0027 392.8219,124.8527 Q393.0563,124.759 393.3094,124.4965 Q393.4688,124.3371 393.5531,124.2902 Q393.6469,124.2434 393.7688,124.2434 Q393.9656,124.2434 394.1156,124.4027 Q394.275,124.5527 394.275,124.759 Q394.275,124.9652 394.0687,125.209 Q393.7688,125.5559 393.2906,125.7527 Q392.6438,126.0246 391.8656,126.0246 Q390.9563,126.0246 390.2344,125.6496 Q389.6438,125.3496 389.2313,124.7121 Q388.8187,124.0652 388.8187,123.2965 L388.8187,122.6027 Q388.8187,121.8059 389.1844,121.1215 Q389.5594,120.4277 390.2156,120.0621 Q390.8719,119.6871 391.6125,119.6871 Q392.0531,119.6871 392.4375,119.7902 Q392.8313,119.884 393.1594,120.0996 Z " fill="#000000"/><text fill="#000000" font-family="sans-serif" font-size="7.2" font-style="italic" lengthAdjust="spacing" textLength="51" x="407.1" y="119.9695">&#171;Value Object&#187;</text><text fill="#000000" font-family="sans-serif" font-size="8.4" lengthAdjust="spacing" textLength="65.4" x="399.9" y="130.841">ApplicationStatus</text><line style="stroke:#181818;stroke-width:0.3;" x1="383.1" x2="466.5" y1="135.9492" y2="135.9492"/></g><!--class ApplicationRank--><g id="elem_ApplicationRank"><rect codeLine="56" fill="#F1F1F1" height="31.5492" id="ApplicationRank" rx="1.5" ry="1.5" style="stroke:#181818;stroke-width:0.3;" width="80.4" x="488.4" y="109.2"/><ellipse cx="497.4" cy="122.5746" fill="#ADD1B2" rx="6.6" ry="6.6" style="stroke:#181818;stroke-width:0.6;"/><path d="M499.0594,120.0996 Q499.1531,119.9684 499.2656,119.9027 Q499.3781,119.8371 499.5094,119.8371 Q499.7344,119.8371 499.875,119.9965 Q500.0156,120.1465 500.0156,120.5121 L500.0156,121.384 Q500.0156,121.7496 499.875,121.909 Q499.7344,122.0684 499.5094,122.0684 Q499.3031,122.0684 499.1813,121.9465 Q499.0594,121.834 498.9938,121.5246 Q498.9656,121.309 498.8531,121.1965 Q498.6563,120.9715 498.2906,120.8402 Q497.925,120.709 497.55,120.709 Q497.0906,120.709 496.7062,120.9059 Q496.3312,121.1027 496.0313,121.5527 Q495.7406,122.0027 495.7406,122.6215 L495.7406,123.2777 Q495.7406,124.0184 496.275,124.5152 Q496.8094,125.0027 497.7656,125.0027 Q498.3281,125.0027 498.7219,124.8527 Q498.9562,124.759 499.2094,124.4965 Q499.3688,124.3371 499.4531,124.2902 Q499.5469,124.2434 499.6688,124.2434 Q499.8656,124.2434 500.0156,124.4027 Q500.175,124.5527 500.175,124.759 Q500.175,124.9652 499.9688,125.209 Q499.6688,125.5559 499.1906,125.7527 Q498.5438,126.0246 497.7656,126.0246 Q496.8563,126.0246 496.1344,125.6496 Q495.5438,125.3496 495.1312,124.7121 Q494.7188,124.0652 494.7188,123.2965 L494.7188,122.6027 Q494.7188,121.8059 495.0844,121.1215 Q495.4594,120.4277 496.1156,120.0621 Q496.7719,119.6871 497.5125,119.6871 Q497.9531,119.6871 498.3375,119.7902 Q498.7313,119.884 499.0594,120.0996 Z " fill="#000000"/><text fill="#000000" font-family="sans-serif" font-size="7.2" font-style="italic" lengthAdjust="spacing" textLength="51" x="510.9" y="119.9695">&#171;Value Object&#187;</text><text fill="#000000" font-family="sans-serif" font-size="8.4" lengthAdjust="spacing" textLength="61.2" x="505.8" y="130.841">ApplicationRank</text><line style="stroke:#181818;stroke-width:0.3;" x1="489" x2="568.2" y1="135.9492" y2="135.9492"/></g><!--class Candidate--><g id="elem_Candidate"><rect codeLine="62" fill="#F1F1F1" height="41.1258" id="Candidate" rx="1.5" ry="1.5" style="stroke:#181818;stroke-width:0.3;" width="76.8" x="632.4" y="26.4"/><ellipse cx="641.4" cy="44.5629" fill="#ADD1B2" rx="6.6" ry="6.6" style="stroke:#181818;stroke-width:0.6;"/><path d="M643.0594,42.0879 Q643.1531,41.9566 643.2656,41.891 Q643.3781,41.8254 643.5094,41.8254 Q643.7344,41.8254 643.875,41.9848 Q644.0156,42.1348 644.0156,42.5004 L644.0156,43.3723 Q644.0156,43.7379 643.875,43.8973 Q643.7344,44.0566 643.5094,44.0566 Q643.3031,44.0566 643.1813,43.9348 Q643.0594,43.8223 642.9938,43.5129 Q642.9656,43.2973 642.8531,43.1848 Q642.6563,42.9598 642.2906,42.8285 Q641.925,42.6973 641.55,42.6973 Q641.0906,42.6973 640.7063,42.8941 Q640.3313,43.091 640.0313,43.541 Q639.7406,43.991 639.7406,44.6098 L639.7406,45.266 Q639.7406,46.0066 640.275,46.5035 Q640.8094,46.991 641.7656,46.991 Q642.3281,46.991 642.7219,46.841 Q642.9563,46.7473 643.2094,46.4848 Q643.3688,46.3254 643.4531,46.2785 Q643.5469,46.2316 643.6687,46.2316 Q643.8656,46.2316 644.0156,46.391 Q644.175,46.541 644.175,46.7473 Q644.175,46.9535 643.9688,47.1973 Q643.6687,47.5441 643.1906,47.741 Q642.5437,48.0129 641.7656,48.0129 Q640.8562,48.0129 640.1344,47.6379 Q639.5437,47.3379 639.1313,46.7004 Q638.7188,46.0535 638.7188,45.2848 L638.7188,44.591 Q638.7188,43.7941 639.0844,43.1098 Q639.4594,42.416 640.1156,42.0504 Q640.7719,41.6754 641.5125,41.6754 Q641.9531,41.6754 642.3375,41.7785 Q642.7312,41.8723 643.0594,42.0879 Z " fill="#000000"/><text fill="#000000" font-family="sans-serif" font-size="7.2" font-style="italic" lengthAdjust="spacing" textLength="60" x="648.6" y="37.1695">&#171;Aggregate Root&#187;</text><text fill="#000000" font-family="sans-serif" font-size="7.2" font-style="italic" lengthAdjust="spacing" textLength="26.4" x="665.4" y="46.7461">&#171;Entity&#187;</text><text fill="#000000" font-family="sans-serif" font-size="8.4" lengthAdjust="spacing" textLength="39" x="659.1" y="57.6176">Candidate</text><line style="stroke:#181818;stroke-width:0.3;" x1="633" x2="708.6" y1="62.7258" y2="62.7258"/></g><!--class CandidateId--><g id="elem_CandidateId"><rect codeLine="63" fill="#F1F1F1" height="41.1258" id="CandidateId" rx="1.5" ry="1.5" style="stroke:#181818;stroke-width:0.3;" width="67.8" x="632.7" y="104.4"/><ellipse cx="641.7" cy="122.5629" fill="#ADD1B2" rx="6.6" ry="6.6" style="stroke:#181818;stroke-width:0.6;"/><path d="M643.3594,120.0879 Q643.4531,119.9566 643.5656,119.891 Q643.6781,119.8254 643.8094,119.8254 Q644.0344,119.8254 644.175,119.9848 Q644.3156,120.1348 644.3156,120.5004 L644.3156,121.3723 Q644.3156,121.7379 644.175,121.8973 Q644.0344,122.0566 643.8094,122.0566 Q643.6031,122.0566 643.4812,121.9348 Q643.3594,121.8223 643.2937,121.5129 Q643.2656,121.2973 643.1531,121.1848 Q642.9563,120.9598 642.5906,120.8285 Q642.225,120.6973 641.85,120.6973 Q641.3906,120.6973 641.0063,120.8941 Q640.6313,121.091 640.3313,121.541 Q640.0406,121.991 640.0406,122.6098 L640.0406,123.266 Q640.0406,124.0066 640.575,124.5035 Q641.1094,124.991 642.0656,124.991 Q642.6281,124.991 643.0219,124.841 Q643.2563,124.7473 643.5094,124.4848 Q643.6687,124.3254 643.7531,124.2785 Q643.8469,124.2316 643.9688,124.2316 Q644.1656,124.2316 644.3156,124.391 Q644.475,124.541 644.475,124.7473 Q644.475,124.9535 644.2688,125.1973 Q643.9688,125.5441 643.4906,125.741 Q642.8438,126.0129 642.0656,126.0129 Q641.1563,126.0129 640.4344,125.6379 Q639.8438,125.3379 639.4313,124.7004 Q639.0188,124.0535 639.0188,123.2848 L639.0188,122.591 Q639.0188,121.7941 639.3844,121.1098 Q639.7594,120.416 640.4156,120.0504 Q641.0719,119.6754 641.8125,119.6754 Q642.2531,119.6754 642.6375,119.7785 Q643.0313,119.8723 643.3594,120.0879 Z " fill="#000000"/><text fill="#000000" font-family="sans-serif" font-size="7.2" font-style="italic" lengthAdjust="spacing" textLength="32.4" x="658.2" y="115.1695">&#171;Identity&#187;</text><text fill="#000000" font-family="sans-serif" font-size="7.2" font-style="italic" lengthAdjust="spacing" textLength="51" x="648.9" y="124.7461">&#171;Value Object&#187;</text><text fill="#000000" font-family="sans-serif" font-size="8.4" lengthAdjust="spacing" textLength="45.6" x="651.6" y="135.6176">CandidateId</text><line style="stroke:#181818;stroke-width:0.3;" x1="633.3" x2="699.9" y1="140.7258" y2="140.7258"/></g><!--class CurriculumVitae--><g id="elem_CurriculumVitae"><rect codeLine="64" fill="#F1F1F1" height="31.5492" id="CurriculumVitae" rx="1.5" ry="1.5" style="stroke:#181818;stroke-width:0.3;" width="79.2" x="721.8" y="109.2"/><ellipse cx="730.8" cy="122.5746" fill="#ADD1B2" rx="6.6" ry="6.6" style="stroke:#181818;stroke-width:0.6;"/><path d="M732.4594,120.0996 Q732.5531,119.9684 732.6656,119.9027 Q732.7781,119.8371 732.9094,119.8371 Q733.1344,119.8371 733.275,119.9965 Q733.4156,120.1465 733.4156,120.5121 L733.4156,121.384 Q733.4156,121.7496 733.275,121.909 Q733.1344,122.0684 732.9094,122.0684 Q732.7031,122.0684 732.5813,121.9465 Q732.4594,121.834 732.3938,121.5246 Q732.3656,121.309 732.2531,121.1965 Q732.0563,120.9715 731.6906,120.8402 Q731.325,120.709 730.95,120.709 Q730.4906,120.709 730.1062,120.9059 Q729.7312,121.1027 729.4313,121.5527 Q729.1406,122.0027 729.1406,122.6215 L729.1406,123.2777 Q729.1406,124.0184 729.675,124.5152 Q730.2094,125.0027 731.1656,125.0027 Q731.7281,125.0027 732.1219,124.8527 Q732.3562,124.759 732.6094,124.4965 Q732.7688,124.3371 732.8531,124.2902 Q732.9469,124.2434 733.0688,124.2434 Q733.2656,124.2434 733.4156,124.4027 Q733.575,124.5527 733.575,124.759 Q733.575,124.9652 733.3688,125.209 Q733.0688,125.5559 732.5906,125.7527 Q731.9438,126.0246 731.1656,126.0246 Q730.2563,126.0246 729.5344,125.6496 Q728.9438,125.3496 728.5313,124.7121 Q728.1188,124.0652 728.1188,123.2965 L728.1188,122.6027 Q728.1188,121.8059 728.4844,121.1215 Q728.8594,120.4277 729.5156,120.0621 Q730.1719,119.6871 730.9125,119.6871 Q731.3531,119.6871 731.7375,119.7902 Q732.1313,119.884 732.4594,120.0996 Z " fill="#000000"/><text fill="#000000" font-family="sans-serif" font-size="7.2" font-style="italic" lengthAdjust="spacing" textLength="51" x="743.7" y="119.9695">&#171;Value Object&#187;</text><text fill="#000000" font-family="sans-serif" font-size="8.4" lengthAdjust="spacing" textLength="60" x="739.2" y="130.841">CurriculumVitae</text><line style="stroke:#181818;stroke-width:0.3;" x1="722.4" x2="800.4" y1="135.9492" y2="135.9492"/></g><!--class JobOpeningProcess--><g id="elem_JobOpeningProcess"><rect codeLine="70" fill="#F1F1F1" height="41.1258" id="JobOpeningProcess" rx="1.5" ry="1.5" style="stroke:#181818;stroke-width:0.3;" width="95.4" x="783.9" y="612.6"/><ellipse cx="792.9" cy="630.7629" fill="#ADD1B2" rx="6.6" ry="6.6" style="stroke:#181818;stroke-width:0.6;"/><path d="M794.5594,628.2879 Q794.6531,628.1566 794.7656,628.091 Q794.8781,628.0254 795.0094,628.0254 Q795.2344,628.0254 795.375,628.1848 Q795.5156,628.3348 795.5156,628.7004 L795.5156,629.5723 Q795.5156,629.9379 795.375,630.0973 Q795.2344,630.2566 795.0094,630.2566 Q794.8031,630.2566 794.6813,630.1348 Q794.5594,630.0223 794.4938,629.7129 Q794.4656,629.4973 794.3531,629.3848 Q794.1563,629.1598 793.7906,629.0285 Q793.425,628.8973 793.05,628.8973 Q792.5906,628.8973 792.2063,629.0941 Q791.8313,629.291 791.5313,629.741 Q791.2406,630.191 791.2406,630.8098 L791.2406,631.466 Q791.2406,632.2066 791.775,632.7035 Q792.3094,633.191 793.2656,633.191 Q793.8281,633.191 794.2219,633.041 Q794.4563,632.9473 794.7094,632.6848 Q794.8688,632.5254 794.9531,632.4785 Q795.0469,632.4316 795.1687,632.4316 Q795.3656,632.4316 795.5156,632.591 Q795.675,632.741 795.675,632.9473 Q795.675,633.1535 795.4688,633.3973 Q795.1687,633.7441 794.6906,633.941 Q794.0437,634.2129 793.2656,634.2129 Q792.3562,634.2129 791.6344,633.8379 Q791.0437,633.5379 790.6313,632.9004 Q790.2188,632.2535 790.2188,631.4848 L790.2188,630.791 Q790.2188,629.9941 790.5844,629.3098 Q790.9594,628.616 791.6156,628.2504 Q792.2719,627.8754 793.0125,627.8754 Q793.4531,627.8754 793.8375,627.9785 Q794.2312,628.0723 794.5594,628.2879 Z " fill="#000000"/><text fill="#000000" font-family="sans-serif" font-size="7.2" font-style="italic" lengthAdjust="spacing" textLength="60" x="809.4" y="623.3695">&#171;Aggregate Root&#187;</text><text fill="#000000" font-family="sans-serif" font-size="7.2" font-style="italic" lengthAdjust="spacing" textLength="26.4" x="826.2" y="632.9461">&#171;Entity&#187;</text><text fill="#000000" font-family="sans-serif" font-size="8.4" lengthAdjust="spacing" textLength="76.2" x="801.3" y="643.8176">JobOpeningProcess</text><line style="stroke:#181818;stroke-width:0.3;" x1="784.5" x2="878.7" y1="648.9258" y2="648.9258"/></g><!--class JobOpeningProcessId--><g id="elem_JobOpeningProcessId"><rect codeLine="71" fill="#F1F1F1" height="41.1258" id="JobOpeningProcessId" rx="1.5" ry="1.5" style="stroke:#181818;stroke-width:0.3;" width="102" x="660.6" y="612.6"/><ellipse cx="669.6" cy="630.7629" fill="#ADD1B2" rx="6.6" ry="6.6" style="stroke:#181818;stroke-width:0.6;"/><path d="M671.2594,628.2879 Q671.3531,628.1566 671.4656,628.091 Q671.5781,628.0254 671.7094,628.0254 Q671.9344,628.0254 672.075,628.1848 Q672.2156,628.3348 672.2156,628.7004 L672.2156,629.5723 Q672.2156,629.9379 672.075,630.0973 Q671.9344,630.2566 671.7094,630.2566 Q671.5031,630.2566 671.3813,630.1348 Q671.2594,630.0223 671.1938,629.7129 Q671.1656,629.4973 671.0531,629.3848 Q670.8562,629.1598 670.4906,629.0285 Q670.125,628.8973 669.75,628.8973 Q669.2906,628.8973 668.9063,629.0941 Q668.5313,629.291 668.2312,629.741 Q667.9406,630.191 667.9406,630.8098 L667.9406,631.466 Q667.9406,632.2066 668.475,632.7035 Q669.0094,633.191 669.9656,633.191 Q670.5281,633.191 670.9219,633.041 Q671.1563,632.9473 671.4094,632.6848 Q671.5688,632.5254 671.6531,632.4785 Q671.7469,632.4316 671.8688,632.4316 Q672.0656,632.4316 672.2156,632.591 Q672.375,632.741 672.375,632.9473 Q672.375,633.1535 672.1687,633.3973 Q671.8688,633.7441 671.3906,633.941 Q670.7438,634.2129 669.9656,634.2129 Q669.0563,634.2129 668.3344,633.8379 Q667.7438,633.5379 667.3313,632.9004 Q666.9187,632.2535 666.9187,631.4848 L666.9187,630.791 Q666.9187,629.9941 667.2844,629.3098 Q667.6594,628.616 668.3156,628.2504 Q668.9719,627.8754 669.7125,627.8754 Q670.1531,627.8754 670.5375,627.9785 Q670.9313,628.0723 671.2594,628.2879 Z " fill="#000000"/><text fill="#000000" font-family="sans-serif" font-size="7.2" font-style="italic" lengthAdjust="spacing" textLength="32.4" x="703.2" y="623.3695">&#171;Identity&#187;</text><text fill="#000000" font-family="sans-serif" font-size="7.2" font-style="italic" lengthAdjust="spacing" textLength="51" x="693.9" y="632.9461">&#171;Value Object&#187;</text><text fill="#000000" font-family="sans-serif" font-size="8.4" lengthAdjust="spacing" textLength="82.8" x="678" y="643.8176">JobOpeningProcessId</text><line style="stroke:#181818;stroke-width:0.3;" x1="661.2" x2="762" y1="648.9258" y2="648.9258"/></g><!--class Phase--><g id="elem_Phase"><rect codeLine="74" fill="#F1F1F1" height="31.5492" id="Phase" rx="1.5" ry="1.5" style="stroke:#181818;stroke-width:0.3;" width="43.2" x="810" y="690.6"/><ellipse cx="819" cy="703.9746" fill="#ADD1B2" rx="6.6" ry="6.6" style="stroke:#181818;stroke-width:0.6;"/><path d="M820.6594,701.4996 Q820.7531,701.3684 820.8656,701.3027 Q820.9781,701.2371 821.1094,701.2371 Q821.3344,701.2371 821.475,701.3965 Q821.6156,701.5465 821.6156,701.9121 L821.6156,702.784 Q821.6156,703.1496 821.475,703.309 Q821.3344,703.4684 821.1094,703.4684 Q820.9031,703.4684 820.7813,703.3465 Q820.6594,703.234 820.5938,702.9246 Q820.5656,702.709 820.4531,702.5965 Q820.2563,702.3715 819.8906,702.2402 Q819.525,702.109 819.15,702.109 Q818.6906,702.109 818.3063,702.3059 Q817.9313,702.5027 817.6313,702.9527 Q817.3406,703.4027 817.3406,704.0215 L817.3406,704.6777 Q817.3406,705.4184 817.875,705.9152 Q818.4094,706.4027 819.3656,706.4027 Q819.9281,706.4027 820.3219,706.2527 Q820.5563,706.159 820.8094,705.8965 Q820.9688,705.7371 821.0531,705.6902 Q821.1469,705.6434 821.2688,705.6434 Q821.4656,705.6434 821.6156,705.8027 Q821.775,705.9527 821.775,706.159 Q821.775,706.3652 821.5688,706.609 Q821.2688,706.9559 820.7906,707.1527 Q820.1438,707.4246 819.3656,707.4246 Q818.4563,707.4246 817.7344,707.0496 Q817.1438,706.7496 816.7312,706.1121 Q816.3188,705.4652 816.3188,704.6965 L816.3188,704.0027 Q816.3188,703.2059 816.6844,702.5215 Q817.0594,701.8277 817.7156,701.4621 Q818.3719,701.0871 819.1125,701.0871 Q819.5531,701.0871 819.9375,701.1902 Q820.3313,701.284 820.6594,701.4996 Z " fill="#000000"/><text fill="#000000" font-family="sans-serif" font-size="7.2" font-style="italic" lengthAdjust="spacing" textLength="26.4" x="826.2" y="701.3695">&#171;Entity&#187;</text><text fill="#000000" font-family="sans-serif" font-size="8.4" lengthAdjust="spacing" textLength="24" x="827.4" y="712.241">Phase</text><line style="stroke:#181818;stroke-width:0.3;" x1="810.6" x2="852.6" y1="717.3492" y2="717.3492"/></g><!--class PhaseType--><g id="elem_PhaseType"><rect codeLine="76" fill="#F1F1F1" height="96.9891" id="PhaseType" rx="1.5" ry="1.5" style="stroke:#181818;stroke-width:0.3;" width="67.8" x="797.7" y="759"/><ellipse cx="806.7" cy="777.1629" fill="#EB937F" rx="6.6" ry="6.6" style="stroke:#181818;stroke-width:0.6;"/><path d="M806.0156,777.641 L806.0156,779.141 L808.6125,779.141 L808.6125,778.5879 Q808.6125,778.2223 808.7531,778.0629 Q808.9031,777.9035 809.1281,777.9035 Q809.3531,777.9035 809.4938,778.0629 Q809.6344,778.2223 809.6344,778.5879 L809.6344,780.1629 L804.8344,780.1629 Q804.4594,780.1629 804.3,780.0223 Q804.15,779.8816 804.15,779.6473 Q804.15,779.4223 804.3094,779.2816 Q804.4688,779.141 804.8344,779.141 L804.9938,779.141 L804.9938,775.1473 L804.8344,775.1473 Q804.4594,775.1473 804.3,775.0066 Q804.15,774.866 804.15,774.6316 Q804.15,774.4066 804.3,774.266 Q804.4594,774.1254 804.8344,774.1254 L809.4094,774.1254 L809.4094,775.6816 Q809.4094,776.0473 809.2688,776.2066 Q809.1375,776.3566 808.9031,776.3566 Q808.6781,776.3566 808.5375,776.2066 Q808.3969,776.0473 808.3969,775.6816 L808.3969,775.1473 L806.0156,775.1473 L806.0156,776.6191 L806.9063,776.6191 Q806.9063,776.2254 806.9812,776.1129 Q807.1406,775.8691 807.4219,775.8691 Q807.6469,775.8691 807.7875,776.0285 Q807.9281,776.1785 807.9281,776.5441 L807.9281,777.7254 Q807.9281,778.0535 807.8531,778.166 Q807.6938,778.4004 807.4219,778.4004 Q807.1406,778.4004 806.9812,778.1566 Q806.9063,778.0441 806.9063,777.641 L806.0156,777.641 Z " fill="#000000"/><text fill="#000000" font-family="sans-serif" font-size="7.2" font-style="italic" lengthAdjust="spacing" textLength="49.2" x="814.8" y="769.7695">&#171;Enumerated&#187;</text><text fill="#000000" font-family="sans-serif" font-size="7.2" font-style="italic" lengthAdjust="spacing" textLength="51" x="813.9" y="779.3461">&#171;Value Object&#187;</text><text fill="#000000" font-family="sans-serif" font-size="8.4" lengthAdjust="spacing" textLength="43.2" x="817.8" y="790.2176">PhaseType</text><line style="stroke:#181818;stroke-width:0.3;" x1="798.3" x2="864.9" y1="795.3258" y2="795.3258"/><text fill="#000000" font-family="sans-serif" font-size="8.4" lengthAdjust="spacing" textLength="53.4" x="801.3" y="806.7902">APPLICATION</text><text fill="#000000" font-family="sans-serif" font-size="8.4" lengthAdjust="spacing" textLength="47.4" x="801.3" y="817.9629">SCREENING</text><text fill="#000000" font-family="sans-serif" font-size="8.4" lengthAdjust="spacing" textLength="49.8" x="801.3" y="829.1355">INTERVIEWS</text><text fill="#000000" font-family="sans-serif" font-size="8.4" lengthAdjust="spacing" textLength="39" x="801.3" y="840.3082">ANALYSIS</text><text fill="#000000" font-family="sans-serif" font-size="8.4" lengthAdjust="spacing" textLength="32.4" x="801.3" y="851.4809">RESULT</text></g><!--link JobOpening to JobReference--><g id="link_JobOpening_JobReference"><path codeLine="87" d="M628.194,391.32 C597.126,402.486 552.33,418.92 513.6,434.4 C510.15,435.78 509.8949,435.8542 506.3249,437.3482 " fill="none" id="JobOpening-to-JobReference" style="stroke:#181818;stroke-width:0.6;"/><polygon fill="#181818" points="503.004,438.738,508.9119,438.8673,505.7714,437.5799,507.0589,434.4394,503.004,438.738" style="stroke:#181818;stroke-width:0.6;"/><text fill="#000000" font-family="sans-serif" font-size="7.8" lengthAdjust="spacing" textLength="4.2" x="619.3105" y="390.6174">1</text><text fill="#000000" font-family="sans-serif" font-size="7.8" lengthAdjust="spacing" textLength="4.2" x="507.6723" y="434.3667">1</text></g><!--link JobOpening to TitleOrFunction--><g id="link_JobOpening_TitleOrFunction"><path codeLine="88" d="M639.33,397.878 C621.846,410.814 602.4141,425.1909 586.3881,437.0469 " fill="none" id="JobOpening-to-TitleOrFunction" style="stroke:#181818;stroke-width:0.6;"/><polygon fill="#181818" points="583.494,439.188,589.2625,437.9058,585.9058,437.4038,586.4078,434.047,583.494,439.188" style="stroke:#181818;stroke-width:0.6;"/><text fill="#000000" font-family="sans-serif" font-size="7.8" lengthAdjust="spacing" textLength="4.2" x="630.082" y="410.7813">1</text><text fill="#000000" font-family="sans-serif" font-size="7.8" lengthAdjust="spacing" textLength="4.2" x="583.8263" y="432.3352">1</text></g><!--reverse link ContractType to JobOpening--><g id="link_ContractType_JobOpening"><path codeLine="89" d="M724.2718,317.1085 C710.9038,330.8725 698.106,344.058 686.274,356.244 " fill="none" id="ContractType-backto-JobOpening" style="stroke:#181818;stroke-width:0.6;"/><polygon fill="#181818" points="726.78,314.526,721.2961,316.7276,724.6899,316.6781,724.7394,320.0718,726.78,314.526" style="stroke:#181818;stroke-width:0.6;"/><text fill="#000000" font-family="sans-serif" font-size="7.8" lengthAdjust="spacing" textLength="4.2" x="718.6166" y="327.474">1</text><text fill="#000000" font-family="sans-serif" font-size="7.8" lengthAdjust="spacing" textLength="4.2" x="685.3142" y="349.7167">1</text></g><!--reverse link Mode to JobOpening--><g id="link_Mode_JobOpening"><path codeLine="90" d="M666.6,323.406 C666.6,335.76 666.6,345.504 666.6,356.136 " fill="none" id="Mode-backto-JobOpening" style="stroke:#181818;stroke-width:0.6;"/><polygon fill="#181818" points="666.6,319.806,664.2,325.206,666.6,322.806,669,325.206,666.6,319.806" style="stroke:#181818;stroke-width:0.6;"/><text fill="#000000" font-family="sans-serif" font-size="7.8" lengthAdjust="spacing" textLength="4.2" x="662.1441" y="333.3748">1</text><text fill="#000000" font-family="sans-serif" font-size="7.8" lengthAdjust="spacing" textLength="4.2" x="662.0128" y="349.5888">1</text></g><!--link JobOpening to Description--><g id="link_JobOpening_Description"><path codeLine="91" d="M692.61,397.878 C709.284,410.814 727.7336,425.1253 743.0156,436.9813 " fill="none" id="JobOpening-to-Description" style="stroke:#181818;stroke-width:0.6;"/><polygon fill="#181818" points="745.86,439.188,743.0646,433.9817,743.4897,437.3491,740.1223,437.7742,745.86,439.188" style="stroke:#181818;stroke-width:0.6;"/><text fill="#000000" font-family="sans-serif" font-size="7.8" lengthAdjust="spacing" textLength="4.2" x="692.5195" y="410.7813">1</text><text fill="#000000" font-family="sans-serif" font-size="7.8" lengthAdjust="spacing" textLength="4.2" x="736.3365" y="432.3352">1</text></g><!--link JobOpening to VacanciesNumber--><g id="link_JobOpening_VacanciesNumber"><path codeLine="92" d="M666.6,397.878 C666.6,410.766 666.6,423.618 666.6,435.468 " fill="none" id="JobOpening-to-VacanciesNumber" style="stroke:#181818;stroke-width:0.6;"/><polygon fill="#181818" points="666.6,439.068,669,433.668,666.6,436.068,664.2,433.668,666.6,439.068" style="stroke:#181818;stroke-width:0.6;"/><text fill="#000000" font-family="sans-serif" font-size="7.8" lengthAdjust="spacing" textLength="4.2" x="662.0391" y="410.7813">1</text><text fill="#000000" font-family="sans-serif" font-size="7.8" lengthAdjust="spacing" textLength="4.2" x="661.9144" y="432.4474">1</text></g><!--link Candidate to CandidateId--><g id="link_Candidate_CandidateId"><path codeLine="94" d="M669.696,67.878 C669.084,79.08 668.5181,89.3753 667.9061,100.5953 " fill="none" id="Candidate-to-CandidateId" style="stroke:#181818;stroke-width:0.6;"/><polygon fill="#181818" points="667.71,104.19,670.4005,98.9287,667.8734,101.1945,665.6077,98.6673,667.71,104.19" style="stroke:#181818;stroke-width:0.6;"/><text fill="#000000" font-family="sans-serif" font-size="7.8" lengthAdjust="spacing" textLength="4.2" x="664.9453" y="80.7813">1</text><text fill="#000000" font-family="sans-serif" font-size="7.8" lengthAdjust="spacing" textLength="4.2" x="663.3275" y="97.6528">1</text></g><!--link Candidate to CurriculumVitae--><g id="link_Candidate_CurriculumVitae"><path codeLine="95" d="M694.602,67.878 C709.806,80.766 726.4703,94.8896 740.4443,106.7396 " fill="none" id="Candidate-to-CurriculumVitae" style="stroke:#181818;stroke-width:0.6;"/><polygon fill="#181818" points="743.19,109.068,740.6237,103.745,740.9019,107.1277,737.5192,107.4059,743.19,109.068" style="stroke:#181818;stroke-width:0.6;"/><text fill="#000000" font-family="sans-serif" font-size="7.8" lengthAdjust="spacing" textLength="4.2" x="694.132" y="80.7813">1</text><text fill="#000000" font-family="sans-serif" font-size="7.8" lengthAdjust="spacing" textLength="4.2" x="734.2933" y="102.4474">1</text></g><!--link Application to ApplicationId--><g id="link_Application_ApplicationId"><path codeLine="98" d="M323.928,53.07 C270.924,61.08 172.866,78.09 92.4,104.4 C89.022,105.504 88.9021,105.45 85.4701,106.824 " fill="none" id="Application-to-ApplicationId" style="stroke:#181818;stroke-width:0.6;"/><polygon fill="#181818" points="82.128,108.162,88.0332,108.3831,84.9131,107.047,86.2492,103.9269,82.128,108.162" style="stroke:#181818;stroke-width:0.6;"/><text fill="#000000" font-family="sans-serif" font-size="7.8" lengthAdjust="spacing" textLength="4.2" x="315.0369" y="51.4135">1</text><text fill="#000000" font-family="sans-serif" font-size="7.8" lengthAdjust="spacing" textLength="4.2" x="86.7697" y="103.5841">1</text></g><!--link Application to AttachedEmail--><g id="link_Application_AttachedEmail"><path codeLine="99" d="M323.958,59.076 C288.24,69.894 233.706,87.054 187.2,104.4 C183.264,105.87 182.5126,106.1155 178.4566,107.7655 " fill="none" id="Application-to-AttachedEmail" style="stroke:#181818;stroke-width:0.6;"/><polygon fill="#181818" points="175.122,109.122,181.0283,109.3103,177.9009,107.9915,179.2196,104.8641,175.122,109.122" style="stroke:#181818;stroke-width:0.6;"/><text fill="#000000" font-family="sans-serif" font-size="7.8" lengthAdjust="spacing" textLength="4.2" x="315.0703" y="69.4934">1</text><text fill="#000000" font-family="sans-serif" font-size="7.8" lengthAdjust="spacing" textLength="4.2" x="178.6046" y="102.5139">1</text></g><!--link Application to AttachedFile--><g id="link_Application_AttachedFile"><path codeLine="100" d="M328.032,67.878 C306.006,80.814 280.9701,95.5087 260.7861,107.3647 " fill="none" id="Application-to-AttachedFile" style="stroke:#181818;stroke-width:0.6;"/><polygon fill="#181818" points="257.682,109.188,263.5537,108.5224,260.2688,107.6686,261.1226,104.3836,257.682,109.188" style="stroke:#181818;stroke-width:0.6;"/><text fill="#000000" font-family="sans-serif" font-size="7.8" lengthAdjust="spacing" textLength="4.2" x="317.5641" y="80.7813">1</text><text fill="#000000" font-family="sans-serif" font-size="7.8" lengthAdjust="spacing" textLength="4.2" x="259.3276" y="102.3352">1</text></g><!--link Application to ApplicatorData--><g id="link_Application_ApplicatorData"><path codeLine="101" d="M352.308,67.878 C345.864,80.766 339.2473,93.9977 333.3253,105.8477 " fill="none" id="Application-to-ApplicatorData" style="stroke:#181818;stroke-width:0.6;"/><polygon fill="#181818" points="331.716,109.068,336.2768,105.3105,333.0571,106.3844,331.9831,103.1647,331.716,109.068" style="stroke:#181818;stroke-width:0.6;"/><text fill="#000000" font-family="sans-serif" font-size="7.8" lengthAdjust="spacing" textLength="4.2" x="346.0125" y="80.7813">1</text><text fill="#000000" font-family="sans-serif" font-size="7.8" lengthAdjust="spacing" textLength="4.2" x="328.8147" y="102.4474">1</text></g><!--link Application to JobOpening--><g id="link_Application_JobOpening"><path codeLine="102" d="M400.938,52.05 C468.354,60.738 600.6,83.058 600.6,124.5 C600.6,124.5 600.6,124.5 600.6,283.2 C600.6,312.564 620.0191,336.7176 638.6311,353.9316 " fill="none" id="Application-to-JobOpening" style="stroke:#181818;stroke-width:0.6;"/><polygon fill="#181818" points="641.274,356.376,638.9392,350.9475,639.0716,354.339,635.68,354.4714,641.274,356.376" style="stroke:#181818;stroke-width:0.6;"/><text fill="#000000" font-family="sans-serif" font-size="7.8" lengthAdjust="spacing" textLength="45" x="601.2" y="192.617">submitted for</text><text fill="#000000" font-family="sans-serif" font-size="7.8" lengthAdjust="spacing" textLength="3" x="405.5674" y="61.655">*</text><text fill="#000000" font-family="sans-serif" font-size="7.8" lengthAdjust="spacing" textLength="4.2" x="631.8459" y="349.7131">1</text></g><!--link Application to Candidate--><g id="link_Application_Candidate"><path codeLine="103" d="M400.836,47.1 C460.092,47.1 569.508,47.1 628.764,47.1 " fill="none" id="Application-to-Candidate" style="stroke:#181818;stroke-width:0.6;"/><polygon fill="#181818" points="632.364,47.1,626.964,44.7,629.364,47.1,626.964,49.5,632.364,47.1" style="stroke:#181818;stroke-width:0.6;"/><text fill="#000000" font-family="sans-serif" font-size="7.8" lengthAdjust="spacing" textLength="45" x="494.1" y="42.917">submitted by</text><text fill="#000000" font-family="sans-serif" font-size="7.8" lengthAdjust="spacing" textLength="4.2" x="405.523" y="44.7533">1</text><text fill="#000000" font-family="sans-serif" font-size="7.8" lengthAdjust="spacing" textLength="4.2" x="623.477" y="44.7533">1</text></g><!--link Application to ApplicationStatus--><g id="link_Application_ApplicationStatus"><path codeLine="104" d="M378.792,67.878 C389.268,80.766 400.3665,94.4235 409.9905,106.2735 " fill="none" id="Application-to-ApplicationStatus" style="stroke:#181818;stroke-width:0.6;"/><polygon fill="#181818" points="412.26,109.068,410.7187,103.3632,410.3687,106.7393,406.9927,106.3893,412.26,109.068" style="stroke:#181818;stroke-width:0.6;"/><text fill="#000000" font-family="sans-serif" font-size="7.8" lengthAdjust="spacing" textLength="4.2" x="377.0484" y="80.7813">1</text><text fill="#000000" font-family="sans-serif" font-size="7.8" lengthAdjust="spacing" textLength="4.2" x="404.6745" y="102.4474">1</text></g><!--link Application to ApplicationRank--><g id="link_Application_ApplicationRank"><path codeLine="105" d="M400.95,65.514 C429.522,78.72 464.8101,95.0238 492.0501,107.6118 " fill="none" id="Application-to-ApplicationRank" style="stroke:#181818;stroke-width:0.6;"/><polygon fill="#181818" points="495.318,109.122,491.4229,104.6781,492.5947,107.8635,489.4093,109.0354,495.318,109.122" style="stroke:#181818;stroke-width:0.6;"/><text fill="#000000" font-family="sans-serif" font-size="7.8" lengthAdjust="spacing" textLength="4.2" x="405.6502" y="76.6757">1</text><text fill="#000000" font-family="sans-serif" font-size="7.8" lengthAdjust="spacing" textLength="13.2" x="472.8953" y="102.5139">0..1</text></g><!--reverse link JobOpeningProcessId to JobOpeningProcess--><g id="link_JobOpeningProcessId_JobOpeningProcess"><path codeLine="108" d="M766.296,633.3 C773.292,633.3 776.688,633.3 783.69,633.3 " fill="none" id="JobOpeningProcessId-backto-JobOpeningProcess" style="stroke:#181818;stroke-width:0.6;"/><polygon fill="#181818" points="762.696,633.3,768.096,635.7,765.696,633.3,768.096,630.9,762.696,633.3" style="stroke:#181818;stroke-width:0.6;"/><text fill="#000000" font-family="sans-serif" font-size="7.8" lengthAdjust="spacing" textLength="4.2" x="767.4338" y="631.0828">1</text><text fill="#000000" font-family="sans-serif" font-size="7.8" lengthAdjust="spacing" textLength="4.2" x="774.8797" y="631.0675">1</text></g><!--link JobOpening to JobOpeningProcess--><g id="link_JobOpening_JobOpeningProcess"><path codeLine="109" d="M705.078,379.236 C753.834,383.49 831.6,398.97 831.6,454.5 C831.6,454.5 831.6,454.5 831.6,562.2 C831.6,579.15 831.6,594.798 831.6,608.892 " fill="none" id="JobOpening-to-JobOpeningProcess" style="stroke:#181818;stroke-width:0.6;"/><polygon fill="#181818" points="831.6,612.492,834,607.092,831.6,609.492,829.2,607.092,831.6,612.492" style="stroke:#181818;stroke-width:0.6;"/><text fill="#000000" font-family="sans-serif" font-size="7.8" lengthAdjust="spacing" textLength="12.6" x="832.2" y="522.617">has</text><text fill="#000000" font-family="sans-serif" font-size="7.8" lengthAdjust="spacing" textLength="4.2" x="709.7698" y="377.1362">1</text><text fill="#000000" font-family="sans-serif" font-size="7.8" lengthAdjust="spacing" textLength="3" x="828.3141" y="605.8131">*</text></g><!--link JobOpeningProcess to Phase--><g id="link_JobOpeningProcess_Phase"><path codeLine="111" d="M831.6,654.15 C831.6,665.712 831.6,676.374 831.6,686.994 " fill="none" id="JobOpeningProcess-to-Phase" style="stroke:#181818;stroke-width:0.6;"/><polygon fill="#181818" points="831.6,690.594,834,685.194,831.6,687.594,829.2,685.194,831.6,690.594" style="stroke:#181818;stroke-width:0.6;"/><text fill="#000000" font-family="sans-serif" font-size="7.8" lengthAdjust="spacing" textLength="4.2" x="827.0522" y="666.9021">1</text><text fill="#000000" font-family="sans-serif" font-size="7.8" lengthAdjust="spacing" textLength="4.2" x="826.8881" y="683.7426">1</text></g><!--link Phase to PhaseType--><g id="link_Phase_PhaseType"><path codeLine="112" d="M831.6,722.49 C831.6,732.342 831.6,742.11 831.6,755.31 " fill="none" id="Phase-to-PhaseType" style="stroke:#181818;stroke-width:0.6;"/><polygon fill="#181818" points="831.6,758.91,834,753.51,831.6,755.91,829.2,753.51,831.6,758.91" style="stroke:#181818;stroke-width:0.6;"/><text fill="#000000" font-family="sans-serif" font-size="7.8" lengthAdjust="spacing" textLength="4.2" x="826.9669" y="735.3007">1</text><text fill="#000000" font-family="sans-serif" font-size="7.8" lengthAdjust="spacing" textLength="4.2" x="827.2064" y="752.186">1</text></g><!--SRC=[bLLDZvim4BtpAwpqWBGIc_QwGf5ebcsfiYGYRAezLSRC4hTyoPZ3QjN_NXj8C5-1-WJsc_7CyymR_SnvNZoirtcCKrucyJt9aZM9SL4O8SKHmuccdMa8A05-pi92qnWGZjCe1hJwaGLedqDAqsY5FWK18HYZ3qr3ObK-a40q0DEqeeX1X3aWByluPcEQTiefVzziFlxsR3nu0mOf0TDqGcXGfdd2SGbe7_mM8VIjVCfZsBEdCYMSPkaK6D8oGTiivGmJxh_d8ACe4s0Yhd3aZif8hgUNtUwNxppRrvs3vVdjZkh_EGiN-_NivxtVEjsxnj5H_h-_VlMSn-klk4N9-OG9JWc5mYsJ0DXjWXwX88pc4-Jecjv23sTSmAE8lEYyaNvDi08iOKz7lMKT3ZjdQ_dEtXqU7hUURRkE-sruvBY-xPqS- -TnnAThxLwFpiY9PnzVTdvtlyb3AKsq-h92Xh51gy_tz-ApJR-1jXijz8AJB6ZoMSRx0bbv7bE29UsYHp0c90YwFQ8WbZU9OkI4oxl4uXoJCuHsWccy3Ff4OvX1Dh5aJ724bs55t4UEULaiXdiu_JC6xd8l6YAaeUHFS2qLwKFnjhqSpl0yOZ5Bic9JCaP96PV9YN8ynfqCUQfU3YmZK1IYLcIbTEDlIxP1BSvZO3cRZtx3UFBbPemYk4bSrKzA0ehg_R_oZ0dEK6T6v6MWAZqngGEgdb2TL9KYc4QP6zLNcxxMcqpJG7KiDQW1HewMgJD5uQSlwSsCQQ1shNrvSj4yfI4c0Dtg5omfFToHpuw4JQDKnPf5IR6QlR3MgIxiJiAC2rAP3G-eA8E4Sb5cw2rZG-SzNZe6mVkIxEjs6aVM4wadWtNfTTkhDedXZGzokBQyDfXvTSPt8sYHXsWrJQyQhXFvX1nCXQGEIstehHsY_m00]--></g></svg>