<?xml version="1.0" encoding="us-ascii" standalone="no"?><svg xmlns="http://www.w3.org/2000/svg" xmlns:xlink="http://www.w3.org/1999/xlink" contentStyleType="text/css" height="541px" preserveAspectRatio="none" style="width:517px;height:541px;background:#FFFFFF;" version="1.1" viewBox="0 0 517 541" width="517px" zoomAndPan="magnify"><defs/><g><text fill="#000000" font-family="sans-serif" font-size="14" font-weight="bold" lengthAdjust="spacing" textLength="489" x="10" y="30.1074">System Sequence Diagram (SSD) - Rank Candidates for a Job Opening</text><rect fill="#FFFFFF" height="306.9102" style="stroke:#181818;stroke-width:1.0;" width="10" x="97.25" y="133.2422"/><rect fill="#FFFFFF" height="31.291" style="stroke:#181818;stroke-width:1.0;" width="10" x="434.25" y="156.5332"/><rect fill="#FFFFFF" height="120.1641" style="stroke:#181818;stroke-width:1.0;" width="10" x="434.25" y="219.1152"/><rect fill="#FFFFFF" height="78.582" style="stroke:#181818;stroke-width:1.0;" width="10" x="434.25" y="370.5703"/><rect fill="none" height="113.1641" style="stroke:#000000;stroke-width:1.5;" width="452.5" x="28.75" y="296.6973"/><line style="stroke:#181818;stroke-width:0.5;stroke-dasharray:5.0,5.0;" x1="101.75" x2="101.75" y1="123.2422" y2="458.1523"/><line style="stroke:#181818;stroke-width:0.5;stroke-dasharray:5.0,5.0;" x1="439.25" x2="439.25" y1="123.2422" y2="458.1523"/><text fill="#000000" font-family="sans-serif" font-size="14" lengthAdjust="spacing" textLength="121" x="38.75" y="119.7285">Customer Manager</text><ellipse cx="102.25" cy="53.1211" fill="#E2E2F0" rx="8" ry="8" style="stroke:#181818;stroke-width:0.5;"/><path d="M102.25,61.1211 L102.25,88.1211 M89.25,69.1211 L115.25,69.1211 M102.25,88.1211 L89.25,103.1211 M102.25,88.1211 L115.25,103.1211 " fill="none" style="stroke:#181818;stroke-width:0.5;"/><text fill="#000000" font-family="sans-serif" font-size="14" lengthAdjust="spacing" textLength="121" x="38.75" y="472.2598">Customer Manager</text><ellipse cx="102.25" cy="484.2734" fill="#E2E2F0" rx="8" ry="8" style="stroke:#181818;stroke-width:0.5;"/><path d="M102.25,492.2734 L102.25,519.2734 M89.25,500.2734 L115.25,500.2734 M102.25,519.2734 L89.25,534.2734 M102.25,519.2734 L115.25,534.2734 " fill="none" style="stroke:#181818;stroke-width:0.5;"/><rect fill="#E2E2F0" height="32.6211" rx="2.5" ry="2.5" style="stroke:#181818;stroke-width:0.5;" width="64" x="407.25" y="89.6211"/><text fill="#000000" font-family="sans-serif" font-size="14" lengthAdjust="spacing" textLength="50" x="414.25" y="111.7285">:System</text><rect fill="#E2E2F0" height="32.6211" rx="2.5" ry="2.5" style="stroke:#181818;stroke-width:0.5;" width="64" x="407.25" y="457.1523"/><text fill="#000000" font-family="sans-serif" font-size="14" lengthAdjust="spacing" textLength="50" x="414.25" y="479.2598">:System</text><rect fill="#FFFFFF" height="306.9102" style="stroke:#181818;stroke-width:1.0;" width="10" x="97.25" y="133.2422"/><rect fill="#FFFFFF" height="31.291" style="stroke:#181818;stroke-width:1.0;" width="10" x="434.25" y="156.5332"/><rect fill="#FFFFFF" height="120.1641" style="stroke:#181818;stroke-width:1.0;" width="10" x="434.25" y="219.1152"/><rect fill="#FFFFFF" height="78.582" style="stroke:#181818;stroke-width:1.0;" width="10" x="434.25" y="370.5703"/><polygon fill="#181818" points="422.25,152.5332,432.25,156.5332,422.25,160.5332,426.25,156.5332" style="stroke:#181818;stroke-width:1.0;"/><line style="stroke:#181818;stroke-width:1.0;" x1="107.25" x2="428.25" y1="156.5332" y2="156.5332"/><text fill="#000000" font-family="sans-serif" font-size="13" lengthAdjust="spacing" textLength="258" x="114.25" y="151.2705">Request to rank candidates for a job opening</text><polygon fill="#181818" points="118.25,183.8242,108.25,187.8242,118.25,191.8242,114.25,187.8242" style="stroke:#181818;stroke-width:1.0;"/><line style="stroke:#181818;stroke-width:1.0;stroke-dasharray:2.0,2.0;" x1="112.25" x2="438.25" y1="187.8242" y2="187.8242"/><text fill="#000000" font-family="sans-serif" font-size="13" lengthAdjust="spacing" textLength="206" x="124.25" y="182.5615">Show list of applicable job openings</text><polygon fill="#181818" points="422.25,215.1152,432.25,219.1152,422.25,223.1152,426.25,219.1152" style="stroke:#181818;stroke-width:1.0;"/><line style="stroke:#181818;stroke-width:1.0;" x1="107.25" x2="428.25" y1="219.1152" y2="219.1152"/><text fill="#000000" font-family="sans-serif" font-size="13" lengthAdjust="spacing" textLength="118" x="114.25" y="213.8525">Select a job opening</text><polygon fill="#181818" points="118.25,246.4063,108.25,250.4063,118.25,254.4063,114.25,250.4063" style="stroke:#181818;stroke-width:1.0;"/><line style="stroke:#181818;stroke-width:1.0;stroke-dasharray:2.0,2.0;" x1="112.25" x2="433.25" y1="250.4063" y2="250.4063"/><text fill="#000000" font-family="sans-serif" font-size="13" lengthAdjust="spacing" textLength="303" x="124.25" y="245.1436">Show list of applications for the selected job opening</text><polygon fill="#181818" points="118.25,277.6973,108.25,281.6973,118.25,285.6973,114.25,281.6973" style="stroke:#181818;stroke-width:1.0;"/><line style="stroke:#181818;stroke-width:1.0;stroke-dasharray:2.0,2.0;" x1="112.25" x2="433.25" y1="281.6973" y2="281.6973"/><text fill="#000000" font-family="sans-serif" font-size="13" lengthAdjust="spacing" textLength="163" x="124.25" y="276.4346">Requests user to select one</text><path d="M28.75,296.6973 L101.75,296.6973 L101.75,305.9883 L91.75,315.9883 L28.75,315.9883 L28.75,296.6973 " fill="#EEEEEE" style="stroke:#000000;stroke-width:1.5;"/><rect fill="none" height="113.1641" style="stroke:#000000;stroke-width:1.5;" width="452.5" x="28.75" y="296.6973"/><text fill="#000000" font-family="sans-serif" font-size="13" font-weight="bold" lengthAdjust="spacing" textLength="28" x="43.75" y="311.7256">loop</text><text fill="#000000" font-family="sans-serif" font-size="11" font-weight="bold" lengthAdjust="spacing" textLength="167" x="116.75" y="310.5674">[while ranking all applications]</text><polygon fill="#181818" points="118.25,335.2793,108.25,339.2793,118.25,343.2793,114.25,339.2793" style="stroke:#181818;stroke-width:1.0;"/><line style="stroke:#181818;stroke-width:1.0;stroke-dasharray:2.0,2.0;" x1="112.25" x2="438.25" y1="339.2793" y2="339.2793"/><text fill="#000000" font-family="sans-serif" font-size="13" lengthAdjust="spacing" textLength="128" x="124.25" y="334.0166">Requests new ranking</text><polygon fill="#181818" points="422.25,366.5703,432.25,370.5703,422.25,374.5703,426.25,370.5703" style="stroke:#181818;stroke-width:1.0;"/><line style="stroke:#181818;stroke-width:1.0;" x1="107.25" x2="428.25" y1="370.5703" y2="370.5703"/><text fill="#000000" font-family="sans-serif" font-size="13" lengthAdjust="spacing" textLength="122" x="114.25" y="365.3076">Provides new ranking</text><polygon fill="#181818" points="118.25,397.8613,108.25,401.8613,118.25,405.8613,114.25,401.8613" style="stroke:#181818;stroke-width:1.0;"/><line style="stroke:#181818;stroke-width:1.0;stroke-dasharray:2.0,2.0;" x1="112.25" x2="433.25" y1="401.8613" y2="401.8613"/><text fill="#000000" font-family="sans-serif" font-size="13" lengthAdjust="spacing" textLength="124" x="124.25" y="396.5986">Confirms new ranking</text><polygon fill="#181818" points="422.25,436.1523,432.25,440.1523,422.25,444.1523,426.25,440.1523" style="stroke:#181818;stroke-width:1.0;"/><line style="stroke:#181818;stroke-width:1.0;stroke-dasharray:2.0,2.0;" x1="102.25" x2="428.25" y1="440.1523" y2="440.1523"/><text fill="#000000" font-family="sans-serif" font-size="13" lengthAdjust="spacing" textLength="263" x="109.25" y="434.8896">Shows all applications by descending ranking</text><!--SRC=[bPBFJiCm38VlUGfhby5XBx034jfEI0YqFe6NkcrO6fV4NRMtn_spiR89nAbLOt_-_6kMwU12Wn5hg3cmhIBN119RCillemRj0KlAvEG98bd1KFfPHQemvyw54WhqYOmH9rgRdP9G3HbzjXGimTPXsPS_PDds4LQmmt203ORSvIYKeE0822-yXxU6WkACGIlwSR5fawXQX5SCgX8NW0cUImfYr42STGq6WSLw73aSZwy3mXsLFzMRuG6hfxFU6dQzO18GXjWhsPzA7wh4az85D_4doag10taDMSKTUAT0BW2RnZkBUutZYf9CJcVGFQEClERypybmVxGu3kCYKX6aWKpvZ7o7D6MIe4qQkoOpDW875JR6CpVGLQw_4HfP_-lH-zb8yoisK7VklCxYDehto4UNqxpZpoYqSSEXSB6UDneAEVJobzHdiMjywMOHs9z01QoszdjUK5VUqztw0W00]--></g></svg>