<?xml version="1.0" encoding="us-ascii" standalone="no"?><svg xmlns="http://www.w3.org/2000/svg" xmlns:xlink="http://www.w3.org/1999/xlink" contentStyleType="text/css" height="1449px" preserveAspectRatio="none" style="width:1488px;height:1449px;background:#FFFFFF;" version="1.1" viewBox="0 0 1488 1449" width="1488px" zoomAndPan="magnify"><defs/><g><!--cluster Job Opening--><g id="cluster_Job Opening"><rect fill="#BBCCAA" height="437" rx="2.5" ry="2.5" style="stroke:#181818;stroke-width:1.0;" width="647" x="702" y="372"/><text fill="#000000" font-family="sans-serif" font-size="14" font-weight="bold" lengthAdjust="spacing" textLength="90" x="980.5" y="389.1074">Job Opening</text></g><!--cluster Job Opening Application--><g id="cluster_Job Opening Application"><rect fill="#AACCBB" height="252" rx="2.5" ry="2.5" style="stroke:#181818;stroke-width:1.0;" width="957" x="7" y="7"/><text fill="#000000" font-family="sans-serif" font-size="14" font-weight="bold" lengthAdjust="spacing" textLength="172" x="399.5" y="24.1074">Job Opening Application</text></g><!--cluster candidate--><g id="cluster_candidate"><rect fill="#AABBCC" height="252" rx="2.5" ry="2.5" style="stroke:#181818;stroke-width:1.0;" width="313" x="1038" y="7"/><text fill="#000000" font-family="sans-serif" font-size="14" font-weight="bold" lengthAdjust="spacing" textLength="69" x="1160" y="24.1074">candidate</text></g><!--cluster Job Opening Process--><g id="cluster_Job Opening Process"><rect fill="#CCBBCC" height="459" rx="2.5" ry="2.5" style="stroke:#181818;stroke-width:1.0;" width="397" x="1085" y="984"/><text fill="#000000" font-family="sans-serif" font-size="14" font-weight="bold" lengthAdjust="spacing" textLength="151" x="1208" y="1001.1074">Job Opening Process</text></g><!--class JobOpening--><g id="elem_JobOpening"><rect codeLine="7" fill="#F1F1F1" height="68.543" id="JobOpening" rx="2.5" ry="2.5" style="stroke:#181818;stroke-width:0.5;" width="128" x="1047" y="594"/><ellipse cx="1062" cy="624.2715" fill="#ADD1B2" rx="11" ry="11" style="stroke:#181818;stroke-width:1.0;"/><path d="M1064.7656,620.1465 Q1064.9219,619.9277 1065.1094,619.8184 Q1065.2969,619.709 1065.5156,619.709 Q1065.8906,619.709 1066.125,619.9746 Q1066.3594,620.2246 1066.3594,620.834 L1066.3594,622.2871 Q1066.3594,622.8965 1066.125,623.1621 Q1065.8906,623.4277 1065.5156,623.4277 Q1065.1719,623.4277 1064.9688,623.2246 Q1064.7656,623.0371 1064.6563,622.5215 Q1064.6094,622.1621 1064.4219,621.9746 Q1064.0938,621.5996 1063.4844,621.3809 Q1062.875,621.1621 1062.25,621.1621 Q1061.4844,621.1621 1060.8438,621.4902 Q1060.2188,621.8184 1059.7188,622.5684 Q1059.2344,623.3184 1059.2344,624.3496 L1059.2344,625.4434 Q1059.2344,626.6777 1060.125,627.5059 Q1061.0156,628.3184 1062.6094,628.3184 Q1063.5469,628.3184 1064.2031,628.0684 Q1064.5938,627.9121 1065.0156,627.4746 Q1065.2813,627.209 1065.4219,627.1309 Q1065.5781,627.0527 1065.7813,627.0527 Q1066.1094,627.0527 1066.3594,627.3184 Q1066.625,627.5684 1066.625,627.9121 Q1066.625,628.2559 1066.2813,628.6621 Q1065.7813,629.2402 1064.9844,629.5684 Q1063.9063,630.0215 1062.6094,630.0215 Q1061.0938,630.0215 1059.8906,629.3965 Q1058.9063,628.8965 1058.2188,627.834 Q1057.5313,626.7559 1057.5313,625.4746 L1057.5313,624.3184 Q1057.5313,622.9902 1058.1406,621.8496 Q1058.7656,620.6934 1059.8594,620.084 Q1060.9531,619.459 1062.1875,619.459 Q1062.9219,619.459 1063.5625,619.6309 Q1064.2188,619.7871 1064.7656,620.1465 Z " fill="#000000"/><text fill="#000000" font-family="sans-serif" font-size="12" font-style="italic" lengthAdjust="spacing" textLength="100" x="1074" y="611.9492">&#171;Aggregate Root&#187;</text><text fill="#000000" font-family="sans-serif" font-size="12" font-style="italic" lengthAdjust="spacing" textLength="44" x="1102" y="627.9102">&#171;Entity&#187;</text><text fill="#000000" font-family="sans-serif" font-size="14" lengthAdjust="spacing" textLength="76" x="1086" y="646.0293">JobOpening</text><line style="stroke:#181818;stroke-width:0.5;" x1="1048" x2="1174" y1="654.543" y2="654.543"/></g><!--class JobReference--><g id="elem_JobReference"><rect codeLine="9" fill="#F1F1F1" height="68.543" id="JobReference" rx="2.5" ry="2.5" style="stroke:#181818;stroke-width:0.5;" width="120" x="718" y="724"/><ellipse cx="733" cy="754.2715" fill="#ADD1B2" rx="11" ry="11" style="stroke:#181818;stroke-width:1.0;"/><path d="M735.7656,750.1465 Q735.9219,749.9277 736.1094,749.8184 Q736.2969,749.709 736.5156,749.709 Q736.8906,749.709 737.125,749.9746 Q737.3594,750.2246 737.3594,750.834 L737.3594,752.2871 Q737.3594,752.8965 737.125,753.1621 Q736.8906,753.4277 736.5156,753.4277 Q736.1719,753.4277 735.9688,753.2246 Q735.7656,753.0371 735.6563,752.5215 Q735.6094,752.1621 735.4219,751.9746 Q735.0938,751.5996 734.4844,751.3809 Q733.875,751.1621 733.25,751.1621 Q732.4844,751.1621 731.8438,751.4902 Q731.2188,751.8184 730.7188,752.5684 Q730.2344,753.3184 730.2344,754.3496 L730.2344,755.4434 Q730.2344,756.6777 731.125,757.5059 Q732.0156,758.3184 733.6094,758.3184 Q734.5469,758.3184 735.2031,758.0684 Q735.5938,757.9121 736.0156,757.4746 Q736.2813,757.209 736.4219,757.1309 Q736.5781,757.0527 736.7813,757.0527 Q737.1094,757.0527 737.3594,757.3184 Q737.625,757.5684 737.625,757.9121 Q737.625,758.2559 737.2813,758.6621 Q736.7813,759.2402 735.9844,759.5684 Q734.9063,760.0215 733.6094,760.0215 Q732.0938,760.0215 730.8906,759.3965 Q729.9063,758.8965 729.2188,757.834 Q728.5313,756.7559 728.5313,755.4746 L728.5313,754.3184 Q728.5313,752.9902 729.1406,751.8496 Q729.7656,750.6934 730.8594,750.084 Q731.9531,749.459 733.1875,749.459 Q733.9219,749.459 734.5625,749.6309 Q735.2188,749.7871 735.7656,750.1465 Z " fill="#000000"/><text fill="#000000" font-family="sans-serif" font-size="12" font-style="italic" lengthAdjust="spacing" textLength="54" x="764" y="741.9492">&#171;Identity&#187;</text><text fill="#000000" font-family="sans-serif" font-size="12" font-style="italic" lengthAdjust="spacing" textLength="85" x="748.5" y="757.9102">&#171;Value Object&#187;</text><text fill="#000000" font-family="sans-serif" font-size="14" lengthAdjust="spacing" textLength="88" x="747" y="776.0293">JobReference</text><line style="stroke:#181818;stroke-width:0.5;" x1="719" x2="837" y1="784.543" y2="784.543"/></g><!--class TitleOrFunction--><g id="elem_TitleOrFunction"><rect codeLine="11" fill="#F1F1F1" height="52.582" id="TitleOrFunction" rx="2.5" ry="2.5" style="stroke:#181818;stroke-width:0.5;" width="130" x="873" y="732"/><ellipse cx="888" cy="754.291" fill="#ADD1B2" rx="11" ry="11" style="stroke:#181818;stroke-width:1.0;"/><path d="M890.7656,750.166 Q890.9219,749.9473 891.1094,749.8379 Q891.2969,749.7285 891.5156,749.7285 Q891.8906,749.7285 892.125,749.9941 Q892.3594,750.2441 892.3594,750.8535 L892.3594,752.3066 Q892.3594,752.916 892.125,753.1816 Q891.8906,753.4473 891.5156,753.4473 Q891.1719,753.4473 890.9688,753.2441 Q890.7656,753.0566 890.6563,752.541 Q890.6094,752.1816 890.4219,751.9941 Q890.0938,751.6191 889.4844,751.4004 Q888.875,751.1816 888.25,751.1816 Q887.4844,751.1816 886.8438,751.5098 Q886.2188,751.8379 885.7188,752.5879 Q885.2344,753.3379 885.2344,754.3691 L885.2344,755.4629 Q885.2344,756.6973 886.125,757.5254 Q887.0156,758.3379 888.6094,758.3379 Q889.5469,758.3379 890.2031,758.0879 Q890.5938,757.9316 891.0156,757.4941 Q891.2813,757.2285 891.4219,757.1504 Q891.5781,757.0723 891.7813,757.0723 Q892.1094,757.0723 892.3594,757.3379 Q892.625,757.5879 892.625,757.9316 Q892.625,758.2754 892.2813,758.6816 Q891.7813,759.2598 890.9844,759.5879 Q889.9063,760.041 888.6094,760.041 Q887.0938,760.041 885.8906,759.416 Q884.9063,758.916 884.2188,757.8535 Q883.5313,756.7754 883.5313,755.4941 L883.5313,754.3379 Q883.5313,753.0098 884.1406,751.8691 Q884.7656,750.7129 885.8594,750.1035 Q886.9531,749.4785 888.1875,749.4785 Q888.9219,749.4785 889.5625,749.6504 Q890.2188,749.8066 890.7656,750.166 Z " fill="#000000"/><text fill="#000000" font-family="sans-serif" font-size="12" font-style="italic" lengthAdjust="spacing" textLength="85" x="908.5" y="749.9492">&#171;Value Object&#187;</text><text fill="#000000" font-family="sans-serif" font-size="14" lengthAdjust="spacing" textLength="98" x="902" y="768.0684">TitleOrFunction</text><line style="stroke:#181818;stroke-width:0.5;" x1="874" x2="1002" y1="776.582" y2="776.582"/></g><!--class ContractType--><g id="elem_ContractType"><rect codeLine="13" fill="#F1F1F1" height="105.7852" id="ContractType" rx="2.5" ry="2.5" style="stroke:#181818;stroke-width:0.5;" width="118" x="1203" y="418"/><ellipse cx="1218" cy="448.2715" fill="#EB937F" rx="11" ry="11" style="stroke:#181818;stroke-width:1.0;"/><path d="M1216.8594,449.0684 L1216.8594,451.5684 L1221.1875,451.5684 L1221.1875,450.6465 Q1221.1875,450.0371 1221.4219,449.7715 Q1221.6719,449.5059 1222.0469,449.5059 Q1222.4219,449.5059 1222.6563,449.7715 Q1222.8906,450.0371 1222.8906,450.6465 L1222.8906,453.2715 L1214.8906,453.2715 Q1214.2656,453.2715 1214,453.0371 Q1213.75,452.8027 1213.75,452.4121 Q1213.75,452.0371 1214.0156,451.8027 Q1214.2813,451.5684 1214.8906,451.5684 L1215.1563,451.5684 L1215.1563,444.9121 L1214.8906,444.9121 Q1214.2656,444.9121 1214,444.6777 Q1213.75,444.4434 1213.75,444.0527 Q1213.75,443.6777 1214,443.4434 Q1214.2656,443.209 1214.8906,443.209 L1222.5156,443.209 L1222.5156,445.8027 Q1222.5156,446.4121 1222.2813,446.6777 Q1222.0625,446.9277 1221.6719,446.9277 Q1221.2969,446.9277 1221.0625,446.6777 Q1220.8281,446.4121 1220.8281,445.8027 L1220.8281,444.9121 L1216.8594,444.9121 L1216.8594,447.3652 L1218.3438,447.3652 Q1218.3438,446.709 1218.4688,446.5215 Q1218.7344,446.1152 1219.2031,446.1152 Q1219.5781,446.1152 1219.8125,446.3809 Q1220.0469,446.6309 1220.0469,447.2402 L1220.0469,449.209 Q1220.0469,449.7559 1219.9219,449.9434 Q1219.6563,450.334 1219.2031,450.334 Q1218.7344,450.334 1218.4688,449.9277 Q1218.3438,449.7402 1218.3438,449.0684 L1216.8594,449.0684 Z " fill="#000000"/><text fill="#000000" font-family="sans-serif" font-size="12" font-style="italic" lengthAdjust="spacing" textLength="82" x="1234" y="435.9492">&#171;Enumerated&#187;</text><text fill="#000000" font-family="sans-serif" font-size="12" font-style="italic" lengthAdjust="spacing" textLength="85" x="1232.5" y="451.9102">&#171;Value Object&#187;</text><text fill="#000000" font-family="sans-serif" font-size="14" lengthAdjust="spacing" textLength="86" x="1232" y="470.0293">ContractType</text><line style="stroke:#181818;stroke-width:0.5;" x1="1204" x2="1320" y1="478.543" y2="478.543"/><text fill="#000000" font-family="sans-serif" font-size="14" lengthAdjust="spacing" textLength="74" x="1209" y="497.6504">FULL_TIME</text><text fill="#000000" font-family="sans-serif" font-size="14" lengthAdjust="spacing" textLength="77" x="1209" y="516.2715">PART_TIME</text></g><!--class Mode--><g id="elem_Mode"><rect codeLine="18" fill="#F1F1F1" height="124.4063" id="Mode" rx="2.5" ry="2.5" style="stroke:#181818;stroke-width:0.5;" width="113" x="1054.5" y="409"/><ellipse cx="1069.5" cy="439.2715" fill="#EB937F" rx="11" ry="11" style="stroke:#181818;stroke-width:1.0;"/><path d="M1068.3594,440.0684 L1068.3594,442.5684 L1072.6875,442.5684 L1072.6875,441.6465 Q1072.6875,441.0371 1072.9219,440.7715 Q1073.1719,440.5059 1073.5469,440.5059 Q1073.9219,440.5059 1074.1563,440.7715 Q1074.3906,441.0371 1074.3906,441.6465 L1074.3906,444.2715 L1066.3906,444.2715 Q1065.7656,444.2715 1065.5,444.0371 Q1065.25,443.8027 1065.25,443.4121 Q1065.25,443.0371 1065.5156,442.8027 Q1065.7813,442.5684 1066.3906,442.5684 L1066.6563,442.5684 L1066.6563,435.9121 L1066.3906,435.9121 Q1065.7656,435.9121 1065.5,435.6777 Q1065.25,435.4434 1065.25,435.0527 Q1065.25,434.6777 1065.5,434.4434 Q1065.7656,434.209 1066.3906,434.209 L1074.0156,434.209 L1074.0156,436.8027 Q1074.0156,437.4121 1073.7813,437.6777 Q1073.5625,437.9277 1073.1719,437.9277 Q1072.7969,437.9277 1072.5625,437.6777 Q1072.3281,437.4121 1072.3281,436.8027 L1072.3281,435.9121 L1068.3594,435.9121 L1068.3594,438.3652 L1069.8438,438.3652 Q1069.8438,437.709 1069.9688,437.5215 Q1070.2344,437.1152 1070.7031,437.1152 Q1071.0781,437.1152 1071.3125,437.3809 Q1071.5469,437.6309 1071.5469,438.2402 L1071.5469,440.209 Q1071.5469,440.7559 1071.4219,440.9434 Q1071.1563,441.334 1070.7031,441.334 Q1070.2344,441.334 1069.9688,440.9277 Q1069.8438,440.7402 1069.8438,440.0684 L1068.3594,440.0684 Z " fill="#000000"/><text fill="#000000" font-family="sans-serif" font-size="12" font-style="italic" lengthAdjust="spacing" textLength="82" x="1083" y="426.9492">&#171;Enumerated&#187;</text><text fill="#000000" font-family="sans-serif" font-size="12" font-style="italic" lengthAdjust="spacing" textLength="85" x="1081.5" y="442.9102">&#171;Value Object&#187;</text><text fill="#000000" font-family="sans-serif" font-size="14" lengthAdjust="spacing" textLength="35" x="1106.5" y="461.0293">Mode</text><line style="stroke:#181818;stroke-width:0.5;" x1="1055.5" x2="1166.5" y1="469.543" y2="469.543"/><text fill="#000000" font-family="sans-serif" font-size="14" lengthAdjust="spacing" textLength="59" x="1060.5" y="488.6504">REMOTE</text><text fill="#000000" font-family="sans-serif" font-size="14" lengthAdjust="spacing" textLength="55" x="1060.5" y="507.2715">ON-SITE</text><text fill="#000000" font-family="sans-serif" font-size="14" lengthAdjust="spacing" textLength="50" x="1060.5" y="525.8926">HYBRID</text></g><!--class VacanciesNumber--><g id="elem_VacanciesNumber"><rect codeLine="25" fill="#F1F1F1" height="52.582" id="VacanciesNumber" rx="2.5" ry="2.5" style="stroke:#181818;stroke-width:0.5;" width="146" x="1038" y="732"/><ellipse cx="1053" cy="754.291" fill="#ADD1B2" rx="11" ry="11" style="stroke:#181818;stroke-width:1.0;"/><path d="M1055.7656,750.166 Q1055.9219,749.9473 1056.1094,749.8379 Q1056.2969,749.7285 1056.5156,749.7285 Q1056.8906,749.7285 1057.125,749.9941 Q1057.3594,750.2441 1057.3594,750.8535 L1057.3594,752.3066 Q1057.3594,752.916 1057.125,753.1816 Q1056.8906,753.4473 1056.5156,753.4473 Q1056.1719,753.4473 1055.9688,753.2441 Q1055.7656,753.0566 1055.6563,752.541 Q1055.6094,752.1816 1055.4219,751.9941 Q1055.0938,751.6191 1054.4844,751.4004 Q1053.875,751.1816 1053.25,751.1816 Q1052.4844,751.1816 1051.8438,751.5098 Q1051.2188,751.8379 1050.7188,752.5879 Q1050.2344,753.3379 1050.2344,754.3691 L1050.2344,755.4629 Q1050.2344,756.6973 1051.125,757.5254 Q1052.0156,758.3379 1053.6094,758.3379 Q1054.5469,758.3379 1055.2031,758.0879 Q1055.5938,757.9316 1056.0156,757.4941 Q1056.2813,757.2285 1056.4219,757.1504 Q1056.5781,757.0723 1056.7813,757.0723 Q1057.1094,757.0723 1057.3594,757.3379 Q1057.625,757.5879 1057.625,757.9316 Q1057.625,758.2754 1057.2813,758.6816 Q1056.7813,759.2598 1055.9844,759.5879 Q1054.9063,760.041 1053.6094,760.041 Q1052.0938,760.041 1050.8906,759.416 Q1049.9063,758.916 1049.2188,757.8535 Q1048.5313,756.7754 1048.5313,755.4941 L1048.5313,754.3379 Q1048.5313,753.0098 1049.1406,751.8691 Q1049.7656,750.7129 1050.8594,750.1035 Q1051.9531,749.4785 1053.1875,749.4785 Q1053.9219,749.4785 1054.5625,749.6504 Q1055.2188,749.8066 1055.7656,750.166 Z " fill="#000000"/><text fill="#000000" font-family="sans-serif" font-size="12" font-style="italic" lengthAdjust="spacing" textLength="85" x="1081.5" y="749.9492">&#171;Value Object&#187;</text><text fill="#000000" font-family="sans-serif" font-size="14" lengthAdjust="spacing" textLength="114" x="1067" y="768.0684">VacanciesNumber</text><line style="stroke:#181818;stroke-width:0.5;" x1="1039" x2="1183" y1="776.582" y2="776.582"/></g><!--class Description--><g id="elem_Description"><rect codeLine="27" fill="#F1F1F1" height="52.582" id="Description" rx="2.5" ry="2.5" style="stroke:#181818;stroke-width:0.5;" width="113" x="1219.5" y="732"/><ellipse cx="1234.5" cy="754.291" fill="#ADD1B2" rx="11" ry="11" style="stroke:#181818;stroke-width:1.0;"/><path d="M1237.2656,750.166 Q1237.4219,749.9473 1237.6094,749.8379 Q1237.7969,749.7285 1238.0156,749.7285 Q1238.3906,749.7285 1238.625,749.9941 Q1238.8594,750.2441 1238.8594,750.8535 L1238.8594,752.3066 Q1238.8594,752.916 1238.625,753.1816 Q1238.3906,753.4473 1238.0156,753.4473 Q1237.6719,753.4473 1237.4688,753.2441 Q1237.2656,753.0566 1237.1563,752.541 Q1237.1094,752.1816 1236.9219,751.9941 Q1236.5938,751.6191 1235.9844,751.4004 Q1235.375,751.1816 1234.75,751.1816 Q1233.9844,751.1816 1233.3438,751.5098 Q1232.7188,751.8379 1232.2188,752.5879 Q1231.7344,753.3379 1231.7344,754.3691 L1231.7344,755.4629 Q1231.7344,756.6973 1232.625,757.5254 Q1233.5156,758.3379 1235.1094,758.3379 Q1236.0469,758.3379 1236.7031,758.0879 Q1237.0938,757.9316 1237.5156,757.4941 Q1237.7813,757.2285 1237.9219,757.1504 Q1238.0781,757.0723 1238.2813,757.0723 Q1238.6094,757.0723 1238.8594,757.3379 Q1239.125,757.5879 1239.125,757.9316 Q1239.125,758.2754 1238.7813,758.6816 Q1238.2813,759.2598 1237.4844,759.5879 Q1236.4063,760.041 1235.1094,760.041 Q1233.5938,760.041 1232.3906,759.416 Q1231.4063,758.916 1230.7188,757.8535 Q1230.0313,756.7754 1230.0313,755.4941 L1230.0313,754.3379 Q1230.0313,753.0098 1230.6406,751.8691 Q1231.2656,750.7129 1232.3594,750.1035 Q1233.4531,749.4785 1234.6875,749.4785 Q1235.4219,749.4785 1236.0625,749.6504 Q1236.7188,749.8066 1237.2656,750.166 Z " fill="#000000"/><text fill="#000000" font-family="sans-serif" font-size="12" font-style="italic" lengthAdjust="spacing" textLength="85" x="1246.5" y="749.9492">&#171;Value Object&#187;</text><text fill="#000000" font-family="sans-serif" font-size="14" lengthAdjust="spacing" textLength="71" x="1253.5" y="768.0684">Description</text><line style="stroke:#181818;stroke-width:0.5;" x1="1220.5" x2="1331.5" y1="776.582" y2="776.582"/></g><!--class Application--><g id="elem_Application"><rect codeLine="44" fill="#F1F1F1" height="68.543" id="Application" rx="2.5" ry="2.5" style="stroke:#181818;stroke-width:0.5;" width="128" x="540" y="44"/><ellipse cx="555" cy="74.2715" fill="#ADD1B2" rx="11" ry="11" style="stroke:#181818;stroke-width:1.0;"/><path d="M557.7656,70.1465 Q557.9219,69.9277 558.1094,69.8184 Q558.2969,69.709 558.5156,69.709 Q558.8906,69.709 559.125,69.9746 Q559.3594,70.2246 559.3594,70.834 L559.3594,72.2871 Q559.3594,72.8965 559.125,73.1621 Q558.8906,73.4277 558.5156,73.4277 Q558.1719,73.4277 557.9688,73.2246 Q557.7656,73.0371 557.6563,72.5215 Q557.6094,72.1621 557.4219,71.9746 Q557.0938,71.5996 556.4844,71.3809 Q555.875,71.1621 555.25,71.1621 Q554.4844,71.1621 553.8438,71.4902 Q553.2188,71.8184 552.7188,72.5684 Q552.2344,73.3184 552.2344,74.3496 L552.2344,75.4434 Q552.2344,76.6777 553.125,77.5059 Q554.0156,78.3184 555.6094,78.3184 Q556.5469,78.3184 557.2031,78.0684 Q557.5938,77.9121 558.0156,77.4746 Q558.2813,77.209 558.4219,77.1309 Q558.5781,77.0527 558.7813,77.0527 Q559.1094,77.0527 559.3594,77.3184 Q559.625,77.5684 559.625,77.9121 Q559.625,78.2559 559.2813,78.6621 Q558.7813,79.2402 557.9844,79.5684 Q556.9063,80.0215 555.6094,80.0215 Q554.0938,80.0215 552.8906,79.3965 Q551.9063,78.8965 551.2188,77.834 Q550.5313,76.7559 550.5313,75.4746 L550.5313,74.3184 Q550.5313,72.9902 551.1406,71.8496 Q551.7656,70.6934 552.8594,70.084 Q553.9531,69.459 555.1875,69.459 Q555.9219,69.459 556.5625,69.6309 Q557.2188,69.7871 557.7656,70.1465 Z " fill="#000000"/><text fill="#000000" font-family="sans-serif" font-size="12" font-style="italic" lengthAdjust="spacing" textLength="100" x="567" y="61.9492">&#171;Aggregate Root&#187;</text><text fill="#000000" font-family="sans-serif" font-size="12" font-style="italic" lengthAdjust="spacing" textLength="44" x="595" y="77.9102">&#171;Entity&#187;</text><text fill="#000000" font-family="sans-serif" font-size="14" lengthAdjust="spacing" textLength="69" x="582.5" y="96.0293">Application</text><line style="stroke:#181818;stroke-width:0.5;" x1="541" x2="667" y1="104.543" y2="104.543"/></g><!--class ApplicationId--><g id="elem_ApplicationId"><rect codeLine="46" fill="#F1F1F1" height="68.543" id="ApplicationId" rx="2.5" ry="2.5" style="stroke:#181818;stroke-width:0.5;" width="113" x="23.5" y="174"/><ellipse cx="38.5" cy="204.2715" fill="#ADD1B2" rx="11" ry="11" style="stroke:#181818;stroke-width:1.0;"/><path d="M41.2656,200.1465 Q41.4219,199.9277 41.6094,199.8184 Q41.7969,199.709 42.0156,199.709 Q42.3906,199.709 42.625,199.9746 Q42.8594,200.2246 42.8594,200.834 L42.8594,202.2871 Q42.8594,202.8965 42.625,203.1621 Q42.3906,203.4277 42.0156,203.4277 Q41.6719,203.4277 41.4688,203.2246 Q41.2656,203.0371 41.1563,202.5215 Q41.1094,202.1621 40.9219,201.9746 Q40.5938,201.5996 39.9844,201.3809 Q39.375,201.1621 38.75,201.1621 Q37.9844,201.1621 37.3438,201.4902 Q36.7188,201.8184 36.2188,202.5684 Q35.7344,203.3184 35.7344,204.3496 L35.7344,205.4434 Q35.7344,206.6777 36.625,207.5059 Q37.5156,208.3184 39.1094,208.3184 Q40.0469,208.3184 40.7031,208.0684 Q41.0938,207.9121 41.5156,207.4746 Q41.7813,207.209 41.9219,207.1309 Q42.0781,207.0527 42.2813,207.0527 Q42.6094,207.0527 42.8594,207.3184 Q43.125,207.5684 43.125,207.9121 Q43.125,208.2559 42.7813,208.6621 Q42.2813,209.2402 41.4844,209.5684 Q40.4063,210.0215 39.1094,210.0215 Q37.5938,210.0215 36.3906,209.3965 Q35.4063,208.8965 34.7188,207.834 Q34.0313,206.7559 34.0313,205.4746 L34.0313,204.3184 Q34.0313,202.9902 34.6406,201.8496 Q35.2656,200.6934 36.3594,200.084 Q37.4531,199.459 38.6875,199.459 Q39.4219,199.459 40.0625,199.6309 Q40.7188,199.7871 41.2656,200.1465 Z " fill="#000000"/><text fill="#000000" font-family="sans-serif" font-size="12" font-style="italic" lengthAdjust="spacing" textLength="54" x="66" y="191.9492">&#171;Identity&#187;</text><text fill="#000000" font-family="sans-serif" font-size="12" font-style="italic" lengthAdjust="spacing" textLength="85" x="50.5" y="207.9102">&#171;Value Object&#187;</text><text fill="#000000" font-family="sans-serif" font-size="14" lengthAdjust="spacing" textLength="80" x="53" y="226.0293">ApplicationId</text><line style="stroke:#181818;stroke-width:0.5;" x1="24.5" x2="135.5" y1="234.543" y2="234.543"/></g><!--class AttachedEmail--><g id="elem_AttachedEmail"><rect codeLine="48" fill="#F1F1F1" height="52.582" id="AttachedEmail" rx="2.5" ry="2.5" style="stroke:#181818;stroke-width:0.5;" width="122" x="172" y="182"/><ellipse cx="187" cy="204.291" fill="#ADD1B2" rx="11" ry="11" style="stroke:#181818;stroke-width:1.0;"/><path d="M189.7656,200.166 Q189.9219,199.9473 190.1094,199.8379 Q190.2969,199.7285 190.5156,199.7285 Q190.8906,199.7285 191.125,199.9941 Q191.3594,200.2441 191.3594,200.8535 L191.3594,202.3066 Q191.3594,202.916 191.125,203.1816 Q190.8906,203.4473 190.5156,203.4473 Q190.1719,203.4473 189.9688,203.2441 Q189.7656,203.0566 189.6563,202.541 Q189.6094,202.1816 189.4219,201.9941 Q189.0938,201.6191 188.4844,201.4004 Q187.875,201.1816 187.25,201.1816 Q186.4844,201.1816 185.8438,201.5098 Q185.2188,201.8379 184.7188,202.5879 Q184.2344,203.3379 184.2344,204.3691 L184.2344,205.4629 Q184.2344,206.6973 185.125,207.5254 Q186.0156,208.3379 187.6094,208.3379 Q188.5469,208.3379 189.2031,208.0879 Q189.5938,207.9316 190.0156,207.4941 Q190.2813,207.2285 190.4219,207.1504 Q190.5781,207.0723 190.7813,207.0723 Q191.1094,207.0723 191.3594,207.3379 Q191.625,207.5879 191.625,207.9316 Q191.625,208.2754 191.2813,208.6816 Q190.7813,209.2598 189.9844,209.5879 Q188.9063,210.041 187.6094,210.041 Q186.0938,210.041 184.8906,209.416 Q183.9063,208.916 183.2188,207.8535 Q182.5313,206.7754 182.5313,205.4941 L182.5313,204.3379 Q182.5313,203.0098 183.1406,201.8691 Q183.7656,200.7129 184.8594,200.1035 Q185.9531,199.4785 187.1875,199.4785 Q187.9219,199.4785 188.5625,199.6504 Q189.2188,199.8066 189.7656,200.166 Z " fill="#000000"/><text fill="#000000" font-family="sans-serif" font-size="12" font-style="italic" lengthAdjust="spacing" textLength="85" x="203.5" y="199.9492">&#171;Value Object&#187;</text><text fill="#000000" font-family="sans-serif" font-size="14" lengthAdjust="spacing" textLength="90" x="201" y="218.0684">AttachedEmail</text><line style="stroke:#181818;stroke-width:0.5;" x1="173" x2="293" y1="226.582" y2="226.582"/></g><!--class AttachedFile--><g id="elem_AttachedFile"><rect codeLine="50" fill="#F1F1F1" height="52.582" id="AttachedFile" rx="2.5" ry="2.5" style="stroke:#181818;stroke-width:0.5;" width="113" x="329.5" y="182"/><ellipse cx="344.5" cy="204.291" fill="#ADD1B2" rx="11" ry="11" style="stroke:#181818;stroke-width:1.0;"/><path d="M347.2656,200.166 Q347.4219,199.9473 347.6094,199.8379 Q347.7969,199.7285 348.0156,199.7285 Q348.3906,199.7285 348.625,199.9941 Q348.8594,200.2441 348.8594,200.8535 L348.8594,202.3066 Q348.8594,202.916 348.625,203.1816 Q348.3906,203.4473 348.0156,203.4473 Q347.6719,203.4473 347.4688,203.2441 Q347.2656,203.0566 347.1563,202.541 Q347.1094,202.1816 346.9219,201.9941 Q346.5938,201.6191 345.9844,201.4004 Q345.375,201.1816 344.75,201.1816 Q343.9844,201.1816 343.3438,201.5098 Q342.7188,201.8379 342.2188,202.5879 Q341.7344,203.3379 341.7344,204.3691 L341.7344,205.4629 Q341.7344,206.6973 342.625,207.5254 Q343.5156,208.3379 345.1094,208.3379 Q346.0469,208.3379 346.7031,208.0879 Q347.0938,207.9316 347.5156,207.4941 Q347.7813,207.2285 347.9219,207.1504 Q348.0781,207.0723 348.2813,207.0723 Q348.6094,207.0723 348.8594,207.3379 Q349.125,207.5879 349.125,207.9316 Q349.125,208.2754 348.7813,208.6816 Q348.2813,209.2598 347.4844,209.5879 Q346.4063,210.041 345.1094,210.041 Q343.5938,210.041 342.3906,209.416 Q341.4063,208.916 340.7188,207.8535 Q340.0313,206.7754 340.0313,205.4941 L340.0313,204.3379 Q340.0313,203.0098 340.6406,201.8691 Q341.2656,200.7129 342.3594,200.1035 Q343.4531,199.4785 344.6875,199.4785 Q345.4219,199.4785 346.0625,199.6504 Q346.7188,199.8066 347.2656,200.166 Z " fill="#000000"/><text fill="#000000" font-family="sans-serif" font-size="12" font-style="italic" lengthAdjust="spacing" textLength="85" x="356.5" y="199.9492">&#171;Value Object&#187;</text><text fill="#000000" font-family="sans-serif" font-size="14" lengthAdjust="spacing" textLength="79" x="359.5" y="218.0684">AttachedFile</text><line style="stroke:#181818;stroke-width:0.5;" x1="330.5" x2="441.5" y1="226.582" y2="226.582"/></g><!--class ApplicatorData--><g id="elem_ApplicatorData"><rect codeLine="52" fill="#F1F1F1" height="52.582" id="ApplicatorData" rx="2.5" ry="2.5" style="stroke:#181818;stroke-width:0.5;" width="125" x="477.5" y="182"/><ellipse cx="492.5" cy="204.291" fill="#ADD1B2" rx="11" ry="11" style="stroke:#181818;stroke-width:1.0;"/><path d="M495.2656,200.166 Q495.4219,199.9473 495.6094,199.8379 Q495.7969,199.7285 496.0156,199.7285 Q496.3906,199.7285 496.625,199.9941 Q496.8594,200.2441 496.8594,200.8535 L496.8594,202.3066 Q496.8594,202.916 496.625,203.1816 Q496.3906,203.4473 496.0156,203.4473 Q495.6719,203.4473 495.4688,203.2441 Q495.2656,203.0566 495.1563,202.541 Q495.1094,202.1816 494.9219,201.9941 Q494.5938,201.6191 493.9844,201.4004 Q493.375,201.1816 492.75,201.1816 Q491.9844,201.1816 491.3438,201.5098 Q490.7188,201.8379 490.2188,202.5879 Q489.7344,203.3379 489.7344,204.3691 L489.7344,205.4629 Q489.7344,206.6973 490.625,207.5254 Q491.5156,208.3379 493.1094,208.3379 Q494.0469,208.3379 494.7031,208.0879 Q495.0938,207.9316 495.5156,207.4941 Q495.7813,207.2285 495.9219,207.1504 Q496.0781,207.0723 496.2813,207.0723 Q496.6094,207.0723 496.8594,207.3379 Q497.125,207.5879 497.125,207.9316 Q497.125,208.2754 496.7813,208.6816 Q496.2813,209.2598 495.4844,209.5879 Q494.4063,210.041 493.1094,210.041 Q491.5938,210.041 490.3906,209.416 Q489.4063,208.916 488.7188,207.8535 Q488.0313,206.7754 488.0313,205.4941 L488.0313,204.3379 Q488.0313,203.0098 488.6406,201.8691 Q489.2656,200.7129 490.3594,200.1035 Q491.4531,199.4785 492.6875,199.4785 Q493.4219,199.4785 494.0625,199.6504 Q494.7188,199.8066 495.2656,200.166 Z " fill="#000000"/><text fill="#000000" font-family="sans-serif" font-size="12" font-style="italic" lengthAdjust="spacing" textLength="85" x="510.5" y="199.9492">&#171;Value Object&#187;</text><text fill="#000000" font-family="sans-serif" font-size="14" lengthAdjust="spacing" textLength="93" x="506.5" y="218.0684">ApplicatorData</text><line style="stroke:#181818;stroke-width:0.5;" x1="478.5" x2="601.5" y1="226.582" y2="226.582"/></g><!--class ApplicationStatus--><g id="elem_ApplicationStatus"><rect codeLine="54" fill="#F1F1F1" height="52.582" id="ApplicationStatus" rx="2.5" ry="2.5" style="stroke:#181818;stroke-width:0.5;" width="141" x="637.5" y="182"/><ellipse cx="652.5" cy="204.291" fill="#ADD1B2" rx="11" ry="11" style="stroke:#181818;stroke-width:1.0;"/><path d="M655.2656,200.166 Q655.4219,199.9473 655.6094,199.8379 Q655.7969,199.7285 656.0156,199.7285 Q656.3906,199.7285 656.625,199.9941 Q656.8594,200.2441 656.8594,200.8535 L656.8594,202.3066 Q656.8594,202.916 656.625,203.1816 Q656.3906,203.4473 656.0156,203.4473 Q655.6719,203.4473 655.4688,203.2441 Q655.2656,203.0566 655.1563,202.541 Q655.1094,202.1816 654.9219,201.9941 Q654.5938,201.6191 653.9844,201.4004 Q653.375,201.1816 652.75,201.1816 Q651.9844,201.1816 651.3438,201.5098 Q650.7188,201.8379 650.2188,202.5879 Q649.7344,203.3379 649.7344,204.3691 L649.7344,205.4629 Q649.7344,206.6973 650.625,207.5254 Q651.5156,208.3379 653.1094,208.3379 Q654.0469,208.3379 654.7031,208.0879 Q655.0938,207.9316 655.5156,207.4941 Q655.7813,207.2285 655.9219,207.1504 Q656.0781,207.0723 656.2813,207.0723 Q656.6094,207.0723 656.8594,207.3379 Q657.125,207.5879 657.125,207.9316 Q657.125,208.2754 656.7813,208.6816 Q656.2813,209.2598 655.4844,209.5879 Q654.4063,210.041 653.1094,210.041 Q651.5938,210.041 650.3906,209.416 Q649.4063,208.916 648.7188,207.8535 Q648.0313,206.7754 648.0313,205.4941 L648.0313,204.3379 Q648.0313,203.0098 648.6406,201.8691 Q649.2656,200.7129 650.3594,200.1035 Q651.4531,199.4785 652.6875,199.4785 Q653.4219,199.4785 654.0625,199.6504 Q654.7188,199.8066 655.2656,200.166 Z " fill="#000000"/><text fill="#000000" font-family="sans-serif" font-size="12" font-style="italic" lengthAdjust="spacing" textLength="85" x="678.5" y="199.9492">&#171;Value Object&#187;</text><text fill="#000000" font-family="sans-serif" font-size="14" lengthAdjust="spacing" textLength="109" x="666.5" y="218.0684">ApplicationStatus</text><line style="stroke:#181818;stroke-width:0.5;" x1="638.5" x2="777.5" y1="226.582" y2="226.582"/></g><!--class ApplicationRank--><g id="elem_ApplicationRank"><rect codeLine="56" fill="#F1F1F1" height="52.582" id="ApplicationRank" rx="2.5" ry="2.5" style="stroke:#181818;stroke-width:0.5;" width="134" x="814" y="182"/><ellipse cx="829" cy="204.291" fill="#ADD1B2" rx="11" ry="11" style="stroke:#181818;stroke-width:1.0;"/><path d="M831.7656,200.166 Q831.9219,199.9473 832.1094,199.8379 Q832.2969,199.7285 832.5156,199.7285 Q832.8906,199.7285 833.125,199.9941 Q833.3594,200.2441 833.3594,200.8535 L833.3594,202.3066 Q833.3594,202.916 833.125,203.1816 Q832.8906,203.4473 832.5156,203.4473 Q832.1719,203.4473 831.9688,203.2441 Q831.7656,203.0566 831.6563,202.541 Q831.6094,202.1816 831.4219,201.9941 Q831.0938,201.6191 830.4844,201.4004 Q829.875,201.1816 829.25,201.1816 Q828.4844,201.1816 827.8438,201.5098 Q827.2188,201.8379 826.7188,202.5879 Q826.2344,203.3379 826.2344,204.3691 L826.2344,205.4629 Q826.2344,206.6973 827.125,207.5254 Q828.0156,208.3379 829.6094,208.3379 Q830.5469,208.3379 831.2031,208.0879 Q831.5938,207.9316 832.0156,207.4941 Q832.2813,207.2285 832.4219,207.1504 Q832.5781,207.0723 832.7813,207.0723 Q833.1094,207.0723 833.3594,207.3379 Q833.625,207.5879 833.625,207.9316 Q833.625,208.2754 833.2813,208.6816 Q832.7813,209.2598 831.9844,209.5879 Q830.9063,210.041 829.6094,210.041 Q828.0938,210.041 826.8906,209.416 Q825.9063,208.916 825.2188,207.8535 Q824.5313,206.7754 824.5313,205.4941 L824.5313,204.3379 Q824.5313,203.0098 825.1406,201.8691 Q825.7656,200.7129 826.8594,200.1035 Q827.9531,199.4785 829.1875,199.4785 Q829.9219,199.4785 830.5625,199.6504 Q831.2188,199.8066 831.7656,200.166 Z " fill="#000000"/><text fill="#000000" font-family="sans-serif" font-size="12" font-style="italic" lengthAdjust="spacing" textLength="85" x="851.5" y="199.9492">&#171;Value Object&#187;</text><text fill="#000000" font-family="sans-serif" font-size="14" lengthAdjust="spacing" textLength="102" x="843" y="218.0684">ApplicationRank</text><line style="stroke:#181818;stroke-width:0.5;" x1="815" x2="947" y1="226.582" y2="226.582"/></g><!--class Candidate--><g id="elem_Candidate"><rect codeLine="62" fill="#F1F1F1" height="68.543" id="Candidate" rx="2.5" ry="2.5" style="stroke:#181818;stroke-width:0.5;" width="128" x="1054" y="44"/><ellipse cx="1069" cy="74.2715" fill="#ADD1B2" rx="11" ry="11" style="stroke:#181818;stroke-width:1.0;"/><path d="M1071.7656,70.1465 Q1071.9219,69.9277 1072.1094,69.8184 Q1072.2969,69.709 1072.5156,69.709 Q1072.8906,69.709 1073.125,69.9746 Q1073.3594,70.2246 1073.3594,70.834 L1073.3594,72.2871 Q1073.3594,72.8965 1073.125,73.1621 Q1072.8906,73.4277 1072.5156,73.4277 Q1072.1719,73.4277 1071.9688,73.2246 Q1071.7656,73.0371 1071.6563,72.5215 Q1071.6094,72.1621 1071.4219,71.9746 Q1071.0938,71.5996 1070.4844,71.3809 Q1069.875,71.1621 1069.25,71.1621 Q1068.4844,71.1621 1067.8438,71.4902 Q1067.2188,71.8184 1066.7188,72.5684 Q1066.2344,73.3184 1066.2344,74.3496 L1066.2344,75.4434 Q1066.2344,76.6777 1067.125,77.5059 Q1068.0156,78.3184 1069.6094,78.3184 Q1070.5469,78.3184 1071.2031,78.0684 Q1071.5938,77.9121 1072.0156,77.4746 Q1072.2813,77.209 1072.4219,77.1309 Q1072.5781,77.0527 1072.7813,77.0527 Q1073.1094,77.0527 1073.3594,77.3184 Q1073.625,77.5684 1073.625,77.9121 Q1073.625,78.2559 1073.2813,78.6621 Q1072.7813,79.2402 1071.9844,79.5684 Q1070.9063,80.0215 1069.6094,80.0215 Q1068.0938,80.0215 1066.8906,79.3965 Q1065.9063,78.8965 1065.2188,77.834 Q1064.5313,76.7559 1064.5313,75.4746 L1064.5313,74.3184 Q1064.5313,72.9902 1065.1406,71.8496 Q1065.7656,70.6934 1066.8594,70.084 Q1067.9531,69.459 1069.1875,69.459 Q1069.9219,69.459 1070.5625,69.6309 Q1071.2188,69.7871 1071.7656,70.1465 Z " fill="#000000"/><text fill="#000000" font-family="sans-serif" font-size="12" font-style="italic" lengthAdjust="spacing" textLength="100" x="1081" y="61.9492">&#171;Aggregate Root&#187;</text><text fill="#000000" font-family="sans-serif" font-size="12" font-style="italic" lengthAdjust="spacing" textLength="44" x="1109" y="77.9102">&#171;Entity&#187;</text><text fill="#000000" font-family="sans-serif" font-size="14" lengthAdjust="spacing" textLength="65" x="1098.5" y="96.0293">Candidate</text><line style="stroke:#181818;stroke-width:0.5;" x1="1055" x2="1181" y1="104.543" y2="104.543"/></g><!--class CandidateId--><g id="elem_CandidateId"><rect codeLine="63" fill="#F1F1F1" height="68.543" id="CandidateId" rx="2.5" ry="2.5" style="stroke:#181818;stroke-width:0.5;" width="113" x="1054.5" y="174"/><ellipse cx="1069.5" cy="204.2715" fill="#ADD1B2" rx="11" ry="11" style="stroke:#181818;stroke-width:1.0;"/><path d="M1072.2656,200.1465 Q1072.4219,199.9277 1072.6094,199.8184 Q1072.7969,199.709 1073.0156,199.709 Q1073.3906,199.709 1073.625,199.9746 Q1073.8594,200.2246 1073.8594,200.834 L1073.8594,202.2871 Q1073.8594,202.8965 1073.625,203.1621 Q1073.3906,203.4277 1073.0156,203.4277 Q1072.6719,203.4277 1072.4688,203.2246 Q1072.2656,203.0371 1072.1563,202.5215 Q1072.1094,202.1621 1071.9219,201.9746 Q1071.5938,201.5996 1070.9844,201.3809 Q1070.375,201.1621 1069.75,201.1621 Q1068.9844,201.1621 1068.3438,201.4902 Q1067.7188,201.8184 1067.2188,202.5684 Q1066.7344,203.3184 1066.7344,204.3496 L1066.7344,205.4434 Q1066.7344,206.6777 1067.625,207.5059 Q1068.5156,208.3184 1070.1094,208.3184 Q1071.0469,208.3184 1071.7031,208.0684 Q1072.0938,207.9121 1072.5156,207.4746 Q1072.7813,207.209 1072.9219,207.1309 Q1073.0781,207.0527 1073.2813,207.0527 Q1073.6094,207.0527 1073.8594,207.3184 Q1074.125,207.5684 1074.125,207.9121 Q1074.125,208.2559 1073.7813,208.6621 Q1073.2813,209.2402 1072.4844,209.5684 Q1071.4063,210.0215 1070.1094,210.0215 Q1068.5938,210.0215 1067.3906,209.3965 Q1066.4063,208.8965 1065.7188,207.834 Q1065.0313,206.7559 1065.0313,205.4746 L1065.0313,204.3184 Q1065.0313,202.9902 1065.6406,201.8496 Q1066.2656,200.6934 1067.3594,200.084 Q1068.4531,199.459 1069.6875,199.459 Q1070.4219,199.459 1071.0625,199.6309 Q1071.7188,199.7871 1072.2656,200.1465 Z " fill="#000000"/><text fill="#000000" font-family="sans-serif" font-size="12" font-style="italic" lengthAdjust="spacing" textLength="54" x="1097" y="191.9492">&#171;Identity&#187;</text><text fill="#000000" font-family="sans-serif" font-size="12" font-style="italic" lengthAdjust="spacing" textLength="85" x="1081.5" y="207.9102">&#171;Value Object&#187;</text><text fill="#000000" font-family="sans-serif" font-size="14" lengthAdjust="spacing" textLength="76" x="1086" y="226.0293">CandidateId</text><line style="stroke:#181818;stroke-width:0.5;" x1="1055.5" x2="1166.5" y1="234.543" y2="234.543"/></g><!--class CurriculumVitae--><g id="elem_CurriculumVitae"><rect codeLine="64" fill="#F1F1F1" height="52.582" id="CurriculumVitae" rx="2.5" ry="2.5" style="stroke:#181818;stroke-width:0.5;" width="132" x="1203" y="182"/><ellipse cx="1218" cy="204.291" fill="#ADD1B2" rx="11" ry="11" style="stroke:#181818;stroke-width:1.0;"/><path d="M1220.7656,200.166 Q1220.9219,199.9473 1221.1094,199.8379 Q1221.2969,199.7285 1221.5156,199.7285 Q1221.8906,199.7285 1222.125,199.9941 Q1222.3594,200.2441 1222.3594,200.8535 L1222.3594,202.3066 Q1222.3594,202.916 1222.125,203.1816 Q1221.8906,203.4473 1221.5156,203.4473 Q1221.1719,203.4473 1220.9688,203.2441 Q1220.7656,203.0566 1220.6563,202.541 Q1220.6094,202.1816 1220.4219,201.9941 Q1220.0938,201.6191 1219.4844,201.4004 Q1218.875,201.1816 1218.25,201.1816 Q1217.4844,201.1816 1216.8438,201.5098 Q1216.2188,201.8379 1215.7188,202.5879 Q1215.2344,203.3379 1215.2344,204.3691 L1215.2344,205.4629 Q1215.2344,206.6973 1216.125,207.5254 Q1217.0156,208.3379 1218.6094,208.3379 Q1219.5469,208.3379 1220.2031,208.0879 Q1220.5938,207.9316 1221.0156,207.4941 Q1221.2813,207.2285 1221.4219,207.1504 Q1221.5781,207.0723 1221.7813,207.0723 Q1222.1094,207.0723 1222.3594,207.3379 Q1222.625,207.5879 1222.625,207.9316 Q1222.625,208.2754 1222.2813,208.6816 Q1221.7813,209.2598 1220.9844,209.5879 Q1219.9063,210.041 1218.6094,210.041 Q1217.0938,210.041 1215.8906,209.416 Q1214.9063,208.916 1214.2188,207.8535 Q1213.5313,206.7754 1213.5313,205.4941 L1213.5313,204.3379 Q1213.5313,203.0098 1214.1406,201.8691 Q1214.7656,200.7129 1215.8594,200.1035 Q1216.9531,199.4785 1218.1875,199.4785 Q1218.9219,199.4785 1219.5625,199.6504 Q1220.2188,199.8066 1220.7656,200.166 Z " fill="#000000"/><text fill="#000000" font-family="sans-serif" font-size="12" font-style="italic" lengthAdjust="spacing" textLength="85" x="1239.5" y="199.9492">&#171;Value Object&#187;</text><text fill="#000000" font-family="sans-serif" font-size="14" lengthAdjust="spacing" textLength="100" x="1232" y="218.0684">CurriculumVitae</text><line style="stroke:#181818;stroke-width:0.5;" x1="1204" x2="1334" y1="226.582" y2="226.582"/></g><!--class JobOpeningProcess--><g id="elem_JobOpeningProcess"><rect codeLine="70" fill="#F1F1F1" height="68.543" id="JobOpeningProcess" rx="2.5" ry="2.5" style="stroke:#181818;stroke-width:0.5;" width="159" x="1306.5" y="1021"/><ellipse cx="1321.5" cy="1051.2715" fill="#ADD1B2" rx="11" ry="11" style="stroke:#181818;stroke-width:1.0;"/><path d="M1324.2656,1047.1465 Q1324.4219,1046.9277 1324.6094,1046.8184 Q1324.7969,1046.709 1325.0156,1046.709 Q1325.3906,1046.709 1325.625,1046.9746 Q1325.8594,1047.2246 1325.8594,1047.834 L1325.8594,1049.2871 Q1325.8594,1049.8965 1325.625,1050.1621 Q1325.3906,1050.4277 1325.0156,1050.4277 Q1324.6719,1050.4277 1324.4688,1050.2246 Q1324.2656,1050.0371 1324.1563,1049.5215 Q1324.1094,1049.1621 1323.9219,1048.9746 Q1323.5938,1048.5996 1322.9844,1048.3809 Q1322.375,1048.1621 1321.75,1048.1621 Q1320.9844,1048.1621 1320.3438,1048.4902 Q1319.7188,1048.8184 1319.2188,1049.5684 Q1318.7344,1050.3184 1318.7344,1051.3496 L1318.7344,1052.4434 Q1318.7344,1053.6777 1319.625,1054.5059 Q1320.5156,1055.3184 1322.1094,1055.3184 Q1323.0469,1055.3184 1323.7031,1055.0684 Q1324.0938,1054.9121 1324.5156,1054.4746 Q1324.7813,1054.209 1324.9219,1054.1309 Q1325.0781,1054.0527 1325.2813,1054.0527 Q1325.6094,1054.0527 1325.8594,1054.3184 Q1326.125,1054.5684 1326.125,1054.9121 Q1326.125,1055.2559 1325.7813,1055.6621 Q1325.2813,1056.2402 1324.4844,1056.5684 Q1323.4063,1057.0215 1322.1094,1057.0215 Q1320.5938,1057.0215 1319.3906,1056.3965 Q1318.4063,1055.8965 1317.7188,1054.834 Q1317.0313,1053.7559 1317.0313,1052.4746 L1317.0313,1051.3184 Q1317.0313,1049.9902 1317.6406,1048.8496 Q1318.2656,1047.6934 1319.3594,1047.084 Q1320.4531,1046.459 1321.6875,1046.459 Q1322.4219,1046.459 1323.0625,1046.6309 Q1323.7188,1046.7871 1324.2656,1047.1465 Z " fill="#000000"/><text fill="#000000" font-family="sans-serif" font-size="12" font-style="italic" lengthAdjust="spacing" textLength="100" x="1349" y="1038.9492">&#171;Aggregate Root&#187;</text><text fill="#000000" font-family="sans-serif" font-size="12" font-style="italic" lengthAdjust="spacing" textLength="44" x="1377" y="1054.9102">&#171;Entity&#187;</text><text fill="#000000" font-family="sans-serif" font-size="14" lengthAdjust="spacing" textLength="127" x="1335.5" y="1073.0293">JobOpeningProcess</text><line style="stroke:#181818;stroke-width:0.5;" x1="1307.5" x2="1464.5" y1="1081.543" y2="1081.543"/></g><!--class JobOpeningProcessId--><g id="elem_JobOpeningProcessId"><rect codeLine="71" fill="#F1F1F1" height="68.543" id="JobOpeningProcessId" rx="2.5" ry="2.5" style="stroke:#181818;stroke-width:0.5;" width="170" x="1101" y="1021"/><ellipse cx="1116" cy="1051.2715" fill="#ADD1B2" rx="11" ry="11" style="stroke:#181818;stroke-width:1.0;"/><path d="M1118.7656,1047.1465 Q1118.9219,1046.9277 1119.1094,1046.8184 Q1119.2969,1046.709 1119.5156,1046.709 Q1119.8906,1046.709 1120.125,1046.9746 Q1120.3594,1047.2246 1120.3594,1047.834 L1120.3594,1049.2871 Q1120.3594,1049.8965 1120.125,1050.1621 Q1119.8906,1050.4277 1119.5156,1050.4277 Q1119.1719,1050.4277 1118.9688,1050.2246 Q1118.7656,1050.0371 1118.6563,1049.5215 Q1118.6094,1049.1621 1118.4219,1048.9746 Q1118.0938,1048.5996 1117.4844,1048.3809 Q1116.875,1048.1621 1116.25,1048.1621 Q1115.4844,1048.1621 1114.8438,1048.4902 Q1114.2188,1048.8184 1113.7188,1049.5684 Q1113.2344,1050.3184 1113.2344,1051.3496 L1113.2344,1052.4434 Q1113.2344,1053.6777 1114.125,1054.5059 Q1115.0156,1055.3184 1116.6094,1055.3184 Q1117.5469,1055.3184 1118.2031,1055.0684 Q1118.5938,1054.9121 1119.0156,1054.4746 Q1119.2813,1054.209 1119.4219,1054.1309 Q1119.5781,1054.0527 1119.7813,1054.0527 Q1120.1094,1054.0527 1120.3594,1054.3184 Q1120.625,1054.5684 1120.625,1054.9121 Q1120.625,1055.2559 1120.2813,1055.6621 Q1119.7813,1056.2402 1118.9844,1056.5684 Q1117.9063,1057.0215 1116.6094,1057.0215 Q1115.0938,1057.0215 1113.8906,1056.3965 Q1112.9063,1055.8965 1112.2188,1054.834 Q1111.5313,1053.7559 1111.5313,1052.4746 L1111.5313,1051.3184 Q1111.5313,1049.9902 1112.1406,1048.8496 Q1112.7656,1047.6934 1113.8594,1047.084 Q1114.9531,1046.459 1116.1875,1046.459 Q1116.9219,1046.459 1117.5625,1046.6309 Q1118.2188,1046.7871 1118.7656,1047.1465 Z " fill="#000000"/><text fill="#000000" font-family="sans-serif" font-size="12" font-style="italic" lengthAdjust="spacing" textLength="54" x="1172" y="1038.9492">&#171;Identity&#187;</text><text fill="#000000" font-family="sans-serif" font-size="12" font-style="italic" lengthAdjust="spacing" textLength="85" x="1156.5" y="1054.9102">&#171;Value Object&#187;</text><text fill="#000000" font-family="sans-serif" font-size="14" lengthAdjust="spacing" textLength="138" x="1130" y="1073.0293">JobOpeningProcessId</text><line style="stroke:#181818;stroke-width:0.5;" x1="1102" x2="1270" y1="1081.543" y2="1081.543"/></g><!--class Phase--><g id="elem_Phase"><rect codeLine="74" fill="#F1F1F1" height="52.582" id="Phase" rx="2.5" ry="2.5" style="stroke:#181818;stroke-width:0.5;" width="72" x="1350" y="1151"/><ellipse cx="1365" cy="1173.291" fill="#ADD1B2" rx="11" ry="11" style="stroke:#181818;stroke-width:1.0;"/><path d="M1367.7656,1169.166 Q1367.9219,1168.9473 1368.1094,1168.8379 Q1368.2969,1168.7285 1368.5156,1168.7285 Q1368.8906,1168.7285 1369.125,1168.9941 Q1369.3594,1169.2441 1369.3594,1169.8535 L1369.3594,1171.3066 Q1369.3594,1171.916 1369.125,1172.1816 Q1368.8906,1172.4473 1368.5156,1172.4473 Q1368.1719,1172.4473 1367.9688,1172.2441 Q1367.7656,1172.0566 1367.6563,1171.541 Q1367.6094,1171.1816 1367.4219,1170.9941 Q1367.0938,1170.6191 1366.4844,1170.4004 Q1365.875,1170.1816 1365.25,1170.1816 Q1364.4844,1170.1816 1363.8438,1170.5098 Q1363.2188,1170.8379 1362.7188,1171.5879 Q1362.2344,1172.3379 1362.2344,1173.3691 L1362.2344,1174.4629 Q1362.2344,1175.6973 1363.125,1176.5254 Q1364.0156,1177.3379 1365.6094,1177.3379 Q1366.5469,1177.3379 1367.2031,1177.0879 Q1367.5938,1176.9316 1368.0156,1176.4941 Q1368.2813,1176.2285 1368.4219,1176.1504 Q1368.5781,1176.0723 1368.7813,1176.0723 Q1369.1094,1176.0723 1369.3594,1176.3379 Q1369.625,1176.5879 1369.625,1176.9316 Q1369.625,1177.2754 1369.2813,1177.6816 Q1368.7813,1178.2598 1367.9844,1178.5879 Q1366.9063,1179.041 1365.6094,1179.041 Q1364.0938,1179.041 1362.8906,1178.416 Q1361.9063,1177.916 1361.2188,1176.8535 Q1360.5313,1175.7754 1360.5313,1174.4941 L1360.5313,1173.3379 Q1360.5313,1172.0098 1361.1406,1170.8691 Q1361.7656,1169.7129 1362.8594,1169.1035 Q1363.9531,1168.4785 1365.1875,1168.4785 Q1365.9219,1168.4785 1366.5625,1168.6504 Q1367.2188,1168.8066 1367.7656,1169.166 Z " fill="#000000"/><text fill="#000000" font-family="sans-serif" font-size="12" font-style="italic" lengthAdjust="spacing" textLength="44" x="1377" y="1168.9492">&#171;Entity&#187;</text><text fill="#000000" font-family="sans-serif" font-size="14" lengthAdjust="spacing" textLength="40" x="1379" y="1187.0684">Phase</text><line style="stroke:#181818;stroke-width:0.5;" x1="1351" x2="1421" y1="1195.582" y2="1195.582"/></g><!--class PhaseType--><g id="elem_PhaseType"><rect codeLine="76" fill="#F1F1F1" height="161.6484" id="PhaseType" rx="2.5" ry="2.5" style="stroke:#181818;stroke-width:0.5;" width="113" x="1329.5" y="1265"/><ellipse cx="1344.5" cy="1295.2715" fill="#EB937F" rx="11" ry="11" style="stroke:#181818;stroke-width:1.0;"/><path d="M1343.3594,1296.0684 L1343.3594,1298.5684 L1347.6875,1298.5684 L1347.6875,1297.6465 Q1347.6875,1297.0371 1347.9219,1296.7715 Q1348.1719,1296.5059 1348.5469,1296.5059 Q1348.9219,1296.5059 1349.1563,1296.7715 Q1349.3906,1297.0371 1349.3906,1297.6465 L1349.3906,1300.2715 L1341.3906,1300.2715 Q1340.7656,1300.2715 1340.5,1300.0371 Q1340.25,1299.8027 1340.25,1299.4121 Q1340.25,1299.0371 1340.5156,1298.8027 Q1340.7813,1298.5684 1341.3906,1298.5684 L1341.6563,1298.5684 L1341.6563,1291.9121 L1341.3906,1291.9121 Q1340.7656,1291.9121 1340.5,1291.6777 Q1340.25,1291.4434 1340.25,1291.0527 Q1340.25,1290.6777 1340.5,1290.4434 Q1340.7656,1290.209 1341.3906,1290.209 L1349.0156,1290.209 L1349.0156,1292.8027 Q1349.0156,1293.4121 1348.7813,1293.6777 Q1348.5625,1293.9277 1348.1719,1293.9277 Q1347.7969,1293.9277 1347.5625,1293.6777 Q1347.3281,1293.4121 1347.3281,1292.8027 L1347.3281,1291.9121 L1343.3594,1291.9121 L1343.3594,1294.3652 L1344.8438,1294.3652 Q1344.8438,1293.709 1344.9688,1293.5215 Q1345.2344,1293.1152 1345.7031,1293.1152 Q1346.0781,1293.1152 1346.3125,1293.3809 Q1346.5469,1293.6309 1346.5469,1294.2402 L1346.5469,1296.209 Q1346.5469,1296.7559 1346.4219,1296.9434 Q1346.1563,1297.334 1345.7031,1297.334 Q1345.2344,1297.334 1344.9688,1296.9277 Q1344.8438,1296.7402 1344.8438,1296.0684 L1343.3594,1296.0684 Z " fill="#000000"/><text fill="#000000" font-family="sans-serif" font-size="12" font-style="italic" lengthAdjust="spacing" textLength="82" x="1358" y="1282.9492">&#171;Enumerated&#187;</text><text fill="#000000" font-family="sans-serif" font-size="12" font-style="italic" lengthAdjust="spacing" textLength="85" x="1356.5" y="1298.9102">&#171;Value Object&#187;</text><text fill="#000000" font-family="sans-serif" font-size="14" lengthAdjust="spacing" textLength="72" x="1363" y="1317.0293">PhaseType</text><line style="stroke:#181818;stroke-width:0.5;" x1="1330.5" x2="1441.5" y1="1325.543" y2="1325.543"/><text fill="#000000" font-family="sans-serif" font-size="14" lengthAdjust="spacing" textLength="89" x="1335.5" y="1344.6504">APPLICATION</text><text fill="#000000" font-family="sans-serif" font-size="14" lengthAdjust="spacing" textLength="79" x="1335.5" y="1363.2715">SCREENING</text><text fill="#000000" font-family="sans-serif" font-size="14" lengthAdjust="spacing" textLength="83" x="1335.5" y="1381.8926">INTERVIEWS</text><text fill="#000000" font-family="sans-serif" font-size="14" lengthAdjust="spacing" textLength="65" x="1335.5" y="1400.5137">ANALYSIS</text><text fill="#000000" font-family="sans-serif" font-size="14" lengthAdjust="spacing" textLength="54" x="1335.5" y="1419.1348">RESULT</text></g><!--link JobOpening to JobReference--><g id="link_JobOpening_JobReference"><path codeLine="87" d="M1046.99,652.2 C995.21,670.81 920.55,698.2 856,724 C850.25,726.3 849.8249,726.4237 843.8749,728.9137 " fill="none" id="JobOpening-to-JobReference" style="stroke:#181818;stroke-width:1.0;"/><polygon fill="#181818" points="838.34,731.23,848.1865,731.4455,842.9524,729.2998,845.0981,724.0657,838.34,731.23" style="stroke:#181818;stroke-width:1.0;"/><text fill="#000000" font-family="sans-serif" font-size="13" lengthAdjust="spacing" textLength="7" x="1032.1842" y="651.0291">1</text><text fill="#000000" font-family="sans-serif" font-size="13" lengthAdjust="spacing" textLength="7" x="846.1205" y="723.9444">1</text></g><!--link JobOpening to TitleOrFunction--><g id="link_JobOpening_TitleOrFunction"><path codeLine="88" d="M1065.55,663.13 C1036.41,684.69 1004.0235,708.6516 977.3135,728.4116 " fill="none" id="JobOpening-to-TitleOrFunction" style="stroke:#181818;stroke-width:1.0;"/><polygon fill="#181818" points="972.49,731.98,982.1042,729.843,976.5096,729.0063,977.3463,723.4117,972.49,731.98" style="stroke:#181818;stroke-width:1.0;"/><text fill="#000000" font-family="sans-serif" font-size="13" lengthAdjust="spacing" textLength="7" x="1050.1367" y="684.6356">1</text><text fill="#000000" font-family="sans-serif" font-size="13" lengthAdjust="spacing" textLength="7" x="973.0438" y="720.5586">1</text></g><!--reverse link ContractType to JobOpening--><g id="link_ContractType_JobOpening"><path codeLine="89" d="M1207.1197,528.5141 C1184.8397,551.4541 1163.51,573.43 1143.79,593.74 " fill="none" id="ContractType-backto-JobOpening" style="stroke:#181818;stroke-width:1.0;"/><polygon fill="#181818" points="1211.3,524.21,1202.1602,527.8793,1207.8164,527.7968,1207.899,533.453,1211.3,524.21" style="stroke:#181818;stroke-width:1.0;"/><text fill="#000000" font-family="sans-serif" font-size="13" lengthAdjust="spacing" textLength="7" x="1197.6944" y="545.7901">1</text><text fill="#000000" font-family="sans-serif" font-size="13" lengthAdjust="spacing" textLength="7" x="1142.1903" y="582.8612">1</text></g><!--reverse link Mode to JobOpening--><g id="link_Mode_JobOpening"><path codeLine="90" d="M1111,539.01 C1111,559.6 1111,575.84 1111,593.56 " fill="none" id="Mode-backto-JobOpening" style="stroke:#181818;stroke-width:1.0;"/><polygon fill="#181818" points="1111,533.01,1107,542.01,1111,538.01,1115,542.01,1111,533.01" style="stroke:#181818;stroke-width:1.0;"/><text fill="#000000" font-family="sans-serif" font-size="13" lengthAdjust="spacing" textLength="7" x="1103.5734" y="555.6247">1</text><text fill="#000000" font-family="sans-serif" font-size="13" lengthAdjust="spacing" textLength="7" x="1103.3547" y="582.648">1</text></g><!--link JobOpening to Description--><g id="link_JobOpening_Description"><path codeLine="91" d="M1154.35,663.13 C1182.14,684.69 1212.8894,708.5422 1238.3594,728.3022 " fill="none" id="JobOpening-to-Description" style="stroke:#181818;stroke-width:1.0;"/><polygon fill="#181818" points="1243.1,731.98,1238.441,723.3028,1239.1495,728.9151,1233.5372,729.6236,1243.1,731.98" style="stroke:#181818;stroke-width:1.0;"/><text fill="#000000" font-family="sans-serif" font-size="13" lengthAdjust="spacing" textLength="7" x="1154.1992" y="684.6356">1</text><text fill="#000000" font-family="sans-serif" font-size="13" lengthAdjust="spacing" textLength="7" x="1227.2275" y="720.5586">1</text></g><!--link JobOpening to VacanciesNumber--><g id="link_JobOpening_VacanciesNumber"><path codeLine="92" d="M1111,663.13 C1111,684.61 1111,706.03 1111,725.78 " fill="none" id="JobOpening-to-VacanciesNumber" style="stroke:#181818;stroke-width:1.0;"/><polygon fill="#181818" points="1111,731.78,1115,722.78,1111,726.78,1107,722.78,1111,731.78" style="stroke:#181818;stroke-width:1.0;"/><text fill="#000000" font-family="sans-serif" font-size="13" lengthAdjust="spacing" textLength="7" x="1103.3984" y="684.6356">1</text><text fill="#000000" font-family="sans-serif" font-size="13" lengthAdjust="spacing" textLength="7" x="1103.1906" y="720.7457">1</text></g><!--link Candidate to CandidateId--><g id="link_Candidate_CandidateId"><path codeLine="94" d="M1116.16,113.13 C1115.14,131.8 1114.1968,148.9589 1113.1768,167.6589 " fill="none" id="Candidate-to-CandidateId" style="stroke:#181818;stroke-width:1.0;"/><polygon fill="#181818" points="1112.85,173.65,1117.3342,164.8812,1113.1223,168.6574,1109.3461,164.4455,1112.85,173.65" style="stroke:#181818;stroke-width:1.0;"/><text fill="#000000" font-family="sans-serif" font-size="13" lengthAdjust="spacing" textLength="7" x="1108.2422" y="134.6356">1</text><text fill="#000000" font-family="sans-serif" font-size="13" lengthAdjust="spacing" textLength="7" x="1105.5458" y="162.7546">1</text></g><!--link Candidate to CurriculumVitae--><g id="link_Candidate_CurriculumVitae"><path codeLine="95" d="M1157.67,113.13 C1183.01,134.61 1210.7839,158.1494 1234.0739,177.8994 " fill="none" id="Candidate-to-CurriculumVitae" style="stroke:#181818;stroke-width:1.0;"/><polygon fill="#181818" points="1238.65,181.78,1234.3728,172.9084,1234.8365,178.5462,1229.1987,179.0099,1238.65,181.78" style="stroke:#181818;stroke-width:1.0;"/><text fill="#000000" font-family="sans-serif" font-size="13" lengthAdjust="spacing" textLength="7" x="1156.8867" y="134.6356">1</text><text fill="#000000" font-family="sans-serif" font-size="13" lengthAdjust="spacing" textLength="7" x="1223.8222" y="170.7457">1</text></g><!--link Application to ApplicationId--><g id="link_Application_ApplicationId"><path codeLine="98" d="M539.88,88.45 C451.54,101.8 288.11,130.15 154,174 C148.37,175.84 148.1702,175.75 142.4502,178.04 " fill="none" id="Application-to-ApplicationId" style="stroke:#181818;stroke-width:1.0;"/><polygon fill="#181818" points="136.88,180.27,146.722,180.6384,141.5218,178.4116,143.7486,173.2115,136.88,180.27" style="stroke:#181818;stroke-width:1.0;"/><text fill="#000000" font-family="sans-serif" font-size="13" lengthAdjust="spacing" textLength="7" x="525.0614" y="85.6892">1</text><text fill="#000000" font-family="sans-serif" font-size="13" lengthAdjust="spacing" textLength="7" x="144.6162" y="172.6402">1</text></g><!--link Application to AttachedEmail--><g id="link_Application_AttachedEmail"><path codeLine="99" d="M539.93,98.46 C480.4,116.49 389.51,145.09 312,174 C305.44,176.45 304.1877,176.8591 297.4277,179.6091 " fill="none" id="Application-to-AttachedEmail" style="stroke:#181818;stroke-width:1.0;"/><polygon fill="#181818" points="291.87,181.87,301.7139,182.1838,296.5014,179.9859,298.6993,174.7735,291.87,181.87" style="stroke:#181818;stroke-width:1.0;"/><text fill="#000000" font-family="sans-serif" font-size="13" lengthAdjust="spacing" textLength="7" x="525.1172" y="115.8223">1</text><text fill="#000000" font-family="sans-serif" font-size="13" lengthAdjust="spacing" textLength="7" x="297.6743" y="170.8565">1</text></g><!--link Application to AttachedFile--><g id="link_Application_AttachedFile"><path codeLine="100" d="M546.72,113.13 C510.01,134.69 468.2835,159.1811 434.6435,178.9411 " fill="none" id="Application-to-AttachedFile" style="stroke:#181818;stroke-width:1.0;"/><polygon fill="#181818" points="429.47,181.98,439.2562,180.8707,433.7813,179.4476,435.2043,173.9727,429.47,181.98" style="stroke:#181818;stroke-width:1.0;"/><text fill="#000000" font-family="sans-serif" font-size="13" lengthAdjust="spacing" textLength="7" x="529.2734" y="134.6356">1</text><text fill="#000000" font-family="sans-serif" font-size="13" lengthAdjust="spacing" textLength="7" x="432.2127" y="170.5586">1</text></g><!--link Application to ApplicatorData--><g id="link_Application_ApplicatorData"><path codeLine="101" d="M587.18,113.13 C576.44,134.61 565.4122,156.6629 555.5422,176.4129 " fill="none" id="Application-to-ApplicatorData" style="stroke:#181818;stroke-width:1.0;"/><polygon fill="#181818" points="552.86,181.78,560.4614,175.5175,555.0952,177.3074,553.3052,171.9412,552.86,181.78" style="stroke:#181818;stroke-width:1.0;"/><text fill="#000000" font-family="sans-serif" font-size="13" lengthAdjust="spacing" textLength="7" x="576.6875" y="134.6356">1</text><text fill="#000000" font-family="sans-serif" font-size="13" lengthAdjust="spacing" textLength="7" x="548.0245" y="170.7457">1</text></g><!--link Application to JobOpening--><g id="link_Application_JobOpening"><path codeLine="102" d="M668.23,86.75 C780.59,101.23 1001,138.43 1001,207.5 C1001,207.5 1001,207.5 1001,472 C1001,520.94 1033.3652,561.196 1064.3852,589.886 " fill="none" id="Application-to-JobOpening" style="stroke:#181818;stroke-width:1.0;"/><polygon fill="#181818" points="1068.79,593.96,1064.8987,584.9125,1065.1193,590.565,1059.4667,590.7856,1068.79,593.96" style="stroke:#181818;stroke-width:1.0;"/><text fill="#000000" font-family="sans-serif" font-size="13" lengthAdjust="spacing" textLength="75" x="1002" y="321.0283">submitted for</text><text fill="#000000" font-family="sans-serif" font-size="13" lengthAdjust="spacing" textLength="5" x="675.9457" y="102.7583">*</text><text fill="#000000" font-family="sans-serif" font-size="13" lengthAdjust="spacing" textLength="7" x="1053.0765" y="582.8551">1</text></g><!--link Application to Candidate--><g id="link_Application_Candidate"><path codeLine="103" d="M668.06,78.5 C766.82,78.5 949.18,78.5 1047.94,78.5 " fill="none" id="Application-to-Candidate" style="stroke:#181818;stroke-width:1.0;"/><polygon fill="#181818" points="1053.94,78.5,1044.94,74.5,1048.94,78.5,1044.94,82.5,1053.94,78.5" style="stroke:#181818;stroke-width:1.0;"/><text fill="#000000" font-family="sans-serif" font-size="13" lengthAdjust="spacing" textLength="75" x="823.5" y="71.5283">submitted by</text><text fill="#000000" font-family="sans-serif" font-size="13" lengthAdjust="spacing" textLength="7" x="675.8716" y="74.5888">1</text><text fill="#000000" font-family="sans-serif" font-size="13" lengthAdjust="spacing" textLength="7" x="1039.1284" y="74.5888">1</text></g><!--link Application to ApplicationStatus--><g id="link_Application_ApplicationStatus"><path codeLine="104" d="M631.32,113.13 C648.78,134.61 667.2774,157.3725 683.3174,177.1225 " fill="none" id="Application-to-ApplicationStatus" style="stroke:#181818;stroke-width:1.0;"/><polygon fill="#181818" points="687.1,181.78,684.5311,172.2721,683.9479,177.8988,678.3211,177.3155,687.1,181.78" style="stroke:#181818;stroke-width:1.0;"/><text fill="#000000" font-family="sans-serif" font-size="13" lengthAdjust="spacing" textLength="7" x="628.4141" y="134.6356">1</text><text fill="#000000" font-family="sans-serif" font-size="13" lengthAdjust="spacing" textLength="7" x="674.4575" y="170.7457">1</text></g><!--link Application to ApplicationRank--><g id="link_Application_ApplicationRank"><path codeLine="105" d="M668.25,109.19 C715.87,131.2 774.6834,158.3731 820.0834,179.3531 " fill="none" id="Application-to-ApplicationRank" style="stroke:#181818;stroke-width:1.0;"/><polygon fill="#181818" points="825.53,181.87,819.0381,174.4636,820.9912,179.7726,815.6822,181.7256,825.53,181.87" style="stroke:#181818;stroke-width:1.0;"/><text fill="#000000" font-family="sans-serif" font-size="13" lengthAdjust="spacing" textLength="7" x="676.0836" y="127.7929">1</text><text fill="#000000" font-family="sans-serif" font-size="13" lengthAdjust="spacing" textLength="22" x="788.1588" y="170.8565">0..1</text></g><!--reverse link JobOpeningProcessId to JobOpeningProcess--><g id="link_JobOpeningProcessId_JobOpeningProcess"><path codeLine="108" d="M1277.16,1055.5 C1288.82,1055.5 1294.48,1055.5 1306.15,1055.5 " fill="none" id="JobOpeningProcessId-backto-JobOpeningProcess" style="stroke:#181818;stroke-width:1.0;"/><polygon fill="#181818" points="1271.16,1055.5,1280.16,1059.5,1276.16,1055.5,1280.16,1051.5,1271.16,1055.5" style="stroke:#181818;stroke-width:1.0;"/><text fill="#000000" font-family="sans-serif" font-size="13" lengthAdjust="spacing" textLength="7" x="1279.0563" y="1051.8046">1</text><text fill="#000000" font-family="sans-serif" font-size="13" lengthAdjust="spacing" textLength="7" x="1291.4662" y="1051.7792">1</text></g><!--link JobOpening to JobOpeningProcess--><g id="link_JobOpening_JobOpeningProcess"><path codeLine="109" d="M1175.13,632.06 C1256.39,639.15 1386,664.95 1386,757.5 C1386,757.5 1386,757.5 1386,937 C1386,965.25 1386,991.33 1386,1014.82 " fill="none" id="JobOpening-to-JobOpeningProcess" style="stroke:#181818;stroke-width:1.0;"/><polygon fill="#181818" points="1386,1020.82,1390,1011.82,1386,1015.82,1382,1011.82,1386,1020.82" style="stroke:#181818;stroke-width:1.0;"/><text fill="#000000" font-family="sans-serif" font-size="13" lengthAdjust="spacing" textLength="21" x="1387" y="871.0283">has</text><text fill="#000000" font-family="sans-serif" font-size="13" lengthAdjust="spacing" textLength="7" x="1182.9497" y="628.5604">1</text><text fill="#000000" font-family="sans-serif" font-size="13" lengthAdjust="spacing" textLength="5" x="1380.5234" y="1009.6884">*</text></g><!--link JobOpeningProcess to Phase--><g id="link_JobOpeningProcess_Phase"><path codeLine="111" d="M1386,1090.25 C1386,1109.52 1386,1127.29 1386,1144.99 " fill="none" id="JobOpeningProcess-to-Phase" style="stroke:#181818;stroke-width:1.0;"/><polygon fill="#181818" points="1386,1150.99,1390,1141.99,1386,1145.99,1382,1141.99,1386,1150.99" style="stroke:#181818;stroke-width:1.0;"/><text fill="#000000" font-family="sans-serif" font-size="13" lengthAdjust="spacing" textLength="7" x="1378.4203" y="1111.5035">1</text><text fill="#000000" font-family="sans-serif" font-size="13" lengthAdjust="spacing" textLength="7" x="1378.1469" y="1139.571">1</text></g><!--link Phase to PhaseType--><g id="link_Phase_PhaseType"><path codeLine="112" d="M1386,1204.15 C1386,1220.57 1386,1236.85 1386,1258.85 " fill="none" id="Phase-to-PhaseType" style="stroke:#181818;stroke-width:1.0;"/><polygon fill="#181818" points="1386,1264.85,1390,1255.85,1386,1259.85,1382,1255.85,1386,1264.85" style="stroke:#181818;stroke-width:1.0;"/><text fill="#000000" font-family="sans-serif" font-size="13" lengthAdjust="spacing" textLength="7" x="1378.2781" y="1225.5011">1</text><text fill="#000000" font-family="sans-serif" font-size="13" lengthAdjust="spacing" textLength="7" x="1378.6773" y="1253.6433">1</text></g><!--SRC=[bLLDZvim4BtpAwpqWBGIc_QwGf5ebcsfiYGYRAezLSRC4hTyoPZ3QjN_NXj8C5-1-WJsc_7CyymR_SnvNZoirtcCKrucyJt9aZM9SL4O8SKHmuccdMa8A05-pi92qnWGZjCe1hJwaGLedqDAqsY5FWK18HYZ3qr3ObK-a40q0DEqeeX1X3aWByluPcEQTiefVzziFlxsR3nu0mOf0TDqGcXGfdd2SGbe7_mM8VIjVCfZsBEdCYMSPkaK6D8oGTiivGmJxh_d8ACe4s0Yhd3aZif8hgUNtUwNxppRrvs3vVdjZkh_EGiN-_NivxtVEjsxnj5H_h-_VlMSn-klk4N9-OG9JWc5mYsJ0DXjWXwX88pc4-Jecjv23sTSmAE8lEYyaNvDi08iOKz7lMKT3ZjdQ_dEtXqU7hUURRkE-sruvBY-xPqS- -TnnAThxLwFpiY9PnzVTdvtlyb3AKsq-h92Xh51gy_tz-ApJR-1jXijz8AJB6ZoMSRx0bbv7bE29UsYHp0c90YwFQ8WbZU9OkI4oxl4uXoJCuHsWccy3Ff4OvX1Dh5aJ724bs55t4UEULaiXdiu_JC6xd8l6YAaeUHFS2qLwKFnjhqSpl0yOZ5Bic9JCaP96PV9YN8ynfqCUQfU3YmZK1IYLcIbTEDlIxP1BSvZO3cRZtx3UFBbPemYk4bSrKzA0ehg_R_oZ0dEK6T6v6MWAZqngGEgdb2TL9KYc4QP6zLNcxxMcqpJG7KiDQW1HewMgJD5uQSlwSsCQQ1shNrvSj4yfI4c0Dtg5omfFToHpuw4JQDKnPf5IR6QlR3MgIxiJiAC2rAP3G-eA8E4Sb5cw2rZG-SzNZe6mVkIxEjs6aVM4wadWtNfTTkhDedXZGzokBQyDfXvTSPt8sYHXsWrJQyQhXFvX1nCXQGEIstehHsY_m00]--></g></svg>