<?xml version="1.0" encoding="us-ascii" standalone="no"?><svg xmlns="http://www.w3.org/2000/svg" xmlns:xlink="http://www.w3.org/1999/xlink" contentStyleType="text/css" height="526px" preserveAspectRatio="none" style="width:746px;height:526px;background:#FFFFFF;" version="1.1" viewBox="0 0 746 526" width="746px" zoomAndPan="magnify"><defs/><g><!--cluster authz--><g id="cluster_authz"><path d="M301.5,6.0137 L340.5,6.0137 A3.75,3.75 0 0 1 343,8.5137 L350,30.6348 L478.5,30.6348 A2.5,2.5 0 0 1 481,33.1348 L481,141.5137 A2.5,2.5 0 0 1 478.5,144.0137 L301.5,144.0137 A2.5,2.5 0 0 1 299,141.5137 L299,8.5137 A2.5,2.5 0 0 1 301.5,6.0137 " fill="none" style="stroke:#000000;stroke-width:1.5;"/><line style="stroke:#000000;stroke-width:1.5;" x1="299" x2="350" y1="30.6348" y2="30.6348"/><text fill="#000000" font-family="sans-serif" font-size="14" font-weight="bold" lengthAdjust="spacing" textLength="38" x="303" y="23.1211">authz</text></g><!--cluster Appplication--><g id="cluster_Appplication"><path d="M204.5,212.0137 L292.5,212.0137 A3.75,3.75 0 0 1 295,214.5137 L302,236.6348 L575.5,236.6348 A2.5,2.5 0 0 1 578,239.1348 L578,347.5137 A2.5,2.5 0 0 1 575.5,350.0137 L204.5,350.0137 A2.5,2.5 0 0 1 202,347.5137 L202,214.5137 A2.5,2.5 0 0 1 204.5,212.0137 " fill="none" style="stroke:#000000;stroke-width:1.5;"/><line style="stroke:#000000;stroke-width:1.5;" x1="202" x2="302" y1="236.6348" y2="236.6348"/><text fill="#000000" font-family="sans-serif" font-size="14" font-weight="bold" lengthAdjust="spacing" textLength="87" x="206" y="229.1211">Appplication</text></g><!--cluster Libraries--><g id="cluster_Libraries"><path d="M8.5,418.0137 L71.5,418.0137 A3.75,3.75 0 0 1 74,420.5137 L81,442.6348 L736.5,442.6348 A2.5,2.5 0 0 1 739,445.1348 L739,516.5137 A2.5,2.5 0 0 1 736.5,519.0137 L8.5,519.0137 A2.5,2.5 0 0 1 6,516.5137 L6,420.5137 A2.5,2.5 0 0 1 8.5,418.0137 " fill="none" style="stroke:#000000;stroke-width:1.5;"/><line style="stroke:#000000;stroke-width:1.5;" x1="6" x2="81" y1="442.6348" y2="442.6348"/><text fill="#000000" font-family="sans-serif" font-size="14" font-weight="bold" lengthAdjust="spacing" textLength="62" x="10" y="435.1211">Libraries</text></g><!--class DeactivateUserUI--><g id="elem_DeactivateUserUI"><rect codeLine="5" fill="#F1F1F1" height="85.2422" id="DeactivateUserUI" rx="2.5" ry="2.5" style="stroke:#181818;stroke-width:0.5;" width="149" x="315.5" y="43.0137"/><ellipse cx="334.55" cy="59.0137" fill="#ADD1B2" rx="11" ry="11" style="stroke:#181818;stroke-width:1.0;"/><path d="M337.3156,54.8887 Q337.4719,54.6699 337.6594,54.5605 Q337.8469,54.4512 338.0656,54.4512 Q338.4406,54.4512 338.675,54.7168 Q338.9094,54.9668 338.9094,55.5762 L338.9094,57.0293 Q338.9094,57.6387 338.675,57.9043 Q338.4406,58.1699 338.0656,58.1699 Q337.7219,58.1699 337.5188,57.9668 Q337.3156,57.7793 337.2063,57.2637 Q337.1594,56.9043 336.9719,56.7168 Q336.6438,56.3418 336.0344,56.123 Q335.425,55.9043 334.8,55.9043 Q334.0344,55.9043 333.3938,56.2324 Q332.7688,56.5605 332.2688,57.3105 Q331.7844,58.0605 331.7844,59.0918 L331.7844,60.1855 Q331.7844,61.4199 332.675,62.248 Q333.5656,63.0605 335.1594,63.0605 Q336.0969,63.0605 336.7531,62.8105 Q337.1438,62.6543 337.5656,62.2168 Q337.8313,61.9512 337.9719,61.873 Q338.1281,61.7949 338.3313,61.7949 Q338.6594,61.7949 338.9094,62.0605 Q339.175,62.3105 339.175,62.6543 Q339.175,62.998 338.8313,63.4043 Q338.3313,63.9824 337.5344,64.3105 Q336.4563,64.7637 335.1594,64.7637 Q333.6438,64.7637 332.4406,64.1387 Q331.4563,63.6387 330.7688,62.5762 Q330.0813,61.498 330.0813,60.2168 L330.0813,59.0605 Q330.0813,57.7324 330.6906,56.5918 Q331.3156,55.4355 332.4094,54.8262 Q333.5031,54.2012 334.7375,54.2012 Q335.4719,54.2012 336.1125,54.373 Q336.7688,54.5293 337.3156,54.8887 Z " fill="#000000"/><text fill="#000000" font-family="sans-serif" font-size="14" lengthAdjust="spacing" textLength="108" x="349.45" y="64.8105">DeactivateUserUI</text><line style="stroke:#181818;stroke-width:0.5;" x1="316.5" x2="463.5" y1="75.0137" y2="75.0137"/><line style="stroke:#181818;stroke-width:0.5;" x1="316.5" x2="463.5" y1="83.0137" y2="83.0137"/><polygon fill="#FFFF44" points="326.5,92.8242,330.5,96.8242,326.5,100.8242,322.5,96.8242" style="stroke:#B38D22;stroke-width:1.0;"/><text fill="#000000" font-family="sans-serif" font-size="14" lengthAdjust="spacing" textLength="123" x="335.5" y="102.1211">doShow() : boolean</text><ellipse cx="326.5" cy="116.4453" fill="#84BE84" rx="3" ry="3" style="stroke:#038048;stroke-width:1.0;"/><text fill="#000000" font-family="sans-serif" font-size="14" lengthAdjust="spacing" textLength="118" x="335.5" y="120.7422">headLine() : String</text></g><!--class DeactivateUserController--><g id="elem_DeactivateUserController"><rect codeLine="12" fill="#F1F1F1" height="85.2422" id="DeactivateUserController" rx="2.5" ry="2.5" style="stroke:#181818;stroke-width:0.5;" width="343" x="218.5" y="249.0137"/><ellipse cx="306.75" cy="265.0137" fill="#ADD1B2" rx="11" ry="11" style="stroke:#181818;stroke-width:1.0;"/><path d="M309.5156,260.8887 Q309.6719,260.6699 309.8594,260.5605 Q310.0469,260.4512 310.2656,260.4512 Q310.6406,260.4512 310.875,260.7168 Q311.1094,260.9668 311.1094,261.5762 L311.1094,263.0293 Q311.1094,263.6387 310.875,263.9043 Q310.6406,264.1699 310.2656,264.1699 Q309.9219,264.1699 309.7188,263.9668 Q309.5156,263.7793 309.4063,263.2637 Q309.3594,262.9043 309.1719,262.7168 Q308.8438,262.3418 308.2344,262.123 Q307.625,261.9043 307,261.9043 Q306.2344,261.9043 305.5938,262.2324 Q304.9688,262.5605 304.4688,263.3105 Q303.9844,264.0605 303.9844,265.0918 L303.9844,266.1855 Q303.9844,267.4199 304.875,268.248 Q305.7656,269.0605 307.3594,269.0605 Q308.2969,269.0605 308.9531,268.8105 Q309.3438,268.6543 309.7656,268.2168 Q310.0313,267.9512 310.1719,267.873 Q310.3281,267.7949 310.5313,267.7949 Q310.8594,267.7949 311.1094,268.0605 Q311.375,268.3105 311.375,268.6543 Q311.375,268.998 311.0313,269.4043 Q310.5313,269.9824 309.7344,270.3105 Q308.6563,270.7637 307.3594,270.7637 Q305.8438,270.7637 304.6406,270.1387 Q303.6563,269.6387 302.9688,268.5762 Q302.2813,267.498 302.2813,266.2168 L302.2813,265.0605 Q302.2813,263.7324 302.8906,262.5918 Q303.5156,261.4355 304.6094,260.8262 Q305.7031,260.2012 306.9375,260.2012 Q307.6719,260.2012 308.3125,260.373 Q308.9688,260.5293 309.5156,260.8887 Z " fill="#000000"/><text fill="#000000" font-family="sans-serif" font-size="14" lengthAdjust="spacing" textLength="158" x="327.25" y="270.8105">DeactivateUserController</text><line style="stroke:#181818;stroke-width:0.5;" x1="219.5" x2="560.5" y1="281.0137" y2="281.0137"/><line style="stroke:#181818;stroke-width:0.5;" x1="219.5" x2="560.5" y1="289.0137" y2="289.0137"/><ellipse cx="229.5" cy="303.8242" fill="#84BE84" rx="3" ry="3" style="stroke:#038048;stroke-width:1.0;"/><text fill="#000000" font-family="sans-serif" font-size="14" lengthAdjust="spacing" textLength="317" x="238.5" y="308.1211">deactivateUser(final SysteUser user) : SystemUser</text><ellipse cx="229.5" cy="322.4453" fill="#84BE84" rx="3" ry="3" style="stroke:#038048;stroke-width:1.0;"/><text fill="#000000" font-family="sans-serif" font-size="14" lengthAdjust="spacing" textLength="233" x="238.5" y="326.7422">activeUsers() : Iterable&lt;SystemUser&gt;</text></g><!--class UserManagementService--><g id="elem_UserManagementService"><rect codeLine="19" fill="#F1F1F1" height="48" id="UserManagementService" rx="2.5" ry="2.5" style="stroke:#181818;stroke-width:0.5;" width="190" x="22" y="455.0137"/><ellipse cx="37" cy="471.0137" fill="#ADD1B2" rx="11" ry="11" style="stroke:#181818;stroke-width:1.0;"/><path d="M39.7656,466.8887 Q39.9219,466.6699 40.1094,466.5605 Q40.2969,466.4512 40.5156,466.4512 Q40.8906,466.4512 41.125,466.7168 Q41.3594,466.9668 41.3594,467.5762 L41.3594,469.0293 Q41.3594,469.6387 41.125,469.9043 Q40.8906,470.1699 40.5156,470.1699 Q40.1719,470.1699 39.9688,469.9668 Q39.7656,469.7793 39.6563,469.2637 Q39.6094,468.9043 39.4219,468.7168 Q39.0938,468.3418 38.4844,468.123 Q37.875,467.9043 37.25,467.9043 Q36.4844,467.9043 35.8438,468.2324 Q35.2188,468.5605 34.7188,469.3105 Q34.2344,470.0605 34.2344,471.0918 L34.2344,472.1855 Q34.2344,473.4199 35.125,474.248 Q36.0156,475.0605 37.6094,475.0605 Q38.5469,475.0605 39.2031,474.8105 Q39.5938,474.6543 40.0156,474.2168 Q40.2813,473.9512 40.4219,473.873 Q40.5781,473.7949 40.7813,473.7949 Q41.1094,473.7949 41.3594,474.0605 Q41.625,474.3105 41.625,474.6543 Q41.625,474.998 41.2813,475.4043 Q40.7813,475.9824 39.9844,476.3105 Q38.9063,476.7637 37.6094,476.7637 Q36.0938,476.7637 34.8906,476.1387 Q33.9063,475.6387 33.2188,474.5762 Q32.5313,473.498 32.5313,472.2168 L32.5313,471.0605 Q32.5313,469.7324 33.1406,468.5918 Q33.7656,467.4355 34.8594,466.8262 Q35.9531,466.2012 37.1875,466.2012 Q37.9219,466.2012 38.5625,466.373 Q39.2188,466.5293 39.7656,466.8887 Z " fill="#000000"/><text fill="#000000" font-family="sans-serif" font-size="14" lengthAdjust="spacing" textLength="158" x="51" y="476.8105">UserManagementService</text><line style="stroke:#181818;stroke-width:0.5;" x1="23" x2="211" y1="487.0137" y2="487.0137"/><line style="stroke:#181818;stroke-width:0.5;" x1="23" x2="211" y1="495.0137" y2="495.0137"/></g><!--class AuthorizationService--><g id="elem_AuthorizationService"><rect codeLine="20" fill="#F1F1F1" height="48" id="AuthorizationService" rx="2.5" ry="2.5" style="stroke:#181818;stroke-width:0.5;" width="161" x="247.5" y="455.0137"/><ellipse cx="262.5" cy="471.0137" fill="#ADD1B2" rx="11" ry="11" style="stroke:#181818;stroke-width:1.0;"/><path d="M265.2656,466.8887 Q265.4219,466.6699 265.6094,466.5605 Q265.7969,466.4512 266.0156,466.4512 Q266.3906,466.4512 266.625,466.7168 Q266.8594,466.9668 266.8594,467.5762 L266.8594,469.0293 Q266.8594,469.6387 266.625,469.9043 Q266.3906,470.1699 266.0156,470.1699 Q265.6719,470.1699 265.4688,469.9668 Q265.2656,469.7793 265.1563,469.2637 Q265.1094,468.9043 264.9219,468.7168 Q264.5938,468.3418 263.9844,468.123 Q263.375,467.9043 262.75,467.9043 Q261.9844,467.9043 261.3438,468.2324 Q260.7188,468.5605 260.2188,469.3105 Q259.7344,470.0605 259.7344,471.0918 L259.7344,472.1855 Q259.7344,473.4199 260.625,474.248 Q261.5156,475.0605 263.1094,475.0605 Q264.0469,475.0605 264.7031,474.8105 Q265.0938,474.6543 265.5156,474.2168 Q265.7813,473.9512 265.9219,473.873 Q266.0781,473.7949 266.2813,473.7949 Q266.6094,473.7949 266.8594,474.0605 Q267.125,474.3105 267.125,474.6543 Q267.125,474.998 266.7813,475.4043 Q266.2813,475.9824 265.4844,476.3105 Q264.4063,476.7637 263.1094,476.7637 Q261.5938,476.7637 260.3906,476.1387 Q259.4063,475.6387 258.7188,474.5762 Q258.0313,473.498 258.0313,472.2168 L258.0313,471.0605 Q258.0313,469.7324 258.6406,468.5918 Q259.2656,467.4355 260.3594,466.8262 Q261.4531,466.2012 262.6875,466.2012 Q263.4219,466.2012 264.0625,466.373 Q264.7188,466.5293 265.2656,466.8887 Z " fill="#000000"/><text fill="#000000" font-family="sans-serif" font-size="14" lengthAdjust="spacing" textLength="129" x="276.5" y="476.8105">AuthorizationService</text><line style="stroke:#181818;stroke-width:0.5;" x1="248.5" x2="407.5" y1="487.0137" y2="487.0137"/><line style="stroke:#181818;stroke-width:0.5;" x1="248.5" x2="407.5" y1="495.0137" y2="495.0137"/></g><!--class LoggerFactory--><g id="elem_LoggerFactory"><rect codeLine="21" fill="#F1F1F1" height="48" id="LoggerFactory" rx="2.5" ry="2.5" style="stroke:#181818;stroke-width:0.5;" width="125" x="443.5" y="455.0137"/><ellipse cx="458.5" cy="471.0137" fill="#ADD1B2" rx="11" ry="11" style="stroke:#181818;stroke-width:1.0;"/><path d="M461.2656,466.8887 Q461.4219,466.6699 461.6094,466.5605 Q461.7969,466.4512 462.0156,466.4512 Q462.3906,466.4512 462.625,466.7168 Q462.8594,466.9668 462.8594,467.5762 L462.8594,469.0293 Q462.8594,469.6387 462.625,469.9043 Q462.3906,470.1699 462.0156,470.1699 Q461.6719,470.1699 461.4688,469.9668 Q461.2656,469.7793 461.1563,469.2637 Q461.1094,468.9043 460.9219,468.7168 Q460.5938,468.3418 459.9844,468.123 Q459.375,467.9043 458.75,467.9043 Q457.9844,467.9043 457.3438,468.2324 Q456.7188,468.5605 456.2188,469.3105 Q455.7344,470.0605 455.7344,471.0918 L455.7344,472.1855 Q455.7344,473.4199 456.625,474.248 Q457.5156,475.0605 459.1094,475.0605 Q460.0469,475.0605 460.7031,474.8105 Q461.0938,474.6543 461.5156,474.2168 Q461.7813,473.9512 461.9219,473.873 Q462.0781,473.7949 462.2813,473.7949 Q462.6094,473.7949 462.8594,474.0605 Q463.125,474.3105 463.125,474.6543 Q463.125,474.998 462.7813,475.4043 Q462.2813,475.9824 461.4844,476.3105 Q460.4063,476.7637 459.1094,476.7637 Q457.5938,476.7637 456.3906,476.1387 Q455.4063,475.6387 454.7188,474.5762 Q454.0313,473.498 454.0313,472.2168 L454.0313,471.0605 Q454.0313,469.7324 454.6406,468.5918 Q455.2656,467.4355 456.3594,466.8262 Q457.4531,466.2012 458.6875,466.2012 Q459.4219,466.2012 460.0625,466.373 Q460.7188,466.5293 461.2656,466.8887 Z " fill="#000000"/><text fill="#000000" font-family="sans-serif" font-size="14" lengthAdjust="spacing" textLength="93" x="472.5" y="476.8105">LoggerFactory</text><line style="stroke:#181818;stroke-width:0.5;" x1="444.5" x2="567.5" y1="487.0137" y2="487.0137"/><line style="stroke:#181818;stroke-width:0.5;" x1="444.5" x2="567.5" y1="495.0137" y2="495.0137"/></g><!--class AuthzRegistry--><g id="elem_AuthzRegistry"><rect codeLine="22" fill="#F1F1F1" height="48" id="AuthzRegistry" rx="2.5" ry="2.5" style="stroke:#181818;stroke-width:0.5;" width="119" x="603.5" y="455.0137"/><ellipse cx="618.5" cy="471.0137" fill="#ADD1B2" rx="11" ry="11" style="stroke:#181818;stroke-width:1.0;"/><path d="M621.2656,466.8887 Q621.4219,466.6699 621.6094,466.5605 Q621.7969,466.4512 622.0156,466.4512 Q622.3906,466.4512 622.625,466.7168 Q622.8594,466.9668 622.8594,467.5762 L622.8594,469.0293 Q622.8594,469.6387 622.625,469.9043 Q622.3906,470.1699 622.0156,470.1699 Q621.6719,470.1699 621.4688,469.9668 Q621.2656,469.7793 621.1563,469.2637 Q621.1094,468.9043 620.9219,468.7168 Q620.5938,468.3418 619.9844,468.123 Q619.375,467.9043 618.75,467.9043 Q617.9844,467.9043 617.3438,468.2324 Q616.7188,468.5605 616.2188,469.3105 Q615.7344,470.0605 615.7344,471.0918 L615.7344,472.1855 Q615.7344,473.4199 616.625,474.248 Q617.5156,475.0605 619.1094,475.0605 Q620.0469,475.0605 620.7031,474.8105 Q621.0938,474.6543 621.5156,474.2168 Q621.7813,473.9512 621.9219,473.873 Q622.0781,473.7949 622.2813,473.7949 Q622.6094,473.7949 622.8594,474.0605 Q623.125,474.3105 623.125,474.6543 Q623.125,474.998 622.7813,475.4043 Q622.2813,475.9824 621.4844,476.3105 Q620.4063,476.7637 619.1094,476.7637 Q617.5938,476.7637 616.3906,476.1387 Q615.4063,475.6387 614.7188,474.5762 Q614.0313,473.498 614.0313,472.2168 L614.0313,471.0605 Q614.0313,469.7324 614.6406,468.5918 Q615.2656,467.4355 616.3594,466.8262 Q617.4531,466.2012 618.6875,466.2012 Q619.4219,466.2012 620.0625,466.373 Q620.7188,466.5293 621.2656,466.8887 Z " fill="#000000"/><text fill="#000000" font-family="sans-serif" font-size="14" lengthAdjust="spacing" textLength="87" x="632.5" y="476.8105">AuthzRegistry</text><line style="stroke:#181818;stroke-width:0.5;" x1="604.5" x2="721.5" y1="487.0137" y2="487.0137"/><line style="stroke:#181818;stroke-width:0.5;" x1="604.5" x2="721.5" y1="495.0137" y2="495.0137"/></g><!--link DeactivateUserUI to DeactivateUserController--><g id="link_DeactivateUserUI_DeactivateUserController"><path codeLine="25" d="M390,128.2837 C390,163.4937 390,207.6037 390,242.7937 " fill="none" id="DeactivateUserUI-to-DeactivateUserController" style="stroke:#181818;stroke-width:1.0;stroke-dasharray:7.0,7.0;"/><polygon fill="#181818" points="390,248.7937,394,239.7937,390,243.7937,386,239.7937,390,248.7937" style="stroke:#181818;stroke-width:1.0;"/></g><!--link DeactivateUserController to UserManagementService--><g id="link_DeactivateUserController_UserManagementService"><path codeLine="26" d="M328.73,334.1437 C273.87,371.4237 200.3829,421.3517 155.9929,451.5117 " fill="none" id="DeactivateUserController-to-UserManagementService" style="stroke:#181818;stroke-width:1.0;stroke-dasharray:7.0,7.0;"/><polygon fill="#181818" points="151.03,454.8837,160.7223,453.1344,155.1657,452.0737,156.2263,446.5172,151.03,454.8837" style="stroke:#181818;stroke-width:1.0;"/></g><!--link DeactivateUserController to AuthorizationService--><g id="link_DeactivateUserController_AuthorizationService"><path codeLine="27" d="M376.09,334.1437 C363.63,371.4237 347.7119,419.0331 337.6319,449.1931 " fill="none" id="DeactivateUserController-to-AuthorizationService" style="stroke:#181818;stroke-width:1.0;stroke-dasharray:7.0,7.0;"/><polygon fill="#181818" points="335.73,454.8837,342.3766,447.6157,337.3149,450.1415,334.7891,445.0799,335.73,454.8837" style="stroke:#181818;stroke-width:1.0;"/></g><!--link DeactivateUserController to LoggerFactory--><g id="link_DeactivateUserController_LoggerFactory"><path codeLine="28" d="M416.03,334.1437 C439.35,371.4237 469.4988,419.6364 488.3588,449.7964 " fill="none" id="DeactivateUserController-to-LoggerFactory" style="stroke:#181818;stroke-width:1.0;stroke-dasharray:7.0,7.0;"/><polygon fill="#181818" points="491.54,454.8837,490.1597,445.132,488.889,450.6443,483.3767,449.3736,491.54,454.8837" style="stroke:#181818;stroke-width:1.0;"/></g><!--link DeactivateUserController to AuthzRegistry--><g id="link_DeactivateUserController_AuthzRegistry"><path codeLine="29" d="M466.53,334.0337 C503.63,355.2437 548.22,382.3637 586,410.0137 C604.71,423.7037 619.8825,436.931 634.6125,450.671 " fill="none" id="DeactivateUserController-to-AuthzRegistry" style="stroke:#181818;stroke-width:1.0;stroke-dasharray:7.0,7.0;"/><polygon fill="#181818" points="639,454.7637,635.1471,445.6997,635.3437,451.3531,629.6903,451.5497,639,454.7637" style="stroke:#181818;stroke-width:1.0;"/></g><!--SRC=[VL51QiCm4Bph5O8UcX9itqCnX9P2mBtKv05hUIkBo9AGv9IuvE-L5QYTECuU1DwPOMRMputtncsop4XGlcjbodIRCGdE9RK0Rg4bn00x04SAdMzwyajec4YXxmZCYoDut3kq-nszWCCyrRfizC_gXMvefRL4KF_Oka6e2w4megMtGl48dibvjDiQOwHWu8LMTDdrJIjljPHe9-xh-egp-XOA92rFxl9Dk_14xs7J3gjH6eMHvcA-dKSBbSJNaPpFqnQYic05kcdIWVi9Ak0jAb-YFGg64tmRBggjw6F7ELnepj5-X43Qdcva_HTouNpOXn2p_v0aQRvu9x9um2Yx7_gnvcwHPKcQv3Vb7dEl2uVv0m00]--></g></svg>