<?xml version="1.0" encoding="us-ascii" standalone="no"?><svg xmlns="http://www.w3.org/2000/svg" xmlns:xlink="http://www.w3.org/1999/xlink" contentStyleType="text/css" height="963px" preserveAspectRatio="none" style="width:793px;height:963px;background:#FFFFFF;" version="1.1" viewBox="0 0 793 963" width="793px" zoomAndPan="magnify"><defs/><g><!--cluster Job Opening--><g id="cluster_Job Opening"><rect fill="#BBCCAA" height="380" rx="2.5" ry="2.5" style="stroke:#181818;stroke-width:1.0;" width="647" x="7" y="7"/><text fill="#000000" font-family="sans-serif" font-size="14" font-weight="bold" lengthAdjust="spacing" textLength="90" x="285.5" y="24.1074">Job Opening</text></g><!--cluster Job Opening Process--><g id="cluster_Job Opening Process"><rect fill="#CCBBCC" height="441" rx="2.5" ry="2.5" style="stroke:#181818;stroke-width:1.0;" width="546" x="241" y="516"/><text fill="#000000" font-family="sans-serif" font-size="14" font-weight="bold" lengthAdjust="spacing" textLength="151" x="438.5" y="533.1074">Job Opening Process</text></g><!--class JobOpening--><g id="elem_JobOpening"><rect codeLine="17" fill="#F1F1F1" height="68.543" id="JobOpening" rx="2.5" ry="2.5" style="stroke:#181818;stroke-width:0.5;" width="128" x="352" y="173"/><ellipse cx="367" cy="203.2715" fill="#ADD1B2" rx="11" ry="11" style="stroke:#181818;stroke-width:1.0;"/><path d="M369.7656,199.1465 Q369.9219,198.9277 370.1094,198.8184 Q370.2969,198.709 370.5156,198.709 Q370.8906,198.709 371.125,198.9746 Q371.3594,199.2246 371.3594,199.834 L371.3594,201.2871 Q371.3594,201.8965 371.125,202.1621 Q370.8906,202.4277 370.5156,202.4277 Q370.1719,202.4277 369.9688,202.2246 Q369.7656,202.0371 369.6563,201.5215 Q369.6094,201.1621 369.4219,200.9746 Q369.0938,200.5996 368.4844,200.3809 Q367.875,200.1621 367.25,200.1621 Q366.4844,200.1621 365.8438,200.4902 Q365.2188,200.8184 364.7188,201.5684 Q364.2344,202.3184 364.2344,203.3496 L364.2344,204.4434 Q364.2344,205.6777 365.125,206.5059 Q366.0156,207.3184 367.6094,207.3184 Q368.5469,207.3184 369.2031,207.0684 Q369.5938,206.9121 370.0156,206.4746 Q370.2813,206.209 370.4219,206.1309 Q370.5781,206.0527 370.7813,206.0527 Q371.1094,206.0527 371.3594,206.3184 Q371.625,206.5684 371.625,206.9121 Q371.625,207.2559 371.2813,207.6621 Q370.7813,208.2402 369.9844,208.5684 Q368.9063,209.0215 367.6094,209.0215 Q366.0938,209.0215 364.8906,208.3965 Q363.9063,207.8965 363.2188,206.834 Q362.5313,205.7559 362.5313,204.4746 L362.5313,203.3184 Q362.5313,201.9902 363.1406,200.8496 Q363.7656,199.6934 364.8594,199.084 Q365.9531,198.459 367.1875,198.459 Q367.9219,198.459 368.5625,198.6309 Q369.2188,198.7871 369.7656,199.1465 Z " fill="#000000"/><text fill="#000000" font-family="sans-serif" font-size="12" font-style="italic" lengthAdjust="spacing" textLength="100" x="379" y="190.9492">&#171;Aggregate Root&#187;</text><text fill="#000000" font-family="sans-serif" font-size="12" font-style="italic" lengthAdjust="spacing" textLength="44" x="407" y="206.9102">&#171;Entity&#187;</text><text fill="#000000" font-family="sans-serif" font-size="14" lengthAdjust="spacing" textLength="76" x="391" y="225.0293">JobOpening</text><line style="stroke:#181818;stroke-width:0.5;" x1="353" x2="479" y1="233.543" y2="233.543"/></g><!--class JobReference--><g id="elem_JobReference"><rect codeLine="19" fill="#F1F1F1" height="68.543" id="JobReference" rx="2.5" ry="2.5" style="stroke:#181818;stroke-width:0.5;" width="120" x="23" y="302"/><ellipse cx="38" cy="332.2715" fill="#ADD1B2" rx="11" ry="11" style="stroke:#181818;stroke-width:1.0;"/><path d="M40.7656,328.1465 Q40.9219,327.9277 41.1094,327.8184 Q41.2969,327.709 41.5156,327.709 Q41.8906,327.709 42.125,327.9746 Q42.3594,328.2246 42.3594,328.834 L42.3594,330.2871 Q42.3594,330.8965 42.125,331.1621 Q41.8906,331.4277 41.5156,331.4277 Q41.1719,331.4277 40.9688,331.2246 Q40.7656,331.0371 40.6563,330.5215 Q40.6094,330.1621 40.4219,329.9746 Q40.0938,329.5996 39.4844,329.3809 Q38.875,329.1621 38.25,329.1621 Q37.4844,329.1621 36.8438,329.4902 Q36.2188,329.8184 35.7188,330.5684 Q35.2344,331.3184 35.2344,332.3496 L35.2344,333.4434 Q35.2344,334.6777 36.125,335.5059 Q37.0156,336.3184 38.6094,336.3184 Q39.5469,336.3184 40.2031,336.0684 Q40.5938,335.9121 41.0156,335.4746 Q41.2813,335.209 41.4219,335.1309 Q41.5781,335.0527 41.7813,335.0527 Q42.1094,335.0527 42.3594,335.3184 Q42.625,335.5684 42.625,335.9121 Q42.625,336.2559 42.2813,336.6621 Q41.7813,337.2402 40.9844,337.5684 Q39.9063,338.0215 38.6094,338.0215 Q37.0938,338.0215 35.8906,337.3965 Q34.9063,336.8965 34.2188,335.834 Q33.5313,334.7559 33.5313,333.4746 L33.5313,332.3184 Q33.5313,330.9902 34.1406,329.8496 Q34.7656,328.6934 35.8594,328.084 Q36.9531,327.459 38.1875,327.459 Q38.9219,327.459 39.5625,327.6309 Q40.2188,327.7871 40.7656,328.1465 Z " fill="#000000"/><text fill="#000000" font-family="sans-serif" font-size="12" font-style="italic" lengthAdjust="spacing" textLength="54" x="69" y="319.9492">&#171;Identity&#187;</text><text fill="#000000" font-family="sans-serif" font-size="12" font-style="italic" lengthAdjust="spacing" textLength="85" x="53.5" y="335.9102">&#171;Value Object&#187;</text><text fill="#000000" font-family="sans-serif" font-size="14" lengthAdjust="spacing" textLength="88" x="52" y="354.0293">JobReference</text><line style="stroke:#181818;stroke-width:0.5;" x1="24" x2="142" y1="362.543" y2="362.543"/></g><!--class TitleOrFunction--><g id="elem_TitleOrFunction"><rect codeLine="21" fill="#F1F1F1" height="52.582" id="TitleOrFunction" rx="2.5" ry="2.5" style="stroke:#181818;stroke-width:0.5;" width="130" x="178" y="310"/><ellipse cx="193" cy="332.291" fill="#ADD1B2" rx="11" ry="11" style="stroke:#181818;stroke-width:1.0;"/><path d="M195.7656,328.166 Q195.9219,327.9473 196.1094,327.8379 Q196.2969,327.7285 196.5156,327.7285 Q196.8906,327.7285 197.125,327.9941 Q197.3594,328.2441 197.3594,328.8535 L197.3594,330.3066 Q197.3594,330.916 197.125,331.1816 Q196.8906,331.4473 196.5156,331.4473 Q196.1719,331.4473 195.9688,331.2441 Q195.7656,331.0566 195.6563,330.541 Q195.6094,330.1816 195.4219,329.9941 Q195.0938,329.6191 194.4844,329.4004 Q193.875,329.1816 193.25,329.1816 Q192.4844,329.1816 191.8438,329.5098 Q191.2188,329.8379 190.7188,330.5879 Q190.2344,331.3379 190.2344,332.3691 L190.2344,333.4629 Q190.2344,334.6973 191.125,335.5254 Q192.0156,336.3379 193.6094,336.3379 Q194.5469,336.3379 195.2031,336.0879 Q195.5938,335.9316 196.0156,335.4941 Q196.2813,335.2285 196.4219,335.1504 Q196.5781,335.0723 196.7813,335.0723 Q197.1094,335.0723 197.3594,335.3379 Q197.625,335.5879 197.625,335.9316 Q197.625,336.2754 197.2813,336.6816 Q196.7813,337.2598 195.9844,337.5879 Q194.9063,338.041 193.6094,338.041 Q192.0938,338.041 190.8906,337.416 Q189.9063,336.916 189.2188,335.8535 Q188.5313,334.7754 188.5313,333.4941 L188.5313,332.3379 Q188.5313,331.0098 189.1406,329.8691 Q189.7656,328.7129 190.8594,328.1035 Q191.9531,327.4785 193.1875,327.4785 Q193.9219,327.4785 194.5625,327.6504 Q195.2188,327.8066 195.7656,328.166 Z " fill="#000000"/><text fill="#000000" font-family="sans-serif" font-size="12" font-style="italic" lengthAdjust="spacing" textLength="85" x="213.5" y="327.9492">&#171;Value Object&#187;</text><text fill="#000000" font-family="sans-serif" font-size="14" lengthAdjust="spacing" textLength="98" x="207" y="346.0684">TitleOrFunction</text><line style="stroke:#181818;stroke-width:0.5;" x1="179" x2="307" y1="354.582" y2="354.582"/></g><!--class ContractType--><g id="elem_ContractType"><rect codeLine="23" fill="#F1F1F1" height="68.543" id="ContractType" rx="2.5" ry="2.5" style="stroke:#181818;stroke-width:0.5;" width="118" x="432" y="44"/><ellipse cx="447" cy="74.2715" fill="#EB937F" rx="11" ry="11" style="stroke:#181818;stroke-width:1.0;"/><path d="M445.8594,75.0684 L445.8594,77.5684 L450.1875,77.5684 L450.1875,76.6465 Q450.1875,76.0371 450.4219,75.7715 Q450.6719,75.5059 451.0469,75.5059 Q451.4219,75.5059 451.6563,75.7715 Q451.8906,76.0371 451.8906,76.6465 L451.8906,79.2715 L443.8906,79.2715 Q443.2656,79.2715 443,79.0371 Q442.75,78.8027 442.75,78.4121 Q442.75,78.0371 443.0156,77.8027 Q443.2813,77.5684 443.8906,77.5684 L444.1563,77.5684 L444.1563,70.9121 L443.8906,70.9121 Q443.2656,70.9121 443,70.6777 Q442.75,70.4434 442.75,70.0527 Q442.75,69.6777 443,69.4434 Q443.2656,69.209 443.8906,69.209 L451.5156,69.209 L451.5156,71.8027 Q451.5156,72.4121 451.2813,72.6777 Q451.0625,72.9277 450.6719,72.9277 Q450.2969,72.9277 450.0625,72.6777 Q449.8281,72.4121 449.8281,71.8027 L449.8281,70.9121 L445.8594,70.9121 L445.8594,73.3652 L447.3438,73.3652 Q447.3438,72.709 447.4688,72.5215 Q447.7344,72.1152 448.2031,72.1152 Q448.5781,72.1152 448.8125,72.3809 Q449.0469,72.6309 449.0469,73.2402 L449.0469,75.209 Q449.0469,75.7559 448.9219,75.9434 Q448.6563,76.334 448.2031,76.334 Q447.7344,76.334 447.4688,75.9277 Q447.3438,75.7402 447.3438,75.0684 L445.8594,75.0684 Z " fill="#000000"/><text fill="#000000" font-family="sans-serif" font-size="12" font-style="italic" lengthAdjust="spacing" textLength="82" x="463" y="61.9492">&#171;Enumerated&#187;</text><text fill="#000000" font-family="sans-serif" font-size="12" font-style="italic" lengthAdjust="spacing" textLength="85" x="461.5" y="77.9102">&#171;Value Object&#187;</text><text fill="#000000" font-family="sans-serif" font-size="14" lengthAdjust="spacing" textLength="86" x="461" y="96.0293">ContractType</text><line style="stroke:#181818;stroke-width:0.5;" x1="433" x2="549" y1="104.543" y2="104.543"/></g><!--class Mode--><g id="elem_Mode"><rect codeLine="25" fill="#F1F1F1" height="68.543" id="Mode" rx="2.5" ry="2.5" style="stroke:#181818;stroke-width:0.5;" width="113" x="283.5" y="44"/><ellipse cx="298.5" cy="74.2715" fill="#ADD1B2" rx="11" ry="11" style="stroke:#181818;stroke-width:1.0;"/><path d="M301.2656,70.1465 Q301.4219,69.9277 301.6094,69.8184 Q301.7969,69.709 302.0156,69.709 Q302.3906,69.709 302.625,69.9746 Q302.8594,70.2246 302.8594,70.834 L302.8594,72.2871 Q302.8594,72.8965 302.625,73.1621 Q302.3906,73.4277 302.0156,73.4277 Q301.6719,73.4277 301.4688,73.2246 Q301.2656,73.0371 301.1563,72.5215 Q301.1094,72.1621 300.9219,71.9746 Q300.5938,71.5996 299.9844,71.3809 Q299.375,71.1621 298.75,71.1621 Q297.9844,71.1621 297.3438,71.4902 Q296.7188,71.8184 296.2188,72.5684 Q295.7344,73.3184 295.7344,74.3496 L295.7344,75.4434 Q295.7344,76.6777 296.625,77.5059 Q297.5156,78.3184 299.1094,78.3184 Q300.0469,78.3184 300.7031,78.0684 Q301.0938,77.9121 301.5156,77.4746 Q301.7813,77.209 301.9219,77.1309 Q302.0781,77.0527 302.2813,77.0527 Q302.6094,77.0527 302.8594,77.3184 Q303.125,77.5684 303.125,77.9121 Q303.125,78.2559 302.7813,78.6621 Q302.2813,79.2402 301.4844,79.5684 Q300.4063,80.0215 299.1094,80.0215 Q297.5938,80.0215 296.3906,79.3965 Q295.4063,78.8965 294.7188,77.834 Q294.0313,76.7559 294.0313,75.4746 L294.0313,74.3184 Q294.0313,72.9902 294.6406,71.8496 Q295.2656,70.6934 296.3594,70.084 Q297.4531,69.459 298.6875,69.459 Q299.4219,69.459 300.0625,69.6309 Q300.7188,69.7871 301.2656,70.1465 Z " fill="#000000"/><text fill="#000000" font-family="sans-serif" font-size="12" font-style="italic" lengthAdjust="spacing" textLength="82" x="312" y="61.9492">&#171;Enumerated&#187;</text><text fill="#000000" font-family="sans-serif" font-size="12" font-style="italic" lengthAdjust="spacing" textLength="85" x="310.5" y="77.9102">&#171;Value Object&#187;</text><text fill="#000000" font-family="sans-serif" font-size="14" lengthAdjust="spacing" textLength="35" x="335.5" y="96.0293">Mode</text><line style="stroke:#181818;stroke-width:0.5;" x1="284.5" x2="395.5" y1="104.543" y2="104.543"/></g><!--class VacanciesNumber--><g id="elem_VacanciesNumber"><rect codeLine="28" fill="#F1F1F1" height="52.582" id="VacanciesNumber" rx="2.5" ry="2.5" style="stroke:#181818;stroke-width:0.5;" width="146" x="343" y="310"/><ellipse cx="358" cy="332.291" fill="#ADD1B2" rx="11" ry="11" style="stroke:#181818;stroke-width:1.0;"/><path d="M360.7656,328.166 Q360.9219,327.9473 361.1094,327.8379 Q361.2969,327.7285 361.5156,327.7285 Q361.8906,327.7285 362.125,327.9941 Q362.3594,328.2441 362.3594,328.8535 L362.3594,330.3066 Q362.3594,330.916 362.125,331.1816 Q361.8906,331.4473 361.5156,331.4473 Q361.1719,331.4473 360.9688,331.2441 Q360.7656,331.0566 360.6563,330.541 Q360.6094,330.1816 360.4219,329.9941 Q360.0938,329.6191 359.4844,329.4004 Q358.875,329.1816 358.25,329.1816 Q357.4844,329.1816 356.8438,329.5098 Q356.2188,329.8379 355.7188,330.5879 Q355.2344,331.3379 355.2344,332.3691 L355.2344,333.4629 Q355.2344,334.6973 356.125,335.5254 Q357.0156,336.3379 358.6094,336.3379 Q359.5469,336.3379 360.2031,336.0879 Q360.5938,335.9316 361.0156,335.4941 Q361.2813,335.2285 361.4219,335.1504 Q361.5781,335.0723 361.7813,335.0723 Q362.1094,335.0723 362.3594,335.3379 Q362.625,335.5879 362.625,335.9316 Q362.625,336.2754 362.2813,336.6816 Q361.7813,337.2598 360.9844,337.5879 Q359.9063,338.041 358.6094,338.041 Q357.0938,338.041 355.8906,337.416 Q354.9063,336.916 354.2188,335.8535 Q353.5313,334.7754 353.5313,333.4941 L353.5313,332.3379 Q353.5313,331.0098 354.1406,329.8691 Q354.7656,328.7129 355.8594,328.1035 Q356.9531,327.4785 358.1875,327.4785 Q358.9219,327.4785 359.5625,327.6504 Q360.2188,327.8066 360.7656,328.166 Z " fill="#000000"/><text fill="#000000" font-family="sans-serif" font-size="12" font-style="italic" lengthAdjust="spacing" textLength="85" x="386.5" y="327.9492">&#171;Value Object&#187;</text><text fill="#000000" font-family="sans-serif" font-size="14" lengthAdjust="spacing" textLength="114" x="372" y="346.0684">VacanciesNumber</text><line style="stroke:#181818;stroke-width:0.5;" x1="344" x2="488" y1="354.582" y2="354.582"/></g><!--class Description--><g id="elem_Description"><rect codeLine="30" fill="#F1F1F1" height="52.582" id="Description" rx="2.5" ry="2.5" style="stroke:#181818;stroke-width:0.5;" width="113" x="524.5" y="310"/><ellipse cx="539.5" cy="332.291" fill="#ADD1B2" rx="11" ry="11" style="stroke:#181818;stroke-width:1.0;"/><path d="M542.2656,328.166 Q542.4219,327.9473 542.6094,327.8379 Q542.7969,327.7285 543.0156,327.7285 Q543.3906,327.7285 543.625,327.9941 Q543.8594,328.2441 543.8594,328.8535 L543.8594,330.3066 Q543.8594,330.916 543.625,331.1816 Q543.3906,331.4473 543.0156,331.4473 Q542.6719,331.4473 542.4688,331.2441 Q542.2656,331.0566 542.1563,330.541 Q542.1094,330.1816 541.9219,329.9941 Q541.5938,329.6191 540.9844,329.4004 Q540.375,329.1816 539.75,329.1816 Q538.9844,329.1816 538.3438,329.5098 Q537.7188,329.8379 537.2188,330.5879 Q536.7344,331.3379 536.7344,332.3691 L536.7344,333.4629 Q536.7344,334.6973 537.625,335.5254 Q538.5156,336.3379 540.1094,336.3379 Q541.0469,336.3379 541.7031,336.0879 Q542.0938,335.9316 542.5156,335.4941 Q542.7813,335.2285 542.9219,335.1504 Q543.0781,335.0723 543.2813,335.0723 Q543.6094,335.0723 543.8594,335.3379 Q544.125,335.5879 544.125,335.9316 Q544.125,336.2754 543.7813,336.6816 Q543.2813,337.2598 542.4844,337.5879 Q541.4063,338.041 540.1094,338.041 Q538.5938,338.041 537.3906,337.416 Q536.4063,336.916 535.7188,335.8535 Q535.0313,334.7754 535.0313,333.4941 L535.0313,332.3379 Q535.0313,331.0098 535.6406,329.8691 Q536.2656,328.7129 537.3594,328.1035 Q538.4531,327.4785 539.6875,327.4785 Q540.4219,327.4785 541.0625,327.6504 Q541.7188,327.8066 542.2656,328.166 Z " fill="#000000"/><text fill="#000000" font-family="sans-serif" font-size="12" font-style="italic" lengthAdjust="spacing" textLength="85" x="551.5" y="327.9492">&#171;Value Object&#187;</text><text fill="#000000" font-family="sans-serif" font-size="14" lengthAdjust="spacing" textLength="71" x="558.5" y="346.0684">Description</text><line style="stroke:#181818;stroke-width:0.5;" x1="525.5" x2="636.5" y1="354.582" y2="354.582"/></g><!--class JobOpeningProcess--><g id="elem_JobOpeningProcess"><rect codeLine="38" fill="#F1F1F1" height="68.543" id="JobOpeningProcess" rx="2.5" ry="2.5" style="stroke:#181818;stroke-width:0.5;" width="159" x="611.5" y="599.5"/><ellipse cx="626.5" cy="629.7715" fill="#ADD1B2" rx="11" ry="11" style="stroke:#181818;stroke-width:1.0;"/><path d="M629.2656,625.6465 Q629.4219,625.4277 629.6094,625.3184 Q629.7969,625.209 630.0156,625.209 Q630.3906,625.209 630.625,625.4746 Q630.8594,625.7246 630.8594,626.334 L630.8594,627.7871 Q630.8594,628.3965 630.625,628.6621 Q630.3906,628.9277 630.0156,628.9277 Q629.6719,628.9277 629.4688,628.7246 Q629.2656,628.5371 629.1563,628.0215 Q629.1094,627.6621 628.9219,627.4746 Q628.5938,627.0996 627.9844,626.8809 Q627.375,626.6621 626.75,626.6621 Q625.9844,626.6621 625.3438,626.9902 Q624.7188,627.3184 624.2188,628.0684 Q623.7344,628.8184 623.7344,629.8496 L623.7344,630.9434 Q623.7344,632.1777 624.625,633.0059 Q625.5156,633.8184 627.1094,633.8184 Q628.0469,633.8184 628.7031,633.5684 Q629.0938,633.4121 629.5156,632.9746 Q629.7813,632.709 629.9219,632.6309 Q630.0781,632.5527 630.2813,632.5527 Q630.6094,632.5527 630.8594,632.8184 Q631.125,633.0684 631.125,633.4121 Q631.125,633.7559 630.7813,634.1621 Q630.2813,634.7402 629.4844,635.0684 Q628.4063,635.5215 627.1094,635.5215 Q625.5938,635.5215 624.3906,634.8965 Q623.4063,634.3965 622.7188,633.334 Q622.0313,632.2559 622.0313,630.9746 L622.0313,629.8184 Q622.0313,628.4902 622.6406,627.3496 Q623.2656,626.1934 624.3594,625.584 Q625.4531,624.959 626.6875,624.959 Q627.4219,624.959 628.0625,625.1309 Q628.7188,625.2871 629.2656,625.6465 Z " fill="#000000"/><text fill="#000000" font-family="sans-serif" font-size="12" font-style="italic" lengthAdjust="spacing" textLength="100" x="654" y="617.4492">&#171;Aggregate Root&#187;</text><text fill="#000000" font-family="sans-serif" font-size="12" font-style="italic" lengthAdjust="spacing" textLength="44" x="682" y="633.4102">&#171;Entity&#187;</text><text fill="#000000" font-family="sans-serif" font-size="14" lengthAdjust="spacing" textLength="127" x="640.5" y="651.5293">JobOpeningProcess</text><line style="stroke:#181818;stroke-width:0.5;" x1="612.5" x2="769.5" y1="660.043" y2="660.043"/></g><!--class JobOpeningProcessId--><g id="elem_JobOpeningProcessId"><rect codeLine="39" fill="#F1F1F1" height="68.543" id="JobOpeningProcessId" rx="2.5" ry="2.5" style="stroke:#181818;stroke-width:0.5;" width="170" x="406" y="599.5"/><ellipse cx="421" cy="629.7715" fill="#ADD1B2" rx="11" ry="11" style="stroke:#181818;stroke-width:1.0;"/><path d="M423.7656,625.6465 Q423.9219,625.4277 424.1094,625.3184 Q424.2969,625.209 424.5156,625.209 Q424.8906,625.209 425.125,625.4746 Q425.3594,625.7246 425.3594,626.334 L425.3594,627.7871 Q425.3594,628.3965 425.125,628.6621 Q424.8906,628.9277 424.5156,628.9277 Q424.1719,628.9277 423.9688,628.7246 Q423.7656,628.5371 423.6563,628.0215 Q423.6094,627.6621 423.4219,627.4746 Q423.0938,627.0996 422.4844,626.8809 Q421.875,626.6621 421.25,626.6621 Q420.4844,626.6621 419.8438,626.9902 Q419.2188,627.3184 418.7188,628.0684 Q418.2344,628.8184 418.2344,629.8496 L418.2344,630.9434 Q418.2344,632.1777 419.125,633.0059 Q420.0156,633.8184 421.6094,633.8184 Q422.5469,633.8184 423.2031,633.5684 Q423.5938,633.4121 424.0156,632.9746 Q424.2813,632.709 424.4219,632.6309 Q424.5781,632.5527 424.7813,632.5527 Q425.1094,632.5527 425.3594,632.8184 Q425.625,633.0684 425.625,633.4121 Q425.625,633.7559 425.2813,634.1621 Q424.7813,634.7402 423.9844,635.0684 Q422.9063,635.5215 421.6094,635.5215 Q420.0938,635.5215 418.8906,634.8965 Q417.9063,634.3965 417.2188,633.334 Q416.5313,632.2559 416.5313,630.9746 L416.5313,629.8184 Q416.5313,628.4902 417.1406,627.3496 Q417.7656,626.1934 418.8594,625.584 Q419.9531,624.959 421.1875,624.959 Q421.9219,624.959 422.5625,625.1309 Q423.2188,625.2871 423.7656,625.6465 Z " fill="#000000"/><text fill="#000000" font-family="sans-serif" font-size="12" font-style="italic" lengthAdjust="spacing" textLength="54" x="477" y="617.4492">&#171;Identity&#187;</text><text fill="#000000" font-family="sans-serif" font-size="12" font-style="italic" lengthAdjust="spacing" textLength="85" x="461.5" y="633.4102">&#171;Value Object&#187;</text><text fill="#000000" font-family="sans-serif" font-size="14" lengthAdjust="spacing" textLength="138" x="435" y="651.5293">JobOpeningProcessId</text><line style="stroke:#181818;stroke-width:0.5;" x1="407" x2="575" y1="660.043" y2="660.043"/></g><!--class JobOpeningProcessStatus--><g id="elem_JobOpeningProcessStatus"><rect codeLine="40" fill="#F1F1F1" height="52.582" id="JobOpeningProcessStatus" rx="2.5" ry="2.5" style="stroke:#181818;stroke-width:0.5;" width="199" x="298.5" y="888"/><ellipse cx="313.5" cy="910.291" fill="#ADD1B2" rx="11" ry="11" style="stroke:#181818;stroke-width:1.0;"/><path d="M316.2656,906.166 Q316.4219,905.9473 316.6094,905.8379 Q316.7969,905.7285 317.0156,905.7285 Q317.3906,905.7285 317.625,905.9941 Q317.8594,906.2441 317.8594,906.8535 L317.8594,908.3066 Q317.8594,908.916 317.625,909.1816 Q317.3906,909.4473 317.0156,909.4473 Q316.6719,909.4473 316.4688,909.2441 Q316.2656,909.0566 316.1563,908.541 Q316.1094,908.1816 315.9219,907.9941 Q315.5938,907.6191 314.9844,907.4004 Q314.375,907.1816 313.75,907.1816 Q312.9844,907.1816 312.3438,907.5098 Q311.7188,907.8379 311.2188,908.5879 Q310.7344,909.3379 310.7344,910.3691 L310.7344,911.4629 Q310.7344,912.6973 311.625,913.5254 Q312.5156,914.3379 314.1094,914.3379 Q315.0469,914.3379 315.7031,914.0879 Q316.0938,913.9316 316.5156,913.4941 Q316.7813,913.2285 316.9219,913.1504 Q317.0781,913.0723 317.2813,913.0723 Q317.6094,913.0723 317.8594,913.3379 Q318.125,913.5879 318.125,913.9316 Q318.125,914.2754 317.7813,914.6816 Q317.2813,915.2598 316.4844,915.5879 Q315.4063,916.041 314.1094,916.041 Q312.5938,916.041 311.3906,915.416 Q310.4063,914.916 309.7188,913.8535 Q309.0313,912.7754 309.0313,911.4941 L309.0313,910.3379 Q309.0313,909.0098 309.6406,907.8691 Q310.2656,906.7129 311.3594,906.1035 Q312.4531,905.4785 313.6875,905.4785 Q314.4219,905.4785 315.0625,905.6504 Q315.7188,905.8066 316.2656,906.166 Z " fill="#000000"/><text fill="#000000" font-family="sans-serif" font-size="12" font-style="italic" lengthAdjust="spacing" textLength="85" x="368.5" y="905.9492">&#171;Value Object&#187;</text><text fill="#000000" font-family="sans-serif" font-size="14" lengthAdjust="spacing" textLength="167" x="327.5" y="924.0684">JobOpeningProcessStatus</text><line style="stroke:#181818;stroke-width:0.5;" x1="299.5" x2="496.5" y1="932.582" y2="932.582"/></g><!--class JobOpeningProcessStage--><g id="elem_JobOpeningProcessStage"><rect codeLine="41" fill="#F1F1F1" height="52.582" id="JobOpeningProcessStage" rx="2.5" ry="2.5" style="stroke:#181818;stroke-width:0.5;" width="196" x="533" y="888"/><ellipse cx="548" cy="910.291" fill="#ADD1B2" rx="11" ry="11" style="stroke:#181818;stroke-width:1.0;"/><path d="M550.7656,906.166 Q550.9219,905.9473 551.1094,905.8379 Q551.2969,905.7285 551.5156,905.7285 Q551.8906,905.7285 552.125,905.9941 Q552.3594,906.2441 552.3594,906.8535 L552.3594,908.3066 Q552.3594,908.916 552.125,909.1816 Q551.8906,909.4473 551.5156,909.4473 Q551.1719,909.4473 550.9688,909.2441 Q550.7656,909.0566 550.6563,908.541 Q550.6094,908.1816 550.4219,907.9941 Q550.0938,907.6191 549.4844,907.4004 Q548.875,907.1816 548.25,907.1816 Q547.4844,907.1816 546.8438,907.5098 Q546.2188,907.8379 545.7188,908.5879 Q545.2344,909.3379 545.2344,910.3691 L545.2344,911.4629 Q545.2344,912.6973 546.125,913.5254 Q547.0156,914.3379 548.6094,914.3379 Q549.5469,914.3379 550.2031,914.0879 Q550.5938,913.9316 551.0156,913.4941 Q551.2813,913.2285 551.4219,913.1504 Q551.5781,913.0723 551.7813,913.0723 Q552.1094,913.0723 552.3594,913.3379 Q552.625,913.5879 552.625,913.9316 Q552.625,914.2754 552.2813,914.6816 Q551.7813,915.2598 550.9844,915.5879 Q549.9063,916.041 548.6094,916.041 Q547.0938,916.041 545.8906,915.416 Q544.9063,914.916 544.2188,913.8535 Q543.5313,912.7754 543.5313,911.4941 L543.5313,910.3379 Q543.5313,909.0098 544.1406,907.8691 Q544.7656,906.7129 545.8594,906.1035 Q546.9531,905.4785 548.1875,905.4785 Q548.9219,905.4785 549.5625,905.6504 Q550.2188,905.8066 550.7656,906.166 Z " fill="#000000"/><text fill="#000000" font-family="sans-serif" font-size="12" font-style="italic" lengthAdjust="spacing" textLength="85" x="601.5" y="905.9492">&#171;Value Object&#187;</text><text fill="#000000" font-family="sans-serif" font-size="14" lengthAdjust="spacing" textLength="164" x="562" y="924.0684">JobOpeningProcessStage</text><line style="stroke:#181818;stroke-width:0.5;" x1="534" x2="728" y1="932.582" y2="932.582"/></g><!--class Phase--><g id="elem_Phase"><rect codeLine="42" fill="#F1F1F1" height="52.582" id="Phase" rx="2.5" ry="2.5" style="stroke:#181818;stroke-width:0.5;" width="72" x="478" y="775"/><ellipse cx="493" cy="797.291" fill="#ADD1B2" rx="11" ry="11" style="stroke:#181818;stroke-width:1.0;"/><path d="M495.7656,793.166 Q495.9219,792.9473 496.1094,792.8379 Q496.2969,792.7285 496.5156,792.7285 Q496.8906,792.7285 497.125,792.9941 Q497.3594,793.2441 497.3594,793.8535 L497.3594,795.3066 Q497.3594,795.916 497.125,796.1816 Q496.8906,796.4473 496.5156,796.4473 Q496.1719,796.4473 495.9688,796.2441 Q495.7656,796.0566 495.6563,795.541 Q495.6094,795.1816 495.4219,794.9941 Q495.0938,794.6191 494.4844,794.4004 Q493.875,794.1816 493.25,794.1816 Q492.4844,794.1816 491.8438,794.5098 Q491.2188,794.8379 490.7188,795.5879 Q490.2344,796.3379 490.2344,797.3691 L490.2344,798.4629 Q490.2344,799.6973 491.125,800.5254 Q492.0156,801.3379 493.6094,801.3379 Q494.5469,801.3379 495.2031,801.0879 Q495.5938,800.9316 496.0156,800.4941 Q496.2813,800.2285 496.4219,800.1504 Q496.5781,800.0723 496.7813,800.0723 Q497.1094,800.0723 497.3594,800.3379 Q497.625,800.5879 497.625,800.9316 Q497.625,801.2754 497.2813,801.6816 Q496.7813,802.2598 495.9844,802.5879 Q494.9063,803.041 493.6094,803.041 Q492.0938,803.041 490.8906,802.416 Q489.9063,801.916 489.2188,800.8535 Q488.5313,799.7754 488.5313,798.4941 L488.5313,797.3379 Q488.5313,796.0098 489.1406,794.8691 Q489.7656,793.7129 490.8594,793.1035 Q491.9531,792.4785 493.1875,792.4785 Q493.9219,792.4785 494.5625,792.6504 Q495.2188,792.8066 495.7656,793.166 Z " fill="#000000"/><text fill="#000000" font-family="sans-serif" font-size="12" font-style="italic" lengthAdjust="spacing" textLength="44" x="505" y="792.9492">&#171;Entity&#187;</text><text fill="#000000" font-family="sans-serif" font-size="14" lengthAdjust="spacing" textLength="40" x="507" y="811.0684">Phase</text><line style="stroke:#181818;stroke-width:0.5;" x1="479" x2="549" y1="819.582" y2="819.582"/></g><!--class PhaseType--><g id="elem_PhaseType"><rect codeLine="44" fill="#F1F1F1" height="161.6484" id="PhaseType" rx="2.5" ry="2.5" style="stroke:#181818;stroke-width:0.5;" width="113" x="257.5" y="553"/><ellipse cx="272.5" cy="583.2715" fill="#EB937F" rx="11" ry="11" style="stroke:#181818;stroke-width:1.0;"/><path d="M271.3594,584.0684 L271.3594,586.5684 L275.6875,586.5684 L275.6875,585.6465 Q275.6875,585.0371 275.9219,584.7715 Q276.1719,584.5059 276.5469,584.5059 Q276.9219,584.5059 277.1563,584.7715 Q277.3906,585.0371 277.3906,585.6465 L277.3906,588.2715 L269.3906,588.2715 Q268.7656,588.2715 268.5,588.0371 Q268.25,587.8027 268.25,587.4121 Q268.25,587.0371 268.5156,586.8027 Q268.7813,586.5684 269.3906,586.5684 L269.6563,586.5684 L269.6563,579.9121 L269.3906,579.9121 Q268.7656,579.9121 268.5,579.6777 Q268.25,579.4434 268.25,579.0527 Q268.25,578.6777 268.5,578.4434 Q268.7656,578.209 269.3906,578.209 L277.0156,578.209 L277.0156,580.8027 Q277.0156,581.4121 276.7813,581.6777 Q276.5625,581.9277 276.1719,581.9277 Q275.7969,581.9277 275.5625,581.6777 Q275.3281,581.4121 275.3281,580.8027 L275.3281,579.9121 L271.3594,579.9121 L271.3594,582.3652 L272.8438,582.3652 Q272.8438,581.709 272.9688,581.5215 Q273.2344,581.1152 273.7031,581.1152 Q274.0781,581.1152 274.3125,581.3809 Q274.5469,581.6309 274.5469,582.2402 L274.5469,584.209 Q274.5469,584.7559 274.4219,584.9434 Q274.1563,585.334 273.7031,585.334 Q273.2344,585.334 272.9688,584.9277 Q272.8438,584.7402 272.8438,584.0684 L271.3594,584.0684 Z " fill="#000000"/><text fill="#000000" font-family="sans-serif" font-size="12" font-style="italic" lengthAdjust="spacing" textLength="82" x="286" y="570.9492">&#171;Enumerated&#187;</text><text fill="#000000" font-family="sans-serif" font-size="12" font-style="italic" lengthAdjust="spacing" textLength="85" x="284.5" y="586.9102">&#171;Value Object&#187;</text><text fill="#000000" font-family="sans-serif" font-size="14" lengthAdjust="spacing" textLength="72" x="291" y="605.0293">PhaseType</text><line style="stroke:#181818;stroke-width:0.5;" x1="258.5" x2="369.5" y1="613.543" y2="613.543"/><text fill="#000000" font-family="sans-serif" font-size="14" lengthAdjust="spacing" textLength="89" x="263.5" y="632.6504">APPLICATION</text><text fill="#000000" font-family="sans-serif" font-size="14" lengthAdjust="spacing" textLength="79" x="263.5" y="651.2715">SCREENING</text><text fill="#000000" font-family="sans-serif" font-size="14" lengthAdjust="spacing" textLength="83" x="263.5" y="669.8926">INTERVIEWS</text><text fill="#000000" font-family="sans-serif" font-size="14" lengthAdjust="spacing" textLength="65" x="263.5" y="688.5137">ANALYSIS</text><text fill="#000000" font-family="sans-serif" font-size="14" lengthAdjust="spacing" textLength="54" x="263.5" y="707.1348">RESULT</text></g><!--reverse link JobOpening to JobReference--><g id="link_JobOpening_JobReference"><path codeLine="58" d="M394.67,254.23 C394.67,282.59 394.67,306 394.67,306 C394.67,306 233.66,306 143.09,306 " fill="none" id="JobOpening-backto-JobReference" style="stroke:#181818;stroke-width:1.0;"/><polygon fill="#181818" points="394.67,242.23,390.67,248.23,394.67,254.23,398.67,248.23,394.67,242.23" style="stroke:#181818;stroke-width:1.0;"/><text fill="#000000" font-family="sans-serif" font-size="13" lengthAdjust="spacing" textLength="7" x="383.5575" y="263.4802">1</text><text fill="#000000" font-family="sans-serif" font-size="13" lengthAdjust="spacing" textLength="7" x="150.84" y="298.3208">1</text></g><!--reverse link JobOpening to TitleOrFunction--><g id="link_JobOpening_TitleOrFunction"><path codeLine="59" d="M339.65,208 C311.06,208 295.75,208 295.75,208 C295.75,208 295.75,272.24 295.75,309.87 " fill="none" id="JobOpening-backto-TitleOrFunction" style="stroke:#181818;stroke-width:1.0;"/><polygon fill="#181818" points="351.65,208,345.65,204,339.65,208,345.65,212,351.65,208" style="stroke:#181818;stroke-width:1.0;"/><text fill="#000000" font-family="sans-serif" font-size="13" lengthAdjust="spacing" textLength="7" x="336.8048" y="204.1466">1</text><text fill="#000000" font-family="sans-serif" font-size="13" lengthAdjust="spacing" textLength="7" x="300.1391" y="298.8565">1</text></g><!--link ContractType to JobOpening--><g id="link_ContractType_JobOpening"><path codeLine="60" d="M456,113.07 C456,131.58 456,142.31 456,160.83 " fill="none" id="ContractType-to-JobOpening" style="stroke:#181818;stroke-width:1.0;"/><polygon fill="#181818" points="456,172.83,460,166.83,456,160.83,452,166.83,456,172.83" style="stroke:#181818;stroke-width:1.0;"/><text fill="#000000" font-family="sans-serif" font-size="13" lengthAdjust="spacing" textLength="7" x="442.3828" y="134.5653">1</text><text fill="#000000" font-family="sans-serif" font-size="13" lengthAdjust="spacing" textLength="7" x="455.9578" y="161.7003">1</text></g><!--link Mode to JobOpening--><g id="link_Mode_JobOpening"><path codeLine="61" d="M374.25,113.07 C374.25,131.58 374.25,142.31 374.25,160.83 " fill="none" id="Mode-to-JobOpening" style="stroke:#181818;stroke-width:1.0;"/><polygon fill="#181818" points="374.25,172.83,378.25,166.83,374.25,160.83,370.25,166.83,374.25,172.83" style="stroke:#181818;stroke-width:1.0;"/><text fill="#000000" font-family="sans-serif" font-size="13" lengthAdjust="spacing" textLength="7" x="372.5352" y="134.5653">1</text><text fill="#000000" font-family="sans-serif" font-size="13" lengthAdjust="spacing" textLength="7" x="358.6242" y="161.7003">1</text></g><!--reverse link JobOpening to Description--><g id="link_JobOpening_Description"><path codeLine="62" d="M492.18,219 C521.26,219 537.25,219 537.25,219 C537.25,219 537.25,275.17 537.25,309.84 " fill="none" id="JobOpening-backto-Description" style="stroke:#181818;stroke-width:1.0;"/><polygon fill="#181818" points="480.18,219,486.18,223,492.18,219,486.18,215,480.18,219" style="stroke:#181818;stroke-width:1.0;"/><text fill="#000000" font-family="sans-serif" font-size="13" lengthAdjust="spacing" textLength="7" x="488.0055" y="216.4184">1</text><text fill="#000000" font-family="sans-serif" font-size="13" lengthAdjust="spacing" textLength="7" x="519.3234" y="298.8195">1</text></g><!--reverse link JobOpening to VacanciesNumber--><g id="link_JobOpening_VacanciesNumber"><path codeLine="63" d="M437.33,254.07 C437.33,275.26 437.33,290 437.33,309.61 " fill="none" id="JobOpening-backto-VacanciesNumber" style="stroke:#181818;stroke-width:1.0;"/><polygon fill="#181818" points="437.33,242.07,433.33,248.07,437.33,254.07,441.33,248.07,437.33,242.07" style="stroke:#181818;stroke-width:1.0;"/><text fill="#000000" font-family="sans-serif" font-size="13" lengthAdjust="spacing" textLength="7" x="433.3945" y="263.5653">1</text><text fill="#000000" font-family="sans-serif" font-size="13" lengthAdjust="spacing" textLength="7" x="434.4532" y="298.5364">1</text></g><!--reverse link JobOpeningProcessId to JobOpeningProcess--><g id="link_JobOpeningProcessId_JobOpeningProcess"><path codeLine="68" d="M582.11,634 C593.8,634 599.78,634 611.37,634 " fill="none" id="JobOpeningProcessId-backto-JobOpeningProcess" style="stroke:#181818;stroke-width:1.0;"/><polygon fill="#181818" points="576.11,634,585.11,638,581.11,634,585.11,630,576.11,634" style="stroke:#181818;stroke-width:1.0;"/><text fill="#000000" font-family="sans-serif" font-size="13" lengthAdjust="spacing" textLength="7" x="584.0018" y="630.3046">1</text><text fill="#000000" font-family="sans-serif" font-size="13" lengthAdjust="spacing" textLength="7" x="596.4467" y="630.2538">1</text></g><!--link JobOpening to JobOpeningProcess--><g id="link_JobOpening_JobOpeningProcess"><path codeLine="69" d="M480.27,196 C565.15,196 704,196 704,196 C704,196 704,489.67 704,593.26 " fill="none" id="JobOpening-to-JobOpeningProcess" style="stroke:#181818;stroke-width:1.0;"/><polygon fill="#181818" points="704,599.26,708,590.26,704,594.26,700,590.26,704,599.26" style="stroke:#181818;stroke-width:1.0;"/><text fill="#000000" font-family="sans-serif" font-size="13" lengthAdjust="spacing" textLength="21" x="682" y="281.7983">has</text><text fill="#000000" font-family="sans-serif" font-size="13" lengthAdjust="spacing" textLength="7" x="488.1059" y="190.7591">1</text><text fill="#000000" font-family="sans-serif" font-size="13" lengthAdjust="spacing" textLength="5" x="701.0016" y="588.117">*</text></g><!--link Phase to JobOpeningProcessStatus--><g id="link_Phase_JobOpeningProcessStatus"><path codeLine="70" d="M487.75,828.28 C487.75,846.29 487.75,863.94 487.75,881.91 " fill="none" id="Phase-to-JobOpeningProcessStatus" style="stroke:#181818;stroke-width:1.0;"/><polygon fill="#181818" points="487.75,887.91,491.75,878.91,487.75,882.91,483.75,878.91,487.75,887.91" style="stroke:#181818;stroke-width:1.0;"/><text fill="#000000" font-family="sans-serif" font-size="13" lengthAdjust="spacing" textLength="7" x="474.6141" y="849.6579">1</text><text fill="#000000" font-family="sans-serif" font-size="13" lengthAdjust="spacing" textLength="7" x="500.6953" y="876.9057">1</text></g><!--link Phase to JobOpeningProcessStage--><g id="link_Phase_JobOpeningProcessStage"><path codeLine="71" d="M541.5,828.28 C541.5,846.29 541.5,863.94 541.5,881.91 " fill="none" id="Phase-to-JobOpeningProcessStage" style="stroke:#181818;stroke-width:1.0;"/><polygon fill="#181818" points="541.5,887.91,545.5,878.91,541.5,882.91,537.5,878.91,541.5,887.91" style="stroke:#181818;stroke-width:1.0;"/><text fill="#000000" font-family="sans-serif" font-size="13" lengthAdjust="spacing" textLength="7" x="539.45" y="849.6579">1</text><text fill="#000000" font-family="sans-serif" font-size="13" lengthAdjust="spacing" textLength="7" x="517.9344" y="878.7511">1</text></g><!--link JobOpeningProcess to Phase--><g id="link_JobOpeningProcess_Phase"><path codeLine="72" d="M670.25,668.81 C670.25,718.02 670.25,802 670.25,802 C670.25,802 602.4,802 556.24,802 " fill="none" id="JobOpeningProcess-to-Phase" style="stroke:#181818;stroke-width:1.0;"/><polygon fill="#181818" points="550.24,802,559.24,806,555.24,802,559.24,798,550.24,802" style="stroke:#181818;stroke-width:1.0;"/><text fill="#000000" font-family="sans-serif" font-size="13" lengthAdjust="spacing" textLength="7" x="659.2336" y="690.0735">1</text><text fill="#000000" font-family="sans-serif" font-size="13" lengthAdjust="spacing" textLength="7" x="558.0638" y="797.5231">1</text></g><!--link PhaseType to Phase--><g id="link_PhaseType_Phase"><path codeLine="74" d="M370.51,692 C429.65,692 514,692 514,692 C514,692 514,736.59 514,768.99 " fill="none" id="PhaseType-to-Phase" style="stroke:#181818;stroke-width:1.0;"/><polygon fill="#181818" points="514,774.99,518,765.99,514,769.99,510,765.99,514,774.99" style="stroke:#181818;stroke-width:1.0;"/><text fill="#000000" font-family="sans-serif" font-size="13" lengthAdjust="spacing" textLength="7" x="378.5738" y="695.7231">1</text><text fill="#000000" font-family="sans-serif" font-size="13" lengthAdjust="spacing" textLength="5" x="508.3906" y="763.571">*</text></g><!--SRC=[bLJ1Zjem5BpxAvxe0Mcb5FMA8YH4qrKgDb2Wh7fqdBV1RM97jjCLelnxJMA5R9O0wrFqtepVs3FES6TCeSUZKP5HOSey-ynaFc8PrTfBE4qLpGdPyGGXHxEJYIRw3nS5jNN8k42pBn2aiYroNWgPeIBD40RVPGoB0WKNwG0-nJ5ZbCA14B2hcW8MuG2-FqrJXIar22ifpMJY-u4mtEmdayEnmrdX2oeK37q_JD2XV7zBin9X4V-s4hgi3JSPBjItKZ33fUW3eoXpc4bX56LcOyztKb7cgAokvDQC9vdSWMyHjfHHmJZggCnZLDTt_ugQALvSKpySFj5zZ91AC192OL3zvVXQ2Si8EVRQ0qib6MfjRMBiPDJXeaaETSEhAymmkU7O5UxQK5Fg3tDIl4fPxgZ6blogTLh7Snugp1rXQBZJvN8UpgQRS14rjVLi5GHH63qsbJ3Q1Ajj63olpyHeEl-r3i-5LR3-ET-GMj3HFR7s2u31bm5uPU4zL5_d6o2TnFS3st6lKUynfmJrzLh1x1_IYNe_q1tmhOyrFCCNuqqwX2PPBPPJQfT5Frn0mnYifwGore5xzgrJToSonJxfZbHjGqWJgBgPo5VXb3e06GwRrriztdSNyBOTqHpTcIupgn5kneyITMNM69Yrdd9nOZLL_v_dTRQto1WpAL9j_okjV_r_]--></g></svg>