<?xml version="1.0" encoding="us-ascii" standalone="no"?><svg xmlns="http://www.w3.org/2000/svg" xmlns:xlink="http://www.w3.org/1999/xlink" contentStyleType="text/css" height="880.2px" preserveAspectRatio="none" style="width:1015px;height:880px;background:#FFFFFF;" version="1.1" viewBox="0 0 1015 880" width="1015.8px" zoomAndPan="magnify"><defs/><g><!--cluster Job Opening--><g id="cluster_Job Opening"><rect fill="#BBCCAA" height="262.2" rx="1.5" ry="1.5" style="stroke:#181818;stroke-width:0.6;" width="388.2" x="250.2" y="223.2"/><text fill="#000000" font-family="sans-serif" font-size="8.4" font-weight="bold" lengthAdjust="spacing" textLength="54" x="417.3" y="233.4645">Job Opening</text></g><!--cluster Job Opening Application--><g id="cluster_Job Opening Application"><rect fill="#AACCBB" height="151.2" rx="1.5" ry="1.5" style="stroke:#181818;stroke-width:0.6;" width="574.2" x="4.2" y="4.2"/><text fill="#000000" font-family="sans-serif" font-size="8.4" font-weight="bold" lengthAdjust="spacing" textLength="103.2" x="239.7" y="14.4645">Job Opening Application</text></g><!--cluster  Notification --><g id="cluster_ Notification "><rect fill="#CCBBCC" height="151.2" rx="1.5" ry="1.5" style="stroke:#181818;stroke-width:0.6;" width="354" x="658.2" y="590.4"/><text fill="#000000" font-family="sans-serif" font-size="8.4" font-weight="bold" lengthAdjust="spacing" textLength="48" x="811.2" y="600.6645">Notification</text></g><!--cluster Job Opening Process--><g id="cluster_Job Opening Process"><rect fill="#CCBBCC" height="286.2" rx="1.5" ry="1.5" style="stroke:#181818;stroke-width:0.6;" width="238.2" x="405.6" y="590.4"/><text fill="#000000" font-family="sans-serif" font-size="8.4" font-weight="bold" lengthAdjust="spacing" textLength="90.6" x="479.4" y="600.6645">Job Opening Process</text></g><!--class JobOpening--><g id="elem_JobOpening"><rect codeLine="7" fill="#F1F1F1" height="41.1258" id="JobOpening" rx="1.5" ry="1.5" style="stroke:#181818;stroke-width:0.3;" width="76.8" x="495" y="356.4"/><ellipse cx="504" cy="374.5629" fill="#ADD1B2" rx="6.6" ry="6.6" style="stroke:#181818;stroke-width:0.6;"/><path d="M505.6594,372.0879 Q505.7531,371.9566 505.8656,371.891 Q505.9781,371.8254 506.1094,371.8254 Q506.3344,371.8254 506.475,371.9848 Q506.6156,372.1348 506.6156,372.5004 L506.6156,373.3723 Q506.6156,373.7379 506.475,373.8973 Q506.3344,374.0566 506.1094,374.0566 Q505.9031,374.0566 505.7813,373.9348 Q505.6594,373.8223 505.5938,373.5129 Q505.5656,373.2973 505.4531,373.1848 Q505.2562,372.9598 504.8906,372.8285 Q504.525,372.6973 504.15,372.6973 Q503.6906,372.6973 503.3063,372.8941 Q502.9313,373.091 502.6312,373.541 Q502.3406,373.991 502.3406,374.6098 L502.3406,375.266 Q502.3406,376.0066 502.875,376.5035 Q503.4094,376.991 504.3656,376.991 Q504.9281,376.991 505.3219,376.841 Q505.5563,376.7473 505.8094,376.4848 Q505.9688,376.3254 506.0531,376.2785 Q506.1469,376.2316 506.2687,376.2316 Q506.4656,376.2316 506.6156,376.391 Q506.775,376.541 506.775,376.7473 Q506.775,376.9535 506.5687,377.1973 Q506.2687,377.5441 505.7906,377.741 Q505.1437,378.0129 504.3656,378.0129 Q503.4562,378.0129 502.7344,377.6379 Q502.1437,377.3379 501.7313,376.7004 Q501.3187,376.0535 501.3187,375.2848 L501.3187,374.591 Q501.3187,373.7941 501.6844,373.1098 Q502.0594,372.416 502.7156,372.0504 Q503.3719,371.6754 504.1125,371.6754 Q504.5531,371.6754 504.9375,371.7785 Q505.3312,371.8723 505.6594,372.0879 Z " fill="#000000"/><text fill="#000000" font-family="sans-serif" font-size="7.2" font-style="italic" lengthAdjust="spacing" textLength="60" x="511.2" y="367.1695">&#171;Aggregate Root&#187;</text><text fill="#000000" font-family="sans-serif" font-size="7.2" font-style="italic" lengthAdjust="spacing" textLength="26.4" x="528" y="376.7461">&#171;Entity&#187;</text><text fill="#000000" font-family="sans-serif" font-size="8.4" lengthAdjust="spacing" textLength="45.6" x="518.4" y="387.6176">JobOpening</text><line style="stroke:#181818;stroke-width:0.3;" x1="495.6" x2="571.2" y1="392.7258" y2="392.7258"/></g><!--class JobReference--><g id="elem_JobReference"><rect codeLine="9" fill="#F1F1F1" height="41.1258" id="JobReference" rx="1.5" ry="1.5" style="stroke:#181818;stroke-width:0.3;" width="72" x="259.8" y="434.4"/><ellipse cx="268.8" cy="452.5629" fill="#ADD1B2" rx="6.6" ry="6.6" style="stroke:#181818;stroke-width:0.6;"/><path d="M270.4594,450.0879 Q270.5531,449.9566 270.6656,449.891 Q270.7781,449.8254 270.9094,449.8254 Q271.1344,449.8254 271.275,449.9848 Q271.4156,450.1348 271.4156,450.5004 L271.4156,451.3723 Q271.4156,451.7379 271.275,451.8973 Q271.1344,452.0566 270.9094,452.0566 Q270.7031,452.0566 270.5813,451.9348 Q270.4594,451.8223 270.3938,451.5129 Q270.3656,451.2973 270.2531,451.1848 Q270.0563,450.9598 269.6906,450.8285 Q269.325,450.6973 268.95,450.6973 Q268.4906,450.6973 268.1063,450.8941 Q267.7313,451.091 267.4313,451.541 Q267.1406,451.991 267.1406,452.6098 L267.1406,453.266 Q267.1406,454.0066 267.675,454.5035 Q268.2094,454.991 269.1656,454.991 Q269.7281,454.991 270.1219,454.841 Q270.3563,454.7473 270.6094,454.4848 Q270.7688,454.3254 270.8531,454.2785 Q270.9469,454.2316 271.0687,454.2316 Q271.2656,454.2316 271.4156,454.391 Q271.575,454.541 271.575,454.7473 Q271.575,454.9535 271.3688,455.1973 Q271.0687,455.5441 270.5906,455.741 Q269.9437,456.0129 269.1656,456.0129 Q268.2562,456.0129 267.5344,455.6379 Q266.9437,455.3379 266.5313,454.7004 Q266.1188,454.0535 266.1188,453.2848 L266.1188,452.591 Q266.1188,451.7941 266.4844,451.1098 Q266.8594,450.416 267.5156,450.0504 Q268.1719,449.6754 268.9125,449.6754 Q269.3531,449.6754 269.7375,449.7785 Q270.1312,449.8723 270.4594,450.0879 Z " fill="#000000"/><text fill="#000000" font-family="sans-serif" font-size="7.2" font-style="italic" lengthAdjust="spacing" textLength="32.4" x="287.4" y="445.1695">&#171;Identity&#187;</text><text fill="#000000" font-family="sans-serif" font-size="7.2" font-style="italic" lengthAdjust="spacing" textLength="51" x="278.1" y="454.7461">&#171;Value Object&#187;</text><text fill="#000000" font-family="sans-serif" font-size="8.4" lengthAdjust="spacing" textLength="52.8" x="277.2" y="465.6176">JobReference</text><line style="stroke:#181818;stroke-width:0.3;" x1="260.4" x2="331.2" y1="470.7258" y2="470.7258"/></g><!--class TitleOrFunction--><g id="elem_TitleOrFunction"><rect codeLine="11" fill="#F1F1F1" height="31.5492" id="TitleOrFunction" rx="1.5" ry="1.5" style="stroke:#181818;stroke-width:0.3;" width="78" x="352.8" y="439.2"/><ellipse cx="361.8" cy="452.5746" fill="#ADD1B2" rx="6.6" ry="6.6" style="stroke:#181818;stroke-width:0.6;"/><path d="M363.4594,450.0996 Q363.5531,449.9684 363.6656,449.9027 Q363.7781,449.8371 363.9094,449.8371 Q364.1344,449.8371 364.275,449.9965 Q364.4156,450.1465 364.4156,450.5121 L364.4156,451.384 Q364.4156,451.7496 364.275,451.909 Q364.1344,452.0684 363.9094,452.0684 Q363.7031,452.0684 363.5813,451.9465 Q363.4594,451.834 363.3938,451.5246 Q363.3656,451.309 363.2531,451.1965 Q363.0563,450.9715 362.6906,450.8402 Q362.325,450.709 361.95,450.709 Q361.4906,450.709 361.1063,450.9059 Q360.7313,451.1027 360.4313,451.5527 Q360.1406,452.0027 360.1406,452.6215 L360.1406,453.2777 Q360.1406,454.0184 360.675,454.5152 Q361.2094,455.0027 362.1656,455.0027 Q362.7281,455.0027 363.1219,454.8527 Q363.3563,454.759 363.6094,454.4965 Q363.7688,454.3371 363.8531,454.2902 Q363.9469,454.2434 364.0687,454.2434 Q364.2656,454.2434 364.4156,454.4027 Q364.575,454.5527 364.575,454.759 Q364.575,454.9652 364.3688,455.209 Q364.0687,455.5559 363.5906,455.7527 Q362.9437,456.0246 362.1656,456.0246 Q361.2562,456.0246 360.5344,455.6496 Q359.9437,455.3496 359.5313,454.7121 Q359.1188,454.0652 359.1188,453.2965 L359.1188,452.6027 Q359.1188,451.8059 359.4844,451.1215 Q359.8594,450.4277 360.5156,450.0621 Q361.1719,449.6871 361.9125,449.6871 Q362.3531,449.6871 362.7375,449.7902 Q363.1312,449.884 363.4594,450.0996 Z " fill="#000000"/><text fill="#000000" font-family="sans-serif" font-size="7.2" font-style="italic" lengthAdjust="spacing" textLength="51" x="374.1" y="449.9695">&#171;Value Object&#187;</text><text fill="#000000" font-family="sans-serif" font-size="8.4" lengthAdjust="spacing" textLength="58.8" x="370.2" y="460.841">TitleOrFunction</text><line style="stroke:#181818;stroke-width:0.3;" x1="353.4" x2="430.2" y1="465.9492" y2="465.9492"/></g><!--class ContractType--><g id="elem_ContractType"><rect codeLine="13" fill="#F1F1F1" height="63.4711" id="ContractType" rx="1.5" ry="1.5" style="stroke:#181818;stroke-width:0.3;" width="70.8" x="498" y="250.8"/><ellipse cx="507" cy="268.9629" fill="#EB937F" rx="6.6" ry="6.6" style="stroke:#181818;stroke-width:0.6;"/><path d="M506.3156,269.441 L506.3156,270.941 L508.9125,270.941 L508.9125,270.3879 Q508.9125,270.0223 509.0531,269.8629 Q509.2031,269.7035 509.4281,269.7035 Q509.6531,269.7035 509.7938,269.8629 Q509.9344,270.0223 509.9344,270.3879 L509.9344,271.9629 L505.1344,271.9629 Q504.7594,271.9629 504.6,271.8223 Q504.45,271.6816 504.45,271.4473 Q504.45,271.2223 504.6094,271.0816 Q504.7687,270.941 505.1344,270.941 L505.2938,270.941 L505.2938,266.9473 L505.1344,266.9473 Q504.7594,266.9473 504.6,266.8066 Q504.45,266.666 504.45,266.4316 Q504.45,266.2066 504.6,266.066 Q504.7594,265.9254 505.1344,265.9254 L509.7094,265.9254 L509.7094,267.4816 Q509.7094,267.8473 509.5687,268.0066 Q509.4375,268.1566 509.2031,268.1566 Q508.9781,268.1566 508.8375,268.0066 Q508.6969,267.8473 508.6969,267.4816 L508.6969,266.9473 L506.3156,266.9473 L506.3156,268.4191 L507.2062,268.4191 Q507.2062,268.0254 507.2813,267.9129 Q507.4406,267.6691 507.7219,267.6691 Q507.9469,267.6691 508.0875,267.8285 Q508.2281,267.9785 508.2281,268.3441 L508.2281,269.5254 Q508.2281,269.8535 508.1531,269.966 Q507.9938,270.2004 507.7219,270.2004 Q507.4406,270.2004 507.2813,269.9566 Q507.2062,269.8441 507.2062,269.441 L506.3156,269.441 Z " fill="#000000"/><text fill="#000000" font-family="sans-serif" font-size="7.2" font-style="italic" lengthAdjust="spacing" textLength="49.2" x="516.6" y="261.5695">&#171;Enumerated&#187;</text><text fill="#000000" font-family="sans-serif" font-size="7.2" font-style="italic" lengthAdjust="spacing" textLength="51" x="515.7" y="271.1461">&#171;Value Object&#187;</text><text fill="#000000" font-family="sans-serif" font-size="8.4" lengthAdjust="spacing" textLength="51.6" x="515.4" y="282.0176">ContractType</text><line style="stroke:#181818;stroke-width:0.3;" x1="498.6" x2="568.2" y1="287.1258" y2="287.1258"/><text fill="#000000" font-family="sans-serif" font-size="8.4" lengthAdjust="spacing" textLength="44.4" x="501.6" y="298.5902">FULL_TIME</text><text fill="#000000" font-family="sans-serif" font-size="8.4" lengthAdjust="spacing" textLength="46.2" x="501.6" y="309.7629">PART_TIME</text></g><!--class Mode--><g id="elem_Mode"><rect codeLine="18" fill="#F1F1F1" height="74.6438" id="Mode" rx="1.5" ry="1.5" style="stroke:#181818;stroke-width:0.3;" width="67.8" x="408.9" y="245.4"/><ellipse cx="417.9" cy="263.5629" fill="#EB937F" rx="6.6" ry="6.6" style="stroke:#181818;stroke-width:0.6;"/><path d="M417.2156,264.041 L417.2156,265.541 L419.8125,265.541 L419.8125,264.9879 Q419.8125,264.6223 419.9531,264.4629 Q420.1031,264.3035 420.3281,264.3035 Q420.5531,264.3035 420.6937,264.4629 Q420.8344,264.6223 420.8344,264.9879 L420.8344,266.5629 L416.0344,266.5629 Q415.6594,266.5629 415.5,266.4223 Q415.35,266.2816 415.35,266.0473 Q415.35,265.8223 415.5094,265.6816 Q415.6688,265.541 416.0344,265.541 L416.1937,265.541 L416.1937,261.5473 L416.0344,261.5473 Q415.6594,261.5473 415.5,261.4066 Q415.35,261.266 415.35,261.0316 Q415.35,260.8066 415.5,260.666 Q415.6594,260.5254 416.0344,260.5254 L420.6094,260.5254 L420.6094,262.0816 Q420.6094,262.4473 420.4688,262.6066 Q420.3375,262.7566 420.1031,262.7566 Q419.8781,262.7566 419.7375,262.6066 Q419.5969,262.4473 419.5969,262.0816 L419.5969,261.5473 L417.2156,261.5473 L417.2156,263.0191 L418.1063,263.0191 Q418.1063,262.6254 418.1813,262.5129 Q418.3406,262.2691 418.6219,262.2691 Q418.8469,262.2691 418.9875,262.4285 Q419.1281,262.5785 419.1281,262.9441 L419.1281,264.1254 Q419.1281,264.4535 419.0531,264.566 Q418.8938,264.8004 418.6219,264.8004 Q418.3406,264.8004 418.1813,264.5566 Q418.1063,264.4441 418.1063,264.041 L417.2156,264.041 Z " fill="#000000"/><text fill="#000000" font-family="sans-serif" font-size="7.2" font-style="italic" lengthAdjust="spacing" textLength="49.2" x="426" y="256.1695">&#171;Enumerated&#187;</text><text fill="#000000" font-family="sans-serif" font-size="7.2" font-style="italic" lengthAdjust="spacing" textLength="51" x="425.1" y="265.7461">&#171;Value Object&#187;</text><text fill="#000000" font-family="sans-serif" font-size="8.4" lengthAdjust="spacing" textLength="21" x="440.1" y="276.6176">Mode</text><line style="stroke:#181818;stroke-width:0.3;" x1="409.5" x2="476.1" y1="281.7258" y2="281.7258"/><text fill="#000000" font-family="sans-serif" font-size="8.4" lengthAdjust="spacing" textLength="35.4" x="412.5" y="293.1902">REMOTE</text><text fill="#000000" font-family="sans-serif" font-size="8.4" lengthAdjust="spacing" textLength="33" x="412.5" y="304.3629">ON-SITE</text><text fill="#000000" font-family="sans-serif" font-size="8.4" lengthAdjust="spacing" textLength="30" x="412.5" y="315.5355">HYBRID</text></g><!--class VacanciesNumber--><g id="elem_VacanciesNumber"><rect codeLine="25" fill="#F1F1F1" height="31.5492" id="VacanciesNumber" rx="1.5" ry="1.5" style="stroke:#181818;stroke-width:0.3;" width="87.6" x="451.8" y="439.2"/><ellipse cx="460.8" cy="452.5746" fill="#ADD1B2" rx="6.6" ry="6.6" style="stroke:#181818;stroke-width:0.6;"/><path d="M462.4594,450.0996 Q462.5531,449.9684 462.6656,449.9027 Q462.7781,449.8371 462.9094,449.8371 Q463.1344,449.8371 463.275,449.9965 Q463.4156,450.1465 463.4156,450.5121 L463.4156,451.384 Q463.4156,451.7496 463.275,451.909 Q463.1344,452.0684 462.9094,452.0684 Q462.7031,452.0684 462.5812,451.9465 Q462.4594,451.834 462.3937,451.5246 Q462.3656,451.309 462.2531,451.1965 Q462.0563,450.9715 461.6906,450.8402 Q461.325,450.709 460.95,450.709 Q460.4906,450.709 460.1063,450.9059 Q459.7313,451.1027 459.4313,451.5527 Q459.1406,452.0027 459.1406,452.6215 L459.1406,453.2777 Q459.1406,454.0184 459.675,454.5152 Q460.2094,455.0027 461.1656,455.0027 Q461.7281,455.0027 462.1219,454.8527 Q462.3563,454.759 462.6094,454.4965 Q462.7687,454.3371 462.8531,454.2902 Q462.9469,454.2434 463.0687,454.2434 Q463.2656,454.2434 463.4156,454.4027 Q463.575,454.5527 463.575,454.759 Q463.575,454.9652 463.3688,455.209 Q463.0687,455.5559 462.5906,455.7527 Q461.9437,456.0246 461.1656,456.0246 Q460.2562,456.0246 459.5344,455.6496 Q458.9437,455.3496 458.5313,454.7121 Q458.1188,454.0652 458.1188,453.2965 L458.1188,452.6027 Q458.1188,451.8059 458.4844,451.1215 Q458.8594,450.4277 459.5156,450.0621 Q460.1719,449.6871 460.9125,449.6871 Q461.3531,449.6871 461.7375,449.7902 Q462.1312,449.884 462.4594,450.0996 Z " fill="#000000"/><text fill="#000000" font-family="sans-serif" font-size="7.2" font-style="italic" lengthAdjust="spacing" textLength="51" x="477.9" y="449.9695">&#171;Value Object&#187;</text><text fill="#000000" font-family="sans-serif" font-size="8.4" lengthAdjust="spacing" textLength="68.4" x="469.2" y="460.841">VacanciesNumber</text><line style="stroke:#181818;stroke-width:0.3;" x1="452.4" x2="538.8" y1="465.9492" y2="465.9492"/></g><!--class Description--><g id="elem_Description"><rect codeLine="27" fill="#F1F1F1" height="31.5492" id="Description" rx="1.5" ry="1.5" style="stroke:#181818;stroke-width:0.3;" width="67.8" x="560.7" y="439.2"/><ellipse cx="569.7" cy="452.5746" fill="#ADD1B2" rx="6.6" ry="6.6" style="stroke:#181818;stroke-width:0.6;"/><path d="M571.3594,450.0996 Q571.4531,449.9684 571.5656,449.9027 Q571.6781,449.8371 571.8094,449.8371 Q572.0344,449.8371 572.175,449.9965 Q572.3156,450.1465 572.3156,450.5121 L572.3156,451.384 Q572.3156,451.7496 572.175,451.909 Q572.0344,452.0684 571.8094,452.0684 Q571.6031,452.0684 571.4812,451.9465 Q571.3594,451.834 571.2937,451.5246 Q571.2656,451.309 571.1531,451.1965 Q570.9563,450.9715 570.5906,450.8402 Q570.225,450.709 569.85,450.709 Q569.3906,450.709 569.0063,450.9059 Q568.6313,451.1027 568.3313,451.5527 Q568.0406,452.0027 568.0406,452.6215 L568.0406,453.2777 Q568.0406,454.0184 568.575,454.5152 Q569.1094,455.0027 570.0656,455.0027 Q570.6281,455.0027 571.0219,454.8527 Q571.2563,454.759 571.5094,454.4965 Q571.6687,454.3371 571.7531,454.2902 Q571.8469,454.2434 571.9688,454.2434 Q572.1656,454.2434 572.3156,454.4027 Q572.475,454.5527 572.475,454.759 Q572.475,454.9652 572.2688,455.209 Q571.9688,455.5559 571.4906,455.7527 Q570.8438,456.0246 570.0656,456.0246 Q569.1563,456.0246 568.4344,455.6496 Q567.8438,455.3496 567.4313,454.7121 Q567.0188,454.0652 567.0188,453.2965 L567.0188,452.6027 Q567.0188,451.8059 567.3844,451.1215 Q567.7594,450.4277 568.4156,450.0621 Q569.0719,449.6871 569.8125,449.6871 Q570.2531,449.6871 570.6375,449.7902 Q571.0313,449.884 571.3594,450.0996 Z " fill="#000000"/><text fill="#000000" font-family="sans-serif" font-size="7.2" font-style="italic" lengthAdjust="spacing" textLength="51" x="576.9" y="449.9695">&#171;Value Object&#187;</text><text fill="#000000" font-family="sans-serif" font-size="8.4" lengthAdjust="spacing" textLength="42.6" x="581.1" y="460.841">Description</text><line style="stroke:#181818;stroke-width:0.3;" x1="561.3" x2="627.9" y1="465.9492" y2="465.9492"/></g><!--class Application--><g id="elem_Application"><rect codeLine="34" fill="#F1F1F1" height="41.1258" id="Application" rx="1.5" ry="1.5" style="stroke:#181818;stroke-width:0.3;" width="76.8" x="285.6" y="26.4"/><ellipse cx="294.6" cy="44.5629" fill="#ADD1B2" rx="6.6" ry="6.6" style="stroke:#181818;stroke-width:0.6;"/><path d="M296.2594,42.0879 Q296.3531,41.9566 296.4656,41.891 Q296.5781,41.8254 296.7094,41.8254 Q296.9344,41.8254 297.075,41.9848 Q297.2156,42.1348 297.2156,42.5004 L297.2156,43.3723 Q297.2156,43.7379 297.075,43.8973 Q296.9344,44.0566 296.7094,44.0566 Q296.5031,44.0566 296.3812,43.9348 Q296.2594,43.8223 296.1937,43.5129 Q296.1656,43.2973 296.0531,43.1848 Q295.8563,42.9598 295.4906,42.8285 Q295.125,42.6973 294.75,42.6973 Q294.2906,42.6973 293.9063,42.8941 Q293.5313,43.091 293.2313,43.541 Q292.9406,43.991 292.9406,44.6098 L292.9406,45.266 Q292.9406,46.0066 293.475,46.5035 Q294.0094,46.991 294.9656,46.991 Q295.5281,46.991 295.9219,46.841 Q296.1563,46.7473 296.4094,46.4848 Q296.5687,46.3254 296.6531,46.2785 Q296.7469,46.2316 296.8688,46.2316 Q297.0656,46.2316 297.2156,46.391 Q297.375,46.541 297.375,46.7473 Q297.375,46.9535 297.1688,47.1973 Q296.8688,47.5441 296.3906,47.741 Q295.7438,48.0129 294.9656,48.0129 Q294.0563,48.0129 293.3344,47.6379 Q292.7438,47.3379 292.3313,46.7004 Q291.9188,46.0535 291.9188,45.2848 L291.9188,44.591 Q291.9188,43.7941 292.2844,43.1098 Q292.6594,42.416 293.3156,42.0504 Q293.9719,41.6754 294.7125,41.6754 Q295.1531,41.6754 295.5375,41.7785 Q295.9313,41.8723 296.2594,42.0879 Z " fill="#000000"/><text fill="#000000" font-family="sans-serif" font-size="7.2" font-style="italic" lengthAdjust="spacing" textLength="60" x="301.8" y="37.1695">&#171;Aggregate Root&#187;</text><text fill="#000000" font-family="sans-serif" font-size="7.2" font-style="italic" lengthAdjust="spacing" textLength="26.4" x="318.6" y="46.7461">&#171;Entity&#187;</text><text fill="#000000" font-family="sans-serif" font-size="8.4" lengthAdjust="spacing" textLength="41.4" x="311.1" y="57.6176">Application</text><line style="stroke:#181818;stroke-width:0.3;" x1="286.2" x2="361.8" y1="62.7258" y2="62.7258"/></g><!--class ApplicationId--><g id="elem_ApplicationId"><rect codeLine="36" fill="#F1F1F1" height="41.1258" id="ApplicationId" rx="1.5" ry="1.5" style="stroke:#181818;stroke-width:0.3;" width="67.8" x="14.1" y="104.4"/><ellipse cx="23.1" cy="122.5629" fill="#ADD1B2" rx="6.6" ry="6.6" style="stroke:#181818;stroke-width:0.6;"/><path d="M24.7594,120.0879 Q24.8531,119.9566 24.9656,119.891 Q25.0781,119.8254 25.2094,119.8254 Q25.4344,119.8254 25.575,119.9848 Q25.7156,120.1348 25.7156,120.5004 L25.7156,121.3723 Q25.7156,121.7379 25.575,121.8973 Q25.4344,122.0566 25.2094,122.0566 Q25.0031,122.0566 24.8812,121.9348 Q24.7594,121.8223 24.6937,121.5129 Q24.6656,121.2973 24.5531,121.1848 Q24.3563,120.9598 23.9906,120.8285 Q23.625,120.6973 23.25,120.6973 Q22.7906,120.6973 22.4063,120.8941 Q22.0313,121.091 21.7313,121.541 Q21.4406,121.991 21.4406,122.6098 L21.4406,123.266 Q21.4406,124.0066 21.975,124.5035 Q22.5094,124.991 23.4656,124.991 Q24.0281,124.991 24.4219,124.841 Q24.6563,124.7473 24.9094,124.4848 Q25.0687,124.3254 25.1531,124.2785 Q25.2469,124.2316 25.3688,124.2316 Q25.5656,124.2316 25.7156,124.391 Q25.875,124.541 25.875,124.7473 Q25.875,124.9535 25.6688,125.1973 Q25.3688,125.5441 24.8906,125.741 Q24.2438,126.0129 23.4656,126.0129 Q22.5563,126.0129 21.8344,125.6379 Q21.2438,125.3379 20.8313,124.7004 Q20.4188,124.0535 20.4188,123.2848 L20.4188,122.591 Q20.4188,121.7941 20.7844,121.1098 Q21.1594,120.416 21.8156,120.0504 Q22.4719,119.6754 23.2125,119.6754 Q23.6531,119.6754 24.0375,119.7785 Q24.4313,119.8723 24.7594,120.0879 Z " fill="#000000"/><text fill="#000000" font-family="sans-serif" font-size="7.2" font-style="italic" lengthAdjust="spacing" textLength="32.4" x="39.6" y="115.1695">&#171;Identity&#187;</text><text fill="#000000" font-family="sans-serif" font-size="7.2" font-style="italic" lengthAdjust="spacing" textLength="51" x="30.3" y="124.7461">&#171;Value Object&#187;</text><text fill="#000000" font-family="sans-serif" font-size="8.4" lengthAdjust="spacing" textLength="48" x="31.8" y="135.6176">ApplicationId</text><line style="stroke:#181818;stroke-width:0.3;" x1="14.7" x2="81.3" y1="140.7258" y2="140.7258"/></g><!--class AttachedEmail--><g id="elem_AttachedEmail"><rect codeLine="38" fill="#F1F1F1" height="31.5492" id="AttachedEmail" rx="1.5" ry="1.5" style="stroke:#181818;stroke-width:0.3;" width="73.2" x="103.2" y="109.2"/><ellipse cx="112.2" cy="122.5746" fill="#ADD1B2" rx="6.6" ry="6.6" style="stroke:#181818;stroke-width:0.6;"/><path d="M113.8594,120.0996 Q113.9531,119.9684 114.0656,119.9027 Q114.1781,119.8371 114.3094,119.8371 Q114.5344,119.8371 114.675,119.9965 Q114.8156,120.1465 114.8156,120.5121 L114.8156,121.384 Q114.8156,121.7496 114.675,121.909 Q114.5344,122.0684 114.3094,122.0684 Q114.1031,122.0684 113.9813,121.9465 Q113.8594,121.834 113.7938,121.5246 Q113.7656,121.309 113.6531,121.1965 Q113.4563,120.9715 113.0906,120.8402 Q112.725,120.709 112.35,120.709 Q111.8906,120.709 111.5063,120.9059 Q111.1313,121.1027 110.8313,121.5527 Q110.5406,122.0027 110.5406,122.6215 L110.5406,123.2777 Q110.5406,124.0184 111.075,124.5152 Q111.6094,125.0027 112.5656,125.0027 Q113.1281,125.0027 113.5219,124.8527 Q113.7563,124.759 114.0094,124.4965 Q114.1688,124.3371 114.2531,124.2902 Q114.3469,124.2434 114.4688,124.2434 Q114.6656,124.2434 114.8156,124.4027 Q114.975,124.5527 114.975,124.759 Q114.975,124.9652 114.7688,125.209 Q114.4688,125.5559 113.9906,125.7527 Q113.3438,126.0246 112.5656,126.0246 Q111.6563,126.0246 110.9344,125.6496 Q110.3438,125.3496 109.9312,124.7121 Q109.5188,124.0652 109.5188,123.2965 L109.5188,122.6027 Q109.5188,121.8059 109.8844,121.1215 Q110.2594,120.4277 110.9156,120.0621 Q111.5719,119.6871 112.3125,119.6871 Q112.7531,119.6871 113.1375,119.7902 Q113.5313,119.884 113.8594,120.0996 Z " fill="#000000"/><text fill="#000000" font-family="sans-serif" font-size="7.2" font-style="italic" lengthAdjust="spacing" textLength="51" x="122.1" y="119.9695">&#171;Value Object&#187;</text><text fill="#000000" font-family="sans-serif" font-size="8.4" lengthAdjust="spacing" textLength="54" x="120.6" y="130.841">AttachedEmail</text><line style="stroke:#181818;stroke-width:0.3;" x1="103.8" x2="175.8" y1="135.9492" y2="135.9492"/></g><!--class AttachedFile--><g id="elem_AttachedFile"><rect codeLine="40" fill="#F1F1F1" height="31.5492" id="AttachedFile" rx="1.5" ry="1.5" style="stroke:#181818;stroke-width:0.3;" width="67.8" x="197.7" y="109.2"/><ellipse cx="206.7" cy="122.5746" fill="#ADD1B2" rx="6.6" ry="6.6" style="stroke:#181818;stroke-width:0.6;"/><path d="M208.3594,120.0996 Q208.4531,119.9684 208.5656,119.9027 Q208.6781,119.8371 208.8094,119.8371 Q209.0344,119.8371 209.175,119.9965 Q209.3156,120.1465 209.3156,120.5121 L209.3156,121.384 Q209.3156,121.7496 209.175,121.909 Q209.0344,122.0684 208.8094,122.0684 Q208.6031,122.0684 208.4813,121.9465 Q208.3594,121.834 208.2938,121.5246 Q208.2656,121.309 208.1531,121.1965 Q207.9562,120.9715 207.5906,120.8402 Q207.225,120.709 206.85,120.709 Q206.3906,120.709 206.0063,120.9059 Q205.6313,121.1027 205.3312,121.5527 Q205.0406,122.0027 205.0406,122.6215 L205.0406,123.2777 Q205.0406,124.0184 205.575,124.5152 Q206.1094,125.0027 207.0656,125.0027 Q207.6281,125.0027 208.0219,124.8527 Q208.2563,124.759 208.5094,124.4965 Q208.6688,124.3371 208.7531,124.2902 Q208.8469,124.2434 208.9688,124.2434 Q209.1656,124.2434 209.3156,124.4027 Q209.475,124.5527 209.475,124.759 Q209.475,124.9652 209.2687,125.209 Q208.9688,125.5559 208.4906,125.7527 Q207.8438,126.0246 207.0656,126.0246 Q206.1563,126.0246 205.4344,125.6496 Q204.8438,125.3496 204.4313,124.7121 Q204.0187,124.0652 204.0187,123.2965 L204.0187,122.6027 Q204.0187,121.8059 204.3844,121.1215 Q204.7594,120.4277 205.4156,120.0621 Q206.0719,119.6871 206.8125,119.6871 Q207.2531,119.6871 207.6375,119.7902 Q208.0313,119.884 208.3594,120.0996 Z " fill="#000000"/><text fill="#000000" font-family="sans-serif" font-size="7.2" font-style="italic" lengthAdjust="spacing" textLength="51" x="213.9" y="119.9695">&#171;Value Object&#187;</text><text fill="#000000" font-family="sans-serif" font-size="8.4" lengthAdjust="spacing" textLength="47.4" x="215.7" y="130.841">AttachedFile</text><line style="stroke:#181818;stroke-width:0.3;" x1="198.3" x2="264.9" y1="135.9492" y2="135.9492"/></g><!--class ApplicatorData--><g id="elem_ApplicatorData"><rect codeLine="42" fill="#F1F1F1" height="31.5492" id="ApplicatorData" rx="1.5" ry="1.5" style="stroke:#181818;stroke-width:0.3;" width="75" x="286.5" y="109.2"/><ellipse cx="295.5" cy="122.5746" fill="#ADD1B2" rx="6.6" ry="6.6" style="stroke:#181818;stroke-width:0.6;"/><path d="M297.1594,120.0996 Q297.2531,119.9684 297.3656,119.9027 Q297.4781,119.8371 297.6094,119.8371 Q297.8344,119.8371 297.975,119.9965 Q298.1156,120.1465 298.1156,120.5121 L298.1156,121.384 Q298.1156,121.7496 297.975,121.909 Q297.8344,122.0684 297.6094,122.0684 Q297.4031,122.0684 297.2813,121.9465 Q297.1594,121.834 297.0938,121.5246 Q297.0656,121.309 296.9531,121.1965 Q296.7562,120.9715 296.3906,120.8402 Q296.025,120.709 295.65,120.709 Q295.1906,120.709 294.8063,120.9059 Q294.4313,121.1027 294.1312,121.5527 Q293.8406,122.0027 293.8406,122.6215 L293.8406,123.2777 Q293.8406,124.0184 294.375,124.5152 Q294.9094,125.0027 295.8656,125.0027 Q296.4281,125.0027 296.8219,124.8527 Q297.0563,124.759 297.3094,124.4965 Q297.4688,124.3371 297.5531,124.2902 Q297.6469,124.2434 297.7688,124.2434 Q297.9656,124.2434 298.1156,124.4027 Q298.275,124.5527 298.275,124.759 Q298.275,124.9652 298.0687,125.209 Q297.7688,125.5559 297.2906,125.7527 Q296.6438,126.0246 295.8656,126.0246 Q294.9563,126.0246 294.2344,125.6496 Q293.6438,125.3496 293.2313,124.7121 Q292.8187,124.0652 292.8187,123.2965 L292.8187,122.6027 Q292.8187,121.8059 293.1844,121.1215 Q293.5594,120.4277 294.2156,120.0621 Q294.8719,119.6871 295.6125,119.6871 Q296.0531,119.6871 296.4375,119.7902 Q296.8313,119.884 297.1594,120.0996 Z " fill="#000000"/><text fill="#000000" font-family="sans-serif" font-size="7.2" font-style="italic" lengthAdjust="spacing" textLength="51" x="306.3" y="119.9695">&#171;Value Object&#187;</text><text fill="#000000" font-family="sans-serif" font-size="8.4" lengthAdjust="spacing" textLength="55.8" x="303.9" y="130.841">ApplicatorData</text><line style="stroke:#181818;stroke-width:0.3;" x1="287.1" x2="360.9" y1="135.9492" y2="135.9492"/></g><!--class ApplicationStatus--><g id="elem_ApplicationStatus"><rect codeLine="44" fill="#F1F1F1" height="31.5492" id="ApplicationStatus" rx="1.5" ry="1.5" style="stroke:#181818;stroke-width:0.3;" width="84.6" x="382.5" y="109.2"/><ellipse cx="391.5" cy="122.5746" fill="#ADD1B2" rx="6.6" ry="6.6" style="stroke:#181818;stroke-width:0.6;"/><path d="M393.1594,120.0996 Q393.2531,119.9684 393.3656,119.9027 Q393.4781,119.8371 393.6094,119.8371 Q393.8344,119.8371 393.975,119.9965 Q394.1156,120.1465 394.1156,120.5121 L394.1156,121.384 Q394.1156,121.7496 393.975,121.909 Q393.8344,122.0684 393.6094,122.0684 Q393.4031,122.0684 393.2813,121.9465 Q393.1594,121.834 393.0938,121.5246 Q393.0656,121.309 392.9531,121.1965 Q392.7562,120.9715 392.3906,120.8402 Q392.025,120.709 391.65,120.709 Q391.1906,120.709 390.8063,120.9059 Q390.4313,121.1027 390.1312,121.5527 Q389.8406,122.0027 389.8406,122.6215 L389.8406,123.2777 Q389.8406,124.0184 390.375,124.5152 Q390.9094,125.0027 391.8656,125.0027 Q392.4281,125.0027 392.8219,124.8527 Q393.0563,124.759 393.3094,124.4965 Q393.4688,124.3371 393.5531,124.2902 Q393.6469,124.2434 393.7688,124.2434 Q393.9656,124.2434 394.1156,124.4027 Q394.275,124.5527 394.275,124.759 Q394.275,124.9652 394.0687,125.209 Q393.7688,125.5559 393.2906,125.7527 Q392.6438,126.0246 391.8656,126.0246 Q390.9563,126.0246 390.2344,125.6496 Q389.6438,125.3496 389.2313,124.7121 Q388.8187,124.0652 388.8187,123.2965 L388.8187,122.6027 Q388.8187,121.8059 389.1844,121.1215 Q389.5594,120.4277 390.2156,120.0621 Q390.8719,119.6871 391.6125,119.6871 Q392.0531,119.6871 392.4375,119.7902 Q392.8313,119.884 393.1594,120.0996 Z " fill="#000000"/><text fill="#000000" font-family="sans-serif" font-size="7.2" font-style="italic" lengthAdjust="spacing" textLength="51" x="407.1" y="119.9695">&#171;Value Object&#187;</text><text fill="#000000" font-family="sans-serif" font-size="8.4" lengthAdjust="spacing" textLength="65.4" x="399.9" y="130.841">ApplicationStatus</text><line style="stroke:#181818;stroke-width:0.3;" x1="383.1" x2="466.5" y1="135.9492" y2="135.9492"/></g><!--class ApplicationRank--><g id="elem_ApplicationRank"><rect codeLine="46" fill="#F1F1F1" height="31.5492" id="ApplicationRank" rx="1.5" ry="1.5" style="stroke:#181818;stroke-width:0.3;" width="80.4" x="488.4" y="109.2"/><ellipse cx="497.4" cy="122.5746" fill="#ADD1B2" rx="6.6" ry="6.6" style="stroke:#181818;stroke-width:0.6;"/><path d="M499.0594,120.0996 Q499.1531,119.9684 499.2656,119.9027 Q499.3781,119.8371 499.5094,119.8371 Q499.7344,119.8371 499.875,119.9965 Q500.0156,120.1465 500.0156,120.5121 L500.0156,121.384 Q500.0156,121.7496 499.875,121.909 Q499.7344,122.0684 499.5094,122.0684 Q499.3031,122.0684 499.1813,121.9465 Q499.0594,121.834 498.9938,121.5246 Q498.9656,121.309 498.8531,121.1965 Q498.6563,120.9715 498.2906,120.8402 Q497.925,120.709 497.55,120.709 Q497.0906,120.709 496.7062,120.9059 Q496.3312,121.1027 496.0313,121.5527 Q495.7406,122.0027 495.7406,122.6215 L495.7406,123.2777 Q495.7406,124.0184 496.275,124.5152 Q496.8094,125.0027 497.7656,125.0027 Q498.3281,125.0027 498.7219,124.8527 Q498.9562,124.759 499.2094,124.4965 Q499.3688,124.3371 499.4531,124.2902 Q499.5469,124.2434 499.6688,124.2434 Q499.8656,124.2434 500.0156,124.4027 Q500.175,124.5527 500.175,124.759 Q500.175,124.9652 499.9688,125.209 Q499.6688,125.5559 499.1906,125.7527 Q498.5438,126.0246 497.7656,126.0246 Q496.8563,126.0246 496.1344,125.6496 Q495.5438,125.3496 495.1312,124.7121 Q494.7188,124.0652 494.7188,123.2965 L494.7188,122.6027 Q494.7188,121.8059 495.0844,121.1215 Q495.4594,120.4277 496.1156,120.0621 Q496.7719,119.6871 497.5125,119.6871 Q497.9531,119.6871 498.3375,119.7902 Q498.7313,119.884 499.0594,120.0996 Z " fill="#000000"/><text fill="#000000" font-family="sans-serif" font-size="7.2" font-style="italic" lengthAdjust="spacing" textLength="51" x="510.9" y="119.9695">&#171;Value Object&#187;</text><text fill="#000000" font-family="sans-serif" font-size="8.4" lengthAdjust="spacing" textLength="61.2" x="505.8" y="130.841">ApplicationRank</text><line style="stroke:#181818;stroke-width:0.3;" x1="489" x2="568.2" y1="135.9492" y2="135.9492"/></g><!--class Notification--><g id="elem_Notification"><rect codeLine="52" fill="#F1F1F1" height="41.1258" id="Notification" rx="1.5" ry="1.5" style="stroke:#181818;stroke-width:0.3;" width="76.8" x="752.4" y="612.6"/><ellipse cx="761.4" cy="630.7629" fill="#ADD1B2" rx="6.6" ry="6.6" style="stroke:#181818;stroke-width:0.6;"/><path d="M763.0594,628.2879 Q763.1531,628.1566 763.2656,628.091 Q763.3781,628.0254 763.5094,628.0254 Q763.7344,628.0254 763.875,628.1848 Q764.0156,628.3348 764.0156,628.7004 L764.0156,629.5723 Q764.0156,629.9379 763.875,630.0973 Q763.7344,630.2566 763.5094,630.2566 Q763.3031,630.2566 763.1813,630.1348 Q763.0594,630.0223 762.9938,629.7129 Q762.9656,629.4973 762.8531,629.3848 Q762.6563,629.1598 762.2906,629.0285 Q761.925,628.8973 761.55,628.8973 Q761.0906,628.8973 760.7063,629.0941 Q760.3313,629.291 760.0313,629.741 Q759.7406,630.191 759.7406,630.8098 L759.7406,631.466 Q759.7406,632.2066 760.275,632.7035 Q760.8094,633.191 761.7656,633.191 Q762.3281,633.191 762.7219,633.041 Q762.9563,632.9473 763.2094,632.6848 Q763.3688,632.5254 763.4531,632.4785 Q763.5469,632.4316 763.6687,632.4316 Q763.8656,632.4316 764.0156,632.591 Q764.175,632.741 764.175,632.9473 Q764.175,633.1535 763.9688,633.3973 Q763.6687,633.7441 763.1906,633.941 Q762.5437,634.2129 761.7656,634.2129 Q760.8562,634.2129 760.1344,633.8379 Q759.5437,633.5379 759.1313,632.9004 Q758.7188,632.2535 758.7188,631.4848 L758.7188,630.791 Q758.7188,629.9941 759.0844,629.3098 Q759.4594,628.616 760.1156,628.2504 Q760.7719,627.8754 761.5125,627.8754 Q761.9531,627.8754 762.3375,627.9785 Q762.7312,628.0723 763.0594,628.2879 Z " fill="#000000"/><text fill="#000000" font-family="sans-serif" font-size="7.2" font-style="italic" lengthAdjust="spacing" textLength="60" x="768.6" y="623.3695">&#171;Aggregate Root&#187;</text><text fill="#000000" font-family="sans-serif" font-size="7.2" font-style="italic" lengthAdjust="spacing" textLength="26.4" x="785.4" y="632.9461">&#171;Entity&#187;</text><text fill="#000000" font-family="sans-serif" font-size="8.4" lengthAdjust="spacing" textLength="41.4" x="777.9" y="643.8176">Notification</text><line style="stroke:#181818;stroke-width:0.3;" x1="753" x2="828.6" y1="648.9258" y2="648.9258"/></g><!--class idNotification--><g id="elem_idNotification"><rect codeLine="53" fill="#F1F1F1" height="41.1258" id="idNotification" rx="1.5" ry="1.5" style="stroke:#181818;stroke-width:0.3;" width="67.8" x="668.1" y="690.6"/><ellipse cx="677.1" cy="708.7629" fill="#ADD1B2" rx="6.6" ry="6.6" style="stroke:#181818;stroke-width:0.6;"/><path d="M678.7594,706.2879 Q678.8531,706.1566 678.9656,706.091 Q679.0781,706.0254 679.2094,706.0254 Q679.4344,706.0254 679.575,706.1848 Q679.7156,706.3348 679.7156,706.7004 L679.7156,707.5723 Q679.7156,707.9379 679.575,708.0973 Q679.4344,708.2566 679.2094,708.2566 Q679.0031,708.2566 678.8813,708.1348 Q678.7594,708.0223 678.6938,707.7129 Q678.6656,707.4973 678.5531,707.3848 Q678.3562,707.1598 677.9906,707.0285 Q677.625,706.8973 677.25,706.8973 Q676.7906,706.8973 676.4063,707.0941 Q676.0313,707.291 675.7312,707.741 Q675.4406,708.191 675.4406,708.8098 L675.4406,709.466 Q675.4406,710.2066 675.975,710.7035 Q676.5094,711.191 677.4656,711.191 Q678.0281,711.191 678.4219,711.041 Q678.6563,710.9473 678.9094,710.6848 Q679.0688,710.5254 679.1531,710.4785 Q679.2469,710.4316 679.3688,710.4316 Q679.5656,710.4316 679.7156,710.591 Q679.875,710.741 679.875,710.9473 Q679.875,711.1535 679.6687,711.3973 Q679.3688,711.7441 678.8906,711.941 Q678.2438,712.2129 677.4656,712.2129 Q676.5563,712.2129 675.8344,711.8379 Q675.2438,711.5379 674.8313,710.9004 Q674.4187,710.2535 674.4187,709.4848 L674.4187,708.791 Q674.4187,707.9941 674.7844,707.3098 Q675.1594,706.616 675.8156,706.2504 Q676.4719,705.8754 677.2125,705.8754 Q677.6531,705.8754 678.0375,705.9785 Q678.4313,706.0723 678.7594,706.2879 Z " fill="#000000"/><text fill="#000000" font-family="sans-serif" font-size="7.2" font-style="italic" lengthAdjust="spacing" textLength="32.4" x="693.6" y="701.3695">&#171;Identity&#187;</text><text fill="#000000" font-family="sans-serif" font-size="7.2" font-style="italic" lengthAdjust="spacing" textLength="51" x="684.3" y="710.9461">&#171;Value Object&#187;</text><text fill="#000000" font-family="sans-serif" font-size="8.4" lengthAdjust="spacing" textLength="48" x="685.8" y="721.8176">idNotification</text><line style="stroke:#181818;stroke-width:0.3;" x1="668.7" x2="735.3" y1="726.9258" y2="726.9258"/></g><!--class userName--><g id="elem_userName"><rect codeLine="54" fill="#F1F1F1" height="31.5492" id="userName" rx="1.5" ry="1.5" style="stroke:#181818;stroke-width:0.3;" width="67.8" x="756.9" y="695.4"/><ellipse cx="765.9" cy="708.7746" fill="#ADD1B2" rx="6.6" ry="6.6" style="stroke:#181818;stroke-width:0.6;"/><path d="M767.5594,706.2996 Q767.6531,706.1684 767.7656,706.1027 Q767.8781,706.0371 768.0094,706.0371 Q768.2344,706.0371 768.375,706.1965 Q768.5156,706.3465 768.5156,706.7121 L768.5156,707.584 Q768.5156,707.9496 768.375,708.109 Q768.2344,708.2684 768.0094,708.2684 Q767.8031,708.2684 767.6813,708.1465 Q767.5594,708.034 767.4938,707.7246 Q767.4656,707.509 767.3531,707.3965 Q767.1563,707.1715 766.7906,707.0402 Q766.425,706.909 766.05,706.909 Q765.5906,706.909 765.2063,707.1059 Q764.8313,707.3027 764.5313,707.7527 Q764.2406,708.2027 764.2406,708.8215 L764.2406,709.4777 Q764.2406,710.2184 764.775,710.7152 Q765.3094,711.2027 766.2656,711.2027 Q766.8281,711.2027 767.2219,711.0527 Q767.4563,710.959 767.7094,710.6965 Q767.8688,710.5371 767.9531,710.4902 Q768.0469,710.4434 768.1687,710.4434 Q768.3656,710.4434 768.5156,710.6027 Q768.675,710.7527 768.675,710.959 Q768.675,711.1652 768.4688,711.409 Q768.1687,711.7559 767.6906,711.9527 Q767.0437,712.2246 766.2656,712.2246 Q765.3562,712.2246 764.6344,711.8496 Q764.0437,711.5496 763.6313,710.9121 Q763.2188,710.2652 763.2188,709.4965 L763.2188,708.8027 Q763.2188,708.0059 763.5844,707.3215 Q763.9594,706.6277 764.6156,706.2621 Q765.2719,705.8871 766.0125,705.8871 Q766.4531,705.8871 766.8375,705.9902 Q767.2312,706.084 767.5594,706.2996 Z " fill="#000000"/><text fill="#000000" font-family="sans-serif" font-size="7.2" font-style="italic" lengthAdjust="spacing" textLength="51" x="773.1" y="706.1695">&#171;Value Object&#187;</text><text fill="#000000" font-family="sans-serif" font-size="8.4" lengthAdjust="spacing" textLength="38.4" x="779.4" y="717.041">userName</text><line style="stroke:#181818;stroke-width:0.3;" x1="757.5" x2="824.1" y1="722.1492" y2="722.1492"/></g><!--class content--><g id="elem_content"><rect codeLine="55" fill="#F1F1F1" height="31.5492" id="content" rx="1.5" ry="1.5" style="stroke:#181818;stroke-width:0.3;" width="67.8" x="845.7" y="695.4"/><ellipse cx="854.7" cy="708.7746" fill="#ADD1B2" rx="6.6" ry="6.6" style="stroke:#181818;stroke-width:0.6;"/><path d="M856.3594,706.2996 Q856.4531,706.1684 856.5656,706.1027 Q856.6781,706.0371 856.8094,706.0371 Q857.0344,706.0371 857.175,706.1965 Q857.3156,706.3465 857.3156,706.7121 L857.3156,707.584 Q857.3156,707.9496 857.175,708.109 Q857.0344,708.2684 856.8094,708.2684 Q856.6031,708.2684 856.4812,708.1465 Q856.3594,708.034 856.2937,707.7246 Q856.2656,707.509 856.1531,707.3965 Q855.9563,707.1715 855.5906,707.0402 Q855.225,706.909 854.85,706.909 Q854.3906,706.909 854.0063,707.1059 Q853.6313,707.3027 853.3313,707.7527 Q853.0406,708.2027 853.0406,708.8215 L853.0406,709.4777 Q853.0406,710.2184 853.575,710.7152 Q854.1094,711.2027 855.0656,711.2027 Q855.6281,711.2027 856.0219,711.0527 Q856.2563,710.959 856.5094,710.6965 Q856.6687,710.5371 856.7531,710.4902 Q856.8469,710.4434 856.9688,710.4434 Q857.1656,710.4434 857.3156,710.6027 Q857.475,710.7527 857.475,710.959 Q857.475,711.1652 857.2688,711.409 Q856.9688,711.7559 856.4906,711.9527 Q855.8438,712.2246 855.0656,712.2246 Q854.1563,712.2246 853.4344,711.8496 Q852.8438,711.5496 852.4313,710.9121 Q852.0188,710.2652 852.0188,709.4965 L852.0188,708.8027 Q852.0188,708.0059 852.3844,707.3215 Q852.7594,706.6277 853.4156,706.2621 Q854.0719,705.8871 854.8125,705.8871 Q855.2531,705.8871 855.6375,705.9902 Q856.0313,706.084 856.3594,706.2996 Z " fill="#000000"/><text fill="#000000" font-family="sans-serif" font-size="7.2" font-style="italic" lengthAdjust="spacing" textLength="51" x="861.9" y="706.1695">&#171;Value Object&#187;</text><text fill="#000000" font-family="sans-serif" font-size="8.4" lengthAdjust="spacing" textLength="28.2" x="873.3" y="717.041">content</text><line style="stroke:#181818;stroke-width:0.3;" x1="846.3" x2="912.9" y1="722.1492" y2="722.1492"/></g><!--class isSend--><g id="elem_isSend"><rect codeLine="56" fill="#F1F1F1" height="31.5492" id="isSend" rx="1.5" ry="1.5" style="stroke:#181818;stroke-width:0.3;" width="67.8" x="934.5" y="695.4"/><ellipse cx="943.5" cy="708.7746" fill="#ADD1B2" rx="6.6" ry="6.6" style="stroke:#181818;stroke-width:0.6;"/><path d="M945.1594,706.2996 Q945.2531,706.1684 945.3656,706.1027 Q945.4781,706.0371 945.6094,706.0371 Q945.8344,706.0371 945.975,706.1965 Q946.1156,706.3465 946.1156,706.7121 L946.1156,707.584 Q946.1156,707.9496 945.975,708.109 Q945.8344,708.2684 945.6094,708.2684 Q945.4031,708.2684 945.2813,708.1465 Q945.1594,708.034 945.0938,707.7246 Q945.0656,707.509 944.9531,707.3965 Q944.7562,707.1715 944.3906,707.0402 Q944.025,706.909 943.65,706.909 Q943.1906,706.909 942.8063,707.1059 Q942.4313,707.3027 942.1312,707.7527 Q941.8406,708.2027 941.8406,708.8215 L941.8406,709.4777 Q941.8406,710.2184 942.375,710.7152 Q942.9094,711.2027 943.8656,711.2027 Q944.4281,711.2027 944.8219,711.0527 Q945.0563,710.959 945.3094,710.6965 Q945.4688,710.5371 945.5531,710.4902 Q945.6469,710.4434 945.7688,710.4434 Q945.9656,710.4434 946.1156,710.6027 Q946.275,710.7527 946.275,710.959 Q946.275,711.1652 946.0687,711.409 Q945.7688,711.7559 945.2906,711.9527 Q944.6438,712.2246 943.8656,712.2246 Q942.9563,712.2246 942.2344,711.8496 Q941.6438,711.5496 941.2312,710.9121 Q940.8187,710.2652 940.8187,709.4965 L940.8187,708.8027 Q940.8187,708.0059 941.1844,707.3215 Q941.5594,706.6277 942.2156,706.2621 Q942.8719,705.8871 943.6125,705.8871 Q944.0531,705.8871 944.4375,705.9902 Q944.8313,706.084 945.1594,706.2996 Z " fill="#000000"/><text fill="#000000" font-family="sans-serif" font-size="7.2" font-style="italic" lengthAdjust="spacing" textLength="51" x="950.7" y="706.1695">&#171;Value Object&#187;</text><text fill="#000000" font-family="sans-serif" font-size="8.4" lengthAdjust="spacing" textLength="25.8" x="963.3" y="717.041">isSend</text><line style="stroke:#181818;stroke-width:0.3;" x1="935.1" x2="1001.7" y1="722.1492" y2="722.1492"/></g><!--class JobOpeningProcess--><g id="elem_JobOpeningProcess"><rect codeLine="63" fill="#F1F1F1" height="41.1258" id="JobOpeningProcess" rx="1.5" ry="1.5" style="stroke:#181818;stroke-width:0.3;" width="95.4" x="538.5" y="612.6"/><ellipse cx="547.5" cy="630.7629" fill="#ADD1B2" rx="6.6" ry="6.6" style="stroke:#181818;stroke-width:0.6;"/><path d="M549.1594,628.2879 Q549.2531,628.1566 549.3656,628.091 Q549.4781,628.0254 549.6094,628.0254 Q549.8344,628.0254 549.975,628.1848 Q550.1156,628.3348 550.1156,628.7004 L550.1156,629.5723 Q550.1156,629.9379 549.975,630.0973 Q549.8344,630.2566 549.6094,630.2566 Q549.4031,630.2566 549.2813,630.1348 Q549.1594,630.0223 549.0938,629.7129 Q549.0656,629.4973 548.9531,629.3848 Q548.7563,629.1598 548.3906,629.0285 Q548.025,628.8973 547.65,628.8973 Q547.1906,628.8973 546.8063,629.0941 Q546.4313,629.291 546.1313,629.741 Q545.8406,630.191 545.8406,630.8098 L545.8406,631.466 Q545.8406,632.2066 546.375,632.7035 Q546.9094,633.191 547.8656,633.191 Q548.4281,633.191 548.8219,633.041 Q549.0563,632.9473 549.3094,632.6848 Q549.4688,632.5254 549.5531,632.4785 Q549.6469,632.4316 549.7688,632.4316 Q549.9656,632.4316 550.1156,632.591 Q550.275,632.741 550.275,632.9473 Q550.275,633.1535 550.0688,633.3973 Q549.7688,633.7441 549.2906,633.941 Q548.6438,634.2129 547.8656,634.2129 Q546.9563,634.2129 546.2344,633.8379 Q545.6438,633.5379 545.2312,632.9004 Q544.8188,632.2535 544.8188,631.4848 L544.8188,630.791 Q544.8188,629.9941 545.1844,629.3098 Q545.5594,628.616 546.2156,628.2504 Q546.8719,627.8754 547.6125,627.8754 Q548.0531,627.8754 548.4375,627.9785 Q548.8313,628.0723 549.1594,628.2879 Z " fill="#000000"/><text fill="#000000" font-family="sans-serif" font-size="7.2" font-style="italic" lengthAdjust="spacing" textLength="60" x="564" y="623.3695">&#171;Aggregate Root&#187;</text><text fill="#000000" font-family="sans-serif" font-size="7.2" font-style="italic" lengthAdjust="spacing" textLength="26.4" x="580.8" y="632.9461">&#171;Entity&#187;</text><text fill="#000000" font-family="sans-serif" font-size="8.4" lengthAdjust="spacing" textLength="76.2" x="555.9" y="643.8176">JobOpeningProcess</text><line style="stroke:#181818;stroke-width:0.3;" x1="539.1" x2="633.3" y1="648.9258" y2="648.9258"/></g><!--class JobOpeningProcessId--><g id="elem_JobOpeningProcessId"><rect codeLine="64" fill="#F1F1F1" height="41.1258" id="JobOpeningProcessId" rx="1.5" ry="1.5" style="stroke:#181818;stroke-width:0.3;" width="102" x="415.2" y="612.6"/><ellipse cx="424.2" cy="630.7629" fill="#ADD1B2" rx="6.6" ry="6.6" style="stroke:#181818;stroke-width:0.6;"/><path d="M425.8594,628.2879 Q425.9531,628.1566 426.0656,628.091 Q426.1781,628.0254 426.3094,628.0254 Q426.5344,628.0254 426.675,628.1848 Q426.8156,628.3348 426.8156,628.7004 L426.8156,629.5723 Q426.8156,629.9379 426.675,630.0973 Q426.5344,630.2566 426.3094,630.2566 Q426.1031,630.2566 425.9813,630.1348 Q425.8594,630.0223 425.7938,629.7129 Q425.7656,629.4973 425.6531,629.3848 Q425.4563,629.1598 425.0906,629.0285 Q424.725,628.8973 424.35,628.8973 Q423.8906,628.8973 423.5062,629.0941 Q423.1312,629.291 422.8313,629.741 Q422.5406,630.191 422.5406,630.8098 L422.5406,631.466 Q422.5406,632.2066 423.075,632.7035 Q423.6094,633.191 424.5656,633.191 Q425.1281,633.191 425.5219,633.041 Q425.7562,632.9473 426.0094,632.6848 Q426.1688,632.5254 426.2531,632.4785 Q426.3469,632.4316 426.4688,632.4316 Q426.6656,632.4316 426.8156,632.591 Q426.975,632.741 426.975,632.9473 Q426.975,633.1535 426.7688,633.3973 Q426.4688,633.7441 425.9906,633.941 Q425.3438,634.2129 424.5656,634.2129 Q423.6563,634.2129 422.9344,633.8379 Q422.3438,633.5379 421.9313,632.9004 Q421.5188,632.2535 421.5188,631.4848 L421.5188,630.791 Q421.5188,629.9941 421.8844,629.3098 Q422.2594,628.616 422.9156,628.2504 Q423.5719,627.8754 424.3125,627.8754 Q424.7531,627.8754 425.1375,627.9785 Q425.5313,628.0723 425.8594,628.2879 Z " fill="#000000"/><text fill="#000000" font-family="sans-serif" font-size="7.2" font-style="italic" lengthAdjust="spacing" textLength="32.4" x="457.8" y="623.3695">&#171;Identity&#187;</text><text fill="#000000" font-family="sans-serif" font-size="7.2" font-style="italic" lengthAdjust="spacing" textLength="51" x="448.5" y="632.9461">&#171;Value Object&#187;</text><text fill="#000000" font-family="sans-serif" font-size="8.4" lengthAdjust="spacing" textLength="82.8" x="432.6" y="643.8176">JobOpeningProcessId</text><line style="stroke:#181818;stroke-width:0.3;" x1="415.8" x2="516.6" y1="648.9258" y2="648.9258"/></g><!--class Phase--><g id="elem_Phase"><rect codeLine="67" fill="#F1F1F1" height="31.5492" id="Phase" rx="1.5" ry="1.5" style="stroke:#181818;stroke-width:0.3;" width="43.2" x="564.6" y="695.4"/><ellipse cx="573.6" cy="708.7746" fill="#ADD1B2" rx="6.6" ry="6.6" style="stroke:#181818;stroke-width:0.6;"/><path d="M575.2594,706.2996 Q575.3531,706.1684 575.4656,706.1027 Q575.5781,706.0371 575.7094,706.0371 Q575.9344,706.0371 576.075,706.1965 Q576.2156,706.3465 576.2156,706.7121 L576.2156,707.584 Q576.2156,707.9496 576.075,708.109 Q575.9344,708.2684 575.7094,708.2684 Q575.5031,708.2684 575.3813,708.1465 Q575.2594,708.034 575.1938,707.7246 Q575.1656,707.509 575.0531,707.3965 Q574.8562,707.1715 574.4906,707.0402 Q574.125,706.909 573.75,706.909 Q573.2906,706.909 572.9063,707.1059 Q572.5313,707.3027 572.2312,707.7527 Q571.9406,708.2027 571.9406,708.8215 L571.9406,709.4777 Q571.9406,710.2184 572.475,710.7152 Q573.0094,711.2027 573.9656,711.2027 Q574.5281,711.2027 574.9219,711.0527 Q575.1563,710.959 575.4094,710.6965 Q575.5688,710.5371 575.6531,710.4902 Q575.7469,710.4434 575.8688,710.4434 Q576.0656,710.4434 576.2156,710.6027 Q576.375,710.7527 576.375,710.959 Q576.375,711.1652 576.1687,711.409 Q575.8688,711.7559 575.3906,711.9527 Q574.7438,712.2246 573.9656,712.2246 Q573.0563,712.2246 572.3344,711.8496 Q571.7438,711.5496 571.3313,710.9121 Q570.9187,710.2652 570.9187,709.4965 L570.9187,708.8027 Q570.9187,708.0059 571.2844,707.3215 Q571.6594,706.6277 572.3156,706.2621 Q572.9719,705.8871 573.7125,705.8871 Q574.1531,705.8871 574.5375,705.9902 Q574.9313,706.084 575.2594,706.2996 Z " fill="#000000"/><text fill="#000000" font-family="sans-serif" font-size="7.2" font-style="italic" lengthAdjust="spacing" textLength="26.4" x="580.8" y="706.1695">&#171;Entity&#187;</text><text fill="#000000" font-family="sans-serif" font-size="8.4" lengthAdjust="spacing" textLength="24" x="582" y="717.041">Phase</text><line style="stroke:#181818;stroke-width:0.3;" x1="565.2" x2="607.2" y1="722.1492" y2="722.1492"/></g><!--class PhaseType--><g id="elem_PhaseType"><rect codeLine="69" fill="#F1F1F1" height="96.9891" id="PhaseType" rx="1.5" ry="1.5" style="stroke:#181818;stroke-width:0.3;" width="67.8" x="552.3" y="769.8"/><ellipse cx="561.3" cy="787.9629" fill="#EB937F" rx="6.6" ry="6.6" style="stroke:#181818;stroke-width:0.6;"/><path d="M560.6156,788.441 L560.6156,789.941 L563.2125,789.941 L563.2125,789.3879 Q563.2125,789.0223 563.3531,788.8629 Q563.5031,788.7035 563.7281,788.7035 Q563.9531,788.7035 564.0938,788.8629 Q564.2344,789.0223 564.2344,789.3879 L564.2344,790.9629 L559.4344,790.9629 Q559.0594,790.9629 558.9,790.8223 Q558.75,790.6816 558.75,790.4473 Q558.75,790.2223 558.9094,790.0816 Q559.0688,789.941 559.4344,789.941 L559.5938,789.941 L559.5938,785.9473 L559.4344,785.9473 Q559.0594,785.9473 558.9,785.8066 Q558.75,785.666 558.75,785.4316 Q558.75,785.2066 558.9,785.066 Q559.0594,784.9254 559.4344,784.9254 L564.0094,784.9254 L564.0094,786.4816 Q564.0094,786.8473 563.8688,787.0066 Q563.7375,787.1566 563.5031,787.1566 Q563.2781,787.1566 563.1375,787.0066 Q562.9969,786.8473 562.9969,786.4816 L562.9969,785.9473 L560.6156,785.9473 L560.6156,787.4191 L561.5063,787.4191 Q561.5063,787.0254 561.5813,786.9129 Q561.7406,786.6691 562.0219,786.6691 Q562.2469,786.6691 562.3875,786.8285 Q562.5281,786.9785 562.5281,787.3441 L562.5281,788.5254 Q562.5281,788.8535 562.4531,788.966 Q562.2937,789.2004 562.0219,789.2004 Q561.7406,789.2004 561.5813,788.9566 Q561.5063,788.8441 561.5063,788.441 L560.6156,788.441 Z " fill="#000000"/><text fill="#000000" font-family="sans-serif" font-size="7.2" font-style="italic" lengthAdjust="spacing" textLength="49.2" x="569.4" y="780.5695">&#171;Enumerated&#187;</text><text fill="#000000" font-family="sans-serif" font-size="7.2" font-style="italic" lengthAdjust="spacing" textLength="51" x="568.5" y="790.1461">&#171;Value Object&#187;</text><text fill="#000000" font-family="sans-serif" font-size="8.4" lengthAdjust="spacing" textLength="43.2" x="572.4" y="801.0176">PhaseType</text><line style="stroke:#181818;stroke-width:0.3;" x1="552.9" x2="619.5" y1="806.1258" y2="806.1258"/><text fill="#000000" font-family="sans-serif" font-size="8.4" lengthAdjust="spacing" textLength="53.4" x="555.9" y="817.5902">APPLICATION</text><text fill="#000000" font-family="sans-serif" font-size="8.4" lengthAdjust="spacing" textLength="47.4" x="555.9" y="828.7629">SCREENING</text><text fill="#000000" font-family="sans-serif" font-size="8.4" lengthAdjust="spacing" textLength="49.8" x="555.9" y="839.9355">INTERVIEWS</text><text fill="#000000" font-family="sans-serif" font-size="8.4" lengthAdjust="spacing" textLength="39" x="555.9" y="851.1082">ANALYSIS</text><text fill="#000000" font-family="sans-serif" font-size="8.4" lengthAdjust="spacing" textLength="32.4" x="555.9" y="862.2809">RESULT</text></g><!--link JobOpening to JobReference--><g id="link_JobOpening_JobReference"><path codeLine="99" d="M494.82,387.636 C455.844,398.022 394.104,415.428 342,434.4 C338.712,435.6 338.6579,435.5546 335.2859,436.9226 " fill="none" id="JobOpening-to-JobReference" style="stroke:#181818;stroke-width:0.6;"/><polygon fill="#181818" points="331.95,438.276,337.8561,438.4699,334.7299,437.1482,336.0516,434.022,331.95,438.276" style="stroke:#181818;stroke-width:0.6;"/><text fill="#000000" font-family="sans-serif" font-size="7.8" lengthAdjust="spacing" textLength="4.2" x="485.9164" y="386.5075">1</text><text fill="#000000" font-family="sans-serif" font-size="7.8" lengthAdjust="spacing" textLength="4.2" x="336.6117" y="433.8484">1</text></g><!--link JobOpening to TitleOrFunction--><g id="link_JobOpening_TitleOrFunction"><path codeLine="100" d="M496.194,397.878 C472.35,410.814 445.0525,425.6156 423.1945,437.4716 " fill="none" id="JobOpening-to-TitleOrFunction" style="stroke:#181818;stroke-width:0.6;"/><polygon fill="#181818" points="420.03,439.188,425.921,438.723,422.6671,437.7576,423.6324,434.5037,420.03,439.188" style="stroke:#181818;stroke-width:0.6;"/><text fill="#000000" font-family="sans-serif" font-size="7.8" lengthAdjust="spacing" textLength="4.2" x="485.9753" y="410.2919">1</text><text fill="#000000" font-family="sans-serif" font-size="7.8" lengthAdjust="spacing" textLength="4.2" x="422.1992" y="432.3352">1</text></g><!--reverse link ContractType to JobOpening--><g id="link_ContractType_JobOpening"><path codeLine="101" d="M533.4,318.126 C533.4,331.89 533.4,344.058 533.4,356.244 " fill="none" id="ContractType-backto-JobOpening" style="stroke:#181818;stroke-width:0.6;"/><polygon fill="#181818" points="533.4,314.526,531,319.926,533.4,317.526,535.8,319.926,533.4,314.526" style="stroke:#181818;stroke-width:0.6;"/><text fill="#000000" font-family="sans-serif" font-size="7.8" lengthAdjust="spacing" textLength="4.2" x="528.9441" y="327.474">1</text><text fill="#000000" font-family="sans-serif" font-size="7.8" lengthAdjust="spacing" textLength="4.2" x="528.8128" y="349.7167">1</text></g><!--reverse link Mode to JobOpening--><g id="link_Mode_JobOpening"><path codeLine="102" d="M479.3032,320.7874 C491.7532,333.6154 502.914,345.108 513.702,356.214 " fill="none" id="Mode-backto-JobOpening" style="stroke:#181818;stroke-width:0.6;"/><polygon fill="#181818" points="476.796,318.204,478.8346,323.7505,478.8854,320.3568,482.2791,320.4076,476.796,318.204" style="stroke:#181818;stroke-width:0.6;"/><text fill="#000000" font-family="sans-serif" font-size="7.8" lengthAdjust="spacing" textLength="4.2" x="481.4208" y="320.3249">1</text><text fill="#000000" font-family="sans-serif" font-size="7.8" lengthAdjust="spacing" textLength="4.2" x="505.483" y="349.6812">1</text></g><!--link JobOpening to Description--><g id="link_JobOpening_Description"><path codeLine="103" d="M549.48,397.878 C559.752,410.766 570.6192,424.402 580.0572,436.252 " fill="none" id="JobOpening-to-Description" style="stroke:#181818;stroke-width:0.6;"/><polygon fill="#181818" points="582.3,439.068,580.8131,433.3488,580.431,436.7213,577.0585,436.3392,582.3,439.068" style="stroke:#181818;stroke-width:0.6;"/><text fill="#000000" font-family="sans-serif" font-size="7.8" lengthAdjust="spacing" textLength="4.2" x="547.6828" y="410.7813">1</text><text fill="#000000" font-family="sans-serif" font-size="7.8" lengthAdjust="spacing" textLength="4.2" x="574.77" y="432.4474">1</text></g><!--link JobOpening to VacanciesNumber--><g id="link_JobOpening_VacanciesNumber"><path codeLine="104" d="M523.47,397.878 C517.128,410.766 510.6177,423.988 504.7857,435.838 " fill="none" id="JobOpening-to-VacanciesNumber" style="stroke:#181818;stroke-width:0.6;"/><polygon fill="#181818" points="503.196,439.068,507.7338,435.2828,504.5207,436.3763,503.4271,433.1632,503.196,439.068" style="stroke:#181818;stroke-width:0.6;"/><text fill="#000000" font-family="sans-serif" font-size="7.8" lengthAdjust="spacing" textLength="4.2" x="517.2023" y="410.7813">1</text><text fill="#000000" font-family="sans-serif" font-size="7.8" lengthAdjust="spacing" textLength="4.2" x="500.2669" y="432.4474">1</text></g><!--link Application to ApplicationId--><g id="link_Application_ApplicationId"><path codeLine="108" d="M285.462,54.858 C238.986,64.008 158.82,81.456 92.4,104.4 C88.962,105.588 88.7538,105.5805 85.2498,107.0145 " fill="none" id="Application-to-ApplicationId" style="stroke:#181818;stroke-width:0.6;"/><polygon fill="#181818" points="81.918,108.378,87.8247,108.5539,84.6945,107.2417,86.0067,104.1115,81.918,108.378" style="stroke:#181818;stroke-width:0.6;"/><text fill="#000000" font-family="sans-serif" font-size="7.8" lengthAdjust="spacing" textLength="4.2" x="276.5632" y="53.4083">1</text><text fill="#000000" font-family="sans-serif" font-size="7.8" lengthAdjust="spacing" textLength="4.2" x="86.7579" y="103.6928">1</text></g><!--link Application to AttachedEmail--><g id="link_Application_AttachedEmail"><path codeLine="109" d="M285.342,63.624 C257.922,74.94 220.278,90.534 187.2,104.4 C183.57,105.918 183.1076,106.1163 179.3336,107.7063 " fill="none" id="Application-to-AttachedEmail" style="stroke:#181818;stroke-width:0.6;"/><polygon fill="#181818" points="176.016,109.104,181.9242,109.2192,178.7807,107.9392,180.0606,104.7957,176.016,109.104" style="stroke:#181818;stroke-width:0.6;"/><text fill="#000000" font-family="sans-serif" font-size="7.8" lengthAdjust="spacing" textLength="4.2" x="276.6841" y="74.4307">1</text><text fill="#000000" font-family="sans-serif" font-size="7.8" lengthAdjust="spacing" textLength="4.2" x="179.7053" y="102.4917">1</text></g><!--link Application to AttachedFile--><g id="link_Application_AttachedFile"><path codeLine="110" d="M299.724,67.878 C284.214,80.766 267.188,94.9162 252.938,106.7662 " fill="none" id="Application-to-AttachedFile" style="stroke:#181818;stroke-width:0.6;"/><polygon fill="#181818" points="250.17,109.068,255.8565,107.4606,252.4767,107.1498,252.7874,103.77,250.17,109.068" style="stroke:#181818;stroke-width:0.6;"/><text fill="#000000" font-family="sans-serif" font-size="7.8" lengthAdjust="spacing" textLength="4.2" x="290.9906" y="80.7813">1</text><text fill="#000000" font-family="sans-serif" font-size="7.8" lengthAdjust="spacing" textLength="4.2" x="249.7787" y="102.4474">1</text></g><!--link Application to ApplicatorData--><g id="link_Application_ApplicatorData"><path codeLine="111" d="M324,67.878 C324,80.766 324,93.618 324,105.468 " fill="none" id="Application-to-ApplicatorData" style="stroke:#181818;stroke-width:0.6;"/><polygon fill="#181818" points="324,109.068,326.4,103.668,324,106.068,321.6,103.668,324,109.068" style="stroke:#181818;stroke-width:0.6;"/><text fill="#000000" font-family="sans-serif" font-size="7.8" lengthAdjust="spacing" textLength="4.2" x="319.4391" y="80.7813">1</text><text fill="#000000" font-family="sans-serif" font-size="7.8" lengthAdjust="spacing" textLength="4.2" x="319.3144" y="102.4474">1</text></g><!--link Application to JobOpening--><g id="link_Application_JobOpening"><path codeLine="112" d="M362.46,50.328 C438.462,56.586 600.6,75.66 600.6,124.5 C600.6,124.5 600.6,124.5 600.6,283.2 C600.6,312.642 580.9581,336.7129 562.0461,353.8729 " fill="none" id="Application-to-JobOpening" style="stroke:#181818;stroke-width:0.6;"/><polygon fill="#181818" points="559.38,356.292,564.9918,354.4407,561.6017,354.2761,561.7664,350.886,559.38,356.292" style="stroke:#181818;stroke-width:0.6;"/><text fill="#000000" font-family="sans-serif" font-size="7.8" lengthAdjust="spacing" textLength="45" x="601.2" y="192.617">submitted for</text><text fill="#000000" font-family="sans-serif" font-size="7.8" lengthAdjust="spacing" textLength="3" x="367.0804" y="48.3545">*</text><text fill="#000000" font-family="sans-serif" font-size="7.8" lengthAdjust="spacing" textLength="4.2" x="559.7321" y="349.6131">1</text></g><!--link Application to ApplicationStatus--><g id="link_Application_ApplicationStatus"><path codeLine="113" d="M350.484,67.878 C367.458,80.814 386.2786,95.15 401.8366,107.006 " fill="none" id="Application-to-ApplicationStatus" style="stroke:#181818;stroke-width:0.6;"/><polygon fill="#181818" points="404.7,109.188,401.8597,104.0061,402.3139,107.3696,398.9503,107.8239,404.7,109.188" style="stroke:#181818;stroke-width:0.6;"/><text fill="#000000" font-family="sans-serif" font-size="7.8" lengthAdjust="spacing" textLength="4.2" x="350.475" y="80.7813">1</text><text fill="#000000" font-family="sans-serif" font-size="7.8" lengthAdjust="spacing" textLength="4.2" x="395.0888" y="102.3352">1</text></g><!--link Application to ApplicationRank--><g id="link_Application_ApplicationRank"><path codeLine="114" d="M362.436,61.626 C393.558,72.96 438.492,89.478 477.6,104.4 C481.602,105.924 482.4176,106.2311 486.5756,107.8511 " fill="none" id="Application-to-ApplicationRank" style="stroke:#181818;stroke-width:0.6;"/><polygon fill="#181818" points="489.93,109.158,485.7697,104.9614,487.1347,108.0689,484.0271,109.4339,489.93,109.158" style="stroke:#181818;stroke-width:0.6;"/><text fill="#000000" font-family="sans-serif" font-size="7.8" lengthAdjust="spacing" textLength="4.2" x="367.123" y="60.9588">1</text><text fill="#000000" font-family="sans-serif" font-size="7.8" lengthAdjust="spacing" textLength="13.2" x="470.3639" y="104.4459">0..1</text></g><!--reverse link JobOpeningProcessId to JobOpeningProcess--><g id="link_JobOpeningProcessId_JobOpeningProcess"><path codeLine="117" d="M520.896,633.3 C527.892,633.3 531.288,633.3 538.29,633.3 " fill="none" id="JobOpeningProcessId-backto-JobOpeningProcess" style="stroke:#181818;stroke-width:0.6;"/><polygon fill="#181818" points="517.296,633.3,522.696,635.7,520.296,633.3,522.696,630.9,517.296,633.3" style="stroke:#181818;stroke-width:0.6;"/><text fill="#000000" font-family="sans-serif" font-size="7.8" lengthAdjust="spacing" textLength="4.2" x="522.0338" y="631.0828">1</text><text fill="#000000" font-family="sans-serif" font-size="7.8" lengthAdjust="spacing" textLength="4.2" x="529.4797" y="631.0675">1</text></g><!--link JobOpening to JobOpeningProcess--><g id="link_JobOpening_JobOpeningProcess"><path codeLine="118" d="M571.908,384.174 C609.348,392.934 660.6,412.578 660.6,454.5 C660.6,454.5 660.6,454.5 660.6,562.2 C660.6,583.734 646.9617,598.6426 629.4297,610.5046 " fill="none" id="JobOpening-to-JobOpeningProcess" style="stroke:#181818;stroke-width:0.6;"/><polygon fill="#181818" points="626.448,612.522,632.2654,611.4837,628.9327,610.8409,629.5756,607.5082,626.448,612.522" style="stroke:#181818;stroke-width:0.6;"/><text fill="#000000" font-family="sans-serif" font-size="7.8" lengthAdjust="spacing" textLength="12.6" x="661.2" y="522.617">has</text><text fill="#000000" font-family="sans-serif" font-size="7.8" lengthAdjust="spacing" textLength="4.2" x="576.6033" y="394.0246">1</text><text fill="#000000" font-family="sans-serif" font-size="7.8" lengthAdjust="spacing" textLength="3" x="630.8343" y="605.8488">*</text></g><!--link JobOpeningProcess to Phase--><g id="link_JobOpeningProcess_Phase"><path codeLine="119" d="M586.2,654.078 C586.2,666.966 586.2,679.818 586.2,691.668 " fill="none" id="JobOpeningProcess-to-Phase" style="stroke:#181818;stroke-width:0.6;"/><polygon fill="#181818" points="586.2,695.268,588.6,689.868,586.2,692.268,583.8,689.868,586.2,695.268" style="stroke:#181818;stroke-width:0.6;"/><text fill="#000000" font-family="sans-serif" font-size="7.8" lengthAdjust="spacing" textLength="4.2" x="581.6391" y="666.9813">1</text><text fill="#000000" font-family="sans-serif" font-size="7.8" lengthAdjust="spacing" textLength="4.2" x="581.5144" y="688.6474">1</text></g><!--link Phase to PhaseType--><g id="link_Phase_PhaseType"><path codeLine="120" d="M586.2,727.296 C586.2,738.54 586.2,750.84 586.2,766.182 " fill="none" id="Phase-to-PhaseType" style="stroke:#181818;stroke-width:0.6;"/><polygon fill="#181818" points="586.2,769.782,588.6,764.382,586.2,766.782,583.8,764.382,586.2,769.782" style="stroke:#181818;stroke-width:0.6;"/><text fill="#000000" font-family="sans-serif" font-size="7.8" lengthAdjust="spacing" textLength="4.2" x="581.5669" y="740.1079">1</text><text fill="#000000" font-family="sans-serif" font-size="7.8" lengthAdjust="spacing" textLength="4.2" x="581.8064" y="763.0646">1</text></g><!--link Notification to idNotification--><g id="link_Notification_idNotification"><path codeLine="122" d="M767.466,654.078 C754.47,665.322 741.053,676.9232 728.051,688.1672 " fill="none" id="Notification-to-idNotification" style="stroke:#181818;stroke-width:0.6;"/><polygon fill="#181818" points="725.328,690.522,730.9824,688.8051,727.5972,688.5596,727.8426,685.1744,725.328,690.522" style="stroke:#181818;stroke-width:0.6;"/><text fill="#000000" font-family="sans-serif" font-size="7.8" lengthAdjust="spacing" textLength="4.2" x="758.8945" y="666.9813">1</text><text fill="#000000" font-family="sans-serif" font-size="7.8" lengthAdjust="spacing" textLength="4.2" x="725.1746" y="683.8488">1</text></g><!--link Notification to userName--><g id="link_Notification_userName"><path codeLine="123" d="M790.8,654.078 C790.8,666.966 790.8,679.818 790.8,691.668 " fill="none" id="Notification-to-userName" style="stroke:#181818;stroke-width:0.6;"/><polygon fill="#181818" points="790.8,695.268,793.2,689.868,790.8,692.268,788.4,689.868,790.8,695.268" style="stroke:#181818;stroke-width:0.6;"/><text fill="#000000" font-family="sans-serif" font-size="7.8" lengthAdjust="spacing" textLength="4.2" x="786.2391" y="666.9813">1</text><text fill="#000000" font-family="sans-serif" font-size="7.8" lengthAdjust="spacing" textLength="4.2" x="786.1144" y="688.6474">1</text></g><!--link Notification to content--><g id="link_Notification_content"><path codeLine="124" d="M814.134,654.078 C829.032,666.966 845.3354,681.0627 859.0334,692.9127 " fill="none" id="Notification-to-content" style="stroke:#181818;stroke-width:0.6;"/><polygon fill="#181818" points="861.756,695.268,859.2423,689.92,859.4872,693.3053,856.1019,693.5501,861.756,695.268" style="stroke:#181818;stroke-width:0.6;"/><text fill="#000000" font-family="sans-serif" font-size="7.8" lengthAdjust="spacing" textLength="4.2" x="813.5836" y="666.9813">1</text><text fill="#000000" font-family="sans-serif" font-size="7.8" lengthAdjust="spacing" textLength="4.2" x="852.944" y="688.6474">1</text></g><!--link Notification to isSend--><g id="link_Notification_isSend"><path codeLine="125" d="M829.368,650.046 C856.02,661.266 892.242,676.656 924,690.6 C927.486,692.13 927.8294,692.2748 931.4534,693.8948 " fill="none" id="Notification-to-isSend" style="stroke:#181818;stroke-width:0.6;"/><polygon fill="#181818" points="934.74,695.364,930.7896,690.9692,932.0012,694.1397,928.8307,695.3513,934.74,695.364" style="stroke:#181818;stroke-width:0.6;"/><text fill="#000000" font-family="sans-serif" font-size="7.8" lengthAdjust="spacing" textLength="4.2" x="834.0702" y="649.6355">1</text><text fill="#000000" font-family="sans-serif" font-size="7.8" lengthAdjust="spacing" textLength="4.2" x="925.5113" y="690.6527">1</text></g><!--link JobOpening to Notification--><g id="link_JobOpening_Notification"><path codeLine="127" d="M572.01,383.064 C635.16,392.928 753.6,416.49 753.6,454.5 C753.6,454.5 753.6,454.5 753.6,562.2 C753.6,580.746 761.6784,596.2773 771.3924,609.6513 " fill="none" id="JobOpening-to-Notification" style="stroke:#181818;stroke-width:0.6;"/><polygon fill="#181818" points="773.508,612.564,772.2764,606.7845,771.745,610.1367,768.3927,609.6053,773.508,612.564" style="stroke:#181818;stroke-width:0.6;"/><text fill="#000000" font-family="sans-serif" font-size="7.8" lengthAdjust="spacing" textLength="12.6" x="754.2" y="522.617">has</text><text fill="#000000" font-family="sans-serif" font-size="7.8" lengthAdjust="spacing" textLength="4.2" x="576.7171" y="381.4068">1</text><text fill="#000000" font-family="sans-serif" font-size="7.8" lengthAdjust="spacing" textLength="3" x="766.9258" y="605.8988">*</text></g><!--SRC=[bPLTRvim58Rl-HLMUX6fKjhjjaAHM4itffH4G3FrQZBcX7ZZIyPigghzzzb0YKamK2vGS9xNzZd7Fk_oo7bHtjtU5WdEU9KcDoHFRqc2ot8LKHmpd1h6aKQ0Kk37F2eDWm7XE8iJG8llUOYs1MGqYnVeAWm9mHYz6GOIJpq74aGBcAOLnmnYp05vUSxNQzEqCqxvwthzzkzCuy4166G4JDE9eALCSu-J2j0s_2MsSAuAA4zWonwhZ72QPpeOiYf5ztd66IOyU2r0xg9AWObzHGDhr2BvF3vlDZy3vydkHdQM5vn6rFcVycZsl9xzj0rEasxTbUyetzzUldZEG_SfLb5YtcE2CqAXTAiq13QUe0Se2QE5BZbovk7I8gie4agmL8eoOqn86FRBh13pwwo8d6X-eItECJb2PAUO9lFGHvh01Ddk9MSFcEDvhDYtpp6lojcuXxFVcjmhgKTkpkcXbOZFAvblGlePLvc9b9z4DEhBHbD-abKbC1UdC0eHSQV4RACCBNt88jtfqns_7Si9b6MNYBV1_j9IitDnePmyWyiHiVOWJ8ZYyQJkZhW49G2b3tJDfcO-qicitMxZt5k1itMxCV_UistNSRzs8uuRsDxUiN_u9w5hRLvynrTwb_-y2Ths9s8rbfeIEk9ii3yK_hP5h6sYdveEGHCbrCW-KhvE92uxp4G3cawWFidPtDayAAjawB8inKqGUUmbPF5vWLPLiLhNl_f1ZwAzE8V8Squ6ESGrM1tWd6cQw6GSIlCR2KDUVaEr_Pem9VpEjYV9EBDvFQXwV4jTCDAdTVyfTgbVvCo0zQ1uBbBH9g9dWtfATRr9IXhUv8ADr_MnQucjLgSQlT_WErHMOKgvw2teaBCvqJGzSPZyT7FJXwKrDeUWtoCRIG87Vh6dhcyhgdQ59eBh0Le48lgbRfrsZRgb6lNxSbmUACFeUxJ2z3rMpxsRgfve7NLagTfEZP7mUz8cSkC_]--></g></svg>