<?xml version="1.0" encoding="us-ascii" standalone="no"?><svg xmlns="http://www.w3.org/2000/svg" xmlns:xlink="http://www.w3.org/1999/xlink" contentStyleType="text/css" height="1590px" preserveAspectRatio="none" style="width:1957px;height:1590px;background:#FFFFFF;" version="1.1" viewBox="0 0 1957 1590" width="1957px" zoomAndPan="magnify"><defs/><g><!--cluster Job Opening--><g id="cluster_Job Opening"><rect fill="#BBCCAA" height="483" rx="2.5" ry="2.5" style="stroke:#181818;stroke-width:1.0;" width="647" x="815" y="372"/><text fill="#000000" font-family="sans-serif" font-size="14" font-weight="bold" lengthAdjust="spacing" textLength="90" x="1093.5" y="389.1074">Job Opening</text></g><!--cluster Job Opening Application--><g id="cluster_Job Opening Application"><rect fill="#AACCBB" height="252" rx="2.5" ry="2.5" style="stroke:#181818;stroke-width:1.0;" width="957" x="758" y="7"/><text fill="#000000" font-family="sans-serif" font-size="14" font-weight="bold" lengthAdjust="spacing" textLength="172" x="1150.5" y="24.1074">Job Opening Application</text></g><!--cluster  Notification --><g id="cluster_ Notification "><rect fill="#CCBBCC" height="252" rx="2.5" ry="2.5" style="stroke:#181818;stroke-width:1.0;" width="590" x="1361" y="1107"/><text fill="#000000" font-family="sans-serif" font-size="14" font-weight="bold" lengthAdjust="spacing" textLength="80" x="1616" y="1124.1074">Notification</text></g><!--cluster Job Opening Process--><g id="cluster_Job Opening Process"><rect fill="#CCBBCC" height="477" rx="2.5" ry="2.5" style="stroke:#181818;stroke-width:1.0;" width="397" x="477" y="1107"/><text fill="#000000" font-family="sans-serif" font-size="14" font-weight="bold" lengthAdjust="spacing" textLength="151" x="600" y="1124.1074">Job Opening Process</text></g><!--cluster customer--><g id="cluster_customer"><rect fill="#BBAACC" height="275" rx="2.5" ry="2.5" style="stroke:#181818;stroke-width:1.0;" width="160" x="7" y="580"/><text fill="#000000" font-family="sans-serif" font-size="14" font-weight="bold" lengthAdjust="spacing" textLength="66" x="54" y="597.1074">customer</text></g><!--cluster Shared Objects--><g id="cluster_Shared Objects"><rect fill="none" height="106" rx="2.5" ry="2.5" style="stroke:#181818;stroke-width:1.0;" width="590" x="134" y="906"/><text fill="#000000" font-family="sans-serif" font-size="14" font-weight="bold" lengthAdjust="spacing" textLength="108" x="375" y="923.1074">Shared Objects</text></g><!--cluster User--><g id="cluster_User"><rect fill="#CCBBCC" height="122" rx="2.5" ry="2.5" style="stroke:#181818;stroke-width:1.0;" width="458" x="191" y="733"/><text fill="#000000" font-family="sans-serif" font-size="14" font-weight="bold" lengthAdjust="spacing" textLength="33" x="403.5" y="750.1074">User</text></g><!--class JobOpening--><g id="elem_JobOpening"><rect codeLine="7" fill="#F1F1F1" height="68.543" id="JobOpening" rx="2.5" ry="2.5" style="stroke:#181818;stroke-width:0.5;" width="128" x="831" y="617"/><ellipse cx="846" cy="647.2715" fill="#ADD1B2" rx="11" ry="11" style="stroke:#181818;stroke-width:1.0;"/><path d="M848.7656,643.1465 Q848.9219,642.9277 849.1094,642.8184 Q849.2969,642.709 849.5156,642.709 Q849.8906,642.709 850.125,642.9746 Q850.3594,643.2246 850.3594,643.834 L850.3594,645.2871 Q850.3594,645.8965 850.125,646.1621 Q849.8906,646.4277 849.5156,646.4277 Q849.1719,646.4277 848.9688,646.2246 Q848.7656,646.0371 848.6563,645.5215 Q848.6094,645.1621 848.4219,644.9746 Q848.0938,644.5996 847.4844,644.3809 Q846.875,644.1621 846.25,644.1621 Q845.4844,644.1621 844.8438,644.4902 Q844.2188,644.8184 843.7188,645.5684 Q843.2344,646.3184 843.2344,647.3496 L843.2344,648.4434 Q843.2344,649.6777 844.125,650.5059 Q845.0156,651.3184 846.6094,651.3184 Q847.5469,651.3184 848.2031,651.0684 Q848.5938,650.9121 849.0156,650.4746 Q849.2813,650.209 849.4219,650.1309 Q849.5781,650.0527 849.7813,650.0527 Q850.1094,650.0527 850.3594,650.3184 Q850.625,650.5684 850.625,650.9121 Q850.625,651.2559 850.2813,651.6621 Q849.7813,652.2402 848.9844,652.5684 Q847.9063,653.0215 846.6094,653.0215 Q845.0938,653.0215 843.8906,652.3965 Q842.9063,651.8965 842.2188,650.834 Q841.5313,649.7559 841.5313,648.4746 L841.5313,647.3184 Q841.5313,645.9902 842.1406,644.8496 Q842.7656,643.6934 843.8594,643.084 Q844.9531,642.459 846.1875,642.459 Q846.9219,642.459 847.5625,642.6309 Q848.2188,642.7871 848.7656,643.1465 Z " fill="#000000"/><text fill="#000000" font-family="sans-serif" font-size="12" font-style="italic" lengthAdjust="spacing" textLength="100" x="858" y="634.9492">&#171;Aggregate Root&#187;</text><text fill="#000000" font-family="sans-serif" font-size="12" font-style="italic" lengthAdjust="spacing" textLength="44" x="886" y="650.9102">&#171;Entity&#187;</text><text fill="#000000" font-family="sans-serif" font-size="14" lengthAdjust="spacing" textLength="76" x="870" y="669.0293">JobOpening</text><line style="stroke:#181818;stroke-width:0.5;" x1="832" x2="958" y1="677.543" y2="677.543"/></g><!--class JobReference--><g id="elem_JobReference"><rect codeLine="9" fill="#F1F1F1" height="68.543" id="JobReference" rx="2.5" ry="2.5" style="stroke:#181818;stroke-width:0.5;" width="120" x="831" y="770"/><ellipse cx="846" cy="800.2715" fill="#ADD1B2" rx="11" ry="11" style="stroke:#181818;stroke-width:1.0;"/><path d="M848.7656,796.1465 Q848.9219,795.9277 849.1094,795.8184 Q849.2969,795.709 849.5156,795.709 Q849.8906,795.709 850.125,795.9746 Q850.3594,796.2246 850.3594,796.834 L850.3594,798.2871 Q850.3594,798.8965 850.125,799.1621 Q849.8906,799.4277 849.5156,799.4277 Q849.1719,799.4277 848.9688,799.2246 Q848.7656,799.0371 848.6563,798.5215 Q848.6094,798.1621 848.4219,797.9746 Q848.0938,797.5996 847.4844,797.3809 Q846.875,797.1621 846.25,797.1621 Q845.4844,797.1621 844.8438,797.4902 Q844.2188,797.8184 843.7188,798.5684 Q843.2344,799.3184 843.2344,800.3496 L843.2344,801.4434 Q843.2344,802.6777 844.125,803.5059 Q845.0156,804.3184 846.6094,804.3184 Q847.5469,804.3184 848.2031,804.0684 Q848.5938,803.9121 849.0156,803.4746 Q849.2813,803.209 849.4219,803.1309 Q849.5781,803.0527 849.7813,803.0527 Q850.1094,803.0527 850.3594,803.3184 Q850.625,803.5684 850.625,803.9121 Q850.625,804.2559 850.2813,804.6621 Q849.7813,805.2402 848.9844,805.5684 Q847.9063,806.0215 846.6094,806.0215 Q845.0938,806.0215 843.8906,805.3965 Q842.9063,804.8965 842.2188,803.834 Q841.5313,802.7559 841.5313,801.4746 L841.5313,800.3184 Q841.5313,798.9902 842.1406,797.8496 Q842.7656,796.6934 843.8594,796.084 Q844.9531,795.459 846.1875,795.459 Q846.9219,795.459 847.5625,795.6309 Q848.2188,795.7871 848.7656,796.1465 Z " fill="#000000"/><text fill="#000000" font-family="sans-serif" font-size="12" font-style="italic" lengthAdjust="spacing" textLength="54" x="877" y="787.9492">&#171;Identity&#187;</text><text fill="#000000" font-family="sans-serif" font-size="12" font-style="italic" lengthAdjust="spacing" textLength="85" x="861.5" y="803.9102">&#171;Value Object&#187;</text><text fill="#000000" font-family="sans-serif" font-size="14" lengthAdjust="spacing" textLength="88" x="860" y="822.0293">JobReference</text><line style="stroke:#181818;stroke-width:0.5;" x1="832" x2="950" y1="830.543" y2="830.543"/></g><!--class TitleOrFunction--><g id="elem_TitleOrFunction"><rect codeLine="11" fill="#F1F1F1" height="52.582" id="TitleOrFunction" rx="2.5" ry="2.5" style="stroke:#181818;stroke-width:0.5;" width="130" x="986" y="778"/><ellipse cx="1001" cy="800.291" fill="#ADD1B2" rx="11" ry="11" style="stroke:#181818;stroke-width:1.0;"/><path d="M1003.7656,796.166 Q1003.9219,795.9473 1004.1094,795.8379 Q1004.2969,795.7285 1004.5156,795.7285 Q1004.8906,795.7285 1005.125,795.9941 Q1005.3594,796.2441 1005.3594,796.8535 L1005.3594,798.3066 Q1005.3594,798.916 1005.125,799.1816 Q1004.8906,799.4473 1004.5156,799.4473 Q1004.1719,799.4473 1003.9688,799.2441 Q1003.7656,799.0566 1003.6563,798.541 Q1003.6094,798.1816 1003.4219,797.9941 Q1003.0938,797.6191 1002.4844,797.4004 Q1001.875,797.1816 1001.25,797.1816 Q1000.4844,797.1816 999.8438,797.5098 Q999.2188,797.8379 998.7188,798.5879 Q998.2344,799.3379 998.2344,800.3691 L998.2344,801.4629 Q998.2344,802.6973 999.125,803.5254 Q1000.0156,804.3379 1001.6094,804.3379 Q1002.5469,804.3379 1003.2031,804.0879 Q1003.5938,803.9316 1004.0156,803.4941 Q1004.2813,803.2285 1004.4219,803.1504 Q1004.5781,803.0723 1004.7813,803.0723 Q1005.1094,803.0723 1005.3594,803.3379 Q1005.625,803.5879 1005.625,803.9316 Q1005.625,804.2754 1005.2813,804.6816 Q1004.7813,805.2598 1003.9844,805.5879 Q1002.9063,806.041 1001.6094,806.041 Q1000.0938,806.041 998.8906,805.416 Q997.9063,804.916 997.2188,803.8535 Q996.5313,802.7754 996.5313,801.4941 L996.5313,800.3379 Q996.5313,799.0098 997.1406,797.8691 Q997.7656,796.7129 998.8594,796.1035 Q999.9531,795.4785 1001.1875,795.4785 Q1001.9219,795.4785 1002.5625,795.6504 Q1003.2188,795.8066 1003.7656,796.166 Z " fill="#000000"/><text fill="#000000" font-family="sans-serif" font-size="12" font-style="italic" lengthAdjust="spacing" textLength="85" x="1021.5" y="795.9492">&#171;Value Object&#187;</text><text fill="#000000" font-family="sans-serif" font-size="14" lengthAdjust="spacing" textLength="98" x="1015" y="814.0684">TitleOrFunction</text><line style="stroke:#181818;stroke-width:0.5;" x1="987" x2="1115" y1="822.582" y2="822.582"/></g><!--class ContractType--><g id="elem_ContractType"><rect codeLine="13" fill="#F1F1F1" height="105.7852" id="ContractType" rx="2.5" ry="2.5" style="stroke:#181818;stroke-width:0.5;" width="118" x="983" y="418"/><ellipse cx="998" cy="448.2715" fill="#EB937F" rx="11" ry="11" style="stroke:#181818;stroke-width:1.0;"/><path d="M996.8594,449.0684 L996.8594,451.5684 L1001.1875,451.5684 L1001.1875,450.6465 Q1001.1875,450.0371 1001.4219,449.7715 Q1001.6719,449.5059 1002.0469,449.5059 Q1002.4219,449.5059 1002.6563,449.7715 Q1002.8906,450.0371 1002.8906,450.6465 L1002.8906,453.2715 L994.8906,453.2715 Q994.2656,453.2715 994,453.0371 Q993.75,452.8027 993.75,452.4121 Q993.75,452.0371 994.0156,451.8027 Q994.2813,451.5684 994.8906,451.5684 L995.1563,451.5684 L995.1563,444.9121 L994.8906,444.9121 Q994.2656,444.9121 994,444.6777 Q993.75,444.4434 993.75,444.0527 Q993.75,443.6777 994,443.4434 Q994.2656,443.209 994.8906,443.209 L1002.5156,443.209 L1002.5156,445.8027 Q1002.5156,446.4121 1002.2813,446.6777 Q1002.0625,446.9277 1001.6719,446.9277 Q1001.2969,446.9277 1001.0625,446.6777 Q1000.8281,446.4121 1000.8281,445.8027 L1000.8281,444.9121 L996.8594,444.9121 L996.8594,447.3652 L998.3438,447.3652 Q998.3438,446.709 998.4688,446.5215 Q998.7344,446.1152 999.2031,446.1152 Q999.5781,446.1152 999.8125,446.3809 Q1000.0469,446.6309 1000.0469,447.2402 L1000.0469,449.209 Q1000.0469,449.7559 999.9219,449.9434 Q999.6563,450.334 999.2031,450.334 Q998.7344,450.334 998.4688,449.9277 Q998.3438,449.7402 998.3438,449.0684 L996.8594,449.0684 Z " fill="#000000"/><text fill="#000000" font-family="sans-serif" font-size="12" font-style="italic" lengthAdjust="spacing" textLength="82" x="1014" y="435.9492">&#171;Enumerated&#187;</text><text fill="#000000" font-family="sans-serif" font-size="12" font-style="italic" lengthAdjust="spacing" textLength="85" x="1012.5" y="451.9102">&#171;Value Object&#187;</text><text fill="#000000" font-family="sans-serif" font-size="14" lengthAdjust="spacing" textLength="86" x="1012" y="470.0293">ContractType</text><line style="stroke:#181818;stroke-width:0.5;" x1="984" x2="1100" y1="478.543" y2="478.543"/><text fill="#000000" font-family="sans-serif" font-size="14" lengthAdjust="spacing" textLength="74" x="989" y="497.6504">FULL_TIME</text><text fill="#000000" font-family="sans-serif" font-size="14" lengthAdjust="spacing" textLength="77" x="989" y="516.2715">PART_TIME</text></g><!--class Mode--><g id="elem_Mode"><rect codeLine="18" fill="#F1F1F1" height="124.4063" id="Mode" rx="2.5" ry="2.5" style="stroke:#181818;stroke-width:0.5;" width="113" x="834.5" y="409"/><ellipse cx="849.5" cy="439.2715" fill="#EB937F" rx="11" ry="11" style="stroke:#181818;stroke-width:1.0;"/><path d="M848.3594,440.0684 L848.3594,442.5684 L852.6875,442.5684 L852.6875,441.6465 Q852.6875,441.0371 852.9219,440.7715 Q853.1719,440.5059 853.5469,440.5059 Q853.9219,440.5059 854.1563,440.7715 Q854.3906,441.0371 854.3906,441.6465 L854.3906,444.2715 L846.3906,444.2715 Q845.7656,444.2715 845.5,444.0371 Q845.25,443.8027 845.25,443.4121 Q845.25,443.0371 845.5156,442.8027 Q845.7813,442.5684 846.3906,442.5684 L846.6563,442.5684 L846.6563,435.9121 L846.3906,435.9121 Q845.7656,435.9121 845.5,435.6777 Q845.25,435.4434 845.25,435.0527 Q845.25,434.6777 845.5,434.4434 Q845.7656,434.209 846.3906,434.209 L854.0156,434.209 L854.0156,436.8027 Q854.0156,437.4121 853.7813,437.6777 Q853.5625,437.9277 853.1719,437.9277 Q852.7969,437.9277 852.5625,437.6777 Q852.3281,437.4121 852.3281,436.8027 L852.3281,435.9121 L848.3594,435.9121 L848.3594,438.3652 L849.8438,438.3652 Q849.8438,437.709 849.9688,437.5215 Q850.2344,437.1152 850.7031,437.1152 Q851.0781,437.1152 851.3125,437.3809 Q851.5469,437.6309 851.5469,438.2402 L851.5469,440.209 Q851.5469,440.7559 851.4219,440.9434 Q851.1563,441.334 850.7031,441.334 Q850.2344,441.334 849.9688,440.9277 Q849.8438,440.7402 849.8438,440.0684 L848.3594,440.0684 Z " fill="#000000"/><text fill="#000000" font-family="sans-serif" font-size="12" font-style="italic" lengthAdjust="spacing" textLength="82" x="863" y="426.9492">&#171;Enumerated&#187;</text><text fill="#000000" font-family="sans-serif" font-size="12" font-style="italic" lengthAdjust="spacing" textLength="85" x="861.5" y="442.9102">&#171;Value Object&#187;</text><text fill="#000000" font-family="sans-serif" font-size="14" lengthAdjust="spacing" textLength="35" x="886.5" y="461.0293">Mode</text><line style="stroke:#181818;stroke-width:0.5;" x1="835.5" x2="946.5" y1="469.543" y2="469.543"/><text fill="#000000" font-family="sans-serif" font-size="14" lengthAdjust="spacing" textLength="59" x="840.5" y="488.6504">REMOTE</text><text fill="#000000" font-family="sans-serif" font-size="14" lengthAdjust="spacing" textLength="55" x="840.5" y="507.2715">ON-SITE</text><text fill="#000000" font-family="sans-serif" font-size="14" lengthAdjust="spacing" textLength="50" x="840.5" y="525.8926">HYBRID</text></g><!--class VacanciesNumber--><g id="elem_VacanciesNumber"><rect codeLine="25" fill="#F1F1F1" height="52.582" id="VacanciesNumber" rx="2.5" ry="2.5" style="stroke:#181818;stroke-width:0.5;" width="146" x="1151" y="778"/><ellipse cx="1166" cy="800.291" fill="#ADD1B2" rx="11" ry="11" style="stroke:#181818;stroke-width:1.0;"/><path d="M1168.7656,796.166 Q1168.9219,795.9473 1169.1094,795.8379 Q1169.2969,795.7285 1169.5156,795.7285 Q1169.8906,795.7285 1170.125,795.9941 Q1170.3594,796.2441 1170.3594,796.8535 L1170.3594,798.3066 Q1170.3594,798.916 1170.125,799.1816 Q1169.8906,799.4473 1169.5156,799.4473 Q1169.1719,799.4473 1168.9688,799.2441 Q1168.7656,799.0566 1168.6563,798.541 Q1168.6094,798.1816 1168.4219,797.9941 Q1168.0938,797.6191 1167.4844,797.4004 Q1166.875,797.1816 1166.25,797.1816 Q1165.4844,797.1816 1164.8438,797.5098 Q1164.2188,797.8379 1163.7188,798.5879 Q1163.2344,799.3379 1163.2344,800.3691 L1163.2344,801.4629 Q1163.2344,802.6973 1164.125,803.5254 Q1165.0156,804.3379 1166.6094,804.3379 Q1167.5469,804.3379 1168.2031,804.0879 Q1168.5938,803.9316 1169.0156,803.4941 Q1169.2813,803.2285 1169.4219,803.1504 Q1169.5781,803.0723 1169.7813,803.0723 Q1170.1094,803.0723 1170.3594,803.3379 Q1170.625,803.5879 1170.625,803.9316 Q1170.625,804.2754 1170.2813,804.6816 Q1169.7813,805.2598 1168.9844,805.5879 Q1167.9063,806.041 1166.6094,806.041 Q1165.0938,806.041 1163.8906,805.416 Q1162.9063,804.916 1162.2188,803.8535 Q1161.5313,802.7754 1161.5313,801.4941 L1161.5313,800.3379 Q1161.5313,799.0098 1162.1406,797.8691 Q1162.7656,796.7129 1163.8594,796.1035 Q1164.9531,795.4785 1166.1875,795.4785 Q1166.9219,795.4785 1167.5625,795.6504 Q1168.2188,795.8066 1168.7656,796.166 Z " fill="#000000"/><text fill="#000000" font-family="sans-serif" font-size="12" font-style="italic" lengthAdjust="spacing" textLength="85" x="1194.5" y="795.9492">&#171;Value Object&#187;</text><text fill="#000000" font-family="sans-serif" font-size="14" lengthAdjust="spacing" textLength="114" x="1180" y="814.0684">VacanciesNumber</text><line style="stroke:#181818;stroke-width:0.5;" x1="1152" x2="1296" y1="822.582" y2="822.582"/></g><!--class Description--><g id="elem_Description"><rect codeLine="27" fill="#F1F1F1" height="52.582" id="Description" rx="2.5" ry="2.5" style="stroke:#181818;stroke-width:0.5;" width="113" x="1332.5" y="778"/><ellipse cx="1347.5" cy="800.291" fill="#ADD1B2" rx="11" ry="11" style="stroke:#181818;stroke-width:1.0;"/><path d="M1350.2656,796.166 Q1350.4219,795.9473 1350.6094,795.8379 Q1350.7969,795.7285 1351.0156,795.7285 Q1351.3906,795.7285 1351.625,795.9941 Q1351.8594,796.2441 1351.8594,796.8535 L1351.8594,798.3066 Q1351.8594,798.916 1351.625,799.1816 Q1351.3906,799.4473 1351.0156,799.4473 Q1350.6719,799.4473 1350.4688,799.2441 Q1350.2656,799.0566 1350.1563,798.541 Q1350.1094,798.1816 1349.9219,797.9941 Q1349.5938,797.6191 1348.9844,797.4004 Q1348.375,797.1816 1347.75,797.1816 Q1346.9844,797.1816 1346.3438,797.5098 Q1345.7188,797.8379 1345.2188,798.5879 Q1344.7344,799.3379 1344.7344,800.3691 L1344.7344,801.4629 Q1344.7344,802.6973 1345.625,803.5254 Q1346.5156,804.3379 1348.1094,804.3379 Q1349.0469,804.3379 1349.7031,804.0879 Q1350.0938,803.9316 1350.5156,803.4941 Q1350.7813,803.2285 1350.9219,803.1504 Q1351.0781,803.0723 1351.2813,803.0723 Q1351.6094,803.0723 1351.8594,803.3379 Q1352.125,803.5879 1352.125,803.9316 Q1352.125,804.2754 1351.7813,804.6816 Q1351.2813,805.2598 1350.4844,805.5879 Q1349.4063,806.041 1348.1094,806.041 Q1346.5938,806.041 1345.3906,805.416 Q1344.4063,804.916 1343.7188,803.8535 Q1343.0313,802.7754 1343.0313,801.4941 L1343.0313,800.3379 Q1343.0313,799.0098 1343.6406,797.8691 Q1344.2656,796.7129 1345.3594,796.1035 Q1346.4531,795.4785 1347.6875,795.4785 Q1348.4219,795.4785 1349.0625,795.6504 Q1349.7188,795.8066 1350.2656,796.166 Z " fill="#000000"/><text fill="#000000" font-family="sans-serif" font-size="12" font-style="italic" lengthAdjust="spacing" textLength="85" x="1359.5" y="795.9492">&#171;Value Object&#187;</text><text fill="#000000" font-family="sans-serif" font-size="14" lengthAdjust="spacing" textLength="71" x="1366.5" y="814.0684">Description</text><line style="stroke:#181818;stroke-width:0.5;" x1="1333.5" x2="1444.5" y1="822.582" y2="822.582"/></g><!--class Application--><g id="elem_Application"><rect codeLine="34" fill="#F1F1F1" height="68.543" id="Application" rx="2.5" ry="2.5" style="stroke:#181818;stroke-width:0.5;" width="128" x="1132" y="44"/><ellipse cx="1147" cy="74.2715" fill="#ADD1B2" rx="11" ry="11" style="stroke:#181818;stroke-width:1.0;"/><path d="M1149.7656,70.1465 Q1149.9219,69.9277 1150.1094,69.8184 Q1150.2969,69.709 1150.5156,69.709 Q1150.8906,69.709 1151.125,69.9746 Q1151.3594,70.2246 1151.3594,70.834 L1151.3594,72.2871 Q1151.3594,72.8965 1151.125,73.1621 Q1150.8906,73.4277 1150.5156,73.4277 Q1150.1719,73.4277 1149.9688,73.2246 Q1149.7656,73.0371 1149.6563,72.5215 Q1149.6094,72.1621 1149.4219,71.9746 Q1149.0938,71.5996 1148.4844,71.3809 Q1147.875,71.1621 1147.25,71.1621 Q1146.4844,71.1621 1145.8438,71.4902 Q1145.2188,71.8184 1144.7188,72.5684 Q1144.2344,73.3184 1144.2344,74.3496 L1144.2344,75.4434 Q1144.2344,76.6777 1145.125,77.5059 Q1146.0156,78.3184 1147.6094,78.3184 Q1148.5469,78.3184 1149.2031,78.0684 Q1149.5938,77.9121 1150.0156,77.4746 Q1150.2813,77.209 1150.4219,77.1309 Q1150.5781,77.0527 1150.7813,77.0527 Q1151.1094,77.0527 1151.3594,77.3184 Q1151.625,77.5684 1151.625,77.9121 Q1151.625,78.2559 1151.2813,78.6621 Q1150.7813,79.2402 1149.9844,79.5684 Q1148.9063,80.0215 1147.6094,80.0215 Q1146.0938,80.0215 1144.8906,79.3965 Q1143.9063,78.8965 1143.2188,77.834 Q1142.5313,76.7559 1142.5313,75.4746 L1142.5313,74.3184 Q1142.5313,72.9902 1143.1406,71.8496 Q1143.7656,70.6934 1144.8594,70.084 Q1145.9531,69.459 1147.1875,69.459 Q1147.9219,69.459 1148.5625,69.6309 Q1149.2188,69.7871 1149.7656,70.1465 Z " fill="#000000"/><text fill="#000000" font-family="sans-serif" font-size="12" font-style="italic" lengthAdjust="spacing" textLength="100" x="1159" y="61.9492">&#171;Aggregate Root&#187;</text><text fill="#000000" font-family="sans-serif" font-size="12" font-style="italic" lengthAdjust="spacing" textLength="44" x="1187" y="77.9102">&#171;Entity&#187;</text><text fill="#000000" font-family="sans-serif" font-size="14" lengthAdjust="spacing" textLength="69" x="1174.5" y="96.0293">Application</text><line style="stroke:#181818;stroke-width:0.5;" x1="1133" x2="1259" y1="104.543" y2="104.543"/></g><!--class ApplicationId--><g id="elem_ApplicationId"><rect codeLine="36" fill="#F1F1F1" height="68.543" id="ApplicationId" rx="2.5" ry="2.5" style="stroke:#181818;stroke-width:0.5;" width="113" x="774.5" y="174"/><ellipse cx="789.5" cy="204.2715" fill="#ADD1B2" rx="11" ry="11" style="stroke:#181818;stroke-width:1.0;"/><path d="M792.2656,200.1465 Q792.4219,199.9277 792.6094,199.8184 Q792.7969,199.709 793.0156,199.709 Q793.3906,199.709 793.625,199.9746 Q793.8594,200.2246 793.8594,200.834 L793.8594,202.2871 Q793.8594,202.8965 793.625,203.1621 Q793.3906,203.4277 793.0156,203.4277 Q792.6719,203.4277 792.4688,203.2246 Q792.2656,203.0371 792.1563,202.5215 Q792.1094,202.1621 791.9219,201.9746 Q791.5938,201.5996 790.9844,201.3809 Q790.375,201.1621 789.75,201.1621 Q788.9844,201.1621 788.3438,201.4902 Q787.7188,201.8184 787.2188,202.5684 Q786.7344,203.3184 786.7344,204.3496 L786.7344,205.4434 Q786.7344,206.6777 787.625,207.5059 Q788.5156,208.3184 790.1094,208.3184 Q791.0469,208.3184 791.7031,208.0684 Q792.0938,207.9121 792.5156,207.4746 Q792.7813,207.209 792.9219,207.1309 Q793.0781,207.0527 793.2813,207.0527 Q793.6094,207.0527 793.8594,207.3184 Q794.125,207.5684 794.125,207.9121 Q794.125,208.2559 793.7813,208.6621 Q793.2813,209.2402 792.4844,209.5684 Q791.4063,210.0215 790.1094,210.0215 Q788.5938,210.0215 787.3906,209.3965 Q786.4063,208.8965 785.7188,207.834 Q785.0313,206.7559 785.0313,205.4746 L785.0313,204.3184 Q785.0313,202.9902 785.6406,201.8496 Q786.2656,200.6934 787.3594,200.084 Q788.4531,199.459 789.6875,199.459 Q790.4219,199.459 791.0625,199.6309 Q791.7188,199.7871 792.2656,200.1465 Z " fill="#000000"/><text fill="#000000" font-family="sans-serif" font-size="12" font-style="italic" lengthAdjust="spacing" textLength="54" x="817" y="191.9492">&#171;Identity&#187;</text><text fill="#000000" font-family="sans-serif" font-size="12" font-style="italic" lengthAdjust="spacing" textLength="85" x="801.5" y="207.9102">&#171;Value Object&#187;</text><text fill="#000000" font-family="sans-serif" font-size="14" lengthAdjust="spacing" textLength="80" x="804" y="226.0293">ApplicationId</text><line style="stroke:#181818;stroke-width:0.5;" x1="775.5" x2="886.5" y1="234.543" y2="234.543"/></g><!--class AttachedEmail--><g id="elem_AttachedEmail"><rect codeLine="38" fill="#F1F1F1" height="52.582" id="AttachedEmail" rx="2.5" ry="2.5" style="stroke:#181818;stroke-width:0.5;" width="122" x="923" y="182"/><ellipse cx="938" cy="204.291" fill="#ADD1B2" rx="11" ry="11" style="stroke:#181818;stroke-width:1.0;"/><path d="M940.7656,200.166 Q940.9219,199.9473 941.1094,199.8379 Q941.2969,199.7285 941.5156,199.7285 Q941.8906,199.7285 942.125,199.9941 Q942.3594,200.2441 942.3594,200.8535 L942.3594,202.3066 Q942.3594,202.916 942.125,203.1816 Q941.8906,203.4473 941.5156,203.4473 Q941.1719,203.4473 940.9688,203.2441 Q940.7656,203.0566 940.6563,202.541 Q940.6094,202.1816 940.4219,201.9941 Q940.0938,201.6191 939.4844,201.4004 Q938.875,201.1816 938.25,201.1816 Q937.4844,201.1816 936.8438,201.5098 Q936.2188,201.8379 935.7188,202.5879 Q935.2344,203.3379 935.2344,204.3691 L935.2344,205.4629 Q935.2344,206.6973 936.125,207.5254 Q937.0156,208.3379 938.6094,208.3379 Q939.5469,208.3379 940.2031,208.0879 Q940.5938,207.9316 941.0156,207.4941 Q941.2813,207.2285 941.4219,207.1504 Q941.5781,207.0723 941.7813,207.0723 Q942.1094,207.0723 942.3594,207.3379 Q942.625,207.5879 942.625,207.9316 Q942.625,208.2754 942.2813,208.6816 Q941.7813,209.2598 940.9844,209.5879 Q939.9063,210.041 938.6094,210.041 Q937.0938,210.041 935.8906,209.416 Q934.9063,208.916 934.2188,207.8535 Q933.5313,206.7754 933.5313,205.4941 L933.5313,204.3379 Q933.5313,203.0098 934.1406,201.8691 Q934.7656,200.7129 935.8594,200.1035 Q936.9531,199.4785 938.1875,199.4785 Q938.9219,199.4785 939.5625,199.6504 Q940.2188,199.8066 940.7656,200.166 Z " fill="#000000"/><text fill="#000000" font-family="sans-serif" font-size="12" font-style="italic" lengthAdjust="spacing" textLength="85" x="954.5" y="199.9492">&#171;Value Object&#187;</text><text fill="#000000" font-family="sans-serif" font-size="14" lengthAdjust="spacing" textLength="90" x="952" y="218.0684">AttachedEmail</text><line style="stroke:#181818;stroke-width:0.5;" x1="924" x2="1044" y1="226.582" y2="226.582"/></g><!--class AttachedFile--><g id="elem_AttachedFile"><rect codeLine="40" fill="#F1F1F1" height="52.582" id="AttachedFile" rx="2.5" ry="2.5" style="stroke:#181818;stroke-width:0.5;" width="113" x="1080.5" y="182"/><ellipse cx="1095.5" cy="204.291" fill="#ADD1B2" rx="11" ry="11" style="stroke:#181818;stroke-width:1.0;"/><path d="M1098.2656,200.166 Q1098.4219,199.9473 1098.6094,199.8379 Q1098.7969,199.7285 1099.0156,199.7285 Q1099.3906,199.7285 1099.625,199.9941 Q1099.8594,200.2441 1099.8594,200.8535 L1099.8594,202.3066 Q1099.8594,202.916 1099.625,203.1816 Q1099.3906,203.4473 1099.0156,203.4473 Q1098.6719,203.4473 1098.4688,203.2441 Q1098.2656,203.0566 1098.1563,202.541 Q1098.1094,202.1816 1097.9219,201.9941 Q1097.5938,201.6191 1096.9844,201.4004 Q1096.375,201.1816 1095.75,201.1816 Q1094.9844,201.1816 1094.3438,201.5098 Q1093.7188,201.8379 1093.2188,202.5879 Q1092.7344,203.3379 1092.7344,204.3691 L1092.7344,205.4629 Q1092.7344,206.6973 1093.625,207.5254 Q1094.5156,208.3379 1096.1094,208.3379 Q1097.0469,208.3379 1097.7031,208.0879 Q1098.0938,207.9316 1098.5156,207.4941 Q1098.7813,207.2285 1098.9219,207.1504 Q1099.0781,207.0723 1099.2813,207.0723 Q1099.6094,207.0723 1099.8594,207.3379 Q1100.125,207.5879 1100.125,207.9316 Q1100.125,208.2754 1099.7813,208.6816 Q1099.2813,209.2598 1098.4844,209.5879 Q1097.4063,210.041 1096.1094,210.041 Q1094.5938,210.041 1093.3906,209.416 Q1092.4063,208.916 1091.7188,207.8535 Q1091.0313,206.7754 1091.0313,205.4941 L1091.0313,204.3379 Q1091.0313,203.0098 1091.6406,201.8691 Q1092.2656,200.7129 1093.3594,200.1035 Q1094.4531,199.4785 1095.6875,199.4785 Q1096.4219,199.4785 1097.0625,199.6504 Q1097.7188,199.8066 1098.2656,200.166 Z " fill="#000000"/><text fill="#000000" font-family="sans-serif" font-size="12" font-style="italic" lengthAdjust="spacing" textLength="85" x="1107.5" y="199.9492">&#171;Value Object&#187;</text><text fill="#000000" font-family="sans-serif" font-size="14" lengthAdjust="spacing" textLength="79" x="1110.5" y="218.0684">AttachedFile</text><line style="stroke:#181818;stroke-width:0.5;" x1="1081.5" x2="1192.5" y1="226.582" y2="226.582"/></g><!--class ApplicatorData--><g id="elem_ApplicatorData"><rect codeLine="42" fill="#F1F1F1" height="52.582" id="ApplicatorData" rx="2.5" ry="2.5" style="stroke:#181818;stroke-width:0.5;" width="125" x="1228.5" y="182"/><ellipse cx="1243.5" cy="204.291" fill="#ADD1B2" rx="11" ry="11" style="stroke:#181818;stroke-width:1.0;"/><path d="M1246.2656,200.166 Q1246.4219,199.9473 1246.6094,199.8379 Q1246.7969,199.7285 1247.0156,199.7285 Q1247.3906,199.7285 1247.625,199.9941 Q1247.8594,200.2441 1247.8594,200.8535 L1247.8594,202.3066 Q1247.8594,202.916 1247.625,203.1816 Q1247.3906,203.4473 1247.0156,203.4473 Q1246.6719,203.4473 1246.4688,203.2441 Q1246.2656,203.0566 1246.1563,202.541 Q1246.1094,202.1816 1245.9219,201.9941 Q1245.5938,201.6191 1244.9844,201.4004 Q1244.375,201.1816 1243.75,201.1816 Q1242.9844,201.1816 1242.3438,201.5098 Q1241.7188,201.8379 1241.2188,202.5879 Q1240.7344,203.3379 1240.7344,204.3691 L1240.7344,205.4629 Q1240.7344,206.6973 1241.625,207.5254 Q1242.5156,208.3379 1244.1094,208.3379 Q1245.0469,208.3379 1245.7031,208.0879 Q1246.0938,207.9316 1246.5156,207.4941 Q1246.7813,207.2285 1246.9219,207.1504 Q1247.0781,207.0723 1247.2813,207.0723 Q1247.6094,207.0723 1247.8594,207.3379 Q1248.125,207.5879 1248.125,207.9316 Q1248.125,208.2754 1247.7813,208.6816 Q1247.2813,209.2598 1246.4844,209.5879 Q1245.4063,210.041 1244.1094,210.041 Q1242.5938,210.041 1241.3906,209.416 Q1240.4063,208.916 1239.7188,207.8535 Q1239.0313,206.7754 1239.0313,205.4941 L1239.0313,204.3379 Q1239.0313,203.0098 1239.6406,201.8691 Q1240.2656,200.7129 1241.3594,200.1035 Q1242.4531,199.4785 1243.6875,199.4785 Q1244.4219,199.4785 1245.0625,199.6504 Q1245.7188,199.8066 1246.2656,200.166 Z " fill="#000000"/><text fill="#000000" font-family="sans-serif" font-size="12" font-style="italic" lengthAdjust="spacing" textLength="85" x="1261.5" y="199.9492">&#171;Value Object&#187;</text><text fill="#000000" font-family="sans-serif" font-size="14" lengthAdjust="spacing" textLength="93" x="1257.5" y="218.0684">ApplicatorData</text><line style="stroke:#181818;stroke-width:0.5;" x1="1229.5" x2="1352.5" y1="226.582" y2="226.582"/></g><!--class ApplicationStatus--><g id="elem_ApplicationStatus"><rect codeLine="44" fill="#F1F1F1" height="52.582" id="ApplicationStatus" rx="2.5" ry="2.5" style="stroke:#181818;stroke-width:0.5;" width="141" x="1388.5" y="182"/><ellipse cx="1403.5" cy="204.291" fill="#ADD1B2" rx="11" ry="11" style="stroke:#181818;stroke-width:1.0;"/><path d="M1406.2656,200.166 Q1406.4219,199.9473 1406.6094,199.8379 Q1406.7969,199.7285 1407.0156,199.7285 Q1407.3906,199.7285 1407.625,199.9941 Q1407.8594,200.2441 1407.8594,200.8535 L1407.8594,202.3066 Q1407.8594,202.916 1407.625,203.1816 Q1407.3906,203.4473 1407.0156,203.4473 Q1406.6719,203.4473 1406.4688,203.2441 Q1406.2656,203.0566 1406.1563,202.541 Q1406.1094,202.1816 1405.9219,201.9941 Q1405.5938,201.6191 1404.9844,201.4004 Q1404.375,201.1816 1403.75,201.1816 Q1402.9844,201.1816 1402.3438,201.5098 Q1401.7188,201.8379 1401.2188,202.5879 Q1400.7344,203.3379 1400.7344,204.3691 L1400.7344,205.4629 Q1400.7344,206.6973 1401.625,207.5254 Q1402.5156,208.3379 1404.1094,208.3379 Q1405.0469,208.3379 1405.7031,208.0879 Q1406.0938,207.9316 1406.5156,207.4941 Q1406.7813,207.2285 1406.9219,207.1504 Q1407.0781,207.0723 1407.2813,207.0723 Q1407.6094,207.0723 1407.8594,207.3379 Q1408.125,207.5879 1408.125,207.9316 Q1408.125,208.2754 1407.7813,208.6816 Q1407.2813,209.2598 1406.4844,209.5879 Q1405.4063,210.041 1404.1094,210.041 Q1402.5938,210.041 1401.3906,209.416 Q1400.4063,208.916 1399.7188,207.8535 Q1399.0313,206.7754 1399.0313,205.4941 L1399.0313,204.3379 Q1399.0313,203.0098 1399.6406,201.8691 Q1400.2656,200.7129 1401.3594,200.1035 Q1402.4531,199.4785 1403.6875,199.4785 Q1404.4219,199.4785 1405.0625,199.6504 Q1405.7188,199.8066 1406.2656,200.166 Z " fill="#000000"/><text fill="#000000" font-family="sans-serif" font-size="12" font-style="italic" lengthAdjust="spacing" textLength="85" x="1429.5" y="199.9492">&#171;Value Object&#187;</text><text fill="#000000" font-family="sans-serif" font-size="14" lengthAdjust="spacing" textLength="109" x="1417.5" y="218.0684">ApplicationStatus</text><line style="stroke:#181818;stroke-width:0.5;" x1="1389.5" x2="1528.5" y1="226.582" y2="226.582"/></g><!--class ApplicationRank--><g id="elem_ApplicationRank"><rect codeLine="46" fill="#F1F1F1" height="52.582" id="ApplicationRank" rx="2.5" ry="2.5" style="stroke:#181818;stroke-width:0.5;" width="134" x="1565" y="182"/><ellipse cx="1580" cy="204.291" fill="#ADD1B2" rx="11" ry="11" style="stroke:#181818;stroke-width:1.0;"/><path d="M1582.7656,200.166 Q1582.9219,199.9473 1583.1094,199.8379 Q1583.2969,199.7285 1583.5156,199.7285 Q1583.8906,199.7285 1584.125,199.9941 Q1584.3594,200.2441 1584.3594,200.8535 L1584.3594,202.3066 Q1584.3594,202.916 1584.125,203.1816 Q1583.8906,203.4473 1583.5156,203.4473 Q1583.1719,203.4473 1582.9688,203.2441 Q1582.7656,203.0566 1582.6563,202.541 Q1582.6094,202.1816 1582.4219,201.9941 Q1582.0938,201.6191 1581.4844,201.4004 Q1580.875,201.1816 1580.25,201.1816 Q1579.4844,201.1816 1578.8438,201.5098 Q1578.2188,201.8379 1577.7188,202.5879 Q1577.2344,203.3379 1577.2344,204.3691 L1577.2344,205.4629 Q1577.2344,206.6973 1578.125,207.5254 Q1579.0156,208.3379 1580.6094,208.3379 Q1581.5469,208.3379 1582.2031,208.0879 Q1582.5938,207.9316 1583.0156,207.4941 Q1583.2813,207.2285 1583.4219,207.1504 Q1583.5781,207.0723 1583.7813,207.0723 Q1584.1094,207.0723 1584.3594,207.3379 Q1584.625,207.5879 1584.625,207.9316 Q1584.625,208.2754 1584.2813,208.6816 Q1583.7813,209.2598 1582.9844,209.5879 Q1581.9063,210.041 1580.6094,210.041 Q1579.0938,210.041 1577.8906,209.416 Q1576.9063,208.916 1576.2188,207.8535 Q1575.5313,206.7754 1575.5313,205.4941 L1575.5313,204.3379 Q1575.5313,203.0098 1576.1406,201.8691 Q1576.7656,200.7129 1577.8594,200.1035 Q1578.9531,199.4785 1580.1875,199.4785 Q1580.9219,199.4785 1581.5625,199.6504 Q1582.2188,199.8066 1582.7656,200.166 Z " fill="#000000"/><text fill="#000000" font-family="sans-serif" font-size="12" font-style="italic" lengthAdjust="spacing" textLength="85" x="1602.5" y="199.9492">&#171;Value Object&#187;</text><text fill="#000000" font-family="sans-serif" font-size="14" lengthAdjust="spacing" textLength="102" x="1594" y="218.0684">ApplicationRank</text><line style="stroke:#181818;stroke-width:0.5;" x1="1566" x2="1698" y1="226.582" y2="226.582"/></g><!--class Notification--><g id="elem_Notification"><rect codeLine="52" fill="#F1F1F1" height="68.543" id="Notification" rx="2.5" ry="2.5" style="stroke:#181818;stroke-width:0.5;" width="128" x="1592" y="1144"/><ellipse cx="1607" cy="1174.2715" fill="#ADD1B2" rx="11" ry="11" style="stroke:#181818;stroke-width:1.0;"/><path d="M1609.7656,1170.1465 Q1609.9219,1169.9277 1610.1094,1169.8184 Q1610.2969,1169.709 1610.5156,1169.709 Q1610.8906,1169.709 1611.125,1169.9746 Q1611.3594,1170.2246 1611.3594,1170.834 L1611.3594,1172.2871 Q1611.3594,1172.8965 1611.125,1173.1621 Q1610.8906,1173.4277 1610.5156,1173.4277 Q1610.1719,1173.4277 1609.9688,1173.2246 Q1609.7656,1173.0371 1609.6563,1172.5215 Q1609.6094,1172.1621 1609.4219,1171.9746 Q1609.0938,1171.5996 1608.4844,1171.3809 Q1607.875,1171.1621 1607.25,1171.1621 Q1606.4844,1171.1621 1605.8438,1171.4902 Q1605.2188,1171.8184 1604.7188,1172.5684 Q1604.2344,1173.3184 1604.2344,1174.3496 L1604.2344,1175.4434 Q1604.2344,1176.6777 1605.125,1177.5059 Q1606.0156,1178.3184 1607.6094,1178.3184 Q1608.5469,1178.3184 1609.2031,1178.0684 Q1609.5938,1177.9121 1610.0156,1177.4746 Q1610.2813,1177.209 1610.4219,1177.1309 Q1610.5781,1177.0527 1610.7813,1177.0527 Q1611.1094,1177.0527 1611.3594,1177.3184 Q1611.625,1177.5684 1611.625,1177.9121 Q1611.625,1178.2559 1611.2813,1178.6621 Q1610.7813,1179.2402 1609.9844,1179.5684 Q1608.9063,1180.0215 1607.6094,1180.0215 Q1606.0938,1180.0215 1604.8906,1179.3965 Q1603.9063,1178.8965 1603.2188,1177.834 Q1602.5313,1176.7559 1602.5313,1175.4746 L1602.5313,1174.3184 Q1602.5313,1172.9902 1603.1406,1171.8496 Q1603.7656,1170.6934 1604.8594,1170.084 Q1605.9531,1169.459 1607.1875,1169.459 Q1607.9219,1169.459 1608.5625,1169.6309 Q1609.2188,1169.7871 1609.7656,1170.1465 Z " fill="#000000"/><text fill="#000000" font-family="sans-serif" font-size="12" font-style="italic" lengthAdjust="spacing" textLength="100" x="1619" y="1161.9492">&#171;Aggregate Root&#187;</text><text fill="#000000" font-family="sans-serif" font-size="12" font-style="italic" lengthAdjust="spacing" textLength="44" x="1647" y="1177.9102">&#171;Entity&#187;</text><text fill="#000000" font-family="sans-serif" font-size="14" lengthAdjust="spacing" textLength="69" x="1634.5" y="1196.0293">Notification</text><line style="stroke:#181818;stroke-width:0.5;" x1="1593" x2="1719" y1="1204.543" y2="1204.543"/></g><!--class idNotification--><g id="elem_idNotification"><rect codeLine="53" fill="#F1F1F1" height="68.543" id="idNotification" rx="2.5" ry="2.5" style="stroke:#181818;stroke-width:0.5;" width="113" x="1377.5" y="1274"/><ellipse cx="1392.5" cy="1304.2715" fill="#ADD1B2" rx="11" ry="11" style="stroke:#181818;stroke-width:1.0;"/><path d="M1395.2656,1300.1465 Q1395.4219,1299.9277 1395.6094,1299.8184 Q1395.7969,1299.709 1396.0156,1299.709 Q1396.3906,1299.709 1396.625,1299.9746 Q1396.8594,1300.2246 1396.8594,1300.834 L1396.8594,1302.2871 Q1396.8594,1302.8965 1396.625,1303.1621 Q1396.3906,1303.4277 1396.0156,1303.4277 Q1395.6719,1303.4277 1395.4688,1303.2246 Q1395.2656,1303.0371 1395.1563,1302.5215 Q1395.1094,1302.1621 1394.9219,1301.9746 Q1394.5938,1301.5996 1393.9844,1301.3809 Q1393.375,1301.1621 1392.75,1301.1621 Q1391.9844,1301.1621 1391.3438,1301.4902 Q1390.7188,1301.8184 1390.2188,1302.5684 Q1389.7344,1303.3184 1389.7344,1304.3496 L1389.7344,1305.4434 Q1389.7344,1306.6777 1390.625,1307.5059 Q1391.5156,1308.3184 1393.1094,1308.3184 Q1394.0469,1308.3184 1394.7031,1308.0684 Q1395.0938,1307.9121 1395.5156,1307.4746 Q1395.7813,1307.209 1395.9219,1307.1309 Q1396.0781,1307.0527 1396.2813,1307.0527 Q1396.6094,1307.0527 1396.8594,1307.3184 Q1397.125,1307.5684 1397.125,1307.9121 Q1397.125,1308.2559 1396.7813,1308.6621 Q1396.2813,1309.2402 1395.4844,1309.5684 Q1394.4063,1310.0215 1393.1094,1310.0215 Q1391.5938,1310.0215 1390.3906,1309.3965 Q1389.4063,1308.8965 1388.7188,1307.834 Q1388.0313,1306.7559 1388.0313,1305.4746 L1388.0313,1304.3184 Q1388.0313,1302.9902 1388.6406,1301.8496 Q1389.2656,1300.6934 1390.3594,1300.084 Q1391.4531,1299.459 1392.6875,1299.459 Q1393.4219,1299.459 1394.0625,1299.6309 Q1394.7188,1299.7871 1395.2656,1300.1465 Z " fill="#000000"/><text fill="#000000" font-family="sans-serif" font-size="12" font-style="italic" lengthAdjust="spacing" textLength="54" x="1420" y="1291.9492">&#171;Identity&#187;</text><text fill="#000000" font-family="sans-serif" font-size="12" font-style="italic" lengthAdjust="spacing" textLength="85" x="1404.5" y="1307.9102">&#171;Value Object&#187;</text><text fill="#000000" font-family="sans-serif" font-size="14" lengthAdjust="spacing" textLength="80" x="1407" y="1326.0293">idNotification</text><line style="stroke:#181818;stroke-width:0.5;" x1="1378.5" x2="1489.5" y1="1334.543" y2="1334.543"/></g><!--class userName--><g id="elem_userName"><rect codeLine="54" fill="#F1F1F1" height="52.582" id="userName" rx="2.5" ry="2.5" style="stroke:#181818;stroke-width:0.5;" width="113" x="1525.5" y="1282"/><ellipse cx="1540.5" cy="1304.291" fill="#ADD1B2" rx="11" ry="11" style="stroke:#181818;stroke-width:1.0;"/><path d="M1543.2656,1300.166 Q1543.4219,1299.9473 1543.6094,1299.8379 Q1543.7969,1299.7285 1544.0156,1299.7285 Q1544.3906,1299.7285 1544.625,1299.9941 Q1544.8594,1300.2441 1544.8594,1300.8535 L1544.8594,1302.3066 Q1544.8594,1302.916 1544.625,1303.1816 Q1544.3906,1303.4473 1544.0156,1303.4473 Q1543.6719,1303.4473 1543.4688,1303.2441 Q1543.2656,1303.0566 1543.1563,1302.541 Q1543.1094,1302.1816 1542.9219,1301.9941 Q1542.5938,1301.6191 1541.9844,1301.4004 Q1541.375,1301.1816 1540.75,1301.1816 Q1539.9844,1301.1816 1539.3438,1301.5098 Q1538.7188,1301.8379 1538.2188,1302.5879 Q1537.7344,1303.3379 1537.7344,1304.3691 L1537.7344,1305.4629 Q1537.7344,1306.6973 1538.625,1307.5254 Q1539.5156,1308.3379 1541.1094,1308.3379 Q1542.0469,1308.3379 1542.7031,1308.0879 Q1543.0938,1307.9316 1543.5156,1307.4941 Q1543.7813,1307.2285 1543.9219,1307.1504 Q1544.0781,1307.0723 1544.2813,1307.0723 Q1544.6094,1307.0723 1544.8594,1307.3379 Q1545.125,1307.5879 1545.125,1307.9316 Q1545.125,1308.2754 1544.7813,1308.6816 Q1544.2813,1309.2598 1543.4844,1309.5879 Q1542.4063,1310.041 1541.1094,1310.041 Q1539.5938,1310.041 1538.3906,1309.416 Q1537.4063,1308.916 1536.7188,1307.8535 Q1536.0313,1306.7754 1536.0313,1305.4941 L1536.0313,1304.3379 Q1536.0313,1303.0098 1536.6406,1301.8691 Q1537.2656,1300.7129 1538.3594,1300.1035 Q1539.4531,1299.4785 1540.6875,1299.4785 Q1541.4219,1299.4785 1542.0625,1299.6504 Q1542.7188,1299.8066 1543.2656,1300.166 Z " fill="#000000"/><text fill="#000000" font-family="sans-serif" font-size="12" font-style="italic" lengthAdjust="spacing" textLength="85" x="1552.5" y="1299.9492">&#171;Value Object&#187;</text><text fill="#000000" font-family="sans-serif" font-size="14" lengthAdjust="spacing" textLength="64" x="1563" y="1318.0684">userName</text><line style="stroke:#181818;stroke-width:0.5;" x1="1526.5" x2="1637.5" y1="1326.582" y2="1326.582"/></g><!--class content--><g id="elem_content"><rect codeLine="55" fill="#F1F1F1" height="52.582" id="content" rx="2.5" ry="2.5" style="stroke:#181818;stroke-width:0.5;" width="113" x="1673.5" y="1282"/><ellipse cx="1688.5" cy="1304.291" fill="#ADD1B2" rx="11" ry="11" style="stroke:#181818;stroke-width:1.0;"/><path d="M1691.2656,1300.166 Q1691.4219,1299.9473 1691.6094,1299.8379 Q1691.7969,1299.7285 1692.0156,1299.7285 Q1692.3906,1299.7285 1692.625,1299.9941 Q1692.8594,1300.2441 1692.8594,1300.8535 L1692.8594,1302.3066 Q1692.8594,1302.916 1692.625,1303.1816 Q1692.3906,1303.4473 1692.0156,1303.4473 Q1691.6719,1303.4473 1691.4688,1303.2441 Q1691.2656,1303.0566 1691.1563,1302.541 Q1691.1094,1302.1816 1690.9219,1301.9941 Q1690.5938,1301.6191 1689.9844,1301.4004 Q1689.375,1301.1816 1688.75,1301.1816 Q1687.9844,1301.1816 1687.3438,1301.5098 Q1686.7188,1301.8379 1686.2188,1302.5879 Q1685.7344,1303.3379 1685.7344,1304.3691 L1685.7344,1305.4629 Q1685.7344,1306.6973 1686.625,1307.5254 Q1687.5156,1308.3379 1689.1094,1308.3379 Q1690.0469,1308.3379 1690.7031,1308.0879 Q1691.0938,1307.9316 1691.5156,1307.4941 Q1691.7813,1307.2285 1691.9219,1307.1504 Q1692.0781,1307.0723 1692.2813,1307.0723 Q1692.6094,1307.0723 1692.8594,1307.3379 Q1693.125,1307.5879 1693.125,1307.9316 Q1693.125,1308.2754 1692.7813,1308.6816 Q1692.2813,1309.2598 1691.4844,1309.5879 Q1690.4063,1310.041 1689.1094,1310.041 Q1687.5938,1310.041 1686.3906,1309.416 Q1685.4063,1308.916 1684.7188,1307.8535 Q1684.0313,1306.7754 1684.0313,1305.4941 L1684.0313,1304.3379 Q1684.0313,1303.0098 1684.6406,1301.8691 Q1685.2656,1300.7129 1686.3594,1300.1035 Q1687.4531,1299.4785 1688.6875,1299.4785 Q1689.4219,1299.4785 1690.0625,1299.6504 Q1690.7188,1299.8066 1691.2656,1300.166 Z " fill="#000000"/><text fill="#000000" font-family="sans-serif" font-size="12" font-style="italic" lengthAdjust="spacing" textLength="85" x="1700.5" y="1299.9492">&#171;Value Object&#187;</text><text fill="#000000" font-family="sans-serif" font-size="14" lengthAdjust="spacing" textLength="47" x="1719.5" y="1318.0684">content</text><line style="stroke:#181818;stroke-width:0.5;" x1="1674.5" x2="1785.5" y1="1326.582" y2="1326.582"/></g><!--class isSend--><g id="elem_isSend"><rect codeLine="56" fill="#F1F1F1" height="52.582" id="isSend" rx="2.5" ry="2.5" style="stroke:#181818;stroke-width:0.5;" width="113" x="1821.5" y="1282"/><ellipse cx="1836.5" cy="1304.291" fill="#ADD1B2" rx="11" ry="11" style="stroke:#181818;stroke-width:1.0;"/><path d="M1839.2656,1300.166 Q1839.4219,1299.9473 1839.6094,1299.8379 Q1839.7969,1299.7285 1840.0156,1299.7285 Q1840.3906,1299.7285 1840.625,1299.9941 Q1840.8594,1300.2441 1840.8594,1300.8535 L1840.8594,1302.3066 Q1840.8594,1302.916 1840.625,1303.1816 Q1840.3906,1303.4473 1840.0156,1303.4473 Q1839.6719,1303.4473 1839.4688,1303.2441 Q1839.2656,1303.0566 1839.1563,1302.541 Q1839.1094,1302.1816 1838.9219,1301.9941 Q1838.5938,1301.6191 1837.9844,1301.4004 Q1837.375,1301.1816 1836.75,1301.1816 Q1835.9844,1301.1816 1835.3438,1301.5098 Q1834.7188,1301.8379 1834.2188,1302.5879 Q1833.7344,1303.3379 1833.7344,1304.3691 L1833.7344,1305.4629 Q1833.7344,1306.6973 1834.625,1307.5254 Q1835.5156,1308.3379 1837.1094,1308.3379 Q1838.0469,1308.3379 1838.7031,1308.0879 Q1839.0938,1307.9316 1839.5156,1307.4941 Q1839.7813,1307.2285 1839.9219,1307.1504 Q1840.0781,1307.0723 1840.2813,1307.0723 Q1840.6094,1307.0723 1840.8594,1307.3379 Q1841.125,1307.5879 1841.125,1307.9316 Q1841.125,1308.2754 1840.7813,1308.6816 Q1840.2813,1309.2598 1839.4844,1309.5879 Q1838.4063,1310.041 1837.1094,1310.041 Q1835.5938,1310.041 1834.3906,1309.416 Q1833.4063,1308.916 1832.7188,1307.8535 Q1832.0313,1306.7754 1832.0313,1305.4941 L1832.0313,1304.3379 Q1832.0313,1303.0098 1832.6406,1301.8691 Q1833.2656,1300.7129 1834.3594,1300.1035 Q1835.4531,1299.4785 1836.6875,1299.4785 Q1837.4219,1299.4785 1838.0625,1299.6504 Q1838.7188,1299.8066 1839.2656,1300.166 Z " fill="#000000"/><text fill="#000000" font-family="sans-serif" font-size="12" font-style="italic" lengthAdjust="spacing" textLength="85" x="1848.5" y="1299.9492">&#171;Value Object&#187;</text><text fill="#000000" font-family="sans-serif" font-size="14" lengthAdjust="spacing" textLength="43" x="1869.5" y="1318.0684">isSend</text><line style="stroke:#181818;stroke-width:0.5;" x1="1822.5" x2="1933.5" y1="1326.582" y2="1326.582"/></g><!--class JobOpeningProcess--><g id="elem_JobOpeningProcess"><rect codeLine="63" fill="#F1F1F1" height="68.543" id="JobOpeningProcess" rx="2.5" ry="2.5" style="stroke:#181818;stroke-width:0.5;" width="159" x="698.5" y="1144"/><ellipse cx="713.5" cy="1174.2715" fill="#ADD1B2" rx="11" ry="11" style="stroke:#181818;stroke-width:1.0;"/><path d="M716.2656,1170.1465 Q716.4219,1169.9277 716.6094,1169.8184 Q716.7969,1169.709 717.0156,1169.709 Q717.3906,1169.709 717.625,1169.9746 Q717.8594,1170.2246 717.8594,1170.834 L717.8594,1172.2871 Q717.8594,1172.8965 717.625,1173.1621 Q717.3906,1173.4277 717.0156,1173.4277 Q716.6719,1173.4277 716.4688,1173.2246 Q716.2656,1173.0371 716.1563,1172.5215 Q716.1094,1172.1621 715.9219,1171.9746 Q715.5938,1171.5996 714.9844,1171.3809 Q714.375,1171.1621 713.75,1171.1621 Q712.9844,1171.1621 712.3438,1171.4902 Q711.7188,1171.8184 711.2188,1172.5684 Q710.7344,1173.3184 710.7344,1174.3496 L710.7344,1175.4434 Q710.7344,1176.6777 711.625,1177.5059 Q712.5156,1178.3184 714.1094,1178.3184 Q715.0469,1178.3184 715.7031,1178.0684 Q716.0938,1177.9121 716.5156,1177.4746 Q716.7813,1177.209 716.9219,1177.1309 Q717.0781,1177.0527 717.2813,1177.0527 Q717.6094,1177.0527 717.8594,1177.3184 Q718.125,1177.5684 718.125,1177.9121 Q718.125,1178.2559 717.7813,1178.6621 Q717.2813,1179.2402 716.4844,1179.5684 Q715.4063,1180.0215 714.1094,1180.0215 Q712.5938,1180.0215 711.3906,1179.3965 Q710.4063,1178.8965 709.7188,1177.834 Q709.0313,1176.7559 709.0313,1175.4746 L709.0313,1174.3184 Q709.0313,1172.9902 709.6406,1171.8496 Q710.2656,1170.6934 711.3594,1170.084 Q712.4531,1169.459 713.6875,1169.459 Q714.4219,1169.459 715.0625,1169.6309 Q715.7188,1169.7871 716.2656,1170.1465 Z " fill="#000000"/><text fill="#000000" font-family="sans-serif" font-size="12" font-style="italic" lengthAdjust="spacing" textLength="100" x="741" y="1161.9492">&#171;Aggregate Root&#187;</text><text fill="#000000" font-family="sans-serif" font-size="12" font-style="italic" lengthAdjust="spacing" textLength="44" x="769" y="1177.9102">&#171;Entity&#187;</text><text fill="#000000" font-family="sans-serif" font-size="14" lengthAdjust="spacing" textLength="127" x="727.5" y="1196.0293">JobOpeningProcess</text><line style="stroke:#181818;stroke-width:0.5;" x1="699.5" x2="856.5" y1="1204.543" y2="1204.543"/></g><!--class JobOpeningProcessId--><g id="elem_JobOpeningProcessId"><rect codeLine="64" fill="#F1F1F1" height="68.543" id="JobOpeningProcessId" rx="2.5" ry="2.5" style="stroke:#181818;stroke-width:0.5;" width="170" x="493" y="1144"/><ellipse cx="508" cy="1174.2715" fill="#ADD1B2" rx="11" ry="11" style="stroke:#181818;stroke-width:1.0;"/><path d="M510.7656,1170.1465 Q510.9219,1169.9277 511.1094,1169.8184 Q511.2969,1169.709 511.5156,1169.709 Q511.8906,1169.709 512.125,1169.9746 Q512.3594,1170.2246 512.3594,1170.834 L512.3594,1172.2871 Q512.3594,1172.8965 512.125,1173.1621 Q511.8906,1173.4277 511.5156,1173.4277 Q511.1719,1173.4277 510.9688,1173.2246 Q510.7656,1173.0371 510.6563,1172.5215 Q510.6094,1172.1621 510.4219,1171.9746 Q510.0938,1171.5996 509.4844,1171.3809 Q508.875,1171.1621 508.25,1171.1621 Q507.4844,1171.1621 506.8438,1171.4902 Q506.2188,1171.8184 505.7188,1172.5684 Q505.2344,1173.3184 505.2344,1174.3496 L505.2344,1175.4434 Q505.2344,1176.6777 506.125,1177.5059 Q507.0156,1178.3184 508.6094,1178.3184 Q509.5469,1178.3184 510.2031,1178.0684 Q510.5938,1177.9121 511.0156,1177.4746 Q511.2813,1177.209 511.4219,1177.1309 Q511.5781,1177.0527 511.7813,1177.0527 Q512.1094,1177.0527 512.3594,1177.3184 Q512.625,1177.5684 512.625,1177.9121 Q512.625,1178.2559 512.2813,1178.6621 Q511.7813,1179.2402 510.9844,1179.5684 Q509.9063,1180.0215 508.6094,1180.0215 Q507.0938,1180.0215 505.8906,1179.3965 Q504.9063,1178.8965 504.2188,1177.834 Q503.5313,1176.7559 503.5313,1175.4746 L503.5313,1174.3184 Q503.5313,1172.9902 504.1406,1171.8496 Q504.7656,1170.6934 505.8594,1170.084 Q506.9531,1169.459 508.1875,1169.459 Q508.9219,1169.459 509.5625,1169.6309 Q510.2188,1169.7871 510.7656,1170.1465 Z " fill="#000000"/><text fill="#000000" font-family="sans-serif" font-size="12" font-style="italic" lengthAdjust="spacing" textLength="54" x="564" y="1161.9492">&#171;Identity&#187;</text><text fill="#000000" font-family="sans-serif" font-size="12" font-style="italic" lengthAdjust="spacing" textLength="85" x="548.5" y="1177.9102">&#171;Value Object&#187;</text><text fill="#000000" font-family="sans-serif" font-size="14" lengthAdjust="spacing" textLength="138" x="522" y="1196.0293">JobOpeningProcessId</text><line style="stroke:#181818;stroke-width:0.5;" x1="494" x2="662" y1="1204.543" y2="1204.543"/></g><!--class Phase--><g id="elem_Phase"><rect codeLine="67" fill="#F1F1F1" height="52.582" id="Phase" rx="2.5" ry="2.5" style="stroke:#181818;stroke-width:0.5;" width="72" x="742" y="1282"/><ellipse cx="757" cy="1304.291" fill="#ADD1B2" rx="11" ry="11" style="stroke:#181818;stroke-width:1.0;"/><path d="M759.7656,1300.166 Q759.9219,1299.9473 760.1094,1299.8379 Q760.2969,1299.7285 760.5156,1299.7285 Q760.8906,1299.7285 761.125,1299.9941 Q761.3594,1300.2441 761.3594,1300.8535 L761.3594,1302.3066 Q761.3594,1302.916 761.125,1303.1816 Q760.8906,1303.4473 760.5156,1303.4473 Q760.1719,1303.4473 759.9688,1303.2441 Q759.7656,1303.0566 759.6563,1302.541 Q759.6094,1302.1816 759.4219,1301.9941 Q759.0938,1301.6191 758.4844,1301.4004 Q757.875,1301.1816 757.25,1301.1816 Q756.4844,1301.1816 755.8438,1301.5098 Q755.2188,1301.8379 754.7188,1302.5879 Q754.2344,1303.3379 754.2344,1304.3691 L754.2344,1305.4629 Q754.2344,1306.6973 755.125,1307.5254 Q756.0156,1308.3379 757.6094,1308.3379 Q758.5469,1308.3379 759.2031,1308.0879 Q759.5938,1307.9316 760.0156,1307.4941 Q760.2813,1307.2285 760.4219,1307.1504 Q760.5781,1307.0723 760.7813,1307.0723 Q761.1094,1307.0723 761.3594,1307.3379 Q761.625,1307.5879 761.625,1307.9316 Q761.625,1308.2754 761.2813,1308.6816 Q760.7813,1309.2598 759.9844,1309.5879 Q758.9063,1310.041 757.6094,1310.041 Q756.0938,1310.041 754.8906,1309.416 Q753.9063,1308.916 753.2188,1307.8535 Q752.5313,1306.7754 752.5313,1305.4941 L752.5313,1304.3379 Q752.5313,1303.0098 753.1406,1301.8691 Q753.7656,1300.7129 754.8594,1300.1035 Q755.9531,1299.4785 757.1875,1299.4785 Q757.9219,1299.4785 758.5625,1299.6504 Q759.2188,1299.8066 759.7656,1300.166 Z " fill="#000000"/><text fill="#000000" font-family="sans-serif" font-size="12" font-style="italic" lengthAdjust="spacing" textLength="44" x="769" y="1299.9492">&#171;Entity&#187;</text><text fill="#000000" font-family="sans-serif" font-size="14" lengthAdjust="spacing" textLength="40" x="771" y="1318.0684">Phase</text><line style="stroke:#181818;stroke-width:0.5;" x1="743" x2="813" y1="1326.582" y2="1326.582"/></g><!--class PhaseType--><g id="elem_PhaseType"><rect codeLine="69" fill="#F1F1F1" height="161.6484" id="PhaseType" rx="2.5" ry="2.5" style="stroke:#181818;stroke-width:0.5;" width="113" x="721.5" y="1406"/><ellipse cx="736.5" cy="1436.2715" fill="#EB937F" rx="11" ry="11" style="stroke:#181818;stroke-width:1.0;"/><path d="M735.3594,1437.0684 L735.3594,1439.5684 L739.6875,1439.5684 L739.6875,1438.6465 Q739.6875,1438.0371 739.9219,1437.7715 Q740.1719,1437.5059 740.5469,1437.5059 Q740.9219,1437.5059 741.1563,1437.7715 Q741.3906,1438.0371 741.3906,1438.6465 L741.3906,1441.2715 L733.3906,1441.2715 Q732.7656,1441.2715 732.5,1441.0371 Q732.25,1440.8027 732.25,1440.4121 Q732.25,1440.0371 732.5156,1439.8027 Q732.7813,1439.5684 733.3906,1439.5684 L733.6563,1439.5684 L733.6563,1432.9121 L733.3906,1432.9121 Q732.7656,1432.9121 732.5,1432.6777 Q732.25,1432.4434 732.25,1432.0527 Q732.25,1431.6777 732.5,1431.4434 Q732.7656,1431.209 733.3906,1431.209 L741.0156,1431.209 L741.0156,1433.8027 Q741.0156,1434.4121 740.7813,1434.6777 Q740.5625,1434.9277 740.1719,1434.9277 Q739.7969,1434.9277 739.5625,1434.6777 Q739.3281,1434.4121 739.3281,1433.8027 L739.3281,1432.9121 L735.3594,1432.9121 L735.3594,1435.3652 L736.8438,1435.3652 Q736.8438,1434.709 736.9688,1434.5215 Q737.2344,1434.1152 737.7031,1434.1152 Q738.0781,1434.1152 738.3125,1434.3809 Q738.5469,1434.6309 738.5469,1435.2402 L738.5469,1437.209 Q738.5469,1437.7559 738.4219,1437.9434 Q738.1563,1438.334 737.7031,1438.334 Q737.2344,1438.334 736.9688,1437.9277 Q736.8438,1437.7402 736.8438,1437.0684 L735.3594,1437.0684 Z " fill="#000000"/><text fill="#000000" font-family="sans-serif" font-size="12" font-style="italic" lengthAdjust="spacing" textLength="82" x="750" y="1423.9492">&#171;Enumerated&#187;</text><text fill="#000000" font-family="sans-serif" font-size="12" font-style="italic" lengthAdjust="spacing" textLength="85" x="748.5" y="1439.9102">&#171;Value Object&#187;</text><text fill="#000000" font-family="sans-serif" font-size="14" lengthAdjust="spacing" textLength="72" x="755" y="1458.0293">PhaseType</text><line style="stroke:#181818;stroke-width:0.5;" x1="722.5" x2="833.5" y1="1466.543" y2="1466.543"/><text fill="#000000" font-family="sans-serif" font-size="14" lengthAdjust="spacing" textLength="89" x="727.5" y="1485.6504">APPLICATION</text><text fill="#000000" font-family="sans-serif" font-size="14" lengthAdjust="spacing" textLength="79" x="727.5" y="1504.2715">SCREENING</text><text fill="#000000" font-family="sans-serif" font-size="14" lengthAdjust="spacing" textLength="83" x="727.5" y="1522.8926">INTERVIEWS</text><text fill="#000000" font-family="sans-serif" font-size="14" lengthAdjust="spacing" textLength="65" x="727.5" y="1541.5137">ANALYSIS</text><text fill="#000000" font-family="sans-serif" font-size="14" lengthAdjust="spacing" textLength="54" x="727.5" y="1560.1348">RESULT</text></g><!--class Customer--><g id="elem_Customer"><rect codeLine="81" fill="#F1F1F1" height="68.543" id="Customer" rx="2.5" ry="2.5" style="stroke:#181818;stroke-width:0.5;" width="128" x="23" y="617"/><ellipse cx="38" cy="647.2715" fill="#ADD1B2" rx="11" ry="11" style="stroke:#181818;stroke-width:1.0;"/><path d="M40.7656,643.1465 Q40.9219,642.9277 41.1094,642.8184 Q41.2969,642.709 41.5156,642.709 Q41.8906,642.709 42.125,642.9746 Q42.3594,643.2246 42.3594,643.834 L42.3594,645.2871 Q42.3594,645.8965 42.125,646.1621 Q41.8906,646.4277 41.5156,646.4277 Q41.1719,646.4277 40.9688,646.2246 Q40.7656,646.0371 40.6563,645.5215 Q40.6094,645.1621 40.4219,644.9746 Q40.0938,644.5996 39.4844,644.3809 Q38.875,644.1621 38.25,644.1621 Q37.4844,644.1621 36.8438,644.4902 Q36.2188,644.8184 35.7188,645.5684 Q35.2344,646.3184 35.2344,647.3496 L35.2344,648.4434 Q35.2344,649.6777 36.125,650.5059 Q37.0156,651.3184 38.6094,651.3184 Q39.5469,651.3184 40.2031,651.0684 Q40.5938,650.9121 41.0156,650.4746 Q41.2813,650.209 41.4219,650.1309 Q41.5781,650.0527 41.7813,650.0527 Q42.1094,650.0527 42.3594,650.3184 Q42.625,650.5684 42.625,650.9121 Q42.625,651.2559 42.2813,651.6621 Q41.7813,652.2402 40.9844,652.5684 Q39.9063,653.0215 38.6094,653.0215 Q37.0938,653.0215 35.8906,652.3965 Q34.9063,651.8965 34.2188,650.834 Q33.5313,649.7559 33.5313,648.4746 L33.5313,647.3184 Q33.5313,645.9902 34.1406,644.8496 Q34.7656,643.6934 35.8594,643.084 Q36.9531,642.459 38.1875,642.459 Q38.9219,642.459 39.5625,642.6309 Q40.2188,642.7871 40.7656,643.1465 Z " fill="#000000"/><text fill="#000000" font-family="sans-serif" font-size="12" font-style="italic" lengthAdjust="spacing" textLength="100" x="50" y="634.9492">&#171;Aggregate Root&#187;</text><text fill="#000000" font-family="sans-serif" font-size="12" font-style="italic" lengthAdjust="spacing" textLength="44" x="78" y="650.9102">&#171;Entity&#187;</text><text fill="#000000" font-family="sans-serif" font-size="14" lengthAdjust="spacing" textLength="61" x="69.5" y="669.0293">Customer</text><line style="stroke:#181818;stroke-width:0.5;" x1="24" x2="150" y1="677.543" y2="677.543"/></g><!--class CustomerId--><g id="elem_CustomerId"><rect codeLine="82" fill="#F1F1F1" height="68.543" id="CustomerId" rx="2.5" ry="2.5" style="stroke:#181818;stroke-width:0.5;" width="113" x="30.5" y="770"/><ellipse cx="45.5" cy="800.2715" fill="#ADD1B2" rx="11" ry="11" style="stroke:#181818;stroke-width:1.0;"/><path d="M48.2656,796.1465 Q48.4219,795.9277 48.6094,795.8184 Q48.7969,795.709 49.0156,795.709 Q49.3906,795.709 49.625,795.9746 Q49.8594,796.2246 49.8594,796.834 L49.8594,798.2871 Q49.8594,798.8965 49.625,799.1621 Q49.3906,799.4277 49.0156,799.4277 Q48.6719,799.4277 48.4688,799.2246 Q48.2656,799.0371 48.1563,798.5215 Q48.1094,798.1621 47.9219,797.9746 Q47.5938,797.5996 46.9844,797.3809 Q46.375,797.1621 45.75,797.1621 Q44.9844,797.1621 44.3438,797.4902 Q43.7188,797.8184 43.2188,798.5684 Q42.7344,799.3184 42.7344,800.3496 L42.7344,801.4434 Q42.7344,802.6777 43.625,803.5059 Q44.5156,804.3184 46.1094,804.3184 Q47.0469,804.3184 47.7031,804.0684 Q48.0938,803.9121 48.5156,803.4746 Q48.7813,803.209 48.9219,803.1309 Q49.0781,803.0527 49.2813,803.0527 Q49.6094,803.0527 49.8594,803.3184 Q50.125,803.5684 50.125,803.9121 Q50.125,804.2559 49.7813,804.6621 Q49.2813,805.2402 48.4844,805.5684 Q47.4063,806.0215 46.1094,806.0215 Q44.5938,806.0215 43.3906,805.3965 Q42.4063,804.8965 41.7188,803.834 Q41.0313,802.7559 41.0313,801.4746 L41.0313,800.3184 Q41.0313,798.9902 41.6406,797.8496 Q42.2656,796.6934 43.3594,796.084 Q44.4531,795.459 45.6875,795.459 Q46.4219,795.459 47.0625,795.6309 Q47.7188,795.7871 48.2656,796.1465 Z " fill="#000000"/><text fill="#000000" font-family="sans-serif" font-size="12" font-style="italic" lengthAdjust="spacing" textLength="54" x="73" y="787.9492">&#171;Identity&#187;</text><text fill="#000000" font-family="sans-serif" font-size="12" font-style="italic" lengthAdjust="spacing" textLength="85" x="57.5" y="803.9102">&#171;Value Object&#187;</text><text fill="#000000" font-family="sans-serif" font-size="14" lengthAdjust="spacing" textLength="72" x="64" y="822.0293">CustomerId</text><line style="stroke:#181818;stroke-width:0.5;" x1="31.5" x2="142.5" y1="830.543" y2="830.543"/></g><!--class Email--><g id="elem_Email"><rect codeLine="88" fill="#F1F1F1" height="52.582" id="Email" rx="2.5" ry="2.5" style="stroke:#181818;stroke-width:0.5;" width="113" x="446.5" y="943"/><ellipse cx="461.5" cy="965.291" fill="#ADD1B2" rx="11" ry="11" style="stroke:#181818;stroke-width:1.0;"/><path d="M464.2656,961.166 Q464.4219,960.9473 464.6094,960.8379 Q464.7969,960.7285 465.0156,960.7285 Q465.3906,960.7285 465.625,960.9941 Q465.8594,961.2441 465.8594,961.8535 L465.8594,963.3066 Q465.8594,963.916 465.625,964.1816 Q465.3906,964.4473 465.0156,964.4473 Q464.6719,964.4473 464.4688,964.2441 Q464.2656,964.0566 464.1563,963.541 Q464.1094,963.1816 463.9219,962.9941 Q463.5938,962.6191 462.9844,962.4004 Q462.375,962.1816 461.75,962.1816 Q460.9844,962.1816 460.3438,962.5098 Q459.7188,962.8379 459.2188,963.5879 Q458.7344,964.3379 458.7344,965.3691 L458.7344,966.4629 Q458.7344,967.6973 459.625,968.5254 Q460.5156,969.3379 462.1094,969.3379 Q463.0469,969.3379 463.7031,969.0879 Q464.0938,968.9316 464.5156,968.4941 Q464.7813,968.2285 464.9219,968.1504 Q465.0781,968.0723 465.2813,968.0723 Q465.6094,968.0723 465.8594,968.3379 Q466.125,968.5879 466.125,968.9316 Q466.125,969.2754 465.7813,969.6816 Q465.2813,970.2598 464.4844,970.5879 Q463.4063,971.041 462.1094,971.041 Q460.5938,971.041 459.3906,970.416 Q458.4063,969.916 457.7188,968.8535 Q457.0313,967.7754 457.0313,966.4941 L457.0313,965.3379 Q457.0313,964.0098 457.6406,962.8691 Q458.2656,961.7129 459.3594,961.1035 Q460.4531,960.4785 461.6875,960.4785 Q462.4219,960.4785 463.0625,960.6504 Q463.7188,960.8066 464.2656,961.166 Z " fill="#000000"/><text fill="#000000" font-family="sans-serif" font-size="12" font-style="italic" lengthAdjust="spacing" textLength="85" x="473.5" y="960.9492">&#171;Value Object&#187;</text><text fill="#000000" font-family="sans-serif" font-size="14" lengthAdjust="spacing" textLength="34" x="499" y="979.0684">Email</text><line style="stroke:#181818;stroke-width:0.5;" x1="447.5" x2="558.5" y1="987.582" y2="987.582"/></g><!--class Username--><g id="elem_Username"><rect codeLine="89" fill="#F1F1F1" height="52.582" id="Username" rx="2.5" ry="2.5" style="stroke:#181818;stroke-width:0.5;" width="113" x="150.5" y="943"/><ellipse cx="165.5" cy="965.291" fill="#ADD1B2" rx="11" ry="11" style="stroke:#181818;stroke-width:1.0;"/><path d="M168.2656,961.166 Q168.4219,960.9473 168.6094,960.8379 Q168.7969,960.7285 169.0156,960.7285 Q169.3906,960.7285 169.625,960.9941 Q169.8594,961.2441 169.8594,961.8535 L169.8594,963.3066 Q169.8594,963.916 169.625,964.1816 Q169.3906,964.4473 169.0156,964.4473 Q168.6719,964.4473 168.4688,964.2441 Q168.2656,964.0566 168.1563,963.541 Q168.1094,963.1816 167.9219,962.9941 Q167.5938,962.6191 166.9844,962.4004 Q166.375,962.1816 165.75,962.1816 Q164.9844,962.1816 164.3438,962.5098 Q163.7188,962.8379 163.2188,963.5879 Q162.7344,964.3379 162.7344,965.3691 L162.7344,966.4629 Q162.7344,967.6973 163.625,968.5254 Q164.5156,969.3379 166.1094,969.3379 Q167.0469,969.3379 167.7031,969.0879 Q168.0938,968.9316 168.5156,968.4941 Q168.7813,968.2285 168.9219,968.1504 Q169.0781,968.0723 169.2813,968.0723 Q169.6094,968.0723 169.8594,968.3379 Q170.125,968.5879 170.125,968.9316 Q170.125,969.2754 169.7813,969.6816 Q169.2813,970.2598 168.4844,970.5879 Q167.4063,971.041 166.1094,971.041 Q164.5938,971.041 163.3906,970.416 Q162.4063,969.916 161.7188,968.8535 Q161.0313,967.7754 161.0313,966.4941 L161.0313,965.3379 Q161.0313,964.0098 161.6406,962.8691 Q162.2656,961.7129 163.3594,961.1035 Q164.4531,960.4785 165.6875,960.4785 Q166.4219,960.4785 167.0625,960.6504 Q167.7188,960.8066 168.2656,961.166 Z " fill="#000000"/><text fill="#000000" font-family="sans-serif" font-size="12" font-style="italic" lengthAdjust="spacing" textLength="85" x="177.5" y="960.9492">&#171;Value Object&#187;</text><text fill="#000000" font-family="sans-serif" font-size="14" lengthAdjust="spacing" textLength="64" x="188" y="979.0684">Username</text><line style="stroke:#181818;stroke-width:0.5;" x1="151.5" x2="262.5" y1="987.582" y2="987.582"/></g><!--class Address--><g id="elem_Address"><rect codeLine="90" fill="#F1F1F1" height="52.582" id="Address" rx="2.5" ry="2.5" style="stroke:#181818;stroke-width:0.5;" width="113" x="594.5" y="943"/><ellipse cx="609.5" cy="965.291" fill="#ADD1B2" rx="11" ry="11" style="stroke:#181818;stroke-width:1.0;"/><path d="M612.2656,961.166 Q612.4219,960.9473 612.6094,960.8379 Q612.7969,960.7285 613.0156,960.7285 Q613.3906,960.7285 613.625,960.9941 Q613.8594,961.2441 613.8594,961.8535 L613.8594,963.3066 Q613.8594,963.916 613.625,964.1816 Q613.3906,964.4473 613.0156,964.4473 Q612.6719,964.4473 612.4688,964.2441 Q612.2656,964.0566 612.1563,963.541 Q612.1094,963.1816 611.9219,962.9941 Q611.5938,962.6191 610.9844,962.4004 Q610.375,962.1816 609.75,962.1816 Q608.9844,962.1816 608.3438,962.5098 Q607.7188,962.8379 607.2188,963.5879 Q606.7344,964.3379 606.7344,965.3691 L606.7344,966.4629 Q606.7344,967.6973 607.625,968.5254 Q608.5156,969.3379 610.1094,969.3379 Q611.0469,969.3379 611.7031,969.0879 Q612.0938,968.9316 612.5156,968.4941 Q612.7813,968.2285 612.9219,968.1504 Q613.0781,968.0723 613.2813,968.0723 Q613.6094,968.0723 613.8594,968.3379 Q614.125,968.5879 614.125,968.9316 Q614.125,969.2754 613.7813,969.6816 Q613.2813,970.2598 612.4844,970.5879 Q611.4063,971.041 610.1094,971.041 Q608.5938,971.041 607.3906,970.416 Q606.4063,969.916 605.7188,968.8535 Q605.0313,967.7754 605.0313,966.4941 L605.0313,965.3379 Q605.0313,964.0098 605.6406,962.8691 Q606.2656,961.7129 607.3594,961.1035 Q608.4531,960.4785 609.6875,960.4785 Q610.4219,960.4785 611.0625,960.6504 Q611.7188,960.8066 612.2656,961.166 Z " fill="#000000"/><text fill="#000000" font-family="sans-serif" font-size="12" font-style="italic" lengthAdjust="spacing" textLength="85" x="621.5" y="960.9492">&#171;Value Object&#187;</text><text fill="#000000" font-family="sans-serif" font-size="14" lengthAdjust="spacing" textLength="52" x="638" y="979.0684">Address</text><line style="stroke:#181818;stroke-width:0.5;" x1="595.5" x2="706.5" y1="987.582" y2="987.582"/></g><!--class Name--><g id="elem_Name"><rect codeLine="91" fill="#F1F1F1" height="52.582" id="Name" rx="2.5" ry="2.5" style="stroke:#181818;stroke-width:0.5;" width="113" x="298.5" y="943"/><ellipse cx="313.5" cy="965.291" fill="#ADD1B2" rx="11" ry="11" style="stroke:#181818;stroke-width:1.0;"/><path d="M316.2656,961.166 Q316.4219,960.9473 316.6094,960.8379 Q316.7969,960.7285 317.0156,960.7285 Q317.3906,960.7285 317.625,960.9941 Q317.8594,961.2441 317.8594,961.8535 L317.8594,963.3066 Q317.8594,963.916 317.625,964.1816 Q317.3906,964.4473 317.0156,964.4473 Q316.6719,964.4473 316.4688,964.2441 Q316.2656,964.0566 316.1563,963.541 Q316.1094,963.1816 315.9219,962.9941 Q315.5938,962.6191 314.9844,962.4004 Q314.375,962.1816 313.75,962.1816 Q312.9844,962.1816 312.3438,962.5098 Q311.7188,962.8379 311.2188,963.5879 Q310.7344,964.3379 310.7344,965.3691 L310.7344,966.4629 Q310.7344,967.6973 311.625,968.5254 Q312.5156,969.3379 314.1094,969.3379 Q315.0469,969.3379 315.7031,969.0879 Q316.0938,968.9316 316.5156,968.4941 Q316.7813,968.2285 316.9219,968.1504 Q317.0781,968.0723 317.2813,968.0723 Q317.6094,968.0723 317.8594,968.3379 Q318.125,968.5879 318.125,968.9316 Q318.125,969.2754 317.7813,969.6816 Q317.2813,970.2598 316.4844,970.5879 Q315.4063,971.041 314.1094,971.041 Q312.5938,971.041 311.3906,970.416 Q310.4063,969.916 309.7188,968.8535 Q309.0313,967.7754 309.0313,966.4941 L309.0313,965.3379 Q309.0313,964.0098 309.6406,962.8691 Q310.2656,961.7129 311.3594,961.1035 Q312.4531,960.4785 313.6875,960.4785 Q314.4219,960.4785 315.0625,960.6504 Q315.7188,960.8066 316.2656,961.166 Z " fill="#000000"/><text fill="#000000" font-family="sans-serif" font-size="12" font-style="italic" lengthAdjust="spacing" textLength="85" x="325.5" y="960.9492">&#171;Value Object&#187;</text><text fill="#000000" font-family="sans-serif" font-size="14" lengthAdjust="spacing" textLength="36" x="350" y="979.0684">Name</text><line style="stroke:#181818;stroke-width:0.5;" x1="299.5" x2="410.5" y1="987.582" y2="987.582"/></g><!--class SystemUser--><g id="elem_SystemUser"><rect codeLine="98" fill="#F1F1F1" height="68.543" id="SystemUser" rx="2.5" ry="2.5" style="stroke:#181818;stroke-width:0.5;" width="128" x="356" y="770"/><ellipse cx="371" cy="800.2715" fill="#ADD1B2" rx="11" ry="11" style="stroke:#181818;stroke-width:1.0;"/><path d="M373.7656,796.1465 Q373.9219,795.9277 374.1094,795.8184 Q374.2969,795.709 374.5156,795.709 Q374.8906,795.709 375.125,795.9746 Q375.3594,796.2246 375.3594,796.834 L375.3594,798.2871 Q375.3594,798.8965 375.125,799.1621 Q374.8906,799.4277 374.5156,799.4277 Q374.1719,799.4277 373.9688,799.2246 Q373.7656,799.0371 373.6563,798.5215 Q373.6094,798.1621 373.4219,797.9746 Q373.0938,797.5996 372.4844,797.3809 Q371.875,797.1621 371.25,797.1621 Q370.4844,797.1621 369.8438,797.4902 Q369.2188,797.8184 368.7188,798.5684 Q368.2344,799.3184 368.2344,800.3496 L368.2344,801.4434 Q368.2344,802.6777 369.125,803.5059 Q370.0156,804.3184 371.6094,804.3184 Q372.5469,804.3184 373.2031,804.0684 Q373.5938,803.9121 374.0156,803.4746 Q374.2813,803.209 374.4219,803.1309 Q374.5781,803.0527 374.7813,803.0527 Q375.1094,803.0527 375.3594,803.3184 Q375.625,803.5684 375.625,803.9121 Q375.625,804.2559 375.2813,804.6621 Q374.7813,805.2402 373.9844,805.5684 Q372.9063,806.0215 371.6094,806.0215 Q370.0938,806.0215 368.8906,805.3965 Q367.9063,804.8965 367.2188,803.834 Q366.5313,802.7559 366.5313,801.4746 L366.5313,800.3184 Q366.5313,798.9902 367.1406,797.8496 Q367.7656,796.6934 368.8594,796.084 Q369.9531,795.459 371.1875,795.459 Q371.9219,795.459 372.5625,795.6309 Q373.2188,795.7871 373.7656,796.1465 Z " fill="#000000"/><text fill="#000000" font-family="sans-serif" font-size="12" font-style="italic" lengthAdjust="spacing" textLength="100" x="383" y="787.9492">&#171;Aggregate Root&#187;</text><text fill="#000000" font-family="sans-serif" font-size="12" font-style="italic" lengthAdjust="spacing" textLength="44" x="411" y="803.9102">&#171;Entity&#187;</text><text fill="#000000" font-family="sans-serif" font-size="14" lengthAdjust="spacing" textLength="75" x="395.5" y="822.0293">SystemUser</text><line style="stroke:#181818;stroke-width:0.5;" x1="357" x2="483" y1="830.543" y2="830.543"/></g><!--class Password--><g id="elem_Password"><rect codeLine="99" fill="#F1F1F1" height="52.582" id="Password" rx="2.5" ry="2.5" style="stroke:#181818;stroke-width:0.5;" width="113" x="207.5" y="778"/><ellipse cx="222.5" cy="800.291" fill="#ADD1B2" rx="11" ry="11" style="stroke:#181818;stroke-width:1.0;"/><path d="M225.2656,796.166 Q225.4219,795.9473 225.6094,795.8379 Q225.7969,795.7285 226.0156,795.7285 Q226.3906,795.7285 226.625,795.9941 Q226.8594,796.2441 226.8594,796.8535 L226.8594,798.3066 Q226.8594,798.916 226.625,799.1816 Q226.3906,799.4473 226.0156,799.4473 Q225.6719,799.4473 225.4688,799.2441 Q225.2656,799.0566 225.1563,798.541 Q225.1094,798.1816 224.9219,797.9941 Q224.5938,797.6191 223.9844,797.4004 Q223.375,797.1816 222.75,797.1816 Q221.9844,797.1816 221.3438,797.5098 Q220.7188,797.8379 220.2188,798.5879 Q219.7344,799.3379 219.7344,800.3691 L219.7344,801.4629 Q219.7344,802.6973 220.625,803.5254 Q221.5156,804.3379 223.1094,804.3379 Q224.0469,804.3379 224.7031,804.0879 Q225.0938,803.9316 225.5156,803.4941 Q225.7813,803.2285 225.9219,803.1504 Q226.0781,803.0723 226.2813,803.0723 Q226.6094,803.0723 226.8594,803.3379 Q227.125,803.5879 227.125,803.9316 Q227.125,804.2754 226.7813,804.6816 Q226.2813,805.2598 225.4844,805.5879 Q224.4063,806.041 223.1094,806.041 Q221.5938,806.041 220.3906,805.416 Q219.4063,804.916 218.7188,803.8535 Q218.0313,802.7754 218.0313,801.4941 L218.0313,800.3379 Q218.0313,799.0098 218.6406,797.8691 Q219.2656,796.7129 220.3594,796.1035 Q221.4531,795.4785 222.6875,795.4785 Q223.4219,795.4785 224.0625,795.6504 Q224.7188,795.8066 225.2656,796.166 Z " fill="#000000"/><text fill="#000000" font-family="sans-serif" font-size="12" font-style="italic" lengthAdjust="spacing" textLength="85" x="234.5" y="795.9492">&#171;Value Object&#187;</text><text fill="#000000" font-family="sans-serif" font-size="14" lengthAdjust="spacing" textLength="61" x="246.5" y="814.0684">Password</text><line style="stroke:#181818;stroke-width:0.5;" x1="208.5" x2="319.5" y1="822.582" y2="822.582"/></g><!--class BaseRole--><g id="elem_BaseRole"><rect codeLine="100" fill="#F1F1F1" height="52.582" id="BaseRole" rx="2.5" ry="2.5" style="stroke:#181818;stroke-width:0.5;" width="113" x="519.5" y="778"/><ellipse cx="534.5" cy="800.291" fill="#ADD1B2" rx="11" ry="11" style="stroke:#181818;stroke-width:1.0;"/><path d="M537.2656,796.166 Q537.4219,795.9473 537.6094,795.8379 Q537.7969,795.7285 538.0156,795.7285 Q538.3906,795.7285 538.625,795.9941 Q538.8594,796.2441 538.8594,796.8535 L538.8594,798.3066 Q538.8594,798.916 538.625,799.1816 Q538.3906,799.4473 538.0156,799.4473 Q537.6719,799.4473 537.4688,799.2441 Q537.2656,799.0566 537.1563,798.541 Q537.1094,798.1816 536.9219,797.9941 Q536.5938,797.6191 535.9844,797.4004 Q535.375,797.1816 534.75,797.1816 Q533.9844,797.1816 533.3438,797.5098 Q532.7188,797.8379 532.2188,798.5879 Q531.7344,799.3379 531.7344,800.3691 L531.7344,801.4629 Q531.7344,802.6973 532.625,803.5254 Q533.5156,804.3379 535.1094,804.3379 Q536.0469,804.3379 536.7031,804.0879 Q537.0938,803.9316 537.5156,803.4941 Q537.7813,803.2285 537.9219,803.1504 Q538.0781,803.0723 538.2813,803.0723 Q538.6094,803.0723 538.8594,803.3379 Q539.125,803.5879 539.125,803.9316 Q539.125,804.2754 538.7813,804.6816 Q538.2813,805.2598 537.4844,805.5879 Q536.4063,806.041 535.1094,806.041 Q533.5938,806.041 532.3906,805.416 Q531.4063,804.916 530.7188,803.8535 Q530.0313,802.7754 530.0313,801.4941 L530.0313,800.3379 Q530.0313,799.0098 530.6406,797.8691 Q531.2656,796.7129 532.3594,796.1035 Q533.4531,795.4785 534.6875,795.4785 Q535.4219,795.4785 536.0625,795.6504 Q536.7188,795.8066 537.2656,796.166 Z " fill="#000000"/><text fill="#000000" font-family="sans-serif" font-size="12" font-style="italic" lengthAdjust="spacing" textLength="85" x="546.5" y="795.9492">&#171;Value Object&#187;</text><text fill="#000000" font-family="sans-serif" font-size="14" lengthAdjust="spacing" textLength="61" x="558.5" y="814.0684">BaseRole</text><line style="stroke:#181818;stroke-width:0.5;" x1="520.5" x2="631.5" y1="822.582" y2="822.582"/></g><!--link SystemUser to Email--><g id="link_SystemUser_Email"><path codeLine="102" d="M437.2,839.27 C452.87,870.05 472.947,909.4835 487.187,937.4435 " fill="none" id="SystemUser-to-Email" style="stroke:#181818;stroke-width:1.0;"/><polygon fill="#181818" points="489.91,942.79,489.3899,932.9549,487.6408,938.3346,482.2612,936.5855,489.91,942.79" style="stroke:#181818;stroke-width:1.0;"/><text fill="#000000" font-family="sans-serif" font-size="13" lengthAdjust="spacing" textLength="21" x="463" y="886.0283">has</text><text fill="#000000" font-family="sans-serif" font-size="13" lengthAdjust="spacing" textLength="7" x="432.4691" y="860.5269">1</text><text fill="#000000" font-family="sans-serif" font-size="13" lengthAdjust="spacing" textLength="7" x="479.0736" y="931.758">1</text></g><!--link SystemUser to Username--><g id="link_SystemUser_Username"><path codeLine="103" d="M373.07,839.14 C361.69,847.1 349.48,855.46 338,863 C313.15,879.32 304.56,879.87 281,898 C263.28,911.64 249.3044,924.6692 235.3844,938.7092 " fill="none" id="SystemUser-to-Username" style="stroke:#181818;stroke-width:1.0;"/><polygon fill="#181818" points="231.16,942.97,240.3371,939.395,234.6803,939.4193,234.656,933.7625,231.16,942.97" style="stroke:#181818;stroke-width:1.0;"/><text fill="#000000" font-family="sans-serif" font-size="13" lengthAdjust="spacing" textLength="21" x="326" y="886.0283">has</text><text fill="#000000" font-family="sans-serif" font-size="13" lengthAdjust="spacing" textLength="7" x="357.4023" y="860.6473">1</text><text fill="#000000" font-family="sans-serif" font-size="13" lengthAdjust="spacing" textLength="7" x="229.1959" y="931.5462">1</text></g><!--reverse link Password to SystemUser--><g id="link_Password_SystemUser"><path codeLine="104" d="M326.67,804.5 C338.44,804.5 344.21,804.5 355.98,804.5 " fill="none" id="Password-backto-SystemUser" style="stroke:#181818;stroke-width:1.0;"/><polygon fill="#181818" points="320.67,804.5,329.67,808.5,325.67,804.5,329.67,800.5,320.67,804.5" style="stroke:#181818;stroke-width:1.0;"/><text fill="#000000" font-family="sans-serif" font-size="13" lengthAdjust="spacing" textLength="7" x="328.3793" y="800.4847">1</text><text fill="#000000" font-family="sans-serif" font-size="13" lengthAdjust="spacing" textLength="7" x="341.173" y="800.5888">1</text></g><!--link SystemUser to Name--><g id="link_SystemUser_Name"><path codeLine="105" d="M406.53,839.27 C394.26,870.05 378.6225,909.2568 367.4725,937.2168 " fill="none" id="SystemUser-to-Name" style="stroke:#181818;stroke-width:1.0;"/><polygon fill="#181818" points="365.25,942.79,372.2992,935.9119,367.1021,938.1457,364.8683,932.9485,365.25,942.79" style="stroke:#181818;stroke-width:1.0;"/><text fill="#000000" font-family="sans-serif" font-size="13" lengthAdjust="spacing" textLength="7" x="396.7193" y="860.5269">1</text><text fill="#000000" font-family="sans-serif" font-size="13" lengthAdjust="spacing" textLength="7" x="359.8109" y="931.758">1</text></g><!--link SystemUser to BaseRole--><g id="link_SystemUser_BaseRole"><path codeLine="106" d="M484.29,804.5 C495.99,804.5 501.69,804.5 513.4,804.5 " fill="none" id="SystemUser-to-BaseRole" style="stroke:#181818;stroke-width:1.0;"/><polygon fill="#181818" points="519.4,804.5,510.4,800.5,514.4,804.5,510.4,808.5,519.4,804.5" style="stroke:#181818;stroke-width:1.0;"/><text fill="#000000" font-family="sans-serif" font-size="13" lengthAdjust="spacing" textLength="7" x="492.1282" y="800.5888">1</text><text fill="#000000" font-family="sans-serif" font-size="13" lengthAdjust="spacing" textLength="7" x="504.3241" y="800.4338">1</text></g><!--link Customer to SystemUser--><g id="link_Customer_SystemUser"><path codeLine="107" d="M151.2,662.24 C204.01,672.25 279.43,691.28 338,725 C358.15,736.6 364.8371,741.0602 379.4571,756.6502 " fill="none" id="Customer-to-SystemUser" style="stroke:#181818;stroke-width:1.0;"/><polygon fill="none" points="391.77,769.78,383.8337,752.5459,375.0805,760.7545,391.77,769.78" style="stroke:#181818;stroke-width:1.0;"/><text fill="#000000" font-family="sans-serif" font-size="13" lengthAdjust="spacing" textLength="7" x="159.0278" y="678.5362">1</text><text fill="#000000" font-family="sans-serif" font-size="13" lengthAdjust="spacing" textLength="7" x="378.7215" y="758.6408">1</text></g><!--link JobOpening to JobReference--><g id="link_JobOpening_JobReference"><path codeLine="133" d="M894.11,686.01 C893.45,710.95 892.7085,738.8421 892.0485,763.8221 " fill="none" id="JobOpening-to-JobReference" style="stroke:#181818;stroke-width:1.0;"/><polygon fill="#181818" points="891.89,769.82,896.1263,760.9288,892.0221,764.8217,888.1291,760.7175,891.89,769.82" style="stroke:#181818;stroke-width:1.0;"/><text fill="#000000" font-family="sans-serif" font-size="13" lengthAdjust="spacing" textLength="7" x="886.3555" y="707.4949">1</text><text fill="#000000" font-family="sans-serif" font-size="13" lengthAdjust="spacing" textLength="7" x="884.3925" y="758.6884">1</text></g><!--link JobOpening to TitleOrFunction--><g id="link_JobOpening_TitleOrFunction"><path codeLine="134" d="M929.62,686.01 C958.17,713.64 993.7695,748.0963 1019.9095,773.4063 " fill="none" id="JobOpening-to-TitleOrFunction" style="stroke:#181818;stroke-width:1.0;"/><polygon fill="#181818" points="1024.22,777.58,1020.5367,768.4458,1020.6279,774.102,1014.9718,774.1932,1024.22,777.58" style="stroke:#181818;stroke-width:1.0;"/><text fill="#000000" font-family="sans-serif" font-size="13" lengthAdjust="spacing" textLength="7" x="927.9688" y="707.4949">1</text><text fill="#000000" font-family="sans-serif" font-size="13" lengthAdjust="spacing" textLength="7" x="1010.5963" y="766.9377">1</text></g><!--reverse link ContractType to JobOpening--><g id="link_ContractType_JobOpening"><path codeLine="135" d="M995.2754,528.7413 C970.6154,558.6813 944.17,590.79 922.65,616.92 " fill="none" id="ContractType-backto-JobOpening" style="stroke:#181818;stroke-width:1.0;"/><polygon fill="#181818" points="999.09,524.11,990.2806,528.5139,995.9112,527.9694,996.4557,533.6,999.09,524.11" style="stroke:#181818;stroke-width:1.0;"/><text fill="#000000" font-family="sans-serif" font-size="13" lengthAdjust="spacing" textLength="7" x="986.4338" y="545.6779">1</text><text fill="#000000" font-family="sans-serif" font-size="13" lengthAdjust="spacing" textLength="7" x="920.2536" y="605.8075">1</text></g><!--reverse link Mode to JobOpening--><g id="link_Mode_JobOpening"><path codeLine="136" d="M892.5132,539.4285 C893.1332,567.3585 893.72,593.34 894.24,616.81 " fill="none" id="Mode-backto-JobOpening" style="stroke:#181818;stroke-width:1.0;"/><polygon fill="#181818" points="892.38,533.43,888.5807,542.5166,892.491,538.4288,896.5788,542.339,892.38,533.43" style="stroke:#181818;stroke-width:1.0;"/><text fill="#000000" font-family="sans-serif" font-size="13" lengthAdjust="spacing" textLength="7" x="885.1349" y="555.6529">1</text><text fill="#000000" font-family="sans-serif" font-size="13" lengthAdjust="spacing" textLength="7" x="886.4279" y="605.6765">1</text></g><!--link JobOpening to Description--><g id="link_JobOpening_Description"><path codeLine="137" d="M959.26,658.58 C1061.17,669.05 1254.54,692.52 1315,725 C1338.26,737.5 1354.7409,755.2468 1368.0909,772.9768 " fill="none" id="JobOpening-to-Description" style="stroke:#181818;stroke-width:1.0;"/><polygon fill="#181818" points="1371.7,777.77,1369.4818,768.1742,1368.6924,773.7757,1363.0909,772.9863,1371.7,777.77" style="stroke:#181818;stroke-width:1.0;"/><text fill="#000000" font-family="sans-serif" font-size="13" lengthAdjust="spacing" textLength="7" x="967.0948" y="655.4874">1</text><text fill="#000000" font-family="sans-serif" font-size="13" lengthAdjust="spacing" textLength="7" x="1359.89" y="766.7334">1</text></g><!--link JobOpening to VacanciesNumber--><g id="link_JobOpening_VacanciesNumber"><path codeLine="138" d="M959.04,664.22 C1008.91,675.12 1078.72,694.38 1134,725 C1159.03,738.87 1178.9998,756.3349 1195.9898,773.4249 " fill="none" id="JobOpening-to-VacanciesNumber" style="stroke:#181818;stroke-width:1.0;"/><polygon fill="#181818" points="1200.22,777.68,1196.7115,768.4773,1196.6949,774.1341,1191.038,774.1175,1200.22,777.68" style="stroke:#181818;stroke-width:1.0;"/><text fill="#000000" font-family="sans-serif" font-size="13" lengthAdjust="spacing" textLength="7" x="966.8493" y="680.7451">1</text><text fill="#000000" font-family="sans-serif" font-size="13" lengthAdjust="spacing" textLength="7" x="1186.9115" y="766.6225">1</text></g><!--link Application to ApplicationId--><g id="link_Application_ApplicationId"><path codeLine="142" d="M1131.97,98.25 C1072.75,116.09 982.6,144.51 906,174 C900.01,176.31 899.3364,176.5036 893.1864,179.1036 " fill="none" id="Application-to-ApplicationId" style="stroke:#181818;stroke-width:1.0;"/><polygon fill="#181818" points="887.66,181.44,897.5072,181.6197,892.2654,179.493,894.3921,174.2512,887.66,181.44" style="stroke:#181818;stroke-width:1.0;"/><text fill="#000000" font-family="sans-serif" font-size="13" lengthAdjust="spacing" textLength="7" x="1117.1618" y="115.588">1</text><text fill="#000000" font-family="sans-serif" font-size="13" lengthAdjust="spacing" textLength="7" x="895.368" y="173.9601">1</text></g><!--link Application to AttachedEmail--><g id="link_Application_AttachedEmail"><path codeLine="143" d="M1140.3,113.13 C1104.6,134.69 1064.1261,159.1183 1031.4061,178.8783 " fill="none" id="Application-to-AttachedEmail" style="stroke:#181818;stroke-width:1.0;"/><polygon fill="#181818" points="1026.27,181.98,1036.0419,180.7514,1030.5501,179.3952,1031.9063,173.9033,1026.27,181.98" style="stroke:#181818;stroke-width:1.0;"/><text fill="#000000" font-family="sans-serif" font-size="13" lengthAdjust="spacing" textLength="7" x="1123.125" y="134.6356">1</text><text fill="#000000" font-family="sans-serif" font-size="13" lengthAdjust="spacing" textLength="7" x="1028.7202" y="170.5586">1</text></g><!--link Application to AttachedFile--><g id="link_Application_AttachedFile"><path codeLine="144" d="M1180.5,113.13 C1170.6,134.61 1160.4708,156.5806 1151.3708,176.3306 " fill="none" id="Application-to-AttachedFile" style="stroke:#181818;stroke-width:1.0;"/><polygon fill="#181818" points="1148.86,181.78,1156.2592,175.2798,1150.9524,177.2389,1148.9934,171.932,1148.86,181.78" style="stroke:#181818;stroke-width:1.0;"/><text fill="#000000" font-family="sans-serif" font-size="13" lengthAdjust="spacing" textLength="7" x="1170.2344" y="134.6356">1</text><text fill="#000000" font-family="sans-serif" font-size="13" lengthAdjust="spacing" textLength="7" x="1143.7933" y="170.7457">1</text></g><!--link Application to ApplicatorData--><g id="link_Application_ApplicatorData"><path codeLine="145" d="M1220.96,113.13 C1236.9,134.61 1253.6854,157.211 1268.3354,176.961 " fill="none" id="Application-to-ApplicatorData" style="stroke:#181818;stroke-width:1.0;"/><polygon fill="#181818" points="1271.91,181.78,1269.7608,172.1685,1268.9312,177.7642,1263.3355,176.9346,1271.91,181.78" style="stroke:#181818;stroke-width:1.0;"/><text fill="#000000" font-family="sans-serif" font-size="13" lengthAdjust="spacing" textLength="7" x="1217.6484" y="134.6356">1</text><text fill="#000000" font-family="sans-serif" font-size="13" lengthAdjust="spacing" textLength="7" x="1259.6861" y="170.7457">1</text></g><!--link Application to JobOpening--><g id="link_Application_JobOpening"><path codeLine="146" d="M1131.94,83.36 C1002.28,92.92 721,123.37 721,207.5 C721,207.5 721,207.5 721,472 C721,537.13 776.0232,584.2465 825.5832,614.5965 " fill="none" id="Application-to-JobOpening" style="stroke:#181818;stroke-width:1.0;"/><polygon fill="#181818" points="830.7,617.73,825.1138,609.6186,826.436,615.1188,820.9359,616.441,830.7,617.73" style="stroke:#181818;stroke-width:1.0;"/><text fill="#000000" font-family="sans-serif" font-size="13" lengthAdjust="spacing" textLength="75" x="722" y="321.0283">submitted for</text><text fill="#000000" font-family="sans-serif" font-size="13" lengthAdjust="spacing" textLength="5" x="1118.828" y="79.9903">*</text><text fill="#000000" font-family="sans-serif" font-size="13" lengthAdjust="spacing" textLength="7" x="815.8606" y="609.9141">1</text></g><!--link Application to ApplicationStatus--><g id="link_Application_ApplicationStatus"><path codeLine="147" d="M1260,110.65 C1304.85,132.48 1358.6848,158.6847 1400.8348,179.1947 " fill="none" id="Application-to-ApplicationStatus" style="stroke:#181818;stroke-width:1.0;"/><polygon fill="#181818" points="1406.23,181.82,1399.8874,174.2853,1401.734,179.6323,1396.3871,181.4789,1406.23,181.82" style="stroke:#181818;stroke-width:1.0;"/><text fill="#000000" font-family="sans-serif" font-size="13" lengthAdjust="spacing" textLength="7" x="1267.8047" y="129.4217">1</text><text fill="#000000" font-family="sans-serif" font-size="13" lengthAdjust="spacing" textLength="7" x="1386.2176" y="170.7949">1</text></g><!--link Application to ApplicationRank--><g id="link_Application_ApplicationRank"><path codeLine="148" d="M1260.05,94.45 C1330.9,111.51 1448.13,141.32 1547,174 C1554.38,176.44 1556.429,177.0714 1564.009,179.9014 " fill="none" id="Application-to-ApplicationRank" style="stroke:#181818;stroke-width:1.0;"/><polygon fill="#181818" points="1569.63,182,1562.5975,175.1047,1564.9458,180.2512,1559.7994,182.5994,1569.63,182" style="stroke:#181818;stroke-width:1.0;"/><text fill="#000000" font-family="sans-serif" font-size="13" lengthAdjust="spacing" textLength="7" x="1267.8605" y="92.383">1</text><text fill="#000000" font-family="sans-serif" font-size="13" lengthAdjust="spacing" textLength="22" x="1535.0195" y="173.0736">0..1</text></g><!--link Application to Notification--><g id="link_Application_Notification"><path codeLine="149" d="M1260.05,80.84 C1406.25,85.63 1752,107.52 1752,207.5 C1752,207.5 1752,207.5 1752,1060 C1752,1093.59 1732.7046,1118.908 1708.7946,1139.838 " fill="none" id="Application-to-Notification" style="stroke:#181818;stroke-width:1.0;"/><polygon fill="#181818" points="1704.28,1143.79,1713.6866,1140.8718,1708.0422,1140.4967,1708.4173,1134.8523,1704.28,1143.79" style="stroke:#181818;stroke-width:1.0;"/><text fill="#000000" font-family="sans-serif" font-size="13" lengthAdjust="spacing" textLength="21" x="1753" y="657.0283">has</text><text fill="#000000" font-family="sans-serif" font-size="13" lengthAdjust="spacing" textLength="7" x="1267.8605" y="77.1993">1</text><text fill="#000000" font-family="sans-serif" font-size="13" lengthAdjust="spacing" textLength="5" x="1708.0068" y="1132.6527">*</text></g><!--reverse link JobOpeningProcessId to JobOpeningProcess--><g id="link_JobOpeningProcessId_JobOpeningProcess"><path codeLine="151" d="M669.16,1178.5 C680.82,1178.5 686.48,1178.5 698.15,1178.5 " fill="none" id="JobOpeningProcessId-backto-JobOpeningProcess" style="stroke:#181818;stroke-width:1.0;"/><polygon fill="#181818" points="663.16,1178.5,672.16,1182.5,668.16,1178.5,672.16,1174.5,663.16,1178.5" style="stroke:#181818;stroke-width:1.0;"/><text fill="#000000" font-family="sans-serif" font-size="13" lengthAdjust="spacing" textLength="7" x="671.0563" y="1174.8046">1</text><text fill="#000000" font-family="sans-serif" font-size="13" lengthAdjust="spacing" textLength="7" x="683.4662" y="1174.7792">1</text></g><!--link JobOpening to JobOpeningProcess--><g id="link_JobOpening_JobOpeningProcess"><path codeLine="152" d="M847.75,686.21 C815.28,713.65 778,755.58 778,803.5 C778,803.5 778,803.5 778,1060 C778,1088.25 778,1114.33 778,1137.82 " fill="none" id="JobOpening-to-JobOpeningProcess" style="stroke:#181818;stroke-width:1.0;"/><polygon fill="#181818" points="778,1143.82,782,1134.82,778,1138.82,774,1134.82,778,1143.82" style="stroke:#181818;stroke-width:1.0;"/><text fill="#000000" font-family="sans-serif" font-size="13" lengthAdjust="spacing" textLength="21" x="779" y="975.0283">has</text><text fill="#000000" font-family="sans-serif" font-size="13" lengthAdjust="spacing" textLength="7" x="832.3445" y="707.4569">1</text><text fill="#000000" font-family="sans-serif" font-size="13" lengthAdjust="spacing" textLength="5" x="772.5234" y="1132.6884">*</text></g><!--link JobOpeningProcess to Phase--><g id="link_JobOpeningProcess_Phase"><path codeLine="153" d="M778,1213.13 C778,1234.61 778,1256.03 778,1275.78 " fill="none" id="JobOpeningProcess-to-Phase" style="stroke:#181818;stroke-width:1.0;"/><polygon fill="#181818" points="778,1281.78,782,1272.78,778,1276.78,774,1272.78,778,1281.78" style="stroke:#181818;stroke-width:1.0;"/><text fill="#000000" font-family="sans-serif" font-size="13" lengthAdjust="spacing" textLength="7" x="770.3984" y="1234.6356">1</text><text fill="#000000" font-family="sans-serif" font-size="13" lengthAdjust="spacing" textLength="7" x="770.1906" y="1270.7457">1</text></g><!--link Phase to PhaseType--><g id="link_Phase_PhaseType"><path codeLine="154" d="M778,1335.16 C778,1353.9 778,1374.4 778,1399.97 " fill="none" id="Phase-to-PhaseType" style="stroke:#181818;stroke-width:1.0;"/><polygon fill="#181818" points="778,1405.97,782,1396.97,778,1400.97,774,1396.97,778,1405.97" style="stroke:#181818;stroke-width:1.0;"/><text fill="#000000" font-family="sans-serif" font-size="13" lengthAdjust="spacing" textLength="7" x="770.2781" y="1356.5132">1</text><text fill="#000000" font-family="sans-serif" font-size="13" lengthAdjust="spacing" textLength="7" x="770.6773" y="1394.7744">1</text></g><!--link Notification to idNotification--><g id="link_Notification_idNotification"><path codeLine="156" d="M1597.67,1213.13 C1564.66,1232.17 1528.7478,1252.8729 1495.9878,1271.7629 " fill="none" id="Notification-to-idNotification" style="stroke:#181818;stroke-width:1.0;"/><polygon fill="#181818" points="1490.79,1274.76,1500.5848,1273.7295,1495.1215,1272.2624,1496.5886,1266.7991,1490.79,1274.76" style="stroke:#181818;stroke-width:1.0;"/><text fill="#000000" font-family="sans-serif" font-size="13" lengthAdjust="spacing" textLength="7" x="1580.043" y="1234.6356">1</text><text fill="#000000" font-family="sans-serif" font-size="13" lengthAdjust="spacing" textLength="7" x="1498.5147" y="1266.4242">1</text></g><!--link Notification to userName--><g id="link_Notification_userName"><path codeLine="157" d="M1636.56,1213.13 C1624.14,1234.61 1611.2934,1256.8358 1599.8734,1276.5858 " fill="none" id="Notification-to-userName" style="stroke:#181818;stroke-width:1.0;"/><polygon fill="#181818" points="1596.87,1281.78,1604.8379,1275.991,1599.3728,1277.4515,1597.9123,1271.9865,1596.87,1281.78" style="stroke:#181818;stroke-width:1.0;"/><text fill="#000000" font-family="sans-serif" font-size="13" lengthAdjust="spacing" textLength="7" x="1625.6172" y="1234.6356">1</text><text fill="#000000" font-family="sans-serif" font-size="13" lengthAdjust="spacing" textLength="7" x="1592.4993" y="1270.7457">1</text></g><!--link Notification to content--><g id="link_Notification_content"><path codeLine="158" d="M1675.44,1213.13 C1687.86,1234.61 1700.7066,1256.8358 1712.1266,1276.5858 " fill="none" id="Notification-to-content" style="stroke:#181818;stroke-width:1.0;"/><polygon fill="#181818" points="1715.13,1281.78,1714.0877,1271.9865,1712.6272,1277.4515,1707.1621,1275.991,1715.13,1281.78" style="stroke:#181818;stroke-width:1.0;"/><text fill="#000000" font-family="sans-serif" font-size="13" lengthAdjust="spacing" textLength="7" x="1671.1797" y="1234.6356">1</text><text fill="#000000" font-family="sans-serif" font-size="13" lengthAdjust="spacing" textLength="7" x="1703.8819" y="1270.7457">1</text></g><!--link Notification to isSend--><g id="link_Notification_isSend"><path codeLine="159" d="M1714.33,1213.13 C1751.71,1234.69 1794.2722,1259.2229 1828.5422,1278.9829 " fill="none" id="Notification-to-isSend" style="stroke:#181818;stroke-width:1.0;"/><polygon fill="#181818" points="1833.74,1281.98,1827.9413,1274.0192,1829.4085,1279.4824,1823.9452,1280.9496,1833.74,1281.98" style="stroke:#181818;stroke-width:1.0;"/><text fill="#000000" font-family="sans-serif" font-size="13" lengthAdjust="spacing" textLength="7" x="1716.7539" y="1234.6356">1</text><text fill="#000000" font-family="sans-serif" font-size="13" lengthAdjust="spacing" textLength="7" x="1815.0985" y="1270.5586">1</text></g><!--link JobOpening to Notification--><g id="link_JobOpening_Notification"><path codeLine="161" d="M959.27,653.55 C1125.91,657.99 1559,681.29 1559,803.5 C1559,803.5 1559,803.5 1559,1060 C1559,1093.73 1578.5223,1119.0746 1602.6823,1139.9746 " fill="none" id="JobOpening-to-Notification" style="stroke:#181818;stroke-width:1.0;"/><polygon fill="#181818" points="1607.22,1143.9,1603.0304,1134.9867,1603.4386,1140.6288,1597.7965,1141.037,1607.22,1143.9" style="stroke:#181818;stroke-width:1.0;"/><text fill="#000000" font-family="sans-serif" font-size="13" lengthAdjust="spacing" textLength="21" x="1560" y="975.0283">has</text><text fill="#000000" font-family="sans-serif" font-size="13" lengthAdjust="spacing" textLength="7" x="967.1059" y="668.8414">1</text><text fill="#000000" font-family="sans-serif" font-size="13" lengthAdjust="spacing" textLength="20" x="1576.0151" y="1132.7837">0..*</text></g><!--link Customer to CustomerId--><g id="link_Customer_CustomerId"><path codeLine="163" d="M87,686.01 C87,710.95 87,738.84 87,763.82 " fill="none" id="Customer-to-CustomerId" style="stroke:#181818;stroke-width:1.0;"/><polygon fill="#181818" points="87,769.82,91,760.82,87,764.82,83,760.82,87,769.82" style="stroke:#181818;stroke-width:1.0;"/><text fill="#000000" font-family="sans-serif" font-size="13" lengthAdjust="spacing" textLength="7" x="79.3984" y="707.4949">1</text><text fill="#000000" font-family="sans-serif" font-size="13" lengthAdjust="spacing" textLength="7" x="79.3328" y="758.6884">1</text></g><!--link JobOpening to Customer--><g id="link_JobOpening_Customer"><path codeLine="165" d="M830.92,651.5 C679.74,651.5 308.25,651.5 157.08,651.5 " fill="none" id="JobOpening-to-Customer" style="stroke:#181818;stroke-width:1.0;"/><polygon fill="#181818" points="151.08,651.5,160.08,655.5,156.08,651.5,160.08,647.5,151.08,651.5" style="stroke:#181818;stroke-width:1.0;"/><text fill="#000000" font-family="sans-serif" font-size="13" lengthAdjust="spacing" textLength="36" x="473" y="644.5283">set by</text><text fill="#000000" font-family="sans-serif" font-size="13" lengthAdjust="spacing" textLength="5" x="817.8056" y="647.538">*</text><text fill="#000000" font-family="sans-serif" font-size="13" lengthAdjust="spacing" textLength="7" x="158.8939" y="647.5888">1</text></g><!--link JobOpening to Address--><g id="link_JobOpening_Address"><path codeLine="166" d="M830.92,669.11 C803.65,678.93 773.3,693.89 752,716 C688.46,781.97 664.2277,887.0452 655.7277,936.9352 " fill="none" id="JobOpening-to-Address" style="stroke:#181818;stroke-width:1.0;"/><polygon fill="#181818" points="654.72,942.85,660.1748,934.6497,655.5598,937.921,652.2884,933.306,654.72,942.85" style="stroke:#181818;stroke-width:1.0;"/><text fill="#000000" font-family="sans-serif" font-size="13" lengthAdjust="spacing" textLength="7" x="816.1061" y="667.2349">1</text></g><!--SRC=[bPRTRwCu4C3V-IkizY5IfRIxhnMAb6tJFKufYO3sj4ydOwQ9R_c8ZBbLrRl_VMqmO3uCb8T4cD_CU3uydjMPyqj-VtTtYN7AYoI-9LboHsASv-k8uXF3YMMTQGGe0NxEejoo612EqrCCwEhFB4I72wGqFLsXwp0a16FqOLb8FAKE90W5sFRsT69mmXoGbsLyix7jNSefVzziFlxloNZm1WnI0hRjHA0estx5SG7e4FuZjj2N2YYFuS2UYfHmcgKc6D8YGGzPoXacF7Y_WDn5aG0J-uf6R9H2ydbwsU__3fpdNRDot7f1kwBhVywYnNgztVCXQ9KUtBNlQEz__FZcEO_Dgx2Y-VoA2Ku9XTmjaX3OT80U8IUCNap1aPh7KuksbqjC2PQI8iqO4nA6tJHhnF8yQq9Ej3pHMyunEKEqIp2Dbw5FD8OPKkqbOu-OusMisBVFCI_onRY7qv-6s6kXHsx6wPiI4Q_NCjw4T2EkCpCXRuLer1MR37ahLkJ0N9p094J4cHBQ9XcQ-v16fkepbT-HPGJol0d4nsX_KTJYM0maPsjmDI5iB8GPeTDqK8zdd8FcWDO7ccPJCf_fPDlZSUyyR0Fdu3Ph_eEtsxcE-xrPSTnWvxqwkx_yLj3Txd_uZg_rBlzb7wZsrqiXANAUYTt8Uq6s33rh3_MtnTcg9MQJr6jZ_XapY1GWIgXpXieEWlfADE1557ug2d-AsKOH4xcSGWndPr3qqfn-t5iD_dlE8P7VbuViA7v-PIoQBB1ledQypDmTDSDNNw_GUhqf_yl8tIDHULDK7JupM5mgijxhb3OPnT7lrUVQan9f2gnIy5-5j89bx5VMoj1n7D7AsByKVgbib5DDzoGto5n236AVwJQDaBYRO24Qq6G6zKd6bchp82_YiTw-gkBO2OZAhCfBr-b9jEFd6Dddf9DZd4gtT729ciexwOTsLq-u8O-jfK-f9M5Bk6PL9LczgTGCwYEfeWQC72jDtxJfpcoaDo-QGV4CGg42qPdQp9G-fCrISZwRDLYDPbtiHcBhTPkZ-WJVexm84yh5LOZUChR4c-eA7oU_tDvsOJd9ZQCtlVcjQdxMuFAl969uuuFTDmE99gKCh6iRGtsL8OCTPQES5QpoTxWkIy-okiEdndI7HpDNJujcGesA4wRAET4okI-oOOXoh-zNsjhPeQlnfkaKZPWe6-0eV1zQtjGNlJWQlm40]--></g></svg>