<?xml version="1.0" encoding="us-ascii" standalone="no"?><svg xmlns="http://www.w3.org/2000/svg" xmlns:xlink="http://www.w3.org/1999/xlink" contentStyleType="text/css" height="782px" preserveAspectRatio="none" style="width:1338px;height:782px;background:#FFFFFF;" version="1.1" viewBox="0 0 1338 782" width="1338px" zoomAndPan="magnify"><defs/><g><text fill="#000000" font-family="sans-serif" font-size="14" font-weight="bold" lengthAdjust="spacing" textLength="255" x="543.25" y="30.1074">Register Student Sequence Diagram</text><rect fill="#FFFFFF" height="512.9473" style="stroke:#181818;stroke-width:1.0;" width="10" x="270.5" y="161.1543"/><rect fill="#FFFFFF" height="312.9102" style="stroke:#181818;stroke-width:1.0;" width="10" x="556.5" y="320.9004"/><rect fill="#FFFFFF" height="62.582" style="stroke:#181818;stroke-width:1.0;" width="10" x="774.5" y="352.1914"/><rect fill="#FFFFFF" height="62.582" style="stroke:#181818;stroke-width:1.0;" width="10" x="918" y="508.6465"/><line style="stroke:#181818;stroke-width:0.5;stroke-dasharray:5.0,5.0;" x1="49" x2="49" y1="127.8633" y2="683.1016"/><line style="stroke:#181818;stroke-width:0.5;stroke-dasharray:5.0,5.0;" x1="275.5" x2="275.5" y1="127.8633" y2="683.1016"/><line style="stroke:#181818;stroke-width:0.5;stroke-dasharray:5.0,5.0;" x1="561.5" x2="561.5" y1="127.8633" y2="683.1016"/><line style="stroke:#181818;stroke-width:0.5;stroke-dasharray:5.0,5.0;" x1="779.5" x2="779.5" y1="127.8633" y2="683.1016"/><line style="stroke:#181818;stroke-width:0.5;stroke-dasharray:5.0,5.0;" x1="922.5" x2="922.5" y1="127.8633" y2="683.1016"/><line style="stroke:#181818;stroke-width:0.5;stroke-dasharray:5.0,5.0;" x1="1034.5" x2="1034.5" y1="127.8633" y2="683.1016"/><line style="stroke:#181818;stroke-width:0.5;stroke-dasharray:5.0,5.0;" x1="1133.5" x2="1133.5" y1="127.8633" y2="683.1016"/><line style="stroke:#181818;stroke-width:0.5;stroke-dasharray:5.0,5.0;" x1="1262.5" x2="1262.5" y1="127.8633" y2="683.1016"/><text fill="#000000" font-family="sans-serif" font-size="14" lengthAdjust="spacing" textLength="83" x="5" y="124.3496">Administrator</text><ellipse cx="49.5" cy="57.7422" fill="#E2E2F0" rx="8" ry="8" style="stroke:#181818;stroke-width:0.5;"/><path d="M49.5,65.7422 L49.5,92.7422 M36.5,73.7422 L62.5,73.7422 M49.5,92.7422 L36.5,107.7422 M49.5,92.7422 L62.5,107.7422 " fill="none" style="stroke:#181818;stroke-width:0.5;"/><text fill="#000000" font-family="sans-serif" font-size="14" lengthAdjust="spacing" textLength="83" x="5" y="697.209">Administrator</text><ellipse cx="49.5" cy="709.2227" fill="#E2E2F0" rx="8" ry="8" style="stroke:#181818;stroke-width:0.5;"/><path d="M49.5,717.2227 L49.5,744.2227 M36.5,725.2227 L62.5,725.2227 M49.5,744.2227 L36.5,759.2227 M49.5,744.2227 L62.5,759.2227 " fill="none" style="stroke:#181818;stroke-width:0.5;"/><rect fill="#E2E2F0" height="51.2422" rx="2.5" ry="2.5" style="stroke:#181818;stroke-width:0.5;" width="136" x="207.5" y="75.6211"/><text fill="#000000" font-family="sans-serif" font-size="14" font-style="italic" lengthAdjust="spacing" textLength="27" x="262" y="97.7285">&#171;ui&#187;</text><text fill="#000000" font-family="sans-serif" font-size="14" lengthAdjust="spacing" textLength="122" x="214.5" y="116.3496">RegisterOperatorUI</text><rect fill="#E2E2F0" height="51.2422" rx="2.5" ry="2.5" style="stroke:#181818;stroke-width:0.5;" width="136" x="207.5" y="682.1016"/><text fill="#000000" font-family="sans-serif" font-size="14" font-style="italic" lengthAdjust="spacing" textLength="27" x="262" y="704.209">&#171;ui&#187;</text><text fill="#000000" font-family="sans-serif" font-size="14" lengthAdjust="spacing" textLength="122" x="214.5" y="722.8301">RegisterOperatorUI</text><rect fill="#E2E2F0" height="51.2422" rx="2.5" ry="2.5" style="stroke:#181818;stroke-width:0.5;" width="186" x="468.5" y="75.6211"/><text fill="#000000" font-family="sans-serif" font-size="14" font-style="italic" lengthAdjust="spacing" textLength="84" x="519.5" y="97.7285">&#171;application&#187;</text><text fill="#000000" font-family="sans-serif" font-size="14" lengthAdjust="spacing" textLength="172" x="475.5" y="116.3496">RegisterOperatorController</text><rect fill="#E2E2F0" height="51.2422" rx="2.5" ry="2.5" style="stroke:#181818;stroke-width:0.5;" width="186" x="468.5" y="682.1016"/><text fill="#000000" font-family="sans-serif" font-size="14" font-style="italic" lengthAdjust="spacing" textLength="84" x="519.5" y="704.209">&#171;application&#187;</text><text fill="#000000" font-family="sans-serif" font-size="14" lengthAdjust="spacing" textLength="172" x="475.5" y="722.8301">RegisterOperatorController</text><rect fill="#E2E2F0" height="51.2422" rx="2.5" ry="2.5" style="stroke:#181818;stroke-width:0.5;" width="152" x="703.5" y="75.6211"/><text fill="#000000" font-family="sans-serif" font-size="14" font-style="italic" lengthAdjust="spacing" textLength="59" x="750" y="97.7285">&#171;factory&#187;</text><text fill="#000000" font-family="sans-serif" font-size="14" lengthAdjust="spacing" textLength="138" x="710.5" y="116.3496">Jobs4UBuilderFactory</text><rect fill="#E2E2F0" height="51.2422" rx="2.5" ry="2.5" style="stroke:#181818;stroke-width:0.5;" width="152" x="703.5" y="682.1016"/><text fill="#000000" font-family="sans-serif" font-size="14" font-style="italic" lengthAdjust="spacing" textLength="59" x="750" y="704.209">&#171;factory&#187;</text><text fill="#000000" font-family="sans-serif" font-size="14" lengthAdjust="spacing" textLength="138" x="710.5" y="722.8301">Jobs4UBuilderFactory</text><rect fill="#E2E2F0" height="51.2422" rx="2.5" ry="2.5" style="stroke:#181818;stroke-width:0.5;" width="115" x="865.5" y="75.6211"/><text fill="#000000" font-family="sans-serif" font-size="14" font-style="italic" lengthAdjust="spacing" textLength="59" x="893.5" y="97.7285">&#171;builder&#187;</text><text fill="#000000" font-family="sans-serif" font-size="14" lengthAdjust="spacing" textLength="101" x="872.5" y="116.3496">OperatorBuilder</text><rect fill="#E2E2F0" height="51.2422" rx="2.5" ry="2.5" style="stroke:#181818;stroke-width:0.5;" width="115" x="865.5" y="682.1016"/><text fill="#000000" font-family="sans-serif" font-size="14" font-style="italic" lengthAdjust="spacing" textLength="59" x="893.5" y="704.209">&#171;builder&#187;</text><text fill="#000000" font-family="sans-serif" font-size="14" lengthAdjust="spacing" textLength="101" x="872.5" y="722.8301">OperatorBuilder</text><rect fill="#E2E2F0" height="51.2422" rx="2.5" ry="2.5" style="stroke:#181818;stroke-width:0.5;" width="89" x="990.5" y="75.6211"/><text fill="#000000" font-family="sans-serif" font-size="14" font-style="italic" lengthAdjust="spacing" textLength="62" x="1004" y="97.7285">&#171;f_entity&#187;</text><text fill="#000000" font-family="sans-serif" font-size="14" lengthAdjust="spacing" textLength="75" x="997.5" y="116.3496">SystemUser</text><rect fill="#E2E2F0" height="51.2422" rx="2.5" ry="2.5" style="stroke:#181818;stroke-width:0.5;" width="89" x="990.5" y="682.1016"/><text fill="#000000" font-family="sans-serif" font-size="14" font-style="italic" lengthAdjust="spacing" textLength="62" x="1004" y="704.209">&#171;f_entity&#187;</text><text fill="#000000" font-family="sans-serif" font-size="14" lengthAdjust="spacing" textLength="75" x="997.5" y="722.8301">SystemUser</text><rect fill="#E2E2F0" height="51.2422" rx="2.5" ry="2.5" style="stroke:#181818;stroke-width:0.5;" width="89" x="1089.5" y="75.6211"/><text fill="#000000" font-family="sans-serif" font-size="14" font-style="italic" lengthAdjust="spacing" textLength="62" x="1103" y="97.7285">&#171;domain&#187;</text><text fill="#000000" font-family="sans-serif" font-size="14" lengthAdjust="spacing" textLength="75" x="1096.5" y="116.3496">Jobs4UUser</text><rect fill="#E2E2F0" height="51.2422" rx="2.5" ry="2.5" style="stroke:#181818;stroke-width:0.5;" width="89" x="1089.5" y="682.1016"/><text fill="#000000" font-family="sans-serif" font-size="14" font-style="italic" lengthAdjust="spacing" textLength="62" x="1103" y="704.209">&#171;domain&#187;</text><text fill="#000000" font-family="sans-serif" font-size="14" lengthAdjust="spacing" textLength="75" x="1096.5" y="722.8301">Jobs4UUser</text><text fill="#000000" font-family="sans-serif" font-size="14" font-style="italic" lengthAdjust="spacing" textLength="79" x="1220.5" y="105.7285">&#171;repository&#187;</text><text fill="#000000" font-family="sans-serif" font-size="14" lengthAdjust="spacing" textLength="143" x="1188.5" y="124.3496">Jobs4UUserRepository</text><path d="M1245,54.6211 C1245,44.6211 1263,44.6211 1263,44.6211 C1263,44.6211 1281,44.6211 1281,54.6211 L1281,80.6211 C1281,90.6211 1263,90.6211 1263,90.6211 C1263,90.6211 1245,90.6211 1245,80.6211 L1245,54.6211 " fill="#E2E2F0" style="stroke:#181818;stroke-width:1.5;"/><path d="M1245,54.6211 C1245,64.6211 1263,64.6211 1263,64.6211 C1263,64.6211 1281,64.6211 1281,54.6211 " fill="none" style="stroke:#181818;stroke-width:1.5;"/><text fill="#000000" font-family="sans-serif" font-size="14" font-style="italic" lengthAdjust="spacing" textLength="79" x="1220.5" y="697.209">&#171;repository&#187;</text><text fill="#000000" font-family="sans-serif" font-size="14" lengthAdjust="spacing" textLength="143" x="1188.5" y="715.8301">Jobs4UUserRepository</text><path d="M1245,729.3438 C1245,719.3438 1263,719.3438 1263,719.3438 C1263,719.3438 1281,719.3438 1281,729.3438 L1281,755.3438 C1281,765.3438 1263,765.3438 1263,765.3438 C1263,765.3438 1245,765.3438 1245,755.3438 L1245,729.3438 " fill="#E2E2F0" style="stroke:#181818;stroke-width:1.5;"/><path d="M1245,729.3438 C1245,739.3438 1263,739.3438 1263,739.3438 C1263,739.3438 1281,739.3438 1281,729.3438 " fill="none" style="stroke:#181818;stroke-width:1.5;"/><rect fill="#FFFFFF" height="512.9473" style="stroke:#181818;stroke-width:1.0;" width="10" x="270.5" y="161.1543"/><rect fill="#FFFFFF" height="312.9102" style="stroke:#181818;stroke-width:1.0;" width="10" x="556.5" y="320.9004"/><rect fill="#FFFFFF" height="62.582" style="stroke:#181818;stroke-width:1.0;" width="10" x="774.5" y="352.1914"/><rect fill="#FFFFFF" height="62.582" style="stroke:#181818;stroke-width:1.0;" width="10" x="918" y="508.6465"/><polygon fill="#181818" points="258.5,157.1543,268.5,161.1543,258.5,165.1543,262.5,161.1543" style="stroke:#181818;stroke-width:1.0;"/><line style="stroke:#181818;stroke-width:1.0;" x1="0" x2="264.5" y1="161.1543" y2="161.1543"/><text fill="#000000" font-family="sans-serif" font-size="13" font-weight="bold" lengthAdjust="spacing" textLength="7" x="7" y="155.8916">1</text><text fill="#000000" font-family="sans-serif" font-size="13" lengthAdjust="spacing" textLength="42" x="18" y="155.8916">onLoad</text><polygon fill="#181818" points="549.5,188.4453,559.5,192.4453,549.5,196.4453,553.5,192.4453" style="stroke:#181818;stroke-width:1.0;"/><line style="stroke:#181818;stroke-width:1.0;" x1="280.5" x2="555.5" y1="192.4453" y2="192.4453"/><text fill="#000000" font-family="sans-serif" font-size="13" font-weight="bold" lengthAdjust="spacing" textLength="7" x="287.5" y="187.1826">2</text><text fill="#000000" font-family="sans-serif" font-size="13" lengthAdjust="spacing" textLength="216" x="298.5" y="187.1826">create(userRepo, userBuilderFactory)</text><polygon fill="#181818" points="60.5,237.0273,50.5,241.0273,60.5,245.0273,56.5,241.0273" style="stroke:#181818;stroke-width:1.0;"/><line style="stroke:#181818;stroke-width:1.0;stroke-dasharray:2.0,2.0;" x1="54.5" x2="269.5" y1="241.0273" y2="241.0273"/><text fill="#000000" font-family="sans-serif" font-size="13" font-weight="bold" lengthAdjust="spacing" textLength="7" x="66.5" y="227.1191">3</text><text fill="#000000" font-family="sans-serif" font-size="13" lengthAdjust="spacing" textLength="74" x="77.5" y="218.4736">asks input of</text><text fill="#000000" font-family="sans-serif" font-size="13" lengthAdjust="spacing" textLength="147" x="81.5" y="235.7646">language engineer details</text><polygon fill="#181818" points="258.5,268.3184,268.5,272.3184,258.5,276.3184,262.5,272.3184" style="stroke:#181818;stroke-width:1.0;"/><line style="stroke:#181818;stroke-width:1.0;" x1="49.5" x2="264.5" y1="272.3184" y2="272.3184"/><text fill="#000000" font-family="sans-serif" font-size="13" font-weight="bold" lengthAdjust="spacing" textLength="7" x="56.5" y="267.0557">4</text><text fill="#000000" font-family="sans-serif" font-size="13" lengthAdjust="spacing" textLength="186" x="67.5" y="267.0557">inputs language engineer details</text><polygon fill="#181818" points="544.5,316.9004,554.5,320.9004,544.5,324.9004,548.5,320.9004" style="stroke:#181818;stroke-width:1.0;"/><line style="stroke:#181818;stroke-width:1.0;" x1="280.5" x2="550.5" y1="320.9004" y2="320.9004"/><text fill="#000000" font-family="sans-serif" font-size="13" font-weight="bold" lengthAdjust="spacing" textLength="7" x="287.5" y="306.9922">5</text><text fill="#000000" font-family="sans-serif" font-size="13" lengthAdjust="spacing" textLength="246" x="298.5" y="298.3467">registerLanguageEngineer(username, pwd,</text><text fill="#000000" font-family="sans-serif" font-size="13" lengthAdjust="spacing" textLength="161" x="302.5" y="315.6377">firstName, lastName, email)</text><polygon fill="#181818" points="762.5,348.1914,772.5,352.1914,762.5,356.1914,766.5,352.1914" style="stroke:#181818;stroke-width:1.0;"/><line style="stroke:#181818;stroke-width:1.0;" x1="566.5" x2="768.5" y1="352.1914" y2="352.1914"/><text fill="#000000" font-family="sans-serif" font-size="13" font-weight="bold" lengthAdjust="spacing" textLength="7" x="573.5" y="346.9287">6</text><text fill="#000000" font-family="sans-serif" font-size="13" lengthAdjust="spacing" textLength="178" x="584.5" y="346.9287">createJObs4UUserBuilder(role)</text><polygon fill="#181818" points="911,379.4824,921,383.4824,911,387.4824,915,383.4824" style="stroke:#181818;stroke-width:1.0;"/><line style="stroke:#181818;stroke-width:1.0;" x1="784.5" x2="917" y1="383.4824" y2="383.4824"/><text fill="#000000" font-family="sans-serif" font-size="13" font-weight="bold" lengthAdjust="spacing" textLength="7" x="791.5" y="378.2197">7</text><text fill="#000000" font-family="sans-serif" font-size="13" lengthAdjust="spacing" textLength="36" x="802.5" y="378.2197">create</text><polygon fill="#181818" points="577.5,410.7734,567.5,414.7734,577.5,418.7734,573.5,414.7734" style="stroke:#181818;stroke-width:1.0;"/><line style="stroke:#181818;stroke-width:1.0;stroke-dasharray:2.0,2.0;" x1="571.5" x2="778.5" y1="414.7734" y2="414.7734"/><text fill="#000000" font-family="sans-serif" font-size="13" font-weight="bold" lengthAdjust="spacing" textLength="7" x="583.5" y="409.5107">8</text><text fill="#000000" font-family="sans-serif" font-size="13" lengthAdjust="spacing" textLength="38" x="594.5" y="409.5107">builder</text><polygon fill="#181818" points="1023,442.0645,1033,446.0645,1023,450.0645,1027,446.0645" style="stroke:#181818;stroke-width:1.0;"/><line style="stroke:#181818;stroke-width:1.0;" x1="566.5" x2="1029" y1="446.0645" y2="446.0645"/><text fill="#000000" font-family="sans-serif" font-size="13" font-weight="bold" lengthAdjust="spacing" textLength="7" x="573.5" y="440.8018">9</text><text fill="#000000" font-family="sans-serif" font-size="13" lengthAdjust="spacing" textLength="36" x="584.5" y="440.8018">create</text><polygon fill="#181818" points="911,473.3555,921,477.3555,911,481.3555,915,477.3555" style="stroke:#181818;stroke-width:1.0;"/><line style="stroke:#181818;stroke-width:1.0;" x1="566.5" x2="917" y1="477.3555" y2="477.3555"/><text fill="#000000" font-family="sans-serif" font-size="13" font-weight="bold" lengthAdjust="spacing" textLength="14" x="573.5" y="472.0928">10</text><text fill="#000000" font-family="sans-serif" font-size="13" lengthAdjust="spacing" textLength="151" x="591.5" y="472.0928">withSystemUser(sysUser)</text><polygon fill="#181818" points="906,504.6465,916,508.6465,906,512.6465,910,508.6465" style="stroke:#181818;stroke-width:1.0;"/><line style="stroke:#181818;stroke-width:1.0;" x1="566.5" x2="912" y1="508.6465" y2="508.6465"/><text fill="#000000" font-family="sans-serif" font-size="13" font-weight="bold" lengthAdjust="spacing" textLength="14" x="573.5" y="503.3838">11</text><text fill="#000000" font-family="sans-serif" font-size="13" lengthAdjust="spacing" textLength="35" x="591.5" y="503.3838">build()</text><polygon fill="#181818" points="1122,535.9375,1132,539.9375,1122,543.9375,1126,539.9375" style="stroke:#181818;stroke-width:1.0;"/><line style="stroke:#181818;stroke-width:1.0;" x1="928" x2="1128" y1="539.9375" y2="539.9375"/><text fill="#000000" font-family="sans-serif" font-size="13" font-weight="bold" lengthAdjust="spacing" textLength="14" x="935" y="534.6748">12</text><text fill="#000000" font-family="sans-serif" font-size="13" lengthAdjust="spacing" textLength="92" x="953" y="534.6748">create(sysUser)</text><polygon fill="#181818" points="577.5,567.2285,567.5,571.2285,577.5,575.2285,573.5,571.2285" style="stroke:#181818;stroke-width:1.0;"/><line style="stroke:#181818;stroke-width:1.0;stroke-dasharray:2.0,2.0;" x1="571.5" x2="922" y1="571.2285" y2="571.2285"/><text fill="#000000" font-family="sans-serif" font-size="13" font-weight="bold" lengthAdjust="spacing" textLength="14" x="583.5" y="565.9658">13</text><text fill="#000000" font-family="sans-serif" font-size="13" lengthAdjust="spacing" textLength="25" x="601.5" y="565.9658">user</text><polygon fill="#181818" points="1251,598.5195,1261,602.5195,1251,606.5195,1255,602.5195" style="stroke:#181818;stroke-width:1.0;"/><line style="stroke:#181818;stroke-width:1.0;" x1="566.5" x2="1257" y1="602.5195" y2="602.5195"/><text fill="#000000" font-family="sans-serif" font-size="13" font-weight="bold" lengthAdjust="spacing" textLength="14" x="573.5" y="597.2568">14</text><text fill="#000000" font-family="sans-serif" font-size="13" lengthAdjust="spacing" textLength="59" x="591.5" y="597.2568">save(user)</text><polygon fill="#181818" points="291.5,629.8105,281.5,633.8105,291.5,637.8105,287.5,633.8105" style="stroke:#181818;stroke-width:1.0;"/><line style="stroke:#181818;stroke-width:1.0;stroke-dasharray:2.0,2.0;" x1="285.5" x2="560.5" y1="633.8105" y2="633.8105"/><text fill="#000000" font-family="sans-serif" font-size="13" font-weight="bold" lengthAdjust="spacing" textLength="14" x="297.5" y="628.5479">15</text><text fill="#000000" font-family="sans-serif" font-size="13" lengthAdjust="spacing" textLength="93" x="315.5" y="628.5479">returns success</text><polygon fill="#181818" points="60.5,661.1016,50.5,665.1016,60.5,669.1016,56.5,665.1016" style="stroke:#181818;stroke-width:1.0;"/><line style="stroke:#181818;stroke-width:1.0;stroke-dasharray:2.0,2.0;" x1="54.5" x2="269.5" y1="665.1016" y2="665.1016"/><text fill="#000000" font-family="sans-serif" font-size="13" font-weight="bold" lengthAdjust="spacing" textLength="14" x="66.5" y="659.8389">16</text><text fill="#000000" font-family="sans-serif" font-size="13" lengthAdjust="spacing" textLength="101" x="84.5" y="659.8389">displays success</text><!--SRC=[VL9DZzem4BtxLrXx0edUUa8h91PsfKMqLD3SAbL3FAIZ9dRgZrtbttVin0cWrNB1UNxlpVFCUF8roYDMv3nQUV91eVRoXFy2wXBbbg2oq0W1mHiTcZDQ0QKtLgvLGvfL5k8NEBdUVXCjM4ybjS0U3zdrq68Y5QyFaLUyoiV7GAlLv-oDqTwQkaQRL9kVnpthe6rhAi6JqVS6EtDsNukdGBL2-v92Tadwijwmyj8ZzwfSRj0bmTD-ou9pZzmBJXsdR0etS4z5zFxDJIFVVHnfvExup6nb6g0ONu67CpYy9XwnDOx6xCVd7mUMs15bcH1VLh6BIsdqte2A0w4tyCYWO9nlKxUMihJ8y2mClWiPJxSTcYS5ItXyh03trqdIRV3IN7vfMOEk0bGeKLUaaLT4eGUgdOZyd2C9t2VacrHscFH-e3yFx9HJGuCBsRwh1LU_a7N-Uq9go2VaxjNpwT7HLIHhBX5ddT-zE-Ic3a-UyJxXbPB98WfO5qUUTJqsvHqMGIYyKUQIl06ZCcEztJlvFzEwp5pdul_yZfNiPrUn61RnYXbfOyOvZWRfTWeO-tQTBXha6cc1bjB1Mxy7kNeUdKKVh7RIXR94vwvjKcDljaEHQsle9dRy_GS0]--></g></svg>