<?xml version="1.0" encoding="us-ascii" standalone="no"?><svg xmlns="http://www.w3.org/2000/svg" xmlns:xlink="http://www.w3.org/1999/xlink" contentStyleType="text/css" height="820px" preserveAspectRatio="none" style="width:1577px;height:820px;background:#FFFFFF;" version="1.1" viewBox="0 0 1577 820" width="1577px" zoomAndPan="magnify"><defs/><g><text fill="#000000" font-family="sans-serif" font-size="14" font-weight="bold" lengthAdjust="spacing" textLength="343" x="618.5" y="30.1074">Sequence Diagram (US 2000c - List all candidates</text><rect fill="#FFFFFF" height="574.3164" style="stroke:#181818;stroke-width:1.0;" width="10" x="31.5" y="137.8633"/><rect fill="#FFFFFF" height="241.9883" style="stroke:#181818;stroke-width:1.0;" width="10" x="310.5" y="137.8633"/><rect fill="#FFFFFF" height="292.0371" style="stroke:#181818;stroke-width:1.0;" width="10" x="310.5" y="411.1426"/><rect fill="#FFFFFF" height="146.1152" style="stroke:#181818;stroke-width:1.0;" width="10" x="538.5" y="202.4453"/><rect fill="#FFFFFF" height="269.7461" style="stroke:#181818;stroke-width:1.0;" width="10" x="538.5" y="442.4336"/><rect fill="#FFFFFF" height="31.291" style="stroke:#181818;stroke-width:1.0;" width="10" x="798.5" y="254.6875"/><rect fill="#FFFFFF" height="30" style="stroke:#181818;stroke-width:1.0;" width="10" x="798.5" y="518.0156"/><rect fill="#FFFFFF" height="31.291" style="stroke:#181818;stroke-width:1.0;" width="10" x="984" y="317.2695"/><rect fill="#FFFFFF" height="92.582" style="stroke:#181818;stroke-width:1.0;" width="10" x="984" y="579.3066"/><rect fill="#FFFFFF" height="30" style="stroke:#181818;stroke-width:1.0;" width="10" x="1369.5" y="610.5977"/><line style="stroke:#181818;stroke-width:0.5;stroke-dasharray:5.0,5.0;" x1="36" x2="36" y1="127.8633" y2="721.1797"/><line style="stroke:#181818;stroke-width:0.5;stroke-dasharray:5.0,5.0;" x1="315.5" x2="315.5" y1="127.8633" y2="721.1797"/><line style="stroke:#181818;stroke-width:0.5;stroke-dasharray:5.0,5.0;" x1="543.5" x2="543.5" y1="210.2754" y2="721.1797"/><line style="stroke:#181818;stroke-width:0.5;stroke-dasharray:5.0,5.0;" x1="677.5" x2="677.5" y1="127.8633" y2="721.1797"/><line style="stroke:#181818;stroke-width:0.5;stroke-dasharray:5.0,5.0;" x1="803" x2="803" y1="127.8633" y2="721.1797"/><line style="stroke:#181818;stroke-width:0.5;stroke-dasharray:5.0,5.0;" x1="989" x2="989" y1="127.8633" y2="721.1797"/><line style="stroke:#181818;stroke-width:0.5;stroke-dasharray:5.0,5.0;" x1="1154" x2="1154" y1="127.8633" y2="721.1797"/><line style="stroke:#181818;stroke-width:0.5;stroke-dasharray:5.0,5.0;" x1="1255" x2="1255" y1="127.8633" y2="721.1797"/><line style="stroke:#181818;stroke-width:0.5;stroke-dasharray:5.0,5.0;" x1="1374" x2="1374" y1="127.8633" y2="721.1797"/><line style="stroke:#181818;stroke-width:0.5;stroke-dasharray:5.0,5.0;" x1="1515" x2="1515" y1="127.8633" y2="721.1797"/><text fill="#000000" font-family="sans-serif" font-size="14" lengthAdjust="spacing" textLength="57" x="5" y="124.3496">Operator</text><ellipse cx="36.5" cy="57.7422" fill="#E2E2F0" rx="8" ry="8" style="stroke:#181818;stroke-width:0.5;"/><path d="M36.5,65.7422 L36.5,92.7422 M23.5,73.7422 L49.5,73.7422 M36.5,92.7422 L23.5,107.7422 M36.5,92.7422 L49.5,107.7422 " fill="none" style="stroke:#181818;stroke-width:0.5;"/><text fill="#000000" font-family="sans-serif" font-size="14" lengthAdjust="spacing" textLength="57" x="5" y="735.2871">Operator</text><ellipse cx="36.5" cy="747.3008" fill="#E2E2F0" rx="8" ry="8" style="stroke:#181818;stroke-width:0.5;"/><path d="M36.5,755.3008 L36.5,782.3008 M23.5,763.3008 L49.5,763.3008 M36.5,782.3008 L23.5,797.3008 M36.5,782.3008 L49.5,797.3008 " fill="none" style="stroke:#181818;stroke-width:0.5;"/><rect fill="#E2E2F0" height="51.2422" rx="2.5" ry="2.5" style="stroke:#181818;stroke-width:0.5;" width="120" x="255.5" y="75.6211"/><text fill="#000000" font-family="sans-serif" font-size="14" font-style="italic" lengthAdjust="spacing" textLength="30" x="300.5" y="97.7285">&#171;UI&#187;</text><text fill="#000000" font-family="sans-serif" font-size="14" lengthAdjust="spacing" textLength="106" x="262.5" y="116.3496">ListCandidatesUI</text><rect fill="#E2E2F0" height="51.2422" rx="2.5" ry="2.5" style="stroke:#181818;stroke-width:0.5;" width="120" x="255.5" y="720.1797"/><text fill="#000000" font-family="sans-serif" font-size="14" font-style="italic" lengthAdjust="spacing" textLength="30" x="300.5" y="742.2871">&#171;UI&#187;</text><text fill="#000000" font-family="sans-serif" font-size="14" lengthAdjust="spacing" textLength="106" x="262.5" y="760.9082">ListCandidatesUI</text><rect fill="#E2E2F0" height="51.2422" rx="2.5" ry="2.5" style="stroke:#181818;stroke-width:0.5;" width="170" x="458.5" y="720.1797"/><text fill="#000000" font-family="sans-serif" font-size="14" font-style="italic" lengthAdjust="spacing" textLength="85" x="501" y="742.2871">&#171;Application&#187;</text><text fill="#000000" font-family="sans-serif" font-size="14" lengthAdjust="spacing" textLength="156" x="465.5" y="760.9082">ListCandidatesController</text><rect fill="#E2E2F0" height="51.2422" rx="2.5" ry="2.5" style="stroke:#181818;stroke-width:0.5;" width="78" x="638.5" y="75.6211"/><text fill="#000000" font-family="sans-serif" font-size="14" font-style="italic" lengthAdjust="spacing" textLength="64" x="645.5" y="97.7285">&#171;Domain&#187;</text><text fill="#000000" font-family="sans-serif" font-size="14" lengthAdjust="spacing" textLength="29" x="663" y="116.3496">Role</text><rect fill="#E2E2F0" height="51.2422" rx="2.5" ry="2.5" style="stroke:#181818;stroke-width:0.5;" width="78" x="638.5" y="720.1797"/><text fill="#000000" font-family="sans-serif" font-size="14" font-style="italic" lengthAdjust="spacing" textLength="64" x="645.5" y="742.2871">&#171;Domain&#187;</text><text fill="#000000" font-family="sans-serif" font-size="14" lengthAdjust="spacing" textLength="29" x="663" y="760.9082">Role</text><rect fill="#E2E2F0" height="51.2422" rx="2.5" ry="2.5" style="stroke:#181818;stroke-width:0.5;" width="143" x="732" y="75.6211"/><text fill="#000000" font-family="sans-serif" font-size="14" font-style="italic" lengthAdjust="spacing" textLength="64" x="771.5" y="97.7285">&#171;Domain&#187;</text><text fill="#000000" font-family="sans-serif" font-size="14" lengthAdjust="spacing" textLength="129" x="739" y="116.3496">AuthorizationService</text><rect fill="#E2E2F0" height="51.2422" rx="2.5" ry="2.5" style="stroke:#181818;stroke-width:0.5;" width="143" x="732" y="720.1797"/><text fill="#000000" font-family="sans-serif" font-size="14" font-style="italic" lengthAdjust="spacing" textLength="64" x="771.5" y="742.2871">&#171;Domain&#187;</text><text fill="#000000" font-family="sans-serif" font-size="14" lengthAdjust="spacing" textLength="129" x="739" y="760.9082">AuthorizationService</text><rect fill="#E2E2F0" height="51.2422" rx="2.5" ry="2.5" style="stroke:#181818;stroke-width:0.5;" width="208" x="885" y="75.6211"/><text fill="#000000" font-family="sans-serif" font-size="14" font-style="italic" lengthAdjust="spacing" textLength="64" x="957" y="97.7285">&#171;Domain&#187;</text><text fill="#000000" font-family="sans-serif" font-size="14" lengthAdjust="spacing" textLength="194" x="892" y="116.3496">CandidateManagementService</text><rect fill="#E2E2F0" height="51.2422" rx="2.5" ry="2.5" style="stroke:#181818;stroke-width:0.5;" width="208" x="885" y="720.1797"/><text fill="#000000" font-family="sans-serif" font-size="14" font-style="italic" lengthAdjust="spacing" textLength="64" x="957" y="742.2871">&#171;Domain&#187;</text><text fill="#000000" font-family="sans-serif" font-size="14" lengthAdjust="spacing" textLength="194" x="892" y="760.9082">CandidateManagementService</text><text fill="#000000" font-family="sans-serif" font-size="14" font-style="italic" lengthAdjust="spacing" textLength="90" x="1106.5" y="105.7285">&#171;Persistence&#187;</text><text fill="#000000" font-family="sans-serif" font-size="14" lengthAdjust="spacing" textLength="97" x="1103" y="124.3496">UserRepository</text><path d="M1136.5,54.6211 C1136.5,44.6211 1154.5,44.6211 1154.5,44.6211 C1154.5,44.6211 1172.5,44.6211 1172.5,54.6211 L1172.5,80.6211 C1172.5,90.6211 1154.5,90.6211 1154.5,90.6211 C1154.5,90.6211 1136.5,90.6211 1136.5,80.6211 L1136.5,54.6211 " fill="#E2E2F0" style="stroke:#181818;stroke-width:1.5;"/><path d="M1136.5,54.6211 C1136.5,64.6211 1154.5,64.6211 1154.5,64.6211 C1154.5,64.6211 1172.5,64.6211 1172.5,54.6211 " fill="none" style="stroke:#181818;stroke-width:1.5;"/><text fill="#000000" font-family="sans-serif" font-size="14" font-style="italic" lengthAdjust="spacing" textLength="90" x="1106.5" y="735.2871">&#171;Persistence&#187;</text><text fill="#000000" font-family="sans-serif" font-size="14" lengthAdjust="spacing" textLength="97" x="1103" y="753.9082">UserRepository</text><path d="M1136.5,767.4219 C1136.5,757.4219 1154.5,757.4219 1154.5,757.4219 C1154.5,757.4219 1172.5,757.4219 1172.5,767.4219 L1172.5,793.4219 C1172.5,803.4219 1154.5,803.4219 1154.5,803.4219 C1154.5,803.4219 1136.5,803.4219 1136.5,793.4219 L1136.5,767.4219 " fill="#E2E2F0" style="stroke:#181818;stroke-width:1.5;"/><path d="M1136.5,767.4219 C1136.5,777.4219 1154.5,777.4219 1154.5,777.4219 C1154.5,777.4219 1172.5,777.4219 1172.5,767.4219 " fill="none" style="stroke:#181818;stroke-width:1.5;"/><rect fill="#E2E2F0" height="51.2422" rx="2.5" ry="2.5" style="stroke:#181818;stroke-width:0.5;" width="79" x="1216" y="75.6211"/><text fill="#000000" font-family="sans-serif" font-size="14" font-style="italic" lengthAdjust="spacing" textLength="64" x="1223.5" y="97.7285">&#171;Domain&#187;</text><text fill="#000000" font-family="sans-serif" font-size="14" lengthAdjust="spacing" textLength="65" x="1223" y="116.3496">Candidate</text><rect fill="#E2E2F0" height="51.2422" rx="2.5" ry="2.5" style="stroke:#181818;stroke-width:0.5;" width="79" x="1216" y="720.1797"/><text fill="#000000" font-family="sans-serif" font-size="14" font-style="italic" lengthAdjust="spacing" textLength="64" x="1223.5" y="742.2871">&#171;Domain&#187;</text><text fill="#000000" font-family="sans-serif" font-size="14" lengthAdjust="spacing" textLength="65" x="1223" y="760.9082">Candidate</text><text fill="#000000" font-family="sans-serif" font-size="14" font-style="italic" lengthAdjust="spacing" textLength="90" x="1326.5" y="105.7285">&#171;Persistence&#187;</text><text fill="#000000" font-family="sans-serif" font-size="14" lengthAdjust="spacing" textLength="133" x="1305" y="124.3496">CandidateRepository</text><path d="M1356.5,54.6211 C1356.5,44.6211 1374.5,44.6211 1374.5,44.6211 C1374.5,44.6211 1392.5,44.6211 1392.5,54.6211 L1392.5,80.6211 C1392.5,90.6211 1374.5,90.6211 1374.5,90.6211 C1374.5,90.6211 1356.5,90.6211 1356.5,80.6211 L1356.5,54.6211 " fill="#E2E2F0" style="stroke:#181818;stroke-width:1.5;"/><path d="M1356.5,54.6211 C1356.5,64.6211 1374.5,64.6211 1374.5,64.6211 C1374.5,64.6211 1392.5,64.6211 1392.5,54.6211 " fill="none" style="stroke:#181818;stroke-width:1.5;"/><text fill="#000000" font-family="sans-serif" font-size="14" font-style="italic" lengthAdjust="spacing" textLength="90" x="1326.5" y="735.2871">&#171;Persistence&#187;</text><text fill="#000000" font-family="sans-serif" font-size="14" lengthAdjust="spacing" textLength="133" x="1305" y="753.9082">CandidateRepository</text><path d="M1356.5,767.4219 C1356.5,757.4219 1374.5,757.4219 1374.5,757.4219 C1374.5,757.4219 1392.5,757.4219 1392.5,767.4219 L1392.5,793.4219 C1392.5,803.4219 1374.5,803.4219 1374.5,803.4219 C1374.5,803.4219 1356.5,803.4219 1356.5,793.4219 L1356.5,767.4219 " fill="#E2E2F0" style="stroke:#181818;stroke-width:1.5;"/><path d="M1356.5,767.4219 C1356.5,777.4219 1374.5,777.4219 1374.5,777.4219 C1374.5,777.4219 1392.5,777.4219 1392.5,767.4219 " fill="none" style="stroke:#181818;stroke-width:1.5;"/><text fill="#000000" font-family="sans-serif" font-size="14" font-style="italic" lengthAdjust="spacing" textLength="90" x="1467" y="105.7285">&#171;Persistence&#187;</text><text fill="#000000" font-family="sans-serif" font-size="14" lengthAdjust="spacing" textLength="116" x="1454" y="124.3496">DomainRepository</text><path d="M1497,54.6211 C1497,44.6211 1515,44.6211 1515,44.6211 C1515,44.6211 1533,44.6211 1533,54.6211 L1533,80.6211 C1533,90.6211 1515,90.6211 1515,90.6211 C1515,90.6211 1497,90.6211 1497,80.6211 L1497,54.6211 " fill="#E2E2F0" style="stroke:#181818;stroke-width:1.5;"/><path d="M1497,54.6211 C1497,64.6211 1515,64.6211 1515,64.6211 C1515,64.6211 1533,64.6211 1533,54.6211 " fill="none" style="stroke:#181818;stroke-width:1.5;"/><text fill="#000000" font-family="sans-serif" font-size="14" font-style="italic" lengthAdjust="spacing" textLength="90" x="1467" y="735.2871">&#171;Persistence&#187;</text><text fill="#000000" font-family="sans-serif" font-size="14" lengthAdjust="spacing" textLength="116" x="1454" y="753.9082">DomainRepository</text><path d="M1497,767.4219 C1497,757.4219 1515,757.4219 1515,757.4219 C1515,757.4219 1533,757.4219 1533,767.4219 L1533,793.4219 C1533,803.4219 1515,803.4219 1515,803.4219 C1515,803.4219 1497,803.4219 1497,793.4219 L1497,767.4219 " fill="#E2E2F0" style="stroke:#181818;stroke-width:1.5;"/><path d="M1497,767.4219 C1497,777.4219 1515,777.4219 1515,777.4219 C1515,777.4219 1533,777.4219 1533,767.4219 " fill="none" style="stroke:#181818;stroke-width:1.5;"/><rect fill="#FFFFFF" height="574.3164" style="stroke:#181818;stroke-width:1.0;" width="10" x="31.5" y="137.8633"/><rect fill="#FFFFFF" height="241.9883" style="stroke:#181818;stroke-width:1.0;" width="10" x="310.5" y="137.8633"/><rect fill="#FFFFFF" height="292.0371" style="stroke:#181818;stroke-width:1.0;" width="10" x="310.5" y="411.1426"/><rect fill="#FFFFFF" height="146.1152" style="stroke:#181818;stroke-width:1.0;" width="10" x="538.5" y="202.4453"/><rect fill="#FFFFFF" height="269.7461" style="stroke:#181818;stroke-width:1.0;" width="10" x="538.5" y="442.4336"/><rect fill="#FFFFFF" height="31.291" style="stroke:#181818;stroke-width:1.0;" width="10" x="798.5" y="254.6875"/><rect fill="#FFFFFF" height="30" style="stroke:#181818;stroke-width:1.0;" width="10" x="798.5" y="518.0156"/><rect fill="#FFFFFF" height="31.291" style="stroke:#181818;stroke-width:1.0;" width="10" x="984" y="317.2695"/><rect fill="#FFFFFF" height="92.582" style="stroke:#181818;stroke-width:1.0;" width="10" x="984" y="579.3066"/><rect fill="#FFFFFF" height="30" style="stroke:#181818;stroke-width:1.0;" width="10" x="1369.5" y="610.5977"/><polygon fill="#181818" points="298.5,157.1543,308.5,161.1543,298.5,165.1543,302.5,161.1543" style="stroke:#181818;stroke-width:1.0;"/><line style="stroke:#181818;stroke-width:1.0;" x1="41.5" x2="304.5" y1="161.1543" y2="161.1543"/><text fill="#000000" font-family="sans-serif" font-size="13" font-weight="bold" lengthAdjust="spacing" textLength="7" x="48.5" y="155.8916">1</text><text fill="#000000" font-family="sans-serif" font-size="13" lengthAdjust="spacing" textLength="190" x="59.5" y="155.8916">Request to list all the candidates</text><polygon fill="#181818" points="446.5,188.4453,456.5,192.4453,446.5,196.4453,450.5,192.4453" style="stroke:#181818;stroke-width:1.0;"/><line style="stroke:#181818;stroke-width:1.0;" x1="320.5" x2="452.5" y1="192.4453" y2="192.4453"/><text fill="#000000" font-family="sans-serif" font-size="13" font-weight="bold" lengthAdjust="spacing" textLength="7" x="327.5" y="187.1826">2</text><text fill="#000000" font-family="sans-serif" font-size="13" lengthAdjust="spacing" textLength="36" x="338.5" y="187.1826">create</text><rect fill="#E2E2F0" height="51.2422" rx="2.5" ry="2.5" style="stroke:#181818;stroke-width:0.5;" width="170" x="458.5" y="169.1543"/><text fill="#000000" font-family="sans-serif" font-size="14" font-style="italic" lengthAdjust="spacing" textLength="85" x="501" y="191.2617">&#171;Application&#187;</text><text fill="#000000" font-family="sans-serif" font-size="14" lengthAdjust="spacing" textLength="156" x="465.5" y="209.8828">ListCandidatesController</text><polygon fill="#181818" points="786.5,250.6875,796.5,254.6875,786.5,258.6875,790.5,254.6875" style="stroke:#181818;stroke-width:1.0;"/><line style="stroke:#181818;stroke-width:1.0;" x1="548.5" x2="792.5" y1="254.6875" y2="254.6875"/><text fill="#000000" font-family="sans-serif" font-size="13" font-weight="bold" lengthAdjust="spacing" textLength="7" x="555.5" y="249.4248">3</text><text fill="#000000" font-family="sans-serif" font-size="13" lengthAdjust="spacing" textLength="124" x="566.5" y="249.4248">authorizationService()</text><polygon fill="#181818" points="559.5,281.9785,549.5,285.9785,559.5,289.9785,555.5,285.9785" style="stroke:#181818;stroke-width:1.0;"/><line style="stroke:#181818;stroke-width:1.0;stroke-dasharray:2.0,2.0;" x1="553.5" x2="802.5" y1="285.9785" y2="285.9785"/><text fill="#000000" font-family="sans-serif" font-size="13" font-weight="bold" lengthAdjust="spacing" textLength="7" x="565.5" y="280.7158">4</text><text fill="#000000" font-family="sans-serif" font-size="13" lengthAdjust="spacing" textLength="32" x="576.5" y="280.7158">authz</text><polygon fill="#181818" points="972,313.2695,982,317.2695,972,321.2695,976,317.2695" style="stroke:#181818;stroke-width:1.0;"/><line style="stroke:#181818;stroke-width:1.0;" x1="548.5" x2="978" y1="317.2695" y2="317.2695"/><text fill="#000000" font-family="sans-serif" font-size="13" font-weight="bold" lengthAdjust="spacing" textLength="7" x="555.5" y="312.0068">5</text><text fill="#000000" font-family="sans-serif" font-size="13" lengthAdjust="spacing" textLength="106" x="566.5" y="312.0068">candidateService()</text><polygon fill="#181818" points="554.5,344.5605,544.5,348.5605,554.5,352.5605,550.5,348.5605" style="stroke:#181818;stroke-width:1.0;"/><line style="stroke:#181818;stroke-width:1.0;stroke-dasharray:2.0,2.0;" x1="548.5" x2="988" y1="348.5605" y2="348.5605"/><text fill="#000000" font-family="sans-serif" font-size="13" font-weight="bold" lengthAdjust="spacing" textLength="7" x="560.5" y="343.2979">6</text><text fill="#000000" font-family="sans-serif" font-size="13" lengthAdjust="spacing" textLength="77" x="571.5" y="343.2979">candidateSvc</text><polygon fill="#181818" points="52.5,375.8516,42.5,379.8516,52.5,383.8516,48.5,379.8516" style="stroke:#181818;stroke-width:1.0;"/><line style="stroke:#181818;stroke-width:1.0;stroke-dasharray:2.0,2.0;" x1="46.5" x2="314.5" y1="379.8516" y2="379.8516"/><text fill="#000000" font-family="sans-serif" font-size="13" font-weight="bold" lengthAdjust="spacing" textLength="7" x="58.5" y="374.5889">7</text><text fill="#000000" font-family="sans-serif" font-size="13" lengthAdjust="spacing" textLength="234" x="69.5" y="374.5889">Receive request to list all the candidates</text><polygon fill="#181818" points="298.5,407.1426,308.5,411.1426,298.5,415.1426,302.5,411.1426" style="stroke:#181818;stroke-width:1.0;"/><line style="stroke:#181818;stroke-width:1.0;" x1="41.5" x2="304.5" y1="411.1426" y2="411.1426"/><text fill="#000000" font-family="sans-serif" font-size="13" font-weight="bold" lengthAdjust="spacing" textLength="7" x="48.5" y="405.8799">8</text><text fill="#000000" font-family="sans-serif" font-size="13" lengthAdjust="spacing" textLength="174" x="59.5" y="405.8799">Get candidates from database</text><polygon fill="#181818" points="526.5,438.4336,536.5,442.4336,526.5,446.4336,530.5,442.4336" style="stroke:#181818;stroke-width:1.0;"/><line style="stroke:#181818;stroke-width:1.0;" x1="320.5" x2="532.5" y1="442.4336" y2="442.4336"/><text fill="#000000" font-family="sans-serif" font-size="13" font-weight="bold" lengthAdjust="spacing" textLength="7" x="327.5" y="437.1709">9</text><text fill="#000000" font-family="sans-serif" font-size="13" lengthAdjust="spacing" textLength="188" x="338.5" y="437.1709">get all candidates from database</text><line style="stroke:#181818;stroke-width:1.0;stroke-dasharray:2.0,2.0;" x1="548.5" x2="590.5" y1="473.7246" y2="473.7246"/><line style="stroke:#181818;stroke-width:1.0;stroke-dasharray:2.0,2.0;" x1="590.5" x2="590.5" y1="473.7246" y2="486.7246"/><line style="stroke:#181818;stroke-width:1.0;stroke-dasharray:2.0,2.0;" x1="549.5" x2="590.5" y1="486.7246" y2="486.7246"/><polygon fill="#181818" points="559.5,482.7246,549.5,486.7246,559.5,490.7246,555.5,486.7246" style="stroke:#181818;stroke-width:1.0;"/><text fill="#000000" font-family="sans-serif" font-size="13" font-weight="bold" lengthAdjust="spacing" textLength="14" x="555.5" y="468.4619">10</text><text fill="#000000" font-family="sans-serif" font-size="13" lengthAdjust="spacing" textLength="86" x="573.5" y="468.4619">allCandidates()</text><polygon fill="#181818" points="786.5,514.0156,796.5,518.0156,786.5,522.0156,790.5,518.0156" style="stroke:#181818;stroke-width:1.0;"/><line style="stroke:#181818;stroke-width:1.0;" x1="548.5" x2="792.5" y1="518.0156" y2="518.0156"/><text fill="#000000" font-family="sans-serif" font-size="13" font-weight="bold" lengthAdjust="spacing" textLength="14" x="555.5" y="512.7529">11</text><text fill="#000000" font-family="sans-serif" font-size="13" lengthAdjust="spacing" textLength="213" x="573.5" y="512.7529">ensureAuthenticatedUserHasAnyOf()</text><polygon fill="#181818" points="972,575.3066,982,579.3066,972,583.3066,976,579.3066" style="stroke:#181818;stroke-width:1.0;"/><line style="stroke:#181818;stroke-width:1.0;" x1="548.5" x2="978" y1="579.3066" y2="579.3066"/><text fill="#000000" font-family="sans-serif" font-size="13" font-weight="bold" lengthAdjust="spacing" textLength="14" x="555.5" y="574.0439">12</text><text fill="#000000" font-family="sans-serif" font-size="13" lengthAdjust="spacing" textLength="79" x="573.5" y="574.0439">allCandidate()</text><polygon fill="#181818" points="1357.5,606.5977,1367.5,610.5977,1357.5,614.5977,1361.5,610.5977" style="stroke:#181818;stroke-width:1.0;"/><line style="stroke:#181818;stroke-width:1.0;" x1="994" x2="1363.5" y1="610.5977" y2="610.5977"/><text fill="#000000" font-family="sans-serif" font-size="13" font-weight="bold" lengthAdjust="spacing" textLength="14" x="1001" y="605.335">13</text><text fill="#000000" font-family="sans-serif" font-size="13" lengthAdjust="spacing" textLength="108" x="1019" y="605.335">findAllCandidates()</text><polygon fill="#181818" points="559.5,667.8887,549.5,671.8887,559.5,675.8887,555.5,671.8887" style="stroke:#181818;stroke-width:1.0;"/><line style="stroke:#181818;stroke-width:1.0;stroke-dasharray:2.0,2.0;" x1="553.5" x2="988" y1="671.8887" y2="671.8887"/><text fill="#000000" font-family="sans-serif" font-size="13" font-weight="bold" lengthAdjust="spacing" textLength="14" x="565.5" y="666.626">14</text><text fill="#000000" font-family="sans-serif" font-size="13" lengthAdjust="spacing" textLength="80" x="583.5" y="666.626">all candidates</text><polygon fill="#181818" points="52.5,699.1797,42.5,703.1797,52.5,707.1797,48.5,703.1797" style="stroke:#181818;stroke-width:1.0;"/><line style="stroke:#181818;stroke-width:1.0;stroke-dasharray:2.0,2.0;" x1="46.5" x2="314.5" y1="703.1797" y2="703.1797"/><text fill="#000000" font-family="sans-serif" font-size="13" font-weight="bold" lengthAdjust="spacing" textLength="14" x="58.5" y="697.917">15</text><text fill="#000000" font-family="sans-serif" font-size="13" lengthAdjust="spacing" textLength="160" x="76.5" y="697.917">Displays the candidates list</text><!--SRC=[XLJHZjem47ptL_ZnUX8IwYD2I158BTAXgqZp0NlEmbbAxDHsaBYlxwufJk8BrmSWDZFZtPbrWWuDoXB_z6WKofs6iuDMFbMb_BvSBfLSo1VjWuIcaGfChMi8w8M0FbZJjs_e1AXWdNpjq04_W4_FeWCNjD8Tc11bjacXsZEGljVhQh_PV87SMXESRHgCqjlVnnVY55tNQ0L1MvEHZvRw8M3yNQztjWMTOue-l5kdFoA_H7VHAdAAyX4ZbNC00sTiqOGHhpfCY8I3D_0eAu_kY9trciouHYGl2ViBdQSksVD79yLkPsKJPAgzdTLEh9lEbBBx11SSfxxm-Id5j5FjHOfviQ7bIXvvScW-WfNDVKx2EqvcXL8cD2Vt_BnI3cbtqEHj4LCb30MmaZ2JpjEtWL6KWd2BVv8t_8UeSGpWVxZ20mkcMcR4227eGsetiG5xKMDDnesMiMhkYmwvMy9cADGNbEx_feobFxlw0yC8B4_Ejl8Uv2IEQfziE6D-In_nakNtheast3Tov-PU30EDxntoXQ6Hvnk7DK_rJ_25kRwUibo-265ynbm0cpY-AtdIfYwoUeRA6JF98MwC0ynUL5c4UMGxxRi6hZwB9yQMPVGN]--></g></svg>