<?xml version="1.0" encoding="us-ascii" standalone="no"?><svg xmlns="http://www.w3.org/2000/svg" xmlns:xlink="http://www.w3.org/1999/xlink" contentStyleType="text/css" height="420px" preserveAspectRatio="none" style="width:1187px;height:420px;background:#FFFFFF;" version="1.1" viewBox="0 0 1187 420" width="1187px" zoomAndPan="magnify"><defs/><g><!--cluster ui--><g id="cluster_ui"><path d="M337.5,6.0137 L351.5,6.0137 A3.75,3.75 0 0 1 354,8.5137 L361,30.6348 L502.5,30.6348 A2.5,2.5 0 0 1 505,33.1348 L505,104.5137 A2.5,2.5 0 0 1 502.5,107.0137 L337.5,107.0137 A2.5,2.5 0 0 1 335,104.5137 L335,8.5137 A2.5,2.5 0 0 1 337.5,6.0137 " fill="none" style="stroke:#000000;stroke-width:1.5;"/><line style="stroke:#000000;stroke-width:1.5;" x1="335" x2="361" y1="30.6348" y2="30.6348"/><text fill="#000000" font-family="sans-serif" font-size="14" font-weight="bold" lengthAdjust="spacing" textLength="13" x="339" y="23.1211">ui</text></g><!--cluster application--><g id="cluster_application"><path d="M312.5,131.0137 L390.5,131.0137 A3.75,3.75 0 0 1 393,133.5137 L400,155.6348 L527.5,155.6348 A2.5,2.5 0 0 1 530,158.1348 L530,248.5137 A2.5,2.5 0 0 1 527.5,251.0137 L312.5,251.0137 A2.5,2.5 0 0 1 310,248.5137 L310,133.5137 A2.5,2.5 0 0 1 312.5,131.0137 " fill="none" style="stroke:#000000;stroke-width:1.5;"/><line style="stroke:#000000;stroke-width:1.5;" x1="310" x2="400" y1="155.6348" y2="155.6348"/><text fill="#000000" font-family="sans-serif" font-size="14" font-weight="bold" lengthAdjust="spacing" textLength="77" x="314" y="148.1211">application</text></g><!--cluster repository--><g id="cluster_repository"><path d="M8.5,284.0137 L81.5,284.0137 A3.75,3.75 0 0 1 84,286.5137 L91,308.6348 L201.5,308.6348 A2.5,2.5 0 0 1 204,311.1348 L204,401.5137 A2.5,2.5 0 0 1 201.5,404.0137 L8.5,404.0137 A2.5,2.5 0 0 1 6,401.5137 L6,286.5137 A2.5,2.5 0 0 1 8.5,284.0137 " fill="none" style="stroke:#000000;stroke-width:1.5;"/><line style="stroke:#000000;stroke-width:1.5;" x1="6" x2="91" y1="308.6348" y2="308.6348"/><text fill="#000000" font-family="sans-serif" font-size="14" font-weight="bold" lengthAdjust="spacing" textLength="72" x="10" y="301.1211">repository</text></g><!--cluster domain--><g id="cluster_domain"><path d="M230.5,275.0137 L282.5,275.0137 A3.75,3.75 0 0 1 285,277.5137 L292,299.6348 L1177.5,299.6348 A2.5,2.5 0 0 1 1180,302.1348 L1180,410.5137 A2.5,2.5 0 0 1 1177.5,413.0137 L230.5,413.0137 A2.5,2.5 0 0 1 228,410.5137 L228,277.5137 A2.5,2.5 0 0 1 230.5,275.0137 " fill="none" style="stroke:#000000;stroke-width:1.5;"/><line style="stroke:#000000;stroke-width:1.5;" x1="228" x2="292" y1="299.6348" y2="299.6348"/><text fill="#000000" font-family="sans-serif" font-size="14" font-weight="bold" lengthAdjust="spacing" textLength="51" x="232" y="292.1211">domain</text></g><!--class ListCandidatesUI--><g id="elem_ListCandidatesUI"><rect codeLine="6" fill="#F1F1F1" height="48" id="ListCandidatesUI" rx="2.5" ry="2.5" style="stroke:#181818;stroke-width:0.5;" width="138" x="351" y="43.0137"/><ellipse cx="366" cy="59.0137" fill="#ADD1B2" rx="11" ry="11" style="stroke:#181818;stroke-width:1.0;"/><path d="M368.7656,54.8887 Q368.9219,54.6699 369.1094,54.5605 Q369.2969,54.4512 369.5156,54.4512 Q369.8906,54.4512 370.125,54.7168 Q370.3594,54.9668 370.3594,55.5762 L370.3594,57.0293 Q370.3594,57.6387 370.125,57.9043 Q369.8906,58.1699 369.5156,58.1699 Q369.1719,58.1699 368.9688,57.9668 Q368.7656,57.7793 368.6563,57.2637 Q368.6094,56.9043 368.4219,56.7168 Q368.0938,56.3418 367.4844,56.123 Q366.875,55.9043 366.25,55.9043 Q365.4844,55.9043 364.8438,56.2324 Q364.2188,56.5605 363.7188,57.3105 Q363.2344,58.0605 363.2344,59.0918 L363.2344,60.1855 Q363.2344,61.4199 364.125,62.248 Q365.0156,63.0605 366.6094,63.0605 Q367.5469,63.0605 368.2031,62.8105 Q368.5938,62.6543 369.0156,62.2168 Q369.2813,61.9512 369.4219,61.873 Q369.5781,61.7949 369.7813,61.7949 Q370.1094,61.7949 370.3594,62.0605 Q370.625,62.3105 370.625,62.6543 Q370.625,62.998 370.2813,63.4043 Q369.7813,63.9824 368.9844,64.3105 Q367.9063,64.7637 366.6094,64.7637 Q365.0938,64.7637 363.8906,64.1387 Q362.9063,63.6387 362.2188,62.5762 Q361.5313,61.498 361.5313,60.2168 L361.5313,59.0605 Q361.5313,57.7324 362.1406,56.5918 Q362.7656,55.4355 363.8594,54.8262 Q364.9531,54.2012 366.1875,54.2012 Q366.9219,54.2012 367.5625,54.373 Q368.2188,54.5293 368.7656,54.8887 Z " fill="#000000"/><text fill="#000000" font-family="sans-serif" font-size="14" lengthAdjust="spacing" textLength="106" x="380" y="64.8105">ListCandidatesUI</text><line style="stroke:#181818;stroke-width:0.5;" x1="352" x2="488" y1="75.0137" y2="75.0137"/><line style="stroke:#181818;stroke-width:0.5;" x1="352" x2="488" y1="83.0137" y2="83.0137"/></g><!--class ListCandidatesController--><g id="elem_ListCandidatesController"><rect codeLine="14" fill="#F1F1F1" height="66.6211" id="ListCandidatesController" rx="2.5" ry="2.5" style="stroke:#181818;stroke-width:0.5;" width="188" x="326" y="168.0137"/><ellipse cx="341" cy="184.0137" fill="#ADD1B2" rx="11" ry="11" style="stroke:#181818;stroke-width:1.0;"/><path d="M343.7656,179.8887 Q343.9219,179.6699 344.1094,179.5605 Q344.2969,179.4512 344.5156,179.4512 Q344.8906,179.4512 345.125,179.7168 Q345.3594,179.9668 345.3594,180.5762 L345.3594,182.0293 Q345.3594,182.6387 345.125,182.9043 Q344.8906,183.1699 344.5156,183.1699 Q344.1719,183.1699 343.9688,182.9668 Q343.7656,182.7793 343.6563,182.2637 Q343.6094,181.9043 343.4219,181.7168 Q343.0938,181.3418 342.4844,181.123 Q341.875,180.9043 341.25,180.9043 Q340.4844,180.9043 339.8438,181.2324 Q339.2188,181.5605 338.7188,182.3105 Q338.2344,183.0605 338.2344,184.0918 L338.2344,185.1855 Q338.2344,186.4199 339.125,187.248 Q340.0156,188.0605 341.6094,188.0605 Q342.5469,188.0605 343.2031,187.8105 Q343.5938,187.6543 344.0156,187.2168 Q344.2813,186.9512 344.4219,186.873 Q344.5781,186.7949 344.7813,186.7949 Q345.1094,186.7949 345.3594,187.0605 Q345.625,187.3105 345.625,187.6543 Q345.625,187.998 345.2813,188.4043 Q344.7813,188.9824 343.9844,189.3105 Q342.9063,189.7637 341.6094,189.7637 Q340.0938,189.7637 338.8906,189.1387 Q337.9063,188.6387 337.2188,187.5762 Q336.5313,186.498 336.5313,185.2168 L336.5313,184.0605 Q336.5313,182.7324 337.1406,181.5918 Q337.7656,180.4355 338.8594,179.8262 Q339.9531,179.2012 341.1875,179.2012 Q341.9219,179.2012 342.5625,179.373 Q343.2188,179.5293 343.7656,179.8887 Z " fill="#000000"/><text fill="#000000" font-family="sans-serif" font-size="14" lengthAdjust="spacing" textLength="156" x="355" y="189.8105">ListCandidatesController</text><line style="stroke:#181818;stroke-width:0.5;" x1="327" x2="513" y1="200.0137" y2="200.0137"/><line style="stroke:#181818;stroke-width:0.5;" x1="327" x2="513" y1="208.0137" y2="208.0137"/><ellipse cx="337" cy="222.8242" fill="#84BE84" rx="3" ry="3" style="stroke:#038048;stroke-width:1.0;"/><text fill="#000000" font-family="sans-serif" font-size="14" lengthAdjust="spacing" textLength="96" x="346" y="227.1211">allCandidates()</text></g><!--class CandidateRepository--><g id="elem_CandidateRepository"><rect codeLine="21" fill="#F1F1F1" height="66.6211" id="CandidateRepository" rx="2.5" ry="2.5" style="stroke:#181818;stroke-width:0.5;" width="165" x="22.5" y="321.0137"/><ellipse cx="37.5" cy="337.0137" fill="#B4A7E5" rx="11" ry="11" style="stroke:#181818;stroke-width:1.0;"/><path d="M38.4531,333.6543 L38.4531,340.3105 L40.1719,340.3105 Q40.7813,340.3105 41.0469,340.5449 Q41.3125,340.7793 41.3125,341.1699 Q41.3125,341.5449 41.0469,341.7793 Q40.7813,342.0137 40.1719,342.0137 L35.0313,342.0137 Q34.4219,342.0137 34.1563,341.7793 Q33.8906,341.5449 33.8906,341.1543 Q33.8906,340.7793 34.1563,340.5449 Q34.4219,340.3105 35.0313,340.3105 L36.75,340.3105 L36.75,333.6543 L35.0313,333.6543 Q34.4219,333.6543 34.1563,333.4199 Q33.8906,333.1855 33.8906,332.7949 Q33.8906,332.4199 34.1563,332.1855 Q34.4219,331.9512 35.0313,331.9512 L40.1719,331.9512 Q40.7813,331.9512 41.0469,332.1855 Q41.3125,332.4199 41.3125,332.7949 Q41.3125,333.1855 41.0469,333.4199 Q40.7813,333.6543 40.1719,333.6543 L38.4531,333.6543 Z " fill="#000000"/><text fill="#000000" font-family="sans-serif" font-size="14" font-style="italic" lengthAdjust="spacing" textLength="133" x="51.5" y="342.8105">CandidateRepository</text><line style="stroke:#181818;stroke-width:0.5;" x1="23.5" x2="186.5" y1="353.0137" y2="353.0137"/><line style="stroke:#181818;stroke-width:0.5;" x1="23.5" x2="186.5" y1="361.0137" y2="361.0137"/><ellipse cx="33.5" cy="375.8242" fill="#84BE84" rx="3" ry="3" style="stroke:#038048;stroke-width:1.0;"/><text fill="#000000" font-family="sans-serif" font-size="14" lengthAdjust="spacing" textLength="120" x="42.5" y="380.1211">findAllCandidates()</text></g><!--class Role--><g id="elem_Role"><rect codeLine="27" fill="#F1F1F1" height="48" id="Role" rx="2.5" ry="2.5" style="stroke:#181818;stroke-width:0.5;" width="61" x="970.5" y="330.5137"/><ellipse cx="985.5" cy="346.5137" fill="#ADD1B2" rx="11" ry="11" style="stroke:#181818;stroke-width:1.0;"/><path d="M988.2656,342.3887 Q988.4219,342.1699 988.6094,342.0605 Q988.7969,341.9512 989.0156,341.9512 Q989.3906,341.9512 989.625,342.2168 Q989.8594,342.4668 989.8594,343.0762 L989.8594,344.5293 Q989.8594,345.1387 989.625,345.4043 Q989.3906,345.6699 989.0156,345.6699 Q988.6719,345.6699 988.4688,345.4668 Q988.2656,345.2793 988.1563,344.7637 Q988.1094,344.4043 987.9219,344.2168 Q987.5938,343.8418 986.9844,343.623 Q986.375,343.4043 985.75,343.4043 Q984.9844,343.4043 984.3438,343.7324 Q983.7188,344.0605 983.2188,344.8105 Q982.7344,345.5605 982.7344,346.5918 L982.7344,347.6855 Q982.7344,348.9199 983.625,349.748 Q984.5156,350.5605 986.1094,350.5605 Q987.0469,350.5605 987.7031,350.3105 Q988.0938,350.1543 988.5156,349.7168 Q988.7813,349.4512 988.9219,349.373 Q989.0781,349.2949 989.2813,349.2949 Q989.6094,349.2949 989.8594,349.5605 Q990.125,349.8105 990.125,350.1543 Q990.125,350.498 989.7813,350.9043 Q989.2813,351.4824 988.4844,351.8105 Q987.4063,352.2637 986.1094,352.2637 Q984.5938,352.2637 983.3906,351.6387 Q982.4063,351.1387 981.7188,350.0762 Q981.0313,348.998 981.0313,347.7168 L981.0313,346.5605 Q981.0313,345.2324 981.6406,344.0918 Q982.2656,342.9355 983.3594,342.3262 Q984.4531,341.7012 985.6875,341.7012 Q986.4219,341.7012 987.0625,341.873 Q987.7188,342.0293 988.2656,342.3887 Z " fill="#000000"/><text fill="#000000" font-family="sans-serif" font-size="14" lengthAdjust="spacing" textLength="29" x="999.5" y="352.3105">Role</text><line style="stroke:#181818;stroke-width:0.5;" x1="971.5" x2="1030.5" y1="362.5137" y2="362.5137"/><line style="stroke:#181818;stroke-width:0.5;" x1="971.5" x2="1030.5" y1="370.5137" y2="370.5137"/></g><!--class AuthorizationService--><g id="elem_AuthorizationService"><rect codeLine="29" fill="#F1F1F1" height="85.2422" id="AuthorizationService" rx="2.5" ry="2.5" style="stroke:#181818;stroke-width:0.5;" width="305" x="630.5" y="312.0137"/><ellipse cx="714.25" cy="328.0137" fill="#ADD1B2" rx="11" ry="11" style="stroke:#181818;stroke-width:1.0;"/><path d="M717.0156,323.8887 Q717.1719,323.6699 717.3594,323.5605 Q717.5469,323.4512 717.7656,323.4512 Q718.1406,323.4512 718.375,323.7168 Q718.6094,323.9668 718.6094,324.5762 L718.6094,326.0293 Q718.6094,326.6387 718.375,326.9043 Q718.1406,327.1699 717.7656,327.1699 Q717.4219,327.1699 717.2188,326.9668 Q717.0156,326.7793 716.9063,326.2637 Q716.8594,325.9043 716.6719,325.7168 Q716.3438,325.3418 715.7344,325.123 Q715.125,324.9043 714.5,324.9043 Q713.7344,324.9043 713.0938,325.2324 Q712.4688,325.5605 711.9688,326.3105 Q711.4844,327.0605 711.4844,328.0918 L711.4844,329.1855 Q711.4844,330.4199 712.375,331.248 Q713.2656,332.0605 714.8594,332.0605 Q715.7969,332.0605 716.4531,331.8105 Q716.8438,331.6543 717.2656,331.2168 Q717.5313,330.9512 717.6719,330.873 Q717.8281,330.7949 718.0313,330.7949 Q718.3594,330.7949 718.6094,331.0605 Q718.875,331.3105 718.875,331.6543 Q718.875,331.998 718.5313,332.4043 Q718.0313,332.9824 717.2344,333.3105 Q716.1563,333.7637 714.8594,333.7637 Q713.3438,333.7637 712.1406,333.1387 Q711.1563,332.6387 710.4688,331.5762 Q709.7813,330.498 709.7813,329.2168 L709.7813,328.0605 Q709.7813,326.7324 710.3906,325.5918 Q711.0156,324.4355 712.1094,323.8262 Q713.2031,323.2012 714.4375,323.2012 Q715.1719,323.2012 715.8125,323.373 Q716.4688,323.5293 717.0156,323.8887 Z " fill="#000000"/><text fill="#000000" font-family="sans-serif" font-size="14" lengthAdjust="spacing" textLength="129" x="734.75" y="333.8105">AuthorizationService</text><line style="stroke:#181818;stroke-width:0.5;" x1="631.5" x2="934.5" y1="344.0137" y2="344.0137"/><line style="stroke:#181818;stroke-width:0.5;" x1="631.5" x2="934.5" y1="352.0137" y2="352.0137"/><ellipse cx="641.5" cy="366.8242" fill="#84BE84" rx="3" ry="3" style="stroke:#038048;stroke-width:1.0;"/><text fill="#000000" font-family="sans-serif" font-size="14" lengthAdjust="spacing" textLength="279" x="650.5" y="371.1211">authorizationService() : AuthorizationService</text><ellipse cx="641.5" cy="385.4453" fill="#84BE84" rx="3" ry="3" style="stroke:#038048;stroke-width:1.0;"/><text fill="#000000" font-family="sans-serif" font-size="14" lengthAdjust="spacing" textLength="233" x="650.5" y="389.7422">ensureAuthenticatedUserHasAnyOf()</text></g><!--class CandidateManagementService--><g id="elem_CandidateManagementService"><rect codeLine="34" fill="#F1F1F1" height="85.2422" id="CandidateManagementService" rx="2.5" ry="2.5" style="stroke:#181818;stroke-width:0.5;" width="351" x="244.5" y="312.0137"/><ellipse cx="318.75" cy="328.0137" fill="#ADD1B2" rx="11" ry="11" style="stroke:#181818;stroke-width:1.0;"/><path d="M321.5156,323.8887 Q321.6719,323.6699 321.8594,323.5605 Q322.0469,323.4512 322.2656,323.4512 Q322.6406,323.4512 322.875,323.7168 Q323.1094,323.9668 323.1094,324.5762 L323.1094,326.0293 Q323.1094,326.6387 322.875,326.9043 Q322.6406,327.1699 322.2656,327.1699 Q321.9219,327.1699 321.7188,326.9668 Q321.5156,326.7793 321.4063,326.2637 Q321.3594,325.9043 321.1719,325.7168 Q320.8438,325.3418 320.2344,325.123 Q319.625,324.9043 319,324.9043 Q318.2344,324.9043 317.5938,325.2324 Q316.9688,325.5605 316.4688,326.3105 Q315.9844,327.0605 315.9844,328.0918 L315.9844,329.1855 Q315.9844,330.4199 316.875,331.248 Q317.7656,332.0605 319.3594,332.0605 Q320.2969,332.0605 320.9531,331.8105 Q321.3438,331.6543 321.7656,331.2168 Q322.0313,330.9512 322.1719,330.873 Q322.3281,330.7949 322.5313,330.7949 Q322.8594,330.7949 323.1094,331.0605 Q323.375,331.3105 323.375,331.6543 Q323.375,331.998 323.0313,332.4043 Q322.5313,332.9824 321.7344,333.3105 Q320.6563,333.7637 319.3594,333.7637 Q317.8438,333.7637 316.6406,333.1387 Q315.6563,332.6387 314.9688,331.5762 Q314.2813,330.498 314.2813,329.2168 L314.2813,328.0605 Q314.2813,326.7324 314.8906,325.5918 Q315.5156,324.4355 316.6094,323.8262 Q317.7031,323.2012 318.9375,323.2012 Q319.6719,323.2012 320.3125,323.373 Q320.9688,323.5293 321.5156,323.8887 Z " fill="#000000"/><text fill="#000000" font-family="sans-serif" font-size="14" lengthAdjust="spacing" textLength="194" x="339.25" y="333.8105">CandidateManagementService</text><line style="stroke:#181818;stroke-width:0.5;" x1="245.5" x2="594.5" y1="344.0137" y2="344.0137"/><line style="stroke:#181818;stroke-width:0.5;" x1="245.5" x2="594.5" y1="352.0137" y2="352.0137"/><ellipse cx="255.5" cy="366.8242" fill="#84BE84" rx="3" ry="3" style="stroke:#038048;stroke-width:1.0;"/><text fill="#000000" font-family="sans-serif" font-size="14" lengthAdjust="spacing" textLength="325" x="264.5" y="371.1211">candidateService() : CandidateManagementService</text><ellipse cx="255.5" cy="385.4453" fill="#84BE84" rx="3" ry="3" style="stroke:#038048;stroke-width:1.0;"/><text fill="#000000" font-family="sans-serif" font-size="14" lengthAdjust="spacing" textLength="89" x="264.5" y="389.7422">allCandidate()</text></g><!--class Candidate--><g id="elem_Candidate"><rect codeLine="40" fill="#F1F1F1" height="48" id="Candidate" rx="2.5" ry="2.5" style="stroke:#181818;stroke-width:0.5;" width="97" x="1066.5" y="330.5137"/><ellipse cx="1081.5" cy="346.5137" fill="#ADD1B2" rx="11" ry="11" style="stroke:#181818;stroke-width:1.0;"/><path d="M1084.2656,342.3887 Q1084.4219,342.1699 1084.6094,342.0605 Q1084.7969,341.9512 1085.0156,341.9512 Q1085.3906,341.9512 1085.625,342.2168 Q1085.8594,342.4668 1085.8594,343.0762 L1085.8594,344.5293 Q1085.8594,345.1387 1085.625,345.4043 Q1085.3906,345.6699 1085.0156,345.6699 Q1084.6719,345.6699 1084.4688,345.4668 Q1084.2656,345.2793 1084.1563,344.7637 Q1084.1094,344.4043 1083.9219,344.2168 Q1083.5938,343.8418 1082.9844,343.623 Q1082.375,343.4043 1081.75,343.4043 Q1080.9844,343.4043 1080.3438,343.7324 Q1079.7188,344.0605 1079.2188,344.8105 Q1078.7344,345.5605 1078.7344,346.5918 L1078.7344,347.6855 Q1078.7344,348.9199 1079.625,349.748 Q1080.5156,350.5605 1082.1094,350.5605 Q1083.0469,350.5605 1083.7031,350.3105 Q1084.0938,350.1543 1084.5156,349.7168 Q1084.7813,349.4512 1084.9219,349.373 Q1085.0781,349.2949 1085.2813,349.2949 Q1085.6094,349.2949 1085.8594,349.5605 Q1086.125,349.8105 1086.125,350.1543 Q1086.125,350.498 1085.7813,350.9043 Q1085.2813,351.4824 1084.4844,351.8105 Q1083.4063,352.2637 1082.1094,352.2637 Q1080.5938,352.2637 1079.3906,351.6387 Q1078.4063,351.1387 1077.7188,350.0762 Q1077.0313,348.998 1077.0313,347.7168 L1077.0313,346.5605 Q1077.0313,345.2324 1077.6406,344.0918 Q1078.2656,342.9355 1079.3594,342.3262 Q1080.4531,341.7012 1081.6875,341.7012 Q1082.4219,341.7012 1083.0625,341.873 Q1083.7188,342.0293 1084.2656,342.3887 Z " fill="#000000"/><text fill="#000000" font-family="sans-serif" font-size="14" lengthAdjust="spacing" textLength="65" x="1095.5" y="352.3105">Candidate</text><line style="stroke:#181818;stroke-width:0.5;" x1="1067.5" x2="1162.5" y1="362.5137" y2="362.5137"/><line style="stroke:#181818;stroke-width:0.5;" x1="1067.5" x2="1162.5" y1="370.5137" y2="370.5137"/></g><!--link CandidateManagementService to CandidateRepository--><g id="link_CandidateManagementService_CandidateRepository"><path codeLine="46" d="M244.45,354.5137 C225.55,354.5137 212.65,354.5137 193.75,354.5137 " fill="none" id="CandidateManagementService-to-CandidateRepository" style="stroke:#181818;stroke-width:1.0;"/><polygon fill="#181818" points="187.75,354.5137,196.75,358.5137,192.75,354.5137,196.75,350.5137,187.75,354.5137" style="stroke:#181818;stroke-width:1.0;"/></g><!--link ListCandidatesUI to ListCandidatesController--><g id="link_ListCandidatesUI_ListCandidatesController"><path codeLine="47" d="M420,91.0937 C420,112.3037 420,137.9537 420,161.7737 " fill="none" id="ListCandidatesUI-to-ListCandidatesController" style="stroke:#181818;stroke-width:1.0;"/><polygon fill="#181818" points="420,167.7737,424,158.7737,420,162.7737,416,158.7737,420,167.7737" style="stroke:#181818;stroke-width:1.0;"/></g><!--link ListCandidatesController to CandidateManagementService--><g id="link_ListCandidatesController_CandidateManagementService"><path codeLine="48" d="M420,235.2737 C420,257.7437 420,281.7337 420,305.8937 " fill="none" id="ListCandidatesController-to-CandidateManagementService" style="stroke:#181818;stroke-width:1.0;"/><polygon fill="#181818" points="420,311.8937,424,302.8937,420,306.8937,416,302.8937,420,311.8937" style="stroke:#181818;stroke-width:1.0;"/></g><!--link ListCandidatesController to CandidateRepository--><g id="link_ListCandidatesController_CandidateRepository"><path codeLine="49" d="M325.52,228.2737 C293.73,238.4837 258.59,251.5337 228,267.0137 C198.53,281.9237 172.9273,299.5804 149.7273,317.3104 " fill="none" id="ListCandidatesController-to-CandidateRepository" style="stroke:#181818;stroke-width:1.0;"/><polygon fill="#181818" points="144.96,320.9537,154.5397,318.667,148.9327,317.9176,149.682,312.3106,144.96,320.9537" style="stroke:#181818;stroke-width:1.0;"/></g><!--link CandidateRepository to Candidate--><g id="link_CandidateRepository_Candidate"><path codeLine="50" d="M137.14,320.9937 C163.51,296.8737 203.27,267.7737 245.5,263.0137 C288.89,258.1137 988.11,258.1137 1031.5,263.0137 C1039.43,263.9037 1042.3,262.6737 1049,267.0137 C1073.12,282.6337 1088.82,305.0277 1100.04,325.0777 " fill="none" id="CandidateRepository-to-Candidate" style="stroke:#181818;stroke-width:1.0;"/><polygon fill="#181818" points="1102.97,330.3137,1102.0656,320.5064,1100.5283,325.9504,1095.0843,324.4131,1102.97,330.3137" style="stroke:#181818;stroke-width:1.0;"/></g><!--link ListCandidatesController to AuthorizationService--><g id="link_ListCandidatesController_AuthorizationService"><path codeLine="51" d="M514.29,230.9337 C546.03,241.3137 581.39,253.7737 613,267.0137 C644.46,280.1937 672.809,293.9912 701.809,309.1012 " fill="none" id="ListCandidatesController-to-AuthorizationService" style="stroke:#181818;stroke-width:1.0;"/><polygon fill="#181818" points="707.13,311.8737,700.9967,304.1676,702.6958,309.5633,697.3001,311.2624,707.13,311.8737" style="stroke:#181818;stroke-width:1.0;"/></g><!--SRC=[bLB1QWCX5Bpx5HuJGdwWXyAIImijXPHym4FVjeyQ5NK3ISY_PqtJZUvgshx3iiZCl1aT2-8BFf1tn8-CNqSey9w_a0yhq98a1FIRvmHmOj_VEF7FNbN0MaK20XdzYzpAwE2CKkWIO9m5A7M3pURJdUb2XzPu2iRjUva1IZgWQq4W7vJM0_2sRj6Ibir_racp1Pf6Mnk5_7XYe-Ec2v_6qU5o7-_eTjGx6gSjO6Pp_b0avrJKldCOSQX3l7MK6u_k2NoZzszjbcNaR4Zy2hhFjUq5Alx43pBrLgTdvF5hvevgbierk-DukNmilJERz3S2QorarNfcyjF0V-CbjWfdF8NULopMWfq1]--></g></svg>