<?xml version="1.0" encoding="us-ascii" standalone="no"?><svg xmlns="http://www.w3.org/2000/svg" xmlns:xlink="http://www.w3.org/1999/xlink" contentStyleType="text/css" height="601px" preserveAspectRatio="none" style="width:684px;height:601px;background:#FFFFFF;" version="1.1" viewBox="0 0 684 601" width="684px" zoomAndPan="magnify"><defs/><g><text fill="#000000" font-family="sans-serif" font-size="14" font-weight="bold" lengthAdjust="spacing" textLength="656" x="10" y="30.1074">System Sequence Diagram (US 2000a - Register a candidate and create a corresponding user)</text><rect fill="#FFFFFF" height="376.4922" style="stroke:#181818;stroke-width:1.0;" width="10" x="210.25" y="133.2422"/><rect fill="#FFFFFF" height="31.291" style="stroke:#181818;stroke-width:1.0;" width="10" x="458.25" y="156.5332"/><rect fill="#FFFFFF" height="31.291" style="stroke:#181818;stroke-width:1.0;" width="10" x="458.25" y="219.1152"/><rect fill="#FFFFFF" height="31.291" style="stroke:#181818;stroke-width:1.0;" width="10" x="458.25" y="281.6973"/><rect fill="#FFFFFF" height="31.291" style="stroke:#181818;stroke-width:1.0;" width="10" x="458.25" y="344.2793"/><rect fill="#FFFFFF" height="31.291" style="stroke:#181818;stroke-width:1.0;" width="10" x="458.25" y="406.8613"/><rect fill="#FFFFFF" height="31.291" style="stroke:#181818;stroke-width:1.0;" width="10" x="458.25" y="469.4434"/><line style="stroke:#181818;stroke-width:0.5;stroke-dasharray:5.0,5.0;" x1="214.75" x2="214.75" y1="123.2422" y2="518.7344"/><line style="stroke:#181818;stroke-width:0.5;stroke-dasharray:5.0,5.0;" x1="463.25" x2="463.25" y1="123.2422" y2="518.7344"/><text fill="#000000" font-family="sans-serif" font-size="14" lengthAdjust="spacing" textLength="57" x="183.75" y="119.7285">Operator</text><ellipse cx="215.25" cy="53.1211" fill="#E2E2F0" rx="8" ry="8" style="stroke:#181818;stroke-width:0.5;"/><path d="M215.25,61.1211 L215.25,88.1211 M202.25,69.1211 L228.25,69.1211 M215.25,88.1211 L202.25,103.1211 M215.25,88.1211 L228.25,103.1211 " fill="none" style="stroke:#181818;stroke-width:0.5;"/><text fill="#000000" font-family="sans-serif" font-size="14" lengthAdjust="spacing" textLength="57" x="183.75" y="532.8418">Operator</text><ellipse cx="215.25" cy="544.8555" fill="#E2E2F0" rx="8" ry="8" style="stroke:#181818;stroke-width:0.5;"/><path d="M215.25,552.8555 L215.25,579.8555 M202.25,560.8555 L228.25,560.8555 M215.25,579.8555 L202.25,594.8555 M215.25,579.8555 L228.25,594.8555 " fill="none" style="stroke:#181818;stroke-width:0.5;"/><rect fill="#E2E2F0" height="32.6211" rx="2.5" ry="2.5" style="stroke:#181818;stroke-width:0.5;" width="60" x="433.25" y="89.6211"/><text fill="#000000" font-family="sans-serif" font-size="14" lengthAdjust="spacing" textLength="46" x="440.25" y="111.7285">System</text><rect fill="#E2E2F0" height="32.6211" rx="2.5" ry="2.5" style="stroke:#181818;stroke-width:0.5;" width="60" x="433.25" y="517.7344"/><text fill="#000000" font-family="sans-serif" font-size="14" lengthAdjust="spacing" textLength="46" x="440.25" y="539.8418">System</text><rect fill="#FFFFFF" height="376.4922" style="stroke:#181818;stroke-width:1.0;" width="10" x="210.25" y="133.2422"/><rect fill="#FFFFFF" height="31.291" style="stroke:#181818;stroke-width:1.0;" width="10" x="458.25" y="156.5332"/><rect fill="#FFFFFF" height="31.291" style="stroke:#181818;stroke-width:1.0;" width="10" x="458.25" y="219.1152"/><rect fill="#FFFFFF" height="31.291" style="stroke:#181818;stroke-width:1.0;" width="10" x="458.25" y="281.6973"/><rect fill="#FFFFFF" height="31.291" style="stroke:#181818;stroke-width:1.0;" width="10" x="458.25" y="344.2793"/><rect fill="#FFFFFF" height="31.291" style="stroke:#181818;stroke-width:1.0;" width="10" x="458.25" y="406.8613"/><rect fill="#FFFFFF" height="31.291" style="stroke:#181818;stroke-width:1.0;" width="10" x="458.25" y="469.4434"/><polygon fill="#181818" points="446.25,152.5332,456.25,156.5332,446.25,160.5332,450.25,156.5332" style="stroke:#181818;stroke-width:1.0;"/><line style="stroke:#181818;stroke-width:1.0;" x1="220.25" x2="452.25" y1="156.5332" y2="156.5332"/><text fill="#000000" font-family="sans-serif" font-size="13" lengthAdjust="spacing" textLength="170" x="227.25" y="151.2705">Request to register candidate</text><polygon fill="#181818" points="231.25,183.8242,221.25,187.8242,231.25,191.8242,227.25,187.8242" style="stroke:#181818;stroke-width:1.0;"/><line style="stroke:#181818;stroke-width:1.0;stroke-dasharray:2.0,2.0;" x1="225.25" x2="462.25" y1="187.8242" y2="187.8242"/><text fill="#000000" font-family="sans-serif" font-size="13" lengthAdjust="spacing" textLength="214" x="237.25" y="182.5615">Receive request to register candidate</text><polygon fill="#181818" points="446.25,215.1152,456.25,219.1152,446.25,223.1152,450.25,219.1152" style="stroke:#181818;stroke-width:1.0;"/><line style="stroke:#181818;stroke-width:1.0;" x1="220.25" x2="452.25" y1="219.1152" y2="219.1152"/><text fill="#000000" font-family="sans-serif" font-size="13" lengthAdjust="spacing" textLength="138" x="227.25" y="213.8525">Create candidate record</text><polygon fill="#181818" points="231.25,246.4063,221.25,250.4063,231.25,254.4063,227.25,250.4063" style="stroke:#181818;stroke-width:1.0;"/><line style="stroke:#181818;stroke-width:1.0;stroke-dasharray:2.0,2.0;" x1="225.25" x2="462.25" y1="250.4063" y2="250.4063"/><text fill="#000000" font-family="sans-serif" font-size="13" lengthAdjust="spacing" textLength="88" x="237.25" y="245.1436">Record created</text><polygon fill="#181818" points="446.25,277.6973,456.25,281.6973,446.25,285.6973,450.25,281.6973" style="stroke:#181818;stroke-width:1.0;"/><line style="stroke:#181818;stroke-width:1.0;" x1="220.25" x2="452.25" y1="281.6973" y2="281.6973"/><text fill="#000000" font-family="sans-serif" font-size="13" lengthAdjust="spacing" textLength="195" x="227.25" y="276.4346">Candidate registered successfully</text><polygon fill="#181818" points="231.25,308.9883,221.25,312.9883,231.25,316.9883,227.25,312.9883" style="stroke:#181818;stroke-width:1.0;"/><line style="stroke:#181818;stroke-width:1.0;stroke-dasharray:2.0,2.0;" x1="225.25" x2="462.25" y1="312.9883" y2="312.9883"/><text fill="#000000" font-family="sans-serif" font-size="13" lengthAdjust="spacing" textLength="214" x="237.25" y="307.7256">Confirmation of candidate registration</text><polygon fill="#181818" points="446.25,340.2793,456.25,344.2793,446.25,348.2793,450.25,344.2793" style="stroke:#181818;stroke-width:1.0;"/><line style="stroke:#181818;stroke-width:1.0;" x1="220.25" x2="452.25" y1="344.2793" y2="344.2793"/><text fill="#000000" font-family="sans-serif" font-size="13" lengthAdjust="spacing" textLength="210" x="227.25" y="339.0166">Request to create user for candidate</text><polygon fill="#181818" points="231.25,371.5703,221.25,375.5703,231.25,379.5703,227.25,375.5703" style="stroke:#181818;stroke-width:1.0;"/><line style="stroke:#181818;stroke-width:1.0;stroke-dasharray:2.0,2.0;" x1="225.25" x2="462.25" y1="375.5703" y2="375.5703"/><text fill="#000000" font-family="sans-serif" font-size="13" lengthAdjust="spacing" textLength="176" x="237.25" y="370.3076">Receive request to create user</text><polygon fill="#181818" points="446.25,402.8613,456.25,406.8613,446.25,410.8613,450.25,406.8613" style="stroke:#181818;stroke-width:1.0;"/><line style="stroke:#181818;stroke-width:1.0;" x1="220.25" x2="452.25" y1="406.8613" y2="406.8613"/><text fill="#000000" font-family="sans-serif" font-size="13" lengthAdjust="spacing" textLength="107" x="227.25" y="401.5986">Create user record</text><polygon fill="#181818" points="231.25,434.1523,221.25,438.1523,231.25,442.1523,227.25,438.1523" style="stroke:#181818;stroke-width:1.0;"/><line style="stroke:#181818;stroke-width:1.0;stroke-dasharray:2.0,2.0;" x1="225.25" x2="462.25" y1="438.1523" y2="438.1523"/><text fill="#000000" font-family="sans-serif" font-size="13" lengthAdjust="spacing" textLength="114" x="237.25" y="432.8896">User record created</text><polygon fill="#181818" points="446.25,465.4434,456.25,469.4434,446.25,473.4434,450.25,469.4434" style="stroke:#181818;stroke-width:1.0;"/><line style="stroke:#181818;stroke-width:1.0;" x1="220.25" x2="452.25" y1="469.4434" y2="469.4434"/><text fill="#000000" font-family="sans-serif" font-size="13" lengthAdjust="spacing" textLength="74" x="227.25" y="464.1807">User created</text><polygon fill="#181818" points="231.25,496.7344,221.25,500.7344,231.25,504.7344,227.25,500.7344" style="stroke:#181818;stroke-width:1.0;"/><line style="stroke:#181818;stroke-width:1.0;stroke-dasharray:2.0,2.0;" x1="225.25" x2="462.25" y1="500.7344" y2="500.7344"/><text fill="#000000" font-family="sans-serif" font-size="13" lengthAdjust="spacing" textLength="165" x="237.25" y="495.4717">Confirmation of user creation</text><!--SRC=[hPAnQiGm38RtF8MugHq2uSOENQvxeU4UGDXA42HsAji7z_PrdCH9or6IqaqW_Pz-_x9dtn7KT-UfXve-0nb5yCRO2lRmTAtXN5KLGWaVr7AS4a1GQ3Hhz0In02MKIb1MXDnWOzEq41p9Sr6WybRWVI31iK2Nws90yQnuGECN1x5zcifJal9jH6T5nfIli-8b-egcdGTlGHQBsU3AcCQBUKyP0GjiH2ZY6qNzRoXDFs6Fx5ocDDQ8X68kUhUHE3idglTktAoQJ9C65vGYvvhGTVTzko_MD2mzUhO6RFFj1IDMKcUdfyrHvkynVWTex7_SPaCyTfJauSWzhglWu56ISf7yAV-G2OzZ_m80]--></g></svg>