<?xml version="1.0" encoding="us-ascii" standalone="no"?><svg xmlns="http://www.w3.org/2000/svg" xmlns:xlink="http://www.w3.org/1999/xlink" contentStyleType="text/css" height="599px" preserveAspectRatio="none" style="width:658px;height:599px;background:#FFFFFF;" version="1.1" viewBox="0 0 658 599" width="658px" zoomAndPan="magnify"><defs/><g><text fill="#000000" font-family="sans-serif" font-size="14" font-weight="bold" lengthAdjust="spacing" textLength="341" x="157.75" y="30.1074">Register User Sequence Diagram - Starting point</text><rect fill="#FFFFFF" height="341.9102" style="stroke:#181818;stroke-width:1.0;" width="10" x="169.5" y="156.5332"/><rect fill="#FFFFFF" height="66.291" style="stroke:#181818;stroke-width:1.0;" width="10" x="174.5" y="432.1523"/><rect fill="#FFFFFF" height="93.873" style="stroke:#181818;stroke-width:1.0;" width="10" x="312.5" y="219.1152"/><rect fill="#FFFFFF" height="31.291" style="stroke:#181818;stroke-width:1.0;" width="10" x="449.5" y="250.4063"/><rect fill="#FFFFFF" height="39" style="stroke:#181818;stroke-width:1.0;" width="10" x="577.5" y="468.4434"/><line style="stroke:#181818;stroke-width:0.5;stroke-dasharray:5.0,5.0;" x1="49" x2="49" y1="123.2422" y2="516.4434"/><line style="stroke:#181818;stroke-width:0.5;stroke-dasharray:5.0,5.0;" x1="174.5" x2="174.5" y1="123.2422" y2="516.4434"/><line style="stroke:#181818;stroke-width:0.5;stroke-dasharray:5.0,5.0;" x1="317.5" x2="317.5" y1="123.2422" y2="516.4434"/><line style="stroke:#181818;stroke-width:0.5;stroke-dasharray:5.0,5.0;" x1="454.5" x2="454.5" y1="123.2422" y2="516.4434"/><line style="stroke:#181818;stroke-width:0.5;stroke-dasharray:5.0,5.0;" x1="582.5" x2="582.5" y1="123.2422" y2="516.4434"/><text fill="#000000" font-family="sans-serif" font-size="14" lengthAdjust="spacing" textLength="83" x="5" y="119.7285">Administrator</text><ellipse cx="49.5" cy="53.1211" fill="#E2E2F0" rx="8" ry="8" style="stroke:#181818;stroke-width:0.5;"/><path d="M49.5,61.1211 L49.5,88.1211 M36.5,69.1211 L62.5,69.1211 M49.5,88.1211 L36.5,103.1211 M49.5,88.1211 L62.5,103.1211 " fill="none" style="stroke:#181818;stroke-width:0.5;"/><text fill="#000000" font-family="sans-serif" font-size="14" lengthAdjust="spacing" textLength="83" x="5" y="530.5508">Administrator</text><ellipse cx="49.5" cy="542.5645" fill="#E2E2F0" rx="8" ry="8" style="stroke:#181818;stroke-width:0.5;"/><path d="M49.5,550.5645 L49.5,577.5645 M36.5,558.5645 L62.5,558.5645 M49.5,577.5645 L36.5,592.5645 M49.5,577.5645 L62.5,592.5645 " fill="none" style="stroke:#181818;stroke-width:0.5;"/><rect fill="#E2E2F0" height="51.2422" rx="2.5" ry="2.5" style="stroke:#181818;stroke-width:0.5;" width="108" x="120.5" y="71"/><text fill="#000000" font-family="sans-serif" font-size="14" font-style="italic" lengthAdjust="spacing" textLength="27" x="161" y="93.1074">&#171;ui&#187;</text><text fill="#000000" font-family="sans-serif" font-size="14" lengthAdjust="spacing" textLength="94" x="127.5" y="111.7285">RegisterUserUI</text><rect fill="#E2E2F0" height="51.2422" rx="2.5" ry="2.5" style="stroke:#181818;stroke-width:0.5;" width="108" x="120.5" y="515.4434"/><text fill="#000000" font-family="sans-serif" font-size="14" font-style="italic" lengthAdjust="spacing" textLength="27" x="161" y="537.5508">&#171;ui&#187;</text><text fill="#000000" font-family="sans-serif" font-size="14" lengthAdjust="spacing" textLength="94" x="127.5" y="556.1719">RegisterUserUI</text><rect fill="#E2E2F0" height="51.2422" rx="2.5" ry="2.5" style="stroke:#181818;stroke-width:0.5;" width="158" x="238.5" y="71"/><text fill="#000000" font-family="sans-serif" font-size="14" font-style="italic" lengthAdjust="spacing" textLength="84" x="275.5" y="93.1074">&#171;application&#187;</text><text fill="#000000" font-family="sans-serif" font-size="14" lengthAdjust="spacing" textLength="144" x="245.5" y="111.7285">RegisterUserController</text><rect fill="#E2E2F0" height="51.2422" rx="2.5" ry="2.5" style="stroke:#181818;stroke-width:0.5;" width="158" x="238.5" y="515.4434"/><text fill="#000000" font-family="sans-serif" font-size="14" font-style="italic" lengthAdjust="spacing" textLength="84" x="275.5" y="537.5508">&#171;application&#187;</text><text fill="#000000" font-family="sans-serif" font-size="14" lengthAdjust="spacing" textLength="144" x="245.5" y="556.1719">RegisterUserController</text><rect fill="#E2E2F0" height="51.2422" rx="2.5" ry="2.5" style="stroke:#181818;stroke-width:0.5;" width="96" x="406.5" y="71"/><text fill="#000000" font-family="sans-serif" font-size="14" font-style="italic" lengthAdjust="spacing" textLength="62" x="423.5" y="93.1074">&#171;domain&#187;</text><text fill="#000000" font-family="sans-serif" font-size="14" lengthAdjust="spacing" textLength="82" x="413.5" y="111.7285">Jobs4URoles</text><rect fill="#E2E2F0" height="51.2422" rx="2.5" ry="2.5" style="stroke:#181818;stroke-width:0.5;" width="96" x="406.5" y="515.4434"/><text fill="#000000" font-family="sans-serif" font-size="14" font-style="italic" lengthAdjust="spacing" textLength="62" x="423.5" y="537.5508">&#171;domain&#187;</text><text fill="#000000" font-family="sans-serif" font-size="14" lengthAdjust="spacing" textLength="82" x="413.5" y="556.1719">Jobs4URoles</text><rect fill="#E2E2F0" height="51.2422" rx="2.5" ry="2.5" style="stroke:#181818;stroke-width:0.5;" width="140" x="512.5" y="71"/><text fill="#000000" font-family="sans-serif" font-size="14" font-style="italic" lengthAdjust="spacing" textLength="27" x="569" y="93.1074">&#171;ui&#187;</text><text fill="#000000" font-family="sans-serif" font-size="14" lengthAdjust="spacing" textLength="126" x="519.5" y="111.7285">RegisterTypeUserUI</text><rect fill="#E2E2F0" height="51.2422" rx="2.5" ry="2.5" style="stroke:#181818;stroke-width:0.5;" width="140" x="512.5" y="515.4434"/><text fill="#000000" font-family="sans-serif" font-size="14" font-style="italic" lengthAdjust="spacing" textLength="27" x="569" y="537.5508">&#171;ui&#187;</text><text fill="#000000" font-family="sans-serif" font-size="14" lengthAdjust="spacing" textLength="126" x="519.5" y="556.1719">RegisterTypeUserUI</text><rect fill="#FFFFFF" height="341.9102" style="stroke:#181818;stroke-width:1.0;" width="10" x="169.5" y="156.5332"/><rect fill="#FFFFFF" height="66.291" style="stroke:#181818;stroke-width:1.0;" width="10" x="174.5" y="432.1523"/><rect fill="#FFFFFF" height="93.873" style="stroke:#181818;stroke-width:1.0;" width="10" x="312.5" y="219.1152"/><rect fill="#FFFFFF" height="31.291" style="stroke:#181818;stroke-width:1.0;" width="10" x="449.5" y="250.4063"/><rect fill="#FFFFFF" height="39" style="stroke:#181818;stroke-width:1.0;" width="10" x="577.5" y="468.4434"/><polygon fill="#181818" points="157.5,152.5332,167.5,156.5332,157.5,160.5332,161.5,156.5332" style="stroke:#181818;stroke-width:1.0;"/><line style="stroke:#181818;stroke-width:1.0;" x1="0" x2="163.5" y1="156.5332" y2="156.5332"/><text fill="#000000" font-family="sans-serif" font-size="13" font-weight="bold" lengthAdjust="spacing" textLength="7" x="7" y="151.2705">1</text><text fill="#000000" font-family="sans-serif" font-size="13" lengthAdjust="spacing" textLength="42" x="18" y="151.2705">onLoad</text><polygon fill="#181818" points="305.5,183.8242,315.5,187.8242,305.5,191.8242,309.5,187.8242" style="stroke:#181818;stroke-width:1.0;"/><line style="stroke:#181818;stroke-width:1.0;" x1="179.5" x2="311.5" y1="187.8242" y2="187.8242"/><text fill="#000000" font-family="sans-serif" font-size="13" font-weight="bold" lengthAdjust="spacing" textLength="7" x="186.5" y="182.5615">2</text><text fill="#000000" font-family="sans-serif" font-size="13" lengthAdjust="spacing" textLength="36" x="197.5" y="182.5615">create</text><polygon fill="#181818" points="300.5,215.1152,310.5,219.1152,300.5,223.1152,304.5,219.1152" style="stroke:#181818;stroke-width:1.0;"/><line style="stroke:#181818;stroke-width:1.0;" x1="179.5" x2="306.5" y1="219.1152" y2="219.1152"/><text fill="#000000" font-family="sans-serif" font-size="13" font-weight="bold" lengthAdjust="spacing" textLength="7" x="186.5" y="213.8525">3</text><text fill="#000000" font-family="sans-serif" font-size="13" lengthAdjust="spacing" textLength="86" x="197.5" y="213.8525">existingRoles()</text><polygon fill="#181818" points="437.5,246.4063,447.5,250.4063,437.5,254.4063,441.5,250.4063" style="stroke:#181818;stroke-width:1.0;"/><line style="stroke:#181818;stroke-width:1.0;" x1="322.5" x2="443.5" y1="250.4063" y2="250.4063"/><text fill="#000000" font-family="sans-serif" font-size="13" font-weight="bold" lengthAdjust="spacing" textLength="7" x="329.5" y="245.1436">4</text><text fill="#000000" font-family="sans-serif" font-size="13" lengthAdjust="spacing" textLength="86" x="340.5" y="245.1436">existingRoles()</text><polygon fill="#181818" points="333.5,277.6973,323.5,281.6973,333.5,285.6973,329.5,281.6973" style="stroke:#181818;stroke-width:1.0;"/><line style="stroke:#181818;stroke-width:1.0;stroke-dasharray:2.0,2.0;" x1="327.5" x2="453.5" y1="281.6973" y2="281.6973"/><text fill="#000000" font-family="sans-serif" font-size="13" font-weight="bold" lengthAdjust="spacing" textLength="7" x="339.5" y="276.4346">5</text><text fill="#000000" font-family="sans-serif" font-size="13" lengthAdjust="spacing" textLength="28" x="350.5" y="276.4346">roles</text><polygon fill="#181818" points="190.5,308.9883,180.5,312.9883,190.5,316.9883,186.5,312.9883" style="stroke:#181818;stroke-width:1.0;"/><line style="stroke:#181818;stroke-width:1.0;stroke-dasharray:2.0,2.0;" x1="184.5" x2="316.5" y1="312.9883" y2="312.9883"/><text fill="#000000" font-family="sans-serif" font-size="13" font-weight="bold" lengthAdjust="spacing" textLength="7" x="196.5" y="307.7256">6</text><text fill="#000000" font-family="sans-serif" font-size="13" lengthAdjust="spacing" textLength="28" x="207.5" y="307.7256">roles</text><polygon fill="#181818" points="60.5,357.5703,50.5,361.5703,60.5,365.5703,56.5,361.5703" style="stroke:#181818;stroke-width:1.0;"/><line style="stroke:#181818;stroke-width:1.0;" x1="54.5" x2="168.5" y1="361.5703" y2="361.5703"/><text fill="#000000" font-family="sans-serif" font-size="13" font-weight="bold" lengthAdjust="spacing" textLength="7" x="66.5" y="347.6621">7</text><text fill="#000000" font-family="sans-serif" font-size="13" lengthAdjust="spacing" textLength="48" x="77.5" y="339.0166">displays</text><text fill="#000000" font-family="sans-serif" font-size="13" lengthAdjust="spacing" textLength="81" x="81.5" y="356.3076">available roles</text><polygon fill="#181818" points="157.5,388.8613,167.5,392.8613,157.5,396.8613,161.5,392.8613" style="stroke:#181818;stroke-width:1.0;"/><line style="stroke:#181818;stroke-width:1.0;stroke-dasharray:2.0,2.0;" x1="49.5" x2="163.5" y1="392.8613" y2="392.8613"/><text fill="#000000" font-family="sans-serif" font-size="13" font-weight="bold" lengthAdjust="spacing" textLength="7" x="56.5" y="387.5986">8</text><text fill="#000000" font-family="sans-serif" font-size="13" lengthAdjust="spacing" textLength="74" x="67.5" y="387.5986">chooses role</text><line style="stroke:#181818;stroke-width:1.0;" x1="179.5" x2="226.5" y1="419.1523" y2="419.1523"/><line style="stroke:#181818;stroke-width:1.0;" x1="226.5" x2="226.5" y1="419.1523" y2="432.1523"/><line style="stroke:#181818;stroke-width:1.0;" x1="185.5" x2="226.5" y1="432.1523" y2="432.1523"/><polygon fill="#181818" points="195.5,428.1523,185.5,432.1523,195.5,436.1523,191.5,432.1523" style="stroke:#181818;stroke-width:1.0;"/><text fill="#000000" font-family="sans-serif" font-size="13" font-weight="bold" lengthAdjust="spacing" textLength="7" x="191.5" y="413.8896">9</text><text fill="#000000" font-family="sans-serif" font-size="13" lengthAdjust="spacing" textLength="87" x="202.5" y="413.8896">displayRoleUI()</text><polygon fill="#181818" points="565.5,464.4434,575.5,468.4434,565.5,472.4434,569.5,468.4434" style="stroke:#181818;stroke-width:1.0;"/><line style="stroke:#181818;stroke-width:1.0;" x1="184.5" x2="571.5" y1="468.4434" y2="468.4434"/><text fill="#000000" font-family="sans-serif" font-size="13" font-weight="bold" lengthAdjust="spacing" textLength="14" x="191.5" y="463.1807">10</text><text fill="#000000" font-family="sans-serif" font-size="13" lengthAdjust="spacing" textLength="106" x="209.5" y="463.1807">create and display</text><!--SRC=[VPB1Ri8m38RlUOg8qtRWjjE4a52v56sNGc-xkAt5BALnbgHelFsST50wn2wLR7-__Tjff6XGLtYa4D7hEiXdZry3sXRrbk3eeTTBlO_W8zcZTamsAWL3P3lq3Ne5RMIlDrrFLdfuI144lTc-AvT4BJcmKIykCzA8kbmafgfBlLeDj5u_HWksqRCnw7ybXKZ0EKCjH6BxLxlZ9hpK5HiCMR2JG1GTzq3sqQ33sU6jhyDaJ2tNsUUhPll6qALzwGGHKrQbIWOA0LgFaf_dy5i6oE6oeQVdMtMX4Y9ajlWFckegGyjhNvyWrU4SoWslXk-OSMPs9yyZH4V16JY73wlX16IWaPzXb2LWQjL-CWSCkJOjM5ux9CzrETzlkivXx97Fey5s5zKDBSZSwLser0y0]--></g></svg>