<?xml version="1.0" encoding="us-ascii" standalone="no"?><svg xmlns="http://www.w3.org/2000/svg" xmlns:xlink="http://www.w3.org/1999/xlink" contentStyleType="text/css" height="439px" preserveAspectRatio="none" style="width:396px;height:439px;background:#FFFFFF;" version="1.1" viewBox="0 0 396 439" width="396px" zoomAndPan="magnify"><defs/><g><rect fill="#FFFFFF" height="253.3281" style="stroke:#181818;stroke-width:1.0;" width="10" x="46.5" y="93.6211"/><rect fill="#FFFFFF" height="88.873" style="stroke:#181818;stroke-width:1.0;" width="10" x="345.5" y="116.9121"/><rect fill="#FFFFFF" height="31.291" style="stroke:#181818;stroke-width:1.0;" width="10" x="345.5" y="237.0762"/><rect fill="#FFFFFF" height="31.291" style="stroke:#181818;stroke-width:1.0;" width="10" x="345.5" y="306.6582"/><rect fill="none" height="113.1641" style="stroke:#000000;stroke-width:1.5;" width="380.5" x="10" y="163.2031"/><line style="stroke:#181818;stroke-width:0.5;stroke-dasharray:5.0,5.0;" x1="51" x2="51" y1="83.6211" y2="355.9492"/><line style="stroke:#181818;stroke-width:0.5;stroke-dasharray:5.0,5.0;" x1="350.5" x2="350.5" y1="83.6211" y2="355.9492"/><text fill="#000000" font-family="sans-serif" font-size="14" lengthAdjust="spacing" textLength="57" x="20" y="80.1074">Operator</text><ellipse cx="51.5" cy="13.5" fill="#E2E2F0" rx="8" ry="8" style="stroke:#181818;stroke-width:0.5;"/><path d="M51.5,21.5 L51.5,48.5 M38.5,29.5 L64.5,29.5 M51.5,48.5 L38.5,63.5 M51.5,48.5 L64.5,63.5 " fill="none" style="stroke:#181818;stroke-width:0.5;"/><text fill="#000000" font-family="sans-serif" font-size="14" lengthAdjust="spacing" textLength="57" x="20" y="370.0566">Operator</text><ellipse cx="51.5" cy="382.0703" fill="#E2E2F0" rx="8" ry="8" style="stroke:#181818;stroke-width:0.5;"/><path d="M51.5,390.0703 L51.5,417.0703 M38.5,398.0703 L64.5,398.0703 M51.5,417.0703 L38.5,432.0703 M51.5,417.0703 L64.5,432.0703 " fill="none" style="stroke:#181818;stroke-width:0.5;"/><rect fill="#E2E2F0" height="32.6211" rx="2.5" ry="2.5" style="stroke:#181818;stroke-width:0.5;" width="60" x="320.5" y="50"/><text fill="#000000" font-family="sans-serif" font-size="14" lengthAdjust="spacing" textLength="46" x="327.5" y="72.1074">System</text><rect fill="#E2E2F0" height="32.6211" rx="2.5" ry="2.5" style="stroke:#181818;stroke-width:0.5;" width="60" x="320.5" y="354.9492"/><text fill="#000000" font-family="sans-serif" font-size="14" lengthAdjust="spacing" textLength="46" x="327.5" y="377.0566">System</text><rect fill="#FFFFFF" height="253.3281" style="stroke:#181818;stroke-width:1.0;" width="10" x="46.5" y="93.6211"/><rect fill="#FFFFFF" height="88.873" style="stroke:#181818;stroke-width:1.0;" width="10" x="345.5" y="116.9121"/><rect fill="#FFFFFF" height="31.291" style="stroke:#181818;stroke-width:1.0;" width="10" x="345.5" y="237.0762"/><rect fill="#FFFFFF" height="31.291" style="stroke:#181818;stroke-width:1.0;" width="10" x="345.5" y="306.6582"/><polygon fill="#181818" points="333.5,112.9121,343.5,116.9121,333.5,120.9121,337.5,116.9121" style="stroke:#181818;stroke-width:1.0;"/><line style="stroke:#181818;stroke-width:1.0;" x1="56.5" x2="339.5" y1="116.9121" y2="116.9121"/><text fill="#000000" font-family="sans-serif" font-size="13" lengthAdjust="spacing" textLength="130" x="63.5" y="111.6494">Request to import files</text><polygon fill="#181818" points="67.5,144.2031,57.5,148.2031,67.5,152.2031,63.5,148.2031" style="stroke:#181818;stroke-width:1.0;"/><line style="stroke:#181818;stroke-width:1.0;stroke-dasharray:2.0,2.0;" x1="61.5" x2="344.5" y1="148.2031" y2="148.2031"/><text fill="#000000" font-family="sans-serif" font-size="13" lengthAdjust="spacing" textLength="122" x="73.5" y="142.9404">Start processing files</text><path d="M10,163.2031 L83,163.2031 L83,172.4941 L73,182.4941 L10,182.4941 L10,163.2031 " fill="#EEEEEE" style="stroke:#000000;stroke-width:1.5;"/><rect fill="none" height="113.1641" style="stroke:#000000;stroke-width:1.5;" width="380.5" x="10" y="163.2031"/><text fill="#000000" font-family="sans-serif" font-size="13" font-weight="bold" lengthAdjust="spacing" textLength="28" x="25" y="178.2314">loop</text><text fill="#000000" font-family="sans-serif" font-size="11" font-weight="bold" lengthAdjust="spacing" textLength="157" x="98" y="177.0732">[Continuously process files]</text><polygon fill="#181818" points="67.5,201.7852,57.5,205.7852,67.5,209.7852,63.5,205.7852" style="stroke:#181818;stroke-width:1.0;"/><line style="stroke:#181818;stroke-width:1.0;stroke-dasharray:2.0,2.0;" x1="61.5" x2="349.5" y1="205.7852" y2="205.7852"/><text fill="#000000" font-family="sans-serif" font-size="13" lengthAdjust="spacing" textLength="97" x="73.5" y="200.5225">Request next file</text><polygon fill="#181818" points="333.5,233.0762,343.5,237.0762,333.5,241.0762,337.5,237.0762" style="stroke:#181818;stroke-width:1.0;"/><line style="stroke:#181818;stroke-width:1.0;" x1="56.5" x2="339.5" y1="237.0762" y2="237.0762"/><text fill="#000000" font-family="sans-serif" font-size="13" lengthAdjust="spacing" textLength="50" x="63.5" y="231.8135">Send file</text><polygon fill="#181818" points="67.5,264.3672,57.5,268.3672,67.5,272.3672,63.5,268.3672" style="stroke:#181818;stroke-width:1.0;"/><line style="stroke:#181818;stroke-width:1.0;stroke-dasharray:2.0,2.0;" x1="61.5" x2="349.5" y1="268.3672" y2="268.3672"/><text fill="#000000" font-family="sans-serif" font-size="13" lengthAdjust="spacing" textLength="150" x="73.5" y="263.1045">Import file into the system</text><polygon fill="#181818" points="333.5,302.6582,343.5,306.6582,333.5,310.6582,337.5,306.6582" style="stroke:#181818;stroke-width:1.0;"/><line style="stroke:#181818;stroke-width:1.0;" x1="56.5" x2="339.5" y1="306.6582" y2="306.6582"/><text fill="#000000" font-family="sans-serif" font-size="13" lengthAdjust="spacing" textLength="82" x="63.5" y="301.3955">Files imported</text><polygon fill="#181818" points="67.5,333.9492,57.5,337.9492,67.5,341.9492,63.5,337.9492" style="stroke:#181818;stroke-width:1.0;"/><line style="stroke:#181818;stroke-width:1.0;stroke-dasharray:2.0,2.0;" x1="61.5" x2="349.5" y1="337.9492" y2="337.9492"/><text fill="#000000" font-family="sans-serif" font-size="13" lengthAdjust="spacing" textLength="265" x="73.5" y="332.6865">Confirmation of the files imported successfully</text><!--SRC=[ZP11RWCX34NtdCBAFXV88fjAaRggr3a1OanhYS44J9MvVI331BLXqLbPmt_-tryRuGWV0QEkWqxFMGKTXGm5xGMcDGakzVcmZGUbj17wqOATUAuvdXjnWa-yPam2ma1Bu2XWoM7gz2PKpU5Oq7tD2IOf6I14DfWI-Q_6AiSSu8szaC-SarjtJHD0-OOBzpGURrkGXtJ6lsdgtz4r4_gvSoDgQFlUBmVofGhvHaWTUWrGV8PrNkfzhKcS_zTYASfINBGGUs3xCBU_za3AfjPditEhUabp1m00]--></g></svg>