<?xml version="1.0" encoding="us-ascii" standalone="no"?><svg xmlns="http://www.w3.org/2000/svg" xmlns:xlink="http://www.w3.org/1999/xlink" contentStyleType="text/css" height="1963px" preserveAspectRatio="none" style="width:2234px;height:1963px;background:#FFFFFF;" version="1.1" viewBox="0 0 2234 1963" width="2234px" zoomAndPan="magnify"><defs/><g><!--cluster ui--><g id="cluster_ui"><path d="M8.5,144.0137 L22.5,144.0137 A3.75,3.75 0 0 1 25,146.5137 L32,168.6348 L200.5,168.6348 A2.5,2.5 0 0 1 203,171.1348 L203,262.5137 A2.5,2.5 0 0 1 200.5,265.0137 L8.5,265.0137 A2.5,2.5 0 0 1 6,262.5137 L6,146.5137 A2.5,2.5 0 0 1 8.5,144.0137 " fill="none" style="stroke:#000000;stroke-width:1.5;"/><line style="stroke:#000000;stroke-width:1.5;" x1="6" x2="32" y1="168.6348" y2="168.6348"/><text fill="#000000" font-family="sans-serif" font-size="14" font-weight="bold" lengthAdjust="spacing" textLength="13" x="10" y="161.1211">ui</text></g><!--cluster jobOpening--><g id="cluster_jobOpening"><path d="M229.5,6.0137 L312.5,6.0137 A3.75,3.75 0 0 1 315,8.5137 L322,30.6348 L2224.5,30.6348 A2.5,2.5 0 0 1 2227,33.1348 L2227,1953.5137 A2.5,2.5 0 0 1 2224.5,1956.0137 L229.5,1956.0137 A2.5,2.5 0 0 1 227,1953.5137 L227,8.5137 A2.5,2.5 0 0 1 229.5,6.0137 " fill="none" style="stroke:#000000;stroke-width:1.5;"/><line style="stroke:#000000;stroke-width:1.5;" x1="227" x2="322" y1="30.6348" y2="30.6348"/><text fill="#000000" font-family="sans-serif" font-size="14" font-weight="bold" lengthAdjust="spacing" textLength="82" x="231" y="23.1211">jobOpening</text></g><!--cluster application--><g id="cluster_application"><path d="M253.5,51.0137 L331.5,51.0137 A3.75,3.75 0 0 1 334,53.5137 L341,75.6348 L1518.5,75.6348 A2.5,2.5 0 0 1 1521,78.1348 L1521,355.5137 A2.5,2.5 0 0 1 1518.5,358.0137 L253.5,358.0137 A2.5,2.5 0 0 1 251,355.5137 L251,53.5137 A2.5,2.5 0 0 1 253.5,51.0137 " fill="none" style="stroke:#000000;stroke-width:1.5;"/><line style="stroke:#000000;stroke-width:1.5;" x1="251" x2="341" y1="75.6348" y2="75.6348"/><text fill="#000000" font-family="sans-serif" font-size="14" font-weight="bold" lengthAdjust="spacing" textLength="77" x="255" y="68.1211">application</text></g><!--cluster repository--><g id="cluster_repository"><path d="M1551.5,201.0137 L1624.5,201.0137 A3.75,3.75 0 0 1 1627,203.5137 L1634,225.6348 L2015.5,225.6348 A2.5,2.5 0 0 1 2018,228.1348 L2018,337.5137 A2.5,2.5 0 0 1 2015.5,340.0137 L1551.5,340.0137 A2.5,2.5 0 0 1 1549,337.5137 L1549,203.5137 A2.5,2.5 0 0 1 1551.5,201.0137 " fill="none" style="stroke:#000000;stroke-width:1.5;"/><line style="stroke:#000000;stroke-width:1.5;" x1="1549" x2="1634" y1="225.6348" y2="225.6348"/><text fill="#000000" font-family="sans-serif" font-size="14" font-weight="bold" lengthAdjust="spacing" textLength="72" x="1553" y="218.1211">repository</text></g><!--cluster domain--><g id="cluster_domain"><path d="M957,1001.0137 L1009,1001.0137 A3.75,3.75 0 0 1 1011.5,1003.5137 L1018.5,1025.6348 L2200.5,1025.6348 A2.5,2.5 0 0 1 2203,1028.1348 L2203,1929.5137 A2.5,2.5 0 0 1 2200.5,1932.0137 L957,1932.0137 A2.5,2.5 0 0 1 954.5,1929.5137 L954.5,1003.5137 A2.5,2.5 0 0 1 957,1001.0137 " fill="none" style="stroke:#000000;stroke-width:1.5;"/><line style="stroke:#000000;stroke-width:1.5;" x1="954.5" x2="1018.5" y1="1025.6348" y2="1025.6348"/><text fill="#000000" font-family="sans-serif" font-size="14" font-weight="bold" lengthAdjust="spacing" textLength="51" x="958.5" y="1018.1211">domain</text></g><!--cluster dto--><g id="cluster_dto"><path d="M1094,382.0137 L1118,382.0137 A3.75,3.75 0 0 1 1120.5,384.5137 L1127.5,406.6348 L1971.5,406.6348 A2.5,2.5 0 0 1 1974,409.1348 L1974,974.5137 A2.5,2.5 0 0 1 1971.5,977.0137 L1094,977.0137 A2.5,2.5 0 0 1 1091.5,974.5137 L1091.5,384.5137 A2.5,2.5 0 0 1 1094,382.0137 " fill="none" style="stroke:#000000;stroke-width:1.5;"/><line style="stroke:#000000;stroke-width:1.5;" x1="1091.5" x2="1127.5" y1="406.6348" y2="406.6348"/><text fill="#000000" font-family="sans-serif" font-size="14" font-weight="bold" lengthAdjust="spacing" textLength="23" x="1095.5" y="399.1211">dto</text></g><!--class UpdateJobOpeningUI--><g id="elem_UpdateJobOpeningUI"><rect codeLine="6" fill="#F1F1F1" height="66.6211" id="UpdateJobOpeningUI" rx="2.5" ry="2.5" style="stroke:#181818;stroke-width:0.5;" width="165" x="22" y="181.5137"/><ellipse cx="37" cy="197.5137" fill="#ADD1B2" rx="11" ry="11" style="stroke:#181818;stroke-width:1.0;"/><path d="M39.7656,193.3887 Q39.9219,193.1699 40.1094,193.0605 Q40.2969,192.9512 40.5156,192.9512 Q40.8906,192.9512 41.125,193.2168 Q41.3594,193.4668 41.3594,194.0762 L41.3594,195.5293 Q41.3594,196.1387 41.125,196.4043 Q40.8906,196.6699 40.5156,196.6699 Q40.1719,196.6699 39.9688,196.4668 Q39.7656,196.2793 39.6563,195.7637 Q39.6094,195.4043 39.4219,195.2168 Q39.0938,194.8418 38.4844,194.623 Q37.875,194.4043 37.25,194.4043 Q36.4844,194.4043 35.8438,194.7324 Q35.2188,195.0605 34.7188,195.8105 Q34.2344,196.5605 34.2344,197.5918 L34.2344,198.6855 Q34.2344,199.9199 35.125,200.748 Q36.0156,201.5605 37.6094,201.5605 Q38.5469,201.5605 39.2031,201.3105 Q39.5938,201.1543 40.0156,200.7168 Q40.2813,200.4512 40.4219,200.373 Q40.5781,200.2949 40.7813,200.2949 Q41.1094,200.2949 41.3594,200.5605 Q41.625,200.8105 41.625,201.1543 Q41.625,201.498 41.2813,201.9043 Q40.7813,202.4824 39.9844,202.8105 Q38.9063,203.2637 37.6094,203.2637 Q36.0938,203.2637 34.8906,202.6387 Q33.9063,202.1387 33.2188,201.0762 Q32.5313,199.998 32.5313,198.7168 L32.5313,197.5605 Q32.5313,196.2324 33.1406,195.0918 Q33.7656,193.9355 34.8594,193.3262 Q35.9531,192.7012 37.1875,192.7012 Q37.9219,192.7012 38.5625,192.873 Q39.2188,193.0293 39.7656,193.3887 Z " fill="#000000"/><text fill="#000000" font-family="sans-serif" font-size="14" lengthAdjust="spacing" textLength="133" x="51" y="203.3105">UpdateJobOpeningUI</text><line style="stroke:#181818;stroke-width:0.5;" x1="23" x2="186" y1="213.5137" y2="213.5137"/><line style="stroke:#181818;stroke-width:0.5;" x1="23" x2="186" y1="221.5137" y2="221.5137"/><polygon fill="#FFFF44" points="33,231.3242,37,235.3242,33,239.3242,29,235.3242" style="stroke:#B38D22;stroke-width:1.0;"/><text fill="#000000" font-family="sans-serif" font-size="14" lengthAdjust="spacing" textLength="123" x="42" y="240.6211">doShow() : boolean</text></g><!--class UpdateJobOpeningController--><g id="elem_UpdateJobOpeningController"><rect codeLine="15" fill="#F1F1F1" height="252.832" id="UpdateJobOpeningController" rx="2.5" ry="2.5" style="stroke:#181818;stroke-width:0.5;" width="556" x="267" y="88.5137"/><ellipse cx="449.25" cy="104.5137" fill="#ADD1B2" rx="11" ry="11" style="stroke:#181818;stroke-width:1.0;"/><path d="M452.0156,100.3887 Q452.1719,100.1699 452.3594,100.0605 Q452.5469,99.9512 452.7656,99.9512 Q453.1406,99.9512 453.375,100.2168 Q453.6094,100.4668 453.6094,101.0762 L453.6094,102.5293 Q453.6094,103.1387 453.375,103.4043 Q453.1406,103.6699 452.7656,103.6699 Q452.4219,103.6699 452.2188,103.4668 Q452.0156,103.2793 451.9063,102.7637 Q451.8594,102.4043 451.6719,102.2168 Q451.3438,101.8418 450.7344,101.623 Q450.125,101.4043 449.5,101.4043 Q448.7344,101.4043 448.0938,101.7324 Q447.4688,102.0605 446.9688,102.8105 Q446.4844,103.5605 446.4844,104.5918 L446.4844,105.6855 Q446.4844,106.9199 447.375,107.748 Q448.2656,108.5605 449.8594,108.5605 Q450.7969,108.5605 451.4531,108.3105 Q451.8438,108.1543 452.2656,107.7168 Q452.5313,107.4512 452.6719,107.373 Q452.8281,107.2949 453.0313,107.2949 Q453.3594,107.2949 453.6094,107.5605 Q453.875,107.8105 453.875,108.1543 Q453.875,108.498 453.5313,108.9043 Q453.0313,109.4824 452.2344,109.8105 Q451.1563,110.2637 449.8594,110.2637 Q448.3438,110.2637 447.1406,109.6387 Q446.1563,109.1387 445.4688,108.0762 Q444.7813,106.998 444.7813,105.7168 L444.7813,104.5605 Q444.7813,103.2324 445.3906,102.0918 Q446.0156,100.9355 447.1094,100.3262 Q448.2031,99.7012 449.4375,99.7012 Q450.1719,99.7012 450.8125,99.873 Q451.4688,100.0293 452.0156,100.3887 Z " fill="#000000"/><text fill="#000000" font-family="sans-serif" font-size="14" lengthAdjust="spacing" textLength="183" x="469.75" y="110.3105">UpdateJobOpeningController</text><line style="stroke:#181818;stroke-width:0.5;" x1="268" x2="822" y1="120.5137" y2="120.5137"/><line style="stroke:#181818;stroke-width:0.5;" x1="268" x2="822" y1="128.5137" y2="128.5137"/><rect fill="#F24D5C" height="6" style="stroke:#C82930;stroke-width:1.0;" width="6" x="275" y="140.3242"/><text fill="#000000" font-family="sans-serif" font-size="14" lengthAdjust="spacing" textLength="226" x="287" y="147.6211">allJobs() : Iterable&lt;JobOpeningDto&gt;</text><ellipse cx="278" cy="161.9453" fill="#84BE84" rx="3" ry="3" style="stroke:#038048;stroke-width:1.0;"/><text fill="#000000" font-family="sans-serif" font-size="14" lengthAdjust="spacing" textLength="119" x="287" y="166.2422">showClients(): void</text><ellipse cx="278" cy="180.5664" fill="#84BE84" rx="3" ry="3" style="stroke:#038048;stroke-width:1.0;"/><text fill="#000000" font-family="sans-serif" font-size="14" lengthAdjust="spacing" textLength="294" x="287" y="184.8633">chooseClient(int clientUserIndex) : JobOpening</text><rect fill="#F24D5C" height="6" style="stroke:#C82930;stroke-width:1.0;" width="6" x="275" y="196.1875"/><text fill="#000000" font-family="sans-serif" font-size="14" lengthAdjust="spacing" textLength="218" x="287" y="203.4844">allClients() : Iterable&lt;JobOpening&gt;</text><ellipse cx="278" cy="217.8086" fill="#84BE84" rx="3" ry="3" style="stroke:#038048;stroke-width:1.0;"/><text fill="#000000" font-family="sans-serif" font-size="14" lengthAdjust="spacing" textLength="159" x="287" y="222.1055">showJobOpenings(): void</text><ellipse cx="278" cy="236.4297" fill="#84BE84" rx="3" ry="3" style="stroke:#038048;stroke-width:1.0;"/><text fill="#000000" font-family="sans-serif" font-size="14" lengthAdjust="spacing" textLength="506" x="287" y="240.7266">chooseJobOpening(int jobOpeningIndex, ClientUser clientUser) : JobOpeningDto</text><rect fill="#F24D5C" height="6" style="stroke:#C82930;stroke-width:1.0;" width="6" x="275" y="252.0508"/><text fill="#000000" font-family="sans-serif" font-size="14" lengthAdjust="spacing" textLength="216" x="287" y="259.3477">getLoggedInUser() : ContractType</text><ellipse cx="278" cy="273.6719" fill="#84BE84" rx="3" ry="3" style="stroke:#038048;stroke-width:1.0;"/><text fill="#000000" font-family="sans-serif" font-size="14" lengthAdjust="spacing" textLength="185" x="287" y="277.9688">showInterviewModels() : File[]</text><ellipse cx="278" cy="292.293" fill="#84BE84" rx="3" ry="3" style="stroke:#038048;stroke-width:1.0;"/><text fill="#000000" font-family="sans-serif" font-size="14" lengthAdjust="spacing" textLength="530" x="287" y="296.5898">interviewModel(JobOpeningDto jobOpening, String interviewModel) : JobOpeningDto</text><ellipse cx="278" cy="310.9141" fill="#84BE84" rx="3" ry="3" style="stroke:#038048;stroke-width:1.0;"/><text fill="#000000" font-family="sans-serif" font-size="14" lengthAdjust="spacing" textLength="173" x="287" y="315.2109">showRequirements() : File[]</text><ellipse cx="278" cy="329.5352" fill="#84BE84" rx="3" ry="3" style="stroke:#038048;stroke-width:1.0;"/><text fill="#000000" font-family="sans-serif" font-size="14" lengthAdjust="spacing" textLength="510" x="287" y="333.832">requirements(JobOpeningDto jobOpening, String requirements) : JobOpeningDto</text></g><!--class JobOpeningService--><g id="elem_JobOpeningService"><rect codeLine="29" fill="#F1F1F1" height="159.7266" id="JobOpeningService" rx="2.5" ry="2.5" style="stroke:#181818;stroke-width:0.5;" width="622" x="883" y="182.0137"/><ellipse cx="1128.25" cy="198.0137" fill="#ADD1B2" rx="11" ry="11" style="stroke:#181818;stroke-width:1.0;"/><path d="M1131.0156,193.8887 Q1131.1719,193.6699 1131.3594,193.5605 Q1131.5469,193.4512 1131.7656,193.4512 Q1132.1406,193.4512 1132.375,193.7168 Q1132.6094,193.9668 1132.6094,194.5762 L1132.6094,196.0293 Q1132.6094,196.6387 1132.375,196.9043 Q1132.1406,197.1699 1131.7656,197.1699 Q1131.4219,197.1699 1131.2188,196.9668 Q1131.0156,196.7793 1130.9063,196.2637 Q1130.8594,195.9043 1130.6719,195.7168 Q1130.3438,195.3418 1129.7344,195.123 Q1129.125,194.9043 1128.5,194.9043 Q1127.7344,194.9043 1127.0938,195.2324 Q1126.4688,195.5605 1125.9688,196.3105 Q1125.4844,197.0605 1125.4844,198.0918 L1125.4844,199.1855 Q1125.4844,200.4199 1126.375,201.248 Q1127.2656,202.0605 1128.8594,202.0605 Q1129.7969,202.0605 1130.4531,201.8105 Q1130.8438,201.6543 1131.2656,201.2168 Q1131.5313,200.9512 1131.6719,200.873 Q1131.8281,200.7949 1132.0313,200.7949 Q1132.3594,200.7949 1132.6094,201.0605 Q1132.875,201.3105 1132.875,201.6543 Q1132.875,201.998 1132.5313,202.4043 Q1132.0313,202.9824 1131.2344,203.3105 Q1130.1563,203.7637 1128.8594,203.7637 Q1127.3438,203.7637 1126.1406,203.1387 Q1125.1563,202.6387 1124.4688,201.5762 Q1123.7813,200.498 1123.7813,199.2168 L1123.7813,198.0605 Q1123.7813,196.7324 1124.3906,195.5918 Q1125.0156,194.4355 1126.1094,193.8262 Q1127.2031,193.2012 1128.4375,193.2012 Q1129.1719,193.2012 1129.8125,193.373 Q1130.4688,193.5293 1131.0156,193.8887 Z " fill="#000000"/><text fill="#000000" font-family="sans-serif" font-size="14" lengthAdjust="spacing" textLength="123" x="1148.75" y="203.8105">JobOpeningService</text><line style="stroke:#181818;stroke-width:0.5;" x1="884" x2="1504" y1="214.0137" y2="214.0137"/><line style="stroke:#181818;stroke-width:0.5;" x1="884" x2="1504" y1="222.0137" y2="222.0137"/><ellipse cx="894" cy="236.8242" fill="#84BE84" rx="3" ry="3" style="stroke:#038048;stroke-width:1.0;"/><text fill="#000000" font-family="sans-serif" font-size="14" lengthAdjust="spacing" textLength="405" x="903" y="241.1211">registerJobOpening(CreateJobOpeningDto dto): JobOpeningDto</text><ellipse cx="894" cy="255.4453" fill="#84BE84" rx="3" ry="3" style="stroke:#038048;stroke-width:1.0;"/><text fill="#000000" font-family="sans-serif" font-size="14" lengthAdjust="spacing" textLength="201" x="903" y="259.7422">allJobs() : List&lt;JobOpeningDto&gt;</text><ellipse cx="894" cy="274.0664" fill="#84BE84" rx="3" ry="3" style="stroke:#038048;stroke-width:1.0;"/><text fill="#000000" font-family="sans-serif" font-size="14" lengthAdjust="spacing" textLength="251" x="903" y="278.3633">allJobsIterable() : Iterable&lt;JobOpening&gt;</text><ellipse cx="894" cy="292.6875" fill="#84BE84" rx="3" ry="3" style="stroke:#038048;stroke-width:1.0;"/><text fill="#000000" font-family="sans-serif" font-size="14" lengthAdjust="spacing" textLength="428" x="903" y="296.9844">findByReference(final String jobReference) : Optional&lt;JobOpening&gt;</text><ellipse cx="894" cy="311.3086" fill="#84BE84" rx="3" ry="3" style="stroke:#038048;stroke-width:1.0;"/><text fill="#000000" font-family="sans-serif" font-size="14" lengthAdjust="spacing" textLength="596" x="903" y="315.6055">updateInterviewModel(JobOpeningDto jobOpeningDto, String interviewModel) : JobOpeningDto</text><ellipse cx="894" cy="329.9297" fill="#84BE84" rx="3" ry="3" style="stroke:#038048;stroke-width:1.0;"/><text fill="#000000" font-family="sans-serif" font-size="14" lengthAdjust="spacing" textLength="581" x="903" y="334.2266">updateRequirements(JobOpeningDto jobOpeningDto, String requirements) : JobOpeningDto</text></g><!--class JobOpeningRepository--><g id="elem_JobOpeningRepository"><rect codeLine="41" fill="#F1F1F1" height="85.2422" id="JobOpeningRepository" rx="2.5" ry="2.5" style="stroke:#181818;stroke-width:0.5;" width="437" x="1565" y="238.5137"/><ellipse cx="1706.75" cy="254.5137" fill="#B4A7E5" rx="11" ry="11" style="stroke:#181818;stroke-width:1.0;"/><path d="M1707.7031,251.1543 L1707.7031,257.8105 L1709.4219,257.8105 Q1710.0313,257.8105 1710.2969,258.0449 Q1710.5625,258.2793 1710.5625,258.6699 Q1710.5625,259.0449 1710.2969,259.2793 Q1710.0313,259.5137 1709.4219,259.5137 L1704.2813,259.5137 Q1703.6719,259.5137 1703.4063,259.2793 Q1703.1406,259.0449 1703.1406,258.6543 Q1703.1406,258.2793 1703.4063,258.0449 Q1703.6719,257.8105 1704.2813,257.8105 L1706,257.8105 L1706,251.1543 L1704.2813,251.1543 Q1703.6719,251.1543 1703.4063,250.9199 Q1703.1406,250.6855 1703.1406,250.2949 Q1703.1406,249.9199 1703.4063,249.6855 Q1703.6719,249.4512 1704.2813,249.4512 L1709.4219,249.4512 Q1710.0313,249.4512 1710.2969,249.6855 Q1710.5625,249.9199 1710.5625,250.2949 Q1710.5625,250.6855 1710.2969,250.9199 Q1710.0313,251.1543 1709.4219,251.1543 L1707.7031,251.1543 Z " fill="#000000"/><text fill="#000000" font-family="sans-serif" font-size="14" font-style="italic" lengthAdjust="spacing" textLength="145" x="1727.25" y="260.3105">JobOpeningRepository</text><line style="stroke:#181818;stroke-width:0.5;" x1="1566" x2="2001" y1="270.5137" y2="270.5137"/><line style="stroke:#181818;stroke-width:0.5;" x1="1566" x2="2001" y1="278.5137" y2="278.5137"/><text fill="#000000" font-family="sans-serif" font-size="14" lengthAdjust="spacing" textLength="199" x="1571" y="297.6211">findAll() : Iterable&lt;JobOpening&gt;</text><text fill="#000000" font-family="sans-serif" font-size="14" lengthAdjust="spacing" textLength="425" x="1571" y="316.2422">findByReference(JobReference reference) : Optional&lt;JobOpening&gt;</text></g><!--class JobOpening--><g id="elem_JobOpening"><rect codeLine="48" fill="#F1F1F1" height="48" id="JobOpening" rx="2.5" ry="2.5" style="stroke:#181818;stroke-width:0.5;" width="108" x="1729.5" y="1329.0137"/><ellipse cx="1744.5" cy="1345.0137" fill="#ADD1B2" rx="11" ry="11" style="stroke:#181818;stroke-width:1.0;"/><path d="M1747.2656,1340.8887 Q1747.4219,1340.6699 1747.6094,1340.5605 Q1747.7969,1340.4512 1748.0156,1340.4512 Q1748.3906,1340.4512 1748.625,1340.7168 Q1748.8594,1340.9668 1748.8594,1341.5762 L1748.8594,1343.0293 Q1748.8594,1343.6387 1748.625,1343.9043 Q1748.3906,1344.1699 1748.0156,1344.1699 Q1747.6719,1344.1699 1747.4688,1343.9668 Q1747.2656,1343.7793 1747.1563,1343.2637 Q1747.1094,1342.9043 1746.9219,1342.7168 Q1746.5938,1342.3418 1745.9844,1342.123 Q1745.375,1341.9043 1744.75,1341.9043 Q1743.9844,1341.9043 1743.3438,1342.2324 Q1742.7188,1342.5605 1742.2188,1343.3105 Q1741.7344,1344.0605 1741.7344,1345.0918 L1741.7344,1346.1855 Q1741.7344,1347.4199 1742.625,1348.248 Q1743.5156,1349.0605 1745.1094,1349.0605 Q1746.0469,1349.0605 1746.7031,1348.8105 Q1747.0938,1348.6543 1747.5156,1348.2168 Q1747.7813,1347.9512 1747.9219,1347.873 Q1748.0781,1347.7949 1748.2813,1347.7949 Q1748.6094,1347.7949 1748.8594,1348.0605 Q1749.125,1348.3105 1749.125,1348.6543 Q1749.125,1348.998 1748.7813,1349.4043 Q1748.2813,1349.9824 1747.4844,1350.3105 Q1746.4063,1350.7637 1745.1094,1350.7637 Q1743.5938,1350.7637 1742.3906,1350.1387 Q1741.4063,1349.6387 1740.7188,1348.5762 Q1740.0313,1347.498 1740.0313,1346.2168 L1740.0313,1345.0605 Q1740.0313,1343.7324 1740.6406,1342.5918 Q1741.2656,1341.4355 1742.3594,1340.8262 Q1743.4531,1340.2012 1744.6875,1340.2012 Q1745.4219,1340.2012 1746.0625,1340.373 Q1746.7188,1340.5293 1747.2656,1340.8887 Z " fill="#000000"/><text fill="#000000" font-family="sans-serif" font-size="14" lengthAdjust="spacing" textLength="76" x="1758.5" y="1350.8105">JobOpening</text><line style="stroke:#181818;stroke-width:0.5;" x1="1730.5" x2="1836.5" y1="1361.0137" y2="1361.0137"/><line style="stroke:#181818;stroke-width:0.5;" x1="1730.5" x2="1836.5" y1="1369.0137" y2="1369.0137"/></g><!--class Title--><g id="elem_Title"><rect codeLine="50" fill="#F1F1F1" height="48" id="Title" rx="2.5" ry="2.5" style="stroke:#181818;stroke-width:0.5;" width="59" x="2095" y="1868.0137"/><ellipse cx="2110" cy="1884.0137" fill="#ADD1B2" rx="11" ry="11" style="stroke:#181818;stroke-width:1.0;"/><path d="M2112.7656,1879.8887 Q2112.9219,1879.6699 2113.1094,1879.5605 Q2113.2969,1879.4512 2113.5156,1879.4512 Q2113.8906,1879.4512 2114.125,1879.7168 Q2114.3594,1879.9668 2114.3594,1880.5762 L2114.3594,1882.0293 Q2114.3594,1882.6387 2114.125,1882.9043 Q2113.8906,1883.1699 2113.5156,1883.1699 Q2113.1719,1883.1699 2112.9688,1882.9668 Q2112.7656,1882.7793 2112.6563,1882.2637 Q2112.6094,1881.9043 2112.4219,1881.7168 Q2112.0938,1881.3418 2111.4844,1881.123 Q2110.875,1880.9043 2110.25,1880.9043 Q2109.4844,1880.9043 2108.8438,1881.2324 Q2108.2188,1881.5605 2107.7188,1882.3105 Q2107.2344,1883.0605 2107.2344,1884.0918 L2107.2344,1885.1855 Q2107.2344,1886.4199 2108.125,1887.248 Q2109.0156,1888.0605 2110.6094,1888.0605 Q2111.5469,1888.0605 2112.2031,1887.8105 Q2112.5938,1887.6543 2113.0156,1887.2168 Q2113.2813,1886.9512 2113.4219,1886.873 Q2113.5781,1886.7949 2113.7813,1886.7949 Q2114.1094,1886.7949 2114.3594,1887.0605 Q2114.625,1887.3105 2114.625,1887.6543 Q2114.625,1887.998 2114.2813,1888.4043 Q2113.7813,1888.9824 2112.9844,1889.3105 Q2111.9063,1889.7637 2110.6094,1889.7637 Q2109.0938,1889.7637 2107.8906,1889.1387 Q2106.9063,1888.6387 2106.2188,1887.5762 Q2105.5313,1886.498 2105.5313,1885.2168 L2105.5313,1884.0605 Q2105.5313,1882.7324 2106.1406,1881.5918 Q2106.7656,1880.4355 2107.8594,1879.8262 Q2108.9531,1879.2012 2110.1875,1879.2012 Q2110.9219,1879.2012 2111.5625,1879.373 Q2112.2188,1879.5293 2112.7656,1879.8887 Z " fill="#000000"/><text fill="#000000" font-family="sans-serif" font-size="14" lengthAdjust="spacing" textLength="27" x="2124" y="1889.8105">Title</text><line style="stroke:#181818;stroke-width:0.5;" x1="2096" x2="2153" y1="1900.0137" y2="1900.0137"/><line style="stroke:#181818;stroke-width:0.5;" x1="2096" x2="2153" y1="1908.0137" y2="1908.0137"/></g><!--class Description--><g id="elem_Description"><rect codeLine="52" fill="#F1F1F1" height="48" id="Description" rx="2.5" ry="2.5" style="stroke:#181818;stroke-width:0.5;" width="103" x="2073" y="1785.0137"/><ellipse cx="2088" cy="1801.0137" fill="#ADD1B2" rx="11" ry="11" style="stroke:#181818;stroke-width:1.0;"/><path d="M2090.7656,1796.8887 Q2090.9219,1796.6699 2091.1094,1796.5605 Q2091.2969,1796.4512 2091.5156,1796.4512 Q2091.8906,1796.4512 2092.125,1796.7168 Q2092.3594,1796.9668 2092.3594,1797.5762 L2092.3594,1799.0293 Q2092.3594,1799.6387 2092.125,1799.9043 Q2091.8906,1800.1699 2091.5156,1800.1699 Q2091.1719,1800.1699 2090.9688,1799.9668 Q2090.7656,1799.7793 2090.6563,1799.2637 Q2090.6094,1798.9043 2090.4219,1798.7168 Q2090.0938,1798.3418 2089.4844,1798.123 Q2088.875,1797.9043 2088.25,1797.9043 Q2087.4844,1797.9043 2086.8438,1798.2324 Q2086.2188,1798.5605 2085.7188,1799.3105 Q2085.2344,1800.0605 2085.2344,1801.0918 L2085.2344,1802.1855 Q2085.2344,1803.4199 2086.125,1804.248 Q2087.0156,1805.0605 2088.6094,1805.0605 Q2089.5469,1805.0605 2090.2031,1804.8105 Q2090.5938,1804.6543 2091.0156,1804.2168 Q2091.2813,1803.9512 2091.4219,1803.873 Q2091.5781,1803.7949 2091.7813,1803.7949 Q2092.1094,1803.7949 2092.3594,1804.0605 Q2092.625,1804.3105 2092.625,1804.6543 Q2092.625,1804.998 2092.2813,1805.4043 Q2091.7813,1805.9824 2090.9844,1806.3105 Q2089.9063,1806.7637 2088.6094,1806.7637 Q2087.0938,1806.7637 2085.8906,1806.1387 Q2084.9063,1805.6387 2084.2188,1804.5762 Q2083.5313,1803.498 2083.5313,1802.2168 L2083.5313,1801.0605 Q2083.5313,1799.7324 2084.1406,1798.5918 Q2084.7656,1797.4355 2085.8594,1796.8262 Q2086.9531,1796.2012 2088.1875,1796.2012 Q2088.9219,1796.2012 2089.5625,1796.373 Q2090.2188,1796.5293 2090.7656,1796.8887 Z " fill="#000000"/><text fill="#000000" font-family="sans-serif" font-size="14" lengthAdjust="spacing" textLength="71" x="2102" y="1806.8105">Description</text><line style="stroke:#181818;stroke-width:0.5;" x1="2074" x2="2175" y1="1817.0137" y2="1817.0137"/><line style="stroke:#181818;stroke-width:0.5;" x1="2074" x2="2175" y1="1825.0137" y2="1825.0137"/></g><!--class Address--><g id="elem_Address"><rect codeLine="54" fill="#F1F1F1" height="48" id="Address" rx="2.5" ry="2.5" style="stroke:#181818;stroke-width:0.5;" width="84" x="2082.5" y="1702.0137"/><ellipse cx="2097.5" cy="1718.0137" fill="#ADD1B2" rx="11" ry="11" style="stroke:#181818;stroke-width:1.0;"/><path d="M2100.2656,1713.8887 Q2100.4219,1713.6699 2100.6094,1713.5605 Q2100.7969,1713.4512 2101.0156,1713.4512 Q2101.3906,1713.4512 2101.625,1713.7168 Q2101.8594,1713.9668 2101.8594,1714.5762 L2101.8594,1716.0293 Q2101.8594,1716.6387 2101.625,1716.9043 Q2101.3906,1717.1699 2101.0156,1717.1699 Q2100.6719,1717.1699 2100.4688,1716.9668 Q2100.2656,1716.7793 2100.1563,1716.2637 Q2100.1094,1715.9043 2099.9219,1715.7168 Q2099.5938,1715.3418 2098.9844,1715.123 Q2098.375,1714.9043 2097.75,1714.9043 Q2096.9844,1714.9043 2096.3438,1715.2324 Q2095.7188,1715.5605 2095.2188,1716.3105 Q2094.7344,1717.0605 2094.7344,1718.0918 L2094.7344,1719.1855 Q2094.7344,1720.4199 2095.625,1721.248 Q2096.5156,1722.0605 2098.1094,1722.0605 Q2099.0469,1722.0605 2099.7031,1721.8105 Q2100.0938,1721.6543 2100.5156,1721.2168 Q2100.7813,1720.9512 2100.9219,1720.873 Q2101.0781,1720.7949 2101.2813,1720.7949 Q2101.6094,1720.7949 2101.8594,1721.0605 Q2102.125,1721.3105 2102.125,1721.6543 Q2102.125,1721.998 2101.7813,1722.4043 Q2101.2813,1722.9824 2100.4844,1723.3105 Q2099.4063,1723.7637 2098.1094,1723.7637 Q2096.5938,1723.7637 2095.3906,1723.1387 Q2094.4063,1722.6387 2093.7188,1721.5762 Q2093.0313,1720.498 2093.0313,1719.2168 L2093.0313,1718.0605 Q2093.0313,1716.7324 2093.6406,1715.5918 Q2094.2656,1714.4355 2095.3594,1713.8262 Q2096.4531,1713.2012 2097.6875,1713.2012 Q2098.4219,1713.2012 2099.0625,1713.373 Q2099.7188,1713.5293 2100.2656,1713.8887 Z " fill="#000000"/><text fill="#000000" font-family="sans-serif" font-size="14" lengthAdjust="spacing" textLength="52" x="2111.5" y="1723.8105">Address</text><line style="stroke:#181818;stroke-width:0.5;" x1="2083.5" x2="2165.5" y1="1734.0137" y2="1734.0137"/><line style="stroke:#181818;stroke-width:0.5;" x1="2083.5" x2="2165.5" y1="1742.0137" y2="1742.0137"/></g><!--class ContractType--><g id="elem_ContractType"><rect codeLine="56" fill="#F1F1F1" height="48" id="ContractType" rx="2.5" ry="2.5" style="stroke:#181818;stroke-width:0.5;" width="118" x="2065.5" y="1619.0137"/><ellipse cx="2080.5" cy="1635.0137" fill="#EB937F" rx="11" ry="11" style="stroke:#181818;stroke-width:1.0;"/><path d="M2079.3594,1635.8105 L2079.3594,1638.3105 L2083.6875,1638.3105 L2083.6875,1637.3887 Q2083.6875,1636.7793 2083.9219,1636.5137 Q2084.1719,1636.248 2084.5469,1636.248 Q2084.9219,1636.248 2085.1563,1636.5137 Q2085.3906,1636.7793 2085.3906,1637.3887 L2085.3906,1640.0137 L2077.3906,1640.0137 Q2076.7656,1640.0137 2076.5,1639.7793 Q2076.25,1639.5449 2076.25,1639.1543 Q2076.25,1638.7793 2076.5156,1638.5449 Q2076.7813,1638.3105 2077.3906,1638.3105 L2077.6563,1638.3105 L2077.6563,1631.6543 L2077.3906,1631.6543 Q2076.7656,1631.6543 2076.5,1631.4199 Q2076.25,1631.1855 2076.25,1630.7949 Q2076.25,1630.4199 2076.5,1630.1855 Q2076.7656,1629.9512 2077.3906,1629.9512 L2085.0156,1629.9512 L2085.0156,1632.5449 Q2085.0156,1633.1543 2084.7813,1633.4199 Q2084.5625,1633.6699 2084.1719,1633.6699 Q2083.7969,1633.6699 2083.5625,1633.4199 Q2083.3281,1633.1543 2083.3281,1632.5449 L2083.3281,1631.6543 L2079.3594,1631.6543 L2079.3594,1634.1074 L2080.8438,1634.1074 Q2080.8438,1633.4512 2080.9688,1633.2637 Q2081.2344,1632.8574 2081.7031,1632.8574 Q2082.0781,1632.8574 2082.3125,1633.123 Q2082.5469,1633.373 2082.5469,1633.9824 L2082.5469,1635.9512 Q2082.5469,1636.498 2082.4219,1636.6855 Q2082.1563,1637.0762 2081.7031,1637.0762 Q2081.2344,1637.0762 2080.9688,1636.6699 Q2080.8438,1636.4824 2080.8438,1635.8105 L2079.3594,1635.8105 Z " fill="#000000"/><text fill="#000000" font-family="sans-serif" font-size="14" lengthAdjust="spacing" textLength="86" x="2094.5" y="1640.8105">ContractType</text><line style="stroke:#181818;stroke-width:0.5;" x1="2066.5" x2="2182.5" y1="1651.0137" y2="1651.0137"/><line style="stroke:#181818;stroke-width:0.5;" x1="2066.5" x2="2182.5" y1="1659.0137" y2="1659.0137"/></g><!--class JobReference--><g id="elem_JobReference"><rect codeLine="58" fill="#F1F1F1" height="48" id="JobReference" rx="2.5" ry="2.5" style="stroke:#181818;stroke-width:0.5;" width="120" x="2064.5" y="1536.0137"/><ellipse cx="2079.5" cy="1552.0137" fill="#ADD1B2" rx="11" ry="11" style="stroke:#181818;stroke-width:1.0;"/><path d="M2082.2656,1547.8887 Q2082.4219,1547.6699 2082.6094,1547.5605 Q2082.7969,1547.4512 2083.0156,1547.4512 Q2083.3906,1547.4512 2083.625,1547.7168 Q2083.8594,1547.9668 2083.8594,1548.5762 L2083.8594,1550.0293 Q2083.8594,1550.6387 2083.625,1550.9043 Q2083.3906,1551.1699 2083.0156,1551.1699 Q2082.6719,1551.1699 2082.4688,1550.9668 Q2082.2656,1550.7793 2082.1563,1550.2637 Q2082.1094,1549.9043 2081.9219,1549.7168 Q2081.5938,1549.3418 2080.9844,1549.123 Q2080.375,1548.9043 2079.75,1548.9043 Q2078.9844,1548.9043 2078.3438,1549.2324 Q2077.7188,1549.5605 2077.2188,1550.3105 Q2076.7344,1551.0605 2076.7344,1552.0918 L2076.7344,1553.1855 Q2076.7344,1554.4199 2077.625,1555.248 Q2078.5156,1556.0605 2080.1094,1556.0605 Q2081.0469,1556.0605 2081.7031,1555.8105 Q2082.0938,1555.6543 2082.5156,1555.2168 Q2082.7813,1554.9512 2082.9219,1554.873 Q2083.0781,1554.7949 2083.2813,1554.7949 Q2083.6094,1554.7949 2083.8594,1555.0605 Q2084.125,1555.3105 2084.125,1555.6543 Q2084.125,1555.998 2083.7813,1556.4043 Q2083.2813,1556.9824 2082.4844,1557.3105 Q2081.4063,1557.7637 2080.1094,1557.7637 Q2078.5938,1557.7637 2077.3906,1557.1387 Q2076.4063,1556.6387 2075.7188,1555.5762 Q2075.0313,1554.498 2075.0313,1553.2168 L2075.0313,1552.0605 Q2075.0313,1550.7324 2075.6406,1549.5918 Q2076.2656,1548.4355 2077.3594,1547.8262 Q2078.4531,1547.2012 2079.6875,1547.2012 Q2080.4219,1547.2012 2081.0625,1547.373 Q2081.7188,1547.5293 2082.2656,1547.8887 Z " fill="#000000"/><text fill="#000000" font-family="sans-serif" font-size="14" lengthAdjust="spacing" textLength="88" x="2093.5" y="1557.8105">JobReference</text><line style="stroke:#181818;stroke-width:0.5;" x1="2065.5" x2="2183.5" y1="1568.0137" y2="1568.0137"/><line style="stroke:#181818;stroke-width:0.5;" x1="2065.5" x2="2183.5" y1="1576.0137" y2="1576.0137"/></g><!--class Mode--><g id="elem_Mode"><rect codeLine="60" fill="#F1F1F1" height="48" id="Mode" rx="2.5" ry="2.5" style="stroke:#181818;stroke-width:0.5;" width="67" x="2091" y="1453.0137"/><ellipse cx="2106" cy="1469.0137" fill="#EB937F" rx="11" ry="11" style="stroke:#181818;stroke-width:1.0;"/><path d="M2104.8594,1469.8105 L2104.8594,1472.3105 L2109.1875,1472.3105 L2109.1875,1471.3887 Q2109.1875,1470.7793 2109.4219,1470.5137 Q2109.6719,1470.248 2110.0469,1470.248 Q2110.4219,1470.248 2110.6563,1470.5137 Q2110.8906,1470.7793 2110.8906,1471.3887 L2110.8906,1474.0137 L2102.8906,1474.0137 Q2102.2656,1474.0137 2102,1473.7793 Q2101.75,1473.5449 2101.75,1473.1543 Q2101.75,1472.7793 2102.0156,1472.5449 Q2102.2813,1472.3105 2102.8906,1472.3105 L2103.1563,1472.3105 L2103.1563,1465.6543 L2102.8906,1465.6543 Q2102.2656,1465.6543 2102,1465.4199 Q2101.75,1465.1855 2101.75,1464.7949 Q2101.75,1464.4199 2102,1464.1855 Q2102.2656,1463.9512 2102.8906,1463.9512 L2110.5156,1463.9512 L2110.5156,1466.5449 Q2110.5156,1467.1543 2110.2813,1467.4199 Q2110.0625,1467.6699 2109.6719,1467.6699 Q2109.2969,1467.6699 2109.0625,1467.4199 Q2108.8281,1467.1543 2108.8281,1466.5449 L2108.8281,1465.6543 L2104.8594,1465.6543 L2104.8594,1468.1074 L2106.3438,1468.1074 Q2106.3438,1467.4512 2106.4688,1467.2637 Q2106.7344,1466.8574 2107.2031,1466.8574 Q2107.5781,1466.8574 2107.8125,1467.123 Q2108.0469,1467.373 2108.0469,1467.9824 L2108.0469,1469.9512 Q2108.0469,1470.498 2107.9219,1470.6855 Q2107.6563,1471.0762 2107.2031,1471.0762 Q2106.7344,1471.0762 2106.4688,1470.6699 Q2106.3438,1470.4824 2106.3438,1469.8105 L2104.8594,1469.8105 Z " fill="#000000"/><text fill="#000000" font-family="sans-serif" font-size="14" lengthAdjust="spacing" textLength="35" x="2120" y="1474.8105">Mode</text><line style="stroke:#181818;stroke-width:0.5;" x1="2092" x2="2157" y1="1485.0137" y2="1485.0137"/><line style="stroke:#181818;stroke-width:0.5;" x1="2092" x2="2157" y1="1493.0137" y2="1493.0137"/></g><!--class PhaseDate--><g id="elem_PhaseDate"><rect codeLine="62" fill="#F1F1F1" height="48" id="PhaseDate" rx="2.5" ry="2.5" style="stroke:#181818;stroke-width:0.5;" width="102" x="2073.5" y="1370.0137"/><ellipse cx="2088.5" cy="1386.0137" fill="#ADD1B2" rx="11" ry="11" style="stroke:#181818;stroke-width:1.0;"/><path d="M2091.2656,1381.8887 Q2091.4219,1381.6699 2091.6094,1381.5605 Q2091.7969,1381.4512 2092.0156,1381.4512 Q2092.3906,1381.4512 2092.625,1381.7168 Q2092.8594,1381.9668 2092.8594,1382.5762 L2092.8594,1384.0293 Q2092.8594,1384.6387 2092.625,1384.9043 Q2092.3906,1385.1699 2092.0156,1385.1699 Q2091.6719,1385.1699 2091.4688,1384.9668 Q2091.2656,1384.7793 2091.1563,1384.2637 Q2091.1094,1383.9043 2090.9219,1383.7168 Q2090.5938,1383.3418 2089.9844,1383.123 Q2089.375,1382.9043 2088.75,1382.9043 Q2087.9844,1382.9043 2087.3438,1383.2324 Q2086.7188,1383.5605 2086.2188,1384.3105 Q2085.7344,1385.0605 2085.7344,1386.0918 L2085.7344,1387.1855 Q2085.7344,1388.4199 2086.625,1389.248 Q2087.5156,1390.0605 2089.1094,1390.0605 Q2090.0469,1390.0605 2090.7031,1389.8105 Q2091.0938,1389.6543 2091.5156,1389.2168 Q2091.7813,1388.9512 2091.9219,1388.873 Q2092.0781,1388.7949 2092.2813,1388.7949 Q2092.6094,1388.7949 2092.8594,1389.0605 Q2093.125,1389.3105 2093.125,1389.6543 Q2093.125,1389.998 2092.7813,1390.4043 Q2092.2813,1390.9824 2091.4844,1391.3105 Q2090.4063,1391.7637 2089.1094,1391.7637 Q2087.5938,1391.7637 2086.3906,1391.1387 Q2085.4063,1390.6387 2084.7188,1389.5762 Q2084.0313,1388.498 2084.0313,1387.2168 L2084.0313,1386.0605 Q2084.0313,1384.7324 2084.6406,1383.5918 Q2085.2656,1382.4355 2086.3594,1381.8262 Q2087.4531,1381.2012 2088.6875,1381.2012 Q2089.4219,1381.2012 2090.0625,1381.373 Q2090.7188,1381.5293 2091.2656,1381.8887 Z " fill="#000000"/><text fill="#000000" font-family="sans-serif" font-size="14" lengthAdjust="spacing" textLength="70" x="2102.5" y="1391.8105">PhaseDate</text><line style="stroke:#181818;stroke-width:0.5;" x1="2074.5" x2="2174.5" y1="1402.0137" y2="1402.0137"/><line style="stroke:#181818;stroke-width:0.5;" x1="2074.5" x2="2174.5" y1="1410.0137" y2="1410.0137"/></g><!--class Requirements--><g id="elem_Requirements"><rect codeLine="64" fill="#F1F1F1" height="48" id="Requirements" rx="2.5" ry="2.5" style="stroke:#181818;stroke-width:0.5;" width="120" x="2064.5" y="1287.0137"/><ellipse cx="2079.5" cy="1303.0137" fill="#ADD1B2" rx="11" ry="11" style="stroke:#181818;stroke-width:1.0;"/><path d="M2082.2656,1298.8887 Q2082.4219,1298.6699 2082.6094,1298.5605 Q2082.7969,1298.4512 2083.0156,1298.4512 Q2083.3906,1298.4512 2083.625,1298.7168 Q2083.8594,1298.9668 2083.8594,1299.5762 L2083.8594,1301.0293 Q2083.8594,1301.6387 2083.625,1301.9043 Q2083.3906,1302.1699 2083.0156,1302.1699 Q2082.6719,1302.1699 2082.4688,1301.9668 Q2082.2656,1301.7793 2082.1563,1301.2637 Q2082.1094,1300.9043 2081.9219,1300.7168 Q2081.5938,1300.3418 2080.9844,1300.123 Q2080.375,1299.9043 2079.75,1299.9043 Q2078.9844,1299.9043 2078.3438,1300.2324 Q2077.7188,1300.5605 2077.2188,1301.3105 Q2076.7344,1302.0605 2076.7344,1303.0918 L2076.7344,1304.1855 Q2076.7344,1305.4199 2077.625,1306.248 Q2078.5156,1307.0605 2080.1094,1307.0605 Q2081.0469,1307.0605 2081.7031,1306.8105 Q2082.0938,1306.6543 2082.5156,1306.2168 Q2082.7813,1305.9512 2082.9219,1305.873 Q2083.0781,1305.7949 2083.2813,1305.7949 Q2083.6094,1305.7949 2083.8594,1306.0605 Q2084.125,1306.3105 2084.125,1306.6543 Q2084.125,1306.998 2083.7813,1307.4043 Q2083.2813,1307.9824 2082.4844,1308.3105 Q2081.4063,1308.7637 2080.1094,1308.7637 Q2078.5938,1308.7637 2077.3906,1308.1387 Q2076.4063,1307.6387 2075.7188,1306.5762 Q2075.0313,1305.498 2075.0313,1304.2168 L2075.0313,1303.0605 Q2075.0313,1301.7324 2075.6406,1300.5918 Q2076.2656,1299.4355 2077.3594,1298.8262 Q2078.4531,1298.2012 2079.6875,1298.2012 Q2080.4219,1298.2012 2081.0625,1298.373 Q2081.7188,1298.5293 2082.2656,1298.8887 Z " fill="#000000"/><text fill="#000000" font-family="sans-serif" font-size="14" lengthAdjust="spacing" textLength="88" x="2093.5" y="1308.8105">Requirements</text><line style="stroke:#181818;stroke-width:0.5;" x1="2065.5" x2="2183.5" y1="1319.0137" y2="1319.0137"/><line style="stroke:#181818;stroke-width:0.5;" x1="2065.5" x2="2183.5" y1="1327.0137" y2="1327.0137"/></g><!--class Vacancies--><g id="elem_Vacancies"><rect codeLine="66" fill="#F1F1F1" height="48" id="Vacancies" rx="2.5" ry="2.5" style="stroke:#181818;stroke-width:0.5;" width="97" x="2076" y="1204.0137"/><ellipse cx="2091" cy="1220.0137" fill="#ADD1B2" rx="11" ry="11" style="stroke:#181818;stroke-width:1.0;"/><path d="M2093.7656,1215.8887 Q2093.9219,1215.6699 2094.1094,1215.5605 Q2094.2969,1215.4512 2094.5156,1215.4512 Q2094.8906,1215.4512 2095.125,1215.7168 Q2095.3594,1215.9668 2095.3594,1216.5762 L2095.3594,1218.0293 Q2095.3594,1218.6387 2095.125,1218.9043 Q2094.8906,1219.1699 2094.5156,1219.1699 Q2094.1719,1219.1699 2093.9688,1218.9668 Q2093.7656,1218.7793 2093.6563,1218.2637 Q2093.6094,1217.9043 2093.4219,1217.7168 Q2093.0938,1217.3418 2092.4844,1217.123 Q2091.875,1216.9043 2091.25,1216.9043 Q2090.4844,1216.9043 2089.8438,1217.2324 Q2089.2188,1217.5605 2088.7188,1218.3105 Q2088.2344,1219.0605 2088.2344,1220.0918 L2088.2344,1221.1855 Q2088.2344,1222.4199 2089.125,1223.248 Q2090.0156,1224.0605 2091.6094,1224.0605 Q2092.5469,1224.0605 2093.2031,1223.8105 Q2093.5938,1223.6543 2094.0156,1223.2168 Q2094.2813,1222.9512 2094.4219,1222.873 Q2094.5781,1222.7949 2094.7813,1222.7949 Q2095.1094,1222.7949 2095.3594,1223.0605 Q2095.625,1223.3105 2095.625,1223.6543 Q2095.625,1223.998 2095.2813,1224.4043 Q2094.7813,1224.9824 2093.9844,1225.3105 Q2092.9063,1225.7637 2091.6094,1225.7637 Q2090.0938,1225.7637 2088.8906,1225.1387 Q2087.9063,1224.6387 2087.2188,1223.5762 Q2086.5313,1222.498 2086.5313,1221.2168 L2086.5313,1220.0605 Q2086.5313,1218.7324 2087.1406,1217.5918 Q2087.7656,1216.4355 2088.8594,1215.8262 Q2089.9531,1215.2012 2091.1875,1215.2012 Q2091.9219,1215.2012 2092.5625,1215.373 Q2093.2188,1215.5293 2093.7656,1215.8887 Z " fill="#000000"/><text fill="#000000" font-family="sans-serif" font-size="14" lengthAdjust="spacing" textLength="65" x="2105" y="1225.8105">Vacancies</text><line style="stroke:#181818;stroke-width:0.5;" x1="2077" x2="2172" y1="1236.0137" y2="1236.0137"/><line style="stroke:#181818;stroke-width:0.5;" x1="2077" x2="2172" y1="1244.0137" y2="1244.0137"/></g><!--class InterviewModel--><g id="elem_InterviewModel"><rect codeLine="68" fill="#F1F1F1" height="48" id="InterviewModel" rx="2.5" ry="2.5" style="stroke:#181818;stroke-width:0.5;" width="125" x="2062" y="1121.0137"/><ellipse cx="2077" cy="1137.0137" fill="#ADD1B2" rx="11" ry="11" style="stroke:#181818;stroke-width:1.0;"/><path d="M2079.7656,1132.8887 Q2079.9219,1132.6699 2080.1094,1132.5605 Q2080.2969,1132.4512 2080.5156,1132.4512 Q2080.8906,1132.4512 2081.125,1132.7168 Q2081.3594,1132.9668 2081.3594,1133.5762 L2081.3594,1135.0293 Q2081.3594,1135.6387 2081.125,1135.9043 Q2080.8906,1136.1699 2080.5156,1136.1699 Q2080.1719,1136.1699 2079.9688,1135.9668 Q2079.7656,1135.7793 2079.6563,1135.2637 Q2079.6094,1134.9043 2079.4219,1134.7168 Q2079.0938,1134.3418 2078.4844,1134.123 Q2077.875,1133.9043 2077.25,1133.9043 Q2076.4844,1133.9043 2075.8438,1134.2324 Q2075.2188,1134.5605 2074.7188,1135.3105 Q2074.2344,1136.0605 2074.2344,1137.0918 L2074.2344,1138.1855 Q2074.2344,1139.4199 2075.125,1140.248 Q2076.0156,1141.0605 2077.6094,1141.0605 Q2078.5469,1141.0605 2079.2031,1140.8105 Q2079.5938,1140.6543 2080.0156,1140.2168 Q2080.2813,1139.9512 2080.4219,1139.873 Q2080.5781,1139.7949 2080.7813,1139.7949 Q2081.1094,1139.7949 2081.3594,1140.0605 Q2081.625,1140.3105 2081.625,1140.6543 Q2081.625,1140.998 2081.2813,1141.4043 Q2080.7813,1141.9824 2079.9844,1142.3105 Q2078.9063,1142.7637 2077.6094,1142.7637 Q2076.0938,1142.7637 2074.8906,1142.1387 Q2073.9063,1141.6387 2073.2188,1140.5762 Q2072.5313,1139.498 2072.5313,1138.2168 L2072.5313,1137.0605 Q2072.5313,1135.7324 2073.1406,1134.5918 Q2073.7656,1133.4355 2074.8594,1132.8262 Q2075.9531,1132.2012 2077.1875,1132.2012 Q2077.9219,1132.2012 2078.5625,1132.373 Q2079.2188,1132.5293 2079.7656,1132.8887 Z " fill="#000000"/><text fill="#000000" font-family="sans-serif" font-size="14" lengthAdjust="spacing" textLength="93" x="2091" y="1142.8105">InterviewModel</text><line style="stroke:#181818;stroke-width:0.5;" x1="2063" x2="2186" y1="1153.0137" y2="1153.0137"/><line style="stroke:#181818;stroke-width:0.5;" x1="2063" x2="2186" y1="1161.0137" y2="1161.0137"/></g><!--class ClientID--><g id="elem_ClientID"><rect codeLine="70" fill="#F1F1F1" height="48" id="ClientID" rx="2.5" ry="2.5" style="stroke:#181818;stroke-width:0.5;" width="81" x="2084" y="1038.0137"/><ellipse cx="2099" cy="1054.0137" fill="#ADD1B2" rx="11" ry="11" style="stroke:#181818;stroke-width:1.0;"/><path d="M2101.7656,1049.8887 Q2101.9219,1049.6699 2102.1094,1049.5605 Q2102.2969,1049.4512 2102.5156,1049.4512 Q2102.8906,1049.4512 2103.125,1049.7168 Q2103.3594,1049.9668 2103.3594,1050.5762 L2103.3594,1052.0293 Q2103.3594,1052.6387 2103.125,1052.9043 Q2102.8906,1053.1699 2102.5156,1053.1699 Q2102.1719,1053.1699 2101.9688,1052.9668 Q2101.7656,1052.7793 2101.6563,1052.2637 Q2101.6094,1051.9043 2101.4219,1051.7168 Q2101.0938,1051.3418 2100.4844,1051.123 Q2099.875,1050.9043 2099.25,1050.9043 Q2098.4844,1050.9043 2097.8438,1051.2324 Q2097.2188,1051.5605 2096.7188,1052.3105 Q2096.2344,1053.0605 2096.2344,1054.0918 L2096.2344,1055.1855 Q2096.2344,1056.4199 2097.125,1057.248 Q2098.0156,1058.0605 2099.6094,1058.0605 Q2100.5469,1058.0605 2101.2031,1057.8105 Q2101.5938,1057.6543 2102.0156,1057.2168 Q2102.2813,1056.9512 2102.4219,1056.873 Q2102.5781,1056.7949 2102.7813,1056.7949 Q2103.1094,1056.7949 2103.3594,1057.0605 Q2103.625,1057.3105 2103.625,1057.6543 Q2103.625,1057.998 2103.2813,1058.4043 Q2102.7813,1058.9824 2101.9844,1059.3105 Q2100.9063,1059.7637 2099.6094,1059.7637 Q2098.0938,1059.7637 2096.8906,1059.1387 Q2095.9063,1058.6387 2095.2188,1057.5762 Q2094.5313,1056.498 2094.5313,1055.2168 L2094.5313,1054.0605 Q2094.5313,1052.7324 2095.1406,1051.5918 Q2095.7656,1050.4355 2096.8594,1049.8262 Q2097.9531,1049.2012 2099.1875,1049.2012 Q2099.9219,1049.2012 2100.5625,1049.373 Q2101.2188,1049.5293 2101.7656,1049.8887 Z " fill="#000000"/><text fill="#000000" font-family="sans-serif" font-size="14" lengthAdjust="spacing" textLength="49" x="2113" y="1059.8105">ClientID</text><line style="stroke:#181818;stroke-width:0.5;" x1="2085" x2="2164" y1="1070.0137" y2="1070.0137"/><line style="stroke:#181818;stroke-width:0.5;" x1="2085" x2="2164" y1="1078.0137" y2="1078.0137"/></g><!--class JobOpeningBuilder--><g id="elem_JobOpeningBuilder"><rect codeLine="72" fill="#F1F1F1" height="271.4531" id="JobOpeningBuilder" rx="2.5" ry="2.5" style="stroke:#181818;stroke-width:0.5;" width="447" x="970.5" y="1107.5137"/><ellipse cx="1129.75" cy="1123.5137" fill="#ADD1B2" rx="11" ry="11" style="stroke:#181818;stroke-width:1.0;"/><path d="M1132.5156,1119.3887 Q1132.6719,1119.1699 1132.8594,1119.0605 Q1133.0469,1118.9512 1133.2656,1118.9512 Q1133.6406,1118.9512 1133.875,1119.2168 Q1134.1094,1119.4668 1134.1094,1120.0762 L1134.1094,1121.5293 Q1134.1094,1122.1387 1133.875,1122.4043 Q1133.6406,1122.6699 1133.2656,1122.6699 Q1132.9219,1122.6699 1132.7188,1122.4668 Q1132.5156,1122.2793 1132.4063,1121.7637 Q1132.3594,1121.4043 1132.1719,1121.2168 Q1131.8438,1120.8418 1131.2344,1120.623 Q1130.625,1120.4043 1130,1120.4043 Q1129.2344,1120.4043 1128.5938,1120.7324 Q1127.9688,1121.0605 1127.4688,1121.8105 Q1126.9844,1122.5605 1126.9844,1123.5918 L1126.9844,1124.6855 Q1126.9844,1125.9199 1127.875,1126.748 Q1128.7656,1127.5605 1130.3594,1127.5605 Q1131.2969,1127.5605 1131.9531,1127.3105 Q1132.3438,1127.1543 1132.7656,1126.7168 Q1133.0313,1126.4512 1133.1719,1126.373 Q1133.3281,1126.2949 1133.5313,1126.2949 Q1133.8594,1126.2949 1134.1094,1126.5605 Q1134.375,1126.8105 1134.375,1127.1543 Q1134.375,1127.498 1134.0313,1127.9043 Q1133.5313,1128.4824 1132.7344,1128.8105 Q1131.6563,1129.2637 1130.3594,1129.2637 Q1128.8438,1129.2637 1127.6406,1128.6387 Q1126.6563,1128.1387 1125.9688,1127.0762 Q1125.2813,1125.998 1125.2813,1124.7168 L1125.2813,1123.5605 Q1125.2813,1122.2324 1125.8906,1121.0918 Q1126.5156,1119.9355 1127.6094,1119.3262 Q1128.7031,1118.7012 1129.9375,1118.7012 Q1130.6719,1118.7012 1131.3125,1118.873 Q1131.9688,1119.0293 1132.5156,1119.3887 Z " fill="#000000"/><text fill="#000000" font-family="sans-serif" font-size="14" lengthAdjust="spacing" textLength="120" x="1150.25" y="1129.3105">JobOpeningBuilder</text><line style="stroke:#181818;stroke-width:0.5;" x1="971.5" x2="1416.5" y1="1139.5137" y2="1139.5137"/><line style="stroke:#181818;stroke-width:0.5;" x1="971.5" x2="1416.5" y1="1147.5137" y2="1147.5137"/><ellipse cx="981.5" cy="1162.3242" fill="#84BE84" rx="3" ry="3" style="stroke:#038048;stroke-width:1.0;"/><text fill="#000000" font-family="sans-serif" font-size="14" lengthAdjust="spacing" textLength="213" x="990.5" y="1166.6211">title(Title title): JobOpeningBuilder</text><ellipse cx="981.5" cy="1180.9453" fill="#84BE84" rx="3" ry="3" style="stroke:#038048;stroke-width:1.0;"/><text fill="#000000" font-family="sans-serif" font-size="14" lengthAdjust="spacing" textLength="351" x="990.5" y="1185.2422">description(Description description): JobOpeningBuilder</text><ellipse cx="981.5" cy="1199.5664" fill="#84BE84" rx="3" ry="3" style="stroke:#038048;stroke-width:1.0;"/><text fill="#000000" font-family="sans-serif" font-size="14" lengthAdjust="spacing" textLength="296" x="990.5" y="1203.8633">address(Address address): JobOpeningBuilder</text><ellipse cx="981.5" cy="1218.1875" fill="#84BE84" rx="3" ry="3" style="stroke:#038048;stroke-width:1.0;"/><text fill="#000000" font-family="sans-serif" font-size="14" lengthAdjust="spacing" textLength="394" x="990.5" y="1222.4844">contractType(ContractType contractType): JobOpeningBuilder</text><ellipse cx="981.5" cy="1236.8086" fill="#84BE84" rx="3" ry="3" style="stroke:#038048;stroke-width:1.0;"/><text fill="#000000" font-family="sans-serif" font-size="14" lengthAdjust="spacing" textLength="400" x="990.5" y="1241.1055">jobReference(JobReference jobReference): JobOpeningBuilder</text><ellipse cx="981.5" cy="1255.4297" fill="#84BE84" rx="3" ry="3" style="stroke:#038048;stroke-width:1.0;"/><text fill="#000000" font-family="sans-serif" font-size="14" lengthAdjust="spacing" textLength="247" x="990.5" y="1259.7266">mode(Mode mode): JobOpeningBuilder</text><ellipse cx="981.5" cy="1274.0508" fill="#84BE84" rx="3" ry="3" style="stroke:#038048;stroke-width:1.0;"/><text fill="#000000" font-family="sans-serif" font-size="14" lengthAdjust="spacing" textLength="350" x="990.5" y="1278.3477">phaseDate(PhaseDate phaseDate): JobOpeningBuilder</text><ellipse cx="981.5" cy="1292.6719" fill="#84BE84" rx="3" ry="3" style="stroke:#038048;stroke-width:1.0;"/><text fill="#000000" font-family="sans-serif" font-size="14" lengthAdjust="spacing" textLength="396" x="990.5" y="1296.9688">requirements(Requirements requirements): JobOpeningBuilder</text><ellipse cx="981.5" cy="1311.293" fill="#84BE84" rx="3" ry="3" style="stroke:#038048;stroke-width:1.0;"/><text fill="#000000" font-family="sans-serif" font-size="14" lengthAdjust="spacing" textLength="333" x="990.5" y="1315.5898">vacancies(Vacancies vacancies): JobOpeningBuilder</text><ellipse cx="981.5" cy="1329.9141" fill="#84BE84" rx="3" ry="3" style="stroke:#038048;stroke-width:1.0;"/><text fill="#000000" font-family="sans-serif" font-size="14" lengthAdjust="spacing" textLength="421" x="990.5" y="1334.2109">interviewModel(InterviewModel interviewModel): JobOpeningBuilder</text><ellipse cx="981.5" cy="1348.5352" fill="#84BE84" rx="3" ry="3" style="stroke:#038048;stroke-width:1.0;"/><text fill="#000000" font-family="sans-serif" font-size="14" lengthAdjust="spacing" textLength="283" x="990.5" y="1352.832">clientID(ClientID clientID): JobOpeningBuilder</text><ellipse cx="981.5" cy="1367.1563" fill="#84BE84" rx="3" ry="3" style="stroke:#038048;stroke-width:1.0;"/><text fill="#000000" font-family="sans-serif" font-size="14" lengthAdjust="spacing" textLength="124" x="990.5" y="1371.4531">build(): JobOpening</text></g><!--class CreateJobOpeningDto--><g id="elem_CreateJobOpeningDto"><rect codeLine="89" fill="#F1F1F1" height="252.832" id="CreateJobOpeningDto" rx="2.5" ry="2.5" style="stroke:#181818;stroke-width:0.5;" width="173" x="1107.5" y="419.5137"/><ellipse cx="1122.5" cy="435.5137" fill="#ADD1B2" rx="11" ry="11" style="stroke:#181818;stroke-width:1.0;"/><path d="M1125.2656,431.3887 Q1125.4219,431.1699 1125.6094,431.0605 Q1125.7969,430.9512 1126.0156,430.9512 Q1126.3906,430.9512 1126.625,431.2168 Q1126.8594,431.4668 1126.8594,432.0762 L1126.8594,433.5293 Q1126.8594,434.1387 1126.625,434.4043 Q1126.3906,434.6699 1126.0156,434.6699 Q1125.6719,434.6699 1125.4688,434.4668 Q1125.2656,434.2793 1125.1563,433.7637 Q1125.1094,433.4043 1124.9219,433.2168 Q1124.5938,432.8418 1123.9844,432.623 Q1123.375,432.4043 1122.75,432.4043 Q1121.9844,432.4043 1121.3438,432.7324 Q1120.7188,433.0605 1120.2188,433.8105 Q1119.7344,434.5605 1119.7344,435.5918 L1119.7344,436.6855 Q1119.7344,437.9199 1120.625,438.748 Q1121.5156,439.5605 1123.1094,439.5605 Q1124.0469,439.5605 1124.7031,439.3105 Q1125.0938,439.1543 1125.5156,438.7168 Q1125.7813,438.4512 1125.9219,438.373 Q1126.0781,438.2949 1126.2813,438.2949 Q1126.6094,438.2949 1126.8594,438.5605 Q1127.125,438.8105 1127.125,439.1543 Q1127.125,439.498 1126.7813,439.9043 Q1126.2813,440.4824 1125.4844,440.8105 Q1124.4063,441.2637 1123.1094,441.2637 Q1121.5938,441.2637 1120.3906,440.6387 Q1119.4063,440.1387 1118.7188,439.0762 Q1118.0313,437.998 1118.0313,436.7168 L1118.0313,435.5605 Q1118.0313,434.2324 1118.6406,433.0918 Q1119.2656,431.9355 1120.3594,431.3262 Q1121.4531,430.7012 1122.6875,430.7012 Q1123.4219,430.7012 1124.0625,430.873 Q1124.7188,431.0293 1125.2656,431.3887 Z " fill="#000000"/><text fill="#000000" font-family="sans-serif" font-size="14" lengthAdjust="spacing" textLength="141" x="1136.5" y="441.3105">CreateJobOpeningDto</text><line style="stroke:#181818;stroke-width:0.5;" x1="1108.5" x2="1279.5" y1="451.5137" y2="451.5137"/><ellipse cx="1118.5" cy="466.3242" fill="none" rx="3" ry="3" style="stroke:#038048;stroke-width:1.0;"/><text fill="#000000" font-family="sans-serif" font-size="14" lengthAdjust="spacing" textLength="67" x="1127.5" y="470.6211">title: String</text><ellipse cx="1118.5" cy="484.9453" fill="none" rx="3" ry="3" style="stroke:#038048;stroke-width:1.0;"/><text fill="#000000" font-family="sans-serif" font-size="14" lengthAdjust="spacing" textLength="114" x="1127.5" y="489.2422">description: String</text><ellipse cx="1118.5" cy="503.5664" fill="none" rx="3" ry="3" style="stroke:#038048;stroke-width:1.0;"/><text fill="#000000" font-family="sans-serif" font-size="14" lengthAdjust="spacing" textLength="96" x="1127.5" y="507.8633">address: String</text><ellipse cx="1118.5" cy="522.1875" fill="none" rx="3" ry="3" style="stroke:#038048;stroke-width:1.0;"/><text fill="#000000" font-family="sans-serif" font-size="14" lengthAdjust="spacing" textLength="128" x="1127.5" y="526.4844">contractType: String</text><ellipse cx="1118.5" cy="540.8086" fill="none" rx="3" ry="3" style="stroke:#038048;stroke-width:1.0;"/><text fill="#000000" font-family="sans-serif" font-size="14" lengthAdjust="spacing" textLength="130" x="1127.5" y="545.1055">jobReference: String</text><ellipse cx="1118.5" cy="559.4297" fill="none" rx="3" ry="3" style="stroke:#038048;stroke-width:1.0;"/><text fill="#000000" font-family="sans-serif" font-size="14" lengthAdjust="spacing" textLength="80" x="1127.5" y="563.7266">mode: String</text><ellipse cx="1118.5" cy="578.0508" fill="none" rx="3" ry="3" style="stroke:#038048;stroke-width:1.0;"/><text fill="#000000" font-family="sans-serif" font-size="14" lengthAdjust="spacing" textLength="114" x="1127.5" y="582.3477">phaseDate: String</text><ellipse cx="1118.5" cy="596.6719" fill="none" rx="3" ry="3" style="stroke:#038048;stroke-width:1.0;"/><text fill="#000000" font-family="sans-serif" font-size="14" lengthAdjust="spacing" textLength="128" x="1127.5" y="600.9688">requirements: String</text><ellipse cx="1118.5" cy="615.293" fill="none" rx="3" ry="3" style="stroke:#038048;stroke-width:1.0;"/><text fill="#000000" font-family="sans-serif" font-size="14" lengthAdjust="spacing" textLength="108" x="1127.5" y="619.5898">vacancies: String</text><ellipse cx="1118.5" cy="633.9141" fill="none" rx="3" ry="3" style="stroke:#038048;stroke-width:1.0;"/><text fill="#000000" font-family="sans-serif" font-size="14" lengthAdjust="spacing" textLength="138" x="1127.5" y="638.2109">interviewModel: String</text><ellipse cx="1118.5" cy="652.5352" fill="none" rx="3" ry="3" style="stroke:#038048;stroke-width:1.0;"/><text fill="#000000" font-family="sans-serif" font-size="14" lengthAdjust="spacing" textLength="91" x="1127.5" y="656.832">clientID: String</text><line style="stroke:#181818;stroke-width:0.5;" x1="1108.5" x2="1279.5" y1="664.3457" y2="664.3457"/></g><!--class JobOpeningDto--><g id="elem_JobOpeningDto"><rect codeLine="103" fill="#F1F1F1" height="252.832" id="JobOpeningDto" rx="2.5" ry="2.5" style="stroke:#181818;stroke-width:0.5;" width="164" x="1112" y="707.5137"/><ellipse cx="1142.3" cy="723.5137" fill="#ADD1B2" rx="11" ry="11" style="stroke:#181818;stroke-width:1.0;"/><path d="M1145.0656,719.3887 Q1145.2219,719.1699 1145.4094,719.0605 Q1145.5969,718.9512 1145.8156,718.9512 Q1146.1906,718.9512 1146.425,719.2168 Q1146.6594,719.4668 1146.6594,720.0762 L1146.6594,721.5293 Q1146.6594,722.1387 1146.425,722.4043 Q1146.1906,722.6699 1145.8156,722.6699 Q1145.4719,722.6699 1145.2688,722.4668 Q1145.0656,722.2793 1144.9563,721.7637 Q1144.9094,721.4043 1144.7219,721.2168 Q1144.3938,720.8418 1143.7844,720.623 Q1143.175,720.4043 1142.55,720.4043 Q1141.7844,720.4043 1141.1438,720.7324 Q1140.5188,721.0605 1140.0188,721.8105 Q1139.5344,722.5605 1139.5344,723.5918 L1139.5344,724.6855 Q1139.5344,725.9199 1140.425,726.748 Q1141.3156,727.5605 1142.9094,727.5605 Q1143.8469,727.5605 1144.5031,727.3105 Q1144.8938,727.1543 1145.3156,726.7168 Q1145.5813,726.4512 1145.7219,726.373 Q1145.8781,726.2949 1146.0813,726.2949 Q1146.4094,726.2949 1146.6594,726.5605 Q1146.925,726.8105 1146.925,727.1543 Q1146.925,727.498 1146.5813,727.9043 Q1146.0813,728.4824 1145.2844,728.8105 Q1144.2063,729.2637 1142.9094,729.2637 Q1141.3938,729.2637 1140.1906,728.6387 Q1139.2063,728.1387 1138.5188,727.0762 Q1137.8313,725.998 1137.8313,724.7168 L1137.8313,723.5605 Q1137.8313,722.2324 1138.4406,721.0918 Q1139.0656,719.9355 1140.1594,719.3262 Q1141.2531,718.7012 1142.4875,718.7012 Q1143.2219,718.7012 1143.8625,718.873 Q1144.5188,719.0293 1145.0656,719.3887 Z " fill="#000000"/><text fill="#000000" font-family="sans-serif" font-size="14" lengthAdjust="spacing" textLength="98" x="1159.7" y="729.3105">JobOpeningDto</text><line style="stroke:#181818;stroke-width:0.5;" x1="1113" x2="1275" y1="739.5137" y2="739.5137"/><ellipse cx="1123" cy="754.3242" fill="none" rx="3" ry="3" style="stroke:#038048;stroke-width:1.0;"/><text fill="#000000" font-family="sans-serif" font-size="14" lengthAdjust="spacing" textLength="67" x="1132" y="758.6211">title: String</text><ellipse cx="1123" cy="772.9453" fill="none" rx="3" ry="3" style="stroke:#038048;stroke-width:1.0;"/><text fill="#000000" font-family="sans-serif" font-size="14" lengthAdjust="spacing" textLength="114" x="1132" y="777.2422">description: String</text><ellipse cx="1123" cy="791.5664" fill="none" rx="3" ry="3" style="stroke:#038048;stroke-width:1.0;"/><text fill="#000000" font-family="sans-serif" font-size="14" lengthAdjust="spacing" textLength="96" x="1132" y="795.8633">address: String</text><ellipse cx="1123" cy="810.1875" fill="none" rx="3" ry="3" style="stroke:#038048;stroke-width:1.0;"/><text fill="#000000" font-family="sans-serif" font-size="14" lengthAdjust="spacing" textLength="128" x="1132" y="814.4844">contractType: String</text><ellipse cx="1123" cy="828.8086" fill="none" rx="3" ry="3" style="stroke:#038048;stroke-width:1.0;"/><text fill="#000000" font-family="sans-serif" font-size="14" lengthAdjust="spacing" textLength="130" x="1132" y="833.1055">jobReference: String</text><ellipse cx="1123" cy="847.4297" fill="none" rx="3" ry="3" style="stroke:#038048;stroke-width:1.0;"/><text fill="#000000" font-family="sans-serif" font-size="14" lengthAdjust="spacing" textLength="80" x="1132" y="851.7266">mode: String</text><ellipse cx="1123" cy="866.0508" fill="none" rx="3" ry="3" style="stroke:#038048;stroke-width:1.0;"/><text fill="#000000" font-family="sans-serif" font-size="14" lengthAdjust="spacing" textLength="114" x="1132" y="870.3477">phaseDate: String</text><ellipse cx="1123" cy="884.6719" fill="none" rx="3" ry="3" style="stroke:#038048;stroke-width:1.0;"/><text fill="#000000" font-family="sans-serif" font-size="14" lengthAdjust="spacing" textLength="128" x="1132" y="888.9688">requirements: String</text><ellipse cx="1123" cy="903.293" fill="none" rx="3" ry="3" style="stroke:#038048;stroke-width:1.0;"/><text fill="#000000" font-family="sans-serif" font-size="14" lengthAdjust="spacing" textLength="108" x="1132" y="907.5898">vacancies: String</text><ellipse cx="1123" cy="921.9141" fill="none" rx="3" ry="3" style="stroke:#038048;stroke-width:1.0;"/><text fill="#000000" font-family="sans-serif" font-size="14" lengthAdjust="spacing" textLength="138" x="1132" y="926.2109">interviewModel: String</text><ellipse cx="1123" cy="940.5352" fill="none" rx="3" ry="3" style="stroke:#038048;stroke-width:1.0;"/><text fill="#000000" font-family="sans-serif" font-size="14" lengthAdjust="spacing" textLength="91" x="1132" y="944.832">clientID: String</text><line style="stroke:#181818;stroke-width:0.5;" x1="1113" x2="1275" y1="952.3457" y2="952.3457"/></g><!--class JobOpeningMapper--><g id="elem_JobOpeningMapper"><rect codeLine="117" fill="#F1F1F1" height="103.8633" id="JobOpeningMapper" rx="2.5" ry="2.5" style="stroke:#181818;stroke-width:0.5;" width="349" x="1609" y="782.0137"/><ellipse cx="1717.25" cy="798.0137" fill="#ADD1B2" rx="11" ry="11" style="stroke:#181818;stroke-width:1.0;"/><path d="M1720.0156,793.8887 Q1720.1719,793.6699 1720.3594,793.5605 Q1720.5469,793.4512 1720.7656,793.4512 Q1721.1406,793.4512 1721.375,793.7168 Q1721.6094,793.9668 1721.6094,794.5762 L1721.6094,796.0293 Q1721.6094,796.6387 1721.375,796.9043 Q1721.1406,797.1699 1720.7656,797.1699 Q1720.4219,797.1699 1720.2188,796.9668 Q1720.0156,796.7793 1719.9063,796.2637 Q1719.8594,795.9043 1719.6719,795.7168 Q1719.3438,795.3418 1718.7344,795.123 Q1718.125,794.9043 1717.5,794.9043 Q1716.7344,794.9043 1716.0938,795.2324 Q1715.4688,795.5605 1714.9688,796.3105 Q1714.4844,797.0605 1714.4844,798.0918 L1714.4844,799.1855 Q1714.4844,800.4199 1715.375,801.248 Q1716.2656,802.0605 1717.8594,802.0605 Q1718.7969,802.0605 1719.4531,801.8105 Q1719.8438,801.6543 1720.2656,801.2168 Q1720.5313,800.9512 1720.6719,800.873 Q1720.8281,800.7949 1721.0313,800.7949 Q1721.3594,800.7949 1721.6094,801.0605 Q1721.875,801.3105 1721.875,801.6543 Q1721.875,801.998 1721.5313,802.4043 Q1721.0313,802.9824 1720.2344,803.3105 Q1719.1563,803.7637 1717.8594,803.7637 Q1716.3438,803.7637 1715.1406,803.1387 Q1714.1563,802.6387 1713.4688,801.5762 Q1712.7813,800.498 1712.7813,799.2168 L1712.7813,798.0605 Q1712.7813,796.7324 1713.3906,795.5918 Q1714.0156,794.4355 1715.1094,793.8262 Q1716.2031,793.2012 1717.4375,793.2012 Q1718.1719,793.2012 1718.8125,793.373 Q1719.4688,793.5293 1720.0156,793.8887 Z " fill="#000000"/><text fill="#000000" font-family="sans-serif" font-size="14" lengthAdjust="spacing" textLength="124" x="1737.75" y="803.8105">JobOpeningMapper</text><line style="stroke:#181818;stroke-width:0.5;" x1="1610" x2="1957" y1="814.0137" y2="814.0137"/><line style="stroke:#181818;stroke-width:0.5;" x1="1610" x2="1957" y1="822.0137" y2="822.0137"/><ellipse cx="1620" cy="836.8242" fill="#84BE84" rx="3" ry="3" style="stroke:#038048;stroke-width:1.0;"/><text fill="#000000" font-family="sans-serif" font-size="14" lengthAdjust="spacing" textLength="280" x="1629" y="841.1211">toDto(JobOpening domain) : JobOpeningDto</text><ellipse cx="1620" cy="855.4453" fill="#84BE84" rx="3" ry="3" style="stroke:#038048;stroke-width:1.0;"/><text fill="#000000" font-family="sans-serif" font-size="14" lengthAdjust="spacing" textLength="323" x="1629" y="859.7422">toDomain(CreateJobOpeningDto dto) : JobOpening</text><ellipse cx="1620" cy="874.0664" fill="#84BE84" rx="3" ry="3" style="stroke:#038048;stroke-width:1.0;"/><text fill="#000000" font-family="sans-serif" font-size="14" lengthAdjust="spacing" textLength="280" x="1629" y="878.3633">toDomain(JobOpeningDto dto) : JobOpening</text></g><!--link JobOpening to Title--><g id="link_JobOpening_Title"><path codeLine="127" d="M1793.34,1377.2137 C1822.19,1453.7537 1920,1694.6337 2062,1850.0137 C2071.33,1860.2237 2078.5372,1866.0395 2089.6672,1873.0695 " fill="none" id="JobOpening-to-Title" style="stroke:#181818;stroke-width:1.0;"/><polygon fill="#181818" points="2094.74,1876.2737,2089.2668,1868.0856,2090.5126,1873.6036,2084.9947,1874.8494,2094.74,1876.2737" style="stroke:#181818;stroke-width:1.0;"/></g><!--link JobOpening to Description--><g id="link_JobOpening_Description"><path codeLine="128" d="M1796.5,1377.2537 C1830.79,1444.8437 1934.98,1638.8937 2062,1767.0137 C2068.37,1773.4437 2070.9886,1775.9909 2078.4986,1781.3909 " fill="none" id="JobOpening-to-Description" style="stroke:#181818;stroke-width:1.0;"/><polygon fill="#181818" points="2083.37,1784.8937,2078.398,1776.3919,2079.3105,1781.9747,2073.7277,1782.8872,2083.37,1784.8937" style="stroke:#181818;stroke-width:1.0;"/></g><!--link JobOpening to Address--><g id="link_JobOpening_Address"><path codeLine="129" d="M1801.35,1377.4037 C1841.87,1435.0237 1949.75,1582.3037 2062,1684.0137 C2068.9,1690.2637 2071.8738,1692.8698 2079.6438,1698.3398 " fill="none" id="JobOpening-to-Address" style="stroke:#181818;stroke-width:1.0;"/><polygon fill="#181818" points="2084.55,1701.7937,2079.4933,1693.342,2080.4615,1698.9154,2074.8881,1699.8836,2084.55,1701.7937" style="stroke:#181818;stroke-width:1.0;"/></g><!--link JobOpening to ContractType--><g id="link_JobOpening_ContractType"><path codeLine="130" d="M1809.17,1377.0637 C1856.51,1422.7437 1964.07,1524.3337 2062,1601.0137 C2069.74,1607.0737 2073.361,1609.8269 2081.581,1615.4969 " fill="none" id="JobOpening-to-ContractType" style="stroke:#181818;stroke-width:1.0;"/><polygon fill="#181818" points="2086.52,1618.9037,2081.3827,1610.5008,2082.4042,1616.0647,2076.8403,1617.0861,2086.52,1618.9037" style="stroke:#181818;stroke-width:1.0;"/></g><!--link JobOpening to JobReference--><g id="link_JobOpening_JobReference"><path codeLine="131" d="M1824.05,1377.1637 C1889.29,1416.9937 2013.579,1492.8972 2078.819,1532.7272 " fill="none" id="JobOpening-to-JobReference" style="stroke:#181818;stroke-width:1.0;"/><polygon fill="#181818" points="2083.94,1535.8537,2078.3427,1527.7499,2079.6725,1533.2483,2074.1741,1534.578,2083.94,1535.8537" style="stroke:#181818;stroke-width:1.0;"/></g><!--link JobOpening to Mode--><g id="link_JobOpening_Mode"><path codeLine="132" d="M1837.84,1372.5237 C1908.88,1398.5137 2026.745,1441.6228 2085.285,1463.0328 " fill="none" id="JobOpening-to-Mode" style="stroke:#181818;stroke-width:1.0;"/><polygon fill="#181818" points="2090.92,1465.0937,2083.8415,1458.2457,2086.2242,1463.3763,2081.0936,1465.759,2090.92,1465.0937" style="stroke:#181818;stroke-width:1.0;"/></g><!--link JobOpening to PhaseDate--><g id="link_JobOpening_PhaseDate"><path codeLine="133" d="M1837.84,1359.4637 C1902.36,1367.2637 2004.1734,1379.5834 2067.2734,1387.2134 " fill="none" id="JobOpening-to-PhaseDate" style="stroke:#181818;stroke-width:1.0;"/><polygon fill="#181818" points="2073.23,1387.9337,2064.7753,1382.8822,2068.2662,1387.3334,2063.8149,1390.8243,2073.23,1387.9337" style="stroke:#181818;stroke-width:1.0;"/></g><!--link JobOpening to Requirements--><g id="link_JobOpening_Requirements"><path codeLine="134" d="M1837.84,1346.4037 C1899.47,1338.7737 1994.6055,1326.9813 2058.5355,1319.0613 " fill="none" id="JobOpening-to-Requirements" style="stroke:#181818;stroke-width:1.0;"/><polygon fill="#181818" points="2064.49,1318.3237,2055.0665,1315.4605,2059.5279,1318.9384,2056.0501,1323.3998,2064.49,1318.3237" style="stroke:#181818;stroke-width:1.0;"/></g><!--link JobOpening to Vacancies--><g id="link_JobOpening_Vacancies"><path codeLine="135" d="M1837.84,1333.3437 C1903.29,1309.2137 2007.6203,1270.739 2070.3103,1247.629 " fill="none" id="JobOpening-to-Vacancies" style="stroke:#181818;stroke-width:1.0;"/><polygon fill="#181818" points="2075.94,1245.5537,2066.112,1244.9135,2071.2486,1247.2831,2068.8791,1252.4197,2075.94,1245.5537" style="stroke:#181818;stroke-width:1.0;"/></g><!--link JobOpening to InterviewModel--><g id="link_JobOpening_InterviewModel"><path codeLine="136" d="M1823.72,1328.9537 C1888.99,1288.9037 2014.0459,1212.1715 2079.2559,1172.1615 " fill="none" id="JobOpening-to-InterviewModel" style="stroke:#181818;stroke-width:1.0;"/><polygon fill="#181818" points="2084.37,1169.0237,2074.607,1170.321,2080.1082,1171.6385,2078.7907,1177.1398,2084.37,1169.0237" style="stroke:#181818;stroke-width:1.0;"/></g><!--link JobOpening to ClientID--><g id="link_JobOpening_ClientID"><path codeLine="137" d="M1808.69,1328.9937 C1855.64,1282.9037 1963.18,1179.8137 2062,1103.0137 C2069.4,1097.2637 2072.613,1094.8295 2080.523,1089.4695 " fill="none" id="JobOpening-to-ClientID" style="stroke:#181818;stroke-width:1.0;"/><polygon fill="#181818" points="2085.49,1086.1037,2075.7956,1087.841,2081.3508,1088.9085,2080.2833,1094.4637,2085.49,1086.1037" style="stroke:#181818;stroke-width:1.0;"/></g><!--link JobOpeningBuilder to JobOpening--><g id="link_JobOpeningBuilder_JobOpening"><path codeLine="139" d="M1417.53,1284.6737 C1530.71,1305.8737 1653.0125,1328.7693 1723.3425,1341.9393 " fill="none" id="JobOpeningBuilder-to-JobOpening" style="stroke:#181818;stroke-width:1.0;"/><polygon fill="#181818" points="1729.24,1343.0437,1721.13,1337.4555,1724.3254,1342.1234,1719.6575,1345.3188,1729.24,1343.0437" style="stroke:#181818;stroke-width:1.0;"/></g><!--reverse link JobOpeningBuilder to JobOpeningMapper--><g id="link_JobOpeningBuilder_JobOpeningMapper"><path codeLine="140" d="M1394.7341,1103.9654 C1503.6241,1028.1554 1628.13,941.4837 1707.79,886.0237 " fill="none" id="JobOpeningBuilder-backto-JobOpeningMapper" style="stroke:#181818;stroke-width:1.0;"/><polygon fill="#181818" points="1389.81,1107.3937,1399.4817,1105.5341,1393.9135,1104.5368,1394.9107,1098.9686,1389.81,1107.3937" style="stroke:#181818;stroke-width:1.0;"/></g><!--link UpdateJobOpeningUI to UpdateJobOpeningController--><g id="link_UpdateJobOpeningUI_UpdateJobOpeningController"><path codeLine="142" d="M187.21,215.0137 C210.87,215.0137 232.12,215.0137 260.79,215.0137 " fill="none" id="UpdateJobOpeningUI-to-UpdateJobOpeningController" style="stroke:#181818;stroke-width:1.0;"/><polygon fill="#181818" points="266.79,215.0137,257.79,211.0137,261.79,215.0137,257.79,219.0137,266.79,215.0137" style="stroke:#181818;stroke-width:1.0;"/></g><!--link UpdateJobOpeningController to JobOpeningService--><g id="link_UpdateJobOpeningController_JobOpeningService"><path codeLine="143" d="M823.2,235.1537 C842.92,236.5837 856.8957,237.6004 876.7857,239.0404 " fill="none" id="UpdateJobOpeningController-to-JobOpeningService" style="stroke:#181818;stroke-width:1.0;"/><polygon fill="#181818" points="882.77,239.4737,874.0823,234.8342,877.7831,239.1126,873.5047,242.8133,882.77,239.4737" style="stroke:#181818;stroke-width:1.0;"/></g><!--link JobOpeningService to JobOpeningRepository--><g id="link_JobOpeningService_JobOpeningRepository"><path codeLine="144" d="M1505.09,272.0437 C1525.23,272.6937 1539.2631,273.1504 1558.8131,273.7804 " fill="none" id="JobOpeningService-to-JobOpeningRepository" style="stroke:#181818;stroke-width:1.0;"/><polygon fill="#181818" points="1564.81,273.9737,1555.9435,269.6859,1559.8126,273.8126,1555.6858,277.6817,1564.81,273.9737" style="stroke:#181818;stroke-width:1.0;"/></g><!--link JobOpeningRepository to JobOpening--><g id="link_JobOpeningRepository_JobOpening"><path codeLine="145" d="M1654.48,323.5937 C1613.59,342.4437 1571.21,368.3937 1541,403.0137 C1535.59,409.2137 1536.35,412.4037 1535,420.5137 C1530.08,450.0537 1530.08,929.9737 1535,959.5137 C1561.77,1120.1037 1696.0875,1267.461 1753.8875,1324.721 " fill="none" id="JobOpeningRepository-to-JobOpening" style="stroke:#181818;stroke-width:1.0;"/><polygon fill="#181818" points="1758.15,1328.9437,1754.5714,1319.768,1754.5979,1325.4248,1748.9411,1325.4513,1758.15,1328.9437" style="stroke:#181818;stroke-width:1.0;"/></g><!--reverse link JobOpeningDto to JobOpeningMapper--><g id="link_JobOpeningDto_JobOpeningMapper"><path codeLine="147" d="M1282.07,834.0137 C1367.53,834.0137 1498.76,834.0137 1608.83,834.0137 " fill="none" id="JobOpeningDto-backto-JobOpeningMapper" style="stroke:#181818;stroke-width:1.0;"/><polygon fill="#181818" points="1276.07,834.0137,1285.07,838.0137,1281.07,834.0137,1285.07,830.0137,1276.07,834.0137" style="stroke:#181818;stroke-width:1.0;"/></g><!--reverse link CreateJobOpeningDto to JobOpeningMapper--><g id="link_CreateJobOpeningDto_JobOpeningMapper"><path codeLine="148" d="M1286.1485,582.1428 C1354.3285,609.8528 1446.18,648.7937 1529,690.0137 C1585.87,718.3137 1647.9,753.4737 1696.37,781.9737 " fill="none" id="CreateJobOpeningDto-backto-JobOpeningMapper" style="stroke:#181818;stroke-width:1.0;"/><polygon fill="#181818" points="1280.59,579.8837,1287.4216,586.978,1285.2221,581.7662,1290.4338,579.5667,1280.59,579.8837" style="stroke:#181818;stroke-width:1.0;"/></g><!--link JobOpeningService to JobOpeningMapper--><g id="link_JobOpeningService_JobOpeningMapper"><path codeLine="150" d="M1437.34,342.0837 C1470.21,359.0937 1501.89,379.2737 1529,403.0137 C1651.77,510.5437 1728.8351,686.955 1762.2251,776.085 " fill="none" id="JobOpeningService-to-JobOpeningMapper" style="stroke:#181818;stroke-width:1.0;"/><polygon fill="#181818" points="1764.33,781.7037,1764.9185,771.8724,1762.5759,777.0214,1757.4269,774.6789,1764.33,781.7037" style="stroke:#181818;stroke-width:1.0;"/></g><!--link JobOpeningMapper to JobOpening--><g id="link_JobOpeningMapper_JobOpening"><path codeLine="152" d="M1783.5,886.2137 C1783.5,1033.7837 1783.5,1175.3637 1783.5,1322.9437 " fill="none" id="JobOpeningMapper-to-JobOpening" style="stroke:#181818;stroke-width:1.0;"/><polygon fill="#181818" points="1783.5,1328.9437,1787.5,1319.9437,1783.5,1323.9437,1779.5,1319.9437,1783.5,1328.9437" style="stroke:#181818;stroke-width:1.0;"/></g><!--SRC=[xLTDJzmm4BtxLrZg9GZs3o2418igBG9HBT1BrOCtcTrrwutJn0j5YFzUEt6SySScgrvwwKgWnFDcyZppFBO5h1LLajPyirMqu3NaYikI45An_2VR0Drp-awe_UM2DGrzhWgcu5Qk7YeeURbvNY08fPyA-RYLhza9FQShAGMmqba_IFVVXV_XekWOfBNs9bPLWkVCy9caC9UbggKGK7jKA9qn8JIiQTai5DHi9U1YSBnHyj9pE6qqzxdWK2hjT4vV92zyGBwLie4Eal5IQKhcyRc1Ub4MyDjyQVX0nCR5JXDAi1cCeum6MCjgo6pBwepE7Kt4s2Uhi-7ptO2waviD58lIe5lIRQvPhfxUAeZ9BaezfnSEh_Uo0D5DypCNyEsxZ-KUBlCu8Evdz57LHXq-VfnsIsG9l_PQppkNx1IB6eCcEM3qOGOV913h07iqKyZXFIInuOsU7IhWl0PFtuPGeUJ9wAonrEzqn56PMt2lm2FbkEPbSVssX3NKKEQGwNSc-lJeZ3cB2VTGcRNBnE5m-tOPBuwJWdxxEpLqNraUKshyZV5gnoqDzwuQAjbm9Uitr8zQqckM0mgrJ07DpsJwIeZZwXAMvHPLGdCvjYR9gHHontZSWMzHuuuK_yILWCJu3JHvpLiAiV6gA6fe6co0Sh_p-aqYfZVNoDde8-7qPSiQkD6gIDYmK6BhLvQpCkUGCFawZkrT0rxSl8zqYEiz5qMqYvqgaz2iIslxx7K2w-Ix54EkCvHtYiQdWx2k9fcj3RNlquuvAbhcLH1RfkFWdkBBskisat5skYHPAmRpD8slUe5aWrJSsBIxjwzWGVbTPJBEIw-spEcEkh5fzs2JzGKQDj7fcbhzPhsGQJyoxRioWzb9ycIKRZkwBuSz9xKhfXRAkMtX1nT46c35dJPYsQOHM91fX95UskAabJPZqQGHJXHfir_g0pEqnOoi8-tgVmN-TGNkzJKfiLz8NHbqoh6x-CH1INkri8F7pyCtcy7tM2-twed-Gqndiylk_10EeaqiDDdjAHpsRYg13UybeSsKA1npsq1emDqzjBcc7HhyJXpnjZh0UUaF1fPxdyqOS36RHV8W975dDv4EtwF9o1NRvs0lDIGQ2N33KPSapx_-n8Yle-IiKZ9DJt-AMuopwof8D_a3]--></g></svg>