<?xml version="1.0" encoding="us-ascii" standalone="no"?><svg xmlns="http://www.w3.org/2000/svg" xmlns:xlink="http://www.w3.org/1999/xlink" contentStyleType="text/css" height="418px" preserveAspectRatio="none" style="width:1651px;height:418px;background:#FFFFFF;" version="1.1" viewBox="0 0 1651 418" width="1651px" zoomAndPan="magnify"><defs/><g><!--cluster Job Opening Application--><g id="cluster_Job Opening Application"><rect fill="#AACCBB" height="252" rx="2.5" ry="2.5" style="stroke:#181818;stroke-width:1.0;" width="964" x="7" y="160"/><text fill="#000000" font-family="sans-serif" font-size="14" font-weight="bold" lengthAdjust="spacing" textLength="172" x="403" y="177.1074">Job Opening Application</text></g><!--cluster candidate--><g id="cluster_candidate"><rect fill="#AABBCC" height="252" rx="2.5" ry="2.5" style="stroke:#181818;stroke-width:1.0;" width="313" x="995" y="160"/><text fill="#000000" font-family="sans-serif" font-size="14" font-weight="bold" lengthAdjust="spacing" textLength="69" x="1117" y="177.1074">candidate</text></g><!--cluster Job Opening Interview--><g id="cluster_Job Opening Interview"><rect fill="#CCBBAA" height="397" rx="2.5" ry="2.5" style="stroke:#181818;stroke-width:1.0;" width="313" x="1332" y="7"/><text fill="#000000" font-family="sans-serif" font-size="14" font-weight="bold" lengthAdjust="spacing" textLength="160" x="1408.5" y="24.1074">Job Opening Interview</text></g><!--class Application--><g id="elem_Application"><rect codeLine="7" fill="#F1F1F1" height="68.543" id="Application" rx="2.5" ry="2.5" style="stroke:#181818;stroke-width:0.5;" width="128" x="476" y="197"/><ellipse cx="491" cy="227.2715" fill="#ADD1B2" rx="11" ry="11" style="stroke:#181818;stroke-width:1.0;"/><path d="M493.7656,223.1465 Q493.9219,222.9277 494.1094,222.8184 Q494.2969,222.709 494.5156,222.709 Q494.8906,222.709 495.125,222.9746 Q495.3594,223.2246 495.3594,223.834 L495.3594,225.2871 Q495.3594,225.8965 495.125,226.1621 Q494.8906,226.4277 494.5156,226.4277 Q494.1719,226.4277 493.9688,226.2246 Q493.7656,226.0371 493.6563,225.5215 Q493.6094,225.1621 493.4219,224.9746 Q493.0938,224.5996 492.4844,224.3809 Q491.875,224.1621 491.25,224.1621 Q490.4844,224.1621 489.8438,224.4902 Q489.2188,224.8184 488.7188,225.5684 Q488.2344,226.3184 488.2344,227.3496 L488.2344,228.4434 Q488.2344,229.6777 489.125,230.5059 Q490.0156,231.3184 491.6094,231.3184 Q492.5469,231.3184 493.2031,231.0684 Q493.5938,230.9121 494.0156,230.4746 Q494.2813,230.209 494.4219,230.1309 Q494.5781,230.0527 494.7813,230.0527 Q495.1094,230.0527 495.3594,230.3184 Q495.625,230.5684 495.625,230.9121 Q495.625,231.2559 495.2813,231.6621 Q494.7813,232.2402 493.9844,232.5684 Q492.9063,233.0215 491.6094,233.0215 Q490.0938,233.0215 488.8906,232.3965 Q487.9063,231.8965 487.2188,230.834 Q486.5313,229.7559 486.5313,228.4746 L486.5313,227.3184 Q486.5313,225.9902 487.1406,224.8496 Q487.7656,223.6934 488.8594,223.084 Q489.9531,222.459 491.1875,222.459 Q491.9219,222.459 492.5625,222.6309 Q493.2188,222.7871 493.7656,223.1465 Z " fill="#000000"/><text fill="#000000" font-family="sans-serif" font-size="12" font-style="italic" lengthAdjust="spacing" textLength="100" x="503" y="214.9492">&#171;Aggregate Root&#187;</text><text fill="#000000" font-family="sans-serif" font-size="12" font-style="italic" lengthAdjust="spacing" textLength="44" x="531" y="230.9102">&#171;Entity&#187;</text><text fill="#000000" font-family="sans-serif" font-size="14" lengthAdjust="spacing" textLength="69" x="518.5" y="249.0293">Application</text><line style="stroke:#181818;stroke-width:0.5;" x1="477" x2="603" y1="257.543" y2="257.543"/></g><!--class ApplicationId--><g id="elem_ApplicationId"><rect codeLine="8" fill="#F1F1F1" height="68.543" id="ApplicationId" rx="2.5" ry="2.5" style="stroke:#181818;stroke-width:0.5;" width="113" x="23.5" y="327"/><ellipse cx="38.5" cy="357.2715" fill="#ADD1B2" rx="11" ry="11" style="stroke:#181818;stroke-width:1.0;"/><path d="M41.2656,353.1465 Q41.4219,352.9277 41.6094,352.8184 Q41.7969,352.709 42.0156,352.709 Q42.3906,352.709 42.625,352.9746 Q42.8594,353.2246 42.8594,353.834 L42.8594,355.2871 Q42.8594,355.8965 42.625,356.1621 Q42.3906,356.4277 42.0156,356.4277 Q41.6719,356.4277 41.4688,356.2246 Q41.2656,356.0371 41.1563,355.5215 Q41.1094,355.1621 40.9219,354.9746 Q40.5938,354.5996 39.9844,354.3809 Q39.375,354.1621 38.75,354.1621 Q37.9844,354.1621 37.3438,354.4902 Q36.7188,354.8184 36.2188,355.5684 Q35.7344,356.3184 35.7344,357.3496 L35.7344,358.4434 Q35.7344,359.6777 36.625,360.5059 Q37.5156,361.3184 39.1094,361.3184 Q40.0469,361.3184 40.7031,361.0684 Q41.0938,360.9121 41.5156,360.4746 Q41.7813,360.209 41.9219,360.1309 Q42.0781,360.0527 42.2813,360.0527 Q42.6094,360.0527 42.8594,360.3184 Q43.125,360.5684 43.125,360.9121 Q43.125,361.2559 42.7813,361.6621 Q42.2813,362.2402 41.4844,362.5684 Q40.4063,363.0215 39.1094,363.0215 Q37.5938,363.0215 36.3906,362.3965 Q35.4063,361.8965 34.7188,360.834 Q34.0313,359.7559 34.0313,358.4746 L34.0313,357.3184 Q34.0313,355.9902 34.6406,354.8496 Q35.2656,353.6934 36.3594,353.084 Q37.4531,352.459 38.6875,352.459 Q39.4219,352.459 40.0625,352.6309 Q40.7188,352.7871 41.2656,353.1465 Z " fill="#000000"/><text fill="#000000" font-family="sans-serif" font-size="12" font-style="italic" lengthAdjust="spacing" textLength="54" x="66" y="344.9492">&#171;Identity&#187;</text><text fill="#000000" font-family="sans-serif" font-size="12" font-style="italic" lengthAdjust="spacing" textLength="85" x="50.5" y="360.9102">&#171;Value Object&#187;</text><text fill="#000000" font-family="sans-serif" font-size="14" lengthAdjust="spacing" textLength="80" x="53" y="379.0293">ApplicationId</text><line style="stroke:#181818;stroke-width:0.5;" x1="24.5" x2="135.5" y1="387.543" y2="387.543"/></g><!--class AttachedEmail--><g id="elem_AttachedEmail"><rect codeLine="9" fill="#F1F1F1" height="52.582" id="AttachedEmail" rx="2.5" ry="2.5" style="stroke:#181818;stroke-width:0.5;" width="122" x="172" y="335"/><ellipse cx="187" cy="357.291" fill="#ADD1B2" rx="11" ry="11" style="stroke:#181818;stroke-width:1.0;"/><path d="M189.7656,353.166 Q189.9219,352.9473 190.1094,352.8379 Q190.2969,352.7285 190.5156,352.7285 Q190.8906,352.7285 191.125,352.9941 Q191.3594,353.2441 191.3594,353.8535 L191.3594,355.3066 Q191.3594,355.916 191.125,356.1816 Q190.8906,356.4473 190.5156,356.4473 Q190.1719,356.4473 189.9688,356.2441 Q189.7656,356.0566 189.6563,355.541 Q189.6094,355.1816 189.4219,354.9941 Q189.0938,354.6191 188.4844,354.4004 Q187.875,354.1816 187.25,354.1816 Q186.4844,354.1816 185.8438,354.5098 Q185.2188,354.8379 184.7188,355.5879 Q184.2344,356.3379 184.2344,357.3691 L184.2344,358.4629 Q184.2344,359.6973 185.125,360.5254 Q186.0156,361.3379 187.6094,361.3379 Q188.5469,361.3379 189.2031,361.0879 Q189.5938,360.9316 190.0156,360.4941 Q190.2813,360.2285 190.4219,360.1504 Q190.5781,360.0723 190.7813,360.0723 Q191.1094,360.0723 191.3594,360.3379 Q191.625,360.5879 191.625,360.9316 Q191.625,361.2754 191.2813,361.6816 Q190.7813,362.2598 189.9844,362.5879 Q188.9063,363.041 187.6094,363.041 Q186.0938,363.041 184.8906,362.416 Q183.9063,361.916 183.2188,360.8535 Q182.5313,359.7754 182.5313,358.4941 L182.5313,357.3379 Q182.5313,356.0098 183.1406,354.8691 Q183.7656,353.7129 184.8594,353.1035 Q185.9531,352.4785 187.1875,352.4785 Q187.9219,352.4785 188.5625,352.6504 Q189.2188,352.8066 189.7656,353.166 Z " fill="#000000"/><text fill="#000000" font-family="sans-serif" font-size="12" font-style="italic" lengthAdjust="spacing" textLength="85" x="203.5" y="352.9492">&#171;Value Object&#187;</text><text fill="#000000" font-family="sans-serif" font-size="14" lengthAdjust="spacing" textLength="90" x="201" y="371.0684">AttachedEmail</text><line style="stroke:#181818;stroke-width:0.5;" x1="173" x2="293" y1="379.582" y2="379.582"/></g><!--class AttachedFile--><g id="elem_AttachedFile"><rect codeLine="10" fill="#F1F1F1" height="52.582" id="AttachedFile" rx="2.5" ry="2.5" style="stroke:#181818;stroke-width:0.5;" width="113" x="329.5" y="335"/><ellipse cx="344.5" cy="357.291" fill="#ADD1B2" rx="11" ry="11" style="stroke:#181818;stroke-width:1.0;"/><path d="M347.2656,353.166 Q347.4219,352.9473 347.6094,352.8379 Q347.7969,352.7285 348.0156,352.7285 Q348.3906,352.7285 348.625,352.9941 Q348.8594,353.2441 348.8594,353.8535 L348.8594,355.3066 Q348.8594,355.916 348.625,356.1816 Q348.3906,356.4473 348.0156,356.4473 Q347.6719,356.4473 347.4688,356.2441 Q347.2656,356.0566 347.1563,355.541 Q347.1094,355.1816 346.9219,354.9941 Q346.5938,354.6191 345.9844,354.4004 Q345.375,354.1816 344.75,354.1816 Q343.9844,354.1816 343.3438,354.5098 Q342.7188,354.8379 342.2188,355.5879 Q341.7344,356.3379 341.7344,357.3691 L341.7344,358.4629 Q341.7344,359.6973 342.625,360.5254 Q343.5156,361.3379 345.1094,361.3379 Q346.0469,361.3379 346.7031,361.0879 Q347.0938,360.9316 347.5156,360.4941 Q347.7813,360.2285 347.9219,360.1504 Q348.0781,360.0723 348.2813,360.0723 Q348.6094,360.0723 348.8594,360.3379 Q349.125,360.5879 349.125,360.9316 Q349.125,361.2754 348.7813,361.6816 Q348.2813,362.2598 347.4844,362.5879 Q346.4063,363.041 345.1094,363.041 Q343.5938,363.041 342.3906,362.416 Q341.4063,361.916 340.7188,360.8535 Q340.0313,359.7754 340.0313,358.4941 L340.0313,357.3379 Q340.0313,356.0098 340.6406,354.8691 Q341.2656,353.7129 342.3594,353.1035 Q343.4531,352.4785 344.6875,352.4785 Q345.4219,352.4785 346.0625,352.6504 Q346.7188,352.8066 347.2656,353.166 Z " fill="#000000"/><text fill="#000000" font-family="sans-serif" font-size="12" font-style="italic" lengthAdjust="spacing" textLength="85" x="356.5" y="352.9492">&#171;Value Object&#187;</text><text fill="#000000" font-family="sans-serif" font-size="14" lengthAdjust="spacing" textLength="79" x="359.5" y="371.0684">AttachedFile</text><line style="stroke:#181818;stroke-width:0.5;" x1="330.5" x2="441.5" y1="379.582" y2="379.582"/></g><!--class ApplicatorData--><g id="elem_ApplicatorData"><rect codeLine="11" fill="#F1F1F1" height="52.582" id="ApplicatorData" rx="2.5" ry="2.5" style="stroke:#181818;stroke-width:0.5;" width="125" x="477.5" y="335"/><ellipse cx="492.5" cy="357.291" fill="#ADD1B2" rx="11" ry="11" style="stroke:#181818;stroke-width:1.0;"/><path d="M495.2656,353.166 Q495.4219,352.9473 495.6094,352.8379 Q495.7969,352.7285 496.0156,352.7285 Q496.3906,352.7285 496.625,352.9941 Q496.8594,353.2441 496.8594,353.8535 L496.8594,355.3066 Q496.8594,355.916 496.625,356.1816 Q496.3906,356.4473 496.0156,356.4473 Q495.6719,356.4473 495.4688,356.2441 Q495.2656,356.0566 495.1563,355.541 Q495.1094,355.1816 494.9219,354.9941 Q494.5938,354.6191 493.9844,354.4004 Q493.375,354.1816 492.75,354.1816 Q491.9844,354.1816 491.3438,354.5098 Q490.7188,354.8379 490.2188,355.5879 Q489.7344,356.3379 489.7344,357.3691 L489.7344,358.4629 Q489.7344,359.6973 490.625,360.5254 Q491.5156,361.3379 493.1094,361.3379 Q494.0469,361.3379 494.7031,361.0879 Q495.0938,360.9316 495.5156,360.4941 Q495.7813,360.2285 495.9219,360.1504 Q496.0781,360.0723 496.2813,360.0723 Q496.6094,360.0723 496.8594,360.3379 Q497.125,360.5879 497.125,360.9316 Q497.125,361.2754 496.7813,361.6816 Q496.2813,362.2598 495.4844,362.5879 Q494.4063,363.041 493.1094,363.041 Q491.5938,363.041 490.3906,362.416 Q489.4063,361.916 488.7188,360.8535 Q488.0313,359.7754 488.0313,358.4941 L488.0313,357.3379 Q488.0313,356.0098 488.6406,354.8691 Q489.2656,353.7129 490.3594,353.1035 Q491.4531,352.4785 492.6875,352.4785 Q493.4219,352.4785 494.0625,352.6504 Q494.7188,352.8066 495.2656,353.166 Z " fill="#000000"/><text fill="#000000" font-family="sans-serif" font-size="12" font-style="italic" lengthAdjust="spacing" textLength="85" x="510.5" y="352.9492">&#171;Value Object&#187;</text><text fill="#000000" font-family="sans-serif" font-size="14" lengthAdjust="spacing" textLength="93" x="506.5" y="371.0684">ApplicatorData</text><line style="stroke:#181818;stroke-width:0.5;" x1="478.5" x2="601.5" y1="379.582" y2="379.582"/></g><!--class ApplicationStatus--><g id="elem_ApplicationStatus"><rect codeLine="12" fill="#F1F1F1" height="52.582" id="ApplicationStatus" rx="2.5" ry="2.5" style="stroke:#181818;stroke-width:0.5;" width="141" x="637.5" y="335"/><ellipse cx="652.5" cy="357.291" fill="#ADD1B2" rx="11" ry="11" style="stroke:#181818;stroke-width:1.0;"/><path d="M655.2656,353.166 Q655.4219,352.9473 655.6094,352.8379 Q655.7969,352.7285 656.0156,352.7285 Q656.3906,352.7285 656.625,352.9941 Q656.8594,353.2441 656.8594,353.8535 L656.8594,355.3066 Q656.8594,355.916 656.625,356.1816 Q656.3906,356.4473 656.0156,356.4473 Q655.6719,356.4473 655.4688,356.2441 Q655.2656,356.0566 655.1563,355.541 Q655.1094,355.1816 654.9219,354.9941 Q654.5938,354.6191 653.9844,354.4004 Q653.375,354.1816 652.75,354.1816 Q651.9844,354.1816 651.3438,354.5098 Q650.7188,354.8379 650.2188,355.5879 Q649.7344,356.3379 649.7344,357.3691 L649.7344,358.4629 Q649.7344,359.6973 650.625,360.5254 Q651.5156,361.3379 653.1094,361.3379 Q654.0469,361.3379 654.7031,361.0879 Q655.0938,360.9316 655.5156,360.4941 Q655.7813,360.2285 655.9219,360.1504 Q656.0781,360.0723 656.2813,360.0723 Q656.6094,360.0723 656.8594,360.3379 Q657.125,360.5879 657.125,360.9316 Q657.125,361.2754 656.7813,361.6816 Q656.2813,362.2598 655.4844,362.5879 Q654.4063,363.041 653.1094,363.041 Q651.5938,363.041 650.3906,362.416 Q649.4063,361.916 648.7188,360.8535 Q648.0313,359.7754 648.0313,358.4941 L648.0313,357.3379 Q648.0313,356.0098 648.6406,354.8691 Q649.2656,353.7129 650.3594,353.1035 Q651.4531,352.4785 652.6875,352.4785 Q653.4219,352.4785 654.0625,352.6504 Q654.7188,352.8066 655.2656,353.166 Z " fill="#000000"/><text fill="#000000" font-family="sans-serif" font-size="12" font-style="italic" lengthAdjust="spacing" textLength="85" x="678.5" y="352.9492">&#171;Value Object&#187;</text><text fill="#000000" font-family="sans-serif" font-size="14" lengthAdjust="spacing" textLength="109" x="666.5" y="371.0684">ApplicationStatus</text><line style="stroke:#181818;stroke-width:0.5;" x1="638.5" x2="777.5" y1="379.582" y2="379.582"/></g><!--class ApplicationGrade--><g id="elem_ApplicationGrade"><rect codeLine="13" fill="#F1F1F1" height="52.582" id="ApplicationGrade" rx="2.5" ry="2.5" style="stroke:#181818;stroke-width:0.5;" width="141" x="813.5" y="335"/><ellipse cx="828.5" cy="357.291" fill="#ADD1B2" rx="11" ry="11" style="stroke:#181818;stroke-width:1.0;"/><path d="M831.2656,353.166 Q831.4219,352.9473 831.6094,352.8379 Q831.7969,352.7285 832.0156,352.7285 Q832.3906,352.7285 832.625,352.9941 Q832.8594,353.2441 832.8594,353.8535 L832.8594,355.3066 Q832.8594,355.916 832.625,356.1816 Q832.3906,356.4473 832.0156,356.4473 Q831.6719,356.4473 831.4688,356.2441 Q831.2656,356.0566 831.1563,355.541 Q831.1094,355.1816 830.9219,354.9941 Q830.5938,354.6191 829.9844,354.4004 Q829.375,354.1816 828.75,354.1816 Q827.9844,354.1816 827.3438,354.5098 Q826.7188,354.8379 826.2188,355.5879 Q825.7344,356.3379 825.7344,357.3691 L825.7344,358.4629 Q825.7344,359.6973 826.625,360.5254 Q827.5156,361.3379 829.1094,361.3379 Q830.0469,361.3379 830.7031,361.0879 Q831.0938,360.9316 831.5156,360.4941 Q831.7813,360.2285 831.9219,360.1504 Q832.0781,360.0723 832.2813,360.0723 Q832.6094,360.0723 832.8594,360.3379 Q833.125,360.5879 833.125,360.9316 Q833.125,361.2754 832.7813,361.6816 Q832.2813,362.2598 831.4844,362.5879 Q830.4063,363.041 829.1094,363.041 Q827.5938,363.041 826.3906,362.416 Q825.4063,361.916 824.7188,360.8535 Q824.0313,359.7754 824.0313,358.4941 L824.0313,357.3379 Q824.0313,356.0098 824.6406,354.8691 Q825.2656,353.7129 826.3594,353.1035 Q827.4531,352.4785 828.6875,352.4785 Q829.4219,352.4785 830.0625,352.6504 Q830.7188,352.8066 831.2656,353.166 Z " fill="#000000"/><text fill="#000000" font-family="sans-serif" font-size="12" font-style="italic" lengthAdjust="spacing" textLength="85" x="854.5" y="352.9492">&#171;Value Object&#187;</text><text fill="#000000" font-family="sans-serif" font-size="14" lengthAdjust="spacing" textLength="109" x="842.5" y="371.0684">ApplicationGrade</text><line style="stroke:#181818;stroke-width:0.5;" x1="814.5" x2="953.5" y1="379.582" y2="379.582"/></g><!--class Candidate--><g id="elem_Candidate"><rect codeLine="18" fill="#F1F1F1" height="68.543" id="Candidate" rx="2.5" ry="2.5" style="stroke:#181818;stroke-width:0.5;" width="128" x="1082" y="197"/><ellipse cx="1097" cy="227.2715" fill="#ADD1B2" rx="11" ry="11" style="stroke:#181818;stroke-width:1.0;"/><path d="M1099.7656,223.1465 Q1099.9219,222.9277 1100.1094,222.8184 Q1100.2969,222.709 1100.5156,222.709 Q1100.8906,222.709 1101.125,222.9746 Q1101.3594,223.2246 1101.3594,223.834 L1101.3594,225.2871 Q1101.3594,225.8965 1101.125,226.1621 Q1100.8906,226.4277 1100.5156,226.4277 Q1100.1719,226.4277 1099.9688,226.2246 Q1099.7656,226.0371 1099.6563,225.5215 Q1099.6094,225.1621 1099.4219,224.9746 Q1099.0938,224.5996 1098.4844,224.3809 Q1097.875,224.1621 1097.25,224.1621 Q1096.4844,224.1621 1095.8438,224.4902 Q1095.2188,224.8184 1094.7188,225.5684 Q1094.2344,226.3184 1094.2344,227.3496 L1094.2344,228.4434 Q1094.2344,229.6777 1095.125,230.5059 Q1096.0156,231.3184 1097.6094,231.3184 Q1098.5469,231.3184 1099.2031,231.0684 Q1099.5938,230.9121 1100.0156,230.4746 Q1100.2813,230.209 1100.4219,230.1309 Q1100.5781,230.0527 1100.7813,230.0527 Q1101.1094,230.0527 1101.3594,230.3184 Q1101.625,230.5684 1101.625,230.9121 Q1101.625,231.2559 1101.2813,231.6621 Q1100.7813,232.2402 1099.9844,232.5684 Q1098.9063,233.0215 1097.6094,233.0215 Q1096.0938,233.0215 1094.8906,232.3965 Q1093.9063,231.8965 1093.2188,230.834 Q1092.5313,229.7559 1092.5313,228.4746 L1092.5313,227.3184 Q1092.5313,225.9902 1093.1406,224.8496 Q1093.7656,223.6934 1094.8594,223.084 Q1095.9531,222.459 1097.1875,222.459 Q1097.9219,222.459 1098.5625,222.6309 Q1099.2188,222.7871 1099.7656,223.1465 Z " fill="#000000"/><text fill="#000000" font-family="sans-serif" font-size="12" font-style="italic" lengthAdjust="spacing" textLength="100" x="1109" y="214.9492">&#171;Aggregate Root&#187;</text><text fill="#000000" font-family="sans-serif" font-size="12" font-style="italic" lengthAdjust="spacing" textLength="44" x="1137" y="230.9102">&#171;Entity&#187;</text><text fill="#000000" font-family="sans-serif" font-size="14" lengthAdjust="spacing" textLength="65" x="1126.5" y="249.0293">Candidate</text><line style="stroke:#181818;stroke-width:0.5;" x1="1083" x2="1209" y1="257.543" y2="257.543"/></g><!--class CandidateId--><g id="elem_CandidateId"><rect codeLine="19" fill="#F1F1F1" height="68.543" id="CandidateId" rx="2.5" ry="2.5" style="stroke:#181818;stroke-width:0.5;" width="113" x="1011.5" y="327"/><ellipse cx="1026.5" cy="357.2715" fill="#ADD1B2" rx="11" ry="11" style="stroke:#181818;stroke-width:1.0;"/><path d="M1029.2656,353.1465 Q1029.4219,352.9277 1029.6094,352.8184 Q1029.7969,352.709 1030.0156,352.709 Q1030.3906,352.709 1030.625,352.9746 Q1030.8594,353.2246 1030.8594,353.834 L1030.8594,355.2871 Q1030.8594,355.8965 1030.625,356.1621 Q1030.3906,356.4277 1030.0156,356.4277 Q1029.6719,356.4277 1029.4688,356.2246 Q1029.2656,356.0371 1029.1563,355.5215 Q1029.1094,355.1621 1028.9219,354.9746 Q1028.5938,354.5996 1027.9844,354.3809 Q1027.375,354.1621 1026.75,354.1621 Q1025.9844,354.1621 1025.3438,354.4902 Q1024.7188,354.8184 1024.2188,355.5684 Q1023.7344,356.3184 1023.7344,357.3496 L1023.7344,358.4434 Q1023.7344,359.6777 1024.625,360.5059 Q1025.5156,361.3184 1027.1094,361.3184 Q1028.0469,361.3184 1028.7031,361.0684 Q1029.0938,360.9121 1029.5156,360.4746 Q1029.7813,360.209 1029.9219,360.1309 Q1030.0781,360.0527 1030.2813,360.0527 Q1030.6094,360.0527 1030.8594,360.3184 Q1031.125,360.5684 1031.125,360.9121 Q1031.125,361.2559 1030.7813,361.6621 Q1030.2813,362.2402 1029.4844,362.5684 Q1028.4063,363.0215 1027.1094,363.0215 Q1025.5938,363.0215 1024.3906,362.3965 Q1023.4063,361.8965 1022.7188,360.834 Q1022.0313,359.7559 1022.0313,358.4746 L1022.0313,357.3184 Q1022.0313,355.9902 1022.6406,354.8496 Q1023.2656,353.6934 1024.3594,353.084 Q1025.4531,352.459 1026.6875,352.459 Q1027.4219,352.459 1028.0625,352.6309 Q1028.7188,352.7871 1029.2656,353.1465 Z " fill="#000000"/><text fill="#000000" font-family="sans-serif" font-size="12" font-style="italic" lengthAdjust="spacing" textLength="54" x="1054" y="344.9492">&#171;Identity&#187;</text><text fill="#000000" font-family="sans-serif" font-size="12" font-style="italic" lengthAdjust="spacing" textLength="85" x="1038.5" y="360.9102">&#171;Value Object&#187;</text><text fill="#000000" font-family="sans-serif" font-size="14" lengthAdjust="spacing" textLength="76" x="1043" y="379.0293">CandidateId</text><line style="stroke:#181818;stroke-width:0.5;" x1="1012.5" x2="1123.5" y1="387.543" y2="387.543"/></g><!--class CurriculumVitae--><g id="elem_CurriculumVitae"><rect codeLine="20" fill="#F1F1F1" height="52.582" id="CurriculumVitae" rx="2.5" ry="2.5" style="stroke:#181818;stroke-width:0.5;" width="132" x="1160" y="335"/><ellipse cx="1175" cy="357.291" fill="#ADD1B2" rx="11" ry="11" style="stroke:#181818;stroke-width:1.0;"/><path d="M1177.7656,353.166 Q1177.9219,352.9473 1178.1094,352.8379 Q1178.2969,352.7285 1178.5156,352.7285 Q1178.8906,352.7285 1179.125,352.9941 Q1179.3594,353.2441 1179.3594,353.8535 L1179.3594,355.3066 Q1179.3594,355.916 1179.125,356.1816 Q1178.8906,356.4473 1178.5156,356.4473 Q1178.1719,356.4473 1177.9688,356.2441 Q1177.7656,356.0566 1177.6563,355.541 Q1177.6094,355.1816 1177.4219,354.9941 Q1177.0938,354.6191 1176.4844,354.4004 Q1175.875,354.1816 1175.25,354.1816 Q1174.4844,354.1816 1173.8438,354.5098 Q1173.2188,354.8379 1172.7188,355.5879 Q1172.2344,356.3379 1172.2344,357.3691 L1172.2344,358.4629 Q1172.2344,359.6973 1173.125,360.5254 Q1174.0156,361.3379 1175.6094,361.3379 Q1176.5469,361.3379 1177.2031,361.0879 Q1177.5938,360.9316 1178.0156,360.4941 Q1178.2813,360.2285 1178.4219,360.1504 Q1178.5781,360.0723 1178.7813,360.0723 Q1179.1094,360.0723 1179.3594,360.3379 Q1179.625,360.5879 1179.625,360.9316 Q1179.625,361.2754 1179.2813,361.6816 Q1178.7813,362.2598 1177.9844,362.5879 Q1176.9063,363.041 1175.6094,363.041 Q1174.0938,363.041 1172.8906,362.416 Q1171.9063,361.916 1171.2188,360.8535 Q1170.5313,359.7754 1170.5313,358.4941 L1170.5313,357.3379 Q1170.5313,356.0098 1171.1406,354.8691 Q1171.7656,353.7129 1172.8594,353.1035 Q1173.9531,352.4785 1175.1875,352.4785 Q1175.9219,352.4785 1176.5625,352.6504 Q1177.2188,352.8066 1177.7656,353.166 Z " fill="#000000"/><text fill="#000000" font-family="sans-serif" font-size="12" font-style="italic" lengthAdjust="spacing" textLength="85" x="1196.5" y="352.9492">&#171;Value Object&#187;</text><text fill="#000000" font-family="sans-serif" font-size="14" lengthAdjust="spacing" textLength="100" x="1189" y="371.0684">CurriculumVitae</text><line style="stroke:#181818;stroke-width:0.5;" x1="1161" x2="1291" y1="379.582" y2="379.582"/></g><!--class JobInterview--><g id="elem_JobInterview"><rect codeLine="28" fill="#F1F1F1" height="68.543" id="JobInterview" rx="2.5" ry="2.5" style="stroke:#181818;stroke-width:0.5;" width="128" x="1348" y="197"/><ellipse cx="1363" cy="227.2715" fill="#ADD1B2" rx="11" ry="11" style="stroke:#181818;stroke-width:1.0;"/><path d="M1365.7656,223.1465 Q1365.9219,222.9277 1366.1094,222.8184 Q1366.2969,222.709 1366.5156,222.709 Q1366.8906,222.709 1367.125,222.9746 Q1367.3594,223.2246 1367.3594,223.834 L1367.3594,225.2871 Q1367.3594,225.8965 1367.125,226.1621 Q1366.8906,226.4277 1366.5156,226.4277 Q1366.1719,226.4277 1365.9688,226.2246 Q1365.7656,226.0371 1365.6563,225.5215 Q1365.6094,225.1621 1365.4219,224.9746 Q1365.0938,224.5996 1364.4844,224.3809 Q1363.875,224.1621 1363.25,224.1621 Q1362.4844,224.1621 1361.8438,224.4902 Q1361.2188,224.8184 1360.7188,225.5684 Q1360.2344,226.3184 1360.2344,227.3496 L1360.2344,228.4434 Q1360.2344,229.6777 1361.125,230.5059 Q1362.0156,231.3184 1363.6094,231.3184 Q1364.5469,231.3184 1365.2031,231.0684 Q1365.5938,230.9121 1366.0156,230.4746 Q1366.2813,230.209 1366.4219,230.1309 Q1366.5781,230.0527 1366.7813,230.0527 Q1367.1094,230.0527 1367.3594,230.3184 Q1367.625,230.5684 1367.625,230.9121 Q1367.625,231.2559 1367.2813,231.6621 Q1366.7813,232.2402 1365.9844,232.5684 Q1364.9063,233.0215 1363.6094,233.0215 Q1362.0938,233.0215 1360.8906,232.3965 Q1359.9063,231.8965 1359.2188,230.834 Q1358.5313,229.7559 1358.5313,228.4746 L1358.5313,227.3184 Q1358.5313,225.9902 1359.1406,224.8496 Q1359.7656,223.6934 1360.8594,223.084 Q1361.9531,222.459 1363.1875,222.459 Q1363.9219,222.459 1364.5625,222.6309 Q1365.2188,222.7871 1365.7656,223.1465 Z " fill="#000000"/><text fill="#000000" font-family="sans-serif" font-size="12" font-style="italic" lengthAdjust="spacing" textLength="100" x="1375" y="214.9492">&#171;Aggregate Root&#187;</text><text fill="#000000" font-family="sans-serif" font-size="12" font-style="italic" lengthAdjust="spacing" textLength="44" x="1403" y="230.9102">&#171;Entity&#187;</text><text fill="#000000" font-family="sans-serif" font-size="14" lengthAdjust="spacing" textLength="77" x="1386.5" y="249.0293">JobInterview</text><line style="stroke:#181818;stroke-width:0.5;" x1="1349" x2="1475" y1="257.543" y2="257.543"/></g><!--class JobInterviewId--><g id="elem_JobInterviewId"><rect codeLine="29" fill="#F1F1F1" height="68.543" id="JobInterviewId" rx="2.5" ry="2.5" style="stroke:#181818;stroke-width:0.5;" width="120" x="1350" y="44"/><ellipse cx="1365" cy="74.2715" fill="#ADD1B2" rx="11" ry="11" style="stroke:#181818;stroke-width:1.0;"/><path d="M1367.7656,70.1465 Q1367.9219,69.9277 1368.1094,69.8184 Q1368.2969,69.709 1368.5156,69.709 Q1368.8906,69.709 1369.125,69.9746 Q1369.3594,70.2246 1369.3594,70.834 L1369.3594,72.2871 Q1369.3594,72.8965 1369.125,73.1621 Q1368.8906,73.4277 1368.5156,73.4277 Q1368.1719,73.4277 1367.9688,73.2246 Q1367.7656,73.0371 1367.6563,72.5215 Q1367.6094,72.1621 1367.4219,71.9746 Q1367.0938,71.5996 1366.4844,71.3809 Q1365.875,71.1621 1365.25,71.1621 Q1364.4844,71.1621 1363.8438,71.4902 Q1363.2188,71.8184 1362.7188,72.5684 Q1362.2344,73.3184 1362.2344,74.3496 L1362.2344,75.4434 Q1362.2344,76.6777 1363.125,77.5059 Q1364.0156,78.3184 1365.6094,78.3184 Q1366.5469,78.3184 1367.2031,78.0684 Q1367.5938,77.9121 1368.0156,77.4746 Q1368.2813,77.209 1368.4219,77.1309 Q1368.5781,77.0527 1368.7813,77.0527 Q1369.1094,77.0527 1369.3594,77.3184 Q1369.625,77.5684 1369.625,77.9121 Q1369.625,78.2559 1369.2813,78.6621 Q1368.7813,79.2402 1367.9844,79.5684 Q1366.9063,80.0215 1365.6094,80.0215 Q1364.0938,80.0215 1362.8906,79.3965 Q1361.9063,78.8965 1361.2188,77.834 Q1360.5313,76.7559 1360.5313,75.4746 L1360.5313,74.3184 Q1360.5313,72.9902 1361.1406,71.8496 Q1361.7656,70.6934 1362.8594,70.084 Q1363.9531,69.459 1365.1875,69.459 Q1365.9219,69.459 1366.5625,69.6309 Q1367.2188,69.7871 1367.7656,70.1465 Z " fill="#000000"/><text fill="#000000" font-family="sans-serif" font-size="12" font-style="italic" lengthAdjust="spacing" textLength="54" x="1396" y="61.9492">&#171;Identity&#187;</text><text fill="#000000" font-family="sans-serif" font-size="12" font-style="italic" lengthAdjust="spacing" textLength="85" x="1380.5" y="77.9102">&#171;Value Object&#187;</text><text fill="#000000" font-family="sans-serif" font-size="14" lengthAdjust="spacing" textLength="88" x="1379" y="96.0293">JobInterviewId</text><line style="stroke:#181818;stroke-width:0.5;" x1="1351" x2="1469" y1="104.543" y2="104.543"/></g><!--class InterviewDate--><g id="elem_InterviewDate"><rect codeLine="30" fill="#F1F1F1" height="52.582" id="InterviewDate" rx="2.5" ry="2.5" style="stroke:#181818;stroke-width:0.5;" width="117" x="1505.5" y="52"/><ellipse cx="1520.5" cy="74.291" fill="#ADD1B2" rx="11" ry="11" style="stroke:#181818;stroke-width:1.0;"/><path d="M1523.2656,70.166 Q1523.4219,69.9473 1523.6094,69.8379 Q1523.7969,69.7285 1524.0156,69.7285 Q1524.3906,69.7285 1524.625,69.9941 Q1524.8594,70.2441 1524.8594,70.8535 L1524.8594,72.3066 Q1524.8594,72.916 1524.625,73.1816 Q1524.3906,73.4473 1524.0156,73.4473 Q1523.6719,73.4473 1523.4688,73.2441 Q1523.2656,73.0566 1523.1563,72.541 Q1523.1094,72.1816 1522.9219,71.9941 Q1522.5938,71.6191 1521.9844,71.4004 Q1521.375,71.1816 1520.75,71.1816 Q1519.9844,71.1816 1519.3438,71.5098 Q1518.7188,71.8379 1518.2188,72.5879 Q1517.7344,73.3379 1517.7344,74.3691 L1517.7344,75.4629 Q1517.7344,76.6973 1518.625,77.5254 Q1519.5156,78.3379 1521.1094,78.3379 Q1522.0469,78.3379 1522.7031,78.0879 Q1523.0938,77.9316 1523.5156,77.4941 Q1523.7813,77.2285 1523.9219,77.1504 Q1524.0781,77.0723 1524.2813,77.0723 Q1524.6094,77.0723 1524.8594,77.3379 Q1525.125,77.5879 1525.125,77.9316 Q1525.125,78.2754 1524.7813,78.6816 Q1524.2813,79.2598 1523.4844,79.5879 Q1522.4063,80.041 1521.1094,80.041 Q1519.5938,80.041 1518.3906,79.416 Q1517.4063,78.916 1516.7188,77.8535 Q1516.0313,76.7754 1516.0313,75.4941 L1516.0313,74.3379 Q1516.0313,73.0098 1516.6406,71.8691 Q1517.2656,70.7129 1518.3594,70.1035 Q1519.4531,69.4785 1520.6875,69.4785 Q1521.4219,69.4785 1522.0625,69.6504 Q1522.7188,69.8066 1523.2656,70.166 Z " fill="#000000"/><text fill="#000000" font-family="sans-serif" font-size="12" font-style="italic" lengthAdjust="spacing" textLength="85" x="1534.5" y="69.9492">&#171;Value Object&#187;</text><text fill="#000000" font-family="sans-serif" font-size="14" lengthAdjust="spacing" textLength="85" x="1534.5" y="88.0684">InterviewDate</text><line style="stroke:#181818;stroke-width:0.5;" x1="1506.5" x2="1621.5" y1="96.582" y2="96.582"/></g><!--class InterviewTime--><g id="elem_InterviewTime"><rect codeLine="31" fill="#F1F1F1" height="52.582" id="InterviewTime" rx="2.5" ry="2.5" style="stroke:#181818;stroke-width:0.5;" width="118" x="1348" y="335"/><ellipse cx="1363" cy="357.291" fill="#ADD1B2" rx="11" ry="11" style="stroke:#181818;stroke-width:1.0;"/><path d="M1365.7656,353.166 Q1365.9219,352.9473 1366.1094,352.8379 Q1366.2969,352.7285 1366.5156,352.7285 Q1366.8906,352.7285 1367.125,352.9941 Q1367.3594,353.2441 1367.3594,353.8535 L1367.3594,355.3066 Q1367.3594,355.916 1367.125,356.1816 Q1366.8906,356.4473 1366.5156,356.4473 Q1366.1719,356.4473 1365.9688,356.2441 Q1365.7656,356.0566 1365.6563,355.541 Q1365.6094,355.1816 1365.4219,354.9941 Q1365.0938,354.6191 1364.4844,354.4004 Q1363.875,354.1816 1363.25,354.1816 Q1362.4844,354.1816 1361.8438,354.5098 Q1361.2188,354.8379 1360.7188,355.5879 Q1360.2344,356.3379 1360.2344,357.3691 L1360.2344,358.4629 Q1360.2344,359.6973 1361.125,360.5254 Q1362.0156,361.3379 1363.6094,361.3379 Q1364.5469,361.3379 1365.2031,361.0879 Q1365.5938,360.9316 1366.0156,360.4941 Q1366.2813,360.2285 1366.4219,360.1504 Q1366.5781,360.0723 1366.7813,360.0723 Q1367.1094,360.0723 1367.3594,360.3379 Q1367.625,360.5879 1367.625,360.9316 Q1367.625,361.2754 1367.2813,361.6816 Q1366.7813,362.2598 1365.9844,362.5879 Q1364.9063,363.041 1363.6094,363.041 Q1362.0938,363.041 1360.8906,362.416 Q1359.9063,361.916 1359.2188,360.8535 Q1358.5313,359.7754 1358.5313,358.4941 L1358.5313,357.3379 Q1358.5313,356.0098 1359.1406,354.8691 Q1359.7656,353.7129 1360.8594,353.1035 Q1361.9531,352.4785 1363.1875,352.4785 Q1363.9219,352.4785 1364.5625,352.6504 Q1365.2188,352.8066 1365.7656,353.166 Z " fill="#000000"/><text fill="#000000" font-family="sans-serif" font-size="12" font-style="italic" lengthAdjust="spacing" textLength="85" x="1377.5" y="352.9492">&#171;Value Object&#187;</text><text fill="#000000" font-family="sans-serif" font-size="14" lengthAdjust="spacing" textLength="86" x="1377" y="371.0684">InterviewTime</text><line style="stroke:#181818;stroke-width:0.5;" x1="1349" x2="1465" y1="379.582" y2="379.582"/></g><!--class Score--><g id="elem_Score"><rect codeLine="32" fill="#F1F1F1" height="52.582" id="Score" rx="2.5" ry="2.5" style="stroke:#181818;stroke-width:0.5;" width="113" x="1511.5" y="205"/><ellipse cx="1526.5" cy="227.291" fill="#ADD1B2" rx="11" ry="11" style="stroke:#181818;stroke-width:1.0;"/><path d="M1529.2656,223.166 Q1529.4219,222.9473 1529.6094,222.8379 Q1529.7969,222.7285 1530.0156,222.7285 Q1530.3906,222.7285 1530.625,222.9941 Q1530.8594,223.2441 1530.8594,223.8535 L1530.8594,225.3066 Q1530.8594,225.916 1530.625,226.1816 Q1530.3906,226.4473 1530.0156,226.4473 Q1529.6719,226.4473 1529.4688,226.2441 Q1529.2656,226.0566 1529.1563,225.541 Q1529.1094,225.1816 1528.9219,224.9941 Q1528.5938,224.6191 1527.9844,224.4004 Q1527.375,224.1816 1526.75,224.1816 Q1525.9844,224.1816 1525.3438,224.5098 Q1524.7188,224.8379 1524.2188,225.5879 Q1523.7344,226.3379 1523.7344,227.3691 L1523.7344,228.4629 Q1523.7344,229.6973 1524.625,230.5254 Q1525.5156,231.3379 1527.1094,231.3379 Q1528.0469,231.3379 1528.7031,231.0879 Q1529.0938,230.9316 1529.5156,230.4941 Q1529.7813,230.2285 1529.9219,230.1504 Q1530.0781,230.0723 1530.2813,230.0723 Q1530.6094,230.0723 1530.8594,230.3379 Q1531.125,230.5879 1531.125,230.9316 Q1531.125,231.2754 1530.7813,231.6816 Q1530.2813,232.2598 1529.4844,232.5879 Q1528.4063,233.041 1527.1094,233.041 Q1525.5938,233.041 1524.3906,232.416 Q1523.4063,231.916 1522.7188,230.8535 Q1522.0313,229.7754 1522.0313,228.4941 L1522.0313,227.3379 Q1522.0313,226.0098 1522.6406,224.8691 Q1523.2656,223.7129 1524.3594,223.1035 Q1525.4531,222.4785 1526.6875,222.4785 Q1527.4219,222.4785 1528.0625,222.6504 Q1528.7188,222.8066 1529.2656,223.166 Z " fill="#000000"/><text fill="#000000" font-family="sans-serif" font-size="12" font-style="italic" lengthAdjust="spacing" textLength="85" x="1538.5" y="222.9492">&#171;Value Object&#187;</text><text fill="#000000" font-family="sans-serif" font-size="14" lengthAdjust="spacing" textLength="37" x="1562.5" y="241.0684">Score</text><line style="stroke:#181818;stroke-width:0.5;" x1="1512.5" x2="1623.5" y1="249.582" y2="249.582"/></g><!--class InterviewResult--><g id="elem_InterviewResult"><rect codeLine="33" fill="#F1F1F1" height="52.582" id="InterviewResult" rx="2.5" ry="2.5" style="stroke:#181818;stroke-width:0.5;" width="127" x="1501.5" y="335"/><ellipse cx="1516.5" cy="357.291" fill="#ADD1B2" rx="11" ry="11" style="stroke:#181818;stroke-width:1.0;"/><path d="M1519.2656,353.166 Q1519.4219,352.9473 1519.6094,352.8379 Q1519.7969,352.7285 1520.0156,352.7285 Q1520.3906,352.7285 1520.625,352.9941 Q1520.8594,353.2441 1520.8594,353.8535 L1520.8594,355.3066 Q1520.8594,355.916 1520.625,356.1816 Q1520.3906,356.4473 1520.0156,356.4473 Q1519.6719,356.4473 1519.4688,356.2441 Q1519.2656,356.0566 1519.1563,355.541 Q1519.1094,355.1816 1518.9219,354.9941 Q1518.5938,354.6191 1517.9844,354.4004 Q1517.375,354.1816 1516.75,354.1816 Q1515.9844,354.1816 1515.3438,354.5098 Q1514.7188,354.8379 1514.2188,355.5879 Q1513.7344,356.3379 1513.7344,357.3691 L1513.7344,358.4629 Q1513.7344,359.6973 1514.625,360.5254 Q1515.5156,361.3379 1517.1094,361.3379 Q1518.0469,361.3379 1518.7031,361.0879 Q1519.0938,360.9316 1519.5156,360.4941 Q1519.7813,360.2285 1519.9219,360.1504 Q1520.0781,360.0723 1520.2813,360.0723 Q1520.6094,360.0723 1520.8594,360.3379 Q1521.125,360.5879 1521.125,360.9316 Q1521.125,361.2754 1520.7813,361.6816 Q1520.2813,362.2598 1519.4844,362.5879 Q1518.4063,363.041 1517.1094,363.041 Q1515.5938,363.041 1514.3906,362.416 Q1513.4063,361.916 1512.7188,360.8535 Q1512.0313,359.7754 1512.0313,358.4941 L1512.0313,357.3379 Q1512.0313,356.0098 1512.6406,354.8691 Q1513.2656,353.7129 1514.3594,353.1035 Q1515.4531,352.4785 1516.6875,352.4785 Q1517.4219,352.4785 1518.0625,352.6504 Q1518.7188,352.8066 1519.2656,353.166 Z " fill="#000000"/><text fill="#000000" font-family="sans-serif" font-size="12" font-style="italic" lengthAdjust="spacing" textLength="85" x="1535.5" y="352.9492">&#171;Value Object&#187;</text><text fill="#000000" font-family="sans-serif" font-size="14" lengthAdjust="spacing" textLength="95" x="1530.5" y="371.0684">InterviewResult</text><line style="stroke:#181818;stroke-width:0.5;" x1="1502.5" x2="1627.5" y1="379.582" y2="379.582"/></g><!--link Candidate to CandidateId--><g id="link_Candidate_CandidateId"><path codeLine="40" d="M1125.51,266.13 C1114.13,284.8 1103.1412,302.8257 1091.7512,321.5257 " fill="none" id="Candidate-to-CandidateId" style="stroke:#181818;stroke-width:1.0;"/><polygon fill="#181818" points="1088.63,326.65,1096.7279,321.0443,1091.231,322.3798,1089.8955,316.8828,1088.63,326.65" style="stroke:#181818;stroke-width:1.0;"/><text fill="#000000" font-family="sans-serif" font-size="13" lengthAdjust="spacing" textLength="7" x="1114.3867" y="287.6356">1</text><text fill="#000000" font-family="sans-serif" font-size="13" lengthAdjust="spacing" textLength="7" x="1084.7883" y="315.7546">1</text></g><!--link Candidate to CurriculumVitae--><g id="link_Candidate_CurriculumVitae"><path codeLine="41" d="M1167.02,266.13 C1180.44,287.61 1194.4007,309.9416 1206.7407,329.6916 " fill="none" id="Candidate-to-CurriculumVitae" style="stroke:#181818;stroke-width:1.0;"/><polygon fill="#181818" points="1209.92,334.78,1208.5433,325.0278,1207.2706,330.5396,1201.7588,329.2669,1209.92,334.78" style="stroke:#181818;stroke-width:1.0;"/><text fill="#000000" font-family="sans-serif" font-size="13" lengthAdjust="spacing" textLength="7" x="1163.0313" y="287.6356">1</text><text fill="#000000" font-family="sans-serif" font-size="13" lengthAdjust="spacing" textLength="7" x="1198.3921" y="323.7457">1</text></g><!--link Application to ApplicationId--><g id="link_Application_ApplicationId"><path codeLine="44" d="M475.97,244.55 C398.74,259.91 265.51,289.1 155,327 C149.06,329.04 148.5081,329.1 142.4581,331.56 " fill="none" id="Application-to-ApplicationId" style="stroke:#181818;stroke-width:1.0;"/><polygon fill="#181818" points="136.9,333.82,146.7438,334.1354,141.5317,331.9367,143.7305,326.7246,136.9,333.82" style="stroke:#181818;stroke-width:1.0;"/><text fill="#000000" font-family="sans-serif" font-size="13" lengthAdjust="spacing" textLength="7" x="461.1618" y="242.1477">1</text><text fill="#000000" font-family="sans-serif" font-size="13" lengthAdjust="spacing" textLength="7" x="144.6388" y="326.2607">1</text></g><!--link Application to AttachedEmail--><g id="link_Application_AttachedEmail"><path codeLine="45" d="M475.57,259.04 C429.87,277.9 367.13,303.89 312,327 C305.95,329.53 305.1793,329.8605 298.8893,332.5105 " fill="none" id="Application-to-AttachedEmail" style="stroke:#181818;stroke-width:1.0;"/><polygon fill="#181818" points="293.36,334.84,303.207,335.0319,297.9678,332.8987,300.101,327.6595,293.36,334.84" style="stroke:#181818;stroke-width:1.0;"/><text fill="#000000" font-family="sans-serif" font-size="13" lengthAdjust="spacing" textLength="7" x="461.1402" y="277.0511">1</text><text fill="#000000" font-family="sans-serif" font-size="13" lengthAdjust="spacing" textLength="7" x="299.5089" y="323.8195">1</text></g><!--link Application to AttachedFile--><g id="link_Application_AttachedFile"><path codeLine="46" d="M499.54,266.13 C473.69,287.61 445.3133,311.1937 421.5633,330.9437 " fill="none" id="Application-to-AttachedFile" style="stroke:#181818;stroke-width:1.0;"/><polygon fill="#181818" points="416.95,334.78,426.4275,332.101,420.7944,331.5831,421.3124,325.95,416.95,334.78" style="stroke:#181818;stroke-width:1.0;"/><text fill="#000000" font-family="sans-serif" font-size="13" lengthAdjust="spacing" textLength="7" x="484.9844" y="287.6356">1</text><text fill="#000000" font-family="sans-serif" font-size="13" lengthAdjust="spacing" textLength="7" x="416.2978" y="323.7457">1</text></g><!--link Application to ApplicatorData--><g id="link_Application_ApplicatorData"><path codeLine="47" d="M540,266.13 C540,287.61 540,309.03 540,328.78 " fill="none" id="Application-to-ApplicatorData" style="stroke:#181818;stroke-width:1.0;"/><polygon fill="#181818" points="540,334.78,544,325.78,540,329.78,536,325.78,540,334.78" style="stroke:#181818;stroke-width:1.0;"/><text fill="#000000" font-family="sans-serif" font-size="13" lengthAdjust="spacing" textLength="7" x="532.3984" y="287.6356">1</text><text fill="#000000" font-family="sans-serif" font-size="13" lengthAdjust="spacing" textLength="7" x="532.1906" y="323.7457">1</text></g><!--link Application to Candidate--><g id="link_Application_Candidate"><path codeLine="48" d="M604.28,231.5 C720.79,231.5 959.56,231.5 1075.93,231.5 " fill="none" id="Application-to-Candidate" style="stroke:#181818;stroke-width:1.0;"/><polygon fill="#181818" points="1081.93,231.5,1072.93,227.5,1076.93,231.5,1072.93,235.5,1081.93,231.5" style="stroke:#181818;stroke-width:1.0;"/><text fill="#000000" font-family="sans-serif" font-size="13" lengthAdjust="spacing" textLength="75" x="805.5" y="224.5283">submitted by</text><text fill="#000000" font-family="sans-serif" font-size="13" lengthAdjust="spacing" textLength="7" x="612.1171" y="227.5888">1</text><text fill="#000000" font-family="sans-serif" font-size="13" lengthAdjust="spacing" textLength="7" x="1067.1172" y="227.5888">1</text></g><!--link Application to ApplicationStatus--><g id="link_Application_ApplicationStatus"><path codeLine="49" d="M584.14,266.13 C612.43,287.69 643.7977,311.5833 669.7277,331.3433 " fill="none" id="Application-to-ApplicationStatus" style="stroke:#181818;stroke-width:1.0;"/><polygon fill="#181818" points="674.5,334.98,669.7661,326.3434,670.5231,331.9494,664.9172,332.7064,674.5,334.98" style="stroke:#181818;stroke-width:1.0;"/><text fill="#000000" font-family="sans-serif" font-size="13" lengthAdjust="spacing" textLength="7" x="584.125" y="287.6356">1</text><text fill="#000000" font-family="sans-serif" font-size="13" lengthAdjust="spacing" textLength="7" x="658.4813" y="323.5586">1</text></g><!--link Application to ApplicationGrade--><g id="link_Application_ApplicationGrade"><path codeLine="50" d="M604.24,256.01 C656.06,275.02 730.79,302.55 796,327 C802.74,329.52 804.1376,330.0484 811.1476,332.6984 " fill="none" id="Application-to-ApplicationGrade" style="stroke:#181818;stroke-width:1.0;"/><polygon fill="#181818" points="816.76,334.82,809.7559,327.896,812.083,333.052,806.927,335.3791,816.76,334.82" style="stroke:#181818;stroke-width:1.0;"/><text fill="#000000" font-family="sans-serif" font-size="13" lengthAdjust="spacing" textLength="7" x="612.0724" y="254.9327">1</text><text fill="#000000" font-family="sans-serif" font-size="13" lengthAdjust="spacing" textLength="7" x="798.4858" y="326.298">1</text></g><!--reverse link JobInterviewId to JobInterview--><g id="link_JobInterviewId_JobInterview"><path codeLine="52" d="M1410.5194,119.0095 C1410.8494,143.9495 1411.22,171.84 1411.55,196.82 " fill="none" id="JobInterviewId-backto-JobInterview" style="stroke:#181818;stroke-width:1.0;"/><polygon fill="#181818" points="1410.44,113.01,1406.5594,122.0621,1410.5062,118.0096,1414.5587,121.9563,1410.44,113.01" style="stroke:#181818;stroke-width:1.0;"/><text fill="#000000" font-family="sans-serif" font-size="13" lengthAdjust="spacing" textLength="7" x="1402.9141" y="134.4949">1</text><text fill="#000000" font-family="sans-serif" font-size="13" lengthAdjust="spacing" textLength="7" x="1403.797" y="185.6884">1</text></g><!--reverse link InterviewDate to JobInterview--><g id="link_InterviewDate_JobInterview"><path codeLine="53" d="M1533.9631,109.3484 C1508.5531,134.5884 1473.84,169.07 1445.93,196.79 " fill="none" id="InterviewDate-backto-JobInterview" style="stroke:#181818;stroke-width:1.0;"/><polygon fill="#181818" points="1538.22,105.12,1529.0158,108.6247,1534.6726,108.6436,1534.6536,114.3005,1538.22,105.12" style="stroke:#181818;stroke-width:1.0;"/><text fill="#000000" font-family="sans-serif" font-size="13" lengthAdjust="spacing" textLength="7" x="1525.181" y="126.4649">1</text><text fill="#000000" font-family="sans-serif" font-size="13" lengthAdjust="spacing" textLength="7" x="1444.7307" y="185.6527">1</text></g><!--link JobInterview to InterviewTime--><g id="link_JobInterview_InterviewTime"><path codeLine="54" d="M1410.69,266.13 C1409.85,287.61 1409.0168,309.0347 1408.2368,328.7847 " fill="none" id="JobInterview-to-InterviewTime" style="stroke:#181818;stroke-width:1.0;"/><polygon fill="#181818" points="1408,334.78,1412.3521,325.9449,1408.1973,329.7839,1404.3583,325.6292,1408,334.78" style="stroke:#181818;stroke-width:1.0;"/><text fill="#000000" font-family="sans-serif" font-size="13" lengthAdjust="spacing" textLength="7" x="1402.8633" y="287.6356">1</text><text fill="#000000" font-family="sans-serif" font-size="13" lengthAdjust="spacing" textLength="7" x="1400.4219" y="323.7457">1</text></g><!--link JobInterview to Score--><g id="link_JobInterview_Score"><path codeLine="55" d="M1476.29,231.5 C1487.99,231.5 1493.69,231.5 1505.4,231.5 " fill="none" id="JobInterview-to-Score" style="stroke:#181818;stroke-width:1.0;"/><polygon fill="#181818" points="1511.4,231.5,1502.4,227.5,1506.4,231.5,1502.4,235.5,1511.4,231.5" style="stroke:#181818;stroke-width:1.0;"/><text fill="#000000" font-family="sans-serif" font-size="13" lengthAdjust="spacing" textLength="7" x="1484.1282" y="227.5888">1</text><text fill="#000000" font-family="sans-serif" font-size="13" lengthAdjust="spacing" textLength="7" x="1496.3241" y="227.4338">1</text></g><!--link JobInterview to InterviewResult--><g id="link_JobInterview_InterviewResult"><path codeLine="56" d="M1452.2,266.13 C1477.87,287.61 1506.0487,311.1793 1529.6487,330.9293 " fill="none" id="JobInterview-to-InterviewResult" style="stroke:#181818;stroke-width:1.0;"/><polygon fill="#181818" points="1534.25,334.78,1529.9151,325.9364,1530.4156,331.5711,1524.7809,332.0715,1534.25,334.78" style="stroke:#181818;stroke-width:1.0;"/><text fill="#000000" font-family="sans-serif" font-size="13" lengthAdjust="spacing" textLength="7" x="1451.5078" y="287.6356">1</text><text fill="#000000" font-family="sans-serif" font-size="13" lengthAdjust="spacing" textLength="7" x="1519.3297" y="323.7457">1</text></g><!--link JobInterview to Candidate--><g id="link_JobInterview_Candidate"><path codeLine="58" d="M1347.58,231.5 C1305.85,231.5 1257.71,231.5 1216.05,231.5 " fill="none" id="JobInterview-to-Candidate" style="stroke:#181818;stroke-width:1.0;"/><polygon fill="#181818" points="1210.05,231.5,1219.05,235.5,1215.05,231.5,1219.05,227.5,1210.05,231.5" style="stroke:#181818;stroke-width:1.0;"/><text fill="#000000" font-family="sans-serif" font-size="13" lengthAdjust="spacing" textLength="23" x="1267.5" y="224.5283">with</text><text fill="#000000" font-family="sans-serif" font-size="13" lengthAdjust="spacing" textLength="7" x="1333.1513" y="227.6395">1</text><text fill="#000000" font-family="sans-serif" font-size="13" lengthAdjust="spacing" textLength="7" x="1217.8605" y="227.5888">1</text></g><!--SRC=[bPFBRi8m44Nt_WgBBhgYg5iKHK90Axf1Wehz-A74bHD7phW88VwzUIkXIN6zoIBdZcUkxpp7Y5c-N2mo3IcwHBzmaoouXZoV2mMHXOIGM0b94ucn4JaXn4gEa4PQqjc7ONIVoLIb4LrbcLOSK9bqHfy0E6UCNWajJbMl3mJ1AegiZ00bFHY3OHW4snGLNiBmUXlNx4GGx8Hig20uWNQIxjbNqSwz2X5uBCKs0QMzo3UbvTzWquYn6q3mGekUZmZeSb_wtO8Ow-8sC9r3AfGedIjCPeppliVhzgUtmvtY7_wkdRMAE-sIaqAOQhaub4w4PPUYjDzAdekeb441QABINb707KCzXXdJUKtK2ZlLfdBFZ_rKoIFso8trhdUGkTCuIZUETiz5Pw-p-JmiF_qtd0263rRKwSMk8bfoi73JL7_17bBbSZsyi5witzZTX7H9SySIXIW5PHUVEUebz26h1IHaaBqATLa33-Fr5pd8qmXuZvLH6i5ggWgHHv4wFsIoJj_6iyAOa1y0]--></g></svg>